# Blender 4.0.0
# www.blender.org
o SandwichBread001
v 0.01888450 0.05340350 0.00850000
v 0.01093850 0.05132850 0.00850000
v 0.02003450 0.05274050 0.00850000
v 0.05319750 0.02016950 0.00850000
v 0.05338350 0.02280950 0.00850000
v 0.05349150 0.02625350 0.00850000
v 0.02443350 0.05303850 0.00850000
v 0.05060150 0.03793850 0.00850000
v 0.05382150 0.02948950 0.00850000
v 0.05339250 0.03291750 0.00850000
v 0.03346350 0.05310450 0.00850000
v 0.04895650 0.04417750 0.00850000
v 0.04680150 0.04776650 0.00850000
v 0.04381250 0.05052250 0.00850000
v 0.03911850 0.05279650 0.00850000
v 0.02463350 -0.05378450 0.00850000
v 0.02707950 -0.05378450 0.00850000
v 0.02172150 -0.05378450 0.00850000
v 0.04794550 -0.02015450 0.00850000
v 0.01674850 -0.05378450 0.00850000
v 0.00471750 -0.05378450 0.00850000
v 0.04995050 -0.02412450 0.00850000
v 0.05156450 -0.03455850 0.00850000
v 0.05157850 -0.02982650 0.00850000
v 0.03031850 -0.05378450 0.00850000
v 0.03774450 -0.05378450 0.00850000
v 0.05277750 -0.03898350 0.00850000
v 0.05328550 -0.04493550 0.00850000
v 0.04266050 -0.05378450 0.00850000
v 0.05307650 -0.04859750 0.00850000
v 0.04781150 -0.05378450 0.00850000
v 0.05197350 -0.05115850 0.00850000
v -0.00621550 0.04972050 0.00850000
v -0.01017050 0.05067250 0.00850000
v -0.00518850 0.04781650 0.00850000
v -0.01352150 0.05126750 0.00850000
v -0.04785650 0.03331850 0.00850000
v -0.03458150 0.05077450 0.00850000
v -0.03913250 0.04842850 0.00850000
v -0.05282350 0.01671250 0.00850000
v -0.05263050 0.00876150 0.00850000
v -0.05274950 0.00219950 0.00850000
v -0.05262250 -0.00188250 0.00850000
v 0.05106550 0.00053350 0.00850000
v 0.05159050 0.00958150 0.00850000
v 0.05149950 0.00388050 0.00850000
v 0.05242250 0.01396250 0.00850000
v -0.00354850 0.04867450 0.00850000
v 0.00405850 0.05127650 0.00850000
v -0.00167150 0.05056050 0.00850000
v 0.00108750 0.05172150 0.00850000
v -0.05307950 0.02321050 0.00850000
v -0.05216950 0.02850750 0.00850000
v -0.05274750 -0.00651050 0.00850000
v -0.05220750 -0.01004250 0.00850000
v 0.04986050 -0.01084850 0.00850000
v 0.05091750 -0.00334250 0.00850000
v 0.04823950 -0.01751150 0.00850000
v -0.00388350 -0.05378450 0.00850000
v 0.04839350 -0.01901150 0.00850000
v 0.05149950 0.00388050 -0.00850000
v 0.05106550 0.00053350 -0.00850000
v 0.05159050 0.00958150 -0.00850000
v -0.00518850 0.04781650 -0.00850000
v 0.01093850 0.05132850 -0.00850000
v -0.00354850 0.04867450 -0.00850000
v 0.00405850 0.05127650 -0.00850000
v -0.00167150 0.05056050 -0.00850000
v 0.00108750 0.05172150 -0.00850000
v -0.05262250 -0.00188250 -0.00850000
v 0.05091750 -0.00334250 -0.00850000
v 0.04986050 -0.01084850 -0.00850000
v -0.05274950 0.00219950 -0.00850000
v -0.05263050 0.00876150 -0.00850000
v -0.05282350 0.01671250 -0.00850000
v -0.04785650 0.03331850 -0.00850000
v -0.05307950 0.02321050 -0.00850000
v -0.05216950 0.02850750 -0.00850000
v -0.01352150 0.05126750 -0.00850000
v -0.01017050 0.05067250 -0.00850000
v -0.00621550 0.04972050 -0.00850000
v -0.03458150 0.05077450 -0.00850000
v -0.02953750 0.05281250 -0.00850000
v -0.02590850 0.05367850 -0.00850000
v -0.03913250 0.04842850 -0.00850000
v -0.04489750 0.04362550 -0.00850000
v -0.04344650 0.04539150 -0.00850000
v -0.04722350 0.04065050 -0.00850000
v -0.04868650 0.03754050 -0.00850000
v -0.01577050 0.05270250 0.00850000
v -0.02075050 0.05378450 0.00850000
v -0.02590850 0.05367850 0.00850000
v -0.02953750 0.05281250 0.00850000
v -0.05253650 -0.01327850 -0.00850000
v -0.05220750 -0.01004250 -0.00850000
v -0.05179450 -0.01814750 -0.00850000
v -0.00921550 -0.05378450 -0.00850000
v -0.01504050 -0.05378450 -0.00850000
v -0.00388350 -0.05378450 -0.00850000
v 0.04823950 -0.01751150 -0.00850000
v 0.00471750 -0.05378450 -0.00850000
v 0.04794550 -0.02015450 -0.00850000
v 0.01674850 -0.05378450 -0.00850000
v 0.02172150 -0.05378450 -0.00850000
v -0.00518850 0.04781650 -0.00850000
v -0.00518850 0.04781650 0.00850000
v -0.00354850 0.04867450 -0.00850000
v -0.00354850 0.04867450 0.00850000
v -0.00167150 0.05056050 -0.00850000
v -0.00167150 0.05056050 0.00850000
v 0.00108750 0.05172150 -0.00850000
v 0.00108750 0.05172150 0.00850000
v 0.00405850 0.05127650 -0.00850000
v 0.00405850 0.05127650 0.00850000
v 0.00855650 0.05184650 -0.00850000
v 0.00855650 0.05184650 0.00850000
v 0.01093850 0.05132850 -0.00850000
v 0.01093850 0.05132850 0.00850000
v 0.01888450 0.05340350 -0.00850000
v 0.01888450 0.05340350 0.00850000
v 0.02003450 0.05274050 -0.00850000
v 0.02003450 0.05274050 0.00850000
v 0.02443350 0.05303850 -0.00850000
v 0.02443350 0.05303850 0.00850000
v 0.03346350 0.05310450 -0.00850000
v 0.03346350 0.05310450 0.00850000
v 0.03911850 0.05279650 -0.00850000
v 0.03911850 0.05279650 0.00850000
v 0.04381250 0.05052250 -0.00850000
v 0.04381250 0.05052250 0.00850000
v 0.04680150 0.04776650 -0.00850000
v 0.04680150 0.04776650 0.00850000
v 0.04895650 0.04417750 -0.00850000
v 0.04895650 0.04417750 0.00850000
v 0.05043750 0.04148150 -0.00850000
v 0.05043750 0.04148150 0.00850000
v 0.05060150 0.03793850 -0.00850000
v 0.05060150 0.03793850 0.00850000
v 0.05220250 0.03658950 -0.00850000
v 0.05220250 0.03658950 0.00850000
v 0.05339250 0.03291750 -0.00850000
v 0.05339250 0.03291750 0.00850000
v 0.05382150 0.02948950 -0.00850000
v 0.05382150 0.02948950 0.00850000
v 0.05349150 0.02625350 -0.00850000
v 0.05349150 0.02625350 0.00850000
v 0.05338350 0.02280950 -0.00850000
v 0.05338350 0.02280950 0.00850000
v 0.05319750 0.02016950 -0.00850000
v 0.05319750 0.02016950 0.00850000
v 0.05242250 0.01396250 -0.00850000
v 0.05242250 0.01396250 0.00850000
v 0.05159050 0.00958150 -0.00850000
v 0.05159050 0.00958150 0.00850000
v 0.05149950 0.00388050 -0.00850000
v 0.05149950 0.00388050 0.00850000
v 0.05106550 0.00053350 -0.00850000
v 0.05106550 0.00053350 0.00850000
v 0.05091750 -0.00334250 -0.00850000
v 0.05091750 -0.00334250 0.00850000
v 0.04986050 -0.01084850 -0.00850000
v 0.04986050 -0.01084850 0.00850000
v 0.04823950 -0.01751150 -0.00850000
v 0.04823950 -0.01751150 0.00850000
v 0.04839350 -0.01901150 -0.00850000
v 0.04839350 -0.01901150 0.00850000
v 0.04794550 -0.02015450 -0.00850000
v 0.04794550 -0.02015450 0.00850000
v 0.04995050 -0.02412450 -0.00850000
v 0.04995050 -0.02412450 0.00850000
v 0.05157850 -0.02982650 -0.00850000
v 0.05157850 -0.02982650 0.00850000
v 0.05156450 -0.03455850 -0.00850000
v 0.05156450 -0.03455850 0.00850000
v 0.05277750 -0.03898350 -0.00850000
v 0.05277750 -0.03898350 0.00850000
v 0.05328550 -0.04493550 -0.00850000
v 0.05328550 -0.04493550 0.00850000
v 0.05307650 -0.04859750 -0.00850000
v 0.05307650 -0.04859750 0.00850000
v 0.05197350 -0.05115850 -0.00850000
v 0.05197350 -0.05115850 0.00850000
v 0.04781150 -0.05378450 -0.00850000
v 0.04781150 -0.05378450 0.00850000
v -0.04785650 0.03331850 -0.00850000
v -0.04785650 0.03331850 0.00850000
v -0.04868650 0.03754050 -0.00850000
v -0.04868650 0.03754050 0.00850000
v -0.04722350 0.04065050 -0.00850000
v -0.04722350 0.04065050 0.00850000
v -0.04489750 0.04362550 -0.00850000
v -0.04489750 0.04362550 0.00850000
v -0.04344650 0.04539150 -0.00850000
v -0.04344650 0.04539150 0.00850000
v -0.03913250 0.04842850 -0.00850000
v -0.03913250 0.04842850 0.00850000
v -0.03458150 0.05077450 -0.00850000
v -0.03458150 0.05077450 0.00850000
v -0.02953750 0.05281250 -0.00850000
v -0.02953750 0.05281250 0.00850000
v -0.02590850 0.05367850 -0.00850000
v -0.02590850 0.05367850 0.00850000
v -0.02075050 0.05378450 -0.00850000
v -0.02075050 0.05378450 0.00850000
v -0.01577050 0.05270250 -0.00850000
v -0.01577050 0.05270250 0.00850000
v -0.01352150 0.05126750 -0.00850000
v -0.01352150 0.05126750 0.00850000
v -0.01017050 0.05067250 -0.00850000
v -0.01017050 0.05067250 0.00850000
v -0.00621550 0.04972050 -0.00850000
v -0.00621550 0.04972050 0.00850000
v -0.00518850 0.04781650 -0.00850000
v -0.00518850 0.04781650 0.00850000
v -0.04976050 -0.05378450 -0.00850000
v -0.05273150 -0.05199350 -0.00850000
v -0.04733050 -0.05378450 -0.00850000
v -0.05382150 -0.04804850 -0.00850000
v -0.05375250 -0.04508950 -0.00850000
v -0.04185350 -0.05378450 -0.00850000
v -0.05337950 -0.04152950 -0.00850000
v -0.05259350 -0.03741950 -0.00850000
v -0.03407850 -0.05378450 -0.00850000
v -0.05172150 -0.03432750 -0.00850000
v -0.05073250 -0.03155550 -0.00850000
v -0.02729950 -0.05378450 -0.00850000
v -0.02118650 -0.05378450 -0.00850000
v -0.05145150 -0.02399650 -0.00850000
v -0.04976050 -0.05378450 0.00850000
v -0.04733050 -0.05378450 0.00850000
v -0.05273150 -0.05199350 0.00850000
v -0.05382150 -0.04804850 0.00850000
v -0.05375250 -0.04508950 0.00850000
v -0.04185350 -0.05378450 0.00850000
v -0.05337950 -0.04152950 0.00850000
v -0.05259350 -0.03741950 0.00850000
v -0.03407850 -0.05378450 0.00850000
v -0.05172150 -0.03432750 0.00850000
v -0.05073250 -0.03155550 0.00850000
v -0.02729950 -0.05378450 0.00850000
v -0.02118650 -0.05378450 0.00850000
v -0.05145150 -0.02399650 0.00850000
v -0.05179450 -0.01814750 0.00850000
v -0.01504050 -0.05378450 0.00850000
v -0.00921550 -0.05378450 0.00850000
v 0.04781150 -0.05378450 -0.00850000
v 0.04781150 -0.05378450 0.00850000
v 0.04266050 -0.05378450 -0.00850000
v 0.04266050 -0.05378450 0.00850000
v 0.03774450 -0.05378450 -0.00850000
v 0.03774450 -0.05378450 0.00850000
v 0.03031850 -0.05378450 -0.00850000
v 0.03031850 -0.05378450 0.00850000
v 0.02707950 -0.05378450 -0.00850000
v 0.02707950 -0.05378450 0.00850000
v 0.02463350 -0.05378450 -0.00850000
v 0.02463350 -0.05378450 0.00850000
v 0.02172150 -0.05378450 -0.00850000
v 0.02172150 -0.05378450 0.00850000
v 0.01674850 -0.05378450 -0.00850000
v 0.01674850 -0.05378450 0.00850000
v 0.00471750 -0.05378450 -0.00850000
v 0.00471750 -0.05378450 0.00850000
v -0.00388350 -0.05378450 -0.00850000
v -0.00388350 -0.05378450 0.00850000
v -0.00921550 -0.05378450 -0.00850000
v -0.00921550 -0.05378450 0.00850000
v -0.01504050 -0.05378450 -0.00850000
v -0.01504050 -0.05378450 0.00850000
v -0.02118650 -0.05378450 -0.00850000
v -0.02118650 -0.05378450 0.00850000
v -0.02729950 -0.05378450 -0.00850000
v -0.02729950 -0.05378450 0.00850000
v -0.03407850 -0.05378450 -0.00850000
v -0.03407850 -0.05378450 0.00850000
v -0.04185350 -0.05378450 -0.00850000
v -0.04185350 -0.05378450 0.00850000
v -0.04733050 -0.05378450 -0.00850000
v -0.04733050 -0.05378450 0.00850000
v -0.04976050 -0.05378450 -0.00850000
v -0.04976050 -0.05378450 0.00850000
v -0.05273150 -0.05199350 -0.00850000
v -0.05273150 -0.05199350 0.00850000
v -0.05382150 -0.04804850 -0.00850000
v -0.05382150 -0.04804850 0.00850000
v -0.05375250 -0.04508950 -0.00850000
v -0.05375250 -0.04508950 0.00850000
v -0.05337950 -0.04152950 -0.00850000
v -0.05337950 -0.04152950 0.00850000
v -0.05259350 -0.03741950 -0.00850000
v -0.05259350 -0.03741950 0.00850000
v -0.05172150 -0.03432750 -0.00850000
v -0.05172150 -0.03432750 0.00850000
v -0.05073250 -0.03155550 -0.00850000
v -0.05073250 -0.03155550 0.00850000
v -0.05145150 -0.02399650 -0.00850000
v -0.05145150 -0.02399650 0.00850000
v -0.05179450 -0.01814750 -0.00850000
v -0.05179450 -0.01814750 0.00850000
v -0.05253650 -0.01327850 -0.00850000
v -0.05253650 -0.01327850 0.00850000
v -0.05220750 -0.01004250 -0.00850000
v -0.05220750 -0.01004250 0.00850000
v -0.05274750 -0.00651050 -0.00850000
v -0.05274750 -0.00651050 0.00850000
v -0.05262250 -0.00188250 -0.00850000
v -0.05262250 -0.00188250 0.00850000
v -0.05274950 0.00219950 -0.00850000
v -0.05274950 0.00219950 0.00850000
v -0.05263050 0.00876150 -0.00850000
v -0.05263050 0.00876150 0.00850000
v -0.05282350 0.01671250 -0.00850000
v -0.05282350 0.01671250 0.00850000
v -0.05307950 0.02321050 -0.00850000
v -0.05307950 0.02321050 0.00850000
v -0.05216950 0.02850750 -0.00850000
v -0.05216950 0.02850750 0.00850000
v -0.05106250 0.03096150 -0.00850000
v -0.05106250 0.03096150 0.00850000
v -0.04785650 0.03331850 -0.00850000
v -0.04785650 0.03331850 0.00850000
v 0.05242250 0.01396250 -0.00850000
v 0.05319750 0.02016950 -0.00850000
v 0.02003450 0.05274050 -0.00850000
v 0.01888450 0.05340350 -0.00850000
v 0.05338350 0.02280950 -0.00850000
v 0.05349150 0.02625350 -0.00850000
v 0.02443350 0.05303850 -0.00850000
v 0.05060150 0.03793850 -0.00850000
v 0.05382150 0.02948950 -0.00850000
v 0.05339250 0.03291750 -0.00850000
v 0.03346350 0.05310450 -0.00850000
v 0.04895650 0.04417750 -0.00850000
v 0.05043750 0.04148150 -0.00850000
v 0.04680150 0.04776650 -0.00850000
v 0.04381250 0.05052250 -0.00850000
v 0.02463350 -0.05378450 -0.00850000
v 0.02707950 -0.05378450 -0.00850000
v 0.04995050 -0.02412450 -0.00850000
v 0.05156450 -0.03455850 -0.00850000
v 0.05157850 -0.02982650 -0.00850000
v 0.03031850 -0.05378450 -0.00850000
v 0.03774450 -0.05378450 -0.00850000
v 0.05277750 -0.03898350 -0.00850000
v 0.05328550 -0.04493550 -0.00850000
v 0.04266050 -0.05378450 -0.00850000
v 0.05307650 -0.04859750 -0.00850000
v 0.04781150 -0.05378450 -0.00850000
v 0.05197350 -0.05115850 -0.00850000
v -0.01577050 0.05270250 -0.00850000
v -0.02075050 0.05378450 -0.00850000
v -0.04344650 0.04539150 0.00850000
v -0.04489750 0.04362550 0.00850000
v -0.04722350 0.04065050 0.00850000
v -0.04868650 0.03754050 0.00850000
v -0.05106250 0.03096150 0.00850000
v 0.05220250 0.03658950 0.00850000
v 0.05043750 0.04148150 0.00850000
v 0.00855650 0.05184650 0.00850000
v -0.05253650 -0.01327850 0.00850000
v 0.04839350 -0.01901150 -0.00850000
v 0.00855650 0.05184650 -0.00850000
v -0.05274750 -0.00651050 -0.00850000
v 0.05220250 0.03658950 -0.00850000
v 0.03911850 0.05279650 -0.00850000
v -0.05106250 0.03096150 -0.00850000
vn -0.0000 -0.0000 1.0000
vn -0.0000 1.0000 -0.0000
vn -0.0000 0.0001 1.0000
vn -0.0000 -0.0000 -1.0000
vn -0.4855 0.8743 0.0022
vn -0.4855 0.8742 -0.0014
vn -0.6704 0.7342 0.1071
vn -0.5529 0.8213 0.1406
vn -0.5071 0.8362 -0.2089
vn -0.5834 0.7856 0.2061
vn -0.0507 0.9498 -0.3087
vn -0.1846 0.9334 0.3078
vn -0.0843 0.9911 0.1030
vn 0.0538 0.9896 0.1335
vn 0.0809 0.9785 -0.1899
vn 0.0011 0.9824 0.1866
vn -0.1783 0.9700 0.1653
vn 0.0575 0.9749 0.2149
vn 0.1883 0.8723 -0.4513
vn 0.0124 0.8975 0.4408
vn 0.0242 0.9791 0.2019
vn 0.2986 0.9180 0.2611
vn -0.0307 0.9990 -0.0320
vn -0.0419 0.9986 0.0329
vn 0.0288 0.9990 -0.0338
vn 0.0180 0.9993 0.0327
vn 0.2830 0.9335 -0.2202
vn 0.2041 0.9538 0.2205
vn 0.5803 0.7990 -0.1575
vn 0.5314 0.8335 0.1513
vn 0.7856 0.6014 -0.1451
vn 0.7500 0.6461 0.1413
vn 0.8688 0.4948 -0.0178
vn 0.8651 0.5013 0.0183
vn 0.9506 0.2177 -0.2213
vn 0.9239 0.3084 0.2263
vn 0.7454 0.6202 0.2442
vn 0.8874 0.3341 0.3175
vn 0.8310 0.4795 -0.2821
vn 0.7610 0.5816 0.2876
vn 0.9761 0.1982 -0.0892
vn 0.9682 0.2339 0.0886
vn 0.9944 -0.0109 -0.1054
vn 0.9936 0.0339 0.1075
vn 0.9987 -0.0450 0.0241
vn 0.9967 -0.0756 0.0309
vn 0.9983 -0.0551 -0.0178
vn 0.9987 -0.0472 0.0183
vn 0.9944 -0.1029 -0.0225
vn 0.9953 -0.0927 0.0269
vn 0.9866 -0.1605 -0.0294
vn 0.9883 -0.1499 0.0295
vn 0.9970 -0.0498 0.0585
vn 0.9895 -0.1254 0.0724
vn 0.9952 -0.0820 -0.0533
vn 0.9967 -0.0619 0.0517
vn 0.9980 -0.0557 0.0310
vn 0.9947 -0.0955 0.0394
vn 0.9940 -0.0988 -0.0477
vn 0.9955 -0.0820 0.0471
vn 0.9797 -0.1953 -0.0460
vn 0.9824 -0.1808 0.0467
vn 0.9934 0.0265 0.1117
vn 0.9834 -0.1089 0.1449
vn 0.9539 -0.1875 -0.2343
vn 0.9708 -0.0766 0.2273
vn 0.9312 0.2764 0.2377
vn 0.9484 -0.0567 0.3121
vn 0.9339 0.3464 -0.0886
vn 0.9213 0.3776 0.0928
vn 0.9844 0.1122 -0.1354
vn 0.9778 0.1608 0.1343
vn 0.9740 0.2085 0.0887
vn 0.9889 0.0942 0.1146
vn 0.9837 0.1582 -0.0856
vn 0.9781 0.1892 0.0868
vn 0.9978 0.0022 -0.0663
vn 0.9974 0.0273 0.0664
vn 0.9508 -0.2603 -0.1682
vn 0.9669 -0.1901 0.1703
vn 0.6802 -0.6688 -0.3001
vn 0.7594 -0.5725 0.3092
vn 0.2795 -0.9601 0.0099
vn 0.2794 -0.9602 0.0022
vn -0.9419 0.3358 0.0022
vn -0.9309 0.2799 0.2345
vn -0.9315 0.1779 -0.3172
vn -0.9472 0.0504 0.3167
vn -0.8334 0.5410 -0.1133
vn -0.8578 0.5026 0.1073
vn -0.7783 0.6278 -0.0099
vn -0.7823 0.6227 0.0135
vn -0.6509 0.7471 -0.1347
vn -0.6924 0.7072 0.1430
vn -0.5049 0.8601 -0.0725
vn -0.5279 0.8463 0.0711
vn -0.4080 0.9118 -0.0469
vn -0.4245 0.9041 0.0497
vn -0.2888 0.9541 -0.0792
vn -0.3190 0.9442 0.0815
vn -0.1014 0.9878 -0.1181
vn -0.1473 0.9824 0.1152
vn 0.1202 0.9844 -0.1283
vn 0.0716 0.9890 0.1292
vn 0.4077 0.8927 -0.1917
vn 0.3344 0.9226 0.1922
vn 0.2343 0.9623 0.1380
vn 0.4092 0.8939 0.1829
vn 0.2113 0.9770 -0.0302
vn 0.1978 0.9797 0.0341
vn 0.6133 0.6430 -0.4586
vn 0.4570 0.7643 0.4550
vn 0.8818 0.4715 0.0023
vn 0.8819 0.4715 0.0022
vn 0.2724 -0.9622 0.0022
vn 0.2724 -0.9622 -0.0057
vn -0.0219 -0.9932 -0.1140
vn 0.0214 -0.9933 0.1138
vn 0.0454 -0.9976 0.0517
vn -0.0221 -0.9977 0.0637
vn -0.0096 -0.9983 -0.0571
vn 0.0117 -0.9983 0.0562
vn 0.1770 -0.9660 0.1883
vn -0.0721 -0.9678 0.2411
vn -0.0517 -0.9722 -0.2284
vn 0.0509 -0.9712 0.2327
vn 0.0984 -0.9895 0.1057
vn -0.0441 -0.9897 0.1360
vn -0.0143 -0.9972 -0.0731
vn 0.0088 -0.9972 0.0745
vn -0.0019 -0.9999 -0.0140
vn 0.0015 -0.9999 0.0130
vn -0.0056 -0.9994 -0.0343
vn 0.0063 -0.9994 0.0355
vn -0.0041 -0.9998 -0.0186
vn 0.0039 -0.9998 0.0220
vn 0.0013 -1.0000 0.0038
vn -0.0013 -1.0000 0.0042
vn 0.0611 -0.9956 0.0713
vn -0.0299 -0.9956 0.0892
vn -0.0104 -0.9983 -0.0568
vn 0.0095 -0.9983 0.0580
vn 0.0382 -0.9982 0.0458
vn -0.0197 -0.9982 0.0562
vn -0.0042 -0.9997 -0.0232
vn 0.0044 -0.9997 0.0250
vn -0.0186 -0.9950 -0.0985
vn 0.0217 -0.9950 0.0970
vn -0.3170 -0.9090 -0.2705
vn -0.2052 -0.9419 0.2658
vn -0.7874 -0.5046 -0.3541
vn -0.7012 -0.6195 0.3528
vn -0.9859 -0.0938 -0.1383
vn -0.9783 -0.1515 0.1411
vn -0.9967 0.0724 -0.0381
vn -0.9977 0.0567 0.0367
vn -0.9872 0.1545 -0.0394
vn -0.9895 0.1388 0.0390
vn -0.9704 0.2378 -0.0415
vn -0.9742 0.2222 0.0385
vn -0.9501 0.3104 -0.0317
vn -0.9542 0.2975 0.0316
vn -0.9906 -0.0066 0.1366
vn -0.9673 0.1839 0.1744
vn -0.9972 -0.0736 -0.0158
vn -0.9967 -0.0796 0.0178
vn -0.9908 -0.1315 0.0324
vn -0.9950 -0.0917 0.0405
vn -0.9927 -0.0018 -0.1209
vn -0.9917 -0.0495 0.1190
vn -0.9916 -0.1002 0.0822
vn -0.9942 0.0084 0.1076
vn -0.9955 -0.0445 -0.0832
vn -0.9934 -0.0779 0.0844
vn -0.9996 -0.0206 0.0211
vn -0.9997 0.0052 0.0243
vn -0.9997 -0.0017 -0.0225
vn -0.9997 -0.0100 0.0229
vn -0.9998 -0.0134 0.0150
vn -0.9998 0.0040 0.0198
vn -0.9994 -0.0349 0.0063
vn -0.9995 -0.0296 0.0071
vn -0.9916 0.0821 -0.0999
vn -0.9939 0.0476 0.0991
vn -0.9420 0.3120 -0.1236
vn -0.9566 0.2654 0.1203
vn -0.7108 0.6512 -0.2657
vn -0.7819 0.5633 0.2671
vn -0.8759 0.4160 -0.2446
vn -0.9250 0.3798 0.0022
vt 0.643099 0.640762
vt 0.632499 0.676851
vt 0.639097 0.635650
vt 0.443435 0.490992
vt 0.458902 0.489889
vt 0.478804 0.488786
vt 0.639962 0.615800
vt 0.547269 0.500214
vt 0.497840 0.486881
vt 0.517633 0.488385
vt 0.638664 0.575300
vt 0.583935 0.506831
vt 0.605134 0.516054
vt 0.621899 0.528885
vt 0.635960 0.549837
vt 0.019556 0.629033
vt 0.023558 0.618708
vt 0.020962 0.642968
vt 0.209918 0.520465
vt 0.016960 0.665423
vt 0.016960 0.719557
vt 0.186447 0.511944
vt 0.125553 0.506029
vt 0.152917 0.505327
vt 0.020421 0.604372
vt 0.017826 0.570889
vt 0.099486 0.501317
vt 0.064659 0.499813
vt 0.012526 0.548734
vt 0.043460 0.501317
vt 0.013391 0.525577
vt 0.028858 0.506430
vt 0.626226 0.754143
vt 0.632499 0.771786
vt 0.614761 0.749732
vt 0.636393 0.786924
vt 0.538400 0.943712
vt 0.637366 0.881558
vt 0.624495 0.902510
vt 0.442570 0.968373
vt 0.396277 0.968774
vt 0.358205 0.970277
vt 0.334410 0.970277
vt 0.329543 0.503523
vt 0.382109 0.499813
vt 0.349012 0.500916
vt 0.407742 0.495403
vt 0.619628 0.742414
vt 0.633364 0.707828
vt 0.630228 0.733592
vt 0.636393 0.721061
vt 0.480534 0.968774
vt 0.511035 0.963962
vt 0.307478 0.971380
vt 0.286711 0.969475
vt 0.263781 0.510440
vt 0.307045 0.504625
vt 0.225385 0.518560
vt 0.018258 0.758253
vt 0.216516 0.518259
vt 0.648398 0.858701
vt 0.652725 0.842160
vt 0.597563 0.928975
vt 0.607730 0.922359
vt 0.580798 0.940002
vt 0.563168 0.947020
vt 0.645262 0.796848
vt 0.652292 0.818903
vt 0.268216 0.971380
vt 0.239445 0.968774
vt 0.020962 0.782112
vt 0.025289 0.808277
vt 0.288009 0.162482
vt 0.282168 0.127094
vt 0.294714 0.161680
vt 0.288874 0.126292
vt 0.304773 0.160577
vt 0.298933 0.125190
vt 0.315698 0.159374
vt 0.309857 0.123886
vt 0.326622 0.158071
vt 0.320781 0.122684
vt 0.342954 0.156166
vt 0.337113 0.120779
vt 0.351931 0.155164
vt 0.346090 0.119776
vt 0.381783 0.151755
vt 0.375943 0.116368
vt 0.386759 0.151254
vt 0.380918 0.115766
vt 0.402766 0.149349
vt 0.396926 0.113962
vt 0.435322 0.145640
vt 0.429482 0.110253
vt 0.455873 0.143335
vt 0.450032 0.107947
vt 0.475234 0.141129
vt 0.469393 0.105742
vt 0.490592 0.139325
vt 0.484752 0.103937
vt 0.506600 0.137520
vt 0.500759 0.102133
vt 0.518389 0.136217
vt 0.512549 0.100729
vt 0.532342 0.134613
vt 0.526501 0.099125
vt 0.540130 0.133711
vt 0.534289 0.098323
vt 0.555164 0.132007
vt 0.549323 0.096619
vt 0.568467 0.130503
vt 0.562735 0.095015
vt 0.581338 0.128999
vt 0.575498 0.093612
vt 0.594750 0.127495
vt 0.588910 0.092008
vt 0.605134 0.126292
vt 0.599293 0.090905
vt 0.629362 0.123485
vt 0.623521 0.088098
vt 0.646992 0.121481
vt 0.641151 0.086093
vt 0.669164 0.118974
vt 0.663324 0.083587
vt 0.682360 0.117471
vt 0.676519 0.082083
vt 0.697502 0.115766
vt 0.691662 0.080279
vt 0.726922 0.112358
vt 0.721189 0.076970
vt 0.753529 0.109351
vt 0.747689 0.073863
vt 0.759478 0.108649
vt 0.753637 0.073261
vt 0.764237 0.108047
vt 0.758505 0.072660
vt 0.781434 0.106143
vt 0.775594 0.070755
vt 0.804581 0.103536
vt 0.798740 0.068048
vt 0.822968 0.101431
vt 0.817127 0.065943
vt 0.840814 0.099326
vt 0.834974 0.063938
vt 0.864285 0.096719
vt 0.858444 0.061231
vt 0.878562 0.095015
vt 0.872722 0.059628
vt 0.889162 0.093812
vt 0.883321 0.058425
vt 0.907765 0.091707
vt 0.901925 0.056319
vt 0.080233 0.186241
vt 0.074393 0.150853
vt 0.097106 0.184336
vt 0.091266 0.148848
vt 0.110194 0.182832
vt 0.104353 0.147345
vt 0.124579 0.181128
vt 0.118738 0.145741
vt 0.133232 0.180126
vt 0.127391 0.144738
vt 0.152809 0.177920
vt 0.146968 0.142533
vt 0.171737 0.175815
vt 0.165896 0.140327
vt 0.191530 0.173509
vt 0.185689 0.138122
vt 0.205158 0.171905
vt 0.199426 0.136518
vt 0.223870 0.169800
vt 0.218029 0.134413
vt 0.242257 0.167695
vt 0.236416 0.132307
vt 0.252208 0.166592
vt 0.246367 0.131205
vt 0.264646 0.165189
vt 0.258805 0.129701
vt 0.279464 0.163484
vt 0.273623 0.128097
vt 0.029723 0.964663
vt 0.043027 0.977595
vt 0.027127 0.953636
vt 0.065957 0.982006
vt 0.083154 0.981305
vt 0.027560 0.928975
vt 0.103921 0.979099
vt 0.127716 0.974989
vt 0.030156 0.893989
vt 0.145454 0.970578
vt 0.161354 0.965766
vt 0.027993 0.863513
vt 0.029723 0.835845
vt 0.205483 0.967972
vt 0.881050 0.010506
vt 0.887648 0.052209
vt 0.859093 0.012912
vt 0.865691 0.054615
vt 0.837786 0.015318
vt 0.844384 0.056921
vt 0.805987 0.018726
vt 0.812476 0.060430
vt 0.792142 0.020330
vt 0.798740 0.061933
vt 0.781002 0.021533
vt 0.787600 0.063136
vt 0.768347 0.022937
vt 0.774945 0.064540
vt 0.746823 0.025242
vt 0.753421 0.066946
vt 0.695555 0.030957
vt 0.702153 0.072560
vt 0.658889 0.034967
vt 0.665487 0.076569
vt 0.636176 0.037473
vt 0.642773 0.079076
vt 0.611082 0.040179
vt 0.617680 0.081883
vt 0.584691 0.043087
vt 0.591289 0.084790
vt 0.558517 0.045994
vt 0.565114 0.087597
vt 0.529530 0.049202
vt 0.536128 0.090805
vt 0.496325 0.052811
vt 0.502922 0.094514
vt 0.472962 0.055417
vt 0.479560 0.097020
vt 0.462254 0.056520
vt 0.468852 0.098223
vt 0.446247 0.058324
vt 0.452844 0.100027
vt 0.427643 0.060329
vt 0.434241 0.102032
vt 0.414015 0.061833
vt 0.420613 0.103536
vt 0.397466 0.063637
vt 0.404064 0.105341
vt 0.378214 0.065843
vt 0.384812 0.107446
vt 0.363721 0.067447
vt 0.370318 0.109050
vt 0.350309 0.068850
vt 0.356906 0.110553
vt 0.315373 0.072660
vt 0.321971 0.114363
vt 0.288549 0.075667
vt 0.295147 0.117370
vt 0.265728 0.078173
vt 0.272325 0.119877
vt 0.251018 0.079777
vt 0.257616 0.121481
vt 0.234469 0.081582
vt 0.241067 0.123285
vt 0.213162 0.083988
vt 0.219760 0.125591
vt 0.194342 0.085993
vt 0.200940 0.127696
vt 0.164382 0.089301
vt 0.170979 0.131004
vt 0.127715 0.093311
vt 0.134313 0.135014
vt 0.097755 0.096619
vt 0.104353 0.138322
vt 0.073203 0.099326
vt 0.079801 0.141029
vt 0.060873 0.100729
vt 0.067470 0.142332
vt 0.043459 0.102634
vt 0.050057 0.144237
vt 0.568036 0.500515
vt 0.525204 0.958448
vt 0.539265 0.493197
vt 0.635960 0.687578
s 1
f 1/1/1 2/2/1 3/3/1
f 2/2/1 4/4/1 3/3/1
f 3/3/1 4/4/1 5/5/1
f 5/5/1 6/6/1 3/3/1
f 6/6/1 7/7/1 3/3/1
f 7/7/1 6/6/1 8/8/1
f 6/6/1 9/9/1 8/8/1
f 8/8/1 9/9/1 10/10/1
f 7/7/1 8/8/1 11/11/1
f 8/8/1 12/12/1 11/11/1
f 11/11/1 12/12/1 13/13/1
f 13/13/1 14/14/1 11/11/1
f 14/14/1 15/15/1 11/11/1
f 16/16/2 17/17/1 18/18/3
f 17/17/1 19/19/1 18/18/3
f 18/18/3 19/19/1 20/20/1
f 19/19/1 21/21/1 20/20/1
f 19/19/1 17/17/1 22/22/1
f 17/17/1 23/23/1 22/22/1
f 22/22/1 23/23/1 24/24/1
f 17/17/1 25/25/1 23/23/1
f 25/25/1 26/26/1 23/23/1
f 23/23/1 26/26/1 27/27/1
f 26/26/1 28/28/1 27/27/1
f 26/26/1 29/29/1 28/28/1
f 29/29/1 30/30/1 28/28/1
f 29/29/1 31/31/1 30/30/1
f 31/31/1 32/32/1 30/30/1
f 33/33/1 34/34/1 35/35/1
f 34/34/1 36/36/1 35/35/1
f 35/35/1 36/36/1 37/37/1
f 36/36/1 38/38/1 37/37/1
f 37/37/1 38/38/1 39/39/1
f 37/37/1 40/40/1 35/35/1
f 40/40/1 41/41/1 35/35/1
f 35/35/1 41/41/1 42/42/1
f 42/42/1 43/43/1 35/35/1
f 43/43/1 44/44/1 35/35/1
f 35/35/1 44/44/1 45/45/1
f 44/44/1 46/46/1 45/45/1
f 35/35/1 45/45/1 2/2/1
f 45/45/1 47/47/1 2/2/1
f 2/2/1 47/47/1 4/4/1
f 35/35/1 2/2/1 48/48/1
f 2/2/1 49/49/1 48/48/1
f 48/48/1 49/49/1 50/50/1
f 49/49/1 51/51/1 50/50/1
f 40/40/1 37/37/1 52/52/1
f 37/37/1 53/53/1 52/52/1
f 54/54/1 55/55/1 43/43/1
f 55/55/1 56/56/1 43/43/1
f 43/43/1 56/56/1 57/57/1
f 56/56/1 55/55/1 58/58/1
f 55/55/1 59/59/1 58/58/1
f 58/58/1 59/59/1 21/21/1
f 21/21/1 19/19/1 58/58/1
f 19/19/1 60/60/1 58/58/1
f 61/46/4 62/44/4 63/45/4
f 62/44/4 64/35/4 63/45/4
f 63/45/4 64/35/4 65/2/4
f 64/35/4 66/48/4 65/2/4
f 65/2/4 66/48/4 67/49/4
f 66/48/4 68/50/4 67/49/4
f 67/49/4 68/50/4 69/51/4
f 64/35/4 62/44/4 70/43/4
f 62/44/4 71/57/4 70/43/4
f 70/43/4 71/57/4 72/56/4
f 70/43/4 73/42/4 64/35/4
f 73/42/4 74/41/4 64/35/4
f 64/35/4 74/41/4 75/40/4
f 64/35/4 75/40/4 76/37/4
f 75/40/4 77/52/4 76/37/4
f 76/37/4 77/52/4 78/53/4
f 76/37/4 79/36/4 64/35/4
f 79/36/4 80/34/4 64/35/4
f 64/35/4 80/34/4 81/33/4
f 76/37/4 82/38/4 79/36/4
f 82/38/4 83/61/4 79/36/4
f 79/36/4 83/61/4 84/62/4
f 82/38/4 76/37/4 85/39/4
f 76/37/4 86/63/4 85/39/4
f 85/39/4 86/63/4 87/64/4
f 86/63/4 76/37/4 88/65/4
f 76/37/4 89/66/4 88/65/4
f 90/67/1 91/68/1 36/36/1
f 91/68/1 92/62/1 36/36/1
f 36/36/1 92/62/1 93/61/1
f 94/69/4 95/55/4 96/70/4
f 95/55/4 97/71/4 96/70/4
f 96/70/4 97/71/4 98/72/4
f 97/71/4 95/55/4 99/59/4
f 95/55/4 100/58/4 99/59/4
f 99/59/4 100/58/4 101/21/4
f 100/58/4 102/19/4 101/21/4
f 101/21/4 102/19/4 103/20/4
f 102/19/4 104/18/4 103/20/4
f 100/58/4 95/55/4 72/56/4
f 95/55/4 70/43/4 72/56/4
f 105/73/5 106/74/6 107/75/7
f 106/74/6 108/76/8 107/75/7
f 107/75/7 108/76/8 109/77/9
f 108/76/8 110/78/10 109/77/9
f 109/77/9 110/78/10 111/79/11
f 110/78/10 112/80/12 111/79/11
f 111/79/11 112/80/12 113/81/13
f 112/80/12 114/82/14 113/81/13
f 113/81/13 114/82/14 115/83/15
f 114/82/14 116/84/16 115/83/15
f 115/83/15 116/84/16 117/85/17
f 116/84/16 118/86/18 117/85/17
f 117/85/17 118/86/18 119/87/19
f 118/86/18 120/88/20 119/87/19
f 119/87/19 120/88/20 121/89/21
f 120/88/20 122/90/22 121/89/21
f 121/89/21 122/90/22 123/91/23
f 122/90/22 124/92/24 123/91/23
f 123/91/23 124/92/24 125/93/25
f 124/92/24 126/94/26 125/93/25
f 125/93/25 126/94/26 127/95/27
f 126/94/26 128/96/28 127/95/27
f 127/95/27 128/96/28 129/97/29
f 128/96/28 130/98/30 129/97/29
f 129/97/29 130/98/30 131/99/31
f 130/98/30 132/100/32 131/99/31
f 131/99/31 132/100/32 133/101/33
f 132/100/32 134/102/34 133/101/33
f 133/101/33 134/102/34 135/103/35
f 134/102/34 136/104/36 135/103/35
f 135/103/35 136/104/36 137/105/37
f 136/104/36 138/106/38 137/105/37
f 137/105/37 138/106/38 139/107/39
f 138/106/38 140/108/40 139/107/39
f 139/107/39 140/108/40 141/109/41
f 140/108/40 142/110/42 141/109/41
f 141/109/41 142/110/42 143/111/43
f 142/110/42 144/112/44 143/111/43
f 143/111/43 144/112/44 145/113/45
f 144/112/44 146/114/46 145/113/45
f 145/113/45 146/114/46 147/115/47
f 146/114/46 148/116/48 147/115/47
f 147/115/47 148/116/48 149/117/49
f 148/116/48 150/118/50 149/117/49
f 149/117/49 150/118/50 151/119/51
f 150/118/50 152/120/52 151/119/51
f 151/119/51 152/120/52 153/121/53
f 152/120/52 154/122/54 153/121/53
f 153/121/53 154/122/54 155/123/55
f 154/122/54 156/124/56 155/123/55
f 155/123/55 156/124/56 157/125/57
f 156/124/56 158/126/58 157/125/57
f 157/125/57 158/126/58 159/127/59
f 158/126/58 160/128/60 159/127/59
f 159/127/59 160/128/60 161/129/61
f 160/128/60 162/130/62 161/129/61
f 161/129/61 162/130/62 163/131/63
f 162/130/62 164/132/64 163/131/63
f 163/131/63 164/132/64 165/133/65
f 164/132/64 166/134/66 165/133/65
f 165/133/65 166/134/66 167/135/67
f 166/134/66 168/136/68 167/135/67
f 167/135/67 168/136/68 169/137/69
f 168/136/68 170/138/70 169/137/69
f 169/137/69 170/138/70 171/139/71
f 170/138/70 172/140/72 171/139/71
f 171/139/71 172/140/72 173/141/73
f 172/140/72 174/142/74 173/141/73
f 173/141/73 174/142/74 175/143/75
f 174/142/74 176/144/76 175/143/75
f 175/143/75 176/144/76 177/145/77
f 176/144/76 178/146/78 177/145/77
f 177/145/77 178/146/78 179/147/79
f 178/146/78 180/148/80 179/147/79
f 179/147/79 180/148/80 181/149/81
f 180/148/80 182/150/82 181/149/81
f 181/149/81 182/150/82 183/151/83
f 182/150/82 184/152/84 183/151/83
f 185/153/85 186/154/86 187/155/87
f 186/154/86 188/156/88 187/155/87
f 187/155/87 188/156/88 189/157/89
f 188/156/88 190/158/90 189/157/89
f 189/157/89 190/158/90 191/159/91
f 190/158/90 192/160/92 191/159/91
f 191/159/91 192/160/92 193/161/93
f 192/160/92 194/162/94 193/161/93
f 193/161/93 194/162/94 195/163/95
f 194/162/94 196/164/96 195/163/95
f 195/163/95 196/164/96 197/165/97
f 196/164/96 198/166/98 197/165/97
f 197/165/97 198/166/98 199/167/99
f 198/166/98 200/168/100 199/167/99
f 199/167/99 200/168/100 201/169/101
f 200/168/100 202/170/102 201/169/101
f 201/169/101 202/170/102 203/171/103
f 202/170/102 204/172/104 203/171/103
f 203/171/103 204/172/104 205/173/105
f 204/172/104 206/174/106 205/173/105
f 205/173/105 206/174/106 207/175/107
f 206/174/106 208/176/108 207/175/107
f 207/175/107 208/176/108 209/177/109
f 208/176/108 210/178/110 209/177/109
f 209/177/109 210/178/110 211/179/111
f 210/178/110 212/180/112 211/179/111
f 211/179/111 212/180/112 213/73/113
f 212/180/112 214/74/114 213/73/113
f 215/181/4 216/182/4 217/183/4
f 216/182/4 218/184/4 217/183/4
f 217/183/4 218/184/4 219/185/4
f 217/183/4 219/185/4 220/186/4
f 219/185/4 221/187/4 220/186/4
f 220/186/4 221/187/4 222/188/4
f 220/186/4 222/188/4 223/189/4
f 222/188/4 224/190/4 223/189/4
f 223/189/4 224/190/4 225/191/4
f 223/189/4 225/191/4 226/192/4
f 225/191/4 227/193/4 226/192/4
f 225/191/4 228/194/4 227/193/4
f 228/194/4 96/70/4 227/193/4
f 227/193/4 96/70/4 98/72/4
f 229/181/1 230/183/1 231/182/1
f 230/183/1 232/184/1 231/182/1
f 232/184/1 230/183/1 233/185/1
f 230/183/1 234/186/1 233/185/1
f 233/185/1 234/186/1 235/187/1
f 234/186/1 236/188/1 235/187/1
f 234/186/1 237/189/1 236/188/1
f 237/189/1 238/190/1 236/188/1
f 238/190/1 237/189/1 239/191/1
f 237/189/1 240/192/1 239/191/1
f 239/191/1 240/192/1 241/193/1
f 239/191/1 241/193/1 242/194/1
f 241/193/1 243/70/1 242/194/1
f 241/193/1 244/72/1 243/70/1
f 244/72/1 245/71/1 243/70/1
f 243/70/1 245/71/1 55/55/1
f 245/71/1 59/59/1 55/55/1
f 246/195/115 247/196/116 248/197/117
f 247/196/116 249/198/118 248/197/117
f 248/197/117 249/198/118 250/199/119
f 249/198/118 251/200/120 250/199/119
f 250/199/119 251/200/120 252/201/121
f 251/200/120 253/202/122 252/201/121
f 252/201/121 253/202/122 254/203/123
f 253/202/122 255/204/124 254/203/123
f 254/203/123 255/204/124 256/205/125
f 255/204/124 257/206/126 256/205/125
f 256/205/125 257/206/126 258/207/127
f 257/206/126 259/208/128 258/207/127
f 258/207/127 259/208/128 260/209/129
f 259/208/128 261/210/130 260/209/129
f 260/209/129 261/210/130 262/211/131
f 261/210/130 263/212/132 262/211/131
f 262/211/131 263/212/132 264/213/133
f 263/212/132 265/214/134 264/213/133
f 264/213/133 265/214/134 266/215/135
f 265/214/134 267/216/136 266/215/135
f 266/215/135 267/216/136 268/217/137
f 267/216/136 269/218/138 268/217/137
f 268/217/137 269/218/138 270/219/139
f 269/218/138 271/220/140 270/219/139
f 270/219/139 271/220/140 272/221/141
f 271/220/140 273/222/142 272/221/141
f 272/221/141 273/222/142 274/223/143
f 273/222/142 275/224/144 274/223/143
f 274/223/143 275/224/144 276/225/145
f 275/224/144 277/226/146 276/225/145
f 276/225/145 277/226/146 278/227/147
f 277/226/146 279/228/148 278/227/147
f 278/227/147 279/228/148 280/229/149
f 279/228/148 281/230/150 280/229/149
f 280/229/149 281/230/150 282/231/151
f 281/230/150 283/232/152 282/231/151
f 282/231/151 283/232/152 284/233/153
f 283/232/152 285/234/154 284/233/153
f 284/233/153 285/234/154 286/235/155
f 285/234/154 287/236/156 286/235/155
f 286/235/155 287/236/156 288/237/157
f 287/236/156 289/238/158 288/237/157
f 288/237/157 289/238/158 290/239/159
f 289/238/158 291/240/160 290/239/159
f 290/239/159 291/240/160 292/241/161
f 291/240/160 293/242/162 292/241/161
f 292/241/161 293/242/162 294/243/163
f 293/242/162 295/244/164 294/243/163
f 294/243/163 295/244/164 296/245/165
f 295/244/164 297/246/166 296/245/165
f 296/245/165 297/246/166 298/247/167
f 297/246/166 299/248/168 298/247/167
f 298/247/167 299/248/168 300/249/169
f 299/248/168 301/250/170 300/249/169
f 300/249/169 301/250/170 302/251/171
f 301/250/170 303/252/172 302/251/171
f 302/251/171 303/252/172 304/253/173
f 303/252/172 305/254/174 304/253/173
f 304/253/173 305/254/174 306/255/175
f 305/254/174 307/256/176 306/255/175
f 306/255/175 307/256/176 308/257/177
f 307/256/176 309/258/178 308/257/177
f 308/257/177 309/258/178 310/259/179
f 309/258/178 311/260/180 310/259/179
f 310/259/179 311/260/180 312/261/181
f 311/260/180 313/262/182 312/261/181
f 312/261/181 313/262/182 314/263/183
f 313/262/182 315/264/184 314/263/183
f 314/263/183 315/264/184 316/265/185
f 315/264/184 317/266/186 316/265/185
f 316/265/185 317/266/186 318/267/187
f 317/266/186 319/268/188 318/267/187
f 318/267/187 319/268/188 320/269/189
f 319/268/188 321/270/190 320/269/189
f 63/45/4 65/2/4 322/47/4
f 65/2/4 323/4/4 322/47/4
f 323/4/4 65/2/4 324/3/4
f 65/2/4 325/1/4 324/3/4
f 323/4/4 324/3/4 326/5/4
f 324/3/4 327/6/4 326/5/4
f 324/3/4 328/7/4 327/6/4
f 328/7/4 329/8/4 327/6/4
f 327/6/4 329/8/4 330/9/4
f 329/8/4 331/10/4 330/9/4
f 328/7/4 332/11/4 329/8/4
f 332/11/4 333/12/4 329/8/4
f 329/8/4 333/12/4 334/271/4
f 333/12/4 332/11/4 335/13/4
f 332/11/4 336/14/4 335/13/4
f 337/16/2 104/18/4 338/17/4
f 104/18/4 102/19/4 338/17/4
f 338/17/4 102/19/4 339/22/4
f 338/17/4 339/22/4 340/23/4
f 339/22/4 341/24/4 340/23/4
f 338/17/4 340/23/4 342/25/4
f 340/23/4 343/26/4 342/25/4
f 340/23/4 344/27/4 343/26/4
f 344/27/4 345/28/4 343/26/4
f 343/26/4 345/28/4 346/29/4
f 345/28/4 347/30/4 346/29/4
f 346/29/4 347/30/4 348/31/4
f 347/30/4 349/32/4 348/31/4
f 350/67/4 79/36/4 351/68/4
f 79/36/4 84/62/4 351/68/4
f 352/64/1 353/63/1 39/39/1
f 353/63/1 37/37/1 39/39/1
f 353/63/1 354/65/1 37/37/1
f 354/65/1 355/66/1 37/37/1
f 37/37/1 356/272/1 53/53/1
f 10/10/1 357/273/1 8/8/1
f 57/57/1 44/44/1 43/43/1
f 93/61/1 38/38/1 36/36/1
f 8/8/1 358/271/1 12/12/1
f 2/2/1 359/274/1 49/49/1
f 55/55/1 360/69/1 243/70/1
f 102/19/4 100/58/4 361/60/4
f 65/2/4 67/49/4 362/274/4
f 70/43/4 95/55/4 363/54/4
f 331/10/4 329/8/4 364/273/4
f 336/14/4 332/11/4 365/15/4
f 76/37/4 78/53/4 366/272/4
