# https://github.com/mikedh/trimesh
v -0.02995350 -0.00515817 0.00330268
v -0.02536114 -0.00864764 0.01773351
v -0.02984833 -0.00502237 0.00382100
v -0.02967305 0.00581210 0.00994605
v -0.02987755 0.00072846 0.00419710
v -0.02991260 0.00113586 -0.00019599
v -0.02981912 0.00135432 -0.00174463
v -0.02975485 0.00000813 -0.00174463
v -0.02937507 -0.00378836 -0.00174463
v -0.02912384 -0.00645713 -0.00063530
v -0.02849867 -0.00825795 -0.00174463
v -0.02628429 -0.01821268 0.00457320
v -0.02634271 -0.01815954 0.00522426
v -0.02534946 -0.01679564 0.00914960
v -0.01916788 -0.01997808 0.01812225
v -0.02125957 -0.01172380 0.02170625
v -0.02404069 -0.00752581 0.02015761
v -0.02399979 -0.00623867 0.02062220
v -0.02536114 -0.00800997 0.01783464
v -0.02503395 0.00492055 0.02021450
v -0.02609732 0.01027579 0.01712985
v -0.02741777 0.01727244 0.00625775
v -0.02789687 0.01534172 0.00554347
v -0.02895440 0.01047653 -0.00174463
v -0.02945103 0.00625493 -0.00174463
v -0.02968474 0.00417069 -0.00174463
v -0.02983080 0.00230492 -0.00174463
v -0.02983080 0.00228721 -0.00174463
v -0.02738272 -0.01194817 -0.00174463
v -0.02508069 -0.02014340 0.00439305
v -0.02503395 -0.02044452 0.00523059
v -0.02672249 -0.01367814 -0.00174463
v -0.02571754 -0.01538450 -0.00174463
v -0.02475934 -0.01775214 0.00920333
v -0.01730990 -0.02425283 0.01365015
v -0.01015844 -0.02298929 0.02115000
v -0.01046226 -0.02245790 0.02132383
v -0.02065777 -0.01203083 0.02224038
v -0.02126541 -0.00717155 0.02300838
v -0.02421597 0.00479655 0.02122902
v -0.02459575 0.00531023 0.02090033
v -0.02541372 0.00962631 0.01864373
v -0.02555395 0.01055329 0.01790734
v -0.02388294 0.01512916 0.01781884
v -0.02349148 0.01579635 0.01781884
v -0.01611215 0.02250369 0.01672847
v -0.02647710 0.01795144 0.00653587
v -0.01823305 0.02490085 0.00162762
v -0.02274946 0.01987035 -0.00174463
v -0.02473597 0.01744366 -0.00174463
v -0.02659395 0.01477490 -0.00174463
v -0.02686272 0.01431436 -0.00174463
v -0.02384788 -0.01826582 -0.00174463
v -0.02264429 -0.01993675 -0.00174463
v -0.01532923 -0.02862795 -0.00174463
v -0.02429777 -0.02099953 0.00515473
v -0.02414586 -0.02098772 0.00586901
v -0.01528249 -0.02867518 -0.00174463
v -0.01745013 -0.02431187 0.01297064
v -0.01505462 -0.02878146 -0.00174463
v -0.01446451 -0.02897040 -0.00174463
v -0.01047979 -0.02790171 0.00698150
v -0.00740069 -0.02730537 0.01102694
v -0.00069327 -0.02947227 0.00879246
v -0.00365552 -0.02346755 0.02191801
v -0.00398855 -0.02315462 0.02224038
v -0.00490001 -0.01633510 0.02536927
v -0.00591080 -0.01523099 0.02555258
v -0.00784473 -0.01052522 0.02693055
v -0.01526496 -0.01331207 0.02365312
v -0.01984563 -0.01127507 0.02286615
v -0.02072204 -0.00715384 0.02326122
v -0.01575575 -0.00261340 0.02611198
v -0.01625822 -0.00178679 0.02585914
v -0.02142316 0.00734723 0.02280611
v -0.02288968 0.01476309 0.01922210
v -0.02304159 0.01546571 0.01878596
v -0.01497867 0.02249188 0.01782516
v -0.01409058 0.02332439 0.01755968
v -0.01661462 0.02353104 0.01316975
v -0.01313822 0.02604629 0.00669073
v -0.01024024 0.02832537 0.00006001
v -0.01073102 0.02825452 -0.00111569
v -0.01452878 0.02634151 -0.00174463
v -0.01611215 0.02555623 -0.00174463
v -0.01622901 0.02547948 -0.00174463
v -0.01763125 0.02451707 -0.00174463
v -0.01782990 0.02434584 -0.00174463
v -0.01964698 0.02271034 -0.00174463
v -0.02106092 0.02143500 -0.00174463
v -0.02223530 0.02035451 -0.00174463
v -0.00436833 -0.02987376 -0.00174463
v 0.00013639 -0.03019850 0.00435513
v 0.00011887 -0.02987376 0.00712688
v 0.00065639 -0.02970254 0.00810348
v 0.00089594 -0.02938370 0.00907691
v 0.00531302 -0.02464842 0.02071070
v 0.00519617 -0.02410522 0.02171573
v 0.00616022 -0.02347936 0.02206023
v 0.00352516 -0.01987180 0.02398497
v -0.00218900 -0.01518965 0.02630793
v -0.00111979 -0.00923807 0.02884897
v -0.00480069 -0.00066497 0.03011001
v -0.01146721 -0.00971633 0.02620680
v -0.01357058 -0.00796274 0.02580858
v -0.01499035 -0.00317431 0.02627949
v -0.01442361 -0.00217057 0.02664295
v -0.01525912 -0.00189897 0.02636483
v -0.01085372 0.00260604 0.02800196
v -0.00979035 0.00404670 0.02822004
v -0.01268249 0.01043520 0.02588127
v -0.01689507 0.01527086 0.02298309
v -0.01760204 0.01561922 0.02236996
v -0.01959440 0.01660525 0.02061272
v -0.01427170 0.02232065 0.01840037
v -0.01362316 0.02312364 0.01802743
v -0.00440338 0.02507208 0.01648827
v -0.00641327 0.02678434 0.01283790
v -0.00700338 0.02707365 0.01200037
v -0.00834720 0.02683748 0.01160215
v -0.00932293 0.02678434 0.01042328
v -0.00846990 0.02703822 0.01041380
v -0.00758181 0.02717402 0.01106170
v -0.00979035 0.02857335 -0.00075223
v -0.00986046 0.02853202 -0.00174463
v -0.01079530 0.02814234 -0.00174463
v -0.00341597 -0.02993871 -0.00174463
v 0.00103033 -0.02989148 -0.00073011
v 0.00406269 -0.02963168 -0.00023075
v 0.00083167 -0.03004499 0.00564461
v 0.00122898 -0.02974977 0.00734496
v 0.00971842 -0.02747660 0.00867869
v 0.00889460 -0.02588242 0.01506605
v 0.00679123 -0.02398713 0.02140285
v 0.02239123 -0.01530774 0.01928847
v 0.01220156 -0.00751991 0.02712966
v 0.01120246 -0.00751991 0.02741411
v 0.00475797 -0.01330617 0.02671880
v 0.00293505 -0.00620324 0.02901964
v 0.00027078 -0.00172184 0.03054300
v -0.00477147 0.00032106 0.03032493
v -0.01073102 0.00119490 0.02809678
v -0.01195215 0.01075994 0.02600137
v -0.00336338 0.01420808 0.02669352
v -0.00259215 0.01469224 0.02655445
v -0.00628473 0.01997663 0.02197806
v -0.01348878 0.02268672 0.01841302
v -0.00258046 0.02023642 0.02250902
v -0.00436248 0.02433994 0.01771771
v 0.00081415 0.02726849 0.01321716
v 0.00037010 0.02756962 0.01256294
v -0.00300114 0.02847298 0.00898842
v -0.00294855 0.02899847 0.00589429
v -0.00461372 0.02956528 -0.00174463
v 0.00005460 -0.02985605 -0.00174463
v 0.00315123 -0.02964349 -0.00174463
v 0.00367123 -0.02959626 -0.00174463
v 0.00212875 -0.02982653 0.00519266
v 0.00496246 -0.02941913 -0.00174463
v 0.00562853 -0.02931285 -0.00174463
v 0.00642898 -0.02921838 -0.00084073
v 0.01997235 -0.02564625 0.00332481
v 0.02024696 -0.02523295 0.00420342
v 0.02233865 -0.01731522 0.01764818
v 0.02208741 -0.01631148 0.01874803
v 0.02277101 -0.01580961 0.01872906
v 0.02310404 -0.01526641 0.01871642
v 0.01859932 -0.00394188 0.02593500
v 0.01768786 -0.00434337 0.02622576
v 0.01770539 -0.00401273 0.02630793
v 0.01172246 -0.00672873 0.02740463
v 0.00435482 0.00226949 0.03022695
v 0.00042853 0.00913625 0.02846023
v -0.00445012 0.00100596 0.03017638
v -0.00275574 0.01380068 0.02691791
v 0.00312785 0.01308626 0.02718023
v 0.00365954 0.01325748 0.02707594
v 0.00321550 0.01383020 0.02678833
v -0.00101462 0.01831751 0.02404502
v 0.00424965 0.02152357 0.02050843
v 0.00511437 0.02465877 0.01743642
v -0.00164563 0.02468239 0.01725943
v -0.00079260 0.02537910 0.01618803
v 0.00152696 0.02745153 0.01271148
v 0.00492741 0.02546767 0.01617222
v 0.00077909 0.02780579 0.01182970
v 0.00029415 0.02814234 0.01049281
v 0.00225729 0.02853793 0.00907059
v 0.00125235 0.02890990 0.00736708
v 0.00423212 0.02954167 0.00471542
v 0.00426718 0.02966566 0.00404540
v 0.00069145 0.03010258 -0.00174463
v 0.00063302 0.03009668 -0.00174463
v 0.00846808 -0.02874603 -0.00059737
v 0.00819932 -0.02879327 -0.00174463
v 0.00841550 -0.02874013 -0.00174463
v 0.00944965 -0.02840358 -0.00174463
v 0.00982359 -0.02823826 -0.00174463
v 0.01758853 -0.02440634 -0.00174463
v 0.01906674 -0.02365649 -0.00174463
v 0.01931797 -0.02350888 -0.00174463
v 0.02139213 -0.02466022 0.00335641
v 0.02120516 -0.02454214 0.00420026
v 0.02536516 -0.01574466 0.01448768
v 0.02585011 -0.01508338 0.01473104
v 0.02326179 -0.01471140 0.01873855
v 0.01891483 -0.00244808 0.02596028
v 0.01367393 0.00104730 0.02781549
v 0.01078763 0.01209433 0.02612147
v 0.00353684 0.01266705 0.02727189
v 0.01013325 0.01605024 0.02368788
v 0.00974763 0.01757946 0.02274922
v 0.00316875 0.01877214 0.02297045
v 0.00379977 0.01996482 0.02191169
v 0.00790134 0.02114569 0.02017341
v 0.00825190 0.02188964 0.01946862
v 0.00573370 0.02456430 0.01739534
v 0.00448336 0.02749286 0.01186447
v 0.00413280 0.02792388 0.01089103
v 0.00832786 0.02610534 0.01359010
v 0.00795392 0.02636513 0.01324876
v 0.00730538 0.02653045 0.01313815
v 0.00320381 0.02822500 0.01015780
v 0.00332651 0.02843755 0.00942456
v 0.00517864 0.02935273 0.00482920
v 0.00483392 0.02957119 0.00418446
v 0.00422628 0.02821319 0.00992076
v 0.00155033 0.03012029 -0.00174463
v 0.00079662 0.03010848 -0.00174463
v 0.02387527 -0.01993085 -0.00174463
v 0.02433685 -0.01953525 -0.00174463
v 0.02434269 -0.01958249 -0.00144754
v 0.02635258 -0.01495939 0.01392511
v 0.02631168 -0.01367814 0.01436758
v 0.01943483 -0.00223552 0.02531554
v 0.01922449 0.00549327 0.02311899
v 0.01903168 0.00483198 0.02348561
v 0.01130179 0.01158065 0.02602665
v 0.01460876 0.01407819 0.02264492
v 0.01422314 0.01472176 0.02245845
v 0.01166404 0.01591444 0.02310951
v 0.01102134 0.01667610 0.02295781
v 0.00921010 0.02143500 0.01965193
v 0.00665684 0.02385578 0.01785361
v 0.00871932 0.02348381 0.01731000
v 0.00750404 0.02467058 0.01631761
v 0.00534224 0.02767589 0.01109647
v 0.00895303 0.02583374 0.01361222
v 0.00856156 0.02616438 0.01332462
v 0.01146539 0.02359009 0.01558753
v 0.00832201 0.02635922 0.01292955
v 0.00623617 0.02891581 0.00519898
v 0.00593235 0.02925235 0.00406436
v 0.00567527 0.02808329 0.00932343
v 0.00782538 0.02737477 0.00947513
v 0.00678538 0.02828404 0.00710160
v 0.01287348 0.02739839 -0.00174463
v 0.01034359 0.02807148 -0.00174463
v 0.00520786 0.02943539 0.00225024
v 0.00194763 0.03004944 -0.00174463
v 0.02467572 -0.01889758 -0.00174463
v 0.02459977 -0.01910424 -0.00129584
v 0.02856112 -0.01079092 -0.00062898
v 0.02865460 -0.01024181 0.00018959
v 0.02922719 -0.00428433 0.00423503
v 0.02835078 -0.00478620 0.00847958
v 0.02800022 -0.00263702 0.01017360
v 0.02710044 -0.00140301 0.01243652
v 0.02582674 -0.00003320 0.01491751
v 0.02469910 0.00051000 0.01693074
v 0.02316247 0.00168496 0.01919050
v 0.02351887 0.00529842 0.01785361
v 0.02031707 0.00587115 0.02169677
v 0.01986719 0.00506225 0.02249638
v 0.01977370 0.00601875 0.02229726
v 0.01997235 0.00910673 0.02093193
v 0.01929460 0.00920120 0.02163040
v 0.01880966 0.00991562 0.02179791
v 0.01878629 0.00913034 0.02210764
v 0.01820786 0.01032893 0.02201598
v 0.01497685 0.01472766 0.02200650
v 0.01219572 0.02028365 0.01925687
v 0.01455617 0.01540076 0.02175682
v 0.01140112 0.02295832 0.01641874
v 0.00936201 0.02236789 0.01839405
v 0.01156471 0.02411557 0.01459198
v 0.01252291 0.02415690 0.01361538
v 0.02241460 0.02191325 0.00847325
v 0.02126943 0.02338934 0.00638417
v 0.01450943 0.02067924 0.01682645
v 0.01287348 0.02664263 0.00521478
v 0.01179842 0.02685519 0.00588165
v 0.00870179 0.02830175 0.00397903
v 0.01354539 0.02715631 -0.00174463
v 0.02785415 -0.01211940 -0.00174463
v 0.02855528 -0.01040123 -0.00174463
v 0.02878898 -0.00994660 -0.00064162
v 0.02943168 -0.00596707 -0.00029396
v 0.02973550 0.00052771 0.00127996
v 0.02800606 0.00060447 0.00968372
v 0.02771977 0.00571173 0.00995869
v 0.02748022 0.00565859 0.01066348
v 0.02666224 0.00281269 0.01279365
v 0.02505550 0.00272413 0.01585617
v 0.02402134 0.00301935 0.01763237
v 0.02407393 0.00466666 0.01713302
v 0.02389281 0.00820927 0.01639346
v 0.02079033 0.01009275 0.01950971
v 0.01945819 0.01057691 0.02072966
v 0.01856426 0.01084260 0.02144077
v 0.01612786 0.01456234 0.02108048
v 0.01505280 0.01547752 0.02133015
v 0.01569550 0.01870719 0.01791682
v 0.01484246 0.02025413 0.01700659
v 0.02318584 0.02166527 0.00798022
v 0.02185370 0.02315317 0.00610604
v 0.01325325 0.02654816 0.00488293
v 0.01452112 0.02669577 -0.00174463
v 0.02857281 -0.01033038 -0.00174463
v 0.02882988 -0.00932664 -0.00109989
v 0.02920966 -0.00642170 -0.00174463
v 0.02944921 -0.00408949 -0.00174463
v 0.02957191 -0.00171003 -0.00174463
v 0.02946090 0.00509177 -0.00047727
v 0.02941415 0.00584162 0.00026228
v 0.02788921 0.00610732 0.00907375
v 0.02762629 0.00648520 0.01002822
v 0.02715303 0.00614865 0.01117232
v 0.02706539 0.00469618 0.01166852
v 0.02710044 0.00737675 0.01060027
v 0.02392786 0.02069696 0.00806555
v 0.02009505 0.01263162 0.01867534
v 0.01830134 0.01545390 0.01825183
v 0.02209910 0.02087409 -0.00174463
v 0.02018269 0.02263358 -0.00174463
v 0.01502943 0.02639465 -0.00174463
v 0.02859033 -0.01022410 -0.00174463
v 0.02929146 0.00489102 -0.00174463
v 0.02931483 0.00582391 -0.00112833
v 0.02923887 0.00661509 -0.00074907
v 0.02924471 0.00682175 0.00012322
v 0.02909865 0.00680403 0.00110930
v 0.02770808 0.00760702 0.00852382
v 0.02909280 0.00727638 -0.00036665
v 0.02689595 0.01260800 -0.00062265
v 0.02707123 0.01205300 -0.00174463
v 0.02662135 0.01298588 -0.00174463
v 0.02486269 0.01706578 0.00031601
v 0.02774898 0.00854581 0.00669390
v 0.02264831 0.01998253 -0.00174463
v 0.02923303 0.00569992 -0.00174463
v 0.02921550 0.00640844 -0.00134641
v 0.02909280 0.00680403 -0.00146018
v 0.02897011 0.00736494 -0.00112201
v 0.02836831 0.00870523 -0.00174463
v 0.02459977 0.01672924 -0.00174463
v 0.02451797 0.01687684 -0.00174463
v 0.02913370 0.00639663 -0.00174463
v 0.02909280 0.00657376 -0.00174463
v 0.02897595 0.00704021 -0.00174463
v 0.02888831 0.00729409 -0.00174463
v 0.02854943 0.00822108 -0.00174463
f 1 2 3
f 1 3 4
f 1 4 5
f 1 5 6
f 1 6 7
f 1 7 8
f 1 8 9
f 1 9 10
f 1 10 11
f 1 11 12
f 1 12 13
f 1 13 2
f 2 13 14
f 2 14 15
f 2 15 16
f 2 16 17
f 2 17 18
f 2 18 19
f 2 19 4
f 2 4 3
f 4 20 21
f 4 21 22
f 4 22 23
f 4 23 24
f 4 24 25
f 4 25 26
f 4 26 27
f 4 27 6
f 4 6 5
f 4 19 20
f 6 27 28
f 6 28 7
f 7 28 27
f 7 27 26
f 7 26 25
f 7 25 24
f 7 24 52
f 7 52 51
f 7 51 50
f 7 50 49
f 7 49 91
f 7 91 90
f 7 90 89
f 7 89 88
f 7 88 87
f 7 87 86
f 7 86 85
f 7 85 84
f 7 84 126
f 7 126 125
f 7 125 154
f 7 154 193
f 7 193 192
f 7 192 229
f 7 229 228
f 7 228 260
f 7 260 258
f 7 258 257
f 7 257 294
f 7 294 318
f 7 318 336
f 7 336 335
f 7 335 334
f 7 334 350
f 7 350 357
f 7 357 356
f 7 356 347
f 7 347 346
f 7 346 355
f 7 355 362
f 7 362 361
f 7 361 360
f 7 360 359
f 7 359 358
f 7 358 351
f 7 351 338
f 7 338 323
f 7 323 322
f 7 322 321
f 7 321 337
f 7 337 319
f 7 319 296
f 7 296 295
f 7 295 261
f 7 261 231
f 7 231 230
f 7 230 201
f 7 201 200
f 7 200 199
f 7 199 198
f 7 198 197
f 7 197 196
f 7 196 195
f 7 195 160
f 7 160 159
f 7 159 157
f 7 157 156
f 7 156 155
f 7 155 127
f 7 127 92
f 7 92 61
f 7 61 60
f 7 60 58
f 7 58 55
f 7 55 54
f 7 54 53
f 7 53 33
f 7 33 32
f 7 32 29
f 7 29 11
f 7 11 9
f 7 9 8
f 9 11 10
f 11 29 12
f 12 30 31
f 12 31 13
f 12 29 32
f 12 32 33
f 12 33 30
f 13 31 14
f 14 31 34
f 14 34 15
f 15 34 31
f 15 31 35
f 15 35 36
f 15 36 37
f 15 37 38
f 15 38 16
f 16 38 17
f 17 38 18
f 18 38 39
f 18 39 40
f 18 40 41
f 18 41 20
f 18 20 19
f 20 41 42
f 20 42 21
f 21 42 43
f 21 43 44
f 21 44 22
f 22 45 46
f 22 46 47
f 22 47 48
f 22 48 49
f 22 49 50
f 22 50 51
f 22 51 52
f 22 52 24
f 22 24 23
f 22 44 45
f 30 53 54
f 30 54 55
f 30 55 31
f 30 33 53
f 31 56 57
f 31 57 35
f 31 55 58
f 31 58 56
f 35 59 58
f 35 58 60
f 35 60 61
f 35 61 62
f 35 62 63
f 35 63 36
f 35 57 59
f 36 63 64
f 36 64 65
f 36 65 66
f 36 66 67
f 36 67 37
f 37 67 68
f 37 68 69
f 37 69 70
f 37 70 38
f 38 70 71
f 38 71 39
f 39 71 72
f 39 72 73
f 39 73 74
f 39 74 40
f 40 75 41
f 40 74 75
f 41 75 76
f 41 76 42
f 42 76 77
f 42 77 44
f 42 44 43
f 44 77 45
f 45 77 46
f 46 78 79
f 46 79 80
f 46 80 47
f 46 77 78
f 47 80 48
f 48 81 82
f 48 82 83
f 48 83 84
f 48 84 85
f 48 85 86
f 48 86 87
f 48 87 88
f 48 88 89
f 48 89 90
f 48 90 91
f 48 91 49
f 48 80 81
f 56 58 57
f 57 58 59
f 61 92 93
f 61 93 94
f 61 94 64
f 61 64 62
f 62 64 63
f 64 94 95
f 64 95 96
f 64 96 97
f 64 97 65
f 65 97 98
f 65 98 66
f 66 98 99
f 66 99 100
f 66 100 101
f 66 101 67
f 67 101 102
f 67 102 69
f 67 69 68
f 69 102 103
f 69 103 104
f 69 104 70
f 70 104 71
f 71 104 105
f 71 105 106
f 71 106 73
f 71 73 72
f 73 106 107
f 73 107 108
f 73 108 74
f 74 108 75
f 75 109 110
f 75 110 111
f 75 111 112
f 75 112 76
f 75 108 109
f 76 112 113
f 76 113 114
f 76 114 77
f 77 114 78
f 78 115 116
f 78 116 79
f 78 114 115
f 79 116 117
f 79 117 118
f 79 118 119
f 79 119 120
f 79 120 80
f 80 120 121
f 80 121 81
f 81 121 82
f 82 121 122
f 82 122 123
f 82 123 124
f 82 124 83
f 83 124 125
f 83 125 126
f 83 126 84
f 92 127 93
f 93 127 128
f 93 128 129
f 93 129 130
f 93 130 94
f 94 130 95
f 95 130 131
f 95 131 132
f 95 132 96
f 96 132 133
f 96 133 97
f 97 133 134
f 97 134 98
f 98 134 99
f 99 134 135
f 99 135 136
f 99 136 137
f 99 137 138
f 99 138 100
f 100 138 102
f 100 102 101
f 102 138 137
f 102 137 139
f 102 139 140
f 102 140 141
f 102 141 103
f 103 141 104
f 104 141 106
f 104 106 105
f 106 141 107
f 107 141 108
f 108 141 142
f 108 142 109
f 109 142 141
f 109 141 110
f 110 143 111
f 110 141 143
f 111 143 112
f 112 143 144
f 112 144 145
f 112 145 146
f 112 146 147
f 112 147 116
f 112 116 115
f 112 115 113
f 113 115 114
f 116 147 148
f 116 148 149
f 116 149 117
f 117 149 150
f 117 150 151
f 117 151 118
f 118 151 119
f 119 151 152
f 119 152 123
f 119 123 120
f 120 123 121
f 121 123 122
f 123 152 153
f 123 153 124
f 124 153 154
f 124 154 125
f 127 155 128
f 128 155 156
f 128 156 157
f 128 157 129
f 129 158 130
f 129 157 159
f 129 159 160
f 129 160 161
f 129 161 158
f 130 158 131
f 131 158 132
f 132 158 162
f 132 162 133
f 133 162 163
f 133 163 134
f 134 163 164
f 134 164 165
f 134 165 135
f 135 165 166
f 135 166 167
f 135 167 168
f 135 168 169
f 135 169 136
f 136 169 170
f 136 170 137
f 137 170 171
f 137 171 172
f 137 172 140
f 137 140 139
f 140 172 141
f 141 172 173
f 141 173 174
f 141 174 175
f 141 175 144
f 141 144 143
f 144 175 145
f 145 175 176
f 145 176 177
f 145 177 178
f 145 178 179
f 145 179 148
f 145 148 146
f 146 148 147
f 148 179 180
f 148 180 181
f 148 181 149
f 149 181 182
f 149 182 183
f 149 183 150
f 150 184 151
f 150 183 185
f 150 185 184
f 151 186 152
f 151 184 186
f 152 186 187
f 152 187 188
f 152 188 189
f 152 189 190
f 152 190 191
f 152 191 153
f 153 191 192
f 153 192 193
f 153 193 154
f 158 161 194
f 158 194 162
f 160 195 161
f 161 195 194
f 162 194 196
f 162 196 197
f 162 197 198
f 162 198 199
f 162 199 200
f 162 200 201
f 162 201 202
f 162 202 163
f 163 202 203
f 163 203 164
f 164 203 204
f 164 204 205
f 164 205 166
f 164 166 165
f 166 205 167
f 167 205 206
f 167 206 168
f 168 207 170
f 168 170 169
f 168 206 207
f 170 207 208
f 170 208 172
f 170 172 171
f 172 208 209
f 172 209 177
f 172 177 210
f 172 210 176
f 172 176 173
f 173 176 175
f 173 175 174
f 176 210 177
f 177 209 211
f 177 211 212
f 177 212 178
f 178 212 213
f 178 213 179
f 179 213 214
f 179 214 180
f 180 214 215
f 180 215 216
f 180 216 181
f 181 217 185
f 181 185 182
f 181 216 217
f 182 185 183
f 184 218 219
f 184 219 186
f 184 185 218
f 185 217 220
f 185 220 221
f 185 221 222
f 185 222 218
f 186 219 223
f 186 223 224
f 186 224 188
f 186 188 187
f 188 190 189
f 188 224 190
f 190 225 226
f 190 226 191
f 190 224 227
f 190 227 225
f 191 226 228
f 191 228 229
f 191 229 192
f 194 195 196
f 201 230 202
f 202 230 231
f 202 231 232
f 202 232 233
f 202 233 203
f 203 233 204
f 204 233 205
f 205 233 234
f 205 234 206
f 206 234 235
f 206 235 207
f 207 235 236
f 207 236 237
f 207 237 238
f 207 238 208
f 208 238 209
f 209 238 239
f 209 239 240
f 209 240 241
f 209 241 242
f 209 242 211
f 211 242 212
f 212 242 243
f 212 243 215
f 212 215 214
f 212 214 213
f 215 243 216
f 216 243 217
f 217 244 245
f 217 245 246
f 217 246 220
f 217 243 244
f 218 247 219
f 218 222 247
f 219 247 227
f 219 227 223
f 220 248 249
f 220 249 221
f 220 246 250
f 220 250 248
f 221 249 251
f 221 251 247
f 221 247 222
f 223 227 224
f 225 252 253
f 225 253 226
f 225 227 254
f 225 254 255
f 225 255 256
f 225 256 252
f 226 257 258
f 226 258 259
f 226 259 260
f 226 260 228
f 226 253 257
f 227 247 254
f 231 261 232
f 232 261 262
f 232 262 233
f 233 263 264
f 233 264 265
f 233 265 266
f 233 266 234
f 233 262 263
f 234 266 267
f 234 267 268
f 234 268 269
f 234 269 270
f 234 270 235
f 235 270 271
f 235 271 272
f 235 272 273
f 235 273 274
f 235 274 236
f 236 274 275
f 236 275 276
f 236 276 277
f 236 277 278
f 236 278 279
f 236 279 237
f 237 279 238
f 238 279 278
f 238 278 280
f 238 280 239
f 239 281 240
f 239 280 278
f 239 278 281
f 240 281 242
f 240 242 241
f 242 282 243
f 242 281 283
f 242 283 282
f 243 282 284
f 243 284 285
f 243 285 245
f 243 245 244
f 245 285 250
f 245 250 246
f 247 251 254
f 248 250 286
f 248 286 249
f 249 286 287
f 249 287 288
f 249 288 289
f 249 289 251
f 250 285 284
f 250 284 282
f 250 282 290
f 250 290 288
f 250 288 286
f 251 291 255
f 251 255 254
f 251 289 291
f 252 256 255
f 252 255 292
f 252 292 291
f 252 291 253
f 253 293 257
f 253 291 293
f 255 291 292
f 257 293 294
f 258 260 259
f 261 295 263
f 261 263 262
f 263 295 296
f 263 296 297
f 263 297 264
f 264 297 298
f 264 298 265
f 265 298 299
f 265 299 267
f 265 267 266
f 267 299 300
f 267 300 301
f 267 301 302
f 267 302 268
f 268 302 303
f 268 303 269
f 269 303 304
f 269 304 270
f 270 304 305
f 270 305 271
f 271 305 272
f 272 305 306
f 272 306 307
f 272 307 273
f 273 275 274
f 273 307 276
f 273 276 275
f 276 308 278
f 276 278 277
f 276 307 308
f 278 308 309
f 278 309 310
f 278 310 281
f 281 311 312
f 281 312 283
f 281 310 311
f 282 313 314
f 282 314 290
f 282 283 312
f 282 312 313
f 286 288 287
f 288 290 314
f 288 314 313
f 288 313 315
f 288 315 289
f 289 315 316
f 289 316 294
f 289 294 317
f 289 317 291
f 291 317 293
f 293 317 294
f 294 316 318
f 296 319 297
f 297 319 320
f 297 320 321
f 297 321 298
f 298 321 322
f 298 322 323
f 298 323 299
f 299 323 324
f 299 324 325
f 299 325 326
f 299 326 300
f 300 326 301
f 301 326 327
f 301 327 302
f 302 327 328
f 302 328 329
f 302 329 303
f 303 329 304
f 304 329 328
f 304 328 306
f 304 306 305
f 306 328 307
f 307 328 330
f 307 330 331
f 307 331 308
f 308 332 309
f 308 331 332
f 309 332 310
f 310 332 311
f 311 333 312
f 311 332 333
f 312 333 313
f 313 333 315
f 315 331 316
f 315 333 331
f 316 331 334
f 316 334 335
f 316 335 336
f 316 336 318
f 319 337 320
f 320 337 321
f 323 338 324
f 324 338 339
f 324 339 340
f 324 340 325
f 325 340 341
f 325 341 342
f 325 342 326
f 326 342 343
f 326 343 327
f 327 343 331
f 327 331 330
f 327 330 328
f 331 344 345
f 331 345 346
f 331 346 347
f 331 347 348
f 331 348 334
f 331 333 332
f 331 343 349
f 331 349 341
f 331 341 344
f 334 348 350
f 338 351 339
f 339 351 352
f 339 352 340
f 340 352 353
f 340 353 344
f 340 344 341
f 341 349 342
f 342 349 343
f 344 353 354
f 344 354 346
f 344 346 345
f 346 354 355
f 347 356 348
f 348 356 357
f 348 357 350
f 351 358 352
f 352 358 359
f 352 359 360
f 352 360 353
f 353 360 354
f 354 360 361
f 354 361 362
f 354 362 355

