# https://github.com/mikedh/trimesh
v -0.03010150 0.00645038 -0.00299060
v -0.02994239 0.00642679 -0.00372917
v -0.02830413 -0.00374255 -0.01577171
v -0.02986578 0.00056939 -0.00664678
v -0.02975971 0.00001491 -0.00174463
v -0.02981864 0.00135391 -0.00174463
v -0.02983042 0.00229181 -0.00174463
v -0.02983042 0.00230360 -0.00174463
v -0.02968310 0.00417349 -0.00174463
v -0.02944737 0.00625572 -0.00174463
v -0.02895236 0.01047329 -0.00174463
v -0.02960059 0.01080361 -0.00319639
v -0.02782090 -0.00428523 -0.01743489
v -0.02849271 -0.00851459 -0.00945445
v -0.02895236 0.01238446 -0.00469607
v -0.02673659 0.00883935 -0.01390839
v -0.02947684 -0.00288724 -0.00421403
v -0.02937666 -0.00378974 -0.00174463
v -0.02686034 0.01431333 -0.00174463
v -0.02944737 0.01126961 -0.00330351
v -0.02720214 -0.00436191 -0.01853428
v -0.02713731 -0.00531750 -0.01804097
v -0.02592335 -0.01125158 -0.01381818
v -0.02630051 -0.01098614 -0.01303733
v -0.02836896 -0.00885671 -0.00954466
v -0.02433224 0.01401840 -0.01770269
v -0.02710785 -0.01297400 -0.00344446
v -0.02849860 -0.00826095 -0.00174463
v -0.02371937 0.01537509 -0.01693876
v -0.02905844 0.01210132 -0.00413510
v -0.02473297 0.01743964 -0.00174463
v -0.02274702 0.01986989 -0.00174463
v -0.02387259 0.01828315 -0.00884556
v -0.02490386 0.01667871 -0.00961231
v -0.02659516 0.01477343 -0.00174463
v -0.01826833 -0.01395318 -0.02378880
v -0.01810333 -0.01480259 -0.02369578
v -0.02214593 0.00253365 -0.02471342
v -0.01532183 -0.02148581 -0.02070487
v -0.02492744 -0.01521550 -0.01028886
v -0.02538709 -0.01500905 -0.00934169
v -0.02655391 -0.01402397 -0.00414074
v -0.02322436 0.01524532 -0.01797613
v -0.02097912 0.01515095 -0.02102623
v -0.02677784 -0.01368184 -0.00280737
v -0.02671891 -0.01367594 -0.00174463
v -0.02738482 -0.01194763 -0.00174463
v -0.02351901 0.01605935 -0.01598877
v -0.02310060 0.01651944 -0.01613536
v -0.02223433 0.02035359 -0.00174463
v -0.01974159 0.02320266 -0.00552766
v -0.02385491 0.01815338 -0.00942062
v -0.01107297 0.00014468 -0.02868531
v -0.01000633 -0.00502257 -0.02832449
v -0.00891023 -0.00547087 -0.02860638
v -0.01331820 -0.01650141 -0.02481772
v -0.00965864 0.01258502 -0.02852745
v -0.00149093 -0.02014680 -0.02384518
v -0.00674160 -0.02242370 -0.02076971
v -0.00575747 -0.02677693 -0.01484146
v -0.00759609 -0.02849935 -0.01170115
v -0.00817361 -0.02822211 -0.01190976
v -0.01638846 -0.02671794 -0.00848755
v -0.01730188 -0.02659997 -0.00767006
v -0.01580506 -0.02126166 -0.02003678
v -0.02470939 -0.01607081 -0.00926276
v -0.02451492 -0.01668427 -0.00847346
v -0.02492154 -0.01621238 -0.00781101
v -0.02355436 -0.01902016 -0.00472144
v -0.02338347 -0.01935048 -0.00430705
v -0.00884541 0.01329286 -0.02858101
v -0.02029553 0.01663741 -0.01929822
v -0.01368946 0.02439419 -0.01335869
v -0.01226336 0.02520231 -0.01339252
v -0.01506843 0.01972833 -0.01872879
v -0.00571033 0.01840112 -0.02477825
v -0.02571710 -0.01538656 -0.00174463
v -0.02391973 -0.01845388 -0.00392086
v -0.01239889 0.02687164 -0.01001260
v -0.01308248 0.02557393 -0.01190130
v -0.02106162 0.02143305 -0.00174463
v -0.01964730 0.02271306 -0.00174463
v -0.01783225 0.02434700 -0.00174463
v -0.01763189 0.02451216 -0.00174463
v -0.01674794 0.02524950 -0.00294268
v -0.01634132 0.02557983 -0.00382219
v -0.00998865 0.00006800 -0.02896721
v -0.00900452 -0.00454477 -0.02869659
v -0.00823843 0.00119465 -0.02947180
v -0.00799682 -0.00523492 -0.02887982
v -0.00336491 -0.00754131 -0.02975933
v -0.00313508 -0.00838482 -0.02958456
v 0.00388939 -0.01126338 -0.03044715
v 0.00443154 -0.01220717 -0.03014835
v 0.00319990 -0.01381161 -0.02906023
v -0.00683000 0.01284456 -0.02908278
v -0.00766681 0.00147189 -0.02962684
v -0.00112557 -0.02034146 -0.02366477
v 0.00386582 -0.01349898 -0.02930548
v -0.00023572 -0.02448234 -0.01836515
v -0.00463191 -0.02714855 -0.01442989
v 0.00099003 -0.02856423 -0.01070043
v -0.00073663 -0.02931337 -0.00741071
v -0.00463191 -0.03006250 -0.00402234
v -0.01450859 -0.02913051 -0.00285248
v -0.01234586 -0.02858783 -0.00730078
v -0.01241657 -0.02846985 -0.00763341
v 0.00100181 -0.02827519 -0.01187875
v -0.01661829 -0.02698338 -0.00759958
v -0.01516861 -0.02901843 -0.00261005
v -0.01644150 -0.02799796 -0.00333452
v -0.01689526 -0.02747887 -0.00346701
v -0.02264684 -0.01994035 -0.00174463
v -0.02384902 -0.01826512 -0.00174463
v -0.00661785 0.01385913 -0.02879243
v -0.01189799 0.02609891 -0.01210708
v -0.00450226 0.02722556 -0.01356730
v -0.00535675 0.02515512 -0.01640316
v -0.00833861 0.02411695 -0.01660048
v -0.01091975 0.02288413 -0.01707407
v -0.00358884 0.02369224 -0.01897122
v 0.00470852 0.02050106 -0.02453864
v 0.00506210 0.01951597 -0.02560138
v -0.00495013 0.01801181 -0.02527720
v -0.01562237 0.02601043 -0.00308081
v -0.01179781 0.02714298 -0.00988011
v -0.01185674 0.02677136 -0.01086111
v -0.01622935 0.02547955 -0.00174463
v -0.00743698 0.00107078 -0.02966349
v -0.00856844 0.00026266 -0.02932803
v 0.00492066 -0.01109822 -0.03054300
v 0.00755484 -0.01069711 -0.02995102
v 0.00845058 -0.01218947 -0.02857537
v -0.00525657 0.01149376 -0.02920400
v -0.00525067 0.01007218 -0.02935904
v -0.00710697 0.00142470 -0.02967476
v -0.00583997 0.01343443 -0.02889673
v 0.00446101 -0.01945076 -0.02356329
v 0.00384224 -0.02007012 -0.02307843
v 0.00712465 -0.02227033 -0.02027921
v 0.00253989 -0.02397505 -0.01908962
v 0.01152084 -0.01801148 -0.02231449
v 0.00505620 -0.01988136 -0.02304742
v 0.00135539 -0.02777381 -0.01277517
v 0.00440797 -0.02580954 -0.01596340
v 0.00152629 -0.02875299 -0.00971943
v 0.00428422 -0.02939595 -0.00296242
v 0.00361242 -0.02959060 -0.00196451
v -0.00347098 -0.02993273 -0.00434652
v 0.00315276 -0.02964369 -0.00174463
v 0.00005304 -0.02985604 -0.00174463
v -0.00370081 -0.03001531 -0.00301879
v -0.00338848 -0.02995042 -0.00186866
v -0.00548639 -0.02996222 -0.00321612
v -0.01450859 -0.02907742 -0.00185739
v 0.01292337 -0.02691260 -0.01230441
v 0.01399001 -0.02712495 -0.01143335
v -0.01505664 -0.02878248 -0.00174463
v -0.01528058 -0.02867631 -0.00174463
v -0.01621757 -0.02812183 -0.00272844
v -0.01532772 -0.02862912 -0.00174463
v 0.00601676 0.01958676 -0.02562675
v 0.00547461 0.01893200 -0.02594812
v 0.00718358 0.01647225 -0.02688401
v -0.00308204 0.02784492 -0.01271316
v -0.00373028 0.02731404 -0.01366596
v -0.00426065 0.02586296 -0.01569560
v 0.01002401 0.02687164 -0.01644826
v 0.00959971 0.02647053 -0.01695003
v -0.01611149 0.02555623 -0.00174463
v -0.01452627 0.02634076 -0.00174463
v -0.01079600 0.02813986 -0.00174463
v -0.00986490 0.02852917 -0.00175309
v -0.00612284 0.02940218 -0.00429578
v -0.00497370 0.02964992 -0.00487930
v 0.00434315 -0.00015025 -0.03008633
v 0.00495602 -0.00070473 -0.03007505
v -0.00284043 0.00340076 -0.02986363
v 0.01615864 -0.00366587 -0.02579589
v 0.02460332 -0.01113951 -0.01901350
v 0.02461511 -0.01162320 -0.01888101
v 0.00796735 0.00546530 -0.02914198
v 0.01160334 -0.00409647 -0.02847953
v 0.01767314 0.00038063 -0.02558165
v 0.01225157 -0.01694971 -0.02273170
v -0.00178558 0.00423247 -0.02982417
v -0.00301133 0.00453331 -0.02978470
v 0.00786128 0.01646635 -0.02682199
v 0.01350089 -0.02129115 -0.01808889
v 0.01371893 -0.02661766 -0.01244536
v 0.01211014 -0.01759267 -0.02230604
v 0.00523299 -0.02936055 -0.00219566
v 0.00367135 -0.02959650 -0.00174463
v -0.00341795 -0.02993863 -0.00174463
v -0.00437261 -0.02987374 -0.00174463
v -0.01446734 -0.02897124 -0.00174463
v 0.01538076 -0.02690670 -0.01023530
v 0.01424930 -0.02713675 -0.01023248
v 0.00563372 -0.02931337 -0.00174463
v 0.02000088 0.01636018 -0.02062876
v 0.01046009 0.02643514 -0.01663149
v 0.00482638 0.02988587 -0.00640153
v 0.01379554 0.02729634 -0.00374890
v 0.01522165 0.02480120 -0.01445808
v 0.01521575 0.02402847 -0.01611563
v -0.00986490 0.02852917 -0.00174463
v -0.00489709 0.02973250 -0.00360795
v -0.00362420 0.02978559 -0.00448465
v 0.01846870 0.00003851 -0.02489383
v 0.01833316 0.00106488 -0.02502068
v 0.01893424 0.00576023 -0.02421446
v 0.02552263 -0.01087996 -0.01805224
v 0.02577603 -0.01146393 -0.01696977
v 0.01780868 -0.01732133 -0.01860194
v 0.01632364 0.00238029 -0.02607497
v 0.01682455 0.00071096 -0.02601859
v 0.01714277 0.00162525 -0.02577052
v 0.00496192 -0.02941954 -0.00174463
v 0.02208701 -0.01950385 -0.00902879
v 0.02433224 -0.01948025 -0.00210827
v 0.02387848 -0.01992265 -0.00223795
v 0.02001267 -0.02316103 -0.00398287
v 0.01943515 -0.02360933 -0.00356003
v 0.01931729 -0.02350905 -0.00174463
v 0.01906389 -0.02365652 -0.00174463
v 0.01759064 -0.02440566 -0.00174463
v 0.00982365 -0.02823980 -0.00174463
v 0.00944650 -0.02840497 -0.00174463
v 0.00841522 -0.02874119 -0.00174463
v 0.00820307 -0.02879428 -0.00174463
v 0.02053714 0.01637197 -0.01989865
v 0.02080822 0.01568183 -0.02003678
v 0.02033678 0.01548127 -0.02069078
v 0.00133771 0.03019850 -0.00240426
v 0.00499727 0.02985637 -0.00597023
v 0.01382500 0.02731994 -0.00291731
v 0.01475021 0.02681265 -0.00320766
v 0.01539255 0.02616970 -0.00509354
v 0.01593470 0.02572139 -0.00571935
v 0.02040160 0.02263638 -0.00399415
v 0.02117359 0.02222937 -0.00291167
v 0.02160967 0.02166900 -0.00405899
v 0.02153306 0.02081369 -0.00844245
v -0.00591658 0.02930780 -0.00174463
v -0.00476745 0.02965582 -0.00240708
v 0.00067770 0.03011002 -0.00178973
v 0.02434403 0.00319431 -0.01866959
v 0.02949452 -0.00515824 -0.00933042
v 0.03001310 -0.01032549 -0.00737689
v 0.02446189 0.00387265 -0.01838488
v 0.03005436 -0.01069711 -0.00668343
v 0.02917041 -0.01172938 -0.00722466
v 0.02433814 -0.01953334 -0.00174463
v 0.02387259 -0.01992855 -0.00174463
v 0.02017767 -0.02301357 -0.00332606
v 0.01976516 -0.02327901 -0.00248319
v 0.02441474 0.01659023 -0.00815210
v 0.02516905 0.01532201 -0.00781946
v 0.02546370 0.01450209 -0.00807317
v 0.02786805 0.01109265 -0.00507099
v 0.02825109 0.00618494 -0.00947137
v 0.00079556 0.03011002 -0.00174463
v 0.00154986 0.03011592 -0.00174463
v 0.00195059 0.03005103 -0.00174463
v 0.01034223 0.02806907 -0.00174463
v 0.01145012 0.02788621 -0.00253675
v 0.01307070 0.02745561 -0.00237044
v 0.01287623 0.02740252 -0.00174463
v 0.01354214 0.02715478 -0.00174463
v 0.01414323 0.02701911 -0.00215620
v 0.01504486 0.02653541 -0.00233661
v 0.01543969 0.02628177 -0.00405617
v 0.02017767 0.02263638 -0.00174463
v 0.02205754 0.02149794 -0.00303571
v 0.01502718 0.02639384 -0.00174463
v -0.00461423 0.02956144 -0.00174463
v 0.00063645 0.03009822 -0.00174463
v 0.00069538 0.03010412 -0.00174463
v 0.02868128 -0.00115893 -0.01039598
v 0.02853396 0.00589590 -0.00878636
v 0.02879914 0.00476925 -0.00730078
v 0.02923523 0.00570125 -0.00174463
v 0.03010150 -0.00970023 -0.00535570
v 0.02929416 0.00489313 -0.00174463
v 0.03003668 -0.00991848 -0.00492158
v 0.02467404 -0.01889628 -0.00174463
v 0.02662462 0.01298613 -0.00174463
v 0.02707249 0.01205413 -0.00174463
v 0.02836896 0.00870368 -0.00174463
v 0.02855164 0.00821999 -0.00174463
v 0.02889343 0.00729389 -0.00174463
v 0.02897594 0.00704025 -0.00174463
v 0.02909379 0.00656835 -0.00174463
v 0.02913505 0.00639729 -0.00174463
v 0.02451492 0.01687926 -0.00174463
v 0.01452038 0.02669468 -0.00174463
v 0.02037803 0.02245352 -0.00174463
v 0.02209879 0.02087857 -0.00174463
v 0.02223433 0.02082548 -0.00196451
v 0.02968899 -0.00209682 -0.00320766
v 0.02971256 -0.00233277 -0.00224076
v 0.02957113 -0.00171340 -0.00174463
v 0.02944737 -0.00409057 -0.00174463
v 0.02921166 -0.00642056 -0.00174463
v 0.02859289 -0.01022521 -0.00174463
v 0.02857521 -0.01033139 -0.00174463
v 0.02855753 -0.01040217 -0.00174463
v 0.02785037 -0.01211869 -0.00174463
v 0.02264684 0.01998197 -0.00174463
f 1 2 3
f 1 3 4
f 1 4 5
f 1 5 6
f 1 6 7
f 1 7 8
f 1 8 9
f 1 9 10
f 1 10 11
f 1 11 12
f 1 12 2
f 2 12 3
f 3 13 14
f 3 14 4
f 3 12 15
f 3 15 16
f 3 16 13
f 4 14 17
f 4 17 18
f 4 18 5
f 5 18 28
f 5 28 47
f 5 47 46
f 5 46 77
f 5 77 114
f 5 114 113
f 5 113 161
f 5 161 159
f 5 159 158
f 5 158 196
f 5 196 195
f 5 195 194
f 5 194 151
f 5 151 150
f 5 150 193
f 5 193 218
f 5 218 199
f 5 199 230
f 5 230 229
f 5 229 228
f 5 228 227
f 5 227 226
f 5 226 225
f 5 225 224
f 5 224 254
f 5 254 253
f 5 253 286
f 5 286 308
f 5 308 307
f 5 307 306
f 5 306 305
f 5 305 304
f 5 304 303
f 5 303 302
f 5 302 284
f 5 284 282
f 5 282 294
f 5 294 293
f 5 293 292
f 5 292 291
f 5 291 290
f 5 290 289
f 5 289 288
f 5 288 287
f 5 287 295
f 5 295 309
f 5 309 298
f 5 298 297
f 5 297 273
f 5 273 275
f 5 275 296
f 5 296 269
f 5 269 268
f 5 268 265
f 5 265 264
f 5 264 263
f 5 263 262
f 5 262 278
f 5 278 277
f 5 277 276
f 5 276 244
f 5 244 206
f 5 206 172
f 5 172 171
f 5 171 170
f 5 170 128
f 5 128 84
f 5 84 83
f 5 83 82
f 5 82 81
f 5 81 50
f 5 50 32
f 5 32 31
f 5 31 35
f 5 35 19
f 5 19 11
f 5 11 10
f 5 10 9
f 5 9 8
f 5 8 7
f 5 7 6
f 11 19 20
f 11 20 12
f 12 20 15
f 13 21 22
f 13 22 23
f 13 23 24
f 13 24 25
f 13 25 14
f 13 16 26
f 13 26 21
f 14 25 27
f 14 27 28
f 14 28 18
f 14 18 17
f 15 29 26
f 15 26 16
f 15 20 30
f 15 30 31
f 15 31 32
f 15 32 33
f 15 33 34
f 15 34 29
f 19 35 20
f 20 35 31
f 20 31 30
f 21 36 37
f 21 37 22
f 21 26 38
f 21 38 36
f 22 37 23
f 23 37 39
f 23 39 40
f 23 40 41
f 23 41 24
f 24 41 25
f 25 41 42
f 25 42 27
f 26 29 43
f 26 43 44
f 26 44 38
f 27 42 45
f 27 45 46
f 27 46 47
f 27 47 28
f 29 48 49
f 29 49 43
f 29 34 48
f 32 50 51
f 32 51 33
f 33 51 52
f 33 52 34
f 34 52 48
f 36 53 54
f 36 54 37
f 36 38 53
f 37 54 55
f 37 55 56
f 37 56 39
f 38 44 57
f 38 57 53
f 39 56 58
f 39 58 59
f 39 59 60
f 39 60 61
f 39 61 62
f 39 62 63
f 39 63 64
f 39 64 65
f 39 65 40
f 40 65 64
f 40 64 66
f 40 66 41
f 41 66 67
f 41 67 68
f 41 68 42
f 42 68 69
f 42 69 70
f 42 70 45
f 43 49 44
f 44 71 57
f 44 49 72
f 44 72 73
f 44 73 74
f 44 74 75
f 44 75 76
f 44 76 71
f 45 77 46
f 45 70 78
f 45 78 77
f 48 52 49
f 49 52 51
f 49 51 79
f 49 79 80
f 49 80 73
f 49 73 72
f 50 81 51
f 51 81 82
f 51 82 83
f 51 83 84
f 51 84 85
f 51 85 86
f 51 86 79
f 53 87 88
f 53 88 55
f 53 55 54
f 53 57 89
f 53 89 87
f 55 88 90
f 55 90 91
f 55 91 56
f 56 91 92
f 56 92 93
f 56 93 94
f 56 94 95
f 56 95 58
f 57 71 96
f 57 96 97
f 57 97 89
f 58 98 59
f 58 95 99
f 58 99 98
f 59 100 101
f 59 101 60
f 59 98 100
f 60 101 61
f 61 102 103
f 61 103 104
f 61 104 105
f 61 105 106
f 61 106 107
f 61 107 62
f 61 101 108
f 61 108 102
f 62 107 63
f 63 107 109
f 63 109 64
f 64 109 110
f 64 110 111
f 64 111 112
f 64 112 70
f 64 70 69
f 64 69 67
f 64 67 66
f 67 69 68
f 70 112 113
f 70 113 114
f 70 114 77
f 70 77 78
f 71 76 115
f 71 115 96
f 73 80 74
f 74 80 116
f 74 116 117
f 74 117 118
f 74 118 119
f 74 119 120
f 74 120 75
f 75 120 76
f 76 120 119
f 76 119 121
f 76 121 122
f 76 122 123
f 76 123 124
f 76 124 115
f 79 86 125
f 79 125 126
f 79 126 127
f 79 127 80
f 80 127 116
f 84 128 85
f 85 128 125
f 85 125 86
f 87 91 90
f 87 90 88
f 87 89 129
f 87 129 130
f 87 130 91
f 89 97 129
f 91 93 92
f 91 130 129
f 91 129 93
f 93 131 94
f 93 129 131
f 94 131 132
f 94 132 133
f 94 133 99
f 94 99 95
f 96 134 135
f 96 135 136
f 96 136 97
f 96 115 137
f 96 137 134
f 97 136 129
f 98 138 139
f 98 139 140
f 98 140 141
f 98 141 100
f 98 99 138
f 99 133 142
f 99 142 140
f 99 140 143
f 99 143 138
f 100 141 101
f 101 144 108
f 101 141 145
f 101 145 144
f 102 146 103
f 102 108 146
f 103 147 148
f 103 148 149
f 103 149 104
f 103 146 147
f 104 149 148
f 104 148 150
f 104 150 151
f 104 151 152
f 104 152 153
f 104 153 154
f 104 154 105
f 105 155 110
f 105 110 106
f 105 154 155
f 106 110 107
f 107 110 109
f 108 144 156
f 108 156 157
f 108 157 146
f 110 155 158
f 110 158 159
f 110 159 160
f 110 160 111
f 111 160 112
f 112 160 113
f 113 160 161
f 115 124 123
f 115 123 162
f 115 162 163
f 115 163 164
f 115 164 137
f 116 127 117
f 117 165 166
f 117 166 167
f 117 167 118
f 117 127 165
f 118 167 121
f 118 121 119
f 121 167 166
f 121 166 168
f 121 168 169
f 121 169 122
f 122 162 123
f 122 169 168
f 122 168 162
f 125 128 170
f 125 170 171
f 125 171 172
f 125 172 126
f 126 172 173
f 126 173 174
f 126 174 175
f 126 175 165
f 126 165 127
f 129 136 131
f 131 176 177
f 131 177 132
f 131 136 178
f 131 178 176
f 132 179 180
f 132 180 181
f 132 181 133
f 132 177 182
f 132 182 183
f 132 183 184
f 132 184 179
f 133 181 185
f 133 185 142
f 134 137 182
f 134 182 176
f 134 176 135
f 135 176 186
f 135 186 187
f 135 187 178
f 135 178 136
f 137 164 188
f 137 188 182
f 138 143 139
f 139 143 140
f 140 142 189
f 140 189 190
f 140 190 156
f 140 156 141
f 141 156 145
f 142 185 191
f 142 191 189
f 144 145 156
f 146 157 147
f 147 157 192
f 147 192 148
f 148 192 193
f 148 193 150
f 151 194 153
f 151 153 152
f 153 194 154
f 154 194 195
f 154 195 155
f 155 196 158
f 155 195 196
f 156 190 157
f 157 197 198
f 157 198 199
f 157 199 192
f 157 190 197
f 159 161 160
f 162 200 188
f 162 188 164
f 162 164 163
f 162 168 201
f 162 201 200
f 165 168 166
f 165 175 202
f 165 202 168
f 168 202 203
f 168 203 204
f 168 204 205
f 168 205 201
f 172 206 173
f 173 206 207
f 173 207 174
f 174 207 175
f 175 207 208
f 175 208 202
f 176 178 186
f 176 182 177
f 178 187 186
f 179 184 180
f 180 209 210
f 180 210 211
f 180 211 212
f 180 212 181
f 180 184 209
f 181 212 213
f 181 213 197
f 181 197 190
f 181 190 189
f 181 189 214
f 181 214 191
f 181 191 185
f 182 188 211
f 182 211 215
f 182 215 216
f 182 216 183
f 183 216 184
f 184 216 217
f 184 217 211
f 184 211 210
f 184 210 209
f 188 200 211
f 189 191 214
f 192 199 218
f 192 218 193
f 197 219 220
f 197 220 221
f 197 221 222
f 197 222 223
f 197 223 224
f 197 224 225
f 197 225 226
f 197 226 227
f 197 227 228
f 197 228 229
f 197 229 230
f 197 230 198
f 197 213 219
f 198 230 199
f 200 201 205
f 200 205 231
f 200 231 232
f 200 232 233
f 200 233 211
f 202 208 234
f 202 234 235
f 202 235 203
f 203 235 236
f 203 236 237
f 203 237 238
f 203 238 204
f 204 238 239
f 204 239 240
f 204 240 241
f 204 241 242
f 204 242 243
f 204 243 205
f 205 243 231
f 206 244 245
f 206 245 207
f 207 245 246
f 207 246 234
f 207 234 208
f 211 233 247
f 211 247 212
f 211 217 215
f 212 248 249
f 212 249 213
f 212 247 250
f 212 250 248
f 213 249 251
f 213 251 252
f 213 252 219
f 215 217 216
f 219 252 220
f 220 253 221
f 220 252 251
f 220 251 253
f 221 253 254
f 221 254 222
f 222 255 223
f 222 254 255
f 223 255 256
f 223 256 224
f 224 256 254
f 231 243 257
f 231 257 258
f 231 258 259
f 231 259 232
f 232 259 260
f 232 260 261
f 232 261 250
f 232 250 233
f 233 250 247
f 234 246 262
f 234 262 263
f 234 263 264
f 234 264 235
f 235 264 265
f 235 265 266
f 235 266 236
f 236 266 267
f 236 267 268
f 236 268 269
f 236 269 270
f 236 270 271
f 236 271 237
f 237 241 272
f 237 272 238
f 237 271 241
f 238 272 239
f 239 272 241
f 239 241 240
f 241 273 274
f 241 274 242
f 241 271 275
f 241 275 273
f 242 274 243
f 243 274 257
f 244 276 245
f 245 276 246
f 246 277 278
f 246 278 262
f 246 276 277
f 248 250 279
f 248 279 261
f 248 261 280
f 248 280 281
f 248 281 282
f 248 282 249
f 249 283 251
f 249 282 284
f 249 284 283
f 250 261 279
f 251 283 285
f 251 285 286
f 251 286 253
f 254 256 255
f 257 274 260
f 257 260 258
f 258 260 259
f 260 287 288
f 260 288 289
f 260 289 290
f 260 290 291
f 260 291 292
f 260 292 293
f 260 293 294
f 260 294 280
f 260 280 261
f 260 274 295
f 260 295 287
f 265 268 267
f 265 267 266
f 269 296 270
f 270 296 271
f 271 296 275
f 273 297 274
f 274 297 298
f 274 298 299
f 274 299 295
f 280 294 282
f 280 282 281
f 283 284 300
f 283 300 301
f 283 301 285
f 284 301 300
f 284 302 301
f 285 301 303
f 285 303 304
f 285 304 305
f 285 305 306
f 285 306 307
f 285 307 308
f 285 308 286
f 295 299 309
f 298 309 299
f 301 302 303

