# Blender 4.0.0
# www.blender.org
o Window057_Clear
v 0.570122 0.003406 -0.366262
v 0.313542 0.003406 -0.366262
v 0.313542 0.003407 0.366270
v 0.570122 0.003407 0.366270
v 0.313542 0.006790 0.366270
v 0.313542 0.006790 -0.366262
v 0.570122 0.006790 -0.366262
v 0.570122 0.006790 0.366270
v -0.569693 0.003406 -0.366262
v -0.313113 0.003406 -0.366262
v -0.313113 0.003407 0.366270
v -0.569693 0.003407 0.366270
v -0.313113 0.006790 0.366270
v -0.313113 0.006790 -0.366262
v -0.569693 0.006790 -0.366262
v -0.569693 0.006790 0.366270
v -0.036531 -0.006039 0.366270
v -0.293111 -0.006039 0.366270
v -0.293111 -0.006039 -0.366262
v -0.036531 -0.006039 -0.366262
v -0.036531 -0.002655 0.366270
v -0.293111 -0.002655 0.366270
v -0.293111 -0.002655 -0.366262
v -0.036531 -0.002655 -0.366262
v 0.012668 -0.006039 0.366270
v 0.269248 -0.006039 0.366270
v 0.269248 -0.006039 -0.366262
v 0.012668 -0.006039 -0.366262
v 0.012668 -0.002655 0.366270
v 0.269248 -0.002655 0.366270
v 0.269248 -0.002655 -0.366262
v 0.012668 -0.002655 -0.366262
vn -0.0000 -1.0000 -0.0000
vn -0.0000 1.0000 -0.0000
vn -0.0000 -0.0000 -1.0000
vn -1.0000 -0.0000 -0.0000
vn 1.0000 -0.0000 -0.0000
vn -0.0000 -0.0000 1.0000
vt 0.909307 0.927717
vt 0.898199 0.896005
vt 0.909307 0.896005
vt 0.909342 0.927717
vt 0.920450 0.896005
vt 0.920450 0.927717
vt 0.931628 0.938860
vt 0.931775 0.927752
vt 0.931775 0.938860
vt 0.954825 0.927717
vt 0.954971 0.896005
vt 0.954971 0.927717
vt 0.955153 0.896005
vt 0.955007 0.927717
vt 0.955007 0.896005
vt 0.931810 0.938860
vt 0.931957 0.927752
vt 0.931957 0.938860
vt 0.920450 0.927752
vt 0.909342 0.959464
vt 0.909342 0.927752
vt 0.920485 0.927752
vt 0.931593 0.959464
vt 0.920485 0.959464
vt 0.932867 0.938860
vt 0.932720 0.927752
vt 0.932867 0.927752
vt 0.954279 0.896005
vt 0.954425 0.927717
vt 0.954279 0.927717
vt 0.954607 0.927717
vt 0.954461 0.896005
vt 0.954607 0.896005
vt 0.933049 0.938860
vt 0.932902 0.927752
vt 0.933049 0.927752
vt 0.931593 0.896005
vt 0.920485 0.927717
vt 0.920485 0.896005
vt 0.931628 0.896005
vt 0.942736 0.927717
vt 0.931628 0.927717
vt 0.932503 0.938860
vt 0.932356 0.927752
vt 0.932503 0.927752
vt 0.954097 0.896005
vt 0.954243 0.927717
vt 0.954097 0.927717
vt 0.954061 0.927717
vt 0.953915 0.896005
vt 0.954061 0.896005
vt 0.931992 0.927752
vt 0.932139 0.938860
vt 0.931992 0.938860
vt 0.953879 0.927717
vt 0.942772 0.896005
vt 0.953879 0.896005
vt 0.898199 0.959464
vt 0.909307 0.927752
vt 0.909307 0.959464
vt 0.932174 0.938860
vt 0.932321 0.927752
vt 0.932321 0.938860
vt 0.955189 0.927717
vt 0.955335 0.896005
vt 0.955335 0.927717
vt 0.954789 0.896005
vt 0.954643 0.927717
vt 0.954643 0.896005
vt 0.932539 0.938860
vt 0.932685 0.927752
vt 0.932685 0.938860
vt 0.898199 0.927717
vt 0.909342 0.896005
vt 0.931628 0.927752
vt 0.954825 0.896005
vt 0.955153 0.927717
vt 0.931810 0.927752
vt 0.920450 0.959464
vt 0.931593 0.927752
vt 0.932720 0.938860
vt 0.954425 0.896005
vt 0.954461 0.927717
vt 0.932902 0.938860
vt 0.931593 0.927717
vt 0.942736 0.896005
vt 0.932356 0.938860
vt 0.954243 0.896005
vt 0.953915 0.927717
vt 0.932139 0.927752
vt 0.942772 0.927717
vt 0.898199 0.927752
vt 0.932174 0.927752
vt 0.955189 0.896005
vt 0.954789 0.927717
vt 0.932538 0.927752
s 1
f 2/1/1 4/2/1 3/3/1
f 6/4/2 8/5/2 7/6/2
f 1/7/3 6/8/3 7/9/3
f 2/10/4 5/11/4 6/12/4
f 4/13/5 7/14/5 8/15/5
f 3/16/6 8/17/6 5/18/6
f 12/19/1 10/20/1 11/21/1
f 16/22/2 14/23/2 15/24/2
f 14/25/3 9/26/3 15/27/3
f 13/28/5 10/29/5 14/30/5
f 15/31/4 12/32/4 16/33/4
f 16/34/6 11/35/6 13/36/6
f 18/37/1 20/38/1 17/39/1
f 22/40/2 24/41/2 23/42/2
f 24/43/3 19/44/3 23/45/3
f 21/46/5 20/47/5 24/48/5
f 23/49/4 18/50/4 22/51/4
f 22/52/6 17/53/6 21/54/6
f 28/55/1 26/56/1 25/57/1
f 32/58/2 30/59/2 31/60/2
f 27/61/3 32/62/3 31/63/3
f 28/64/4 29/65/4 32/66/4
f 26/67/5 31/68/5 30/69/5
f 25/70/6 30/71/6 29/72/6
f 2/1/1 1/73/1 4/2/1
f 6/4/2 5/74/2 8/5/2
f 1/7/3 2/75/3 6/8/3
f 2/10/4 3/76/4 5/11/4
f 4/13/5 1/77/5 7/14/5
f 3/16/6 4/78/6 8/17/6
f 12/19/1 9/79/1 10/20/1
f 16/22/2 13/80/2 14/23/2
f 14/25/3 10/81/3 9/26/3
f 13/28/5 11/82/5 10/29/5
f 15/31/4 9/83/4 12/32/4
f 16/34/6 12/84/6 11/35/6
f 18/37/1 19/85/1 20/38/1
f 22/40/2 21/86/2 24/41/2
f 24/43/3 20/87/3 19/44/3
f 21/46/5 17/88/5 20/47/5
f 23/49/4 19/89/4 18/50/4
f 22/52/6 18/90/6 17/53/6
f 28/55/1 27/91/1 26/56/1
f 32/58/2 29/92/2 30/59/2
f 27/61/3 28/93/3 32/62/3
f 28/64/4 25/94/4 29/65/4
f 26/67/5 27/95/5 31/68/5
f 25/70/6 26/96/6 30/71/6
