# https://github.com/mikedh/trimesh
v 0.00499780 -0.45499447 0.07394422
v -0.00499780 -0.45499447 0.07394422
v 0.00499780 -0.46498704 0.07349999
v 0.01308775 -0.46498704 0.07210673
v 0.01343932 -0.45499447 0.07232885
v 0.01359512 -0.44501284 0.07225817
v 0.01406654 -0.39226693 0.07185434
v 0.01202108 -0.39226693 0.07221779
v 0.00499780 -0.39226693 0.07345961
v -0.01359512 -0.44501284 0.07225817
v -0.01343932 -0.45499447 0.07232885
v -0.01308775 -0.46498704 0.07210673
v -0.00499780 -0.46498704 0.07349999
v -0.00499780 -0.39226693 0.07345961
v -0.01406654 -0.39226693 0.07185434
v 0.00499780 -0.47384012 0.07151107
v 0.01187326 -0.47278827 0.07123847
v 0.01756619 -0.46498704 0.06499912
v 0.01475369 -0.47566989 0.06581689
v 0.01790178 -0.45499447 0.06499912
v 0.01910029 -0.39226693 0.06608949
v 0.01794173 -0.39226693 0.06771495
v 0.01375892 -0.43500930 0.07216731
v 0.01391473 -0.42500576 0.07205626
v 0.01409051 -0.41500223 0.07191491
v -0.01375892 -0.43500930 0.07216731
v -0.01910029 -0.39226693 0.06608949
v -0.01790178 -0.45499447 0.06499912
v -0.01756619 -0.46498704 0.06499912
v -0.01475369 -0.47566989 0.06581689
v -0.01187326 -0.47278827 0.07123847
v -0.00499780 -0.47384012 0.07151107
v -0.01409051 -0.41500223 0.07191491
v -0.01391473 -0.42500576 0.07205626
v 0.00499780 -0.47884735 0.06945147
v 0.01307177 -0.48312050 0.06303038
v 0.02013101 -0.49047250 0.05048098
v 0.02019493 -0.48498315 0.05138963
v 0.01924811 -0.41550624 0.06461546
v 0.02010305 -0.41250408 0.06103136
v 0.01997920 -0.39226693 0.06216212
v -0.02015498 -0.39226693 0.06135444
v -0.02010305 -0.41250408 0.06103136
v -0.01924811 -0.41550624 0.06461546
v -0.02019493 -0.48498315 0.05138963
v -0.02013101 -0.49047250 0.05048098
v -0.01307177 -0.48312050 0.06303038
v -0.00499780 -0.47884735 0.06945147
v 0.00499780 -0.48468733 0.06445393
v 0.00499780 -0.48968363 0.05968859
v 0.01499738 -0.49268577 0.05270212
v 0.02039468 -0.48498315 0.04499882
v 0.01594820 -0.49782449 0.04573584
v 0.01992327 -0.49946803 0.03941571
v 0.02019493 -0.49245569 0.04499882
v 0.02015498 -0.39226693 0.06135444
v -0.02030679 -0.39226693 0.05498382
v -0.02039468 -0.48498315 0.04499882
v -0.02019493 -0.49245569 0.04499882
v -0.01992327 -0.49946803 0.03941571
v -0.01594820 -0.49782449 0.04573584
v -0.01499738 -0.49268577 0.05270212
v -0.00499780 -0.48968363 0.05968859
v -0.00499780 -0.48468733 0.06445393
v 0.00499780 -0.49465799 0.05469104
v 0.00499780 -0.49965429 0.04935022
v 0.02022689 -0.49567696 0.03564988
v 0.02039468 -0.48498315 0.01501354
v 0.02040667 -0.39226693 0.01501354
v 0.02039468 -0.39226693 0.03499363
v 0.02030679 -0.39226693 0.05498382
v 0.02027883 -0.39226693 0.05680111
v 0.01325954 -0.50115538 0.04289885
v 0.01594820 -0.50176895 0.03564988
v 0.02011503 -0.50016928 0.03275231
v -0.02032677 -0.39226693 0.05310596
v -0.02039468 -0.48498315 0.01501354
v -0.02022689 -0.49567696 0.03564988
v -0.02037870 -0.39226693 0.04274741
v -0.02039468 -0.39226693 0.03499363
v -0.02040667 -0.39226693 0.01501354
v -0.02011503 -0.50016928 0.03275231
v -0.01594820 -0.50176895 0.03564988
v -0.01325954 -0.50115538 0.04289885
v -0.00499780 -0.49965429 0.04935022
v -0.00499780 -0.49465799 0.05469104
v 0.00499780 -0.50173604 0.04435268
v 0.02022689 -0.49541402 0.02462498
v 0.02011503 -0.50016928 0.02770428
v 0.02023488 -0.48575014 0.00425114
v 0.02032677 -0.47499058 -0.00498675
v 0.02039468 -0.45499447 -0.01499194
v 0.02019493 -0.49224749 0.01501354
v 0.02039468 -0.43500930 -0.01499194
v 0.02021491 -0.39226693 0.00755255
v 0.00499780 -0.50417942 0.03499363
v 0.01590026 -0.50170320 0.02462498
v -0.02039468 -0.45499447 -0.01499194
v -0.02032677 -0.47499058 -0.00498675
v -0.02023488 -0.48575014 0.00425114
v -0.02019493 -0.49224749 0.01501354
v -0.02022689 -0.49541402 0.02462498
v -0.02011503 -0.50016928 0.02770428
v -0.02037071 -0.39226693 0.01280250
v -0.02039468 -0.43500930 -0.01499194
v -0.00499780 -0.50417942 0.03499363
v -0.01590026 -0.50170320 0.02462498
v -0.00499780 -0.50173604 0.04435268
v 0.01983138 -0.49902976 0.02106108
v 0.01994324 -0.48958501 0.00041464
v 0.02013101 -0.49062589 0.00707804
v 0.02012702 -0.48226589 -0.00498675
v 0.02003913 -0.48008549 -0.01007516
v 0.02013101 -0.46105355 -0.02025199
v 0.02023488 -0.46462548 -0.01461839
v 0.02019493 -0.45499447 -0.02052458
v 0.02019493 -0.44501284 -0.02065583
v 0.02019493 -0.43500930 -0.02058515
v 0.02013101 -0.42971718 -0.02036304
v 0.01933600 -0.39226693 0.00277712
v 0.00499780 -0.50398219 0.02499854
v 0.01289599 -0.50089240 0.01501354
v -0.02019493 -0.44501284 -0.02065583
v -0.02019493 -0.45499447 -0.02052458
v -0.02013101 -0.46105355 -0.02025199
v -0.02023488 -0.46462548 -0.01461839
v -0.02003913 -0.48008549 -0.01007516
v -0.02012702 -0.48226589 -0.00498675
v -0.02013101 -0.49062589 0.00707804
v -0.01994324 -0.48958501 0.00041464
v -0.01983138 -0.49902976 0.02106108
v -0.02021491 -0.39226693 0.00755255
v -0.02013101 -0.42971718 -0.02036304
v -0.02019493 -0.43500930 -0.02058515
v -0.00499780 -0.50398219 0.02499854
v -0.01289599 -0.50089240 0.01501354
v 0.01069472 -0.50014734 0.00974340
v 0.01596418 -0.48696634 -0.00507761
v 0.01327952 -0.49130523 -0.00180649
v 0.01499738 -0.48150986 -0.01130688
v 0.01223681 -0.47104615 -0.02062554
v 0.01890453 -0.46772623 -0.01772797
v 0.01499738 -0.45499447 -0.02443175
v 0.01499738 -0.44501284 -0.02524953
v 0.01534096 -0.46462548 -0.02179668
v 0.01499738 -0.43500930 -0.02482550
v 0.01499738 -0.42809558 -0.02222072
v 0.01456991 -0.39226693 -0.00345215
v 0.00499780 -0.50177991 0.01501354
v -0.01499738 -0.44501284 -0.02524953
v -0.01499738 -0.45499447 -0.02443175
v -0.01534096 -0.46462548 -0.02179668
v -0.01890453 -0.46772623 -0.01772797
v -0.01499738 -0.48150986 -0.01130688
v -0.01596418 -0.48696634 -0.00507761
v -0.01223681 -0.47104615 -0.02062554
v -0.01327952 -0.49130523 -0.00180649
v -0.01069472 -0.50014734 0.00974340
v -0.02005111 -0.39226693 0.00612901
v -0.01933600 -0.39226693 0.00277712
v -0.01830128 -0.39226693 0.00106079
v -0.01456991 -0.39226693 -0.00345215
v -0.01499738 -0.42809558 -0.02222072
v -0.01499738 -0.43500930 -0.02482550
v -0.00499780 -0.50177991 0.01501354
v 0.00499780 -0.50023496 0.00961215
v 0.00499780 -0.49696988 0.00461460
v 0.00499780 -0.49197358 -0.00272523
v 0.00499780 -0.48789766 -0.00772278
v 0.00499780 -0.48290136 -0.01250831
v 0.00499780 -0.47656834 -0.01750586
v 0.00499780 -0.47156110 -0.02093852
v 0.00499780 -0.46498704 -0.02410868
v 0.00499780 -0.45499447 -0.02779374
v 0.00499780 -0.44501284 -0.02919709
v 0.00499780 -0.43500930 -0.02846008
v 0.00499780 -0.39226693 -0.00696557
v 0.00775437 -0.39226693 -0.00596607
v -0.00499780 -0.44501284 -0.02919709
v -0.00499780 -0.45499447 -0.02779374
v -0.00499780 -0.48290136 -0.01250831
v -0.00499780 -0.48789766 -0.00772278
v -0.00499780 -0.47156110 -0.02093852
v -0.00499780 -0.47656834 -0.01750586
v -0.00499780 -0.46498704 -0.02410868
v -0.00499780 -0.49197358 -0.00272523
v -0.00499780 -0.50023496 0.00961215
v -0.00499780 -0.49696988 0.00461460
v -0.00499780 -0.39226693 -0.00696557
v -0.00499780 -0.43500930 -0.02846008
f 1 2 13
f 1 13 3
f 1 3 4
f 1 4 5
f 1 5 6
f 1 6 7
f 1 7 8
f 1 8 9
f 1 9 14
f 1 14 2
f 2 10 11
f 2 11 12
f 2 12 13
f 2 14 15
f 2 15 10
f 3 13 32
f 3 32 16
f 3 16 17
f 3 17 4
f 4 18 5
f 4 17 19
f 4 19 18
f 5 18 20
f 5 20 21
f 5 21 22
f 5 22 6
f 6 23 7
f 6 22 23
f 7 24 25
f 7 25 22
f 7 22 21
f 7 21 41
f 7 41 56
f 7 56 72
f 7 72 71
f 7 71 70
f 7 70 69
f 7 69 95
f 7 95 120
f 7 120 148
f 7 148 178
f 7 178 177
f 7 177 189
f 7 189 162
f 7 162 161
f 7 161 160
f 7 160 159
f 7 159 132
f 7 132 104
f 7 104 81
f 7 81 80
f 7 80 79
f 7 79 76
f 7 76 57
f 7 57 42
f 7 42 27
f 7 27 15
f 7 15 14
f 7 14 9
f 7 9 8
f 7 23 24
f 10 15 26
f 10 26 27
f 10 27 11
f 11 28 29
f 11 29 12
f 11 27 28
f 12 29 30
f 12 30 31
f 12 31 13
f 13 31 32
f 15 27 33
f 15 33 34
f 15 34 26
f 16 32 48
f 16 48 35
f 16 35 17
f 17 35 36
f 17 36 37
f 17 37 19
f 18 19 37
f 18 37 38
f 18 38 20
f 20 39 21
f 20 38 39
f 21 39 40
f 21 40 41
f 22 25 24
f 22 24 23
f 26 34 27
f 27 42 43
f 27 43 44
f 27 44 28
f 27 34 33
f 28 44 45
f 28 45 29
f 29 45 46
f 29 46 30
f 30 46 31
f 31 46 47
f 31 47 48
f 31 48 32
f 35 48 64
f 35 64 49
f 35 49 36
f 36 49 50
f 36 50 51
f 36 51 37
f 37 52 38
f 37 51 53
f 37 53 54
f 37 54 55
f 37 55 52
f 38 52 56
f 38 56 40
f 38 40 39
f 40 56 41
f 42 57 58
f 42 58 45
f 42 45 43
f 43 45 44
f 45 58 46
f 46 58 59
f 46 59 60
f 46 60 61
f 46 61 62
f 46 62 47
f 47 62 63
f 47 63 64
f 47 64 48
f 49 64 63
f 49 63 50
f 50 63 86
f 50 86 65
f 50 65 51
f 51 65 66
f 51 66 53
f 52 55 67
f 52 67 68
f 52 68 69
f 52 69 70
f 52 70 71
f 52 71 72
f 52 72 56
f 53 66 73
f 53 73 54
f 54 73 74
f 54 74 75
f 54 75 55
f 55 75 67
f 57 76 58
f 58 77 78
f 58 78 59
f 58 76 79
f 58 79 80
f 58 80 81
f 58 81 77
f 59 78 82
f 59 82 60
f 60 82 83
f 60 83 84
f 60 84 61
f 61 84 85
f 61 85 62
f 62 85 86
f 62 86 63
f 65 86 85
f 65 85 66
f 66 85 108
f 66 108 87
f 66 87 73
f 67 88 68
f 67 75 89
f 67 89 88
f 68 90 91
f 68 91 92
f 68 92 69
f 68 88 93
f 68 93 90
f 69 92 94
f 69 94 95
f 73 87 96
f 73 96 74
f 74 96 97
f 74 97 89
f 74 89 75
f 77 81 98
f 77 98 99
f 77 99 100
f 77 100 101
f 77 101 102
f 77 102 78
f 78 102 103
f 78 103 82
f 81 104 105
f 81 105 98
f 82 103 83
f 83 106 84
f 83 103 107
f 83 107 106
f 84 106 108
f 84 108 85
f 87 108 106
f 87 106 96
f 88 89 93
f 89 97 109
f 89 109 110
f 89 110 111
f 89 111 93
f 90 93 111
f 90 111 112
f 90 112 91
f 91 112 113
f 91 113 114
f 91 114 115
f 91 115 92
f 92 115 114
f 92 114 116
f 92 116 117
f 92 117 94
f 94 117 118
f 94 118 119
f 94 119 95
f 95 119 120
f 96 106 135
f 96 135 121
f 96 121 97
f 97 121 122
f 97 122 109
f 98 105 123
f 98 123 124
f 98 124 125
f 98 125 126
f 98 126 99
f 99 127 128
f 99 128 100
f 99 126 125
f 99 125 127
f 100 129 101
f 100 128 129
f 101 103 102
f 101 129 103
f 103 129 130
f 103 130 131
f 103 131 107
f 104 132 133
f 104 133 105
f 105 134 123
f 105 133 134
f 106 107 135
f 107 131 136
f 107 136 135
f 109 122 137
f 109 137 110
f 110 138 113
f 110 113 112
f 110 112 111
f 110 137 139
f 110 139 138
f 113 138 140
f 113 140 141
f 113 141 142
f 113 142 114
f 114 143 144
f 114 144 116
f 114 142 145
f 114 145 143
f 116 144 117
f 117 144 118
f 118 146 119
f 118 144 146
f 119 147 148
f 119 148 120
f 119 146 147
f 121 135 165
f 121 165 149
f 121 149 137
f 121 137 122
f 123 134 150
f 123 150 124
f 124 150 125
f 125 150 151
f 125 151 152
f 125 152 153
f 125 153 127
f 127 154 155
f 127 155 130
f 127 130 128
f 127 153 156
f 127 156 154
f 128 130 129
f 130 155 157
f 130 157 158
f 130 158 131
f 131 158 136
f 132 159 133
f 133 159 160
f 133 160 161
f 133 161 162
f 133 162 163
f 133 163 164
f 133 164 134
f 134 164 150
f 135 136 158
f 135 158 165
f 137 149 166
f 137 166 167
f 137 167 168
f 137 168 139
f 138 139 140
f 139 168 169
f 139 169 140
f 140 170 141
f 140 169 170
f 141 170 171
f 141 171 172
f 141 172 173
f 141 173 174
f 141 174 145
f 141 145 142
f 143 145 174
f 143 174 175
f 143 175 144
f 144 175 146
f 146 176 147
f 146 175 176
f 147 177 178
f 147 178 148
f 147 176 177
f 149 165 187
f 149 187 166
f 150 164 179
f 150 179 151
f 151 180 152
f 151 179 180
f 152 180 156
f 152 156 153
f 154 156 181
f 154 181 182
f 154 182 157
f 154 157 155
f 156 183 184
f 156 184 181
f 156 180 185
f 156 185 183
f 157 186 158
f 157 182 186
f 158 187 165
f 158 186 188
f 158 188 187
f 162 189 163
f 163 189 190
f 163 190 164
f 164 190 179
f 166 187 188
f 166 188 167
f 167 188 186
f 167 186 168
f 168 186 182
f 168 182 169
f 169 182 181
f 169 181 170
f 170 181 184
f 170 184 171
f 171 184 183
f 171 183 172
f 172 183 185
f 172 185 173
f 173 185 180
f 173 180 174
f 174 180 179
f 174 179 175
f 175 179 190
f 175 190 176
f 176 190 189
f 176 189 177

