# https://github.com/mikedh/trimesh
v -0.00499885 -0.13295826 -0.01014048
v -0.00499885 -0.08918554 -0.06911276
v 0.00499710 -0.13295826 -0.01014048
v -0.01295615 -0.13295826 -0.00701403
v -0.02009900 -0.09005514 -0.06010629
v -0.01497962 -0.08537997 -0.06668904
v -0.01163583 -0.08229762 -0.07090544
v -0.00499885 -0.08419180 -0.07192369
v 0.00499710 -0.08918554 -0.06911276
v -0.01552089 -0.13295826 -0.00589539
v 0.01552420 -0.13295826 -0.00589539
v -0.02390818 -0.08500113 -0.05498637
v -0.02144460 -0.08500113 -0.06171254
v -0.02083756 -0.13295826 -0.00129177
v -0.02376148 -0.13295826 0.00498981
v -0.02262834 -0.07500504 -0.06293157
v -0.01653263 -0.07500504 -0.06793675
v -0.01153466 -0.07500504 -0.07083374
v -0.00499885 -0.07500504 -0.07330047
v 0.00499710 -0.08419180 -0.07192369
v 0.01163408 -0.08229762 -0.07090544
v 0.01497786 -0.08537997 -0.06668904
v 0.02009725 -0.09005514 -0.06010629
v 0.01818001 -0.13295826 -0.00374416
v -0.02538026 -0.08500113 -0.04499034
v -0.02538026 -0.07500504 -0.05498637
v -0.02574448 -0.13295826 0.01498584
v -0.02168236 -0.06849595 -0.06174122
v -0.00222669 -0.04500815 -0.07179461
v 0.00499710 -0.07500504 -0.07330047
v 0.01153291 -0.07500504 -0.07083374
v 0.01653088 -0.07500504 -0.06793675
v 0.02263164 -0.07500504 -0.06293157
v 0.02144285 -0.08500113 -0.06171254
v 0.02390643 -0.08500113 -0.05498637
v 0.02479170 -0.13295826 0.00794416
v 0.02375973 -0.13295826 0.00498981
v 0.02177673 -0.13295826 -0.00015879
v 0.02083581 -0.13295826 -0.00129177
v -0.02584059 -0.08500113 -0.03499431
v -0.02549660 -0.07500504 -0.04499034
v -0.01554113 -0.04500815 -0.03499431
v -0.02254740 -0.06766079 -0.05498637
v -0.02584059 -0.13295826 0.02499622
v -0.00683515 -0.04500815 -0.06499674
v -0.01439787 -0.04500815 -0.04499034
v -0.01163583 -0.04500815 -0.05402549
v -0.00960730 -0.04500815 -0.05903067
v 0.00222494 -0.04500815 -0.07179461
v 0.02168061 -0.06849595 -0.06174122
v 0.02537850 -0.07500504 -0.05498637
v 0.02537850 -0.08500113 -0.04499034
v 0.02574273 -0.13295826 0.01498584
v -0.02584059 -0.08500113 0.05499865
v -0.02549660 -0.07500504 0.05499865
v -0.01555631 -0.04500815 -0.02499828
v -0.02584059 -0.13295826 0.05499865
v 0.00683340 -0.04500815 -0.06499674
v 0.00960555 -0.04500815 -0.05904502
v 0.01163408 -0.04500815 -0.05403983
v 0.01440118 -0.04500815 -0.04499034
v 0.02255070 -0.06766079 -0.05498637
v 0.01554444 -0.04500815 -0.03499431
v 0.02549485 -0.07500504 -0.04499034
v 0.02583884 -0.08500113 -0.03499431
v 0.02583884 -0.13295826 0.01795454
v -0.02291668 -0.13295826 0.06483693
v -0.02291668 -0.08500113 0.06482258
v -0.02274468 -0.07500504 0.06476521
v -0.02171271 -0.06823765 0.06313028
v -0.01480762 -0.04500815 0.06499468
v -0.01555631 -0.04500815 0.05499865
v 0.01555961 -0.04500815 -0.02499828
v 0.02549485 -0.07500504 0.05499865
v 0.02583884 -0.08500113 0.05499865
v 0.02583884 -0.13295826 0.05499865
v -0.01972465 -0.13295826 0.06984211
v -0.01969936 -0.08500113 0.06982777
v -0.01963866 -0.07500504 0.06975606
v -0.01202535 -0.04500815 0.07160611
v 0.01555961 -0.04500815 0.05498431
v 0.01480587 -0.04500815 0.06499468
v 0.02171602 -0.06823765 0.06313028
v 0.02274293 -0.07500504 0.06476521
v 0.02291493 -0.08500113 0.06482258
v 0.02291493 -0.13295826 0.06483693
v 0.02497381 -0.13295826 0.05790998
v -0.01620382 -0.13295826 0.07108982
v -0.01470139 -0.08500113 0.07160611
v -0.01464069 -0.07500504 0.07160611
v -0.00499885 -0.04500815 0.07321236
v 0.01202360 -0.04500815 0.07160611
v 0.01964197 -0.07500504 0.06975606
v 0.01970267 -0.08500113 0.06982777
v 0.01972796 -0.13295826 0.06984211
v 0.02198919 -0.13295826 0.06631410
v -0.01472668 -0.13295826 0.07160611
v 0.00499710 -0.04500815 0.07321236
v -0.00499885 -0.13295826 0.07321236
v 0.01464399 -0.07500504 0.07160611
v 0.01469964 -0.08500113 0.07160611
v 0.01472493 -0.13295826 0.07160611
v 0.00499710 -0.13295826 0.07321236
f 1 2 9
f 1 9 3
f 1 3 11
f 1 11 24
f 1 24 39
f 1 39 38
f 1 38 37
f 1 37 36
f 1 36 53
f 1 53 66
f 1 66 76
f 1 76 87
f 1 87 86
f 1 86 96
f 1 96 95
f 1 95 102
f 1 102 103
f 1 103 99
f 1 99 97
f 1 97 88
f 1 88 77
f 1 77 67
f 1 67 57
f 1 57 44
f 1 44 27
f 1 27 15
f 1 15 14
f 1 14 10
f 1 10 4
f 1 4 2
f 2 5 6
f 2 6 7
f 2 7 8
f 2 8 20
f 2 20 9
f 2 4 10
f 2 10 5
f 3 9 11
f 5 12 13
f 5 13 6
f 5 10 14
f 5 14 15
f 5 15 12
f 6 13 7
f 7 13 16
f 7 16 17
f 7 17 18
f 7 18 19
f 7 19 8
f 8 19 30
f 8 30 20
f 9 20 21
f 9 21 22
f 9 22 23
f 9 23 11
f 11 23 24
f 12 25 26
f 12 26 16
f 12 16 13
f 12 15 27
f 12 27 25
f 16 28 29
f 16 29 17
f 16 26 28
f 17 29 18
f 18 29 19
f 19 29 49
f 19 49 30
f 20 30 21
f 21 31 32
f 21 32 33
f 21 33 34
f 21 34 22
f 21 30 31
f 22 34 23
f 23 34 35
f 23 35 36
f 23 36 37
f 23 37 38
f 23 38 39
f 23 39 24
f 25 40 26
f 25 27 40
f 26 40 41
f 26 41 42
f 26 42 43
f 26 43 28
f 27 44 40
f 28 45 29
f 28 43 46
f 28 46 47
f 28 47 48
f 28 48 45
f 29 45 48
f 29 48 47
f 29 47 46
f 29 46 42
f 29 42 56
f 29 56 72
f 29 72 71
f 29 71 80
f 29 80 91
f 29 91 98
f 29 98 92
f 29 92 82
f 29 82 81
f 29 81 73
f 29 73 63
f 29 63 61
f 29 61 60
f 29 60 59
f 29 59 58
f 29 58 49
f 30 49 31
f 31 49 32
f 32 49 33
f 33 49 50
f 33 50 51
f 33 51 35
f 33 35 34
f 35 51 52
f 35 52 36
f 36 52 53
f 40 44 57
f 40 57 54
f 40 54 55
f 40 55 41
f 41 55 72
f 41 72 56
f 41 56 42
f 42 46 43
f 49 58 50
f 50 58 59
f 50 59 60
f 50 60 61
f 50 61 62
f 50 62 51
f 51 62 63
f 51 63 64
f 51 64 65
f 51 65 52
f 52 65 53
f 53 65 66
f 54 57 67
f 54 67 68
f 54 68 69
f 54 69 55
f 55 69 70
f 55 70 71
f 55 71 72
f 61 63 62
f 63 73 64
f 64 73 81
f 64 81 74
f 64 74 75
f 64 75 65
f 65 75 76
f 65 76 66
f 67 77 68
f 68 77 78
f 68 78 79
f 68 79 69
f 69 79 80
f 69 80 70
f 70 80 71
f 74 81 82
f 74 82 83
f 74 83 84
f 74 84 75
f 75 84 85
f 75 85 86
f 75 86 87
f 75 87 76
f 77 88 89
f 77 89 78
f 78 89 90
f 78 90 79
f 79 90 80
f 80 90 91
f 82 92 83
f 83 92 84
f 84 92 93
f 84 93 85
f 85 93 94
f 85 94 95
f 85 95 96
f 85 96 86
f 88 97 89
f 89 97 91
f 89 91 90
f 91 97 99
f 91 99 103
f 91 103 98
f 92 98 100
f 92 100 93
f 93 100 94
f 94 100 101
f 94 101 95
f 95 101 102
f 98 103 102
f 98 102 101
f 98 101 100

