# https://github.com/mikedh/trimesh
v -0.00499885 -0.18082711 -0.00294060
v 0.00499710 -0.18082711 -0.00294060
v -0.01094785 -0.18082711 -0.00120281
v -0.00499885 -0.10295828 -0.01013654
v 0.00499710 -0.10295828 -0.01012839
v 0.01155314 -0.18082711 -0.00100700
v -0.01154983 -0.18082711 -0.00100700
v -0.01295615 -0.10295828 -0.00700362
v 0.01552420 -0.10295828 -0.00588588
v 0.01711263 -0.18082711 0.00512016
v 0.01818001 -0.10295828 -0.00372383
v 0.02083581 -0.10295828 -0.00128439
v -0.02083756 -0.10295828 -0.00128439
v -0.01552089 -0.10295828 -0.00588588
v -0.01710932 -0.18082711 0.00512016
v 0.02177673 -0.10295828 -0.00015034
v 0.02162497 -0.15499279 0.00799201
v 0.02112922 -0.16296645 0.00853048
v 0.02126074 -0.18082711 0.01501662
v -0.02162672 -0.15499279 0.00799201
v -0.02376148 -0.10295828 0.00502225
v -0.02054922 -0.18082711 0.01136154
v -0.02112591 -0.16296645 0.00853048
v 0.02375973 -0.10295828 0.00502225
v 0.02479170 -0.10295828 0.00797569
v 0.02552015 -0.12501158 0.01501662
v 0.02368385 -0.15499279 0.01501662
v 0.02411384 -0.15499279 0.02501914
v 0.02129109 -0.18082711 0.02222888
v -0.02368560 -0.15499279 0.01501662
v -0.02552190 -0.12501158 0.01501662
v -0.02574448 -0.10295828 0.01501662
v -0.02126249 -0.18082711 0.01501662
v 0.02574273 -0.10295828 0.01501662
v 0.02583884 -0.10295828 0.01797006
v 0.02583884 -0.12501158 0.02501914
v 0.02565167 -0.13500533 0.02501914
v 0.02498393 -0.14499143 0.02501914
v 0.02411889 -0.15499279 0.03498903
v 0.02411889 -0.15499279 0.04498339
v 0.02411384 -0.15499279 0.05497775
v 0.02112416 -0.18082711 0.05497775
v -0.02411559 -0.15499279 0.02501914
v -0.02498568 -0.14499143 0.02501914
v -0.02565342 -0.13500533 0.02501914
v -0.02584059 -0.12501158 0.02501914
v -0.02584059 -0.10295828 0.02501914
v -0.02125743 -0.18082711 0.02501914
v -0.02411559 -0.15499279 0.05497775
v 0.02583884 -0.10295828 0.05497775
v 0.02583884 -0.12501158 0.05497775
v 0.02565167 -0.13500533 0.05497775
v 0.02498393 -0.14499143 0.05497775
v 0.02205495 -0.15499279 0.06456418
v 0.02046653 -0.18082711 0.05914683
v -0.02498568 -0.14499143 0.05497775
v -0.02565342 -0.13500533 0.05497775
v -0.02584059 -0.12501158 0.05497775
v -0.02584059 -0.10295828 0.05497775
v -0.02112591 -0.18082711 0.05497775
v -0.02205165 -0.15499279 0.06456418
v 0.02497381 -0.10295828 0.05790672
v 0.02291493 -0.12501158 0.06486605
v 0.02228259 -0.13505869 0.06595115
v 0.02201448 -0.14439684 0.06585325
v 0.01942444 -0.15499279 0.06956545
v 0.01826095 -0.18082711 0.06576350
v -0.02201118 -0.14440447 0.06585325
v -0.02228435 -0.13505106 0.06595115
v -0.02291668 -0.12501158 0.06486605
v -0.02291668 -0.10295828 0.06483342
v -0.01826270 -0.18082711 0.06576350
v -0.01942619 -0.15499279 0.06956545
v 0.02291493 -0.10295828 0.06482527
v 0.02003148 -0.13842042 0.07000601
v 0.02003148 -0.14068444 0.07000601
v 0.01816989 -0.18082711 0.06587773
v 0.01297969 -0.18082711 0.07123797
v -0.02003323 -0.14068444 0.07000601
v -0.02003323 -0.13841279 0.07000601
v -0.01972465 -0.10295828 0.06982653
v -0.01298144 -0.18082711 0.07123797
v 0.02198919 -0.10295828 0.06631830
v 0.01972796 -0.10295828 0.06982653
v 0.01472493 -0.10295828 0.07158880
v 0.01594407 -0.13505869 0.07127877
v 0.01582772 -0.14439684 0.07127877
v 0.01442647 -0.15499279 0.07146642
v 0.01238276 -0.18082711 0.07136035
v -0.01442822 -0.15499279 0.07146642
v -0.01582441 -0.14440447 0.07127877
v -0.01594582 -0.13505106 0.07127877
v -0.01472668 -0.10295828 0.07158880
v -0.01620382 -0.10295828 0.07108296
v -0.00499885 -0.18082711 0.07282891
v 0.00499710 -0.10295828 0.07321237
v 0.01478564 -0.12501158 0.07158880
v 0.00499710 -0.14499143 0.07321237
v 0.00499710 -0.18082711 0.07282891
v -0.00499885 -0.14499143 0.07321237
v -0.01478739 -0.12501158 0.07158880
v -0.00499885 -0.10295828 0.07321237
f 1 2 6
f 1 6 10
f 1 10 19
f 1 19 29
f 1 29 42
f 1 42 55
f 1 55 67
f 1 67 77
f 1 77 78
f 1 78 89
f 1 89 99
f 1 99 95
f 1 95 82
f 1 82 72
f 1 72 60
f 1 60 48
f 1 48 33
f 1 33 22
f 1 22 15
f 1 15 7
f 1 7 3
f 1 3 4
f 1 4 2
f 2 4 5
f 2 5 6
f 3 7 4
f 4 7 8
f 4 8 14
f 4 14 13
f 4 13 21
f 4 21 32
f 4 32 47
f 4 47 59
f 4 59 71
f 4 71 81
f 4 81 94
f 4 94 93
f 4 93 102
f 4 102 96
f 4 96 85
f 4 85 84
f 4 84 83
f 4 83 74
f 4 74 62
f 4 62 50
f 4 50 35
f 4 35 34
f 4 34 25
f 4 25 24
f 4 24 16
f 4 16 12
f 4 12 11
f 4 11 9
f 4 9 5
f 5 9 6
f 6 9 11
f 6 11 12
f 6 12 10
f 7 13 14
f 7 14 8
f 7 15 13
f 10 12 16
f 10 16 17
f 10 17 18
f 10 18 19
f 13 15 20
f 13 20 21
f 15 22 23
f 15 23 20
f 16 24 17
f 17 25 26
f 17 26 27
f 17 27 18
f 17 24 25
f 18 27 19
f 19 27 28
f 19 28 29
f 20 23 22
f 20 22 30
f 20 30 31
f 20 31 21
f 21 31 32
f 22 33 30
f 25 34 26
f 26 34 35
f 26 35 36
f 26 36 37
f 26 37 27
f 27 37 38
f 27 38 28
f 28 38 39
f 28 39 29
f 29 39 40
f 29 40 41
f 29 41 42
f 30 43 44
f 30 44 45
f 30 45 31
f 30 33 43
f 31 45 46
f 31 46 32
f 32 46 47
f 33 48 49
f 33 49 43
f 35 50 51
f 35 51 36
f 36 51 52
f 36 52 37
f 37 52 53
f 37 53 38
f 38 53 40
f 38 40 39
f 40 53 41
f 41 53 54
f 41 54 55
f 41 55 42
f 43 49 56
f 43 56 44
f 44 56 57
f 44 57 45
f 45 57 58
f 45 58 46
f 46 58 59
f 46 59 47
f 48 60 49
f 49 60 61
f 49 61 56
f 50 62 51
f 51 62 63
f 51 63 52
f 52 63 64
f 52 64 65
f 52 65 54
f 52 54 53
f 54 65 66
f 54 66 67
f 54 67 55
f 56 61 57
f 57 61 68
f 57 68 69
f 57 69 70
f 57 70 58
f 58 70 59
f 59 70 71
f 60 72 61
f 61 72 73
f 61 73 68
f 62 74 63
f 63 74 75
f 63 75 76
f 63 76 64
f 64 76 65
f 65 76 66
f 66 77 67
f 66 76 78
f 66 78 77
f 68 73 79
f 68 79 69
f 69 79 70
f 70 79 80
f 70 80 71
f 71 80 81
f 72 82 73
f 73 82 79
f 74 83 75
f 75 83 84
f 75 84 85
f 75 85 86
f 75 86 76
f 76 86 87
f 76 87 88
f 76 88 78
f 78 88 89
f 79 82 90
f 79 90 91
f 79 91 92
f 79 92 80
f 80 92 93
f 80 93 94
f 80 94 81
f 82 95 90
f 85 96 97
f 85 97 86
f 86 97 87
f 87 97 88
f 88 97 98
f 88 98 99
f 88 99 89
f 90 95 100
f 90 100 101
f 90 101 91
f 91 101 92
f 92 101 93
f 93 101 102
f 95 99 98
f 95 98 100
f 96 102 100
f 96 100 98
f 96 98 97
f 100 102 101

