# https://github.com/mikedh/trimesh
v 0.00499521 -0.21503669 0.07351115
v 0.00499521 -0.20504940 0.07349423
v -0.00499521 -0.21503669 0.07351115
v 0.00499521 -0.42224646 0.07345191
v 0.01499799 -0.30497545 0.07294422
v 0.01499799 -0.28502741 0.07294422
v 0.00499521 -0.19500898 0.07343499
v -0.00499521 -0.20504940 0.07349423
v -0.01499799 -0.28502741 0.07294422
v -0.01499799 -0.30497545 0.07294422
v -0.00499521 -0.42224646 0.07345191
v 0.01201200 -0.42224646 0.07221652
v 0.01499799 -0.31496274 0.07289345
v 0.02176749 -0.30497545 0.07126036
v 0.02175513 -0.28502741 0.07125190
v 0.01499799 -0.27504012 0.07281730
v 0.02176749 -0.29493502 0.07126036
v 0.00499521 -0.15088958 0.07283422
v -0.00499521 -0.19500898 0.07343499
v -0.01499799 -0.27504012 0.07281730
v -0.02175513 -0.28502741 0.07125190
v -0.02176749 -0.29493502 0.07126036
v -0.02176749 -0.30497545 0.07126036
v -0.01499799 -0.31496274 0.07289345
v -0.01405212 -0.42224646 0.07185267
v 0.01405212 -0.42224646 0.07185267
v 0.02163148 -0.31496274 0.07115881
v 0.02592193 -0.30497545 0.06499030
v 0.02592193 -0.29493502 0.06499030
v 0.02589720 -0.28502741 0.06499030
v 0.02151402 -0.27504012 0.07109959
v 0.01298260 -0.15088958 0.07124344
v 0.01238293 -0.15088958 0.07137882
v -0.00499521 -0.15088958 0.07283422
v -0.01298260 -0.15088958 0.07124344
v -0.02589720 -0.28502741 0.06499030
v -0.02592193 -0.29493502 0.06499030
v -0.02151402 -0.27504012 0.07109959
v -0.02592193 -0.30497545 0.06499030
v -0.02163148 -0.31496274 0.07115881
v -0.01908442 -0.42224646 0.06609032
v -0.02122346 -0.32495004 0.07091343
v 0.01792835 -0.42224646 0.06771494
v 0.02566846 -0.31496274 0.06499030
v 0.01908442 -0.42224646 0.06609032
v 0.02804242 -0.31496274 0.05499715
v 0.02827734 -0.30497545 0.05499715
v 0.02827734 -0.29493502 0.05499715
v 0.02825261 -0.28502741 0.05499715
v 0.02779513 -0.27504012 0.05499715
v 0.02543353 -0.27504012 0.06499030
v 0.01817564 -0.15088958 0.06588724
v -0.01824983 -0.15088958 0.06576031
v -0.02825261 -0.28502741 0.05499715
v -0.02543353 -0.27504012 0.06499030
v -0.02779513 -0.27504012 0.05499715
v -0.02827734 -0.29493502 0.05499715
v -0.02827734 -0.30497545 0.05499715
v -0.02804242 -0.31496274 0.05499715
v -0.02566846 -0.31496274 0.06499030
v -0.02014776 -0.42224646 0.06135181
v 0.01997466 -0.42224646 0.06216413
v 0.03132516 -0.31496274 0.00500596
v 0.03157863 -0.30497545 0.00500596
v 0.02014776 -0.42224646 0.06135181
v 0.03157863 -0.29493502 0.00500596
v 0.03154154 -0.28502741 0.00500596
v 0.03062657 -0.26502627 0.00317825
v 0.02111836 -0.15088958 0.05499715
v 0.02046923 -0.15088958 0.05916872
v 0.01824983 -0.15088958 0.06576031
v -0.02111836 -0.15088958 0.05499715
v -0.03154154 -0.28502741 0.00500596
v -0.03157863 -0.29493502 0.00500596
v -0.03062657 -0.26502627 0.00317825
v -0.03157863 -0.30497545 0.00500596
v -0.03132516 -0.31496274 0.00500596
v -0.02030850 -0.42224646 0.05499715
v -0.03031128 -0.33270612 0.00158747
v 0.03031128 -0.33270612 0.00158747
v 0.03031128 -0.33270612 -0.00052793
v 0.03075022 -0.32495004 -0.00119640
v 0.03114588 -0.31496274 -0.00173794
v 0.03128188 -0.30497545 -0.00188179
v 0.02027759 -0.42224646 0.05679947
v 0.03128188 -0.29493502 -0.00188179
v 0.03126952 -0.28502741 -0.00186487
v 0.03103460 -0.27504012 -0.00156871
v 0.03062657 -0.26502627 -0.00098486
v 0.03027419 -0.25673896 -0.00045178
v 0.03027419 -0.25673896 0.00141824
v 0.02127910 -0.15088958 0.02223380
v -0.02126055 -0.15088958 0.02500074
v -0.03027419 -0.25673896 0.00141824
v -0.03126952 -0.28502741 -0.00186487
v -0.03027419 -0.25673896 -0.00045178
v -0.03062657 -0.26502627 -0.00098486
v -0.03103460 -0.27504012 -0.00156871
v -0.03128188 -0.29493502 -0.00188179
v -0.03128188 -0.30497545 -0.00188179
v -0.03114588 -0.31496274 -0.00173794
v -0.03075022 -0.32495004 -0.00119640
v -0.03031128 -0.33270612 -0.00052793
v -0.02036414 -0.42224646 0.04275320
v -0.02038886 -0.42224646 0.01500758
v -0.02038268 -0.42224646 0.03498544
v 0.02030850 -0.42224646 0.05499715
v 0.02038268 -0.42224646 0.03498544
v 0.02038886 -0.42224646 0.01724991
v 0.02038886 -0.42224646 0.01500758
v 0.02020340 -0.42224646 0.00754444
v 0.01933171 -0.42224646 0.00277210
v 0.01457142 -0.42224646 -0.00346411
v 0.02498223 -0.32495004 -0.00586721
v 0.02450002 -0.34495118 -0.00423412
v 0.01774289 -0.35493848 -0.00876954
v 0.02498223 -0.31496274 -0.00650183
v 0.02498223 -0.30497545 -0.00667106
v 0.02498223 -0.29493502 -0.00665414
v 0.02498223 -0.28502741 -0.00661183
v 0.02498223 -0.27504012 -0.00618875
v 0.02498223 -0.26502627 -0.00541028
v 0.02599611 -0.25405619 -0.00364180
v 0.02453711 -0.24502513 -0.00393796
v 0.02368397 -0.23503783 -0.00353180
v 0.02293593 -0.22502398 -0.00290564
v 0.02224352 -0.21503669 -0.00207641
v 0.02135329 -0.20504940 -0.00117948
v 0.01709994 -0.15088958 0.00510750
v 0.02126674 -0.15088958 0.01500758
v -0.02126674 -0.15088958 0.01500758
v -0.02498223 -0.28502741 -0.00661183
v -0.02498223 -0.29493502 -0.00665414
v -0.02498223 -0.27504012 -0.00618875
v -0.02053724 -0.15088958 0.01134371
v -0.01709994 -0.15088958 0.00510750
v -0.02135329 -0.20504940 -0.00117948
v -0.02224352 -0.21503669 -0.00207641
v -0.02293593 -0.22502398 -0.00290564
v -0.02368397 -0.23503783 -0.00353180
v -0.02453711 -0.24502513 -0.00393796
v -0.02599611 -0.25405619 -0.00364180
v -0.02498223 -0.26502627 -0.00541028
v -0.02498223 -0.30497545 -0.00667106
v -0.02498223 -0.31496274 -0.00650183
v -0.02498223 -0.32495004 -0.00586721
v -0.01774289 -0.35493848 -0.00876954
v -0.02450002 -0.34495118 -0.00423412
v -0.01457142 -0.42224646 -0.00346411
v -0.01828692 -0.42224646 0.00105439
v -0.01933171 -0.42224646 0.00277210
v -0.02003648 -0.42224646 0.00612289
v -0.02020340 -0.42224646 0.00754444
v -0.02035795 -0.42224646 0.01279064
v 0.00774628 -0.42224646 -0.00597721
v 0.01171525 -0.36495233 -0.01082571
v 0.01835492 -0.34495118 -0.00924339
v 0.01275386 -0.35493848 -0.01122341
v 0.01880622 -0.33493733 -0.00950570
v 0.01915243 -0.32495004 -0.00967493
v 0.01934407 -0.31496274 -0.00975955
v 0.01938735 -0.30497545 -0.00977647
v 0.01934407 -0.29493502 -0.00977647
v 0.01925134 -0.28502741 -0.00973416
v 0.01897314 -0.27504012 -0.00960724
v 0.01811382 -0.25503898 -0.00920108
v 0.01755742 -0.24502513 -0.00894723
v 0.01672901 -0.23503783 -0.00854107
v 0.01154215 -0.15088958 -0.00102717
v -0.01925134 -0.28502741 -0.00973416
v -0.01934407 -0.29493502 -0.00977647
v -0.01897314 -0.27504012 -0.00960724
v -0.01938735 -0.30497545 -0.00977647
v -0.01755742 -0.24502513 -0.00894723
v -0.01811382 -0.25503898 -0.00920108
v -0.01154215 -0.15088958 -0.00102717
v -0.01672901 -0.23503783 -0.00854107
v -0.01934407 -0.31496274 -0.00975955
v -0.01915243 -0.32495004 -0.00967493
v -0.01880622 -0.33493733 -0.00950570
v -0.01835492 -0.34495118 -0.00924339
v -0.01275386 -0.35493848 -0.01122341
v -0.01171525 -0.36495233 -0.01082571
v -0.00499521 -0.42224646 -0.00697568
v 0.00499521 -0.42224646 -0.00697568
v 0.00499521 -0.36495233 -0.01228110
v 0.00499521 -0.35493848 -0.01284803
v 0.01335353 -0.34495118 -0.01135879
v 0.01380483 -0.33493733 -0.01140110
v 0.01413867 -0.32495004 -0.01142648
v 0.01434268 -0.31496274 -0.01142648
v 0.01439832 -0.30497545 -0.01140110
v 0.01435505 -0.29493502 -0.01138417
v 0.01426231 -0.28502741 -0.01135879
v 0.01396557 -0.27504012 -0.01134187
v 0.01353282 -0.26502627 -0.01131648
v 0.01313097 -0.25503898 -0.01123187
v 0.01255603 -0.24502513 -0.01103725
v 0.01171525 -0.23503783 -0.01074109
v 0.01082502 -0.22741455 -0.01037724
v 0.00499521 -0.15088958 -0.00295641
v -0.01353282 -0.26502627 -0.01131648
v -0.01396557 -0.27504012 -0.01134187
v -0.01426231 -0.28502741 -0.01135879
v -0.01435505 -0.29493502 -0.01138417
v -0.01439832 -0.30497545 -0.01140110
v -0.01313097 -0.25503898 -0.01123187
v -0.01434268 -0.31496274 -0.01142648
v -0.01171525 -0.23503783 -0.01074109
v -0.01255603 -0.24502513 -0.01103725
v -0.01094866 -0.15088958 -0.00120486
v -0.01082502 -0.22741455 -0.01037724
v -0.01413867 -0.32495004 -0.01142648
v -0.01380483 -0.33493733 -0.01140110
v -0.01335353 -0.34495118 -0.01135879
v -0.00499521 -0.35493848 -0.01284803
v -0.00499521 -0.36495233 -0.01228110
v 0.00499521 -0.34495118 -0.01292419
v 0.00499521 -0.33493733 -0.01293265
v 0.00499521 -0.32495004 -0.01291573
v 0.00499521 -0.31496274 -0.01287342
v 0.00499521 -0.26502627 -0.01264495
v 0.00499521 -0.25503898 -0.01255188
v 0.00499521 -0.24502513 -0.01235726
v 0.00499521 -0.23503783 -0.01204418
v 0.00559488 -0.22446617 -0.01097802
v -0.00499521 -0.15088958 -0.00295641
v 0.00267689 -0.21761319 -0.01039417
v -0.00499521 -0.25503898 -0.01255188
v -0.00499521 -0.26502627 -0.01264495
v -0.00499521 -0.31496274 -0.01287342
v -0.00499521 -0.32495004 -0.01291573
v -0.00499521 -0.33493733 -0.01293265
v -0.00499521 -0.24502513 -0.01235726
v -0.00499521 -0.34495118 -0.01292419
v -0.00499521 -0.23503783 -0.01204418
v -0.00559488 -0.22446617 -0.01097802
v -0.00267689 -0.21761319 -0.01039417
f 1 2 8
f 1 8 3
f 1 3 11
f 1 11 4
f 1 4 5
f 1 5 6
f 1 6 2
f 2 7 19
f 2 19 8
f 2 6 7
f 3 8 9
f 3 9 10
f 3 10 11
f 4 11 25
f 4 25 41
f 4 41 61
f 4 61 78
f 4 78 104
f 4 104 106
f 4 106 105
f 4 105 154
f 4 154 153
f 4 153 152
f 4 152 151
f 4 151 150
f 4 150 149
f 4 149 184
f 4 184 185
f 4 185 155
f 4 155 113
f 4 113 112
f 4 112 111
f 4 111 110
f 4 110 109
f 4 109 108
f 4 108 107
f 4 107 85
f 4 85 65
f 4 65 62
f 4 62 45
f 4 45 43
f 4 43 26
f 4 26 12
f 4 12 13
f 4 13 5
f 5 13 14
f 5 14 17
f 5 17 6
f 6 15 16
f 6 16 7
f 6 17 15
f 7 18 34
f 7 34 19
f 7 16 18
f 8 19 9
f 9 19 20
f 9 20 21
f 9 21 22
f 9 22 23
f 9 23 10
f 10 23 24
f 10 24 11
f 11 24 25
f 12 26 13
f 13 26 14
f 14 26 27
f 14 27 28
f 14 28 29
f 14 29 17
f 15 17 29
f 15 29 30
f 15 30 31
f 15 31 32
f 15 32 16
f 16 32 33
f 16 33 18
f 18 33 32
f 18 32 52
f 18 52 71
f 18 71 70
f 18 70 69
f 18 69 92
f 18 92 130
f 18 130 129
f 18 129 169
f 18 169 201
f 18 201 227
f 18 227 211
f 18 211 176
f 18 176 136
f 18 136 135
f 18 135 131
f 18 131 93
f 18 93 72
f 18 72 53
f 18 53 35
f 18 35 34
f 19 34 20
f 20 34 35
f 20 35 21
f 21 36 37
f 21 37 22
f 21 35 38
f 21 38 36
f 22 37 39
f 22 39 23
f 23 39 40
f 23 40 25
f 23 25 24
f 25 40 42
f 25 42 41
f 26 43 27
f 27 44 28
f 27 43 45
f 27 45 44
f 28 44 46
f 28 46 47
f 28 47 48
f 28 48 29
f 29 48 49
f 29 49 30
f 30 49 50
f 30 50 51
f 30 51 31
f 31 51 52
f 31 52 32
f 35 53 38
f 36 54 57
f 36 57 37
f 36 38 55
f 36 55 56
f 36 56 54
f 37 57 58
f 37 58 39
f 38 53 55
f 39 58 59
f 39 59 60
f 39 60 40
f 40 60 41
f 40 41 42
f 41 60 59
f 41 59 61
f 44 45 46
f 45 62 46
f 46 63 64
f 46 64 47
f 46 62 65
f 46 65 63
f 47 64 66
f 47 66 48
f 48 66 49
f 49 66 67
f 49 67 50
f 50 67 68
f 50 68 69
f 50 69 70
f 50 70 51
f 51 70 71
f 51 71 52
f 53 72 55
f 54 73 74
f 54 74 57
f 54 56 73
f 55 72 56
f 56 75 73
f 56 72 75
f 57 74 76
f 57 76 58
f 58 76 59
f 59 76 77
f 59 77 61
f 61 77 79
f 61 79 78
f 63 65 80
f 63 80 81
f 63 81 82
f 63 82 83
f 63 83 64
f 64 83 84
f 64 84 86
f 64 86 66
f 65 85 80
f 66 86 87
f 66 87 67
f 67 87 88
f 67 88 89
f 67 89 90
f 67 90 91
f 67 91 68
f 68 91 69
f 69 91 92
f 72 93 94
f 72 94 75
f 73 95 74
f 73 75 94
f 73 94 96
f 73 96 97
f 73 97 98
f 73 98 95
f 74 99 100
f 74 100 76
f 74 95 99
f 76 100 101
f 76 101 77
f 77 101 102
f 77 102 103
f 77 103 79
f 78 79 104
f 79 103 105
f 79 105 106
f 79 106 104
f 80 85 107
f 80 107 108
f 80 108 109
f 80 109 110
f 80 110 81
f 81 110 111
f 81 111 112
f 81 112 113
f 81 113 82
f 82 114 83
f 82 113 115
f 82 115 116
f 82 116 114
f 83 114 117
f 83 117 84
f 84 117 118
f 84 118 86
f 86 118 119
f 86 119 87
f 87 119 120
f 87 120 121
f 87 121 88
f 88 121 122
f 88 122 123
f 88 123 89
f 89 123 124
f 89 124 90
f 90 124 125
f 90 125 126
f 90 126 127
f 90 127 128
f 90 128 129
f 90 129 130
f 90 130 92
f 90 92 91
f 93 131 94
f 94 131 96
f 95 132 133
f 95 133 99
f 95 98 134
f 95 134 132
f 96 131 135
f 96 135 136
f 96 136 137
f 96 137 138
f 96 138 139
f 96 139 140
f 96 140 141
f 96 141 97
f 97 141 142
f 97 142 98
f 98 142 143
f 98 143 134
f 99 133 144
f 99 144 100
f 100 144 145
f 100 145 101
f 101 145 146
f 101 146 102
f 102 146 147
f 102 147 148
f 102 148 149
f 102 149 103
f 103 149 150
f 103 150 151
f 103 151 152
f 103 152 153
f 103 153 154
f 103 154 105
f 113 155 156
f 113 156 116
f 113 116 115
f 114 116 157
f 114 157 117
f 116 156 158
f 116 158 157
f 117 157 159
f 117 159 160
f 117 160 161
f 117 161 118
f 118 161 162
f 118 162 119
f 119 162 163
f 119 163 120
f 120 163 164
f 120 164 165
f 120 165 121
f 121 165 166
f 121 166 167
f 121 167 122
f 122 167 124
f 122 124 123
f 124 168 125
f 124 167 168
f 125 168 126
f 126 168 127
f 127 168 169
f 127 169 128
f 128 169 129
f 132 170 171
f 132 171 133
f 132 134 172
f 132 172 170
f 133 171 173
f 133 173 144
f 134 143 174
f 134 174 175
f 134 175 172
f 136 176 137
f 137 176 138
f 138 176 177
f 138 177 139
f 139 177 140
f 140 177 141
f 141 174 143
f 141 143 142
f 141 177 174
f 144 173 178
f 144 178 145
f 145 178 179
f 145 179 180
f 145 180 181
f 145 181 146
f 146 181 147
f 147 181 182
f 147 182 183
f 147 183 149
f 147 149 148
f 149 183 184
f 155 185 156
f 156 186 158
f 156 185 186
f 157 158 159
f 158 186 187
f 158 187 188
f 158 188 159
f 159 188 160
f 160 188 189
f 160 189 161
f 161 189 190
f 161 190 191
f 161 191 162
f 162 192 163
f 162 191 192
f 163 193 194
f 163 194 164
f 163 192 193
f 164 195 196
f 164 196 165
f 164 194 195
f 165 196 197
f 165 197 166
f 166 197 198
f 166 198 167
f 167 198 199
f 167 199 168
f 168 199 200
f 168 200 169
f 169 200 201
f 170 172 202
f 170 202 203
f 170 203 204
f 170 204 171
f 171 204 205
f 171 205 206
f 171 206 173
f 172 175 207
f 172 207 202
f 173 206 208
f 173 208 178
f 174 177 209
f 174 209 210
f 174 210 175
f 175 210 207
f 176 211 212
f 176 212 177
f 177 212 209
f 178 208 213
f 178 213 214
f 178 214 179
f 179 214 215
f 179 215 180
f 180 215 182
f 180 182 181
f 182 216 217
f 182 217 183
f 182 215 216
f 183 217 184
f 184 217 186
f 184 186 185
f 186 217 216
f 186 216 187
f 187 216 235
f 187 235 218
f 187 218 190
f 187 190 189
f 187 189 188
f 190 218 191
f 191 218 219
f 191 219 192
f 192 219 220
f 192 220 193
f 193 220 194
f 194 220 221
f 194 221 222
f 194 222 195
f 195 222 196
f 196 222 223
f 196 223 197
f 197 223 224
f 197 224 198
f 198 224 225
f 198 225 199
f 199 225 200
f 200 225 226
f 200 226 201
f 201 226 228
f 201 228 238
f 201 238 227
f 202 207 229
f 202 229 230
f 202 230 203
f 203 230 204
f 204 231 232
f 204 232 205
f 204 230 231
f 205 232 206
f 206 232 233
f 206 233 208
f 207 210 234
f 207 234 229
f 208 233 235
f 208 235 213
f 209 212 236
f 209 236 210
f 210 236 234
f 211 227 212
f 212 237 236
f 212 227 237
f 213 235 216
f 213 216 214
f 214 216 215
f 218 235 233
f 218 233 219
f 219 233 232
f 219 232 220
f 220 232 231
f 220 231 221
f 221 231 230
f 221 230 222
f 222 230 229
f 222 229 223
f 223 229 234
f 223 234 224
f 224 234 236
f 224 236 225
f 225 236 238
f 225 238 228
f 225 228 226
f 227 238 237
f 236 237 238

