# https://github.com/mikedh/trimesh
v 0.00499982 0.12503225 0.07319817
v 0.01202882 0.12503225 0.07159415
v 0.01201054 0.13503368 0.07157995
v 0.00499982 0.13503368 0.07316978
v -0.00499982 0.12503225 0.07319817
v 0.00499982 -0.04493894 0.07319817
v 0.01203187 -0.04493894 0.07159415
v 0.01481056 0.12503225 0.06499352
v 0.01479228 0.13503368 0.06499352
v 0.01472525 0.14503513 0.06499352
v 0.01194655 0.14503513 0.07150897
v 0.00499982 0.14503513 0.07302783
v -0.00499982 0.13503368 0.07316978
v 0.01173937 0.16503803 0.07129605
v 0.01138594 0.19504239 0.07096957
v 0.01112392 0.21504529 0.07075664
v -0.01201054 0.13503368 0.07157995
v -0.01202882 0.12503225 0.07159415
v -0.00499982 -0.04493894 0.07319817
v 0.01481056 -0.04493894 0.06497932
v 0.01481056 -0.03499095 0.06499352
v 0.01556007 0.30495137 0.05498611
v 0.01552656 0.31495279 0.05498611
v 0.01462470 0.15503658 0.06499352
v 0.01452111 0.16503803 0.06499352
v 0.01440838 0.17503949 0.06499352
v 0.01428955 0.18504094 0.06499352
v 0.01416768 0.19504239 0.06499352
v 0.01403971 0.20504384 0.06499352
v 0.01390261 0.21504529 0.06499352
v 0.00499982 0.16503803 0.07264457
v -0.00499982 0.14503513 0.07302783
v 0.01092282 0.22504672 0.07060050
v -0.01173937 0.16503803 0.07129605
v -0.01194655 0.14503513 0.07150897
v -0.01112392 0.21504529 0.07075664
v -0.01138594 0.19504239 0.07096957
v 0.01162664 0.17503949 0.07118250
v 0.01151086 0.18504094 0.07106894
v 0.01370457 0.22504672 0.06499352
v 0.01274482 0.31495279 0.06294945
v -0.01479228 0.13503368 0.06499352
v -0.01472525 0.14503513 0.06499352
v -0.01481056 0.12503225 0.06499352
v -0.01202882 -0.04493894 0.07159415
v 0.01556007 -0.04493894 0.05498611
v 0.01556007 0.34495717 0.04499291
v 0.01531938 0.35495859 0.04499291
v 0.01524016 0.32495427 0.05498611
v -0.00499982 0.16503803 0.07264457
v 0.00499982 0.21504529 0.07165092
v -0.01092282 0.22504672 0.07060050
v 0.01059986 0.23499469 0.07037339
v -0.01162664 0.17503949 0.07118250
v -0.01390261 0.21504529 0.06499352
v -0.01403971 0.20504384 0.06499352
v -0.01416768 0.19504239 0.06499352
v -0.01428955 0.18504094 0.06499352
v -0.01440838 0.17503949 0.06499352
v -0.01452111 0.16503803 0.06499352
v -0.01462470 0.15503658 0.06499352
v -0.01274482 0.31495279 0.06294945
v -0.01370457 0.22504672 0.06499352
v -0.01151086 0.18504094 0.07106894
v 0.01246147 0.32495427 0.06228229
v 0.00991128 0.24986316 0.06999012
v 0.01027081 0.24323118 0.07016046
v -0.01552656 0.31495279 0.05498611
v -0.01556007 0.30495137 0.05498611
v -0.01481056 -0.04493894 0.06499352
v 0.01556007 -0.04493894 -0.02500215
v 0.01556007 0.34495717 -0.00498734
v 0.01545953 0.35495859 -0.00498734
v 0.01489587 0.36496007 -0.00498734
v 0.01473439 0.36496007 0.04499291
v 0.01461252 0.33495569 0.05498611
v -0.00499982 0.21504529 0.07165092
v 0.00499982 0.22504672 0.07136703
v -0.01059986 0.23499469 0.07037339
v -0.01246147 0.32495427 0.06228229
v -0.01524016 0.32495427 0.05498611
v -0.01027081 0.24323118 0.07016046
v -0.00991128 0.24986316 0.06999012
v 0.01183078 0.33495569 0.06145899
v 0.00499982 0.31495279 0.06655496
v 0.01115743 0.39496440 0.05130963
v 0.00499982 0.30495137 0.06734987
v 0.00037171 0.26050642 0.07001851
v 0.00499982 0.23499469 0.07095537
v -0.01531938 0.35495859 0.04499291
v -0.01556007 0.34495717 0.04499291
v -0.01556007 -0.04493894 0.05498611
v 0.01554789 -0.04493894 -0.03499535
v 0.01556007 -0.03499095 -0.03499535
v 0.01556007 0.29494992 -0.01499474
v 0.01552047 0.30495137 -0.01499474
v 0.01412198 0.35495859 -0.01499474
v 0.01538641 0.31495279 -0.01499474
v 0.01516399 0.32495427 -0.01499474
v 0.01488673 0.33495569 -0.01499474
v 0.01456681 0.34495717 -0.01499474
v 0.01395136 0.37496150 -0.00498734
v 0.00595043 0.48497742 0.02499229
v 0.00973152 0.43636078 0.03499969
v 0.01010019 0.43149376 0.04032278
v 0.01403971 0.37496150 0.04499291
v 0.01323536 0.36496007 -0.01499474
v -0.00499982 0.22504672 0.07136703
v -0.01461252 0.33495569 0.05498611
v -0.00499982 0.31495279 0.06655496
v -0.01183078 0.33495569 0.06145899
v -0.01115743 0.39496440 0.05130963
v -0.01473439 0.36496007 0.04499291
v -0.00499982 0.23499469 0.07095537
v -0.00037171 0.26050642 0.07001851
v -0.00499982 0.30495137 0.06734987
v 0.01091368 0.34495717 0.06063568
v 0.01047494 0.40496585 0.05050052
v 0.01006667 0.41036773 0.05006048
v 0.01024948 0.35100082 0.06015306
v 0.00499982 0.32495427 0.06517805
v 0.01332067 0.38496298 0.04499291
v 0.01247975 0.39496440 0.04499291
v -0.01489587 0.36496007 -0.00498734
v -0.01545953 0.35495859 -0.00498734
v -0.01556007 0.34495717 -0.00498734
v -0.01556007 -0.04493894 -0.02498795
v 0.01439924 -0.04493894 -0.04500276
v 0.01556007 0.00501484 -0.03499535
v 0.01556007 0.18504094 -0.02498795
v 0.01552961 0.19504239 -0.02498795
v 0.01545953 0.20504384 -0.02498795
v 0.01536508 0.21504529 -0.02498795
v 0.01523407 0.22504672 -0.02498795
v 0.01137071 0.35495859 -0.02246126
v 0.01336942 0.30495137 -0.02498795
v 0.01291239 0.31495279 -0.02498795
v 0.01210499 0.33495569 -0.02420723
v 0.01178507 0.34495717 -0.02336973
v 0.01506040 0.23499469 -0.02498795
v 0.01486235 0.24499615 -0.02498795
v 0.01444189 0.26499903 -0.02498795
v 0.01423166 0.27494702 -0.02498795
v 0.01400011 0.28494847 -0.02498795
v 0.01372285 0.29494992 -0.02498795
v 0.01073088 0.39496440 -0.01170152
v 0.01024339 0.40159637 -0.01056593
v 0.01290325 0.38496298 -0.00498734
v 0.00543247 0.47497600 0.01499908
v 0.00284268 0.48476350 0.01482874
v 0.00308947 0.49540675 0.02462322
v 0.00146552 0.50134349 0.02771771
v 0.00146552 0.50134349 0.03262915
v 0.00429905 0.48497742 0.03499969
v 0.00579809 0.47497600 0.03499969
v 0.00710212 0.46497455 0.03499969
v 0.00816851 0.45497310 0.03499969
v 0.01074306 0.36496007 -0.02131147
v 0.01175460 0.37496150 -0.01567610
v 0.01143164 0.38496298 -0.01337652
v -0.01403971 0.37496150 0.04499291
v -0.00499982 0.32495427 0.06517805
v -0.01024948 0.35100082 0.06015306
v -0.01091368 0.34495717 0.06063568
v -0.01006667 0.41036773 0.05006048
v -0.01047494 0.40496585 0.05050052
v -0.01247975 0.39496440 0.04499291
v -0.01332067 0.38496298 0.04499291
v 0.00227902 0.49471146 0.03558169
v 0.00032601 0.49118155 0.04018083
v 0.00105724 0.36105573 0.06016725
v -0.01323536 0.36496007 -0.01499474
v -0.01412198 0.35495859 -0.01499474
v -0.01010019 0.43149376 0.04032278
v -0.00973152 0.43636078 0.03499969
v -0.00595043 0.48497742 0.02499229
v -0.01395136 0.37496150 -0.00498734
v -0.01456681 0.34495717 -0.01499474
v -0.01488673 0.33495569 -0.01499474
v -0.01516399 0.32495427 -0.01499474
v -0.01538641 0.31495279 -0.01499474
v -0.01552047 0.30495137 -0.01499474
v -0.01556007 0.29494992 -0.01499474
v -0.01554789 -0.04493894 -0.03499535
v -0.01556007 -0.03499095 -0.03499535
v 0.01163273 -0.04493894 -0.05404491
v 0.01431088 -0.03499095 -0.04498857
v 0.01517008 0.07502499 -0.03499535
v 0.01525844 0.06502354 -0.03499535
v 0.01533766 0.05502209 -0.03499535
v 0.01541078 0.04502064 -0.03499535
v 0.01547476 0.03501919 -0.03499535
v 0.01552656 0.02501774 -0.03499535
v 0.01555703 0.01501629 -0.03499535
v 0.01507563 0.08502644 -0.03499535
v 0.01497509 0.09502789 -0.03499535
v 0.01465517 0.12503225 -0.03499535
v 0.01453939 0.13503368 -0.03499535
v 0.01440533 0.14503513 -0.03499535
v 0.01426213 0.15503658 -0.03499535
v 0.01382644 0.18504094 -0.03499535
v 0.00857678 0.35495859 -0.02747206
v 0.00958832 0.33495569 -0.02920384
v 0.00910083 0.34495717 -0.02836634
v 0.01279357 0.22504672 -0.03499535
v 0.01241576 0.23499469 -0.03499535
v 0.01187038 0.25499761 -0.03432820
v 0.01166015 0.26499903 -0.03377459
v 0.01196179 0.32484728 -0.02583965
v 0.01144992 0.27494702 -0.03315002
v 0.01122141 0.28494847 -0.03255383
v 0.01094111 0.29494992 -0.03191506
v 0.01009409 0.32147783 -0.03018328
v 0.00987472 0.32810980 -0.02974324
v 0.01062728 0.30495137 -0.03127629
v 0.01364058 0.19504239 -0.03499535
v 0.01339379 0.20504384 -0.03499535
v 0.01311653 0.21504529 -0.03499535
v 0.00974371 0.37827748 -0.01946613
v 0.00847319 0.39496440 -0.01669813
v 0.00797046 0.40496585 -0.01434178
v 0.00652323 0.43497020 -0.00498734
v 0.00614238 0.45497310 0.00499168
v 0.00223636 0.47497600 0.00722028
v 0.00104201 0.48134059 0.00910820
v 0.00167270 0.49241167 0.01806518
v -0.00146552 0.50134349 0.02771771
v -0.00146552 0.50134349 0.03262915
v 0.00786992 0.36496007 -0.02632227
v 0.01024034 0.37159204 -0.02041719
v -0.00105724 0.36105573 0.06016725
v -0.00032601 0.49118155 0.04018083
v -0.00227902 0.49471146 0.03558169
v -0.00429905 0.48497742 0.03499969
v -0.00579809 0.47497600 0.03499969
v -0.01073088 0.39496440 -0.01170152
v -0.01143164 0.38496298 -0.01337652
v -0.01175460 0.37496150 -0.01567610
v -0.01074306 0.36496007 -0.02131147
v -0.01137071 0.35495859 -0.02246126
v -0.01178507 0.34495717 -0.02336973
v -0.01210499 0.33495569 -0.02420723
v -0.01291239 0.31495279 -0.02498795
v -0.01336942 0.30495137 -0.02498795
v -0.00710212 0.46497455 0.03499969
v -0.00816851 0.45497310 0.03499969
v -0.00308947 0.49540675 0.02462322
v -0.00284268 0.48476350 0.01482874
v -0.00543247 0.47497600 0.01499908
v -0.01024339 0.40159637 -0.01056593
v -0.01290325 0.38496298 -0.00498734
v -0.01372285 0.29494992 -0.02498795
v -0.01400011 0.28494847 -0.02498795
v -0.01423166 0.27494702 -0.02498795
v -0.01444189 0.26499903 -0.02498795
v -0.01486235 0.24499615 -0.02498795
v -0.01506040 0.23499469 -0.02498795
v -0.01523407 0.22504672 -0.02498795
v -0.01536508 0.21504529 -0.02498795
v -0.01545953 0.20504384 -0.02498795
v -0.01552961 0.19504239 -0.02498795
v -0.01556007 0.18504094 -0.02498795
v -0.01440229 -0.04493894 -0.04498857
v -0.01556007 0.00501484 -0.03499535
v 0.00960660 -0.04493894 -0.05904151
v 0.01132196 -0.01498806 -0.05326419
v 0.01255592 0.08502644 -0.04498857
v 0.01276005 0.07502499 -0.04498857
v 0.01295810 0.06502354 -0.04498857
v 0.01314395 0.05502209 -0.04498857
v 0.01332371 0.04502064 -0.04498857
v 0.01349129 0.03501919 -0.04498857
v 0.01364972 0.02501774 -0.04498857
v 0.01378378 0.01501629 -0.04498857
v 0.01389347 0.00501484 -0.04498857
v 0.01410370 -0.01498806 -0.04498857
v 0.00287010 0.36496007 -0.03252544
v 0.00761399 0.31495279 -0.03561993
v 0.00261417 0.31495279 -0.04219217
v 0.00814718 0.30495137 -0.03627289
v 0.01088931 0.19504239 -0.04206441
v 0.01071259 0.20504384 -0.04165276
v 0.01052979 0.21504529 -0.04122692
v 0.01033784 0.22504672 -0.04078687
v 0.01013370 0.23499469 -0.04030425
v 0.00970715 0.25499761 -0.03932480
v 0.00944207 0.26499903 -0.03877120
v 0.00880529 0.28494847 -0.03755044
v 0.00848537 0.29494992 -0.03692586
v 0.01175765 0.13503368 -0.04429301
v 0.01162359 0.14503513 -0.04396653
v 0.01148039 0.15503658 -0.04361166
v 0.01133414 0.16503803 -0.04324259
v 0.01119094 0.17503949 -0.04285933
v 0.01104470 0.18504094 -0.04247607
v 0.00922575 0.38496298 -0.01837313
v 0.00738243 0.37496150 -0.02424982
v 0.00265377 0.40496585 -0.02265999
v 0.00553301 0.41496730 -0.01499474
v 0.00239175 0.43497020 -0.01236868
v 0.00270252 0.45497310 -0.00291488
v 0.00332103 0.46550938 0.00431032
v 0.00142286 0.46251428 -0.00123988
v -0.00104201 0.48134059 0.00910820
v -0.00167270 0.49241167 0.01806518
v 0.00191949 0.37496150 -0.03153180
v 0.00094147 0.38330495 -0.03068011
v 0.00394562 0.38597915 -0.02599579
v -0.00974371 0.37827748 -0.01946613
v -0.01024034 0.37159204 -0.02041719
v -0.00786992 0.36496007 -0.02632227
v -0.00857678 0.35495859 -0.02747206
v -0.00910083 0.34495717 -0.02836634
v -0.00958832 0.33495569 -0.02920384
v -0.00987472 0.32810980 -0.02974324
v -0.01196179 0.32484728 -0.02583965
v -0.01009409 0.32147783 -0.03018328
v -0.01062728 0.30495137 -0.03127629
v -0.01094111 0.29494992 -0.03191506
v -0.01122141 0.28494847 -0.03255383
v -0.01144992 0.27494702 -0.03315002
v -0.01166015 0.26499903 -0.03377459
v -0.01187038 0.25499761 -0.03432820
v -0.01241576 0.23499469 -0.03499535
v -0.01279357 0.22504672 -0.03499535
v -0.00223636 0.47497600 0.00722028
v -0.00614238 0.45497310 0.00499168
v -0.00652323 0.43497020 -0.00498734
v -0.00797046 0.40496585 -0.01434178
v -0.00847319 0.39496440 -0.01669813
v -0.01311653 0.21504529 -0.03499535
v -0.01339379 0.20504384 -0.03499535
v -0.01364058 0.19504239 -0.03499535
v -0.01382644 0.18504094 -0.03499535
v -0.01426213 0.15503658 -0.03499535
v -0.01440533 0.14503513 -0.03499535
v -0.01453939 0.13503368 -0.03499535
v -0.01465517 0.12503225 -0.03499535
v -0.01497509 0.09502789 -0.03499535
v -0.01507563 0.08502644 -0.03499535
v -0.01517008 0.07502499 -0.03499535
v -0.01525844 0.06502354 -0.03499535
v -0.01533766 0.05502209 -0.03499535
v -0.01541078 0.04502064 -0.03499535
v -0.01547476 0.03501919 -0.03499535
v -0.01552656 0.02501774 -0.03499535
v -0.01555703 0.01501629 -0.03499535
v -0.01431088 -0.03499095 -0.04498857
v -0.01163883 -0.04493894 -0.05403072
v 0.00683400 -0.04493894 -0.06500337
v 0.00929583 -0.01498806 -0.05826079
v 0.00918919 -0.00498661 -0.05800529
v 0.01079791 0.03501919 -0.05195826
v 0.01234569 0.09502789 -0.04498857
v 0.01187343 0.12503225 -0.04456272
v 0.00173973 0.32495427 -0.04129789
v 0.00314736 0.30495137 -0.04290191
v 0.00232167 0.24499615 -0.05187309
v 0.00165442 0.25499761 -0.05122013
v 0.00084397 0.26499903 -0.05056716
v 0.00026203 0.27125663 -0.05015551
v 0.00784250 0.23499469 -0.04530085
v 0.00636479 0.25499761 -0.04498857
v 0.00284268 0.23499469 -0.05251186
v 0.00927755 0.16503803 -0.04825339
v 0.00910692 0.17503949 -0.04787013
v 0.00892412 0.18504094 -0.04747267
v 0.00873826 0.19504239 -0.04707522
v 0.00837264 0.21504529 -0.04622352
v 0.00817155 0.22504672 -0.04578348
v 0.00982597 0.12503225 -0.04957351
v 0.00971019 0.13503368 -0.04928962
v 0.00957613 0.14503513 -0.04896314
v 0.00942989 0.15503658 -0.04860826
v 0.00128576 0.41496730 -0.02108435
v 0.00110904 0.44197655 -0.01089242
v 0.00024984 0.42047614 -0.02016168
v -0.00142286 0.46251428 -0.00123988
v 0.00081350 0.33303028 -0.04054556
v -0.00094147 0.38330495 -0.03068011
v -0.00922575 0.38496298 -0.01837313
v -0.00738243 0.37496150 -0.02424982
v -0.00265377 0.40496585 -0.02265999
v -0.00394562 0.38597915 -0.02599579
v -0.00191949 0.37496150 -0.03153180
v -0.00287010 0.36496007 -0.03252544
v -0.00761399 0.31495279 -0.03561993
v -0.00261417 0.31495279 -0.04219217
v -0.00814718 0.30495137 -0.03627289
v -0.00848537 0.29494992 -0.03692586
v -0.00880529 0.28494847 -0.03755044
v -0.00944207 0.26499903 -0.03877120
v -0.00970715 0.25499761 -0.03932480
v -0.01013370 0.23499469 -0.04030425
v -0.01033784 0.22504672 -0.04078687
v -0.01052979 0.21504529 -0.04122692
v -0.01071259 0.20504384 -0.04165276
v -0.01088931 0.19504239 -0.04206441
v -0.00270252 0.45497310 -0.00291488
v -0.00332103 0.46550938 0.00431032
v -0.00239175 0.43497020 -0.01236868
v -0.00553301 0.41496730 -0.01499474
v -0.01104470 0.18504094 -0.04247607
v -0.01119094 0.17503949 -0.04285933
v -0.01133414 0.16503803 -0.04324259
v -0.01148039 0.15503658 -0.04361166
v -0.01162359 0.14503513 -0.04396653
v -0.01175765 0.13503368 -0.04429301
v -0.01255592 0.08502644 -0.04498857
v -0.01276005 0.07502499 -0.04498857
v -0.01295810 0.06502354 -0.04498857
v -0.01314395 0.05502209 -0.04498857
v -0.01332371 0.04502064 -0.04498857
v -0.01349129 0.03501919 -0.04498857
v -0.01364972 0.02501774 -0.04498857
v -0.01378378 0.01501629 -0.04498857
v -0.01389347 0.00501484 -0.04498857
v -0.01410370 -0.01498806 -0.04498857
v -0.00950606 -0.03499095 -0.05877181
v -0.00960965 -0.04493894 -0.05902732
v -0.01132196 -0.01498806 -0.05326419
v -0.00929583 -0.01498806 -0.05826079
v 0.00854022 0.05502209 -0.05642965
v 0.00897591 0.01501629 -0.05748007
v 0.00222113 -0.04493894 -0.07178853
v 0.00282440 0.11503079 -0.06253346
v 0.00744946 0.12503225 -0.05499597
v 0.00775719 0.11503079 -0.05499597
v 0.00810452 0.09502789 -0.05536504
v 0.00832085 0.07502499 -0.05590444
v 0.01058463 0.05502209 -0.05143305
v 0.01198007 0.11503079 -0.04483242
v 0.01026167 0.08502644 -0.05063814
v 0.00013101 0.18097617 -0.06007774
v -0.00026203 0.27125663 -0.05015551
v 0.00317173 0.22504672 -0.05305127
v 0.00204746 0.14503513 -0.06161079
v 0.00161176 0.15503658 -0.06118494
v 0.00110599 0.16503803 -0.06075910
v 0.00051491 0.17503949 -0.06033325
v 0.00709603 0.13503368 -0.05499597
v 0.00662682 0.14503513 -0.05499597
v 0.00604183 0.15503658 -0.05499597
v 0.00838178 0.10583159 -0.05408749
v -0.00110904 0.44197655 -0.01089242
v -0.00024984 0.42047614 -0.02016168
v -0.00081350 0.33303028 -0.04054556
v -0.00128576 0.41496730 -0.02108435
v -0.00173973 0.32495427 -0.04129789
v -0.00314736 0.30495137 -0.04290191
v -0.00084397 0.26499903 -0.05056716
v -0.00165442 0.25499761 -0.05122013
v -0.00232167 0.24499615 -0.05187309
v -0.00284268 0.23499469 -0.05251186
v -0.00636479 0.25499761 -0.04498857
v -0.00784250 0.23499469 -0.04530085
v -0.00817155 0.22504672 -0.04578348
v -0.00837264 0.21504529 -0.04622352
v -0.00873826 0.19504239 -0.04707522
v -0.00892412 0.18504094 -0.04747267
v -0.00910692 0.17503949 -0.04787013
v -0.00927755 0.16503803 -0.04825339
v -0.00942989 0.15503658 -0.04860826
v -0.00957613 0.14503513 -0.04896314
v -0.00971019 0.13503368 -0.04928962
v -0.00982597 0.12503225 -0.04957351
v -0.01187343 0.12503225 -0.04456272
v -0.01234569 0.09502789 -0.04498857
v -0.01079791 0.03501919 -0.05195826
v -0.00683705 -0.04493894 -0.06498918
v -0.00918919 -0.00498661 -0.05800529
v -0.00223027 -0.04493894 -0.07178853
v 0.00197738 -0.03499095 -0.07153302
v 0.00262331 0.12503225 -0.06227795
v 0.00007922 0.02095298 -0.07004256
v -0.00013101 0.18097617 -0.06007774
v 0.00238565 0.13503368 -0.06197986
v -0.00317173 0.22504672 -0.05305127
v -0.00051491 0.17503949 -0.06033325
v -0.00110599 0.16503803 -0.06075910
v -0.00161176 0.15503658 -0.06118494
v -0.00204746 0.14503513 -0.06161079
v -0.00604183 0.15503658 -0.05499597
v -0.00662682 0.14503513 -0.05499597
v -0.00709603 0.13503368 -0.05499597
v -0.00744946 0.12503225 -0.05499597
v -0.00775719 0.11503079 -0.05499597
v -0.00838178 0.10583159 -0.05408749
v -0.00810452 0.09502789 -0.05536504
v -0.00832085 0.07502499 -0.05590444
v -0.01026167 0.08502644 -0.05063814
v -0.01198007 0.11503079 -0.04483242
v -0.01058463 0.05502209 -0.05143305
v -0.00897591 0.01501629 -0.05748007
v -0.00854022 0.05502209 -0.05642965
v -0.00282440 0.11503079 -0.06253346
v -0.00197738 -0.03499095 -0.07153302
v -0.00262331 0.12503225 -0.06227795
v 0.00108467 -0.00498661 -0.07073811
v 0.00170622 -0.02498950 -0.07126332
v 0.00032906 0.01501629 -0.07019871
v 0.00072819 0.00501484 -0.07046841
v -0.00007922 0.02095298 -0.07004256
v 0.00141067 -0.01498806 -0.07099362
v -0.00238565 0.13503368 -0.06197986
v -0.00170622 -0.02498950 -0.07126332
v -0.00108467 -0.00498661 -0.07073811
v -0.00072819 0.00501484 -0.07046841
v -0.00032906 0.01501629 -0.07019871
v -0.00141067 -0.01498806 -0.07099362
f 1 2 3
f 1 3 4
f 1 4 13
f 1 13 5
f 1 5 19
f 1 19 6
f 1 6 7
f 1 7 2
f 2 8 9
f 2 9 3
f 2 7 8
f 3 9 10
f 3 10 11
f 3 11 4
f 4 12 32
f 4 32 13
f 4 11 14
f 4 14 15
f 4 15 16
f 4 16 12
f 5 13 17
f 5 17 18
f 5 18 45
f 5 45 19
f 6 19 45
f 6 45 70
f 6 70 92
f 6 92 127
f 6 127 184
f 6 184 263
f 6 263 349
f 6 349 420
f 6 420 470
f 6 470 472
f 6 472 425
f 6 425 350
f 6 350 265
f 6 265 186
f 6 186 128
f 6 128 93
f 6 93 71
f 6 71 46
f 6 46 20
f 6 20 7
f 7 20 21
f 7 21 8
f 8 21 46
f 8 46 22
f 8 22 9
f 9 22 23
f 9 23 10
f 10 24 11
f 10 23 24
f 11 24 25
f 11 25 26
f 11 26 27
f 11 27 28
f 11 28 29
f 11 29 30
f 11 30 14
f 12 31 50
f 12 50 32
f 12 16 33
f 12 33 31
f 13 34 35
f 13 35 17
f 13 32 36
f 13 36 37
f 13 37 34
f 14 38 15
f 14 30 38
f 15 39 30
f 15 30 16
f 15 38 39
f 16 30 40
f 16 40 41
f 16 41 33
f 17 42 18
f 17 35 43
f 17 43 42
f 18 42 44
f 18 44 70
f 18 70 45
f 20 46 21
f 22 47 23
f 22 46 71
f 22 71 94
f 22 94 129
f 22 129 130
f 22 130 95
f 22 95 72
f 22 72 47
f 23 47 48
f 23 48 49
f 23 49 41
f 23 41 30
f 23 30 29
f 23 29 28
f 23 28 27
f 23 27 26
f 23 26 25
f 23 25 24
f 30 39 38
f 30 41 40
f 31 33 51
f 31 51 77
f 31 77 50
f 32 50 52
f 32 52 36
f 33 41 53
f 33 53 51
f 34 37 54
f 34 54 55
f 34 55 35
f 35 55 56
f 35 56 57
f 35 57 58
f 35 58 59
f 35 59 60
f 35 60 61
f 35 61 43
f 36 52 62
f 36 62 63
f 36 63 55
f 36 55 37
f 37 55 64
f 37 64 54
f 41 49 65
f 41 65 66
f 41 66 67
f 41 67 53
f 42 43 68
f 42 68 69
f 42 69 44
f 43 61 68
f 44 69 92
f 44 92 70
f 47 72 73
f 47 73 48
f 48 73 74
f 48 74 75
f 48 75 49
f 49 76 65
f 49 75 76
f 50 77 52
f 51 53 78
f 51 78 108
f 51 108 77
f 52 77 79
f 52 79 62
f 53 67 78
f 54 64 55
f 55 63 62
f 55 62 68
f 55 68 56
f 56 68 57
f 57 68 58
f 58 68 59
f 59 68 60
f 60 68 61
f 62 80 81
f 62 81 68
f 62 79 82
f 62 82 83
f 62 83 80
f 65 84 85
f 65 85 66
f 65 76 86
f 65 86 84
f 66 87 88
f 66 88 89
f 66 89 78
f 66 78 67
f 66 85 87
f 68 81 90
f 68 90 91
f 68 91 69
f 69 91 126
f 69 126 183
f 69 183 262
f 69 262 264
f 69 264 185
f 69 185 127
f 69 127 92
f 71 93 94
f 72 95 96
f 72 96 73
f 73 97 74
f 73 96 98
f 73 98 99
f 73 99 100
f 73 100 101
f 73 101 97
f 74 102 103
f 74 103 104
f 74 104 105
f 74 105 106
f 74 106 75
f 74 97 107
f 74 107 102
f 75 106 76
f 76 106 86
f 77 108 79
f 78 89 88
f 78 88 115
f 78 115 108
f 79 108 82
f 80 109 81
f 80 83 110
f 80 110 111
f 80 111 112
f 80 112 109
f 81 109 113
f 81 113 90
f 82 108 83
f 83 108 114
f 83 114 115
f 83 115 116
f 83 116 110
f 84 117 85
f 84 86 118
f 84 118 119
f 84 119 117
f 85 117 120
f 85 120 121
f 85 121 162
f 85 162 110
f 85 110 116
f 85 116 87
f 86 122 123
f 86 123 118
f 86 106 122
f 87 116 115
f 87 115 88
f 90 113 124
f 90 124 125
f 90 125 91
f 91 125 126
f 93 128 94
f 94 128 129
f 95 130 131
f 95 131 96
f 96 131 132
f 96 132 133
f 96 133 134
f 96 134 98
f 97 135 107
f 97 101 136
f 97 136 137
f 97 137 138
f 97 138 139
f 97 139 135
f 98 134 140
f 98 140 141
f 98 141 142
f 98 142 143
f 98 143 99
f 99 143 144
f 99 144 145
f 99 145 100
f 100 145 101
f 101 145 136
f 102 107 146
f 102 146 147
f 102 147 148
f 102 148 103
f 103 147 149
f 103 149 150
f 103 150 151
f 103 151 152
f 103 152 153
f 103 153 154
f 103 154 155
f 103 155 156
f 103 156 157
f 103 157 105
f 103 105 104
f 103 148 147
f 105 157 156
f 105 156 155
f 105 155 119
f 105 119 118
f 105 118 123
f 105 123 122
f 105 122 106
f 107 135 158
f 107 158 159
f 107 159 160
f 107 160 146
f 108 115 114
f 109 161 113
f 109 112 161
f 110 162 163
f 110 163 164
f 110 164 111
f 111 164 165
f 111 165 166
f 111 166 112
f 112 166 167
f 112 167 168
f 112 168 161
f 113 161 124
f 117 119 120
f 119 155 154
f 119 154 169
f 119 169 170
f 119 170 120
f 120 170 121
f 121 171 231
f 121 231 162
f 121 170 171
f 124 172 173
f 124 173 125
f 124 161 174
f 124 174 175
f 124 175 176
f 124 176 177
f 124 177 172
f 125 173 178
f 125 178 179
f 125 179 180
f 125 180 181
f 125 181 182
f 125 182 126
f 126 182 183
f 127 185 184
f 128 186 187
f 128 187 188
f 128 188 189
f 128 189 190
f 128 190 191
f 128 191 192
f 128 192 193
f 128 193 194
f 128 194 129
f 129 194 130
f 130 194 193
f 130 193 131
f 131 193 192
f 131 192 191
f 131 191 132
f 132 191 190
f 132 190 189
f 132 189 188
f 132 188 195
f 132 195 133
f 133 195 196
f 133 196 197
f 133 197 198
f 133 198 134
f 134 198 199
f 134 199 200
f 134 200 201
f 134 201 140
f 135 202 158
f 135 139 203
f 135 203 204
f 135 204 202
f 136 145 205
f 136 205 206
f 136 206 207
f 136 207 208
f 136 208 137
f 137 209 138
f 137 208 210
f 137 210 211
f 137 211 212
f 137 212 209
f 138 213 214
f 138 214 139
f 138 209 215
f 138 215 213
f 139 214 203
f 140 201 216
f 140 216 141
f 141 216 142
f 142 216 143
f 143 216 144
f 144 216 217
f 144 217 218
f 144 218 145
f 145 218 205
f 146 160 219
f 146 219 147
f 147 219 220
f 147 220 221
f 147 221 222
f 147 222 223
f 147 223 149
f 149 223 224
f 149 224 150
f 150 224 225
f 150 225 226
f 150 226 151
f 151 226 152
f 152 226 305
f 152 305 227
f 152 227 228
f 152 228 153
f 153 228 232
f 153 232 170
f 153 170 169
f 153 169 154
f 158 229 230
f 158 230 160
f 158 160 159
f 158 202 229
f 160 230 219
f 161 168 174
f 162 231 232
f 162 232 163
f 163 232 165
f 163 165 164
f 165 232 233
f 165 233 234
f 165 234 235
f 165 235 174
f 165 174 166
f 166 174 167
f 167 174 168
f 170 232 231
f 170 231 171
f 172 177 236
f 172 236 237
f 172 237 238
f 172 238 239
f 172 239 240
f 172 240 173
f 173 240 241
f 173 241 242
f 173 242 243
f 173 243 244
f 173 244 178
f 174 235 245
f 174 245 246
f 174 246 176
f 174 176 175
f 176 246 245
f 176 245 235
f 176 235 234
f 176 234 228
f 176 228 227
f 176 227 247
f 176 247 248
f 176 248 249
f 176 249 250
f 176 250 251
f 176 251 177
f 177 251 250
f 177 250 236
f 178 244 252
f 178 252 179
f 179 252 253
f 179 253 180
f 180 253 254
f 180 254 181
f 181 254 255
f 181 255 256
f 181 256 257
f 181 257 258
f 181 258 182
f 182 258 259
f 182 259 260
f 182 260 261
f 182 261 183
f 183 261 262
f 184 185 263
f 185 264 263
f 186 265 351
f 186 351 266
f 186 266 267
f 186 267 268
f 186 268 269
f 186 269 270
f 186 270 271
f 186 271 272
f 186 272 273
f 186 273 274
f 186 274 275
f 186 275 276
f 186 276 187
f 187 276 196
f 187 196 195
f 187 195 188
f 196 276 275
f 196 275 197
f 197 275 274
f 197 274 198
f 198 274 273
f 198 273 199
f 199 273 200
f 200 273 201
f 201 273 272
f 201 272 271
f 201 271 270
f 201 270 269
f 201 269 216
f 202 277 229
f 202 204 278
f 202 278 279
f 202 279 277
f 203 214 280
f 203 280 278
f 203 278 204
f 205 218 281
f 205 281 282
f 205 282 283
f 205 283 284
f 205 284 206
f 206 284 285
f 206 285 207
f 207 286 208
f 207 285 286
f 208 286 210
f 209 212 215
f 210 286 211
f 211 286 287
f 211 287 212
f 212 287 288
f 212 288 289
f 212 289 215
f 213 215 289
f 213 289 214
f 214 289 280
f 216 269 268
f 216 268 267
f 216 267 290
f 216 290 217
f 217 290 291
f 217 291 218
f 218 291 292
f 218 292 293
f 218 293 294
f 218 294 295
f 218 295 281
f 219 296 220
f 219 230 229
f 219 229 297
f 219 297 296
f 220 298 221
f 220 296 297
f 220 297 298
f 221 298 299
f 221 299 222
f 222 300 301
f 222 301 223
f 222 299 300
f 223 301 302
f 223 302 224
f 224 302 301
f 224 301 303
f 224 303 225
f 225 304 305
f 225 305 226
f 225 303 378
f 225 378 304
f 227 305 247
f 228 233 232
f 228 234 233
f 229 277 306
f 229 306 307
f 229 307 308
f 229 308 298
f 229 298 297
f 236 250 309
f 236 309 237
f 237 309 310
f 237 310 239
f 237 239 238
f 239 310 311
f 239 311 312
f 239 312 240
f 240 312 313
f 240 313 314
f 240 314 241
f 241 314 315
f 241 315 242
f 242 316 243
f 242 315 317
f 242 317 318
f 242 318 316
f 243 316 319
f 243 319 320
f 243 320 321
f 243 321 322
f 243 322 244
f 244 322 323
f 244 323 324
f 244 324 325
f 244 325 252
f 247 305 248
f 248 304 326
f 248 326 249
f 248 305 304
f 249 326 327
f 249 327 250
f 250 327 328
f 250 328 329
f 250 329 330
f 250 330 309
f 252 325 331
f 252 331 332
f 252 332 253
f 253 332 333
f 253 333 254
f 254 333 255
f 255 333 256
f 256 333 257
f 257 333 334
f 257 334 258
f 258 334 335
f 258 335 336
f 258 336 337
f 258 337 259
f 259 337 338
f 259 338 339
f 259 339 340
f 259 340 341
f 259 341 260
f 260 341 342
f 260 342 343
f 260 343 344
f 260 344 261
f 261 344 345
f 261 345 346
f 261 346 347
f 261 347 262
f 262 347 264
f 263 348 349
f 263 264 347
f 263 347 346
f 263 346 345
f 263 345 344
f 263 344 343
f 263 343 342
f 263 342 341
f 263 341 348
f 265 350 351
f 266 351 352
f 266 352 353
f 266 353 267
f 267 353 354
f 267 354 355
f 267 355 290
f 277 279 356
f 277 356 306
f 278 280 357
f 278 357 279
f 279 357 358
f 279 358 359
f 279 359 360
f 279 360 361
f 279 361 356
f 280 289 362
f 280 362 363
f 280 363 364
f 280 364 357
f 281 295 365
f 281 365 366
f 281 366 282
f 282 366 367
f 282 367 368
f 282 368 369
f 282 369 283
f 283 369 284
f 284 370 285
f 284 369 370
f 285 370 286
f 286 370 287
f 287 370 362
f 287 362 288
f 288 362 289
f 290 355 371
f 290 371 372
f 290 372 373
f 290 373 291
f 291 373 292
f 292 373 374
f 292 374 293
f 293 374 365
f 293 365 294
f 294 365 295
f 298 308 307
f 298 307 375
f 298 375 299
f 299 375 300
f 300 376 303
f 300 303 301
f 300 375 377
f 300 377 376
f 303 376 445
f 303 445 378
f 304 378 326
f 306 356 379
f 306 379 307
f 307 377 375
f 307 379 447
f 307 447 380
f 307 380 446
f 307 446 377
f 309 330 381
f 309 381 382
f 309 382 311
f 309 311 310
f 311 382 383
f 311 383 384
f 311 384 380
f 311 380 385
f 311 385 386
f 311 386 312
f 312 387 313
f 312 386 388
f 312 388 387
f 313 387 314
f 314 387 389
f 314 389 315
f 315 389 390
f 315 390 317
f 316 318 319
f 317 390 318
f 318 390 319
f 319 390 391
f 319 391 392
f 319 392 320
f 320 392 393
f 320 393 321
f 321 393 322
f 322 393 323
f 323 393 394
f 323 394 324
f 324 394 395
f 324 395 325
f 325 395 396
f 325 396 397
f 325 397 398
f 325 398 331
f 326 378 399
f 326 399 400
f 326 400 327
f 327 400 399
f 327 399 328
f 328 399 401
f 328 401 402
f 328 402 329
f 329 402 383
f 329 383 330
f 330 383 382
f 330 382 381
f 331 398 403
f 331 403 404
f 331 404 405
f 331 405 406
f 331 406 407
f 331 407 332
f 332 407 408
f 332 408 333
f 333 408 409
f 333 409 410
f 333 410 411
f 333 411 412
f 333 412 334
f 334 412 413
f 334 413 414
f 334 414 415
f 334 415 335
f 335 415 336
f 336 415 416
f 336 416 337
f 337 416 338
f 338 416 417
f 338 417 339
f 339 417 418
f 339 418 348
f 339 348 340
f 340 348 341
f 348 418 349
f 349 419 420
f 349 418 417
f 349 417 416
f 349 416 415
f 349 415 414
f 349 414 413
f 349 413 412
f 349 412 411
f 349 411 410
f 349 410 409
f 349 409 421
f 349 421 422
f 349 422 419
f 350 423 424
f 350 424 352
f 350 352 351
f 350 425 426
f 350 426 427
f 350 427 428
f 350 428 429
f 350 429 430
f 350 430 423
f 352 424 431
f 352 431 353
f 353 431 354
f 354 432 355
f 354 431 432
f 355 432 433
f 355 433 371
f 356 361 379
f 357 364 358
f 358 364 434
f 358 434 359
f 359 434 360
f 360 434 361
f 361 434 476
f 361 476 435
f 361 435 447
f 361 447 379
f 362 370 436
f 362 436 364
f 362 364 363
f 364 436 437
f 364 437 438
f 364 438 439
f 364 439 440
f 364 440 434
f 365 374 427
f 365 427 441
f 365 441 366
f 366 441 367
f 367 441 368
f 368 441 369
f 369 441 370
f 370 441 442
f 370 442 443
f 370 443 436
f 371 433 430
f 371 430 429
f 371 429 372
f 372 429 444
f 372 444 428
f 372 428 373
f 373 428 374
f 374 428 427
f 376 377 446
f 376 446 445
f 378 445 401
f 378 401 399
f 380 447 385
f 380 384 383
f 380 383 448
f 380 448 446
f 383 402 448
f 385 447 449
f 385 449 386
f 386 449 388
f 387 388 450
f 387 450 389
f 388 435 451
f 388 451 452
f 388 452 453
f 388 453 450
f 388 449 435
f 389 450 454
f 389 454 455
f 389 455 456
f 389 456 390
f 390 456 391
f 391 456 392
f 392 456 457
f 392 457 393
f 393 457 394
f 394 457 395
f 395 457 458
f 395 458 396
f 396 458 459
f 396 459 397
f 397 459 460
f 397 460 461
f 397 461 398
f 398 461 462
f 398 462 403
f 401 445 446
f 401 446 448
f 401 448 402
f 403 462 404
f 404 462 405
f 405 462 463
f 405 463 406
f 406 463 464
f 406 464 407
f 407 464 465
f 407 465 408
f 408 465 466
f 408 466 467
f 408 467 409
f 409 467 468
f 409 468 469
f 409 469 421
f 419 470 420
f 419 422 470
f 421 469 471
f 421 471 422
f 422 471 470
f 423 430 433
f 423 433 424
f 424 433 431
f 425 472 497
f 425 497 473
f 425 473 474
f 425 474 426
f 426 474 441
f 426 441 427
f 428 444 429
f 431 433 432
f 434 440 475
f 434 475 503
f 434 503 476
f 435 476 451
f 435 449 447
f 436 443 437
f 437 443 477
f 437 477 475
f 437 475 438
f 438 475 439
f 439 475 440
f 441 477 442
f 441 474 477
f 442 477 443
f 450 453 454
f 451 476 452
f 452 476 453
f 453 476 454
f 454 478 456
f 454 456 455
f 454 476 479
f 454 479 480
f 454 480 481
f 454 481 482
f 454 482 478
f 456 478 457
f 457 478 483
f 457 483 484
f 457 484 485
f 457 485 458
f 458 485 459
f 459 485 460
f 460 485 461
f 461 485 462
f 462 485 486
f 462 486 463
f 463 486 487
f 463 487 464
f 464 487 465
f 465 487 488
f 465 488 489
f 465 489 466
f 466 489 490
f 466 490 491
f 466 491 467
f 467 491 492
f 467 492 468
f 468 492 493
f 468 493 469
f 469 493 494
f 469 494 471
f 470 471 494
f 470 494 495
f 470 495 490
f 470 490 489
f 470 489 487
f 470 487 486
f 470 486 496
f 470 496 472
f 472 496 498
f 472 498 497
f 473 497 507
f 473 507 499
f 473 499 500
f 473 500 477
f 473 477 474
f 475 477 501
f 475 501 502
f 475 502 499
f 475 499 507
f 475 507 503
f 476 503 479
f 477 500 504
f 477 504 499
f 477 499 502
f 477 502 501
f 478 482 483
f 479 503 480
f 480 503 481
f 481 503 482
f 482 503 505
f 482 505 483
f 483 505 484
f 484 505 485
f 485 505 498
f 485 498 496
f 485 496 486
f 487 489 488
f 490 495 491
f 491 495 494
f 491 494 493
f 491 493 492
f 497 506 507
f 497 498 505
f 497 505 506
f 499 504 500
f 503 507 508
f 503 508 509
f 503 509 505
f 505 509 508
f 505 508 507
f 505 507 510
f 505 510 506
f 506 510 507

