# https://github.com/mikedh/trimesh
v 0.03432217 0.03680814 0.18414727
v 0.03432217 0.03680814 0.20089422
v 0.03432217 0.04319064 0.18672203
v 0.04198449 0.04158303 0.18910974
v 0.06153197 0.04121078 0.19911170
v 0.06202157 0.03680814 0.19875959
v 0.03432217 0.03795012 0.20053113
v 0.14616019 0.03680814 0.29655653
v 0.14649066 0.03770406 0.29655653
v 0.05500798 0.04266066 0.19741720
v 0.03432217 0.04322660 0.19553563
v 0.15361442 0.04325373 0.28499210
v 0.04519140 0.04315215 0.19446832
v 0.13510735 0.04265309 0.25504124
v 0.12488685 0.04241775 0.24488524
v 0.09221796 0.04129028 0.21859846
v 0.08034503 0.04024861 0.20979586
v 0.08034503 0.03827443 0.20979586
v 0.07834990 0.03680814 0.20873955
v 0.03432217 0.03971863 0.19995895
v 0.15933056 0.03680814 0.29655653
v 0.14830221 0.04243479 0.29655653
v 0.11428690 0.04195402 0.23532341
v 0.10499665 0.04160133 0.22787420
v 0.14806965 0.04269978 0.29499406
v 0.14633155 0.04325373 0.28499210
v 0.15548716 0.04296225 0.29655653
v 0.15580541 0.04295656 0.29441088
v 0.15936728 0.04177168 0.29655653
v 0.15170497 0.04217800 0.27499014
v 0.14480153 0.04249725 0.26554936
v 0.13185148 0.04158871 0.24814221
v 0.11048023 0.04042590 0.22963473
v 0.08205865 0.03680814 0.21116026
v 0.11048023 0.03830660 0.22963473
v 0.15788622 0.03680814 0.29113191
v 0.12148409 0.04113317 0.23885545
v 0.15513220 0.03680814 0.28247237
v 0.15046871 0.04081140 0.26924646
v 0.14133757 0.04141835 0.25840825
v 0.13208404 0.03680814 0.24788913
v 0.12508269 0.03680814 0.24163929
v 0.10832596 0.03680814 0.22850139
v 0.11219384 0.03680814 0.23126321
v 0.12155753 0.03680814 0.23880044
v 0.15098280 0.03680814 0.27090794
v 0.15046871 0.03782773 0.26924646
v 0.14142326 0.03680814 0.25830922
v 0.13570713 0.03680814 0.25186130
v 0.14933038 0.03680814 0.26803610
f 1 2 7
f 1 7 20
f 1 20 11
f 1 11 3
f 1 3 4
f 1 4 5
f 1 5 6
f 1 6 19
f 1 19 34
f 1 34 43
f 1 43 44
f 1 44 45
f 1 45 42
f 1 42 41
f 1 41 49
f 1 49 48
f 1 48 50
f 1 50 46
f 1 46 38
f 1 38 36
f 1 36 21
f 1 21 8
f 1 8 2
f 2 8 9
f 2 9 7
f 3 10 5
f 3 5 4
f 3 11 12
f 3 12 13
f 3 13 14
f 3 14 15
f 3 15 10
f 5 10 16
f 5 16 17
f 5 17 6
f 6 17 18
f 6 18 19
f 7 9 20
f 8 21 29
f 8 29 27
f 8 27 22
f 8 22 9
f 9 22 20
f 10 15 23
f 10 23 24
f 10 24 16
f 11 20 22
f 11 22 25
f 11 25 26
f 11 26 12
f 12 26 27
f 12 27 28
f 12 28 29
f 12 29 30
f 12 30 31
f 12 31 14
f 12 14 13
f 14 31 32
f 14 32 15
f 15 32 23
f 16 24 33
f 16 33 17
f 17 33 35
f 17 35 18
f 18 34 19
f 18 35 34
f 21 36 29
f 22 27 25
f 23 32 37
f 23 37 24
f 24 37 33
f 25 27 26
f 27 29 28
f 29 36 38
f 29 38 39
f 29 39 30
f 30 39 31
f 31 39 40
f 31 40 32
f 32 41 42
f 32 42 37
f 32 40 41
f 33 37 42
f 33 42 35
f 34 35 43
f 35 44 43
f 35 42 45
f 35 45 44
f 38 46 47
f 38 47 39
f 39 47 48
f 39 48 40
f 40 48 49
f 40 49 41
f 46 50 47
f 47 50 48

