# https://github.com/mikedh/trimesh
v -0.00500114 0.03680814 0.10896196
v -0.00868759 0.03680814 0.11142943
v -0.00065701 0.03680814 0.10934930
v 0.00498516 -0.05935246 0.25091308
v -0.00500114 -0.05945945 0.25074095
v -0.01500475 -0.05894397 0.25161600
v -0.02500837 -0.05830206 0.25264892
v -0.03501198 -0.05264154 0.24632244
v -0.04501560 -0.05163977 0.24774267
v -0.05143660 -0.05063800 0.24914855
v -0.07262072 -0.04111628 0.24848863
v -0.07928403 -0.03966711 0.25046837
v -0.08056477 -0.03038854 0.23955125
v -0.01441631 0.03680814 0.11558969
v 0.00498516 0.03680814 0.10988009
v 0.00498516 -0.06232861 0.25550371
v 0.00422364 -0.06234806 0.25550371
v -0.00500114 -0.06255230 0.25550371
v 0.01498878 -0.05873000 0.25194597
v -0.01500475 -0.06144354 0.25550371
v -0.03501198 -0.05880781 0.25550371
v -0.03501198 -0.05765042 0.25369614
v -0.04418484 -0.05715439 0.25550371
v -0.04503290 -0.05698905 0.25550371
v -0.04520597 -0.05694042 0.25550371
v -0.05396346 -0.05396428 0.25550371
v -0.05488075 -0.05359469 0.25550371
v -0.05486344 -0.05305976 0.25471470
v -0.07547642 -0.04450091 0.25550371
v -0.07909365 -0.04286695 0.25550371
v -0.08499543 -0.04007560 0.25550371
v -0.08499543 -0.03801370 0.25256282
v -0.08433776 -0.03264496 0.24533258
v -0.09120875 -0.03101100 0.24887598
v -0.01500475 0.03680814 0.11602007
v 0.01538684 0.03680814 0.11930524
v 0.03966897 -0.04026040 0.23272267
v 0.03966897 -0.04805089 0.24239171
v 0.03966897 -0.04987937 0.24473006
v 0.03966897 -0.05186347 0.24739838
v 0.03499600 -0.05242757 0.24660936
v 0.02499239 -0.05808809 0.25299323
v 0.02499239 -0.05969287 0.25550371
v -0.09297410 -0.03472632 0.25550371
v -0.09394330 -0.03407468 0.25550371
v -0.09788936 -0.02823910 0.25224721
v -0.10855065 -0.01879519 0.25152993
v -0.10188735 -0.02156709 0.24831650
v -0.10522765 -0.01519659 0.24470137
v -0.11234095 -0.01213291 0.24775702
v -0.10858527 -0.00856348 0.24108624
v -0.11900426 -0.00867047 0.25108522
v -0.11521396 -0.00528583 0.24484482
v -0.11142366 -0.00190119 0.23861878
v -0.11808697 0.00311740 0.24193265
v -0.12012923 0.00977969 0.23986685
v -0.12172150 0.01499281 0.23833185
v -0.13196743 0.01678238 0.24780005
v -0.12038884 0.02909545 0.22958095
v -0.12038884 0.03045709 0.22958095
v -0.10162774 0.03680814 0.21874993
v 0.01832908 0.03680814 0.12500051
v 0.03966897 -0.01974834 0.21311204
v 0.03966897 -0.02362900 0.21651199
v 0.03966897 -0.02615775 0.21874993
v 0.03966897 -0.02875458 0.22108828
v 0.03966897 -0.03015512 0.22239374
v 0.03966897 -0.03892794 0.23118767
v 0.03966897 -0.05445058 0.25117129
v 0.03648444 -0.05815617 0.25550371
v 0.03499600 -0.05742672 0.25402611
v 0.03499600 -0.05837014 0.25550371
v -0.10039892 -0.02869622 0.25550371
v -0.10545265 -0.02448488 0.25550371
v -0.11445244 -0.01682082 0.25550371
v -0.11569856 -0.01573151 0.25550371
v -0.11533511 -0.01534248 0.25464296
v -0.12121959 -0.00199845 0.24858907
v -0.11710045 -0.01437961 0.25550371
v -0.12449067 -0.00528583 0.25550371
v -0.12487143 -0.00472172 0.25550371
v -0.12476759 -0.00464392 0.25528854
v -0.12992516 0.01011037 0.25008103
v -0.12732907 0.01406884 0.24467269
v -0.13714230 0.01531376 0.25550371
v -0.13248664 0.02499110 0.24639416
v -0.12883480 0.02499110 0.24138750
v -0.13136166 0.03074887 0.24738403
v -0.12251764 0.03156585 0.23498930
v -0.10322001 0.03680814 0.22239374
v 0.02348666 0.03680814 0.13736653
v 0.03966897 -0.01329030 0.20839229
v 0.03966897 -0.01786150 0.21156271
v 0.03966897 -0.05740727 0.25550371
v -0.12506181 -0.00442994 0.25550371
v -0.12561564 -0.00352543 0.25550371
v -0.13551542 0.01413692 0.25428432
v -0.13714230 0.01655868 0.25550371
v -0.13499619 0.02597342 0.25550371
v -0.13136166 0.03074887 0.25251979
v -0.09536250 0.03680814 0.22313972
v 0.03966897 0.03680814 0.18809307
v 0.03966897 0.03507692 0.18744752
v 0.03966897 0.02589561 0.18924072
v 0.03966897 0.00548081 0.19791991
v 0.03966897 0.00038441 0.20024392
v 0.03966897 0.00022879 0.20032999
v 0.03966897 -0.00510104 0.20334260
v 0.03966897 -0.00786321 0.20499235
v 0.03966897 -0.04018259 0.25550371
v -0.12471566 0.02596369 0.25550371
v -0.12776175 0.03074887 0.25251979
v -0.09319909 0.03680814 0.22306800
v 0.03966897 0.03680814 0.20272572
f 1 2 14
f 1 14 35
f 1 35 61
f 1 61 90
f 1 90 101
f 1 101 113
f 1 113 114
f 1 114 102
f 1 102 91
f 1 91 62
f 1 62 36
f 1 36 15
f 1 15 3
f 1 3 4
f 1 4 5
f 1 5 6
f 1 6 7
f 1 7 8
f 1 8 9
f 1 9 10
f 1 10 11
f 1 11 12
f 1 12 13
f 1 13 2
f 2 13 14
f 3 15 4
f 4 16 17
f 4 17 18
f 4 18 5
f 4 15 19
f 4 19 16
f 5 18 6
f 6 20 7
f 6 18 20
f 7 20 21
f 7 21 22
f 7 22 8
f 8 22 23
f 8 23 24
f 8 24 9
f 9 24 25
f 9 25 10
f 10 25 26
f 10 26 27
f 10 27 28
f 10 28 12
f 10 12 11
f 12 28 27
f 12 27 29
f 12 29 30
f 12 30 31
f 12 31 32
f 12 32 13
f 13 32 33
f 13 33 34
f 13 34 35
f 13 35 14
f 15 36 37
f 15 37 38
f 15 38 39
f 15 39 40
f 15 40 41
f 15 41 19
f 16 19 42
f 16 42 43
f 16 43 72
f 16 72 70
f 16 70 94
f 16 94 110
f 16 110 111
f 16 111 99
f 16 99 98
f 16 98 85
f 16 85 96
f 16 96 95
f 16 95 81
f 16 81 80
f 16 80 79
f 16 79 76
f 16 76 75
f 16 75 74
f 16 74 73
f 16 73 45
f 16 45 44
f 16 44 31
f 16 31 30
f 16 30 29
f 16 29 27
f 16 27 26
f 16 26 25
f 16 25 24
f 16 24 23
f 16 23 21
f 16 21 20
f 16 20 18
f 16 18 17
f 19 41 42
f 21 23 22
f 31 44 32
f 32 44 45
f 32 45 34
f 32 34 33
f 34 45 46
f 34 46 47
f 34 47 48
f 34 48 35
f 35 48 49
f 35 49 50
f 35 50 51
f 35 51 52
f 35 52 53
f 35 53 54
f 35 54 55
f 35 55 56
f 35 56 57
f 35 57 58
f 35 58 59
f 35 59 60
f 35 60 61
f 36 62 63
f 36 63 64
f 36 64 65
f 36 65 66
f 36 66 67
f 36 67 68
f 36 68 37
f 37 68 67
f 37 67 66
f 37 66 65
f 37 65 64
f 37 64 63
f 37 63 93
f 37 93 92
f 37 92 109
f 37 109 108
f 37 108 107
f 37 107 106
f 37 106 105
f 37 105 104
f 37 104 103
f 37 103 102
f 37 102 114
f 37 114 110
f 37 110 94
f 37 94 69
f 37 69 40
f 37 40 39
f 37 39 38
f 40 69 41
f 41 69 70
f 41 70 71
f 41 71 42
f 42 71 43
f 43 71 72
f 45 73 46
f 46 73 47
f 47 74 75
f 47 75 76
f 47 76 77
f 47 77 50
f 47 50 48
f 47 73 74
f 48 50 49
f 50 77 52
f 50 52 51
f 52 78 53
f 52 77 79
f 52 79 80
f 52 80 81
f 52 81 82
f 52 82 83
f 52 83 78
f 53 78 54
f 54 78 55
f 55 78 58
f 55 58 84
f 55 84 56
f 56 84 57
f 57 84 58
f 58 78 83
f 58 83 85
f 58 85 86
f 58 86 87
f 58 87 59
f 59 87 86
f 59 86 60
f 60 86 88
f 60 88 89
f 60 89 61
f 61 89 88
f 61 88 90
f 62 91 92
f 62 92 93
f 62 93 63
f 69 94 70
f 70 72 71
f 76 79 77
f 81 95 82
f 82 95 83
f 83 95 96
f 83 96 97
f 83 97 85
f 85 98 86
f 85 97 96
f 86 98 99
f 86 99 88
f 88 99 100
f 88 100 90
f 90 100 101
f 91 102 103
f 91 103 104
f 91 104 105
f 91 105 106
f 91 106 107
f 91 107 108
f 91 108 109
f 91 109 92
f 99 111 112
f 99 112 100
f 100 112 101
f 101 112 113
f 110 114 111
f 111 114 112
f 112 114 113

