# https://github.com/mikedh/trimesh
v -0.07686467 -0.05999587 0.38886940
v -0.07686467 -0.04458391 0.38886940
v -0.07507710 -0.06066737 0.38886940
v -0.07686467 -0.05747234 0.39492160
v -0.07686467 0.03680814 0.45991099
v 0.04995410 -0.05099563 0.38886940
v -0.07507710 -0.05806802 0.39489958
v -0.07320262 -0.06127388 0.38886940
v -0.07181229 -0.06060239 0.39149934
v -0.07686467 -0.05267438 0.40562844
v -0.07686467 0.03680814 0.47138813
v 0.04995410 0.03680814 0.47456828
v 0.04995410 -0.06701411 0.38886940
v -0.06678472 -0.05921607 0.39816776
v -0.06463714 -0.06398153 0.38886940
v -0.07686467 -0.05206786 0.40697092
v -0.07686467 0.03643990 0.47163022
v -0.07569778 0.03535684 0.47348988
v -0.07500261 0.03680814 0.47318178
v 0.04995410 0.03680814 0.48934662
v 0.04637894 -0.06799969 0.38886940
v 0.04995410 -0.06563862 0.39163139
v -0.05542615 -0.06664586 0.38886940
v -0.06011854 -0.06002836 0.40006045
v -0.07686467 -0.04854791 0.41345227
v -0.07686467 0.03463119 0.47280765
v -0.06891988 0.03499943 0.47894785
v -0.06721920 0.03680814 0.47959709
v 0.04995410 0.03528102 0.48923656
v 0.04930858 0.03680814 0.48969874
v 0.04995410 -0.06535702 0.39215958
v 0.04498860 -0.06833544 0.38886940
v -0.05499167 -0.06377576 0.39500961
v -0.04499860 -0.06887697 0.38886940
v -0.05499167 -0.06055906 0.40096277
v -0.07686467 -0.04031665 0.42828560
v -0.07686467 0.02471035 0.47462329
v -0.06961505 0.02755880 0.47968513
v -0.06392956 0.03499943 0.48252416
v -0.06350750 0.03680814 0.48226005
v 0.04995410 0.03499943 0.48921457
v 0.04595687 0.03680814 0.49095318
v 0.04400792 0.03499943 0.49145937
v 0.04901065 0.03499943 0.48957768
v 0.04995410 -0.06139302 0.39948824
v 0.04498860 -0.06499961 0.39500961
v 0.03025349 -0.07002501 0.39006883
v 0.03819828 -0.06939684 0.38886940
v -0.04499860 -0.06557363 0.39500961
v -0.04151034 -0.06939684 0.38886940
v -0.03134349 -0.07017665 0.39033294
v -0.04499860 -0.06140385 0.40240428
v -0.04499860 -0.05843626 0.40741110
v -0.05499167 -0.05759148 0.40595856
v -0.07686467 -0.03883285 0.43065146
v -0.07104263 -0.04017585 0.43026632
v -0.07686467 0.02100628 0.47467834
v -0.07012402 0.02088714 0.48008126
v -0.07407159 0.02453706 0.47674707
v -0.05499167 0.03499943 0.48742092
v -0.04879721 0.03680814 0.49040300
v 0.04995410 0.02495945 0.48705778
v 0.04438033 0.03680814 0.49150339
v 0.03499554 0.03680814 0.49447447
v 0.03499554 0.03499943 0.49419937
v 0.04208378 0.02819781 0.49056804
v 0.04995410 -0.06055906 0.40094075
v 0.04498860 -0.06107893 0.40183207
v 0.03499554 -0.06184791 0.40316355
v 0.03415141 -0.06717657 0.39404127
v 0.02901212 -0.07071818 0.38886940
v 0.03125900 -0.07041492 0.38886940
v 0.02499006 -0.06751232 0.39570287
v 0.01499700 -0.07103226 0.39188451
v 0.02178732 -0.07161711 0.38886940
v -0.03241107 -0.07067485 0.38886940
v -0.02498766 -0.07160629 0.38886940
v -0.01499459 -0.07284097 0.38886940
v -0.02498766 -0.07058821 0.39109221
v -0.02498766 -0.06772893 0.39608800
v -0.01499459 -0.06837876 0.39725444
v -0.02436697 -0.06222698 0.40563944
v -0.02061802 -0.06007168 0.41014007
v -0.04584274 -0.05299930 0.41597217
v -0.04974065 -0.04994506 0.41995561
v -0.05499167 -0.04955516 0.41930637
v -0.05499167 -0.05258773 0.41429958
v -0.07463020 -0.03689417 0.43416172
v -0.07499020 -0.03142472 0.44194153
v -0.07686467 -0.03120810 0.44161141
v -0.06499714 -0.04059824 0.43089354
v -0.06499714 -0.03715411 0.43590036
v -0.06499714 -0.03216120 0.44308594
v -0.07686467 0.01554765 0.47422716
v -0.07012402 0.01979325 0.48008126
v -0.04983996 0.03499943 0.48989680
v -0.04306206 0.03680814 0.49266982
v 0.04995410 0.01484366 0.48377860
v 0.02503972 0.03680814 0.49674127
v 0.02499006 0.02499194 0.49349511
v 0.03473485 0.02491613 0.49130532
v 0.01322184 0.03680814 0.49941522
v 0.03123417 0.01927338 0.49029294
v 0.03790035 0.02153698 0.48935762
v 0.04498860 0.01499529 0.48528615
v 0.04995410 -0.05508960 0.41006303
v 0.04498860 -0.05811134 0.40682787
v 0.03499554 -0.05888032 0.40815935
v 0.01286184 -0.06037494 0.41061324
v 0.01571700 -0.06275767 0.40594757
v 0.01499700 -0.06817298 0.39688030
v 0.00499153 -0.07167127 0.39301789
v 0.00499153 -0.07363161 0.38886940
v 0.01061495 -0.07297094 0.38886940
v 0.01499700 -0.07244024 0.38886940
v -0.01499459 -0.07123804 0.39225864
v -0.00500153 -0.07383739 0.38886940
v -0.00500153 -0.07177958 0.39320496
v -0.00500153 -0.06889863 0.39820078
v -0.01499459 -0.06382991 0.40500122
v -0.01499459 -0.06045076 0.41073430
v -0.01499459 -0.05725573 0.41573009
v -0.04307447 -0.05039995 0.42061585
v -0.06499714 -0.02859792 0.44808173
v -0.06499714 -0.02360501 0.45414492
v -0.07499020 -0.02712496 0.44692633
v -0.07686467 -0.02820802 0.44507766
v -0.03499313 -0.05094148 0.42141914
v -0.03499313 -0.04759482 0.42641494
v -0.03499313 -0.04260191 0.43385363
v -0.04499860 -0.03852960 0.43787006
v -0.04527171 -0.03300598 0.44583693
v -0.04211862 -0.03029833 0.45038158
v -0.04878480 -0.02978929 0.44974333
v -0.07686467 0.01311076 0.47380900
v -0.07686467 0.00678568 0.47119007
v -0.07434469 0.00541020 0.47159722
v -0.06499714 0.01255840 0.47874978
v -0.05967165 0.01027314 0.47980618
v -0.06499714 0.01755131 0.48104963
v -0.05499167 0.02499194 0.48650759
v -0.04483723 0.03499943 0.49177849
v -0.04319862 0.02729886 0.49083215
v -0.03499313 0.03680814 0.49502465
v 0.04995410 0.00796622 0.48104963
v 0.00967151 0.03680814 0.50004244
v 0.00499153 0.03680814 0.50085676
v 0.01499700 0.02499194 0.49521172
v 0.03473485 0.01555848 0.48787206
v 0.04498860 0.00691565 0.48181990
v 0.02499006 0.01821198 0.49088717
v 0.04995410 -0.05080068 0.41702855
v 0.04488929 -0.05264188 0.41569707
v 0.04148792 -0.05025915 0.42040676
v 0.03499554 -0.05460222 0.41500384
v 0.00499153 -0.05769978 0.41644534
v 0.00499153 -0.06089481 0.41143852
v 0.03499554 -0.05072487 0.42108902
v 0.00499153 -0.06468552 0.40500122
v 0.00499153 -0.06879033 0.39802471
v -0.00018500 -0.07373992 0.38886940
v -0.00500153 -0.06490214 0.40500122
v -0.00500153 -0.06100312 0.41161460
v -0.00500153 -0.05780809 0.41661039
v -0.01499459 -0.05225198 0.42338884
v -0.05810751 -0.01971682 0.45969093
v -0.06499714 -0.01892619 0.45915172
v -0.07499020 -0.02212122 0.45227426
v -0.07686467 -0.02163384 0.45171306
v -0.02498766 -0.04825549 0.42740530
v -0.02461524 -0.04268855 0.43573529
v -0.02102767 -0.04013253 0.44019189
v -0.03499313 -0.03072073 0.45084372
v -0.05144134 -0.02020420 0.46019709
v -0.07686467 0.00275670 0.46893424
v -0.07057091 -0.00048166 0.47026575
v -0.06499714 0.00499863 0.47516251
v -0.06499714 -0.00261529 0.47141016
v -0.05300547 0.00787958 0.48111564
v -0.05579856 0.01416133 0.48278823
v -0.04591722 0.02437460 0.48908252
v -0.03869242 0.02062721 0.48966572
v -0.03521658 0.02437460 0.49158043
v -0.01340564 0.03680814 0.49987739
v -0.03499313 0.03499943 0.49466151
v -0.03328003 0.03680814 0.49543181
v 0.04995410 0.00343903 0.47834265
v 0.04498860 0.00191191 0.47883782
v -0.00500153 0.03680814 0.50128591
v 0.00499153 0.03221596 0.49901909
v 0.00499153 0.02499194 0.49599302
v 0.01499700 0.01717224 0.49162441
v 0.02499006 0.01320824 0.48827922
v 0.03499554 0.00610336 0.48283225
v 0.04995410 -0.04944685 0.41919634
v 0.04815410 -0.04962014 0.41949344
v 0.03499554 -0.04737820 0.42609581
v 0.04995410 -0.03965598 0.43435979
v 0.04995410 -0.03799890 0.43687969
v 0.04995410 -0.03551869 0.44062105
v 0.02499006 -0.05138553 0.42207938
v 0.00499153 -0.05269604 0.42404908
v -0.00500153 -0.05280434 0.42421415
v -0.01499459 -0.04889449 0.42838463
v -0.05485512 -0.01583946 0.46389443
v -0.05499167 -0.00963352 0.46971554
v -0.06499714 -0.01394411 0.46345428
v -0.07561089 -0.01531960 0.45760018
v -0.07686467 -0.01661927 0.45588356
v -0.07268125 -0.01220038 0.46149558
v -0.01499459 -0.04436730 0.43500903
v -0.01499459 -0.04046828 0.44061005
v -0.02498766 -0.03115395 0.45127290
v -0.04499860 -0.02045331 0.46040618
v -0.00500153 -0.01658678 0.46681049
v -0.07686467 0.00114294 0.46794391
v -0.07496537 -0.00497636 0.46501684
v -0.06499714 -0.00760820 0.46845007
v -0.05499167 -0.00462978 0.47312677
v -0.04499860 0.00656907 0.48208398
v -0.04499860 0.01499529 0.48599041
v -0.03202625 0.01940335 0.49033695
v -0.02498766 0.02499194 0.49358314
v 0.04995410 -0.00445649 0.47328082
v 0.04995410 -0.00944940 0.46961650
v 0.03499554 0.00109961 0.47910193
v 0.04498860 -0.00479224 0.47383103
v -0.02498766 0.01815783 0.49101922
v -0.01499459 0.02499194 0.49516770
v -0.01499459 0.01690147 0.49172348
v -0.00500153 0.02499194 0.49599302
v -0.00500153 0.01646825 0.49196556
v 0.00499153 0.01659822 0.49196556
v 0.00499153 0.01159448 0.48893946
v 0.01499700 0.01216850 0.48857632
v 0.00499153 0.00499863 0.48422977
v 0.00499153 -0.00037335 0.48029035
v 0.04995410 -0.04834213 0.42093498
v 0.04995410 -0.04392324 0.42776841
v 0.04498860 -0.03833465 0.43746293
v 0.04469067 -0.03276771 0.44572690
v 0.02499006 -0.04803887 0.42707518
v 0.04995410 -0.03271356 0.44476956
v 0.01499700 -0.04867788 0.42806554
v 0.00499153 -0.04930606 0.42905587
v -0.00500153 -0.04941436 0.42920995
v -0.04499860 0.00156533 0.47891486
v -0.00500153 -0.01159387 0.47134411
v -0.00500153 -0.00548540 0.47635093
v -0.00500153 -0.00048166 0.48036736
v -0.01129530 -0.00017840 0.48012528
v -0.07686467 -0.01337009 0.45828241
v -0.07686467 -0.00443483 0.46433461
v -0.07686467 -0.00691504 0.46268401
v -0.01499459 -0.03647178 0.44559485
v -0.00500153 -0.04524457 0.43500903
v -0.00500153 -0.04082569 0.44101718
v -0.00500153 -0.03669922 0.44601300
v -0.01499459 -0.03146804 0.45158100
v -0.00500153 -0.02684337 0.45686290
v -0.00500153 -0.02185045 0.46180367
v 0.00499153 -0.02191544 0.46186972
v 0.00499153 -0.01652179 0.46686551
v -0.01499459 0.01189773 0.48875239
v 0.04995410 -0.01504883 0.46416953
v 0.04498860 -0.00979598 0.46979257
v 0.02499006 -0.02111397 0.46098939
v 0.00499153 -0.00537709 0.47626290
v -0.00500153 0.01147534 0.48904949
v -0.00500153 0.00499863 0.48442784
v 0.04116517 -0.03015753 0.45019451
v 0.04995410 -0.02946438 0.44933620
v 0.04783135 -0.02963766 0.44955626
v 0.00499153 -0.04489800 0.43500903
v 0.00499153 -0.01151805 0.47126710
v 0.00499153 -0.04058741 0.44072008
v 0.00499153 -0.03655843 0.44571587
v 0.00499153 -0.03155468 0.45180109
v -0.00500153 -0.03169548 0.45186710
v 0.00499153 -0.02691918 0.45679688
v 0.01499700 -0.02157969 0.46148458
v 0.04995410 -0.02193710 0.45723704
v 0.03499554 -0.02547871 0.45558643
v 0.02499006 -0.02611772 0.45604861
v 0.04995410 -0.02799141 0.45095378
v 0.03499554 -0.03046079 0.45057964
v 0.02499006 -0.03083986 0.45105281
v 0.01499700 -0.02658343 0.45641175
f 1 2 6
f 1 6 13
f 1 13 21
f 1 21 32
f 1 32 48
f 1 48 72
f 1 72 71
f 1 71 75
f 1 75 115
f 1 115 114
f 1 114 113
f 1 113 161
f 1 161 117
f 1 117 78
f 1 78 77
f 1 77 76
f 1 76 50
f 1 50 34
f 1 34 23
f 1 23 15
f 1 15 8
f 1 8 3
f 1 3 4
f 1 4 10
f 1 10 16
f 1 16 25
f 1 25 36
f 1 36 55
f 1 55 90
f 1 90 127
f 1 127 169
f 1 169 209
f 1 209 252
f 1 252 254
f 1 254 253
f 1 253 216
f 1 216 175
f 1 175 136
f 1 136 135
f 1 135 94
f 1 94 57
f 1 57 37
f 1 37 26
f 1 26 17
f 1 17 11
f 1 11 5
f 1 5 2
f 2 5 6
f 3 7 4
f 3 8 9
f 3 9 7
f 4 7 10
f 5 11 19
f 5 19 28
f 5 28 40
f 5 40 61
f 5 61 97
f 5 97 144
f 5 144 186
f 5 186 184
f 5 184 189
f 5 189 147
f 5 147 146
f 5 146 102
f 5 102 99
f 5 99 64
f 5 64 63
f 5 63 42
f 5 42 30
f 5 30 20
f 5 20 12
f 5 12 6
f 6 12 20
f 6 20 29
f 6 29 41
f 6 41 62
f 6 62 98
f 6 98 145
f 6 145 187
f 6 187 224
f 6 224 225
f 6 225 265
f 6 265 282
f 6 282 285
f 6 285 272
f 6 272 243
f 6 243 200
f 6 200 199
f 6 199 198
f 6 198 239
f 6 239 238
f 6 238 195
f 6 195 152
f 6 152 106
f 6 106 67
f 6 67 45
f 6 45 31
f 6 31 22
f 6 22 13
f 7 9 14
f 7 14 10
f 8 15 9
f 9 15 14
f 10 14 16
f 11 17 18
f 11 18 19
f 13 22 21
f 14 15 23
f 14 23 24
f 14 24 16
f 16 24 25
f 17 26 18
f 18 26 27
f 18 27 28
f 18 28 19
f 20 30 29
f 21 22 31
f 21 31 32
f 23 33 24
f 23 34 33
f 24 33 35
f 24 35 36
f 24 36 25
f 26 37 27
f 27 38 39
f 27 39 40
f 27 40 28
f 27 37 38
f 29 30 41
f 30 42 43
f 30 43 44
f 30 44 41
f 31 45 32
f 32 46 47
f 32 47 48
f 32 45 46
f 33 34 49
f 33 49 35
f 34 50 51
f 34 51 49
f 35 49 52
f 35 52 53
f 35 53 54
f 35 54 36
f 36 54 56
f 36 56 55
f 37 57 58
f 37 58 59
f 37 59 38
f 38 59 58
f 38 58 39
f 39 58 60
f 39 60 61
f 39 61 40
f 41 44 62
f 42 63 43
f 43 63 64
f 43 64 65
f 43 65 66
f 43 66 62
f 43 62 44
f 45 67 46
f 46 67 68
f 46 68 69
f 46 69 70
f 46 70 47
f 47 71 72
f 47 72 48
f 47 70 69
f 47 69 73
f 47 73 74
f 47 74 75
f 47 75 71
f 49 51 52
f 50 76 51
f 51 76 77
f 51 77 78
f 51 78 79
f 51 79 80
f 51 80 52
f 52 80 81
f 52 81 82
f 52 82 83
f 52 83 53
f 53 84 85
f 53 85 86
f 53 86 87
f 53 87 54
f 53 83 84
f 54 87 56
f 55 56 88
f 55 88 89
f 55 89 90
f 56 91 92
f 56 92 93
f 56 93 89
f 56 89 88
f 56 87 86
f 56 86 85
f 56 85 91
f 57 94 95
f 57 95 58
f 58 95 60
f 60 95 96
f 60 96 61
f 61 96 97
f 62 66 98
f 64 99 65
f 65 100 101
f 65 101 66
f 65 99 102
f 65 102 100
f 66 101 103
f 66 103 104
f 66 104 105
f 66 105 98
f 67 106 107
f 67 107 68
f 68 107 108
f 68 108 69
f 69 108 109
f 69 109 110
f 69 110 111
f 69 111 73
f 73 111 74
f 74 111 112
f 74 112 113
f 74 113 114
f 74 114 115
f 74 115 75
f 78 116 79
f 78 117 116
f 79 116 81
f 79 81 80
f 81 116 118
f 81 118 119
f 81 119 120
f 81 120 82
f 82 120 83
f 83 120 121
f 83 121 84
f 84 121 85
f 85 121 122
f 85 122 123
f 85 123 91
f 89 93 124
f 89 124 125
f 89 125 90
f 90 125 126
f 90 126 127
f 91 123 128
f 91 128 129
f 91 129 130
f 91 130 131
f 91 131 92
f 92 131 132
f 92 132 133
f 92 133 93
f 93 133 134
f 93 134 124
f 94 135 95
f 95 135 136
f 95 136 137
f 95 137 138
f 95 138 139
f 95 139 140
f 95 140 141
f 95 141 142
f 95 142 96
f 96 142 97
f 97 142 143
f 97 143 144
f 98 105 145
f 100 103 101
f 100 102 146
f 100 146 147
f 100 147 148
f 100 148 103
f 103 149 150
f 103 150 105
f 103 105 104
f 103 148 151
f 103 151 149
f 105 150 145
f 106 152 107
f 107 153 108
f 107 152 153
f 108 153 154
f 108 154 155
f 108 155 109
f 109 156 157
f 109 157 110
f 109 155 158
f 109 158 156
f 110 157 159
f 110 159 160
f 110 160 111
f 111 160 112
f 112 160 118
f 112 118 117
f 112 117 161
f 112 161 113
f 116 117 118
f 118 160 119
f 119 160 162
f 119 162 120
f 120 162 121
f 121 162 163
f 121 163 164
f 121 164 122
f 122 164 165
f 122 165 128
f 122 128 123
f 124 134 125
f 125 134 133
f 125 133 166
f 125 166 167
f 125 167 126
f 126 168 127
f 126 167 168
f 127 168 169
f 128 165 170
f 128 170 129
f 129 170 130
f 130 170 171
f 130 171 172
f 130 172 131
f 131 172 133
f 131 133 132
f 133 172 173
f 133 173 174
f 133 174 166
f 136 175 176
f 136 176 137
f 137 176 177
f 137 177 138
f 138 177 139
f 139 177 178
f 139 178 179
f 139 179 140
f 140 179 180
f 140 180 141
f 141 181 143
f 141 143 142
f 141 180 181
f 143 182 183
f 143 183 184
f 143 184 185
f 143 185 144
f 143 181 182
f 144 185 186
f 145 150 188
f 145 188 187
f 147 189 190
f 147 190 148
f 148 190 191
f 148 191 192
f 148 192 151
f 149 151 150
f 150 151 193
f 150 193 194
f 150 194 188
f 151 192 193
f 152 195 196
f 152 196 153
f 153 196 154
f 154 197 158
f 154 158 155
f 154 196 198
f 154 198 199
f 154 199 200
f 154 200 197
f 156 158 201
f 156 201 202
f 156 202 203
f 156 203 164
f 156 164 163
f 156 163 157
f 157 163 162
f 157 162 159
f 158 197 201
f 159 162 160
f 164 203 165
f 165 203 204
f 165 204 170
f 166 174 205
f 166 205 206
f 166 206 167
f 167 206 207
f 167 207 168
f 168 208 209
f 168 209 169
f 168 207 210
f 168 210 208
f 170 204 171
f 171 204 172
f 172 204 211
f 172 211 212
f 172 212 173
f 173 212 213
f 173 213 174
f 174 213 214
f 174 214 215
f 174 215 206
f 174 206 205
f 175 216 176
f 176 216 217
f 176 217 210
f 176 210 218
f 176 218 178
f 176 178 177
f 178 218 219
f 178 219 179
f 179 219 220
f 179 220 221
f 179 221 180
f 180 221 181
f 181 221 182
f 182 221 222
f 182 222 223
f 182 223 184
f 182 184 183
f 184 186 185
f 184 223 189
f 187 188 224
f 188 225 224
f 188 194 226
f 188 226 227
f 188 227 225
f 189 223 222
f 189 222 228
f 189 228 229
f 189 229 230
f 189 230 231
f 189 231 191
f 189 191 190
f 191 231 232
f 191 232 233
f 191 233 192
f 192 233 234
f 192 234 235
f 192 235 193
f 193 235 194
f 194 235 234
f 194 234 236
f 194 236 237
f 194 237 226
f 195 238 196
f 196 238 239
f 196 239 198
f 197 200 240
f 197 240 241
f 197 241 242
f 197 242 201
f 200 243 240
f 201 242 202
f 202 242 244
f 202 244 245
f 202 245 203
f 203 245 246
f 203 246 204
f 204 246 211
f 206 247 219
f 206 219 218
f 206 218 207
f 206 215 248
f 206 248 249
f 206 249 250
f 206 250 251
f 206 251 247
f 207 218 210
f 208 252 209
f 208 210 252
f 210 217 253
f 210 253 254
f 210 254 252
f 211 246 212
f 212 255 213
f 212 246 256
f 212 256 257
f 212 257 255
f 213 255 258
f 213 258 259
f 213 259 260
f 213 260 261
f 213 261 214
f 214 261 215
f 215 261 262
f 215 262 263
f 215 263 248
f 216 253 217
f 219 247 220
f 220 228 221
f 220 247 264
f 220 264 230
f 220 230 228
f 221 228 222
f 225 227 266
f 225 266 267
f 225 267 265
f 226 237 227
f 227 237 268
f 227 268 266
f 228 230 229
f 230 264 269
f 230 269 232
f 230 232 231
f 232 269 233
f 233 269 234
f 234 269 270
f 234 270 236
f 236 270 237
f 237 270 250
f 237 250 249
f 237 249 268
f 240 243 241
f 241 271 245
f 241 245 244
f 241 244 242
f 241 243 271
f 243 272 273
f 243 273 271
f 245 274 257
f 245 257 256
f 245 256 246
f 245 271 274
f 247 251 270
f 247 270 264
f 248 263 275
f 248 275 249
f 249 275 268
f 250 270 251
f 255 257 258
f 257 274 276
f 257 276 277
f 257 277 278
f 257 278 258
f 258 278 279
f 258 279 259
f 259 279 260
f 260 280 262
f 260 262 261
f 260 279 280
f 262 280 288
f 262 288 281
f 262 281 263
f 263 281 266
f 263 266 275
f 264 270 269
f 265 267 283
f 265 283 271
f 265 271 282
f 266 268 275
f 266 281 267
f 267 281 284
f 267 284 283
f 271 273 285
f 271 285 282
f 271 283 286
f 271 286 274
f 272 285 273
f 274 286 276
f 276 286 287
f 276 287 277
f 277 287 278
f 278 287 288
f 278 288 280
f 278 280 279
f 281 288 284
f 283 284 286
f 284 287 286
f 284 288 287

