# https://github.com/mikedh/trimesh
v -0.08296143 0.03680814 0.45701355
v -0.08296143 0.03680814 0.45729065
v -0.08028854 0.04005984 0.45989382
v -0.07971430 0.04005984 0.45989382
v 0.02369293 0.05127820 0.48829696
v 0.02369293 0.04573625 0.48528039
v 0.02369293 0.04499992 0.48497146
v 0.02369293 0.03680814 0.48274082
v -0.08277349 0.03680814 0.46321025
v -0.08028854 0.04005984 0.46071613
v -0.05032300 0.05009321 0.47985142
v -0.04499812 0.05025892 0.47971514
v -0.03952705 0.05025110 0.47976965
v 0.02369293 0.05145173 0.48903748
v -0.03571611 0.05148300 0.48518044
v 0.02369293 0.03680814 0.49702415
v -0.08213660 0.03680814 0.46546814
v -0.07951592 0.03892956 0.46738532
v -0.07284415 0.04128548 0.47224638
v -0.05032300 0.05009321 0.48040116
v -0.04529046 0.05094053 0.48424003
v -0.01500125 0.05277899 0.49499795
v 0.01499561 0.05196606 0.49499795
v 0.02369293 0.05154241 0.49550223
v -0.03499568 0.05166591 0.49374864
v 0.02369293 0.04666486 0.49952739
v 0.02207458 0.04836731 0.50051779
v 0.01146657 0.03856687 0.50043601
v 0.01322065 0.03680814 0.49942288
v -0.07988135 0.03680814 0.46839386
v -0.07725023 0.03680814 0.47101521
v -0.07500543 0.03680814 0.47319132
v -0.06228834 0.04205620 0.48148239
v -0.04215818 0.05122349 0.49203590
v -0.00500926 0.05210520 0.50213510
v 0.00499318 0.05202235 0.50204420
v 0.02369293 0.05144548 0.49644265
v -0.02276932 0.05065757 0.50055867
v -0.01500125 0.05143923 0.50133550
v 0.02369293 0.05104683 0.49801001
v 0.02207458 0.05061223 0.50051779
v 0.00499318 0.04499992 0.50306642
v 0.01488076 0.04502025 0.50123101
v 0.00968117 0.03680814 0.50004530
v 0.00499318 0.03721773 0.50102204
v -0.06722692 0.03680814 0.47960156
v -0.06350993 0.03680814 0.48225924
v -0.04405843 0.04499992 0.49268100
v -0.03499568 0.04499992 0.49668798
v -0.00500926 0.04499992 0.50342077
v 0.01499561 0.05132198 0.50120831
v -0.02276932 0.04806402 0.50055867
v -0.00500926 0.03680814 0.50128555
v 0.00499318 0.03680814 0.50085849
v -0.04878818 0.03680814 0.49040040
v -0.04305610 0.03680814 0.49266738
v -0.03499568 0.03680814 0.49502975
v -0.01533536 0.04483734 0.50153995
v -0.01221352 0.03802596 0.50079036
v -0.01340379 0.03680814 0.49988174
v -0.03328336 0.03680814 0.49543411
f 1 2 10
f 1 10 3
f 1 3 4
f 1 4 5
f 1 5 6
f 1 6 7
f 1 7 8
f 1 8 16
f 1 16 29
f 1 29 44
f 1 44 54
f 1 54 53
f 1 53 60
f 1 60 61
f 1 61 57
f 1 57 56
f 1 56 55
f 1 55 47
f 1 47 46
f 1 46 32
f 1 32 31
f 1 31 30
f 1 30 17
f 1 17 9
f 1 9 2
f 2 9 10
f 3 10 20
f 3 20 11
f 3 11 12
f 3 12 4
f 4 12 13
f 4 13 5
f 5 14 24
f 5 24 37
f 5 37 40
f 5 40 26
f 5 26 16
f 5 16 8
f 5 8 7
f 5 7 6
f 5 13 15
f 5 15 14
f 9 17 18
f 9 18 10
f 10 18 19
f 10 19 20
f 11 20 21
f 11 21 15
f 11 15 12
f 12 15 13
f 14 22 23
f 14 23 24
f 14 15 22
f 15 21 25
f 15 25 22
f 16 26 27
f 16 27 28
f 16 28 29
f 17 30 18
f 18 30 31
f 18 31 32
f 18 32 19
f 19 32 33
f 19 33 34
f 19 34 20
f 20 34 21
f 21 34 25
f 22 35 36
f 22 36 23
f 22 25 35
f 23 36 24
f 24 36 37
f 25 34 38
f 25 38 39
f 25 39 35
f 26 40 41
f 26 41 27
f 27 41 42
f 27 42 43
f 27 43 28
f 28 44 29
f 28 43 42
f 28 42 45
f 28 45 44
f 32 46 33
f 33 46 47
f 33 47 48
f 33 48 34
f 34 48 49
f 34 49 38
f 35 50 36
f 35 39 50
f 36 50 42
f 36 42 51
f 36 51 37
f 37 51 41
f 37 41 40
f 38 52 50
f 38 50 39
f 38 49 52
f 41 51 42
f 42 50 53
f 42 53 45
f 44 45 54
f 45 53 54
f 47 55 48
f 48 55 49
f 49 55 56
f 49 56 57
f 49 57 52
f 50 52 58
f 50 58 59
f 50 59 53
f 52 57 59
f 52 59 58
f 53 59 60
f 57 61 59
f 59 61 60

