# https://github.com/mikedh/trimesh
v -0.08877473 -0.06488264 0.33499891
v -0.08877473 -0.06457137 0.34499764
v -0.09430663 -0.06204560 0.34499764
v -0.09438109 -0.06218790 0.33499891
v -0.08877473 -0.06440239 0.32498711
v -0.08877473 -0.06376205 0.35499641
v -0.09345786 -0.06162760 0.35499641
v -0.09846114 -0.05915520 0.35499641
v -0.09930247 -0.05957320 0.34499764
v -0.09938437 -0.05959098 0.33499891
v -0.09365144 -0.06192998 0.32498711
v -0.08877473 -0.06304167 0.31500143
v -0.08877473 -0.06241023 0.36499515
v -0.09205069 -0.06094280 0.36499515
v -0.09704652 -0.05856823 0.36499515
v -0.10575014 -0.05301866 0.36489072
v -0.10500561 -0.05483294 0.35499641
v -0.10500561 -0.05572230 0.34499764
v -0.10500561 -0.05570451 0.33499891
v -0.09865472 -0.05919077 0.32498711
v -0.09731456 -0.05852376 0.31500143
v -0.09231873 -0.06121850 0.31500143
v -0.08877473 -0.06211675 0.31068084
v -0.08877473 -0.06086276 0.37253988
v -0.09071797 -0.06031136 0.37128678
v -0.09443320 -0.05764330 0.37477198
v -0.10158819 -0.05116881 0.38499263
v -0.10344209 -0.05251173 0.37499389
v -0.11034393 -0.05027945 0.36149690
v -0.10957706 -0.04964801 0.36815402
v -0.11081299 -0.05067077 0.35499641
v -0.11137883 -0.05114213 0.34499764
v -0.11134161 -0.05110655 0.33499891
v -0.10500561 -0.05479737 0.32498711
v -0.10565336 -0.05296530 0.31532776
v -0.10321873 -0.05238722 0.30500269
v -0.09455233 -0.05761662 0.30492437
v -0.09092644 -0.06047144 0.30820072
v -0.08877473 -0.06124518 0.30689541
v -0.08877473 -0.05944869 0.37786558
v -0.08886408 -0.05938643 0.37794390
v -0.09500650 -0.05450388 0.38499263
v -0.10080643 -0.05059073 0.38885635
v -0.10659147 -0.04714004 0.38499263
v -0.10844536 -0.04869641 0.37499389
v -0.11420807 -0.04641077 0.36489072
v -0.12593451 -0.03661009 0.36499515
v -0.13192801 -0.03160303 0.36499515
v -0.13280657 -0.03233230 0.35499641
v -0.12680562 -0.03733936 0.35499641
v -0.12024625 -0.04019418 0.37064716
v -0.11634488 -0.04694438 0.33499891
v -0.12737146 -0.03781072 0.34499764
v -0.11073853 -0.05060852 0.32498711
v -0.11029182 -0.05023498 0.31887823
v -0.10942815 -0.04951461 0.31220806
v -0.10821456 -0.04850964 0.30500269
v -0.10129037 -0.05096425 0.29500395
v -0.10018846 -0.05013715 0.28970435
v -0.09500650 -0.05456614 0.29500395
v -0.08921401 -0.05950205 0.30153054
v -0.08877473 -0.05927971 0.29992500
v -0.08877473 -0.05935975 0.37813970
v -0.08877473 -0.05694960 0.38520148
v -0.09480547 -0.05325879 0.38885635
v -0.11172132 -0.04142150 0.38885635
v -0.12856272 -0.02878378 0.38499263
v -0.12356688 -0.03296374 0.38499263
v -0.12967208 -0.02970871 0.37911868
v -0.11901777 -0.03917143 0.37731734
v -0.12496661 -0.03496479 0.37488946
v -0.13780241 -0.02792111 0.35499641
v -0.13090056 -0.03074925 0.37244850
v -0.13693130 -0.02704065 0.36499515
v -0.13836825 -0.02846361 0.34499764
v -0.13336498 -0.03280366 0.34499764
v -0.12233840 -0.04194621 0.33499891
v -0.12673861 -0.03727711 0.32498711
v -0.13332775 -0.03277698 0.33499891
v -0.13177910 -0.03147852 0.31500143
v -0.11417829 -0.04623289 0.31532776
v -0.13272467 -0.03227005 0.32498711
v -0.12008990 -0.04006968 0.30976710
v -0.11886887 -0.03904692 0.30309692
v -0.10629366 -0.04689991 0.29500395
v -0.11531743 -0.04285335 0.30586421
v -0.09449276 -0.05152455 0.28582758
v -0.08877473 -0.05442384 0.28571010
v -0.08877473 -0.05723420 0.29324177
v -0.08877473 -0.05787453 0.29500395
v -0.12329140 -0.03273251 0.29500395
v -0.12827979 -0.02854365 0.29500395
v -0.11085766 -0.04070112 0.28866011
v -0.10874318 -0.03894909 0.28198993
v -0.10525130 -0.03765953 0.27404052
v -0.10207959 -0.04172387 0.27674255
v -0.09995766 -0.03996295 0.27007237
v -0.09539366 -0.04535244 0.27452350
v -0.08877473 -0.04853632 0.27259162
v -0.09082220 -0.05043954 0.27898771
v -0.08877473 -0.05609582 0.38745970
v -0.08877473 -0.05556221 0.38885635
v -0.12266599 -0.03220779 0.38885635
v -0.13378191 -0.02378562 0.38499263
v -0.12728956 -0.02820570 0.38885635
v -0.13297036 -0.02297630 0.38885635
v -0.14159954 -0.02204248 0.36499515
v -0.14232919 -0.02292294 0.35499641
v -0.14074332 -0.02096637 0.37256598
v -0.13531566 -0.02533309 0.37584233
v -0.14277591 -0.02346545 0.34499764
v -0.14274612 -0.02342987 0.33499891
v -0.13833103 -0.02842804 0.33499891
v -0.13677494 -0.02691614 0.31500143
v -0.13075165 -0.03062474 0.30796576
v -0.13772795 -0.02784996 0.32498711
v -0.12952317 -0.02957531 0.30129558
v -0.08877473 -0.05241390 0.28110230
v -0.13358833 -0.02354549 0.29500395
v -0.13140684 -0.02140215 0.28500521
v -0.12151941 -0.03125618 0.28761584
v -0.12491449 -0.02682720 0.28457445
v -0.11941238 -0.02950416 0.28094566
v -0.12478048 -0.02238044 0.27593324
v -0.11062685 -0.03051802 0.26925001
v -0.09773894 -0.03810421 0.26500773
v -0.09035315 -0.04024754 0.25962982
v -0.09273566 -0.04191953 0.26500773
v -0.08877473 -0.04764697 0.27094692
v -0.08877473 -0.04025644 0.38885635
v -0.13878518 -0.01810265 0.38499263
v -0.13973075 -0.01960566 0.37922311
v -0.13789919 -0.01675083 0.38885635
v -0.14692296 -0.01410056 0.36429027
v -0.15009469 -0.01016962 0.36047873
v -0.14732501 -0.01563914 0.35499641
v -0.14777173 -0.01637730 0.34499764
v -0.16012359 0.00978748 0.37032086
v -0.14940226 -0.00899567 0.36714891
v -0.14774196 -0.01632394 0.33499891
v -0.14226961 -0.02285179 0.32498711
v -0.14151019 -0.02191797 0.31500143
v -0.14066142 -0.02085075 0.30771777
v -0.13518909 -0.02520858 0.30450666
v -0.13962652 -0.01949893 0.30104756
v -0.13859162 -0.01796035 0.29500395
v -0.13005179 -0.02005922 0.27988836
v -0.12129605 -0.02107309 0.26847988
v -0.11449099 -0.02456825 0.26552987
v -0.10461845 -0.03279477 0.26555598
v -0.10768594 -0.02806341 0.26259288
v -0.08877473 -0.04062108 0.25902936
v -0.08877473 -0.04203515 0.26127452
v -0.10102235 -0.03084708 0.25892496
v -0.09455233 -0.03357740 0.25551808
v -0.09394926 -0.03406654 0.25551808
v -0.09298880 -0.03473356 0.25551808
v -0.08877473 -0.03755280 0.25551808
v -0.14061674 0.01902786 0.38885635
v -0.08877473 -0.01701764 0.25551808
v -0.12467624 0.02592924 0.25551808
v -0.14170377 -0.01310448 0.38499263
v -0.14103369 -0.01189496 0.38885635
v -0.16072665 0.00880029 0.36499515
v -0.16150841 0.00752852 0.35499641
v -0.15038505 -0.01064097 0.35499641
v -0.16195515 0.00679925 0.34499764
v -0.16192536 0.00684372 0.33499891
v -0.15080200 -0.01132577 0.33499891
v -0.15729435 0.01559495 0.38444439
v -0.16024271 0.01933913 0.38073727
v -0.16094257 0.01559495 0.37419763
v -0.16284114 0.01499909 0.36499515
v -0.14909701 0.00152538 0.38722473
v -0.15136039 0.00696822 0.38885635
v -0.14726545 -0.01554131 0.32498711
v -0.14684106 -0.01406498 0.31582379
v -0.14306627 -0.01571029 0.30463719
v -0.14937994 -0.00898677 0.31304345
v -0.14180055 -0.01296218 0.29500395
v -0.14066142 -0.01111233 0.28866011
v -0.13652925 -0.01466974 0.28520101
v -0.13182378 -0.01459859 0.27593324
v -0.13065486 -0.01099671 0.26900202
v -0.12795220 -0.01766686 0.27323124
v -0.12481771 -0.01478536 0.26541239
v -0.12166832 -0.01190385 0.25777626
v -0.11835513 -0.01857400 0.26180971
v -0.11169154 -0.02140215 0.25820702
v -0.10546722 -0.02448821 0.25551808
v -0.14196436 0.02043303 0.38885635
v -0.12472836 0.02596482 0.25551808
v -0.16409196 0.01499909 0.35499641
v -0.16482159 0.01499909 0.34499764
v -0.16477692 0.01499909 0.33499891
v -0.16144885 0.00762635 0.32498711
v -0.15032549 -0.01054314 0.32498711
v -0.15517986 0.01551491 0.38885635
v -0.16024271 0.02031742 0.38073727
v -0.16108403 0.02111784 0.37499389
v -0.15005746 -0.01010736 0.31970057
v -0.16011614 0.00979637 0.30958435
v -0.14833759 -0.00727922 0.30500269
v -0.15043718 -0.00072468 0.29856747
v -0.16068943 0.00885365 0.31500143
v -0.14938737 0.00100066 0.29189730
v -0.15141252 0.00766192 0.28717205
v -0.13899367 -0.00837312 0.28198993
v -0.13934359 0.00103624 0.27127326
v -0.15006490 0.01986385 0.26988962
v -0.14139850 0.00770639 0.26793164
v -0.12833191 -0.00727922 0.26234487
v -0.13740036 -0.00502026 0.27477151
v -0.12489216 -0.00472677 0.25551808
v -0.12450500 -0.00528707 0.25551808
v -0.11711176 -0.01439404 0.25551808
v -0.11571947 -0.01574586 0.25551808
v -0.11446121 -0.01683087 0.25551808
v -0.14558280 0.02268310 0.38885635
v -0.13501039 0.02597371 0.25551808
v -0.16211149 0.02188268 0.36499515
v -0.16287091 0.02204277 0.34499764
v -0.16284858 0.02204277 0.33499891
v -0.16258800 0.02203387 0.35499641
v -0.16254333 0.02203387 0.32498711
v -0.16210404 0.02192715 0.31500143
v -0.16399516 0.01499909 0.32498711
v -0.15512030 0.01827191 0.38885635
v -0.15401839 0.02212281 0.38885635
v -0.15539578 0.02222064 0.38444439
v -0.16114360 0.01512359 0.30575979
v -0.16056286 0.01854761 0.29777122
v -0.15914080 0.01187745 0.30292723
v -0.15259632 0.00459365 0.29514754
v -0.15660194 0.00587432 0.30575979
v -0.16280392 0.01499909 0.31500143
v -0.15807611 0.01512359 0.29466456
v -0.15353444 0.01424314 0.28431338
v -0.15122639 0.01771161 0.27500647
v -0.14833759 0.01270455 0.27500647
v -0.14103369 -0.00170297 0.27794343
v -0.15006490 0.02013955 0.26988962
v -0.14108580 0.01816519 0.25850725
v -0.14457768 0.01568389 0.26556903
v -0.13907556 0.01150393 0.26126146
v -0.13037194 -0.00060907 0.25951234
v -0.12562925 -0.00352615 0.25551808
v -0.13713977 0.01655545 0.25551808
v -0.14108580 0.02245187 0.25850725
v -0.14465213 0.02327007 0.26593450
v -0.15335575 0.02298548 0.28500521
v -0.16133717 0.02144690 0.30500269
v -0.16056286 0.02069984 0.29777122
v -0.15122639 0.02154473 0.27500647
v -0.13713977 0.01531036 0.25551808
v -0.13614209 0.01367395 0.25551808
v -0.13407227 0.01028551 0.25551808
f 1 2 3
f 1 3 4
f 1 4 5
f 1 5 12
f 1 12 23
f 1 23 39
f 1 39 62
f 1 62 90
f 1 90 89
f 1 89 88
f 1 88 118
f 1 118 99
f 1 99 129
f 1 129 153
f 1 153 152
f 1 152 158
f 1 158 160
f 1 160 130
f 1 130 102
f 1 102 101
f 1 101 64
f 1 64 63
f 1 63 40
f 1 40 24
f 1 24 13
f 1 13 6
f 1 6 2
f 2 6 7
f 2 7 3
f 3 7 8
f 3 8 9
f 3 9 4
f 4 9 10
f 4 10 11
f 4 11 5
f 5 11 12
f 6 13 14
f 6 14 7
f 7 14 15
f 7 15 8
f 8 15 16
f 8 16 17
f 8 17 9
f 9 17 18
f 9 18 10
f 10 18 19
f 10 19 20
f 10 20 11
f 11 20 21
f 11 21 22
f 11 22 12
f 12 22 23
f 13 24 25
f 13 25 14
f 14 25 15
f 15 25 26
f 15 26 27
f 15 27 28
f 15 28 16
f 16 29 17
f 16 28 30
f 16 30 29
f 17 29 31
f 17 31 18
f 18 31 32
f 18 32 19
f 19 32 33
f 19 33 34
f 19 34 20
f 20 34 35
f 20 35 21
f 21 35 36
f 21 36 37
f 21 37 38
f 21 38 22
f 22 38 23
f 23 38 39
f 24 40 25
f 25 40 41
f 25 41 26
f 26 41 42
f 26 42 43
f 26 43 27
f 27 44 45
f 27 45 28
f 27 43 44
f 28 45 30
f 29 30 46
f 29 46 47
f 29 47 48
f 29 48 49
f 29 49 50
f 29 50 31
f 30 45 51
f 30 51 48
f 30 48 47
f 30 47 46
f 31 50 53
f 31 53 32
f 32 52 33
f 32 53 52
f 33 54 34
f 33 52 54
f 34 54 55
f 34 55 35
f 35 55 56
f 35 56 36
f 36 56 57
f 36 57 58
f 36 58 37
f 37 58 59
f 37 59 60
f 37 60 61
f 37 61 38
f 38 61 39
f 39 61 62
f 40 63 41
f 41 63 42
f 42 63 64
f 42 64 65
f 42 65 43
f 43 65 102
f 43 102 130
f 43 130 159
f 43 159 191
f 43 191 219
f 43 219 229
f 43 229 228
f 43 228 198
f 43 198 175
f 43 175 163
f 43 163 133
f 43 133 106
f 43 106 105
f 43 105 103
f 43 103 66
f 43 66 67
f 43 67 68
f 43 68 44
f 44 69 70
f 44 70 45
f 44 68 69
f 45 70 71
f 45 71 51
f 48 72 49
f 48 51 73
f 48 73 74
f 48 74 72
f 49 72 75
f 49 75 76
f 49 76 53
f 49 53 50
f 51 71 73
f 52 77 78
f 52 78 54
f 52 53 77
f 53 76 79
f 53 79 77
f 54 78 55
f 55 80 81
f 55 81 56
f 55 78 82
f 55 82 80
f 56 81 80
f 56 80 83
f 56 83 57
f 57 84 85
f 57 85 58
f 57 83 86
f 57 86 84
f 58 85 59
f 59 87 88
f 59 88 89
f 59 89 90
f 59 90 60
f 59 85 91
f 59 91 92
f 59 92 93
f 59 93 94
f 59 94 95
f 59 95 96
f 59 96 97
f 59 97 98
f 59 98 99
f 59 99 100
f 59 100 87
f 60 90 62
f 60 62 61
f 64 101 65
f 65 101 102
f 66 103 67
f 67 104 69
f 67 69 68
f 67 103 105
f 67 105 106
f 67 106 104
f 69 73 71
f 69 71 70
f 69 104 73
f 72 74 107
f 72 107 108
f 72 108 75
f 73 109 74
f 73 104 110
f 73 110 109
f 74 109 107
f 75 111 112
f 75 112 113
f 75 113 79
f 75 79 76
f 75 108 111
f 77 79 78
f 78 79 82
f 79 113 82
f 80 114 115
f 80 115 83
f 80 82 116
f 80 116 114
f 82 113 116
f 83 115 84
f 83 84 86
f 84 115 117
f 84 117 91
f 84 91 85
f 87 100 88
f 88 100 118
f 91 117 92
f 92 117 119
f 92 119 120
f 92 120 121
f 92 121 93
f 93 121 122
f 93 122 123
f 93 123 94
f 94 123 95
f 95 123 124
f 95 124 97
f 95 97 96
f 97 125 126
f 97 126 127
f 97 127 128
f 97 128 98
f 97 124 125
f 98 128 99
f 99 118 100
f 99 128 129
f 104 131 132
f 104 132 109
f 104 109 110
f 104 106 131
f 106 133 131
f 107 109 134
f 107 134 135
f 107 135 136
f 107 136 108
f 108 136 137
f 108 137 111
f 109 138 139
f 109 139 134
f 109 132 138
f 111 137 112
f 112 140 141
f 112 141 113
f 112 137 140
f 113 141 116
f 114 142 143
f 114 143 144
f 114 144 115
f 114 116 142
f 115 144 117
f 116 141 142
f 117 144 119
f 119 144 143
f 119 143 145
f 119 145 146
f 119 146 120
f 120 122 121
f 120 146 147
f 120 147 122
f 122 147 124
f 122 124 123
f 124 147 148
f 124 148 125
f 125 148 149
f 125 149 150
f 125 150 126
f 126 150 151
f 126 151 127
f 127 152 153
f 127 153 129
f 127 129 128
f 127 151 154
f 127 154 155
f 127 155 156
f 127 156 157
f 127 157 158
f 127 158 152
f 130 160 161
f 130 161 159
f 131 162 138
f 131 138 132
f 131 133 163
f 131 163 162
f 134 139 164
f 134 164 135
f 135 165 166
f 135 166 136
f 135 164 165
f 136 166 137
f 137 167 168
f 137 168 169
f 137 169 140
f 137 166 165
f 137 165 167
f 138 170 171
f 138 171 172
f 138 172 173
f 138 173 164
f 138 164 139
f 138 162 163
f 138 163 174
f 138 174 175
f 138 175 170
f 140 169 197
f 140 197 176
f 140 176 141
f 141 176 142
f 142 177 143
f 142 176 177
f 143 178 145
f 143 177 179
f 143 179 178
f 145 180 146
f 145 178 180
f 146 180 181
f 146 181 182
f 146 182 147
f 147 183 184
f 147 184 185
f 147 185 148
f 147 182 183
f 148 186 187
f 148 187 188
f 148 188 149
f 148 185 186
f 149 188 151
f 149 151 150
f 151 188 154
f 154 189 190
f 154 190 155
f 154 188 189
f 155 190 218
f 155 218 217
f 155 217 216
f 155 216 215
f 155 215 214
f 155 214 247
f 155 247 257
f 155 257 256
f 155 256 255
f 155 255 248
f 155 248 220
f 155 220 192
f 155 192 161
f 155 161 160
f 155 160 158
f 155 158 157
f 155 157 156
f 159 161 191
f 161 192 191
f 163 175 174
f 164 173 193
f 164 193 165
f 165 193 194
f 165 194 167
f 167 194 195
f 167 195 168
f 168 195 196
f 168 196 197
f 168 197 169
f 170 175 198
f 170 198 171
f 171 198 199
f 171 199 173
f 171 173 172
f 173 199 200
f 173 200 193
f 176 197 201
f 176 201 177
f 177 201 179
f 178 179 202
f 178 202 203
f 178 203 204
f 178 204 180
f 179 201 205
f 179 205 202
f 180 204 206
f 180 206 181
f 181 206 207
f 181 207 208
f 181 208 184
f 181 184 183
f 181 183 182
f 184 209 210
f 184 210 211
f 184 211 212
f 184 212 187
f 184 187 186
f 184 186 185
f 184 208 213
f 184 213 209
f 187 214 215
f 187 215 216
f 187 216 217
f 187 217 188
f 187 212 214
f 188 217 189
f 189 217 218
f 189 218 190
f 191 192 219
f 192 220 219
f 193 200 221
f 193 221 194
f 194 222 223
f 194 223 195
f 194 221 224
f 194 224 222
f 195 223 225
f 195 225 226
f 195 226 227
f 195 227 196
f 196 227 205
f 196 205 201
f 196 201 197
f 198 228 199
f 199 228 229
f 199 229 200
f 200 229 230
f 200 230 221
f 202 231 232
f 202 232 233
f 202 233 234
f 202 234 235
f 202 235 203
f 202 205 236
f 202 236 231
f 203 235 204
f 204 234 206
f 204 235 234
f 205 227 236
f 206 234 207
f 207 234 237
f 207 237 238
f 207 238 239
f 207 239 210
f 207 210 240
f 207 240 209
f 207 209 241
f 207 241 208
f 208 241 209
f 208 209 213
f 209 240 210
f 210 239 238
f 210 238 237
f 210 237 232
f 210 232 253
f 210 253 242
f 210 242 249
f 210 249 243
f 210 243 244
f 210 244 211
f 211 244 245
f 211 245 212
f 212 245 246
f 212 246 214
f 214 246 247
f 219 220 230
f 219 230 229
f 220 248 249
f 220 249 250
f 220 250 251
f 220 251 226
f 220 226 225
f 220 225 223
f 220 223 222
f 220 222 224
f 220 224 230
f 221 230 224
f 226 251 252
f 226 252 227
f 227 252 253
f 227 253 236
f 231 236 232
f 232 237 233
f 232 236 253
f 233 237 234
f 242 253 254
f 242 254 250
f 242 250 249
f 243 245 244
f 243 249 248
f 243 248 255
f 243 255 245
f 245 255 256
f 245 256 257
f 245 257 247
f 245 247 246
f 250 254 251
f 251 253 252
f 251 254 253

