# https://github.com/mikedh/trimesh
v 0.16594960 0.03499639 0.33499694
v 0.16423629 0.02499619 0.33499694
v 0.16548233 0.03499639 0.32500815
v 0.16539890 0.03680668 0.33301377
v 0.16543227 0.03680668 0.33502129
v 0.16332957 0.04402057 0.34499791
v 0.16533214 0.03680668 0.34499791
v 0.16583279 0.03499639 0.34498572
v 0.16405272 0.02499619 0.34498572
v 0.16154395 0.01601565 0.34498572
v 0.16163851 0.01581935 0.33499694
v 0.16135481 0.01655001 0.32500815
v 0.16366890 0.02499619 0.32500815
v 0.16446435 0.03499639 0.31500718
v 0.16410835 0.03680668 0.31500718
v 0.16491494 0.03680668 0.32295200
v 0.16502063 0.03680668 0.32500815
v 0.16335182 0.04401511 0.33502129
v 0.16316825 0.04404783 0.32500815
v 0.14186315 0.04474577 0.39823902
v 0.16292906 0.04393878 0.35498670
v 0.16493163 0.03499639 0.35498670
v 0.16305700 0.02499619 0.35498670
v 0.16104887 0.01724249 0.35498670
v 0.15942456 0.01101554 0.34498572
v 0.15895173 0.01225330 0.35498670
v 0.15949687 0.01083015 0.33499694
v 0.15918536 0.01155536 0.32500815
v 0.16078742 0.01798406 0.31500718
v 0.16255079 0.02499619 0.31500718
v 0.16024227 0.01937449 0.30906987
v 0.16238391 0.03499639 0.30500624
v 0.16190553 0.03680668 0.30282840
v 0.16069841 0.04132695 0.29736561
v 0.16381353 0.03680668 0.31267118
v 0.16167189 0.04271192 0.30501840
v 0.16271211 0.04375884 0.31500718
v 0.15653196 0.04404783 0.32500815
v 0.13634497 0.04433137 0.39823902
v 0.14449431 0.04436409 0.39823902
v 0.14549004 0.04452766 0.39519736
v 0.15584776 0.04375884 0.31500718
v 0.16208909 0.04336625 0.36498764
v 0.15283835 0.04398785 0.38498956
v 0.16298468 0.03680668 0.36498764
v 0.16322944 0.03499639 0.36498764
v 0.16122131 0.02485988 0.36534047
v 0.16052042 0.01861112 0.36225015
v 0.15617040 0.00500670 0.34498572
v 0.15520248 0.00500670 0.35498670
v 0.15838990 0.01517048 0.36534047
v 0.15377288 0.00500670 0.36498764
v 0.15173693 -0.00306325 0.34498572
v 0.15628721 0.00500670 0.33499694
v 0.15560856 0.00500670 0.32500815
v 0.15430689 0.00500670 0.31500718
v 0.15859017 0.01299486 0.31500718
v 0.15748319 0.01562851 0.30544424
v 0.15416783 0.01500145 0.29500526
v 0.15427351 0.02499619 0.28500432
v 0.15807839 0.02583045 0.29589343
v 0.15925768 0.02305504 0.30240259
v 0.16071510 0.02583045 0.30544424
v 0.16004759 0.02972366 0.29979891
v 0.16056491 0.03499639 0.29787660
v 0.16060385 0.03680668 0.29773059
v 0.15909080 0.03499639 0.29287612
v 0.15628721 0.03499639 0.28500432
v 0.15180369 0.03680668 0.27394485
v 0.15936337 0.04176861 0.29656261
v 0.15548618 0.04295730 0.29656261
v 0.13292949 0.03680668 0.39823902
v 0.14830475 0.04243384 0.29656261
v 0.13632272 0.03680668 0.27394485
v 0.10912675 -0.01095872 0.27394485
v 0.14684732 0.03680668 0.39823902
v 0.15114172 0.04236295 0.39200971
v 0.16099325 0.04191583 0.37208080
v 0.16100994 0.03680668 0.37211728
v 0.16100994 0.03499639 0.37212944
v 0.16035353 0.02810422 0.37075463
v 0.15962481 0.02143560 0.36890531
v 0.15124741 -0.00222354 0.35498670
v 0.15492991 0.01500145 0.37498862
v 0.15129748 0.00561740 0.37403962
v 0.15001807 -0.00004247 0.37006113
v 0.15049645 -0.00090400 0.36498764
v 0.14720890 -0.01095872 0.34498572
v 0.15178142 -0.00313959 0.33499694
v 0.14633000 -0.01095872 0.35498670
v 0.14685290 -0.01095872 0.34914672
v 0.15141986 -0.00246346 0.32500815
v 0.15070783 -0.00120934 0.31500718
v 0.15012932 -0.00022786 0.30954438
v 0.15200394 0.00485403 0.30573621
v 0.15090252 0.00845279 0.29500526
v 0.15007925 0.00985412 0.28981012
v 0.15132529 0.01554126 0.28589249
v 0.15037407 0.01922727 0.27909133
v 0.15111947 0.02499619 0.27729067
v 0.15203732 0.03469104 0.27439502
v 0.15190381 0.03495277 0.27394485
v 0.15190381 0.03520360 0.27394485
v 0.12086958 -0.01095872 0.38885856
v 0.13002020 -0.01095872 0.27394485
v 0.14900009 0.03680668 0.39592737
v 0.13739076 -0.01095872 0.38885856
v 0.13838647 -0.00888125 0.38885856
v 0.13894275 -0.00761078 0.38885856
v 0.14271425 0.00102625 0.38885856
v 0.14458331 0.00561740 0.38885856
v 0.14768173 0.01348015 0.38885856
v 0.14824356 0.01500145 0.38885856
v 0.14939503 0.01812038 0.38885856
v 0.15121961 0.03680668 0.39215571
v 0.15480754 0.03499639 0.38498956
v 0.15245451 0.02434733 0.38585341
v 0.15042970 0.02144651 0.38885856
v 0.15791708 0.02485988 0.37444112
v 0.14772066 -0.00590410 0.36498764
v 0.14491707 -0.01095872 0.36491466
v 0.14571810 -0.01095872 0.35936669
v 0.15129748 0.01500145 0.38272658
v 0.15026282 0.00936338 0.38053659
v 0.14886102 0.00269477 0.37672845
v 0.14056149 -0.01095872 0.38135174
v 0.14058930 -0.01095872 0.38127875
v 0.14258631 -0.01095872 0.37479395
v 0.14318152 -0.01095872 0.37233630
v 0.14725341 -0.01095872 0.33909708
v 0.14726453 -0.01095872 0.33499694
v 0.14685845 -0.01095872 0.32964364
v 0.14851613 -0.00746356 0.32500815
v 0.14647463 -0.01095872 0.32500815
v 0.14502276 -0.01095872 0.31515318
v 0.14411604 -0.01095872 0.31144238
v 0.14256962 -0.01095872 0.30515224
v 0.14916140 0.00141884 0.30287707
v 0.13951570 -0.00917025 0.29153779
v 0.14052811 -0.01095872 0.29818076
v 0.14145708 -0.00250163 0.28680497
v 0.14500608 0.00497944 0.28497997
v 0.14855507 0.01256956 0.28315499
v 0.14664151 0.01554126 0.27545351
v 0.14574036 0.01543766 0.27394485
v 0.14927267 0.02358395 0.27394485
v 0.14965092 0.02499619 0.27394485
v 0.15039632 0.02808241 0.27394485
v 0.15176475 0.03428755 0.27394485
v 0.13032058 -0.01054977 0.27394485
v 0.13057646 -0.01095872 0.27494252
v 0.15289398 0.03499639 0.38885856
v 0.15130304 0.02607583 0.38885856
v 0.15200394 0.02994177 0.38885856
v 0.13915969 -0.00801973 0.38799474
v 0.14884433 0.01500145 0.38772705
v 0.13879256 -0.01095872 0.29265711
v 0.13535482 -0.01095872 0.28460282
v 0.13840874 -0.00550060 0.28409183
v 0.13991621 0.00010475 0.28013766
v 0.14164622 0.00719867 0.27500334
v 0.14138477 0.00764579 0.27394485
v 0.13302405 -0.00614947 0.27394485
v 0.13165006 -0.01095872 0.27704734
v 0.13864237 0.00219857 0.27500334
v 0.13366932 -0.00557694 0.27452886
f 1 2 3
f 1 3 4
f 1 4 5
f 1 5 6
f 1 6 7
f 1 7 8
f 1 8 2
f 2 8 9
f 2 9 10
f 2 10 11
f 2 11 12
f 2 12 13
f 2 13 3
f 3 13 14
f 3 14 15
f 3 15 16
f 3 16 17
f 3 17 4
f 4 18 5
f 4 17 19
f 4 19 18
f 5 18 6
f 6 18 19
f 6 19 20
f 6 20 21
f 6 21 7
f 7 21 8
f 8 21 22
f 8 22 9
f 9 22 23
f 9 23 24
f 9 24 10
f 10 25 11
f 10 24 26
f 10 26 25
f 11 25 27
f 11 27 12
f 12 28 29
f 12 29 13
f 12 27 28
f 13 29 30
f 13 30 14
f 14 30 31
f 14 31 32
f 14 32 33
f 14 33 34
f 14 34 35
f 14 35 15
f 15 35 36
f 15 36 37
f 15 37 16
f 16 37 19
f 16 19 17
f 19 37 42
f 19 42 38
f 19 38 20
f 20 39 72
f 20 72 76
f 20 76 40
f 20 40 41
f 20 41 21
f 20 38 42
f 20 42 39
f 21 43 22
f 21 41 44
f 21 44 43
f 22 43 45
f 22 45 46
f 22 46 23
f 23 46 47
f 23 47 48
f 23 48 24
f 24 48 26
f 25 49 27
f 25 26 50
f 25 50 49
f 26 48 51
f 26 51 52
f 26 52 50
f 27 49 53
f 27 53 54
f 27 54 55
f 27 55 28
f 28 55 56
f 28 56 57
f 28 57 29
f 29 57 31
f 29 31 30
f 31 57 58
f 31 58 59
f 31 59 60
f 31 60 61
f 31 61 62
f 31 62 63
f 31 63 32
f 32 63 64
f 32 64 65
f 32 65 33
f 33 65 66
f 33 66 34
f 34 67 68
f 34 68 69
f 34 69 70
f 34 70 36
f 34 36 35
f 34 66 67
f 36 70 71
f 36 71 37
f 37 71 42
f 39 42 73
f 39 73 74
f 39 74 75
f 39 75 72
f 40 76 77
f 40 77 44
f 40 44 41
f 42 71 73
f 43 44 78
f 43 78 45
f 44 77 78
f 45 78 46
f 46 78 79
f 46 79 80
f 46 80 81
f 46 81 82
f 46 82 47
f 47 82 48
f 48 82 51
f 49 50 83
f 49 83 53
f 50 52 83
f 51 82 84
f 51 84 85
f 51 85 86
f 51 86 52
f 52 86 87
f 52 87 83
f 53 88 89
f 53 89 54
f 53 83 90
f 53 90 91
f 53 91 88
f 54 89 55
f 55 92 56
f 55 89 92
f 56 92 93
f 56 93 94
f 56 94 95
f 56 95 57
f 57 95 58
f 58 95 96
f 58 96 59
f 59 96 97
f 59 97 98
f 59 98 99
f 59 99 60
f 60 68 67
f 60 67 61
f 60 99 100
f 60 100 101
f 60 101 68
f 61 67 64
f 61 64 62
f 62 64 63
f 64 67 65
f 65 67 66
f 68 101 102
f 68 102 103
f 68 103 69
f 69 103 102
f 69 102 149
f 69 149 148
f 69 148 147
f 69 147 146
f 69 146 145
f 69 145 162
f 69 162 163
f 69 163 150
f 69 150 105
f 69 105 75
f 69 75 74
f 69 74 71
f 69 71 70
f 71 74 73
f 72 104 107
f 72 107 76
f 72 75 104
f 75 105 151
f 75 151 164
f 75 164 158
f 75 158 157
f 75 157 140
f 75 140 137
f 75 137 136
f 75 136 135
f 75 135 134
f 75 134 132
f 75 132 131
f 75 131 130
f 75 130 88
f 75 88 91
f 75 91 90
f 75 90 122
f 75 122 121
f 75 121 129
f 75 129 128
f 75 128 127
f 75 127 126
f 75 126 107
f 75 107 104
f 76 106 77
f 76 107 108
f 76 108 109
f 76 109 110
f 76 110 111
f 76 111 112
f 76 112 113
f 76 113 114
f 76 114 106
f 77 106 115
f 77 115 116
f 77 116 78
f 78 116 79
f 79 116 80
f 80 116 117
f 80 117 81
f 81 117 118
f 81 118 119
f 81 119 82
f 82 119 118
f 82 118 84
f 83 87 120
f 83 120 121
f 83 121 122
f 83 122 90
f 84 118 114
f 84 114 123
f 84 123 124
f 84 124 85
f 85 124 125
f 85 125 126
f 85 126 127
f 85 127 86
f 86 121 120
f 86 120 87
f 86 127 128
f 86 128 129
f 86 129 121
f 88 130 89
f 89 130 131
f 89 131 92
f 92 131 132
f 92 132 133
f 92 133 93
f 93 133 134
f 93 134 135
f 93 135 94
f 94 136 137
f 94 137 95
f 94 135 136
f 95 137 138
f 95 138 96
f 96 139 97
f 96 138 140
f 96 140 139
f 97 139 141
f 97 141 142
f 97 142 143
f 97 143 99
f 97 99 98
f 99 144 145
f 99 145 146
f 99 146 147
f 99 147 100
f 99 143 144
f 100 147 148
f 100 148 149
f 100 149 101
f 101 149 102
f 105 150 151
f 106 152 115
f 106 114 118
f 106 118 153
f 106 153 154
f 106 154 152
f 107 126 108
f 108 126 155
f 108 155 124
f 108 124 109
f 109 124 110
f 110 124 111
f 111 124 112
f 112 124 156
f 112 156 113
f 113 156 114
f 114 156 123
f 115 152 116
f 116 152 154
f 116 154 153
f 116 153 117
f 117 153 118
f 123 156 124
f 124 155 125
f 125 155 126
f 132 134 133
f 137 140 138
f 139 140 157
f 139 157 158
f 139 158 141
f 141 158 159
f 141 159 160
f 141 160 142
f 142 160 161
f 142 161 143
f 143 161 144
f 144 161 162
f 144 162 145
f 150 163 164
f 150 164 151
f 158 164 160
f 158 160 159
f 160 164 165
f 160 165 161
f 161 165 162
f 162 165 163
f 163 165 166
f 163 166 164
f 164 166 165

