# https://github.com/mikedh/trimesh
v -0.08876729 -0.01701658 0.25551805
v -0.08876729 -0.03756259 0.25551805
v -0.08876729 -0.04900838 0.32497475
v 0.03966898 -0.06912792 0.32497475
v 0.03966898 -0.04018329 0.25551805
v -0.08876729 -0.04063039 0.25901943
v -0.08499567 -0.04008012 0.25551805
v -0.08876729 -0.06439553 0.32497475
v 0.03966898 -0.08304308 0.32497475
v 0.03966898 -0.05740700 0.25551805
v -0.08876729 -0.04204048 0.26126304
v -0.08499567 -0.04152460 0.25757807
v -0.07909937 -0.04287966 0.25551805
v -0.07410826 -0.07205816 0.32497475
v -0.08876729 -0.06304735 0.31499410
v -0.07282591 -0.07150100 0.31499410
v 0.03966898 -0.08273356 0.31966487
v 0.02499737 -0.08497594 0.32497475
v 0.02499737 -0.08439814 0.31499410
v 0.03966898 -0.05969065 0.25868630
v 0.03648824 -0.05815675 0.25551805
v -0.08470652 -0.04660779 0.26546472
v -0.08783696 -0.04898775 0.27231792
v -0.08876729 -0.04765332 0.27093777
v -0.08117376 -0.05054916 0.26910210
v -0.05499871 -0.06157536 0.26750436
v -0.06061843 -0.06028908 0.26951680
v -0.07547861 -0.04450986 0.25551805
v -0.05499871 -0.05834247 0.26250723
v -0.06499351 -0.07640535 0.32497475
v -0.06499351 -0.07552491 0.31499410
v -0.08876729 -0.06211876 0.31066325
v -0.07124183 -0.07065494 0.30777374
v -0.08876729 -0.06124519 0.30688310
v 0.03966898 -0.08245841 0.31499410
v 0.03499217 -0.08307748 0.31499410
v 0.01499000 -0.08621407 0.32497475
v 0.01499000 -0.08566378 0.31499410
v 0.03966898 -0.08076631 0.30635959
v 0.00499521 -0.08496906 0.30499983
v 0.03966898 -0.06026157 0.25958374
v 0.03499217 -0.05837686 0.25551805
v 0.03499217 -0.06061237 0.25903982
v -0.08064573 -0.06032348 0.28936255
v -0.08876729 -0.05241323 0.28110200
v -0.08876729 -0.04854064 0.27258986
v -0.06076929 -0.07037981 0.28925377
v -0.05421925 -0.06644532 0.27580571
v -0.04837323 -0.05965626 0.26048797
v -0.05037219 -0.07015282 0.27966744
v -0.07435970 -0.04500511 0.25551805
v -0.05487299 -0.05359633 0.25551805
v -0.05396780 -0.05396776 0.25551805
v -0.05748798 -0.07902606 0.31499410
v -0.05854403 -0.07934934 0.32497475
v -0.06562211 -0.07270473 0.30465987
v -0.08552369 -0.06240077 0.30491143
v -0.08876729 -0.05984886 0.30193356
v 0.00499521 -0.08720456 0.32497475
v 0.00499521 -0.08679186 0.31499410
v 0.03966898 -0.07751279 0.29537269
v 0.01499000 -0.08366215 0.30499983
v 0.02499737 -0.08234148 0.30499983
v 0.03088110 -0.08011285 0.29956758
v -0.00501216 -0.08516853 0.30499983
v -0.00501216 -0.08240338 0.29499876
v 0.00499521 -0.08219703 0.29499876
v 0.02499737 -0.08050492 0.29818061
v 0.03966898 -0.06323307 0.26485282
v 0.03499217 -0.06420293 0.26500240
v 0.02917130 -0.05914725 0.25551805
v 0.02499737 -0.06127270 0.25799963
v 0.00499521 -0.06759402 0.26394859
v -0.08239325 -0.06121768 0.29499876
v -0.08739693 -0.05860386 0.29499876
v -0.08876729 -0.05787474 0.29499876
v -0.08876729 -0.05724192 0.29323107
v -0.08876729 -0.05442174 0.28570479
v -0.06260481 -0.07135655 0.29499876
v -0.05421925 -0.07136343 0.28555521
v -0.05499871 -0.07458944 0.29499876
v -0.04519249 -0.05693926 0.25551805
v -0.04502906 -0.05699429 0.25551805
v -0.04502906 -0.05711123 0.25568801
v -0.04171003 -0.06033035 0.25948176
v -0.04502906 -0.06265528 0.26429531
v -0.04499134 -0.06806864 0.27381366
v -0.04499134 -0.07056553 0.27881080
v -0.04499134 -0.07350264 0.28500450
v -0.05449583 -0.07785671 0.30539417
v -0.05082478 -0.08026418 0.30899072
v -0.05248430 -0.08075943 0.31499410
v -0.05356549 -0.08104832 0.32497475
v -0.08876729 -0.05927794 0.29992113
v -0.00501216 -0.08728711 0.32497475
v -0.00501216 -0.08692254 0.31499410
v 0.03966898 -0.07542861 0.28967530
v 0.03452700 -0.07838635 0.29573983
v 0.02499737 -0.07897103 0.29318348
v 0.01027547 -0.08003031 0.28992686
v -0.01500696 -0.08600771 0.31499410
v -0.01500696 -0.08408174 0.30499983
v -0.01483095 -0.08120653 0.29450926
v -0.00501216 -0.08047053 0.28896821
v 0.00499521 -0.08036736 0.28919259
v -0.01137363 -0.08016788 0.28962770
v 0.01416024 -0.08095203 0.29480159
v 0.03966898 -0.06831627 0.27402443
v 0.03499217 -0.06858452 0.27287543
v 0.01139439 -0.07018033 0.26967999
v 0.00499521 -0.07059992 0.26894569
v 0.02499737 -0.05969753 0.25551805
v 0.00499521 -0.06259337 0.25591919
v -0.00501216 -0.07070997 0.26876214
v -0.00501216 -0.06769720 0.26375821
v -0.04499134 -0.07710696 0.29499876
v -0.04417416 -0.05715249 0.25551805
v -0.03499655 -0.05880333 0.25551805
v -0.03499655 -0.06082560 0.25869989
v -0.03499655 -0.06458125 0.26500240
v -0.03499655 -0.06874961 0.27242669
v -0.01915574 -0.06982265 0.27023748
v -0.01247997 -0.07032478 0.26942843
v -0.01549727 -0.07223700 0.27414680
v -0.01803683 -0.07962448 0.29085150
v -0.02498918 -0.07916363 0.29242882
v -0.04499134 -0.08072504 0.30725023
v -0.04499134 -0.08218327 0.31499410
v -0.04499134 -0.08276795 0.32497475
v -0.01500696 -0.08650984 0.32497475
v 0.03966898 -0.07349576 0.28466457
v 0.03499217 -0.07439684 0.28500450
v 0.00499521 -0.07799428 0.28419545
v 0.03499217 -0.07101263 0.27787936
v -0.02498918 -0.08540928 0.32497475
v -0.02498918 -0.08482461 0.31499410
v -0.02498918 -0.08276795 0.30499983
v -0.03517256 -0.08126844 0.30440152
v -0.03196668 -0.08025730 0.29905087
v -0.02498918 -0.08071816 0.29743275
v -0.00501216 -0.07809746 0.28397110
v -0.00501216 -0.07381217 0.27500346
v 0.03966898 -0.06977450 0.27679834
v 0.01482656 -0.07197562 0.27432358
v 0.00499521 -0.07359894 0.27500346
v 0.00499521 -0.06233199 0.25551805
v -0.00501216 -0.06269655 0.25574920
v -0.00501216 -0.06255210 0.25551805
v -0.01500696 -0.06214627 0.25661945
v -0.03517256 -0.07865462 0.29542708
v -0.03039517 -0.05941552 0.25551805
v -0.03499655 -0.08350395 0.31499410
v -0.03499655 -0.08408861 0.32497475
v 0.03966898 -0.07065494 0.27862042
v 0.02499737 -0.07167296 0.27649918
v -0.01500696 -0.06143779 0.25551805
v -0.01778539 -0.06108011 0.25551805
f 1 2 6
f 1 6 11
f 1 11 24
f 1 24 46
f 1 46 45
f 1 45 78
f 1 78 77
f 1 77 76
f 1 76 94
f 1 94 58
f 1 58 34
f 1 34 32
f 1 32 15
f 1 15 8
f 1 8 3
f 1 3 4
f 1 4 5
f 1 5 10
f 1 10 21
f 1 21 42
f 1 42 71
f 1 71 112
f 1 112 146
f 1 146 148
f 1 148 156
f 1 156 157
f 1 157 151
f 1 151 118
f 1 118 117
f 1 117 83
f 1 83 82
f 1 82 53
f 1 53 52
f 1 52 51
f 1 51 28
f 1 28 13
f 1 13 7
f 1 7 2
f 2 7 6
f 3 8 14
f 3 14 30
f 3 30 55
f 3 55 93
f 3 93 129
f 3 129 153
f 3 153 135
f 3 135 130
f 3 130 95
f 3 95 59
f 3 59 37
f 3 37 18
f 3 18 9
f 3 9 4
f 4 9 17
f 4 17 35
f 4 35 39
f 4 39 61
f 4 61 97
f 4 97 131
f 4 131 154
f 4 154 143
f 4 143 108
f 4 108 69
f 4 69 41
f 4 41 20
f 4 20 10
f 4 10 5
f 6 7 12
f 6 12 11
f 7 13 12
f 8 15 16
f 8 16 14
f 9 18 19
f 9 19 17
f 10 20 21
f 11 12 22
f 11 22 23
f 11 23 24
f 12 25 22
f 12 13 26
f 12 26 27
f 12 27 25
f 13 28 29
f 13 29 26
f 14 16 31
f 14 31 30
f 15 32 16
f 16 33 31
f 16 32 34
f 16 34 33
f 17 19 36
f 17 36 35
f 18 37 38
f 18 38 19
f 19 39 36
f 19 38 40
f 19 40 39
f 20 41 21
f 21 41 43
f 21 43 42
f 22 25 23
f 23 44 45
f 23 45 46
f 23 46 24
f 23 25 47
f 23 47 44
f 25 27 47
f 26 48 27
f 26 29 49
f 26 49 50
f 26 50 48
f 27 48 47
f 28 51 29
f 29 52 53
f 29 53 49
f 29 51 52
f 30 31 54
f 30 54 55
f 31 56 54
f 31 33 56
f 33 34 57
f 33 57 56
f 34 58 57
f 35 36 39
f 37 59 60
f 37 60 38
f 38 60 40
f 39 40 62
f 39 62 63
f 39 63 64
f 39 64 61
f 40 60 65
f 40 65 66
f 40 66 67
f 40 67 68
f 40 68 64
f 40 64 62
f 41 69 70
f 41 70 43
f 42 43 71
f 43 72 71
f 43 70 73
f 43 73 72
f 44 74 75
f 44 75 76
f 44 76 77
f 44 77 78
f 44 78 45
f 44 47 79
f 44 79 74
f 47 48 50
f 47 50 80
f 47 80 81
f 47 81 79
f 49 82 83
f 49 83 84
f 49 84 85
f 49 85 86
f 49 86 50
f 49 53 82
f 50 86 87
f 50 87 88
f 50 88 89
f 50 89 80
f 54 90 91
f 54 91 92
f 54 92 55
f 54 56 90
f 55 92 93
f 56 79 90
f 56 57 74
f 56 74 79
f 57 58 75
f 57 75 74
f 58 94 75
f 59 95 96
f 59 96 60
f 60 96 65
f 61 64 98
f 61 98 99
f 61 99 97
f 62 64 63
f 64 68 100
f 64 100 99
f 64 99 98
f 65 96 101
f 65 101 102
f 65 102 103
f 65 103 66
f 66 104 105
f 66 105 67
f 66 103 106
f 66 106 104
f 67 105 100
f 67 100 107
f 67 107 68
f 68 107 100
f 69 108 109
f 69 109 70
f 70 109 110
f 70 110 111
f 70 111 73
f 71 72 113
f 71 113 112
f 72 73 113
f 73 111 114
f 73 114 115
f 73 115 113
f 75 94 76
f 79 81 90
f 80 89 81
f 81 89 116
f 81 116 91
f 81 91 90
f 83 117 84
f 84 117 85
f 85 117 118
f 85 118 119
f 85 119 120
f 85 120 86
f 86 120 87
f 87 120 121
f 87 121 88
f 88 121 122
f 88 122 123
f 88 123 124
f 88 124 106
f 88 106 89
f 89 106 125
f 89 125 126
f 89 126 116
f 91 116 127
f 91 127 128
f 91 128 92
f 92 128 129
f 92 129 93
f 95 130 96
f 96 130 101
f 97 99 100
f 97 100 132
f 97 132 131
f 100 105 133
f 100 133 134
f 100 134 132
f 101 130 135
f 101 135 136
f 101 136 102
f 102 136 127
f 102 127 137
f 102 137 138
f 102 138 139
f 102 139 140
f 102 140 103
f 103 140 106
f 104 141 133
f 104 133 105
f 104 106 141
f 106 124 123
f 106 123 142
f 106 142 141
f 106 140 126
f 106 126 125
f 108 143 109
f 109 143 134
f 109 134 110
f 110 144 145
f 110 145 111
f 110 134 144
f 111 145 142
f 111 142 114
f 112 113 146
f 113 115 147
f 113 147 148
f 113 148 146
f 114 142 123
f 114 123 115
f 115 123 149
f 115 149 147
f 116 126 150
f 116 150 139
f 116 139 127
f 118 151 119
f 119 151 149
f 119 149 123
f 119 123 120
f 120 123 122
f 120 122 121
f 126 140 139
f 126 139 150
f 127 138 137
f 127 136 152
f 127 152 128
f 127 139 138
f 128 152 153
f 128 153 129
f 131 132 154
f 132 134 154
f 133 141 142
f 133 142 145
f 133 145 155
f 133 155 134
f 134 143 154
f 134 155 144
f 135 153 152
f 135 152 136
f 144 155 145
f 147 149 148
f 148 149 156
f 149 151 157
f 149 157 156

