# https://github.com/mikedh/trimesh
v 0.04995409 -0.06702211 0.38886940
v 0.05483147 -0.06568053 0.38886940
v 0.04995409 -0.06563987 0.39163315
v 0.04995409 -0.05099428 0.38886940
v 0.05478108 -0.06244854 0.39535096
v 0.06061580 -0.06395273 0.38886940
v 0.08592980 -0.04871766 0.40515688
v 0.05130444 -0.06042600 0.40070143
v 0.04995409 -0.06140170 0.39949167
v 0.04995409 0.03680814 0.47457534
v 0.13788800 0.03680814 0.38886940
v 0.07753547 -0.04936812 0.40859929
v 0.08277563 -0.04105438 0.42209348
v 0.06905045 -0.06122892 0.38886940
v 0.07064264 -0.06020240 0.39039391
v 0.08989015 -0.04995760 0.39993426
v 0.08566780 -0.04338182 0.41576931
v 0.04995409 -0.06055813 0.40093747
v 0.07500608 -0.04204024 0.42381468
v 0.07500608 -0.03924528 0.42881110
v 0.04995409 0.03680814 0.48934817
v 0.15249999 0.03680814 0.38886940
v 0.08943668 -0.03970264 0.41962481
v 0.08566780 -0.03763945 0.42526051
v 0.08005477 -0.03002699 0.44003332
v 0.07123720 -0.06043616 0.38886940
v 0.08850957 -0.05414496 0.38886940
v 0.09248000 -0.05127886 0.39326584
v 0.09836511 -0.04966286 0.38886940
v 0.09886897 -0.04935795 0.38886940
v 0.09549309 -0.04827046 0.39596075
v 0.09246992 -0.04186746 0.41295639
v 0.04995409 -0.05509017 0.41006476
v 0.07500608 -0.03508841 0.43500742
v 0.06500947 -0.03197838 0.44281673
v 0.06518079 -0.03742602 0.43427959
v 0.04995409 -0.04943926 0.41919205
v 0.04995409 -0.05079101 0.41702825
v 0.05486170 0.03680814 0.48744011
v 0.04995409 0.03499904 0.48922032
v 0.05500278 0.03499904 0.48727289
v 0.15122017 0.03680814 0.39217412
v 0.15290308 0.03499904 0.38886940
v 0.09548302 -0.03754798 0.41576931
v 0.10032009 -0.03026075 0.42034277
v 0.09431406 -0.03224263 0.42420810
v 0.09052502 -0.03042337 0.43050277
v 0.08403528 -0.03183609 0.43430910
v 0.07500608 -0.03084007 0.44117424
v 0.08671582 -0.02725236 0.43717122
v 0.09738761 -0.01781047 0.43779084
v 0.10137819 -0.01115339 0.44104636
v 0.08403528 -0.02435576 0.44219711
v 0.07969200 -0.01973137 0.44975072
v 0.07302087 -0.02195718 0.45198336
v 0.09408228 -0.05182768 0.38886940
v 0.09548302 -0.04371722 0.40518638
v 0.09972553 -0.04870749 0.38886940
v 0.10125727 -0.04103405 0.40197021
v 0.09913097 -0.03926561 0.40863863
v 0.05500278 -0.03265934 0.44382980
v 0.04995409 -0.03552544 0.44061360
v 0.04995409 -0.03800533 0.43687615
v 0.04995409 -0.03965182 0.43435827
v 0.04995409 -0.04392049 0.42776853
v 0.04995409 -0.04834161 0.42093292
v 0.06500947 -0.02830936 0.44781315
v 0.04995409 -0.02946800 0.44933763
v 0.05681669 0.03680814 0.48653525
v 0.04995409 0.02495751 0.48705652
v 0.05500278 0.02499816 0.48554185
v 0.06565441 0.03527345 0.48228633
v 0.06367928 0.02499816 0.48196176
v 0.14071971 0.03680814 0.41058603
v 0.15125041 0.03499904 0.39221346
v 0.15051478 0.02725445 0.39093485
v 0.15200621 0.02994778 0.38886940
v 0.10979269 -0.02981356 0.40968117
v 0.12043424 -0.02037167 0.41058603
v 0.11457937 -0.02260764 0.41435301
v 0.11097172 -0.02080870 0.42105094
v 0.10407890 -0.02423380 0.42403108
v 0.09718607 -0.02764873 0.42701122
v 0.10784778 -0.01819669 0.42771935
v 0.10118673 -0.02098148 0.43112242
v 0.09395128 -0.02412200 0.43415174
v 0.06500947 -0.02330892 0.45350787
v 0.10460291 -0.01468012 0.43475169
v 0.09701476 -0.00740306 0.44771481
v 0.09035370 -0.01028949 0.45024249
v 0.09387066 -0.01406014 0.44412485
v 0.11149573 -0.01153960 0.43171254
v 0.10056194 -0.00073580 0.45057690
v 0.08500270 -0.01252546 0.45196369
v 0.07565103 -0.01553385 0.45551428
v 0.07162014 -0.01135665 0.46089426
v 0.06500947 -0.01308445 0.46273351
v 0.06500947 -0.01807472 0.45851409
v 0.10474399 -0.04230449 0.39402318
v 0.10871442 -0.04146092 0.38886940
v 0.11001439 -0.04001771 0.39003983
v 0.11190891 -0.03159217 0.40301275
v 0.10551994 -0.03543397 0.40582567
v 0.11856996 -0.02880737 0.39777046
v 0.04995409 -0.03271015 0.44475433
v 0.04995409 -0.02798413 0.45095065
v 0.06555364 0.03680814 0.48242402
v 0.04995409 0.01484483 0.48378131
v 0.05517410 0.01469238 0.48218799
v 0.06216769 0.01782274 0.48097822
v 0.06765978 0.03680814 0.48139131
v 0.06644044 0.03680814 0.48200110
v 0.06868766 0.02499816 0.47922751
v 0.08015555 0.00981390 0.47010022
v 0.14054839 0.03680814 0.41086143
v 0.13991353 0.03030350 0.40990740
v 0.14298707 0.03417579 0.40594372
v 0.14829779 0.03499904 0.39721969
v 0.14239252 0.02499816 0.40403563
v 0.14781408 0.02434770 0.39456412
v 0.14982952 0.02058721 0.38976443
v 0.15043415 0.02145110 0.38886940
v 0.15130079 0.02607549 0.38886940
v 0.11514369 -0.02740481 0.40580601
v 0.12222799 -0.02189620 0.40500936
v 0.13098510 -0.02109328 0.39210525
v 0.12920143 -0.01876584 0.39877367
v 0.12063579 -0.01096028 0.42099193
v 0.11764285 -0.01761737 0.41725445
v 0.05500278 -0.01434472 0.46442518
v 0.05500278 -0.01933500 0.45928127
v 0.09421328 -0.00444548 0.45213091
v 0.08537555 -0.00514676 0.45720598
v 0.11267477 -0.00420156 0.43502709
v 0.11013531 -0.00032926 0.44015133
v 0.10629588 0.00499641 0.44593456
v 0.10130765 0.00499641 0.45124573
v 0.09090795 0.00806578 0.46082541
v 0.08895297 0.00139853 0.45939928
v 0.07829126 -0.00857186 0.45903537
v 0.08228184 -0.00190461 0.46126801
v 0.07497586 -0.00514676 0.46316627
v 0.06573503 -0.00540085 0.46805447
v 0.05500278 -0.00911052 0.46943143
v 0.11139496 -0.03922495 0.38886940
v 0.12066601 -0.03055549 0.39110205
v 0.12295355 -0.02941718 0.38886940
v 0.12493876 -0.02495541 0.39493787
v 0.04995409 -0.02193685 0.45723549
v 0.04995409 0.00796415 0.48104706
v 0.05194938 0.00839101 0.48074216
v 0.05862051 0.01115548 0.47940454
v 0.07002793 0.03680814 0.48002419
v 0.07500608 0.00763891 0.47115263
v 0.06955430 0.00037202 0.46977568
v 0.07500608 0.00263848 0.46828067
v 0.09153274 0.01499728 0.46138602
v 0.08553679 0.01499728 0.46638244
v 0.08052841 0.01499728 0.47038546
v 0.14038715 0.03680814 0.41110730
v 0.13751514 0.03417579 0.41453004
v 0.13534854 0.02499816 0.41500214
v 0.13936935 0.02499816 0.40904188
v 0.14113288 0.01499728 0.40191120
v 0.14939620 0.01812764 0.38886940
v 0.14023599 0.00934638 0.40040636
v 0.12914097 -0.02397971 0.38886940
v 0.13154942 -0.02170309 0.38886940
v 0.13376641 -0.01821701 0.38886940
v 0.13547954 -0.01486306 0.38886940
v 0.13265792 -0.01525944 0.39526242
v 0.13094479 -0.01210875 0.40207839
v 0.12933244 -0.00816532 0.40873697
v 0.12700459 -0.00490284 0.41447103
v 0.12175436 -0.00500447 0.42270330
v 0.11823741 -0.00500447 0.42770952
v 0.04995409 -0.00945608 0.46961829
v 0.04995409 -0.01504600 0.46416947
v 0.11948698 0.00197785 0.42928320
v 0.11634289 0.00518951 0.43425992
v 0.11081049 0.00499641 0.44092834
v 0.11195929 0.01499728 0.44200042
v 0.09653105 0.01499728 0.45679289
v 0.11867072 0.03499904 0.43874487
v 0.06289326 -0.00233147 0.47117230
v 0.05500278 -0.00411008 0.47271645
v 0.04995409 -0.00445564 0.47327709
v 0.04995409 0.00343123 0.47834232
v 0.05517410 0.00503706 0.47782105
v 0.07248677 0.03680814 0.47808659
v 0.11367242 0.03499904 0.44328883
v 0.10808963 0.03499904 0.44829509
v 0.10308125 0.03499904 0.45266202
v 0.09719615 0.03499904 0.45766824
v 0.09219784 0.03499904 0.46178928
v 0.12882857 0.03680814 0.42661780
v 0.12828439 0.03499904 0.42768002
v 0.13196260 0.03499904 0.42268363
v 0.13097502 0.02499816 0.42131650
v 0.13030992 0.01882892 0.42042148
v 0.13266800 0.01530219 0.41547424
v 0.13809963 0.01499728 0.40690759
v 0.13048124 -0.00149807 0.41078275
v 0.14824739 0.01499728 0.38886940
v 0.13901666 0.00267913 0.39789832
v 0.14768307 0.01347276 0.38886940
v 0.13838178 -0.00888693 0.38886940
v 0.13894612 -0.00761649 0.38886940
v 0.14271499 0.00102248 0.38886940
v 0.14458936 0.00560622 0.38886940
v 0.12833479 0.00499641 0.41742167
v 0.12941305 0.01216167 0.41912320
v 0.12032339 0.00864510 0.43043393
v 0.12109934 0.01499728 0.43140766
v 0.11695760 0.01499728 0.43641388
v 0.11783431 0.02499816 0.43771216
v 0.12328610 0.03499904 0.43373865
v 0.11853972 0.03680814 0.43855801
v 0.11353134 0.03680814 0.44317082
v 0.10802917 0.03680814 0.44817707
v 0.08115320 0.03680814 0.47093624
v 0.10303086 0.03680814 0.45261285
v 0.09721630 0.03680814 0.45760924
v 0.09221800 0.03680814 0.46179911
v 0.12811309 0.03680814 0.42752266
v 0.12224814 0.02499816 0.43270591
v 0.12724644 0.02499816 0.42632273
v 0.12402173 0.03680814 0.43248954
v 0.13151920 0.00499641 0.41242528
v 0.12311478 0.03680814 0.43355176
f 1 2 3
f 1 3 9
f 1 9 18
f 1 18 33
f 1 33 38
f 1 38 37
f 1 37 66
f 1 66 65
f 1 65 64
f 1 64 63
f 1 63 62
f 1 62 105
f 1 105 68
f 1 68 106
f 1 106 149
f 1 149 178
f 1 178 177
f 1 177 187
f 1 187 188
f 1 188 150
f 1 150 108
f 1 108 70
f 1 70 40
f 1 40 21
f 1 21 10
f 1 10 4
f 1 4 11
f 1 11 22
f 1 22 43
f 1 43 77
f 1 77 123
f 1 123 122
f 1 122 165
f 1 165 204
f 1 204 206
f 1 206 210
f 1 210 209
f 1 209 208
f 1 208 207
f 1 207 170
f 1 170 169
f 1 169 168
f 1 168 167
f 1 167 147
f 1 147 145
f 1 145 100
f 1 100 58
f 1 58 30
f 1 30 29
f 1 29 56
f 1 56 27
f 1 27 26
f 1 26 14
f 1 14 6
f 1 6 2
f 2 5 3
f 2 6 7
f 2 7 5
f 3 5 8
f 3 8 9
f 4 10 11
f 5 7 12
f 5 12 13
f 5 13 8
f 6 14 15
f 6 15 16
f 6 16 7
f 7 16 17
f 7 17 13
f 7 13 12
f 8 18 9
f 8 13 19
f 8 19 20
f 8 20 18
f 10 21 39
f 10 39 69
f 10 69 107
f 10 107 112
f 10 112 111
f 10 111 153
f 10 153 190
f 10 190 221
f 10 221 224
f 10 224 223
f 10 223 222
f 10 222 220
f 10 220 219
f 10 219 218
f 10 218 230
f 10 230 228
f 10 228 225
f 10 225 196
f 10 196 160
f 10 160 115
f 10 115 74
f 10 74 42
f 10 42 22
f 10 22 11
f 13 23 24
f 13 24 25
f 13 25 20
f 13 20 19
f 13 17 23
f 14 26 15
f 15 26 27
f 15 27 28
f 15 28 16
f 16 28 29
f 16 29 30
f 16 30 31
f 16 31 32
f 16 32 23
f 16 23 17
f 18 20 33
f 20 25 34
f 20 34 35
f 20 35 36
f 20 36 37
f 20 37 38
f 20 38 33
f 21 40 41
f 21 41 39
f 22 42 43
f 23 44 45
f 23 45 46
f 23 46 47
f 23 47 48
f 23 48 25
f 23 25 24
f 23 32 44
f 25 49 34
f 25 48 47
f 25 47 50
f 25 50 51
f 25 51 52
f 25 52 53
f 25 53 54
f 25 54 55
f 25 55 49
f 27 56 28
f 28 56 29
f 30 57 31
f 30 58 59
f 30 59 57
f 31 57 32
f 32 60 44
f 32 57 60
f 34 49 35
f 35 61 62
f 35 62 63
f 35 63 64
f 35 64 65
f 35 65 66
f 35 66 36
f 35 49 67
f 35 67 68
f 35 68 61
f 36 66 37
f 39 41 69
f 40 70 71
f 40 71 41
f 41 72 69
f 41 71 73
f 41 73 72
f 42 74 75
f 42 75 43
f 43 75 76
f 43 76 77
f 44 60 78
f 44 78 79
f 44 79 80
f 44 80 45
f 45 80 81
f 45 81 82
f 45 82 46
f 46 82 83
f 46 83 47
f 47 83 84
f 47 84 85
f 47 85 86
f 47 86 50
f 49 55 87
f 49 87 67
f 50 86 51
f 51 86 85
f 51 85 88
f 51 88 52
f 52 89 90
f 52 90 91
f 52 91 53
f 52 88 92
f 52 92 93
f 52 93 89
f 53 91 54
f 54 91 90
f 54 90 94
f 54 94 95
f 54 95 55
f 55 95 96
f 55 96 97
f 55 97 98
f 55 98 87
f 57 59 60
f 58 99 59
f 58 100 101
f 58 101 99
f 59 102 103
f 59 103 60
f 59 99 101
f 59 101 104
f 59 104 102
f 60 103 78
f 61 105 62
f 61 68 105
f 67 87 68
f 68 87 106
f 69 72 107
f 70 108 109
f 70 109 71
f 71 109 110
f 71 110 73
f 72 111 112
f 72 112 107
f 72 73 113
f 72 113 111
f 73 110 114
f 73 114 113
f 74 115 116
f 74 116 117
f 74 117 118
f 74 118 75
f 75 118 119
f 75 119 76
f 76 119 120
f 76 120 121
f 76 121 122
f 76 122 123
f 76 123 77
f 78 103 124
f 78 124 125
f 78 125 79
f 79 125 126
f 79 126 127
f 79 127 128
f 79 128 129
f 79 129 81
f 79 81 80
f 81 129 92
f 81 92 84
f 81 84 82
f 82 84 83
f 84 92 85
f 85 92 88
f 87 98 144
f 87 144 130
f 87 130 131
f 87 131 106
f 89 93 90
f 90 93 132
f 90 132 133
f 90 133 94
f 92 129 128
f 92 128 134
f 92 134 93
f 93 135 136
f 93 136 137
f 93 137 138
f 93 138 114
f 93 114 139
f 93 139 132
f 93 134 135
f 94 133 95
f 95 133 140
f 95 140 96
f 96 140 141
f 96 141 142
f 96 142 143
f 96 143 97
f 97 143 144
f 97 144 98
f 100 145 101
f 101 146 104
f 101 145 147
f 101 147 146
f 102 104 124
f 102 124 103
f 104 148 125
f 104 125 124
f 104 146 148
f 106 131 149
f 108 150 151
f 108 151 109
f 109 151 110
f 110 151 152
f 110 152 114
f 111 113 153
f 113 114 153
f 114 152 154
f 114 154 155
f 114 155 156
f 114 156 141
f 114 141 139
f 114 138 157
f 114 157 158
f 114 158 159
f 114 159 153
f 115 160 116
f 116 160 161
f 116 161 162
f 116 162 163
f 116 163 119
f 116 119 117
f 117 119 118
f 119 163 164
f 119 164 121
f 119 121 120
f 121 165 122
f 121 164 166
f 121 166 165
f 125 148 126
f 126 167 168
f 126 168 169
f 126 169 170
f 126 170 171
f 126 171 127
f 126 148 146
f 126 146 167
f 127 171 172
f 127 172 173
f 127 173 128
f 128 173 174
f 128 174 175
f 128 175 176
f 128 176 134
f 130 144 177
f 130 177 178
f 130 178 149
f 130 149 131
f 132 139 133
f 133 139 141
f 133 141 140
f 134 176 135
f 135 179 180
f 135 180 181
f 135 181 136
f 135 176 179
f 136 181 182
f 136 182 137
f 137 183 157
f 137 157 138
f 137 182 184
f 137 184 183
f 141 156 142
f 142 156 155
f 142 155 143
f 143 155 185
f 143 185 144
f 144 185 186
f 144 186 187
f 144 187 177
f 146 147 167
f 150 188 186
f 150 186 151
f 151 189 185
f 151 185 154
f 151 154 152
f 151 186 189
f 153 159 190
f 154 185 155
f 157 183 184
f 157 184 191
f 157 191 192
f 157 192 193
f 157 193 194
f 157 194 158
f 158 194 195
f 158 195 190
f 158 190 159
f 160 196 197
f 160 197 198
f 160 198 161
f 161 198 199
f 161 199 162
f 162 199 200
f 162 200 163
f 163 200 201
f 163 201 202
f 163 202 164
f 164 202 203
f 164 203 166
f 165 166 204
f 166 203 173
f 166 173 205
f 166 205 206
f 166 206 204
f 170 207 171
f 171 207 208
f 171 208 172
f 172 208 209
f 172 209 173
f 173 209 210
f 173 210 205
f 173 203 174
f 174 203 175
f 175 203 211
f 175 211 212
f 175 212 179
f 175 179 176
f 179 212 200
f 179 200 213
f 179 213 180
f 180 213 214
f 180 214 181
f 181 214 215
f 181 215 182
f 182 215 216
f 182 216 184
f 184 216 217
f 184 217 218
f 184 218 219
f 184 219 220
f 184 220 191
f 185 189 186
f 186 188 187
f 190 195 194
f 190 194 221
f 191 220 192
f 192 220 222
f 192 222 193
f 193 222 223
f 193 223 194
f 194 223 224
f 194 224 221
f 196 225 197
f 197 217 226
f 197 226 227
f 197 227 199
f 197 199 198
f 197 225 228
f 197 228 217
f 199 227 200
f 200 214 213
f 200 212 201
f 200 227 214
f 201 212 202
f 202 212 211
f 202 211 229
f 202 229 203
f 203 229 211
f 205 210 206
f 214 227 226
f 214 226 215
f 215 226 216
f 216 226 217
f 217 228 230
f 217 230 218

