# https://github.com/mikedh/trimesh
v -0.07686467 0.02101055 0.47468144
v -0.08662350 0.01499287 0.46735683
v -0.08161760 0.01499287 0.47114512
v -0.07686467 0.01555199 0.47423625
v -0.07686467 0.02470645 0.47462264
v -0.09245734 0.01499287 0.46235898
v -0.10240783 0.00499499 0.45241365
v -0.09632101 0.00499499 0.45741153
v -0.08097365 0.00902257 0.47053194
v -0.08140296 0.02499074 0.47116193
v -0.09722560 0.02499074 0.45775589
v -0.07686467 0.01310701 0.47381628
v -0.07686467 0.03462851 0.47280830
v -0.08068235 0.03225935 0.47054875
v -0.09745558 0.01499287 0.45772231
v -0.10305943 0.02499074 0.45275804
v -0.12251578 0.01499287 0.43277499
v -0.10741373 0.00499499 0.44702101
v -0.11099376 -0.00209355 0.44118315
v -0.10147257 -0.00174291 0.45139727
v -0.10270680 0.01499287 0.45272446
v -0.11323223 0.02499074 0.44291350
v -0.11779351 0.01499287 0.43777287
v -0.09132277 0.00499499 0.46133420
v -0.09001955 -0.00001816 0.46000704
v -0.07724798 0.00236048 0.46853280
v -0.07686467 0.00678608 0.47119552
v -0.07686467 0.03643855 0.47163233
v -0.10221618 0.03172865 0.45185927
v -0.13206762 0.01499287 0.42212409
v -0.11190601 0.00499499 0.44202313
v -0.11822280 0.02499074 0.43771407
v -0.14154282 0.01674605 0.41196036
v -0.11689658 0.00499499 0.43645409
v -0.12036163 -0.00149652 0.43050706
v -0.11937271 -0.00815861 0.42930588
v -0.09405954 -0.00421632 0.45452198
v -0.10913092 -0.00875564 0.43929321
v -0.09809186 -0.00840500 0.44853297
v -0.09143010 -0.01119114 0.45097730
v -0.11212832 0.03119796 0.44203994
v -0.08500598 -0.00711618 0.45795751
v -0.07936379 -0.00946639 0.45962906
v -0.08500598 -0.00211250 0.46140140
v -0.07686467 0.00113799 0.46794483
v -0.07686467 0.00275850 0.46892759
v -0.07686467 -0.00443428 0.46433294
v -0.07686467 0.03680814 0.47138873
v -0.07726331 0.03680814 0.47101074
v -0.07988508 0.03680814 0.46839002
v -0.14154282 0.02199612 0.41196036
v -0.15045838 0.01900150 0.40072986
v -0.13049608 -0.01095423 0.41078439
v -0.12167251 -0.01221462 0.42263648
v -0.11271095 -0.01243259 0.43262380
v -0.08446169 -0.01470698 0.45269084
v -0.10569654 -0.01556936 0.43568131
v -0.10246149 -0.01204404 0.44187194
v -0.08743610 -0.01785323 0.44802898
v -0.08076668 -0.02062990 0.45053211
v -0.08214656 0.03680814 0.46545848
v -0.12103623 0.03046826 0.43137223
v -0.07686467 -0.01522820 0.45690754
v -0.07686467 -0.01336130 0.45827669
v -0.07686467 -0.00691717 0.46268657
v -0.07686467 0.03680814 0.45990625
v -0.15045838 0.02065044 0.40072986
v -0.15518065 0.01551409 0.38886940
v -0.15226756 0.01540036 0.39494243
v -0.15097201 0.00819810 0.39157414
v -0.14064589 -0.01119114 0.39112055
v -0.13025844 -0.02026978 0.40052828
v -0.12821162 -0.01761632 0.40718931
v -0.12154219 -0.02128379 0.41190156
v -0.11872876 -0.01888619 0.41857100
v -0.11572368 -0.01566413 0.42575279
v -0.10893160 -0.01910415 0.42886910
v -0.10226984 -0.02188082 0.43206942
v -0.07686467 -0.01660232 0.45589116
v -0.09845982 -0.01870613 0.43873882
v -0.09179807 -0.02149227 0.44136795
v -0.08427770 -0.02439213 0.44444227
v -0.07686467 -0.02164390 0.45171648
v -0.08112697 -0.03069411 0.44085556
v -0.08279050 0.03680814 0.46320736
v -0.08297449 0.03680814 0.45728552
v -0.12103623 0.03046826 0.42818031
v -0.15401542 0.02211932 0.38886940
v -0.15209891 0.02197717 0.39500123
v -0.14195678 0.02043247 0.38886940
v -0.14558280 0.02267844 0.38886940
v -0.07855120 0.03680814 0.45890668
v -0.07686467 -0.04457742 0.38886940
v -0.15511933 0.01827179 0.38886940
v -0.15135531 0.00696614 0.38886940
v -0.14103685 -0.01188294 0.38886940
v -0.13790146 -0.01673499 0.38886940
v -0.13168432 -0.02170076 0.39500123
v -0.12504555 -0.02719722 0.39569002
v -0.12492290 -0.02277162 0.40431657
v -0.11481143 -0.02483753 0.41483310
v -0.11088643 -0.03073202 0.41110361
v -0.10807301 -0.02838180 0.41777301
v -0.11207467 -0.02171971 0.42219970
v -0.09827584 -0.02855239 0.42816353
v -0.09160642 -0.03132904 0.43149823
v -0.08778874 -0.02815436 0.43815926
v -0.07686467 -0.02821122 0.44508067
v -0.09074016 -0.04050245 0.42078853
v -0.08500598 -0.03819015 0.42756712
v -0.07772326 -0.03958322 0.42930588
v -0.07686467 -0.03120585 0.44160315
v -0.08297449 0.03680814 0.45700833
v -0.07686467 -0.06000542 0.38886940
v -0.13297221 -0.02298011 0.38886940
v -0.12728404 -0.02821122 0.38886940
v -0.12174150 -0.03144277 0.39280888
v -0.11108575 -0.04089100 0.39176732
v -0.10472296 -0.04474800 0.39457285
v -0.11966401 -0.02971801 0.39947832
v -0.11790850 -0.02825861 0.40500537
v -0.10021535 -0.04017077 0.41028041
v -0.09740958 -0.03783003 0.41694143
v -0.10140358 -0.03115847 0.42149410
v -0.09450416 -0.03457954 0.42447603
v -0.09444284 -0.04181971 0.41416952
v -0.09452716 -0.04668124 0.40460217
v -0.09087048 -0.05038661 0.40099028
v -0.08500598 -0.04920202 0.40816367
v -0.08500598 -0.04563880 0.41500109
v -0.08500598 -0.04144064 0.42256927
v -0.07686467 -0.03883456 0.43064985
v -0.07974710 -0.04991278 0.40988562
v -0.07686467 -0.04854814 0.41345552
v -0.07686467 -0.04031292 0.42828113
v -0.07686467 -0.05747515 0.39491725
v -0.08500598 -0.05141009 0.40315741
v -0.08520529 -0.05700132 0.38886940
v -0.12266143 -0.03221037 0.38886940
v -0.10043766 -0.05032027 0.39071736
v -0.10191720 -0.04159227 0.40500537
v -0.10900059 -0.03916624 0.39842835
v -0.09452716 -0.05145747 0.39443004
v -0.07686467 -0.05267048 0.40562695
v -0.07686467 -0.05206398 0.40697092
v -0.09480314 -0.05325804 0.38886940
v -0.11172203 -0.04142169 0.38886940
v -0.10080563 -0.05059510 0.38886940
f 1 2 3
f 1 3 4
f 1 4 12
f 1 12 27
f 1 27 46
f 1 46 45
f 1 45 47
f 1 47 65
f 1 65 64
f 1 64 63
f 1 63 79
f 1 79 83
f 1 83 108
f 1 108 112
f 1 112 132
f 1 132 135
f 1 135 134
f 1 134 145
f 1 145 144
f 1 144 136
f 1 136 114
f 1 114 93
f 1 93 66
f 1 66 48
f 1 48 28
f 1 28 13
f 1 13 5
f 1 5 2
f 2 6 7
f 2 7 8
f 2 8 9
f 2 9 3
f 2 5 10
f 2 10 11
f 2 11 16
f 2 16 6
f 3 9 4
f 4 9 12
f 5 13 14
f 5 14 10
f 6 15 7
f 6 16 15
f 7 17 18
f 7 18 19
f 7 19 20
f 7 20 8
f 7 15 21
f 7 21 22
f 7 22 23
f 7 23 17
f 8 20 24
f 8 24 9
f 9 24 20
f 9 20 25
f 9 25 26
f 9 26 27
f 9 27 12
f 10 14 11
f 11 14 16
f 13 28 29
f 13 29 14
f 14 29 16
f 15 16 21
f 16 29 22
f 16 22 21
f 17 30 31
f 17 31 18
f 17 23 32
f 17 32 33
f 17 33 30
f 18 31 19
f 19 31 34
f 19 34 30
f 19 30 33
f 19 33 35
f 19 35 36
f 19 36 20
f 20 37 25
f 20 36 38
f 20 38 39
f 20 39 40
f 20 40 37
f 22 32 23
f 22 29 41
f 22 41 32
f 25 37 42
f 25 42 43
f 25 43 44
f 25 44 26
f 26 45 46
f 26 46 27
f 26 44 47
f 26 47 45
f 28 48 29
f 29 48 49
f 29 49 50
f 29 50 41
f 30 34 31
f 32 51 33
f 32 41 51
f 33 51 67
f 33 67 52
f 33 52 36
f 33 36 35
f 36 53 54
f 36 54 55
f 36 55 38
f 36 52 53
f 37 40 56
f 37 56 42
f 38 55 57
f 38 57 58
f 38 58 39
f 39 58 59
f 39 59 60
f 39 60 40
f 40 60 56
f 41 50 61
f 41 61 62
f 41 62 51
f 42 56 63
f 42 63 64
f 42 64 43
f 43 64 65
f 43 65 47
f 43 47 44
f 48 66 92
f 48 92 113
f 48 113 86
f 48 86 85
f 48 85 61
f 48 61 50
f 48 50 49
f 51 62 67
f 52 67 68
f 52 68 69
f 52 69 70
f 52 70 53
f 53 71 72
f 53 72 73
f 53 73 54
f 53 70 71
f 54 73 74
f 54 74 75
f 54 75 76
f 54 76 55
f 55 76 77
f 55 77 78
f 55 78 57
f 56 60 79
f 56 79 63
f 57 78 80
f 57 80 58
f 58 80 81
f 58 81 59
f 59 81 82
f 59 82 60
f 60 83 79
f 60 82 84
f 60 84 83
f 61 85 62
f 62 85 86
f 62 86 113
f 62 113 87
f 62 87 88
f 62 88 89
f 62 89 67
f 66 90 91
f 66 91 92
f 66 93 90
f 67 94 68
f 67 89 94
f 68 94 88
f 68 88 91
f 68 91 90
f 68 90 93
f 68 93 114
f 68 114 138
f 68 138 146
f 68 146 148
f 68 148 147
f 68 147 139
f 68 139 116
f 68 116 115
f 68 115 97
f 68 97 96
f 68 96 95
f 68 95 70
f 68 70 69
f 70 95 71
f 71 96 97
f 71 97 72
f 71 95 96
f 72 98 99
f 72 99 100
f 72 100 74
f 72 74 73
f 72 97 98
f 74 101 75
f 74 100 102
f 74 102 101
f 75 101 103
f 75 103 104
f 75 104 77
f 75 77 76
f 77 104 105
f 77 105 106
f 77 106 78
f 78 106 80
f 80 106 107
f 80 107 81
f 81 107 82
f 82 107 84
f 83 84 108
f 84 106 109
f 84 109 110
f 84 110 111
f 84 111 112
f 84 112 108
f 84 107 106
f 87 113 91
f 87 91 88
f 88 94 89
f 91 113 92
f 97 115 98
f 98 115 116
f 98 116 117
f 98 117 99
f 99 117 118
f 99 118 119
f 99 119 120
f 99 120 100
f 100 120 121
f 100 121 122
f 100 122 102
f 101 102 103
f 102 122 123
f 102 123 103
f 103 123 124
f 103 124 104
f 104 124 125
f 104 125 105
f 105 125 106
f 106 125 109
f 109 126 127
f 109 127 128
f 109 128 129
f 109 129 130
f 109 130 131
f 109 131 110
f 109 125 124
f 109 124 123
f 109 123 122
f 109 122 126
f 110 131 111
f 111 132 112
f 111 131 133
f 111 133 134
f 111 134 135
f 111 135 132
f 114 136 137
f 114 137 128
f 114 128 138
f 116 139 117
f 117 139 118
f 118 139 140
f 118 140 119
f 119 141 142
f 119 142 120
f 119 140 141
f 120 142 121
f 121 142 141
f 121 141 122
f 122 141 140
f 122 140 126
f 126 140 127
f 127 140 128
f 128 140 143
f 128 143 138
f 128 137 129
f 129 137 136
f 129 136 144
f 129 144 145
f 129 145 133
f 129 133 130
f 130 133 131
f 133 145 134
f 138 143 146
f 139 147 140
f 140 148 146
f 140 146 143
f 140 147 148

