# https://github.com/mikedh/trimesh
v 0.14726998 -0.01096578 0.33499572
v 0.14725944 -0.01096578 0.33910176
v 0.14491068 -0.01500197 0.34499648
v 0.14493175 -0.01500197 0.33499572
v 0.14685921 -0.01096578 0.32964095
v 0.14720678 -0.01096578 0.34499648
v 0.14105575 -0.02152903 0.34499648
v 0.14405754 -0.01500197 0.35499725
v 0.14061338 -0.02090102 0.35499725
v 0.14104521 -0.02150786 0.33499572
v 0.14411020 -0.01500197 0.32500619
v 0.14648004 -0.01096578 0.32500619
v 0.14684868 -0.01096578 0.34915879
v 0.13673738 -0.02653193 0.34499648
v 0.14633258 -0.01096578 0.35499725
v 0.14024474 -0.02037180 0.36142069
v 0.13616863 -0.02589686 0.35499725
v 0.13669525 -0.02651076 0.33499572
v 0.14059231 -0.02085162 0.32500619
v 0.14023420 -0.02034357 0.31881899
v 0.14502653 -0.01096578 0.31515166
v 0.13173440 -0.03145721 0.34499648
v 0.13116564 -0.03098444 0.35499725
v 0.14572169 -0.01096578 0.35937330
v 0.14492121 -0.01096578 0.36491930
v 0.14233020 -0.01562998 0.36485180
v 0.13959172 -0.01937686 0.36809164
v 0.13508376 -0.02510656 0.36532426
v 0.13057581 -0.03049050 0.36255690
v 0.13170281 -0.03142193 0.33499572
v 0.13110244 -0.03092093 0.32500619
v 0.13609490 -0.02585452 0.32500619
v 0.13053368 -0.03044816 0.31793028
v 0.13501003 -0.02502188 0.31503916
v 0.13352494 -0.02380115 0.30500463
v 0.13948639 -0.01924985 0.31214803
v 0.14236179 -0.01555236 0.31529790
v 0.14412074 -0.01096578 0.31143934
v 0.12574135 -0.03645305 0.34499648
v 0.11000565 -0.05000110 0.34005797
v 0.11000565 -0.05000110 0.33993423
v 0.12031706 -0.04027050 0.35264611
v 0.11990629 -0.03991769 0.35931706
v 0.11594604 -0.04360811 0.35558224
v 0.14318334 -0.01096578 0.37234393
v 0.14154024 -0.01278630 0.37499881
v 0.13867538 -0.01778920 0.37499881
v 0.13221890 -0.02244634 0.38499957
v 0.13367240 -0.02399872 0.37499881
v 0.12981747 -0.02983426 0.36921659
v 0.11430296 -0.04358695 0.36499804
v 0.10829937 -0.04858279 0.36499804
v 0.12070677 -0.04059508 0.33499572
v 0.12026440 -0.04022816 0.32775104
v 0.11591444 -0.04353755 0.32465744
v 0.11986417 -0.03987534 0.32109135
v 0.10815192 -0.04846283 0.31500542
v 0.11414497 -0.04346699 0.31500542
v 0.12965947 -0.02969314 0.31127059
v 0.13202931 -0.02221349 0.29500386
v 0.13851739 -0.01764102 0.30500463
v 0.14154024 -0.01264517 0.30500463
v 0.14257243 -0.01096578 0.30515087
v 0.12073837 -0.04062331 0.34499648
v 0.10579261 -0.05298591 0.34404027
v 0.11399750 -0.04631773 0.34404027
v 0.10964754 -0.04969063 0.34672889
v 0.10418113 -0.05330344 0.35499725
v 0.10576102 -0.05296474 0.33596316
v 0.10410740 -0.05325405 0.32500619
v 0.10909985 -0.04924608 0.32500619
v 0.10917358 -0.04929547 0.35499725
v 0.14258298 -0.01096578 0.37479633
v 0.14059231 -0.01096578 0.38128728
v 0.13727455 -0.01460682 0.38479710
v 0.13376719 -0.01822669 0.38886940
v 0.13154481 -0.02171249 0.38886940
v 0.12694207 -0.02744219 0.38499957
v 0.12880634 -0.02899457 0.37499881
v 0.12380335 -0.03317894 0.37499881
v 0.11781031 -0.03817478 0.37499881
v 0.11280733 -0.04234504 0.37499881
v 0.10680375 -0.04734088 0.37499881
v 0.10330692 -0.05262604 0.36499804
v 0.10181130 -0.05144764 0.37499881
v 0.10314894 -0.05251314 0.31500542
v 0.10157958 -0.05127123 0.30500463
v 0.10658256 -0.04715037 0.30500463
v 0.11257561 -0.04216158 0.30500463
v 0.11757859 -0.03799132 0.30500463
v 0.12357163 -0.03298842 0.30500463
v 0.12857462 -0.02879699 0.30500463
v 0.12664716 -0.02720933 0.29500386
v 0.13081807 -0.02091513 0.28832167
v 0.13732721 -0.01456448 0.29492512
v 0.14056072 -0.01096578 0.29827744
v 0.09754559 -0.05872972 0.34499648
v 0.09758772 -0.05870149 0.33499572
v 0.09662925 -0.05830634 0.35499725
v 0.09676618 -0.05824989 0.32500619
v 0.13737987 -0.01096578 0.38886940
v 0.13548401 -0.01486084 0.38886940
v 0.12914339 -0.02398461 0.38886940
v 0.12193909 -0.03162656 0.38499957
v 0.12296075 -0.02942500 0.38886940
v 0.11139596 -0.03923322 0.38886940
v 0.11095358 -0.04080677 0.38499957
v 0.10434965 -0.04631067 0.38496584
v 0.10058951 -0.05047387 0.38160226
v 0.09445954 -0.05781240 0.36499804
v 0.09499671 -0.05517335 0.37499881
v 0.09454380 -0.05796764 0.31417295
v 0.09499671 -0.05551911 0.30500463
v 0.10044206 -0.05035392 0.29886243
v 0.11110105 -0.04092673 0.29721999
v 0.12165470 -0.03137959 0.29500386
v 0.11466106 -0.03699638 0.29432890
v 0.10976341 -0.03981889 0.29054907
v 0.12042239 -0.03036348 0.28932288
v 0.13879123 -0.01096578 0.29265273
v 0.12467756 -0.02476080 0.28548682
v 0.12151778 -0.02129617 0.27394485
v 0.12893273 -0.01868535 0.28165075
v 0.13295618 -0.01521366 0.28499183
v 0.14052913 -0.01096578 0.29817620
v 0.09255314 -0.06117824 0.34499648
v 0.09259527 -0.06122764 0.33499572
v 0.06501040 -0.07382309 0.31500542
v 0.09177373 -0.06085366 0.32500619
v 0.09078366 -0.06034561 0.36165693
v 0.09163681 -0.06071959 0.35499725
v 0.09092059 -0.06045145 0.31694031
v 0.12085423 -0.01096578 0.38886940
v 0.11023737 -0.04019994 0.38886940
v 0.10871015 -0.04147007 0.38886940
v 0.09913602 -0.04944366 0.38827318
v 0.09548120 -0.05232262 0.38496584
v 0.08916165 -0.05952002 0.36832789
v 0.08993053 -0.05992929 0.31028062
v 0.08866662 -0.05924483 0.30500463
v 0.09538641 -0.05251314 0.29531884
v 0.09896749 -0.04925314 0.29219151
v 0.10510799 -0.04509699 0.29471138
v 0.10306467 -0.04256379 0.28500307
v 0.10806765 -0.03840058 0.28500307
v 0.11831588 -0.02860647 0.28265193
v 0.13533655 -0.01096578 0.28459811
v 0.11426082 -0.02737162 0.27394485
v 0.12684727 -0.01515721 0.27394485
v 0.12718432 -0.01521366 0.27451858
v 0.13123937 -0.01201716 0.27752218
v 0.12754244 -0.01429634 0.27394485
v 0.13000706 -0.01096578 0.27394485
v 0.13056529 -0.01096578 0.27493480
v 0.06501040 -0.07414769 0.34499648
v 0.05674231 -0.07854374 0.33499572
v 0.06501040 -0.07459223 0.33499572
v 0.05698457 -0.07855786 0.32500619
v 0.05628941 -0.07822621 0.31500542
v 0.07029776 -0.07015383 0.30945942
v 0.07114038 -0.07059838 0.31500542
v 0.08550683 -0.06196149 0.36499804
v 0.06362010 -0.07162859 0.36499804
v 0.06993966 -0.06993508 0.35974455
v 0.06596887 -0.07229188 0.35584098
v 0.03966898 -0.05326110 0.38886940
v 0.10912092 -0.01096578 0.27394485
v 0.09971531 -0.04870980 0.38886940
v 0.09886217 -0.04935193 0.38886940
v 0.09834607 -0.04966240 0.38886940
v 0.06156624 -0.07069011 0.37148899
v 0.09406984 -0.05182868 0.38886940
v 0.08366363 -0.06193327 0.30500463
v 0.08162031 -0.06085366 0.29726499
v 0.08498020 -0.05815110 0.29436263
v 0.09231089 -0.05143353 0.28673550
v 0.09538641 -0.04802534 0.28404689
v 0.09532321 -0.04350227 0.27506980
v 0.09955732 -0.03963543 0.27394485
v 0.13163960 -0.01096578 0.27703846
v 0.05582598 -0.07826149 0.34499648
v 0.05173933 -0.08069591 0.33499572
v 0.05199211 -0.08083703 0.32500619
v 0.05128643 -0.08054772 0.31500542
v 0.05029637 -0.08011729 0.30953816
v 0.06508413 -0.07178383 0.30567959
v 0.06847563 -0.06921534 0.30278850
v 0.07418430 -0.06707729 0.30567959
v 0.05500444 -0.07519201 0.36499804
v 0.05400384 -0.07769699 0.35400730
v 0.03966898 -0.06916595 0.38886940
v 0.03966898 -0.05249197 0.27394485
v 0.08850863 -0.05414314 0.38886940
v 0.05485698 -0.07198846 0.37489757
v 0.06180849 -0.07090885 0.29708502
v 0.07577471 -0.06294231 0.29436263
v 0.07962964 -0.05974582 0.29059407
v 0.08597027 -0.05371270 0.28404689
v 0.08995159 -0.04995877 0.28007582
v 0.09485978 -0.04324119 0.27394485
v 0.09652393 -0.04198517 0.27394485
v 0.05082300 -0.08030781 0.34499648
v 0.05001199 -0.07999733 0.35001373
v 0.04500900 -0.08205071 0.33499572
v 0.04500900 -0.08234002 0.32500619
v 0.04500900 -0.08175435 0.31500542
v 0.04500900 -0.08051245 0.30806449
v 0.04500900 -0.07660326 0.29500386
v 0.05306644 -0.07147335 0.28707299
v 0.05584705 -0.07292695 0.29425013
v 0.05418289 -0.07718188 0.30572459
v 0.03966898 -0.08245997 0.31500542
v 0.04500900 -0.07790868 0.36499804
v 0.03966898 -0.06929296 0.38863316
v 0.04500900 -0.06891192 0.38780069
v 0.04500900 -0.06833331 0.38886940
v 0.03966898 -0.06827686 0.27394485
v 0.06905492 -0.06123470 0.38886940
v 0.05142336 -0.07058426 0.38133225
v 0.04500900 -0.07462046 0.37499881
v 0.05973357 -0.06981513 0.29041407
v 0.07226736 -0.06114297 0.28500307
v 0.07006605 -0.06002807 0.27995208
v 0.08261037 -0.05132063 0.27500230
v 0.08761335 -0.04875214 0.27500230
v 0.08728684 -0.04832876 0.27394485
v 0.04500900 -0.08128158 0.34499648
v 0.04500900 -0.07951045 0.35743839
v 0.03990069 -0.07996206 0.35990202
v 0.04500900 -0.08032899 0.35243237
v 0.03966898 -0.08075236 0.35449103
v 0.03966898 -0.08154266 0.34847257
v 0.03966898 -0.08198720 0.34499648
v 0.03966898 -0.08239647 0.33966425
v 0.03966898 -0.08274928 0.33499572
v 0.03966898 -0.08304565 0.32500619
v 0.03966898 -0.08273517 0.31967393
v 0.03966898 -0.08076647 0.30636582
v 0.03966898 -0.07751353 0.29538634
v 0.03966898 -0.07543193 0.28967160
v 0.04541977 -0.07237656 0.28424937
v 0.04902192 -0.06974456 0.28040206
v 0.05579438 -0.06361972 0.27419233
v 0.05603663 -0.06338686 0.27394485
v 0.06501040 -0.06120647 0.27769092
v 0.03966898 -0.07864253 0.36504304
v 0.03966898 -0.07137457 0.38409963
v 0.04500900 -0.07121933 0.38279468
v 0.04638877 -0.06800167 0.38886940
v 0.04528285 -0.06719019 0.27394485
v 0.04541977 -0.06798050 0.27542979
v 0.04235479 -0.07045019 0.27905211
v 0.03966898 -0.06977279 0.27680221
v 0.06061831 -0.06395842 0.38886940
v 0.05482538 -0.06568015 0.38886940
v 0.03966898 -0.07529080 0.37499881
v 0.03966898 -0.07728773 0.36916035
v 0.06588461 -0.05882145 0.27394485
v 0.07427908 -0.05484876 0.27394485
v 0.07403684 -0.05603422 0.27596974
v 0.08211534 -0.05106660 0.27394485
v 0.03966898 -0.07997617 0.35995829
v 0.03966898 -0.08002556 0.35966578
v 0.03966898 -0.07349145 0.28466558
v 0.05568906 -0.06353504 0.27394485
v 0.06229299 -0.06049379 0.27394485
v 0.06501040 -0.05923072 0.27394485
v 0.03966898 -0.07065482 0.27862462
f 1 2 3
f 1 3 4
f 1 4 5
f 1 5 12
f 1 12 21
f 1 21 38
f 1 38 63
f 1 63 96
f 1 96 125
f 1 125 120
f 1 120 147
f 1 147 180
f 1 180 154
f 1 154 153
f 1 153 167
f 1 167 133
f 1 133 101
f 1 101 74
f 1 74 73
f 1 73 45
f 1 45 25
f 1 25 24
f 1 24 15
f 1 15 13
f 1 13 6
f 1 6 2
f 2 6 3
f 3 7 4
f 3 6 8
f 3 8 9
f 3 9 7
f 4 10 11
f 4 11 12
f 4 12 5
f 4 7 10
f 6 13 8
f 7 14 10
f 7 9 14
f 8 13 15
f 8 15 16
f 8 16 9
f 9 16 17
f 9 17 14
f 10 14 18
f 10 18 19
f 10 19 11
f 11 19 20
f 11 20 12
f 12 20 21
f 14 22 18
f 14 17 23
f 14 23 22
f 15 24 16
f 16 24 25
f 16 25 26
f 16 26 27
f 16 27 28
f 16 28 29
f 16 29 17
f 17 29 23
f 18 22 30
f 18 30 31
f 18 31 32
f 18 32 19
f 19 32 20
f 20 33 34
f 20 34 35
f 20 35 36
f 20 36 37
f 20 37 21
f 20 32 33
f 21 37 36
f 21 36 38
f 22 39 40
f 22 40 41
f 22 41 30
f 22 23 42
f 22 42 39
f 23 29 43
f 23 43 44
f 23 44 42
f 25 45 27
f 25 27 26
f 27 45 46
f 27 46 47
f 27 47 48
f 27 48 49
f 27 49 28
f 28 49 50
f 28 50 29
f 29 51 52
f 29 52 43
f 29 50 51
f 30 41 53
f 30 53 31
f 31 53 54
f 31 54 55
f 31 55 56
f 31 56 33
f 31 33 32
f 33 57 58
f 33 58 59
f 33 59 34
f 33 56 57
f 34 59 35
f 35 60 36
f 35 59 60
f 36 60 61
f 36 61 62
f 36 62 63
f 36 63 38
f 39 64 40
f 39 42 64
f 40 65 41
f 40 64 66
f 40 66 67
f 40 67 68
f 40 68 65
f 41 65 69
f 41 69 70
f 41 70 71
f 41 71 53
f 42 44 72
f 42 72 67
f 42 67 64
f 43 52 72
f 43 72 44
f 45 73 46
f 46 74 47
f 46 73 74
f 47 74 75
f 47 75 76
f 47 76 77
f 47 77 48
f 48 77 78
f 48 78 79
f 48 79 50
f 48 50 49
f 50 79 80
f 50 80 81
f 50 81 82
f 50 82 83
f 50 83 52
f 50 52 51
f 52 84 72
f 52 83 85
f 52 85 84
f 53 71 55
f 53 55 54
f 55 71 56
f 56 71 57
f 57 86 87
f 57 87 88
f 57 88 59
f 57 59 58
f 57 71 86
f 59 88 89
f 59 89 90
f 59 90 91
f 59 91 92
f 59 92 60
f 60 92 93
f 60 93 94
f 60 94 61
f 61 94 95
f 61 95 96
f 61 96 62
f 62 96 63
f 64 67 66
f 65 97 98
f 65 98 69
f 65 68 97
f 67 72 68
f 68 72 84
f 68 84 99
f 68 99 97
f 69 98 70
f 70 100 86
f 70 86 71
f 70 98 100
f 74 101 102
f 74 102 76
f 74 76 75
f 76 102 101
f 76 101 133
f 76 133 166
f 76 166 191
f 76 191 216
f 76 216 249
f 76 249 255
f 76 255 254
f 76 254 218
f 76 218 193
f 76 193 172
f 76 172 170
f 76 170 169
f 76 169 168
f 76 168 135
f 76 135 134
f 76 134 106
f 76 106 105
f 76 105 103
f 76 103 77
f 77 103 78
f 78 104 80
f 78 80 79
f 78 103 105
f 78 105 106
f 78 106 104
f 80 104 107
f 80 107 81
f 81 107 82
f 82 107 83
f 83 107 108
f 83 108 109
f 83 109 85
f 84 110 99
f 84 85 110
f 85 109 111
f 85 111 110
f 86 100 112
f 86 112 87
f 87 113 114
f 87 114 88
f 87 112 113
f 88 114 89
f 89 114 90
f 90 114 91
f 91 114 115
f 91 115 93
f 91 93 92
f 93 115 116
f 93 116 117
f 93 117 118
f 93 118 119
f 93 119 94
f 94 120 95
f 94 119 121
f 94 121 122
f 94 122 123
f 94 123 124
f 94 124 120
f 95 125 96
f 95 120 125
f 97 126 127
f 97 127 98
f 97 99 126
f 98 127 128
f 98 128 129
f 98 129 100
f 99 110 130
f 99 130 131
f 99 131 126
f 100 129 128
f 100 128 132
f 100 132 112
f 104 106 107
f 106 134 107
f 107 134 108
f 108 134 135
f 108 135 136
f 108 136 109
f 109 136 137
f 109 137 111
f 110 111 130
f 111 138 130
f 111 137 138
f 112 132 139
f 112 139 113
f 113 140 141
f 113 141 114
f 113 139 140
f 114 141 142
f 114 142 143
f 114 143 115
f 115 143 117
f 115 117 116
f 117 143 118
f 118 143 142
f 118 142 144
f 118 144 119
f 119 144 145
f 119 145 146
f 119 146 121
f 120 124 147
f 121 146 122
f 122 148 179
f 122 179 201
f 122 201 200
f 122 200 226
f 122 226 261
f 122 261 259
f 122 259 258
f 122 258 267
f 122 267 266
f 122 266 244
f 122 244 265
f 122 265 250
f 122 250 217
f 122 217 192
f 122 192 167
f 122 167 153
f 122 153 152
f 122 152 149
f 122 149 150
f 122 150 123
f 122 146 148
f 123 151 124
f 123 150 152
f 123 152 153
f 123 153 154
f 123 154 151
f 124 151 147
f 126 155 156
f 126 156 157
f 126 157 158
f 126 158 127
f 126 131 155
f 127 158 128
f 128 158 159
f 128 159 160
f 128 160 161
f 128 161 132
f 130 138 162
f 130 162 163
f 130 163 164
f 130 164 165
f 130 165 155
f 130 155 131
f 132 161 139
f 133 167 166
f 135 168 136
f 136 168 169
f 136 169 170
f 136 170 137
f 137 171 163
f 137 163 138
f 137 170 172
f 137 172 171
f 138 163 162
f 139 160 173
f 139 173 140
f 139 161 160
f 140 173 174
f 140 174 175
f 140 175 141
f 141 175 176
f 141 176 142
f 142 176 177
f 142 177 144
f 144 177 178
f 144 178 179
f 144 179 145
f 145 179 146
f 146 179 148
f 147 151 180
f 149 152 150
f 151 154 180
f 155 181 156
f 155 165 181
f 156 181 182
f 156 182 183
f 156 183 158
f 156 158 157
f 158 183 184
f 158 184 159
f 159 184 185
f 159 185 160
f 160 185 186
f 160 186 187
f 160 187 188
f 160 188 173
f 163 189 190
f 163 190 164
f 163 171 189
f 164 190 165
f 165 190 181
f 166 167 192
f 166 192 217
f 166 217 253
f 166 253 268
f 166 268 264
f 166 264 240
f 166 240 239
f 166 239 238
f 166 238 212
f 166 212 237
f 166 237 236
f 166 236 235
f 166 235 234
f 166 234 233
f 166 233 232
f 166 232 231
f 166 231 263
f 166 263 262
f 166 262 246
f 166 246 257
f 166 257 256
f 166 256 247
f 166 247 214
f 166 214 191
f 171 172 193
f 171 193 194
f 171 194 189
f 173 188 174
f 174 187 195
f 174 195 196
f 174 196 197
f 174 197 175
f 174 188 187
f 175 197 176
f 176 197 198
f 176 198 199
f 176 199 177
f 177 199 178
f 178 199 200
f 178 200 201
f 178 201 179
f 181 202 182
f 181 190 203
f 181 203 202
f 182 202 204
f 182 204 205
f 182 205 183
f 183 205 184
f 184 205 206
f 184 206 185
f 185 207 208
f 185 208 209
f 185 209 210
f 185 210 211
f 185 211 186
f 185 206 212
f 185 212 207
f 186 211 195
f 186 195 187
f 189 213 203
f 189 203 190
f 189 194 213
f 191 214 215
f 191 215 216
f 193 218 194
f 194 218 219
f 194 219 220
f 194 220 213
f 195 211 210
f 195 210 221
f 195 221 196
f 196 221 197
f 197 221 222
f 197 222 198
f 198 222 199
f 199 222 223
f 199 223 224
f 199 224 225
f 199 225 200
f 200 225 226
f 202 227 204
f 202 203 227
f 203 213 228
f 203 228 229
f 203 229 230
f 203 230 231
f 203 231 232
f 203 232 233
f 203 233 227
f 204 227 233
f 204 233 234
f 204 234 235
f 204 235 236
f 204 236 205
f 205 236 237
f 205 237 206
f 206 237 212
f 207 238 239
f 207 239 208
f 207 212 238
f 208 239 240
f 208 240 241
f 208 241 209
f 209 241 242
f 209 242 243
f 209 243 244
f 209 244 245
f 209 245 223
f 209 223 221
f 209 221 210
f 213 220 246
f 213 246 229
f 213 229 228
f 214 247 248
f 214 248 215
f 215 249 216
f 215 248 219
f 215 219 249
f 217 250 251
f 217 251 252
f 217 252 253
f 218 254 219
f 219 248 220
f 219 254 255
f 219 255 249
f 220 256 257
f 220 257 246
f 220 248 247
f 220 247 256
f 221 223 222
f 223 245 258
f 223 258 259
f 223 259 260
f 223 260 261
f 223 261 224
f 224 261 225
f 225 261 226
f 229 262 263
f 229 263 231
f 229 231 230
f 229 246 262
f 240 264 241
f 241 264 252
f 241 252 242
f 242 252 251
f 242 251 250
f 242 250 265
f 242 265 243
f 243 265 244
f 244 266 245
f 245 266 267
f 245 267 258
f 252 268 253
f 252 264 268
f 259 261 260

