# https://github.com/mikedh/trimesh
v -0.08876729 -0.06439904 0.32497478
v -0.08876729 -0.06440365 0.32500604
v -0.08876729 -0.04900929 0.32497478
v -0.07410826 -0.07205478 0.32497478
v -0.08876729 -0.06488241 0.33500051
v -0.07410826 -0.07205939 0.32500604
v -0.08876729 -0.04025790 0.38886318
v 0.03966898 -0.05326760 0.38886318
v 0.03966898 -0.06913152 0.32497478
v -0.06499351 -0.07640976 0.32497478
v -0.08876729 -0.06456937 0.34500125
v -0.07430941 -0.07205478 0.33500051
v -0.08876729 -0.05556478 0.38886318
v 0.03966898 -0.06916834 0.38886318
v 0.03966898 -0.08304352 0.32497478
v -0.05854403 -0.07935605 0.32497478
v -0.05855661 -0.07935145 0.32500604
v -0.06499351 -0.07640976 0.32500604
v -0.08876729 -0.06376835 0.35500199
v -0.07379396 -0.07178777 0.34500125
v -0.06499351 -0.07629928 0.33500051
v -0.08876729 -0.05610340 0.38745594
v -0.08217952 -0.06096938 0.38219601
v -0.08519682 -0.05701030 0.38886318
v 0.03966898 -0.06929264 0.38863802
v 0.03819805 -0.06939852 0.38886318
v 0.03966898 -0.08304352 0.32500604
v 0.02499737 -0.08498162 0.32497478
v -0.05356549 -0.08105477 0.32497478
v -0.05356549 -0.08105477 0.32500604
v -0.05819201 -0.07924557 0.33500051
v -0.08876729 -0.06241950 0.36499649
v -0.07263733 -0.07121233 0.35500199
v -0.06499351 -0.07577448 0.34500125
v -0.08876729 -0.05695966 0.38520434
v -0.07508888 -0.06220314 0.38531694
v -0.08876729 -0.05936733 0.37814316
v -0.08876729 -0.05945940 0.37786797
v -0.08530997 -0.06185326 0.37477207
v -0.06985890 -0.06989571 0.36969352
v -0.06318313 -0.07135964 0.37302709
v -0.07508888 -0.06067014 0.38886318
v 0.03966898 -0.06936169 0.38849416
v 0.03125826 -0.07042052 0.38886318
v 0.03966898 -0.08291002 0.32967180
v 0.02499737 -0.08498162 0.32500604
v 0.01499000 -0.08621998 0.32500604
v 0.01499000 -0.08621538 0.32497478
v -0.04499134 -0.08276730 0.32497478
v -0.04499134 -0.08277190 0.32500604
v -0.05318833 -0.08090746 0.33500051
v -0.05690967 -0.07898317 0.34500125
v -0.08876729 -0.06087270 0.37254551
v -0.07126697 -0.07056323 0.36302635
v -0.08499567 -0.06410441 0.36499649
v -0.06499351 -0.07463279 0.35500199
v -0.05949951 -0.06978522 0.37969425
v -0.06591127 -0.07238624 0.36581582
v -0.05499871 -0.07629007 0.36499649
v -0.05569018 -0.07257499 0.37581655
v -0.07320307 -0.06128702 0.38886318
v 0.03966898 -0.07137806 0.38409734
v 0.02900786 -0.07071514 0.38886318
v 0.01499000 -0.07425069 0.38499796
v 0.02499737 -0.07293867 0.38499796
v 0.03414983 -0.07153919 0.38544202
v 0.03966898 -0.08275349 0.33500051
v 0.02499737 -0.08469160 0.33500051
v 0.01499000 -0.08596679 0.33500051
v 0.00499521 -0.08698878 0.33500051
v 0.00499521 -0.08720515 0.32500604
v 0.00499521 -0.08720515 0.32497478
v -0.03499655 -0.08408853 0.32497478
v -0.03499655 -0.08409313 0.32500604
v -0.04499134 -0.08248188 0.33500051
v -0.05190598 -0.08052536 0.34500125
v -0.05053563 -0.08014327 0.35106799
v -0.05431982 -0.07841232 0.35464549
v -0.06462891 -0.06398012 0.38886318
v -0.06499351 -0.06563740 0.38499796
v -0.05283631 -0.07074737 0.38172066
v -0.05569018 -0.06844098 0.38502923
v -0.04764405 -0.07945733 0.35772890
v -0.04458904 -0.07853201 0.36433977
v -0.04499134 -0.07502870 0.37499723
v 0.03966898 -0.07529110 0.37499723
v 0.02037085 -0.08004659 0.37011257
v 0.02179149 -0.07162205 0.38886318
v 0.00499521 -0.07546604 0.38499796
v 0.00499521 -0.08106398 0.37243918
v 0.03966898 -0.08198930 0.34500125
v 0.02499737 -0.08392740 0.34500125
v 0.01499000 -0.08523022 0.34500125
v 0.00499521 -0.08639492 0.34500125
v -0.00501216 -0.08657906 0.34500125
v -0.00501216 -0.08711307 0.33500051
v -0.00501216 -0.08728801 0.32500604
v -0.00501216 -0.08728341 0.32497478
v -0.02498918 -0.08540975 0.32497478
v -0.03499655 -0.08380310 0.33500051
v -0.02498918 -0.08540975 0.32500604
v -0.02498918 -0.08512433 0.33500051
v -0.04499134 -0.08171308 0.34500125
v -0.04458904 -0.08051615 0.35464549
v -0.04098085 -0.08012945 0.36056215
v -0.05542616 -0.06664559 0.38886318
v -0.04499134 -0.07145632 0.38334057
v -0.04499134 -0.06916374 0.38833779
v -0.03499655 -0.07915349 0.36720428
v -0.02811963 -0.07962766 0.36904305
v -0.02146900 -0.08018930 0.37043780
v 0.03966898 -0.07729365 0.36916190
v 0.02421790 -0.08080158 0.36507779
v 0.03323208 -0.08042409 0.36180049
v 0.03966898 -0.07864250 0.36504653
v 0.00499521 -0.08335195 0.36499649
v 0.01061492 -0.07297090 0.38886318
v 0.00499521 -0.07363842 0.38886318
v -0.00018449 -0.07374430 0.38886318
v -0.00501216 -0.07566859 0.38499796
v -0.00501216 -0.08116986 0.37268311
v -0.00501216 -0.08356832 0.36499649
v 0.03966898 -0.08154275 0.34847867
v 0.01499000 -0.08394121 0.35500199
v 0.00499521 -0.08524863 0.35500199
v -0.00501216 -0.08546500 0.35500199
v -0.01500696 -0.08563533 0.34500125
v -0.01500696 -0.08630745 0.33500051
v -0.01500696 -0.08651001 0.32500604
v -0.01500696 -0.08651001 0.32497478
v -0.03499655 -0.08303431 0.34500125
v -0.02498918 -0.08435553 0.34500125
v -0.01500696 -0.08437395 0.35500199
v -0.03499655 -0.08052536 0.36220703
v -0.01500696 -0.08246347 0.36499649
v -0.04499134 -0.06887832 0.38886318
v -0.01500696 -0.08061744 0.37141973
v -0.02498918 -0.07337141 0.38499796
v -0.03479540 -0.07179698 0.38563591
v -0.03241927 -0.07067832 0.38886318
v -0.04150888 -0.06939852 0.38886318
v -0.02487603 -0.08106398 0.36542177
v 0.03966898 -0.07998214 0.35996798
v -0.00501216 -0.07383637 0.38886318
v -0.01500696 -0.07284199 0.38886318
v -0.01500696 -0.07466961 0.38499796
v 0.03966898 -0.08075093 0.35450163
v 0.02499737 -0.08261999 0.35500199
v 0.03593507 -0.08104557 0.35594642
v 0.03966898 -0.08002818 0.35966775
v -0.02498918 -0.07160363 0.38886318
f 1 2 5
f 1 5 11
f 1 11 19
f 1 19 32
f 1 32 53
f 1 53 38
f 1 38 37
f 1 37 35
f 1 35 22
f 1 22 13
f 1 13 7
f 1 7 3
f 1 3 9
f 1 9 15
f 1 15 28
f 1 28 48
f 1 48 72
f 1 72 98
f 1 98 130
f 1 130 99
f 1 99 73
f 1 73 49
f 1 49 29
f 1 29 16
f 1 16 10
f 1 10 4
f 1 4 6
f 1 6 2
f 2 6 5
f 3 7 8
f 3 8 9
f 4 10 6
f 5 6 12
f 5 12 11
f 6 10 12
f 7 13 24
f 7 24 42
f 7 42 61
f 7 61 79
f 7 79 106
f 7 106 136
f 7 136 141
f 7 141 140
f 7 140 151
f 7 151 145
f 7 145 144
f 7 144 119
f 7 119 118
f 7 118 117
f 7 117 88
f 7 88 63
f 7 63 44
f 7 44 26
f 7 26 14
f 7 14 8
f 8 14 25
f 8 25 43
f 8 43 62
f 8 62 86
f 8 86 112
f 8 112 115
f 8 115 143
f 8 143 150
f 8 150 147
f 8 147 123
f 8 123 91
f 8 91 67
f 8 67 45
f 8 45 27
f 8 27 15
f 8 15 9
f 10 16 17
f 10 17 18
f 10 18 12
f 11 12 20
f 11 20 19
f 12 18 17
f 12 17 21
f 12 21 20
f 13 22 23
f 13 23 24
f 14 26 25
f 15 27 46
f 15 46 28
f 16 29 30
f 16 30 17
f 17 30 31
f 17 31 21
f 19 20 33
f 19 33 32
f 20 21 34
f 20 34 33
f 21 31 34
f 22 35 23
f 23 36 24
f 23 35 37
f 23 37 38
f 23 38 39
f 23 39 40
f 23 40 41
f 23 41 36
f 24 36 42
f 25 26 44
f 25 44 43
f 27 45 46
f 28 46 47
f 28 47 48
f 29 49 50
f 29 50 30
f 30 51 31
f 30 50 51
f 31 51 52
f 31 52 34
f 32 33 54
f 32 54 55
f 32 55 53
f 33 34 56
f 33 56 54
f 34 52 56
f 36 41 57
f 36 57 42
f 38 53 39
f 39 53 40
f 40 53 55
f 40 55 54
f 40 54 58
f 40 58 41
f 41 59 60
f 41 60 57
f 41 58 59
f 42 57 61
f 43 44 62
f 44 63 64
f 44 64 65
f 44 65 66
f 44 66 62
f 45 67 68
f 45 68 46
f 46 68 69
f 46 69 47
f 47 69 70
f 47 70 71
f 47 71 72
f 47 72 48
f 49 73 74
f 49 74 50
f 50 74 100
f 50 100 75
f 50 75 51
f 51 76 52
f 51 75 76
f 52 76 77
f 52 77 78
f 52 78 56
f 54 56 58
f 56 78 58
f 57 79 80
f 57 80 61
f 57 60 81
f 57 81 82
f 57 82 79
f 58 78 59
f 59 78 77
f 59 77 83
f 59 83 84
f 59 84 85
f 59 85 60
f 60 85 81
f 61 80 79
f 62 66 87
f 62 87 86
f 63 88 64
f 64 88 89
f 64 89 90
f 64 90 65
f 65 90 66
f 66 90 87
f 67 91 92
f 67 92 68
f 68 92 93
f 68 93 69
f 69 93 94
f 69 94 70
f 70 94 95
f 70 95 96
f 70 96 71
f 71 96 97
f 71 97 72
f 72 97 98
f 73 99 74
f 74 99 101
f 74 101 102
f 74 102 100
f 75 103 76
f 75 100 131
f 75 131 103
f 76 103 77
f 77 103 104
f 77 104 105
f 77 105 83
f 79 82 106
f 81 106 82
f 81 85 107
f 81 107 108
f 81 108 106
f 83 105 84
f 84 105 109
f 84 109 85
f 85 109 110
f 85 110 111
f 85 111 107
f 86 87 112
f 87 113 114
f 87 114 115
f 87 115 112
f 87 90 116
f 87 116 113
f 88 117 89
f 89 117 118
f 89 118 119
f 89 119 120
f 89 120 121
f 89 121 90
f 90 121 122
f 90 122 116
f 91 123 92
f 92 124 125
f 92 125 93
f 92 123 124
f 93 125 94
f 94 126 95
f 94 125 126
f 95 126 127
f 95 127 128
f 95 128 96
f 96 128 129
f 96 129 97
f 97 129 130
f 97 130 98
f 99 130 129
f 99 129 101
f 100 102 132
f 100 132 131
f 101 129 128
f 101 128 102
f 102 128 127
f 102 127 132
f 103 131 104
f 104 131 132
f 104 132 133
f 104 133 105
f 105 134 111
f 105 111 110
f 105 110 109
f 105 133 135
f 105 135 134
f 106 108 136
f 107 111 137
f 107 137 138
f 107 138 139
f 107 139 140
f 107 140 108
f 108 140 141
f 108 141 136
f 111 142 135
f 111 135 122
f 111 122 137
f 111 134 142
f 113 116 114
f 114 143 115
f 114 116 143
f 116 122 126
f 116 126 125
f 116 125 143
f 119 144 120
f 120 144 145
f 120 145 146
f 120 146 121
f 121 146 137
f 121 137 122
f 122 135 133
f 122 133 126
f 123 147 124
f 124 147 148
f 124 148 149
f 124 149 150
f 124 150 125
f 125 150 143
f 126 133 127
f 127 133 132
f 134 135 142
f 137 146 138
f 138 146 140
f 138 140 139
f 140 146 151
f 145 151 146
f 147 150 149
f 147 149 148

