# https://github.com/mikedh/trimesh
v 0.15180212 0.03680814 0.27394485
v 0.15191200 0.03520347 0.27394485
v 0.15149450 0.03680814 0.27259883
v 0.13631049 0.03680814 0.27394485
v 0.15191200 0.03495659 0.27394485
v 0.15097810 0.03680814 0.27091417
v 0.03966898 0.03680814 0.20274079
v 0.03966898 -0.05248780 0.27394485
v 0.15176918 0.03428798 0.27394485
v 0.14968164 0.03115064 0.27061787
v 0.14933006 0.03680814 0.26804435
v 0.03966898 0.03680814 0.18810378
v 0.03966898 -0.06827737 0.27394485
v 0.15039580 0.02807502 0.27394485
v 0.14891255 0.02499939 0.27226865
v 0.14349598 0.02478338 0.26428562
v 0.14697886 0.03468915 0.26554698
v 0.14145240 0.03499774 0.25826657
v 0.14141944 0.03680814 0.25830892
v 0.04563491 0.03680814 0.19060113
v 0.03966898 0.03508003 0.18746039
v 0.03966898 -0.06322677 0.26484436
v 0.04069077 -0.06018201 0.25969726
v 0.04441535 -0.06224956 0.26469195
v 0.04528333 -0.06718702 0.27394485
v 0.14964868 0.02499939 0.27394485
v 0.14927512 0.02357987 0.27394485
v 0.14188088 0.01499076 0.26753640
v 0.13955164 0.02131687 0.26047611
v 0.14059541 0.02798244 0.25928244
v 0.13716747 0.03499774 0.25327188
v 0.13571718 0.03680814 0.25186661
v 0.06202749 0.03680814 0.19876195
v 0.05500681 0.03499774 0.19477466
v 0.03966898 0.02589431 0.18925510
v 0.06204946 0.02499939 0.19886354
v 0.06129136 0.01870413 0.19943073
v 0.03966898 -0.06026430 0.25957876
v 0.04500865 -0.05122258 0.24829412
v 0.04441535 -0.05649948 0.25582004
v 0.04735987 -0.05921509 0.26116180
v 0.03966898 -0.05968826 0.25868139
v 0.03966898 -0.05186033 0.24739677
v 0.05298520 -0.06137522 0.26782423
v 0.05568800 -0.06353536 0.27394485
v 0.14573732 0.01543307 0.27394485
v 0.14029875 0.00948755 0.26956815
v 0.11817098 -0.00500594 0.25225601
v 0.13779372 0.01499076 0.26253325
v 0.12972929 0.02059683 0.25026661
v 0.13103673 0.02726239 0.24892904
v 0.11969817 0.00052813 0.25035125
v 0.13216840 0.03499774 0.24780312
v 0.13208050 0.03680814 0.24789624
v 0.07834316 0.03680814 0.20874289
v 0.06222526 0.03499774 0.19861804
v 0.05090866 0.00925097 0.19965930
v 0.04500865 0.00720398 0.19876195
v 0.03966898 0.00547587 0.19793233
v 0.06704854 0.02499939 0.20177570
v 0.07932100 0.01499076 0.21036828
v 0.07432193 0.01499076 0.20752384
v 0.07255302 0.00786231 0.20898838
v 0.05756678 0.01203857 0.20097993
v 0.03966898 -0.04988535 0.24473010
v 0.04500865 -0.04730348 0.24329096
v 0.05054609 -0.05022480 0.24969094
v 0.05432561 -0.05233351 0.25501579
v 0.06244500 -0.05111971 0.25836816
v 0.06910311 -0.04958705 0.26064542
v 0.07500312 -0.05129458 0.26786655
v 0.08019996 -0.05009108 0.26983905
v 0.05965430 -0.05979112 0.27030465
v 0.05603958 -0.06338106 0.27394485
v 0.14138648 0.00763601 0.27394485
v 0.13301440 -0.00615801 0.27394485
v 0.12949856 -0.00930564 0.27085492
v 0.12047824 -0.01064287 0.25932479
v 0.11119424 -0.01121890 0.24867508
v 0.11317190 -0.00500594 0.24669412
v 0.10017430 -0.00024335 0.22982220
v 0.12659799 0.03499774 0.24279995
v 0.12509277 0.03680814 0.24164017
v 0.08205676 0.03680814 0.21115558
v 0.04500865 0.00220481 0.20112385
v 0.03966898 0.00038412 0.20025189
v 0.06513681 0.00471468 0.20752384
v 0.06189565 -0.00154972 0.20924236
v 0.07468449 0.02499939 0.20677887
v 0.10832664 0.03680814 0.22850157
v 0.11220504 0.03680814 0.23125289
v 0.09036292 0.00923039 0.21968889
v 0.08492436 0.00553759 0.21753016
v 0.07553049 0.00471468 0.21210372
v 0.06856474 0.00119674 0.21064764
v 0.03966898 -0.04805438 0.24239360
v 0.04500865 -0.04230430 0.23728038
v 0.05202933 -0.04085393 0.23899890
v 0.05869843 -0.03943440 0.24064122
v 0.05462226 -0.04483475 0.24517031
v 0.03966898 -0.04026760 0.23273437
v 0.06500496 -0.03809718 0.24226663
v 0.06500496 -0.04215001 0.24726978
v 0.07165208 -0.04073048 0.24904756
v 0.05721519 -0.04880528 0.25169727
v 0.07832119 -0.03921839 0.25115550
v 0.07500312 -0.04821896 0.26286340
v 0.08244131 -0.04137853 0.25781789
v 0.08464969 -0.04487589 0.26530996
v 0.09220874 -0.04170769 0.26744327
v 0.08728656 -0.04832182 0.27394485
v 0.08211169 -0.05106828 0.27394485
v 0.07427797 -0.05485367 0.27394485
v 0.06588392 -0.05882420 0.27394485
v 0.06500496 -0.05923566 0.27394485
v 0.06229118 -0.06049059 0.27394485
v 0.13031159 -0.01056057 0.27394485
v 0.12754287 -0.01429453 0.27394485
v 0.12019258 -0.02016804 0.26974592
v 0.12210432 -0.01438710 0.26584327
v 0.11058996 -0.02048692 0.25935864
v 0.10745867 -0.01788447 0.25269622
v 0.10078957 -0.02066179 0.24925920
v 0.10414059 -0.01429453 0.24563593
v 0.10083351 -0.01070458 0.23936293
v 0.09501041 -0.00754667 0.23213331
v 0.08980259 -0.00983024 0.23015235
v 0.09501041 -0.00254750 0.22812063
v 0.08152939 -0.00128227 0.21915556
v 0.08819848 0.00256483 0.22100952
v 0.12064305 0.02840418 0.23948991
v 0.12159891 0.03499774 0.23876187
v 0.12156595 0.03680814 0.23878726
v 0.05708335 -0.00822557 0.21098627
v 0.03966898 -0.00510880 0.20335031
v 0.06513681 -0.00493393 0.21268785
v 0.07453068 -0.00476935 0.21758942
v 0.04500865 -0.03799431 0.23227723
v 0.05589676 -0.03537129 0.23456293
v 0.06500496 -0.03309800 0.23640843
v 0.03966898 -0.03893037 0.23118517
v 0.07268486 -0.03135961 0.23842324
v 0.07549753 -0.03528900 0.24470471
v 0.07935397 -0.02959035 0.24037033
v 0.08500127 -0.03199736 0.24768460
v 0.08546273 -0.03723312 0.25469410
v 0.08911040 -0.03938297 0.26078087
v 0.09486759 -0.04323007 0.27394485
v 0.09606516 -0.03588561 0.26376075
v 0.10286611 -0.03237796 0.26673216
v 0.10952422 -0.02960064 0.27071947
v 0.09886684 -0.03904352 0.27176920
v 0.12685069 -0.01515858 0.27394485
v 0.12151102 -0.02128925 0.27394485
v 0.11425961 -0.02735821 0.27394485
v 0.09992160 -0.02994009 0.26006976
v 0.09256032 -0.03212080 0.25499886
v 0.09014318 -0.03010467 0.24986872
v 0.08500127 -0.02729649 0.24268143
v 0.09683426 -0.01735986 0.24259678
v 0.09017614 -0.02013718 0.23986240
v 0.09410948 -0.01441796 0.23762748
v 0.08313349 -0.01259727 0.22804444
v 0.08567148 -0.00555111 0.22453120
v 0.08500127 -0.02229732 0.23788992
v 0.07914521 -0.01926284 0.23066029
v 0.07754111 -0.00794784 0.22138201
v 0.07087201 -0.01073544 0.21951959
v 0.06500496 -0.01267957 0.21787725
v 0.06500496 -0.01766845 0.22162752
v 0.05887423 -0.01949943 0.22043386
v 0.05464424 -0.01484999 0.21507515
v 0.05041425 -0.01019027 0.20987727
v 0.03966898 -0.00786555 0.20500109
v 0.04500865 -0.03299514 0.22710475
v 0.05308409 -0.03130817 0.22871321
v 0.05975318 -0.02987837 0.23012696
v 0.06500496 -0.02871601 0.23140527
v 0.03966898 -0.03014582 0.22239788
v 0.07247611 -0.02174185 0.22840846
v 0.09652662 -0.04197514 0.27394485
v 0.10596444 -0.03428093 0.27394485
v 0.09955902 -0.03961956 0.27394485
v 0.07501411 -0.01500428 0.22489522
v 0.06500496 -0.02371684 0.22663067
v 0.04500865 -0.02758451 0.22210158
v 0.04500865 -0.02258534 0.21768254
v 0.03966898 -0.01974630 0.21312806
v 0.03966898 -0.01785361 0.21157040
v 0.03966898 -0.01329675 0.20839579
v 0.03966898 -0.02874687 0.22110264
v 0.03966898 -0.02616499 0.21876614
v 0.03966898 -0.02363455 0.21652277
f 1 2 3
f 1 3 6
f 1 6 11
f 1 11 19
f 1 19 32
f 1 32 54
f 1 54 83
f 1 83 133
f 1 133 91
f 1 91 90
f 1 90 84
f 1 84 55
f 1 55 33
f 1 33 20
f 1 20 12
f 1 12 7
f 1 7 4
f 1 4 8
f 1 8 13
f 1 13 25
f 1 25 45
f 1 45 74
f 1 74 116
f 1 116 115
f 1 115 114
f 1 114 113
f 1 113 112
f 1 112 111
f 1 111 148
f 1 148 181
f 1 181 183
f 1 183 182
f 1 182 155
f 1 155 154
f 1 154 153
f 1 153 118
f 1 118 117
f 1 117 76
f 1 76 75
f 1 75 46
f 1 46 27
f 1 27 26
f 1 26 14
f 1 14 9
f 1 9 5
f 1 5 2
f 2 5 6
f 2 6 3
f 4 7 8
f 5 9 10
f 5 10 6
f 6 10 11
f 7 12 21
f 7 21 35
f 7 35 59
f 7 59 86
f 7 86 135
f 7 135 174
f 7 174 190
f 7 190 189
f 7 189 188
f 7 188 193
f 7 193 192
f 7 192 191
f 7 191 179
f 7 179 141
f 7 141 101
f 7 101 96
f 7 96 65
f 7 65 43
f 7 43 42
f 7 42 38
f 7 38 22
f 7 22 13
f 7 13 8
f 9 14 10
f 10 14 15
f 10 15 16
f 10 16 11
f 11 16 17
f 11 17 18
f 11 18 19
f 12 20 21
f 13 22 23
f 13 23 24
f 13 24 25
f 14 26 15
f 15 26 27
f 15 27 28
f 15 28 16
f 16 28 29
f 16 29 30
f 16 30 17
f 17 30 18
f 18 30 31
f 18 31 19
f 19 31 32
f 20 33 34
f 20 34 21
f 21 34 36
f 21 36 37
f 21 37 35
f 22 38 23
f 23 39 40
f 23 40 41
f 23 41 24
f 23 38 42
f 23 42 43
f 23 43 39
f 24 41 44
f 24 44 25
f 25 44 45
f 27 46 28
f 28 46 47
f 28 47 48
f 28 48 49
f 28 49 29
f 29 50 51
f 29 51 30
f 29 49 52
f 29 52 50
f 30 51 31
f 31 51 53
f 31 53 32
f 32 53 54
f 33 55 56
f 33 56 34
f 34 56 36
f 35 57 58
f 35 58 59
f 35 37 57
f 36 56 60
f 36 60 61
f 36 61 37
f 37 61 62
f 37 62 63
f 37 63 64
f 37 64 57
f 39 43 65
f 39 65 66
f 39 66 67
f 39 67 41
f 39 41 40
f 41 67 68
f 41 68 44
f 44 68 69
f 44 69 70
f 44 70 71
f 44 71 72
f 44 72 73
f 44 73 74
f 44 74 45
f 46 75 47
f 47 75 76
f 47 76 77
f 47 77 78
f 47 78 48
f 48 78 79
f 48 79 80
f 48 80 52
f 48 52 49
f 50 52 81
f 50 81 51
f 51 82 53
f 51 81 82
f 52 80 81
f 53 82 54
f 54 82 83
f 55 60 56
f 55 84 60
f 57 85 86
f 57 86 58
f 57 64 87
f 57 87 88
f 57 88 85
f 58 86 59
f 60 84 89
f 60 89 61
f 61 63 62
f 61 89 90
f 61 90 91
f 61 91 92
f 61 92 93
f 61 93 63
f 63 93 94
f 63 94 95
f 63 95 88
f 63 88 87
f 63 87 64
f 65 96 66
f 66 97 98
f 66 98 99
f 66 99 100
f 66 100 67
f 66 96 101
f 66 101 97
f 67 100 102
f 67 102 103
f 67 103 104
f 67 104 105
f 67 105 68
f 68 105 69
f 69 105 104
f 69 104 106
f 69 106 70
f 70 106 107
f 70 107 71
f 71 107 72
f 72 108 109
f 72 109 110
f 72 110 111
f 72 111 112
f 72 112 113
f 72 113 114
f 72 114 115
f 72 115 116
f 72 116 74
f 72 74 73
f 72 107 106
f 72 106 108
f 76 117 77
f 77 117 118
f 77 118 119
f 77 119 120
f 77 120 78
f 78 120 119
f 78 119 79
f 79 119 121
f 79 121 122
f 79 122 123
f 79 123 124
f 79 124 125
f 79 125 81
f 79 81 80
f 81 125 126
f 81 126 127
f 81 127 128
f 81 128 129
f 81 129 94
f 81 94 130
f 81 130 93
f 81 93 92
f 81 92 131
f 81 131 82
f 82 131 132
f 82 132 133
f 82 133 83
f 84 90 89
f 85 88 134
f 85 134 86
f 86 134 135
f 88 95 136
f 88 136 134
f 91 133 132
f 91 132 92
f 92 132 131
f 93 130 94
f 94 137 136
f 94 136 95
f 94 129 137
f 97 138 98
f 97 101 138
f 98 138 139
f 98 139 140
f 98 140 99
f 99 140 102
f 99 102 100
f 101 141 138
f 102 140 142
f 102 142 104
f 102 104 103
f 104 142 143
f 104 143 106
f 106 143 144
f 106 144 145
f 106 145 146
f 106 146 147
f 106 147 108
f 108 147 109
f 109 147 110
f 110 148 111
f 110 147 149
f 110 149 150
f 110 150 119
f 110 119 151
f 110 151 152
f 110 152 148
f 118 153 119
f 119 153 154
f 119 154 155
f 119 155 151
f 119 150 149
f 119 149 156
f 119 156 121
f 121 156 157
f 121 157 122
f 122 157 158
f 122 158 123
f 123 158 159
f 123 159 124
f 124 159 160
f 124 160 125
f 125 160 161
f 125 161 162
f 125 162 127
f 125 127 126
f 127 163 164
f 127 164 128
f 127 162 165
f 127 165 166
f 127 166 163
f 128 164 129
f 129 164 167
f 129 167 168
f 129 168 137
f 134 136 169
f 134 169 170
f 134 170 171
f 134 171 172
f 134 172 173
f 134 173 135
f 135 173 174
f 136 137 168
f 136 168 169
f 138 175 176
f 138 176 177
f 138 177 139
f 138 141 175
f 139 177 140
f 140 178 142
f 140 177 178
f 141 179 175
f 142 180 144
f 142 144 143
f 142 178 180
f 144 180 166
f 144 166 165
f 144 165 161
f 144 161 159
f 144 159 158
f 144 158 145
f 145 158 146
f 146 158 147
f 147 158 157
f 147 157 156
f 147 156 149
f 148 152 181
f 151 182 152
f 151 155 182
f 152 182 183
f 152 183 181
f 159 161 160
f 161 165 162
f 163 166 180
f 163 180 184
f 163 184 164
f 164 184 167
f 167 184 168
f 168 180 169
f 168 184 180
f 169 180 170
f 170 180 185
f 170 185 171
f 171 185 186
f 171 186 187
f 171 187 188
f 171 188 189
f 171 189 172
f 172 189 173
f 173 189 190
f 173 190 174
f 175 179 191
f 175 191 186
f 175 186 176
f 176 185 177
f 176 186 185
f 177 185 178
f 178 185 180
f 186 191 192
f 186 192 193
f 186 193 187
f 187 193 188

