# https://github.com/mikedh/trimesh
v 0.13292572 0.03680959 0.39825884
v 0.13633735 0.04433120 0.39825884
v 0.14683749 0.03680959 0.39825884
v 0.02369293 0.03680959 0.48273709
v 0.02369293 0.04499953 0.48496777
v 0.12957434 0.05005704 0.41694695
v 0.14185867 0.04474528 0.39825884
v 0.02369293 0.04573760 0.48527509
v 0.02369293 0.05127892 0.48829889
v 0.14449877 0.04436462 0.39825884
v 0.14229265 0.04399849 0.40500045
v 0.14056875 0.04201530 0.41088945
v 0.14056875 0.03697667 0.41088945
v 0.14071342 0.03680959 0.41059202
v 0.02369293 0.03680959 0.49702334
v 0.13010478 0.05005704 0.41694695
v 0.02369293 0.05145182 0.48903257
v 0.03500077 0.05165086 0.48640531
v 0.07531359 0.05135447 0.46514943
v 0.13010478 0.05005704 0.42018887
v 0.13129824 0.04499953 0.42181480
v 0.12734413 0.04499953 0.42681152
v 0.12811565 0.03680959 0.42752534
v 0.12882692 0.03680959 0.42661324
v 0.14038792 0.03680959 0.41110754
v 0.14055669 0.03680959 0.41085970
v 0.02505518 0.03680959 0.49674574
v 0.02369293 0.04666454 0.49953163
v 0.08458409 0.05117867 0.46463388
v 0.02369293 0.05154335 0.49549657
v 0.03500077 0.05165086 0.49292880
v 0.05500046 0.05154916 0.47775027
v 0.06492195 0.05143874 0.47484544
v 0.12060523 0.05022558 0.43079698
v 0.12235324 0.04499953 0.43272033
v 0.12401687 0.03680959 0.43249232
v 0.03500077 0.03680959 0.49447542
v 0.02369293 0.05104791 0.49800482
v 0.03500077 0.04499953 0.49571466
v 0.05045563 0.05021105 0.49018258
v 0.07434916 0.05115688 0.47449845
v 0.09128682 0.05064546 0.46105489
v 0.10126858 0.05050017 0.45110112
v 0.11110568 0.05036069 0.44103828
v 0.02369293 0.05144601 0.49643841
v 0.04500664 0.05092587 0.49107486
v 0.06500633 0.05109295 0.48155731
v 0.05427714 0.05136609 0.48498759
v 0.11791690 0.04499953 0.43771705
v 0.12311272 0.03680959 0.43355313
v 0.04439183 0.03680959 0.49150118
v 0.04597107 0.03680959 0.49095589
v 0.04993725 0.04047669 0.48993474
v 0.04595901 0.04428471 0.49168953
v 0.05045563 0.04714254 0.49018258
v 0.07064820 0.04499953 0.48048657
v 0.07057587 0.05039120 0.48042709
v 0.08096751 0.05059606 0.47083023
v 0.10776637 0.04499953 0.44766092
v 0.11291397 0.04499953 0.44265428
v 0.11853172 0.03680959 0.43855974
v 0.04932243 0.03680959 0.48969680
v 0.05486786 0.03680959 0.48743638
v 0.05680875 0.03680959 0.48653421
v 0.06644091 0.03680959 0.48200345
v 0.06500633 0.04499953 0.48318321
v 0.07565114 0.04499953 0.47621360
v 0.06767055 0.03680959 0.48138878
v 0.07028654 0.03880150 0.48021889
v 0.09220302 0.03680959 0.46179846
v 0.09720595 0.03680959 0.45761469
v 0.08144972 0.04499953 0.47121689
v 0.09227535 0.04499953 0.46183813
v 0.09726623 0.04499953 0.45737675
v 0.10276343 0.04499953 0.45237014
v 0.11352879 0.03680959 0.44318965
v 0.10302865 0.03680959 0.45260808
v 0.07003338 0.03680959 0.48002061
v 0.07249266 0.03680959 0.47808737
v 0.08116040 0.03680959 0.47093928
v 0.10803159 0.03680959 0.44818637
f 1 2 7
f 1 7 10
f 1 10 3
f 1 3 14
f 1 14 26
f 1 26 25
f 1 25 24
f 1 24 23
f 1 23 36
f 1 36 50
f 1 50 61
f 1 61 76
f 1 76 81
f 1 81 77
f 1 77 71
f 1 71 70
f 1 70 80
f 1 80 79
f 1 79 78
f 1 78 68
f 1 68 65
f 1 65 64
f 1 64 63
f 1 63 62
f 1 62 52
f 1 52 51
f 1 51 37
f 1 37 27
f 1 27 15
f 1 15 4
f 1 4 5
f 1 5 2
f 2 6 7
f 2 5 8
f 2 8 9
f 2 9 6
f 3 10 11
f 3 11 12
f 3 12 13
f 3 13 14
f 4 15 28
f 4 28 38
f 4 38 45
f 4 45 30
f 4 30 17
f 4 17 9
f 4 9 8
f 4 8 5
f 6 16 7
f 6 9 17
f 6 17 18
f 6 18 19
f 6 19 16
f 7 16 10
f 10 16 20
f 10 20 11
f 11 20 12
f 12 20 21
f 12 21 22
f 12 22 23
f 12 23 24
f 12 24 13
f 13 24 25
f 13 25 26
f 13 26 14
f 15 27 28
f 16 19 29
f 16 29 20
f 17 30 18
f 18 30 31
f 18 31 32
f 18 32 19
f 19 32 33
f 19 33 29
f 20 34 35
f 20 35 22
f 20 22 21
f 20 29 34
f 22 35 36
f 22 36 23
f 27 37 28
f 28 37 39
f 28 39 40
f 28 40 38
f 29 33 41
f 29 41 42
f 29 42 43
f 29 43 44
f 29 44 34
f 30 45 31
f 31 45 38
f 31 38 46
f 31 46 47
f 31 47 48
f 31 48 33
f 31 33 32
f 33 48 41
f 34 44 49
f 34 49 35
f 35 50 36
f 35 49 50
f 37 51 39
f 38 40 46
f 39 51 52
f 39 52 53
f 39 53 54
f 39 54 55
f 39 55 40
f 40 55 56
f 40 56 57
f 40 57 47
f 40 47 46
f 41 57 58
f 41 58 42
f 41 48 47
f 41 47 57
f 42 59 60
f 42 60 49
f 42 49 43
f 42 58 59
f 43 49 44
f 49 60 61
f 49 61 50
f 52 62 53
f 53 62 63
f 53 63 55
f 53 55 54
f 55 63 64
f 55 64 65
f 55 65 66
f 55 66 56
f 56 67 57
f 56 66 65
f 56 65 68
f 56 68 69
f 56 69 70
f 56 70 71
f 56 71 67
f 57 67 72
f 57 72 73
f 57 73 74
f 57 74 75
f 57 75 58
f 58 75 59
f 59 61 60
f 59 75 61
f 61 75 76
f 67 71 77
f 67 77 72
f 68 78 69
f 69 78 79
f 69 79 80
f 69 80 70
f 72 77 73
f 73 77 81
f 73 81 74
f 74 81 76
f 74 76 75

