# https://github.com/mikedh/trimesh
v -0.03283694 0.03685719 0.17796502
v -0.03264844 0.03815901 0.17796502
v -0.03275616 0.03681003 0.17796502
v -0.07347171 0.03681003 0.19840483
v -0.07332361 0.04161354 0.19851099
v -0.03208295 0.04189654 0.17796502
v 0.03048489 0.03681003 0.17796502
v -0.08700316 0.03681003 0.20591551
v -0.09139247 0.04077962 0.20902506
v -0.02166171 0.05113000 0.17796502
v -0.02926895 0.04549634 0.17796502
v 0.02987900 0.03882124 0.17796502
v 0.03432217 0.04319270 0.18671419
v 0.03432217 0.03702699 0.18422833
v 0.03432217 0.03681003 0.18414871
v -0.09179640 0.03681003 0.20884813
v -0.10162522 0.03681003 0.21875179
v -0.10021149 0.04009286 0.21972047
v -0.01511814 0.05392984 0.17796502
v -0.01748783 0.05298839 0.17796502
v 0.02854606 0.04099847 0.17796502
v 0.03432217 0.04322854 0.19552973
v 0.02605519 0.04469450 0.17796502
v 0.02235255 0.04900181 0.17796502
v 0.02038679 0.05032061 0.17796502
v 0.03432217 0.03681003 0.20088628
v -0.10322745 0.03681003 0.22239211
v -0.10021149 0.04009286 0.22025569
v -0.00500657 0.05608255 0.17796502
v 0.03432217 0.03971930 0.19995740
v 0.01494728 0.05288839 0.17796502
v 0.01202556 0.05374872 0.17796502
v 0.00499728 0.05576559 0.17796502
v 0.01141968 0.05059795 0.19117282
v 0.00499728 0.05128659 0.19234057
v -0.09319667 0.03681003 0.22306886
v 0.03432217 0.03795147 0.20052357
v -0.09535093 0.03681003 0.22314849
v -0.09498740 0.04015324 0.22027780
v -0.00500657 0.05145073 0.19262807
v -0.00500657 0.05422039 0.18500240
v 0.00202171 0.05585993 0.17796502
v -0.08976331 0.04011173 0.22011414
v 0.00499728 0.05389966 0.18500240
f 1 2 6
f 1 6 11
f 1 11 10
f 1 10 20
f 1 20 19
f 1 19 29
f 1 29 42
f 1 42 33
f 1 33 32
f 1 32 31
f 1 31 25
f 1 25 24
f 1 24 23
f 1 23 21
f 1 21 12
f 1 12 7
f 1 7 3
f 1 3 4
f 1 4 5
f 1 5 2
f 2 5 6
f 3 7 15
f 3 15 26
f 3 26 36
f 3 36 38
f 3 38 27
f 3 27 17
f 3 17 16
f 3 16 8
f 3 8 4
f 4 8 5
f 5 8 9
f 5 9 10
f 5 10 11
f 5 11 6
f 7 12 13
f 7 13 14
f 7 14 15
f 8 16 9
f 9 16 17
f 9 17 18
f 9 18 19
f 9 19 20
f 9 20 10
f 12 21 13
f 13 22 30
f 13 30 37
f 13 37 26
f 13 26 15
f 13 15 14
f 13 21 23
f 13 23 24
f 13 24 25
f 13 25 22
f 17 27 18
f 18 27 28
f 18 28 29
f 18 29 19
f 22 25 31
f 22 31 32
f 22 32 33
f 22 33 34
f 22 34 35
f 22 35 30
f 26 37 36
f 27 38 28
f 28 38 39
f 28 39 40
f 28 40 41
f 28 41 29
f 29 41 42
f 30 35 43
f 30 43 36
f 30 36 37
f 33 42 41
f 33 41 44
f 33 44 34
f 34 44 35
f 35 44 41
f 35 41 40
f 35 40 43
f 36 43 39
f 36 39 38
f 39 43 40

