# https://github.com/mikedh/trimesh
v 0.03049506 0.03681319 0.17796496
v 0.03045787 0.07104780 -0.14503512
v 0.03045787 0.07107814 -0.13506681
v 0.03040828 0.06110399 0.07493678
v 0.03038348 0.05119051 0.12497905
v 0.03031529 0.05073554 0.13494736
v 0.03012312 0.05024517 0.14150369
v 0.02988137 0.03882521 0.17796496
v -0.03274651 0.03681319 0.17796496
v 0.03018511 0.03681319 0.17114103
v 0.00499883 0.03693958 -0.43498591
v 0.01499772 0.03750072 -0.43498591
v 0.02098589 0.03903247 -0.43498591
v 0.02505859 0.04500280 -0.44495422
v 0.02522596 0.04500280 -0.43498591
v 0.02924907 0.05428437 -0.49499649
v 0.03008593 0.05928408 -0.49499649
v 0.03044547 0.05881899 -0.38494363
v 0.03044547 0.06108883 -0.38494363
v 0.03045167 0.07100230 -0.15500343
v 0.02728401 0.07579980 -0.18497527
v 0.02228147 0.08318562 -0.18497527
v 0.02704225 0.07607784 -0.13506681
v 0.03045167 0.07104275 -0.12503159
v 0.03033389 0.06071473 0.08497198
v 0.03043927 0.07094669 -0.11506328
v 0.03041448 0.07084054 -0.10502806
v 0.03037108 0.07071415 -0.09505975
v 0.03000535 0.07001146 -0.01785551
v 0.03014792 0.06027998 0.09246495
v 0.02671371 0.05574030 0.13494736
v 0.02525696 0.05498706 0.14518327
v 0.02422793 0.05382434 0.15495089
v 0.02605662 0.04469443 0.17796496
v 0.02854859 0.04099900 0.17796496
v -0.03283329 0.03685869 0.17796496
v -0.03281470 0.03681319 0.17783117
v 0.02970780 0.03681319 0.16498610
v -0.01499895 0.03693958 -0.43498591
v -0.00499386 0.03881510 -0.49499649
v 0.00499883 0.03906281 -0.49499649
v 0.02826964 0.03681319 0.15541920
v 0.02348406 0.03681319 0.13735580
v 0.01833274 0.03681319 0.12497905
v 0.01539445 0.03681319 0.11929241
v 0.00499883 0.03681319 0.10985932
v -0.00065461 0.03681319 0.10932410
v -0.00499386 0.03681319 0.10892269
v 0.01048489 0.03984638 -0.50021482
v 0.01499772 0.03797086 -0.44495422
v 0.02079992 0.03924480 -0.44495422
v 0.02424653 0.04656490 -0.49499649
v 0.02280838 0.04774279 -0.50182045
v 0.03005494 0.05952168 -0.50008094
v 0.03008593 0.06016370 -0.49499649
v 0.03040208 0.07080009 -0.18497527
v 0.03042687 0.07088098 -0.17494005
v 0.03035249 0.07067876 -0.19494358
v 0.03028430 0.07052205 -0.20497879
v 0.02489122 0.07499600 -0.35497180
v 0.02094870 0.08095117 -0.36494011
v 0.01499772 0.08735120 -0.18497527
v 0.01724793 0.07921214 0.03499661
v 0.02492841 0.07421243 0.03499661
v 0.02845561 0.06587116 0.06496847
v 0.02471765 0.07385350 0.04496494
v 0.02421554 0.07312048 0.05493325
v 0.02345307 0.07233185 0.06496847
v 0.02400477 0.06310084 0.11494383
v 0.02299435 0.06214033 0.12497905
v 0.02279598 0.05229257 0.16498610
v 0.02234966 0.04900662 0.17796496
v 0.02171117 0.06116971 0.13494736
v 0.02068214 0.06046197 0.14210582
v -0.03207703 0.04189884 0.17796496
v -0.03138894 0.06249420 0.08497198
v -0.03145093 0.06331822 0.07493678
v -0.03149433 0.07272617 -0.11506328
v -0.03151292 0.07292333 -0.12503159
v -0.03151912 0.07301432 -0.13506681
v -0.03151912 0.07294860 -0.14503512
v -0.03150053 0.06318173 -0.38494363
v -0.03156871 0.05500222 -0.49499649
v -0.03042191 0.04946160 -0.49499649
v -0.03123397 0.03681319 0.15749314
v -0.02204094 0.03847133 -0.43498591
v -0.02178059 0.03872916 -0.44495422
v -0.01499895 0.03745522 -0.44495422
v -0.01120520 0.03968461 -0.50048238
v -0.00866983 0.03681319 0.11139804
v -0.01499895 0.03681319 0.11594734
v -0.01798684 0.03681319 0.12029594
v -0.02134666 0.03681319 0.12711990
v -0.02537597 0.03681319 0.13702130
v -0.02942388 0.03681319 0.14852834
v -0.03097361 0.03681319 0.15568680
v -0.00499386 0.03936613 -0.50088382
v 0.00499883 0.03949251 -0.50075001
v 0.01429104 0.04464388 -0.50228870
v 0.01560521 0.04156519 -0.49499649
v 0.02044038 0.03959867 -0.45184505
v 0.01499772 0.05500222 -0.50549996
v 0.02568468 0.05571502 -0.50222182
v 0.03005494 0.06011315 -0.50008094
v 0.03020991 0.07037039 -0.21494710
v 0.02469285 0.07499600 -0.36494011
v 0.03012932 0.07022379 -0.22498232
v 0.03004874 0.07007718 -0.23495063
v 0.02999915 0.07000135 -0.24010205
v 0.02073173 0.08072368 -0.37497532
v 0.01499772 0.08246271 -0.36494011
v 0.01499772 0.08714899 -0.19494358
v 0.00499883 0.08825611 -0.19494358
v 0.00499883 0.08839260 -0.18497527
v 0.00499883 0.08164880 0.03499661
v 0.01225158 0.08059730 0.03499661
v 0.01145192 0.08038497 0.04289100
v 0.01487374 0.07905037 0.04570085
v 0.02241784 0.07154322 0.07493678
v 0.02122145 0.07075460 0.08497198
v 0.02039699 0.07023895 0.09152833
v 0.01929358 0.05973400 0.14879593
v 0.02039079 0.05032100 0.17796496
v 0.01912001 0.06970309 0.09815156
v -0.02925651 0.04549823 0.17796496
v -0.02994459 0.04989130 0.15976778
v -0.03057068 0.05085686 0.15307763
v -0.03105420 0.05172132 0.14498258
v -0.03037851 0.06049230 0.11266917
v -0.03076905 0.06107366 0.10497552
v -0.03112239 0.06175107 0.09494030
v -0.03083724 0.07108825 0.04496494
v -0.03099221 0.07133596 0.03499661
v -0.02804152 0.07801403 -0.13506681
v -0.02827707 0.07747816 -0.18497527
v -0.03150672 0.07284244 -0.15500343
v -0.03114098 0.06185218 -0.49499649
v -0.03149433 0.07273123 -0.16497174
v -0.03147573 0.07261495 -0.17494005
v -0.03076285 0.06124554 -0.50095069
v -0.03078764 0.05500222 -0.50101757
v -0.03028553 0.04963348 -0.50041550
v -0.02499784 0.04553867 -0.49499649
v -0.01666646 0.04108493 -0.49499649
v -0.02499784 0.04780851 -0.50168663
v -0.01472000 0.04446694 -0.50248945
v -0.00499386 0.04500280 -0.50369370
v 0.00499883 0.04500280 -0.50349295
v -0.01499895 0.05500222 -0.50549996
v -0.00499386 0.06499659 -0.50529933
v 0.00499883 0.06499659 -0.50523239
v 0.01499772 0.06499659 -0.50416195
v 0.02424033 0.06406135 -0.50135207
v 0.02039699 0.07025917 -0.50034857
v 0.02026681 0.08025353 -0.38494363
v 0.01499772 0.08196224 -0.37497532
v 0.00499883 0.08302385 -0.36494011
v -0.00499386 0.08829655 -0.19494358
v -0.00499386 0.08845326 -0.18497527
v -0.00499386 0.08184596 0.03499661
v -0.00499386 0.08116350 0.04496494
v 0.00564352 0.08079951 0.04570085
v 0.00941247 0.07994010 0.04958113
v 0.01499772 0.07765510 0.05493325
v 0.01499772 0.06399058 0.13494736
v 0.01557421 0.06175107 0.14525017
v 0.01262972 0.06089167 0.15314454
v 0.01557421 0.05903637 0.15588748
v 0.01494812 0.05289416 0.17796496
v 0.01499772 0.07610817 0.06496847
v 0.01546883 0.07134101 0.09487340
v 0.01210901 0.07063326 0.10497552
v 0.01711155 0.06906611 0.10497552
v -0.02506603 0.05500222 0.15508467
v -0.02165041 0.05113491 0.17796496
v -0.02224551 0.05155955 0.17495441
v -0.02018126 0.06010810 0.15033469
v -0.02615704 0.05672103 0.14498258
v -0.02985161 0.05969862 0.11929241
v -0.03011196 0.07012773 0.06082056
v -0.03042811 0.07052205 0.05493325
v -0.02499784 0.07538527 0.04496494
v -0.02499784 0.07597674 0.03499661
v -0.02327453 0.08395403 -0.18497527
v -0.02792994 0.07662382 -0.24498585
v -0.03143853 0.07247846 -0.18497527
v -0.02998798 0.06996091 -0.34928519
v -0.02672114 0.07499600 -0.36494011
v -0.02202235 0.08150725 -0.36494011
v -0.02172480 0.08123932 -0.37497532
v -0.02648558 0.06684683 -0.49499649
v -0.03138274 0.07230152 -0.19494358
v -0.03109759 0.07172521 -0.23495063
v -0.03100461 0.07162411 -0.24498585
v -0.03080624 0.07136123 -0.26498938
v -0.02461350 0.06474382 -0.50215495
v -0.02499784 0.05500222 -0.50376058
v -0.02102432 0.07059282 -0.50075001
v -0.01499895 0.06499659 -0.50456339
v -0.00499386 0.07246835 -0.50255632
v 0.00499883 0.07235713 -0.50248945
v 0.01499772 0.07123485 -0.50141901
v 0.00499883 0.07463202 -0.49499649
v 0.01499772 0.07240769 -0.49499649
v 0.01499772 0.07693724 -0.45498943
v 0.02000646 0.08000582 -0.39009506
v 0.00499883 0.07839824 -0.45498943
v -0.00499386 0.07844374 -0.45498943
v -0.01499895 0.08302385 -0.36494011
v -0.01499895 0.08795279 -0.19494358
v -0.01499895 0.08818027 -0.18497527
v -0.01351740 0.08079445 0.03499661
v -0.01202346 0.08045575 0.04496494
v -0.01040554 0.08008671 0.05058466
v -0.00499386 0.08025859 0.05172198
v 0.00274241 0.08025353 0.05172198
v 0.00499883 0.07502128 0.08497198
v 0.00499883 0.07350469 0.09494030
v 0.01036091 0.07010246 0.11052832
v 0.01499772 0.07301432 0.08497198
v 0.00499883 0.06425346 0.14498258
v 0.00966043 0.05995644 0.15983468
v 0.01203462 0.05375356 0.17796496
v -0.01747852 0.05299021 0.17796496
v -0.02115449 0.06067935 0.14498258
v -0.01511053 0.05393050 0.17796496
v -0.01726776 0.05915264 0.15702483
v -0.01060390 0.06017381 0.16063750
v -0.01436046 0.06080067 0.15421495
v -0.01499895 0.06276213 0.14498258
v -0.01499895 0.06473877 0.13494736
v -0.02005728 0.07002663 0.10015860
v -0.02412379 0.06265092 0.12497905
v -0.02590908 0.06318173 0.11554593
v -0.02275382 0.06168535 0.13494736
v -0.02081975 0.07044116 0.09494030
v -0.02222691 0.07122979 0.08497198
v -0.02351629 0.07201842 0.07493678
v -0.02565493 0.07231668 0.06443325
v -0.02499784 0.07410121 0.05493325
v -0.01702600 0.07929303 0.04496494
v -0.01851375 0.07964184 0.03499661
v -0.02691951 0.07499600 -0.35497180
v -0.01499895 0.08247788 -0.37497532
v -0.01499895 0.07794326 -0.45498943
v -0.02261125 0.07374229 -0.45498943
v -0.02148924 0.07085570 -0.49499649
v -0.01499895 0.07311542 -0.49499649
v -0.01499895 0.07159378 -0.50182045
v -0.00499386 0.07485446 -0.49499649
v -0.00499386 0.07950535 0.05673958
v -0.01424268 0.07860550 0.05433114
v -0.01499895 0.07679065 0.06496847
v -0.01499895 0.07370690 0.08497198
v -0.01499895 0.07215492 0.09494030
v -0.01109362 0.07026929 0.11139804
v -0.00499386 0.07371701 0.09494030
v -0.00499386 0.07523866 0.08497198
v -0.00499386 0.07202853 0.10497552
v 0.00499883 0.07179599 0.10497552
v 0.00499883 0.06619975 0.13494736
v -0.00499386 0.06449611 0.14498258
v -0.00499386 0.06217572 0.15495089
v 0.00299037 0.06040130 0.16150722
v 0.00579229 0.06153875 0.15588748
v 0.00499883 0.05577063 0.17796496
v -0.00499386 0.05608406 0.17796496
v -0.00499386 0.06043164 0.16157413
v -0.01465181 0.06867686 0.11487693
v -0.01499895 0.06664968 0.12497905
v -0.01775748 0.06939472 0.10678184
v -0.01465181 0.07070909 0.10403889
v -0.00499386 0.06643230 0.13494736
v -0.00499386 0.06830277 0.12497905
v -0.00499386 0.06961714 0.11795440
v -0.00499386 0.07055238 0.11293679
v 0.00202954 0.05586668 0.17796496
f 1 2 3
f 1 3 4
f 1 4 5
f 1 5 6
f 1 6 7
f 1 7 8
f 1 8 35
f 1 35 34
f 1 34 72
f 1 72 123
f 1 123 169
f 1 169 223
f 1 223 266
f 1 266 277
f 1 277 267
f 1 267 226
f 1 226 224
f 1 224 175
f 1 175 125
f 1 125 75
f 1 75 36
f 1 36 9
f 1 9 37
f 1 37 85
f 1 85 96
f 1 96 95
f 1 95 94
f 1 94 93
f 1 93 92
f 1 92 91
f 1 91 90
f 1 90 48
f 1 48 47
f 1 47 46
f 1 46 45
f 1 45 44
f 1 44 43
f 1 43 42
f 1 42 38
f 1 38 10
f 1 10 11
f 1 11 12
f 1 12 13
f 1 13 14
f 1 14 15
f 1 15 16
f 1 16 17
f 1 17 18
f 1 18 19
f 1 19 2
f 2 20 21
f 2 21 3
f 2 19 20
f 3 21 22
f 3 22 23
f 3 23 24
f 3 24 4
f 4 25 6
f 4 6 5
f 4 24 26
f 4 26 27
f 4 27 28
f 4 28 29
f 4 29 25
f 6 25 30
f 6 30 7
f 7 31 32
f 7 32 33
f 7 33 34
f 7 34 35
f 7 35 8
f 7 30 31
f 9 36 37
f 10 38 11
f 11 39 40
f 11 40 41
f 11 41 12
f 11 38 42
f 11 42 43
f 11 43 44
f 11 44 45
f 11 45 46
f 11 46 47
f 11 47 48
f 11 48 39
f 12 41 49
f 12 49 50
f 12 50 51
f 12 51 13
f 13 51 14
f 14 51 52
f 14 52 16
f 14 16 15
f 16 52 53
f 16 53 54
f 16 54 17
f 17 54 104
f 17 104 55
f 17 55 19
f 17 19 18
f 19 55 56
f 19 56 57
f 19 57 20
f 20 57 21
f 21 57 56
f 21 56 58
f 21 58 59
f 21 59 60
f 21 60 61
f 21 61 22
f 22 61 62
f 22 62 63
f 22 63 64
f 22 64 29
f 22 29 23
f 23 29 27
f 23 27 26
f 23 26 24
f 25 29 65
f 25 65 30
f 27 29 28
f 29 64 66
f 29 66 65
f 30 65 66
f 30 66 67
f 30 67 68
f 30 68 69
f 30 69 31
f 31 69 70
f 31 70 32
f 32 70 33
f 33 71 72
f 33 72 34
f 33 70 73
f 33 73 74
f 33 74 71
f 36 75 76
f 36 76 77
f 36 77 78
f 36 78 79
f 36 79 80
f 36 80 81
f 36 81 82
f 36 82 83
f 36 83 84
f 36 84 37
f 37 84 86
f 37 86 39
f 37 39 85
f 39 86 87
f 39 87 88
f 39 88 89
f 39 89 40
f 39 48 90
f 39 90 91
f 39 91 92
f 39 92 93
f 39 93 94
f 39 94 95
f 39 95 96
f 39 96 85
f 40 89 97
f 40 97 98
f 40 98 41
f 41 98 49
f 49 98 99
f 49 99 53
f 49 53 52
f 49 52 100
f 49 100 101
f 49 101 51
f 49 51 50
f 51 101 52
f 52 101 100
f 53 99 102
f 53 102 103
f 53 103 54
f 54 103 104
f 55 104 58
f 55 58 56
f 58 104 59
f 59 105 60
f 59 104 105
f 60 106 61
f 60 105 107
f 60 107 108
f 60 108 109
f 60 109 106
f 61 106 104
f 61 104 110
f 61 110 111
f 61 111 112
f 61 112 62
f 62 112 113
f 62 113 114
f 62 114 115
f 62 115 116
f 62 116 63
f 63 116 117
f 63 117 118
f 63 118 68
f 63 68 67
f 63 67 66
f 63 66 64
f 68 118 119
f 68 119 69
f 69 119 120
f 69 120 70
f 70 120 121
f 70 121 73
f 71 74 122
f 71 122 72
f 72 122 123
f 73 121 74
f 74 121 124
f 74 124 122
f 75 125 126
f 75 126 127
f 75 127 128
f 75 128 129
f 75 129 130
f 75 130 131
f 75 131 76
f 76 131 132
f 76 132 133
f 76 133 77
f 77 133 78
f 78 133 79
f 79 134 80
f 79 133 134
f 80 134 135
f 80 135 81
f 81 136 82
f 81 135 136
f 82 137 83
f 82 136 138
f 82 138 139
f 82 139 137
f 83 137 140
f 83 140 141
f 83 141 142
f 83 142 84
f 84 142 87
f 84 87 86
f 87 142 143
f 87 143 144
f 87 144 89
f 87 89 88
f 89 144 142
f 89 142 145
f 89 145 146
f 89 146 147
f 89 147 97
f 97 147 98
f 98 147 148
f 98 148 99
f 99 148 102
f 102 149 150
f 102 150 151
f 102 151 152
f 102 152 103
f 102 148 147
f 102 147 149
f 103 153 104
f 103 152 153
f 104 153 154
f 104 154 110
f 104 106 109
f 104 109 108
f 104 108 107
f 104 107 105
f 110 155 156
f 110 156 111
f 110 154 155
f 111 156 157
f 111 157 113
f 111 113 112
f 113 158 159
f 113 159 114
f 113 157 158
f 114 159 160
f 114 160 115
f 115 160 161
f 115 161 162
f 115 162 117
f 115 117 116
f 117 162 163
f 117 163 164
f 117 164 118
f 118 164 121
f 118 121 120
f 118 120 119
f 121 164 124
f 122 165 166
f 122 166 167
f 122 167 168
f 122 168 169
f 122 169 123
f 122 124 165
f 124 164 170
f 124 170 171
f 124 171 172
f 124 172 173
f 124 173 165
f 125 174 126
f 125 175 176
f 125 176 177
f 125 177 174
f 126 174 178
f 126 178 179
f 126 179 127
f 127 179 129
f 127 129 128
f 129 179 180
f 129 180 130
f 130 180 181
f 130 181 132
f 130 132 131
f 132 181 182
f 132 182 183
f 132 183 133
f 133 183 184
f 133 184 134
f 134 184 135
f 135 184 185
f 135 185 186
f 135 186 139
f 135 139 138
f 135 138 136
f 137 187 188
f 137 188 189
f 137 189 190
f 137 190 191
f 137 191 140
f 137 139 186
f 137 186 192
f 137 192 193
f 137 193 194
f 137 194 195
f 137 195 187
f 140 196 197
f 140 197 141
f 140 191 198
f 140 198 196
f 141 197 142
f 142 144 143
f 142 197 145
f 145 197 149
f 145 149 146
f 146 149 147
f 149 197 199
f 149 199 150
f 150 199 200
f 150 200 151
f 151 200 201
f 151 201 152
f 152 201 202
f 152 202 154
f 152 154 153
f 154 202 203
f 154 203 204
f 154 204 205
f 154 205 206
f 154 206 155
f 155 206 156
f 156 206 205
f 156 205 207
f 156 207 157
f 157 207 208
f 157 208 209
f 157 209 158
f 158 210 211
f 158 211 159
f 158 209 210
f 159 211 160
f 160 212 213
f 160 213 161
f 160 211 212
f 161 213 214
f 161 214 215
f 161 215 216
f 161 216 162
f 162 216 163
f 163 170 164
f 163 216 217
f 163 217 218
f 163 218 219
f 163 219 172
f 163 172 220
f 163 220 170
f 165 167 166
f 165 173 172
f 165 172 219
f 165 219 167
f 167 219 221
f 167 221 222
f 167 222 169
f 167 169 168
f 169 222 223
f 170 220 171
f 171 220 172
f 174 177 178
f 175 224 177
f 175 177 176
f 177 225 178
f 177 224 226
f 177 226 227
f 177 227 228
f 177 228 229
f 177 229 230
f 177 230 231
f 177 231 232
f 177 232 225
f 178 225 179
f 179 233 234
f 179 234 180
f 179 225 235
f 179 235 233
f 180 236 237
f 180 237 238
f 180 238 239
f 180 239 240
f 180 240 182
f 180 182 181
f 180 234 236
f 182 241 242
f 182 242 183
f 182 240 241
f 183 242 184
f 184 211 189
f 184 189 185
f 184 242 211
f 185 195 194
f 185 194 186
f 185 189 243
f 185 243 195
f 186 194 193
f 186 193 192
f 187 243 188
f 187 195 243
f 188 243 189
f 189 209 190
f 189 211 210
f 189 210 209
f 190 209 244
f 190 244 245
f 190 245 246
f 190 246 191
f 191 247 198
f 191 246 247
f 196 199 197
f 196 198 199
f 198 247 245
f 198 245 248
f 198 248 249
f 198 249 199
f 199 249 200
f 200 249 250
f 200 250 201
f 201 250 203
f 201 203 202
f 203 250 207
f 203 207 205
f 203 205 204
f 207 250 208
f 208 250 245
f 208 245 244
f 208 244 209
f 211 242 212
f 212 242 213
f 213 242 241
f 213 241 214
f 214 251 215
f 214 241 252
f 214 252 253
f 214 253 254
f 214 254 255
f 214 255 256
f 214 256 257
f 214 257 258
f 214 258 251
f 215 251 216
f 216 251 258
f 216 258 257
f 216 257 218
f 216 218 217
f 218 257 259
f 218 259 260
f 218 260 219
f 219 260 261
f 219 261 221
f 221 261 262
f 221 262 263
f 221 263 264
f 221 264 265
f 221 265 222
f 222 265 266
f 222 266 223
f 225 232 235
f 226 267 228
f 226 228 227
f 228 268 263
f 228 263 262
f 228 262 230
f 228 230 229
f 228 267 268
f 230 262 256
f 230 256 231
f 231 256 269
f 231 269 270
f 231 270 271
f 231 271 232
f 232 271 256
f 232 256 272
f 232 272 255
f 232 255 254
f 232 254 253
f 232 253 241
f 232 241 236
f 232 236 234
f 232 234 233
f 232 233 235
f 236 241 237
f 237 241 238
f 238 241 240
f 238 240 239
f 241 253 252
f 245 250 248
f 245 247 246
f 248 250 249
f 255 272 256
f 256 262 273
f 256 273 274
f 256 274 275
f 256 275 276
f 256 276 259
f 256 259 257
f 256 271 269
f 259 276 260
f 260 276 275
f 260 275 261
f 261 275 274
f 261 274 273
f 261 273 262
f 263 268 264
f 264 268 267
f 264 267 277
f 264 277 266
f 264 266 265
f 269 271 270

