# Blender 4.0.0
# www.blender.org
o RangeHood024_Button002
v -0.256362 -0.150399 -0.234867
v -0.256420 -0.150399 -0.235362
v -0.256584 -0.150399 -0.235817
v -0.256841 -0.150399 -0.236218
v -0.257178 -0.150399 -0.236553
v -0.257581 -0.150399 -0.236809
v -0.258039 -0.150399 -0.236972
v -0.258538 -0.150399 -0.237029
v -0.259036 -0.150399 -0.236972
v -0.259494 -0.150399 -0.236809
v -0.259898 -0.150399 -0.236553
v -0.260235 -0.150399 -0.236218
v -0.260492 -0.150399 -0.235817
v -0.260655 -0.150399 -0.235362
v -0.260713 -0.150399 -0.234867
v -0.260655 -0.150399 -0.234371
v -0.260492 -0.150399 -0.233916
v -0.260235 -0.150399 -0.233515
v -0.259898 -0.150399 -0.233180
v -0.259494 -0.150399 -0.232924
v -0.259036 -0.150399 -0.232762
v -0.258538 -0.150399 -0.232705
v -0.258039 -0.150399 -0.232762
v -0.257581 -0.150399 -0.232924
v -0.257178 -0.150399 -0.233180
v -0.256841 -0.150399 -0.233515
v -0.256584 -0.150399 -0.233916
v -0.256420 -0.150399 -0.234371
v -0.256362 -0.152428 -0.234867
v -0.256420 -0.152428 -0.235362
v -0.256584 -0.152428 -0.235817
v -0.256841 -0.152428 -0.236218
v -0.257178 -0.152428 -0.236553
v -0.257581 -0.152428 -0.236809
v -0.258039 -0.152428 -0.236972
v -0.258538 -0.152428 -0.237029
v -0.259036 -0.152428 -0.236972
v -0.259494 -0.152428 -0.236809
v -0.259898 -0.152428 -0.236553
v -0.260235 -0.152428 -0.236218
v -0.260492 -0.152428 -0.235817
v -0.260655 -0.152428 -0.235362
v -0.260713 -0.152428 -0.234867
v -0.260655 -0.152428 -0.234371
v -0.260492 -0.152428 -0.233916
v -0.260235 -0.152428 -0.233515
v -0.259898 -0.152428 -0.233180
v -0.259494 -0.152428 -0.232924
v -0.259036 -0.152428 -0.232762
v -0.258538 -0.152428 -0.232705
v -0.258039 -0.152428 -0.232762
v -0.257581 -0.152428 -0.232924
v -0.257178 -0.152428 -0.233180
v -0.256841 -0.152428 -0.233515
v -0.256584 -0.152428 -0.233916
v -0.256420 -0.152428 -0.234371
vn 0.9739 -0.0000 -0.2268
vn 1.0000 -0.0000 -0.0000
vn 0.8975 -0.0000 -0.4409
vn 0.8975 -0.0000 -0.4411
vn 0.7783 -0.0000 -0.6279
vn 0.6235 -0.0000 -0.7818
vn 0.6232 -0.0000 -0.7820
vn 0.4365 -0.0000 -0.8997
vn 0.4366 -0.0000 -0.8997
vn 0.2239 -0.0000 -0.9746
vn 0.2240 -0.0000 -0.9746
vn -0.0000 -0.0000 -1.0000
vn -0.2240 -0.0000 -0.9746
vn -0.4366 -0.0000 -0.8997
vn -0.6235 -0.0000 -0.7818
vn -0.6232 -0.0000 -0.7821
vn -0.7783 -0.0000 -0.6279
vn -0.8975 -0.0000 -0.4409
vn -0.8975 -0.0000 -0.4410
vn -0.9739 -0.0000 -0.2268
vn -0.9740 -0.0000 -0.2268
vn -1.0000 -0.0000 -0.0000
vn -0.9739 -0.0000 0.2268
vn -0.8975 -0.0000 0.4411
vn -0.8975 -0.0000 0.4409
vn -0.7783 -0.0000 0.6279
vn -0.7785 -0.0000 0.6276
vn -0.6235 -0.0000 0.7818
vn -0.4366 -0.0000 0.8997
vn -0.2240 -0.0000 0.9746
vn -0.2241 -0.0000 0.9746
vn -0.0000 -0.0000 1.0000
vn 0.2240 -0.0000 0.9746
vn 0.2239 -0.0000 0.9746
vn 0.4365 -0.0000 0.8997
vn 0.4366 -0.0000 0.8997
vn 0.6235 -0.0000 0.7818
vn 0.6232 -0.0000 0.7820
vn 0.7783 -0.0000 0.6279
vn 0.8975 -0.0000 0.4410
vn 0.8975 -0.0000 0.4411
vn 0.9740 -0.0000 0.2266
vn -0.0000 1.0000 -0.0000
vn -0.0000 -1.0000 -0.0000
vn 0.0010 -1.0000 -0.0000
vn 0.0007 -1.0000 -0.0000
vt 0.948410 0.857145
vt 0.948428 0.857306
vt 0.948356 0.856997
vt 0.948274 0.856868
vt 0.948164 0.856759
vt 0.948034 0.856675
vt 0.947885 0.856623
vt 0.947724 0.856605
vt 0.947563 0.856623
vt 0.947415 0.856675
vt 0.947283 0.856759
vt 0.947175 0.856868
vt 0.947091 0.856997
vt 0.947038 0.857145
vt 0.947019 0.857306
vt 0.947038 0.857465
vt 0.947091 0.857614
vt 0.947175 0.857743
vt 0.947283 0.857852
vt 0.947415 0.857934
vt 0.947563 0.857986
vt 0.947724 0.858006
vt 0.947885 0.857986
vt 0.948034 0.857934
vt 0.948164 0.857852
vt 0.948274 0.857743
vt 0.948356 0.857614
vt 0.948410 0.857465
s 1
f 30/1/1 2/1/1 1/2/2
f 1/2/2 29/2/2 30/1/1
f 31/3/3 3/3/4 2/1/1
f 2/1/1 30/1/1 31/3/3
f 32/4/5 4/4/5 3/3/4
f 3/3/4 31/3/3 32/4/5
f 33/5/6 5/5/7 4/4/5
f 4/4/5 32/4/5 33/5/6
f 34/6/8 6/6/9 5/5/7
f 5/5/7 33/5/6 34/6/8
f 35/7/10 7/7/11 6/6/9
f 6/6/9 34/6/8 35/7/10
f 36/8/12 8/8/12 7/7/11
f 7/7/11 35/7/10 36/8/12
f 37/9/13 9/9/13 8/8/12
f 8/8/12 36/8/12 37/9/13
f 38/10/14 10/10/14 9/9/13
f 9/9/13 37/9/13 38/10/14
f 39/11/15 11/11/16 10/10/14
f 10/10/14 38/10/14 39/11/15
f 40/12/17 12/12/17 11/11/16
f 11/11/16 39/11/15 40/12/17
f 41/13/18 13/13/19 12/12/17
f 12/12/17 40/12/17 41/13/18
f 42/14/20 14/14/21 13/13/19
f 13/13/19 41/13/18 42/14/20
f 43/15/22 15/15/22 14/14/21
f 14/14/21 42/14/20 43/15/22
f 44/16/23 16/16/23 15/15/22
f 15/15/22 43/15/22 44/16/23
f 45/17/24 17/17/25 16/16/23
f 16/16/23 44/16/23 45/17/24
f 46/18/26 18/18/27 17/17/25
f 17/17/25 45/17/24 46/18/26
f 47/19/28 19/19/28 18/18/27
f 18/18/27 46/18/26 47/19/28
f 48/20/29 20/20/29 19/19/28
f 19/19/28 47/19/28 48/20/29
f 49/21/30 21/21/31 20/20/29
f 20/20/29 48/20/29 49/21/30
f 50/22/32 22/22/32 21/21/31
f 21/21/31 49/21/30 50/22/32
f 51/23/33 23/23/34 22/22/32
f 22/22/32 50/22/32 51/23/33
f 52/24/35 24/24/36 23/23/34
f 23/23/34 51/23/33 52/24/35
f 53/25/37 25/25/38 24/24/36
f 24/24/36 52/24/35 53/25/37
f 54/26/39 26/26/39 25/25/38
f 25/25/38 53/25/37 54/26/39
f 55/27/40 27/27/41 26/26/39
f 26/26/39 54/26/39 55/27/40
f 56/28/42 28/28/42 27/27/41
f 27/27/41 55/27/40 56/28/42
f 29/2/2 1/2/2 28/28/42
f 28/28/42 56/28/42 29/2/2
f 21/21/43 22/22/43 23/23/43
f 16/16/43 17/17/43 18/18/43
f 15/15/43 16/16/43 18/18/43
f 14/14/43 15/15/43 18/18/43
f 13/13/43 14/14/43 18/18/43
f 12/12/43 13/13/43 18/18/43
f 11/11/43 12/12/43 18/18/43
f 10/10/43 11/11/43 18/18/43
f 9/9/43 10/10/43 18/18/43
f 8/8/43 9/9/43 18/18/43
f 7/7/43 8/8/43 18/18/43
f 6/6/43 7/7/43 18/18/43
f 5/5/43 6/6/43 18/18/43
f 4/4/43 5/5/43 18/18/43
f 3/3/43 4/4/43 18/18/43
f 2/1/43 3/3/43 18/18/43
f 1/2/43 2/1/43 18/18/43
f 28/28/43 1/2/43 18/18/43
f 27/27/43 28/28/43 18/18/43
f 26/26/43 27/27/43 18/18/43
f 25/25/43 26/26/43 18/18/43
f 25/25/43 18/18/43 19/19/43
f 25/25/43 19/19/43 20/20/43
f 24/24/43 25/25/43 20/20/43
f 23/23/43 24/24/43 20/20/43
f 21/21/43 23/23/43 20/20/43
f 46/18/44 45/17/45 44/16/46
f 46/18/44 44/16/46 43/15/44
f 46/18/44 43/15/44 42/14/44
f 46/18/44 42/14/44 41/13/44
f 46/18/44 41/13/44 40/12/44
f 46/18/44 40/12/44 39/11/44
f 46/18/44 39/11/44 38/10/44
f 46/18/44 38/10/44 37/9/44
f 46/18/44 37/9/44 36/8/44
f 46/18/44 36/8/44 35/7/44
f 46/18/44 35/7/44 34/6/44
f 46/18/44 34/6/44 33/5/44
f 46/18/44 33/5/44 32/4/44
f 46/18/44 32/4/44 31/3/44
f 46/18/44 31/3/44 30/1/44
f 46/18/44 30/1/44 29/2/44
f 46/18/44 29/2/44 56/28/44
f 46/18/44 56/28/44 55/27/44
f 46/18/44 55/27/44 54/26/44
f 46/18/44 54/26/44 53/25/44
f 47/19/44 46/18/44 53/25/44
f 48/20/44 47/19/44 53/25/44
f 48/20/44 53/25/44 52/24/44
f 48/20/44 52/24/44 51/23/44
f 49/21/44 48/20/44 51/23/44
f 49/21/44 51/23/44 50/22/44
o RangeHood024_Body001_Collider1
v 0.313669 0.149771 -0.212050
v 0.313669 0.149771 -0.267882
v 0.313669 -0.145180 -0.212050
v 0.313669 -0.145180 -0.267882
v -0.313237 0.149771 -0.212050
v -0.313237 0.149771 -0.267882
v -0.313237 -0.145180 -0.212050
v -0.313237 -0.145180 -0.267882
vn 1.0000 -0.0000 -0.0000
vn -0.0000 -1.0000 -0.0000
vn -1.0000 -0.0000 -0.0000
vn -0.0000 1.0000 -0.0000
vn -0.0000 -0.0000 1.0000
vn -0.0000 -0.0000 -1.0000
vt 0.375000 0.000000
vt 0.625000 0.000000
vt 0.625000 0.250000
vt 0.375000 0.250000
vt 0.625000 0.500000
vt 0.375000 0.500000
vt 0.625000 0.750000
vt 0.375000 0.750000
vt 0.625000 1.000000
vt 0.375000 1.000000
vt 0.125000 0.500000
vt 0.125000 0.750000
vt 0.875000 0.500000
vt 0.875000 0.750000
s 0
f 57/29/47 59/32/47 60/31/47 58/30/47
f 59/32/48 63/34/48 64/33/48 60/31/48
f 63/34/49 61/36/49 62/35/49 64/33/49
f 61/36/50 57/38/50 58/37/50 62/35/50
f 59/39/51 57/40/51 61/36/51 63/34/51
f 64/33/52 62/35/52 58/42/52 60/41/52
o RangeHood024_Body001_Collider2
v -0.111663 -0.017720 -0.212196
v -0.111663 -0.017720 0.052933
v -0.111663 0.151896 -0.212196
v -0.111663 0.151896 0.052933
v 0.111663 -0.017720 -0.212196
v 0.111663 -0.017720 0.052933
v 0.111663 0.151896 -0.212196
v 0.111663 0.151896 0.052933
vn -1.0000 -0.0000 -0.0000
vn -0.0000 1.0000 -0.0000
vn 1.0000 -0.0000 -0.0000
vn -0.0000 -1.0000 -0.0000
vn -0.0000 -0.0000 -1.0000
vn -0.0000 -0.0000 1.0000
vt 0.375000 0.000000
vt 0.625000 0.000000
vt 0.625000 0.250000
vt 0.375000 0.250000
vt 0.625000 0.500000
vt 0.375000 0.500000
vt 0.625000 0.750000
vt 0.375000 0.750000
vt 0.625000 1.000000
vt 0.375000 1.000000
vt 0.125000 0.500000
vt 0.125000 0.750000
vt 0.875000 0.500000
vt 0.875000 0.750000
s 0
f 65/43/53 66/44/53 68/45/53 67/46/53
f 67/46/54 68/45/54 72/47/54 71/48/54
f 71/48/55 72/47/55 70/49/55 69/50/55
f 69/50/56 70/49/56 66/51/56 65/52/56
f 67/53/57 71/48/57 69/50/57 65/54/57
f 72/47/58 68/55/58 66/56/58 70/49/58
o RangeHood024_Body001_Collider3
v -0.111663 0.027260 0.053955
v -0.111663 0.027260 0.299442
v -0.111663 0.151896 0.053955
v -0.111663 0.151896 0.299442
v 0.111663 0.027260 0.053955
v 0.111663 0.027260 0.299442
v 0.111663 0.151896 0.053955
v 0.111663 0.151896 0.299442
vn -1.0000 -0.0000 -0.0000
vn -0.0000 1.0000 -0.0000
vn 1.0000 -0.0000 -0.0000
vn -0.0000 -1.0000 -0.0000
vn -0.0000 -0.0000 -1.0000
vn -0.0000 -0.0000 1.0000
vt 0.375000 0.000000
vt 0.625000 0.000000
vt 0.625000 0.250000
vt 0.375000 0.250000
vt 0.625000 0.500000
vt 0.375000 0.500000
vt 0.625000 0.750000
vt 0.375000 0.750000
vt 0.625000 1.000000
vt 0.375000 1.000000
vt 0.125000 0.500000
vt 0.125000 0.750000
vt 0.875000 0.500000
vt 0.875000 0.750000
s 0
f 73/57/59 74/58/59 76/59/59 75/60/59
f 75/60/60 76/59/60 80/61/60 79/62/60
f 79/62/61 80/61/61 78/63/61 77/64/61
f 77/64/62 78/63/62 74/65/62 73/66/62
f 75/67/63 79/62/63 77/64/63 73/68/63
f 80/61/64 76/69/64 74/70/64 78/63/64
o RangeHood024_Body001_Collider4
v 0.032134 0.009457 -0.266566
v 0.032134 0.009457 -0.300743
v 0.032134 -0.031256 -0.266566
v 0.032134 -0.031256 -0.300743
v -0.032398 0.009457 -0.266566
v -0.032398 0.009457 -0.300743
v -0.032398 -0.031256 -0.266566
v -0.032398 -0.031256 -0.300743
vn 1.0000 -0.0000 -0.0000
vn -0.0000 -1.0000 -0.0000
vn -1.0000 -0.0000 -0.0000
vn -0.0000 1.0000 -0.0000
vn -0.0000 -0.0000 1.0000
vn -0.0000 -0.0000 -1.0000
vt 0.375000 0.000000
vt 0.625000 0.000000
vt 0.625000 0.250000
vt 0.375000 0.250000
vt 0.625000 0.500000
vt 0.375000 0.500000
vt 0.625000 0.750000
vt 0.375000 0.750000
vt 0.625000 1.000000
vt 0.375000 1.000000
vt 0.125000 0.500000
vt 0.125000 0.750000
vt 0.875000 0.500000
vt 0.875000 0.750000
s 0
f 81/71/65 83/74/65 84/73/65 82/72/65
f 83/74/66 87/76/66 88/75/66 84/73/66
f 87/76/67 85/78/67 86/77/67 88/75/67
f 85/78/68 81/80/68 82/79/68 86/77/68
f 83/81/69 81/82/69 85/78/69 87/76/69
f 88/75/70 86/77/70 82/84/70 84/83/70
