# Blender 4.0.0
# www.blender.org
o RangeHood024_Button001
v -0.279390 -0.150399 -0.234867
v -0.279447 -0.150399 -0.235362
v -0.279611 -0.150399 -0.235817
v -0.279868 -0.150399 -0.236218
v -0.280205 -0.150399 -0.236554
v -0.280609 -0.150399 -0.236809
v -0.281066 -0.150399 -0.236972
v -0.281565 -0.150399 -0.237029
v -0.282063 -0.150399 -0.236972
v -0.282521 -0.150399 -0.236809
v -0.282925 -0.150399 -0.236554
v -0.283262 -0.150399 -0.236218
v -0.283519 -0.150399 -0.235817
v -0.283683 -0.150399 -0.235362
v -0.283740 -0.150399 -0.234867
v -0.283683 -0.150399 -0.234371
v -0.283519 -0.150399 -0.233916
v -0.283262 -0.150399 -0.233515
v -0.282925 -0.150399 -0.233180
v -0.282521 -0.150399 -0.232924
v -0.282063 -0.150399 -0.232762
v -0.281565 -0.150399 -0.232705
v -0.281066 -0.150399 -0.232762
v -0.280609 -0.150399 -0.232924
v -0.280205 -0.150399 -0.233180
v -0.279868 -0.150399 -0.233515
v -0.279611 -0.150399 -0.233916
v -0.279447 -0.150399 -0.234371
v -0.279390 -0.152428 -0.234867
v -0.279447 -0.152428 -0.235362
v -0.279611 -0.152428 -0.235817
v -0.279868 -0.152428 -0.236218
v -0.280205 -0.152428 -0.236554
v -0.280609 -0.152428 -0.236809
v -0.281066 -0.152428 -0.236972
v -0.281565 -0.152428 -0.237029
v -0.282063 -0.152428 -0.236972
v -0.282521 -0.152428 -0.236809
v -0.282925 -0.152428 -0.236554
v -0.283262 -0.152428 -0.236218
v -0.283519 -0.152428 -0.235817
v -0.283683 -0.152428 -0.235362
v -0.283740 -0.152428 -0.234867
v -0.283683 -0.152428 -0.234371
v -0.283519 -0.152428 -0.233916
v -0.283262 -0.152428 -0.233515
v -0.282925 -0.152428 -0.233180
v -0.282521 -0.152428 -0.232924
v -0.282063 -0.152428 -0.232762
v -0.281565 -0.152428 -0.232705
v -0.281066 -0.152428 -0.232762
v -0.280609 -0.152428 -0.232924
v -0.280205 -0.152428 -0.233180
v -0.279868 -0.152428 -0.233515
v -0.279611 -0.152428 -0.233916
v -0.279447 -0.152428 -0.234371
vn 0.9739 -0.0000 -0.2268
vn 1.0000 -0.0000 -0.0000
vn 0.8973 -0.0000 -0.4414
vn 0.8975 -0.0000 -0.4410
vn 0.7783 -0.0000 -0.6279
vn 0.6231 -0.0000 -0.7821
vn 0.6235 -0.0000 -0.7818
vn 0.4367 -0.0000 -0.8996
vn 0.4368 -0.0000 -0.8995
vn 0.2240 -0.0000 -0.9746
vn -0.0000 -0.0000 -1.0000
vn -0.2240 -0.0000 -0.9746
vn -0.2241 -0.0000 -0.9746
vn -0.4365 -0.0000 -0.8997
vn -0.4370 -0.0000 -0.8994
vn -0.6235 -0.0000 -0.7818
vn -0.7783 -0.0000 -0.6279
vn -0.8974 -0.0000 -0.4412
vn -0.8975 -0.0000 -0.4411
vn -0.9739 -0.0000 -0.2268
vn -0.9740 -0.0000 -0.2268
vn -1.0000 -0.0000 -0.0000
vn -0.9739 -0.0000 0.2270
vn -0.9739 -0.0000 0.2269
vn -0.8975 -0.0000 0.4410
vn -0.8975 -0.0000 0.4411
vn -0.7783 -0.0000 0.6279
vn -0.6235 -0.0000 0.7818
vn -0.4366 -0.0000 0.8997
vn -0.4367 -0.0000 0.8996
vn -0.2239 -0.0000 0.9746
vn -0.2241 -0.0000 0.9746
vn -0.0000 -0.0000 1.0000
vn 0.2240 -0.0000 0.9746
vn 0.4365 -0.0000 0.8997
vn 0.4368 -0.0000 0.8995
vn 0.6235 -0.0000 0.7818
vn 0.7783 -0.0000 0.6279
vn 0.8973 -0.0000 0.4414
vn 0.8975 -0.0000 0.4410
vn 0.9740 -0.0000 0.2266
vn 0.9740 -0.0000 0.2267
vn -0.0000 1.0000 -0.0000
vn 0.0003 1.0000 -0.0000
vn -0.0000 -1.0000 -0.0000
vn 0.0009 -1.0000 -0.0000
vn 0.0007 -1.0000 -0.0000
vt 0.966892 0.783862
vt 0.966909 0.784023
vt 0.966837 0.783715
vt 0.966755 0.783586
vt 0.966647 0.783477
vt 0.966515 0.783393
vt 0.966367 0.783341
vt 0.966206 0.783323
vt 0.966044 0.783341
vt 0.965896 0.783393
vt 0.965764 0.783477
vt 0.965656 0.783586
vt 0.965572 0.783715
vt 0.965519 0.783862
vt 0.965500 0.784023
vt 0.965519 0.784183
vt 0.965572 0.784331
vt 0.965656 0.784461
vt 0.965764 0.784570
vt 0.965896 0.784652
vt 0.966044 0.784704
vt 0.966206 0.784724
vt 0.966367 0.784704
vt 0.966515 0.784652
vt 0.966647 0.784570
vt 0.966755 0.784461
vt 0.966837 0.784331
vt 0.966892 0.784183
s 1
f 30/1/1 2/1/1 1/2/2
f 1/2/2 29/2/2 30/1/1
f 31/3/3 3/3/4 2/1/1
f 2/1/1 30/1/1 31/3/3
f 32/4/5 4/4/5 3/3/4
f 3/3/4 31/3/3 32/4/5
f 33/5/6 5/5/7 4/4/5
f 4/4/5 32/4/5 33/5/6
f 34/6/8 6/6/9 5/5/7
f 5/5/7 33/5/6 34/6/8
f 35/7/10 7/7/10 6/6/9
f 6/6/9 34/6/8 35/7/10
f 36/8/11 8/8/11 7/7/10
f 7/7/10 35/7/10 36/8/11
f 37/9/12 9/9/13 8/8/11
f 8/8/11 36/8/11 37/9/12
f 38/10/14 10/10/15 9/9/13
f 9/9/13 37/9/12 38/10/14
f 39/11/16 11/11/16 10/10/15
f 10/10/15 38/10/14 39/11/16
f 40/12/17 12/12/17 11/11/16
f 11/11/16 39/11/16 40/12/17
f 41/13/18 13/13/19 12/12/17
f 12/12/17 40/12/17 41/13/18
f 42/14/20 14/14/21 13/13/19
f 13/13/19 41/13/18 42/14/20
f 43/15/22 15/15/22 14/14/21
f 14/14/21 42/14/20 43/15/22
f 44/16/23 16/16/24 15/15/22
f 15/15/22 43/15/22 44/16/23
f 45/17/25 17/17/26 16/16/24
f 16/16/24 44/16/23 45/17/25
f 46/18/27 18/18/27 17/17/26
f 17/17/26 45/17/25 46/18/27
f 47/19/28 19/19/28 18/18/27
f 18/18/27 46/18/27 47/19/28
f 48/20/29 20/20/30 19/19/28
f 19/19/28 47/19/28 48/20/29
f 49/21/31 21/21/32 20/20/30
f 20/20/30 48/20/29 49/21/31
f 50/22/33 22/22/33 21/21/32
f 21/21/32 49/21/31 50/22/33
f 51/23/34 23/23/34 22/22/33
f 22/22/33 50/22/33 51/23/34
f 52/24/35 24/24/36 23/23/34
f 23/23/34 51/23/34 52/24/35
f 53/25/37 25/25/37 24/24/36
f 24/24/36 52/24/35 53/25/37
f 54/26/38 26/26/38 25/25/37
f 25/25/37 53/25/37 54/26/38
f 55/27/39 27/27/40 26/26/38
f 26/26/38 54/26/38 55/27/39
f 56/28/41 28/28/42 27/27/40
f 27/27/40 55/27/39 56/28/41
f 29/2/2 1/2/2 28/28/42
f 28/28/42 56/28/41 29/2/2
f 21/21/43 22/22/43 23/23/43
f 16/16/43 17/17/43 18/18/43
f 15/15/43 16/16/43 18/18/43
f 14/14/43 15/15/43 18/18/43
f 13/13/44 14/14/43 18/18/43
f 12/12/43 13/13/44 18/18/43
f 11/11/43 12/12/43 18/18/43
f 10/10/43 11/11/43 18/18/43
f 9/9/43 10/10/43 18/18/43
f 8/8/43 9/9/43 18/18/43
f 7/7/43 8/8/43 18/18/43
f 6/6/43 7/7/43 18/18/43
f 5/5/43 6/6/43 18/18/43
f 4/4/43 5/5/43 18/18/43
f 3/3/43 4/4/43 18/18/43
f 2/1/43 3/3/43 18/18/43
f 1/2/43 2/1/43 18/18/43
f 28/28/43 1/2/43 18/18/43
f 27/27/43 28/28/43 18/18/43
f 26/26/43 27/27/43 18/18/43
f 25/25/43 26/26/43 18/18/43
f 25/25/43 18/18/43 19/19/43
f 25/25/43 19/19/43 20/20/43
f 24/24/43 25/25/43 20/20/43
f 23/23/43 24/24/43 20/20/43
f 21/21/43 23/23/43 20/20/43
f 46/18/45 45/17/46 44/16/47
f 46/18/45 44/16/47 43/15/45
f 46/18/45 43/15/45 42/14/45
f 46/18/45 42/14/45 41/13/45
f 46/18/45 41/13/45 40/12/45
f 46/18/45 40/12/45 39/11/45
f 46/18/45 39/11/45 38/10/45
f 46/18/45 38/10/45 37/9/45
f 46/18/45 37/9/45 36/8/45
f 46/18/45 36/8/45 35/7/45
f 46/18/45 35/7/45 34/6/45
f 46/18/45 34/6/45 33/5/45
f 46/18/45 33/5/45 32/4/45
f 46/18/45 32/4/45 31/3/45
f 46/18/45 31/3/45 30/1/45
f 46/18/45 30/1/45 29/2/45
f 46/18/45 29/2/45 56/28/45
f 46/18/45 56/28/45 55/27/45
f 46/18/45 55/27/45 54/26/45
f 46/18/45 54/26/45 53/25/45
f 47/19/45 46/18/45 53/25/45
f 48/20/45 47/19/45 53/25/45
f 48/20/45 53/25/45 52/24/45
f 48/20/45 52/24/45 51/23/45
f 49/21/45 48/20/45 51/23/45
f 49/21/45 51/23/45 50/22/45
o RangeHood024_Body001_Collider1
v 0.313669 0.149771 -0.212050
v 0.313669 0.149771 -0.267882
v 0.313669 -0.145180 -0.212050
v 0.313669 -0.145180 -0.267882
v -0.313237 0.149771 -0.212050
v -0.313237 0.149771 -0.267882
v -0.313237 -0.145180 -0.212050
v -0.313237 -0.145180 -0.267882
vn 1.0000 -0.0000 -0.0000
vn -0.0000 -1.0000 -0.0000
vn -1.0000 -0.0000 -0.0000
vn -0.0000 1.0000 -0.0000
vn -0.0000 -0.0000 1.0000
vn -0.0000 -0.0000 -1.0000
vt 0.375000 0.000000
vt 0.625000 0.000000
vt 0.625000 0.250000
vt 0.375000 0.250000
vt 0.625000 0.500000
vt 0.375000 0.500000
vt 0.625000 0.750000
vt 0.375000 0.750000
vt 0.625000 1.000000
vt 0.375000 1.000000
vt 0.125000 0.500000
vt 0.125000 0.750000
vt 0.875000 0.500000
vt 0.875000 0.750000
s 0
f 57/29/48 59/32/48 60/31/48 58/30/48
f 59/32/49 63/34/49 64/33/49 60/31/49
f 63/34/50 61/36/50 62/35/50 64/33/50
f 61/36/51 57/38/51 58/37/51 62/35/51
f 59/39/52 57/40/52 61/36/52 63/34/52
f 64/33/53 62/35/53 58/42/53 60/41/53
o RangeHood024_Body001_Collider2
v -0.111663 -0.017720 -0.212196
v -0.111663 -0.017720 0.052933
v -0.111663 0.151896 -0.212196
v -0.111663 0.151896 0.052933
v 0.111663 -0.017720 -0.212196
v 0.111663 -0.017720 0.052933
v 0.111663 0.151896 -0.212196
v 0.111663 0.151896 0.052933
vn -1.0000 -0.0000 -0.0000
vn -0.0000 1.0000 -0.0000
vn 1.0000 -0.0000 -0.0000
vn -0.0000 -1.0000 -0.0000
vn -0.0000 -0.0000 -1.0000
vn -0.0000 -0.0000 1.0000
vt 0.375000 0.000000
vt 0.625000 0.000000
vt 0.625000 0.250000
vt 0.375000 0.250000
vt 0.625000 0.500000
vt 0.375000 0.500000
vt 0.625000 0.750000
vt 0.375000 0.750000
vt 0.625000 1.000000
vt 0.375000 1.000000
vt 0.125000 0.500000
vt 0.125000 0.750000
vt 0.875000 0.500000
vt 0.875000 0.750000
s 0
f 65/43/54 66/44/54 68/45/54 67/46/54
f 67/46/55 68/45/55 72/47/55 71/48/55
f 71/48/56 72/47/56 70/49/56 69/50/56
f 69/50/57 70/49/57 66/51/57 65/52/57
f 67/53/58 71/48/58 69/50/58 65/54/58
f 72/47/59 68/55/59 66/56/59 70/49/59
o RangeHood024_Body001_Collider3
v -0.111663 0.027260 0.053955
v -0.111663 0.027260 0.299442
v -0.111663 0.151896 0.053955
v -0.111663 0.151896 0.299442
v 0.111663 0.027260 0.053955
v 0.111663 0.027260 0.299442
v 0.111663 0.151896 0.053955
v 0.111663 0.151896 0.299442
vn -1.0000 -0.0000 -0.0000
vn -0.0000 1.0000 -0.0000
vn 1.0000 -0.0000 -0.0000
vn -0.0000 -1.0000 -0.0000
vn -0.0000 -0.0000 -1.0000
vn -0.0000 -0.0000 1.0000
vt 0.375000 0.000000
vt 0.625000 0.000000
vt 0.625000 0.250000
vt 0.375000 0.250000
vt 0.625000 0.500000
vt 0.375000 0.500000
vt 0.625000 0.750000
vt 0.375000 0.750000
vt 0.625000 1.000000
vt 0.375000 1.000000
vt 0.125000 0.500000
vt 0.125000 0.750000
vt 0.875000 0.500000
vt 0.875000 0.750000
s 0
f 73/57/60 74/58/60 76/59/60 75/60/60
f 75/60/61 76/59/61 80/61/61 79/62/61
f 79/62/62 80/61/62 78/63/62 77/64/62
f 77/64/63 78/63/63 74/65/63 73/66/63
f 75/67/64 79/62/64 77/64/64 73/68/64
f 80/61/65 76/69/65 74/70/65 78/63/65
o RangeHood024_Body001_Collider4
v 0.032134 0.009457 -0.266566
v 0.032134 0.009457 -0.300743
v 0.032134 -0.031256 -0.266566
v 0.032134 -0.031256 -0.300743
v -0.032398 0.009457 -0.266566
v -0.032398 0.009457 -0.300743
v -0.032398 -0.031256 -0.266566
v -0.032398 -0.031256 -0.300743
vn 1.0000 -0.0000 -0.0000
vn -0.0000 -1.0000 -0.0000
vn -1.0000 -0.0000 -0.0000
vn -0.0000 1.0000 -0.0000
vn -0.0000 -0.0000 1.0000
vn -0.0000 -0.0000 -1.0000
vt 0.375000 0.000000
vt 0.625000 0.000000
vt 0.625000 0.250000
vt 0.375000 0.250000
vt 0.625000 0.500000
vt 0.375000 0.500000
vt 0.625000 0.750000
vt 0.375000 0.750000
vt 0.625000 1.000000
vt 0.375000 1.000000
vt 0.125000 0.500000
vt 0.125000 0.750000
vt 0.875000 0.500000
vt 0.875000 0.750000
s 0
f 81/71/66 83/74/66 84/73/66 82/72/66
f 83/74/67 87/76/67 88/75/67 84/73/67
f 87/76/68 85/78/68 86/77/68 88/75/68
f 85/78/69 81/80/69 82/79/69 86/77/69
f 83/81/70 81/82/70 85/78/70 87/76/70
f 88/75/71 86/77/71 82/84/71 84/83/71
