# https://github.com/mikedh/trimesh
v -0.01242736 0.00465618 0.00390514
v -0.01258127 0.00593767 0.00381002
v -0.01336879 0.00465618 0.00390514
v -0.01241974 0.00336459 0.00389991
v -0.01176393 -0.00950080 0.00356960
v -0.01175561 -0.00820922 0.00355706
v -0.01175353 -0.00692772 0.00354033
v -0.01175422 -0.00563614 0.00351943
v -0.01175561 -0.00435464 0.00349643
v -0.01175838 -0.00306306 0.00346716
v -0.01176185 -0.00178157 0.00343476
v -0.01176462 -0.00048998 0.00339713
v -0.01176947 0.00079151 0.00335323
v -0.01177294 0.00208310 0.00330515
v -0.01177640 0.00336459 0.00325079
v -0.01178403 0.00465618 0.00317344
v -0.01319063 0.00593767 0.00381002
v -0.01190951 0.00588722 0.00291839
v -0.01277884 0.00664400 0.00368876
v -0.01401213 0.00465618 0.00334173
v -0.01401421 0.00336459 0.00337518
v -0.01337087 0.00336459 0.00389991
v -0.01241627 0.00208310 0.00388841
v -0.01182077 -0.01207388 0.00358215
v -0.01178334 -0.01078230 0.00357692
v -0.00878989 -0.09182923 0.00131388
v -0.01028731 -0.03909625 0.00236857
v -0.01029355 -0.03780467 0.00236230
v -0.01029909 -0.03687634 0.00235498
v -0.01030533 -0.03601865 0.00234558
v -0.01135560 -0.00563614 0.00287658
v -0.01137848 -0.00435464 0.00285254
v -0.01140136 -0.00306306 0.00282431
v -0.01142423 -0.00178157 0.00279191
v -0.01144780 -0.00048998 0.00275428
v -0.01147137 0.00079151 0.00271038
v -0.01149425 0.00208310 0.00266230
v -0.01151782 0.00336459 0.00260690
v -0.01154417 0.00465618 0.00252955
v -0.01156912 0.00542305 0.00243861
v -0.01386724 0.00595785 0.00298842
v -0.01297295 0.00664400 0.00368876
v -0.01165855 0.00623030 0.00170795
v -0.01253274 0.00684582 0.00299470
v -0.01281212 0.00790532 0.00000937
v -0.01421525 0.00554414 0.00255672
v -0.01425893 0.00465618 0.00269888
v -0.01427556 0.00336459 0.00273233
v -0.01493068 -0.03137702 0.00170795
v -0.01445511 -0.03137702 0.00266125
v -0.01335146 0.00208310 0.00388841
v -0.01241281 0.00079151 0.00387483
v -0.01240795 -0.00048998 0.00385915
v -0.01188386 -0.01335537 0.00358319
v -0.01042457 -0.06996310 0.00233617
v -0.01037881 -0.06867152 0.00233930
v -0.00965992 -0.09182923 0.00176649
v -0.00881831 -0.09312082 0.00128252
v -0.00838434 -0.09182923 0.00042121
v -0.00880098 -0.09054773 0.00130761
v -0.01012231 -0.03523159 0.00167346
v -0.01041209 -0.02622077 0.00185429
v -0.00881693 -0.08925615 0.00129506
v -0.00883426 -0.08797465 0.00128043
v -0.00885159 -0.08668307 0.00126475
v -0.00840791 -0.09054773 0.00042121
v -0.01048835 -0.02236620 0.00170795
v -0.01052786 -0.02107461 0.00170795
v -0.01056876 -0.01979312 0.00170795
v -0.01102492 -0.00692772 0.00170795
v -0.01107206 -0.00563614 0.00170795
v -0.01111990 -0.00435464 0.00170795
v -0.01116842 -0.00306306 0.00170795
v -0.01126687 -0.00048998 0.00170795
v -0.01141730 0.00336459 0.00170795
v -0.01061313 -0.01850153 0.00170795
v -0.01065750 -0.01722004 0.00170795
v -0.01070256 -0.01592845 0.00170795
v -0.01029077 -0.02525208 0.00113096
v -0.01154763 0.00559459 0.00170795
v -0.01147415 0.00465618 0.00170795
v -0.01322945 0.00684582 0.00299470
v -0.01410780 0.00640183 0.00196300
v -0.01294175 0.00790532 0.00000937
v -0.01161280 0.00641192 0.00042121
v -0.01230119 0.00709808 0.00170795
v -0.01281212 0.00790532 -0.00054882
v -0.01234140 0.00734025 0.00043166
v -0.01233793 0.00735034 -0.00093244
v -0.01424229 0.00595785 0.00160342
v -0.01438856 0.00465618 0.00170795
v -0.01442184 0.00336459 0.00170795
v -0.01515668 -0.03137702 0.00042121
v -0.01513380 -0.03265851 0.00042121
v -0.01489949 -0.03265851 0.00170795
v -0.01443570 -0.03265851 0.00263825
v -0.01351854 -0.03137702 0.00315881
v -0.01332443 0.00079151 0.00387483
v -0.01329323 -0.00048998 0.00385915
v -0.01240518 -0.00178157 0.00384242
v -0.01240171 -0.00306306 0.00382465
v -0.01239894 -0.00435464 0.00380688
v -0.01239894 -0.00820922 0.00375148
v -0.01240726 -0.00950080 0.00373267
v -0.01199131 -0.01464696 0.00358110
v -0.01052093 -0.07124460 0.00233094
v -0.01069910 -0.07253618 0.00232258
v -0.01094658 -0.08025541 0.00216370
v -0.01094658 -0.08153691 0.00213234
v -0.01094658 -0.08282850 0.00209993
v -0.01094658 -0.08410999 0.00206753
v -0.01094658 -0.08540158 0.00203304
v -0.01094658 -0.08668307 0.00199750
v -0.01094658 -0.08797465 0.00195987
v -0.01094658 -0.08925615 0.00191805
v -0.01094658 -0.09054773 0.00187102
v -0.01094658 -0.09182923 0.00180203
v -0.00965992 -0.09312082 0.00168809
v -0.00890705 -0.09392805 0.00118740
v -0.00844465 -0.09312082 0.00042121
v -0.00822489 -0.09312082 -0.00086554
v -0.00816597 -0.09182923 -0.00086554
v -0.00818815 -0.09054773 -0.00086554
v -0.01014380 -0.03395010 0.00161806
v -0.01045022 -0.02364769 0.00170795
v -0.00844257 -0.08925615 0.00042121
v -0.01027483 -0.02622077 0.00121144
v -0.01025472 -0.02751235 0.00129088
v -0.01016668 -0.03265851 0.00155639
v -0.01030602 -0.02439439 0.00097939
v -0.01060897 -0.01592845 0.00042121
v -0.01065889 -0.01464696 0.00042121
v -0.01111574 -0.00306306 0.00042121
v -0.01116842 -0.00178157 0.00042121
v -0.01122181 -0.00048998 0.00042121
v -0.01132995 0.00208310 0.00042121
v -0.01138403 0.00336459 0.00042121
v -0.01075941 -0.01207388 0.00042121
v -0.01081002 -0.01078230 0.00042121
v -0.01101244 -0.00563614 0.00042121
v -0.00989423 -0.03523159 0.00042121
v -0.01153377 0.00576613 0.00042121
v -0.01144434 0.00465618 0.00042121
v -0.01361490 0.00699717 0.00160342
v -0.01416672 0.00659355 0.00110482
v -0.01294175 0.00790532 -0.00054882
v -0.01418821 0.00663392 -0.00086554
v -0.01418405 0.00663392 0.00042121
v -0.01160864 0.00643210 -0.00086554
v -0.01228594 0.00713844 -0.00215124
v -0.01248421 0.00689627 -0.00343798
v -0.01272893 0.00667428 -0.00416236
v -0.01430260 0.00593767 0.00042121
v -0.01443016 0.00465618 0.00042121
v -0.01446135 0.00336459 0.00042121
v -0.01520382 -0.03137702 -0.00086554
v -0.01518164 -0.03265851 -0.00086554
v -0.01514420 -0.03395010 -0.00086554
v -0.01509429 -0.03395010 0.00042121
v -0.01485304 -0.03395010 0.00170795
v -0.01435113 -0.03652317 0.00255150
v -0.01438094 -0.03523159 0.00258181
v -0.01440936 -0.03395010 0.00261108
v -0.01351854 -0.03265851 0.00312013
v -0.01289253 -0.01564592 0.00364695
v -0.01318994 -0.00435464 0.00380688
v -0.01325926 -0.00178157 0.00384242
v -0.01160309 -0.07335351 0.00235603
v -0.01223187 -0.05195155 0.00281491
v -0.01276082 -0.01564592 0.00364695
v -0.01242667 -0.01078230 0.00371490
v -0.01246411 -0.01207388 0.00369608
v -0.01252719 -0.01335537 0.00367831
v -0.01223187 -0.03523159 0.00321212
v -0.01106790 -0.06996310 0.00240516
v -0.01116426 -0.07124460 0.00238634
v -0.01094658 -0.07768234 0.00222328
v -0.01094658 -0.07896383 0.00219401
v -0.01134243 -0.07253618 0.00236753
v -0.01150118 -0.07335351 0.00235603
v -0.01193308 -0.09054773 0.00140273
v -0.01289392 -0.06189070 0.00236439
v -0.01285232 -0.06274839 0.00234244
v -0.01186445 -0.09182923 0.00134942
v -0.01094658 -0.09312082 0.00163165
v -0.00965992 -0.09412987 0.00134106
v -0.00970914 -0.09477565 0.00036894
v -0.00876493 -0.09412987 0.00042121
v -0.00865193 -0.09431150 -0.00086554
v -0.00862212 -0.09437204 -0.00215124
v -0.00817498 -0.09312082 -0.00215124
v -0.00812160 -0.09182923 -0.00215124
v -0.00814170 -0.09054773 -0.00215124
v -0.00817845 -0.08925615 -0.00215124
v -0.00822628 -0.08925615 -0.00086554
v -0.00993860 -0.03395010 0.00042121
v -0.00998505 -0.03265851 0.00042121
v -0.01021729 -0.02622077 0.00042121
v -0.01026928 -0.02486864 0.00049856
v -0.01031781 -0.02356697 0.00049856
v -0.01041001 -0.02107461 0.00042121
v -0.01045923 -0.01979312 0.00042121
v -0.01050915 -0.01850153 0.00042121
v -0.01028939 -0.02395040 0.00012121
v -0.01111158 -0.00306306 -0.00086554
v -0.01090222 -0.00820922 -0.00086554
v -0.01100620 -0.00563614 -0.00086554
v -0.01116496 -0.00178157 -0.00086554
v -0.01121903 -0.00048998 -0.00086554
v -0.01132787 0.00208310 -0.00086554
v -0.01138264 0.00336459 -0.00086554
v -0.01023531 -0.02493927 -0.00086554
v -0.01059303 -0.01592845 -0.00086554
v -0.01079892 -0.01078230 -0.00086554
v -0.01028176 -0.02375869 -0.00086554
v -0.01030741 -0.02311289 -0.00086554
v -0.00984016 -0.03523159 -0.00086554
v -0.01153307 0.00578631 -0.00086554
v -0.01144295 0.00465618 -0.00086554
v -0.01302494 0.00667428 -0.00416236
v -0.01328075 0.00689627 -0.00343798
v -0.01362460 0.00703754 -0.00208643
v -0.01417227 0.00660364 -0.00161501
v -0.01430815 0.00593767 -0.00086554
v -0.01154486 0.00562486 -0.00215124
v -0.01164330 0.00627066 -0.00215124
v -0.01186237 0.00589731 -0.00337004
v -0.01253412 0.00593767 -0.00428466
v -0.01443085 0.00465618 -0.00086554
v -0.01446205 0.00336459 -0.00086554
v -0.01518372 -0.03137702 -0.00215124
v -0.01516292 -0.03265851 -0.00215124
v -0.01512687 -0.03395010 -0.00215124
v -0.01508458 -0.03523159 -0.00215124
v -0.01510053 -0.03523159 -0.00086554
v -0.01504784 -0.03523159 0.00042121
v -0.01480035 -0.03523159 0.00170795
v -0.01417227 -0.04378834 0.00236230
v -0.01419307 -0.04295082 0.00238530
v -0.01422496 -0.04166933 0.00241979
v -0.01425685 -0.04037775 0.00245428
v -0.01428873 -0.03909625 0.00248669
v -0.01499931 -0.03652317 0.00042121
v -0.01416187 -0.05516033 0.00106197
v -0.01351854 -0.03395010 0.00307518
v -0.01314072 -0.05452463 0.00252118
v -0.01305267 -0.05709771 0.00246996
v -0.01300900 -0.05837920 0.00244279
v -0.01296671 -0.05967079 0.00241456
v -0.01223187 -0.03652317 0.00318389
v -0.01263464 -0.01464696 0.00366054
v -0.01198438 -0.08925615 0.00143931
v -0.01288421 -0.08106266 0.00107765
v -0.01285926 -0.08192036 0.00101179
v -0.01247728 -0.09054773 0.00042121
v -0.01233377 -0.09182923 0.00042121
v -0.01173758 -0.09312082 0.00122608
v -0.01163290 -0.09382714 0.00111319
v -0.01094658 -0.09405923 0.00128566
v -0.01039129 -0.09507837 -0.00009412
v -0.01017153 -0.09507837 -0.00009412
v -0.00930081 -0.09495728 -0.00086554
v -0.00911225 -0.09501782 -0.00215124
v -0.00863530 -0.09434176 -0.00343798
v -0.00819300 -0.09312082 -0.00343798
v -0.00813338 -0.09182923 -0.00343798
v -0.00815488 -0.09054773 -0.00343798
v -0.00819439 -0.08925615 -0.00343798
v -0.00985403 -0.03523159 -0.00215124
v -0.00988661 -0.03395010 -0.00086554
v -0.00993514 -0.03265851 -0.00086554
v -0.01018540 -0.02622077 -0.00086554
v -0.01114069 -0.00306306 -0.00215124
v -0.01103463 -0.00563614 -0.00215124
v -0.01040932 -0.02107461 -0.00215124
v -0.01072128 -0.01335537 -0.00215124
v -0.01092995 -0.00820922 -0.00215124
v -0.01098194 -0.00692772 -0.00215124
v -0.01141037 0.00336459 -0.00215124
v -0.01146860 0.00465618 -0.00215124
v -0.01025542 -0.02493927 -0.00215124
v -0.00990186 -0.03395010 -0.00215124
v -0.00995247 -0.03265851 -0.00215124
v -0.01031712 -0.02337525 -0.00215124
v -0.01324054 0.00593767 -0.00428466
v -0.01391715 0.00597803 -0.00344321
v -0.01412444 0.00644220 -0.00247318
v -0.01424783 0.00597803 -0.00208643
v -0.01439411 0.00465618 -0.00215124
v -0.01156704 0.00544324 -0.00289548
v -0.01174867 0.00465618 -0.00365226
v -0.01239201 0.00465618 -0.00437874
v -0.01442738 0.00336459 -0.00215124
v -0.01504992 -0.03137702 -0.00343798
v -0.01503536 -0.03265851 -0.00343798
v -0.01500347 -0.03395010 -0.00343798
v -0.01496327 -0.03523159 -0.00343798
v -0.01492236 -0.03652317 -0.00343798
v -0.01487938 -0.03780467 -0.00343798
v -0.01483571 -0.03909625 -0.00343798
v -0.01479203 -0.04037775 -0.00343798
v -0.01503952 -0.03652317 -0.00215124
v -0.01505339 -0.03652317 -0.00086554
v -0.01474559 -0.03652317 0.00170795
v -0.01309635 -0.05580613 0.00249610
v -0.01495425 -0.03909625 -0.00086554
v -0.01485304 -0.04166933 -0.00086554
v -0.01417227 -0.05797558 -0.00013384
v -0.01489671 -0.03909625 0.00042121
v -0.01457921 -0.04680540 0.00042121
v -0.01441837 -0.05065997 0.00042121
v -0.01288283 -0.08747013 -0.00019237
v -0.01290293 -0.08668307 -0.00010980
v -0.01293551 -0.08540158 0.00002504
v -0.01484472 -0.04037775 0.00042121
v -0.01468597 -0.04423232 0.00042121
v -0.01279409 -0.08410999 0.00079646
v -0.01258057 -0.08925615 0.00042121
v -0.01286064 -0.08832782 -0.00044429
v -0.01271991 -0.09054773 -0.00086554
v -0.01257087 -0.09182923 -0.00086554
v -0.01207311 -0.09312082 0.00042121
v -0.01174590 -0.09399868 0.00042121
v -0.01087102 -0.09466466 0.00036894
v -0.01053618 -0.09512882 -0.00086554
v -0.01117952 -0.09482611 -0.00086554
v -0.00994415 -0.09512882 -0.00086554
v -0.00922248 -0.09497747 -0.00343798
v -0.00975558 -0.09517928 -0.00215124
v -0.00986581 -0.09514901 -0.00343798
v -0.00869838 -0.09421059 -0.00472473
v -0.00830115 -0.09312082 -0.00472473
v -0.00823113 -0.09182923 -0.00472473
v -0.00826441 -0.09054773 -0.00472473
v -0.00997396 -0.03523159 -0.00343798
v -0.01030256 -0.02429348 -0.00279513
v -0.01154001 0.00465618 -0.00300837
v -0.01340692 0.00465618 -0.00437874
v -0.01405026 0.00465618 -0.00383414
v -0.01421802 0.00558450 -0.00301778
v -0.01426309 0.00465618 -0.00319129
v -0.01159755 0.00005491 -0.00406202
v -0.01223187 -0.01335537 -0.00492647
v -0.01223187 -0.01464696 -0.00496619
v -0.01265544 -0.02780498 -0.00538116
v -0.01157398 -0.00080279 -0.00410174
v -0.01155040 -0.00178157 -0.00413205
v -0.01151990 -0.00306306 -0.00417072
v -0.01149009 -0.00435464 -0.00420940
v -0.01145959 -0.00563614 -0.00424599
v -0.00922664 -0.09182923 -0.00655815
v -0.01157675 -0.03048905 -0.00537385
v -0.01165231 -0.02963136 -0.00536235
v -0.01455078 -0.03137702 -0.00457839
v -0.01454662 -0.03265851 -0.00458361
v -0.01428042 0.00336459 -0.00326342
v -0.01408353 0.00336459 -0.00390627
v -0.01453276 -0.03395010 -0.00458152
v -0.01449394 -0.03652317 -0.00457107
v -0.01447383 -0.03780467 -0.00456480
v -0.01445373 -0.03909625 -0.00455748
v -0.01443293 -0.04037775 -0.00454912
v -0.01441213 -0.04166933 -0.00453866
v -0.01439134 -0.04295082 -0.00452612
v -0.01437123 -0.04423232 -0.00450940
v -0.01435043 -0.04551381 -0.00448849
v -0.01432894 -0.04680540 -0.00446131
v -0.01430607 -0.04808689 -0.00442682
v -0.01428180 -0.04937847 -0.00438501
v -0.01425754 -0.05065997 -0.00433588
v -0.01423328 -0.05195155 -0.00427943
v -0.01420901 -0.05323305 -0.00421672
v -0.01418475 -0.05452463 -0.00414877
v -0.01416880 -0.05534196 -0.00410174
v -0.01474697 -0.04166933 -0.00343798
v -0.01465685 -0.04423232 -0.00343798
v -0.01461110 -0.04551381 -0.00343798
v -0.01456395 -0.04680540 -0.00343798
v -0.01494385 -0.03909625 -0.00215124
v -0.01489533 -0.04037775 -0.00215124
v -0.01484611 -0.04166933 -0.00215124
v -0.01479689 -0.04295082 -0.00215124
v -0.01474697 -0.04423232 -0.00215124
v -0.01464506 -0.04680540 -0.00215124
v -0.01416256 -0.05903509 -0.00155020
v -0.01416256 -0.05903509 -0.00147807
v -0.01464784 -0.04680540 -0.00086554
v -0.01454454 -0.04937847 -0.00086554
v -0.01415424 -0.05883328 -0.00062199
v -0.01326411 -0.08025541 -0.00086554
v -0.01320865 -0.08153691 -0.00086554
v -0.01315250 -0.08282850 -0.00086554
v -0.01309565 -0.08410999 -0.00086554
v -0.01303604 -0.08540158 -0.00086554
v -0.01270536 -0.08793430 0.00031041
v -0.01275458 -0.08540158 0.00066789
v -0.01271437 -0.08668307 0.00053410
v -0.01290917 -0.08793430 -0.00086972
v -0.01288907 -0.08879199 -0.00130142
v -0.01282598 -0.08923597 -0.00086972
v -0.01276636 -0.09054773 -0.00215124
v -0.01261731 -0.09182923 -0.00215124
v -0.01236428 -0.09312082 -0.00215124
v -0.01230951 -0.09312082 -0.00086554
v -0.01186653 -0.09418031 -0.00086554
v -0.01065265 -0.09517928 -0.00215124
v -0.01129598 -0.09487656 -0.00215124
v -0.01010290 -0.09509855 -0.00430034
v -0.00966824 -0.09486647 -0.00472682
v -0.00883564 -0.09399868 -0.00569684
v -0.01058540 -0.09514901 -0.00343798
v -0.00870046 -0.09312082 -0.00590171
v -0.00866441 -0.09182923 -0.00591530
v -0.00868590 -0.09054773 -0.00586618
v -0.00880168 -0.08540158 -0.00568639
v -0.00883148 -0.08410999 -0.00564248
v -0.00886199 -0.08282850 -0.00559858
v -0.00889318 -0.08153691 -0.00555364
v -0.00895558 -0.07896383 -0.00546061
v -0.01024571 -0.03265851 -0.00418745
v -0.01029562 -0.03054959 -0.00409546
v -0.01037119 -0.02622077 -0.00367631
v -0.01039337 -0.02493927 -0.00352265
v -0.01029008 -0.02493927 -0.00287875
v -0.01040516 -0.02377887 -0.00330941
v -0.01048280 -0.02236620 -0.00343798
v -0.01058887 -0.01979312 -0.00343798
v -0.01075178 -0.01592845 -0.00343798
v -0.01086201 -0.01335537 -0.00343798
v -0.01108316 -0.00820922 -0.00343798
v -0.01151158 0.00336459 -0.00312544
v -0.01344020 0.00336459 -0.00440069
v -0.01291402 -0.02780498 -0.00538116
v -0.01298058 -0.02879385 -0.00539893
v -0.01306377 -0.03008543 -0.00541775
v -0.01376187 -0.03137702 -0.00522123
v -0.01119546 -0.00563614 -0.00343798
v -0.01179235 -0.02879385 -0.00535294
v -0.01223187 -0.01592845 -0.00500486
v -0.01223187 -0.01722004 -0.00504354
v -0.01243568 -0.02879385 -0.00539893
v -0.01029840 -0.08341375 -0.00665641
v -0.01021659 -0.03395010 -0.00424076
v -0.01018886 -0.03523159 -0.00429198
v -0.00927447 -0.09312082 -0.00654561
v -0.00986997 -0.09182923 -0.00677348
v -0.01453137 -0.03008543 -0.00455539
v -0.01379584 -0.03265851 -0.00522646
v -0.01382287 -0.03395010 -0.00522542
v -0.01384436 -0.03523159 -0.00521914
v -0.01386447 -0.03652317 -0.00521392
v -0.01388111 -0.03780467 -0.00520765
v -0.01389566 -0.03909625 -0.00520033
v -0.01390883 -0.04037775 -0.00519197
v -0.01391993 -0.04166933 -0.00518151
v -0.01392755 -0.04295082 -0.00516897
v -0.01393310 -0.04423232 -0.00515329
v -0.01393587 -0.04551381 -0.00513239
v -0.01393518 -0.04680540 -0.00510521
v -0.01393241 -0.04808689 -0.00507071
v -0.01392825 -0.04937847 -0.00502786
v -0.01303881 -0.07253618 -0.00557350
v -0.01301940 -0.07381767 -0.00555468
v -0.01299929 -0.07510926 -0.00553482
v -0.01295978 -0.07768234 -0.00548987
v -0.01293967 -0.07896383 -0.00546479
v -0.01291957 -0.08025541 -0.00543656
v -0.01289877 -0.08153691 -0.00540625
v -0.01288421 -0.08244506 -0.00538221
v -0.01286966 -0.08330275 -0.00534144
v -0.01415286 -0.05619966 -0.00397526
v -0.01285648 -0.08410999 -0.00527454
v -0.01283361 -0.08540158 -0.00514911
v -0.01297850 -0.08410999 -0.00463065
v -0.01295146 -0.08540158 -0.00450626
v -0.01451543 -0.04808689 -0.00343798
v -0.01417366 -0.05802604 -0.00292893
v -0.01415702 -0.05888373 -0.00240838
v -0.01454246 -0.04937847 -0.00215124
v -0.01449116 -0.05065997 -0.00215124
v -0.01418059 -0.05842966 -0.00204775
v -0.01413553 -0.05954970 -0.00204775
v -0.01381871 -0.06739003 -0.00215124
v -0.01350744 -0.07510926 -0.00215124
v -0.01329947 -0.08025541 -0.00215124
v -0.01423050 -0.05709771 -0.00086554
v -0.01428319 -0.05580613 -0.00086554
v -0.01449255 -0.05065997 -0.00086554
v -0.01324609 -0.08153691 -0.00215124
v -0.01347971 -0.07510926 -0.00086554
v -0.01319132 -0.08282850 -0.00215124
v -0.01313656 -0.08410999 -0.00215124
v -0.01307832 -0.08540158 -0.00215124
v -0.01289808 -0.08890298 -0.00215124
v -0.01284747 -0.08954878 -0.00215124
v -0.01301593 -0.08668307 -0.00215124
v -0.01295215 -0.08797465 -0.00215124
v -0.01274903 -0.09054773 -0.00343798
v -0.01259998 -0.09182923 -0.00343798
v -0.01233932 -0.09312082 -0.00343798
v -0.01189772 -0.09424086 -0.00215124
v -0.01188247 -0.09420050 -0.00343798
v -0.01122874 -0.09484628 -0.00343798
v -0.01043635 -0.09509855 -0.00430034
v -0.00967239 -0.09418031 -0.00607941
v -0.01010983 -0.09383723 -0.00669613
v -0.00892438 -0.08025541 -0.00550764
v -0.01034277 -0.08341375 -0.00665641
v -0.01052925 -0.08410999 -0.00666582
v -0.01078090 -0.08540158 -0.00668463
v -0.01090430 -0.08668307 -0.00670345
v -0.01142423 -0.08540158 -0.00664387
v -0.01311853 -0.03137702 -0.00543238
v -0.01154763 -0.08668307 -0.00665118
v -0.01315250 -0.03265851 -0.00544493
v -0.01317954 -0.03395010 -0.00545642
v -0.01320103 -0.03523159 -0.00546897
v -0.01322113 -0.03652317 -0.00548151
v -0.01325233 -0.03909625 -0.00550555
v -0.01214105 -0.03006525 -0.00541148
v -0.01223187 -0.02622077 -0.00530904
v -0.01223187 -0.02493927 -0.00527141
v -0.01223187 -0.02107461 -0.00515747
v -0.00995801 -0.09054773 -0.00675989
v -0.00991780 -0.09312082 -0.00674735
v -0.01080447 -0.09182923 -0.00677348
v -0.01326550 -0.04037775 -0.00551810
v -0.01327659 -0.04166933 -0.00553064
v -0.01328976 -0.04423232 -0.00555468
v -0.01329254 -0.04551381 -0.00556722
v -0.01329184 -0.04680540 -0.00557872
v -0.01328907 -0.04808689 -0.00559022
v -0.01328491 -0.04937847 -0.00560172
v -0.01327798 -0.05065997 -0.00561217
v -0.01326758 -0.05195155 -0.00561949
v -0.01325372 -0.05323305 -0.00562367
v -0.01320865 -0.05709771 -0.00563308
v -0.01314488 -0.06352536 -0.00563830
v -0.01313448 -0.06481694 -0.00563726
v -0.01312408 -0.06609844 -0.00563517
v -0.01311229 -0.06739003 -0.00563099
v -0.01309704 -0.06867152 -0.00562053
v -0.01307832 -0.06996310 -0.00560694
v -0.01305891 -0.07124460 -0.00559022
v -0.01159061 -0.08867090 -0.00665536
v -0.01156427 -0.08952859 -0.00664909
v -0.01200310 -0.08916533 -0.00613690
v -0.01206272 -0.09054773 -0.00599474
v -0.01376741 -0.06739003 -0.00343798
v -0.01413553 -0.05709771 -0.00378083
v -0.01446551 -0.04937847 -0.00343798
v -0.01292165 -0.08668307 -0.00435365
v -0.01289115 -0.08797465 -0.00417909
v -0.01287590 -0.08862045 -0.00408501
v -0.01341802 -0.07639076 -0.00343798
v -0.01346793 -0.07510926 -0.00343798
v -0.01280934 -0.08668307 -0.00499754
v -0.01199270 -0.09182923 -0.00595293
v -0.01278369 -0.08797465 -0.00482298
v -0.01419237 -0.05709771 -0.00313798
v -0.01331749 -0.07896383 -0.00343798
v -0.01326689 -0.08025541 -0.00343798
v -0.01428458 -0.05580613 -0.00215124
v -0.01321559 -0.08153691 -0.00343798
v -0.01316290 -0.08282850 -0.00343798
v -0.01311021 -0.08410999 -0.00343798
v -0.01305406 -0.08540158 -0.00343798
v -0.01299305 -0.08668307 -0.00343798
v -0.01293136 -0.08797465 -0.00343798
v -0.01288837 -0.08878190 -0.00343798
v -0.01283846 -0.08941759 -0.00343798
v -0.01263187 -0.09054773 -0.00472473
v -0.01248698 -0.09182923 -0.00472473
v -0.01220760 -0.09312082 -0.00472473
v -0.01180691 -0.09407941 -0.00472473
v -0.01089736 -0.09475547 -0.00472682
v -0.01088558 -0.09412987 -0.00599474
v -0.01041694 -0.09383723 -0.00669613
v -0.01088627 -0.09054773 -0.00675989
v -0.01107276 -0.08793430 -0.00670867
v -0.01158645 -0.08747013 -0.00665432
v -0.01060967 -0.09312082 -0.00674735
v -0.01144780 -0.09182923 -0.00659683
v -0.01152961 -0.09054773 -0.00663864
v -0.01159061 -0.08832782 -0.00665536
v -0.01275527 -0.08913507 -0.00459825
v -0.01184711 -0.09312082 -0.00578360
v -0.01169599 -0.09390787 -0.00555468
v -0.01125300 -0.09312082 -0.00642749
f 1 2 17
f 1 17 3
f 1 3 22
f 1 22 4
f 1 4 5
f 1 5 6
f 1 6 7
f 1 7 8
f 1 8 9
f 1 9 10
f 1 10 11
f 1 11 12
f 1 12 13
f 1 13 14
f 1 14 15
f 1 15 16
f 1 16 2
f 2 16 18
f 2 18 19
f 2 19 42
f 2 42 17
f 3 20 21
f 3 21 22
f 3 17 20
f 4 22 51
f 4 51 23
f 4 23 24
f 4 24 25
f 4 25 5
f 5 25 26
f 5 26 6
f 6 26 27
f 6 27 28
f 6 28 7
f 7 28 29
f 7 29 8
f 8 29 9
f 9 29 30
f 9 30 10
f 10 30 11
f 11 30 12
f 12 30 13
f 13 30 14
f 14 30 15
f 15 30 31
f 15 31 32
f 15 32 33
f 15 33 34
f 15 34 35
f 15 35 16
f 16 35 36
f 16 36 37
f 16 37 38
f 16 38 39
f 16 39 40
f 16 40 18
f 17 41 20
f 17 42 41
f 18 40 43
f 18 43 44
f 18 44 19
f 19 44 45
f 19 45 84
f 19 84 42
f 20 41 46
f 20 46 47
f 20 47 48
f 20 48 21
f 21 48 49
f 21 49 50
f 21 50 22
f 22 50 51
f 23 51 98
f 23 98 52
f 23 52 24
f 24 52 53
f 24 53 54
f 24 54 55
f 24 55 56
f 24 56 25
f 25 56 57
f 25 57 26
f 26 57 58
f 26 58 59
f 26 59 60
f 26 60 29
f 26 29 28
f 26 28 27
f 29 60 30
f 30 61 62
f 30 62 34
f 30 34 33
f 30 33 32
f 30 32 31
f 30 60 63
f 30 63 64
f 30 64 65
f 30 65 66
f 30 66 61
f 34 62 35
f 35 62 36
f 36 62 37
f 37 62 67
f 37 67 38
f 38 67 68
f 38 68 69
f 38 69 39
f 39 70 71
f 39 71 72
f 39 72 73
f 39 73 74
f 39 74 75
f 39 75 40
f 39 69 76
f 39 76 77
f 39 77 78
f 39 78 79
f 39 79 70
f 40 80 43
f 40 75 81
f 40 81 80
f 41 42 82
f 41 82 83
f 41 83 46
f 42 84 82
f 43 80 85
f 43 85 86
f 43 86 44
f 44 86 45
f 45 87 146
f 45 146 84
f 45 86 88
f 45 88 89
f 45 89 87
f 46 83 90
f 46 90 91
f 46 91 47
f 47 91 92
f 47 92 48
f 48 92 93
f 48 93 49
f 49 93 94
f 49 94 95
f 49 95 96
f 49 96 50
f 50 96 97
f 50 97 51
f 51 97 98
f 52 98 99
f 52 99 53
f 53 99 167
f 53 167 100
f 53 100 54
f 54 100 101
f 54 101 102
f 54 102 103
f 54 103 104
f 54 104 105
f 54 105 55
f 55 106 57
f 55 57 56
f 55 105 106
f 57 106 107
f 57 107 108
f 57 108 109
f 57 109 110
f 57 110 111
f 57 111 112
f 57 112 113
f 57 113 114
f 57 114 115
f 57 115 116
f 57 116 117
f 57 117 118
f 57 118 58
f 58 118 119
f 58 119 120
f 58 120 59
f 59 120 121
f 59 121 122
f 59 122 123
f 59 123 66
f 59 66 63
f 59 63 60
f 61 124 62
f 61 66 124
f 62 124 125
f 62 125 67
f 63 66 64
f 64 66 65
f 66 123 126
f 66 126 127
f 66 127 128
f 66 128 129
f 66 129 124
f 67 125 127
f 67 127 68
f 68 127 79
f 68 79 69
f 69 79 76
f 70 79 71
f 71 79 130
f 71 130 72
f 72 130 73
f 73 130 74
f 74 131 132
f 74 132 75
f 74 130 131
f 75 133 134
f 75 134 135
f 75 135 136
f 75 136 137
f 75 137 81
f 75 132 138
f 75 138 139
f 75 139 140
f 75 140 133
f 76 79 77
f 77 79 78
f 79 127 141
f 79 141 130
f 80 142 85
f 80 81 143
f 80 143 142
f 81 137 143
f 82 84 144
f 82 144 83
f 83 144 145
f 83 145 90
f 84 146 147
f 84 147 148
f 84 148 145
f 84 145 144
f 85 142 149
f 85 149 88
f 85 88 86
f 87 89 150
f 87 150 151
f 87 151 152
f 87 152 220
f 87 220 146
f 88 149 89
f 89 149 150
f 90 145 153
f 90 153 91
f 91 153 154
f 91 154 92
f 92 154 155
f 92 155 156
f 92 156 93
f 93 156 157
f 93 157 94
f 94 157 158
f 94 158 159
f 94 159 95
f 95 159 160
f 95 160 161
f 95 161 162
f 95 162 163
f 95 163 96
f 96 163 164
f 96 164 97
f 97 165 166
f 97 166 167
f 97 167 99
f 97 99 98
f 97 164 168
f 97 168 169
f 97 169 165
f 100 167 166
f 100 166 102
f 100 102 101
f 102 166 165
f 102 165 170
f 102 170 171
f 102 171 103
f 103 171 104
f 104 171 105
f 105 171 106
f 106 171 172
f 106 172 173
f 106 173 107
f 107 173 174
f 107 174 175
f 107 175 176
f 107 176 177
f 107 177 178
f 107 178 108
f 108 178 179
f 108 179 180
f 108 180 109
f 109 180 110
f 110 180 111
f 111 180 112
f 112 180 168
f 112 168 113
f 113 168 114
f 114 168 115
f 115 168 116
f 116 181 117
f 116 168 182
f 116 182 183
f 116 183 181
f 117 184 185
f 117 185 118
f 117 181 184
f 118 185 186
f 118 186 119
f 119 186 187
f 119 187 188
f 119 188 120
f 120 188 121
f 121 188 189
f 121 189 190
f 121 190 191
f 121 191 122
f 122 192 193
f 122 193 123
f 122 191 192
f 123 193 194
f 123 194 195
f 123 195 141
f 123 141 126
f 124 129 125
f 125 129 128
f 125 128 127
f 126 141 127
f 130 141 196
f 130 196 197
f 130 197 198
f 130 198 199
f 130 199 200
f 130 200 201
f 130 201 202
f 130 202 203
f 130 203 131
f 131 203 204
f 131 204 132
f 132 204 138
f 133 205 134
f 133 140 214
f 133 214 206
f 133 206 207
f 133 207 205
f 134 205 135
f 135 205 208
f 135 208 209
f 135 209 136
f 136 209 137
f 137 209 210
f 137 210 211
f 137 211 219
f 137 219 143
f 138 204 139
f 139 204 212
f 139 212 140
f 140 213 214
f 140 212 215
f 140 215 216
f 140 216 213
f 141 217 196
f 141 195 217
f 142 218 149
f 142 143 218
f 143 219 218
f 145 148 153
f 146 220 221
f 146 221 222
f 146 222 223
f 146 223 147
f 147 223 224
f 147 224 148
f 148 224 153
f 149 218 225
f 149 225 226
f 149 226 150
f 150 226 151
f 151 226 227
f 151 227 152
f 152 227 228
f 152 228 285
f 152 285 220
f 153 224 154
f 154 229 230
f 154 230 155
f 154 224 229
f 155 230 156
f 156 231 232
f 156 232 157
f 156 230 231
f 157 232 233
f 157 233 158
f 158 233 234
f 158 234 235
f 158 235 159
f 159 235 236
f 159 236 160
f 160 237 238
f 160 238 239
f 160 239 240
f 160 240 241
f 160 241 242
f 160 242 161
f 160 236 243
f 160 243 244
f 160 244 237
f 161 245 162
f 161 242 246
f 161 246 245
f 162 245 164
f 162 164 163
f 164 245 247
f 164 247 248
f 164 248 249
f 164 249 182
f 164 182 168
f 165 250 170
f 165 169 168
f 165 168 250
f 168 180 250
f 170 251 171
f 170 250 174
f 170 174 251
f 171 251 173
f 171 173 172
f 173 251 174
f 174 250 180
f 174 180 179
f 174 179 176
f 174 176 175
f 176 179 178
f 176 178 177
f 181 183 182
f 181 182 252
f 181 252 238
f 181 238 253
f 181 253 254
f 181 254 184
f 182 249 239
f 182 239 238
f 182 238 252
f 184 255 256
f 184 256 257
f 184 257 185
f 184 254 255
f 185 257 258
f 185 258 259
f 185 259 186
f 186 259 260
f 186 260 187
f 187 260 261
f 187 261 262
f 187 262 188
f 188 262 189
f 189 262 263
f 189 263 190
f 190 264 265
f 190 265 191
f 190 263 264
f 191 265 266
f 191 266 192
f 192 266 193
f 193 266 267
f 193 267 194
f 194 267 268
f 194 268 269
f 194 269 217
f 194 217 195
f 196 217 197
f 197 217 198
f 198 217 199
f 199 204 200
f 199 217 270
f 199 270 204
f 200 204 201
f 201 204 202
f 202 204 203
f 204 270 271
f 204 271 272
f 204 272 212
f 205 273 208
f 205 207 274
f 205 274 273
f 206 214 275
f 206 275 276
f 206 276 207
f 207 276 277
f 207 277 278
f 207 278 274
f 208 273 209
f 209 273 279
f 209 279 210
f 210 279 211
f 211 279 280
f 211 280 219
f 212 281 215
f 212 272 282
f 212 282 283
f 212 283 281
f 213 216 284
f 213 284 214
f 214 284 275
f 215 281 284
f 215 284 216
f 217 269 270
f 218 219 225
f 219 280 225
f 220 285 286
f 220 286 221
f 221 286 287
f 221 287 222
f 222 287 223
f 223 287 288
f 223 288 224
f 224 288 289
f 224 289 229
f 225 290 226
f 225 280 290
f 226 290 227
f 227 290 291
f 227 291 228
f 228 291 292
f 228 292 338
f 228 338 285
f 229 289 293
f 229 293 230
f 230 293 231
f 231 294 295
f 231 295 232
f 231 293 294
f 232 295 296
f 232 296 233
f 233 296 297
f 233 297 298
f 233 298 234
f 234 298 299
f 234 299 300
f 234 300 301
f 234 301 375
f 234 375 302
f 234 302 235
f 235 302 303
f 235 303 236
f 236 303 243
f 237 304 238
f 237 244 304
f 238 304 244
f 238 244 253
f 239 249 240
f 240 249 241
f 241 249 247
f 241 247 242
f 242 247 305
f 242 305 246
f 243 303 306
f 243 306 307
f 243 307 308
f 243 308 309
f 243 309 244
f 244 310 311
f 244 311 308
f 244 308 312
f 244 312 313
f 244 313 314
f 244 314 254
f 244 254 253
f 244 309 315
f 244 315 316
f 244 316 310
f 245 246 305
f 245 305 247
f 247 249 248
f 254 314 313
f 254 313 312
f 254 312 317
f 254 317 318
f 254 318 255
f 255 318 312
f 255 312 319
f 255 319 320
f 255 320 256
f 256 321 322
f 256 322 257
f 256 320 321
f 257 322 258
f 258 323 324
f 258 324 259
f 258 322 323
f 259 324 260
f 260 325 327
f 260 327 261
f 260 324 326
f 260 326 325
f 261 327 262
f 262 327 263
f 263 328 264
f 263 327 329
f 263 329 330
f 263 330 328
f 264 328 331
f 264 331 332
f 264 332 265
f 265 332 333
f 265 333 266
f 266 333 267
f 267 333 334
f 267 334 268
f 268 334 269
f 269 335 336
f 269 336 282
f 269 282 270
f 269 334 335
f 270 282 271
f 271 282 272
f 273 274 336
f 273 336 279
f 274 278 336
f 275 284 336
f 275 336 276
f 276 336 277
f 277 336 278
f 279 337 280
f 279 336 337
f 280 337 290
f 281 336 284
f 281 283 336
f 282 336 283
f 285 338 339
f 285 339 286
f 286 339 340
f 286 340 287
f 287 340 288
f 288 340 289
f 289 340 341
f 289 341 293
f 290 337 291
f 291 337 342
f 291 342 292
f 292 343 344
f 292 344 345
f 292 345 433
f 292 433 338
f 292 342 346
f 292 346 347
f 292 347 348
f 292 348 349
f 292 349 350
f 292 350 351
f 292 351 352
f 292 352 353
f 292 353 343
f 293 341 294
f 294 354 355
f 294 355 295
f 294 341 356
f 294 356 357
f 294 357 354
f 295 355 358
f 295 358 359
f 295 359 360
f 295 360 361
f 295 361 362
f 295 362 363
f 295 363 364
f 295 364 365
f 295 365 366
f 295 366 367
f 295 367 296
f 296 367 368
f 296 368 369
f 296 369 370
f 296 370 371
f 296 371 372
f 296 372 297
f 297 372 373
f 297 373 298
f 298 373 374
f 298 374 299
f 299 374 300
f 300 374 301
f 301 374 375
f 302 375 376
f 302 376 377
f 302 377 378
f 302 378 379
f 302 379 303
f 303 379 380
f 303 380 381
f 303 381 382
f 303 382 306
f 306 382 383
f 306 383 307
f 307 383 384
f 307 384 385
f 307 385 386
f 307 386 387
f 307 387 308
f 308 387 388
f 308 388 389
f 308 389 390
f 308 390 391
f 308 391 392
f 308 392 312
f 308 311 310
f 308 310 316
f 308 316 315
f 308 315 309
f 312 392 393
f 312 393 394
f 312 394 319
f 312 318 395
f 312 395 396
f 312 396 317
f 317 396 318
f 318 396 397
f 318 397 395
f 319 394 398
f 319 398 399
f 319 399 400
f 319 400 320
f 320 401 402
f 320 402 321
f 320 400 399
f 320 399 401
f 321 402 403
f 321 403 404
f 321 404 322
f 322 404 323
f 323 404 405
f 323 405 326
f 323 326 324
f 325 406 329
f 325 329 327
f 325 326 407
f 325 407 406
f 326 405 407
f 328 330 408
f 328 408 409
f 328 409 410
f 328 410 331
f 329 406 411
f 329 411 330
f 330 411 504
f 330 504 408
f 331 410 332
f 332 410 412
f 332 412 333
f 333 413 334
f 333 412 413
f 334 413 414
f 334 414 415
f 334 415 416
f 334 416 417
f 334 417 418
f 334 418 419
f 334 419 420
f 334 420 421
f 334 421 335
f 335 421 422
f 335 422 423
f 335 423 424
f 335 424 336
f 336 424 425
f 336 425 426
f 336 426 427
f 336 427 337
f 337 428 429
f 337 429 430
f 337 430 431
f 337 431 342
f 337 427 428
f 338 432 357
f 338 357 339
f 338 433 434
f 338 434 435
f 338 435 436
f 338 436 432
f 339 341 340
f 339 357 341
f 341 357 356
f 342 431 437
f 342 437 430
f 342 430 429
f 342 429 422
f 342 422 421
f 342 421 346
f 343 353 438
f 343 438 344
f 344 439 345
f 344 438 439
f 345 439 440
f 345 440 441
f 345 441 442
f 345 442 508
f 345 508 433
f 346 421 420
f 346 420 443
f 346 443 444
f 346 444 417
f 346 417 416
f 346 416 414
f 346 414 347
f 347 414 348
f 348 414 413
f 348 413 351
f 348 351 349
f 349 351 350
f 351 413 412
f 351 412 445
f 351 445 446
f 351 446 442
f 351 442 352
f 352 442 353
f 353 442 438
f 354 357 447
f 354 447 436
f 354 436 448
f 354 448 449
f 354 449 450
f 354 450 451
f 354 451 452
f 354 452 453
f 354 453 454
f 354 454 355
f 355 454 455
f 355 455 456
f 355 456 457
f 355 457 458
f 355 458 358
f 357 432 436
f 357 436 447
f 358 458 459
f 358 459 359
f 359 459 360
f 360 459 361
f 361 459 460
f 361 460 362
f 362 460 363
f 363 460 364
f 364 460 461
f 364 461 365
f 365 461 462
f 365 462 463
f 365 463 464
f 365 464 465
f 365 465 366
f 366 465 466
f 366 466 467
f 366 467 367
f 367 467 468
f 367 468 469
f 367 469 368
f 368 469 369
f 369 469 370
f 370 469 470
f 370 470 371
f 371 470 372
f 372 470 373
f 373 470 374
f 374 471 378
f 374 378 377
f 374 377 376
f 374 376 375
f 374 470 472
f 374 472 473
f 374 473 474
f 374 474 475
f 374 475 471
f 378 471 476
f 378 476 380
f 378 380 379
f 380 476 477
f 380 477 381
f 381 477 382
f 382 477 383
f 383 477 384
f 384 477 478
f 384 478 479
f 384 479 385
f 385 479 480
f 385 480 481
f 385 481 482
f 385 482 483
f 385 483 484
f 385 484 485
f 385 485 386
f 386 485 389
f 386 389 486
f 386 486 487
f 386 487 488
f 386 488 388
f 386 388 387
f 388 488 389
f 389 488 487
f 389 487 486
f 389 485 489
f 389 489 490
f 389 490 390
f 390 490 489
f 390 489 491
f 390 491 492
f 390 492 391
f 391 492 392
f 392 492 393
f 393 492 493
f 393 493 394
f 394 493 399
f 394 399 398
f 395 397 396
f 399 494 495
f 399 495 401
f 399 493 496
f 399 496 497
f 399 497 494
f 401 498 499
f 401 499 402
f 401 495 498
f 402 499 403
f 403 499 500
f 403 500 501
f 403 501 404
f 404 501 405
f 405 501 407
f 406 407 503
f 406 503 411
f 407 501 502
f 407 502 503
f 408 504 505
f 408 505 409
f 409 505 410
f 410 506 445
f 410 445 412
f 410 505 506
f 411 503 504
f 414 416 415
f 417 444 418
f 418 507 419
f 418 444 443
f 418 443 507
f 419 507 443
f 419 443 420
f 422 429 428
f 422 428 427
f 422 427 423
f 423 427 426
f 423 426 425
f 423 425 424
f 430 437 431
f 433 508 509
f 433 509 510
f 433 510 434
f 434 510 511
f 434 511 512
f 434 512 435
f 435 513 436
f 435 512 514
f 435 514 513
f 436 513 515
f 436 515 516
f 436 516 517
f 436 517 518
f 436 518 519
f 436 519 448
f 438 520 441
f 438 441 521
f 438 521 522
f 438 522 523
f 438 523 440
f 438 440 439
f 438 442 520
f 440 523 441
f 441 523 522
f 441 522 521
f 441 520 442
f 442 446 524
f 442 524 579
f 442 579 508
f 445 525 446
f 445 506 525
f 446 525 582
f 446 582 526
f 446 526 579
f 446 579 524
f 448 519 527
f 448 527 528
f 448 528 529
f 448 529 530
f 448 530 449
f 449 451 450
f 449 530 531
f 449 531 532
f 449 532 533
f 449 533 534
f 449 534 451
f 451 534 452
f 452 534 453
f 453 534 535
f 453 535 454
f 454 535 455
f 455 535 536
f 455 536 456
f 456 536 537
f 456 537 538
f 456 538 539
f 456 539 540
f 456 540 457
f 457 540 541
f 457 541 458
f 458 541 459
f 459 541 542
f 459 542 460
f 460 542 543
f 460 543 544
f 460 544 462
f 460 462 461
f 462 544 545
f 462 545 463
f 463 545 464
f 464 545 465
f 465 545 466
f 466 545 467
f 467 545 468
f 468 545 546
f 468 546 547
f 468 547 469
f 469 547 548
f 469 548 470
f 470 548 472
f 471 549 550
f 471 550 551
f 471 551 476
f 471 475 552
f 471 552 553
f 471 553 554
f 471 554 555
f 471 555 556
f 471 556 549
f 472 548 473
f 473 557 475
f 473 475 474
f 473 548 558
f 473 558 557
f 475 557 559
f 475 559 552
f 476 551 560
f 476 560 477
f 477 560 556
f 477 556 555
f 477 555 561
f 477 561 562
f 477 562 478
f 478 483 563
f 478 563 480
f 478 480 479
f 478 562 564
f 478 564 485
f 478 485 484
f 478 484 483
f 480 563 481
f 481 483 482
f 481 563 483
f 485 564 565
f 485 565 566
f 485 566 489
f 489 566 491
f 491 566 492
f 492 566 567
f 492 567 493
f 493 567 568
f 493 568 569
f 493 569 496
f 494 497 570
f 494 570 495
f 495 571 498
f 495 570 571
f 496 569 497
f 497 569 570
f 498 571 554
f 498 554 572
f 498 572 573
f 498 573 499
f 499 573 500
f 500 573 574
f 500 574 575
f 500 575 502
f 500 502 501
f 502 575 503
f 503 575 576
f 503 576 504
f 504 576 577
f 504 577 578
f 504 578 505
f 505 578 506
f 506 578 582
f 506 582 525
f 508 579 511
f 508 511 510
f 508 510 509
f 511 579 580
f 511 580 512
f 512 580 514
f 513 514 515
f 514 580 579
f 514 579 581
f 514 581 515
f 515 581 516
f 516 581 517
f 517 581 518
f 518 581 519
f 519 581 527
f 526 583 584
f 526 584 546
f 526 546 545
f 526 545 585
f 526 585 579
f 526 582 583
f 527 581 528
f 528 581 529
f 529 581 530
f 530 581 531
f 531 581 532
f 532 581 533
f 533 581 534
f 534 581 585
f 534 585 535
f 535 585 545
f 535 545 536
f 536 545 537
f 537 545 538
f 538 545 539
f 539 545 540
f 540 545 541
f 541 545 542
f 542 545 543
f 543 545 544
f 546 584 548
f 546 548 547
f 548 584 558
f 549 560 551
f 549 551 550
f 549 556 560
f 552 559 553
f 553 559 554
f 554 559 586
f 554 586 572
f 554 571 570
f 554 570 569
f 554 569 568
f 554 568 567
f 554 567 566
f 554 566 565
f 554 565 564
f 554 564 562
f 554 562 561
f 554 561 555
f 557 558 572
f 557 572 559
f 558 573 572
f 558 584 583
f 558 583 587
f 558 587 573
f 559 572 586
f 573 587 574
f 574 587 588
f 574 588 575
f 575 588 576
f 576 588 577
f 577 588 578
f 578 588 589
f 578 589 583
f 578 583 582
f 579 585 581
f 583 589 587
f 587 589 588

