# https://github.com/mikedh/trimesh
v -0.00988258 -0.02444025 -0.00005968
v -0.00916475 -0.02444025 -0.00508318
v -0.01165894 -0.02444025 -0.00005968
v -0.00753121 -0.08869045 -0.00005968
v -0.01145858 -0.02444025 -0.00508318
v -0.00743227 -0.08869045 -0.00508318
v -0.01166018 -0.02444025 -0.00036013
v -0.01165729 -0.02457861 -0.00005968
v -0.00962633 -0.08869045 -0.00005968
v -0.01148673 -0.02444025 -0.00496959
v -0.01134143 -0.03352810 -0.00508318
v -0.00952284 -0.08869045 -0.00508318
v -0.01166101 -0.02444025 -0.00063648
v -0.01165729 -0.02471697 -0.00063648
v -0.01141428 -0.04252791 -0.00109133
v -0.01141594 -0.04152165 -0.00005968
v -0.00966773 -0.08869045 -0.00063648
v -0.01085211 -0.06297402 -0.00005968
v -0.01148466 -0.02471697 -0.00496172
v -0.01151240 -0.02444025 -0.00474438
v -0.01132280 -0.03490543 -0.00508318
v -0.01146769 -0.02700623 -0.00489337
v -0.00962302 -0.08869045 -0.00406923
v -0.00962426 -0.08867788 -0.00406284
v -0.01070887 -0.06240799 -0.00508318
v -0.01165398 -0.02444025 -0.00177876
v -0.01141428 -0.04252791 -0.00127278
v -0.01129340 -0.04871017 -0.00063648
v -0.01128098 -0.04871017 -0.00005968
v -0.00970623 -0.08869045 -0.00177876
v -0.01087902 -0.06240799 -0.00005968
v -0.01158691 -0.02444025 -0.00406284
v -0.01145941 -0.02814457 -0.00485747
v -0.01141842 -0.03385514 -0.00466373
v -0.01141387 -0.03450293 -0.00464013
v -0.01142629 -0.03271680 -0.00470406
v -0.01112616 -0.04871017 -0.00508318
v -0.00968843 -0.08869045 -0.00292056
v -0.01087239 -0.06240799 -0.00292056
v -0.01080699 -0.06240799 -0.00406284
v -0.01071426 -0.06228850 -0.00508318
v -0.01163121 -0.02444025 -0.00292056
v -0.01165025 -0.02471697 -0.00177876
v -0.01141718 -0.04045877 -0.00254979
v -0.01141139 -0.04121976 -0.00230049
v -0.01126443 -0.04871017 -0.00292056
v -0.01129051 -0.04871017 -0.00177876
v -0.01126815 -0.04984851 -0.00177876
v -0.01127064 -0.04984851 -0.00063648
v -0.01125904 -0.04984851 -0.00005968
v -0.01089806 -0.06240799 -0.00063648
v -0.01090386 -0.06240799 -0.00177876
v -0.01090468 -0.06182939 -0.00005968
v -0.01159768 -0.02444025 -0.00378649
v -0.01141387 -0.03906258 -0.00350571
v -0.01111001 -0.04972902 -0.00508318
v -0.01120067 -0.04984851 -0.00406284
v -0.01092124 -0.06126336 -0.00292056
v -0.01085749 -0.06126336 -0.00406284
v -0.01075814 -0.06126336 -0.00508318
v -0.01142174 -0.03949653 -0.00292597
v -0.01124373 -0.04984851 -0.00292056
v -0.01116549 -0.05327611 -0.00292056
v -0.01116135 -0.05442074 -0.00177876
v -0.01116176 -0.05442074 -0.00063648
v -0.01116424 -0.05384214 -0.00005968
v -0.01092911 -0.06126336 -0.00005968
v -0.01094732 -0.06126336 -0.00063648
v -0.01095270 -0.06126336 -0.00177876
v -0.01110794 -0.04984851 -0.00508318
v -0.01117584 -0.05099314 -0.00406284
v -0.01099162 -0.06012502 -0.00177876
v -0.01095974 -0.06012502 -0.00292056
v -0.01089723 -0.06012502 -0.00406284
v -0.01076269 -0.06114387 -0.00508318
v -0.01114644 -0.05213148 -0.00406284
v -0.01113568 -0.05442074 -0.00292056
v -0.01113030 -0.05555908 -0.00177876
v -0.01112989 -0.05555908 -0.00063648
v -0.01113361 -0.05498677 -0.00005968
v -0.01114934 -0.05442074 -0.00005968
v -0.01095022 -0.06069105 -0.00005968
v -0.01098748 -0.06012502 -0.00063648
v -0.01107979 -0.05099314 -0.00508318
v -0.01102639 -0.05898039 -0.00177876
v -0.01111374 -0.05327611 -0.00406284
v -0.01107772 -0.05442074 -0.00406284
v -0.01079788 -0.06012502 -0.00508318
v -0.01109759 -0.05612511 -0.00005968
v -0.01097009 -0.06012502 -0.00005968
v -0.01098872 -0.05954642 -0.00005968
v -0.01102515 -0.05840179 -0.00005968
v -0.01104626 -0.05213148 -0.00508318
f 1 2 5
f 1 5 10
f 1 10 20
f 1 20 32
f 1 32 54
f 1 54 42
f 1 42 26
f 1 26 13
f 1 13 7
f 1 7 3
f 1 3 8
f 1 8 16
f 1 16 29
f 1 29 50
f 1 50 66
f 1 66 81
f 1 81 80
f 1 80 89
f 1 89 92
f 1 92 91
f 1 91 90
f 1 90 82
f 1 82 67
f 1 67 53
f 1 53 31
f 1 31 18
f 1 18 9
f 1 9 4
f 1 4 2
f 2 4 6
f 2 6 12
f 2 12 25
f 2 25 41
f 2 41 60
f 2 60 75
f 2 75 88
f 2 88 93
f 2 93 84
f 2 84 70
f 2 70 56
f 2 56 37
f 2 37 21
f 2 21 11
f 2 11 5
f 3 7 8
f 4 9 17
f 4 17 30
f 4 30 38
f 4 38 23
f 4 23 12
f 4 12 6
f 5 11 10
f 7 13 14
f 7 14 15
f 7 15 8
f 8 15 16
f 9 18 17
f 10 19 20
f 10 11 19
f 11 21 22
f 11 22 19
f 12 23 24
f 12 24 25
f 13 26 27
f 13 27 14
f 14 27 15
f 15 27 28
f 15 28 16
f 16 28 29
f 17 18 31
f 17 31 30
f 19 22 20
f 20 22 33
f 20 33 34
f 20 34 32
f 21 35 34
f 21 34 36
f 21 36 33
f 21 33 22
f 21 37 35
f 23 38 24
f 24 38 39
f 24 39 40
f 24 40 41
f 24 41 25
f 26 42 43
f 26 43 27
f 27 44 45
f 27 45 46
f 27 46 47
f 27 47 48
f 27 48 28
f 27 43 42
f 27 42 44
f 28 48 49
f 28 49 50
f 28 50 29
f 30 31 51
f 30 51 52
f 30 52 38
f 31 53 51
f 32 34 35
f 32 35 55
f 32 55 54
f 33 36 34
f 35 37 56
f 35 56 57
f 35 57 55
f 38 52 39
f 39 52 69
f 39 69 58
f 39 58 59
f 39 59 40
f 40 59 41
f 41 59 60
f 42 54 55
f 42 55 61
f 42 61 44
f 44 61 55
f 44 55 45
f 45 55 46
f 46 57 62
f 46 62 47
f 46 55 57
f 47 62 48
f 48 62 63
f 48 63 64
f 48 64 49
f 49 64 65
f 49 65 66
f 49 66 50
f 51 53 67
f 51 67 68
f 51 68 52
f 52 68 69
f 56 70 57
f 57 70 71
f 57 71 62
f 58 69 72
f 58 72 73
f 58 73 74
f 58 74 59
f 59 74 75
f 59 75 60
f 62 71 63
f 63 76 77
f 63 77 64
f 63 71 76
f 64 77 78
f 64 78 65
f 65 78 79
f 65 79 80
f 65 80 81
f 65 81 66
f 67 82 68
f 68 82 83
f 68 83 69
f 69 83 72
f 70 84 71
f 71 84 76
f 72 83 79
f 72 79 85
f 72 85 77
f 72 77 73
f 73 77 86
f 73 86 87
f 73 87 74
f 74 88 75
f 74 87 88
f 76 84 86
f 76 86 77
f 77 85 78
f 78 85 79
f 79 83 80
f 80 83 89
f 82 90 83
f 83 90 91
f 83 91 92
f 83 92 89
f 84 93 86
f 86 93 88
f 86 88 87

