# https://github.com/mikedh/trimesh
v 0.01020616 0.08300480 0.00850177
v 0.01026492 0.08300480 0.00790848
v 0.01021008 0.08300480 0.00868931
v 0.01022428 0.08379833 0.00850177
v 0.01028549 0.08573198 0.00792637
v 0.01324529 0.08300480 0.00585735
v 0.01275264 0.08836694 0.00585735
v 0.01023113 0.08300480 0.00912094
v 0.01023848 0.08379833 0.00911583
v 0.01026443 0.08494067 0.00909474
v 0.01025660 0.08494067 0.00850177
v 0.01028255 0.08569628 0.00850177
v 0.01121251 0.08799435 0.00813020
v 0.01121251 0.08799435 0.00765608
v 0.01098528 0.08722461 0.00754713
v 0.01299750 0.09060179 0.00585735
v 0.01519923 0.08300480 0.00585735
v 0.01070125 0.08300480 0.00912094
v 0.01071056 0.08379833 0.00911583
v 0.01055042 0.08494067 0.00909474
v 0.01028451 0.08553713 0.00907781
v 0.01200339 0.08722461 0.00849730
v 0.01200339 0.08807838 0.00813915
v 0.01304108 0.09060179 0.00592476
v 0.01302100 0.09060179 0.00590975
v 0.01397446 0.09060179 0.00585735
v 0.01519971 0.08301669 0.00585735
v 0.01519825 0.08300480 0.00586853
v 0.01087559 0.08300480 0.00909858
v 0.01128156 0.08379833 0.00904298
v 0.01112142 0.08494067 0.00903308
v 0.01036972 0.08553713 0.00907781
v 0.01200339 0.08608301 0.00871295
v 0.01312874 0.08711156 0.00808260
v 0.01273697 0.08797427 0.00800912
v 0.01392353 0.09060179 0.00597620
v 0.01387750 0.09060179 0.00597396
v 0.01491715 0.08796237 0.00585735
v 0.01479473 0.08757861 0.00662349
v 0.01491666 0.08796088 0.00586214
v 0.01516005 0.08300480 0.00621774
v 0.01520804 0.08379833 0.00585735
v 0.01516886 0.08379833 0.00621774
v 0.01127225 0.08300480 0.00903692
v 0.01200339 0.08379833 0.00881934
v 0.01200339 0.08494067 0.00879762
v 0.01200339 0.08300480 0.00881167
v 0.01314539 0.08494067 0.00835896
v 0.01314539 0.08608301 0.00826503
v 0.01371737 0.08665641 0.00793116
v 0.01349847 0.08741648 0.00781646
v 0.01381678 0.08912776 0.00687940
v 0.01402931 0.08836694 0.00705672
v 0.01504301 0.08721345 0.00585735
v 0.01489267 0.08681705 0.00684074
v 0.01498326 0.08720824 0.00623275
v 0.01502489 0.08300480 0.00674202
v 0.01520804 0.08415903 0.00585735
v 0.01520216 0.08494067 0.00585735
v 0.01516005 0.08494067 0.00621774
v 0.01496661 0.08379833 0.00697748
v 0.01496319 0.08300480 0.00697429
v 0.01314539 0.08379833 0.00838899
v 0.01314539 0.08300480 0.00838867
v 0.01390150 0.08379833 0.00804138
v 0.01387016 0.08494067 0.00802317
v 0.01378299 0.08608301 0.00797078
v 0.01425605 0.08711677 0.00732860
v 0.01435399 0.08608301 0.00747685
v 0.01513361 0.08644371 0.00585735
v 0.01493135 0.08608301 0.00690592
v 0.01511744 0.08608301 0.00621774
v 0.01519433 0.08530137 0.00585735
v 0.01495878 0.08494067 0.00695863
v 0.01447299 0.08379833 0.00754841
v 0.01462627 0.08300480 0.00737078
v 0.01390395 0.08300480 0.00804266
v 0.01407877 0.08300480 0.00789186
v 0.01444116 0.08494067 0.00752924
v 0.01516495 0.08608301 0.00585735
v 0.01447544 0.08300480 0.00754490
f 1 2 6
f 1 6 17
f 1 17 28
f 1 28 41
f 1 41 57
f 1 57 62
f 1 62 76
f 1 76 81
f 1 81 78
f 1 78 77
f 1 77 64
f 1 64 47
f 1 47 44
f 1 44 29
f 1 29 18
f 1 18 8
f 1 8 3
f 1 3 4
f 1 4 5
f 1 5 2
f 2 5 7
f 2 7 6
f 3 8 9
f 3 9 10
f 3 10 4
f 4 10 11
f 4 11 5
f 5 12 13
f 5 13 14
f 5 14 15
f 5 15 16
f 5 16 7
f 5 11 12
f 6 7 16
f 6 16 26
f 6 26 38
f 6 38 54
f 6 54 70
f 6 70 80
f 6 80 73
f 6 73 59
f 6 59 58
f 6 58 42
f 6 42 27
f 6 27 17
f 8 18 19
f 8 19 9
f 9 19 20
f 9 20 10
f 10 20 32
f 10 32 21
f 10 21 11
f 11 21 12
f 12 21 13
f 13 22 23
f 13 23 24
f 13 24 25
f 13 25 16
f 13 16 14
f 13 21 22
f 14 16 15
f 16 25 24
f 16 24 37
f 16 37 36
f 16 36 26
f 17 27 28
f 18 29 30
f 18 30 19
f 19 30 31
f 19 31 20
f 20 31 32
f 21 32 22
f 22 32 33
f 22 33 34
f 22 34 35
f 22 35 23
f 23 35 36
f 23 36 37
f 23 37 24
f 26 36 39
f 26 39 40
f 26 40 38
f 27 41 28
f 27 42 43
f 27 43 41
f 29 44 30
f 30 45 46
f 30 46 31
f 30 44 47
f 30 47 45
f 31 46 33
f 31 33 32
f 33 46 48
f 33 48 49
f 33 49 34
f 34 50 51
f 34 51 35
f 34 49 50
f 35 52 36
f 35 51 52
f 36 52 53
f 36 53 39
f 38 40 54
f 39 55 56
f 39 56 40
f 39 53 55
f 40 56 54
f 41 43 57
f 42 58 43
f 43 58 59
f 43 59 60
f 43 60 61
f 43 61 62
f 43 62 57
f 45 63 46
f 45 47 64
f 45 64 63
f 46 63 48
f 48 63 65
f 48 65 66
f 48 66 67
f 48 67 49
f 49 67 50
f 50 55 68
f 50 68 53
f 50 53 51
f 50 67 69
f 50 69 55
f 51 53 52
f 53 68 55
f 54 56 70
f 55 69 71
f 55 71 72
f 55 72 56
f 56 72 70
f 59 73 60
f 60 73 72
f 60 72 71
f 60 71 74
f 60 74 61
f 61 74 75
f 61 75 76
f 61 76 62
f 63 64 77
f 63 77 65
f 65 75 66
f 65 77 78
f 65 78 75
f 66 75 79
f 66 79 69
f 66 69 67
f 69 79 71
f 70 72 80
f 71 79 74
f 72 73 80
f 74 79 75
f 75 78 81
f 75 81 76

