# https://github.com/mikedh/trimesh
v 0.00920734 -0.05486655 0.00232564
v 0.00938741 -0.05486655 0.00000935
v 0.01038964 -0.05486655 0.00233429
v 0.00922292 -0.05441505 0.00233429
v 0.00996030 -0.01900857 0.00233429
v 0.00998201 -0.01900857 0.00000935
v 0.01115256 -0.05486655 0.00000935
v 0.01100621 -0.05486655 0.00233429
v 0.00998839 -0.01786305 0.00233429
v 0.01000729 -0.01786305 0.00000935
v 0.01114183 -0.05486655 0.00050615
v 0.01116686 -0.05441505 0.00000935
v 0.01108360 -0.05486655 0.00164837
v 0.01102511 -0.05441505 0.00233429
v 0.01002211 -0.01675112 0.00233429
v 0.01003896 -0.01675112 0.00000935
v 0.01115614 -0.05441505 0.00050615
v 0.01113724 -0.05326954 0.00164837
v 0.01109969 -0.05441505 0.00164837
v 0.01119496 -0.05326954 0.00000935
v 0.01118627 -0.05326954 0.00050615
v 0.01111246 -0.05212776 0.00233429
v 0.01106929 -0.05326954 0.00233429
v 0.01178317 -0.01675112 0.00233429
v 0.01181663 -0.01675112 0.00000935
v 0.01120211 -0.05098598 0.00164837
v 0.01117146 -0.05212776 0.00164837
v 0.01115103 -0.05098598 0.00233429
v 0.01127695 -0.04984419 0.00000935
v 0.01126698 -0.04984419 0.00050615
v 0.01180233 -0.01675112 0.00167499
v 0.01143811 -0.03677711 0.00233429
v 0.01143658 -0.03696368 0.00230334
v 0.01143454 -0.04030694 0.00112994
v 0.01143454 -0.04148230 0.00000935
v 0.01181561 -0.01675112 0.00050615
v 0.01122714 -0.04984419 0.00164837
v 0.01118219 -0.04984419 0.00233429
v 0.01128665 -0.04934793 0.00000935
v 0.01142636 -0.04106813 0.00085617
v 0.01180310 -0.01675112 0.00164837
v 0.01120517 -0.04870240 0.00233429
v 0.01143428 -0.04144126 0.00009469
v 0.01143275 -0.04159424 0.00000935
v 0.01181535 -0.01675112 0.00053278
f 1 2 7
f 1 7 11
f 1 11 13
f 1 13 8
f 1 8 3
f 1 3 4
f 1 4 5
f 1 5 6
f 1 6 2
f 2 6 10
f 2 10 16
f 2 16 25
f 2 25 35
f 2 35 44
f 2 44 39
f 2 39 29
f 2 29 20
f 2 20 12
f 2 12 7
f 3 8 14
f 3 14 23
f 3 23 22
f 3 22 28
f 3 28 38
f 3 38 42
f 3 42 32
f 3 32 24
f 3 24 15
f 3 15 9
f 3 9 5
f 3 5 4
f 5 9 10
f 5 10 6
f 7 12 17
f 7 17 11
f 8 13 14
f 9 15 16
f 9 16 10
f 11 17 18
f 11 18 19
f 11 19 13
f 12 20 21
f 12 21 17
f 13 19 22
f 13 22 23
f 13 23 14
f 15 24 31
f 15 31 41
f 15 41 45
f 15 45 36
f 15 36 25
f 15 25 16
f 17 21 26
f 17 26 27
f 17 27 18
f 18 27 28
f 18 28 19
f 19 28 22
f 20 29 21
f 21 29 30
f 21 30 26
f 24 32 33
f 24 33 34
f 24 34 31
f 25 36 35
f 26 30 37
f 26 37 38
f 26 38 27
f 27 38 28
f 29 39 30
f 30 39 40
f 30 40 34
f 30 34 37
f 31 34 41
f 32 42 33
f 33 42 37
f 33 37 34
f 34 40 43
f 34 43 41
f 35 43 44
f 35 36 45
f 35 45 43
f 37 42 38
f 39 44 43
f 39 43 40
f 41 43 45

