# https://github.com/mikedh/trimesh
v -0.01161285 -0.02444730 0.00236520
v -0.01160176 -0.02515237 0.00236520
v -0.01159807 -0.02444730 0.00279091
v -0.00924916 -0.02444025 0.00597220
v -0.00924916 -0.02444025 0.00389075
v -0.00984415 -0.02444730 0.00236520
v -0.00924916 -0.05286129 0.00236478
v -0.00924916 -0.08962321 0.00236478
v -0.01142068 -0.03659552 0.00236520
v -0.01149163 -0.02444730 0.00379320
v -0.01142437 -0.03615133 0.00243959
v -0.01143398 -0.03500913 0.00262228
v -0.01143916 -0.03387398 0.00287358
v -0.01140811 -0.03426176 0.00330962
v -0.01141624 -0.03350029 0.00337699
v -0.01146577 -0.02444730 0.00393125
v -0.01138003 -0.02444730 0.00436399
v -0.01078430 -0.02444730 0.00507820
v -0.01062170 -0.02444730 0.00523898
v -0.01022036 -0.02444730 0.00562337
v -0.00967415 -0.02444730 0.00582961
v -0.00937555 -0.02444730 0.00593046
v -0.00855661 -0.02444025 0.00620242
v -0.00561049 -0.02444025 0.00556178
v -0.00406278 -0.05396119 0.00442516
v -0.00406278 -0.05434897 0.00439830
v -0.00406278 -0.05549822 0.00432845
v -0.00406278 -0.05663337 0.00426273
v -0.00406278 -0.05777557 0.00419743
v -0.00406278 -0.06005997 0.00406806
v -0.00406278 -0.06118807 0.00400482
v -0.00406278 -0.06233027 0.00394241
v -0.00406278 -0.08059842 0.00297401
v -0.00406278 -0.08174767 0.00293268
v -0.00406278 -0.08288282 0.00289631
v -0.00406278 -0.08410258 0.00286035
v -0.00406278 -0.08524478 0.00282770
v -0.00406278 -0.08638697 0.00279546
v -0.00406278 -0.08752918 0.00276653
v -0.00406278 -0.08860087 0.00274421
v -0.00406278 -0.08973602 0.00272065
v -0.00406278 -0.09095578 0.00269874
v -0.00616483 -0.09209093 0.00236478
v -0.00625056 -0.09094872 0.00236478
v -0.00919372 -0.09124485 0.00236478
v -0.01111764 -0.05142297 0.00236520
v -0.01115164 -0.05028076 0.00236520
v -0.01117677 -0.04913856 0.00236520
v -0.01115903 -0.04870848 0.00279091
v -0.01113316 -0.04985068 0.00279091
v -0.01094247 -0.04528188 0.00393332
v -0.01128099 -0.03387398 0.00382792
v -0.01079169 -0.02586448 0.00502612
v -0.01080500 -0.02472228 0.00504679
v -0.01090921 -0.04642408 0.00393332
v -0.01087521 -0.04756628 0.00393332
v -0.01084047 -0.04870848 0.00393332
v -0.01039109 -0.04985068 0.00460124
v -0.01041548 -0.04870848 0.00462107
v -0.01066309 -0.03500913 0.00486452
v -0.01068082 -0.03386693 0.00488477
v -0.01077691 -0.02700668 0.00500628
v -0.00913533 -0.03566483 0.00564858
v -0.00937702 -0.03044033 0.00573827
v -0.00953372 -0.02700668 0.00579696
v -0.00958545 -0.02586448 0.00581597
v -0.01036227 -0.05099288 0.00457850
v -0.01028244 -0.05408105 0.00451361
v -0.00969928 -0.04985068 0.00493354
v -0.00969928 -0.04870848 0.00497487
v -0.00963645 -0.02472228 0.00583416
v -0.00924916 -0.02550490 0.00593914
v -0.00855661 -0.02473638 0.00619333
v -0.00828018 -0.02444025 0.00627351
v -0.00741541 -0.03044738 0.00631278
v -0.00453508 -0.03649681 0.00561138
v -0.00448925 -0.03729353 0.00555558
v -0.00442495 -0.03843573 0.00548284
v -0.00436139 -0.03957793 0.00542208
v -0.00429856 -0.04072013 0.00537000
v -0.00423352 -0.04186233 0.00532412
v -0.00406278 -0.05099993 0.00466778
v -0.00406278 -0.05266387 0.00452932
v -0.00406278 -0.05348880 0.00446277
v -0.00561049 -0.02444025 0.00608545
v -0.00406278 -0.09209798 0.00269544
v -0.00613452 -0.09323312 0.00236478
v -0.00915086 -0.09201337 0.00236478
v -0.01028688 -0.06552420 0.00339394
v -0.01061357 -0.06240783 0.00279091
v -0.01067343 -0.06126562 0.00279091
v -0.01071556 -0.06168866 0.00236520
v -0.01073552 -0.06126562 0.00236520
v -0.01076656 -0.06054646 0.00236520
v -0.01081165 -0.05941132 0.00236520
v -0.01107773 -0.05256516 0.00236520
v -0.01109769 -0.05099288 0.00279091
v -0.01079908 -0.04985068 0.00393332
v -0.00855661 -0.03500913 0.00584118
v -0.00855661 -0.03044738 0.00599948
v -0.00855661 -0.02702078 0.00611686
v -0.00866821 -0.04300453 0.00552417
v -0.01025509 -0.05484252 0.00449171
v -0.00980423 -0.05444768 0.00469588
v -0.00969928 -0.05213508 0.00483848
v -0.00969928 -0.05099288 0.00488725
v -0.01074661 -0.05099288 0.00393332
v -0.01044431 -0.06013047 0.00369442
v -0.01041696 -0.06126562 0.00364069
v -0.00855661 -0.05214213 0.00521005
v -0.00741541 -0.03158958 0.00627475
v -0.00741541 -0.02444025 0.00649216
v -0.00627348 -0.03729353 0.00631980
v -0.00453508 -0.03649681 0.00570148
v -0.00448925 -0.03729353 0.00578332
v -0.00442495 -0.03843573 0.00587218
v -0.00423352 -0.04186233 0.00599948
v -0.00406278 -0.04492230 0.00525179
v -0.00417217 -0.04300453 0.00528693
v -0.00627348 -0.02444025 0.00656862
v -0.00560088 -0.02473638 0.00609992
v -0.00429856 -0.04072013 0.00597468
v -0.00436139 -0.03957793 0.00593335
v -0.00406278 -0.09552457 0.00285952
v -0.00633704 -0.09562328 0.00236478
v -0.00614931 -0.09437532 0.00236478
v -0.00614709 -0.09424136 0.00236478
v -0.00908877 -0.09304276 0.00236478
v -0.01031348 -0.06469222 0.00344395
v -0.01034896 -0.06355003 0.00351215
v -0.01038444 -0.06240783 0.00357911
v -0.01072369 -0.06013047 0.00279091
v -0.01105408 -0.05213508 0.00279091
v -0.00847161 -0.03729353 0.00578456
v -0.00847013 -0.04421723 0.00553244
v -0.00833118 -0.03957793 0.00574033
v -0.00951820 -0.05784608 0.00465703
v -0.00958324 -0.05670388 0.00468349
v -0.00964606 -0.05556168 0.00471076
v -0.00912868 -0.08353853 0.00336335
v -0.00811166 -0.09551753 0.00345056
v -0.00816192 -0.09437532 0.00348487
v -0.00969928 -0.05327728 0.00478929
v -0.00914199 -0.06424804 0.00450948
v -0.00855661 -0.05328433 0.00516293
v -0.00741541 -0.09437532 0.00375848
v -0.00716559 -0.04757333 0.00572173
v -0.00725946 -0.04643113 0.00574529
v -0.00735185 -0.04528893 0.00576844
v -0.00741541 -0.04186233 0.00588747
v -0.00741541 -0.03615133 0.00610942
v -0.00809688 -0.04300453 0.00567462
v -0.00741541 -0.03386693 0.00619333
v -0.00627348 -0.03843573 0.00628178
v -0.00627348 -0.02587858 0.00658722
v -0.00627348 -0.02473638 0.00657688
v -0.00627348 -0.03044738 0.00651241
v -0.00627348 -0.02930518 0.00654010
v -0.00627348 -0.02816298 0.00656242
v -0.00627348 -0.02702078 0.00657936
v -0.00513154 -0.04414673 0.00626111
v -0.00513154 -0.04300453 0.00629500
v -0.00417217 -0.04300453 0.00600982
v -0.00406278 -0.04492230 0.00598584
v -0.00406278 -0.09630719 0.00310421
v -0.00673616 -0.09614503 0.00236478
v -0.00904590 -0.09369846 0.00236478
v -0.00741541 -0.03500913 0.00615241
v -0.00902668 -0.09397344 0.00236478
v -0.00879830 -0.09428367 0.00267890
v -0.00877169 -0.09323312 0.00282935
v -0.00741541 -0.09551753 0.00369483
v -0.00860539 -0.09551753 0.00279091
v -0.00804883 -0.09618733 0.00340758
v -0.00855661 -0.05442653 0.00511457
v -0.00627348 -0.09551753 0.00395936
v -0.00627348 -0.09437532 0.00401598
v -0.00706803 -0.04871553 0.00569735
v -0.00627348 -0.03957793 0.00623714
v -0.00406278 -0.05099993 0.00612637
v -0.00406278 -0.04985773 0.00612554
v -0.00406278 -0.04871553 0.00609868
v -0.00513154 -0.04528893 0.00621647
v -0.00406278 -0.05214213 0.00608711
v -0.00406278 -0.09637065 0.00312611
v -0.00738806 -0.09646936 0.00236478
v -0.00895942 -0.09444583 0.00236478
v -0.00880421 -0.09551753 0.00236478
v -0.00825800 -0.09638475 0.00279091
v -0.00741541 -0.09632834 0.00350843
v -0.00523576 -0.09552457 0.00408831
v -0.00513154 -0.09438238 0.00416064
v -0.00627348 -0.09646230 0.00364276
v -0.00513154 -0.04871553 0.00607884
v -0.00627348 -0.04186233 0.00614538
v -0.00513154 -0.04757333 0.00612513
v -0.00523576 -0.04539469 0.00619333
v -0.00406278 -0.09219668 0.00437143
v -0.00513154 -0.09644821 0.00371137
v -0.00523576 -0.09645526 0.00303353
v -0.00406278 -0.09637065 0.00373906
v -0.00730528 -0.09646936 0.00268262
v -0.00838291 -0.09639179 0.00236478
v -0.00513154 -0.09552457 0.00410071
v -0.00406278 -0.09445993 0.00426149
v -0.00523576 -0.09645526 0.00370558
v -0.00406278 -0.09552457 0.00417676
v -0.00406278 -0.09558098 0.00415155
f 1 2 3
f 1 3 4
f 1 4 5
f 1 5 6
f 1 6 7
f 1 7 8
f 1 8 2
f 2 8 9
f 2 9 3
f 3 10 4
f 3 9 11
f 3 11 12
f 3 12 13
f 3 13 14
f 3 14 15
f 3 15 10
f 4 10 16
f 4 16 17
f 4 17 18
f 4 18 19
f 4 19 20
f 4 20 21
f 4 21 22
f 4 22 23
f 4 23 74
f 4 74 112
f 4 112 120
f 4 120 85
f 4 85 24
f 4 24 5
f 5 24 6
f 6 24 25
f 6 25 26
f 6 26 27
f 6 27 28
f 6 28 29
f 6 29 30
f 6 30 31
f 6 31 32
f 6 32 33
f 6 33 34
f 6 34 35
f 6 35 36
f 6 36 37
f 6 37 38
f 6 38 39
f 6 39 40
f 6 40 41
f 6 41 42
f 6 42 43
f 6 43 44
f 6 44 7
f 7 44 43
f 7 43 87
f 7 87 127
f 7 127 126
f 7 126 125
f 7 125 166
f 7 166 186
f 7 186 203
f 7 203 188
f 7 188 187
f 7 187 169
f 7 169 167
f 7 167 128
f 7 128 88
f 7 88 45
f 7 45 8
f 8 45 46
f 8 46 47
f 8 47 48
f 8 48 9
f 9 48 49
f 9 49 14
f 9 14 11
f 10 15 16
f 11 14 12
f 12 14 13
f 14 49 15
f 15 49 50
f 15 50 51
f 15 51 52
f 15 52 17
f 15 17 16
f 17 53 54
f 17 54 18
f 17 52 51
f 17 51 55
f 17 55 56
f 17 56 57
f 17 57 58
f 17 58 59
f 17 59 60
f 17 60 61
f 17 61 62
f 17 62 53
f 18 54 53
f 18 53 62
f 18 62 19
f 19 62 61
f 19 61 20
f 20 63 64
f 20 64 65
f 20 65 66
f 20 66 21
f 20 61 60
f 20 60 59
f 20 59 58
f 20 58 67
f 20 67 68
f 20 68 69
f 20 69 70
f 20 70 63
f 21 66 71
f 21 71 22
f 22 71 66
f 22 66 72
f 22 72 73
f 22 73 23
f 23 73 75
f 23 75 74
f 24 76 77
f 24 77 78
f 24 78 79
f 24 79 80
f 24 80 81
f 24 81 82
f 24 82 83
f 24 83 84
f 24 84 25
f 24 85 114
f 24 114 76
f 25 84 83
f 25 83 82
f 25 82 118
f 25 118 164
f 25 164 182
f 25 182 181
f 25 181 180
f 25 180 184
f 25 184 198
f 25 198 205
f 25 205 207
f 25 207 208
f 25 208 201
f 25 201 185
f 25 185 165
f 25 165 124
f 25 124 86
f 25 86 42
f 25 42 41
f 25 41 40
f 25 40 39
f 25 39 38
f 25 38 37
f 25 37 36
f 25 36 35
f 25 35 34
f 25 34 33
f 25 33 32
f 25 32 31
f 25 31 30
f 25 30 29
f 25 29 28
f 25 28 27
f 25 27 26
f 42 86 87
f 42 87 43
f 45 88 89
f 45 89 90
f 45 90 91
f 45 91 92
f 45 92 93
f 45 93 94
f 45 94 95
f 45 95 96
f 45 96 46
f 46 96 97
f 46 97 50
f 46 50 47
f 47 50 49
f 47 49 48
f 50 57 56
f 50 56 55
f 50 55 51
f 50 97 57
f 57 97 98
f 57 98 58
f 58 98 67
f 63 99 100
f 63 100 101
f 63 101 73
f 63 73 64
f 63 70 69
f 63 69 102
f 63 102 99
f 64 73 65
f 65 73 72
f 65 72 66
f 67 98 68
f 68 103 104
f 68 104 105
f 68 105 106
f 68 106 69
f 68 98 107
f 68 107 108
f 68 108 109
f 68 109 103
f 69 106 110
f 69 110 102
f 73 101 111
f 73 111 75
f 74 75 112
f 75 111 154
f 75 154 113
f 75 113 112
f 76 114 115
f 76 115 77
f 77 115 116
f 77 116 78
f 78 116 117
f 78 117 81
f 78 81 79
f 79 81 80
f 81 117 164
f 81 164 118
f 81 118 119
f 81 119 82
f 82 119 118
f 85 120 121
f 85 121 117
f 85 117 122
f 85 122 123
f 85 123 116
f 85 116 115
f 85 115 114
f 86 124 125
f 86 125 126
f 86 126 127
f 86 127 87
f 88 128 89
f 89 129 91
f 89 91 90
f 89 128 129
f 91 129 130
f 91 130 131
f 91 131 109
f 91 109 132
f 91 132 93
f 91 93 92
f 93 132 94
f 94 132 133
f 94 133 95
f 95 133 96
f 96 133 97
f 97 133 98
f 98 133 109
f 98 109 108
f 98 108 107
f 99 111 100
f 99 102 134
f 99 134 111
f 100 111 101
f 102 135 136
f 102 136 134
f 102 110 135
f 103 137 138
f 103 138 139
f 103 139 104
f 103 109 131
f 103 131 140
f 103 140 141
f 103 141 142
f 103 142 137
f 104 139 143
f 104 143 105
f 105 143 139
f 105 139 106
f 106 139 137
f 106 137 144
f 106 144 145
f 106 145 110
f 109 133 132
f 110 145 146
f 110 146 147
f 110 147 148
f 110 148 149
f 110 149 150
f 110 150 151
f 110 151 152
f 110 152 135
f 111 134 153
f 111 153 154
f 112 155 156
f 112 156 120
f 112 113 157
f 112 157 158
f 112 158 159
f 112 159 160
f 112 160 155
f 113 154 161
f 113 161 162
f 113 162 157
f 116 123 117
f 117 163 164
f 117 123 122
f 117 121 120
f 117 120 163
f 120 156 163
f 124 165 166
f 124 166 125
f 128 167 130
f 128 130 129
f 130 167 140
f 130 140 131
f 134 136 168
f 134 168 153
f 135 152 151
f 135 151 168
f 135 168 136
f 137 139 138
f 137 142 144
f 140 167 169
f 140 169 170
f 140 170 171
f 140 171 141
f 141 172 146
f 141 146 142
f 141 171 170
f 141 170 173
f 141 173 174
f 141 174 172
f 142 146 144
f 144 175 145
f 144 146 175
f 145 175 146
f 146 172 176
f 146 176 177
f 146 177 178
f 146 178 147
f 147 178 179
f 147 179 148
f 148 179 154
f 148 154 150
f 148 150 149
f 150 154 151
f 151 154 168
f 153 168 154
f 154 179 183
f 154 183 161
f 155 160 180
f 155 180 181
f 155 181 156
f 156 181 182
f 156 182 163
f 157 162 158
f 158 162 159
f 159 162 160
f 160 162 180
f 161 183 184
f 161 184 180
f 161 180 162
f 163 182 164
f 165 185 166
f 166 185 186
f 169 187 173
f 169 173 170
f 172 174 176
f 173 187 188
f 173 188 189
f 173 189 174
f 174 189 190
f 174 190 176
f 176 191 192
f 176 192 177
f 176 190 193
f 176 193 191
f 177 192 184
f 177 184 194
f 177 194 195
f 177 195 178
f 178 195 179
f 179 195 196
f 179 196 197
f 179 197 183
f 183 197 196
f 183 196 184
f 184 192 198
f 184 196 194
f 185 199 200
f 185 200 186
f 185 201 199
f 186 200 202
f 186 202 203
f 188 203 189
f 189 203 202
f 189 202 193
f 189 193 190
f 191 204 192
f 191 193 204
f 192 204 205
f 192 205 198
f 193 202 206
f 193 206 207
f 193 207 204
f 194 196 195
f 199 206 200
f 199 201 208
f 199 208 206
f 200 206 202
f 204 207 205
f 206 208 207

