# https://github.com/mikedh/trimesh
v -0.00406278 -0.09638361 0.00312583
v -0.00406278 -0.09638361 0.00373798
v -0.00406278 -0.09632300 0.00310354
v 0.00054089 -0.09439350 0.00250370
v 0.00054089 -0.09550810 0.00295217
v 0.00054089 -0.09558554 0.00298477
v -0.00398798 -0.09637687 0.00313149
v -0.00406278 -0.09559565 0.00415118
v -0.00398798 -0.09637687 0.00373998
v 0.00054089 -0.09523871 0.00467683
v -0.00056181 -0.09529259 0.00462493
v -0.00170417 -0.09527239 0.00456372
v -0.00282309 -0.09552494 0.00432185
v -0.00406278 -0.09553504 0.00285868
v -0.00056181 -0.09439350 0.00253697
v -0.00056181 -0.09325197 0.00251502
v 0.00054089 -0.09435309 0.00250304
v 0.00054089 -0.09581116 0.00385642
v -0.00206648 -0.09617146 0.00330848
v -0.00284607 -0.09626912 0.00322997
v -0.00406278 -0.09553504 0.00417647
v -0.00284607 -0.09626912 0.00375295
v 0.00054089 -0.09442381 0.00487179
v 0.00054089 -0.09439350 0.00487678
v -0.00242698 -0.09513432 0.00452313
v -0.00406278 -0.09210707 0.00269533
v -0.00170417 -0.09325197 0.00255560
v 0.00054089 -0.09325197 0.00249738
v -0.00170417 -0.09210707 0.00255361
v -0.00056181 -0.09210707 0.00252999
v -0.00206648 -0.09617146 0.00362187
v -0.00406278 -0.09446758 0.00426030
v 0.00054089 -0.09328901 0.00491537
v -0.00170417 -0.06241375 0.00588383
v -0.00056181 -0.09439350 0.00476666
v -0.00170417 -0.09439350 0.00464090
v -0.00256488 -0.09439350 0.00454043
v -0.00406278 -0.09096554 0.00269799
v -0.00284607 -0.09096554 0.00260151
v -0.00284607 -0.09210707 0.00260285
v 0.00054089 -0.09210707 0.00251535
v -0.00170417 -0.09096554 0.00257024
v -0.00170417 -0.08868247 0.00260883
v -0.00056181 -0.08868247 0.00258987
v 0.00054089 -0.08864207 0.00257490
v -0.00406278 -0.09439350 0.00426430
v 0.00054089 -0.07040785 0.00571116
v -0.00056181 -0.06698325 0.00577870
v -0.00056181 -0.06583835 0.00581696
v -0.00170417 -0.06198610 0.00589581
v -0.00290736 -0.06198610 0.00575907
v -0.00343325 -0.09160533 0.00450583
v -0.00406278 -0.09220809 0.00437042
v -0.00356078 -0.06198610 0.00566791
v -0.00406278 -0.08974992 0.00272062
v -0.00284607 -0.08982400 0.00262148
v -0.00170417 -0.08753757 0.00263046
v -0.00056181 -0.08753757 0.00261150
v 0.00054089 -0.08753757 0.00259519
v 0.00054089 -0.06926631 0.00573212
v -0.00056181 -0.06469681 0.00582028
v -0.00082949 -0.06198610 0.00579633
v -0.00406278 -0.06198610 0.00556478
v -0.00406278 -0.08868247 0.00274224
v -0.00284607 -0.08868247 0.00264377
v -0.00284607 -0.08753757 0.00266705
v -0.00284607 -0.08639604 0.00269367
v -0.00170417 -0.08639604 0.00265907
v -0.00056181 -0.08639604 0.00263911
v 0.00054089 -0.08639604 0.00262214
v 0.00054089 -0.06784193 0.00572048
v 0.00020291 -0.06583835 0.00574976
v 0.00054089 -0.06245416 0.00492468
v -0.00066366 -0.06198610 0.00507905
v 0.00013892 -0.06469681 0.00572514
v 0.00007854 -0.06391222 0.00568422
v 0.00054089 -0.06350814 0.00536084
v 0.00054089 -0.06248110 0.00493633
v -0.00406278 -0.06198610 0.00396155
v -0.00406278 -0.08753757 0.00276653
v -0.00406278 -0.08639604 0.00279547
v -0.00284607 -0.08525451 0.00272428
v -0.00170417 -0.08411297 0.00272328
v -0.00056181 -0.08068501 0.00279115
v 0.00054089 -0.08068501 0.00276986
v 0.00054089 -0.08635563 0.00262314
v 0.00054089 -0.06698325 0.00565860
v 0.00054089 -0.06245416 0.00420907
v -0.00080606 -0.06198610 0.00486646
v 0.00054089 -0.06469681 0.00548493
v -0.00406278 -0.06233967 0.00394225
v -0.00403800 -0.06198610 0.00396587
v 0.00054089 -0.06352498 0.00397585
v 0.00054089 -0.06355528 0.00396953
v 0.00054089 -0.06465641 0.00378722
v 0.00054089 -0.06469681 0.00378057
v 0.00054089 -0.06583835 0.00363784
v 0.00054089 -0.06698325 0.00350909
v 0.00054089 -0.06808100 0.00340097
v 0.00054089 -0.06921244 0.00331048
v 0.00054089 -0.07040448 0.00321965
v -0.00056181 -0.07154938 0.00320535
v -0.00170417 -0.07611888 0.00303068
v -0.00406278 -0.08632196 0.00279747
v -0.00406278 -0.08525451 0.00282708
v -0.00284607 -0.08411297 0.00275688
v -0.00170417 -0.08068501 0.00281976
v -0.00056181 -0.07954348 0.00283040
v 0.00054089 -0.07954348 0.00280878
v 0.00054089 -0.08064460 0.00277119
v -0.00327417 -0.06198610 0.00410194
v -0.00284607 -0.06198610 0.00417979
v -0.00204394 -0.06198610 0.00433150
v -0.00170236 -0.06198610 0.00439904
v -0.00115034 -0.06198610 0.00452945
v -0.00284607 -0.08068501 0.00286866
v -0.00406278 -0.08061092 0.00297346
v 0.00054089 -0.07154938 0.00315045
v -0.00170417 -0.07726378 0.00297213
v -0.00406278 -0.08411297 0.00286001
v -0.00284607 -0.08297144 0.00279081
v -0.00284607 -0.08182654 0.00282741
v -0.00170417 -0.07954348 0.00286201
v -0.00056181 -0.07840531 0.00287964
v 0.00054089 -0.07950307 0.00281044
v -0.00170417 -0.07840531 0.00291557
v -0.00406278 -0.08068501 0.00297080
v -0.00406278 -0.08297144 0.00289395
v -0.00406278 -0.08289736 0.00289628
v -0.00406278 -0.08175246 0.00293254
f 1 2 8
f 1 8 21
f 1 21 32
f 1 32 46
f 1 46 53
f 1 53 63
f 1 63 79
f 1 79 91
f 1 91 117
f 1 117 127
f 1 127 130
f 1 130 129
f 1 129 128
f 1 128 120
f 1 120 105
f 1 105 104
f 1 104 81
f 1 81 80
f 1 80 64
f 1 64 55
f 1 55 38
f 1 38 26
f 1 26 14
f 1 14 3
f 1 3 4
f 1 4 5
f 1 5 6
f 1 6 7
f 1 7 9
f 1 9 2
f 2 9 10
f 2 10 11
f 2 11 12
f 2 12 13
f 2 13 8
f 3 14 4
f 4 14 15
f 4 15 16
f 4 16 17
f 4 17 28
f 4 28 41
f 4 41 45
f 4 45 59
f 4 59 70
f 4 70 86
f 4 86 85
f 4 85 110
f 4 110 109
f 4 109 125
f 4 125 118
f 4 118 101
f 4 101 100
f 4 100 99
f 4 99 98
f 4 98 97
f 4 97 96
f 4 96 95
f 4 95 94
f 4 94 93
f 4 93 88
f 4 88 73
f 4 73 78
f 4 78 77
f 4 77 90
f 4 90 87
f 4 87 71
f 4 71 60
f 4 60 47
f 4 47 33
f 4 33 24
f 4 24 23
f 4 23 10
f 4 10 18
f 4 18 6
f 4 6 5
f 6 18 19
f 6 19 20
f 6 20 7
f 7 20 22
f 7 22 9
f 8 13 12
f 8 12 21
f 9 22 10
f 10 23 11
f 10 22 18
f 11 23 12
f 12 23 24
f 12 24 25
f 12 25 21
f 14 26 27
f 14 27 15
f 15 27 16
f 16 28 17
f 16 27 29
f 16 29 30
f 16 30 28
f 18 22 31
f 18 31 19
f 19 31 22
f 19 22 20
f 21 25 32
f 24 33 34
f 24 34 35
f 24 35 25
f 25 35 36
f 25 36 37
f 25 37 32
f 26 38 39
f 26 39 40
f 26 40 27
f 27 40 29
f 28 30 41
f 29 40 39
f 29 39 42
f 29 42 30
f 30 42 43
f 30 43 44
f 30 44 45
f 30 45 41
f 32 37 46
f 33 47 48
f 33 48 34
f 34 48 47
f 34 47 49
f 34 49 50
f 34 50 51
f 34 51 37
f 34 37 36
f 34 36 35
f 37 52 53
f 37 53 46
f 37 51 54
f 37 54 52
f 38 55 56
f 38 56 39
f 39 56 43
f 39 43 42
f 43 56 57
f 43 57 58
f 43 58 44
f 44 58 59
f 44 59 45
f 47 60 49
f 49 61 50
f 49 60 61
f 50 62 74
f 50 74 89
f 50 89 115
f 50 115 114
f 50 114 113
f 50 113 112
f 50 112 111
f 50 111 92
f 50 92 79
f 50 79 63
f 50 63 54
f 50 54 51
f 50 61 62
f 52 54 53
f 53 54 63
f 55 64 65
f 55 65 56
f 56 65 57
f 57 65 66
f 57 66 67
f 57 67 68
f 57 68 69
f 57 69 58
f 58 69 70
f 58 70 59
f 60 71 72
f 60 72 61
f 61 72 62
f 62 73 74
f 62 72 75
f 62 75 76
f 62 76 77
f 62 77 78
f 62 78 73
f 64 80 66
f 64 66 65
f 66 80 67
f 67 81 82
f 67 82 68
f 67 80 81
f 68 82 83
f 68 83 84
f 68 84 85
f 68 85 69
f 69 86 70
f 69 85 86
f 71 87 75
f 71 75 72
f 73 88 74
f 74 88 89
f 75 90 76
f 75 87 90
f 76 90 77
f 79 92 88
f 79 88 93
f 79 93 94
f 79 94 95
f 79 95 96
f 79 96 97
f 79 97 98
f 79 98 99
f 79 99 100
f 79 100 101
f 79 101 102
f 79 102 103
f 79 103 91
f 81 104 82
f 82 104 105
f 82 105 106
f 82 106 107
f 82 107 83
f 83 107 84
f 84 107 108
f 84 108 109
f 84 109 110
f 84 110 85
f 88 92 111
f 88 111 112
f 88 112 113
f 88 113 114
f 88 114 115
f 88 115 89
f 91 103 116
f 91 116 117
f 101 118 102
f 102 118 119
f 102 119 103
f 103 119 116
f 105 120 106
f 106 120 128
f 106 128 121
f 106 121 107
f 107 122 116
f 107 116 123
f 107 123 108
f 107 121 122
f 108 123 124
f 108 124 118
f 108 118 125
f 108 125 109
f 116 126 123
f 116 122 117
f 116 119 126
f 117 122 127
f 118 124 123
f 118 123 126
f 118 126 119
f 121 128 129
f 121 129 130
f 121 130 122
f 122 130 127

