# https://github.com/mikedh/trimesh
v -0.00268775 -0.09622867 -0.00822961
v 0.00054089 -0.09528097 -0.00853662
v -0.00206737 -0.09616969 -0.00816367
v -0.00268775 -0.09622867 -0.00789856
v -0.00268775 -0.09554211 -0.00857635
v 0.00054089 -0.09432906 -0.00909658
v 0.00054089 -0.09540733 -0.00752507
v -0.00206737 -0.09616969 -0.00797828
v -0.00268775 -0.09614443 -0.00783370
v 0.00054089 -0.09510407 -0.00688188
v 0.00054089 -0.09509143 -0.00686107
v -0.00268775 -0.09439224 -0.00878660
v -0.00056177 -0.09439224 -0.00898848
v 0.00054089 -0.09328450 -0.00914955
v 0.00054089 -0.09540733 -0.00748994
v -0.00268775 -0.09538205 -0.00745021
v -0.00056177 -0.09500719 -0.00689188
v -0.00113379 -0.09496507 -0.00691836
v 0.00054089 -0.09439224 -0.00677269
v -0.00056177 -0.09439224 -0.00681242
v -0.00268775 -0.09325079 -0.00878741
v -0.00268775 -0.05914645 -0.00857824
v 0.00054089 -0.09325079 -0.00914928
v -0.00231609 -0.09384468 -0.00690755
v -0.00268775 -0.09422376 -0.00711862
v -0.00159015 -0.09429116 -0.00688242
v 0.00054089 -0.09325079 -0.00672243
v -0.00056177 -0.09325079 -0.00673891
v -0.00170361 -0.09325079 -0.00678459
v -0.00268775 -0.05800079 -0.00856473
v -0.00170361 -0.06241494 -0.00868472
v -0.00170361 -0.06355639 -0.00869634
v -0.00056177 -0.06583928 -0.00877822
v 0.00054089 -0.07037136 -0.00887578
v -0.00268775 -0.09325922 -0.00688107
v 0.00054089 -0.09210935 -0.00668649
v -0.00056177 -0.09210935 -0.00670081
v -0.00170361 -0.09210935 -0.00672189
v -0.00268775 -0.09315392 -0.00687026
v -0.00268775 -0.09210935 -0.00677297
v -0.00170361 -0.06126929 -0.00866904
v -0.00268775 -0.05685093 -0.00854040
v -0.00056177 -0.06469783 -0.00873769
v 0.00054089 -0.06922570 -0.00883444
v 0.00054089 -0.09100582 -0.00665568
v -0.00056177 -0.09096370 -0.00666919
v -0.00170361 -0.09096370 -0.00668892
v -0.00268775 -0.09096370 -0.00671405
v -0.00268775 -0.05574739 -0.00851446
v -0.00268775 -0.05555785 -0.00850500
v -0.00268775 -0.05462700 -0.00844717
v 0.00054089 -0.06808426 -0.00875120
v 0.00054089 -0.08986437 -0.00662568
v 0.00054089 -0.08871871 -0.00659649
v -0.00056177 -0.08982225 -0.00664027
v -0.00170361 -0.08868081 -0.00663108
v -0.00268775 -0.08868081 -0.00665595
v -0.00268775 -0.05441640 -0.00842744
v -0.00209676 -0.05441640 -0.00824664
v 0.00054089 -0.06355639 -0.00830285
v 0.00054089 -0.08757727 -0.00656920
v -0.00056177 -0.08868081 -0.00661217
v -0.00170361 -0.08753936 -0.00660379
v -0.00268775 -0.08753936 -0.00662865
v -0.00268775 -0.05327074 -0.00829529
v -0.00219631 -0.05348556 -0.00815124
v 0.00054089 -0.06244442 -0.00816881
v 0.00054089 -0.08753936 -0.00656839
v -0.00056177 -0.08753936 -0.00658514
v -0.00056177 -0.08639791 -0.00656163
v -0.00170361 -0.08639791 -0.00658109
v -0.00268775 -0.08737930 -0.00662541
v -0.00268775 -0.05320336 -0.00828556
v -0.00219631 -0.05348556 -0.00791802
v 0.00054089 -0.06206535 -0.00746589
v 0.00054089 -0.08639791 -0.00654487
v 0.00054089 -0.08068648 -0.00643083
v -0.00056177 -0.08068648 -0.00645191
v -0.00170361 -0.08068648 -0.00648001
v -0.00268775 -0.08639791 -0.00660649
v -0.00268775 -0.05320336 -0.00761750
v 0.00054089 -0.06265502 -0.00685269
v 0.00054089 -0.06208640 -0.00725347
v 0.00054089 -0.07954504 -0.00641542
v -0.00056177 -0.07954504 -0.00643677
v -0.00268775 -0.08068648 -0.00652001
v -0.00268775 -0.08166787 -0.00653109
v -0.00268775 -0.08280932 -0.00654785
v -0.00268775 -0.08395497 -0.00656649
v -0.00268775 -0.08623786 -0.00660379
v -0.00170361 -0.07954504 -0.00646785
v -0.00268775 -0.05441640 -0.00737670
v 0.00054089 -0.06337106 -0.00675999
v 0.00054089 -0.07844150 -0.00641056
v -0.00056177 -0.07839938 -0.00643164
v -0.00268775 -0.08052643 -0.00651839
v 0.00054089 -0.07159283 -0.00638867
v -0.00170361 -0.07839938 -0.00646677
v -0.00268775 -0.05555785 -0.00725969
v 0.00054089 -0.06469783 -0.00662595
v -0.00170361 -0.07725794 -0.00647056
v -0.00268775 -0.07938498 -0.00652352
v 0.00054089 -0.07155071 -0.00638894
v -0.00056177 -0.07155071 -0.00644245
v -0.00268775 -0.05670351 -0.00720537
v 0.00054089 -0.06588139 -0.00654866
v 0.00054089 -0.06583928 -0.00655109
v -0.00170361 -0.07611649 -0.00647650
v -0.00170361 -0.07497505 -0.00649109
v -0.00170361 -0.07383781 -0.00651947
v -0.00268775 -0.07383781 -0.00667216
v 0.00054089 -0.07044717 -0.00640056
v -0.00056177 -0.07040927 -0.00646218
v -0.00268775 -0.05898640 -0.00711591
v 0.00054089 -0.06702284 -0.00650353
v -0.00268775 -0.06012784 -0.00707943
v 0.00054089 -0.07040927 -0.00640137
v 0.00054089 -0.06930573 -0.00643137
v 0.00054089 -0.06816428 -0.00646677
f 1 2 3
f 1 3 8
f 1 8 4
f 1 4 9
f 1 9 16
f 1 16 25
f 1 25 35
f 1 35 39
f 1 39 40
f 1 40 48
f 1 48 57
f 1 57 64
f 1 64 72
f 1 72 80
f 1 80 90
f 1 90 89
f 1 89 88
f 1 88 87
f 1 87 86
f 1 86 96
f 1 96 102
f 1 102 111
f 1 111 116
f 1 116 114
f 1 114 105
f 1 105 99
f 1 99 92
f 1 92 81
f 1 81 73
f 1 73 65
f 1 65 58
f 1 58 51
f 1 51 50
f 1 50 49
f 1 49 42
f 1 42 30
f 1 30 22
f 1 22 21
f 1 21 12
f 1 12 5
f 1 5 6
f 1 6 2
f 2 7 3
f 2 6 14
f 2 14 23
f 2 23 34
f 2 34 44
f 2 44 52
f 2 52 60
f 2 60 67
f 2 67 75
f 2 75 83
f 2 83 82
f 2 82 93
f 2 93 100
f 2 100 107
f 2 107 106
f 2 106 115
f 2 115 119
f 2 119 118
f 2 118 117
f 2 117 112
f 2 112 103
f 2 103 97
f 2 97 94
f 2 94 84
f 2 84 77
f 2 77 76
f 2 76 68
f 2 68 61
f 2 61 54
f 2 54 53
f 2 53 45
f 2 45 36
f 2 36 27
f 2 27 19
f 2 19 11
f 2 11 10
f 2 10 15
f 2 15 7
f 3 7 15
f 3 15 8
f 4 8 10
f 4 10 11
f 4 11 9
f 5 12 13
f 5 13 6
f 6 13 12
f 6 12 14
f 8 15 10
f 9 11 17
f 9 17 18
f 9 18 16
f 11 19 20
f 11 20 17
f 12 21 14
f 14 21 22
f 14 22 23
f 16 18 24
f 16 24 25
f 17 20 18
f 18 20 26
f 18 26 24
f 19 27 28
f 19 28 20
f 20 28 29
f 20 29 26
f 22 30 31
f 22 31 32
f 22 32 23
f 23 32 31
f 23 31 33
f 23 33 34
f 24 35 25
f 24 26 35
f 26 29 35
f 27 36 37
f 27 37 28
f 28 37 38
f 28 38 29
f 29 39 35
f 29 38 40
f 29 40 39
f 30 41 31
f 30 42 41
f 31 41 33
f 33 41 43
f 33 43 34
f 34 43 44
f 36 45 37
f 37 45 46
f 37 46 47
f 37 47 38
f 38 47 48
f 38 48 40
f 41 42 49
f 41 49 43
f 43 49 50
f 43 50 51
f 43 51 52
f 43 52 44
f 45 53 46
f 46 53 54
f 46 54 55
f 46 55 56
f 46 56 47
f 47 56 57
f 47 57 48
f 51 58 52
f 52 58 59
f 52 59 60
f 54 61 62
f 54 62 55
f 55 62 56
f 56 62 63
f 56 63 64
f 56 64 57
f 58 65 59
f 59 65 66
f 59 66 67
f 59 67 60
f 61 68 69
f 61 69 62
f 62 69 63
f 63 69 70
f 63 70 71
f 63 71 72
f 63 72 64
f 65 73 66
f 66 73 81
f 66 81 74
f 66 74 75
f 66 75 67
f 68 76 70
f 68 70 69
f 70 76 77
f 70 77 71
f 71 77 78
f 71 78 79
f 71 79 80
f 71 80 72
f 74 81 82
f 74 82 83
f 74 83 75
f 77 84 78
f 78 84 85
f 78 85 79
f 79 86 87
f 79 87 88
f 79 88 89
f 79 89 90
f 79 90 80
f 79 85 91
f 79 91 86
f 81 92 82
f 82 92 93
f 84 94 95
f 84 95 85
f 85 95 91
f 86 91 96
f 91 95 97
f 91 97 98
f 91 98 96
f 92 99 93
f 93 99 100
f 94 97 95
f 96 98 101
f 96 101 102
f 97 103 104
f 97 104 101
f 97 101 98
f 99 105 106
f 99 106 107
f 99 107 100
f 101 108 102
f 101 104 108
f 102 108 109
f 102 109 110
f 102 110 111
f 103 112 104
f 104 112 113
f 104 113 109
f 104 109 108
f 105 114 113
f 105 113 106
f 106 113 115
f 109 113 110
f 110 113 116
f 110 116 111
f 112 117 113
f 113 117 118
f 113 118 119
f 113 119 115
f 113 114 116

