# https://github.com/mikedh/trimesh
v -0.00406278 -0.06198273 0.00396149
v -0.00406278 -0.06198273 0.00556497
v -0.00406278 -0.06119387 0.00400388
v -0.00327454 -0.06198273 0.00410186
v -0.00356069 -0.06198273 0.00566785
v -0.00406278 -0.06012591 0.00568021
v -0.00406278 -0.06005070 0.00406799
v -0.00284598 -0.06198273 0.00417982
v -0.00406278 -0.05890919 0.00413253
v -0.00337736 -0.06198273 0.00569363
v -0.00398825 -0.05441504 0.00598736
v -0.00398825 -0.05555654 0.00593006
v -0.00398825 -0.05669972 0.00587234
v -0.00398825 -0.05784122 0.00581419
v -0.00406278 -0.05794150 0.00579779
v -0.00406278 -0.05870697 0.00575859
v -0.00406278 -0.05922173 0.00573218
v -0.00284598 -0.06126741 0.00422135
v -0.00204443 -0.06198273 0.00433190
v -0.00406278 -0.05662451 0.00426204
v -0.00406278 -0.05548301 0.00432828
v -0.00290754 -0.06198273 0.00575923
v -0.00398825 -0.05327354 0.00604402
v -0.00406278 -0.05441504 0.00597564
v -0.00406278 -0.05564345 0.00591408
v -0.00406278 -0.05680334 0.00585551
v -0.00170205 -0.06198273 0.00439942
v -0.00338534 -0.05487967 0.00449613
v -0.00406278 -0.05433816 0.00439751
v -0.00170405 -0.06198273 0.00589598
v -0.00284598 -0.06126741 0.00580247
v -0.00398825 -0.05213203 0.00609918
v -0.00406278 -0.05213203 0.00608747
v -0.00406278 -0.05334875 0.00602847
v -0.00284598 -0.05898273 0.00591387
v -0.00284598 -0.05784122 0.00596925
v -0.00115038 -0.06198273 0.00452978
v -0.00406278 -0.05395543 0.00442477
v -0.00406278 -0.05347409 0.00446205
v -0.00406278 -0.05265348 0.00452957
v -0.00406278 -0.05098718 0.00466845
v -0.00406278 -0.04491030 0.00525229
v -0.00082930 -0.06198273 0.00579651
v -0.00170405 -0.06126741 0.00591600
v -0.00284598 -0.05669972 0.00601420
v -0.00398825 -0.05098886 0.00613731
v -0.00406278 -0.05098886 0.00612666
v -0.00080601 -0.06198273 0.00486675
v -0.00406278 -0.04491030 0.00598651
v -0.00337769 -0.04663509 0.00557967
v -0.00066393 -0.06198273 0.00507933
v -0.00106986 -0.05921003 0.00570939
v -0.00099733 -0.06012591 0.00576626
v -0.00091115 -0.06126741 0.00579928
v -0.00284598 -0.05555654 0.00603145
v -0.00170405 -0.06012591 0.00590982
v -0.00398825 -0.04984735 0.00613220
v -0.00406278 -0.04984735 0.00612560
v -0.00337769 -0.04663509 0.00570534
v -0.00406278 -0.04870417 0.00609961
v -0.00398825 -0.04870417 0.00610089
v -0.00106986 -0.05921003 0.00548744
f 1 2 6
f 1 6 17
f 1 17 16
f 1 16 15
f 1 15 26
f 1 26 25
f 1 25 24
f 1 24 34
f 1 34 33
f 1 33 47
f 1 47 58
f 1 58 60
f 1 60 49
f 1 49 42
f 1 42 41
f 1 41 40
f 1 40 39
f 1 39 38
f 1 38 29
f 1 29 21
f 1 21 20
f 1 20 9
f 1 9 7
f 1 7 3
f 1 3 4
f 1 4 8
f 1 8 19
f 1 19 27
f 1 27 37
f 1 37 48
f 1 48 51
f 1 51 43
f 1 43 30
f 1 30 22
f 1 22 10
f 1 10 5
f 1 5 2
f 2 5 6
f 3 7 4
f 4 7 9
f 4 9 8
f 5 10 11
f 5 11 12
f 5 12 13
f 5 13 14
f 5 14 15
f 5 15 16
f 5 16 17
f 5 17 6
f 8 18 19
f 8 9 20
f 8 20 21
f 8 21 18
f 10 22 11
f 11 23 24
f 11 24 25
f 11 25 12
f 11 22 23
f 12 25 13
f 13 25 26
f 13 26 15
f 13 15 14
f 18 21 19
f 19 21 28
f 19 28 27
f 21 29 28
f 22 30 31
f 22 31 23
f 23 32 33
f 23 33 34
f 23 34 24
f 23 31 35
f 23 35 36
f 23 36 32
f 27 28 37
f 28 29 38
f 28 38 39
f 28 39 40
f 28 40 41
f 28 41 42
f 28 42 37
f 30 43 44
f 30 44 45
f 30 45 36
f 30 36 35
f 30 35 31
f 32 46 47
f 32 47 33
f 32 36 45
f 32 45 46
f 37 42 48
f 42 49 59
f 42 59 50
f 42 50 48
f 43 51 52
f 43 52 53
f 43 53 54
f 43 54 55
f 43 55 56
f 43 56 44
f 44 56 55
f 44 55 46
f 44 46 45
f 46 55 57
f 46 57 58
f 46 58 47
f 48 50 51
f 49 60 61
f 49 61 54
f 49 54 53
f 49 53 52
f 49 52 59
f 50 62 51
f 50 59 52
f 50 52 62
f 51 62 52
f 54 61 57
f 54 57 55
f 57 61 60
f 57 60 58

