# https://github.com/mikedh/trimesh
v 0.00630043 -0.01674739 0.00621793
v 0.00630661 -0.01674739 0.00620041
v 0.00658910 -0.01674739 0.00684712
v 0.00658910 -0.01557567 0.00688116
v 0.00658469 -0.01443325 0.00689868
v 0.00658380 -0.01329082 0.00691820
v 0.00658380 -0.01214840 0.00693572
v 0.00658557 -0.00986355 0.00697126
v 0.00658910 -0.00872113 0.00698578
v 0.00659528 -0.00757870 0.00699829
v 0.00660587 -0.00643628 0.00700580
v 0.00662971 -0.00415143 0.00701381
v 0.00664295 -0.00300901 0.00701481
v 0.00665884 -0.00186658 0.00701080
v 0.00667826 -0.00072416 0.00700179
v 0.00669768 0.00041827 0.00699028
v 0.00671975 0.00156069 0.00697426
v 0.00674271 0.00270311 0.00695424
v 0.00676742 0.00384554 0.00692971
v 0.00679214 0.00498796 0.00690118
v 0.00681686 0.00613039 0.00686714
v 0.00681686 0.00613039 0.00671197
v 0.00679214 0.00498796 0.00667193
v 0.00676742 0.00384554 0.00663288
v 0.00674271 0.00270311 0.00659534
v 0.00671975 0.00156069 0.00656081
v 0.00669768 0.00041827 0.00652577
v 0.00645933 -0.01672786 0.00578495
v 0.00656791 -0.01674739 0.00549112
v 0.00659793 -0.01674739 0.00686214
v 0.00659705 -0.01671810 0.00686214
v 0.01028535 0.07400210 0.00907459
v 0.01027122 0.07465631 0.00908209
v 0.01025092 0.07579873 0.00909461
v 0.01023679 0.07694115 0.00910512
v 0.01022797 0.07808358 0.00911313
v 0.01022267 0.07921624 0.00911914
v 0.01022090 0.08036843 0.00912314
v 0.00661823 -0.00529386 0.00701080
v 0.01022355 0.08151085 0.00912414
v 0.01022708 0.08265328 0.00912264
v 0.01023150 0.08300479 0.00912064
v 0.00906092 0.05980479 0.00808599
v 0.00908740 0.06093745 0.00804895
v 0.00685835 0.00796608 0.00679957
v 0.00685835 0.00796608 0.00677905
v 0.00656880 -0.01670833 0.00549112
v 0.00945288 -0.01673763 0.00401048
v 0.00962679 -0.01674739 0.00401048
v 0.00715144 -0.01674739 0.00686214
v 0.00743570 -0.00757870 0.00708739
v 0.00743570 -0.00643628 0.00711542
v 0.01029859 0.07400210 0.00907459
v 0.01033037 0.07465631 0.00908209
v 0.01038510 0.07579873 0.00909461
v 0.01043631 0.07694115 0.00910512
v 0.01048574 0.07808358 0.00911313
v 0.01053871 0.07921624 0.00911914
v 0.01059168 0.08036843 0.00912314
v 0.01064023 0.08151085 0.00912414
v 0.01069585 0.08265328 0.00912264
v 0.01020943 0.08300479 0.00868916
v 0.00913507 0.06294890 0.00796236
v 0.00911388 0.06207011 0.00800290
v 0.01070026 0.08300479 0.00912064
v 0.00913507 0.06294890 0.00790980
v 0.00798921 0.02875429 0.00677154
v 0.00983866 -0.00729554 0.00401048
v 0.00953762 -0.01452113 0.00401048
v 0.01361347 0.08300479 0.00401048
v 0.01164396 -0.01674739 0.00401048
v 0.00855596 -0.01674739 0.00644468
v 0.00799892 -0.01266591 0.00678405
v 0.00804482 -0.01190429 0.00680007
v 0.00918274 0.03037517 0.00794033
v 0.01090065 0.07465631 0.00893043
v 0.01126613 0.08265328 0.00903354
v 0.01086005 0.06207011 0.00852748
v 0.01127054 0.08300479 0.00903654
v 0.01087417 0.08300479 0.00909861
v 0.01020590 0.08300479 0.00850095
v 0.01026416 0.08300479 0.00790830
v 0.01531903 0.08300479 0.00401048
v 0.01150360 -0.01674739 0.00465670
v 0.01509391 0.07579873 0.00401048
v 0.01506213 0.07579873 0.00507566
v 0.01486704 0.07157078 0.00569685
v 0.01486174 0.07627719 0.00679456
v 0.00857715 -0.01674739 0.00643817
v 0.00848622 -0.01222651 0.00665091
v 0.00866896 -0.01100597 0.00663939
v 0.00809779 -0.01100597 0.00681659
v 0.00829730 -0.00757870 0.00687766
v 0.00842795 -0.00529386 0.00691820
v 0.00915538 -0.00250126 0.00679056
v 0.01032419 0.04059840 0.00794233
v 0.01086005 0.05866237 0.00840885
v 0.01200238 0.07351388 0.00855601
v 0.01200238 0.07465631 0.00859255
v 0.01200238 0.08036843 0.00875173
v 0.01200238 0.08151085 0.00878076
v 0.01200238 0.08265328 0.00880829
v 0.01200238 0.08300479 0.00881130
v 0.01531196 0.08264351 0.00401048
v 0.01529431 0.08300479 0.00472678
v 0.01527577 0.08264351 0.00507566
v 0.01257443 0.01583611 0.00564779
v 0.01142945 -0.00583089 0.00564429
v 0.01106485 -0.01674739 0.00522733
v 0.01513540 0.07693139 0.00401048
v 0.01510362 0.07693139 0.00507566
v 0.01518131 0.07921624 0.00507566
v 0.01506390 0.07921624 0.00621793
v 0.01498445 0.07693139 0.00621793
v 0.01492707 0.07465631 0.00604774
v 0.01493236 0.07585731 0.00629101
v 0.01510098 0.08036843 0.00621793
v 0.01487410 0.07693139 0.00681759
v 0.01372470 0.05219840 0.00679757
v 0.00969211 -0.01674739 0.00609229
v 0.00971860 -0.01443325 0.00616887
v 0.01149124 0.05179806 0.00795335
v 0.01086005 0.05179806 0.00816608
v 0.01086005 0.05637752 0.00832826
v 0.01200238 0.07120950 0.00847492
v 0.01314559 0.07579873 0.00821063
v 0.01249586 0.07514453 0.00842837
v 0.01314559 0.07693139 0.00824817
v 0.01314559 0.07807381 0.00828321
v 0.01314559 0.07921624 0.00831725
v 0.01314559 0.08036843 0.00834878
v 0.01314559 0.08150109 0.00837131
v 0.01249498 0.08265328 0.00862759
v 0.01314559 0.08264351 0.00838833
v 0.01314559 0.08300479 0.00838833
v 0.01524752 0.08150109 0.00507566
v 0.01528018 0.08142297 0.00401048
v 0.01528106 0.08300479 0.00507566
v 0.01519808 0.08300479 0.00586854
v 0.01515571 0.08264351 0.00621793
v 0.01513011 0.08150109 0.00621793
v 0.01049545 -0.01674739 0.00576442
v 0.01105249 -0.01674739 0.00524084
v 0.01370705 0.07416809 0.00792582
v 0.01521132 0.07913812 0.00401048
v 0.01524840 0.08028055 0.00401048
v 0.01521750 0.08036843 0.00507566
v 0.01491471 0.07921624 0.00689317
v 0.01444594 0.08036843 0.00749834
v 0.01385271 0.05751018 0.00694223
v 0.01377061 0.05409267 0.00684962
v 0.01373441 0.07492971 0.00794133
v 0.00971860 -0.01674739 0.00608328
v 0.01258679 0.06250951 0.00793583
v 0.01200238 0.07007684 0.00843338
v 0.01310410 0.07350412 0.00814306
v 0.01325418 0.07459772 0.00812353
v 0.01376002 0.07579873 0.00795735
v 0.01379091 0.07693139 0.00797587
v 0.01387478 0.08036843 0.00802492
v 0.01381916 0.07807381 0.00799289
v 0.01384830 0.07921624 0.00800941
v 0.01389243 0.08150109 0.00803544
v 0.01390479 0.08264351 0.00804295
v 0.01390391 0.08300479 0.00804194
v 0.01525105 0.08036843 0.00401048
v 0.01515924 0.08300479 0.00621793
v 0.01496149 0.08264351 0.00697176
v 0.01494914 0.08150109 0.00695224
v 0.01493413 0.08036843 0.00692721
v 0.01141179 0.01946843 0.00677955
v 0.01446360 0.08150109 0.00752337
v 0.01379798 0.05523510 0.00688066
v 0.01447596 0.08264351 0.00754339
v 0.01447508 0.08300479 0.00754439
v 0.01407782 0.08300479 0.00789178
v 0.01502417 0.08300479 0.00674150
v 0.01496238 0.08300479 0.00697326
v 0.01462603 0.08300479 0.00737020
f 1 2 29
f 1 29 49
f 1 49 71
f 1 71 84
f 1 84 109
f 1 109 143
f 1 143 142
f 1 142 153
f 1 153 120
f 1 120 89
f 1 89 72
f 1 72 50
f 1 50 30
f 1 30 3
f 1 3 4
f 1 4 5
f 1 5 6
f 1 6 7
f 1 7 8
f 1 8 9
f 1 9 10
f 1 10 11
f 1 11 12
f 1 12 13
f 1 13 14
f 1 14 15
f 1 15 16
f 1 16 17
f 1 17 18
f 1 18 19
f 1 19 20
f 1 20 21
f 1 21 22
f 1 22 23
f 1 23 24
f 1 24 25
f 1 25 26
f 1 26 27
f 1 27 2
f 2 28 29
f 2 27 28
f 3 30 31
f 3 31 4
f 4 6 5
f 4 31 30
f 4 30 32
f 4 32 6
f 6 8 7
f 6 32 33
f 6 33 8
f 8 33 34
f 8 34 35
f 8 35 9
f 9 35 36
f 9 36 10
f 10 36 37
f 10 37 38
f 10 38 11
f 11 39 12
f 11 38 40
f 11 40 39
f 12 39 41
f 12 41 13
f 13 41 14
f 14 41 42
f 14 42 15
f 15 42 16
f 16 42 17
f 17 42 18
f 18 42 19
f 19 42 20
f 20 42 43
f 20 43 21
f 21 43 44
f 21 44 45
f 21 45 46
f 21 46 22
f 22 46 47
f 22 47 23
f 23 47 24
f 24 47 25
f 25 47 26
f 26 47 27
f 27 47 28
f 28 47 29
f 29 47 48
f 29 48 49
f 30 50 51
f 30 51 52
f 30 52 32
f 32 53 54
f 32 54 33
f 32 52 53
f 33 54 55
f 33 55 34
f 34 55 56
f 34 56 35
f 35 56 57
f 35 57 36
f 36 57 58
f 36 58 37
f 37 58 59
f 37 59 38
f 38 59 60
f 38 60 40
f 39 40 41
f 40 60 61
f 40 61 41
f 41 61 65
f 41 65 42
f 42 62 63
f 42 63 64
f 42 64 44
f 42 44 43
f 42 65 80
f 42 80 79
f 42 79 103
f 42 103 135
f 42 135 165
f 42 165 176
f 42 176 175
f 42 175 179
f 42 179 178
f 42 178 177
f 42 177 167
f 42 167 139
f 42 139 138
f 42 138 105
f 42 105 83
f 42 83 70
f 42 70 82
f 42 82 81
f 42 81 62
f 44 64 45
f 45 64 63
f 45 63 66
f 45 66 46
f 46 66 67
f 46 67 47
f 47 68 69
f 47 69 48
f 47 67 70
f 47 70 68
f 48 69 68
f 48 68 70
f 48 70 83
f 48 83 104
f 48 104 137
f 48 137 166
f 48 166 146
f 48 146 145
f 48 145 110
f 48 110 85
f 48 85 71
f 48 71 49
f 50 72 73
f 50 73 74
f 50 74 75
f 50 75 53
f 50 53 51
f 51 53 52
f 53 76 77
f 53 77 54
f 53 75 78
f 53 78 76
f 54 77 55
f 55 77 56
f 56 77 57
f 57 77 58
f 58 77 59
f 59 77 79
f 59 79 60
f 60 79 80
f 60 80 61
f 61 80 65
f 62 81 63
f 63 81 66
f 66 81 82
f 66 82 67
f 67 82 70
f 71 85 86
f 71 86 87
f 71 87 88
f 71 88 84
f 72 89 73
f 73 90 74
f 73 89 90
f 74 90 91
f 74 91 92
f 74 92 75
f 75 92 93
f 75 93 94
f 75 94 95
f 75 95 96
f 75 96 97
f 75 97 78
f 76 98 99
f 76 99 100
f 76 100 77
f 76 78 98
f 77 101 102
f 77 102 79
f 77 100 101
f 78 97 98
f 79 102 103
f 83 105 106
f 83 106 104
f 84 107 108
f 84 108 109
f 84 88 107
f 85 110 111
f 85 111 86
f 86 111 87
f 87 111 112
f 87 112 113
f 87 113 114
f 87 114 115
f 87 115 116
f 87 116 88
f 88 116 114
f 88 114 113
f 88 113 117
f 88 117 118
f 88 118 119
f 88 119 107
f 89 120 90
f 90 120 91
f 91 120 121
f 91 121 95
f 91 95 93
f 91 93 92
f 93 95 94
f 95 121 122
f 95 122 123
f 95 123 96
f 96 123 124
f 96 124 97
f 97 124 125
f 97 125 98
f 98 125 126
f 98 126 127
f 98 127 99
f 99 127 128
f 99 128 129
f 99 129 130
f 99 130 100
f 100 130 131
f 100 131 101
f 101 131 102
f 102 131 132
f 102 132 133
f 102 133 103
f 103 133 134
f 103 134 135
f 104 106 136
f 104 136 137
f 105 138 106
f 106 138 139
f 106 139 140
f 106 140 141
f 106 141 136
f 107 119 108
f 108 142 143
f 108 143 109
f 108 119 144
f 108 144 142
f 110 145 111
f 111 145 112
f 112 146 147
f 112 147 117
f 112 117 113
f 112 145 146
f 114 116 115
f 117 147 136
f 117 136 141
f 117 141 118
f 118 148 149
f 118 149 150
f 118 150 151
f 118 151 119
f 118 141 148
f 119 151 152
f 119 152 144
f 120 153 121
f 121 153 122
f 122 153 154
f 122 154 155
f 122 155 125
f 122 125 123
f 123 125 124
f 125 156 126
f 125 155 154
f 125 154 156
f 126 156 157
f 126 157 144
f 126 144 152
f 126 152 128
f 126 128 127
f 128 152 158
f 128 158 129
f 129 158 130
f 130 158 159
f 130 159 131
f 131 160 132
f 131 159 161
f 131 161 162
f 131 162 160
f 132 160 163
f 132 163 134
f 132 134 133
f 134 163 164
f 134 164 135
f 135 164 165
f 136 147 137
f 137 147 166
f 139 167 140
f 140 167 168
f 140 168 169
f 140 169 170
f 140 170 141
f 141 170 148
f 142 171 153
f 142 144 171
f 144 157 156
f 144 156 154
f 144 154 171
f 146 166 147
f 148 170 149
f 149 170 172
f 149 172 162
f 149 162 159
f 149 159 158
f 149 158 152
f 149 152 150
f 150 173 151
f 150 152 173
f 151 173 152
f 153 171 154
f 159 162 161
f 160 172 174
f 160 174 163
f 160 162 172
f 163 174 164
f 164 174 175
f 164 175 176
f 164 176 165
f 167 177 168
f 168 177 178
f 168 178 179
f 168 179 174
f 168 174 169
f 169 172 170
f 169 174 172
f 174 179 175

