# https://github.com/mikedh/trimesh
v 0.00786377 -0.11912797 -0.00336128
v 0.00774050 -0.11912797 -0.00410463
v 0.00765857 -0.11843074 -0.00370507
v 0.00656210 -0.11336100 -0.00340291
v 0.00771676 -0.11818346 -0.00284768
v 0.00771676 -0.11818346 -0.00276361
v 0.00780558 -0.11912797 -0.00224834
v 0.00763483 -0.11912797 -0.00437101
v 0.00642734 -0.11336100 -0.00404303
v 0.00648630 -0.11336100 -0.00377583
v 0.00654372 -0.11336100 -0.00350862
v 0.00653836 -0.11336100 -0.00228081
v 0.00777648 -0.11898062 -0.00226166
v 0.00775811 -0.11912797 -0.00204357
v 0.00649931 -0.11400741 -0.00422034
v 0.00745260 -0.11912797 -0.00474893
v 0.00601233 -0.11336100 -0.00468982
v 0.00638752 -0.11336100 -0.00173640
v 0.00761109 -0.11863398 -0.00190622
v 0.00737526 -0.11912797 -0.00113956
v 0.00647251 -0.11674666 -0.00542485
v 0.00634388 -0.11588965 -0.00526086
v 0.00691891 -0.11912797 -0.00559550
v 0.00588753 -0.11336100 -0.00484965
v 0.00633163 -0.11336100 -0.00162652
v 0.00645720 -0.11418073 -0.00145172
v 0.00669150 -0.11628485 -0.00108462
v 0.00635843 -0.11718758 -0.00029715
v 0.00725199 -0.11912797 -0.00096059
v 0.00658201 -0.11757148 -0.00555054
v 0.00532704 -0.11336100 -0.00554139
v 0.00678338 -0.11912797 -0.00577197
v 0.00674893 -0.11885811 -0.00573617
v 0.00584541 -0.11336100 -0.00090232
v 0.00623974 -0.11628485 -0.00044199
v 0.00533393 -0.11336100 -0.00030548
v 0.00520913 -0.11336100 -0.00016064
v 0.00645950 -0.11804515 -0.00018478
v 0.00658354 -0.11912797 -0.00006324
v 0.00609579 -0.11912797 -0.00641543
v 0.00513026 -0.11336100 -0.00567125
v 0.00558738 -0.11912797 -0.00675838
v 0.00452230 -0.11336100 0.00026223
v 0.00576502 -0.11912797 0.00054276
v 0.00636072 -0.11912797 0.00010241
v 0.00449321 -0.11336100 -0.00608829
v 0.00545261 -0.11912797 -0.00684329
v 0.00540284 -0.11885811 -0.00681416
v 0.00314176 -0.11336100 0.00088655
v 0.00449321 -0.11499878 0.00052861
v 0.00541969 -0.11912797 0.00070841
v 0.00419688 -0.11336100 -0.00624395
v 0.00449321 -0.11912797 -0.00707637
v 0.00293273 -0.11336100 -0.00675922
v 0.00340057 -0.11336100 -0.00662103
v 0.00357591 -0.11336100 -0.00655860
v 0.00280333 -0.11336100 0.00099310
v 0.00473669 -0.11912797 0.00101807
v 0.00004149 -0.11499878 -0.00712798
v 0.00063413 -0.11371215 -0.00715212
v 0.00063413 -0.11336100 -0.00713464
v 0.00156980 -0.11336100 -0.00702309
v 0.00192049 -0.11336100 -0.00697481
v 0.00270302 -0.11336100 -0.00681249
v 0.00382552 -0.11912797 -0.00695067
v 0.00231635 -0.11336100 0.00110963
v 0.00214330 -0.11336100 0.00114460
v 0.00200089 -0.11336100 0.00117290
v 0.00460576 -0.11912797 0.00103555
v 0.00004149 -0.11440656 -0.00713797
v 0.00004149 -0.11586820 -0.00686327
v 0.00004149 -0.11371215 -0.00714962
v 0.00004149 -0.11355069 -0.00714213
v 0.00004149 -0.11336100 -0.00713297
v 0.00028344 -0.11336100 -0.00713380
v 0.00363410 -0.11912797 -0.00688741
v 0.00063413 -0.11336100 0.00135187
v 0.00410959 -0.11912797 0.00109881
v 0.00004149 -0.11634130 -0.00601087
v 0.00004149 -0.11336100 0.00135020
v 0.00329796 -0.11912797 -0.00621731
v 0.00063413 -0.11371215 0.00135104
v 0.00381557 -0.11912797 0.00109382
v 0.00063413 -0.11499878 0.00132856
v 0.00004149 -0.11499878 0.00132690
v 0.00320302 -0.11912797 -0.00601087
v 0.00004149 -0.11675117 -0.00474143
v 0.00004149 -0.11371215 0.00134937
v 0.00004149 -0.11430437 0.00133938
v 0.00004149 -0.11536970 0.00126113
v 0.00004149 -0.11580440 0.00118205
v 0.00004149 -0.11602854 0.00083161
v 0.00004149 -0.11628598 0.00042122
v 0.00345034 -0.11912797 0.00042122
v 0.00288219 -0.11912797 -0.00500032
v 0.00279491 -0.11912797 -0.00466485
v 0.00004149 -0.11684433 -0.00368343
v 0.00004149 -0.11650559 -0.00015980
v 0.00004149 -0.11676134 -0.00084322
v 0.00287837 -0.11912797 -0.00093645
v 0.00268694 -0.11912797 -0.00343787
v 0.00004149 -0.11686465 -0.00343787
v 0.00281175 -0.11912797 -0.00125194
v 0.00004149 -0.11686860 -0.00215178
v 0.00269843 -0.11912797 -0.00214928
f 1 2 3
f 1 3 4
f 1 4 5
f 1 5 6
f 1 6 7
f 1 7 14
f 1 14 20
f 1 20 29
f 1 29 39
f 1 39 45
f 1 45 44
f 1 44 51
f 1 51 58
f 1 58 69
f 1 69 78
f 1 78 83
f 1 83 94
f 1 94 100
f 1 100 103
f 1 103 105
f 1 105 101
f 1 101 96
f 1 96 95
f 1 95 86
f 1 86 81
f 1 81 76
f 1 76 65
f 1 65 53
f 1 53 47
f 1 47 42
f 1 42 40
f 1 40 32
f 1 32 23
f 1 23 16
f 1 16 8
f 1 8 2
f 2 8 9
f 2 9 10
f 2 10 11
f 2 11 3
f 3 11 4
f 4 11 10
f 4 10 9
f 4 9 17
f 4 17 24
f 4 24 31
f 4 31 41
f 4 41 46
f 4 46 52
f 4 52 56
f 4 56 55
f 4 55 54
f 4 54 64
f 4 64 63
f 4 63 62
f 4 62 61
f 4 61 75
f 4 75 74
f 4 74 80
f 4 80 77
f 4 77 68
f 4 68 67
f 4 67 66
f 4 66 57
f 4 57 49
f 4 49 43
f 4 43 37
f 4 37 36
f 4 36 34
f 4 34 25
f 4 25 18
f 4 18 12
f 4 12 6
f 4 6 5
f 6 12 13
f 6 13 7
f 7 13 14
f 8 15 9
f 8 16 15
f 9 15 17
f 12 18 19
f 12 19 14
f 12 14 13
f 14 19 20
f 15 16 21
f 15 21 22
f 15 22 17
f 16 23 21
f 17 22 24
f 18 25 26
f 18 26 19
f 19 26 20
f 20 27 28
f 20 28 29
f 20 26 27
f 21 23 30
f 21 30 31
f 21 31 22
f 22 31 24
f 23 32 33
f 23 33 30
f 25 34 26
f 26 34 35
f 26 35 28
f 26 28 27
f 28 35 36
f 28 36 37
f 28 37 38
f 28 38 29
f 29 38 39
f 30 33 40
f 30 40 31
f 31 40 42
f 31 42 41
f 32 40 33
f 34 36 35
f 37 39 38
f 37 43 44
f 37 44 45
f 37 45 39
f 41 42 46
f 42 47 48
f 42 48 46
f 43 49 50
f 43 50 44
f 44 50 51
f 46 48 52
f 47 53 54
f 47 54 55
f 47 55 56
f 47 56 48
f 48 56 52
f 49 57 58
f 49 58 50
f 50 58 51
f 53 59 60
f 53 60 61
f 53 61 62
f 53 62 63
f 53 63 64
f 53 64 54
f 53 65 59
f 57 66 58
f 58 66 67
f 58 67 68
f 58 68 69
f 59 70 60
f 59 65 71
f 59 71 79
f 59 79 87
f 59 87 97
f 59 97 102
f 59 102 104
f 59 104 99
f 59 99 98
f 59 98 93
f 59 93 92
f 59 92 91
f 59 91 90
f 59 90 85
f 59 85 89
f 59 89 88
f 59 88 80
f 59 80 74
f 59 74 73
f 59 73 72
f 59 72 70
f 60 70 72
f 60 72 73
f 60 73 74
f 60 74 75
f 60 75 61
f 65 76 71
f 68 77 69
f 69 77 78
f 71 76 79
f 76 81 79
f 77 80 88
f 77 88 82
f 77 82 78
f 78 82 84
f 78 84 85
f 78 85 83
f 79 81 86
f 79 86 87
f 82 88 89
f 82 89 84
f 83 85 90
f 83 90 91
f 83 91 92
f 83 92 93
f 83 93 94
f 84 89 85
f 86 95 87
f 87 95 96
f 87 96 97
f 93 98 94
f 94 98 99
f 94 99 100
f 96 101 102
f 96 102 97
f 99 103 100
f 99 104 105
f 99 105 103
f 101 105 104
f 101 104 102

