# https://github.com/mikedh/trimesh
v 0.00054089 -0.09580743 0.00385676
v 0.00054089 -0.09558091 0.00298538
v 0.00104772 -0.09612767 0.00330140
v 0.00104772 -0.09612767 0.00341398
v 0.00172326 -0.09622139 0.00349287
v 0.00054089 -0.09522944 0.00467672
v 0.00172326 -0.09553405 0.00273053
v 0.00172326 -0.09622139 0.00316400
v 0.00054089 -0.09550281 0.00295258
v 0.00286571 -0.09630732 0.00355359
v 0.00058080 -0.09522944 0.00467849
v 0.00058080 -0.09438588 0.00488060
v 0.00054089 -0.09441712 0.00487129
v 0.00400741 -0.09634637 0.00356157
v 0.00659431 -0.09622139 0.00233429
v 0.00743929 -0.09650258 0.00233429
v 0.00054089 -0.09438588 0.00250404
v 0.00286571 -0.09630732 0.00303148
v 0.00743402 -0.09654945 0.00279081
v 0.00141524 -0.09512008 0.00463594
v 0.00176694 -0.09444055 0.00477777
v 0.00514911 -0.09637761 0.00355714
v 0.00629157 -0.09636199 0.00352833
v 0.00743402 -0.09627607 0.00345608
v 0.00054089 -0.09328456 0.00491517
v 0.00054089 -0.09438588 0.00487661
v 0.00172326 -0.09324551 0.00501844
v 0.00172326 -0.09210514 0.00506099
v 0.00058080 -0.09324551 0.00492049
v 0.00609727 -0.09562778 0.00233429
v 0.00823457 -0.09638542 0.00233429
v 0.00054089 -0.09434682 0.00250315
v 0.00823457 -0.09636980 0.00279081
v 0.00805232 -0.09616672 0.00339359
v 0.00286571 -0.09210514 0.00513102
v 0.00054089 -0.07039918 0.00571075
v 0.00286571 -0.09096479 0.00517933
v 0.00058080 -0.07039918 0.00571386
v 0.00604304 -0.09552624 0.00233429
v 0.00823457 -0.07096155 0.00233429
v 0.00054089 -0.09324551 0.00249784
v 0.00823457 -0.09633074 0.00287768
v 0.00823457 -0.09595583 0.00319325
v 0.00810654 -0.09552624 0.00342905
v 0.00400741 -0.08867624 0.00507074
v 0.00400741 -0.08753588 0.00514432
v 0.00054089 -0.06925881 0.00573203
v 0.00687899 -0.02084801 0.00679222
v 0.00286571 -0.08181844 0.00544083
v 0.00229863 -0.07558549 0.00564737
v 0.00227377 -0.07558549 0.00564737
v 0.00672385 -0.02016067 0.00680463
v 0.00664477 -0.01902030 0.00682457
v 0.00661314 -0.01787213 0.00684407
v 0.00058080 -0.06925881 0.00573380
v 0.00591954 -0.09438588 0.00233429
v 0.00767276 -0.07392181 0.00233429
v 0.00054089 -0.09206609 0.00251645
v 0.00054089 -0.08863719 0.00257496
v 0.00054089 -0.08753588 0.00259534
v 0.00054089 -0.08635647 0.00262327
v 0.00054089 -0.08068588 0.00276997
v 0.00054089 -0.07953771 0.00280898
v 0.00054089 -0.07153954 0.00315070
v 0.00823457 -0.06011247 0.00281917
v 0.00746339 -0.07525744 0.00233429
v 0.00732708 -0.07631970 0.00233429
v 0.00623960 -0.08769210 0.00233429
v 0.00614170 -0.08879340 0.00233429
v 0.00606488 -0.08990253 0.00233429
v 0.00599485 -0.09101165 0.00233429
v 0.00594213 -0.09209734 0.00233429
v 0.00594062 -0.09212858 0.00233429
v 0.00591954 -0.09323770 0.00233429
v 0.00823457 -0.09552624 0.00326328
v 0.00823457 -0.09529973 0.00329032
v 0.00823457 -0.09423747 0.00338073
v 0.00815700 -0.09438588 0.00346096
v 0.00823457 -0.04047633 0.00570366
v 0.00823457 -0.03957810 0.00574001
v 0.00823457 -0.03614920 0.00587696
v 0.00823457 -0.03386847 0.00596206
v 0.00743402 -0.03157993 0.00626079
v 0.00743402 -0.03043956 0.00630201
v 0.00054089 -0.06783726 0.00572006
v 0.00659657 -0.01676301 0.00686224
v 0.00692568 -0.02016067 0.00680463
v 0.00680895 -0.02084801 0.00679222
v 0.00286571 -0.08068588 0.00547274
v 0.00700174 -0.01902030 0.00682457
v 0.00707705 -0.01787213 0.00684407
v 0.00054089 -0.07039918 0.00321984
v 0.00823457 -0.01676301 0.00480968
v 0.00823457 -0.09316740 0.00344677
v 0.00819541 -0.09323770 0.00348533
v 0.00823457 -0.04282736 0.00560438
v 0.00823457 -0.03157993 0.00604406
v 0.00054089 -0.06697027 0.00565845
v 0.00714935 -0.01676301 0.00686224
v 0.00658829 -0.01676301 0.00684762
v 0.00054089 -0.06351013 0.00536061
v 0.00054089 -0.06469736 0.00548471
v 0.00749653 -0.02016067 0.00664905
v 0.00823457 -0.03043956 0.00608439
v 0.00054089 -0.07036012 0.00322250
v 0.00054089 -0.06921976 0.00330893
v 0.00054089 -0.06807159 0.00340157
v 0.00054089 -0.06805596 0.00340290
v 0.00745662 -0.01676301 0.00511595
v 0.00823457 -0.01676301 0.00653781
v 0.00823457 -0.09209734 0.00350484
v 0.00823306 -0.09209734 0.00350617
v 0.00823457 -0.02129322 0.00639996
v 0.00823457 -0.02016067 0.00643631
v 0.00629910 -0.01676301 0.00621691
v 0.00054089 -0.06244787 0.00492492
v 0.00823457 -0.02963506 0.00611231
v 0.00054089 -0.06697027 0.00350927
v 0.00656645 -0.01676301 0.00549003
v 0.00658754 -0.01676301 0.00548116
v 0.00571394 -0.02176967 0.00563895
v 0.00054089 -0.06244787 0.00421000
v 0.00054089 -0.06582991 0.00363825
v 0.00054089 -0.06469736 0.00378052
v 0.00054089 -0.06465049 0.00378717
v 0.00054089 -0.06354918 0.00396933
v 0.00054089 -0.06351794 0.00397598
f 1 2 3
f 1 3 4
f 1 4 5
f 1 5 6
f 1 6 13
f 1 13 26
f 1 26 25
f 1 25 36
f 1 36 47
f 1 47 85
f 1 85 98
f 1 98 102
f 1 102 101
f 1 101 116
f 1 116 122
f 1 122 127
f 1 127 126
f 1 126 125
f 1 125 124
f 1 124 123
f 1 123 118
f 1 118 108
f 1 108 107
f 1 107 106
f 1 106 105
f 1 105 92
f 1 92 64
f 1 64 63
f 1 63 62
f 1 62 61
f 1 61 60
f 1 60 59
f 1 59 58
f 1 58 41
f 1 41 32
f 1 32 17
f 1 17 9
f 1 9 2
f 2 7 8
f 2 8 3
f 2 9 7
f 3 8 5
f 3 5 4
f 5 8 18
f 5 18 10
f 5 10 6
f 6 11 12
f 6 12 13
f 6 10 14
f 6 14 11
f 7 15 16
f 7 16 8
f 7 9 17
f 7 17 15
f 8 16 18
f 10 18 19
f 10 19 14
f 11 20 21
f 11 21 12
f 11 14 22
f 11 22 23
f 11 23 24
f 11 24 20
f 12 25 26
f 12 26 13
f 12 21 27
f 12 27 28
f 12 28 29
f 12 29 25
f 14 19 22
f 15 30 39
f 15 39 56
f 15 56 74
f 15 74 73
f 15 73 72
f 15 72 71
f 15 71 70
f 15 70 69
f 15 69 68
f 15 68 67
f 15 67 66
f 15 66 57
f 15 57 40
f 15 40 31
f 15 31 16
f 15 17 30
f 16 31 19
f 16 19 18
f 17 32 30
f 19 23 22
f 19 31 33
f 19 33 34
f 19 34 24
f 19 24 23
f 20 24 21
f 21 24 34
f 21 34 35
f 21 35 27
f 25 29 36
f 27 35 37
f 27 37 28
f 28 37 38
f 28 38 36
f 28 36 29
f 30 32 39
f 31 40 65
f 31 65 93
f 31 93 110
f 31 110 114
f 31 114 113
f 31 113 117
f 31 117 104
f 31 104 97
f 31 97 82
f 31 82 81
f 31 81 80
f 31 80 79
f 31 79 96
f 31 96 111
f 31 111 94
f 31 94 77
f 31 77 76
f 31 76 75
f 31 75 43
f 31 43 42
f 31 42 33
f 32 41 39
f 33 42 34
f 34 42 43
f 34 43 44
f 34 44 35
f 35 45 46
f 35 46 37
f 35 44 45
f 36 38 47
f 37 46 48
f 37 48 49
f 37 49 50
f 37 50 51
f 37 51 38
f 38 51 52
f 38 52 53
f 38 53 54
f 38 54 55
f 38 55 47
f 39 41 56
f 40 57 41
f 40 41 58
f 40 58 59
f 40 59 60
f 40 60 61
f 40 61 62
f 40 62 63
f 40 63 64
f 40 64 65
f 41 57 66
f 41 66 67
f 41 67 68
f 41 68 69
f 41 69 70
f 41 70 71
f 41 71 72
f 41 72 73
f 41 73 74
f 41 74 56
f 43 75 44
f 44 75 76
f 44 76 77
f 44 77 78
f 44 78 46
f 44 46 45
f 46 78 79
f 46 79 80
f 46 80 81
f 46 81 82
f 46 82 83
f 46 83 84
f 46 84 48
f 47 55 86
f 47 86 85
f 48 84 87
f 48 87 52
f 48 52 88
f 48 88 51
f 48 51 50
f 48 50 89
f 48 89 49
f 49 89 50
f 51 88 52
f 52 87 90
f 52 90 53
f 53 90 91
f 53 91 54
f 54 91 99
f 54 99 86
f 54 86 55
f 64 92 93
f 64 93 65
f 77 94 78
f 78 94 95
f 78 95 96
f 78 96 79
f 82 97 84
f 82 84 83
f 84 97 90
f 84 90 87
f 85 86 98
f 86 99 110
f 86 110 93
f 86 93 109
f 86 109 120
f 86 120 119
f 86 119 115
f 86 115 100
f 86 100 101
f 86 101 102
f 86 102 98
f 90 103 91
f 90 97 104
f 90 104 103
f 91 103 99
f 92 105 93
f 93 105 106
f 93 106 107
f 93 107 108
f 93 108 109
f 94 111 95
f 95 111 112
f 95 112 96
f 96 112 111
f 99 103 113
f 99 113 114
f 99 114 110
f 100 115 101
f 101 115 116
f 103 117 113
f 103 104 117
f 108 118 119
f 108 119 120
f 108 120 109
f 115 119 121
f 115 121 122
f 115 122 116
f 118 123 119
f 119 123 124
f 119 124 125
f 119 125 126
f 119 126 127
f 119 127 122
f 119 122 121

