# https://github.com/mikedh/trimesh
v 0.01531854 0.08300479 0.00401048
v 0.01361332 0.08300479 0.00401048
v 0.01531854 0.08296573 0.00401048
v 0.01532085 0.08300479 0.00393263
v 0.01291002 0.08300479 -0.00266818
v 0.01290195 0.08299503 -0.00267342
v 0.00983913 -0.00730530 0.00401048
v 0.01530990 0.08257516 0.00401048
v 0.01531508 0.08265328 0.00393263
v 0.01532661 0.08300479 0.00358325
v 0.01291521 0.08300479 -0.00267342
v 0.01016945 -0.01190429 -0.00267342
v 0.00945289 -0.01673763 0.00401048
v 0.00953821 -0.01452113 0.00401048
v 0.01528223 0.08151085 0.00401048
v 0.01533180 0.08265328 0.00279029
v 0.01533872 0.08300479 0.00279029
v 0.01528453 0.08151085 0.00393263
v 0.01508507 0.08300479 -0.00267342
v 0.01013659 -0.01304672 -0.00267342
v 0.01003167 -0.01673763 -0.00267342
v 0.01004032 -0.01674739 -0.00180456
v 0.00956645 -0.01674739 0.00388290
v 0.00962698 -0.01674739 0.00401048
v 0.01525110 0.08036843 0.00401048
v 0.01530067 0.08151085 0.00279029
v 0.01530413 0.08151085 0.00164796
v 0.01533411 0.08265328 0.00164796
v 0.01534218 0.08300479 0.00164796
v 0.01525283 0.08036843 0.00393263
v 0.01524418 0.08300479 -0.00177774
v 0.01509314 0.08265328 -0.00267342
v 0.01143309 -0.01674739 -0.00267342
v 0.01164523 -0.01674739 0.00401048
v 0.01524879 0.08029031 0.00401048
v 0.01526781 0.08036843 0.00279029
v 0.01533007 0.08265328 0.00107286
v 0.01527127 0.08036843 0.00164796
v 0.01526724 0.08036843 0.00107286
v 0.01529549 0.08151085 0.00050628
v 0.01533353 0.08282903 0.00107286
v 0.01533123 0.08300479 0.00050628
v 0.01521651 0.07921624 0.00393263
v 0.01530240 0.08300479 -0.00063606
v 0.01524072 0.08265328 -0.00177774
v 0.01508392 0.08151085 -0.00267342
v 0.01179108 -0.01674739 -0.00267342
v 0.01166253 -0.01674739 0.00393263
v 0.01509083 0.07571085 0.00401048
v 0.01521420 0.07921624 0.00401048
v 0.01523092 0.07921624 0.00279029
v 0.01532431 0.08265328 0.00050628
v 0.01523322 0.07921624 0.00164796
v 0.01522977 0.07921624 0.00107286
v 0.01522573 0.07921624 0.00050628
v 0.01526262 0.08036843 0.00050628
v 0.01523957 0.08036843 -0.00063606
v 0.01526954 0.08151085 -0.00063606
v 0.01529664 0.08265328 -0.00063606
v 0.01517731 0.07808358 0.00393263
v 0.01521997 0.08151085 -0.00177774
v 0.01506605 0.08036843 -0.00267342
v 0.01492366 0.07487112 -0.00267342
v 0.01492020 0.07465631 -0.00265575
v 0.01489887 0.07351388 -0.00255761
v 0.01487811 0.07237146 -0.00245293
v 0.01486428 0.07162937 -0.00238227
v 0.01508680 0.07694115 -0.00177774
v 0.01504702 0.07579873 -0.00177774
v 0.01512715 0.07694115 -0.00063606
v 0.01181068 -0.01674739 -0.00175091
v 0.01177090 -0.01674739 0.00279029
v 0.01180376 -0.01674739 0.00164796
v 0.01513753 0.07694115 0.00393263
v 0.01513522 0.07694115 0.00401048
v 0.01515136 0.07694115 0.00279029
v 0.01515425 0.07694115 0.00164796
v 0.01519057 0.07808358 0.00107286
v 0.01518711 0.07808358 0.00050628
v 0.01516578 0.07808358 -0.00063606
v 0.01520382 0.07921624 -0.00063606
v 0.01519402 0.08036843 -0.00177774
v 0.01516001 0.07921624 -0.00177774
v 0.01497842 0.07694115 -0.00267342
v 0.01494902 0.07579873 -0.00267342
v 0.01512369 0.07808358 -0.00177774
v 0.01514733 0.07694115 0.00050628
v 0.01181933 -0.01671810 -0.00063606
v 0.01181817 -0.01674739 -0.00063606
v 0.01181010 -0.01674739 0.00107286
v 0.01181587 -0.01674739 0.00053310
v 0.01515079 0.07694115 0.00107286
v 0.01181817 -0.01674739 -0.00060923
f 1 2 7
f 1 7 14
f 1 14 13
f 1 13 24
f 1 24 34
f 1 34 49
f 1 49 75
f 1 75 50
f 1 50 35
f 1 35 25
f 1 25 15
f 1 15 8
f 1 8 3
f 1 3 4
f 1 4 10
f 1 10 17
f 1 17 29
f 1 29 42
f 1 42 44
f 1 44 31
f 1 31 19
f 1 19 11
f 1 11 5
f 1 5 2
f 2 5 6
f 2 6 7
f 3 8 9
f 3 9 4
f 4 9 10
f 5 11 6
f 6 11 19
f 6 19 32
f 6 32 46
f 6 46 62
f 6 62 84
f 6 84 85
f 6 85 63
f 6 63 47
f 6 47 33
f 6 33 21
f 6 21 20
f 6 20 12
f 6 12 13
f 6 13 14
f 6 14 7
f 8 15 9
f 9 16 17
f 9 17 10
f 9 15 18
f 9 18 16
f 12 20 13
f 13 20 21
f 13 21 22
f 13 22 23
f 13 23 24
f 15 25 18
f 16 18 26
f 16 26 27
f 16 27 28
f 16 28 29
f 16 29 17
f 18 25 30
f 18 30 26
f 19 31 32
f 21 33 22
f 22 33 47
f 22 47 71
f 22 71 89
f 22 89 93
f 22 93 91
f 22 91 90
f 22 90 73
f 22 73 72
f 22 72 48
f 22 48 34
f 22 34 24
f 22 24 23
f 25 35 30
f 26 30 36
f 26 36 38
f 26 38 27
f 27 37 28
f 27 38 39
f 27 39 40
f 27 40 37
f 28 37 29
f 29 37 41
f 29 41 42
f 30 35 43
f 30 43 36
f 31 44 45
f 31 45 46
f 31 46 32
f 34 48 49
f 35 50 43
f 36 43 51
f 36 51 38
f 37 40 52
f 37 52 42
f 37 42 41
f 38 51 53
f 38 53 54
f 38 54 39
f 39 54 55
f 39 55 56
f 39 56 40
f 40 56 57
f 40 57 58
f 40 58 52
f 42 52 59
f 42 59 44
f 43 50 60
f 43 60 51
f 44 59 45
f 45 59 61
f 45 61 62
f 45 62 46
f 47 63 64
f 47 64 65
f 47 65 66
f 47 66 67
f 47 67 68
f 47 68 69
f 47 69 70
f 47 70 71
f 48 72 49
f 49 72 73
f 49 73 74
f 49 74 75
f 50 75 60
f 51 60 74
f 51 74 76
f 51 76 77
f 51 77 53
f 52 58 59
f 53 77 78
f 53 78 54
f 54 78 79
f 54 79 55
f 55 79 70
f 55 70 80
f 55 80 81
f 55 81 56
f 56 81 57
f 57 82 58
f 57 81 83
f 57 83 82
f 58 82 59
f 59 82 61
f 60 75 74
f 61 82 62
f 62 82 84
f 63 85 64
f 64 85 82
f 64 82 65
f 65 82 66
f 66 82 83
f 66 83 67
f 67 83 86
f 67 86 68
f 68 70 69
f 68 86 81
f 68 81 80
f 68 80 70
f 70 79 87
f 70 87 71
f 71 88 89
f 71 87 88
f 73 90 76
f 73 76 74
f 76 90 91
f 76 91 77
f 77 91 88
f 77 88 92
f 77 92 78
f 78 92 87
f 78 87 79
f 81 86 83
f 82 85 84
f 87 92 88
f 88 91 93
f 88 93 89

