# https://github.com/mikedh/trimesh
v 0.00578048 0.10630631 0.01490225
v 0.00468549 0.10630631 0.01446740
v 0.00479237 0.10501753 0.01434382
v 0.00617342 0.09858617 0.01405703
v 0.00630440 0.09775916 0.01399874
v 0.00667848 0.09775916 0.01399874
v 0.00709133 0.09864914 0.01404071
v 0.00776928 0.09911931 0.01394628
v 0.00706723 0.10630631 0.01463178
v 0.00578048 0.10759090 0.01488826
v 0.00460480 0.10759090 0.01447206
v 0.00368899 0.11530685 0.01307659
v 0.00416785 0.10887549 0.01328760
v 0.00428207 0.10759090 0.01328760
v 0.00444343 0.10630631 0.01328760
v 0.00463205 0.10501753 0.01328760
v 0.00578572 0.09858617 0.01328760
v 0.00611264 0.09731837 0.01332490
v 0.00755028 0.08981652 0.01154121
v 0.00835397 0.08965699 0.01158318
v 0.00753666 0.09826292 0.01388333
v 0.00835397 0.09086602 0.01191194
v 0.00937352 0.08987529 0.01147476
v 0.00973712 0.09077367 0.01159601
v 0.00826072 0.09864914 0.01373760
v 0.00845666 0.09987076 0.01378307
v 0.00823242 0.10630631 0.01419693
v 0.00706723 0.10759090 0.01459447
v 0.00706723 0.10887549 0.01438696
v 0.00578048 0.10887549 0.01466325
v 0.00449373 0.11659564 0.01340768
v 0.00449373 0.11530685 0.01358954
v 0.00457337 0.10887549 0.01435082
v 0.00362193 0.11659564 0.01304045
v 0.00356011 0.11659564 0.01200054
v 0.00376967 0.11402226 0.01291337
v 0.00382416 0.11319525 0.01273850
v 0.00382416 0.11319525 0.01255197
v 0.00344275 0.12816956 0.00299232
v 0.00357687 0.12688497 0.00299232
v 0.00626353 0.10630211 0.00299232
v 0.00647415 0.10474045 0.00299232
v 0.00678745 0.10244414 0.00299232
v 0.00696454 0.10115535 0.00299232
v 0.00873329 0.08828844 0.00299232
v 0.00541478 0.11273347 0.00299232
v 0.00591984 0.10887130 0.00299232
v 0.00601519 0.09729738 0.01200054
v 0.00725793 0.09086602 0.01071349
v 0.00755447 0.08946389 0.01076945
v 0.00625515 0.09632344 0.01292153
v 0.00768755 0.08884258 0.01037890
v 0.00878464 0.08754959 0.01017838
v 0.00835397 0.08901470 0.01124160
v 0.01049681 0.09114309 0.01145028
v 0.01023170 0.09028250 0.01134069
v 0.00973712 0.08949747 0.01119147
v 0.00963967 0.09858617 0.01316752
v 0.00963967 0.09987076 0.01324446
v 0.00887475 0.10630631 0.01385068
v 0.00817479 0.10759090 0.01417711
v 0.00797256 0.10887549 0.01407452
v 0.00706723 0.11530685 0.01313837
v 0.00578048 0.11530685 0.01352659
v 0.00578048 0.11659564 0.01321415
v 0.00449373 0.12409749 0.01029146
v 0.00365860 0.12406811 0.01027164
v 0.00368061 0.11760316 0.01286091
v 0.00358316 0.12302699 0.01039988
v 0.00341131 0.12302699 0.00942760
v 0.00344275 0.12817376 0.00299582
v 0.00362298 0.12907214 0.00299232
v 0.00890723 0.08736907 0.00299232
v 0.00768755 0.08884258 0.00997320
v 0.00861069 0.08707102 0.00814171
v 0.00861489 0.08731031 0.00942760
v 0.00963967 0.08672678 0.00814171
v 0.00917548 0.08754959 0.01017838
v 0.01092537 0.09077367 0.01113551
v 0.01129421 0.09215061 0.01119846
v 0.01032077 0.09781374 0.01267555
v 0.01101025 0.08949747 0.01055494
v 0.01178355 0.08987110 0.01026232
v 0.00961872 0.08827165 0.01049431
v 0.01063722 0.08868726 0.01027281
v 0.01037840 0.09858617 0.01273034
v 0.01039307 0.09987076 0.01274899
v 0.00950345 0.10630631 0.01320832
v 0.00881712 0.10759090 0.01380522
v 0.00789292 0.11530685 0.01276998
v 0.00776718 0.11605829 0.01268254
v 0.00703265 0.11653267 0.01282943
v 0.00658103 0.11734708 0.01270702
v 0.00578048 0.11753180 0.01282244
v 0.00538754 0.12384141 0.01016322
v 0.00449373 0.12473978 0.00991607
v 0.00365651 0.12529812 0.00918511
v 0.00353286 0.12442493 0.00953951
v 0.00353600 0.12817376 0.00428171
v 0.00362298 0.12907214 0.00299582
v 0.00449373 0.12922746 0.00299582
v 0.00449478 0.12922326 0.00299232
v 0.00954851 0.08672258 0.00299232
v 0.00880769 0.08710880 0.00556876
v 0.00872072 0.08702484 0.00685582
v 0.00963967 0.08649589 0.00685582
v 0.01092642 0.08691569 0.00685582
v 0.01095786 0.08732290 0.00813821
v 0.01054920 0.08749921 0.00900557
v 0.00961872 0.08728932 0.00943226
v 0.01029457 0.08635736 0.00497886
v 0.01003261 0.08782666 0.00986361
v 0.01149540 0.08901050 0.01001400
v 0.01196378 0.09086602 0.01045001
v 0.01202770 0.09215061 0.01055610
v 0.01293199 0.09001382 0.00891930
v 0.01260716 0.09086602 0.00969806
v 0.01226766 0.08951426 0.00946607
v 0.01096833 0.09858617 0.01200054
v 0.01093795 0.09987076 0.01200054
v 0.01014683 0.10630631 0.01239225
v 0.00943849 0.10759090 0.01316169
v 0.00931170 0.10887549 0.01301480
v 0.00853630 0.11530685 0.01217308
v 0.00903193 0.11606669 0.01140831
v 0.00832149 0.11649069 0.01195857
v 0.00802495 0.12302699 0.00911283
v 0.00753875 0.12214121 0.00998019
v 0.00743921 0.11691889 0.01250884
v 0.00624467 0.12350977 0.00999535
v 0.00580248 0.12428639 0.00968408
v 0.00578048 0.12517638 0.00899974
v 0.00449373 0.12540307 0.00927254
v 0.00449373 0.12604537 0.00850661
v 0.00384302 0.12882444 0.00493456
v 0.00373300 0.12894620 0.00428171
v 0.00439104 0.12897558 0.00431202
v 0.00531000 0.12891261 0.00390282
v 0.00541583 0.12896718 0.00299582
v 0.00541583 0.12896718 0.00299232
v 0.01018979 0.08634476 0.00299232
v 0.00954642 0.08661344 0.00428171
v 0.00974131 0.08646230 0.00547200
v 0.01018979 0.08634476 0.00428171
v 0.01023799 0.08635736 0.00497886
v 0.01207381 0.08732290 0.00556876
v 0.01187157 0.08744464 0.00685582
v 0.01168925 0.08756638 0.00770803
v 0.01080487 0.08663443 0.00547200
v 0.01140738 0.08775530 0.00856490
v 0.01102177 0.08822128 0.00951037
v 0.01032391 0.08634476 0.00428171
v 0.01096729 0.08661344 0.00428171
v 0.01189253 0.08861589 0.00915596
v 0.01275071 0.08915324 0.00858938
v 0.01267107 0.09215061 0.00973421
v 0.01334903 0.09086602 0.00814171
v 0.01299695 0.09086602 0.00905454
v 0.01309754 0.08958143 0.00815337
v 0.01151635 0.09858617 0.01124626
v 0.01147130 0.09987076 0.01112968
v 0.01047690 0.10630631 0.01174873
v 0.01008186 0.10759090 0.01224420
v 0.00911366 0.11530685 0.01152955
v 0.00924673 0.11653267 0.01073797
v 0.00901621 0.12116727 0.00881671
v 0.00887580 0.11692308 0.01118331
v 0.00952965 0.11530685 0.01071349
v 0.00888523 0.12202367 0.00854858
v 0.00781119 0.12379523 0.00888549
v 0.00709237 0.12306058 0.00977384
v 0.00668057 0.12265337 0.01018188
v 0.00697187 0.12426121 0.00907902
v 0.00647939 0.12499586 0.00882254
v 0.00586640 0.12588584 0.00813355
v 0.00549547 0.12637701 0.00769986
v 0.00522617 0.12756504 0.00625659
v 0.00389437 0.12882444 0.00493456
v 0.00475150 0.12874888 0.00476085
v 0.00575638 0.12850120 0.00431202
v 0.00673925 0.12782952 0.00428171
v 0.00605920 0.12858516 0.00299582
v 0.00605711 0.12858516 0.00299232
v 0.01033649 0.08634476 0.00299232
v 0.01231795 0.08732709 0.00424790
v 0.01281672 0.08768393 0.00465477
v 0.01271718 0.08777629 0.00556876
v 0.01251495 0.08796940 0.00685582
v 0.01222050 0.08827585 0.00814870
v 0.01033649 0.08634476 0.00299582
v 0.01097986 0.08659245 0.00299582
v 0.01221317 0.08720536 0.00299582
v 0.01295399 0.08879640 0.00773251
v 0.01300114 0.09215061 0.00909068
v 0.01349992 0.08957723 0.00685582
v 0.01369377 0.09086602 0.00685582
v 0.01333645 0.09215061 0.00814171
v 0.01180556 0.09858617 0.01060390
v 0.01173954 0.09987076 0.01048615
v 0.01039621 0.10759090 0.01160067
v 0.01032915 0.10853126 0.01145844
v 0.01026209 0.10938765 0.01130339
v 0.00979475 0.11659564 0.00942760
v 0.00950450 0.11788024 0.00942760
v 0.00945106 0.12045361 0.00814171
v 0.00916500 0.12165424 0.00812772
v 0.01015521 0.11402226 0.00967591
v 0.01007138 0.11525648 0.00934133
v 0.00907279 0.12259460 0.00769054
v 0.00868195 0.12302699 0.00812772
v 0.00801762 0.12426121 0.00807176
v 0.00777871 0.12503364 0.00759494
v 0.00733757 0.12465582 0.00845298
v 0.00697187 0.12526454 0.00807176
v 0.00635260 0.12621329 0.00745971
v 0.00608435 0.12738873 0.00599661
v 0.00570608 0.12785051 0.00556876
v 0.00657998 0.12766580 0.00513858
v 0.00682937 0.12794287 0.00299582
v 0.00764039 0.12617131 0.00603742
v 0.00778185 0.12635182 0.00517938
v 0.00738263 0.12709067 0.00428171
v 0.00682937 0.12794287 0.00299232
v 0.01097986 0.08659245 0.00299232
v 0.01287436 0.08763355 0.00379673
v 0.01322852 0.08818349 0.00424790
v 0.01322433 0.08841858 0.00556876
v 0.01308707 0.08861169 0.00685582
v 0.01221317 0.08720536 0.00299232
v 0.01289007 0.08762096 0.00299582
v 0.01293303 0.09343940 0.00895661
v 0.01375140 0.08957723 0.00556876
v 0.01390962 0.09086602 0.00556876
v 0.01364871 0.09215061 0.00685582
v 0.01351668 0.09343940 0.00685582
v 0.01320128 0.09343940 0.00814171
v 0.01224565 0.09858617 0.00942760
v 0.01210734 0.09987076 0.00942760
v 0.01165677 0.10115955 0.01028913
v 0.01089708 0.10630631 0.01071349
v 0.01073676 0.10759090 0.01071349
v 0.01050833 0.10892587 0.01081025
v 0.01022751 0.11299375 0.00990208
v 0.00997708 0.11788024 0.00814171
v 0.00973293 0.11916902 0.00814171
v 0.00983667 0.12045361 0.00685582
v 0.00954327 0.12174241 0.00685582
v 0.01042555 0.11263272 0.00945558
v 0.01036268 0.11402226 0.00903239
v 0.01030505 0.11479469 0.00885518
v 0.00916710 0.12302699 0.00679403
v 0.00891038 0.12345519 0.00718224
v 0.00794217 0.12528132 0.00685582
v 0.00678221 0.12653234 0.00660167
v 0.00861593 0.12421923 0.00679403
v 0.00747274 0.12713685 0.00299582
v 0.00808154 0.12568434 0.00559208
v 0.00783005 0.12644838 0.00428171
v 0.00876368 0.12449630 0.00556876
v 0.00747169 0.12713685 0.00299232
v 0.01337941 0.08829264 0.00299582
v 0.01390438 0.08957723 0.00428171
v 0.01289007 0.08762096 0.00299232
v 0.01404689 0.09086602 0.00428171
v 0.01385409 0.09215061 0.00556876
v 0.01372206 0.09343940 0.00556876
v 0.01356802 0.09472399 0.00556876
v 0.01336055 0.09472399 0.00685582
v 0.01284816 0.09787250 0.00745504
v 0.01290160 0.09701611 0.00766955
v 0.01260087 0.09858617 0.00814171
v 0.01244893 0.09987076 0.00814171
v 0.01157084 0.10566821 0.00878757
v 0.01161276 0.10501753 0.00892746
v 0.01169554 0.10373293 0.00919327
v 0.01194702 0.10115955 0.00942760
v 0.01114332 0.10759090 0.00942760
v 0.01096519 0.10887549 0.00942760
v 0.01149645 0.10373293 0.00983563
v 0.01141995 0.10501753 0.00956983
v 0.01027781 0.11720435 0.00747370
v 0.01022542 0.11788024 0.00721838
v 0.01011539 0.11909766 0.00677538
v 0.01011749 0.12033187 0.00544752
v 0.00979685 0.12174241 0.00556876
v 0.01029981 0.11861908 0.00629273
v 0.01022542 0.11947548 0.00579609
v 0.01094319 0.11144888 0.00814171
v 0.01076715 0.11273347 0.00814171
v 0.01058587 0.11402226 0.00814171
v 0.00940705 0.12302699 0.00556876
v 0.00902459 0.12372806 0.00632421
v 0.00784472 0.12649455 0.00299582
v 0.00784472 0.12649455 0.00299232
v 0.00829529 0.12560038 0.00428171
v 0.00908641 0.12385400 0.00556876
v 0.00914719 0.12397155 0.00428171
v 0.00881921 0.12461384 0.00428171
v 0.01337941 0.08829264 0.00299232
v 0.01397668 0.08957723 0.00299582
v 0.01411500 0.09086602 0.00299582
v 0.01405737 0.09215061 0.00299582
v 0.01398821 0.09215061 0.00428171
v 0.01385513 0.09343940 0.00428171
v 0.01369796 0.09472399 0.00428171
v 0.01340561 0.09601278 0.00556876
v 0.01287331 0.09935861 0.00630672
v 0.01320128 0.09601278 0.00685582
v 0.01212515 0.10244414 0.00814171
v 0.01228861 0.10115955 0.00814171
v 0.01300743 0.09738553 0.00695841
v 0.01160647 0.10722567 0.00767189
v 0.01179298 0.10501753 0.00814171
v 0.01151531 0.10652461 0.00852992
v 0.01135813 0.10618037 0.00930052
v 0.01035535 0.11788024 0.00657602
v 0.01044965 0.11670059 0.00696890
v 0.01028514 0.11981971 0.00493806
v 0.01019084 0.12059215 0.00428171
v 0.00994040 0.12174241 0.00428171
v 0.01033544 0.11909766 0.00544752
v 0.01066551 0.11530685 0.00685582
v 0.01084050 0.11402226 0.00685582
v 0.01068332 0.11659564 0.00556876
v 0.01050309 0.11788024 0.00556876
v 0.01111608 0.11016009 0.00814171
v 0.01154989 0.10808207 0.00737227
v 0.00954013 0.12302699 0.00428171
v 0.00831939 0.12560038 0.00299582
v 0.00831939 0.12560038 0.00299232
v 0.00958204 0.12302699 0.00299582
v 0.00916395 0.12399674 0.00299582
v 0.00882655 0.12464323 0.00299232
v 0.01397668 0.08957723 0.00299232
v 0.01411500 0.09086602 0.00299232
v 0.01405737 0.09215061 0.00299232
v 0.01392743 0.09343940 0.00299582
v 0.01377026 0.09472399 0.00299582
v 0.01353030 0.09601278 0.00428171
v 0.01286597 0.10058442 0.00500684
v 0.01323900 0.09729738 0.00556876
v 0.01292570 0.09858617 0.00657253
v 0.01281672 0.10021500 0.00586488
v 0.01156036 0.10944223 0.00612952
v 0.01118419 0.11144888 0.00685582
v 0.01128793 0.10887549 0.00814171
v 0.01145872 0.10762869 0.00811723
v 0.01030820 0.11994985 0.00428171
v 0.01061836 0.11788024 0.00428171
v 0.01043184 0.11916902 0.00428171
v 0.01021808 0.12074327 0.00299582
v 0.00999280 0.12174241 0.00299582
v 0.01085517 0.11530685 0.00556876
v 0.01079230 0.11659564 0.00428171
v 0.00958204 0.12302699 0.00299232
v 0.00916395 0.12399674 0.00299232
v 0.01392743 0.09343940 0.00299232
v 0.01377026 0.09472399 0.00299232
v 0.01360260 0.09601278 0.00299582
v 0.01048528 0.11916902 0.00299582
v 0.01033544 0.12009678 0.00299582
v 0.01067075 0.11788024 0.00299582
v 0.01033544 0.12009678 0.00299232
v 0.01021703 0.12074327 0.00299232
v 0.00999280 0.12174241 0.00299232
v 0.01360260 0.09601278 0.00299232
v 0.01048528 0.11916902 0.00299232
v 0.01067075 0.11788024 0.00299232
f 1 2 3
f 1 3 4
f 1 4 5
f 1 5 6
f 1 6 7
f 1 7 8
f 1 8 9
f 1 9 10
f 1 10 11
f 1 11 2
f 2 11 12
f 2 12 13
f 2 13 14
f 2 14 3
f 3 14 15
f 3 15 16
f 3 16 17
f 3 17 5
f 3 5 4
f 5 17 18
f 5 18 19
f 5 19 20
f 5 20 6
f 6 21 7
f 6 20 22
f 6 22 23
f 6 23 24
f 6 24 21
f 7 21 8
f 8 21 25
f 8 25 26
f 8 26 9
f 9 26 27
f 9 27 28
f 9 28 10
f 10 28 29
f 10 29 30
f 10 30 31
f 10 31 32
f 10 32 33
f 10 33 11
f 11 33 34
f 11 34 12
f 12 34 35
f 12 35 36
f 12 36 13
f 13 36 37
f 13 37 38
f 13 38 14
f 14 38 39
f 14 39 40
f 14 40 15
f 15 41 42
f 15 42 43
f 15 43 44
f 15 44 45
f 15 45 16
f 15 40 46
f 15 46 47
f 15 47 41
f 16 48 17
f 16 45 48
f 17 48 49
f 17 49 50
f 17 50 19
f 17 19 51
f 17 51 18
f 18 51 19
f 19 50 52
f 19 52 53
f 19 53 54
f 19 54 20
f 20 54 23
f 20 23 22
f 21 24 55
f 21 55 25
f 23 56 24
f 23 54 57
f 23 57 56
f 24 56 55
f 25 58 26
f 25 55 58
f 26 58 59
f 26 59 27
f 27 59 60
f 27 60 61
f 27 61 28
f 28 61 62
f 28 62 29
f 29 62 63
f 29 63 64
f 29 64 30
f 30 64 31
f 31 34 32
f 31 64 65
f 31 65 66
f 31 66 67
f 31 67 68
f 31 68 34
f 32 34 33
f 34 68 67
f 34 67 69
f 34 69 70
f 34 70 35
f 35 38 37
f 35 37 36
f 35 70 39
f 35 39 38
f 39 70 71
f 39 71 72
f 39 72 102
f 39 102 140
f 39 140 183
f 39 183 223
f 39 223 260
f 39 260 294
f 39 294 330
f 39 330 333
f 39 333 356
f 39 356 355
f 39 355 365
f 39 365 364
f 39 364 363
f 39 363 367
f 39 367 368
f 39 368 366
f 39 366 358
f 39 358 357
f 39 357 336
f 39 336 335
f 39 335 334
f 39 334 299
f 39 299 263
f 39 263 229
f 39 229 224
f 39 224 184
f 39 184 141
f 39 141 103
f 39 103 73
f 39 73 45
f 39 45 44
f 39 44 43
f 39 43 42
f 39 42 41
f 39 41 47
f 39 47 46
f 39 46 40
f 45 73 74
f 45 74 48
f 48 74 49
f 49 74 50
f 50 74 52
f 52 74 75
f 52 75 76
f 52 76 53
f 53 76 77
f 53 77 78
f 53 78 54
f 54 78 57
f 55 56 79
f 55 79 80
f 55 80 81
f 55 81 58
f 56 57 82
f 56 82 83
f 56 83 79
f 57 78 84
f 57 84 85
f 57 85 82
f 58 81 86
f 58 86 59
f 59 86 87
f 59 87 60
f 60 87 88
f 60 88 89
f 60 89 61
f 61 89 62
f 62 89 90
f 62 90 91
f 62 91 63
f 63 91 92
f 63 92 65
f 63 65 64
f 65 92 93
f 65 93 94
f 65 94 66
f 66 94 93
f 66 93 95
f 66 95 96
f 66 96 67
f 67 96 97
f 67 97 98
f 67 98 69
f 69 98 70
f 70 98 71
f 71 99 100
f 71 100 72
f 71 98 99
f 72 100 101
f 72 101 102
f 73 103 104
f 73 104 105
f 73 105 74
f 74 105 75
f 75 105 106
f 75 106 77
f 75 77 76
f 77 107 108
f 77 108 109
f 77 109 110
f 77 110 78
f 77 106 111
f 77 111 107
f 78 110 109
f 78 109 112
f 78 112 113
f 78 113 85
f 78 85 84
f 79 83 114
f 79 114 80
f 80 114 115
f 80 115 86
f 80 86 81
f 82 85 113
f 82 113 83
f 83 116 117
f 83 117 114
f 83 113 118
f 83 118 116
f 86 115 87
f 87 115 119
f 87 119 120
f 87 120 121
f 87 121 122
f 87 122 88
f 88 122 89
f 89 122 123
f 89 123 124
f 89 124 90
f 90 124 91
f 91 125 126
f 91 126 127
f 91 127 128
f 91 128 129
f 91 129 92
f 91 124 125
f 92 129 93
f 93 129 130
f 93 130 95
f 95 130 131
f 95 131 96
f 96 131 132
f 96 132 133
f 96 133 97
f 97 133 134
f 97 134 135
f 97 135 136
f 97 136 99
f 97 99 98
f 99 136 100
f 100 136 101
f 101 136 137
f 101 137 138
f 101 138 139
f 101 139 140
f 101 140 102
f 103 141 142
f 103 142 105
f 103 105 104
f 105 142 143
f 105 143 106
f 106 143 144
f 106 144 145
f 106 145 111
f 107 146 147
f 107 147 148
f 107 148 108
f 107 111 149
f 107 149 146
f 108 148 150
f 108 150 109
f 109 150 151
f 109 151 112
f 111 145 144
f 111 144 152
f 111 152 153
f 111 153 149
f 112 151 113
f 113 151 154
f 113 154 155
f 113 155 118
f 114 117 115
f 115 117 156
f 115 156 119
f 116 157 158
f 116 158 117
f 116 118 155
f 116 155 159
f 116 159 157
f 117 158 156
f 119 160 120
f 119 156 160
f 120 160 121
f 121 160 161
f 121 161 162
f 121 162 163
f 121 163 122
f 122 163 123
f 123 163 164
f 123 164 124
f 124 164 125
f 125 165 166
f 125 166 167
f 125 167 126
f 125 164 168
f 125 168 165
f 126 167 127
f 127 167 169
f 127 169 170
f 127 170 128
f 128 170 171
f 128 171 172
f 128 172 129
f 129 172 130
f 130 171 170
f 130 170 173
f 130 173 131
f 130 172 171
f 131 173 174
f 131 174 132
f 132 174 175
f 132 175 133
f 133 175 134
f 134 175 176
f 134 176 177
f 134 177 178
f 134 178 135
f 135 178 137
f 135 137 136
f 137 178 179
f 137 179 138
f 138 179 180
f 138 180 181
f 138 181 182
f 138 182 139
f 139 182 140
f 140 182 183
f 141 184 190
f 141 190 152
f 141 152 144
f 141 144 143
f 141 143 142
f 146 149 185
f 146 185 186
f 146 186 187
f 146 187 147
f 147 187 188
f 147 188 148
f 148 188 189
f 148 189 150
f 149 153 185
f 150 189 154
f 150 154 151
f 152 190 191
f 152 191 153
f 153 191 192
f 153 192 185
f 154 189 155
f 155 189 193
f 155 193 159
f 156 158 194
f 156 194 160
f 157 159 195
f 157 195 196
f 157 196 197
f 157 197 194
f 157 194 158
f 159 193 195
f 160 194 161
f 161 194 198
f 161 198 199
f 161 199 200
f 161 200 162
f 162 200 163
f 163 200 201
f 163 201 202
f 163 202 164
f 164 202 168
f 165 168 203
f 165 203 204
f 165 204 166
f 166 204 203
f 166 203 205
f 166 205 206
f 166 206 169
f 166 169 167
f 168 207 208
f 168 208 203
f 168 202 207
f 169 206 209
f 169 209 210
f 169 210 170
f 170 210 211
f 170 211 212
f 170 212 213
f 170 213 174
f 170 174 173
f 174 214 215
f 174 215 175
f 174 213 214
f 175 215 176
f 176 215 177
f 177 216 217
f 177 217 179
f 177 179 178
f 177 215 216
f 179 217 218
f 179 218 180
f 180 218 181
f 181 219 182
f 181 218 220
f 181 220 221
f 181 221 222
f 181 222 219
f 182 219 223
f 182 223 183
f 184 224 191
f 184 191 190
f 185 192 225
f 185 225 186
f 186 225 226
f 186 226 227
f 186 227 187
f 187 227 228
f 187 228 188
f 188 228 193
f 188 193 189
f 191 224 229
f 191 229 192
f 192 229 263
f 192 263 230
f 192 230 225
f 193 228 195
f 194 197 231
f 194 231 199
f 194 199 198
f 195 228 232
f 195 232 196
f 196 232 233
f 196 233 234
f 196 234 197
f 197 234 235
f 197 235 236
f 197 236 237
f 197 237 231
f 199 231 237
f 199 237 238
f 199 238 239
f 199 239 240
f 199 240 200
f 200 241 201
f 200 240 241
f 201 241 202
f 202 241 242
f 202 242 243
f 202 243 207
f 203 208 244
f 203 244 245
f 203 245 205
f 205 245 246
f 205 246 247
f 205 247 206
f 206 247 209
f 207 243 241
f 207 241 248
f 207 248 249
f 207 249 250
f 207 250 208
f 208 250 244
f 209 247 251
f 209 251 252
f 209 252 210
f 210 252 211
f 211 252 212
f 212 253 220
f 212 220 218
f 212 218 254
f 212 254 215
f 212 215 214
f 212 214 213
f 212 252 255
f 212 255 253
f 215 254 216
f 216 218 217
f 216 254 218
f 219 222 256
f 219 256 223
f 220 257 221
f 220 253 257
f 221 258 222
f 221 257 259
f 221 259 258
f 222 258 256
f 223 256 260
f 225 230 261
f 225 261 226
f 226 261 262
f 226 262 227
f 227 262 232
f 227 232 228
f 230 263 299
f 230 299 261
f 232 262 233
f 233 262 264
f 233 264 265
f 233 265 234
f 234 265 266
f 234 266 235
f 235 266 267
f 235 267 268
f 235 268 269
f 235 269 270
f 235 270 236
f 236 270 271
f 236 271 238
f 236 238 237
f 238 271 272
f 238 272 273
f 238 273 274
f 238 274 275
f 238 275 276
f 238 276 240
f 238 240 239
f 240 276 241
f 241 277 278
f 241 278 248
f 241 243 242
f 241 276 279
f 241 279 280
f 241 280 277
f 244 281 282
f 244 282 283
f 244 283 245
f 244 250 281
f 245 283 246
f 246 284 285
f 246 285 247
f 246 283 286
f 246 286 287
f 246 287 284
f 247 285 251
f 248 278 249
f 249 278 277
f 249 277 250
f 250 277 273
f 250 273 288
f 250 288 289
f 250 289 290
f 250 290 281
f 251 291 292
f 251 292 252
f 251 285 291
f 252 292 255
f 253 255 257
f 255 292 257
f 256 258 293
f 256 293 294
f 256 294 260
f 257 292 259
f 258 259 295
f 258 295 293
f 259 292 296
f 259 296 297
f 259 297 298
f 259 298 295
f 261 299 334
f 261 334 300
f 261 300 262
f 262 300 264
f 264 300 301
f 264 301 302
f 264 302 303
f 264 303 265
f 265 303 266
f 266 303 304
f 266 304 267
f 267 305 306
f 267 306 307
f 267 307 308
f 267 308 268
f 267 304 305
f 268 308 269
f 269 309 310
f 269 310 272
f 269 272 270
f 269 308 311
f 269 311 312
f 269 312 309
f 270 272 271
f 272 310 273
f 273 310 309
f 273 309 313
f 273 313 314
f 273 314 288
f 273 277 274
f 274 277 315
f 274 315 275
f 275 315 276
f 276 315 277
f 276 277 280
f 276 280 279
f 281 316 286
f 281 286 282
f 281 290 289
f 281 289 317
f 281 317 316
f 282 286 283
f 284 318 319
f 284 319 320
f 284 320 285
f 284 287 318
f 285 320 291
f 286 321 318
f 286 318 287
f 286 316 322
f 286 322 323
f 286 323 324
f 286 324 325
f 286 325 321
f 288 326 312
f 288 312 327
f 288 327 323
f 288 323 322
f 288 322 289
f 288 314 326
f 289 322 317
f 291 320 328
f 291 328 296
f 291 296 292
f 293 295 298
f 293 298 329
f 293 329 330
f 293 330 294
f 296 328 297
f 297 328 331
f 297 331 332
f 297 332 298
f 298 333 329
f 298 332 333
f 300 334 335
f 300 335 301
f 301 335 336
f 301 336 302
f 302 336 357
f 302 357 337
f 302 337 303
f 303 337 304
f 304 337 338
f 304 338 305
f 305 338 359
f 305 359 339
f 305 339 340
f 305 340 341
f 305 341 306
f 306 341 307
f 307 342 308
f 307 341 343
f 307 343 344
f 307 344 345
f 307 345 327
f 307 327 342
f 308 342 311
f 309 312 313
f 311 342 312
f 312 326 346
f 312 346 347
f 312 347 314
f 312 314 313
f 312 342 327
f 314 347 346
f 314 346 326
f 316 317 322
f 318 348 319
f 318 321 325
f 318 325 349
f 318 349 350
f 318 350 348
f 319 348 351
f 319 351 320
f 320 351 352
f 320 352 328
f 323 327 345
f 323 345 344
f 323 344 324
f 324 344 353
f 324 353 340
f 324 340 354
f 324 354 349
f 324 349 325
f 328 352 331
f 329 333 330
f 331 352 365
f 331 365 355
f 331 355 356
f 331 356 332
f 332 356 333
f 337 357 358
f 337 358 338
f 338 358 366
f 338 366 359
f 339 359 354
f 339 354 340
f 340 353 341
f 341 353 343
f 343 353 344
f 348 350 360
f 348 360 361
f 348 361 351
f 349 362 360
f 349 360 350
f 349 354 362
f 351 361 363
f 351 363 364
f 351 364 365
f 351 365 352
f 354 359 362
f 359 366 368
f 359 368 362
f 360 362 368
f 360 368 367
f 360 367 363
f 360 363 361

