# https://github.com/mikedh/trimesh
v -0.00452805 0.12918127 0.00268331
v -0.00431490 0.12917288 0.00268331
v -0.00458055 0.12902611 0.00161778
v -0.00534286 0.12892127 0.00198748
v -0.00539326 0.12894644 0.00268331
v -0.00364184 0.12906385 0.00268331
v -0.00369539 0.12900095 0.00170740
v -0.00380354 0.12887935 0.00097423
v -0.00419729 0.12887935 0.00097423
v -0.00505516 0.12879549 0.00112982
v -0.00578282 0.12855647 0.00161778
v -0.00599702 0.12856905 0.00268331
v -0.00343918 0.12817489 0.00268331
v -0.00348538 0.12817489 0.00170740
v -0.00361769 0.12558766 -0.00338625
v -0.00378569 0.12631728 -0.00292319
v -0.00422144 0.12631728 -0.00292319
v -0.00507931 0.12622503 -0.00276760
v -0.00545941 0.12765912 -0.00039255
v -0.00631728 0.12747462 -0.00012367
v -0.00663858 0.12770524 0.00073523
v -0.00678768 0.12786458 0.00170740
v -0.00682023 0.12791071 0.00268331
v -0.00337618 0.12431292 -0.00343853
v -0.00355363 0.12688756 0.00268331
v -0.00386864 0.10950243 -0.00922304
v -0.00354523 0.11659319 -0.00729736
v -0.00371639 0.12515157 -0.00423520
v -0.00451335 0.12510544 -0.00420159
v -0.00459525 0.12583506 -0.00338625
v -0.00516856 0.12496287 -0.00408582
v -0.00567887 0.12532768 -0.00343978
v -0.00579962 0.12605731 -0.00254851
v -0.00657768 0.12633406 -0.00163609
v -0.00686224 0.12658985 -0.00086557
v -0.00750590 0.12606149 -0.00086557
v -0.00772535 0.12623761 -0.00020583
v -0.00781145 0.12637179 0.00065183
v -0.00743029 0.12709303 0.00170740
v -0.00697564 0.12772621 0.00268331
v -0.00360508 0.12431292 -0.00443810
v -0.00368279 0.11659319 -0.00813884
v -0.00556232 0.11144809 0.00268331
v -0.00386864 0.10950243 -0.00922927
v -0.00569042 0.11047107 0.00268331
v -0.00573137 0.11016077 0.00268331
v -0.00590147 0.10887345 0.00268331
v -0.00603062 0.10790062 0.00268331
v -0.00624483 0.10630300 0.00268331
v -0.00635298 0.10550209 0.00268331
v -0.00656403 0.10394640 0.00268331
v -0.00676878 0.10244522 0.00268331
v -0.00690319 0.10146820 0.00268331
v -0.00871761 0.08829307 0.00268331
v -0.00445770 0.10630300 -0.00858447
v -0.00557387 0.09987058 -0.00858447
v -0.00579962 0.09858326 -0.00858447
v -0.00367754 0.11530586 -0.00818241
v -0.00451335 0.12431292 -0.00462979
v -0.00376994 0.11748215 -0.00803428
v -0.00567887 0.12428357 -0.00429495
v -0.00663858 0.12383070 -0.00418043
v -0.00602642 0.12469031 -0.00386798
v -0.00673833 0.12515995 -0.00301157
v -0.00759620 0.12484127 -0.00264561
v -0.00788495 0.12514737 -0.00178795
v -0.00805610 0.12541993 -0.00086557
v -0.00874386 0.12425841 -0.00091162
v -0.00813695 0.12572604 0.00030204
v -0.00785030 0.12645147 0.00170740
v -0.00881947 0.12456452 0.00042154
v -0.00746284 0.12710142 0.00268331
v -0.00386864 0.10951920 -0.00922927
v -0.00441465 0.10899505 -0.00952802
v -0.00462360 0.10759032 -0.00969233
v -0.00486930 0.10501987 -0.00953175
v -0.00470760 0.10630300 -0.00968610
v -0.00890872 0.08732444 0.00268331
v -0.00769490 0.08887594 -0.00643348
v -0.00613982 0.09730013 -0.00729736
v -0.00630573 0.09769849 -0.00932014
v -0.00613982 0.09858326 -0.00941474
v -0.00769490 0.08887594 -0.00670983
v -0.00451335 0.11745280 -0.00802556
v -0.00523156 0.11728088 -0.00795959
v -0.00579962 0.10887345 -0.00985913
v -0.00451335 0.11659319 -0.00826456
v -0.00608942 0.11696219 -0.00785005
v -0.00749645 0.12341557 -0.00392649
v -0.00711739 0.12433808 -0.00346965
v -0.00708169 0.11790567 -0.00699986
v -0.00790805 0.11749473 -0.00680070
v -0.00795950 0.12398585 -0.00307008
v -0.00819996 0.12437581 -0.00219126
v -0.00898642 0.12359169 -0.00137095
v -0.00907357 0.12379715 -0.00051329
v -0.00831651 0.12560024 0.00170740
v -0.00795950 0.12625020 0.00268331
v -0.00784610 0.12645566 0.00268331
v -0.00913447 0.12391876 0.00042154
v -0.00916807 0.12397327 0.00170740
v -0.00883837 0.12461903 0.00170740
v -0.00579962 0.10759032 -0.01003340
v -0.00579962 0.10630300 -0.01002718
v -0.00961853 0.08666610 0.00268331
v -0.00869451 0.08718187 -0.00343853
v -0.00682548 0.09769849 -0.00932014
v -0.00718669 0.09849520 -0.00941599
v -0.00771905 0.09146735 -0.00794839
v -0.00708694 0.09987058 -0.00956163
v -0.00866406 0.08732024 -0.00472440
v -0.00879532 0.08750894 -0.00557085
v -0.00837321 0.08877110 -0.00677207
v -0.00837321 0.08958040 -0.00718533
v -0.00571667 0.11655964 -0.00807037
v -0.00708694 0.10887345 -0.00956287
v -0.00657978 0.11610677 -0.00799071
v -0.00579962 0.11530586 -0.00835419
v -0.00703969 0.11655964 -0.00764341
v -0.00783140 0.12255596 -0.00416424
v -0.00813276 0.11659319 -0.00699488
v -0.00877431 0.11659319 -0.00633515
v -0.00817371 0.12300044 -0.00347463
v -0.00899587 0.12231694 -0.00273897
v -0.00886567 0.12310946 -0.00224728
v -0.00913657 0.12273626 -0.00188131
v -0.00924682 0.12310946 -0.00091162
v -0.00947993 0.12302560 0.00042154
v -0.00830496 0.12560024 0.00268331
v -0.00955973 0.12302560 0.00170740
v -0.00956288 0.12302560 0.00268331
v -0.00916597 0.12396488 0.00268331
v -0.00908617 0.12412003 0.00268331
v -0.00883102 0.12460645 0.00268331
v -0.00708694 0.10759032 -0.00973714
v -0.00708694 0.10630300 -0.00974959
v -0.01023279 0.08635161 0.00268331
v -0.00965843 0.08668707 -0.00215267
v -0.00776630 0.09146735 -0.00794839
v -0.00768335 0.09800459 -0.00921682
v -0.00797105 0.09886002 -0.00929275
v -0.00812331 0.09987058 -0.00933508
v -0.00965843 0.08684641 -0.00343853
v -0.00928567 0.08750894 -0.00557085
v -0.00923212 0.08877530 -0.00675464
v -0.00826611 0.09096835 -0.00771063
v -0.00787760 0.10887345 -0.00930520
v -0.00774215 0.10953597 -0.00923425
v -0.00746704 0.11530586 -0.00783138
v -0.00852126 0.10887345 -0.00888820
v -0.00928147 0.10887345 -0.00824464
v -0.00846036 0.11525554 -0.00710069
v -0.00894547 0.11564971 -0.00655174
v -0.00907777 0.11740667 -0.00547376
v -0.00871026 0.12183053 -0.00342733
v -0.00911872 0.12146152 -0.00299041
v -0.00928987 0.12183053 -0.00224728
v -0.00967208 0.12174247 -0.00086557
v -0.00986528 0.12174247 0.00042154
v -0.00995873 0.12174247 0.00170740
v -0.00997028 0.12174247 0.00268331
v -0.00806240 0.10759032 -0.00939607
v -0.00810860 0.10630300 -0.00940852
v -0.00876592 0.09987058 -0.00915458
v -0.01033674 0.08635161 0.00268331
v -0.01026324 0.08635581 0.00206839
v -0.01032309 0.08635581 0.00206839
v -0.01094575 0.08677093 -0.00086557
v -0.00965843 0.09086353 -0.00740815
v -0.00838896 0.09849520 -0.00910977
v -0.01094575 0.08696382 -0.00215267
v -0.01098250 0.08733282 -0.00343355
v -0.00969203 0.08729508 -0.00476423
v -0.01057929 0.08749636 -0.00436092
v -0.01014354 0.08774796 -0.00521858
v -0.01094575 0.08865788 -0.00563931
v -0.00968783 0.08825953 -0.00605880
v -0.01008999 0.08910237 -0.00654800
v -0.01057194 0.08995779 -0.00678949
v -0.00966053 0.08955104 -0.00695629
v -0.00870501 0.10759032 -0.00902263
v -0.00940748 0.10759032 -0.00837908
v -0.01005114 0.10759032 -0.00746541
v -0.00996818 0.10882313 -0.00719778
v -0.00904102 0.11479429 -0.00668617
v -0.00919117 0.11659319 -0.00569159
v -0.00928672 0.11525554 -0.00607748
v -0.00928042 0.11785534 -0.00474929
v -0.00961748 0.11659319 -0.00472440
v -0.00965948 0.12045515 -0.00215267
v -0.00980333 0.11788050 -0.00343853
v -0.00996608 0.12045515 -0.00086557
v -0.01017399 0.12036289 0.00047756
v -0.01020969 0.12060611 0.00170740
v -0.01021599 0.12063126 0.00268331
v -0.00875122 0.10630300 -0.00906247
v -0.00965843 0.09987058 -0.00868530
v -0.01094575 0.09215084 -0.00713181
v -0.00965843 0.09858326 -0.00859443
v -0.01094995 0.08659062 0.00268331
v -0.01082920 0.08656546 0.00166757
v -0.01094575 0.08666610 0.00042154
v -0.01218267 0.08728670 0.00042154
v -0.01207032 0.08734959 -0.00086557
v -0.01097935 0.09091804 -0.00690526
v -0.01188236 0.08746282 -0.00215267
v -0.01170491 0.08757184 -0.00300161
v -0.01143611 0.08774376 -0.00385803
v -0.01098250 0.08799955 -0.00476423
v -0.01163036 0.08889689 -0.00540778
v -0.01097935 0.08955104 -0.00629780
v -0.01142981 0.09052806 -0.00655672
v -0.01047744 0.09987058 -0.00811519
v -0.01039974 0.10115791 -0.00804299
v -0.01011099 0.10630300 -0.00761852
v -0.01038294 0.10759032 -0.00682186
v -0.01032519 0.10836187 -0.00670236
v -0.01105810 0.09987058 -0.00729736
v -0.01152536 0.09987058 -0.00650319
v -0.01046904 0.10630300 -0.00697497
v -0.00988208 0.11530586 -0.00472440
v -0.01024854 0.10922149 -0.00651937
v -0.00992303 0.11916783 -0.00215267
v -0.01009839 0.11653867 -0.00335140
v -0.01016979 0.11788889 -0.00213400
v -0.01026954 0.11832079 -0.00131120
v -0.01020024 0.11918460 -0.00087552
v -0.01027269 0.11962069 0.00008669
v -0.01031364 0.11987229 0.00094435
v -0.01032939 0.11996034 0.00170740
v -0.01033464 0.11998551 0.00268331
v -0.01046379 0.09858326 -0.00808905
v -0.01163351 0.09138349 -0.00668866
v -0.01129855 0.08676674 0.00268331
v -0.01235802 0.08732444 0.00162649
v -0.01287148 0.08765151 0.00114352
v -0.01282633 0.08768925 0.00042154
v -0.01271398 0.08778570 -0.00086557
v -0.01252497 0.08794923 -0.00215267
v -0.01226142 0.08825953 -0.00348335
v -0.01189916 0.08865369 -0.00472440
v -0.01281898 0.08903947 -0.00396383
v -0.01255122 0.08951330 -0.00475800
v -0.01186976 0.08958040 -0.00564554
v -0.01206402 0.09091804 -0.00608121
v -0.01167656 0.09215084 -0.00672850
v -0.01228347 0.09215084 -0.00601150
v -0.01283893 0.09215084 -0.00528206
v -0.01070110 0.10759032 -0.00601150
v -0.01144451 0.10115791 -0.00629531
v -0.01169756 0.10115791 -0.00565176
v -0.01048899 0.10882313 -0.00605880
v -0.01026849 0.11188838 -0.00526837
v -0.01156946 0.09858326 -0.00661273
v -0.01277908 0.09343817 -0.00512771
v -0.01178471 0.09987058 -0.00585964
v -0.01011834 0.11404370 -0.00466714
v -0.01027584 0.11448819 -0.00397877
v -0.01020549 0.11530586 -0.00373355
v -0.01025169 0.11692864 -0.00255100
v -0.01032099 0.11606903 -0.00286344
v -0.01033884 0.11746538 -0.00169335
v -0.01040604 0.11788889 -0.00087552
v -0.01033989 0.11876528 -0.00045354
v -0.01056774 0.11788050 0.00042154
v -0.01037979 0.11918460 0.00047756
v -0.01064649 0.11788050 0.00170740
v -0.01045854 0.11916783 0.00170740
v -0.01036509 0.11979681 0.00268331
v -0.01279378 0.09086353 -0.00522853
v -0.01226037 0.08725315 0.00268331
v -0.01243782 0.08735798 0.00268331
v -0.01288933 0.08763474 0.00200117
v -0.01325998 0.08816728 0.00162649
v -0.01331249 0.08833501 0.00042154
v -0.01324529 0.08842726 -0.00086557
v -0.01312768 0.08859498 -0.00215267
v -0.01299328 0.08877949 -0.00310742
v -0.01317703 0.08951330 -0.00349704
v -0.01300378 0.08989908 -0.00435221
v -0.01309408 0.09086353 -0.00458498
v -0.01309303 0.09215084 -0.00463851
v -0.01112005 0.10759032 -0.00472440
v -0.01092685 0.10887345 -0.00472440
v -0.01157051 0.10295261 -0.00530944
v -0.01217532 0.09987058 -0.00472440
v -0.01049424 0.11145648 -0.00479410
v -0.01034094 0.11363276 -0.00420034
v -0.01302373 0.09343817 -0.00448415
v -0.01232967 0.09858326 -0.00472440
v -0.01087225 0.11144809 -0.00343853
v -0.01039659 0.11653867 -0.00213400
v -0.01077040 0.11401854 -0.00215267
v -0.01058034 0.11530586 -0.00215267
v -0.01106440 0.11016077 -0.00343853
v -0.01059924 0.11659319 -0.00086557
v -0.01078615 0.11530586 -0.00086557
v -0.01074415 0.11659319 0.00042154
v -0.01096780 0.11401854 -0.00086557
v -0.01114630 0.11273541 -0.00086557
v -0.01288198 0.10056666 -0.00028799
v -0.01069270 0.11757020 0.00268331
v -0.01065069 0.11788050 0.00268331
v -0.01050999 0.11885753 0.00268331
v -0.01046484 0.11916783 0.00268331
v -0.01337234 0.09730013 0.00042154
v -0.01354664 0.09601281 0.00042154
v -0.01341959 0.09730013 0.00170740
v -0.01289038 0.08763474 0.00268331
v -0.01321273 0.08808761 0.00268331
v -0.01333769 0.08826372 0.00268331
v -0.01395825 0.08958040 0.00170740
v -0.01390155 0.08958040 0.00042154
v -0.01378184 0.08958040 -0.00086557
v -0.01357184 0.08958040 -0.00215267
v -0.01349099 0.09086353 -0.00343853
v -0.01347209 0.09215084 -0.00343853
v -0.01200102 0.10115791 -0.00472440
v -0.01164191 0.10476408 -0.00426009
v -0.01158311 0.10561950 -0.00405346
v -0.01293868 0.09472549 -0.00426009
v -0.01288933 0.09548866 -0.00412317
v -0.01283788 0.09634407 -0.00392524
v -0.01278223 0.09730013 -0.00366633
v -0.01250187 0.09987058 -0.00343853
v -0.01333244 0.09343817 -0.00343853
v -0.01095310 0.11273541 -0.00215267
v -0.01125235 0.10887345 -0.00343853
v -0.01161146 0.10711229 -0.00290826
v -0.01162196 0.10847509 -0.00171451
v -0.01156316 0.10933470 -0.00128132
v -0.01289563 0.09937159 -0.00162986
v -0.01283578 0.10023120 -0.00114564
v -0.01309408 0.09858326 -0.00086557
v -0.01327049 0.09730013 -0.00086557
v -0.01344584 0.09601281 -0.00086557
v -0.01361804 0.09472549 -0.00086557
v -0.01359284 0.09601281 0.00170740
v -0.01358549 0.09601281 0.00268331
v -0.01371569 0.09472549 0.00042154
v -0.01395825 0.08958040 0.00268331
v -0.01410315 0.09086353 0.00170740
v -0.01405590 0.09086353 0.00042154
v -0.01395720 0.09086353 -0.00086557
v -0.01378079 0.09086353 -0.00215267
v -0.01374194 0.09215084 -0.00215267
v -0.01360544 0.09343817 -0.00215267
v -0.01232757 0.10115791 -0.00343853
v -0.01197266 0.10373255 -0.00343853
v -0.01175636 0.10512470 -0.00355181
v -0.01153586 0.10630300 -0.00382442
v -0.01270768 0.09848262 -0.00332775
v -0.01288198 0.09798782 -0.00282486
v -0.01292713 0.09730013 -0.00302278
v -0.01155161 0.10796771 -0.00257216
v -0.01113370 0.11144809 -0.00215267
v -0.01145186 0.10756097 -0.00337878
v -0.01166816 0.10630300 -0.00318211
v -0.01282423 0.09884743 -0.00248876
v -0.01149281 0.10889441 -0.00214645
v -0.01202937 0.10501987 -0.00215267
v -0.01220787 0.10373255 -0.00215267
v -0.01256277 0.10115791 -0.00215267
v -0.01275493 0.09982865 -0.00209666
v -0.01309093 0.09730013 -0.00215267
v -0.01326523 0.09601281 -0.00215267
v -0.01343849 0.09472549 -0.00215267
v -0.01377974 0.09343817 -0.00086557
v -0.01376084 0.09472549 0.00170740
v -0.01375349 0.09472549 0.00268331
v -0.01387424 0.09343817 0.00042154
v -0.01409790 0.09086353 0.00268331
v -0.01404750 0.09215084 0.00170740
v -0.01400445 0.09215084 0.00042154
v -0.01391100 0.09215084 -0.00086557
v -0.01391835 0.09343817 0.00170740
v -0.01391100 0.09343817 0.00268331
v -0.01404120 0.09215084 0.00268331
f 1 2 3
f 1 3 4
f 1 4 5
f 1 5 12
f 1 12 23
f 1 23 40
f 1 40 72
f 1 72 99
f 1 99 98
f 1 98 129
f 1 129 134
f 1 134 133
f 1 133 132
f 1 132 131
f 1 131 161
f 1 161 195
f 1 195 231
f 1 231 269
f 1 269 305
f 1 305 304
f 1 304 303
f 1 303 302
f 1 302 339
f 1 339 370
f 1 370 377
f 1 377 378
f 1 378 372
f 1 372 341
f 1 341 311
f 1 311 310
f 1 310 309
f 1 309 272
f 1 272 271
f 1 271 234
f 1 234 200
f 1 200 165
f 1 165 137
f 1 137 105
f 1 105 78
f 1 78 54
f 1 54 53
f 1 53 52
f 1 52 51
f 1 51 50
f 1 50 49
f 1 49 48
f 1 48 47
f 1 47 46
f 1 46 45
f 1 45 43
f 1 43 25
f 1 25 13
f 1 13 6
f 1 6 2
f 2 6 7
f 2 7 3
f 3 7 8
f 3 8 9
f 3 9 10
f 3 10 4
f 4 10 11
f 4 11 12
f 4 12 5
f 6 13 14
f 6 14 7
f 7 14 15
f 7 15 8
f 8 15 16
f 8 16 17
f 8 17 9
f 9 17 10
f 10 17 18
f 10 18 19
f 10 19 20
f 10 20 21
f 10 21 11
f 11 21 22
f 11 22 12
f 12 22 23
f 13 24 14
f 13 25 26
f 13 26 27
f 13 27 24
f 14 24 15
f 15 24 28
f 15 28 16
f 16 28 17
f 17 28 29
f 17 29 30
f 17 30 18
f 18 30 31
f 18 31 32
f 18 32 33
f 18 33 20
f 18 20 19
f 20 33 34
f 20 34 35
f 20 35 36
f 20 36 21
f 21 36 37
f 21 37 22
f 22 37 38
f 22 38 39
f 22 39 40
f 22 40 23
f 24 41 28
f 24 27 42
f 24 42 41
f 25 43 26
f 26 44 27
f 26 43 45
f 26 45 46
f 26 46 47
f 26 47 48
f 26 48 49
f 26 49 50
f 26 50 51
f 26 51 52
f 26 52 53
f 26 53 54
f 26 54 55
f 26 55 56
f 26 56 57
f 26 57 44
f 27 44 58
f 27 58 42
f 28 59 29
f 28 41 60
f 28 60 59
f 29 59 31
f 29 31 30
f 31 59 61
f 31 61 62
f 31 62 63
f 31 63 64
f 31 64 32
f 32 64 33
f 33 64 34
f 34 64 65
f 34 65 36
f 34 36 35
f 36 65 66
f 36 66 37
f 37 66 67
f 37 67 68
f 37 68 69
f 37 69 38
f 38 70 39
f 38 69 71
f 38 71 70
f 39 70 72
f 39 72 40
f 41 42 60
f 42 58 73
f 42 73 74
f 42 74 60
f 44 75 73
f 44 73 58
f 44 57 76
f 44 76 77
f 44 77 75
f 54 78 79
f 54 79 80
f 54 80 55
f 55 80 56
f 56 80 57
f 57 81 82
f 57 82 76
f 57 80 79
f 57 79 83
f 57 83 81
f 59 60 84
f 59 84 85
f 59 85 61
f 60 74 86
f 60 86 87
f 60 87 84
f 61 85 88
f 61 88 62
f 62 89 90
f 62 90 63
f 62 88 91
f 62 91 92
f 62 92 89
f 63 90 64
f 64 90 65
f 65 90 93
f 65 93 66
f 66 93 94
f 66 94 95
f 66 95 67
f 67 95 68
f 68 71 69
f 68 95 96
f 68 96 71
f 70 71 97
f 70 97 98
f 70 98 99
f 70 99 72
f 71 96 100
f 71 100 101
f 71 101 102
f 71 102 97
f 73 75 74
f 74 75 103
f 74 103 86
f 75 77 104
f 75 104 103
f 76 82 77
f 77 82 104
f 78 105 106
f 78 106 79
f 79 106 83
f 81 107 108
f 81 108 82
f 81 83 109
f 81 109 139
f 81 139 107
f 82 108 110
f 82 110 104
f 83 106 111
f 83 111 112
f 83 112 113
f 83 113 114
f 83 114 109
f 84 87 85
f 85 87 115
f 85 115 88
f 86 103 135
f 86 135 116
f 86 116 117
f 86 117 118
f 86 118 87
f 87 118 115
f 88 115 117
f 88 117 119
f 88 119 91
f 89 93 90
f 89 92 120
f 89 120 93
f 91 119 92
f 92 119 121
f 92 121 122
f 92 122 120
f 93 120 123
f 93 123 124
f 93 124 125
f 93 125 94
f 94 125 95
f 95 125 126
f 95 126 127
f 95 127 96
f 96 127 128
f 96 128 100
f 97 102 98
f 98 102 129
f 100 128 130
f 100 130 101
f 101 130 131
f 101 131 132
f 101 132 102
f 102 132 133
f 102 133 134
f 102 134 129
f 103 104 136
f 103 136 135
f 104 110 136
f 105 137 106
f 106 137 138
f 106 138 111
f 107 139 108
f 108 139 140
f 108 140 141
f 108 141 110
f 109 114 139
f 110 141 142
f 110 142 136
f 111 138 143
f 111 143 112
f 112 143 144
f 112 144 113
f 113 145 114
f 113 144 145
f 114 145 146
f 114 146 139
f 115 118 117
f 116 135 147
f 116 147 148
f 116 148 117
f 117 149 119
f 117 148 149
f 119 149 121
f 120 122 123
f 121 149 150
f 121 150 151
f 121 151 152
f 121 152 153
f 121 153 122
f 122 153 154
f 122 154 123
f 123 154 155
f 123 155 124
f 124 155 154
f 124 154 156
f 124 156 157
f 124 157 126
f 124 126 125
f 126 157 158
f 126 158 127
f 127 158 128
f 128 158 159
f 128 159 160
f 128 160 130
f 130 160 161
f 130 161 131
f 135 162 147
f 135 136 163
f 135 163 162
f 136 142 164
f 136 164 163
f 137 165 167
f 137 167 166
f 137 166 138
f 138 166 167
f 138 167 168
f 138 168 143
f 139 146 169
f 139 169 140
f 140 169 141
f 141 164 142
f 141 169 170
f 141 170 164
f 143 171 172
f 143 172 173
f 143 173 144
f 143 168 171
f 144 174 175
f 144 175 176
f 144 176 177
f 144 177 145
f 144 173 174
f 145 178 179
f 145 179 180
f 145 180 146
f 145 177 178
f 146 180 169
f 147 162 181
f 147 181 150
f 147 150 148
f 148 150 149
f 150 181 151
f 151 181 182
f 151 182 183
f 151 183 184
f 151 184 185
f 151 185 153
f 151 153 152
f 153 186 154
f 153 185 184
f 153 184 187
f 153 187 186
f 154 188 156
f 154 186 189
f 154 189 188
f 156 190 157
f 156 188 189
f 156 189 191
f 156 191 190
f 157 190 158
f 158 190 192
f 158 192 159
f 159 192 193
f 159 193 194
f 159 194 160
f 160 194 195
f 160 195 161
f 162 163 196
f 162 196 181
f 163 164 197
f 163 197 196
f 164 170 198
f 164 198 199
f 164 199 197
f 165 200 167
f 167 200 201
f 167 201 202
f 167 202 168
f 168 202 203
f 168 203 204
f 168 204 171
f 169 180 179
f 169 179 205
f 169 205 198
f 169 198 170
f 171 204 206
f 171 206 207
f 171 207 172
f 172 207 208
f 172 208 174
f 172 174 173
f 174 208 209
f 174 209 175
f 175 209 210
f 175 210 176
f 176 210 178
f 176 178 177
f 178 210 211
f 178 211 179
f 179 212 205
f 179 211 212
f 181 196 213
f 181 213 182
f 182 213 214
f 182 214 215
f 182 215 183
f 183 216 217
f 183 217 184
f 183 215 218
f 183 218 219
f 183 219 220
f 183 220 216
f 184 217 187
f 186 187 221
f 186 221 189
f 187 217 222
f 187 222 221
f 189 221 191
f 190 191 223
f 190 223 192
f 191 221 224
f 191 224 223
f 192 223 225
f 192 225 226
f 192 226 227
f 192 227 228
f 192 228 193
f 193 228 229
f 193 229 194
f 194 229 230
f 194 230 195
f 195 230 231
f 196 197 213
f 197 199 232
f 197 232 213
f 198 205 233
f 198 233 199
f 199 233 232
f 200 234 235
f 200 235 201
f 201 235 202
f 202 235 203
f 203 235 236
f 203 236 237
f 203 237 204
f 204 237 238
f 204 238 206
f 205 212 233
f 206 238 239
f 206 239 207
f 207 239 240
f 207 240 208
f 208 240 241
f 208 241 210
f 208 210 209
f 210 241 242
f 210 242 243
f 210 243 244
f 210 244 212
f 210 212 211
f 212 245 233
f 212 244 245
f 213 232 246
f 213 246 247
f 213 247 248
f 213 248 218
f 213 218 214
f 214 218 215
f 216 249 217
f 216 220 219
f 216 219 250
f 216 250 251
f 216 251 249
f 217 249 252
f 217 252 253
f 217 253 222
f 218 254 219
f 218 248 254
f 219 254 248
f 219 248 255
f 219 255 256
f 219 256 250
f 221 222 253
f 221 253 257
f 221 257 258
f 221 258 259
f 221 259 224
f 223 224 260
f 223 260 225
f 224 259 261
f 224 261 260
f 225 260 226
f 226 260 262
f 226 262 263
f 226 263 264
f 226 264 227
f 227 264 228
f 228 264 265
f 228 265 266
f 228 266 229
f 229 266 265
f 229 265 267
f 229 267 268
f 229 268 230
f 230 268 231
f 231 268 269
f 232 233 246
f 233 245 270
f 233 270 247
f 233 247 246
f 234 271 235
f 235 271 272
f 235 272 273
f 235 273 236
f 236 273 274
f 236 274 275
f 236 275 237
f 237 275 276
f 237 276 238
f 238 276 277
f 238 277 239
f 239 277 278
f 239 278 240
f 240 278 242
f 240 242 241
f 242 279 280
f 242 280 243
f 242 278 279
f 243 280 270
f 243 270 244
f 244 270 245
f 247 270 248
f 248 270 281
f 248 281 282
f 248 282 255
f 249 283 284
f 249 284 253
f 249 253 252
f 249 251 285
f 249 285 283
f 250 256 251
f 251 256 286
f 251 286 285
f 253 287 288
f 253 288 258
f 253 258 257
f 253 284 287
f 255 282 289
f 255 289 256
f 256 290 286
f 256 289 290
f 258 261 259
f 258 288 284
f 258 284 283
f 258 283 291
f 258 291 261
f 260 261 292
f 260 292 262
f 261 293 294
f 261 294 292
f 261 291 295
f 261 295 293
f 262 292 294
f 262 294 293
f 262 293 296
f 262 296 263
f 263 296 264
f 264 296 297
f 264 297 265
f 265 298 267
f 265 297 299
f 265 299 300
f 265 300 301
f 265 301 298
f 267 302 303
f 267 303 304
f 267 304 305
f 267 305 268
f 267 298 306
f 267 306 307
f 267 307 308
f 267 308 302
f 268 305 269
f 270 280 281
f 272 309 273
f 273 309 310
f 273 310 311
f 273 311 274
f 274 311 275
f 275 311 312
f 275 312 313
f 275 313 276
f 276 313 314
f 276 314 277
f 277 314 315
f 277 315 278
f 278 315 279
f 279 315 316
f 279 316 280
f 280 316 281
f 281 316 282
f 282 317 289
f 282 316 317
f 283 295 291
f 283 285 318
f 283 318 319
f 283 319 320
f 283 320 295
f 284 288 287
f 285 286 318
f 286 290 289
f 286 289 321
f 286 321 322
f 286 322 323
f 286 323 324
f 286 324 325
f 286 325 320
f 286 320 319
f 286 319 318
f 289 317 326
f 289 326 321
f 293 327 297
f 293 297 296
f 293 295 328
f 293 328 329
f 293 329 327
f 295 320 328
f 297 327 330
f 297 330 299
f 298 301 306
f 299 330 331
f 299 331 300
f 300 331 332
f 300 332 333
f 300 333 334
f 300 334 301
f 301 334 335
f 301 335 336
f 301 336 337
f 301 337 307
f 301 307 306
f 302 308 338
f 302 338 339
f 307 337 340
f 307 340 338
f 307 338 308
f 311 341 312
f 312 341 342
f 312 342 343
f 312 343 313
f 313 343 344
f 313 344 314
f 314 344 345
f 314 345 315
f 315 345 316
f 316 345 317
f 317 346 347
f 317 347 326
f 317 345 346
f 320 325 348
f 320 348 349
f 320 349 350
f 320 350 351
f 320 351 328
f 321 326 322
f 322 326 323
f 323 326 324
f 324 352 325
f 324 326 352
f 325 352 353
f 325 353 348
f 326 347 353
f 326 353 354
f 326 354 352
f 327 329 355
f 327 355 356
f 327 356 330
f 328 357 329
f 328 351 357
f 329 358 349
f 329 349 348
f 329 348 353
f 329 353 359
f 329 359 355
f 329 357 358
f 330 356 360
f 330 360 355
f 330 355 361
f 330 361 362
f 330 362 332
f 330 332 331
f 332 362 363
f 332 363 364
f 332 364 359
f 332 359 365
f 332 365 366
f 332 366 367
f 332 367 337
f 332 337 336
f 332 336 335
f 332 335 333
f 333 335 334
f 337 367 347
f 337 347 368
f 337 368 340
f 338 340 369
f 338 369 370
f 338 370 339
f 340 368 371
f 340 371 369
f 341 372 342
f 342 372 373
f 342 373 374
f 342 374 343
f 343 374 375
f 343 375 344
f 344 375 346
f 344 346 345
f 346 375 368
f 346 368 347
f 347 367 353
f 349 358 350
f 350 358 351
f 351 358 357
f 352 354 353
f 353 367 366
f 353 366 359
f 355 360 356
f 355 359 362
f 355 362 361
f 359 366 365
f 359 364 363
f 359 363 362
f 368 375 371
f 369 371 376
f 369 376 377
f 369 377 370
f 371 375 374
f 371 374 376
f 372 378 373
f 373 378 376
f 373 376 374
f 376 378 377

