# https://github.com/mikedh/trimesh
v 0.01181615 -0.01675142 0.00000935
v 0.01181742 -0.01675142 -0.00060960
v 0.01003905 -0.01675142 0.00000935
v 0.01143252 -0.04160095 0.00000935
v 0.01143294 -0.04252287 -0.00109111
v 0.01181742 -0.01675142 -0.00063648
v 0.00913924 -0.01675142 -0.00507764
v 0.00759155 -0.08864686 0.00000935
v 0.01129869 -0.04870886 0.00000935
v 0.01131186 -0.04870886 -0.00063648
v 0.01143294 -0.04252287 -0.00127286
v 0.01180935 -0.01675142 -0.00177926
v 0.01158036 -0.01675142 -0.00507764
v 0.00750106 -0.08753492 -0.00507764
v 0.00747727 -0.08864686 -0.00507764
v 0.00964310 -0.08864686 0.00000935
v 0.01128637 -0.04934927 0.00000935
v 0.01127660 -0.04984894 0.00000935
v 0.01128935 -0.04984894 -0.00063648
v 0.01128722 -0.04984894 -0.00177926
v 0.01130931 -0.04870886 -0.00177926
v 0.01128340 -0.04870886 -0.00292055
v 0.01142997 -0.04121389 -0.00230061
v 0.01178513 -0.01675142 -0.00292055
v 0.01174052 -0.01675142 -0.00406283
v 0.01156761 -0.01786335 -0.00507764
v 0.00954411 -0.08864686 -0.00507764
v 0.00968898 -0.08864686 -0.00063648
v 0.01089552 -0.06241093 0.00000935
v 0.01119461 -0.05326918 0.00000935
v 0.01118059 -0.05440926 -0.00063648
v 0.01118016 -0.05440926 -0.00177926
v 0.01126258 -0.04984894 -0.00292055
v 0.01118399 -0.05326918 -0.00292055
v 0.01121925 -0.04984894 -0.00406283
v 0.01143252 -0.03906744 -0.00350513
v 0.01143591 -0.04045383 -0.00254858
v 0.01143294 -0.03450711 -0.00463994
v 0.01147840 -0.02815222 -0.00485655
v 0.01149497 -0.02586503 -0.00492726
v 0.01150346 -0.02472495 -0.00496062
v 0.01151196 -0.02358486 -0.00499299
v 0.01153533 -0.02040390 -0.00507764
v 0.01072813 -0.06241093 -0.00507764
v 0.00964564 -0.08864686 -0.00406283
v 0.00972721 -0.08864686 -0.00177926
v 0.01091676 -0.06241093 -0.00063648
v 0.01094565 -0.06127085 0.00000935
v 0.01116657 -0.05440926 0.00000935
v 0.01114872 -0.05554934 -0.00063648
v 0.01114915 -0.05554934 -0.00177926
v 0.01115425 -0.05440926 -0.00292055
v 0.01119461 -0.05098902 -0.00406283
v 0.01116487 -0.05213614 -0.00406283
v 0.01112451 -0.04997562 -0.00507764
v 0.01112706 -0.04984894 -0.00507764
v 0.01114533 -0.04870886 -0.00507764
v 0.01134245 -0.03492233 -0.00507764
v 0.01077784 -0.06127085 -0.00507764
v 0.01087598 -0.06127085 -0.00406283
v 0.01082585 -0.06241093 -0.00406283
v 0.00970767 -0.08864686 -0.00295391
v 0.01089127 -0.06241093 -0.00292055
v 0.00972679 -0.08864686 -0.00181213
v 0.01092271 -0.06241093 -0.00177926
v 0.01096647 -0.06127085 -0.00063648
v 0.01098686 -0.06012373 0.00000935
v 0.01113258 -0.05554934 0.00000935
v 0.01107608 -0.05789284 -0.00063648
v 0.01101023 -0.06012373 -0.00177926
v 0.01104506 -0.05898365 -0.00177926
v 0.01107820 -0.05789284 -0.00177926
v 0.01113258 -0.05326918 -0.00406283
v 0.01111941 -0.05554934 -0.00292055
v 0.01109604 -0.05111570 -0.00507764
v 0.01081268 -0.06025041 -0.00507764
v 0.01091591 -0.06012373 -0.00406283
v 0.01093970 -0.06127085 -0.00292055
v 0.00970937 -0.08864686 -0.00292055
v 0.01097157 -0.06127085 -0.00177926
v 0.01100640 -0.06012373 -0.00063648
v 0.01102340 -0.05898365 0.00000935
v 0.01097879 -0.06012373 -0.00292055
v 0.01104889 -0.05789284 -0.00286876
v 0.01106163 -0.05225578 -0.00507764
v 0.01109689 -0.05440926 -0.00406283
v 0.01081692 -0.06012373 -0.00507764
f 1 2 6
f 1 6 12
f 1 12 24
f 1 24 25
f 1 25 13
f 1 13 7
f 1 7 3
f 1 3 8
f 1 8 16
f 1 16 29
f 1 29 48
f 1 48 67
f 1 67 82
f 1 82 68
f 1 68 49
f 1 49 30
f 1 30 18
f 1 18 17
f 1 17 9
f 1 9 4
f 1 4 5
f 1 5 2
f 2 5 11
f 2 11 6
f 3 7 8
f 4 9 10
f 4 10 5
f 5 10 11
f 6 11 12
f 7 13 26
f 7 26 43
f 7 43 58
f 7 58 57
f 7 57 56
f 7 56 55
f 7 55 75
f 7 75 85
f 7 85 87
f 7 87 76
f 7 76 59
f 7 59 44
f 7 44 27
f 7 27 15
f 7 15 14
f 7 14 8
f 8 14 15
f 8 15 27
f 8 27 45
f 8 45 62
f 8 62 79
f 8 79 64
f 8 64 46
f 8 46 28
f 8 28 16
f 9 17 10
f 10 17 18
f 10 18 19
f 10 19 11
f 11 19 20
f 11 20 21
f 11 21 22
f 11 22 23
f 11 23 24
f 11 24 12
f 13 25 26
f 16 28 29
f 18 30 31
f 18 31 19
f 19 31 32
f 19 32 20
f 20 33 21
f 20 32 34
f 20 34 33
f 21 33 22
f 22 33 35
f 22 35 36
f 22 36 23
f 23 36 37
f 23 37 24
f 24 37 36
f 24 36 25
f 25 36 38
f 25 38 39
f 25 39 40
f 25 40 41
f 25 41 26
f 26 41 42
f 26 42 43
f 27 44 45
f 28 46 29
f 29 47 48
f 29 46 47
f 30 49 31
f 31 49 50
f 31 50 51
f 31 51 32
f 32 51 52
f 32 52 34
f 33 34 53
f 33 53 35
f 34 52 54
f 34 54 53
f 35 53 55
f 35 55 56
f 35 56 38
f 35 38 36
f 38 56 57
f 38 57 58
f 38 58 39
f 39 58 40
f 40 58 41
f 41 58 42
f 42 58 43
f 44 59 60
f 44 60 61
f 44 61 45
f 45 61 63
f 45 63 62
f 46 64 65
f 46 65 47
f 47 65 66
f 47 66 48
f 48 66 67
f 49 68 50
f 50 68 69
f 50 69 70
f 50 70 71
f 50 71 72
f 50 72 51
f 51 72 52
f 52 73 54
f 52 72 71
f 52 71 70
f 52 70 74
f 52 74 73
f 53 54 75
f 53 75 55
f 54 73 75
f 59 76 77
f 59 77 60
f 60 77 78
f 60 78 63
f 60 63 61
f 62 63 79
f 63 78 80
f 63 80 65
f 63 65 79
f 64 79 65
f 65 80 66
f 66 80 81
f 66 81 67
f 67 81 82
f 68 82 81
f 68 81 69
f 69 81 70
f 70 81 80
f 70 80 83
f 70 83 84
f 70 84 74
f 73 85 75
f 73 74 83
f 73 83 86
f 73 86 87
f 73 87 85
f 74 84 83
f 76 87 77
f 77 83 78
f 77 87 86
f 77 86 83
f 78 83 80

