# https://github.com/mikedh/trimesh
v -0.01522880 0.08376953 -0.00179884
v -0.01522880 0.08379211 -0.00179884
v -0.01503329 0.08265199 -0.00292113
v -0.01502760 0.08151186 -0.00292113
v -0.01521836 0.08262941 -0.00179884
v -0.01522216 0.08492094 -0.00179884
v -0.01485867 0.08265199 -0.00351588
v -0.01486057 0.08151186 -0.00351991
v -0.01485962 0.08116193 -0.00351876
v -0.01500862 0.08493223 -0.00285849
v -0.01498774 0.08385984 -0.00302973
v -0.01497540 0.08116193 -0.00310214
v -0.01484538 0.07920905 -0.00350209
v -0.01483969 0.07862206 -0.00349347
v -0.01502286 0.08116193 -0.00292113
v -0.01504943 0.08058623 -0.00269414
v -0.01519748 0.08148929 -0.00179884
v -0.01518324 0.08604977 -0.00179884
v -0.01485108 0.08352119 -0.00350612
v -0.01426836 0.08151186 -0.00395319
v -0.01426836 0.08116193 -0.00395606
v -0.01426741 0.08036046 -0.00396296
v -0.01352240 0.07236833 -0.00455599
v -0.01352810 0.07120564 -0.00455657
v -0.01352999 0.07007680 -0.00455542
v -0.01352904 0.06893669 -0.00455312
v -0.01352810 0.06779657 -0.00454967
v -0.01352810 0.06664516 -0.00454450
v -0.01485582 0.08036046 -0.00351588
v -0.01145157 -0.01098458 -0.00582021
v -0.01483399 0.08427750 -0.00348198
v -0.01518230 0.08607235 -0.00179884
v -0.01498110 0.08607235 -0.00272172
v -0.01142025 -0.01556763 -0.00578746
v -0.01141360 -0.01626751 -0.00577941
v -0.01482735 0.07785446 -0.00345325
v -0.01498394 0.07920905 -0.00292113
v -0.01501052 0.08036046 -0.00292113
v -0.01134527 -0.02444025 -0.00554094
v -0.01137944 -0.02444025 -0.00540302
v -0.01518989 0.08116193 -0.00179884
v -0.01426836 0.08265199 -0.00393193
v -0.01437940 0.08385984 -0.00381413
v -0.01346925 0.07692882 -0.00453703
v -0.01348729 0.07578870 -0.00454450
v -0.01351481 0.07349717 -0.00455312
v -0.00997484 -0.02444025 -0.00679941
v -0.01145821 -0.00871562 -0.00582538
v -0.01145536 -0.00985575 -0.00582366
v -0.01144492 -0.01214727 -0.00581447
v -0.01143828 -0.01327611 -0.00580757
v -0.01142974 -0.01441623 -0.00579838
v -0.01017319 -0.02444025 -0.00666149
v -0.01077204 -0.02444025 -0.00622821
v -0.01480362 0.08493223 -0.00342911
v -0.01423229 0.08493223 -0.00384918
v -0.01505892 0.08722376 -0.00179884
v -0.01490707 0.08722376 -0.00250451
v -0.01470682 0.08607235 -0.00329292
v -0.01091061 -0.02444025 -0.00606846
v -0.01494124 0.07692882 -0.00282803
v -0.01148573 -0.02444025 -0.00496974
v -0.01340472 0.08116193 -0.00179884
v -0.01492036 0.07579998 -0.00274931
v -0.01492890 0.07585643 -0.00269414
v -0.01490802 0.07511140 -0.00269414
v -0.01158633 -0.02444025 -0.00406352
v -0.01162999 -0.02444025 -0.00292113
v -0.01163473 -0.02444025 -0.00269414
v -0.01333069 0.08265199 -0.00447956
v -0.01337150 0.08151186 -0.00449680
v -0.01338099 0.08116193 -0.00450140
v -0.01340377 0.08034917 -0.00451060
v -0.01342655 0.07920905 -0.00451979
v -0.01285522 0.07920905 -0.00475425
v -0.01289887 0.07692882 -0.00477091
v -0.01291596 0.07578870 -0.00477781
v -0.01293019 0.07463729 -0.00478355
v -0.01294253 0.07349717 -0.00478930
v -0.00954302 -0.02444025 -0.00696318
v -0.01413549 0.08607235 -0.00378252
v -0.01319972 0.08493223 -0.00442038
v -0.01327755 0.08379211 -0.00445600
v -0.01490327 0.08799136 -0.00179884
v -0.01484918 0.08781075 -0.00236832
v -0.01450752 0.08722376 -0.00307571
v -0.01393714 0.08722376 -0.00365150
v -0.01151136 -0.02444025 -0.00474505
v -0.01336581 0.08117321 -0.00179884
v -0.00987614 -0.02444025 -0.00269414
v -0.01276031 0.08265199 -0.00471747
v -0.01270622 0.08379211 -0.00469621
v -0.01280112 0.08151186 -0.00473298
v -0.01283244 0.08034917 -0.00474563
v -0.01198304 0.07806893 -0.00509099
v -0.01198304 0.07692882 -0.00510650
v -0.01198304 0.07578870 -0.00512029
v -0.01198304 0.07463729 -0.00513294
v -0.01198304 0.07236833 -0.00515650
v -0.01198304 0.07120564 -0.00516799
v -0.00940351 -0.02444025 -0.00701490
v -0.01302320 0.08600462 -0.00437728
v -0.01257430 0.08556437 -0.00464219
v -0.01262934 0.08493223 -0.00466460
v -0.01394378 0.09088117 -0.00179884
v -0.01373784 0.09026031 -0.00238958
v -0.01377105 0.08790106 -0.00354117
v -0.01312570 0.08722376 -0.00407387
v -0.01264358 0.08836388 -0.00179884
v -0.00553327 -0.02444025 -0.00674712
v -0.00993593 -0.02036516 -0.00269414
v -0.01263314 0.08872511 -0.00179884
v -0.01198399 0.08265199 -0.00500249
v -0.01198399 0.08379211 -0.00496284
v -0.01198399 0.08493223 -0.00490480
v -0.01198399 0.08151186 -0.00503237
v -0.01198304 0.08034917 -0.00505651
v -0.01027569 0.06501965 -0.00577711
v -0.01029087 0.06435363 -0.00578171
v -0.01036395 0.06094456 -0.00580470
v -0.01040951 0.05864174 -0.00582021
v -0.01043133 0.05751291 -0.00582768
v -0.01100077 0.05751291 -0.00563977
v -0.00855885 -0.02444025 -0.00728211
v -0.01044842 0.05637279 -0.00583400
v -0.01244997 0.08633198 -0.00458070
v -0.01203523 0.08600462 -0.00479275
v -0.01302035 0.09059896 -0.00179884
v -0.01238354 0.08900731 -0.00355496
v -0.01345787 0.09026031 -0.00238958
v -0.01268344 0.08900731 -0.00355496
v -0.01308868 0.08831873 -0.00370150
v -0.01344458 0.08865738 -0.00334981
v -0.01142784 0.08779946 -0.00463932
v -0.01220132 0.08722376 -0.00448589
v -0.00995396 -0.01922505 -0.00269414
v -0.00553327 -0.02444025 -0.00725683
v -0.00560540 -0.02127952 -0.00679998
v -0.00555320 -0.02357105 -0.00675861
v -0.01009632 0.08493223 -0.00438532
v -0.01007544 0.08379211 -0.00437958
v -0.01266730 0.08954915 -0.00179884
v -0.01084133 0.08151186 -0.00525131
v -0.01084038 0.08116193 -0.00526338
v -0.01084038 0.08034917 -0.00528867
v -0.01084038 0.07920905 -0.00531970
v -0.01084133 0.08379211 -0.00516512
v -0.01084133 0.08265199 -0.00521109
v -0.01084133 0.08493223 -0.00510306
v -0.01198304 0.08116193 -0.00503984
v -0.01026620 0.06501965 -0.00577711
v -0.00800840 0.01833117 -0.00692238
v -0.00804067 0.01756357 -0.00693043
v -0.00808148 0.01642345 -0.00694135
v -0.00811469 0.01528333 -0.00694997
v -0.00814317 0.01413192 -0.00695859
v -0.00817164 0.01299180 -0.00696606
v -0.00822384 0.01071156 -0.00698215
v -0.00824661 0.00963917 -0.00698962
v -0.00829691 0.00729120 -0.00700513
v -0.00836524 0.00384827 -0.00702927
v -0.00838707 0.00270815 -0.00703674
v -0.00840700 0.00156803 -0.00704421
v -0.00741714 -0.02127952 -0.00756599
v -0.00741714 -0.02241964 -0.00757690
v -0.00741714 -0.02444025 -0.00759529
v -0.01163094 0.08722376 -0.00471919
v -0.01084133 0.08607235 -0.00498640
v -0.01123139 0.08804781 -0.00333430
v -0.01021210 0.08678351 -0.00450715
v -0.01021210 0.08678351 -0.00470655
v -0.01126365 0.08799136 -0.00406295
v -0.01139462 0.08779946 -0.00463932
v -0.00570884 -0.02444025 -0.00735567
v -0.00662658 -0.00300374 -0.00713443
v -0.00665505 -0.00185233 -0.00710914
v -0.00671104 0.00042791 -0.00705628
v -0.00674047 0.00156803 -0.00702812
v -0.00676894 0.00270815 -0.00699824
v -0.00679836 0.00384827 -0.00696893
v -0.00682778 0.00499968 -0.00693732
v -0.00684391 0.00560924 -0.00692008
v -0.00555320 -0.02357105 -0.00721947
v -0.00569935 -0.01719315 -0.00692468
v -0.00569935 -0.01719315 -0.00691204
v -0.00563292 -0.02013940 -0.00682527
v -0.01014567 0.08607235 -0.00441635
v -0.01117349 0.08722376 -0.00331821
v -0.00798657 0.03642634 -0.00577252
v -0.01009632 0.08493223 -0.00486343
v -0.00912449 0.05933033 -0.00578171
v -0.01014567 0.08607235 -0.00479275
v -0.00797898 0.01833117 -0.00692238
v -0.00741714 -0.00756422 -0.00739417
v -0.00741714 -0.00871562 -0.00741313
v -0.00741714 -0.00985575 -0.00742922
v -0.00741714 -0.01098458 -0.00744416
v -0.00741714 -0.01214727 -0.00745853
v -0.00741714 -0.01441623 -0.00748611
v -0.00741714 -0.02013940 -0.00755334
v -0.00655065 -0.02444025 -0.00765850
v -0.01094477 0.08718989 -0.00474505
v -0.00627448 -0.02444025 -0.00766827
v -0.00668352 -0.00072350 -0.00708328
v -0.00563292 -0.02013940 -0.00706375
v -0.00798657 0.03642634 -0.00577941
f 1 2 3
f 1 3 4
f 1 4 5
f 1 5 17
f 1 17 41
f 1 41 63
f 1 63 89
f 1 89 109
f 1 109 112
f 1 112 142
f 1 142 128
f 1 128 105
f 1 105 84
f 1 84 57
f 1 57 32
f 1 32 18
f 1 18 6
f 1 6 2
f 2 6 3
f 3 7 8
f 3 8 9
f 3 9 4
f 3 6 10
f 3 10 11
f 3 11 7
f 4 9 12
f 4 12 13
f 4 13 14
f 4 14 15
f 4 15 5
f 5 15 16
f 5 16 17
f 6 18 10
f 7 11 19
f 7 19 20
f 7 20 21
f 7 21 22
f 7 22 23
f 7 23 8
f 8 23 24
f 8 24 25
f 8 25 26
f 8 26 27
f 8 27 28
f 8 28 9
f 9 29 12
f 9 28 30
f 9 30 29
f 10 31 19
f 10 19 11
f 10 18 32
f 10 32 33
f 10 33 31
f 12 29 13
f 13 34 35
f 13 35 14
f 13 29 34
f 14 36 37
f 14 37 38
f 14 38 15
f 14 35 39
f 14 39 40
f 14 40 36
f 15 38 16
f 16 38 37
f 16 37 41
f 16 41 17
f 19 42 20
f 19 31 43
f 19 43 42
f 20 42 44
f 20 44 45
f 20 45 46
f 20 46 21
f 21 46 22
f 22 46 23
f 23 46 47
f 23 47 24
f 24 47 25
f 25 47 48
f 25 48 26
f 26 48 49
f 26 49 27
f 27 49 28
f 28 49 30
f 29 30 50
f 29 50 51
f 29 51 52
f 29 52 34
f 30 49 53
f 30 53 54
f 30 54 50
f 31 33 55
f 31 55 56
f 31 56 43
f 32 57 58
f 32 58 33
f 33 58 59
f 33 59 55
f 34 52 54
f 34 54 35
f 35 54 60
f 35 60 39
f 36 61 37
f 36 40 62
f 36 62 61
f 37 61 41
f 39 60 54
f 39 54 53
f 39 53 47
f 39 47 80
f 39 80 101
f 39 101 124
f 39 124 166
f 39 166 201
f 39 201 203
f 39 203 174
f 39 174 137
f 39 137 110
f 39 110 90
f 39 90 69
f 39 69 68
f 39 68 67
f 39 67 88
f 39 88 62
f 39 62 40
f 41 61 64
f 41 64 65
f 41 65 66
f 41 66 67
f 41 67 68
f 41 68 69
f 41 69 90
f 41 90 63
f 42 43 70
f 42 70 71
f 42 71 72
f 42 72 73
f 42 73 74
f 42 74 44
f 43 56 70
f 44 74 75
f 44 75 76
f 44 76 45
f 45 76 77
f 45 77 78
f 45 78 79
f 45 79 46
f 46 79 47
f 47 53 49
f 47 49 48
f 47 79 80
f 50 54 51
f 51 54 52
f 55 59 81
f 55 81 56
f 56 82 83
f 56 83 70
f 56 81 82
f 57 84 85
f 57 85 58
f 58 85 59
f 59 85 86
f 59 86 87
f 59 87 81
f 61 62 64
f 62 88 66
f 62 66 64
f 63 90 89
f 64 66 65
f 66 88 67
f 70 91 71
f 70 83 92
f 70 92 91
f 71 91 93
f 71 93 72
f 72 93 73
f 73 94 74
f 73 93 94
f 74 94 75
f 75 94 95
f 75 95 76
f 76 96 97
f 76 97 77
f 76 95 96
f 77 97 98
f 77 98 99
f 77 99 100
f 77 100 78
f 78 100 80
f 78 80 79
f 80 100 101
f 81 102 82
f 81 87 102
f 82 102 103
f 82 103 104
f 82 104 83
f 83 104 92
f 84 105 85
f 85 105 106
f 85 106 86
f 86 106 107
f 86 107 87
f 87 107 108
f 87 108 102
f 89 90 109
f 90 110 111
f 90 111 112
f 90 112 109
f 91 113 93
f 91 92 114
f 91 114 113
f 92 104 115
f 92 115 114
f 93 113 116
f 93 116 94
f 94 116 117
f 94 117 95
f 95 117 118
f 95 118 119
f 95 119 96
f 96 119 120
f 96 120 121
f 96 121 122
f 96 122 97
f 97 122 98
f 98 122 123
f 98 123 99
f 99 123 101
f 99 101 100
f 101 123 125
f 101 125 122
f 101 122 124
f 102 108 126
f 102 126 103
f 103 126 127
f 103 127 115
f 103 115 104
f 105 128 129
f 105 129 130
f 105 130 106
f 106 130 129
f 106 129 131
f 106 131 132
f 106 132 133
f 106 133 107
f 107 133 132
f 107 132 134
f 107 134 108
f 108 135 126
f 108 134 135
f 110 136 111
f 110 137 138
f 110 138 139
f 110 139 140
f 110 140 141
f 110 141 112
f 110 112 136
f 111 136 112
f 112 141 140
f 112 140 142
f 113 114 143
f 113 143 144
f 113 144 145
f 113 145 146
f 113 146 116
f 114 147 148
f 114 148 143
f 114 115 147
f 115 127 149
f 115 149 147
f 116 150 117
f 116 146 118
f 116 118 150
f 117 150 118
f 118 151 193
f 118 193 152
f 118 152 153
f 118 153 154
f 118 154 155
f 118 155 156
f 118 156 157
f 118 157 158
f 118 158 119
f 118 146 145
f 118 145 144
f 118 144 151
f 119 158 159
f 119 159 120
f 120 159 160
f 120 160 161
f 120 161 121
f 121 161 122
f 122 125 123
f 122 161 162
f 122 162 163
f 122 163 124
f 124 164 165
f 124 165 166
f 124 163 164
f 126 135 167
f 126 167 127
f 127 168 149
f 127 167 168
f 128 142 169
f 128 169 170
f 128 170 171
f 128 171 172
f 128 172 173
f 128 173 129
f 129 173 134
f 129 134 131
f 131 134 132
f 134 167 135
f 134 173 168
f 134 168 167
f 137 174 175
f 137 175 176
f 137 176 177
f 137 177 178
f 137 178 179
f 137 179 180
f 137 180 181
f 137 181 182
f 137 182 183
f 137 183 184
f 137 184 138
f 138 184 185
f 138 185 186
f 138 186 140
f 138 140 139
f 140 187 188
f 140 188 142
f 140 186 185
f 140 185 189
f 140 189 187
f 142 188 169
f 143 148 151
f 143 151 144
f 147 149 190
f 147 190 191
f 147 191 148
f 148 191 151
f 149 168 192
f 149 192 190
f 151 191 193
f 152 193 194
f 152 194 195
f 152 195 153
f 153 195 154
f 154 195 196
f 154 196 155
f 155 196 197
f 155 197 156
f 156 158 157
f 156 197 158
f 158 197 198
f 158 198 159
f 159 161 160
f 159 198 199
f 159 199 161
f 161 199 200
f 161 200 162
f 162 200 163
f 163 200 164
f 164 200 201
f 164 201 165
f 165 201 166
f 168 173 202
f 168 202 171
f 168 171 192
f 169 188 187
f 169 187 170
f 170 187 192
f 170 192 171
f 171 202 173
f 171 173 172
f 174 203 175
f 175 203 176
f 176 204 177
f 176 203 193
f 176 193 204
f 177 204 193
f 177 193 178
f 178 193 180
f 178 180 179
f 180 193 181
f 181 193 182
f 182 193 191
f 182 191 184
f 182 184 205
f 182 205 183
f 183 205 184
f 184 191 206
f 184 206 189
f 184 189 185
f 187 189 206
f 187 206 192
f 190 192 206
f 190 206 191
f 193 203 194
f 194 203 195
f 195 203 196
f 196 203 201
f 196 201 197
f 197 201 198
f 198 201 199
f 199 201 200

