# https://github.com/mikedh/trimesh
v 0.00541107 -0.09619728 -0.00684432
v 0.00541107 -0.09618941 -0.00738724
v 0.00746862 -0.09710986 -0.00507796
v 0.00700300 -0.09668504 -0.00507796
v 0.00658086 -0.09553644 -0.00507796
v 0.00541107 -0.09603207 -0.00679434
v 0.00541107 -0.09618154 -0.00758390
v 0.00847475 -0.09687385 -0.00507796
v 0.00541107 -0.09611861 -0.00798988
v 0.00541107 -0.09610287 -0.00806192
v 0.00546663 -0.09611074 -0.00806322
v 0.00743420 -0.09637036 -0.00735057
v 0.00825251 -0.09633102 -0.00718572
v 0.00541107 -0.09553644 -0.00670478
v 0.00650718 -0.09438784 -0.00507796
v 0.00857379 -0.09676371 -0.00507796
v 0.00541107 -0.09603207 -0.00806776
v 0.00541107 -0.09585900 -0.00807912
v 0.00575893 -0.09611074 -0.00806322
v 0.00844999 -0.09642543 -0.00634748
v 0.00743420 -0.09553644 -0.00784514
v 0.00841134 -0.09553644 -0.00734343
v 0.00899352 -0.09552857 -0.00627025
v 0.00911188 -0.09590619 -0.00563354
v 0.00915839 -0.09608714 -0.00507796
v 0.00541107 -0.09526896 -0.00668174
v 0.00541107 -0.07954262 -0.00627187
v 0.00541107 -0.08068335 -0.00628712
v 0.00541107 -0.08182408 -0.00630984
v 0.00541107 -0.08639486 -0.00640460
v 0.00541107 -0.08753559 -0.00642861
v 0.00541107 -0.09210638 -0.00654025
v 0.00541107 -0.09324712 -0.00657562
v 0.00541107 -0.09438784 -0.00661748
v 0.00650537 -0.09324712 -0.00507796
v 0.00541107 -0.07040104 -0.00616835
v 0.00541107 -0.07154177 -0.00617354
v 0.00541107 -0.09133541 -0.00831375
v 0.00594312 -0.09553644 -0.00807912
v 0.00651443 -0.09553644 -0.00799117
v 0.00743420 -0.09438784 -0.00790647
v 0.00845784 -0.09438784 -0.00736907
v 0.00906659 -0.09210638 -0.00665610
v 0.00904847 -0.09324712 -0.00657951
v 0.00902794 -0.09438784 -0.00648930
v 0.00916201 -0.09514309 -0.00583799
v 0.00920972 -0.09552857 -0.00523373
v 0.00919522 -0.09579606 -0.00507796
v 0.00541107 -0.05985912 -0.00624234
v 0.00541107 -0.06099985 -0.00622708
v 0.00541107 -0.06214845 -0.00621865
v 0.00541107 -0.06900070 -0.00617581
v 0.00541107 -0.07014143 -0.00616900
v 0.00654463 -0.09210638 -0.00507796
v 0.00725302 -0.01675525 -0.00592950
v 0.00541107 -0.03931024 -0.00656166
v 0.00541107 -0.04045097 -0.00654317
v 0.00541107 -0.08866059 -0.00839293
v 0.00665695 -0.09438784 -0.00802687
v 0.01030160 -0.05670441 -0.00692967
v 0.01029496 -0.05783728 -0.00692350
v 0.01029013 -0.05845877 -0.00691928
v 0.00857621 -0.04985217 -0.00748557
v 0.00971822 -0.05099289 -0.00715456
v 0.00971822 -0.05213362 -0.00715651
v 0.00971822 -0.05327435 -0.00715813
v 0.00971822 -0.05442295 -0.00715813
v 0.00971822 -0.05556368 -0.00715554
v 0.01030644 -0.05556368 -0.00693356
v 0.00914510 -0.08690622 -0.00691279
v 0.00910041 -0.08982492 -0.00678396
v 0.00908350 -0.09096565 -0.00672360
v 0.01027564 -0.05921402 -0.00690501
v 0.01047130 -0.06240806 -0.00622514
v 0.01044594 -0.06354879 -0.00616413
v 0.01041937 -0.06468952 -0.00610085
v 0.01039159 -0.06583026 -0.00603464
v 0.01036320 -0.06697885 -0.00596520
v 0.01033422 -0.06811958 -0.00589283
v 0.01029073 -0.06985034 -0.00577892
v 0.00920791 -0.09324712 -0.00600836
v 0.00918254 -0.09438784 -0.00591814
v 0.01071589 -0.06240806 -0.00520517
v 0.00934198 -0.09324712 -0.00520517
v 0.00928883 -0.09438784 -0.00520517
v 0.00929125 -0.09452158 -0.00507796
v 0.00922300 -0.09552857 -0.00507796
v 0.00913846 -0.01675525 -0.00507796
v 0.00723007 -0.01675525 -0.00594216
v 0.00541107 -0.03816951 -0.00658990
v 0.00552159 -0.02586536 -0.00672944
v 0.00550468 -0.02700609 -0.00672457
v 0.00541107 -0.04071059 -0.00806452
v 0.00571061 -0.03414156 -0.00806387
v 0.00573658 -0.03414156 -0.00806387
v 0.00857621 -0.04871143 -0.00748200
v 0.01142368 -0.01702273 -0.00575588
v 0.01063255 -0.05327435 -0.00634748
v 0.01061625 -0.05442295 -0.00634748
v 0.01059752 -0.05556368 -0.00634748
v 0.01057639 -0.05670441 -0.00634748
v 0.01055223 -0.05783728 -0.00634748
v 0.01048278 -0.05889147 -0.00645392
v 0.01051358 -0.06012660 -0.00631373
v 0.00971822 -0.04985217 -0.00715164
v 0.01030764 -0.05327435 -0.00693324
v 0.01030825 -0.05442295 -0.00693454
v 0.01025510 -0.06012660 -0.00688456
v 0.01049425 -0.06126733 -0.00627706
v 0.01080467 -0.06012660 -0.00520517
v 0.01076541 -0.06126733 -0.00520517
v 0.01077206 -0.06139321 -0.00507796
v 0.01072797 -0.06240806 -0.00507796
v 0.00935345 -0.09324712 -0.00507796
v 0.00929970 -0.09438784 -0.00507796
v 0.01158070 -0.01675525 -0.00507796
v 0.00621851 -0.01675525 -0.00656231
v 0.00629219 -0.01786451 -0.00647567
v 0.00629219 -0.01901311 -0.00644192
v 0.00629219 -0.02015384 -0.00641076
v 0.00554333 -0.02471676 -0.00674015
v 0.00541107 -0.03305590 -0.00672198
v 0.00552159 -0.02586536 -0.00730806
v 0.00541107 -0.03956986 -0.00804991
v 0.00541107 -0.03952265 -0.00804829
v 0.00554333 -0.02471676 -0.00726587
v 0.00556869 -0.02357603 -0.00721817
v 0.00562244 -0.02129457 -0.00711724
v 0.00564841 -0.02015384 -0.00706564
v 0.00571726 -0.01720368 -0.00692610
v 0.00619314 -0.01675525 -0.00722239
v 0.00629219 -0.01786451 -0.00733467
v 0.00629219 -0.02015384 -0.00745799
v 0.00743420 -0.01675525 -0.00751381
v 0.00743420 -0.01786451 -0.00752679
v 0.00743420 -0.01901311 -0.00753944
v 0.00743420 -0.02015384 -0.00755177
v 0.00743420 -0.02129457 -0.00756378
v 0.00743420 -0.02243530 -0.00757449
v 0.00743420 -0.02471676 -0.00759396
v 0.00743420 -0.02586536 -0.00760337
v 0.00743420 -0.03042828 -0.00764004
v 0.00743420 -0.03157688 -0.00764913
v 0.00743420 -0.03385834 -0.00766698
v 0.00743420 -0.03499907 -0.00767379
v 0.00857621 -0.04756283 -0.00747616
v 0.01030281 -0.05099289 -0.00692870
v 0.01029979 -0.04985217 -0.00692578
v 0.01029496 -0.04902612 -0.00692221
v 0.01106858 -0.01675525 -0.00603010
v 0.01151971 -0.01675525 -0.00540410
v 0.01113380 -0.04871143 -0.00520517
v 0.01111569 -0.04985217 -0.00520517
v 0.01108730 -0.05099289 -0.00520517
v 0.00970191 -0.04756283 -0.00713801
v 0.00982994 -0.04867210 -0.00709939
v 0.00857621 -0.04642211 -0.00746999
v 0.00857621 -0.04528138 -0.00746286
v 0.00857621 -0.04185132 -0.00743949
v 0.00857621 -0.03842913 -0.00741612
v 0.00857621 -0.03613980 -0.00739957
v 0.00857621 -0.03499907 -0.00739114
v 0.01105288 -0.05213362 -0.00520517
v 0.01081675 -0.06012660 -0.00507796
v 0.01081252 -0.06025247 -0.00507796
v 0.01106194 -0.05225950 -0.00507796
v 0.01077749 -0.06126733 -0.00507796
v 0.01156802 -0.01786451 -0.00507796
v 0.01155776 -0.01786451 -0.00514968
v 0.01154688 -0.01675525 -0.00529701
v 0.00619314 -0.01675525 -0.00657854
v 0.00559587 -0.02243530 -0.00677682
v 0.00556869 -0.02357603 -0.00675638
v 0.00541771 -0.03271761 -0.00747551
v 0.00541107 -0.03424383 -0.00756021
v 0.00550468 -0.02700609 -0.00734441
v 0.00564841 -0.02015384 -0.00682485
v 0.00571726 -0.01720368 -0.00691279
v 0.00857621 -0.01675525 -0.00718734
v 0.00857621 -0.02471676 -0.00728210
v 0.00857621 -0.02586536 -0.00729540
v 0.00857621 -0.02700609 -0.00730806
v 0.00857621 -0.03042828 -0.00734505
v 0.00857621 -0.03157688 -0.00735739
v 0.00857621 -0.03271761 -0.00736907
v 0.00857621 -0.03385834 -0.00738043
v 0.01011439 -0.03385834 -0.00684627
v 0.01096169 -0.01675525 -0.00611123
v 0.01114528 -0.04871143 -0.00507796
v 0.01114347 -0.04883731 -0.00507796
v 0.01135665 -0.03385834 -0.00507796
v 0.01134216 -0.03492040 -0.00507796
v 0.01112716 -0.04985217 -0.00507796
v 0.01112414 -0.04997804 -0.00507796
v 0.01109938 -0.05099289 -0.00507796
v 0.01109576 -0.05111877 -0.00507796
v 0.00955697 -0.03499907 -0.00707343
v 0.00954308 -0.03385834 -0.00706727
v 0.01153541 -0.02040559 -0.00507796
v 0.00562244 -0.02129457 -0.00679889
v 0.00928038 -0.01675525 -0.00696407
v 0.00940539 -0.02357603 -0.00700853
v 0.00942351 -0.02471676 -0.00701632
v 0.00943981 -0.02586536 -0.00702378
v 0.00945431 -0.02700609 -0.00703027
v 0.00999481 -0.02471676 -0.00680051
v 0.01001112 -0.02586536 -0.00680570
v 0.00997609 -0.02357603 -0.00679532
v 0.00995616 -0.02243530 -0.00678948
v 0.00987403 -0.01675525 -0.00674372
v 0.00985108 -0.01675525 -0.00675703
f 1 2 3
f 1 3 4
f 1 4 5
f 1 5 6
f 1 6 14
f 1 14 26
f 1 26 34
f 1 34 33
f 1 33 32
f 1 32 31
f 1 31 30
f 1 30 29
f 1 29 28
f 1 28 27
f 1 27 37
f 1 37 36
f 1 36 53
f 1 53 52
f 1 52 51
f 1 51 50
f 1 50 49
f 1 49 57
f 1 57 56
f 1 56 90
f 1 90 122
f 1 122 175
f 1 175 125
f 1 125 124
f 1 124 93
f 1 93 58
f 1 58 38
f 1 38 18
f 1 18 17
f 1 17 10
f 1 10 9
f 1 9 7
f 1 7 2
f 2 7 3
f 3 8 16
f 3 16 25
f 3 25 48
f 3 48 87
f 3 87 86
f 3 86 115
f 3 115 114
f 3 114 113
f 3 113 112
f 3 112 167
f 3 167 165
f 3 165 164
f 3 164 166
f 3 166 196
f 3 196 195
f 3 195 194
f 3 194 193
f 3 193 190
f 3 190 189
f 3 189 192
f 3 192 191
f 3 191 199
f 3 199 168
f 3 168 116
f 3 116 88
f 3 88 54
f 3 54 35
f 3 35 15
f 3 15 5
f 3 5 4
f 3 7 9
f 3 9 10
f 3 10 11
f 3 11 12
f 3 12 13
f 3 13 8
f 5 14 6
f 5 15 14
f 8 13 16
f 10 17 11
f 11 17 18
f 11 18 19
f 11 19 12
f 12 19 13
f 13 20 16
f 13 19 21
f 13 21 22
f 13 22 23
f 13 23 24
f 13 24 25
f 13 25 20
f 14 15 26
f 15 27 28
f 15 28 29
f 15 29 30
f 15 30 31
f 15 31 32
f 15 32 33
f 15 33 34
f 15 34 26
f 15 35 36
f 15 36 37
f 15 37 27
f 16 20 25
f 18 38 19
f 19 39 40
f 19 40 21
f 19 38 39
f 21 40 41
f 21 41 22
f 22 41 42
f 22 42 43
f 22 43 44
f 22 44 45
f 22 45 23
f 23 45 46
f 23 46 24
f 24 46 47
f 24 47 25
f 25 47 48
f 35 49 50
f 35 50 51
f 35 51 52
f 35 52 53
f 35 53 36
f 35 54 55
f 35 55 56
f 35 56 57
f 35 57 49
f 38 58 41
f 38 41 59
f 38 59 39
f 39 59 40
f 40 59 41
f 41 60 61
f 41 61 62
f 41 62 42
f 41 58 63
f 41 63 64
f 41 64 65
f 41 65 66
f 41 66 67
f 41 67 68
f 41 68 69
f 41 69 60
f 42 70 71
f 42 71 72
f 42 72 43
f 42 62 73
f 42 73 70
f 43 72 74
f 43 74 44
f 44 74 75
f 44 75 76
f 44 76 77
f 44 77 45
f 45 77 78
f 45 78 79
f 45 79 80
f 45 80 81
f 45 81 82
f 45 82 46
f 46 82 83
f 46 83 84
f 46 84 85
f 46 85 47
f 47 85 86
f 47 86 87
f 47 87 48
f 54 88 55
f 55 88 116
f 55 116 170
f 55 170 151
f 55 151 150
f 55 150 188
f 55 188 210
f 55 210 211
f 55 211 201
f 55 201 179
f 55 179 134
f 55 134 131
f 55 131 171
f 55 171 117
f 55 117 89
f 55 89 56
f 56 89 91
f 56 91 92
f 56 92 90
f 58 93 94
f 58 94 95
f 58 95 96
f 58 96 63
f 60 69 97
f 60 97 61
f 61 97 62
f 62 97 98
f 62 98 99
f 62 99 100
f 62 100 101
f 62 101 102
f 62 102 103
f 62 103 104
f 62 104 73
f 63 96 105
f 63 105 64
f 64 106 65
f 64 105 106
f 65 106 66
f 66 106 107
f 66 107 67
f 67 107 69
f 67 69 68
f 69 107 97
f 70 73 108
f 70 108 71
f 71 108 72
f 72 108 109
f 72 109 74
f 73 104 109
f 73 109 108
f 74 109 110
f 74 110 111
f 74 111 75
f 75 111 76
f 76 111 77
f 77 111 78
f 78 111 79
f 79 111 80
f 80 111 83
f 80 83 82
f 80 82 81
f 83 111 112
f 83 112 113
f 83 113 84
f 84 114 85
f 84 113 114
f 85 114 115
f 85 115 86
f 89 117 118
f 89 118 119
f 89 119 120
f 89 120 121
f 89 121 91
f 90 92 122
f 91 121 126
f 91 126 123
f 91 123 122
f 91 122 92
f 93 124 94
f 94 124 125
f 94 125 126
f 94 126 127
f 94 127 128
f 94 128 129
f 94 129 130
f 94 130 131
f 94 131 132
f 94 132 133
f 94 133 134
f 94 134 95
f 95 134 135
f 95 135 136
f 95 136 137
f 95 137 138
f 95 138 139
f 95 139 140
f 95 140 141
f 95 141 142
f 95 142 143
f 95 143 144
f 95 144 145
f 95 145 146
f 95 146 96
f 96 146 105
f 97 107 106
f 97 106 147
f 97 147 148
f 97 148 149
f 97 149 150
f 97 150 151
f 97 151 152
f 97 152 99
f 97 99 98
f 99 152 153
f 99 153 100
f 100 153 101
f 101 153 102
f 102 153 104
f 102 104 103
f 104 153 154
f 104 154 109
f 105 155 156
f 105 156 149
f 105 149 148
f 105 148 147
f 105 147 106
f 105 146 157
f 105 157 158
f 105 158 159
f 105 159 160
f 105 160 161
f 105 161 162
f 105 162 155
f 109 154 163
f 109 163 110
f 110 164 165
f 110 165 111
f 110 163 166
f 110 166 164
f 111 165 167
f 111 167 112
f 116 168 169
f 116 169 170
f 117 171 118
f 118 171 172
f 118 172 173
f 118 173 119
f 119 173 121
f 119 121 120
f 121 173 127
f 121 127 126
f 122 123 174
f 122 174 175
f 123 176 174
f 123 126 125
f 123 125 176
f 125 175 174
f 125 174 176
f 127 173 177
f 127 177 129
f 127 129 128
f 129 177 178
f 129 178 130
f 130 178 171
f 130 171 131
f 131 134 132
f 132 134 133
f 134 179 180
f 134 180 135
f 135 180 181
f 135 181 182
f 135 182 136
f 136 182 183
f 136 183 137
f 137 183 184
f 137 184 138
f 138 184 185
f 138 185 186
f 138 186 162
f 138 162 139
f 139 162 140
f 140 162 141
f 141 162 142
f 142 162 143
f 143 162 144
f 144 162 161
f 144 161 160
f 144 160 159
f 144 159 158
f 144 158 157
f 144 157 145
f 145 157 146
f 149 156 187
f 149 187 188
f 149 188 150
f 151 170 152
f 152 189 190
f 152 190 153
f 152 170 191
f 152 191 192
f 152 192 189
f 153 190 193
f 153 193 194
f 153 194 195
f 153 195 154
f 154 195 196
f 154 196 166
f 154 166 163
f 155 162 197
f 155 197 156
f 156 197 187
f 162 186 198
f 162 198 197
f 168 199 169
f 169 199 191
f 169 191 170
f 171 178 177
f 171 177 200
f 171 200 172
f 172 200 173
f 173 200 177
f 179 201 202
f 179 202 180
f 180 202 203
f 180 203 181
f 181 203 182
f 182 203 204
f 182 204 183
f 183 204 184
f 184 204 185
f 185 204 186
f 186 204 205
f 186 205 198
f 187 197 206
f 187 206 207
f 187 207 188
f 188 207 206
f 188 206 208
f 188 208 209
f 188 209 210
f 197 198 206
f 198 205 206
f 201 211 202
f 202 211 203
f 203 211 209
f 203 209 204
f 204 209 208
f 204 208 206
f 204 206 205
f 209 211 210

