# https://github.com/mikedh/trimesh
v -0.00970651 -0.08869045 -0.00177876
v -0.00965502 -0.08982557 -0.00177876
v -0.00966750 -0.08869045 -0.00063648
v -0.00968857 -0.08869045 -0.00292056
v -0.00958870 -0.09096860 -0.00292056
v -0.00953799 -0.09211063 -0.00292056
v -0.00961601 -0.08982557 -0.00063648
v -0.00955125 -0.09211063 -0.00177876
v -0.00962615 -0.08869045 -0.00005968
v -0.00962303 -0.08869045 -0.00406923
v -0.00957622 -0.08982557 -0.00406284
v -0.00947869 -0.09211063 -0.00406284
v -0.00942563 -0.09325267 -0.00406284
v -0.00948337 -0.09325267 -0.00292056
v -0.00957466 -0.08982557 -0.00005968
v -0.00956373 -0.09096860 -0.00063648
v -0.00949507 -0.09325267 -0.00177876
v -0.00951146 -0.09211063 -0.00063648
v -0.00753047 -0.08869045 -0.00005968
v -0.00952238 -0.08869045 -0.00508318
v -0.00948181 -0.08970395 -0.00508318
v -0.00943031 -0.09096860 -0.00508318
v -0.00938818 -0.09198803 -0.00508318
v -0.00933903 -0.09313105 -0.00508318
v -0.00933357 -0.09325267 -0.00508318
v -0.00928051 -0.09439372 -0.00508318
v -0.00936946 -0.09439372 -0.00406284
v -0.00942407 -0.09439372 -0.00292056
v -0.00946933 -0.09211063 -0.00005968
v -0.00945528 -0.09325267 -0.00063648
v -0.00943500 -0.09439372 -0.00177876
v -0.00941393 -0.09325267 -0.00005968
v -0.00398903 -0.08988786 -0.00292056
v -0.00743216 -0.08869045 -0.00508318
v -0.00649745 -0.09100617 -0.00005968
v -0.00398903 -0.09211063 -0.00019737
v -0.00398903 -0.09096860 -0.00032030
v -0.00325874 -0.09027250 -0.00098807
v -0.00316979 -0.09020229 -0.00177876
v -0.00921341 -0.09538348 -0.00508318
v -0.00920327 -0.09552982 -0.00508318
v -0.00928987 -0.09553576 -0.00406284
v -0.00934293 -0.09553576 -0.00292056
v -0.00939521 -0.09439372 -0.00063648
v -0.00935463 -0.09439372 -0.00005968
v -0.00935307 -0.09553576 -0.00177876
v -0.00931484 -0.09553576 -0.00063648
v -0.00315731 -0.09019042 -0.00292056
v -0.00739159 -0.08881405 -0.00508318
v -0.00324235 -0.09025668 -0.00374076
v -0.00285536 -0.09103287 -0.00393106
v -0.00398903 -0.09096860 -0.00446606
v -0.00398903 -0.09211063 -0.00461505
v -0.00341322 -0.09370652 -0.00463472
v -0.00614323 -0.09211063 -0.00005968
v -0.00284678 -0.09325267 -0.00050027
v -0.00284678 -0.09211063 -0.00053617
v -0.00615727 -0.09249428 -0.00005968
v -0.00620331 -0.09325267 -0.00005968
v -0.00639836 -0.09439372 -0.00005968
v -0.00398903 -0.09325267 -0.00022244
v -0.00284678 -0.09879180 -0.00045651
v -0.00286551 -0.09103781 -0.00081744
v -0.00223430 -0.09146397 -0.00111641
v -0.00259867 -0.09084895 -0.00177876
v -0.00917596 -0.09578988 -0.00508318
v -0.00915568 -0.09615869 -0.00487026
v -0.00918376 -0.09621208 -0.00406284
v -0.00921029 -0.09626152 -0.00292056
v -0.00927505 -0.09553576 -0.00005968
v -0.00921497 -0.09627339 -0.00177876
v -0.00919625 -0.09624373 -0.00063648
v -0.00917674 -0.09620615 -0.00005968
v -0.00258619 -0.09084401 -0.00292056
v -0.00653802 -0.09211063 -0.00508318
v -0.00223274 -0.09145705 -0.00359914
v -0.00284678 -0.09211063 -0.00426347
v -0.00230921 -0.09879180 -0.00462882
v -0.00201506 -0.09879180 -0.00088579
v -0.00219451 -0.09211063 -0.00103921
v -0.00216330 -0.09325267 -0.00099151
v -0.00666988 -0.09518078 -0.00005968
v -0.00398903 -0.09879180 -0.00034784
v -0.00210869 -0.09211063 -0.00177876
v -0.00221090 -0.09142046 -0.00177876
v -0.00878039 -0.09646422 -0.00508318
v -0.00779652 -0.09879180 -0.00454326
v -0.00818118 -0.09879180 -0.00398466
v -0.00822331 -0.09879180 -0.00379731
v -0.00838013 -0.09879180 -0.00292056
v -0.00838013 -0.09879180 -0.00274894
v -0.00837701 -0.09879180 -0.00177876
v -0.00817649 -0.09879180 -0.00094529
v -0.00741499 -0.09879180 -0.00051699
v -0.00856583 -0.09667780 -0.00005968
v -0.00220934 -0.09141552 -0.00292056
v -0.00650837 -0.09291056 -0.00508318
v -0.00280777 -0.09879180 -0.00469471
v -0.00210557 -0.09211063 -0.00292056
v -0.00219139 -0.09211063 -0.00369749
v -0.00203769 -0.09879180 -0.00414447
v -0.00216018 -0.09325267 -0.00377272
v -0.00174276 -0.09879180 -0.00177876
v -0.00204471 -0.09325267 -0.00177876
v -0.00692423 -0.09582250 -0.00005968
v -0.00695856 -0.09589765 -0.00005968
v -0.00739939 -0.09665604 -0.00005968
v -0.00513128 -0.09879180 -0.00034685
v -0.00846284 -0.09685083 -0.00508318
v -0.00737676 -0.09879180 -0.00466865
v -0.00627275 -0.09879180 -0.00034882
v -0.00649589 -0.09325267 -0.00508318
v -0.00291466 -0.09879180 -0.00470012
v -0.00704205 -0.09706441 -0.00508318
v -0.00665350 -0.09615572 -0.00508318
v -0.00657235 -0.09553576 -0.00508318
v -0.00653646 -0.09515409 -0.00508318
v -0.00650291 -0.09439372 -0.00508318
v -0.00649901 -0.09406347 -0.00508318
v -0.00204159 -0.09325267 -0.00292056
v -0.00173574 -0.09879180 -0.00292056
v -0.00176695 -0.09879180 -0.00308135
v -0.00174120 -0.09879180 -0.00195038
v -0.00831381 -0.09692994 -0.00508318
v -0.00724022 -0.09879180 -0.00470209
v -0.00398903 -0.09879180 -0.00475421
v -0.00743372 -0.09709506 -0.00508318
v -0.00646234 -0.09879180 -0.00475470
v -0.00416068 -0.09879180 -0.00475470
v -0.00530293 -0.09879180 -0.00475519
f 1 2 7
f 1 7 3
f 1 3 9
f 1 9 19
f 1 19 34
f 1 34 20
f 1 20 10
f 1 10 4
f 1 4 5
f 1 5 6
f 1 6 2
f 2 6 8
f 2 8 7
f 3 7 15
f 3 15 9
f 4 10 11
f 4 11 12
f 4 12 5
f 5 12 6
f 6 12 13
f 6 13 14
f 6 14 8
f 7 8 16
f 7 16 15
f 8 14 17
f 8 17 30
f 8 30 18
f 8 18 16
f 9 15 29
f 9 29 32
f 9 32 45
f 9 45 70
f 9 70 73
f 9 73 95
f 9 95 107
f 9 107 106
f 9 106 105
f 9 105 82
f 9 82 60
f 9 60 59
f 9 59 58
f 9 58 55
f 9 55 35
f 9 35 19
f 10 20 21
f 10 21 22
f 10 22 23
f 10 23 11
f 11 23 12
f 12 23 24
f 12 24 25
f 12 25 13
f 13 25 26
f 13 26 27
f 13 27 14
f 14 27 28
f 14 28 17
f 15 16 18
f 15 18 29
f 17 28 31
f 17 31 44
f 17 44 30
f 18 30 32
f 18 32 29
f 19 33 34
f 19 35 36
f 19 36 37
f 19 37 38
f 19 38 39
f 19 39 33
f 20 34 49
f 20 49 75
f 20 75 97
f 20 97 112
f 20 112 119
f 20 119 118
f 20 118 117
f 20 117 116
f 20 116 115
f 20 115 114
f 20 114 127
f 20 127 124
f 20 124 109
f 20 109 86
f 20 86 66
f 20 66 41
f 20 41 40
f 20 40 26
f 20 26 25
f 20 25 24
f 20 24 23
f 20 23 22
f 20 22 21
f 26 40 27
f 27 40 41
f 27 41 42
f 27 42 28
f 28 42 43
f 28 43 31
f 30 44 45
f 30 45 32
f 31 43 46
f 31 46 47
f 31 47 44
f 33 48 34
f 33 39 48
f 34 48 50
f 34 50 51
f 34 51 52
f 34 52 53
f 34 53 54
f 34 54 49
f 35 55 36
f 36 56 57
f 36 57 37
f 36 55 58
f 36 58 59
f 36 59 60
f 36 60 61
f 36 61 62
f 36 62 56
f 37 63 38
f 37 57 63
f 38 63 64
f 38 64 65
f 38 65 39
f 39 65 48
f 41 66 67
f 41 67 42
f 42 67 43
f 43 67 68
f 43 68 69
f 43 69 46
f 44 47 70
f 44 70 45
f 46 69 71
f 46 71 72
f 46 72 47
f 47 72 73
f 47 73 70
f 48 65 74
f 48 74 50
f 49 54 75
f 50 74 76
f 50 76 51
f 51 76 77
f 51 77 52
f 52 77 53
f 53 77 54
f 54 77 78
f 54 78 75
f 56 62 79
f 56 79 57
f 57 80 64
f 57 64 63
f 57 79 81
f 57 81 80
f 60 82 83
f 60 83 61
f 61 83 62
f 62 83 108
f 62 108 111
f 62 111 94
f 62 94 93
f 62 93 92
f 62 92 91
f 62 91 90
f 62 90 89
f 62 89 88
f 62 88 87
f 62 87 110
f 62 110 125
f 62 125 128
f 62 128 130
f 62 130 129
f 62 129 126
f 62 126 113
f 62 113 98
f 62 98 78
f 62 78 101
f 62 101 122
f 62 122 121
f 62 121 123
f 62 123 103
f 62 103 79
f 64 80 84
f 64 84 85
f 64 85 65
f 65 85 74
f 66 86 67
f 67 86 87
f 67 87 88
f 67 88 89
f 67 89 90
f 67 90 68
f 68 90 69
f 69 90 71
f 71 90 91
f 71 91 92
f 71 92 72
f 72 92 73
f 73 92 93
f 73 93 94
f 73 94 95
f 74 96 76
f 74 85 96
f 75 78 98
f 75 98 97
f 76 96 99
f 76 99 100
f 76 100 77
f 77 100 78
f 78 100 102
f 78 102 101
f 79 103 81
f 80 81 103
f 80 103 104
f 80 104 84
f 82 105 83
f 83 105 106
f 83 106 107
f 83 107 95
f 83 95 108
f 84 99 85
f 84 104 120
f 84 120 99
f 85 99 96
f 86 109 87
f 87 109 110
f 94 111 95
f 95 111 108
f 97 98 112
f 98 113 114
f 98 114 115
f 98 115 116
f 98 116 117
f 98 117 118
f 98 118 119
f 98 119 112
f 99 120 100
f 100 120 121
f 100 121 122
f 100 122 102
f 101 102 122
f 103 123 104
f 104 123 121
f 104 121 120
f 109 124 125
f 109 125 110
f 113 126 114
f 114 126 127
f 124 127 128
f 124 128 125
f 126 129 127
f 127 129 130
f 127 130 128

