# https://github.com/mikedh/trimesh
v -0.00746044 -0.12529110 0.00034902
v -0.00746044 -0.12414567 0.00013709
v -0.00780327 -0.12428849 -0.00013766
v -0.00789155 -0.12529110 -0.00004102
v -0.00746044 -0.12564192 0.00033245
v -0.00746044 -0.12318427 -0.00006449
v -0.00845779 -0.12529110 -0.00086527
v -0.00771275 -0.12343061 -0.00024397
v -0.00813326 -0.12391754 -0.00074998
v -0.00787181 -0.12616048 -0.00006518
v -0.00746044 -0.12634164 0.00012535
v -0.00746044 -0.12245196 -0.00025502
v -0.00893898 -0.12529110 -0.00182137
v -0.00909081 -0.12607804 -0.00244405
v -0.00803905 -0.12271747 -0.00100333
v -0.00762576 -0.12271747 -0.00035995
v -0.00779557 -0.12047357 -0.00139199
v -0.00789813 -0.12143209 -0.00122079
v -0.00807468 -0.12658510 -0.00097020
v -0.00746044 -0.12700206 -0.00062365
v -0.00746044 -0.12141579 -0.00057050
v -0.00770328 -0.11961569 -0.00161013
v -0.00882085 -0.12407474 -0.00222729
v -0.00903544 -0.12455016 -0.00270637
v -0.00908680 -0.12529110 -0.00246476
v -0.00910012 -0.12609721 -0.00343812
v -0.00852328 -0.12674134 -0.00343812
v -0.00784067 -0.12727908 -0.00215204
v -0.00857881 -0.12653526 -0.00206989
v -0.00747055 -0.12143209 -0.00057809
v -0.00746044 -0.12015438 -0.00100748
v -0.00746044 -0.11933006 -0.00132848
v -0.00746044 -0.12703465 -0.00067474
v -0.00775271 -0.12723306 -0.00146862
v -0.00746044 -0.12127106 -0.00061951
v -0.00746044 -0.11803893 -0.00212581
v -0.00762431 -0.11878561 -0.00208370
v -0.00780407 -0.11916615 -0.00246752
v -0.00851028 -0.12271747 -0.00215204
v -0.00903544 -0.12455016 -0.00300943
v -0.00909498 -0.12525084 -0.00343743
v -0.00905309 -0.12565246 -0.00418920
v -0.00905309 -0.12600903 -0.00418920
v -0.00780520 -0.12726182 -0.00425340
v -0.00788015 -0.12730016 -0.00343812
v -0.00746044 -0.12748611 -0.00343812
v -0.00746044 -0.12744202 -0.00215204
v -0.00746044 -0.12729154 -0.00126428
v -0.00746044 -0.11790473 -0.00259592
v -0.00746044 -0.11769386 -0.00343812
v -0.00765465 -0.11853640 -0.00343812
v -0.00899627 -0.12479458 -0.00386612
v -0.00780167 -0.11917957 -0.00343812
v -0.00860449 -0.12271747 -0.00343812
v -0.00889821 -0.12407474 -0.00343743
v -0.00855554 -0.12400477 -0.00472489
v -0.00881138 -0.12525084 -0.00466069
v -0.00813182 -0.12529110 -0.00591294
v -0.00802926 -0.12628605 -0.00576590
v -0.00834593 -0.12657648 -0.00465033
v -0.00746044 -0.12735767 -0.00448051
v -0.00746044 -0.12744777 -0.00386267
v -0.00758499 -0.12714393 -0.00511147
v -0.00746044 -0.11901758 -0.00453712
v -0.00775095 -0.11940865 -0.00413259
v -0.00783585 -0.12014575 -0.00433140
v -0.00825942 -0.12271747 -0.00472489
v -0.00765593 -0.12108703 -0.00522124
v -0.00776106 -0.12194490 -0.00541453
v -0.00785560 -0.12271747 -0.00555190
v -0.00800952 -0.12400477 -0.00576383
v -0.00763539 -0.12529110 -0.00655633
v -0.00746044 -0.12658510 -0.00602547
v -0.00746044 -0.12551060 -0.00664745
v -0.00746044 -0.12722731 -0.00499895
v -0.00746044 -0.12700014 -0.00545457
v -0.00746044 -0.12717268 -0.00519017
v -0.00746044 -0.11948534 -0.00478564
v -0.00753684 -0.12014575 -0.00497479
v -0.00746044 -0.12014575 -0.00508110
v -0.00746044 -0.12121067 -0.00549530
v -0.00746044 -0.12172060 -0.00568375
v -0.00746044 -0.12246346 -0.00593779
v -0.00746044 -0.12373062 -0.00636235
v -0.00750041 -0.12400477 -0.00640722
v -0.00746044 -0.12529110 -0.00670199
v -0.00746044 -0.12400477 -0.00644311
f 1 2 3
f 1 3 4
f 1 4 5
f 1 5 11
f 1 11 20
f 1 20 33
f 1 33 48
f 1 48 47
f 1 47 46
f 1 46 62
f 1 62 61
f 1 61 75
f 1 75 77
f 1 77 76
f 1 76 73
f 1 73 74
f 1 74 86
f 1 86 87
f 1 87 84
f 1 84 83
f 1 83 82
f 1 82 81
f 1 81 80
f 1 80 78
f 1 78 64
f 1 64 50
f 1 50 49
f 1 49 36
f 1 36 32
f 1 32 31
f 1 31 35
f 1 35 21
f 1 21 12
f 1 12 6
f 1 6 2
f 2 6 3
f 3 7 4
f 3 6 8
f 3 8 9
f 3 9 7
f 4 7 10
f 4 10 5
f 5 10 11
f 6 12 8
f 7 13 14
f 7 14 10
f 7 9 15
f 7 15 13
f 8 12 16
f 8 16 17
f 8 17 18
f 8 18 15
f 8 15 9
f 10 19 20
f 10 20 11
f 10 14 19
f 12 21 16
f 13 15 18
f 13 18 17
f 13 17 22
f 13 22 23
f 13 23 24
f 13 24 25
f 13 25 14
f 14 25 26
f 14 26 27
f 14 27 28
f 14 28 29
f 14 29 19
f 16 21 30
f 16 30 31
f 16 31 17
f 17 31 32
f 17 32 22
f 19 33 20
f 19 29 34
f 19 34 33
f 21 35 30
f 22 32 36
f 22 36 37
f 22 37 38
f 22 38 39
f 22 39 23
f 23 39 24
f 24 40 41
f 24 41 25
f 24 39 38
f 24 38 40
f 25 41 26
f 26 41 42
f 26 42 43
f 26 43 27
f 27 44 45
f 27 45 28
f 27 43 44
f 28 34 29
f 28 45 46
f 28 46 47
f 28 47 34
f 30 35 31
f 33 34 48
f 34 47 48
f 36 49 38
f 36 38 37
f 38 49 50
f 38 50 51
f 38 51 40
f 40 52 41
f 40 51 53
f 40 53 54
f 40 54 55
f 40 55 52
f 41 52 42
f 42 52 56
f 42 56 57
f 42 57 43
f 43 57 58
f 43 58 59
f 43 59 60
f 43 60 44
f 44 61 62
f 44 62 46
f 44 46 45
f 44 60 63
f 44 63 61
f 50 64 65
f 50 65 51
f 51 65 53
f 52 55 54
f 52 54 65
f 52 65 56
f 53 65 54
f 56 65 66
f 56 66 67
f 56 67 68
f 56 68 69
f 56 69 70
f 56 70 71
f 56 71 57
f 57 71 58
f 58 72 59
f 58 71 72
f 59 73 63
f 59 63 60
f 59 72 74
f 59 74 73
f 61 63 75
f 63 73 76
f 63 76 77
f 63 77 75
f 64 78 65
f 65 78 79
f 65 79 68
f 65 68 66
f 66 68 67
f 68 79 80
f 68 80 81
f 68 81 82
f 68 82 69
f 69 82 83
f 69 83 84
f 69 84 85
f 69 85 70
f 70 85 71
f 71 85 72
f 72 86 74
f 72 85 87
f 72 87 86
f 78 80 79
f 84 87 85

