# https://github.com/mikedh/trimesh
v -0.00529012 -0.09628123 -0.00822021
v -0.00513064 -0.09628725 -0.00823087
v -0.00529012 -0.09628123 -0.00765818
v -0.00529012 -0.09553480 -0.00842302
v -0.00513064 -0.09553480 -0.00844657
v -0.00398855 -0.09553480 -0.00856142
v -0.00398855 -0.09629326 -0.00826841
v -0.00513064 -0.09628725 -0.00769505
v -0.00398855 -0.09629326 -0.00778036
v -0.00529012 -0.09546859 -0.00712125
v -0.00529012 -0.09439109 -0.00846168
v -0.00513064 -0.09439109 -0.00848767
v -0.00398855 -0.09439109 -0.00864162
v -0.00284621 -0.09439109 -0.00877157
v -0.00268775 -0.09439109 -0.00878645
v -0.00284621 -0.09553480 -0.00859808
v -0.00284621 -0.09623909 -0.00824642
v -0.00284621 -0.09623909 -0.00787810
v -0.00268775 -0.09614277 -0.00783389
v -0.00268775 -0.09552878 -0.00752467
v -0.00268775 -0.09537830 -0.00745025
v -0.00268775 -0.09422254 -0.00711859
v -0.00268775 -0.09325941 -0.00688111
v -0.00529012 -0.09537830 -0.00710304
v -0.00529012 -0.04848596 -0.00823842
v -0.00513064 -0.04870868 -0.00826886
v -0.00398855 -0.05213381 -0.00844346
v -0.00284621 -0.09324737 -0.00876979
v -0.00268775 -0.09324737 -0.00878734
v -0.00268775 -0.09554082 -0.00857630
v -0.00268775 -0.09622705 -0.00822976
v -0.00268775 -0.09622705 -0.00789854
v -0.00268775 -0.09315708 -0.00687023
v -0.00529012 -0.09464993 -0.00697641
v -0.00529012 -0.04504879 -0.00821998
v -0.00513064 -0.04756497 -0.00826241
v -0.00513064 -0.04527754 -0.00824931
v -0.00513064 -0.04413984 -0.00824264
v -0.00513064 -0.04299613 -0.00823487
v -0.00398855 -0.05099009 -0.00843547
v -0.00284621 -0.05670265 -0.00857275
v -0.00268775 -0.05914659 -0.00857830
v -0.00268775 -0.09210967 -0.00677271
v -0.00529012 -0.09397574 -0.00693043
v -0.00529012 -0.04390508 -0.00821354
v -0.00529012 -0.04275534 -0.00820643
v -0.00529012 -0.04161163 -0.00819333
v -0.00513064 -0.04185241 -0.00821932
v -0.00284621 -0.05555894 -0.00854698
v -0.00268775 -0.05685314 -0.00854054
v -0.00268775 -0.05800288 -0.00856475
v -0.00529012 -0.09125490 -0.00677471
v -0.00529012 -0.09218191 -0.00682669
v -0.00529012 -0.09311494 -0.00687911
v -0.00268775 -0.09096596 -0.00671406
v -0.00529012 -0.04046189 -0.00816978
v -0.00513064 -0.04070870 -0.00819088
v -0.00268775 -0.05555894 -0.00850522
v -0.00268775 -0.05574554 -0.00851455
v -0.00448278 -0.03957100 -0.00812113
v -0.00452482 -0.03862593 -0.00808958
v -0.00268775 -0.08966574 -0.00668096
v -0.00268775 -0.08867853 -0.00665608
v -0.00268775 -0.08852202 -0.00665230
v -0.00268775 -0.08754083 -0.00662876
v -0.00284621 -0.08754083 -0.00663275
v -0.00529012 -0.08769734 -0.00670184
v -0.00529012 -0.03931216 -0.00814023
v -0.00529012 -0.03742202 -0.00808936
v -0.00513064 -0.03957100 -0.00815445
v -0.00268775 -0.05462591 -0.00844702
v -0.00529012 -0.03479749 -0.00748979
v -0.00459641 -0.03809019 -0.00748979
v -0.00339700 -0.04681252 -0.00808336
v -0.00268775 -0.05319927 -0.00828574
v -0.00268775 -0.05327151 -0.00829529
v -0.00268775 -0.05442124 -0.00842747
v -0.00268775 -0.08737830 -0.00662542
v -0.00268775 -0.08639712 -0.00660654
v -0.00284621 -0.08639712 -0.00661076
v -0.00529012 -0.08655362 -0.00668385
v -0.00268775 -0.08280946 -0.00654789
v -0.00529012 -0.03500216 -0.00736894
v -0.00455488 -0.03892088 -0.00691510
v -0.00339700 -0.04681252 -0.00799828
v -0.00268775 -0.05319927 -0.00761753
v -0.00268775 -0.08509689 -0.00658522
v -0.00529012 -0.08084107 -0.00659743
v -0.00268775 -0.08166574 -0.00653101
v -0.00529012 -0.03613985 -0.00674716
v -0.00268775 -0.06012778 -0.00707927
v -0.00284621 -0.05670265 -0.00711459
v -0.00284621 -0.05555894 -0.00715968
v -0.00268775 -0.05555894 -0.00725965
v -0.00268775 -0.05442124 -0.00737650
v -0.00529012 -0.03620005 -0.00672739
v -0.00268775 -0.07938434 -0.00652346
v -0.00268775 -0.07382829 -0.00667230
v -0.00529012 -0.07970337 -0.00658410
v -0.00268775 -0.08052805 -0.00651835
v -0.00268775 -0.05899008 -0.00711592
v -0.00268775 -0.05670265 -0.00720544
v -0.00529012 -0.03728357 -0.00669984
v -0.00529012 -0.03848146 -0.00667785
v -0.00529012 -0.03957100 -0.00666119
v -0.00529012 -0.04070870 -0.00665297
v -0.00529012 -0.06012778 -0.00654167
v -0.00529012 -0.06127149 -0.00653634
v -0.00529012 -0.07954084 -0.00658277
v -0.00529012 -0.07040316 -0.00651813
v -0.00529012 -0.07056569 -0.00651857
v -0.00529012 -0.07154687 -0.00652279
v -0.00529012 -0.07170339 -0.00652368
f 1 2 8
f 1 8 3
f 1 3 10
f 1 10 24
f 1 24 34
f 1 34 44
f 1 44 54
f 1 54 53
f 1 53 52
f 1 52 67
f 1 67 81
f 1 81 88
f 1 88 99
f 1 99 109
f 1 109 113
f 1 113 112
f 1 112 111
f 1 111 110
f 1 110 108
f 1 108 107
f 1 107 106
f 1 106 105
f 1 105 104
f 1 104 103
f 1 103 96
f 1 96 90
f 1 90 83
f 1 83 72
f 1 72 69
f 1 69 68
f 1 68 56
f 1 56 47
f 1 47 46
f 1 46 45
f 1 45 35
f 1 35 25
f 1 25 11
f 1 11 4
f 1 4 5
f 1 5 6
f 1 6 2
f 2 7 9
f 2 9 8
f 2 6 7
f 3 8 9
f 3 9 10
f 4 11 12
f 4 12 5
f 5 12 13
f 5 13 14
f 5 14 6
f 6 14 15
f 6 15 16
f 6 16 7
f 7 16 17
f 7 17 18
f 7 18 9
f 9 18 19
f 9 19 10
f 10 20 21
f 10 21 22
f 10 22 23
f 10 23 24
f 10 19 20
f 11 25 26
f 11 26 12
f 12 26 27
f 12 27 13
f 13 28 14
f 13 27 28
f 14 28 29
f 14 29 15
f 15 30 16
f 15 29 42
f 15 42 51
f 15 51 50
f 15 50 59
f 15 59 58
f 15 58 71
f 15 71 77
f 15 77 76
f 15 76 75
f 15 75 86
f 15 86 95
f 15 95 94
f 15 94 102
f 15 102 101
f 15 101 91
f 15 91 98
f 15 98 97
f 15 97 100
f 15 100 89
f 15 89 82
f 15 82 87
f 15 87 79
f 15 79 78
f 15 78 65
f 15 65 64
f 15 64 63
f 15 63 62
f 15 62 55
f 15 55 43
f 15 43 33
f 15 33 23
f 15 23 22
f 15 22 21
f 15 21 20
f 15 20 19
f 15 19 32
f 15 32 31
f 15 31 30
f 16 30 17
f 17 31 32
f 17 32 18
f 17 30 31
f 18 32 19
f 23 33 34
f 23 34 24
f 25 35 26
f 26 35 45
f 26 45 36
f 26 36 27
f 27 36 37
f 27 37 38
f 27 38 39
f 27 39 40
f 27 40 41
f 27 41 29
f 27 29 28
f 29 41 42
f 33 43 34
f 34 43 44
f 36 45 37
f 37 45 38
f 38 45 46
f 38 46 39
f 39 46 47
f 39 47 48
f 39 48 40
f 40 48 49
f 40 49 41
f 41 49 50
f 41 50 51
f 41 51 42
f 43 52 53
f 43 53 54
f 43 54 44
f 43 55 52
f 47 56 48
f 48 56 57
f 48 57 49
f 49 58 59
f 49 59 50
f 49 57 60
f 49 60 61
f 49 61 58
f 52 55 62
f 52 62 63
f 52 63 64
f 52 64 65
f 52 65 66
f 52 66 67
f 56 68 57
f 57 68 69
f 57 69 70
f 57 70 60
f 58 61 71
f 60 70 69
f 60 69 61
f 61 69 72
f 61 72 73
f 61 73 74
f 61 74 75
f 61 75 76
f 61 76 77
f 61 77 71
f 65 78 66
f 66 78 79
f 66 79 80
f 66 80 67
f 67 80 82
f 67 82 81
f 72 83 84
f 72 84 73
f 73 84 85
f 73 85 74
f 74 85 86
f 74 86 75
f 79 87 80
f 80 87 82
f 81 82 88
f 82 89 88
f 83 90 84
f 84 91 92
f 84 92 93
f 84 93 94
f 84 94 95
f 84 95 86
f 84 86 85
f 84 90 96
f 84 96 97
f 84 97 98
f 84 98 91
f 88 89 99
f 89 100 99
f 91 101 92
f 92 101 102
f 92 102 93
f 93 102 94
f 96 103 97
f 97 103 104
f 97 104 105
f 97 105 106
f 97 106 107
f 97 107 108
f 97 108 100
f 99 100 109
f 100 110 111
f 100 111 112
f 100 112 113
f 100 113 109
f 100 108 110

