# https://github.com/mikedh/trimesh
v 0.00063256 -0.11336037 -0.00713541
v 0.00063256 -0.10856577 -0.00698159
v 0.00156924 -0.11336037 -0.00702256
v -0.00065264 -0.11336037 -0.00713124
v -0.00065264 -0.10856577 -0.00697825
v 0.00063256 -0.10769710 -0.00680687
v 0.00168072 -0.10779191 -0.00673999
v 0.00253795 -0.10807695 -0.00664720
v 0.00203309 -0.10853006 -0.00677092
v 0.00192033 -0.11336037 -0.00697407
v -0.00065264 -0.10769895 -0.00680520
v -0.00193912 -0.11336037 -0.00695986
v -0.00203523 -0.10865503 -0.00676423
v -0.00167004 -0.10779498 -0.00673748
v 0.00063256 -0.10726492 -0.00601101
v 0.00203309 -0.10749825 -0.00613557
v -0.00065264 -0.10726676 -0.00601101
v 0.00320681 -0.10751426 -0.00587474
v 0.00423703 -0.10766693 -0.00562227
v 0.00309277 -0.10853006 -0.00645157
v 0.00357456 -0.11336037 -0.00655858
v 0.00340030 -0.11336037 -0.00662128
v 0.00293132 -0.11336037 -0.00675922
v 0.00270196 -0.11336037 -0.00681189
v 0.00444845 -0.10856577 -0.00576272
v -0.00203523 -0.10750009 -0.00612972
v -0.00290271 -0.11336037 -0.00674919
v -0.00252727 -0.10828565 -0.00663716
v -0.00422763 -0.10767432 -0.00560889
v -0.00322561 -0.10751979 -0.00585718
v 0.00192033 -0.10707160 -0.00472441
v 0.00320681 -0.10709685 -0.00472441
v -0.00193912 -0.10707223 -0.00472441
v -0.00322561 -0.10710239 -0.00472441
v 0.00459709 -0.10744530 -0.00483058
v 0.00543894 -0.10766139 -0.00447194
v 0.00509169 -0.10856577 -0.00532800
v 0.00419602 -0.11336037 -0.00624425
v 0.00532618 -0.11336037 -0.00554118
v 0.00513013 -0.11336037 -0.00567159
v 0.00449330 -0.11336037 -0.00608875
v -0.00354595 -0.11336037 -0.00653684
v -0.00310004 -0.10865503 -0.00642984
v -0.00442496 -0.10856577 -0.00574265
v -0.00506820 -0.10856577 -0.00528536
v -0.00542827 -0.10767371 -0.00444352
v -0.00459923 -0.10745700 -0.00481303
v 0.00192033 -0.10716026 -0.00086547
v 0.00320681 -0.10710177 -0.00343782
v 0.00449330 -0.10711593 -0.00343782
v -0.00322561 -0.10710177 -0.00343782
v -0.00193912 -0.10716026 -0.00086547
v -0.00451209 -0.10712579 -0.00343782
v 0.00566831 -0.10752595 -0.00343782
v 0.00622954 -0.10856577 -0.00343782
v 0.00560424 -0.10856577 -0.00468429
v 0.00588742 -0.11336037 -0.00484981
v -0.00454156 -0.11336037 -0.00601602
v -0.00530525 -0.11336037 -0.00550774
v -0.00557947 -0.10856577 -0.00464249
v -0.00615608 -0.10856577 -0.00343782
v -0.00563841 -0.10753580 -0.00343782
v 0.00063256 -0.10734065 0.00042112
v 0.00320681 -0.10717196 -0.00086547
v 0.00449330 -0.10714118 -0.00215206
v 0.00320681 -0.10713132 -0.00215206
v 0.00566831 -0.10753703 -0.00215206
v -0.00322561 -0.10713132 -0.00215206
v -0.00451209 -0.10714610 -0.00215206
v -0.00322561 -0.10717504 -0.00086547
v -0.00065264 -0.10734249 0.00042112
v -0.00564225 -0.10754196 -0.00215206
v 0.00622954 -0.10856577 -0.00215206
v 0.00656269 -0.11336037 -0.00340271
v 0.00654347 -0.11336037 -0.00350888
v 0.00648581 -0.11336037 -0.00377556
v 0.00642687 -0.11336037 -0.00404308
v 0.00601171 -0.11336037 -0.00468930
v -0.00593825 -0.11336037 -0.00469850
v -0.00632265 -0.11336037 -0.00400044
v -0.00615992 -0.10856577 -0.00215206
v -0.00639185 -0.11327234 -0.00383408
v -0.00642644 -0.11336037 -0.00374965
v -0.00652767 -0.11336037 -0.00324053
v 0.00063256 -0.10771434 0.00122869
v 0.00192033 -0.10745576 0.00042112
v 0.00307996 -0.10763122 0.00044787
v 0.00424600 -0.10768848 0.00003740
v 0.00460222 -0.10747855 -0.00075512
v 0.00543894 -0.10767555 -0.00111042
v -0.00543339 -0.10768171 -0.00113633
v -0.00460563 -0.10748470 -0.00077101
v -0.00322561 -0.10756289 0.00027900
v -0.00205317 -0.10755181 0.00054401
v -0.00065264 -0.10771619 0.00122702
v 0.00560424 -0.10856577 -0.00089891
v 0.00636921 -0.11332221 -0.00169561
v 0.00638715 -0.11336037 -0.00173658
v 0.00653835 -0.11336037 -0.00228081
v -0.00558331 -0.10856577 -0.00093904
v -0.00652767 -0.11336037 -0.00311262
v -0.00650845 -0.11336037 -0.00241624
v -0.00645463 -0.11336037 -0.00219972
v -0.00634700 -0.11336037 -0.00183773
v 0.00063256 -0.10856577 0.00140425
v 0.00192033 -0.10782884 0.00113506
v 0.00256742 -0.10791996 0.00106567
v 0.00445742 -0.10856577 0.00017701
v 0.00510066 -0.10856577 -0.00025603
v -0.00507717 -0.10856577 -0.00029616
v -0.00423788 -0.10769217 0.00002653
v -0.00169951 -0.10780299 0.00115512
v -0.00065264 -0.10856577 0.00140090
v 0.00584513 -0.11336037 -0.00090226
v 0.00633077 -0.11336037 -0.00162706
v -0.00628806 -0.11336037 -0.00172404
v -0.00575629 -0.11336037 -0.00087383
v 0.00063256 -0.10985184 0.00140257
v 0.00192033 -0.10856577 0.00121866
v 0.00258664 -0.10856577 0.00107319
v 0.00322988 -0.10856577 0.00082072
v 0.00452149 -0.11336037 0.00026228
v 0.00520958 -0.11336037 -0.00016073
v 0.00533387 -0.11336037 -0.00030536
v -0.00518609 -0.11336037 -0.00019584
v -0.00443393 -0.10856577 0.00015945
v -0.00561919 -0.11336037 -0.00070580
v -0.00255802 -0.10820316 0.00105564
v -0.00205317 -0.10860517 0.00118020
v -0.00065264 -0.10985184 0.00139923
v 0.00063256 -0.11336037 0.00135158
v 0.00199977 -0.11336037 0.00117268
v 0.00192033 -0.10985184 0.00121615
v 0.00258407 -0.10985184 0.00107236
v 0.00314018 -0.11336037 0.00088593
v -0.00460435 -0.11336037 0.00017367
v -0.00310132 -0.10860517 0.00084915
v -0.00259005 -0.10906074 0.00106734
v -0.00259005 -0.10933716 0.00106734
v -0.00204932 -0.10980074 0.00117853
v -0.00198397 -0.11336037 0.00116766
v -0.00166235 -0.11336037 0.00121280
v -0.00065264 -0.11336037 0.00134824
v 0.00231499 -0.11336037 0.00110998
v 0.00254307 -0.11314305 0.00106065
v 0.00280319 -0.11336037 0.00099294
v -0.00436346 -0.11336037 0.00029572
v -0.00315129 -0.11336037 0.00086169
v -0.00295140 -0.11336037 0.00093358
v -0.00253880 -0.11336037 0.00105564
f 1 2 3
f 1 3 10
f 1 10 24
f 1 24 23
f 1 23 22
f 1 22 21
f 1 21 38
f 1 38 41
f 1 41 40
f 1 40 39
f 1 39 57
f 1 57 78
f 1 78 77
f 1 77 76
f 1 76 75
f 1 75 74
f 1 74 99
f 1 99 98
f 1 98 115
f 1 115 114
f 1 114 124
f 1 124 123
f 1 123 122
f 1 122 135
f 1 135 146
f 1 146 144
f 1 144 132
f 1 132 131
f 1 131 143
f 1 143 142
f 1 142 141
f 1 141 150
f 1 150 149
f 1 149 148
f 1 148 147
f 1 147 136
f 1 136 125
f 1 125 127
f 1 127 117
f 1 117 116
f 1 116 104
f 1 104 103
f 1 103 102
f 1 102 101
f 1 101 84
f 1 84 83
f 1 83 80
f 1 80 79
f 1 79 59
f 1 59 58
f 1 58 42
f 1 42 27
f 1 27 12
f 1 12 4
f 1 4 5
f 1 5 2
f 2 6 7
f 2 7 8
f 2 8 9
f 2 9 10
f 2 10 3
f 2 5 11
f 2 11 6
f 4 12 5
f 5 12 13
f 5 13 14
f 5 14 11
f 6 15 16
f 6 16 7
f 6 11 17
f 6 17 15
f 7 16 18
f 7 18 19
f 7 19 8
f 8 20 21
f 8 21 22
f 8 22 23
f 8 23 24
f 8 24 9
f 8 19 25
f 8 25 20
f 9 24 10
f 11 14 26
f 11 26 17
f 12 27 13
f 13 27 28
f 13 28 14
f 14 28 29
f 14 29 30
f 14 30 26
f 15 31 32
f 15 32 18
f 15 18 16
f 15 17 33
f 15 33 31
f 17 26 30
f 17 30 34
f 17 34 33
f 18 32 35
f 18 35 19
f 19 35 36
f 19 36 37
f 19 37 25
f 20 25 38
f 20 38 21
f 25 37 39
f 25 39 40
f 25 40 41
f 25 41 38
f 27 42 28
f 28 42 43
f 28 43 44
f 28 44 29
f 29 44 45
f 29 45 46
f 29 46 47
f 29 47 30
f 30 47 34
f 31 48 49
f 31 49 50
f 31 50 32
f 31 33 51
f 31 51 52
f 31 52 48
f 32 50 35
f 33 34 53
f 33 53 51
f 34 47 53
f 35 50 36
f 36 50 54
f 36 54 55
f 36 55 56
f 36 56 37
f 37 56 57
f 37 57 39
f 42 58 44
f 42 44 43
f 44 58 59
f 44 59 45
f 45 59 60
f 45 60 46
f 46 53 47
f 46 60 61
f 46 61 62
f 46 62 53
f 48 63 64
f 48 64 65
f 48 65 66
f 48 66 49
f 48 52 63
f 49 66 65
f 49 65 50
f 50 65 67
f 50 67 54
f 51 68 52
f 51 53 69
f 51 69 68
f 52 68 69
f 52 69 70
f 52 70 71
f 52 71 63
f 53 62 72
f 53 72 69
f 54 67 73
f 54 73 55
f 55 73 74
f 55 74 75
f 55 75 76
f 55 76 77
f 55 77 56
f 56 77 78
f 56 78 57
f 59 79 60
f 60 79 80
f 60 80 61
f 61 81 62
f 61 80 82
f 61 82 83
f 61 83 84
f 61 84 81
f 62 81 72
f 63 85 86
f 63 86 64
f 63 71 85
f 64 86 87
f 64 87 88
f 64 88 89
f 64 89 65
f 65 89 90
f 65 90 67
f 67 90 73
f 69 72 91
f 69 91 92
f 69 92 70
f 70 93 71
f 70 92 93
f 71 93 94
f 71 94 95
f 71 95 85
f 72 81 91
f 73 90 96
f 73 96 97
f 73 97 98
f 73 98 99
f 73 99 74
f 80 83 82
f 81 100 91
f 81 84 101
f 81 101 102
f 81 102 103
f 81 103 104
f 81 104 100
f 85 105 106
f 85 106 86
f 85 95 105
f 86 106 87
f 87 106 107
f 87 107 88
f 88 108 109
f 88 109 90
f 88 90 89
f 88 107 108
f 90 109 96
f 91 100 110
f 91 110 111
f 91 111 92
f 92 111 93
f 93 112 94
f 93 111 112
f 94 112 95
f 95 112 113
f 95 113 105
f 96 114 115
f 96 115 97
f 96 109 114
f 97 115 98
f 100 104 116
f 100 116 117
f 100 117 110
f 105 113 130
f 105 130 118
f 105 118 119
f 105 119 107
f 105 107 106
f 107 120 121
f 107 121 108
f 107 119 120
f 108 122 123
f 108 123 109
f 108 121 122
f 109 123 124
f 109 124 114
f 110 125 126
f 110 126 111
f 110 117 127
f 110 127 125
f 111 126 128
f 111 128 112
f 112 128 129
f 112 129 113
f 113 129 130
f 118 131 132
f 118 132 133
f 118 133 119
f 118 130 143
f 118 143 131
f 119 133 134
f 119 134 120
f 120 134 135
f 120 135 121
f 121 135 122
f 125 136 126
f 126 136 137
f 126 137 128
f 128 137 138
f 128 138 129
f 129 138 139
f 129 139 140
f 129 140 130
f 130 140 141
f 130 141 142
f 130 142 143
f 132 144 133
f 133 144 134
f 134 144 145
f 134 145 146
f 134 146 135
f 136 147 137
f 137 148 138
f 137 147 148
f 138 148 139
f 139 148 149
f 139 149 150
f 139 150 140
f 140 150 141
f 144 146 145

