# https://github.com/mikedh/trimesh
v -0.01525540 0.08116667 0.00399304
v -0.01521952 0.08116667 0.00507585
v -0.01353317 0.08116667 0.00399304
v -0.01523274 0.08036035 0.00399304
v -0.01519875 0.08036035 0.00507585
v -0.01513832 0.08116667 0.00587139
v -0.01508261 0.08036035 0.00621793
v -0.01021144 0.08116667 0.00787831
v -0.00569717 -0.02177320 0.00564137
v -0.00567545 -0.02242445 0.00562128
v -0.00563768 -0.02357190 0.00558712
v -0.00561030 -0.02444025 0.00556302
v -0.00627314 -0.02444025 0.00525866
v -0.00952877 -0.01447499 0.00399304
v -0.01519592 0.07921290 0.00399304
v -0.01516287 0.07921290 0.00507585
v -0.01510244 0.08116667 0.00621793
v -0.01484751 0.07156323 0.00569711
v -0.01504485 0.07921290 0.00621793
v -0.01484278 0.07627708 0.00679449
v -0.01485506 0.07692833 0.00681759
v -0.01489566 0.07921290 0.00689293
v -0.01014440 0.08116667 0.00850108
v -0.00911427 0.06295217 0.00791045
v -0.00683966 0.00795718 0.00677942
v -0.00569717 -0.02177320 0.00572172
v -0.00567545 -0.02242445 0.00588244
v -0.00563768 -0.02357190 0.00604265
v -0.00561030 -0.02444025 0.00608634
v -0.00911615 -0.02444025 0.00399304
v -0.00912748 -0.02407844 0.00399304
v -0.01511849 0.07699036 0.00399304
v -0.01508450 0.07692833 0.00507585
v -0.01492588 0.08116667 0.00694466
v -0.01491549 0.08036035 0.00692708
v -0.01490794 0.07464377 0.00604767
v -0.01496553 0.07692833 0.00621793
v -0.01145402 -0.02444025 0.00399304
v -0.01491360 0.07584290 0.00629125
v -0.01138037 -0.02444025 0.00436419
v -0.01370596 0.05220127 0.00679751
v -0.01377866 0.05523013 0.00688088
v -0.01380699 0.05637758 0.00691101
v -0.01442639 0.08036035 0.00749812
v -0.01020388 0.08116667 0.00912385
v -0.00911427 0.06295217 0.00796269
v -0.00683966 0.00795718 0.00679801
v -0.00627314 -0.02444025 0.00656798
v -0.00682361 0.00728525 0.00682613
v -0.00679812 0.00612746 0.00686631
v -0.00677262 0.00499034 0.00690046
v -0.00674808 0.00384289 0.00692909
v -0.00672447 0.00270578 0.00695320
v -0.00670087 0.00155832 0.00697379
v -0.00667915 0.00042121 0.00698936
v -0.00665932 -0.00072624 0.00700191
v -0.00664044 -0.00186336 0.00700995
v -0.00662344 -0.00301081 0.00701397
v -0.00661022 -0.00414792 0.00701347
v -0.00659795 -0.00529537 0.00700995
v -0.00658662 -0.00643249 0.00700543
v -0.00657623 -0.00756960 0.00699840
v -0.00656962 -0.00871705 0.00698584
v -0.00656679 -0.00986451 0.00697027
v -0.01458785 0.08116667 0.00734243
v -0.01443961 0.08116667 0.00751570
v -0.01078457 -0.02444025 0.00507887
v -0.01140397 -0.02270356 0.00446715
v -0.01141436 -0.02193859 0.00450883
v -0.01141153 -0.00584326 0.00564488
v -0.01368802 0.07416825 0.00792552
v -0.01371540 0.07493322 0.00794109
v -0.01374089 0.07579122 0.00795716
v -0.01377205 0.07692833 0.00797574
v -0.01382965 0.07921290 0.00800989
v -0.01060612 0.08116667 0.00912385
v -0.01020294 0.08037069 0.00912334
v -0.00896508 0.05637758 0.00816408
v -0.00899057 0.05751469 0.00814198
v -0.00901607 0.05865180 0.00811687
v -0.00904156 0.05980960 0.00808573
v -0.00906705 0.06094671 0.00804907
v -0.00909444 0.06208382 0.00800387
v -0.00741563 -0.02444025 0.00649265
v -0.00656490 -0.01099128 0.00695320
v -0.00656395 -0.01214907 0.00693562
v -0.00656395 -0.01328619 0.00691754
v -0.00656584 -0.01443364 0.00689896
v -0.00656962 -0.01557075 0.00688088
v -0.00657812 -0.01671820 0.00686229
v -0.00659511 -0.01785532 0.00684371
v -0.00662438 -0.01900277 0.00682463
v -0.00669331 -0.02013989 0.00680554
v -0.00677829 -0.02087384 0.00679298
v -0.00686516 -0.02087384 0.00679298
v -0.01020388 0.07921290 0.00911933
v -0.01020955 0.07808612 0.00911330
v -0.01021899 0.07693868 0.00910526
v -0.01023221 0.07580156 0.00909472
v -0.01025298 0.07464377 0.00908266
v -0.01386742 0.08116667 0.00803249
v -0.01385514 0.08036035 0.00802496
v -0.01067599 -0.02444025 0.00518634
v -0.01062122 -0.02444025 0.00524008
v -0.01022088 -0.02444025 0.00562379
v -0.01024637 -0.02387169 0.00563484
v -0.01027753 -0.02310672 0.00565041
v -0.01323574 0.07458174 0.00812340
v -0.01312621 0.07579122 0.00821079
v -0.01312621 0.07692833 0.00824795
v -0.01312621 0.07921290 0.00831726
v -0.01312621 0.08036035 0.00834890
v -0.01117736 0.08116667 0.00901084
v -0.01057212 0.08037069 0.00912334
v -0.00828147 -0.02444025 0.00627368
v -0.01026715 0.07399251 0.00907513
v -0.00802559 -0.01190098 0.00680002
v -0.00855718 -0.02444025 0.00620336
v -0.01028036 0.07399251 0.00907513
v -0.00916242 0.03033765 0.00794109
v -0.01051925 0.07921290 0.00911933
v -0.01046637 0.07808612 0.00911330
v -0.01041727 0.07693868 0.00910526
v -0.01036629 0.07580156 0.00909472
v -0.01031152 0.07464377 0.00908266
v -0.01334716 0.08116667 0.00826603
v -0.01312621 0.08116667 0.00836447
v -0.00967418 -0.02444025 0.00583020
v -0.01256724 0.06250766 0.00793556
v -0.01308561 0.07350666 0.00814299
v -0.01198372 0.07008497 0.00843277
v -0.01198372 0.07236954 0.00851564
v -0.01198372 0.07351699 0.00855632
v -0.01198372 0.07464377 0.00859249
v -0.01238029 0.07995719 0.00860102
v -0.01198372 0.08037069 0.00875169
v -0.01238029 0.08087723 0.00862513
v -0.01238029 0.08116667 0.00863216
v -0.01143324 0.08116667 0.00893551
v -0.01088277 0.07464377 0.00892999
v -0.01067599 0.07464377 0.00898573
v -0.00827769 -0.00756960 0.00687736
v -0.01084217 0.05179811 0.00816659
v -0.00937581 -0.02444025 0.00593115
v -0.01084217 0.05864147 0.00840816
v -0.01084217 0.06208382 0.00852719
v -0.01147384 0.05179811 0.00795314
v -0.01198372 0.08116667 0.00877178
f 1 2 6
f 1 6 17
f 1 17 34
f 1 34 65
f 1 65 66
f 1 66 101
f 1 101 126
f 1 126 127
f 1 127 138
f 1 138 148
f 1 148 139
f 1 139 113
f 1 113 76
f 1 76 45
f 1 45 23
f 1 23 8
f 1 8 3
f 1 3 14
f 1 14 31
f 1 31 30
f 1 30 38
f 1 38 32
f 1 32 15
f 1 15 4
f 1 4 5
f 1 5 2
f 2 5 7
f 2 7 6
f 3 8 9
f 3 9 10
f 3 10 11
f 3 11 12
f 3 12 13
f 3 13 14
f 4 15 16
f 4 16 5
f 5 16 7
f 6 7 17
f 7 16 18
f 7 18 19
f 7 19 20
f 7 20 21
f 7 21 22
f 7 22 17
f 8 23 24
f 8 24 9
f 9 25 47
f 9 47 26
f 9 26 27
f 9 27 10
f 9 24 25
f 10 27 28
f 10 28 11
f 11 28 29
f 11 29 12
f 12 29 48
f 12 48 84
f 12 84 115
f 12 115 118
f 12 118 144
f 12 144 128
f 12 128 105
f 12 105 104
f 12 104 103
f 12 103 67
f 12 67 40
f 12 40 38
f 12 38 30
f 12 30 13
f 13 30 31
f 13 31 14
f 15 32 33
f 15 33 16
f 16 33 18
f 17 22 35
f 17 35 34
f 18 36 37
f 18 37 19
f 18 33 38
f 18 38 36
f 19 37 20
f 20 37 39
f 20 39 38
f 20 38 40
f 20 40 41
f 20 41 21
f 21 41 42
f 21 42 43
f 21 43 44
f 21 44 22
f 22 44 35
f 23 45 46
f 23 46 24
f 24 46 47
f 24 47 25
f 26 47 27
f 27 47 28
f 28 47 29
f 29 47 49
f 29 49 50
f 29 50 51
f 29 51 52
f 29 52 53
f 29 53 54
f 29 54 55
f 29 55 56
f 29 56 57
f 29 57 58
f 29 58 59
f 29 59 60
f 29 60 61
f 29 61 62
f 29 62 63
f 29 63 64
f 29 64 48
f 32 38 33
f 34 35 65
f 35 44 66
f 35 66 65
f 36 38 39
f 36 39 37
f 40 67 68
f 40 68 41
f 41 68 69
f 41 69 70
f 41 70 71
f 41 71 72
f 41 72 42
f 42 72 43
f 43 72 44
f 44 72 73
f 44 73 74
f 44 74 75
f 44 75 66
f 45 76 114
f 45 114 77
f 45 77 61
f 45 61 60
f 45 60 59
f 45 59 58
f 45 58 57
f 45 57 56
f 45 56 55
f 45 55 54
f 45 54 53
f 45 53 78
f 45 78 79
f 45 79 80
f 45 80 81
f 45 81 82
f 45 82 83
f 45 83 46
f 46 83 47
f 47 83 49
f 48 64 85
f 48 85 86
f 48 86 87
f 48 87 88
f 48 88 89
f 48 89 90
f 48 90 91
f 48 91 92
f 48 92 93
f 48 93 94
f 48 94 95
f 48 95 84
f 49 83 82
f 49 82 50
f 50 82 81
f 50 81 51
f 51 81 80
f 51 80 52
f 52 80 79
f 52 79 78
f 52 78 53
f 61 77 62
f 62 77 96
f 62 96 97
f 62 97 63
f 63 97 98
f 63 98 99
f 63 99 64
f 64 99 100
f 64 100 85
f 66 75 102
f 66 102 101
f 67 69 68
f 67 103 70
f 67 70 69
f 70 103 104
f 70 104 105
f 70 105 106
f 70 106 107
f 70 107 71
f 71 108 109
f 71 109 72
f 71 107 106
f 71 106 105
f 71 105 108
f 72 109 110
f 72 110 73
f 73 110 111
f 73 111 74
f 74 111 112
f 74 112 75
f 75 112 102
f 76 113 114
f 77 114 121
f 77 121 96
f 84 95 115
f 85 100 86
f 86 100 87
f 87 100 116
f 87 116 88
f 88 116 89
f 89 116 90
f 90 116 91
f 91 116 92
f 92 116 93
f 93 116 94
f 94 116 119
f 94 119 95
f 95 117 118
f 95 118 115
f 95 119 120
f 95 120 117
f 96 121 122
f 96 122 97
f 97 122 123
f 97 123 98
f 98 123 124
f 98 124 99
f 99 124 125
f 99 125 100
f 100 125 119
f 100 119 116
f 101 102 126
f 102 112 127
f 102 127 126
f 105 128 129
f 105 129 130
f 105 130 108
f 108 130 109
f 109 130 131
f 109 131 132
f 109 132 133
f 109 133 110
f 110 133 134
f 110 134 111
f 111 135 112
f 111 134 135
f 112 135 136
f 112 136 137
f 112 137 138
f 112 138 127
f 113 122 121
f 113 121 114
f 113 139 140
f 113 140 141
f 113 141 119
f 113 119 125
f 113 125 124
f 113 124 123
f 113 123 122
f 117 120 142
f 117 142 118
f 118 143 144
f 118 142 120
f 118 120 145
f 118 145 143
f 119 141 140
f 119 140 146
f 119 146 120
f 120 146 145
f 128 144 147
f 128 147 129
f 129 131 130
f 129 147 131
f 131 147 132
f 132 147 143
f 132 143 133
f 133 143 145
f 133 145 146
f 133 146 140
f 133 140 134
f 134 140 136
f 134 136 135
f 136 139 148
f 136 148 137
f 136 140 139
f 137 148 138
f 143 147 144

