# https://github.com/mikedh/trimesh
v 0.00063315 -0.12916353 -0.00343804
v 0.00066018 -0.12916156 -0.00343804
v 0.00063315 -0.12910656 -0.00215263
v -0.00065311 -0.12916058 -0.00343804
v 0.00063315 -0.12897886 -0.00472463
v 0.00066018 -0.12898180 -0.00469740
v 0.00066018 -0.12910458 -0.00215263
v 0.00063315 -0.12881973 -0.00086604
v -0.00065311 -0.12910360 -0.00215263
v -0.00194017 -0.12906923 -0.00343804
v -0.00065311 -0.12897591 -0.00472463
v 0.00066018 -0.12897689 -0.00472463
v 0.00063315 -0.12866747 -0.00576857
v 0.00066018 -0.12866649 -0.00576621
v 0.00066018 -0.12881678 -0.00086368
v 0.00066018 -0.12881187 -0.00084474
v 0.00063315 -0.12856532 -0.00010143
v -0.00065311 -0.12881678 -0.00086604
v -0.00194017 -0.12901127 -0.00215263
v -0.00322643 -0.12880893 -0.00215263
v -0.00322643 -0.12886197 -0.00343804
v -0.00324233 -0.12866256 -0.00476369
v -0.00194017 -0.12887769 -0.00472463
v -0.00194017 -0.12861345 -0.00563246
v -0.00065311 -0.12866550 -0.00576502
v -0.00065311 -0.12839833 -0.00640891
v 0.00063315 -0.12839931 -0.00641246
v 0.00066018 -0.12840422 -0.00639589
v 0.00066018 -0.12856434 -0.00010261
v -0.00065311 -0.12856335 -0.00010498
v 0.00063315 -0.12823723 0.00054246
v -0.00065311 -0.12823625 0.00053891
v -0.00155779 -0.12853585 -0.00016179
v -0.00196799 -0.12869006 -0.00077135
v -0.00322643 -0.12861541 -0.00115958
v -0.00397688 -0.12853684 -0.00141406
v -0.00418755 -0.12859380 -0.00215263
v -0.00428692 -0.12861934 -0.00343804
v -0.00410964 -0.12857121 -0.00436126
v -0.00368036 -0.12847200 -0.00521819
v -0.00282338 -0.12855156 -0.00547622
v -0.00194017 -0.12834037 -0.00627516
v -0.00194017 -0.12776868 -0.00729780
v -0.00065311 -0.12788165 -0.00729780
v 0.00063315 -0.12788361 -0.00729780
v 0.00066018 -0.12788165 -0.00729780
v 0.00066018 -0.12839833 -0.00640891
v 0.00066018 -0.12823723 0.00053772
v 0.00066018 -0.12822250 0.00056376
v 0.00066018 -0.12759286 0.00163020
v 0.00063315 -0.12759384 0.00163138
v -0.00065311 -0.12759286 0.00162901
v -0.00194017 -0.12753785 0.00154735
v -0.00196799 -0.12823527 0.00032822
v -0.00241556 -0.12848772 -0.00028016
v -0.00322643 -0.12841011 -0.00051688
v -0.00579895 -0.12809775 -0.00215263
v -0.00483068 -0.12841699 -0.00215263
v -0.00444830 -0.12825098 -0.00093706
v -0.00579895 -0.12780994 -0.00086604
v -0.00493085 -0.12844646 -0.00343804
v -0.00579895 -0.12796514 -0.00472463
v -0.00452780 -0.12836100 -0.00476369
v -0.00582280 -0.12751035 -0.00605383
v -0.00451269 -0.12793764 -0.00601121
v -0.00324233 -0.12826474 -0.00594730
v -0.00317635 -0.12752802 -0.00737474
v -0.00271447 -0.12724414 -0.00797246
v -0.00194017 -0.12729326 -0.00803520
v -0.00065311 -0.12734827 -0.00810858
v 0.00063315 -0.12734925 -0.00810976
v 0.00066018 -0.12734827 -0.00810858
v 0.00066018 -0.12713315 0.00227290
v 0.00063315 -0.12713511 0.00227408
v -0.00065311 -0.12713315 0.00227290
v -0.00322643 -0.12744453 0.00140176
v -0.00194017 -0.12703099 0.00219005
v -0.00322643 -0.12798970 0.00042054
v -0.00462478 -0.12760072 0.00054009
v -0.00745965 -0.12729130 -0.00126492
v -0.00708522 -0.12760268 -0.00215263
v -0.00579895 -0.12815374 -0.00343804
v -0.00579895 -0.12741506 0.00017435
v -0.00657882 -0.12727754 -0.00010616
v -0.00703911 -0.12737479 -0.00097020
v -0.00745965 -0.12735809 -0.00448080
v -0.00712735 -0.12745141 -0.00469859
v -0.00672669 -0.12734041 -0.00565376
v -0.00626719 -0.12714494 -0.00651070
v -0.00540942 -0.12731192 -0.00680660
v -0.00451269 -0.12743962 -0.00702557
v -0.00357145 -0.12715574 -0.00785410
v -0.00317635 -0.12666755 -0.00833938
v -0.00194017 -0.12657718 -0.00863292
v -0.00074771 -0.12648582 -0.00884360
v 0.00066018 -0.12648582 -0.00884597
v 0.00066018 -0.12713610 -0.00829086
v 0.00066018 -0.12712038 0.00228119
v 0.00063315 -0.12649270 0.00263745
v -0.00065311 -0.12648976 0.00263509
v -0.00194017 -0.12638760 0.00257117
v -0.00427023 -0.12733255 0.00122777
v -0.00322643 -0.12614792 0.00245163
v -0.00322643 -0.12679131 0.00204446
v -0.00512800 -0.12720976 0.00104904
v -0.00745965 -0.12744257 -0.00215263
v -0.00745965 -0.12703394 -0.00067430
v -0.00708522 -0.12765081 -0.00343804
v -0.00745965 -0.12744846 -0.00386296
v -0.00579895 -0.12699858 0.00081824
v -0.00699221 -0.12654771 0.00034243
v -0.00743659 -0.12701822 -0.00061038
v -0.00745965 -0.12722745 -0.00499923
v -0.00745965 -0.12717244 -0.00518979
v -0.00684037 -0.12628740 -0.00697231
v -0.00582280 -0.12662531 -0.00731793
v -0.00451269 -0.12697893 -0.00766827
v -0.00745965 -0.12700054 -0.00545492
v -0.00721241 -0.12671568 -0.00613786
v -0.00451269 -0.12633553 -0.00821629
v -0.00038203 -0.12599468 -0.00925787
v 0.00066018 -0.12644948 -0.00887674
v 0.00066018 -0.12637090 -0.00894303
v 0.00066018 -0.12649074 0.00263627
v 0.00063315 -0.12529137 0.00283157
v -0.00065311 -0.12529137 0.00282802
v -0.00194017 -0.12529137 0.00270255
v -0.00390374 -0.12596325 0.00236286
v -0.00451587 -0.12658700 0.00171897
v -0.00579895 -0.12635518 0.00133666
v -0.00654782 -0.12607720 0.00114018
v -0.00745965 -0.12748579 -0.00343804
v -0.00745965 -0.12700250 -0.00062459
v -0.00745965 -0.12634143 0.00012582
v -0.00745965 -0.12658504 -0.00602542
v -0.00745965 -0.12551042 -0.00664800
v -0.00699141 -0.12529137 -0.00709422
v -0.00537842 -0.12610470 -0.00804703
v -0.00322643 -0.12529137 -0.00880928
v -0.00038203 -0.12571179 -0.00925787
v 0.00038830 -0.12599468 -0.00925787
v -0.00194017 -0.12529137 -0.00904837
v 0.00066018 -0.12538567 -0.00919159
v 0.00066018 -0.12529137 0.00282920
v 0.00066018 -0.12526289 0.00282447
v 0.00066018 -0.12471084 0.00269782
v -0.00071512 -0.12392010 0.00251199
v -0.00150214 -0.12334939 0.00236167
v -0.00235991 -0.12342700 0.00233800
v -0.00284564 -0.12428453 0.00241493
v -0.00325505 -0.12536209 0.00246938
v -0.00390374 -0.12583752 0.00236286
v -0.00579895 -0.12529137 0.00153314
v -0.00653748 -0.12529137 0.00113308
v -0.00718141 -0.12529137 0.00060164
v -0.00745965 -0.12529137 0.00034953
v -0.00745965 -0.12564205 0.00033177
v -0.00745965 -0.12529137 -0.00670245
v -0.00606925 -0.12529137 -0.00773692
v -0.00685706 -0.12400556 -0.00698296
v -0.00542611 -0.12529137 -0.00807070
v -0.00451269 -0.12529137 -0.00842224
v -0.00460252 -0.12393975 -0.00817605
v -0.00322643 -0.12400556 -0.00858794
v 0.00038830 -0.12571179 -0.00925787
v -0.00074771 -0.12528646 -0.00916791
v -0.00194017 -0.12400556 -0.00880099
v 0.00066018 -0.12528646 -0.00917028
v 0.00066018 -0.12392010 0.00251317
v -0.00417403 -0.11912853 0.00111059
v -0.00118574 -0.12334939 0.00236167
v -0.00438550 -0.11912853 0.00107272
v -0.00480206 -0.11912853 0.00099696
v -0.00325505 -0.12391617 0.00225160
v -0.00370262 -0.12497999 0.00231078
v -0.00451269 -0.12400556 0.00190953
v -0.00440458 -0.12536209 0.00213205
v -0.00523612 -0.12048408 0.00110704
v -0.00587130 -0.12407432 0.00132719
v -0.00646435 -0.12454876 0.00108100
v -0.00708840 -0.12399082 0.00043475
v -0.00745965 -0.12414603 0.00013648
v -0.00745965 -0.12400556 -0.00644205
v -0.00575285 -0.12393975 -0.00767538
v -0.00529335 -0.12432481 -0.00800679
v -0.00666865 -0.12271877 -0.00683146
v -0.00509223 -0.12346727 -0.00791920
v -0.00422253 -0.12271877 -0.00805650
v -0.00397529 -0.12193982 -0.00797720
v 0.00066018 -0.12520984 -0.00915134
v -0.00065311 -0.12400556 -0.00884952
v -0.00451269 -0.11912853 -0.00707647
v 0.00066018 -0.12339950 0.00230012
v -0.00381232 -0.11912853 0.00110941
v -0.00398642 -0.11912853 0.00111059
v -0.00578147 -0.11912853 0.00048683
v -0.00495311 -0.11962654 0.00104549
v -0.00451269 -0.12143198 0.00148106
v -0.00451269 -0.12271877 0.00170595
v -0.00571866 -0.12009117 0.00072592
v -0.00620280 -0.12271877 0.00091885
v -0.00634828 -0.12369221 0.00100762
v -0.00698187 -0.12271877 0.00027496
v -0.00745965 -0.12318536 -0.00006474
v -0.00652635 -0.12180230 -0.00672138
v -0.00745965 -0.12373151 -0.00636156
v -0.00676325 -0.11912853 -0.00573188
v -0.00662890 -0.11912853 -0.00586800
v -0.00560975 -0.12014519 -0.00693443
v -0.00542691 -0.11912853 -0.00682199
v -0.00486645 -0.12271877 -0.00783635
v -0.00519637 -0.11912853 -0.00689538
v 0.00066018 -0.12431989 -0.00892882
v 0.00066018 -0.12400556 -0.00884952
v -0.00362153 -0.11912853 -0.00690958
v 0.00066018 -0.12315785 0.00178052
v -0.00348321 -0.11912853 0.00058270
v -0.00656372 -0.11912853 -0.00010025
v -0.00667740 -0.12014519 0.00001101
v -0.00682685 -0.12143198 0.00014713
v -0.00745965 -0.12245257 -0.00025530
v -0.00638723 -0.12094477 -0.00661367
v -0.00745965 -0.12246338 -0.00593783
v -0.00745965 -0.12172077 -0.00568335
v -0.00745965 -0.12121097 -0.00549516
v -0.00745965 -0.12014519 -0.00508089
v -0.00745965 -0.11948608 -0.00478499
v -0.00741910 -0.11912853 -0.00468320
v -0.00607004 -0.11912853 -0.00637577
v -0.00625288 -0.12014519 -0.00651188
v 0.00066018 -0.12309008 -0.00827547
v -0.00314693 -0.11912853 -0.00601121
v 0.00066018 -0.12271779 0.00042054
v -0.00293309 -0.11912853 -0.00059736
v -0.00339735 -0.11912853 0.00042054
v -0.00672112 -0.11912853 -0.00030501
v -0.00745965 -0.12141627 -0.00057014
v -0.00745965 -0.11912853 -0.00459680
v 0.00066018 -0.12269913 -0.00729780
v -0.00276217 -0.11912853 -0.00473646
v 0.00066018 -0.12245847 -0.00086604
v -0.00281940 -0.11912853 -0.00091931
v -0.00713292 -0.11912853 -0.00087906
v -0.00745965 -0.12127089 -0.00061985
v -0.00745965 -0.11912853 -0.00148271
v 0.00066018 -0.12245061 -0.00604317
v -0.00261907 -0.11912853 -0.00343804
v 0.00066018 -0.12224237 -0.00471871
v 0.00066018 -0.12244471 -0.00601121
v 0.00066018 -0.12225121 -0.00210174
v 0.00066018 -0.12224629 -0.00213488
v -0.00264451 -0.11912853 -0.00215263
v -0.00715756 -0.11912853 -0.00091812
v -0.00745965 -0.12015502 -0.00100808
v -0.00738731 -0.12008528 -0.00092404
v -0.00745965 -0.11932990 -0.00132884
v -0.00728952 -0.11912853 -0.00113117
v 0.00066018 -0.12218638 -0.00343804
v 0.00066018 -0.12218932 -0.00323091
f 1 2 7
f 1 7 3
f 1 3 9
f 1 9 4
f 1 4 11
f 1 11 5
f 1 5 6
f 1 6 2
f 2 6 12
f 2 12 14
f 2 14 28
f 2 28 47
f 2 47 46
f 2 46 72
f 2 72 97
f 2 97 96
f 2 96 122
f 2 122 123
f 2 123 143
f 2 143 168
f 2 168 190
f 2 190 213
f 2 213 214
f 2 214 231
f 2 231 239
f 2 239 246
f 2 246 249
f 2 249 248
f 2 248 258
f 2 258 259
f 2 259 251
f 2 251 250
f 2 250 241
f 2 241 233
f 2 233 216
f 2 216 193
f 2 193 169
f 2 169 146
f 2 146 145
f 2 145 144
f 2 144 124
f 2 124 98
f 2 98 73
f 2 73 50
f 2 50 49
f 2 49 48
f 2 48 29
f 2 29 16
f 2 16 15
f 2 15 7
f 3 7 8
f 3 8 18
f 3 18 9
f 4 9 10
f 4 10 11
f 5 12 6
f 5 11 13
f 5 13 14
f 5 14 12
f 7 15 8
f 8 15 16
f 8 16 17
f 8 17 18
f 9 18 19
f 9 19 10
f 10 19 20
f 10 20 21
f 10 21 22
f 10 22 23
f 10 23 11
f 11 23 24
f 11 24 25
f 11 25 13
f 13 25 26
f 13 26 27
f 13 27 14
f 14 27 28
f 16 29 17
f 17 30 18
f 17 29 31
f 17 31 32
f 17 32 30
f 18 30 33
f 18 33 34
f 18 34 19
f 19 34 35
f 19 35 20
f 20 35 36
f 20 36 37
f 20 37 21
f 21 38 39
f 21 39 22
f 21 37 38
f 22 39 40
f 22 40 41
f 22 41 23
f 23 41 24
f 24 41 42
f 24 42 26
f 24 26 25
f 26 43 44
f 26 44 27
f 26 42 43
f 27 44 45
f 27 45 46
f 27 46 47
f 27 47 28
f 29 48 31
f 30 32 33
f 31 48 49
f 31 49 50
f 31 50 51
f 31 51 52
f 31 52 32
f 32 52 53
f 32 53 54
f 32 54 33
f 33 54 55
f 33 55 34
f 34 55 35
f 35 55 56
f 35 56 36
f 36 57 58
f 36 58 37
f 36 56 59
f 36 59 60
f 36 60 57
f 37 58 61
f 37 61 38
f 38 61 39
f 39 61 62
f 39 62 63
f 39 63 40
f 40 64 65
f 40 65 66
f 40 66 41
f 40 63 64
f 41 66 42
f 42 66 67
f 42 67 43
f 43 67 68
f 43 68 69
f 43 69 44
f 44 69 70
f 44 70 45
f 45 70 71
f 45 71 72
f 45 72 46
f 50 73 74
f 50 74 51
f 51 74 52
f 52 74 75
f 52 75 53
f 53 76 54
f 53 75 77
f 53 77 76
f 54 78 55
f 54 76 78
f 55 78 56
f 56 78 79
f 56 79 59
f 57 60 80
f 57 80 81
f 57 81 82
f 57 82 61
f 57 61 58
f 59 79 83
f 59 83 60
f 60 83 84
f 60 84 85
f 60 85 80
f 61 82 62
f 62 86 87
f 62 87 88
f 62 88 64
f 62 64 63
f 62 82 86
f 64 88 89
f 64 89 90
f 64 90 65
f 65 90 91
f 65 91 66
f 66 91 67
f 67 91 92
f 67 92 68
f 68 93 94
f 68 94 69
f 68 92 93
f 69 94 95
f 69 95 70
f 70 95 96
f 70 96 71
f 71 96 97
f 71 97 72
f 73 98 74
f 74 98 99
f 74 99 75
f 75 99 100
f 75 100 101
f 75 101 77
f 76 77 102
f 76 102 78
f 77 101 103
f 77 103 104
f 77 104 102
f 78 102 79
f 79 102 105
f 79 105 83
f 80 106 81
f 80 85 84
f 80 84 107
f 80 107 133
f 80 133 134
f 80 134 157
f 80 157 156
f 80 156 182
f 80 182 204
f 80 204 221
f 80 221 237
f 80 237 244
f 80 244 254
f 80 254 256
f 80 256 245
f 80 245 238
f 80 238 227
f 80 227 226
f 80 226 225
f 80 225 224
f 80 224 223
f 80 223 206
f 80 206 183
f 80 183 158
f 80 158 136
f 80 136 135
f 80 135 118
f 80 118 114
f 80 114 113
f 80 113 86
f 80 86 109
f 80 109 132
f 80 132 106
f 81 106 108
f 81 108 82
f 82 108 109
f 82 109 86
f 83 105 84
f 84 105 110
f 84 110 111
f 84 111 112
f 84 112 107
f 86 113 87
f 87 113 114
f 87 114 88
f 88 114 89
f 89 115 116
f 89 116 117
f 89 117 90
f 89 114 118
f 89 118 119
f 89 119 115
f 90 117 92
f 90 92 91
f 92 117 120
f 92 120 93
f 93 120 121
f 93 121 94
f 94 121 95
f 95 122 96
f 95 121 123
f 95 123 122
f 98 124 99
f 99 124 125
f 99 125 100
f 100 125 126
f 100 126 101
f 101 126 127
f 101 127 103
f 102 104 105
f 103 127 128
f 103 128 104
f 104 128 129
f 104 129 105
f 105 129 130
f 105 130 131
f 105 131 110
f 106 132 108
f 107 112 133
f 108 132 109
f 110 131 111
f 111 134 112
f 111 131 134
f 112 134 133
f 115 119 135
f 115 135 136
f 115 136 137
f 115 137 138
f 115 138 116
f 116 138 117
f 117 138 120
f 118 135 119
f 120 138 139
f 120 139 121
f 121 140 165
f 121 165 141
f 121 141 123
f 121 139 142
f 121 142 140
f 123 141 143
f 124 144 125
f 125 144 145
f 125 145 146
f 125 146 147
f 125 147 126
f 126 147 148
f 126 148 149
f 126 149 127
f 127 149 150
f 127 150 151
f 127 151 152
f 127 152 128
f 128 152 153
f 128 153 131
f 128 131 130
f 128 130 129
f 131 153 154
f 131 154 155
f 131 155 156
f 131 156 157
f 131 157 134
f 136 158 137
f 137 159 138
f 137 158 160
f 137 160 159
f 138 161 162
f 138 162 139
f 138 159 161
f 139 162 163
f 139 163 164
f 139 164 142
f 140 143 165
f 140 142 166
f 140 166 143
f 141 165 143
f 142 164 167
f 142 167 166
f 143 166 168
f 146 169 147
f 147 169 148
f 148 170 149
f 148 169 171
f 148 171 195
f 148 195 170
f 149 170 172
f 149 172 173
f 149 173 150
f 150 173 174
f 150 174 175
f 150 175 151
f 151 175 152
f 152 175 176
f 152 176 177
f 152 177 153
f 153 178 179
f 153 179 180
f 153 180 154
f 153 177 176
f 153 176 178
f 154 180 155
f 155 180 181
f 155 181 182
f 155 182 156
f 158 183 160
f 159 160 184
f 159 184 185
f 159 185 161
f 160 183 186
f 160 186 184
f 161 185 162
f 162 185 163
f 163 185 187
f 163 187 188
f 163 188 164
f 164 188 189
f 164 189 167
f 166 190 168
f 166 167 191
f 166 191 190
f 167 189 192
f 167 192 191
f 169 193 194
f 169 194 171
f 170 195 194
f 170 194 217
f 170 217 235
f 170 235 234
f 170 234 242
f 170 242 252
f 170 252 247
f 170 247 240
f 170 240 232
f 170 232 215
f 170 215 192
f 170 192 212
f 170 212 210
f 170 210 229
f 170 229 208
f 170 208 207
f 170 207 228
f 170 228 238
f 170 238 245
f 170 245 257
f 170 257 253
f 170 253 243
f 170 243 236
f 170 236 218
f 170 218 196
f 170 196 173
f 170 173 172
f 171 194 195
f 173 196 197
f 173 197 198
f 173 198 174
f 174 199 175
f 174 198 199
f 175 199 176
f 176 199 178
f 178 197 196
f 178 196 200
f 178 200 201
f 178 201 202
f 178 202 180
f 178 180 179
f 178 199 197
f 180 202 203
f 180 203 181
f 181 203 182
f 182 203 204
f 183 205 186
f 183 206 207
f 183 207 208
f 183 208 205
f 184 186 205
f 184 205 209
f 184 209 210
f 184 210 185
f 185 210 187
f 187 189 188
f 187 210 211
f 187 211 189
f 189 211 210
f 189 210 212
f 189 212 192
f 190 191 213
f 191 214 213
f 191 192 214
f 192 215 214
f 193 216 217
f 193 217 194
f 196 218 201
f 196 201 200
f 197 199 198
f 201 218 202
f 202 218 219
f 202 219 220
f 202 220 203
f 203 220 204
f 204 220 218
f 204 218 221
f 205 208 222
f 205 222 210
f 205 210 209
f 206 223 207
f 207 223 224
f 207 224 225
f 207 225 226
f 207 226 227
f 207 227 228
f 208 229 230
f 208 230 222
f 210 222 230
f 210 230 229
f 214 215 231
f 215 232 231
f 216 233 234
f 216 234 235
f 216 235 217
f 218 236 237
f 218 237 221
f 218 220 219
f 227 238 228
f 231 232 239
f 232 240 239
f 233 241 242
f 233 242 234
f 236 243 237
f 237 243 244
f 239 240 246
f 240 247 248
f 240 248 249
f 240 249 246
f 241 250 242
f 242 250 251
f 242 251 252
f 243 253 254
f 243 254 255
f 243 255 244
f 244 255 254
f 245 256 257
f 247 258 248
f 247 252 259
f 247 259 258
f 251 259 252
f 253 257 254
f 254 257 256

