# https://github.com/mikedh/trimesh
v 0.01173155 0.10435734 0.00706514
v 0.01167094 0.10549761 0.00705652
v 0.01112656 0.10435734 0.00706514
v 0.01174422 0.10321400 0.00700384
v 0.01519890 0.08300480 0.00585631
v 0.01519945 0.08301706 0.00585631
v 0.01520771 0.08380176 0.00585631
v 0.01520827 0.08416040 0.00585631
v 0.01520166 0.08494204 0.00585631
v 0.01519394 0.08530373 0.00585631
v 0.01516474 0.08608537 0.00585631
v 0.01159325 0.10664095 0.00700096
v 0.01056401 0.11120818 0.00696840
v 0.01068522 0.11006790 0.00700384
v 0.01107422 0.10549761 0.00705652
v 0.01513278 0.08644708 0.00585631
v 0.01504297 0.08721339 0.00585631
v 0.01011716 0.11006790 0.00700384
v 0.01018217 0.10892457 0.00695307
v 0.01121252 0.10321400 0.00700384
v 0.01324510 0.08300480 0.00585631
v 0.01528155 0.08300480 0.00507374
v 0.01529312 0.08380176 0.00507374
v 0.01529422 0.08494204 0.00507374
v 0.01526832 0.08608537 0.00507374
v 0.01151336 0.10778123 0.00690901
v 0.01042461 0.11197449 0.00687931
v 0.01011440 0.11120818 0.00696840
v 0.01145936 0.10853221 0.00683046
v 0.01516749 0.08722565 0.00507374
v 0.01143071 0.11063497 0.00563984
v 0.01148746 0.10987172 0.00589750
v 0.01154807 0.10891843 0.00625287
v 0.00993423 0.11006790 0.00621647
v 0.00986701 0.11120818 0.00621647
v 0.01024223 0.10799886 0.00686782
v 0.01209685 0.08731761 -0.00271946
v 0.01283242 0.08300480 -0.00271946
v 0.01007032 0.10892457 0.00621647
v 0.01529422 0.08300480 0.00472508
v 0.01533554 0.08380176 0.00393196
v 0.01534105 0.08494204 0.00393196
v 0.01532342 0.08608537 0.00393196
v 0.01524408 0.08722565 0.00393196
v 0.01018934 0.11197449 0.00687931
v 0.01134751 0.10929546 0.00665901
v 0.01106596 0.11120818 0.00621647
v 0.01068578 0.11235458 0.00626436
v 0.01052434 0.11316994 0.00591474
v 0.01000200 0.11235458 0.00626436
v 0.01415423 0.09522289 0.00279019
v 0.01398232 0.09636623 0.00279019
v 0.01142685 0.11176299 0.00446166
v 0.01148636 0.11099974 0.00487833
v 0.01117615 0.11235151 0.00507470
v 0.00973863 0.11235151 0.00507470
v 0.00983120 0.11120818 0.00507470
v 0.00982348 0.11120818 -0.00063610
v 0.01204726 0.08839351 -0.00271946
v 0.01017115 0.10892457 -0.00167059
v 0.01010173 0.11006790 -0.00169454
v 0.01507713 0.08300480 -0.00271946
v 0.01532122 0.08300480 0.00393196
v 0.01535428 0.08380176 0.00279019
v 0.01536364 0.08494204 0.00279019
v 0.01535152 0.08608537 0.00279019
v 0.01528706 0.08722565 0.00279019
v 0.01513939 0.08836899 0.00279019
v 0.01009567 0.11316994 0.00591474
v 0.01067806 0.11352857 0.00506224
v 0.01041965 0.11415388 0.00467335
v 0.01416415 0.09522289 0.00164937
v 0.01372942 0.09815940 0.00238118
v 0.01515041 0.08836899 0.00201048
v 0.01515482 0.08836899 0.00164841
v 0.01432944 0.09408262 0.00164937
v 0.01145440 0.11191012 0.00370016
v 0.01132657 0.11231473 0.00402200
v 0.01098331 0.11349486 0.00393196
v 0.00999319 0.11352857 0.00506224
v 0.00981191 0.11349486 0.00393196
v 0.00977995 0.11349486 0.00279019
v 0.00975130 0.11235151 0.00050759
v 0.00981797 0.11235151 -0.00063610
v 0.01004994 0.11120818 -0.00160642
v 0.01204395 0.08864486 -0.00271946
v 0.01125054 0.10549761 -0.00244359
v 0.01128635 0.10664095 -0.00239857
v 0.01505509 0.08494204 -0.00271946
v 0.01524408 0.08494204 -0.00177692
v 0.01525124 0.08380176 -0.00177692
v 0.01524408 0.08300480 -0.00177692
v 0.01532673 0.08300480 0.00358330
v 0.01535648 0.08380176 0.00201048
v 0.01536750 0.08494204 0.00164841
v 0.01536640 0.08494204 0.00201048
v 0.01533885 0.08300480 0.00279019
v 0.01535593 0.08608537 0.00164841
v 0.01529587 0.08722565 0.00164841
v 0.01529312 0.08722565 0.00201048
v 0.01519725 0.08800422 0.00201048
v 0.01018273 0.11415388 0.00467335
v 0.01053976 0.11424891 0.00393196
v 0.01398673 0.09636623 0.00164937
v 0.01372942 0.09815940 0.00205646
v 0.01511074 0.08836899 0.00050664
v 0.01521929 0.08722565 -0.00063418
v 0.01147258 0.11201434 0.00279019
v 0.01527604 0.08722565 0.00050664
v 0.01133153 0.11258754 0.00279019
v 0.01107973 0.11349486 0.00279019
v 0.01060864 0.11431941 0.00279019
v 0.01009071 0.11424891 0.00393196
v 0.01004498 0.11431941 0.00279019
v 0.00978546 0.11349486 0.00164937
v 0.00996949 0.11359601 0.00041276
v 0.01007804 0.11325270 -0.00063610
v 0.01021193 0.11300441 -0.00127020
v 0.01010063 0.11235151 -0.00143400
v 0.01136183 0.10729998 -0.00236217
v 0.01236408 0.08927324 -0.00271946
v 0.01154697 0.10549761 -0.00244359
v 0.01315254 0.08983111 -0.00271946
v 0.01148746 0.10664095 -0.00239857
v 0.01500110 0.08608231 -0.00271946
v 0.01520551 0.08608537 -0.00177692
v 0.01530028 0.08608537 -0.00063418
v 0.01531956 0.08494204 -0.00063418
v 0.01531461 0.08380176 -0.00063418
v 0.01530193 0.08300480 -0.00063418
v 0.01534932 0.08343699 0.00201048
v 0.01534161 0.08300480 0.00164841
v 0.01535703 0.08380176 0.00164841
v 0.01535428 0.08494204 0.00050664
v 0.01534601 0.08380176 0.00050664
v 0.01534105 0.08608537 0.00050664
v 0.01144228 0.11183962 0.00098269
v 0.01146377 0.11196223 0.00164937
v 0.01508595 0.08722565 -0.00177692
v 0.01146432 0.11083421 -0.00025870
v 0.01149738 0.11121431 0.00056315
v 0.01132161 0.11253237 0.00164937
v 0.01104777 0.11349486 0.00164937
v 0.01058825 0.11429488 0.00164937
v 0.01005600 0.11429488 0.00164937
v 0.01014636 0.11419374 0.00072982
v 0.01037998 0.11300441 -0.00127020
v 0.01054582 0.11235151 -0.00143400
v 0.01144614 0.10729998 -0.00236217
v 0.01477739 0.08722565 -0.00271946
v 0.01441705 0.08812683 -0.00271946
v 0.01408536 0.08886556 -0.00271946
v 0.01351013 0.08952153 -0.00271946
v 0.01492671 0.08722565 -0.00250585
v 0.01533114 0.08300480 0.00050664
v 0.01137836 0.11159746 0.00022119
v 0.01127588 0.11227182 0.00056315
v 0.01486941 0.08782337 -0.00236983
v 0.01146156 0.10968475 -0.00129224
v 0.01152327 0.11006484 -0.00063706
v 0.01136845 0.11044493 -0.00102020
v 0.01128359 0.11121431 -0.00063706
v 0.01098551 0.11235151 -0.00063610
v 0.01072820 0.11359601 0.00041276
v 0.01046593 0.11419374 0.00072982
v 0.01055299 0.11325270 -0.00063610
f 1 2 15
f 1 15 3
f 1 3 20
f 1 20 4
f 1 4 5
f 1 5 6
f 1 6 7
f 1 7 8
f 1 8 9
f 1 9 10
f 1 10 11
f 1 11 2
f 2 12 13
f 2 13 14
f 2 14 18
f 2 18 15
f 2 11 16
f 2 16 17
f 2 17 12
f 3 15 18
f 3 18 19
f 3 19 20
f 4 20 21
f 4 21 5
f 5 21 38
f 5 38 62
f 5 62 92
f 5 92 130
f 5 130 155
f 5 155 132
f 5 132 97
f 5 97 93
f 5 93 63
f 5 63 40
f 5 40 22
f 5 22 6
f 6 22 23
f 6 23 7
f 7 23 8
f 8 23 24
f 8 24 9
f 9 24 10
f 10 24 25
f 10 25 11
f 11 25 16
f 12 26 13
f 12 17 26
f 13 27 45
f 13 45 28
f 13 28 18
f 13 18 14
f 13 26 29
f 13 29 27
f 16 25 30
f 16 30 17
f 17 30 31
f 17 31 32
f 17 32 33
f 17 33 29
f 17 29 26
f 18 34 19
f 18 28 35
f 18 35 34
f 19 36 21
f 19 21 20
f 19 34 36
f 21 37 38
f 21 36 39
f 21 39 37
f 22 40 41
f 22 41 23
f 23 41 42
f 23 42 24
f 24 42 43
f 24 43 25
f 25 43 44
f 25 44 30
f 27 29 46
f 27 46 47
f 27 47 48
f 27 48 49
f 27 49 69
f 27 69 45
f 28 45 50
f 28 50 35
f 29 33 32
f 29 32 31
f 29 31 46
f 30 44 51
f 30 51 52
f 30 52 53
f 30 53 54
f 30 54 31
f 31 54 53
f 31 53 55
f 31 55 47
f 31 47 46
f 34 39 36
f 34 35 56
f 34 56 57
f 34 57 58
f 34 58 37
f 34 37 39
f 35 50 56
f 37 59 86
f 37 86 121
f 37 121 123
f 37 123 153
f 37 153 152
f 37 152 151
f 37 151 150
f 37 150 125
f 37 125 89
f 37 89 62
f 37 62 38
f 37 58 60
f 37 60 61
f 37 61 59
f 40 63 41
f 41 63 64
f 41 64 65
f 41 65 42
f 42 65 66
f 42 66 43
f 43 66 67
f 43 67 44
f 44 67 68
f 44 68 51
f 45 69 50
f 47 55 48
f 48 55 49
f 49 55 70
f 49 70 71
f 49 71 102
f 49 102 69
f 50 69 56
f 51 72 73
f 51 73 52
f 51 68 74
f 51 74 75
f 51 75 76
f 51 76 72
f 52 73 53
f 53 73 77
f 53 77 78
f 53 78 55
f 55 79 70
f 55 78 79
f 56 69 80
f 56 80 81
f 56 81 82
f 56 82 83
f 56 83 58
f 56 58 57
f 58 83 84
f 58 84 85
f 58 85 61
f 58 61 60
f 59 61 87
f 59 87 86
f 61 85 88
f 61 88 87
f 62 89 90
f 62 90 91
f 62 91 92
f 63 93 64
f 64 94 95
f 64 95 96
f 64 96 65
f 64 93 97
f 64 97 94
f 65 98 66
f 65 96 98
f 66 98 99
f 66 99 100
f 66 100 67
f 67 100 101
f 67 101 74
f 67 74 68
f 69 102 80
f 70 79 71
f 71 79 103
f 71 103 113
f 71 113 102
f 72 104 105
f 72 105 73
f 72 76 106
f 72 106 107
f 72 107 104
f 73 105 108
f 73 108 77
f 74 101 75
f 75 101 99
f 75 99 109
f 75 109 76
f 76 109 106
f 77 108 110
f 77 110 78
f 78 110 111
f 78 111 79
f 79 111 112
f 79 112 103
f 80 102 113
f 80 113 81
f 81 113 114
f 81 114 82
f 82 115 83
f 82 114 115
f 83 115 84
f 84 115 116
f 84 116 117
f 84 117 118
f 84 118 119
f 84 119 85
f 85 119 120
f 85 120 88
f 86 87 121
f 87 88 124
f 87 124 122
f 87 122 123
f 87 123 121
f 88 120 149
f 88 149 124
f 89 125 126
f 89 126 90
f 90 126 127
f 90 127 128
f 90 128 91
f 91 128 129
f 91 129 92
f 92 129 130
f 94 97 131
f 94 131 132
f 94 132 133
f 94 133 95
f 95 134 98
f 95 98 96
f 95 133 135
f 95 135 134
f 97 132 131
f 98 134 136
f 98 136 99
f 99 101 100
f 99 136 109
f 103 112 114
f 103 114 113
f 104 137 105
f 104 107 137
f 105 137 138
f 105 138 108
f 106 109 107
f 107 109 127
f 107 127 126
f 107 126 139
f 107 139 140
f 107 140 141
f 107 141 137
f 108 138 110
f 109 136 127
f 110 142 111
f 110 138 142
f 111 142 143
f 111 143 112
f 112 143 144
f 112 144 145
f 112 145 114
f 114 145 115
f 115 145 116
f 116 145 146
f 116 146 117
f 117 146 118
f 118 146 165
f 118 165 147
f 118 147 148
f 118 148 119
f 119 148 149
f 119 149 120
f 122 124 150
f 122 150 151
f 122 151 152
f 122 152 153
f 122 153 123
f 124 149 150
f 125 150 149
f 125 149 154
f 125 154 139
f 125 139 126
f 127 136 128
f 128 136 134
f 128 134 129
f 129 134 135
f 129 135 130
f 130 135 155
f 132 155 133
f 133 155 135
f 137 141 140
f 137 140 156
f 137 156 157
f 137 157 142
f 137 142 138
f 139 154 158
f 139 158 159
f 139 159 160
f 139 160 140
f 140 160 159
f 140 159 161
f 140 161 162
f 140 162 156
f 142 157 143
f 143 157 163
f 143 163 164
f 143 164 165
f 143 165 144
f 144 165 146
f 144 146 145
f 147 165 166
f 147 166 163
f 147 163 148
f 148 163 159
f 148 159 149
f 149 159 154
f 154 159 158
f 156 163 157
f 156 162 163
f 159 163 161
f 161 163 162
f 163 166 164
f 164 166 165

