# https://github.com/mikedh/trimesh
v -0.01353313 0.08116667 0.00399304
v -0.01288205 0.08116667 -0.00269346
v -0.01525486 0.08116667 0.00399304
v -0.00952901 -0.01447499 0.00399304
v -0.01505713 0.08116667 -0.00269346
v -0.00912751 -0.02407844 0.00399304
v -0.00911666 -0.02444025 0.00399304
v -0.01017707 -0.01099128 -0.00269346
v -0.01525667 0.08116667 0.00393282
v -0.01523437 0.08042238 0.00399304
v -0.01504929 0.08058777 -0.00269346
v -0.01514394 0.08116667 -0.00212469
v -0.00988589 -0.02373730 -0.00269346
v -0.00995643 -0.01900277 -0.00269346
v -0.00997632 -0.01808274 -0.00269346
v -0.00998175 -0.01785532 -0.00269346
v -0.01001370 -0.01671820 -0.00269346
v -0.01004625 -0.01557075 -0.00269346
v -0.01011136 -0.01328619 -0.00269346
v -0.01014391 -0.01214907 -0.00269346
v -0.01145451 -0.02444025 0.00399304
v -0.00987625 -0.02444025 -0.00269346
v -0.01526149 0.08116667 0.00358593
v -0.01523437 0.08037069 0.00393282
v -0.01519759 0.07921290 0.00393282
v -0.01519578 0.07921290 0.00399304
v -0.01504809 0.08052575 -0.00269346
v -0.01519337 0.08116667 -0.00177780
v -0.01517529 0.08037069 -0.00177780
v -0.01149309 -0.02444025 0.00379210
v -0.01511862 0.07700070 0.00399304
v -0.01163596 -0.02444025 -0.00269346
v -0.01527235 0.08116667 0.00279004
v -0.01524944 0.08037069 0.00279004
v -0.01515841 0.07813781 0.00399304
v -0.01521146 0.07921290 0.00278023
v -0.01165767 -0.02444025 0.00050579
v -0.01165345 -0.02444025 0.00078200
v -0.01163958 -0.02444025 0.00164792
v -0.01502216 0.07945066 -0.00269346
v -0.01522774 0.08116667 -0.00098257
v -0.01521990 0.08037069 -0.00063568
v -0.01496188 0.07708340 -0.00269346
v -0.01492993 0.07586358 -0.00269346
v -0.01490943 0.07511929 -0.00269346
v -0.01490039 0.07464377 -0.00265550
v -0.01487989 0.07351699 -0.00255733
v -0.01485879 0.07236954 -0.00245326
v -0.01484553 0.07163559 -0.00238257
v -0.01514092 0.07921290 -0.00177780
v -0.01159919 -0.02444025 0.00279004
v -0.01162993 -0.02444025 0.00192412
v -0.01159979 -0.02444025 0.00278023
v -0.01163717 -0.02444025 -0.00264372
v -0.01510837 0.07693868 -0.00063568
v -0.01506738 0.07693868 -0.00177780
v -0.01527536 0.08116667 0.00164792
v -0.01525185 0.08037069 0.00164792
v -0.01521447 0.07921290 0.00164792
v -0.01166128 -0.02444025 -0.00035947
v -0.01524100 0.08116667 -0.00063568
v -0.01518433 0.07921290 -0.00063568
v -0.01524401 0.08037069 0.00050579
v -0.01525908 0.08116667 0.00015956
v -0.01165465 -0.02444025 -0.00177780
v -0.01520663 0.07921290 0.00050579
v -0.01526632 0.08116667 0.00050579
v -0.01166189 -0.02444025 -0.00063568
f 1 2 5
f 1 5 12
f 1 12 28
f 1 28 41
f 1 41 61
f 1 61 64
f 1 64 67
f 1 67 57
f 1 57 33
f 1 33 23
f 1 23 9
f 1 9 3
f 1 3 10
f 1 10 26
f 1 26 35
f 1 35 31
f 1 31 21
f 1 21 7
f 1 7 6
f 1 6 4
f 1 4 2
f 2 4 6
f 2 6 7
f 2 7 8
f 2 8 20
f 2 20 19
f 2 19 18
f 2 18 17
f 2 17 16
f 2 16 15
f 2 15 14
f 2 14 13
f 2 13 22
f 2 22 32
f 2 32 45
f 2 45 44
f 2 44 43
f 2 43 40
f 2 40 27
f 2 27 11
f 2 11 5
f 3 9 10
f 5 11 12
f 7 13 14
f 7 14 15
f 7 15 16
f 7 16 17
f 7 17 18
f 7 18 19
f 7 19 20
f 7 20 8
f 7 21 30
f 7 30 51
f 7 51 53
f 7 53 52
f 7 52 39
f 7 39 38
f 7 38 37
f 7 37 60
f 7 60 68
f 7 68 65
f 7 65 54
f 7 54 32
f 7 32 22
f 7 22 13
f 9 23 24
f 9 24 10
f 10 24 25
f 10 25 26
f 11 27 12
f 12 27 29
f 12 29 28
f 21 31 30
f 23 33 24
f 24 33 34
f 24 34 25
f 25 35 26
f 25 34 36
f 25 36 37
f 25 37 38
f 25 38 39
f 25 39 35
f 27 40 29
f 28 29 41
f 29 42 41
f 29 40 43
f 29 43 44
f 29 44 45
f 29 45 46
f 29 46 47
f 29 47 48
f 29 48 49
f 29 49 50
f 29 50 42
f 30 31 51
f 31 35 39
f 31 39 52
f 31 52 53
f 31 53 51
f 32 54 55
f 32 55 56
f 32 56 49
f 32 49 48
f 32 48 47
f 32 47 46
f 32 46 45
f 33 57 34
f 34 58 59
f 34 59 36
f 34 57 58
f 36 59 60
f 36 60 37
f 41 42 61
f 42 50 62
f 42 62 63
f 42 63 64
f 42 64 61
f 49 56 50
f 50 56 62
f 54 65 55
f 55 66 62
f 55 62 56
f 55 65 66
f 57 67 63
f 57 63 58
f 58 63 66
f 58 66 59
f 59 66 65
f 59 65 68
f 59 68 60
f 62 66 63
f 63 67 64

