# https://github.com/mikedh/trimesh
v 0.00591981 -0.09325133 0.00233429
v 0.00592033 -0.09439269 0.00233429
v 0.00594133 -0.09213861 0.00233429
v 0.00646891 -0.09210588 0.00000935
v 0.00662718 -0.09544405 0.00000935
v 0.00604326 -0.09553405 0.00233429
v 0.00594235 -0.09210588 0.00233429
v 0.00599511 -0.09101771 0.00233429
v 0.00606580 -0.08990907 0.00233429
v 0.00614212 -0.08880044 0.00233429
v 0.00938700 -0.05486655 0.00000935
v 0.00745031 -0.09663040 0.00000935
v 0.00609755 -0.09563631 0.00233429
v 0.00885583 -0.05781608 0.00233429
v 0.00920721 -0.05486655 0.00232564
v 0.01115209 -0.05486655 0.00000935
v 0.00773869 -0.09665085 0.00000935
v 0.00744007 -0.09651177 0.00233429
v 0.00659491 -0.09622540 0.00233429
v 0.00916572 -0.05546382 0.00233429
v 0.01038940 -0.05486655 0.00233429
v 0.01114901 -0.05486655 0.00015909
v 0.01113262 -0.05555791 0.00000935
v 0.00858692 -0.09665495 0.00000935
v 0.00840303 -0.09639313 0.00233429
v 0.01100611 -0.05486655 0.00233429
v 0.01114184 -0.05486655 0.00050615
v 0.01105989 -0.05784472 0.00000935
v 0.00891730 -0.09645859 0.00000935
v 0.00864172 -0.09642586 0.00153981
v 0.00914882 -0.09610677 0.00108693
v 0.00865043 -0.09597177 0.00233429
v 0.01108345 -0.05486655 0.00164837
v 0.01097998 -0.05555791 0.00233429
v 0.01085808 -0.06127288 0.00164837
v 0.01090110 -0.06012742 0.00164837
v 0.01111982 -0.05555791 0.00050615
v 0.01098716 -0.06012742 0.00000935
v 0.00919389 -0.09620086 0.00000935
v 0.00917699 -0.09616813 0.00050615
v 0.00924511 -0.09589404 0.00000935
v 0.00928968 -0.09553405 0.00000935
v 0.00925484 -0.09553405 0.00050615
v 0.00917289 -0.09553405 0.00126717
v 0.00912372 -0.09461359 0.00208259
v 0.00906891 -0.09553405 0.00183839
v 0.00882458 -0.09553405 0.00233429
v 0.01100918 -0.05898607 0.00050615
v 0.01108294 -0.05670336 0.00050615
v 0.01097179 -0.06012742 0.00050615
v 0.01080532 -0.06012742 0.00233429
v 0.01075820 -0.06127288 0.00233429
v 0.01080429 -0.06241423 0.00164837
v 0.01087908 -0.06241423 0.00050615
v 0.01093030 -0.06127288 0.00050615
v 0.01094567 -0.06127288 0.00000935
v 0.00932451 -0.09503905 0.00000935
v 0.00933373 -0.09439269 0.00050615
v 0.00920055 -0.09429859 0.00168045
v 0.00914882 -0.09385269 0.00222323
v 0.00893727 -0.09494086 0.00233429
v 0.01070083 -0.06241423 0.00233429
v 0.00925894 -0.09325133 0.00164837
v 0.00939263 -0.09325133 0.00050615
v 0.00945307 -0.09275224 0.00000935
v 0.01089547 -0.06241423 0.00000935
v 0.00948380 -0.09210588 0.00000935
v 0.00936907 -0.09439269 0.00000935
v 0.00939519 -0.09389360 0.00000935
v 0.00942849 -0.09325133 0.00000935
v 0.00916470 -0.09325133 0.00225714
v 0.00911091 -0.09325133 0.00233429
v 0.00906328 -0.09396314 0.00233429
v 0.00920004 -0.09180724 0.00233429
v 0.00919338 -0.09210588 0.00231881
v 0.00918262 -0.09210588 0.00233429
f 1 2 6
f 1 6 13
f 1 13 19
f 1 19 18
f 1 18 25
f 1 25 32
f 1 32 47
f 1 47 61
f 1 61 73
f 1 73 72
f 1 72 76
f 1 76 74
f 1 74 62
f 1 62 52
f 1 52 51
f 1 51 34
f 1 34 26
f 1 26 21
f 1 21 20
f 1 20 14
f 1 14 10
f 1 10 9
f 1 9 8
f 1 8 7
f 1 7 3
f 1 3 4
f 1 4 2
f 2 5 6
f 2 4 5
f 3 7 4
f 4 7 8
f 4 8 9
f 4 9 10
f 4 10 11
f 4 11 16
f 4 16 23
f 4 23 28
f 4 28 38
f 4 38 56
f 4 56 66
f 4 66 67
f 4 67 65
f 4 65 70
f 4 70 69
f 4 69 68
f 4 68 57
f 4 57 42
f 4 42 41
f 4 41 39
f 4 39 29
f 4 29 24
f 4 24 17
f 4 17 12
f 4 12 5
f 5 12 13
f 5 13 6
f 10 14 11
f 11 14 15
f 11 15 21
f 11 21 26
f 11 26 33
f 11 33 27
f 11 27 22
f 11 22 16
f 12 17 18
f 12 18 19
f 12 19 13
f 14 20 15
f 15 20 21
f 16 22 23
f 17 24 18
f 18 24 25
f 22 27 23
f 23 27 28
f 24 29 30
f 24 30 25
f 25 30 31
f 25 31 32
f 26 34 35
f 26 35 36
f 26 36 33
f 27 33 37
f 27 37 28
f 28 37 38
f 29 39 40
f 29 40 31
f 29 31 30
f 31 40 41
f 31 41 42
f 31 42 43
f 31 43 44
f 31 44 45
f 31 45 46
f 31 46 32
f 32 46 47
f 33 48 49
f 33 49 37
f 33 36 50
f 33 50 48
f 34 51 35
f 35 51 52
f 35 52 53
f 35 53 54
f 35 54 55
f 35 55 36
f 36 55 50
f 37 49 38
f 38 50 55
f 38 55 56
f 38 49 48
f 38 48 50
f 39 41 40
f 42 57 43
f 43 57 58
f 43 58 44
f 44 58 59
f 44 59 45
f 45 59 60
f 45 60 61
f 45 61 47
f 45 47 46
f 52 62 60
f 52 60 53
f 53 60 63
f 53 63 64
f 53 64 65
f 53 65 54
f 54 66 55
f 54 65 67
f 54 67 66
f 55 66 56
f 57 68 58
f 58 68 69
f 58 69 70
f 58 70 64
f 58 64 63
f 58 63 59
f 59 63 60
f 60 71 72
f 60 72 73
f 60 73 61
f 60 62 71
f 62 74 75
f 62 75 71
f 64 70 65
f 71 75 76
f 71 76 72
f 74 76 75

