# https://github.com/mikedh/trimesh
v 0.00004149 -0.11336100 0.00135025
v -0.00065319 -0.11336100 0.00134775
v -0.00065319 -0.11371215 0.00134775
v 0.00004149 -0.11371215 0.00134942
v 0.00004149 -0.11336100 -0.00713375
v -0.00166290 -0.11336100 0.00121295
v -0.00417431 -0.11912797 0.00111144
v -0.00065319 -0.11499878 0.00132612
v 0.00004149 -0.11430437 0.00133943
v 0.00004149 -0.11371215 -0.00715039
v -0.00065319 -0.11336100 -0.00713125
v -0.00198453 -0.11336100 0.00116719
v -0.00398632 -0.11912797 0.00111144
v 0.00004149 -0.11499878 0.00132695
v -0.00480216 -0.11912797 0.00099744
v -0.00065319 -0.11371215 -0.00714790
v 0.00004149 -0.11499878 -0.00712793
v -0.00451210 -0.11912797 -0.00707634
v -0.00193974 -0.11336100 -0.00695984
v -0.00253969 -0.11336100 0.00105569
v -0.00381229 -0.11912797 0.00110977
v 0.00004149 -0.11536970 0.00126121
v -0.00295238 -0.11336100 0.00093420
v -0.00315212 -0.11336100 0.00086181
v -0.00451210 -0.11499878 0.00048571
v -0.00578103 -0.11912797 0.00048737
v 0.00004149 -0.11586820 -0.00686332
v -0.00362283 -0.11912797 -0.00690909
v -0.00519650 -0.11912797 -0.00689577
v -0.00290318 -0.11336100 -0.00674849
v 0.00004149 -0.11580440 0.00118217
v -0.00348404 -0.11912797 0.00058306
v 0.00004149 -0.11628598 0.00042080
v 0.00004149 -0.11602854 0.00083186
v -0.00436377 -0.11336100 0.00029516
v -0.00460389 -0.11336100 0.00017367
v -0.00518695 -0.11336100 -0.00019578
v -0.00557174 -0.11628485 0.00009046
v -0.00653298 -0.11885811 -0.00012921
v -0.00656382 -0.11912797 -0.00010009
v 0.00004149 -0.11634130 -0.00601126
v -0.00314698 -0.11912797 -0.00601126
v -0.00542708 -0.11912797 -0.00682172
v -0.00354646 -0.11336100 -0.00653714
v -0.00339739 -0.11912797 0.00042080
v 0.00004149 -0.11650559 -0.00016000
v -0.00562021 -0.11336100 -0.00070585
v -0.00634940 -0.11729823 -0.00033307
v -0.00645441 -0.11815636 -0.00020909
v -0.00672097 -0.11912797 -0.00030478
v 0.00004149 -0.11675117 -0.00474149
v -0.00276219 -0.11912797 -0.00473650
v -0.00607035 -0.11912797 -0.00637572
v -0.00537861 -0.11885811 -0.00679176
v -0.00522073 -0.11803329 -0.00669441
v -0.00454221 -0.11336100 -0.00601625
v -0.00293329 -0.11912797 -0.00059768
v 0.00004149 -0.11676134 -0.00084314
v -0.00575606 -0.11336100 -0.00087393
v -0.00713293 -0.11912797 -0.00087809
v -0.00645074 -0.11431058 -0.00149384
v -0.00666883 -0.11628485 -0.00114270
v 0.00004149 -0.11684433 -0.00368307
v -0.00261973 -0.11912797 -0.00343760
v -0.00662845 -0.11912797 -0.00586814
v -0.00530591 -0.11336100 -0.00550785
v -0.00281947 -0.11912797 -0.00091886
v -0.00264396 -0.11912797 -0.00215202
v 0.00004149 -0.11686860 -0.00215202
v -0.00628845 -0.11336100 -0.00172350
v -0.00729008 -0.11912797 -0.00113105
v -0.00634720 -0.11336100 -0.00183832
v -0.00746044 -0.11803781 -0.00212623
v -0.00746044 -0.11912797 -0.00148219
v 0.00004149 -0.11686465 -0.00343760
v -0.00676283 -0.11912797 -0.00573251
v -0.00672831 -0.11885811 -0.00569673
v -0.00656015 -0.11757148 -0.00550535
v -0.00646396 -0.11684828 -0.00539302
v -0.00593817 -0.11336100 -0.00469905
v -0.00645514 -0.11336100 -0.00219945
v -0.00650875 -0.11336100 -0.00241580
v -0.00746044 -0.11790401 -0.00259636
v -0.00746044 -0.11912797 -0.00459671
v -0.00741859 -0.11912797 -0.00468324
v -0.00649113 -0.11413105 -0.00417234
v -0.00632296 -0.11336100 -0.00400010
v -0.00652711 -0.11336100 -0.00311309
v -0.00746044 -0.11769343 -0.00343760
v -0.00746044 -0.11901675 -0.00453763
v -0.00642650 -0.11336100 -0.00374964
v -0.00652711 -0.11336100 -0.00324040
f 1 2 3
f 1 3 4
f 1 4 9
f 1 9 14
f 1 14 22
f 1 22 31
f 1 31 34
f 1 34 33
f 1 33 46
f 1 46 58
f 1 58 69
f 1 69 75
f 1 75 63
f 1 63 51
f 1 51 41
f 1 41 27
f 1 27 17
f 1 17 10
f 1 10 5
f 1 5 11
f 1 11 19
f 1 19 30
f 1 30 44
f 1 44 56
f 1 56 66
f 1 66 80
f 1 80 87
f 1 87 91
f 1 91 92
f 1 92 88
f 1 88 82
f 1 82 81
f 1 81 72
f 1 72 70
f 1 70 59
f 1 59 47
f 1 47 37
f 1 37 36
f 1 36 35
f 1 35 24
f 1 24 23
f 1 23 20
f 1 20 12
f 1 12 6
f 1 6 2
f 2 6 7
f 2 7 3
f 3 8 4
f 3 7 8
f 4 8 9
f 5 10 16
f 5 16 11
f 6 12 7
f 7 13 14
f 7 14 8
f 7 12 15
f 7 15 26
f 7 26 40
f 7 40 50
f 7 50 60
f 7 60 71
f 7 71 74
f 7 74 84
f 7 84 85
f 7 85 76
f 7 76 65
f 7 65 53
f 7 53 43
f 7 43 29
f 7 29 18
f 7 18 28
f 7 28 42
f 7 42 52
f 7 52 64
f 7 64 68
f 7 68 67
f 7 67 57
f 7 57 45
f 7 45 32
f 7 32 21
f 7 21 13
f 8 14 9
f 10 17 18
f 10 18 16
f 11 16 18
f 11 18 19
f 12 20 15
f 13 21 14
f 14 21 22
f 15 20 23
f 15 23 24
f 15 24 25
f 15 25 26
f 17 27 28
f 17 28 18
f 18 29 30
f 18 30 19
f 21 31 22
f 21 32 33
f 21 33 34
f 21 34 31
f 24 35 25
f 25 35 36
f 25 36 26
f 26 36 37
f 26 37 38
f 26 38 39
f 26 39 40
f 27 41 28
f 28 41 42
f 29 43 30
f 30 43 44
f 32 45 33
f 33 45 46
f 37 47 48
f 37 48 49
f 37 49 39
f 37 39 38
f 39 49 50
f 39 50 40
f 41 51 42
f 42 51 52
f 43 53 54
f 43 54 44
f 44 55 56
f 44 54 55
f 45 57 46
f 46 57 58
f 47 59 48
f 48 60 49
f 48 59 61
f 48 61 62
f 48 62 60
f 49 60 50
f 51 63 64
f 51 64 52
f 53 65 66
f 53 66 54
f 54 66 56
f 54 56 55
f 57 67 58
f 58 67 68
f 58 68 69
f 59 70 61
f 60 62 61
f 60 61 71
f 61 70 72
f 61 72 73
f 61 73 74
f 61 74 71
f 63 75 64
f 64 75 69
f 64 69 68
f 65 76 77
f 65 77 78
f 65 78 66
f 66 78 79
f 66 79 80
f 72 81 73
f 73 81 82
f 73 82 83
f 73 83 89
f 73 89 90
f 73 90 84
f 73 84 74
f 76 85 77
f 77 85 78
f 78 85 79
f 79 85 86
f 79 86 80
f 80 86 87
f 82 88 89
f 82 89 83
f 84 90 86
f 84 86 85
f 86 90 89
f 86 89 91
f 86 91 87
f 88 92 89
f 89 92 91

