# https://github.com/mikedh/trimesh
v 0.00823486 -0.01675518 0.00653833
v 0.00857664 -0.01675518 0.00643751
v 0.00823486 -0.01675518 0.00480997
v 0.00823486 -0.02015463 0.00643669
v 0.00857664 -0.02129298 0.00630501
v 0.00857664 -0.02015463 0.00633875
v 0.00971903 -0.01675518 0.00608279
v 0.01002156 -0.01675518 0.00233470
v 0.00823486 -0.06011375 0.00281864
v 0.00823486 -0.02128518 0.00640048
v 0.00857664 -0.02243913 0.00626673
v 0.00918448 -0.03479721 0.00565934
v 0.00922998 -0.03386159 0.00567580
v 0.00939149 -0.03043095 0.00573588
v 0.00955057 -0.02700811 0.00579596
v 0.01029561 -0.02310186 0.00564946
v 0.01049533 -0.01675518 0.00576386
v 0.01178326 -0.01675518 0.00233470
v 0.00823486 -0.07096704 0.00233470
v 0.00823486 -0.02962787 0.00611283
v 0.00857664 -0.02700811 0.00611159
v 0.00857664 -0.02586196 0.00615110
v 0.00914662 -0.03556131 0.00564534
v 0.00971903 -0.04870689 0.00495112
v 0.00980135 -0.03386159 0.00545440
v 0.01029770 -0.05400878 0.00451080
v 0.01105315 -0.01675518 0.00523959
v 0.01037619 -0.05099138 0.00457376
v 0.01040537 -0.04985303 0.00459598
v 0.01176971 -0.01675518 0.00279066
v 0.01143800 -0.03678542 0.00233470
v 0.00823486 -0.09639273 0.00233470
v 0.00823486 -0.03157709 0.00604410
v 0.00857664 -0.03157709 0.00595151
v 0.00857664 -0.03043095 0.00599184
v 0.00857664 -0.02929260 0.00603176
v 0.00857664 -0.03386159 0.00587044
v 0.00869022 -0.03510909 0.00579308
v 0.00853913 -0.03614608 0.00579719
v 0.00869230 -0.04185341 0.00553136
v 0.00971903 -0.04985303 0.00490750
v 0.01026470 -0.05477288 0.00448652
v 0.01043489 -0.06126769 0.00363385
v 0.01046303 -0.06012155 0.00368653
v 0.01076070 -0.05099138 0.00393303
v 0.01081349 -0.04985303 0.00393303
v 0.00971903 -0.05099138 0.00485976
v 0.00981802 -0.05439862 0.00467252
v 0.00823486 -0.09204986 0.00350711
v 0.00823486 -0.09210444 0.00350423
v 0.01106635 -0.01675518 0.00522683
v 0.01085517 -0.04870689 0.00393303
v 0.01143349 -0.02194012 0.00450709
v 0.01150504 -0.01675518 0.00465565
v 0.01043003 -0.04870689 0.00461573
v 0.01176728 -0.01675518 0.00281741
v 0.01143523 -0.03349513 0.00337707
v 0.01142724 -0.03425923 0.00330917
v 0.01145363 -0.03499993 0.00262235
v 0.01144356 -0.03614608 0.00243922
v 0.01117820 -0.04870689 0.00279066
v 0.01120529 -0.04870689 0.00233470
v 0.00840297 -0.09639273 0.00233470
v 0.00823486 -0.09637714 0.00279066
v 0.00823486 -0.03386159 0.00596221
v 0.00823486 -0.03614608 0.00587703
v 0.00846584 -0.03728442 0.00577250
v 0.00838803 -0.03843057 0.00574781
v 0.00857664 -0.04985303 0.00523959
v 0.00857664 -0.05099138 0.00519268
v 0.01040259 -0.06240605 0.00357336
v 0.00823486 -0.09317261 0.00344661
v 0.00823486 -0.09424859 0.00338036
v 0.00914280 -0.08348886 0.00335608
v 0.01069227 -0.06126769 0.00279066
v 0.01074194 -0.06012155 0.00279066
v 0.01107295 -0.05213752 0.00279066
v 0.01111706 -0.05099138 0.00279066
v 0.00957593 -0.05669871 0.00465359
v 0.00964679 -0.05556036 0.00468157
v 0.00971903 -0.05327587 0.00475894
v 0.00915287 -0.06302199 0.00450545
v 0.00823486 -0.04282023 0.00560502
v 0.01089025 -0.04756854 0.00393303
v 0.01115249 -0.04985303 0.00279066
v 0.01092464 -0.04642239 0.00393303
v 0.01095798 -0.04528405 0.00393303
v 0.01129976 -0.03386938 0.00382768
v 0.01166134 -0.01675518 0.00393303
v 0.01118236 -0.04985303 0.00233470
v 0.00865097 -0.09597170 0.00233470
v 0.00826577 -0.09636934 0.00279066
v 0.00823486 -0.09634595 0.00287749
v 0.00823486 -0.03843057 0.00578567
v 0.00830467 -0.03956892 0.00572312
v 0.00823486 -0.04046556 0.00570378
v 0.00823486 -0.04071506 0.00569349
v 0.00823486 -0.04185341 0.00564576
v 0.01036682 -0.06355218 0.00350670
v 0.01030568 -0.06551701 0.00339188
v 0.00911154 -0.09325058 0.00233470
v 0.00823486 -0.09530117 0.00329024
v 0.00876733 -0.09325058 0.00282852
v 0.00879824 -0.09429537 0.00267873
v 0.00906395 -0.09396010 0.00233470
v 0.01070095 -0.06240605 0.00233470
v 0.01075861 -0.06126769 0.00233470
v 0.00920080 -0.09180036 0.00233470
v 0.01106948 -0.05327587 0.00233470
v 0.01080550 -0.06012155 0.00233470
v 0.01115076 -0.05099138 0.00233470
v 0.01111220 -0.05213752 0.00233470
v 0.00882499 -0.09553508 0.00233470
v 0.00823486 -0.09596390 0.00319271
v 0.00823486 -0.03966248 0.00573629
v 0.00918066 -0.09214342 0.00233470
v 0.00918309 -0.09210444 0.00233470
v 0.00823486 -0.09553508 0.00326349
v 0.00859991 -0.09553508 0.00279066
v 0.00893787 -0.09494251 0.00233470
f 1 2 7
f 1 7 17
f 1 17 27
f 1 27 51
f 1 51 54
f 1 54 89
f 1 89 56
f 1 56 30
f 1 30 18
f 1 18 8
f 1 8 3
f 1 3 9
f 1 9 19
f 1 19 32
f 1 32 64
f 1 64 93
f 1 93 114
f 1 114 118
f 1 118 102
f 1 102 73
f 1 73 72
f 1 72 50
f 1 50 49
f 1 49 83
f 1 83 98
f 1 98 97
f 1 97 96
f 1 96 115
f 1 115 94
f 1 94 66
f 1 66 65
f 1 65 33
f 1 33 20
f 1 20 10
f 1 10 4
f 1 4 5
f 1 5 6
f 1 6 2
f 2 6 7
f 3 8 9
f 4 10 5
f 5 7 6
f 5 10 11
f 5 11 12
f 5 12 13
f 5 13 7
f 7 14 15
f 7 15 16
f 7 16 17
f 7 13 14
f 8 18 31
f 8 31 62
f 8 62 90
f 8 90 111
f 8 111 112
f 8 112 109
f 8 109 110
f 8 110 107
f 8 107 106
f 8 106 108
f 8 108 117
f 8 117 116
f 8 116 101
f 8 101 105
f 8 105 120
f 8 120 113
f 8 113 91
f 8 91 63
f 8 63 32
f 8 32 19
f 8 19 9
f 10 20 21
f 10 21 22
f 10 22 11
f 11 22 12
f 12 23 24
f 12 24 13
f 12 22 23
f 13 24 25
f 13 25 16
f 13 16 14
f 14 16 15
f 16 25 24
f 16 24 26
f 16 26 17
f 17 26 28
f 17 28 29
f 17 29 27
f 18 30 31
f 20 33 34
f 20 34 35
f 20 35 36
f 20 36 21
f 21 36 23
f 21 23 22
f 23 37 38
f 23 38 39
f 23 39 40
f 23 40 41
f 23 41 24
f 23 36 35
f 23 35 34
f 23 34 37
f 24 41 26
f 26 42 43
f 26 43 44
f 26 44 45
f 26 45 46
f 26 46 28
f 26 41 47
f 26 47 48
f 26 48 49
f 26 49 50
f 26 50 42
f 27 29 51
f 28 46 29
f 29 46 52
f 29 52 53
f 29 53 54
f 29 54 55
f 29 55 51
f 30 56 57
f 30 57 58
f 30 58 59
f 30 59 60
f 30 60 31
f 31 60 58
f 31 58 61
f 31 61 62
f 32 63 64
f 33 65 37
f 33 37 34
f 37 65 39
f 37 39 38
f 39 65 66
f 39 66 67
f 39 67 40
f 40 67 68
f 40 68 69
f 40 69 41
f 41 69 70
f 41 70 47
f 42 71 43
f 42 50 72
f 42 72 73
f 42 73 74
f 42 74 71
f 43 71 75
f 43 75 76
f 43 76 77
f 43 77 46
f 43 46 44
f 44 46 45
f 46 77 78
f 46 78 52
f 47 79 80
f 47 80 81
f 47 81 48
f 47 70 82
f 47 82 79
f 48 80 49
f 48 81 80
f 49 80 79
f 49 79 82
f 49 82 70
f 49 70 83
f 51 55 54
f 52 84 53
f 52 78 85
f 52 85 84
f 53 84 86
f 53 86 87
f 53 87 88
f 53 88 57
f 53 57 89
f 53 89 54
f 56 89 57
f 57 61 58
f 57 88 85
f 57 85 61
f 58 60 59
f 61 85 90
f 61 90 62
f 63 91 92
f 63 92 64
f 64 92 93
f 66 94 95
f 66 95 68
f 66 68 67
f 68 95 69
f 69 95 96
f 69 96 70
f 70 96 97
f 70 97 98
f 70 98 83
f 71 99 100
f 71 100 75
f 71 74 101
f 71 101 99
f 73 102 74
f 74 102 103
f 74 103 104
f 74 104 105
f 74 105 101
f 75 106 107
f 75 107 76
f 75 100 108
f 75 108 106
f 76 107 77
f 77 109 78
f 77 107 110
f 77 110 109
f 78 111 85
f 78 109 112
f 78 112 111
f 84 85 86
f 85 111 90
f 85 88 87
f 85 87 86
f 91 113 114
f 91 114 93
f 91 93 92
f 94 115 95
f 95 115 96
f 99 101 100
f 100 101 116
f 100 116 117
f 100 117 108
f 102 118 104
f 102 104 103
f 104 118 119
f 104 119 105
f 105 119 120
f 113 120 119
f 113 119 114
f 114 119 118

