# https://github.com/mikedh/trimesh
v 0.00619351 -0.01674739 -0.00722218
v 0.00633726 -0.01556851 -0.00728282
v 0.00743582 -0.01674739 -0.00751356
v 0.00619351 -0.01674739 -0.00657784
v 0.00686171 0.00562000 -0.00692038
v 0.00681728 0.00384647 -0.00696966
v 0.00675891 0.00156174 -0.00702888
v 0.00673016 0.00042459 -0.00705731
v 0.00667353 -0.00186014 -0.00711037
v 0.00661691 -0.00414487 -0.00715775
v 0.00658903 -0.00529245 -0.00717907
v 0.00656115 -0.00642960 -0.00719897
v 0.00653240 -0.00757717 -0.00721792
v 0.00650714 -0.00871432 -0.00723166
v 0.00743582 -0.01328378 -0.00747281
v 0.00743582 -0.01671609 -0.00751356
v 0.00648362 -0.00986190 -0.00724161
v 0.00857794 -0.01674739 -0.00718712
v 0.00675891 0.00156174 -0.00664370
v 0.00678853 0.00270932 -0.00668918
v 0.00681728 0.00384647 -0.00675409
v 0.00686171 0.00562000 -0.00690617
v 0.01003020 -0.01674739 -0.00292120
v 0.01003281 -0.01673696 -0.00267342
v 0.00783133 0.02556704 -0.00559143
v 0.00784614 0.02670419 -0.00559948
v 0.00786270 0.02785177 -0.00561038
v 0.00789754 0.03013650 -0.00563833
v 0.00791497 0.03127365 -0.00565397
v 0.00793239 0.03242123 -0.00567245
v 0.00795156 0.03353751 -0.00569519
v 0.00797159 0.03466423 -0.00572219
v 0.00799337 0.03582224 -0.00575394
v 0.00800470 0.03644819 -0.00577289
v 0.00800470 0.03644819 -0.00577999
v 0.00914333 0.05934765 -0.00578142
v 0.00799773 0.01832685 -0.00692275
v 0.00678853 0.00270932 -0.00699950
v 0.00664566 -0.00300772 -0.00713501
v 0.00743582 -0.00642960 -0.00736953
v 0.00743582 -0.00757717 -0.00739369
v 0.00743582 -0.00871432 -0.00741406
v 0.00743582 -0.00986190 -0.00742970
v 0.00743582 -0.01099905 -0.00744438
v 0.00824253 0.01070066 -0.00698292
v 0.00831571 0.00727878 -0.00700614
v 0.00838454 0.00384647 -0.00702983
v 0.00840544 0.00270932 -0.00703741
v 0.00842548 0.00156174 -0.00704451
v 0.00844465 0.00042459 -0.00705115
v 0.00856313 -0.00642960 -0.00708905
v 0.00928185 -0.01671609 -0.00696397
v 0.00928185 -0.01674739 -0.00696397
v 0.00915640 -0.00787972 -0.00692038
v 0.01143193 -0.01674739 -0.00267342
v 0.01007201 -0.01531813 -0.00267342
v 0.01204350 0.08864226 -0.00271985
v 0.01119322 0.08722343 -0.00331871
v 0.01009466 0.08379112 -0.00437997
v 0.01011470 0.08493870 -0.00438566
v 0.01011470 0.08493870 -0.00486370
v 0.01028458 0.06502295 -0.00577668
v 0.01086043 0.08379112 -0.00516455
v 0.01085956 0.08299825 -0.00519724
v 0.01085956 0.08264354 -0.00521146
v 0.00802735 0.01832685 -0.00692275
v 0.00806046 0.01755484 -0.00693128
v 0.00810053 0.01641770 -0.00694170
v 0.00813363 0.01527011 -0.00695070
v 0.00819026 0.01298539 -0.00696634
v 0.01030985 0.06436571 -0.00578142
v 0.01033511 0.06322856 -0.00578947
v 0.01038302 0.06093339 -0.00580558
v 0.01043007 0.05865910 -0.00582027
v 0.01045098 0.05751152 -0.00582737
v 0.01046927 0.05637437 -0.00583401
v 0.00914595 -0.00711814 -0.00691565
v 0.00985248 -0.01671609 -0.00675645
v 0.01105558 0.05522679 -0.00565018
v 0.01200168 0.07120946 -0.00516740
v 0.01200168 0.07007231 -0.00517829
v 0.00985248 -0.01674739 -0.00675645
v 0.01101986 0.05751152 -0.00563976
v 0.01178998 -0.01674739 -0.00267342
v 0.01013735 -0.01304383 -0.00267342
v 0.01290074 0.08298782 -0.00267342
v 0.01236322 0.08926821 -0.00271985
v 0.01125072 0.08803717 -0.00333481
v 0.01016436 0.08607585 -0.00441645
v 0.01016436 0.08607585 -0.00479358
v 0.01086043 0.08493870 -0.00510344
v 0.01029416 0.06502295 -0.00577668
v 0.01085956 0.08150639 -0.00525126
v 0.01085956 0.08035881 -0.00528821
v 0.01200255 0.08493870 -0.00490492
v 0.01200255 0.08379112 -0.00496320
v 0.01086043 0.08299825 -0.00519724
v 0.01200168 0.08299825 -0.00499115
v 0.01200168 0.07921122 -0.00507454
v 0.01200168 0.07693693 -0.00510533
v 0.01200168 0.07578935 -0.00511954
v 0.01099982 0.05865910 -0.00563454
v 0.01085956 -0.01099905 -0.00620450
v 0.01295040 0.07465220 -0.00478363
v 0.01296172 0.07350463 -0.00478932
v 0.01297043 0.07236747 -0.00479500
v 0.01150859 0.01641770 -0.00582169
v 0.01151469 0.01527011 -0.00582500
v 0.01151643 0.01413297 -0.00582737
v 0.01151643 0.01298539 -0.00582832
v 0.01200168 0.07350463 -0.00514418
v 0.01293559 0.07578935 -0.00477842
v 0.01085956 -0.01214663 -0.00620403
v 0.01085956 -0.01328378 -0.00620166
v 0.00987600 -0.01674739 -0.00674319
v 0.01178476 -0.01674739 -0.00292120
v 0.01492275 0.07486085 -0.00267342
v 0.01291468 0.08299825 -0.00267342
v 0.01315164 0.08983157 -0.00271985
v 0.01234057 0.08925778 -0.00292120
v 0.01023057 0.08678526 -0.00470688
v 0.01023057 0.08678526 -0.00450695
v 0.01086043 0.08607585 -0.00498689
v 0.01205395 0.08600282 -0.00479358
v 0.01085956 0.07921122 -0.00531995
v 0.01200168 0.08150639 -0.00503332
v 0.01200168 0.08035881 -0.00505701
v 0.01200168 0.08264354 -0.00500299
v 0.01259321 0.08556465 -0.00464245
v 0.01264723 0.08493870 -0.00466472
v 0.01272563 0.08379112 -0.00469646
v 0.01277790 0.08264354 -0.00471825
v 0.01285108 0.08035881 -0.00474573
v 0.01289638 0.07807409 -0.00476326
v 0.01291816 0.07693693 -0.00477132
v 0.01350621 0.07578935 -0.00454390
v 0.01352015 0.07465220 -0.00454864
v 0.01353235 0.07350463 -0.00455338
v 0.01354193 0.07236747 -0.00455527
v 0.01354716 0.07120946 -0.00455669
v 0.01354890 0.07007231 -0.00455527
v 0.01147723 -0.00871432 -0.00582453
v 0.01085956 -0.01443136 -0.00619692
v 0.01147374 -0.00986190 -0.00582263
v 0.01085956 -0.01556851 -0.00619076
v 0.01096062 -0.01674739 -0.00611069
v 0.01174032 -0.01674739 -0.00406349
v 0.01154605 -0.01674739 -0.00529721
v 0.01493930 0.07578935 -0.00274875
v 0.01494802 0.07578935 -0.00267342
v 0.01508392 0.08299825 -0.00267342
v 0.01350969 0.08951859 -0.00271985
v 0.01346352 0.08866312 -0.00334429
v 0.01270211 0.08900740 -0.00355702
v 0.01240765 0.08900740 -0.00355702
v 0.01128208 0.08798501 -0.00406301
v 0.01141450 0.08779722 -0.00463960
v 0.01096410 0.08719213 -0.00474573
v 0.01144674 0.08779722 -0.00463960
v 0.01164972 0.08722343 -0.00471920
v 0.01246863 0.08632623 -0.00458038
v 0.01281885 0.08150639 -0.00473294
v 0.01304187 0.08600282 -0.00437713
v 0.01321872 0.08493870 -0.00442025
v 0.01329713 0.08379112 -0.00445578
v 0.01315861 0.08299825 -0.00454627
v 0.01334940 0.08264354 -0.00447994
v 0.01339034 0.08150639 -0.00449700
v 0.01342258 0.08035881 -0.00450979
v 0.01344523 0.07921122 -0.00451926
v 0.01346788 0.07807409 -0.00452827
v 0.01348879 0.07693693 -0.00453679
v 0.01428679 0.08150639 -0.00395262
v 0.01428679 0.08035881 -0.00396163
v 0.01487658 0.08264354 -0.00351580
v 0.01487919 0.08150639 -0.00351912
v 0.01354890 0.06893516 -0.00455243
v 0.01354803 0.06779802 -0.00454864
v 0.01147026 -0.01099905 -0.00581979
v 0.01354716 0.06665043 -0.00454390
v 0.01146416 -0.01214663 -0.00581411
v 0.01145719 -0.01328378 -0.00580700
v 0.01144848 -0.01443136 -0.00579800
v 0.01143890 -0.01556851 -0.00578615
v 0.01143280 -0.01624663 -0.00577905
v 0.01106690 -0.01674739 -0.00602920
v 0.01151905 -0.01674739 -0.00540381
v 0.01484609 0.07786543 -0.00345326
v 0.01483128 0.07693693 -0.00339925
v 0.01495934 0.07693693 -0.00282787
v 0.01503600 0.07921122 -0.00267342
v 0.01497763 0.07693693 -0.00267342
v 0.01505517 0.08493870 -0.00271985
v 0.01500029 0.08607585 -0.00271985
v 0.01477814 0.08722343 -0.00271985
v 0.01441747 0.08812063 -0.00271985
v 0.01408555 0.08886134 -0.00271985
v 0.01509350 0.08264354 -0.00267342
v 0.01378847 0.08790155 -0.00354091
v 0.01310721 0.08830842 -0.00370247
v 0.01314467 0.08722343 -0.00407344
v 0.01222035 0.08722343 -0.00448563
v 0.01415524 0.08607585 -0.00378254
v 0.01425194 0.08493870 -0.00384887
v 0.01333372 0.08299825 -0.00447236
v 0.01333284 0.08299825 -0.00447283
v 0.01394267 0.08264354 -0.00413313
v 0.01439830 0.08385372 -0.00381475
v 0.01428679 0.08264354 -0.00393130
v 0.01486961 0.08351987 -0.00350585
v 0.01505082 0.08264354 -0.00292120
v 0.01487396 0.08299825 -0.00351153
v 0.01503862 0.08299825 -0.00295247
v 0.01504559 0.08150639 -0.00292120
v 0.01487483 0.08035881 -0.00351485
v 0.01486438 0.07921122 -0.00350111
v 0.01485741 0.07862701 -0.00349258
v 0.01500203 0.07921122 -0.00292120
v 0.01495324 0.07817840 -0.00301170
v 0.01506475 0.08035881 -0.00267342
v 0.01502729 0.08493870 -0.00285772
v 0.01500029 0.08607585 -0.00272080
v 0.01472586 0.08607585 -0.00329217
v 0.01452636 0.08722343 -0.00307803
v 0.01508305 0.08150639 -0.00267342
v 0.01395487 0.08722343 -0.00365130
v 0.01482257 0.08493870 -0.00342862
v 0.01485306 0.08428145 -0.00348169
v 0.01431902 0.08299825 -0.00389767
v 0.01500638 0.08385372 -0.00302875
v 0.01502903 0.08035881 -0.00292120
f 1 2 3
f 1 3 18
f 1 18 53
f 1 53 82
f 1 82 115
f 1 115 146
f 1 146 186
f 1 186 187
f 1 187 148
f 1 148 147
f 1 147 116
f 1 116 84
f 1 84 55
f 1 55 23
f 1 23 4
f 1 4 22
f 1 22 5
f 1 5 6
f 1 6 7
f 1 7 8
f 1 8 9
f 1 9 10
f 1 10 11
f 1 11 12
f 1 12 13
f 1 13 14
f 1 14 2
f 2 15 16
f 2 16 3
f 2 14 17
f 2 17 15
f 3 16 18
f 4 19 20
f 4 20 21
f 4 21 22
f 4 23 24
f 4 24 25
f 4 25 26
f 4 26 27
f 4 27 28
f 4 28 29
f 4 29 30
f 4 30 31
f 4 31 32
f 4 32 33
f 4 33 34
f 4 34 19
f 5 22 34
f 5 34 35
f 5 35 36
f 5 36 37
f 5 37 6
f 6 38 7
f 6 37 38
f 7 38 37
f 7 37 8
f 8 37 9
f 9 39 10
f 9 37 39
f 10 39 37
f 10 37 11
f 11 37 40
f 11 40 12
f 12 40 13
f 13 40 41
f 13 41 42
f 13 42 14
f 14 42 43
f 14 43 44
f 14 44 17
f 15 17 44
f 15 44 45
f 15 45 46
f 15 46 47
f 15 47 16
f 16 47 48
f 16 48 49
f 16 49 50
f 16 50 51
f 16 51 18
f 18 52 53
f 18 51 54
f 18 54 52
f 19 34 20
f 20 34 21
f 21 34 22
f 23 55 24
f 24 55 84
f 24 84 117
f 24 117 150
f 24 150 192
f 24 192 191
f 24 191 220
f 24 220 225
f 24 225 198
f 24 198 151
f 24 151 118
f 24 118 86
f 24 86 85
f 24 85 56
f 24 56 57
f 24 57 58
f 24 58 25
f 25 58 59
f 25 59 26
f 26 59 60
f 26 60 27
f 27 60 28
f 28 60 29
f 29 60 30
f 30 60 31
f 31 60 32
f 32 60 33
f 33 60 34
f 34 60 61
f 34 61 35
f 35 61 36
f 36 62 37
f 36 61 63
f 36 63 64
f 36 64 65
f 36 65 62
f 37 62 92
f 37 92 66
f 37 66 41
f 37 41 40
f 41 66 42
f 42 66 67
f 42 67 68
f 42 68 43
f 43 68 69
f 43 69 44
f 44 69 70
f 44 70 45
f 45 70 71
f 45 71 72
f 45 72 73
f 45 73 46
f 46 73 47
f 47 73 74
f 47 74 48
f 48 74 75
f 48 75 49
f 49 75 50
f 50 75 51
f 51 75 76
f 51 76 77
f 51 77 54
f 52 78 82
f 52 82 53
f 52 54 79
f 52 79 80
f 52 80 81
f 52 81 78
f 54 77 76
f 54 76 83
f 54 83 79
f 56 85 57
f 57 86 87
f 57 87 88
f 57 88 58
f 57 85 86
f 58 88 89
f 58 89 60
f 58 60 59
f 60 89 90
f 60 90 61
f 61 90 91
f 61 91 63
f 62 65 93
f 62 93 94
f 62 94 92
f 63 91 95
f 63 95 96
f 63 96 97
f 63 97 64
f 64 97 65
f 65 97 96
f 65 96 98
f 65 98 93
f 66 92 67
f 67 92 68
f 68 92 69
f 69 92 71
f 69 71 70
f 71 92 99
f 71 99 72
f 72 99 100
f 72 100 73
f 73 100 74
f 74 100 101
f 74 101 75
f 75 101 76
f 76 101 102
f 76 102 83
f 78 103 82
f 78 81 104
f 78 104 105
f 78 105 106
f 78 106 107
f 78 107 108
f 78 108 109
f 78 109 110
f 78 110 103
f 79 83 80
f 80 111 112
f 80 112 81
f 80 83 111
f 81 112 104
f 82 103 113
f 82 113 114
f 82 114 115
f 83 102 111
f 84 116 117
f 86 118 87
f 87 119 120
f 87 120 88
f 87 118 119
f 88 120 121
f 88 121 122
f 88 122 89
f 89 122 121
f 89 121 90
f 90 121 123
f 90 123 91
f 91 123 124
f 91 124 95
f 92 94 125
f 92 125 126
f 92 126 127
f 92 127 99
f 93 98 128
f 93 128 94
f 94 128 125
f 95 124 129
f 95 129 130
f 95 130 131
f 95 131 96
f 96 131 132
f 96 132 98
f 98 132 128
f 99 127 133
f 99 133 134
f 99 134 135
f 99 135 100
f 100 135 101
f 101 135 112
f 101 112 111
f 101 111 102
f 103 110 113
f 104 112 136
f 104 136 137
f 104 137 105
f 105 137 138
f 105 138 106
f 106 138 107
f 107 138 139
f 107 139 108
f 108 139 140
f 108 140 109
f 109 140 110
f 110 140 141
f 110 141 142
f 110 142 113
f 112 135 172
f 112 172 136
f 113 142 114
f 114 143 115
f 114 142 144
f 114 144 143
f 115 143 145
f 115 145 146
f 116 147 117
f 117 147 148
f 117 148 149
f 117 149 150
f 118 151 119
f 119 152 153
f 119 153 154
f 119 154 155
f 119 155 120
f 119 151 152
f 120 155 156
f 120 156 121
f 121 156 157
f 121 157 158
f 121 158 123
f 123 158 157
f 123 157 159
f 123 159 160
f 123 160 124
f 124 160 161
f 124 161 129
f 125 128 126
f 126 128 132
f 126 132 162
f 126 162 133
f 126 133 127
f 129 161 163
f 129 163 164
f 129 164 130
f 130 164 165
f 130 165 131
f 131 165 166
f 131 166 132
f 132 166 167
f 132 167 168
f 132 168 162
f 133 162 168
f 133 168 169
f 133 169 170
f 133 170 171
f 133 171 134
f 134 171 172
f 134 172 135
f 136 172 173
f 136 173 137
f 137 173 138
f 138 173 174
f 138 174 139
f 139 174 175
f 139 175 176
f 139 176 140
f 140 176 141
f 141 177 142
f 141 176 177
f 142 177 178
f 142 178 144
f 143 144 179
f 143 179 145
f 144 178 180
f 144 180 179
f 145 179 181
f 145 181 146
f 146 181 182
f 146 182 183
f 146 183 184
f 146 184 185
f 146 185 186
f 148 187 188
f 148 188 189
f 148 189 190
f 148 190 149
f 149 190 191
f 149 191 192
f 149 192 150
f 151 193 194
f 151 194 195
f 151 195 196
f 151 196 197
f 151 197 152
f 151 198 193
f 152 197 153
f 153 197 199
f 153 199 200
f 153 200 154
f 154 200 159
f 154 159 157
f 154 157 155
f 155 157 156
f 159 200 199
f 159 199 201
f 159 201 202
f 159 202 160
f 160 202 161
f 161 202 201
f 161 201 163
f 163 201 203
f 163 203 164
f 164 203 204
f 164 204 165
f 165 204 205
f 165 205 206
f 165 206 166
f 166 206 167
f 167 207 168
f 167 206 205
f 167 205 204
f 167 204 208
f 167 208 207
f 168 207 209
f 168 209 169
f 169 209 170
f 170 209 171
f 171 209 172
f 172 209 173
f 173 209 210
f 173 210 175
f 173 175 174
f 175 211 176
f 175 210 212
f 175 212 213
f 175 213 211
f 176 211 214
f 176 214 215
f 176 215 179
f 176 179 180
f 176 180 178
f 176 178 177
f 179 215 181
f 181 215 182
f 182 215 183
f 183 215 184
f 184 215 185
f 185 187 186
f 185 215 216
f 185 216 217
f 185 217 188
f 185 188 187
f 188 217 218
f 188 218 219
f 188 219 190
f 188 190 189
f 190 219 218
f 190 218 220
f 190 220 191
f 193 198 211
f 193 211 221
f 193 221 222
f 193 222 194
f 194 222 195
f 195 222 223
f 195 223 224
f 195 224 196
f 196 224 197
f 197 224 199
f 198 225 214
f 198 214 211
f 199 224 226
f 199 226 201
f 201 226 203
f 203 226 223
f 203 223 227
f 203 227 204
f 204 227 228
f 204 228 208
f 207 229 209
f 207 208 229
f 208 228 210
f 208 210 229
f 209 229 210
f 210 228 221
f 210 221 230
f 210 230 212
f 211 213 221
f 212 230 213
f 213 230 221
f 214 225 231
f 214 231 216
f 214 216 215
f 216 231 217
f 217 231 218
f 218 231 220
f 220 231 225
f 221 228 222
f 222 228 227
f 222 227 223
f 223 226 224

