# https://github.com/mikedh/trimesh
v 0.00066098 -0.12916176 -0.00343622
v 0.00066098 -0.12898007 -0.00469776
v 0.00192111 -0.12907828 -0.00343622
v 0.00066098 -0.12910382 -0.00215232
v 0.00066098 -0.12897614 -0.00472482
v 0.00192111 -0.12888677 -0.00472482
v 0.00320788 -0.12887990 -0.00343622
v 0.00320788 -0.12882391 -0.00215232
v 0.00192111 -0.12902033 -0.00215232
v 0.00066098 -0.12881704 -0.00086488
v 0.00066098 -0.12866580 -0.00576630
v 0.00192111 -0.12861767 -0.00564274
v 0.00283500 -0.12855481 -0.00548740
v 0.00324117 -0.12867169 -0.00478014
v 0.00412343 -0.12857642 -0.00438826
v 0.00431819 -0.12862946 -0.00343622
v 0.00421332 -0.12860294 -0.00215232
v 0.00398277 -0.12854205 -0.00139680
v 0.00320788 -0.12862259 -0.00113790
v 0.00196938 -0.12869526 -0.00076368
v 0.00066098 -0.12881115 -0.00084488
v 0.00066098 -0.12839768 -0.00640884
v 0.00192111 -0.12834366 -0.00628645
v 0.00369312 -0.12847821 -0.00524498
v 0.00324117 -0.12827492 -0.00595342
v 0.00495991 -0.12846054 -0.00343622
v 0.00452794 -0.12837509 -0.00478014
v 0.00577891 -0.12799502 -0.00472482
v 0.00485587 -0.12843107 -0.00215232
v 0.00577891 -0.12783984 -0.00086606
v 0.00444554 -0.12826509 -0.00092843
v 0.00320788 -0.12841634 -0.00049301
v 0.00243049 -0.12849295 -0.00026824
v 0.00157320 -0.12853911 -0.00015644
v 0.00066098 -0.12856366 -0.00010349
v 0.00066098 -0.12788208 -0.00729733
v 0.00192111 -0.12777797 -0.00729733
v 0.00317375 -0.12753637 -0.00737971
v 0.00449381 -0.12795966 -0.00600990
v 0.00581970 -0.12752655 -0.00606874
v 0.00449381 -0.12744995 -0.00704197
v 0.00577891 -0.12818358 -0.00343622
v 0.00577891 -0.12812662 -0.00215232
v 0.00673525 -0.12735075 -0.00567804
v 0.00712561 -0.12747057 -0.00472953
v 0.00781144 -0.12727316 -0.00430588
v 0.00775651 -0.12724567 -0.00142740
v 0.00703738 -0.12739298 -0.00094608
v 0.00658959 -0.12728593 -0.00008348
v 0.00565074 -0.12738807 0.00037547
v 0.00449381 -0.12771315 0.00042137
v 0.00320788 -0.12800680 0.00042137
v 0.00196938 -0.12824153 0.00033076
v 0.00066098 -0.12822189 0.00056376
v 0.00066098 -0.12823563 0.00053787
v 0.00066098 -0.12734682 -0.00810816
v 0.00192111 -0.12729772 -0.00804108
v 0.00272347 -0.12724861 -0.00797753
v 0.00358076 -0.12716218 -0.00786220
v 0.00541602 -0.12731834 -0.00681837
v 0.00627414 -0.12715826 -0.00653594
v 0.00706568 -0.12768565 -0.00343622
v 0.00706568 -0.12763753 -0.00215232
v 0.00759337 -0.12716022 -0.00516378
v 0.00823259 -0.12675756 -0.00462244
v 0.00906158 -0.12605731 -0.00426351
v 0.00854471 -0.12680961 -0.00343739
v 0.00823259 -0.12705612 -0.00343739
v 0.00790050 -0.12731834 -0.00343622
v 0.00785971 -0.12729772 -0.00215232
v 0.00823259 -0.12691961 -0.00188871
v 0.00900665 -0.12595518 -0.00149212
v 0.00823259 -0.12652283 -0.00104141
v 0.00744688 -0.12704826 -0.00056950
v 0.00700076 -0.12657882 0.00036488
v 0.00599448 -0.12696675 0.00077324
v 0.00513636 -0.12722013 0.00106391
v 0.00449381 -0.12731049 0.00119454
v 0.00320788 -0.12745289 0.00141460
v 0.00192111 -0.12754227 0.00155582
v 0.00066098 -0.12759235 0.00162878
v 0.00066098 -0.12713666 -0.00829174
v 0.00074504 -0.12648552 -0.00884484
v 0.00192111 -0.12657783 -0.00864478
v 0.00317375 -0.12667113 -0.00835293
v 0.00449381 -0.12699720 -0.00768451
v 0.00449381 -0.12635293 -0.00823172
v 0.00722132 -0.12673104 -0.00616524
v 0.00583052 -0.12664069 -0.00733146
v 0.00684845 -0.12630088 -0.00698783
v 0.00803700 -0.12630382 -0.00579219
v 0.00823259 -0.12669666 -0.00478602
v 0.00835328 -0.12660926 -0.00471423
v 0.00905160 -0.12529029 -0.00423527
v 0.00916396 -0.12529029 -0.00343739
v 0.00912234 -0.12616633 -0.00343739
v 0.00815352 -0.12529127 -0.00595577
v 0.00823259 -0.12529029 -0.00582514
v 0.00879691 -0.12529029 -0.00487899
v 0.00850310 -0.12673399 -0.00215232
v 0.00823259 -0.12649042 -0.00099433
v 0.00824591 -0.12650221 -0.00103081
v 0.00908073 -0.12609070 -0.00215232
v 0.00909238 -0.12537475 -0.00215232
v 0.00900665 -0.12586089 -0.00149212
v 0.00791132 -0.12529127 -0.00000110
v 0.00787719 -0.12619088 -0.00004112
v 0.00823259 -0.12651105 -0.00102258
v 0.00655464 -0.12610740 0.00115805
v 0.00565074 -0.12655230 0.00129927
v 0.00440059 -0.12647569 0.00186296
v 0.00320788 -0.12681354 0.00205831
v 0.00192111 -0.12704237 0.00219836
v 0.00066098 -0.12713272 0.00227249
v 0.00066098 -0.12648552 -0.00884484
v 0.00066098 -0.12636962 -0.00894252
v 0.00320788 -0.12529127 -0.00883072
v 0.00538689 -0.12612213 -0.00805991
v 0.00701324 -0.12529127 -0.00712081
v 0.00765663 -0.12529127 -0.00659948
v 0.00900415 -0.12460870 -0.00410465
v 0.00903828 -0.12444174 -0.00343739
v 0.00904327 -0.12441228 -0.00258185
v 0.00803117 -0.12400569 -0.00581338
v 0.00823259 -0.12434255 -0.00556742
v 0.00787719 -0.12271814 -0.00560626
v 0.00823259 -0.12332705 -0.00517084
v 0.00868954 -0.12411077 -0.00460950
v 0.00894256 -0.12500253 -0.00172396
v 0.00771156 -0.11949289 -0.00150625
v 0.00778064 -0.12014501 -0.00138621
v 0.00828919 -0.12400471 -0.00086606
v 0.00861130 -0.12537475 -0.00098374
v 0.00823259 -0.12532957 -0.00045182
v 0.00779563 -0.12400569 -0.00012467
v 0.00720218 -0.12529127 0.00064261
v 0.00655880 -0.12529127 0.00115923
v 0.00577891 -0.12529127 0.00157935
v 0.00390952 -0.12597874 0.00237017
v 0.00320788 -0.12616927 0.00246196
v 0.00066098 -0.12711996 0.00228073
v 0.00192111 -0.12639811 0.00257729
v 0.00066098 -0.12538555 -0.00919200
v 0.00192111 -0.12529127 -0.00906255
v 0.00320788 -0.12400569 -0.00860830
v 0.00460451 -0.12390650 -0.00819053
v 0.00449381 -0.12529127 -0.00845061
v 0.00544848 -0.12529127 -0.00808933
v 0.00609187 -0.12529127 -0.00776453
v 0.00687841 -0.12400569 -0.00701137
v 0.00752179 -0.12400569 -0.00645709
v 0.00775900 -0.11928959 -0.00419526
v 0.00773986 -0.11912853 -0.00410347
v 0.00786304 -0.11912853 -0.00335972
v 0.00866790 -0.12271912 -0.00343739
v 0.00890594 -0.12380043 -0.00343739
v 0.00780561 -0.11912853 -0.00224881
v 0.00857468 -0.12271912 -0.00215232
v 0.00885350 -0.12399194 -0.00215232
v 0.00776899 -0.12183130 -0.00545209
v 0.00766329 -0.12097490 -0.00527910
v 0.00832248 -0.12271912 -0.00472482
v 0.00775734 -0.11912853 -0.00204523
v 0.00737530 -0.11912853 -0.00114026
v 0.00761834 -0.12244217 -0.00034238
v 0.00791798 -0.12143158 -0.00115556
v 0.00823259 -0.12377195 -0.00085429
v 0.00772238 -0.12330054 -0.00020822
v 0.00669946 -0.12014501 0.00004714
v 0.00685094 -0.12143158 0.00018130
v 0.00713976 -0.12281046 0.00021072
v 0.00696663 -0.12400372 0.00060613
v 0.00647224 -0.12442799 0.00110039
v 0.00587213 -0.12400372 0.00135223
v 0.00524373 -0.12039840 0.00112040
v 0.00449381 -0.12400569 0.00193828
v 0.00440059 -0.12532564 0.00215128
v 0.00390952 -0.12577839 0.00237017
v 0.00192111 -0.12529127 0.00271615
v 0.00066098 -0.12649042 0.00263495
v 0.00066098 -0.12529127 0.00283030
v 0.00066098 -0.12528537 -0.00917082
v 0.00074504 -0.12528537 -0.00917082
v 0.00192111 -0.12400569 -0.00881307
v 0.00398526 -0.12192460 -0.00798341
v 0.00425077 -0.12271814 -0.00806697
v 0.00510640 -0.12341053 -0.00793164
v 0.00530199 -0.12426693 -0.00801754
v 0.00575061 -0.12390650 -0.00770686
v 0.00669114 -0.12271814 -0.00686074
v 0.00653466 -0.12170853 -0.00674188
v 0.00640149 -0.12085115 -0.00663832
v 0.00678269 -0.11912853 -0.00577219
v 0.00823259 -0.12237342 -0.00474483
v 0.00785722 -0.12014501 -0.00442121
v 0.00755675 -0.12014501 -0.00506492
v 0.00763416 -0.11912853 -0.00436943
v 0.00691836 -0.11912853 -0.00559449
v 0.00725212 -0.11912853 -0.00096021
v 0.00734284 -0.12014501 -0.00074132
v 0.00658294 -0.11912853 -0.00006348
v 0.00799871 -0.12281046 -0.00080840
v 0.00636154 -0.12357159 0.00102743
v 0.00623253 -0.12271814 0.00094976
v 0.00571566 -0.12003993 0.00076147
v 0.00576560 -0.11912853 0.00054258
v 0.00541935 -0.11912853 0.00070734
v 0.00473685 -0.11912853 0.00101684
v 0.00449381 -0.12271814 0.00173469
v 0.00371309 -0.12492101 0.00231721
v 0.00325365 -0.12532564 0.00248197
v 0.00285497 -0.12424237 0.00242077
v 0.00243632 -0.12338696 0.00234546
v 0.00066098 -0.12470986 0.00269732
v 0.00157903 -0.12335062 0.00236193
v 0.00066098 -0.12520976 -0.00915199
v 0.00066098 -0.12431898 -0.00892839
v 0.00066098 -0.12400569 -0.00884955
v 0.00449381 -0.11912853 -0.00707609
v 0.00489332 -0.12271814 -0.00785514
v 0.00545181 -0.11912853 -0.00684191
v 0.00563742 -0.12014501 -0.00695488
v 0.00558748 -0.11912853 -0.00675718
v 0.00628080 -0.12014501 -0.00654771
v 0.00609520 -0.11912853 -0.00641473
v 0.00745188 -0.11912853 -0.00474718
v 0.00636071 -0.11912853 0.00010245
v 0.00603610 -0.12143158 0.00082502
v 0.00460617 -0.11912853 0.00103567
v 0.00325365 -0.12389275 0.00226308
v 0.00411011 -0.11912853 0.00109804
v 0.00069926 -0.12392123 0.00251256
v 0.00066098 -0.12395855 0.00252198
v 0.00117036 -0.12335062 0.00236193
v 0.00066098 -0.12309036 -0.00827409
v 0.00363402 -0.11912853 -0.00688780
v 0.00382546 -0.11912853 -0.00694900
v 0.00381630 -0.11912853 0.00109333
v 0.00066098 -0.12392123 0.00251256
v 0.00066098 -0.12270046 -0.00729733
v 0.00320371 -0.11912853 -0.00600990
v 0.00329860 -0.11912853 -0.00621584
v 0.00345091 -0.11912853 0.00042137
v 0.00066098 -0.12339973 0.00229956
v 0.00066098 -0.12245199 -0.00604285
v 0.00279505 -0.11912853 -0.00466481
v 0.00288244 -0.11912853 -0.00499902
v 0.00287911 -0.11912853 -0.00093667
v 0.00066098 -0.12315812 0.00178059
v 0.00066098 -0.12244610 -0.00600990
v 0.00066098 -0.12224379 -0.00471776
v 0.00268768 -0.11912853 -0.00343622
v 0.00281252 -0.11912853 -0.00125206
v 0.00066098 -0.12271814 0.00042137
v 0.00066098 -0.12218682 -0.00343622
v 0.00066098 -0.12218878 -0.00323145
v 0.00269933 -0.11912853 -0.00214996
v 0.00066098 -0.12245886 -0.00086606
v 0.00066098 -0.12224673 -0.00213466
v 0.00066098 -0.12245297 -0.00089901
f 1 2 3
f 1 3 9
f 1 9 4
f 1 4 10
f 1 10 21
f 1 21 35
f 1 35 55
f 1 55 54
f 1 54 81
f 1 81 114
f 1 114 141
f 1 141 180
f 1 180 181
f 1 181 214
f 1 214 233
f 1 233 239
f 1 239 244
f 1 244 249
f 1 249 254
f 1 254 258
f 1 258 260
f 1 260 259
f 1 259 256
f 1 256 255
f 1 255 251
f 1 251 250
f 1 250 245
f 1 245 240
f 1 240 235
f 1 235 218
f 1 218 217
f 1 217 216
f 1 216 182
f 1 182 143
f 1 143 116
f 1 116 115
f 1 115 82
f 1 82 56
f 1 56 36
f 1 36 22
f 1 22 11
f 1 11 5
f 1 5 2
f 2 5 3
f 3 5 6
f 3 6 7
f 3 7 8
f 3 8 9
f 4 9 10
f 5 11 12
f 5 12 6
f 6 12 13
f 6 13 14
f 6 14 7
f 7 14 15
f 7 15 16
f 7 16 17
f 7 17 8
f 8 17 18
f 8 18 19
f 8 19 9
f 9 19 20
f 9 20 10
f 10 20 21
f 11 22 12
f 12 22 23
f 12 23 13
f 13 24 14
f 13 23 25
f 13 25 24
f 14 24 15
f 15 26 16
f 15 24 27
f 15 27 28
f 15 28 26
f 16 26 17
f 17 29 18
f 17 26 29
f 18 29 30
f 18 30 31
f 18 31 32
f 18 32 19
f 19 32 33
f 19 33 20
f 20 33 34
f 20 34 21
f 21 34 35
f 22 36 37
f 22 37 23
f 23 37 38
f 23 38 25
f 24 25 39
f 24 39 40
f 24 40 27
f 25 38 41
f 25 41 39
f 26 28 42
f 26 42 43
f 26 43 29
f 27 40 28
f 28 44 45
f 28 45 46
f 28 46 42
f 28 40 44
f 29 43 30
f 30 43 47
f 30 47 48
f 30 48 49
f 30 49 50
f 30 50 31
f 31 50 51
f 31 51 32
f 32 51 52
f 32 52 33
f 33 52 53
f 33 53 34
f 34 53 54
f 34 54 55
f 34 55 35
f 36 56 57
f 36 57 37
f 37 57 58
f 37 58 38
f 38 58 59
f 38 59 41
f 39 41 60
f 39 60 40
f 40 60 61
f 40 61 44
f 41 59 60
f 42 46 62
f 42 62 63
f 42 63 43
f 43 63 47
f 44 64 45
f 44 61 64
f 45 64 46
f 46 65 66
f 46 66 67
f 46 67 68
f 46 68 69
f 46 69 62
f 46 64 65
f 47 63 70
f 47 70 71
f 47 71 72
f 47 72 73
f 47 73 74
f 47 74 49
f 47 49 48
f 49 75 76
f 49 76 77
f 49 77 50
f 49 74 75
f 50 77 51
f 51 77 78
f 51 78 52
f 52 78 79
f 52 79 53
f 53 79 80
f 53 80 54
f 54 80 81
f 56 82 57
f 57 82 83
f 57 83 84
f 57 84 58
f 58 84 85
f 58 85 59
f 59 86 60
f 59 85 87
f 59 87 86
f 60 86 61
f 61 88 64
f 61 86 89
f 61 89 90
f 61 90 88
f 62 69 70
f 62 70 63
f 64 88 91
f 64 91 92
f 64 92 65
f 65 92 93
f 65 93 66
f 66 94 95
f 66 95 96
f 66 96 67
f 66 93 91
f 66 91 97
f 66 97 98
f 66 98 99
f 66 99 94
f 67 96 103
f 67 103 100
f 67 100 70
f 67 70 68
f 68 70 69
f 70 100 71
f 71 100 72
f 72 101 102
f 72 102 73
f 72 100 103
f 72 103 104
f 72 104 105
f 72 105 106
f 72 106 107
f 72 107 101
f 73 102 108
f 73 108 74
f 74 108 107
f 74 107 75
f 75 107 109
f 75 109 76
f 76 109 77
f 77 109 110
f 77 110 111
f 77 111 112
f 77 112 78
f 78 112 113
f 78 113 79
f 79 113 80
f 80 113 114
f 80 114 81
f 82 115 83
f 83 115 116
f 83 116 84
f 84 116 117
f 84 117 87
f 84 87 85
f 86 87 118
f 86 118 89
f 87 117 118
f 88 90 91
f 89 118 90
f 90 118 119
f 90 119 120
f 90 120 91
f 91 93 92
f 91 120 97
f 94 121 95
f 94 99 121
f 95 121 122
f 95 122 123
f 95 123 104
f 95 104 103
f 95 103 96
f 97 120 124
f 97 124 98
f 98 124 125
f 98 125 99
f 99 125 126
f 99 126 127
f 99 127 128
f 99 128 121
f 101 107 102
f 102 107 108
f 104 123 129
f 104 129 105
f 105 129 130
f 105 130 131
f 105 131 132
f 105 132 133
f 105 133 134
f 105 134 106
f 106 135 136
f 106 136 107
f 106 134 135
f 107 136 109
f 109 137 138
f 109 138 139
f 109 139 110
f 109 136 137
f 110 139 111
f 111 139 112
f 112 139 140
f 112 140 113
f 113 141 114
f 113 140 142
f 113 142 141
f 116 143 144
f 116 144 117
f 117 144 145
f 117 145 146
f 117 146 147
f 117 147 118
f 118 147 148
f 118 148 149
f 118 149 119
f 119 150 120
f 119 149 150
f 120 150 151
f 120 151 124
f 121 128 152
f 121 152 153
f 121 153 154
f 121 154 155
f 121 155 156
f 121 156 122
f 122 156 123
f 123 157 158
f 123 158 159
f 123 159 129
f 123 156 155
f 123 155 154
f 123 154 157
f 124 151 126
f 124 126 125
f 126 160 127
f 126 151 160
f 127 160 128
f 128 160 161
f 128 161 162
f 128 162 152
f 129 159 130
f 130 159 158
f 130 158 157
f 130 157 163
f 130 163 164
f 130 164 165
f 130 165 131
f 131 165 166
f 131 166 132
f 132 166 167
f 132 167 168
f 132 168 135
f 132 135 133
f 133 135 134
f 135 168 169
f 135 169 170
f 135 170 171
f 135 171 172
f 135 172 136
f 136 172 173
f 136 173 137
f 137 173 138
f 138 173 174
f 138 174 175
f 138 175 176
f 138 176 177
f 138 177 178
f 138 178 139
f 139 178 179
f 139 179 140
f 140 179 142
f 141 142 180
f 142 179 181
f 142 181 180
f 143 182 183
f 143 183 144
f 144 183 184
f 144 184 145
f 145 184 185
f 145 185 186
f 145 186 146
f 146 186 187
f 146 187 188
f 146 188 147
f 147 188 148
f 148 188 149
f 149 188 189
f 149 189 150
f 150 190 151
f 150 189 190
f 151 190 191
f 151 191 192
f 151 192 193
f 151 193 160
f 152 162 194
f 152 194 195
f 152 195 161
f 152 161 196
f 152 196 197
f 152 197 153
f 153 197 226
f 153 226 198
f 153 198 193
f 153 193 225
f 153 225 223
f 153 223 221
f 153 221 219
f 153 219 237
f 153 237 236
f 153 236 242
f 153 242 241
f 153 241 247
f 153 247 246
f 153 246 252
f 153 252 257
f 153 257 253
f 153 253 248
f 153 248 243
f 153 243 238
f 153 238 231
f 153 231 229
f 153 229 208
f 153 208 207
f 153 207 206
f 153 206 227
f 153 227 201
f 153 201 199
f 153 199 164
f 153 164 163
f 153 163 157
f 153 157 154
f 160 193 198
f 160 198 161
f 161 194 162
f 161 198 196
f 161 195 194
f 164 199 165
f 165 199 200
f 165 200 201
f 165 201 168
f 165 168 166
f 166 168 202
f 166 202 167
f 167 202 168
f 168 201 169
f 169 201 203
f 169 203 170
f 170 203 172
f 170 172 171
f 172 203 173
f 173 203 174
f 174 203 175
f 175 203 204
f 175 204 205
f 175 205 206
f 175 206 207
f 175 207 208
f 175 208 209
f 175 209 176
f 176 209 210
f 176 210 177
f 177 210 178
f 178 210 211
f 178 211 179
f 179 211 212
f 179 212 213
f 179 213 181
f 181 213 215
f 181 215 214
f 182 216 183
f 183 216 217
f 183 217 218
f 183 218 184
f 184 218 219
f 184 219 185
f 185 220 186
f 185 219 221
f 185 221 220
f 186 220 187
f 187 220 221
f 187 221 188
f 188 221 189
f 189 221 222
f 189 222 192
f 189 192 191
f 189 191 190
f 192 222 221
f 192 221 223
f 192 223 224
f 192 224 193
f 193 224 225
f 196 226 197
f 196 198 226
f 199 201 200
f 201 227 204
f 201 204 203
f 204 206 228
f 204 228 205
f 204 227 206
f 205 228 206
f 208 229 213
f 208 213 212
f 208 212 230
f 208 230 209
f 209 230 210
f 210 212 211
f 210 230 212
f 213 229 231
f 213 231 215
f 214 232 233
f 214 215 232
f 215 234 239
f 215 239 232
f 215 231 234
f 218 235 236
f 218 236 237
f 218 237 219
f 223 225 224
f 231 238 234
f 232 239 233
f 234 238 239
f 235 240 241
f 235 241 242
f 235 242 236
f 238 243 244
f 238 244 239
f 240 245 246
f 240 246 247
f 240 247 241
f 243 248 244
f 244 248 249
f 245 250 246
f 246 250 251
f 246 251 252
f 248 253 254
f 248 254 249
f 251 255 252
f 252 255 256
f 252 256 257
f 253 257 258
f 253 258 254
f 256 259 257
f 257 259 260
f 257 260 258

