# https://github.com/mikedh/trimesh
v 0.00054179 -0.11495593 -0.00292055
v 0.00054179 -0.11495336 -0.00296038
v 0.00058135 -0.11495851 -0.00292055
v 0.00054179 -0.11487867 -0.00177877
v 0.00054179 -0.11482460 -0.00406283
v 0.00058135 -0.11482460 -0.00406283
v 0.00176117 -0.11455934 -0.00402449
v 0.00172340 -0.11469584 -0.00292055
v 0.00058135 -0.11487867 -0.00177877
v 0.00054179 -0.11459540 -0.00105077
v 0.00054179 -0.11454389 -0.00478136
v 0.00058135 -0.11454389 -0.00478136
v 0.00140506 -0.11447951 -0.00472410
v 0.00216673 -0.11429667 -0.00438002
v 0.00232679 -0.11440741 -0.00361866
v 0.00235197 -0.11442544 -0.00292055
v 0.00233848 -0.11441513 -0.00211488
v 0.00180523 -0.11458767 -0.00175188
v 0.00147970 -0.11450784 -0.00109210
v 0.00058135 -0.11458509 -0.00102438
v 0.00054179 -0.11458509 -0.00102438
v 0.00054179 -0.11381252 -0.00500494
v 0.00058135 -0.11381252 -0.00500494
v 0.00176117 -0.11387433 -0.00486153
v 0.00250304 -0.11353440 -0.00477389
v 0.00262264 -0.11387433 -0.00402449
v 0.00281328 -0.11381252 -0.00292055
v 0.00265142 -0.11390523 -0.00175188
v 0.00224046 -0.11434560 -0.00135352
v 0.00253632 -0.11358591 -0.00103882
v 0.00180523 -0.11390523 -0.00093176
v 0.00058135 -0.11381252 -0.00076147
v 0.00054179 -0.11381252 -0.00076147
v 0.00054179 -0.11377132 -0.00500743
v 0.00058135 -0.11266912 -0.00507066
v 0.00172340 -0.11266912 -0.00506320
v 0.00287623 -0.11256354 -0.00480526
v 0.00344096 -0.11211029 -0.00463845
v 0.00325122 -0.11280304 -0.00406283
v 0.00332675 -0.11292407 -0.00292055
v 0.00327909 -0.11285969 -0.00177877
v 0.00346344 -0.11217982 -0.00117327
v 0.00919344 -0.09620562 0.00000935
v 0.00289691 -0.11260216 -0.00097509
v 0.00172340 -0.11266912 -0.00067234
v 0.00054179 -0.11271033 -0.00066985
v 0.00054179 -0.11266912 -0.00507066
v 0.00746779 -0.09711983 -0.00507764
v 0.00847404 -0.09688291 -0.00507764
v 0.00857296 -0.09676959 -0.00507764
v 0.00915837 -0.09609231 -0.00507764
v 0.00689676 -0.10307378 -0.00466036
v 0.00700917 -0.10348582 -0.00402249
v 0.00689317 -0.10416311 -0.00361468
v 0.00691115 -0.10419916 -0.00292055
v 0.00690576 -0.10418886 -0.00177877
v 0.00688507 -0.10414765 -0.00117376
v 0.00921592 -0.09624682 -0.00063648
v 0.00924560 -0.09589659 0.00000935
v 0.00891737 -0.09646057 0.00000935
v 0.00806039 -0.10087453 -0.00111949
v 0.00809366 -0.10098784 -0.00177877
v 0.00058135 -0.11266912 -0.00066686
v 0.00858645 -0.09666143 0.00000935
v 0.00054179 -0.11266912 -0.00066686
v 0.00054179 -0.11263049 -0.00507017
v 0.00747678 -0.08864987 -0.00507764
v 0.00654336 -0.09211099 -0.00507764
v 0.00650469 -0.09325440 -0.00507764
v 0.00650649 -0.09439522 -0.00507764
v 0.00658023 -0.09553863 -0.00507764
v 0.00700198 -0.09668718 -0.00507764
v 0.00919524 -0.09580388 -0.00507764
v 0.00917546 -0.09616184 -0.00487149
v 0.00806579 -0.10088483 -0.00369385
v 0.00792640 -0.10156727 -0.00292055
v 0.00762605 -0.10238876 -0.00292055
v 0.00718272 -0.10353217 -0.00292055
v 0.00716834 -0.10353217 -0.00177877
v 0.00761077 -0.10238876 -0.00177877
v 0.00791831 -0.10155954 -0.00177877
v 0.00923391 -0.09627773 -0.00177877
v 0.00937239 -0.09553863 -0.00177877
v 0.00933372 -0.09553863 -0.00063648
v 0.00928966 -0.09553863 0.00000935
v 0.00809726 -0.10099556 -0.00292055
v 0.00773756 -0.09665113 0.00000935
v 0.00744980 -0.09663311 0.00000935
v 0.00662699 -0.09544850 0.00000935
v 0.00054179 -0.11152829 -0.00063897
v 0.00054179 -0.11152829 -0.00504726
v 0.00328269 -0.09026970 -0.00372273
v 0.00320805 -0.09020789 -0.00292055
v 0.00400748 -0.08991174 -0.00292055
v 0.00759098 -0.08864987 0.00000935
v 0.00954415 -0.08864987 -0.00507764
v 0.00054179 -0.10924148 -0.00499498
v 0.00054179 -0.10577521 -0.00491531
v 0.00054179 -0.10467300 -0.00488991
v 0.00054179 -0.10353217 -0.00486352
v 0.00341758 -0.09151096 -0.00464243
v 0.00922312 -0.09553091 -0.00507764
v 0.00930944 -0.09553863 -0.00406283
v 0.00936250 -0.09553863 -0.00292055
v 0.00920333 -0.09621592 -0.00406283
v 0.00922941 -0.09626485 -0.00292055
v 0.00945422 -0.09439522 -0.00177877
v 0.00941466 -0.09439522 -0.00063648
v 0.00932473 -0.09504161 0.00000935
v 0.00646782 -0.09211099 0.00000935
v 0.00054179 -0.10353217 -0.00045673
v 0.00054179 -0.10357080 -0.00045723
v 0.00054179 -0.10467300 -0.00048162
v 0.00054179 -0.10699844 -0.00053490
v 0.00296885 -0.09112467 -0.00401552
v 0.00227374 -0.09149808 -0.00354696
v 0.00263613 -0.09090578 -0.00292055
v 0.00264782 -0.09090835 -0.00177877
v 0.00321884 -0.09022076 -0.00177877
v 0.00964217 -0.08864987 0.00000935
v 0.00329798 -0.09028514 -0.00100546
v 0.00400748 -0.09097016 -0.00033523
v 0.00400748 -0.09211099 -0.00019830
v 0.00740844 -0.08920354 0.00000935
v 0.00964486 -0.08864987 -0.00406283
v 0.00964396 -0.08868334 -0.00406283
v 0.00945063 -0.09097016 -0.00507764
v 0.00054179 -0.10238876 -0.00480178
v 0.00054179 -0.10236301 -0.00479779
v 0.00054179 -0.10169345 -0.00469372
v 0.00929955 -0.09439522 -0.00507764
v 0.00938858 -0.09439522 -0.00406283
v 0.00944343 -0.09439522 -0.00292055
v 0.00951537 -0.09325440 -0.00177877
v 0.00936879 -0.09439522 0.00000935
v 0.00947491 -0.09325440 -0.00063648
v 0.00668994 -0.09142083 0.00000935
v 0.00054179 -0.10238876 -0.00052445
v 0.00226205 -0.09147748 -0.00292055
v 0.00054179 -0.10115522 -0.00399610
v 0.00054179 -0.10097238 -0.00292055
v 0.00226295 -0.09148005 -0.00177877
v 0.00227553 -0.09150323 -0.00116281
v 0.00964396 -0.08864987 -0.00000957
v 0.00964127 -0.08868334 0.00000935
v 0.00289602 -0.09106287 -0.00085608
v 0.00286544 -0.09211099 -0.00060113
v 0.00970781 -0.08864987 -0.00295391
v 0.00954685 -0.09097016 -0.00406283
v 0.00939757 -0.09223975 -0.00507764
v 0.00940297 -0.09211099 -0.00507764
v 0.00935351 -0.09325440 -0.00507764
v 0.00944523 -0.09325440 -0.00406283
v 0.00950278 -0.09325440 -0.00292055
v 0.00957113 -0.09211099 -0.00177877
v 0.00939487 -0.09389820 0.00000935
v 0.00945242 -0.09275738 0.00000935
v 0.00942815 -0.09325440 0.00000935
v 0.00953066 -0.09211099 -0.00063648
v 0.00054179 -0.10143850 -0.00090786
v 0.00054179 -0.10096466 -0.00175984
v 0.00054179 -0.10099041 -0.00168017
v 0.00968893 -0.08864987 -0.00063648
v 0.00963587 -0.08982675 -0.00063648
v 0.00953695 -0.09097016 0.00000935
v 0.00970961 -0.08864987 -0.00292055
v 0.00949829 -0.09211099 -0.00406283
v 0.00955764 -0.09211099 -0.00292055
v 0.00958371 -0.09097016 -0.00063648
v 0.00967454 -0.08982675 -0.00177877
v 0.00948390 -0.09211099 0.00000935
v 0.00972759 -0.08864987 -0.00177877
v 0.00965835 -0.08982675 -0.00292055
v 0.00960799 -0.09097016 -0.00292055
f 1 2 3
f 1 3 4
f 1 4 10
f 1 10 21
f 1 21 33
f 1 33 46
f 1 46 65
f 1 65 90
f 1 90 114
f 1 114 113
f 1 113 112
f 1 112 111
f 1 111 138
f 1 138 160
f 1 160 162
f 1 162 161
f 1 161 141
f 1 141 140
f 1 140 130
f 1 130 129
f 1 129 128
f 1 128 100
f 1 100 99
f 1 99 98
f 1 98 97
f 1 97 91
f 1 91 66
f 1 66 47
f 1 47 34
f 1 34 22
f 1 22 11
f 1 11 5
f 1 5 2
f 2 5 3
f 3 5 6
f 3 6 7
f 3 7 8
f 3 8 9
f 3 9 4
f 4 9 10
f 5 11 12
f 5 12 6
f 6 12 13
f 6 13 7
f 7 13 14
f 7 14 15
f 7 15 8
f 8 15 16
f 8 16 17
f 8 17 18
f 8 18 9
f 9 18 19
f 9 19 20
f 9 20 10
f 10 20 21
f 11 22 23
f 11 23 12
f 12 23 13
f 13 23 24
f 13 24 25
f 13 25 14
f 14 26 15
f 14 25 26
f 15 26 27
f 15 27 16
f 16 27 17
f 17 27 28
f 17 28 29
f 17 29 18
f 18 29 19
f 19 29 30
f 19 30 31
f 19 31 32
f 19 32 20
f 20 32 33
f 20 33 21
f 22 34 23
f 23 34 35
f 23 35 36
f 23 36 24
f 24 36 25
f 25 36 37
f 25 37 38
f 25 38 26
f 26 38 39
f 26 39 27
f 27 39 40
f 27 40 41
f 27 41 28
f 28 41 42
f 28 42 29
f 29 42 30
f 30 42 43
f 30 43 44
f 30 44 45
f 30 45 31
f 31 45 32
f 32 45 46
f 32 46 33
f 34 47 35
f 35 47 48
f 35 48 49
f 35 49 50
f 35 50 51
f 35 51 36
f 36 51 37
f 37 51 38
f 38 51 52
f 38 52 53
f 38 53 54
f 38 54 39
f 39 54 40
f 40 54 55
f 40 55 56
f 40 56 57
f 40 57 41
f 41 57 42
f 42 57 43
f 43 58 59
f 43 59 85
f 43 85 109
f 43 109 135
f 43 135 156
f 43 156 158
f 43 158 157
f 43 157 171
f 43 171 165
f 43 165 145
f 43 145 120
f 43 120 95
f 43 95 124
f 43 124 137
f 43 137 110
f 43 110 89
f 43 89 88
f 43 88 87
f 43 87 64
f 43 64 60
f 43 60 45
f 43 45 44
f 43 57 61
f 43 61 62
f 43 62 58
f 45 63 46
f 45 60 64
f 45 64 63
f 46 63 65
f 47 66 67
f 47 67 68
f 47 68 69
f 47 69 70
f 47 70 71
f 47 71 72
f 47 72 48
f 48 72 71
f 48 71 70
f 48 70 69
f 48 69 68
f 48 68 67
f 48 67 96
f 48 96 127
f 48 127 151
f 48 151 150
f 48 150 152
f 48 152 131
f 48 131 102
f 48 102 73
f 48 73 51
f 48 51 50
f 48 50 49
f 51 73 74
f 51 74 75
f 51 75 52
f 52 75 53
f 53 75 54
f 54 75 76
f 54 76 77
f 54 77 78
f 54 78 55
f 55 78 56
f 56 78 79
f 56 79 57
f 57 79 80
f 57 80 81
f 57 81 61
f 58 82 83
f 58 83 84
f 58 84 59
f 58 62 82
f 59 84 85
f 61 81 62
f 62 81 76
f 62 76 86
f 62 86 82
f 63 64 65
f 64 87 65
f 65 87 88
f 65 88 89
f 65 89 90
f 66 91 67
f 67 92 93
f 67 93 94
f 67 94 95
f 67 95 120
f 67 120 144
f 67 144 163
f 67 163 172
f 67 172 166
f 67 166 148
f 67 148 125
f 67 125 96
f 67 91 97
f 67 97 98
f 67 98 99
f 67 99 100
f 67 100 101
f 67 101 92
f 73 102 103
f 73 103 74
f 74 103 104
f 74 104 105
f 74 105 86
f 74 86 75
f 75 86 76
f 76 81 77
f 77 81 80
f 77 80 79
f 77 79 78
f 82 86 106
f 82 106 83
f 83 106 104
f 83 104 107
f 83 107 84
f 84 107 108
f 84 108 85
f 85 108 109
f 86 105 106
f 89 110 111
f 89 111 112
f 89 112 113
f 89 113 114
f 89 114 90
f 92 101 115
f 92 115 116
f 92 116 117
f 92 117 93
f 93 117 118
f 93 118 119
f 93 119 94
f 94 119 95
f 95 119 121
f 95 121 122
f 95 122 123
f 95 123 124
f 96 125 126
f 96 126 127
f 100 128 101
f 101 116 115
f 101 128 129
f 101 129 130
f 101 130 116
f 102 131 132
f 102 132 103
f 103 132 133
f 103 133 104
f 104 106 105
f 104 133 107
f 107 133 134
f 107 134 108
f 108 135 109
f 108 134 136
f 108 136 135
f 110 137 123
f 110 123 111
f 111 123 138
f 116 139 117
f 116 130 140
f 116 140 141
f 116 141 139
f 117 139 142
f 117 142 118
f 118 142 143
f 118 143 121
f 118 121 119
f 120 145 144
f 121 143 146
f 121 146 122
f 122 146 147
f 122 147 123
f 123 137 124
f 123 147 138
f 125 148 126
f 126 148 149
f 126 149 150
f 126 150 151
f 126 151 127
f 131 152 153
f 131 153 132
f 132 153 154
f 132 154 133
f 133 154 134
f 134 154 155
f 134 155 159
f 134 159 136
f 135 136 156
f 136 157 158
f 136 158 156
f 136 159 157
f 138 147 143
f 138 143 160
f 139 141 161
f 139 161 142
f 142 161 143
f 143 147 146
f 143 161 162
f 143 162 160
f 144 145 163
f 145 164 163
f 145 165 169
f 145 169 164
f 148 166 167
f 148 167 149
f 149 167 150
f 150 167 152
f 152 167 153
f 153 167 168
f 153 168 154
f 154 168 155
f 155 169 159
f 155 168 170
f 155 170 164
f 155 164 169
f 157 159 171
f 159 169 165
f 159 165 171
f 163 164 170
f 163 170 172
f 166 172 173
f 166 173 167
f 167 173 174
f 167 174 168
f 168 174 172
f 168 172 170
f 172 174 173

