# https://github.com/mikedh/trimesh
v -0.01145885 -0.02444025 -0.00508351
v -0.00916439 -0.02444025 -0.00508351
v -0.01137975 -0.02444025 -0.00540298
v -0.01130729 -0.03385648 -0.00523498
v -0.01133688 -0.03385648 -0.00508351
v -0.00627337 -0.02444025 -0.00634851
v -0.00653844 -0.09210339 -0.00508351
v -0.01134533 -0.02444025 -0.00554123
v -0.01134412 -0.02471762 -0.00553329
v -0.01111468 -0.04870624 -0.00520521
v -0.01132239 -0.03492327 -0.00508351
v -0.00550714 -0.02586265 -0.00673480
v -0.00552767 -0.02471762 -0.00674439
v -0.00553371 -0.02444025 -0.00674802
v -0.00649678 -0.09324841 -0.00508351
v -0.01091240 -0.02444025 -0.00607005
v -0.01028988 -0.05098918 -0.00693323
v -0.01029350 -0.05327923 -0.00693753
v -0.01029350 -0.05441714 -0.00693885
v -0.01029230 -0.05556216 -0.00693819
v -0.01028746 -0.05670007 -0.00693455
v -0.01028082 -0.05784510 -0.00692827
v -0.01066424 -0.04985127 -0.00634752
v -0.01065035 -0.05098918 -0.00634752
v -0.01063526 -0.05213420 -0.00634752
v -0.01061895 -0.05327923 -0.00634752
v -0.01060205 -0.05441714 -0.00634752
v -0.01109717 -0.04985127 -0.00520521
v -0.01112615 -0.04870624 -0.00508351
v -0.00529098 -0.03956738 -0.00666104
v -0.00529098 -0.03847925 -0.00667791
v -0.00529098 -0.03728444 -0.00669974
v -0.00529098 -0.03620343 -0.00672752
v -0.00529098 -0.03613942 -0.00674736
v -0.00529098 -0.03500151 -0.00736846
v -0.00529098 -0.03480237 -0.00748950
v -0.00553371 -0.02444025 -0.00725766
v -0.00649919 -0.09405917 -0.00508351
v -0.00529098 -0.07040481 -0.00651817
v -0.00529098 -0.06126595 -0.00653636
v -0.00529098 -0.06012804 -0.00654165
v -0.00529098 -0.04071241 -0.00665311
v -0.01077413 -0.02444025 -0.00622945
v -0.01028686 -0.04985127 -0.00693058
v -0.00969936 -0.05098918 -0.00718226
v -0.00969936 -0.05213420 -0.00718557
v -0.00969936 -0.05327923 -0.00718854
v -0.00969936 -0.05441714 -0.00719053
v -0.00969936 -0.05556216 -0.00718920
v -0.00766755 -0.09439343 -0.00796474
v -0.01027478 -0.05863453 -0.00692231
v -0.01058393 -0.05556216 -0.00634752
v -0.01110804 -0.04985127 -0.00508351
v -0.01056220 -0.05670007 -0.00634752
v -0.01053865 -0.05784510 -0.00634752
v -0.01049457 -0.06012804 -0.00632338
v -0.01106818 -0.05098918 -0.00520521
v -0.01107966 -0.05098918 -0.00508351
v -0.01108268 -0.05086827 -0.00508351
v -0.00529098 -0.03742668 -0.00808943
v -0.00552767 -0.02471762 -0.00726957
v -0.00569613 -0.03196470 -0.00806297
v -0.00570821 -0.02444025 -0.00735655
v -0.00650342 -0.09439343 -0.00508351
v -0.00529098 -0.08769397 -0.00670205
v -0.00529098 -0.08655606 -0.00668386
v -0.00529098 -0.08084516 -0.00659755
v -0.00529098 -0.08068159 -0.00659556
v -0.00529098 -0.07970014 -0.00658399
v -0.00529098 -0.07170630 -0.00652380
v -0.00529098 -0.07154273 -0.00652280
v -0.01017214 -0.02444025 -0.00666237
v -0.01010149 -0.03385648 -0.00684790
v -0.01011598 -0.03500151 -0.00685352
v -0.01027961 -0.04870624 -0.00692496
v -0.00969936 -0.04985127 -0.00717763
v -0.00855696 -0.05098918 -0.00755300
v -0.00855696 -0.05327923 -0.00756226
v -0.00855696 -0.05441714 -0.00756623
v -0.00765669 -0.09324841 -0.00796772
v -0.00709635 -0.09439343 -0.00812746
v -0.00705650 -0.09553135 -0.00811787
v -0.00762770 -0.09553135 -0.00793663
v -0.00844043 -0.09439343 -0.00739359
v -0.01026452 -0.05940262 -0.00691206
v -0.01046559 -0.05900435 -0.00645798
v -0.01047585 -0.06126595 -0.00628601
v -0.01103437 -0.05213420 -0.00520521
v -0.01104645 -0.05213420 -0.00508351
v -0.00529098 -0.03931135 -0.00814003
v -0.00571364 -0.03196470 -0.00806297
v -0.00627337 -0.02444025 -0.00766908
v -0.00529098 -0.04046348 -0.00816979
v -0.00529098 -0.04160851 -0.00819327
v -0.00653723 -0.09515441 -0.00508351
v -0.00529098 -0.09398094 -0.00693025
v -0.00529098 -0.09311328 -0.00687899
v -0.00529098 -0.09218162 -0.00682640
v -0.00529098 -0.09125706 -0.00677448
v -0.00997409 -0.02444025 -0.00680028
v -0.00997832 -0.02471762 -0.00680160
v -0.00999522 -0.02586265 -0.00680689
v -0.00969936 -0.04870624 -0.00716804
v -0.00855696 -0.04985127 -0.00754771
v -0.00855696 -0.04870624 -0.00753944
v -0.00627337 -0.09439343 -0.00830208
v -0.00587848 -0.04071241 -0.00809703
v -0.00627337 -0.09553135 -0.00827727
v -0.00695748 -0.09615008 -0.00809108
v -0.00823332 -0.09632788 -0.00719880
v -0.00839333 -0.09553135 -0.00736548
v -0.00905027 -0.09210339 -0.00665972
v -0.00906838 -0.09096547 -0.00672818
v -0.00908529 -0.08982045 -0.00679003
v -0.00910159 -0.08868253 -0.00684426
v -0.00912816 -0.08696855 -0.00691834
v -0.01024882 -0.06012804 -0.00689420
v -0.01078560 -0.06012804 -0.00520521
v -0.01045230 -0.06241097 -0.00623243
v -0.01079768 -0.06012804 -0.00508351
v -0.00576979 -0.03385648 -0.00807487
v -0.00573659 -0.03271857 -0.00806760
v -0.00741577 -0.02444025 -0.00759665
v -0.00654931 -0.02444025 -0.00765949
v -0.00529098 -0.04275354 -0.00820650
v -0.00529098 -0.09464946 -0.00697622
v -0.00657286 -0.09553135 -0.00508351
v -0.00954116 -0.02444025 -0.00696398
v -0.00942402 -0.02586265 -0.00702517
v -0.00855696 -0.04185743 -0.00747395
v -0.00855696 -0.04527828 -0.00750835
v -0.00855696 -0.04642331 -0.00751926
v -0.00855696 -0.04756833 -0.00752952
v -0.00855696 -0.03613942 -0.00741608
v -0.00855696 -0.03956738 -0.00745080
v -0.00579576 -0.03500151 -0.00808017
v -0.00581327 -0.03613942 -0.00808380
v -0.00582957 -0.03728444 -0.00808744
v -0.00584648 -0.03842947 -0.00809075
v -0.00586278 -0.03956738 -0.00809406
v -0.00529098 -0.09439343 -0.00846182
v -0.00529098 -0.04848577 -0.00823825
v -0.00529098 -0.09553135 -0.00842279
v -0.00627337 -0.09622120 -0.00815458
v -0.00736927 -0.09632077 -0.00754374
v -0.00743449 -0.09708887 -0.00508351
v -0.00831423 -0.09692529 -0.00508351
v -0.00846277 -0.09684706 -0.00508351
v -0.00843137 -0.09643457 -0.00634752
v -0.00909374 -0.09590117 -0.00563250
v -0.00897660 -0.09552423 -0.00627046
v -0.00901162 -0.09439343 -0.00649072
v -0.00903215 -0.09324841 -0.00658200
v -0.01074636 -0.06126595 -0.00520521
v -0.01076266 -0.06114505 -0.00508351
v -0.01042694 -0.06354889 -0.00617026
v -0.00855696 -0.03500151 -0.00740384
v -0.00855696 -0.03385648 -0.00739128
v -0.00855696 -0.03157354 -0.00736614
v -0.00855696 -0.03042852 -0.00735324
v -0.00855696 -0.02700767 -0.00731389
v -0.00855696 -0.02586265 -0.00730033
v -0.00855696 -0.02471762 -0.00728611
v -0.00855696 -0.02444025 -0.00728247
v -0.00741577 -0.02471762 -0.00759930
v -0.00529098 -0.04390567 -0.00821345
v -0.00529098 -0.09537488 -0.00710289
v -0.00665437 -0.09615008 -0.00508351
v -0.00529098 -0.09546734 -0.00712108
v -0.00940289 -0.02444025 -0.00701558
v -0.00940772 -0.02471762 -0.00701756
v -0.00741577 -0.02586265 -0.00760955
v -0.00529098 -0.04619572 -0.00822601
v -0.00529098 -0.09627810 -0.00822006
v -0.00704262 -0.09706042 -0.00508351
v -0.00878037 -0.09646301 -0.00508351
v -0.00917646 -0.09578737 -0.00508351
v -0.00919095 -0.09552423 -0.00523299
v -0.00914325 -0.09514019 -0.00583854
v -0.00916378 -0.09439343 -0.00591957
v -0.01027116 -0.06985008 -0.00577901
v -0.01028626 -0.06925979 -0.00581870
v -0.01031524 -0.06812187 -0.00589477
v -0.01034422 -0.06697685 -0.00596785
v -0.01037260 -0.06583183 -0.00603863
v -0.01040038 -0.06469391 -0.00610576
v -0.01069684 -0.06241097 -0.00520521
v -0.01075843 -0.06126595 -0.00508351
v -0.00875803 -0.02444025 -0.00721930
v -0.00529098 -0.09628522 -0.00765817
v -0.00920363 -0.09552423 -0.00508351
v -0.00921390 -0.09538199 -0.00508351
v -0.00926945 -0.09439343 -0.00520521
v -0.00932198 -0.09324841 -0.00520521
v -0.01070892 -0.06241097 -0.00508351
v -0.00928032 -0.09439343 -0.00508351
v -0.00928636 -0.09426542 -0.00508351
v -0.00933345 -0.09324841 -0.00508351
v -0.00933889 -0.09312751 -0.00508351
f 1 2 6
f 1 6 14
f 1 14 37
f 1 37 63
f 1 63 92
f 1 92 124
f 1 124 123
f 1 123 164
f 1 164 189
f 1 189 170
f 1 170 128
f 1 128 100
f 1 100 72
f 1 72 43
f 1 43 16
f 1 16 8
f 1 8 3
f 1 3 4
f 1 4 5
f 1 5 11
f 1 11 29
f 1 29 53
f 1 53 59
f 1 59 58
f 1 58 89
f 1 89 120
f 1 120 155
f 1 155 188
f 1 188 195
f 1 195 199
f 1 199 198
f 1 198 197
f 1 197 196
f 1 196 192
f 1 192 191
f 1 191 177
f 1 177 176
f 1 176 148
f 1 148 147
f 1 147 146
f 1 146 175
f 1 175 168
f 1 168 127
f 1 127 95
f 1 95 64
f 1 64 38
f 1 38 15
f 1 15 7
f 1 7 2
f 2 7 6
f 3 8 9
f 3 9 4
f 4 9 10
f 4 10 5
f 5 10 11
f 6 12 13
f 6 13 14
f 6 7 15
f 6 15 12
f 8 16 17
f 8 17 18
f 8 18 19
f 8 19 20
f 8 20 21
f 8 21 22
f 8 22 23
f 8 23 24
f 8 24 25
f 8 25 26
f 8 26 10
f 8 10 9
f 10 26 27
f 10 27 28
f 10 28 29
f 10 29 11
f 12 15 30
f 12 30 31
f 12 31 32
f 12 32 33
f 12 33 13
f 13 33 34
f 13 34 35
f 13 35 36
f 13 36 14
f 14 36 37
f 15 38 39
f 15 39 40
f 15 40 41
f 15 41 42
f 15 42 30
f 16 43 44
f 16 44 17
f 17 44 45
f 17 45 46
f 17 46 47
f 17 47 18
f 18 47 48
f 18 48 19
f 19 48 20
f 20 48 49
f 20 49 50
f 20 50 21
f 21 50 22
f 22 51 23
f 22 50 51
f 23 51 24
f 24 51 25
f 25 51 26
f 26 51 27
f 27 51 52
f 27 52 28
f 28 53 29
f 28 52 54
f 28 54 55
f 28 55 56
f 28 56 57
f 28 57 58
f 28 58 59
f 28 59 53
f 30 42 41
f 30 41 40
f 30 40 39
f 30 39 71
f 30 71 70
f 30 70 69
f 30 69 68
f 30 68 67
f 30 67 66
f 30 66 65
f 30 65 99
f 30 99 98
f 30 98 97
f 30 97 96
f 30 96 126
f 30 126 167
f 30 167 169
f 30 169 190
f 30 190 174
f 30 174 143
f 30 143 141
f 30 141 142
f 30 142 173
f 30 173 166
f 30 166 125
f 30 125 94
f 30 94 93
f 30 93 90
f 30 90 60
f 30 60 36
f 30 36 35
f 30 35 34
f 30 34 33
f 30 33 32
f 30 32 31
f 36 60 61
f 36 61 37
f 37 61 60
f 37 60 62
f 37 62 63
f 38 64 65
f 38 65 66
f 38 66 67
f 38 67 68
f 38 68 69
f 38 69 70
f 38 70 71
f 38 71 39
f 43 72 73
f 43 73 74
f 43 74 75
f 43 75 44
f 44 75 76
f 44 76 45
f 45 77 78
f 45 78 79
f 45 79 46
f 45 76 77
f 46 79 80
f 46 80 47
f 47 80 48
f 48 80 50
f 48 50 49
f 50 80 81
f 50 81 82
f 50 82 83
f 50 83 84
f 50 84 85
f 50 85 51
f 51 54 52
f 51 85 54
f 54 85 55
f 55 85 86
f 55 86 56
f 56 86 85
f 56 85 87
f 56 87 57
f 57 88 89
f 57 89 58
f 57 87 88
f 60 90 62
f 62 91 92
f 62 92 63
f 62 90 93
f 62 93 94
f 62 94 91
f 64 95 96
f 64 96 97
f 64 97 98
f 64 98 99
f 64 99 65
f 72 100 101
f 72 101 102
f 72 102 73
f 73 102 103
f 73 103 75
f 73 75 74
f 75 103 76
f 76 104 77
f 76 103 105
f 76 105 104
f 77 104 81
f 77 81 78
f 78 81 80
f 78 80 79
f 81 106 82
f 81 104 107
f 81 107 106
f 82 108 109
f 82 109 83
f 82 106 108
f 83 109 110
f 83 110 111
f 83 111 84
f 84 111 112
f 84 112 113
f 84 113 114
f 84 114 115
f 84 115 116
f 84 116 85
f 85 116 117
f 85 117 87
f 87 118 88
f 87 117 113
f 87 113 119
f 87 119 118
f 88 118 120
f 88 120 89
f 91 121 122
f 91 122 123
f 91 123 124
f 91 124 92
f 91 94 125
f 91 125 121
f 95 126 96
f 95 127 126
f 100 128 129
f 100 129 103
f 100 103 101
f 101 103 102
f 103 130 131
f 103 131 132
f 103 132 133
f 103 133 105
f 103 129 134
f 103 134 135
f 103 135 130
f 104 105 136
f 104 136 137
f 104 137 138
f 104 138 139
f 104 139 140
f 104 140 107
f 105 133 136
f 106 141 108
f 106 107 140
f 106 140 142
f 106 142 141
f 108 143 109
f 108 141 143
f 109 143 144
f 109 144 145
f 109 145 110
f 110 145 146
f 110 146 147
f 110 147 148
f 110 148 149
f 110 149 150
f 110 150 151
f 110 151 111
f 111 151 152
f 111 152 153
f 111 153 112
f 112 153 119
f 112 119 113
f 113 117 114
f 114 117 115
f 115 117 116
f 118 119 154
f 118 154 155
f 118 155 120
f 119 156 154
f 119 153 156
f 121 136 123
f 121 123 122
f 121 125 136
f 123 135 134
f 123 134 157
f 123 157 158
f 123 158 159
f 123 159 160
f 123 160 161
f 123 161 162
f 123 162 163
f 123 163 164
f 123 136 165
f 123 165 131
f 123 131 130
f 123 130 135
f 125 166 136
f 126 127 167
f 127 168 169
f 127 169 167
f 128 170 171
f 128 171 129
f 129 171 159
f 129 159 158
f 129 158 157
f 129 157 134
f 131 165 132
f 132 165 172
f 132 172 133
f 133 172 136
f 136 172 165
f 136 166 137
f 137 166 138
f 138 166 173
f 138 173 139
f 139 173 142
f 139 142 140
f 143 174 144
f 144 174 146
f 144 146 145
f 146 174 175
f 148 176 150
f 148 150 149
f 150 177 178
f 150 178 179
f 150 179 151
f 150 176 177
f 151 179 152
f 152 179 180
f 152 180 181
f 152 181 182
f 152 182 183
f 152 183 184
f 152 184 185
f 152 185 186
f 152 186 153
f 153 186 156
f 154 156 186
f 154 186 185
f 154 185 184
f 154 184 183
f 154 183 182
f 154 182 181
f 154 181 187
f 154 187 195
f 154 195 188
f 154 188 155
f 159 171 160
f 160 171 161
f 161 171 162
f 162 171 189
f 162 189 163
f 163 189 164
f 168 175 190
f 168 190 169
f 170 189 171
f 174 190 175
f 177 191 178
f 178 191 192
f 178 192 193
f 178 193 179
f 179 193 194
f 179 194 187
f 179 187 180
f 180 187 181
f 187 194 195
f 192 196 193
f 193 196 197
f 193 197 198
f 193 198 194
f 194 198 199
f 194 199 195

