# https://github.com/mikedh/trimesh
v 0.00063322 -0.09307864 0.00428096
v 0.00168916 -0.09272038 0.00428096
v 0.00155042 -0.09263991 0.00514297
v 0.00063322 -0.09278055 0.00532068
v -0.00065237 -0.09276796 0.00530573
v -0.00065237 -0.09305344 0.00428096
v 0.00063322 -0.09306325 0.00299377
v 0.00168028 -0.09271408 0.00299377
v 0.00233298 -0.09229285 0.00428096
v 0.00232341 -0.09228725 0.00299377
v 0.00277996 -0.09149657 0.00520276
v 0.00191265 -0.09183313 0.00560137
v 0.00141783 -0.09131114 0.00626407
v 0.00063322 -0.09207174 0.00596345
v -0.00065237 -0.09203115 0.00595016
v -0.00153061 -0.09262382 0.00512470
v -0.00165022 -0.09269589 0.00428096
v -0.00164065 -0.09268889 0.00299377
v -0.00065237 -0.09303805 0.00299377
v 0.00160920 -0.09267000 -0.00086615
v 0.00165704 -0.09269939 0.00170658
v -0.00065237 -0.09300867 0.00170658
v -0.00065237 -0.09297928 0.00042104
v 0.00063322 -0.09288622 -0.00472441
v 0.00148549 -0.09259583 -0.00729713
v 0.00158528 -0.09265530 -0.00215168
v 0.00289137 -0.09164421 0.00299377
v 0.00289205 -0.09164981 0.00428096
v 0.00151078 -0.09261053 -0.00601160
v 0.00230017 -0.09227116 0.00170658
v 0.00282370 -0.09151826 -0.00729713
v 0.00283259 -0.09153365 -0.00601160
v 0.00340123 -0.09055194 0.00428096
v 0.00297748 -0.09055194 0.00543196
v 0.00229061 -0.09055194 0.00607473
v 0.00164747 -0.09055194 0.00633881
v 0.00063322 -0.09055194 0.00650324
v 0.00063322 -0.09142799 0.00631224
v -0.00065237 -0.09138811 0.00629064
v -0.00136795 -0.09125796 0.00623750
v -0.00276084 -0.09145318 0.00516622
v -0.00229335 -0.09222847 0.00428096
v -0.00187849 -0.09178485 0.00557480
v -0.00228378 -0.09222288 0.00299377
v -0.00161809 -0.09267420 0.00170658
v -0.00157162 -0.09264481 -0.00086615
v -0.00147594 -0.09258603 -0.00601160
v -0.00145133 -0.09257134 -0.00729713
v -0.00065237 -0.09280225 -0.00729713
v 0.00063322 -0.09282674 -0.00729713
v 0.00139596 -0.09254685 -0.00858432
v 0.00212863 -0.09216130 -0.00729713
v 0.00215391 -0.09217669 -0.00601160
v 0.00217920 -0.09219209 -0.00472441
v 0.00337525 -0.09055194 -0.00086615
v 0.00339576 -0.09055194 0.00170658
v 0.00340601 -0.09055194 0.00299377
v 0.00332194 -0.09055194 -0.00729713
v 0.00333288 -0.09055194 -0.00601160
v 0.00335475 -0.09055194 -0.00343721
v 0.00276766 -0.09144828 -0.00858432
v 0.00353177 -0.08926585 0.00299377
v 0.00351673 -0.08926585 0.00428096
v 0.00303284 -0.08926585 0.00548677
v 0.00237672 -0.08926585 0.00612954
v 0.00173359 -0.08926585 0.00636538
v 0.00063322 -0.08926585 0.00656469
v -0.00065237 -0.08926585 0.00656137
v -0.00065237 -0.09055194 0.00647500
v -0.00157025 -0.09055194 0.00631058
v -0.00221339 -0.09055194 0.00602490
v -0.00330145 -0.09055194 0.00428096
v -0.00285310 -0.09158473 0.00428096
v -0.00293785 -0.09055194 0.00538214
v -0.00285174 -0.09157914 0.00299377
v -0.00284354 -0.09156304 0.00170658
v -0.00283534 -0.09154694 0.00042104
v -0.00278202 -0.09145388 -0.00729713
v -0.00211907 -0.09211232 -0.00601160
v -0.00209447 -0.09209693 -0.00729713
v -0.00139119 -0.09253635 -0.00836675
v -0.00078017 -0.09265880 -0.00871055
v 0.00063322 -0.09272668 -0.00858432
v 0.00203909 -0.09209133 -0.00858432
v 0.00130506 -0.09249717 -0.00924536
v 0.00354339 -0.08926585 -0.00729713
v 0.00353587 -0.08926585 0.00042104
v 0.00353997 -0.08926585 -0.00343721
v 0.00320644 -0.09055194 -0.00858432
v 0.00266514 -0.09132164 -0.00932840
v 0.00323310 -0.08797907 -0.00729713
v 0.00322011 -0.08797907 -0.00601160
v 0.00319345 -0.08797907 -0.00343721
v 0.00316612 -0.08797907 -0.00086615
v 0.00315176 -0.08797907 0.00042104
v 0.00312169 -0.08797907 0.00299377
v 0.00309572 -0.08797907 0.00428096
v 0.00282029 -0.08797907 0.00524760
v 0.00153265 -0.08832543 0.00629895
v 0.00194478 -0.08792939 0.00592525
v 0.00058128 -0.08792939 0.00635044
v -0.00059769 -0.08792798 0.00635542
v -0.00153198 -0.08832263 0.00630725
v -0.00169328 -0.08926585 0.00636206
v -0.00233641 -0.08926585 0.00608801
v -0.00341491 -0.08926585 0.00428096
v -0.00342516 -0.08926585 0.00299377
v -0.00330487 -0.09055194 0.00299377
v -0.00299390 -0.08926585 0.00544359
v -0.00329462 -0.09055194 0.00170658
v -0.00327343 -0.09055194 -0.00086615
v -0.00325224 -0.09055194 -0.00343721
v -0.00323037 -0.09055194 -0.00601160
v -0.00321876 -0.09055194 -0.00729713
v -0.00279159 -0.09146857 -0.00601160
v -0.00272872 -0.09138391 -0.00858432
v -0.00186756 -0.09211792 -0.00871055
v -0.00129414 -0.09248107 -0.00922377
v -0.00043639 -0.09257274 -0.00933339
v 0.00063322 -0.09256154 -0.00932176
v 0.00063322 -0.09183873 -0.00980674
v 0.00180877 -0.09178555 -0.00948287
v 0.00342310 -0.08926585 -0.00858432
v 0.00311964 -0.08797907 -0.00858432
v 0.00282985 -0.09055194 -0.00947622
v 0.00192017 -0.09055194 -0.00999941
v 0.00269931 -0.08717998 -0.00858432
v 0.00275194 -0.08712190 -0.00729713
v 0.00270068 -0.08718768 -0.00086615
v 0.00266787 -0.08722546 0.00299377
v 0.00274237 -0.08713520 -0.00601160
v 0.00272187 -0.08716179 -0.00343721
v 0.00265216 -0.08724365 0.00428096
v 0.00261525 -0.08728214 0.00500179
v 0.00097563 -0.08746756 0.00616276
v 0.00192017 -0.08704704 0.00526919
v 0.00011789 -0.08730593 0.00622753
v -0.00013226 -0.08730593 0.00622753
v -0.00099000 -0.08746547 0.00615777
v -0.00195231 -0.08792798 0.00587044
v -0.00278066 -0.08797907 0.00518117
v -0.00299321 -0.08797907 0.00428096
v -0.00301508 -0.08797907 0.00299377
v -0.00304516 -0.08797907 0.00042104
v -0.00307386 -0.08797907 -0.00215168
v -0.00310188 -0.08797907 -0.00472441
v -0.00311555 -0.08797907 -0.00601160
v -0.00312854 -0.08797907 -0.00729713
v -0.00342789 -0.08926585 0.00170658
v -0.00343131 -0.08926585 -0.00086615
v -0.00343610 -0.08926585 -0.00472441
v -0.00343883 -0.08926585 -0.00729713
v -0.00310667 -0.09055194 -0.00858432
v -0.00264738 -0.09127965 -0.00929519
v -0.00193932 -0.09157983 -0.00948619
v -0.00078017 -0.09196678 -0.00966224
v -0.00065237 -0.09055194 -0.01027844
v 0.00063322 -0.09055194 -0.01031331
v 0.00293306 -0.08926585 -0.00956093
v 0.00278201 -0.08797907 -0.00942474
v 0.00261593 -0.08727584 -0.00927858
v 0.00192017 -0.08926585 -0.01012895
v 0.00179852 -0.08648446 -0.00848467
v 0.00128866 -0.08604294 -0.00798806
v 0.00179852 -0.08639489 -0.00725893
v 0.00192017 -0.08650475 -0.00601160
v 0.00192017 -0.08669858 0.00299377
v 0.00192017 -0.08673496 0.00428096
v 0.00058128 -0.08687350 0.00566781
v 0.00063322 -0.08620177 0.00428096
v -0.00059769 -0.08688400 0.00566449
v -0.00193932 -0.08709182 0.00521937
v -0.00259339 -0.08732482 0.00494034
v -0.00260911 -0.08730733 0.00428096
v -0.00262483 -0.08728984 0.00299377
v -0.00266857 -0.08723946 -0.00215168
v -0.00267882 -0.08722616 -0.00343721
v -0.00270958 -0.08718628 -0.00729713
v -0.00266105 -0.08724296 -0.00858432
v -0.00302124 -0.08797907 -0.00858432
v -0.00332059 -0.08926585 -0.00858432
v -0.00279091 -0.09055194 -0.00943138
v -0.00193932 -0.09055194 -0.00991968
v -0.00065237 -0.08926585 -0.01039304
v -0.00193932 -0.08926585 -0.01008245
v 0.00063322 -0.08926585 -0.01040300
v 0.00192017 -0.08797907 -0.00988480
v 0.00192017 -0.08702534 -0.00944965
v 0.00096743 -0.08612410 -0.00884675
v 0.00063322 -0.08797907 -0.01021366
v 0.00128866 -0.08604294 -0.00766087
v 0.00057649 -0.08598345 -0.00848467
v 0.00075146 -0.08595057 -0.00725893
v 0.00125927 -0.08605273 -0.00680385
v 0.00121211 -0.08606182 -0.00601160
v 0.00113488 -0.08607652 -0.00472441
v 0.00105560 -0.08609121 -0.00343721
v 0.00052455 -0.08614440 0.00301038
v 0.00002357 -0.08604363 0.00259349
v -0.00003589 -0.08604363 0.00259349
v -0.00065237 -0.08622766 0.00428096
v 0.00097563 -0.08610590 -0.00215168
v 0.00081023 -0.08613600 0.00042104
v 0.00072549 -0.08615069 0.00170658
v -0.00193932 -0.08682452 0.00428096
v -0.00193932 -0.08678884 0.00299377
v -0.00193932 -0.08656702 -0.00729713
v -0.00193932 -0.08667898 -0.00858432
v -0.00259886 -0.08731573 -0.00924536
v -0.00274512 -0.08797907 -0.00938321
v -0.00289206 -0.08926585 -0.00952439
v -0.00065237 -0.08797907 -0.01021698
v -0.00193932 -0.08797907 -0.00984826
v 0.00010969 -0.08602964 -0.00925200
v 0.00057649 -0.08660901 -0.00957089
v -0.00037147 -0.08597156 -0.00858432
v -0.00055395 -0.08593028 -0.00729713
v 0.00056897 -0.08594567 -0.00601160
v 0.00049106 -0.08596036 -0.00472441
v 0.00041246 -0.08597506 -0.00343721
v 0.00016710 -0.08601915 0.00042104
v 0.00025048 -0.08600445 -0.00086615
v 0.00033250 -0.08598975 -0.00215168
v -0.00029218 -0.08598975 -0.00215168
v -0.00022384 -0.08600445 -0.00086615
v -0.00015481 -0.08601915 0.00042104
v -0.00079863 -0.08616259 0.00042104
v -0.00054028 -0.08616608 0.00301038
v -0.00072823 -0.08617728 0.00170658
v -0.00086766 -0.08614789 -0.00086615
v -0.00093532 -0.08613320 -0.00215168
v -0.00100230 -0.08611850 -0.00343721
v -0.00113284 -0.08608841 -0.00601160
v -0.00119708 -0.08607302 -0.00729713
v -0.00101460 -0.08612900 -0.00858432
v -0.00193932 -0.08707083 -0.00942640
v -0.00058334 -0.08662160 -0.00957256
v -0.00010765 -0.08602964 -0.00925200
v -0.00035916 -0.08597506 -0.00343721
f 1 2 3
f 1 3 4
f 1 4 5
f 1 5 6
f 1 6 19
f 1 19 7
f 1 7 8
f 1 8 2
f 2 9 3
f 2 8 10
f 2 10 9
f 3 9 11
f 3 11 12
f 3 12 13
f 3 13 14
f 3 14 4
f 4 14 5
f 5 14 15
f 5 15 16
f 5 16 6
f 6 16 17
f 6 17 18
f 6 18 19
f 7 20 21
f 7 21 8
f 7 19 22
f 7 22 23
f 7 23 49
f 7 49 24
f 7 24 25
f 7 25 26
f 7 26 20
f 8 21 10
f 9 10 27
f 9 27 28
f 9 28 11
f 10 21 20
f 10 20 26
f 10 26 29
f 10 29 30
f 10 30 31
f 10 31 32
f 10 32 27
f 11 28 33
f 11 33 34
f 11 34 35
f 11 35 13
f 11 13 12
f 13 36 37
f 13 37 38
f 13 38 14
f 13 35 36
f 14 38 15
f 15 38 39
f 15 39 40
f 15 40 16
f 16 41 42
f 16 42 17
f 16 40 43
f 16 43 41
f 17 42 44
f 17 44 18
f 18 44 45
f 18 45 19
f 19 45 46
f 19 46 47
f 19 47 48
f 19 48 22
f 22 48 23
f 23 48 49
f 24 49 50
f 24 50 25
f 25 29 26
f 25 50 51
f 25 51 52
f 25 52 53
f 25 53 54
f 25 54 30
f 25 30 29
f 27 55 56
f 27 56 57
f 27 57 28
f 27 32 58
f 27 58 59
f 27 59 60
f 27 60 55
f 28 57 33
f 30 54 31
f 31 54 53
f 31 53 52
f 31 52 61
f 31 61 58
f 31 58 32
f 33 57 62
f 33 62 63
f 33 63 34
f 34 64 65
f 34 65 35
f 34 63 64
f 35 65 36
f 36 66 67
f 36 67 37
f 36 65 66
f 37 67 68
f 37 68 69
f 37 69 38
f 38 69 39
f 39 69 40
f 40 69 70
f 40 70 71
f 40 71 41
f 40 41 43
f 41 72 73
f 41 73 42
f 41 71 74
f 41 74 72
f 42 75 44
f 42 73 75
f 44 46 45
f 44 75 76
f 44 76 77
f 44 77 78
f 44 78 79
f 44 79 48
f 44 48 47
f 44 47 46
f 48 79 80
f 48 80 81
f 48 81 49
f 49 81 82
f 49 82 83
f 49 83 50
f 50 83 51
f 51 84 52
f 51 83 85
f 51 85 84
f 52 84 61
f 55 60 86
f 55 86 56
f 56 86 57
f 57 87 62
f 57 86 88
f 57 88 87
f 58 61 89
f 58 89 86
f 58 86 59
f 59 86 60
f 61 84 90
f 61 90 89
f 62 87 91
f 62 91 92
f 62 92 93
f 62 93 94
f 62 94 95
f 62 95 63
f 63 95 96
f 63 96 97
f 63 97 98
f 63 98 64
f 64 98 65
f 65 99 66
f 65 98 100
f 65 100 99
f 66 99 67
f 67 99 101
f 67 101 102
f 67 102 68
f 68 102 103
f 68 103 104
f 68 104 70
f 68 70 69
f 70 104 105
f 70 105 71
f 71 105 74
f 72 74 106
f 72 106 107
f 72 107 108
f 72 108 73
f 73 108 75
f 74 105 109
f 74 109 106
f 75 108 110
f 75 110 111
f 75 111 112
f 75 112 113
f 75 113 114
f 75 114 76
f 76 114 77
f 77 114 115
f 77 115 78
f 78 115 114
f 78 114 116
f 78 116 80
f 78 80 79
f 80 116 117
f 80 117 81
f 81 117 118
f 81 118 82
f 82 118 119
f 82 119 83
f 83 119 120
f 83 120 85
f 84 85 90
f 85 120 121
f 85 121 122
f 85 122 90
f 86 89 123
f 86 123 124
f 86 124 91
f 86 91 88
f 87 88 91
f 89 90 125
f 89 125 123
f 90 122 126
f 90 126 125
f 91 124 127
f 91 127 128
f 91 128 92
f 92 128 93
f 93 128 94
f 94 128 95
f 95 128 96
f 96 129 130
f 96 130 97
f 96 128 131
f 96 131 132
f 96 132 129
f 97 133 134
f 97 134 98
f 97 130 133
f 98 134 100
f 99 100 135
f 99 135 101
f 100 134 136
f 100 136 135
f 101 135 137
f 101 137 102
f 102 138 139
f 102 139 103
f 102 137 138
f 103 139 140
f 103 140 105
f 103 105 104
f 105 140 141
f 105 141 109
f 106 109 141
f 106 141 142
f 106 142 143
f 106 143 144
f 106 144 145
f 106 145 146
f 106 146 147
f 106 147 148
f 106 148 107
f 107 149 108
f 107 148 149
f 108 149 150
f 108 150 151
f 108 151 152
f 108 152 110
f 110 152 111
f 111 152 112
f 112 152 113
f 113 152 114
f 114 152 153
f 114 153 116
f 116 153 154
f 116 154 117
f 117 154 118
f 118 154 155
f 118 155 156
f 118 156 119
f 119 156 121
f 119 121 120
f 121 156 157
f 121 157 158
f 121 158 126
f 121 126 122
f 123 125 159
f 123 159 160
f 123 160 124
f 124 160 161
f 124 161 127
f 125 126 159
f 126 158 162
f 126 162 159
f 127 163 164
f 127 164 128
f 127 161 163
f 128 164 165
f 128 165 166
f 128 166 131
f 129 132 130
f 130 167 133
f 130 132 131
f 130 131 166
f 130 166 167
f 133 167 168
f 133 168 134
f 134 168 136
f 135 136 169
f 135 169 137
f 136 168 170
f 136 170 169
f 137 169 138
f 138 169 171
f 138 171 139
f 139 171 172
f 139 172 140
f 140 172 173
f 140 173 141
f 141 173 142
f 142 173 174
f 142 174 175
f 142 175 143
f 143 175 176
f 143 176 177
f 143 177 178
f 143 178 144
f 144 178 145
f 145 178 146
f 146 178 147
f 147 178 148
f 148 178 179
f 148 179 180
f 148 180 152
f 148 152 151
f 148 151 150
f 148 150 149
f 152 180 181
f 152 181 153
f 153 181 182
f 153 182 154
f 154 182 183
f 154 183 155
f 155 183 156
f 156 183 157
f 157 184 158
f 157 183 185
f 157 185 184
f 158 184 186
f 158 186 162
f 159 162 160
f 160 162 187
f 160 187 161
f 161 187 188
f 161 188 189
f 161 189 163
f 162 190 187
f 162 186 190
f 163 189 164
f 164 191 165
f 164 189 192
f 164 192 193
f 164 193 191
f 165 191 167
f 165 167 166
f 167 191 168
f 168 191 194
f 168 194 195
f 168 195 196
f 168 196 197
f 168 197 170
f 169 170 171
f 170 198 199
f 170 199 200
f 170 200 201
f 170 201 171
f 170 197 202
f 170 202 203
f 170 203 204
f 170 204 198
f 171 201 172
f 172 201 205
f 172 205 173
f 173 205 174
f 174 205 206
f 174 206 175
f 175 206 207
f 175 207 178
f 175 178 177
f 175 177 176
f 178 207 179
f 179 208 209
f 179 209 180
f 179 207 208
f 180 209 210
f 180 210 181
f 181 210 211
f 181 211 182
f 182 211 185
f 182 185 183
f 184 185 212
f 184 212 186
f 185 211 210
f 185 210 213
f 185 213 212
f 186 212 190
f 187 190 188
f 188 214 189
f 188 190 215
f 188 215 214
f 189 214 192
f 190 212 215
f 191 193 194
f 192 216 217
f 192 217 193
f 192 214 216
f 193 217 218
f 193 218 219
f 193 219 196
f 193 196 195
f 193 195 194
f 196 219 220
f 196 220 197
f 197 220 223
f 197 223 202
f 198 204 203
f 198 203 202
f 198 202 199
f 199 202 221
f 199 221 222
f 199 222 223
f 199 223 220
f 199 220 219
f 199 219 218
f 199 218 217
f 199 217 200
f 200 217 224
f 200 224 225
f 200 225 226
f 200 226 227
f 200 227 228
f 200 228 201
f 201 228 229
f 201 229 227
f 201 227 230
f 201 230 231
f 201 231 232
f 201 232 233
f 201 233 205
f 202 223 222
f 202 222 221
f 205 233 234
f 205 234 206
f 206 234 207
f 207 234 208
f 208 235 209
f 208 234 235
f 209 236 213
f 209 213 210
f 209 235 236
f 212 213 236
f 212 236 237
f 212 237 215
f 214 238 216
f 214 215 238
f 215 237 238
f 216 238 235
f 216 235 234
f 216 234 217
f 217 234 239
f 217 239 224
f 224 231 230
f 224 230 225
f 224 239 232
f 224 232 231
f 225 230 227
f 225 227 226
f 227 229 228
f 232 239 234
f 232 234 233
f 235 238 236
f 236 238 237

