# https://github.com/mikedh/trimesh
v 0.01334993 0.00465592 0.00390510
v 0.01240796 0.00465592 0.00390510
v 0.01335265 0.00336424 0.00389988
v 0.01399557 0.00336424 0.00337633
v 0.01399354 0.00465592 0.00334289
v 0.01317186 0.00593751 0.00381001
v 0.01256224 0.00593751 0.00381001
v 0.01176503 0.00465592 0.00317255
v 0.01175756 0.00336424 0.00324988
v 0.01175416 0.00208265 0.00330527
v 0.01175008 0.00079096 0.00335334
v 0.01174600 -0.00049063 0.00339723
v 0.01174328 -0.00178231 0.00343485
v 0.01173989 -0.00306390 0.00346725
v 0.01173717 -0.00435558 0.00349546
v 0.01173581 -0.00563717 0.00351845
v 0.01173513 -0.00692886 0.00353935
v 0.01173717 -0.00821045 0.00355607
v 0.01174532 -0.00950213 0.00356861
v 0.01176435 -0.01078372 0.00357697
v 0.01240048 0.00336424 0.00389988
v 0.01333294 0.00208265 0.00388838
v 0.01443597 -0.03136991 0.00266155
v 0.01425723 0.00336424 0.00273261
v 0.01491172 -0.03136991 0.00170746
v 0.01419674 0.00554395 0.00255705
v 0.01384878 0.00595770 0.00298968
v 0.01424024 0.00465592 0.00270021
v 0.01295438 0.00664390 0.00368879
v 0.01189076 0.00588706 0.00291862
v 0.01276001 0.00664390 0.00368879
v 0.01152512 0.00465592 0.00252883
v 0.01149862 0.00336424 0.00260616
v 0.01147551 0.00208265 0.00266155
v 0.01145240 0.00079096 0.00270962
v 0.01142861 -0.00049063 0.00275351
v 0.01155027 0.00542286 0.00243896
v 0.01140551 -0.00178231 0.00279113
v 0.01138240 -0.00306390 0.00282352
v 0.01135929 -0.00435558 0.00285174
v 0.01133686 -0.00563717 0.00287577
v 0.01131512 -0.00692886 0.00289667
v 0.01028820 -0.03628436 0.00234177
v 0.01028412 -0.03714212 0.00235118
v 0.01028208 -0.03780814 0.00235327
v 0.01027868 -0.03908973 0.00235745
v 0.00882835 -0.09183679 0.00126228
v 0.01180173 -0.01207540 0.00358115
v 0.00964051 -0.09183679 0.00171164
v 0.01239709 0.00208265 0.00388838
v 0.01330575 0.00079096 0.00387480
v 0.01350012 -0.03136991 0.00315897
v 0.01441695 -0.03266159 0.00263856
v 0.01440335 0.00336424 0.00170746
v 0.01513803 -0.03136991 0.00042105
v 0.01488045 -0.03266159 0.00170746
v 0.01511492 -0.03266159 0.00042105
v 0.01422393 0.00595770 0.00160505
v 0.01408936 0.00640171 0.00196557
v 0.01437005 0.00465592 0.00170746
v 0.01321128 0.00684573 0.00299386
v 0.01292244 0.00790531 0.00000932
v 0.01251398 0.00684573 0.00299386
v 0.01163998 0.00623016 0.00170746
v 0.01279331 0.00790531 0.00000932
v 0.01068374 -0.01593027 0.00170746
v 0.01063889 -0.01722195 0.00170746
v 0.01054985 -0.01979522 0.00170746
v 0.01139939 0.00336424 0.00170746
v 0.01134910 0.00208265 0.00170746
v 0.01124851 -0.00049063 0.00170746
v 0.01119822 -0.00178231 0.00170746
v 0.01114929 -0.00306390 0.00170746
v 0.01110103 -0.00435558 0.00170746
v 0.01105346 -0.00563717 0.00170746
v 0.01095967 -0.00821045 0.00170746
v 0.01027189 -0.02524451 0.00113061
v 0.01050908 -0.02107682 0.00170746
v 0.01046966 -0.02236850 0.00170746
v 0.01039354 -0.02622336 0.00185376
v 0.01152852 0.00558432 0.00170746
v 0.01145580 0.00465592 0.00170746
v 0.01030111 -0.03523487 0.00231251
v 0.00849262 -0.09183679 0.00042105
v 0.00884466 -0.09054511 0.00124765
v 0.00885350 -0.09311839 0.00123407
v 0.01186494 -0.01335699 0.00358220
v 0.01239369 0.00079096 0.00387480
v 0.00964051 -0.09311839 0.00164058
v 0.01092705 -0.09183679 0.00180255
v 0.01092705 -0.09054511 0.00186943
v 0.01092705 -0.08926352 0.00191541
v 0.01092705 -0.08797184 0.00195721
v 0.01092705 -0.08669025 0.00199379
v 0.01092705 -0.08539856 0.00202932
v 0.01092705 -0.08411697 0.00206276
v 0.01092705 -0.08282529 0.00209515
v 0.01092705 -0.08154370 0.00212546
v 0.01092705 -0.08025202 0.00215576
v 0.01092705 -0.07897042 0.00218502
v 0.01092705 -0.07767874 0.00221428
v 0.01072248 -0.07253220 0.00229893
v 0.01060898 -0.07125060 0.00230102
v 0.01327449 -0.00049063 0.00385912
v 0.01350012 -0.03266159 0.00312030
v 0.01324051 -0.00178231 0.00384240
v 0.01317118 -0.00435558 0.00380687
v 0.01287351 -0.01564771 0.00364699
v 0.01159241 -0.07344041 0.00235850
v 0.01439112 -0.03394318 0.00261139
v 0.01444277 0.00336424 0.00042105
v 0.01441151 0.00465592 0.00042105
v 0.01518425 -0.03136991 -0.00086535
v 0.01516250 -0.03266159 -0.00086535
v 0.01436189 -0.03523487 0.00258213
v 0.01433199 -0.03651646 0.00255182
v 0.01430141 -0.03780814 0.00251943
v 0.01483424 -0.03394318 0.00170746
v 0.01502929 -0.03523487 0.00042105
v 0.01507551 -0.03394318 0.00042105
v 0.01512512 -0.03394318 -0.00086535
v 0.01428442 0.00593751 0.00042105
v 0.01414781 0.00659344 0.00110762
v 0.01359595 0.00700719 0.00160505
v 0.01416548 0.00663381 0.00042105
v 0.01416956 0.00664390 -0.00086535
v 0.01292244 0.00790531 -0.00054871
v 0.01228223 0.00709801 0.00170746
v 0.01159444 0.00640171 0.00042105
v 0.01279331 0.00790531 -0.00054871
v 0.01231961 0.00735029 -0.00093327
v 0.01232301 0.00734020 0.00043150
v 0.01136541 0.00336424 0.00042105
v 0.01131104 0.00208265 0.00042105
v 0.01125667 0.00079096 0.00042105
v 0.01120298 -0.00049063 0.00042105
v 0.01114929 -0.00178231 0.00042105
v 0.01109696 -0.00306390 0.00042105
v 0.01099365 -0.00563717 0.00042105
v 0.01094268 -0.00692886 0.00042105
v 0.01079112 -0.01078372 0.00042105
v 0.01059063 -0.01593027 0.00042105
v 0.01054034 -0.01722195 0.00042105
v 0.01028752 -0.02438675 0.00097909
v 0.01025557 -0.02622336 0.00121108
v 0.00992188 -0.03394318 0.00042105
v 0.00987906 -0.03523487 0.00042105
v 0.01043160 -0.02365009 0.00170746
v 0.01012577 -0.03394318 0.00161550
v 0.01010538 -0.03523487 0.00166879
v 0.01151493 0.00576596 0.00042105
v 0.01142590 0.00465592 0.00042105
v 0.00852116 -0.09054511 0.00042105
v 0.00830912 -0.09054511 -0.00086535
v 0.00828601 -0.09183679 -0.00086535
v 0.00854699 -0.09311839 0.00042105
v 0.00892282 -0.09388532 0.00115360
v 0.01197232 -0.01464868 0.00358115
v 0.01238078 -0.00821045 0.00375149
v 0.01238078 -0.00435558 0.00380687
v 0.01238621 -0.00178231 0.00384240
v 0.01238961 -0.00049063 0.00385912
v 0.00964051 -0.09410733 0.00131767
v 0.01092705 -0.09311839 0.00163849
v 0.01184727 -0.09183679 0.00135320
v 0.01191659 -0.09054511 0.00140649
v 0.01284768 -0.06283449 0.00234804
v 0.01148163 -0.07344041 0.00235850
v 0.01136609 -0.07253220 0.00237208
v 0.01125191 -0.07125060 0.00239089
v 0.01092705 -0.07639715 0.00224250
v 0.01092705 -0.07510547 0.00227071
v 0.01118599 -0.06995892 0.00240970
v 0.01244466 -0.01207540 0.00369610
v 0.01350012 -0.03394318 0.00307537
v 0.01295642 -0.05966583 0.00242120
v 0.01299924 -0.05838424 0.00244837
v 0.01304205 -0.05709256 0.00247554
v 0.01308487 -0.05581096 0.00250166
v 0.01274098 -0.01564771 0.00364699
v 0.01221291 -0.03651646 0.00318405
v 0.01288098 -0.06197673 0.00236894
v 0.01444345 0.00336424 -0.00086535
v 0.01441287 0.00465592 -0.00086535
v 0.01428917 0.00593751 -0.00086535
v 0.01514347 -0.03266159 -0.00215070
v 0.01516454 -0.03136991 -0.00215070
v 0.01510813 -0.03394318 -0.00215070
v 0.01312769 -0.05451928 0.00252674
v 0.01423888 -0.04038141 0.00245464
v 0.01498104 -0.03651646 0.00042105
v 0.01420694 -0.04166300 0.00242120
v 0.01417500 -0.04295469 0.00238671
v 0.01415393 -0.04380236 0.00236267
v 0.01478191 -0.03523487 0.00170746
v 0.01414305 -0.05516512 0.00106269
v 0.01508094 -0.03523487 -0.00086535
v 0.01503473 -0.03651646 -0.00086535
v 0.01506599 -0.03523487 -0.00215070
v 0.01415325 0.00660354 -0.00161880
v 0.01360615 0.00703746 -0.00208905
v 0.01326225 0.00689618 -0.00343815
v 0.01300603 0.00667417 -0.00416234
v 0.01159037 0.00642189 -0.00086535
v 0.01226728 0.00713837 -0.00215070
v 0.01271040 0.00667417 -0.00416234
v 0.01246573 0.00689618 -0.00343815
v 0.01136405 0.00336424 -0.00086535
v 0.01130900 0.00208265 -0.00086535
v 0.01120026 -0.00049063 -0.00086535
v 0.01114589 -0.00178231 -0.00086535
v 0.01109220 -0.00306390 -0.00086535
v 0.01098753 -0.00563717 -0.00086535
v 0.01093520 -0.00692886 -0.00086535
v 0.01088355 -0.00821045 -0.00086535
v 0.01047170 -0.01850354 -0.00086535
v 0.01036907 -0.02107682 -0.00086535
v 0.01028820 -0.02311525 -0.00086535
v 0.01027053 -0.02394274 0.00012114
v 0.01044043 -0.01979522 0.00042105
v 0.01039082 -0.02107682 0.00042105
v 0.01034121 -0.02236850 0.00042105
v 0.01029907 -0.02356936 0.00049838
v 0.01025014 -0.02487113 0.00049838
v 0.00996741 -0.03266159 0.00042105
v 0.01023587 -0.02751504 0.00129050
v 0.00986955 -0.03394318 -0.00086535
v 0.00982537 -0.03523487 -0.00086535
v 0.01014819 -0.03266159 0.00155489
v 0.01151425 0.00578614 -0.00086535
v 0.01142454 0.00465592 -0.00086535
v 0.00826222 -0.09054511 -0.00215070
v 0.00824183 -0.09183679 -0.00215070
v 0.00829213 -0.09311839 -0.00215070
v 0.00834106 -0.09311839 -0.00086535
v 0.00880457 -0.09407706 0.00042105
v 0.00969148 -0.09473299 0.00038343
v 0.01240728 -0.01078372 0.00371491
v 0.01238825 -0.00950213 0.00373268
v 0.01015363 -0.09508618 -0.00007010
v 0.01038946 -0.09508618 -0.00007010
v 0.01092705 -0.09407706 0.00129050
v 0.01161755 -0.09383487 0.00111807
v 0.01172289 -0.09311839 0.00123198
v 0.01231757 -0.09183679 0.00042105
v 0.01246097 -0.09054511 0.00042105
v 0.01284156 -0.08193726 0.00101462
v 0.01196824 -0.08926352 0.00144307
v 0.01286603 -0.08107950 0.00107836
v 0.01221291 -0.03523487 0.00321226
v 0.01221291 -0.03136991 0.00328959
v 0.01250787 -0.01335699 0.00367834
v 0.01261525 -0.01464868 0.00366057
v 0.01440879 0.00336424 -0.00215070
v 0.01437549 0.00465592 -0.00215070
v 0.01422937 0.00597788 -0.00208905
v 0.01501638 -0.03266159 -0.00343815
v 0.01498511 -0.03394318 -0.00343815
v 0.01503065 -0.03136991 -0.00343815
v 0.01490424 -0.03651646 -0.00343815
v 0.01492939 -0.03780814 0.00042105
v 0.01415325 -0.05797050 -0.00013280
v 0.01478326 -0.04295469 -0.00086535
v 0.01488521 -0.04038141 -0.00086535
v 0.01493550 -0.03908973 -0.00086535
v 0.01498511 -0.03780814 -0.00086535
v 0.01466977 -0.03780814 0.00170746
v 0.01472686 -0.03651646 0.00170746
v 0.01291700 -0.08539856 0.00002604
v 0.01288438 -0.08669025 -0.00010876
v 0.01286399 -0.08747736 -0.00019132
v 0.01429189 -0.05323769 0.00042105
v 0.01450666 -0.04809114 0.00042105
v 0.01456035 -0.04679946 0.00042105
v 0.01472006 -0.04295469 0.00042105
v 0.01482608 -0.04038141 0.00042105
v 0.01502046 -0.03651646 -0.00215070
v 0.01487705 -0.04038141 -0.00215070
v 0.01492531 -0.03908973 -0.00215070
v 0.01497288 -0.03780814 -0.00215070
v 0.01468336 -0.04295469 -0.00343815
v 0.01477307 -0.04038141 -0.00343815
v 0.01481725 -0.03908973 -0.00343815
v 0.01486074 -0.03780814 -0.00343815
v 0.01410568 0.00644208 -0.00247675
v 0.01389839 0.00597788 -0.00344338
v 0.01322216 0.00593751 -0.00428461
v 0.01162435 0.00627052 -0.00215070
v 0.01152648 0.00562468 -0.00215070
v 0.01251534 0.00593751 -0.00428461
v 0.01184387 0.00589715 -0.00337023
v 0.01139191 0.00336424 -0.00215070
v 0.01145036 0.00465592 -0.00215070
v 0.01122948 -0.00049063 -0.00215070
v 0.01112210 -0.00306390 -0.00215070
v 0.01101608 -0.00563717 -0.00215070
v 0.01080675 -0.01078372 -0.00215070
v 0.01054646 -0.01722195 -0.00215070
v 0.01044247 -0.01979522 -0.00215070
v 0.01039082 -0.02107682 -0.00215070
v 0.01029839 -0.02337763 -0.00215070
v 0.01023654 -0.02494177 -0.00215070
v 0.00993411 -0.03266159 -0.00215070
v 0.01021684 -0.02494177 -0.00086535
v 0.00991712 -0.03266159 -0.00086535
v 0.01019849 -0.02622336 0.00042105
v 0.00988518 -0.03394318 -0.00215070
v 0.00983896 -0.03523487 -0.00215070
v 0.00827581 -0.09054511 -0.00343815
v 0.00825339 -0.09183679 -0.00343815
v 0.00830980 -0.09311839 -0.00343815
v 0.00867068 -0.09432933 -0.00215070
v 0.00869854 -0.09425870 -0.00086535
v 0.00931225 -0.09490454 -0.00086535
v 0.00995586 -0.09513664 -0.00086535
v 0.01054170 -0.09513664 -0.00086535
v 0.01118531 -0.09483390 -0.00086535
v 0.01086180 -0.09467244 0.00038343
v 0.01173173 -0.09400642 0.00042105
v 0.01205999 -0.09311839 0.00042105
v 0.01255204 -0.09183679 -0.00086535
v 0.01270088 -0.09054511 -0.00086535
v 0.01284156 -0.08833512 -0.00044421
v 0.01256428 -0.08926352 0.00042105
v 0.01277632 -0.08411697 0.00079935
v 0.01424432 0.00465592 -0.00319153
v 0.01419946 0.00558432 -0.00301910
v 0.01452772 -0.03266159 -0.00458348
v 0.01431024 -0.04679946 -0.00446330
v 0.01433131 -0.04551787 -0.00448943
v 0.01435238 -0.04422619 -0.00451033
v 0.01437277 -0.04295469 -0.00452600
v 0.01439316 -0.04166300 -0.00453959
v 0.01441423 -0.04038141 -0.00454899
v 0.01445500 -0.03780814 -0.00456571
v 0.01447539 -0.03651646 -0.00457198
v 0.01451345 -0.03394318 -0.00458243
v 0.01418995 -0.05323769 -0.00421773
v 0.01421441 -0.05194601 -0.00428043
v 0.01423820 -0.05066442 -0.00433686
v 0.01426267 -0.04937273 -0.00438597
v 0.01428714 -0.04809114 -0.00442882
v 0.01453180 -0.03136991 -0.00457825
v 0.01406490 0.00336424 -0.00390736
v 0.01426131 0.00336424 -0.00326364
v 0.01414985 -0.05534677 -0.00410278
v 0.01416548 -0.05451928 -0.00414980
v 0.01307672 -0.08411697 -0.00086535
v 0.01318953 -0.08154370 -0.00086535
v 0.01324526 -0.08025202 -0.00086535
v 0.01329963 -0.07897042 -0.00086535
v 0.01413490 -0.05882825 -0.00061768
v 0.01447403 -0.05066442 -0.00086535
v 0.01468064 -0.04551787 -0.00086535
v 0.01414373 -0.05904017 -0.00147459
v 0.01414373 -0.05904017 -0.00155714
v 0.01467724 -0.04551787 -0.00215070
v 0.01472821 -0.04422619 -0.00215070
v 0.01477783 -0.04295469 -0.00215070
v 0.01273758 -0.08539856 0.00066977
v 0.01268865 -0.08793147 0.00031028
v 0.01301691 -0.08539856 -0.00086535
v 0.01459229 -0.04551787 -0.00343815
v 0.01415461 -0.05803104 -0.00293028
v 0.01449646 -0.04809114 -0.00343815
v 0.01454472 -0.04679946 -0.00343815
v 0.01403160 0.00465592 -0.00383525
v 0.01338867 0.00465592 -0.00437866
v 0.01154755 0.00544304 -0.00289579
v 0.01237330 0.00465592 -0.00437866
v 0.01172969 0.00465592 -0.00365133
v 0.01152104 0.00465592 -0.00300761
v 0.01028412 -0.02429593 -0.00279547
v 0.00995858 -0.03523487 -0.00343815
v 0.00838591 -0.09054511 -0.00472455
v 0.00835125 -0.09183679 -0.00472455
v 0.00841514 -0.09311839 -0.00472455
v 0.00874340 -0.09415779 -0.00472455
v 0.00868291 -0.09428897 -0.00343815
v 0.00915661 -0.09497518 -0.00215070
v 0.00980022 -0.09518710 -0.00215070
v 0.01065724 -0.09518710 -0.00215070
v 0.01130016 -0.09489445 -0.00215070
v 0.01184999 -0.09418806 -0.00086535
v 0.01229378 -0.09311839 -0.00086535
v 0.01234815 -0.09311839 -0.00215070
v 0.01259894 -0.09183679 -0.00215070
v 0.01274710 -0.09054511 -0.00215070
v 0.01287011 -0.08878923 -0.00130216
v 0.01280690 -0.08923325 -0.00086953
v 0.01289050 -0.08793147 -0.00086953
v 0.01295302 -0.08669025 -0.00086535
v 0.01269748 -0.08669025 0.00053496
v 0.01391878 -0.04551787 -0.00513315
v 0.01391606 -0.04422619 -0.00515405
v 0.01391062 -0.04295469 -0.00516973
v 0.01390247 -0.04166300 -0.00518227
v 0.01389159 -0.04038141 -0.00519272
v 0.01286535 -0.08246201 -0.00538291
v 0.01288098 -0.08154370 -0.00540799
v 0.01290137 -0.08025202 -0.00543829
v 0.01292108 -0.07897042 -0.00546651
v 0.01294147 -0.07767874 -0.00549159
v 0.01296118 -0.07639715 -0.00551562
v 0.01298157 -0.07510547 -0.00553757
v 0.01300128 -0.07382388 -0.00555847
v 0.01304138 -0.07125060 -0.00559504
v 0.01391198 -0.04937273 -0.00502970
v 0.01391606 -0.04809114 -0.00507150
v 0.01391878 -0.04679946 -0.00510598
v 0.01285108 -0.08331976 -0.00534424
v 0.01374275 -0.03136991 -0.00522198
v 0.01451277 -0.03008832 -0.00455526
v 0.01387800 -0.03908973 -0.00520108
v 0.01386373 -0.03780814 -0.00520839
v 0.01384606 -0.03651646 -0.00521466
v 0.01382635 -0.03523487 -0.00521989
v 0.01380392 -0.03394318 -0.00522511
v 0.01377673 -0.03266159 -0.00522720
v 0.01342197 0.00336424 -0.00440060
v 0.01413422 -0.05620452 -0.00397737
v 0.01293263 -0.08539856 -0.00450824
v 0.01295982 -0.08411697 -0.00463364
v 0.01281506 -0.08539856 -0.00515092
v 0.01283817 -0.08411697 -0.00527632
v 0.01305973 -0.08539856 -0.00215070
v 0.01311817 -0.08411697 -0.00215070
v 0.01322691 -0.08154370 -0.00215070
v 0.01351508 -0.07382388 -0.00086535
v 0.01416072 -0.05839433 -0.00097403
v 0.01426471 -0.05581096 -0.00086535
v 0.01328060 -0.08025202 -0.00215070
v 0.01333294 -0.07897042 -0.00215070
v 0.01348925 -0.07510547 -0.00215070
v 0.01354090 -0.07382388 -0.00215070
v 0.01395548 -0.06353079 -0.00215070
v 0.01436937 -0.05323769 -0.00215070
v 0.01447267 -0.05066442 -0.00215070
v 0.01457530 -0.04809114 -0.00215070
v 0.01417364 -0.05709256 -0.00314033
v 0.01439724 -0.05066442 -0.00343815
v 0.01413762 -0.05888880 -0.00241509
v 0.01324866 -0.08025202 -0.00343815
v 0.01329895 -0.07897042 -0.00343815
v 0.01339954 -0.07639715 -0.00343815
v 0.01349945 -0.07382388 -0.00343815
v 0.01304477 -0.03008832 -0.00541844
v 0.01296186 -0.02879664 -0.00539858
v 0.01289525 -0.02780769 -0.00538082
v 0.01144085 -0.00563717 -0.00424594
v 0.01147075 -0.00435558 -0.00420937
v 0.01150133 -0.00306390 -0.00417070
v 0.01153192 -0.00178231 -0.00413204
v 0.01155503 -0.00080346 -0.00410173
v 0.01157813 0.00005430 -0.00406202
v 0.01263700 -0.02780769 -0.00538082
v 0.01221291 -0.01335699 -0.00492728
v 0.01163318 -0.02962412 -0.00536201
v 0.01155774 -0.03048188 -0.00537455
v 0.01149318 0.00336424 -0.00312465
v 0.01117647 -0.00563717 -0.00343815
v 0.01106501 -0.00821045 -0.00343815
v 0.01100928 -0.00950213 -0.00343815
v 0.01089850 -0.01207540 -0.00343815
v 0.01073335 -0.01593027 -0.00343815
v 0.01062461 -0.01850354 -0.00343815
v 0.01057024 -0.01979522 -0.00343815
v 0.01046354 -0.02236850 -0.00343815
v 0.01038606 -0.02378128 -0.00330962
v 0.01027121 -0.02494177 -0.00287907
v 0.01037451 -0.02494177 -0.00352280
v 0.01035208 -0.02622336 -0.00367537
v 0.01027664 -0.03055252 -0.00409546
v 0.01025693 -0.03136991 -0.00413099
v 0.00885282 -0.08539856 -0.00559922
v 0.00876515 -0.08926352 -0.00574134
v 0.00873728 -0.09054511 -0.00579046
v 0.00871485 -0.09183679 -0.00584271
v 0.01022703 -0.03266159 -0.00418638
v 0.01019849 -0.03394318 -0.00423967
v 0.00874748 -0.09311839 -0.00582286
v 0.00885826 -0.09396606 -0.00563998
v 0.00924768 -0.09493481 -0.00343815
v 0.00989061 -0.09515682 -0.00343815
v 0.01059063 -0.09515682 -0.00343815
v 0.01123356 -0.09486417 -0.00343815
v 0.01186630 -0.09421833 -0.00343815
v 0.01188125 -0.09424861 -0.00215070
v 0.01232369 -0.09311839 -0.00343815
v 0.01258127 -0.09183679 -0.00343815
v 0.01272942 -0.09054511 -0.00343815
v 0.01282865 -0.08954608 -0.00215070
v 0.01287894 -0.08890024 -0.00215070
v 0.01293331 -0.08797184 -0.00215070
v 0.01299652 -0.08669025 -0.00215070
v 0.01307943 -0.06867734 -0.00562535
v 0.01309439 -0.06738565 -0.00563475
v 0.01310662 -0.06610406 -0.00563893
v 0.01311681 -0.06481237 -0.00564102
v 0.01312769 -0.06353079 -0.00564207
v 0.01320924 -0.05581096 -0.00563475
v 0.01322488 -0.05451928 -0.00563162
v 0.01323983 -0.05323769 -0.00562848
v 0.01325342 -0.05194601 -0.00562326
v 0.01209261 -0.08926352 -0.00601096
v 0.01194921 -0.09042402 -0.00613427
v 0.01157066 -0.08991945 -0.00665468
v 0.01306108 -0.06995892 -0.00561176
v 0.01197436 -0.09183679 -0.00596289
v 0.01324798 -0.04038141 -0.00551876
v 0.01323439 -0.03908973 -0.00550622
v 0.01322012 -0.03780814 -0.00549368
v 0.01320313 -0.03651646 -0.00548114
v 0.01316031 -0.03394318 -0.00545710
v 0.01313380 -0.03266159 -0.00544456
v 0.01309914 -0.03136991 -0.00543202
v 0.01326225 -0.05066442 -0.00561490
v 0.01326837 -0.04937273 -0.00560445
v 0.01327313 -0.04809114 -0.00559295
v 0.01327585 -0.04551787 -0.00556892
v 0.01327313 -0.04422619 -0.00555638
v 0.01326701 -0.04295469 -0.00554384
v 0.01325954 -0.04166300 -0.00553130
v 0.01411723 -0.05709256 -0.00378405
v 0.01285720 -0.08862777 -0.00408501
v 0.01290273 -0.08669025 -0.00435567
v 0.01279127 -0.08669025 -0.00499835
v 0.01303526 -0.08539856 -0.00343815
v 0.01291225 -0.08797184 -0.00343815
v 0.01297409 -0.08669025 -0.00343815
v 0.01309167 -0.08411697 -0.00343815
v 0.01319633 -0.08154370 -0.00343815
v 0.01153939 -0.08622605 -0.00665259
v 0.01140211 -0.08539856 -0.00664632
v 0.01075918 -0.08539856 -0.00667767
v 0.01051927 -0.08443990 -0.00666408
v 0.01141162 -0.00692886 -0.00428252
v 0.00928846 -0.09183679 -0.00648539
v 0.01017130 -0.03523487 -0.00428983
v 0.01241680 -0.02879664 -0.00539858
v 0.01221291 -0.01850354 -0.00508195
v 0.01026169 -0.08443990 -0.00666408
v 0.01177387 -0.02879664 -0.00535365
v 0.00932652 -0.09311839 -0.00646658
v 0.01012577 -0.09383487 -0.00669857
v 0.00967449 -0.09416787 -0.00604544
v 0.00965750 -0.09482381 -0.00474441
v 0.01009790 -0.09509627 -0.00432954
v 0.01043364 -0.09509627 -0.00432954
v 0.01088831 -0.09477335 -0.00474441
v 0.01179154 -0.09408715 -0.00472455
v 0.01219320 -0.09311839 -0.00472455
v 0.01246913 -0.09183679 -0.00472455
v 0.01261321 -0.09054511 -0.00472455
v 0.01281914 -0.08942498 -0.00343815
v 0.01286875 -0.08877914 -0.00343815
v 0.01157542 -0.08926352 -0.00665781
v 0.01157813 -0.08797184 -0.00665886
v 0.01153532 -0.09077721 -0.00664527
v 0.01080811 -0.09183679 -0.00677068
v 0.01183163 -0.09311839 -0.00579464
v 0.01145104 -0.09183679 -0.00660556
v 0.01157474 -0.08708381 -0.00665677
v 0.01273690 -0.08913234 -0.00459811
v 0.01276545 -0.08797184 -0.00482278
v 0.01287215 -0.08797184 -0.00418011
v 0.01092705 -0.08926352 -0.00673828
v 0.01092705 -0.08797184 -0.00672051
v 0.00993207 -0.09183679 -0.00677068
v 0.01221291 -0.03136991 -0.00545083
v 0.01212184 -0.03006814 -0.00541217
v 0.01221291 -0.02494177 -0.00527109
v 0.01000343 -0.09054511 -0.00675395
v 0.00997013 -0.09311839 -0.00674873
v 0.01040577 -0.09383487 -0.00669857
v 0.01087200 -0.09413760 -0.00600051
v 0.01168076 -0.09391559 -0.00556369
v 0.01060422 -0.09311839 -0.00674873
v 0.01124783 -0.09311839 -0.00643836
f 1 2 21
f 1 21 3
f 1 3 4
f 1 4 5
f 1 5 6
f 1 6 7
f 1 7 2
f 2 7 8
f 2 8 9
f 2 9 10
f 2 10 11
f 2 11 12
f 2 12 13
f 2 13 14
f 2 14 15
f 2 15 16
f 2 16 17
f 2 17 18
f 2 18 19
f 2 19 20
f 2 20 21
f 3 21 50
f 3 50 22
f 3 22 23
f 3 23 4
f 4 24 5
f 4 23 25
f 4 25 24
f 5 26 27
f 5 27 6
f 5 24 28
f 5 28 26
f 6 27 29
f 6 29 31
f 6 31 7
f 7 30 8
f 7 31 30
f 8 32 33
f 8 33 34
f 8 34 35
f 8 35 36
f 8 36 9
f 8 30 37
f 8 37 32
f 9 36 38
f 9 38 39
f 9 39 40
f 9 40 41
f 9 41 42
f 9 42 43
f 9 43 10
f 10 43 11
f 11 43 12
f 12 43 13
f 13 43 14
f 14 43 15
f 15 43 16
f 16 43 17
f 17 43 44
f 17 44 18
f 18 44 45
f 18 45 46
f 18 46 47
f 18 47 19
f 19 47 20
f 20 48 21
f 20 47 49
f 20 49 48
f 21 48 50
f 22 50 88
f 22 88 51
f 22 51 52
f 22 52 23
f 23 52 53
f 23 53 25
f 24 54 28
f 24 25 55
f 24 55 54
f 25 53 56
f 25 56 57
f 25 57 55
f 26 58 59
f 26 59 27
f 26 28 60
f 26 60 58
f 27 59 61
f 27 61 29
f 28 54 60
f 29 61 62
f 29 62 65
f 29 65 31
f 30 31 63
f 30 63 64
f 30 64 37
f 31 65 63
f 32 66 67
f 32 67 68
f 32 68 33
f 32 37 69
f 32 69 70
f 32 70 71
f 32 71 72
f 32 72 73
f 32 73 74
f 32 74 75
f 32 75 76
f 32 76 77
f 32 77 66
f 33 68 78
f 33 78 79
f 33 79 80
f 33 80 34
f 34 80 35
f 35 80 36
f 36 80 38
f 37 64 81
f 37 81 82
f 37 82 69
f 38 80 83
f 38 83 39
f 39 83 40
f 40 83 41
f 41 83 43
f 41 43 42
f 43 83 84
f 43 84 85
f 43 85 47
f 43 47 44
f 44 47 45
f 45 47 46
f 47 85 84
f 47 84 86
f 47 86 49
f 48 87 88
f 48 88 50
f 48 49 87
f 49 86 89
f 49 89 90
f 49 90 91
f 49 91 92
f 49 92 93
f 49 93 94
f 49 94 95
f 49 95 96
f 49 96 97
f 49 97 98
f 49 98 99
f 49 99 100
f 49 100 101
f 49 101 102
f 49 102 103
f 49 103 87
f 51 88 162
f 51 162 104
f 51 104 52
f 52 105 53
f 52 104 106
f 52 106 107
f 52 107 108
f 52 108 109
f 52 109 105
f 53 105 110
f 53 110 56
f 54 111 112
f 54 112 60
f 54 55 113
f 54 113 111
f 55 57 114
f 55 114 113
f 56 110 115
f 56 115 116
f 56 116 117
f 56 117 118
f 56 118 119
f 56 119 120
f 56 120 57
f 57 120 121
f 57 121 114
f 58 122 123
f 58 123 59
f 58 60 122
f 59 123 124
f 59 124 61
f 60 112 122
f 61 124 62
f 62 124 123
f 62 123 125
f 62 125 126
f 62 126 127
f 62 127 130
f 62 130 65
f 63 65 128
f 63 128 64
f 64 129 81
f 64 128 129
f 65 130 131
f 65 131 132
f 65 132 128
f 66 77 67
f 67 77 68
f 68 77 78
f 69 82 133
f 69 133 134
f 69 134 135
f 69 135 136
f 69 136 137
f 69 137 138
f 69 138 139
f 69 139 140
f 69 140 141
f 69 141 70
f 70 141 71
f 71 141 142
f 71 142 143
f 71 143 72
f 72 143 144
f 72 144 73
f 73 144 74
f 74 144 75
f 75 144 77
f 75 77 76
f 77 145 78
f 77 144 146
f 77 146 147
f 77 147 145
f 78 145 79
f 79 145 148
f 79 148 80
f 80 148 149
f 80 149 150
f 80 150 83
f 81 129 151
f 81 151 152
f 81 152 82
f 82 152 133
f 83 150 84
f 84 153 154
f 84 154 155
f 84 155 156
f 84 156 86
f 84 150 153
f 86 156 157
f 86 157 89
f 87 158 159
f 87 159 160
f 87 160 161
f 87 161 162
f 87 162 88
f 87 103 158
f 89 157 163
f 89 163 164
f 89 164 90
f 90 164 165
f 90 165 166
f 90 166 91
f 91 109 92
f 91 166 167
f 91 167 109
f 92 109 93
f 93 109 94
f 94 109 168
f 94 168 95
f 95 168 96
f 96 168 97
f 97 168 169
f 97 169 98
f 98 169 99
f 99 169 100
f 100 169 170
f 100 170 101
f 101 170 171
f 101 171 102
f 102 171 172
f 102 172 173
f 102 173 174
f 102 174 158
f 102 158 103
f 104 162 161
f 104 161 106
f 105 175 115
f 105 115 110
f 105 109 176
f 105 176 177
f 105 177 178
f 105 178 179
f 105 179 175
f 106 161 160
f 106 160 107
f 107 160 180
f 107 180 108
f 108 180 181
f 108 181 109
f 109 167 182
f 109 182 176
f 109 181 168
f 111 183 184
f 111 184 112
f 111 113 183
f 112 184 185
f 112 185 122
f 113 114 186
f 113 186 187
f 113 187 183
f 114 121 188
f 114 188 186
f 115 175 116
f 116 175 189
f 116 189 179
f 116 179 117
f 117 190 118
f 117 179 190
f 118 191 119
f 118 190 192
f 118 192 193
f 118 193 194
f 118 194 195
f 118 195 196
f 118 196 191
f 119 197 120
f 119 191 198
f 119 198 197
f 120 197 121
f 121 197 199
f 121 199 188
f 122 185 126
f 122 126 125
f 122 125 123
f 126 200 127
f 126 185 200
f 127 201 202
f 127 202 203
f 127 203 206
f 127 206 130
f 127 200 201
f 128 132 129
f 129 132 204
f 129 204 151
f 130 205 131
f 130 206 207
f 130 207 205
f 131 205 204
f 131 204 132
f 133 152 231
f 133 231 208
f 133 208 209
f 133 209 134
f 134 209 210
f 134 210 211
f 134 211 135
f 135 211 212
f 135 212 136
f 136 212 137
f 137 212 138
f 138 212 213
f 138 213 214
f 138 214 215
f 138 215 139
f 139 215 216
f 139 216 217
f 139 217 218
f 139 218 140
f 140 218 141
f 141 218 219
f 141 219 142
f 142 219 143
f 143 219 220
f 143 220 144
f 144 220 221
f 144 221 222
f 144 222 223
f 144 223 224
f 144 224 225
f 144 225 146
f 145 226 148
f 145 147 226
f 146 225 227
f 146 227 228
f 146 228 147
f 147 149 229
f 147 229 226
f 147 228 154
f 147 154 153
f 147 153 149
f 148 226 229
f 148 229 149
f 149 153 150
f 151 204 230
f 151 230 152
f 152 230 231
f 154 232 155
f 154 228 232
f 155 233 234
f 155 234 235
f 155 235 156
f 155 232 233
f 156 235 236
f 156 236 157
f 157 236 237
f 157 237 163
f 158 174 238
f 158 238 239
f 158 239 159
f 159 239 238
f 159 238 160
f 160 238 180
f 163 237 240
f 163 240 241
f 163 241 242
f 163 242 164
f 164 242 243
f 164 243 244
f 164 244 165
f 165 244 245
f 165 245 246
f 165 246 247
f 165 247 166
f 166 248 167
f 166 247 249
f 166 249 248
f 167 248 194
f 167 194 182
f 168 181 250
f 168 250 169
f 169 250 170
f 170 173 172
f 170 172 171
f 170 250 251
f 170 251 173
f 173 251 174
f 174 251 252
f 174 252 238
f 175 179 189
f 176 182 193
f 176 193 192
f 176 192 177
f 177 192 190
f 177 190 178
f 178 190 179
f 180 238 253
f 180 253 250
f 180 250 181
f 182 194 193
f 183 254 184
f 183 187 254
f 184 254 255
f 184 255 185
f 185 256 200
f 185 255 256
f 186 257 187
f 186 188 258
f 186 258 257
f 187 257 259
f 187 259 254
f 188 199 260
f 188 260 258
f 191 261 262
f 191 262 263
f 191 263 264
f 191 264 265
f 191 265 266
f 191 266 198
f 191 196 261
f 194 267 268
f 194 268 195
f 194 248 249
f 194 249 196
f 194 196 267
f 195 268 196
f 196 249 247
f 196 247 269
f 196 269 270
f 196 270 271
f 196 271 262
f 196 262 272
f 196 272 273
f 196 273 274
f 196 274 275
f 196 275 276
f 196 276 261
f 196 268 267
f 197 198 277
f 197 277 199
f 198 266 278
f 198 278 279
f 198 279 280
f 198 280 277
f 199 277 363
f 199 363 281
f 199 281 282
f 199 282 283
f 199 283 284
f 199 284 260
f 200 256 285
f 200 285 201
f 201 285 202
f 202 285 286
f 202 286 203
f 203 286 287
f 203 287 290
f 203 290 206
f 204 205 288
f 204 288 289
f 204 289 230
f 205 207 288
f 206 290 291
f 206 291 207
f 207 291 288
f 208 292 209
f 208 231 293
f 208 293 292
f 209 292 210
f 210 294 211
f 210 292 294
f 211 294 212
f 212 294 295
f 212 295 296
f 212 296 297
f 212 297 213
f 213 297 214
f 214 297 298
f 214 298 299
f 214 299 300
f 214 300 215
f 215 300 301
f 215 301 216
f 216 301 217
f 217 301 218
f 218 301 302
f 218 302 303
f 218 303 304
f 218 304 219
f 219 304 305
f 219 305 227
f 219 227 224
f 219 224 222
f 219 222 221
f 219 221 220
f 222 224 223
f 224 227 306
f 224 306 225
f 225 306 227
f 227 305 307
f 227 307 308
f 227 308 228
f 228 308 309
f 228 309 232
f 230 289 231
f 231 289 293
f 232 309 310
f 232 310 233
f 233 310 234
f 234 310 311
f 234 311 312
f 234 312 235
f 235 312 313
f 235 313 236
f 236 313 314
f 236 314 237
f 237 314 240
f 238 252 253
f 240 314 315
f 240 315 316
f 240 316 241
f 241 316 317
f 241 317 318
f 241 318 242
f 242 318 243
f 243 318 319
f 243 319 320
f 243 320 244
f 244 320 245
f 245 320 321
f 245 321 322
f 245 322 246
f 246 322 323
f 246 323 271
f 246 271 324
f 246 324 247
f 247 324 325
f 247 325 271
f 247 271 270
f 247 270 269
f 250 253 252
f 250 252 251
f 254 326 255
f 254 259 326
f 255 326 327
f 255 327 256
f 256 327 285
f 257 328 259
f 257 258 329
f 257 329 330
f 257 330 331
f 257 331 332
f 257 332 333
f 257 333 334
f 257 334 335
f 257 335 336
f 257 336 337
f 257 337 328
f 258 260 338
f 258 338 339
f 258 339 340
f 258 340 341
f 258 341 342
f 258 342 329
f 259 328 343
f 259 343 344
f 259 344 345
f 259 345 326
f 260 284 346
f 260 346 347
f 260 347 338
f 261 276 262
f 262 274 273
f 262 273 272
f 262 271 348
f 262 348 349
f 262 349 350
f 262 350 351
f 262 351 352
f 262 352 353
f 262 353 354
f 262 354 263
f 262 276 275
f 262 275 274
f 263 354 355
f 263 355 356
f 263 356 264
f 264 356 357
f 264 357 358
f 264 358 359
f 264 359 265
f 265 359 266
f 266 359 278
f 271 325 360
f 271 360 361
f 271 361 324
f 271 323 362
f 271 362 348
f 277 280 363
f 278 359 364
f 278 364 365
f 278 365 366
f 278 366 279
f 279 366 363
f 279 363 280
f 281 363 346
f 281 346 282
f 282 346 283
f 283 346 284
f 285 327 286
f 286 327 367
f 286 367 287
f 287 367 368
f 287 368 370
f 287 370 290
f 288 291 369
f 288 369 289
f 289 369 293
f 290 370 371
f 290 371 291
f 291 371 369
f 292 293 372
f 292 372 294
f 293 369 372
f 294 372 373
f 294 373 295
f 295 373 296
f 296 373 297
f 297 373 298
f 298 373 299
f 299 373 300
f 300 373 301
f 301 373 302
f 302 373 303
f 303 307 305
f 303 305 304
f 303 373 307
f 307 373 308
f 308 373 374
f 308 374 375
f 308 375 309
f 309 375 376
f 309 376 310
f 310 376 311
f 311 376 377
f 311 377 378
f 311 378 379
f 311 379 312
f 312 379 380
f 312 380 313
f 313 380 314
f 314 380 315
f 315 381 382
f 315 382 316
f 315 380 381
f 316 382 383
f 316 383 317
f 317 384 319
f 317 319 318
f 317 383 384
f 319 385 320
f 319 384 385
f 320 385 321
f 321 385 386
f 321 386 387
f 321 387 322
f 322 387 388
f 322 388 389
f 322 389 390
f 322 390 323
f 323 390 389
f 323 389 391
f 323 391 392
f 323 392 362
f 324 361 393
f 324 393 360
f 324 360 325
f 326 367 327
f 326 345 344
f 326 344 367
f 328 337 394
f 328 394 395
f 328 395 396
f 328 396 397
f 328 397 398
f 328 398 343
f 329 342 399
f 329 399 400
f 329 400 401
f 329 401 330
f 330 401 402
f 330 402 403
f 330 403 404
f 330 404 331
f 331 404 405
f 331 405 406
f 331 406 407
f 331 407 408
f 331 408 332
f 332 408 409
f 332 409 333
f 333 409 334
f 334 409 335
f 335 409 410
f 335 410 336
f 336 410 337
f 337 410 394
f 338 347 411
f 338 411 339
f 339 411 340
f 340 411 399
f 340 399 341
f 341 399 342
f 343 412 413
f 343 413 344
f 343 398 414
f 343 414 415
f 343 415 416
f 343 416 417
f 343 417 418
f 343 418 419
f 343 419 412
f 344 420 368
f 344 368 367
f 344 413 412
f 344 412 420
f 346 363 421
f 346 421 422
f 346 422 423
f 346 423 424
f 346 424 425
f 346 425 411
f 346 411 347
f 348 362 426
f 348 426 427
f 348 427 349
f 349 427 350
f 350 427 351
f 351 427 428
f 351 428 429
f 351 429 352
f 352 430 431
f 352 431 353
f 352 429 428
f 352 428 432
f 352 432 430
f 353 431 355
f 353 355 354
f 355 431 430
f 355 430 432
f 355 432 433
f 355 433 356
f 356 433 434
f 356 434 435
f 356 435 436
f 356 436 437
f 356 437 438
f 356 438 439
f 356 439 357
f 357 439 364
f 357 364 358
f 358 364 359
f 360 393 361
f 362 392 389
f 362 389 426
f 363 366 421
f 364 440 441
f 364 441 365
f 364 439 442
f 364 442 443
f 364 443 444
f 364 444 445
f 364 445 446
f 364 446 440
f 365 441 421
f 365 421 366
f 368 420 412
f 368 412 447
f 368 447 448
f 368 448 449
f 368 449 456
f 368 456 370
f 369 371 372
f 370 450 451
f 370 451 452
f 370 452 453
f 370 453 454
f 370 454 455
f 370 455 371
f 370 456 457
f 370 457 458
f 370 458 459
f 370 459 450
f 371 455 372
f 372 455 460
f 372 460 461
f 372 461 462
f 372 462 463
f 372 463 464
f 372 464 465
f 372 465 466
f 372 466 467
f 372 467 373
f 373 467 468
f 373 468 469
f 373 469 470
f 373 470 374
f 374 470 471
f 374 471 472
f 374 472 473
f 374 473 474
f 374 474 375
f 375 475 476
f 375 476 477
f 375 477 478
f 375 478 376
f 375 474 479
f 375 479 480
f 375 480 475
f 376 478 481
f 376 481 377
f 377 481 482
f 377 482 378
f 378 482 483
f 378 483 379
f 379 483 380
f 380 483 484
f 380 484 381
f 381 484 485
f 381 485 382
f 382 485 486
f 382 486 383
f 383 486 487
f 383 487 488
f 383 488 384
f 384 488 385
f 385 488 386
f 386 489 490
f 386 490 387
f 386 488 489
f 387 490 491
f 387 491 388
f 388 491 492
f 388 492 389
f 389 492 493
f 389 493 494
f 389 494 495
f 389 495 426
f 389 392 391
f 394 410 496
f 394 496 497
f 394 497 395
f 395 497 498
f 395 498 396
f 396 498 499
f 396 499 500
f 396 500 501
f 396 501 502
f 396 502 503
f 396 503 397
f 397 503 504
f 397 504 398
f 398 504 414
f 399 411 505
f 399 505 506
f 399 506 507
f 399 507 400
f 400 507 401
f 401 507 402
f 402 507 403
f 403 507 404
f 404 507 405
f 405 507 406
f 406 507 407
f 407 507 508
f 407 508 409
f 407 409 408
f 409 508 496
f 409 496 410
f 411 425 509
f 411 509 506
f 411 506 505
f 412 419 510
f 412 510 511
f 412 511 512
f 412 512 513
f 412 513 514
f 412 514 515
f 412 515 516
f 412 516 447
f 414 504 415
f 415 504 517
f 415 517 416
f 416 517 417
f 417 517 518
f 417 518 418
f 418 518 519
f 418 519 419
f 419 519 520
f 419 520 521
f 419 521 522
f 419 522 523
f 419 523 510
f 421 441 524
f 421 524 446
f 421 446 445
f 421 445 525
f 421 525 526
f 421 526 422
f 422 526 527
f 422 527 424
f 422 424 423
f 424 527 509
f 424 509 425
f 426 528 427
f 426 495 529
f 426 529 530
f 426 530 528
f 427 528 531
f 427 531 428
f 428 531 432
f 432 531 433
f 433 531 532
f 433 532 443
f 433 443 434
f 434 443 442
f 434 442 435
f 435 442 436
f 436 442 437
f 437 442 438
f 438 442 439
f 440 446 441
f 441 446 524
f 443 532 525
f 443 525 444
f 444 525 445
f 447 516 533
f 447 533 534
f 447 534 448
f 448 534 535
f 448 535 449
f 449 535 536
f 449 536 542
f 449 542 456
f 450 459 537
f 450 537 538
f 450 538 478
f 450 478 451
f 451 478 452
f 452 478 453
f 453 478 539
f 453 539 454
f 454 539 480
f 454 480 479
f 454 479 474
f 454 474 473
f 454 473 455
f 455 464 463
f 455 463 462
f 455 462 461
f 455 461 460
f 455 473 472
f 455 472 464
f 456 540 541
f 456 541 457
f 456 542 540
f 457 541 543
f 457 543 458
f 458 543 542
f 458 542 459
f 459 542 538
f 459 538 537
f 464 472 465
f 465 472 466
f 466 472 467
f 467 472 468
f 468 472 471
f 468 471 469
f 469 471 470
f 475 480 476
f 476 480 477
f 477 480 539
f 477 539 478
f 478 538 481
f 481 544 482
f 481 538 544
f 482 544 545
f 482 545 546
f 482 546 547
f 482 547 483
f 483 548 484
f 483 547 548
f 484 548 549
f 484 549 485
f 485 549 486
f 486 550 551
f 486 551 487
f 486 549 550
f 487 551 489
f 487 489 488
f 489 551 552
f 489 552 553
f 489 553 490
f 490 553 491
f 491 553 554
f 491 554 525
f 491 525 555
f 491 555 492
f 492 555 493
f 493 556 494
f 493 555 556
f 494 529 495
f 494 556 529
f 496 508 507
f 496 507 497
f 497 507 498
f 498 507 557
f 498 557 499
f 499 557 500
f 500 557 501
f 501 557 502
f 502 557 503
f 503 557 504
f 504 557 558
f 504 558 517
f 506 509 559
f 506 559 507
f 507 559 560
f 507 560 557
f 509 527 554
f 509 554 553
f 509 553 561
f 509 561 562
f 509 562 559
f 510 523 563
f 510 563 511
f 511 563 512
f 512 563 513
f 513 563 514
f 514 563 515
f 515 563 533
f 515 533 516
f 517 558 563
f 517 563 518
f 518 563 519
f 519 563 520
f 520 563 521
f 521 563 522
f 522 563 523
f 525 532 531
f 525 531 528
f 525 528 530
f 525 530 529
f 525 529 556
f 525 556 555
f 525 554 564
f 525 564 565
f 525 565 566
f 525 566 526
f 526 566 565
f 526 565 527
f 527 565 554
f 533 563 567
f 533 567 568
f 533 568 534
f 534 568 535
f 535 568 536
f 536 568 542
f 538 542 569
f 538 569 544
f 540 570 571
f 540 571 543
f 540 543 572
f 540 572 541
f 540 542 570
f 541 572 543
f 542 568 573
f 542 573 569
f 542 543 571
f 542 571 570
f 544 569 574
f 544 574 545
f 545 574 578
f 545 578 575
f 545 575 549
f 545 549 548
f 545 548 546
f 546 548 547
f 549 575 576
f 549 576 550
f 550 576 577
f 550 577 551
f 551 577 552
f 552 577 561
f 552 561 553
f 554 565 564
f 557 560 558
f 558 560 563
f 559 562 560
f 560 562 578
f 560 578 574
f 560 574 569
f 560 569 567
f 560 567 563
f 561 577 579
f 561 579 562
f 562 579 575
f 562 575 578
f 567 569 573
f 567 573 568
f 575 579 577
f 575 577 576

