# https://github.com/mikedh/trimesh
v 0.00054089 -0.09540850 -0.00752508
v 0.00337881 -0.09611313 -0.00708546
v 0.00054089 -0.09540850 -0.00748989
v 0.00054089 -0.09527870 -0.00853646
v 0.00400713 -0.09605132 -0.00788629
v 0.00400713 -0.09613785 -0.00731546
v 0.00541107 -0.09619348 -0.00684466
v 0.00337881 -0.09611313 -0.00691381
v 0.00054089 -0.09509945 -0.00688201
v 0.00054089 -0.09432683 -0.00909649
v 0.00064863 -0.09432065 -0.00910699
v 0.00058093 -0.09527870 -0.00853770
v 0.00541107 -0.09610695 -0.00806165
v 0.00470457 -0.09608840 -0.00804251
v 0.00511121 -0.09616875 -0.00759300
v 0.00541107 -0.09618112 -0.00758436
v 0.00541107 -0.09618730 -0.00738770
v 0.00541107 -0.09603277 -0.00679495
v 0.00058093 -0.09509327 -0.00686009
v 0.00054089 -0.09508709 -0.00686102
v 0.00054089 -0.09328225 -0.00914928
v 0.00107482 -0.09389416 -0.00921041
v 0.00172316 -0.09445045 -0.00899060
v 0.00172316 -0.09388180 -0.00921010
v 0.00229808 -0.09382617 -0.00920516
v 0.00541107 -0.09603277 -0.00806782
v 0.00541107 -0.09611931 -0.00798971
v 0.00345556 -0.09270123 -0.00921504
v 0.00353803 -0.09210786 -0.00925548
v 0.00541107 -0.09553211 -0.00670481
v 0.00054089 -0.09441336 -0.00677550
v 0.00054089 -0.09325134 -0.00914928
v 0.00108101 -0.09325134 -0.00920979
v 0.00286538 -0.09096438 -0.00932217
v 0.00286538 -0.09210786 -0.00930241
v 0.00275335 -0.09314626 -0.00923202
v 0.00541107 -0.09585352 -0.00807894
v 0.00441472 -0.08754013 -0.00918139
v 0.00362623 -0.09096438 -0.00928512
v 0.00541107 -0.09527251 -0.00668196
v 0.00054089 -0.09438864 -0.00677272
v 0.00054089 -0.07036323 -0.00887575
v 0.00165451 -0.09217585 -0.00924159
v 0.00333352 -0.08204526 -0.00921072
v 0.00345699 -0.08204526 -0.00921072
v 0.00384361 -0.08754013 -0.00925054
v 0.00058093 -0.07040650 -0.00887884
v 0.00541107 -0.09133524 -0.00831387
v 0.00514935 -0.08754013 -0.00861581
v 0.00541107 -0.08865888 -0.00839291
v 0.00377496 -0.08639666 -0.00924128
v 0.00434607 -0.08639666 -0.00916904
v 0.00541107 -0.03956968 -0.00804992
v 0.00541107 -0.04071315 -0.00806443
v 0.00541107 -0.09438864 -0.00661744
v 0.00054089 -0.09325134 -0.00672271
v 0.00054089 -0.06921976 -0.00883438
v 0.00457681 -0.03897630 -0.00806196
v 0.00469408 -0.03897630 -0.00806196
v 0.00489669 -0.03956968 -0.00807647
v 0.00505448 -0.04071315 -0.00810271
v 0.00541107 -0.03952641 -0.00804806
v 0.00541107 -0.09325134 -0.00657545
v 0.00054089 -0.09210786 -0.00668659
v 0.00054089 -0.06808246 -0.00875103
v 0.00457442 -0.03780810 -0.00697216
v 0.00541107 -0.03305494 -0.00672209
v 0.00541107 -0.03424169 -0.00756059
v 0.00054089 -0.06355799 -0.00830276
v 0.00054089 -0.06244542 -0.00816877
v 0.00541107 -0.09210786 -0.00654026
v 0.00054089 -0.09100147 -0.00665572
v 0.00457442 -0.03780810 -0.00691505
v 0.00054089 -0.06206838 -0.00746612
v 0.00541107 -0.03816660 -0.00658996
v 0.00054089 -0.06265557 -0.00685268
v 0.00054089 -0.06337257 -0.00676007
v 0.00054089 -0.06469529 -0.00662608
v 0.00054089 -0.06474474 -0.00662268
v 0.00054089 -0.06583259 -0.00655137
v 0.00054089 -0.06587585 -0.00654859
v 0.00054089 -0.06701934 -0.00650352
v 0.00054089 -0.06815663 -0.00646678
v 0.00054089 -0.06930011 -0.00643158
v 0.00054089 -0.07040650 -0.00640133
v 0.00541107 -0.08754013 -0.00642850
v 0.00054089 -0.08872070 -0.00659644
v 0.00054089 -0.08986417 -0.00662577
v 0.00054089 -0.06208692 -0.00725372
v 0.00541107 -0.03931007 -0.00656156
v 0.00054089 -0.07044359 -0.00640071
v 0.00054089 -0.08754013 -0.00656835
v 0.00541107 -0.08182892 -0.00630964
v 0.00541107 -0.04044737 -0.00654334
v 0.00541107 -0.06101143 -0.00622721
v 0.00541107 -0.05986796 -0.00624234
v 0.00054089 -0.07154380 -0.00638898
v 0.00054089 -0.08643373 -0.00654550
v 0.00541107 -0.08068544 -0.00628710
v 0.00054089 -0.08068544 -0.00643066
v 0.00541107 -0.06215492 -0.00621856
v 0.00054089 -0.07158706 -0.00638867
v 0.00541107 -0.07954196 -0.00627167
v 0.00054089 -0.07954196 -0.00641522
v 0.00541107 -0.06899724 -0.00617565
v 0.00054089 -0.07844175 -0.00641059
v 0.00541107 -0.07040650 -0.00616824
v 0.00541107 -0.07014072 -0.00616886
v 0.00541107 -0.07154380 -0.00617349
f 1 2 8
f 1 8 3
f 1 3 9
f 1 9 20
f 1 20 31
f 1 31 41
f 1 41 56
f 1 56 64
f 1 64 72
f 1 72 88
f 1 88 87
f 1 87 92
f 1 92 98
f 1 98 100
f 1 100 104
f 1 104 106
f 1 106 102
f 1 102 97
f 1 97 91
f 1 91 85
f 1 85 84
f 1 84 83
f 1 83 82
f 1 82 81
f 1 81 80
f 1 80 79
f 1 79 78
f 1 78 77
f 1 77 76
f 1 76 89
f 1 89 74
f 1 74 70
f 1 70 69
f 1 69 65
f 1 65 57
f 1 57 42
f 1 42 32
f 1 32 21
f 1 21 10
f 1 10 4
f 1 4 2
f 2 5 6
f 2 6 7
f 2 7 8
f 2 4 5
f 3 8 9
f 4 10 11
f 4 11 12
f 4 12 13
f 4 13 14
f 4 14 5
f 5 14 6
f 6 15 16
f 6 16 17
f 6 17 7
f 6 14 15
f 7 17 16
f 7 16 27
f 7 27 13
f 7 13 26
f 7 26 37
f 7 37 48
f 7 48 50
f 7 50 54
f 7 54 53
f 7 53 62
f 7 62 68
f 7 68 67
f 7 67 75
f 7 75 90
f 7 90 94
f 7 94 96
f 7 96 95
f 7 95 101
f 7 101 105
f 7 105 108
f 7 108 107
f 7 107 109
f 7 109 103
f 7 103 99
f 7 99 93
f 7 93 86
f 7 86 71
f 7 71 63
f 7 63 55
f 7 55 40
f 7 40 30
f 7 30 18
f 7 18 8
f 8 18 19
f 8 19 20
f 8 20 9
f 10 21 22
f 10 22 11
f 11 23 13
f 11 13 12
f 11 22 24
f 11 24 25
f 11 25 23
f 13 27 14
f 13 23 25
f 13 25 28
f 13 28 29
f 13 29 26
f 14 27 16
f 14 16 15
f 18 30 19
f 19 30 20
f 20 30 31
f 21 32 22
f 22 32 33
f 22 33 34
f 22 34 35
f 22 35 24
f 24 35 25
f 25 35 36
f 25 36 28
f 26 29 38
f 26 38 37
f 28 36 29
f 29 36 35
f 29 35 39
f 29 39 38
f 30 40 41
f 30 41 31
f 32 42 33
f 33 43 34
f 33 42 43
f 34 44 45
f 34 45 46
f 34 46 39
f 34 39 35
f 34 43 42
f 34 42 47
f 34 47 44
f 37 38 48
f 38 49 50
f 38 50 48
f 38 39 46
f 38 46 51
f 38 51 45
f 38 45 52
f 38 52 53
f 38 53 54
f 38 54 49
f 40 55 41
f 41 55 56
f 42 57 58
f 42 58 47
f 44 47 58
f 44 58 59
f 44 59 45
f 45 51 46
f 45 59 60
f 45 60 61
f 45 61 53
f 45 53 52
f 49 54 50
f 53 61 60
f 53 60 59
f 53 59 62
f 55 63 56
f 56 63 64
f 57 65 58
f 58 66 67
f 58 67 68
f 58 68 59
f 58 65 69
f 58 69 70
f 58 70 66
f 59 68 62
f 63 71 64
f 64 71 72
f 66 73 67
f 66 70 74
f 66 74 73
f 67 73 76
f 67 76 77
f 67 77 78
f 67 78 79
f 67 79 80
f 67 80 81
f 67 81 82
f 67 82 83
f 67 83 84
f 67 84 85
f 67 85 75
f 71 86 87
f 71 87 88
f 71 88 72
f 73 74 89
f 73 89 76
f 75 85 90
f 85 91 90
f 86 92 87
f 86 93 92
f 90 91 94
f 91 95 96
f 91 96 94
f 91 97 95
f 92 93 98
f 93 99 100
f 93 100 98
f 95 97 101
f 97 102 101
f 99 103 104
f 99 104 100
f 101 102 105
f 102 106 107
f 102 107 108
f 102 108 105
f 103 109 104
f 104 109 107
f 104 107 106

