# https://github.com/mikedh/trimesh
v -0.01110790 0.10435725 0.00706607
v -0.01016347 0.10892289 0.00695250
v -0.01009845 0.11006835 0.00700464
v -0.01105556 0.10549947 0.00705676
v -0.01171291 0.10435725 0.00706607
v -0.01307391 0.08116886 0.00602999
v -0.01022408 0.10800132 0.00686779
v -0.00991607 0.11006835 0.00621710
v -0.01066654 0.11006835 0.00700464
v -0.00984884 0.11120733 0.00621710
v -0.01009515 0.11120733 0.00696926
v -0.01165285 0.10549947 0.00705676
v -0.01512312 0.08608495 0.00602999
v -0.01516280 0.08494273 0.00602999
v -0.01516996 0.08380051 0.00602999
v -0.01515729 0.08265828 0.00602999
v -0.01512974 0.08146090 0.00602999
v -0.01512202 0.08116886 0.00602999
v -0.01337752 0.08116886 -0.00177740
v -0.01336705 0.08117859 -0.00179788
v -0.01027092 0.10720956 -0.00121048
v -0.00992378 0.11006835 -0.00063612
v -0.00980476 0.11120733 -0.00063612
v -0.00981248 0.11120733 0.00507490
v -0.00971991 0.11235279 0.00507490
v -0.01054532 0.11120733 0.00696926
v -0.00998329 0.11235279 0.00626458
v -0.01017008 0.11197638 0.00687990
v -0.01157461 0.10664169 0.00700184
v -0.01499639 0.08721094 0.00602999
v -0.01514902 0.08722392 0.00507397
v -0.01524931 0.08608495 0.00507397
v -0.01527465 0.08494273 0.00507397
v -0.01527465 0.08380051 0.00507397
v -0.01525757 0.08265828 0.00507397
v -0.01522947 0.08151607 0.00507397
v -0.01522010 0.08116886 0.00507397
v -0.01340562 0.08116886 -0.00179788
v -0.01127045 0.10435725 -0.00244298
v -0.01135145 0.10321502 -0.00239551
v -0.01015245 0.10892289 -0.00167034
v -0.01023069 0.10778391 -0.00140690
v -0.01008302 0.11006835 -0.00169455
v -0.01003178 0.11120733 -0.00160704
v -0.00979925 0.11235279 -0.00063612
v -0.00973258 0.11235279 0.00050794
v -0.01007641 0.11317052 0.00591549
v -0.00976178 0.11349502 0.00279049
v -0.00979319 0.11349502 0.00393176
v -0.00997392 0.11352747 0.00506280
v -0.01040536 0.11197638 0.00687990
v -0.01144016 0.10853349 0.00683056
v -0.01149416 0.10778391 0.00690968
v -0.01152943 0.10891964 0.00625434
v -0.01146937 0.10987041 0.00589780
v -0.01141151 0.11063297 0.00563995
v -0.01522451 0.08722392 0.00393269
v -0.01146716 0.11100290 0.00487755
v -0.01140820 0.11176546 0.00446609
v -0.01396435 0.09636494 0.00279049
v -0.01413681 0.09522272 0.00279049
v -0.01530441 0.08608495 0.00393269
v -0.01532259 0.08494273 0.00393269
v -0.01531708 0.08380051 0.00393269
v -0.01529669 0.08265828 0.00393269
v -0.01526694 0.08151607 0.00393269
v -0.01525702 0.08116886 0.00393269
v -0.01519090 0.08116886 -0.00179788
v -0.01123133 0.10549947 -0.00244391
v -0.01155092 0.10435725 -0.00244298
v -0.01126770 0.10664169 -0.00239923
v -0.01008192 0.11235279 -0.00143483
v -0.01134263 0.10730041 -0.00236293
v -0.01019267 0.11300503 -0.00127099
v -0.01005933 0.11325489 -0.00063612
v -0.00995078 0.11359561 0.00041206
v -0.00976674 0.11349502 0.00164922
v -0.01050565 0.11317052 0.00591549
v -0.01016347 0.11415049 0.00467275
v -0.01002627 0.11431599 0.00279049
v -0.01007145 0.11424785 0.00393176
v -0.01104674 0.11120733 0.00621710
v -0.01132886 0.10929605 0.00666020
v -0.01066654 0.11235279 0.00626458
v -0.01115860 0.11235279 0.00507490
v -0.01511541 0.08836615 0.00278956
v -0.01526694 0.08722392 0.00278956
v -0.01130847 0.11231386 0.00402485
v -0.01143520 0.11191148 0.00370556
v -0.01371088 0.09815615 0.00238462
v -0.01414287 0.09522272 0.00164922
v -0.01512643 0.08836615 0.00164922
v -0.01512368 0.08836615 0.00195176
v -0.01533251 0.08608495 0.00278956
v -0.01534463 0.08494273 0.00278956
v -0.01533582 0.08380051 0.00278956
v -0.01531322 0.08265828 0.00278956
v -0.01528237 0.08151607 0.00278956
v -0.01527245 0.08116886 0.00278956
v -0.01519310 0.08116886 -0.00177740
v -0.01520137 0.08151607 -0.00177740
v -0.01519806 0.08149659 -0.00179788
v -0.01152833 0.10549947 -0.00244391
v -0.01521845 0.08263882 -0.00179788
v -0.01522892 0.08378104 -0.00179788
v -0.01522176 0.08492650 -0.00179788
v -0.01146827 0.10664169 -0.00239923
v -0.01052659 0.11235279 -0.00143483
v -0.01142749 0.10730041 -0.00236293
v -0.01036128 0.11300503 -0.00127099
v -0.01012710 0.11419593 0.00072949
v -0.01003729 0.11429652 0.00164922
v -0.01040096 0.11415049 0.00467275
v -0.01065938 0.11352747 0.00506280
v -0.01059050 0.11431599 0.00279049
v -0.01052108 0.11424785 0.00393176
v -0.01096464 0.11349502 0.00393176
v -0.01527300 0.08722392 0.00195176
v -0.01106107 0.11349502 0.00279049
v -0.01131288 0.11258968 0.00279049
v -0.01145394 0.11201532 0.00279049
v -0.01371088 0.09815615 0.00205415
v -0.01396765 0.09636494 0.00164922
v -0.01519641 0.08722392 -0.00063519
v -0.01525316 0.08722392 0.00050701
v -0.01527465 0.08722392 0.00164922
v -0.01533637 0.08608495 0.00195176
v -0.01534904 0.08494273 0.00164922
v -0.01533802 0.08380051 0.00195176
v -0.01531598 0.08265828 0.00164922
v -0.01528512 0.08151607 0.00164922
v -0.01527465 0.08116886 0.00164922
v -0.01522727 0.08116886 -0.00098241
v -0.01525041 0.08151607 -0.00063519
v -0.01527741 0.08265828 -0.00063519
v -0.01522231 0.08265828 -0.00177740
v -0.01518374 0.08606548 -0.00179788
v -0.01518263 0.08608495 -0.00179788
v -0.01505866 0.08722392 -0.00179788
v -0.01523222 0.08380051 -0.00177740
v -0.01522561 0.08494273 -0.00177740
v -0.01144292 0.10968545 -0.00129333
v -0.01096685 0.11235279 -0.00063612
v -0.01053375 0.11325489 -0.00063612
v -0.01044669 0.11419593 0.00072949
v -0.01056902 0.11429652 0.00164922
v -0.01102966 0.11349502 0.00164922
v -0.01130296 0.11253452 0.00164922
v -0.01144457 0.11196340 0.00164922
v -0.01377700 0.09755908 0.00166318
v -0.01142363 0.11184009 0.00097897
v -0.01506306 0.08722392 -0.00177740
v -0.01518704 0.08608495 -0.00177740
v -0.01528237 0.08608495 -0.00063519
v -0.01147929 0.11121382 0.00056193
v -0.01144457 0.11083741 -0.00026004
v -0.01532314 0.08608495 0.00050701
v -0.01533747 0.08608495 0.00164922
v -0.01533637 0.08494273 0.00050701
v -0.01532700 0.08380051 0.00050701
v -0.01533857 0.08380051 0.00164922
v -0.01530551 0.08265828 0.00050701
v -0.01527630 0.08151607 0.00050701
v -0.01526639 0.08116886 0.00050701
v -0.01527245 0.08116886 0.00130199
v -0.01524104 0.08116886 -0.00063519
v -0.01525922 0.08116886 0.00016072
v -0.01529614 0.08380051 -0.00063519
v -0.01530055 0.08494273 -0.00063519
v -0.01150463 0.11006835 -0.00063892
v -0.01134980 0.11044801 -0.00102151
v -0.01070952 0.11359561 0.00041206
v -0.01126494 0.11121382 -0.00063892
v -0.01135972 0.11159997 0.00021750
v -0.01125723 0.11227167 0.00056193
f 1 2 3
f 1 3 4
f 1 4 12
f 1 12 5
f 1 5 18
f 1 18 6
f 1 6 2
f 2 7 8
f 2 8 3
f 2 6 7
f 3 9 12
f 3 12 4
f 3 8 10
f 3 10 11
f 3 11 26
f 3 26 9
f 5 12 13
f 5 13 14
f 5 14 15
f 5 15 16
f 5 16 17
f 5 17 18
f 6 18 37
f 6 37 67
f 6 67 99
f 6 99 132
f 6 132 165
f 6 165 164
f 6 164 167
f 6 167 166
f 6 166 133
f 6 133 100
f 6 100 68
f 6 68 38
f 6 38 19
f 6 19 20
f 6 20 21
f 6 21 22
f 6 22 8
f 6 8 7
f 8 22 23
f 8 23 24
f 8 24 25
f 8 25 10
f 9 26 12
f 10 25 27
f 10 27 11
f 11 27 28
f 11 28 51
f 11 51 26
f 12 26 29
f 12 29 30
f 12 30 13
f 13 30 31
f 13 31 32
f 13 32 14
f 14 32 33
f 14 33 15
f 15 34 16
f 15 33 34
f 16 34 35
f 16 35 17
f 17 35 36
f 17 36 18
f 18 36 37
f 19 38 20
f 20 38 39
f 20 39 40
f 20 40 41
f 20 41 42
f 20 42 21
f 21 42 23
f 21 23 22
f 23 42 41
f 23 41 43
f 23 43 44
f 23 44 45
f 23 45 46
f 23 46 25
f 23 25 24
f 25 47 27
f 25 46 48
f 25 48 49
f 25 49 50
f 25 50 47
f 26 51 52
f 26 52 53
f 26 53 29
f 27 47 28
f 28 47 78
f 28 78 51
f 29 53 30
f 30 53 52
f 30 52 54
f 30 54 55
f 30 55 56
f 30 56 31
f 31 57 32
f 31 56 58
f 31 58 59
f 31 59 60
f 31 60 61
f 31 61 57
f 32 62 33
f 32 57 62
f 33 63 34
f 33 62 63
f 34 64 35
f 34 63 64
f 35 65 36
f 35 64 65
f 36 65 66
f 36 66 37
f 37 66 67
f 38 68 70
f 38 70 39
f 39 69 43
f 39 43 41
f 39 41 40
f 39 70 103
f 39 103 69
f 43 69 71
f 43 71 44
f 44 72 45
f 44 71 73
f 44 73 72
f 45 72 74
f 45 74 75
f 45 75 76
f 45 76 77
f 45 77 46
f 46 77 48
f 47 50 79
f 47 79 113
f 47 113 78
f 48 80 49
f 48 77 80
f 49 80 81
f 49 81 50
f 50 81 79
f 51 82 83
f 51 83 52
f 51 78 84
f 51 84 82
f 52 83 56
f 52 56 55
f 52 55 54
f 56 83 82
f 56 82 85
f 56 85 59
f 56 59 58
f 57 86 87
f 57 87 62
f 57 61 86
f 59 85 88
f 59 88 89
f 59 89 90
f 59 90 60
f 60 90 61
f 61 90 91
f 61 91 92
f 61 92 93
f 61 93 86
f 62 94 63
f 62 87 94
f 63 94 95
f 63 95 64
f 64 95 96
f 64 96 65
f 65 96 97
f 65 97 66
f 66 97 98
f 66 98 99
f 66 99 67
f 68 100 101
f 68 101 102
f 68 102 70
f 69 103 107
f 69 107 71
f 70 102 104
f 70 104 105
f 70 105 106
f 70 106 103
f 71 107 109
f 71 109 73
f 72 73 109
f 72 109 108
f 72 108 110
f 72 110 74
f 74 110 145
f 74 145 111
f 74 111 75
f 75 111 76
f 76 111 112
f 76 112 77
f 77 112 80
f 78 85 84
f 78 113 114
f 78 114 85
f 79 81 116
f 79 116 113
f 80 115 116
f 80 116 81
f 80 112 146
f 80 146 115
f 82 84 85
f 85 114 117
f 85 117 88
f 86 93 87
f 87 118 94
f 87 93 92
f 87 92 118
f 88 117 119
f 88 119 120
f 88 120 89
f 89 120 121
f 89 121 90
f 90 122 91
f 90 121 122
f 91 122 123
f 91 123 124
f 91 124 125
f 91 125 92
f 92 125 126
f 92 126 118
f 94 127 95
f 94 118 126
f 94 126 127
f 95 128 96
f 95 127 128
f 96 128 129
f 96 129 97
f 97 129 130
f 97 130 131
f 97 131 98
f 98 131 99
f 99 131 132
f 100 133 101
f 101 134 135
f 101 135 136
f 101 136 102
f 101 133 134
f 102 136 104
f 103 106 137
f 103 137 138
f 103 138 139
f 103 139 107
f 104 136 105
f 105 140 141
f 105 141 106
f 105 136 140
f 106 141 137
f 107 139 109
f 108 142 143
f 108 143 110
f 108 109 142
f 109 139 142
f 110 143 144
f 110 144 145
f 111 145 146
f 111 146 112
f 113 117 114
f 113 116 117
f 115 146 147
f 115 147 119
f 115 119 117
f 115 117 116
f 119 147 148
f 119 148 120
f 120 148 149
f 120 149 121
f 121 149 122
f 122 150 123
f 122 149 151
f 122 151 150
f 123 150 151
f 123 151 124
f 124 152 153
f 124 153 154
f 124 154 125
f 124 151 155
f 124 155 156
f 124 156 152
f 125 154 157
f 125 157 126
f 126 157 158
f 126 158 127
f 127 158 128
f 128 158 159
f 128 159 160
f 128 160 161
f 128 161 129
f 129 161 130
f 130 161 162
f 130 162 163
f 130 163 131
f 131 163 164
f 131 164 165
f 131 165 132
f 133 166 134
f 134 163 162
f 134 162 135
f 134 166 167
f 134 167 163
f 135 162 160
f 135 160 168
f 135 168 136
f 136 168 140
f 137 153 138
f 137 141 153
f 138 153 152
f 138 152 139
f 139 152 142
f 140 168 169
f 140 169 141
f 141 169 154
f 141 154 153
f 142 170 156
f 142 156 171
f 142 171 143
f 142 152 170
f 143 147 172
f 143 172 144
f 143 171 173
f 143 173 174
f 143 174 175
f 143 175 147
f 144 172 145
f 145 172 147
f 145 147 146
f 147 175 148
f 148 175 151
f 148 151 149
f 151 175 174
f 151 174 156
f 151 156 155
f 152 156 170
f 154 169 157
f 156 174 173
f 156 173 171
f 157 169 159
f 157 159 158
f 159 169 168
f 159 168 160
f 160 162 161
f 163 167 164

