# https://github.com/mikedh/trimesh
v -0.01517076 0.08379866 0.00603040
v -0.01515748 0.08265674 0.00603040
v -0.01513779 0.08265674 0.00621754
v -0.01515010 0.08379866 0.00621754
v -0.01516289 0.08494057 0.00603040
v -0.01513140 0.08151389 0.00603040
v -0.01511221 0.08151389 0.00621754
v -0.01494295 0.08265674 0.00697338
v -0.01492573 0.08116667 0.00694552
v -0.01493065 0.08151389 0.00695309
v -0.01494787 0.08379866 0.00697792
v -0.01514075 0.08494057 0.00621754
v -0.01512303 0.08608249 0.00603040
v -0.01512992 0.08145726 0.00603040
v -0.01510335 0.08116667 0.00621754
v -0.01445780 0.08265674 0.00754450
v -0.01458819 0.08116667 0.00734312
v -0.01444501 0.08151389 0.00752421
v -0.01445386 0.08379866 0.00754904
v -0.01494000 0.08494057 0.00695854
v -0.01491244 0.08608249 0.00690585
v -0.01509843 0.08608249 0.00621754
v -0.01499658 0.08721141 0.00603040
v -0.01512648 0.08132728 0.00603040
v -0.01512205 0.08116667 0.00603040
v -0.01388654 0.08265674 0.00804325
v -0.01386834 0.08116667 0.00803295
v -0.01387375 0.08151389 0.00803598
v -0.01443959 0.08116667 0.00751664
v -0.01388261 0.08379866 0.00804143
v -0.01385112 0.08494057 0.00802326
v -0.01442237 0.08494057 0.00752966
v -0.01433528 0.08608249 0.00747697
v -0.01487357 0.08681685 0.00684075
v -0.01496411 0.08720863 0.00623268
v -0.01492769 0.08761898 0.00603040
v -0.01307370 0.08116667 0.00603040
v -0.01312635 0.08265674 0.00838907
v -0.01312635 0.08379866 0.00838907
v -0.01334776 0.08116667 0.00826673
v -0.01312635 0.08151389 0.00837211
v -0.01312635 0.08494057 0.00835909
v -0.01376403 0.08608249 0.00797087
v -0.01369809 0.08665531 0.00793120
v -0.01423687 0.08711672 0.00732859
v -0.01400660 0.08836633 0.00705272
v -0.01477566 0.08757813 0.00662362
v -0.01475253 0.08813888 0.00603040
v -0.01021103 0.08116667 0.00787912
v -0.01241388 0.08883703 0.00603040
v -0.01198433 0.08265674 0.00880878
v -0.01198433 0.08379866 0.00881998
v -0.01198433 0.08494057 0.00879787
v -0.01312635 0.08116667 0.00836514
v -0.01198433 0.08608249 0.00871308
v -0.01312635 0.08608249 0.00826521
v -0.01310962 0.08711115 0.00808261
v -0.01347963 0.08741659 0.00781643
v -0.01379306 0.08912018 0.00687436
v -0.01392886 0.09038558 0.00603040
v -0.01014411 0.08116667 0.00850172
v -0.01026663 0.08573156 0.00792636
v -0.01244980 0.08968186 0.00603040
v -0.01124972 0.08265674 0.00903438
v -0.01126349 0.08379866 0.00904316
v -0.01233122 0.08116667 0.00865010
v -0.01198433 0.08151389 0.00878122
v -0.01110260 0.08494057 0.00903316
v -0.01035077 0.08553753 0.00907768
v -0.01198433 0.08722441 0.00849748
v -0.01271796 0.08797084 0.00800903
v -0.01310962 0.08835798 0.00761445
v -0.01312635 0.08926873 0.00705030
v -0.01312635 0.09065110 0.00603040
v -0.01020906 0.08265674 0.00912280
v -0.01020512 0.08151389 0.00912371
v -0.01020414 0.08116667 0.00912371
v -0.01020562 0.08379866 0.00850172
v -0.01024547 0.08494057 0.00909464
v -0.01021939 0.08379866 0.00911583
v -0.01245373 0.08972921 0.00603040
v -0.01119313 0.08799683 0.00765503
v -0.01119313 0.08799683 0.00813046
v -0.01026368 0.08569629 0.00850172
v -0.01023760 0.08494057 0.00850172
v -0.01198433 0.08116667 0.00877244
v -0.01143325 0.08116667 0.00893596
v -0.01117837 0.08116667 0.00901136
v -0.01060712 0.08116667 0.00912371
v -0.01067846 0.08265674 0.00912280
v -0.01069273 0.08379866 0.00911583
v -0.01053184 0.08494057 0.00909464
v -0.01026564 0.08553753 0.00907768
v -0.01198433 0.08807761 0.00813924
v -0.01278881 0.09029738 0.00603040
v -0.01062188 0.08151389 0.00912371
f 1 2 3
f 1 3 4
f 1 4 5
f 1 5 13
f 1 13 23
f 1 23 36
f 1 36 48
f 1 48 60
f 1 60 74
f 1 74 95
f 1 95 81
f 1 81 63
f 1 63 50
f 1 50 37
f 1 37 25
f 1 25 24
f 1 24 14
f 1 14 6
f 1 6 2
f 2 6 7
f 2 7 3
f 3 8 4
f 3 7 9
f 3 9 10
f 3 10 8
f 4 11 12
f 4 12 5
f 4 8 11
f 5 12 13
f 6 14 15
f 6 15 7
f 7 15 9
f 8 16 11
f 8 10 16
f 9 15 25
f 9 25 37
f 9 37 49
f 9 49 61
f 9 61 77
f 9 77 89
f 9 89 88
f 9 88 87
f 9 87 86
f 9 86 66
f 9 66 54
f 9 54 40
f 9 40 27
f 9 27 29
f 9 29 17
f 9 17 10
f 10 17 18
f 10 18 16
f 11 19 20
f 11 20 12
f 11 16 19
f 12 20 21
f 12 21 22
f 12 22 13
f 13 22 23
f 14 24 15
f 15 24 25
f 16 26 19
f 16 18 27
f 16 27 28
f 16 28 26
f 17 29 18
f 18 29 27
f 19 30 31
f 19 31 32
f 19 32 20
f 19 26 30
f 20 32 21
f 21 33 34
f 21 34 22
f 21 32 33
f 22 34 35
f 22 35 23
f 23 35 36
f 26 38 39
f 26 39 30
f 26 28 38
f 27 40 41
f 27 41 28
f 28 41 38
f 30 39 42
f 30 42 31
f 31 42 43
f 31 43 32
f 32 43 33
f 33 43 44
f 33 44 34
f 34 44 45
f 34 45 46
f 34 46 47
f 34 47 35
f 35 47 36
f 36 47 48
f 37 50 49
f 38 51 52
f 38 52 39
f 38 41 51
f 39 52 53
f 39 53 42
f 40 54 41
f 41 54 51
f 42 53 55
f 42 55 56
f 42 56 43
f 43 56 44
f 44 56 57
f 44 57 58
f 44 58 46
f 44 46 45
f 46 59 60
f 46 60 47
f 46 58 59
f 47 60 48
f 49 50 62
f 49 62 61
f 50 63 62
f 51 64 65
f 51 65 52
f 51 54 66
f 51 66 67
f 51 67 64
f 52 65 53
f 53 68 55
f 53 65 68
f 55 68 69
f 55 69 70
f 55 70 57
f 55 57 56
f 57 70 71
f 57 71 58
f 58 71 72
f 58 72 59
f 59 72 71
f 59 71 73
f 59 73 60
f 60 73 74
f 61 75 76
f 61 76 77
f 61 62 78
f 61 78 79
f 61 79 80
f 61 80 75
f 62 63 81
f 62 81 82
f 62 82 83
f 62 83 84
f 62 84 85
f 62 85 78
f 64 67 86
f 64 86 87
f 64 87 88
f 64 88 89
f 64 89 65
f 65 90 91
f 65 91 68
f 65 89 90
f 66 86 67
f 68 92 69
f 68 91 92
f 69 93 70
f 69 92 79
f 69 79 93
f 70 83 94
f 70 94 71
f 70 93 83
f 71 94 73
f 73 94 74
f 74 94 83
f 74 83 95
f 75 90 96
f 75 96 76
f 75 80 91
f 75 91 90
f 76 96 89
f 76 89 77
f 78 85 79
f 79 92 91
f 79 91 80
f 79 85 93
f 81 95 82
f 82 95 83
f 83 93 84
f 84 93 85
f 89 96 90

