# https://github.com/mikedh/trimesh
v -0.01165881 -0.02444329 -0.00005968
v -0.01165664 -0.02444329 0.00050633
v -0.00988262 -0.02444329 -0.00005968
v -0.01141542 -0.04152532 -0.00005968
v -0.01141488 -0.04144755 0.00009481
v -0.01141975 -0.04069809 0.00048805
v -0.01141542 -0.04030922 0.00113000
v -0.01165232 -0.02444329 0.00078257
v -0.00984422 -0.02444329 0.00236478
v -0.00614421 -0.09210679 -0.00005968
v -0.01128074 -0.04870882 -0.00005968
v -0.01140731 -0.04107282 0.00085637
v -0.01124775 -0.04984715 0.00050633
v -0.01120773 -0.04984715 0.00164831
v -0.01141704 -0.03697200 0.00230332
v -0.01161337 -0.02444329 0.00236478
v -0.01162906 -0.02444329 0.00192455
v -0.01163825 -0.02444329 0.00164831
v -0.00616368 -0.09210679 0.00236478
v -0.00613393 -0.09324513 0.00236478
v -0.00614637 -0.09425619 0.00236478
v -0.00614907 -0.09439053 0.00236478
v -0.00615881 -0.09248859 -0.00005968
v -0.01125911 -0.04984715 -0.00005968
v -0.01116716 -0.05327629 0.00050633
v -0.01118285 -0.05099256 0.00164831
v -0.01117744 -0.04913305 0.00236478
v -0.01142029 -0.03659727 0.00236478
v -0.00633729 -0.09563492 0.00236478
v -0.00620370 -0.09324513 -0.00005968
v -0.01116446 -0.05384192 -0.00005968
v -0.01113688 -0.05441462 0.00050633
v -0.01115148 -0.05027845 0.00236478
v -0.01115202 -0.05213089 0.00164831
v -0.00673645 -0.09615812 0.00236478
v -0.00740008 -0.09665305 -0.00005968
v -0.00695928 -0.09589652 -0.00005968
v -0.00692467 -0.09581875 -0.00005968
v -0.00667100 -0.09517534 -0.00005968
v -0.00639949 -0.09439053 -0.00005968
v -0.01113363 -0.05498025 -0.00005968
v -0.01109739 -0.05612565 -0.00005968
v -0.01098868 -0.05955478 -0.00005968
v -0.01110064 -0.05555295 0.00050633
v -0.01111795 -0.05327629 0.00164831
v -0.01111795 -0.05141678 0.00236478
v -0.00738872 -0.09647629 0.00236478
v -0.00856671 -0.09666719 -0.00005968
v -0.01096975 -0.06013455 -0.00005968
v -0.01099030 -0.05898915 0.00050633
v -0.01106386 -0.05670542 0.00050633
v -0.01108063 -0.05441462 0.00164831
v -0.01088159 -0.06013455 0.00164831
v -0.01107792 -0.05256218 0.00236478
v -0.00838390 -0.09639851 0.00236478
v -0.00862405 -0.09642680 0.00153938
v -0.00915733 -0.09616519 0.00050633
v -0.00917680 -0.09620055 -0.00005968
v -0.01095244 -0.06013455 0.00050633
v -0.01095028 -0.06069311 -0.00005968
v -0.01091134 -0.06126582 0.00050633
v -0.01083886 -0.06126582 0.00164831
v -0.01081182 -0.05942045 0.00236478
v -0.00912921 -0.09610156 0.00108634
v -0.00880523 -0.09552886 0.00236478
v -0.00927470 -0.09552886 -0.00005968
v -0.01092865 -0.06126582 -0.00005968
v -0.01090431 -0.06183144 -0.00005968
v -0.01087889 -0.06241121 -0.00005968
v -0.01085996 -0.06241121 0.00050633
v -0.01078532 -0.06241121 0.00164831
v -0.01073502 -0.06126582 0.00236478
v -0.01076639 -0.06055878 0.00236478
v -0.00923576 -0.09552886 0.00050633
v -0.00905024 -0.09552886 0.00183793
v -0.00910487 -0.09460971 0.00208237
v -0.00915355 -0.09552886 0.00126646
v -0.00895992 -0.09446123 0.00236478
v -0.00935421 -0.09439053 -0.00005968
v -0.00946887 -0.09210679 -0.00005968
v -0.01071501 -0.06169004 0.00236478
v -0.00941370 -0.09324513 -0.00005968
v -0.00937259 -0.09324513 0.00050633
v -0.00923954 -0.09324513 0.00164831
v -0.00912975 -0.09384611 0.00222310
v -0.00931418 -0.09439053 0.00050633
v -0.00902698 -0.09398752 0.00236478
v -0.00918113 -0.09429861 0.00168035
v -0.00914543 -0.09324513 0.00225799
v -0.00917410 -0.09210679 0.00232064
v -0.00919357 -0.09125835 0.00236478
v -0.00904646 -0.09370470 0.00236478
v -0.00908864 -0.09305422 0.00236478
v -0.00915138 -0.09202195 0.00236478
f 1 2 8
f 1 8 18
f 1 18 17
f 1 17 16
f 1 16 9
f 1 9 3
f 1 3 10
f 1 10 23
f 1 23 30
f 1 30 40
f 1 40 39
f 1 39 38
f 1 38 37
f 1 37 36
f 1 36 48
f 1 48 58
f 1 58 66
f 1 66 79
f 1 79 82
f 1 82 80
f 1 80 69
f 1 69 68
f 1 68 67
f 1 67 60
f 1 60 49
f 1 49 43
f 1 43 42
f 1 42 41
f 1 41 31
f 1 31 24
f 1 24 11
f 1 11 4
f 1 4 2
f 2 4 5
f 2 5 6
f 2 6 7
f 2 7 8
f 3 9 10
f 4 11 5
f 5 12 7
f 5 7 6
f 5 11 12
f 7 12 13
f 7 13 14
f 7 14 15
f 7 15 16
f 7 16 17
f 7 17 18
f 7 18 8
f 9 16 28
f 9 28 27
f 9 27 33
f 9 33 46
f 9 46 54
f 9 54 63
f 9 63 73
f 9 73 72
f 9 72 81
f 9 81 91
f 9 91 94
f 9 94 93
f 9 93 92
f 9 92 87
f 9 87 78
f 9 78 65
f 9 65 55
f 9 55 47
f 9 47 35
f 9 35 29
f 9 29 22
f 9 22 21
f 9 21 20
f 9 20 19
f 9 19 10
f 10 19 20
f 10 20 21
f 10 21 22
f 10 22 23
f 11 24 13
f 11 13 12
f 13 24 25
f 13 25 26
f 13 26 14
f 14 26 27
f 14 27 15
f 15 28 16
f 15 27 28
f 22 29 30
f 22 30 23
f 24 31 25
f 25 31 32
f 25 32 26
f 26 33 27
f 26 32 34
f 26 34 33
f 29 35 36
f 29 36 37
f 29 37 38
f 29 38 39
f 29 39 40
f 29 40 30
f 31 41 32
f 32 41 42
f 32 42 43
f 32 43 44
f 32 44 45
f 32 45 34
f 33 34 46
f 34 45 46
f 35 47 36
f 36 47 48
f 43 49 50
f 43 50 51
f 43 51 44
f 44 51 45
f 45 51 50
f 45 50 52
f 45 52 46
f 46 52 53
f 46 53 54
f 47 55 48
f 48 55 56
f 48 56 57
f 48 57 58
f 49 59 50
f 49 60 59
f 50 59 52
f 52 59 53
f 53 59 61
f 53 61 62
f 53 62 54
f 54 62 63
f 55 64 56
f 55 65 64
f 56 64 57
f 57 64 66
f 57 66 58
f 59 60 61
f 60 67 61
f 61 67 68
f 61 68 69
f 61 69 70
f 61 70 62
f 62 70 71
f 62 71 72
f 62 72 73
f 62 73 63
f 64 74 66
f 64 65 75
f 64 75 76
f 64 76 77
f 64 77 74
f 65 78 76
f 65 76 75
f 66 74 79
f 69 80 70
f 70 80 71
f 71 81 72
f 71 80 82
f 71 82 83
f 71 83 84
f 71 84 85
f 71 85 81
f 74 77 86
f 74 86 79
f 76 78 87
f 76 87 85
f 76 85 88
f 76 88 77
f 77 88 86
f 79 86 82
f 81 89 90
f 81 90 91
f 81 85 89
f 82 86 83
f 83 86 84
f 84 86 88
f 84 88 85
f 85 87 92
f 85 92 93
f 85 93 89
f 89 93 94
f 89 94 90
f 90 94 91

