# https://github.com/mikedh/trimesh
v -0.00580009 0.10630628 0.01489898
v -0.00708677 0.10630628 0.01462157
v -0.00777725 0.09914031 0.01394359
v -0.00710353 0.09866174 0.01403685
v -0.00668652 0.09776337 0.01399500
v -0.00632189 0.09776337 0.01399500
v -0.00618358 0.09858617 0.01405359
v -0.00479318 0.10501749 0.01434894
v -0.00468526 0.10630628 0.01446851
v -0.00460562 0.10759086 0.01446851
v -0.00580009 0.10759086 0.01488702
v -0.00822990 0.10630628 0.01419110
v -0.00846146 0.09987076 0.01377499
v -0.00708677 0.10759086 0.01458929
v -0.00827286 0.09866174 0.01372955
v -0.00754465 0.09828392 0.01388021
v -0.00974813 0.09078211 0.01159037
v -0.00937931 0.08988794 0.01147080
v -0.00837344 0.09086607 0.01191322
v -0.00837344 0.08964865 0.01158678
v -0.00611548 0.09731838 0.01333017
v -0.00577704 0.09858617 0.01328713
v -0.00755722 0.08979559 0.01154972
v -0.00461505 0.10501749 0.01328713
v -0.00442541 0.10630628 0.01328713
v -0.00426300 0.10759086 0.01328713
v -0.00414250 0.10887545 0.01328713
v -0.00368882 0.11530677 0.01310657
v -0.00362281 0.11659555 0.01305754
v -0.00456686 0.10887545 0.01434655
v -0.00451342 0.11530677 0.01361715
v -0.00451342 0.11659555 0.01342105
v -0.00580009 0.10887545 0.01466103
v -0.00708677 0.10887545 0.01438123
v -0.00887218 0.10630628 0.01383477
v -0.00965907 0.09987076 0.01322016
v -0.00817436 0.10759086 0.01417078
v -0.00965907 0.09858617 0.01314483
v -0.00797424 0.10887545 0.01406675
v -0.01050253 0.09115993 0.01144569
v -0.01023744 0.09029935 0.01133688
v -0.00974813 0.08950592 0.01118262
v -0.00837344 0.08900636 0.01132372
v -0.00626112 0.09630667 0.01293080
v -0.00755093 0.08945134 0.01083825
v -0.00724393 0.09086607 0.01071389
v -0.00599603 0.09729739 0.01200051
v -0.00879675 0.08755386 0.01016983
v -0.00769448 0.08879226 0.01049149
v -0.00871816 0.08829270 0.00268451
v -0.00708048 0.10018141 0.00268451
v -0.00672633 0.10275478 0.00268451
v -0.00656393 0.10394701 0.00268451
v -0.00640885 0.10509306 0.00268451
v -0.00635332 0.10550446 0.00268451
v -0.00603061 0.10789731 0.00268451
v -0.00585982 0.10918610 0.00268451
v -0.00573094 0.11016003 0.00268451
v -0.00569008 0.11047069 0.00268451
v -0.00556225 0.11144882 0.00268451
v -0.00355365 0.12688902 0.00268451
v -0.00354108 0.11659555 0.01200051
v -0.00376950 0.11402218 0.01296188
v -0.00339439 0.12302687 0.00942728
v -0.00358509 0.12302687 0.01041137
v -0.00366786 0.12407637 0.01027745
v -0.00368672 0.11761146 0.01286981
v -0.00580009 0.11659555 0.01320342
v -0.00580009 0.11530677 0.01351671
v -0.00451342 0.12409735 0.01029180
v -0.00580009 0.11752331 0.01281720
v -0.00708677 0.11530677 0.01312211
v -0.00950295 0.10630628 0.01319147
v -0.01039251 0.09987076 0.01273230
v -0.00881665 0.10759086 0.01378814
v -0.01037889 0.09858617 0.01271556
v -0.01032860 0.09785153 0.01266654
v -0.00777411 0.11603722 0.01267491
v -0.00789356 0.11530677 0.01275861
v -0.01129361 0.09215066 0.01118382
v -0.01093736 0.09078211 0.01112284
v -0.01179025 0.08988794 0.01025354
v -0.01102118 0.08950592 0.01054171
v -0.01064189 0.08869571 0.01026669
v -0.00962973 0.08827591 0.01048192
v -0.00918128 0.08755386 0.01016983
v -0.00769448 0.08879226 0.00991873
v -0.00965907 0.08673105 0.00814186
v -0.00862177 0.08731457 0.00942728
v -0.00861338 0.08706689 0.00814186
v -0.00886380 0.08755386 0.00268451
v -0.00343944 0.12817360 0.00268451
v -0.00342478 0.12817360 0.00299540
v -0.00353060 0.12442900 0.00954207
v -0.00366367 0.12530638 0.00919052
v -0.00451342 0.12473965 0.00991634
v -0.00658907 0.11734280 0.01270360
v -0.00704486 0.11651999 0.01282079
v -0.00539355 0.12383288 0.01015907
v -0.00943903 0.10759086 0.01314483
v -0.01091850 0.09987076 0.01200051
v -0.01094993 0.09858617 0.01200051
v -0.01202705 0.09215066 0.01054051
v -0.01014629 0.10630628 0.01235564
v -0.00853690 0.11530677 0.01214878
v -0.00931225 0.10887545 0.01299656
v -0.00744616 0.11689781 0.01250033
v -0.00754360 0.12211591 0.00997015
v -0.00802558 0.12302687 0.00909726
v -0.00832839 0.11646121 0.01194670
v -0.00903878 0.11602882 0.01139188
v -0.01196418 0.09086607 0.01043648
v -0.01260752 0.09086607 0.00966404
v -0.01293862 0.09004326 0.00889637
v -0.01227328 0.08953530 0.00945000
v -0.01150002 0.08902735 0.01000243
v -0.01003836 0.08783512 0.00985416
v -0.01055492 0.08750768 0.00899562
v -0.00962973 0.08729778 0.00942608
v -0.00901364 0.08636163 0.00619161
v -0.00890886 0.08732717 0.00268451
v -0.01096879 0.08733556 0.00812751
v -0.01094574 0.08693675 0.00685525
v -0.00954067 0.08646238 0.00695688
v -0.00903250 0.08636163 0.00659577
v -0.00901364 0.08636163 0.00659577
v -0.00364167 0.12906778 0.00268451
v -0.00362490 0.12908458 0.00299540
v -0.00352222 0.12817360 0.00428202
v -0.00358928 0.12568000 0.00819328
v -0.00451342 0.12540713 0.00927303
v -0.00373806 0.12895864 0.00428202
v -0.00385541 0.12882849 0.00494326
v -0.00451342 0.12604942 0.00851254
v -0.00580009 0.12516785 0.00899084
v -0.00581371 0.12428207 0.00967241
v -0.00625064 0.12349705 0.00999047
v -0.01008237 0.10759086 0.01220498
v -0.01151574 0.09858617 0.01120654
v -0.01267039 0.09215066 0.00969632
v -0.01047738 0.10630628 0.01171234
v -0.01147173 0.09987076 0.01108457
v -0.00911527 0.11530677 0.01150547
v -0.00668547 0.12264065 0.01017701
v -0.00710353 0.12305206 0.00975850
v -0.00781917 0.12378251 0.00887365
v -0.00889105 0.12198577 0.00851852
v -0.00902307 0.12112518 0.00879713
v -0.00888161 0.11688521 0.01116110
v -0.00951238 0.11530677 0.01071389
v -0.00924415 0.11651159 0.01072585
v -0.01299730 0.09086607 0.00902073
v -0.01309369 0.08960248 0.00813708
v -0.01275526 0.08918687 0.00856157
v -0.01333049 0.09086607 0.00814186
v -0.01189818 0.08862434 0.00914509
v -0.01102747 0.08822974 0.00949902
v -0.01141305 0.08776795 0.00854602
v -0.01021754 0.08634484 0.00299540
v -0.01023325 0.08634903 0.00268451
v -0.00961925 0.08666809 0.00268451
v -0.01169595 0.08757065 0.00768868
v -0.01094574 0.08671846 0.00556863
v -0.01187198 0.08745730 0.00685525
v -0.01207106 0.08733136 0.00556863
v -0.01033593 0.08634903 0.00406559
v -0.01022801 0.08634903 0.00406559
v -0.00431539 0.12917272 0.00268451
v -0.00451342 0.12922729 0.00299540
v -0.00587658 0.12587311 0.00812990
v -0.00442645 0.12898382 0.00430354
v -0.00394028 0.12882849 0.00494326
v -0.00523744 0.12756490 0.00625259
v -0.00549938 0.12637267 0.00769346
v -0.00648744 0.12498734 0.00881387
v -0.00698513 0.12425268 0.00906497
v -0.01033593 0.10845565 0.01143134
v -0.01039671 0.10759086 0.01156167
v -0.01300149 0.09215066 0.00905301
v -0.01173891 0.09987076 0.01044127
v -0.01180492 0.09858617 0.01056323
v -0.00734557 0.12464310 0.00843601
v -0.00778459 0.12502092 0.00757867
v -0.00801405 0.12425268 0.00806175
v -0.00867835 0.12300588 0.00811077
v -0.00907965 0.12256509 0.00766117
v -0.00916242 0.12162894 0.00811077
v -0.00943380 0.12045350 0.00814186
v -0.00977537 0.11659555 0.00942728
v -0.01006770 0.11521022 0.00931608
v -0.01015572 0.11402218 0.00961621
v -0.01026888 0.10931204 0.01126991
v -0.01348137 0.08957728 0.00685525
v -0.01296062 0.08881326 0.00770422
v -0.01331792 0.09215066 0.00814186
v -0.01367521 0.09086607 0.00685525
v -0.01222613 0.08829270 0.00812512
v -0.01034327 0.08634484 0.00299540
v -0.01033698 0.08634903 0.00268451
v -0.01251532 0.08799045 0.00685525
v -0.01083677 0.08657153 0.00440876
v -0.01232777 0.08733976 0.00418277
v -0.01271440 0.08779734 0.00556863
v -0.01282022 0.08769659 0.00454508
v -0.01098661 0.08660091 0.00299540
v -0.00452809 0.12918533 0.00268451
v -0.00539355 0.12894604 0.00268451
v -0.00541661 0.12895864 0.00299540
v -0.00531707 0.12890406 0.00388862
v -0.00635751 0.12620895 0.00745072
v -0.00479842 0.12874453 0.00474596
v -0.00609452 0.12738439 0.00598475
v -0.00571941 0.12783777 0.00556146
v -0.00698513 0.12524760 0.00806175
v -0.01071837 0.10759086 0.01071389
v -0.01050567 0.10887964 0.01079042
v -0.01087868 0.10630628 0.01071389
v -0.01293338 0.09343944 0.00891431
v -0.01165614 0.10115954 0.01024158
v -0.01208887 0.09987076 0.00942728
v -0.01222718 0.09858617 0.00942728
v -0.00678605 0.12652379 0.00659338
v -0.00658698 0.12765725 0.00512740
v -0.00764419 0.12615437 0.00599431
v -0.00794280 0.12526020 0.00685525
v -0.00861338 0.12420651 0.00676437
v -0.00891619 0.12342148 0.00713266
v -0.00916452 0.12300588 0.00676437
v -0.00952495 0.12174228 0.00685525
v -0.00981938 0.12045350 0.00685525
v -0.00971565 0.11916892 0.00814186
v -0.00995873 0.11788014 0.00814186
v -0.01031079 0.11471905 0.00881387
v -0.01036318 0.11402218 0.00897290
v -0.01045643 0.11273340 0.00925868
v -0.01029612 0.11204912 0.01005146
v -0.01373284 0.08957728 0.00556863
v -0.01308741 0.08863274 0.00685525
v -0.01318275 0.09343944 0.00814186
v -0.01349814 0.09343944 0.00685525
v -0.01363016 0.09215066 0.00685525
v -0.01389105 0.09086607 0.00556863
v -0.01076343 0.08651695 0.00268451
v -0.01223242 0.08723061 0.00299540
v -0.01288099 0.08764201 0.00368654
v -0.01322467 0.08843963 0.00556863
v -0.01322467 0.08819195 0.00418277
v -0.01129884 0.08676464 0.00268451
v -0.01094993 0.08659252 0.00268451
v -0.00605994 0.12857241 0.00299540
v -0.00599708 0.12856822 0.00268451
v -0.00674100 0.12781678 0.00428202
v -0.00576761 0.12848845 0.00430354
v -0.01094574 0.10887545 0.00942728
v -0.01112491 0.10759086 0.00942728
v -0.01128837 0.10630628 0.00942728
v -0.01169595 0.10373291 0.00913193
v -0.01163204 0.10471524 0.00892985
v -0.01242940 0.09987076 0.00814186
v -0.01258238 0.09858617 0.00814186
v -0.00778773 0.12633489 0.00513577
v -0.00807902 0.12567581 0.00556624
v -0.00903145 0.12370275 0.00627531
v -0.00938874 0.12302687 0.00556863
v -0.00977851 0.12174228 0.00556863
v -0.01005932 0.12045350 0.00556863
v -0.01030555 0.11854762 0.00623107
v -0.01011171 0.11905138 0.00673806
v -0.01022592 0.11788014 0.00712668
v -0.01028459 0.11711610 0.00741246
v -0.01039880 0.11521022 0.00812273
v -0.01056645 0.11402218 0.00814186
v -0.01074771 0.11273340 0.00814186
v -0.01092374 0.11144882 0.00814186
v -0.01157755 0.10557163 0.00873136
v -0.01388581 0.08957728 0.00428202
v -0.01290719 0.09691537 0.00762291
v -0.01370350 0.09343944 0.00556863
v -0.01285480 0.09777176 0.00739213
v -0.01334202 0.09472403 0.00685525
v -0.01354843 0.09472403 0.00556863
v -0.01383552 0.09215066 0.00556863
v -0.01402831 0.09086607 0.00428202
v -0.01226071 0.08725160 0.00268451
v -0.01289042 0.08763782 0.00299540
v -0.01243778 0.08735655 0.00268451
v -0.01336088 0.08829270 0.00299540
v -0.00681958 0.12791333 0.00268451
v -0.00683006 0.12792593 0.00299540
v -0.00738434 0.12705694 0.00428202
v -0.01227014 0.10115954 0.00814186
v -0.00782964 0.12641465 0.00428202
v -0.00827705 0.12560024 0.00428202
v -0.00876426 0.12445839 0.00556863
v -0.00908698 0.12381610 0.00556863
v -0.00952181 0.12302687 0.00428202
v -0.00992206 0.12174228 0.00428202
v -0.01020706 0.12039053 0.00431908
v -0.01029088 0.11974404 0.00477346
v -0.01024163 0.11945439 0.00556863
v -0.01048472 0.11788014 0.00556863
v -0.01066494 0.11659555 0.00556863
v -0.01082106 0.11402218 0.00685525
v -0.01064713 0.11530677 0.00685525
v -0.01035584 0.11788014 0.00648337
v -0.01034641 0.11881209 0.00556863
v -0.01044595 0.11665012 0.00693297
v -0.01126951 0.10887545 0.00814186
v -0.01153040 0.10630628 0.00850776
v -0.01161318 0.10712908 0.00761215
v -0.01194009 0.10373291 0.00814186
v -0.01210564 0.10244413 0.00814186
v -0.01395811 0.08957728 0.00299540
v -0.01383657 0.09343944 0.00428202
v -0.01300358 0.09732678 0.00691982
v -0.01318275 0.09601281 0.00685525
v -0.01287994 0.09926625 0.00623824
v -0.01338707 0.09601281 0.00556863
v -0.01367835 0.09472403 0.00428202
v -0.01396859 0.09215066 0.00428202
v -0.01403879 0.09215066 0.00299540
v -0.01409642 0.09086607 0.00299540
v -0.01321314 0.08808700 0.00268451
v -0.01289042 0.08763782 0.00268451
v -0.01333783 0.08826332 0.00268451
v -0.01395811 0.08957728 0.00268451
v -0.00697570 0.12772443 0.00268451
v -0.00747340 0.12710312 0.00299540
v -0.00784536 0.12646083 0.00299540
v -0.00882818 0.12460532 0.00299540
v -0.00881875 0.12457593 0.00428202
v -0.00914775 0.12393364 0.00428202
v -0.00956372 0.12302687 0.00299540
v -0.00997445 0.12174228 0.00299540
v -0.01021858 0.12063822 0.00299540
v -0.01032127 0.11991616 0.00391492
v -0.01039775 0.11925288 0.00431908
v -0.01059998 0.11788014 0.00428202
v -0.01162261 0.10848923 0.00643315
v -0.01077391 0.11659555 0.00428202
v -0.01161632 0.10972764 0.00516088
v -0.01287261 0.10049206 0.00487749
v -0.01083573 0.11530677 0.00556863
v -0.01116473 0.11144882 0.00685525
v -0.01155660 0.10798547 0.00729049
v -0.01145496 0.10757407 0.00808088
v -0.01166662 0.10630628 0.00786445
v -0.01292605 0.09858617 0.00647261
v -0.01409747 0.09086607 0.00268451
v -0.01390782 0.09343944 0.00299540
v -0.01375065 0.09472403 0.00299540
v -0.01322047 0.09729739 0.00556863
v -0.01351176 0.09601281 0.00428202
v -0.01391096 0.09343944 0.00268451
v -0.01404089 0.09215066 0.00268451
v -0.00746292 0.12709892 0.00268451
v -0.00784641 0.12645663 0.00268451
v -0.00795957 0.12625093 0.00268451
v -0.00883027 0.12460952 0.00268451
v -0.00916452 0.12396303 0.00299540
v -0.00916556 0.12396303 0.00268451
v -0.00956267 0.12302687 0.00268451
v -0.00997026 0.12174228 0.00268451
v -0.01021649 0.12062982 0.00268451
v -0.01030555 0.12014285 0.00268451
v -0.01033593 0.11999592 0.00299540
v -0.01046691 0.11916892 0.00299540
v -0.01065236 0.11788014 0.00299540
v -0.01358301 0.09601281 0.00299540
v -0.01375379 0.09472403 0.00268451
v -0.00908593 0.12411835 0.00268451
v -0.01033384 0.11998752 0.00268451
v -0.01036527 0.11979442 0.00268451
v -0.01046481 0.11916892 0.00268451
v -0.01051091 0.11885407 0.00268451
v -0.01065027 0.11788014 0.00268451
v -0.01069218 0.11756948 0.00268451
v -0.01082315 0.11659555 0.00268451
v -0.01358615 0.09601281 0.00268451
f 1 2 3
f 1 3 4
f 1 4 5
f 1 5 6
f 1 6 7
f 1 7 8
f 1 8 9
f 1 9 10
f 1 10 11
f 1 11 2
f 2 12 13
f 2 13 3
f 2 11 14
f 2 14 12
f 3 13 15
f 3 15 16
f 3 16 4
f 4 16 5
f 5 16 17
f 5 17 18
f 5 18 19
f 5 19 20
f 5 20 6
f 6 21 22
f 6 22 8
f 6 8 7
f 6 20 23
f 6 23 21
f 8 24 25
f 8 25 26
f 8 26 9
f 8 22 24
f 9 26 27
f 9 27 10
f 10 27 28
f 10 28 29
f 10 29 30
f 10 30 11
f 11 30 31
f 11 31 32
f 11 32 33
f 11 33 34
f 11 34 14
f 12 35 36
f 12 36 13
f 12 14 37
f 12 37 35
f 13 36 38
f 13 38 15
f 14 34 39
f 14 39 37
f 15 38 40
f 15 40 16
f 16 40 17
f 17 40 41
f 17 41 18
f 18 20 19
f 18 41 42
f 18 42 43
f 18 43 20
f 20 43 23
f 21 23 44
f 21 44 22
f 22 44 23
f 22 23 45
f 22 45 46
f 22 46 47
f 22 47 24
f 23 43 48
f 23 48 49
f 23 49 45
f 24 47 50
f 24 50 25
f 25 50 51
f 25 51 52
f 25 52 53
f 25 53 54
f 25 54 55
f 25 55 56
f 25 56 57
f 25 57 58
f 25 58 59
f 25 59 60
f 25 60 61
f 25 61 26
f 26 61 62
f 26 62 27
f 27 62 63
f 27 63 28
f 28 63 62
f 28 62 29
f 29 32 31
f 29 31 30
f 29 62 64
f 29 64 65
f 29 65 66
f 29 66 67
f 29 67 32
f 32 68 69
f 32 69 33
f 32 67 66
f 32 66 70
f 32 70 71
f 32 71 68
f 33 69 34
f 34 69 72
f 34 72 39
f 35 73 74
f 35 74 36
f 35 37 75
f 35 75 73
f 36 74 76
f 36 76 38
f 37 39 75
f 38 76 77
f 38 77 40
f 39 72 78
f 39 78 79
f 39 79 75
f 40 80 81
f 40 81 41
f 40 77 80
f 41 81 82
f 41 82 83
f 41 83 42
f 42 83 84
f 42 84 85
f 42 85 43
f 43 85 86
f 43 86 48
f 45 49 87
f 45 87 46
f 46 87 47
f 47 87 50
f 48 86 88
f 48 88 89
f 48 89 49
f 49 89 90
f 49 90 87
f 50 87 91
f 50 91 121
f 50 121 161
f 50 161 160
f 50 160 199
f 50 199 243
f 50 243 249
f 50 249 248
f 50 248 284
f 50 284 286
f 50 286 324
f 50 324 323
f 50 323 325
f 50 325 326
f 50 326 349
f 50 349 355
f 50 355 354
f 50 354 370
f 50 370 379
f 50 379 378
f 50 378 377
f 50 377 376
f 50 376 375
f 50 375 374
f 50 374 373
f 50 373 372
f 50 372 365
f 50 365 364
f 50 364 363
f 50 363 362
f 50 362 361
f 50 361 371
f 50 371 359
f 50 359 358
f 50 358 357
f 50 357 356
f 50 356 327
f 50 327 288
f 50 288 251
f 50 251 207
f 50 207 206
f 50 206 168
f 50 168 127
f 50 127 92
f 50 92 61
f 50 61 60
f 50 60 59
f 50 59 58
f 50 58 57
f 50 57 56
f 50 56 55
f 50 55 54
f 50 54 53
f 50 53 52
f 50 52 51
f 61 92 62
f 62 92 93
f 62 93 64
f 64 93 94
f 64 94 65
f 65 94 66
f 66 94 95
f 66 95 96
f 66 96 70
f 68 71 97
f 68 97 98
f 68 98 72
f 68 72 69
f 70 96 99
f 70 99 97
f 70 97 71
f 72 98 78
f 73 75 100
f 73 100 74
f 74 101 102
f 74 102 103
f 74 103 76
f 74 100 104
f 74 104 101
f 75 79 105
f 75 105 106
f 75 106 100
f 76 103 80
f 76 80 77
f 78 98 107
f 78 107 108
f 78 108 109
f 78 109 110
f 78 110 111
f 78 111 105
f 78 105 79
f 80 103 112
f 80 112 81
f 81 112 82
f 82 112 113
f 82 113 114
f 82 114 115
f 82 115 116
f 82 116 83
f 83 116 84
f 84 116 86
f 84 86 85
f 86 116 117
f 86 117 118
f 86 118 119
f 86 119 88
f 87 90 120
f 87 120 121
f 87 121 91
f 88 119 118
f 88 118 122
f 88 122 123
f 88 123 124
f 88 124 125
f 88 125 126
f 88 126 89
f 89 126 90
f 90 126 120
f 92 127 128
f 92 128 93
f 93 128 129
f 93 129 94
f 94 129 130
f 94 130 95
f 95 131 96
f 95 130 129
f 95 129 132
f 95 132 133
f 95 133 134
f 95 134 131
f 96 131 135
f 96 135 136
f 96 136 99
f 97 107 98
f 97 99 137
f 97 137 107
f 99 136 137
f 100 106 138
f 100 138 104
f 101 139 102
f 101 104 139
f 102 139 140
f 102 140 103
f 103 140 113
f 103 113 112
f 104 141 142
f 104 142 139
f 104 138 141
f 105 111 143
f 105 143 106
f 106 143 138
f 107 137 144
f 107 144 108
f 108 144 145
f 108 145 146
f 108 146 109
f 109 146 147
f 109 147 148
f 109 148 149
f 109 149 110
f 110 149 111
f 111 150 143
f 111 149 148
f 111 148 151
f 111 151 150
f 113 152 114
f 113 140 152
f 114 153 154
f 114 154 115
f 114 152 155
f 114 155 153
f 115 154 116
f 116 154 156
f 116 156 157
f 116 157 117
f 117 157 118
f 118 157 158
f 118 158 122
f 120 126 159
f 120 159 160
f 120 160 161
f 120 161 121
f 122 158 162
f 122 162 123
f 123 163 124
f 123 162 164
f 123 164 165
f 123 165 163
f 124 166 125
f 124 163 166
f 125 166 167
f 125 167 126
f 126 167 159
f 127 168 169
f 127 169 128
f 128 169 132
f 128 132 129
f 131 134 170
f 131 170 135
f 132 169 171
f 132 171 133
f 133 171 172
f 133 172 134
f 134 172 173
f 134 173 174
f 134 174 170
f 135 175 136
f 135 170 175
f 136 175 176
f 136 176 137
f 137 176 146
f 137 146 145
f 137 145 144
f 138 143 177
f 138 177 178
f 138 178 141
f 139 142 179
f 139 179 140
f 140 179 152
f 141 178 142
f 142 180 181
f 142 181 179
f 142 178 180
f 143 150 177
f 146 176 175
f 146 175 182
f 146 182 183
f 146 183 184
f 146 184 185
f 146 185 147
f 147 185 186
f 147 186 148
f 148 186 187
f 148 187 188
f 148 188 189
f 148 189 151
f 150 151 189
f 150 189 190
f 150 190 191
f 150 191 192
f 150 192 177
f 152 179 155
f 153 155 193
f 153 193 194
f 153 194 154
f 154 194 156
f 155 179 195
f 155 195 196
f 155 196 193
f 156 194 197
f 156 197 158
f 156 158 157
f 158 197 162
f 159 167 166
f 159 166 198
f 159 198 199
f 159 199 160
f 162 197 194
f 162 194 200
f 162 200 164
f 163 201 166
f 163 165 202
f 163 202 201
f 164 200 203
f 164 203 165
f 165 203 204
f 165 204 202
f 166 201 205
f 166 205 198
f 168 206 169
f 169 206 207
f 169 207 208
f 169 208 209
f 169 209 171
f 170 174 210
f 170 210 175
f 171 209 211
f 171 211 172
f 172 211 173
f 173 212 210
f 173 210 174
f 173 211 213
f 173 213 212
f 175 210 214
f 175 214 182
f 177 215 178
f 177 192 216
f 177 216 215
f 178 215 217
f 178 217 180
f 179 218 195
f 179 181 180
f 179 180 218
f 180 217 219
f 180 219 220
f 180 220 221
f 180 221 218
f 182 214 183
f 183 214 210
f 183 210 222
f 183 222 223
f 183 223 224
f 183 224 225
f 183 225 226
f 183 226 227
f 183 227 184
f 184 227 185
f 185 227 186
f 186 227 228
f 186 228 229
f 186 229 188
f 186 188 187
f 188 229 230
f 188 230 231
f 188 231 189
f 189 231 232
f 189 232 190
f 190 233 191
f 190 232 233
f 191 233 234
f 191 234 235
f 191 235 215
f 191 215 236
f 191 236 192
f 192 236 216
f 193 237 238
f 193 238 194
f 193 196 237
f 194 238 200
f 195 218 239
f 195 239 240
f 195 240 241
f 195 241 196
f 196 241 242
f 196 242 237
f 198 205 243
f 198 243 199
f 200 238 203
f 201 202 244
f 201 244 205
f 202 204 245
f 202 245 244
f 203 238 246
f 203 246 204
f 204 246 247
f 204 247 245
f 205 244 248
f 205 248 249
f 205 249 243
f 207 250 208
f 207 251 250
f 208 250 209
f 209 250 252
f 209 252 253
f 209 253 211
f 210 212 222
f 211 253 223
f 211 223 213
f 212 213 223
f 212 223 222
f 215 216 236
f 215 235 254
f 215 254 255
f 215 255 256
f 215 256 217
f 217 256 220
f 217 220 219
f 218 221 239
f 220 256 257
f 220 257 258
f 220 258 259
f 220 259 260
f 220 260 239
f 220 239 221
f 223 253 252
f 223 252 261
f 223 261 224
f 224 261 262
f 224 262 225
f 225 262 226
f 226 263 227
f 226 262 263
f 227 263 228
f 228 264 265
f 228 265 229
f 228 263 264
f 229 265 230
f 230 265 266
f 230 266 267
f 230 267 268
f 230 268 232
f 230 232 231
f 232 268 269
f 232 269 270
f 232 270 233
f 233 270 271
f 233 271 272
f 233 272 273
f 233 273 274
f 233 274 275
f 233 275 255
f 233 255 234
f 234 255 254
f 234 254 235
f 237 242 276
f 237 276 246
f 237 246 238
f 239 277 240
f 239 260 277
f 240 278 282
f 240 282 241
f 240 277 279
f 240 279 280
f 240 280 281
f 240 281 278
f 241 282 242
f 242 282 283
f 242 283 276
f 244 284 248
f 244 245 285
f 244 285 286
f 244 286 284
f 245 247 287
f 245 287 285
f 246 276 247
f 247 276 287
f 250 251 288
f 250 288 289
f 250 289 252
f 252 289 290
f 252 290 261
f 255 275 258
f 255 258 256
f 256 258 257
f 258 275 259
f 259 275 291
f 259 291 279
f 259 279 277
f 259 277 260
f 261 290 292
f 261 292 293
f 261 293 294
f 261 294 262
f 262 294 263
f 263 294 295
f 263 295 264
f 264 296 297
f 264 297 265
f 264 295 296
f 265 297 266
f 266 297 298
f 266 298 299
f 266 299 300
f 266 300 267
f 267 301 302
f 267 302 303
f 267 303 304
f 267 304 305
f 267 305 270
f 267 270 269
f 267 269 268
f 267 300 306
f 267 306 301
f 270 307 273
f 270 273 272
f 270 272 271
f 270 305 307
f 273 307 304
f 273 304 274
f 274 308 309
f 274 309 275
f 274 304 310
f 274 310 308
f 275 309 311
f 275 311 312
f 275 312 291
f 276 283 313
f 276 313 287
f 278 314 320
f 278 320 282
f 278 281 314
f 279 291 310
f 279 310 315
f 279 315 316
f 279 316 280
f 280 316 317
f 280 317 281
f 281 318 319
f 281 319 314
f 281 317 318
f 282 320 283
f 283 320 321
f 283 321 322
f 283 322 313
f 285 287 323
f 285 323 324
f 285 324 286
f 287 325 323
f 287 313 326
f 287 326 325
f 288 327 289
f 289 327 328
f 289 328 290
f 290 328 292
f 291 312 310
f 292 328 329
f 292 329 293
f 293 330 331
f 293 331 294
f 293 329 330
f 294 331 332
f 294 332 295
f 295 332 296
f 296 332 333
f 296 333 334
f 296 334 297
f 297 334 335
f 297 335 298
f 298 335 336
f 298 336 299
f 299 336 337
f 299 337 338
f 299 338 301
f 299 301 306
f 299 306 300
f 301 338 302
f 302 339 303
f 302 338 340
f 302 340 341
f 302 341 342
f 302 342 343
f 302 343 317
f 302 317 339
f 303 339 344
f 303 344 345
f 303 345 310
f 303 310 304
f 304 307 305
f 308 346 309
f 308 310 346
f 309 310 347
f 309 347 311
f 309 346 310
f 310 317 348
f 310 348 315
f 310 312 311
f 310 311 347
f 310 345 317
f 313 322 349
f 313 349 326
f 314 350 320
f 314 319 351
f 314 351 350
f 315 348 316
f 316 348 317
f 317 352 318
f 317 345 344
f 317 344 339
f 317 343 352
f 318 352 353
f 318 353 319
f 319 353 351
f 320 350 321
f 321 350 354
f 321 354 355
f 321 355 322
f 322 355 349
f 327 356 328
f 328 356 357
f 328 357 329
f 329 357 358
f 329 358 359
f 329 359 330
f 330 359 360
f 330 360 331
f 331 360 332
f 332 360 333
f 333 360 361
f 333 361 362
f 333 362 334
f 334 363 364
f 334 364 335
f 334 362 363
f 335 364 365
f 335 365 366
f 335 366 336
f 336 367 338
f 336 338 337
f 336 366 367
f 338 367 368
f 338 368 340
f 340 368 369
f 340 369 353
f 340 353 342
f 340 342 341
f 342 353 352
f 342 352 343
f 350 351 370
f 350 370 354
f 351 353 369
f 351 369 379
f 351 379 370
f 359 371 360
f 360 371 361
f 365 372 366
f 366 372 373
f 366 373 374
f 366 374 367
f 367 374 375
f 367 375 368
f 368 375 376
f 368 376 377
f 368 377 378
f 368 378 379
f 368 379 369

