# https://github.com/mikedh/trimesh
v 0.00449418 0.12922710 0.00299104
v 0.00362349 0.12907177 0.00299104
v 0.00541528 0.12896683 0.00299104
v 0.00533546 0.12892485 0.00196934
v 0.00456980 0.12902140 0.00160709
v 0.00369176 0.12898781 0.00170786
v 0.00350166 0.12817341 0.00170786
v 0.00344284 0.12816920 0.00299104
v 0.00605700 0.12858481 0.00299104
v 0.00577133 0.12857221 0.00160709
v 0.00504978 0.12880309 0.00111219
v 0.00419170 0.12887026 0.00098336
v 0.00379364 0.12887026 0.00098336
v 0.00361614 0.12558325 -0.00338151
v 0.00339348 0.12431547 -0.00343891
v 0.00357728 0.12688462 0.00299104
v 0.00356152 0.11659539 -0.00729739
v 0.00368336 0.11523105 -0.00719790
v 0.00414548 0.10887532 -0.00858440
v 0.00682896 0.12794252 0.00299104
v 0.00678695 0.12787955 0.00170786
v 0.00663256 0.12771582 0.00072060
v 0.00631222 0.12748074 -0.00013656
v 0.00545414 0.12766125 -0.00039677
v 0.00507499 0.12622974 -0.00277563
v 0.00421690 0.12631370 -0.00291467
v 0.00377473 0.12631370 -0.00291467
v 0.00370646 0.12514246 -0.00423101
v 0.00360249 0.12431547 -0.00442745
v 0.00368021 0.11659539 -0.00812649
v 0.00430198 0.10759074 -0.00858440
v 0.00524828 0.11401783 0.00299104
v 0.00367706 0.11530662 -0.00816348
v 0.00462336 0.10759074 -0.00969412
v 0.00470739 0.10630615 -0.00968263
v 0.00747174 0.12713650 0.00299104
v 0.00743078 0.12712811 0.00170786
v 0.00778787 0.12636408 0.00042085
v 0.00771961 0.12625493 -0.00024243
v 0.00742763 0.12601984 -0.00110086
v 0.00656954 0.12633889 -0.00164551
v 0.00578078 0.12606602 -0.00256134
v 0.00566630 0.12533977 -0.00344401
v 0.00516216 0.12497035 -0.00409198
v 0.00449418 0.12510888 -0.00420168
v 0.00458555 0.12583932 -0.00338151
v 0.00449418 0.12431547 -0.00462770
v 0.00376003 0.11746857 -0.00802700
v 0.00455930 0.10887532 -0.00960610
v 0.00592047 0.10887112 0.00299104
v 0.00541528 0.11273326 0.00299104
v 0.00447632 0.10630615 -0.00858440
v 0.00661155 0.10372860 0.00299104
v 0.00638679 0.10538680 0.00299104
v 0.00626391 0.10630196 0.00299104
v 0.00578078 0.10759074 -0.01003851
v 0.00578078 0.10630615 -0.01002703
v 0.00613262 0.09858608 -0.00941732
v 0.00486808 0.10501738 -0.00952192
v 0.00784459 0.12649421 0.00299104
v 0.00784984 0.12648162 0.00170786
v 0.00825420 0.12560005 0.00042085
v 0.00874889 0.12427768 -0.00094907
v 0.00799268 0.12559585 -0.00074881
v 0.00787820 0.12516345 -0.00180751
v 0.00759147 0.12485700 -0.00266466
v 0.00673339 0.12516766 -0.00301926
v 0.00601919 0.12469748 -0.00387514
v 0.00663361 0.12384109 -0.00418510
v 0.00566630 0.12428608 -0.00430372
v 0.00522623 0.11728806 -0.00796322
v 0.00449418 0.11744758 -0.00802317
v 0.00449418 0.11659539 -0.00825659
v 0.00578078 0.10887532 -0.00986759
v 0.00581124 0.09858608 -0.00858440
v 0.00768705 0.08889296 -0.00650784
v 0.00873313 0.08828846 0.00299104
v 0.00696445 0.10115524 0.00299104
v 0.00706738 0.10759074 -0.00974769
v 0.00706738 0.10630615 -0.00975917
v 0.00706738 0.09987066 -0.00956784
v 0.00717556 0.09848533 -0.00941988
v 0.00629122 0.09770451 -0.00932038
v 0.00831932 0.12560005 0.00299104
v 0.00883816 0.12465550 0.00170786
v 0.00833507 0.12560005 0.00170786
v 0.00881925 0.12460093 0.00042085
v 0.00906712 0.12382430 -0.00057662
v 0.00898100 0.12362700 -0.00143377
v 0.00820379 0.12438263 -0.00220292
v 0.00795277 0.12400062 -0.00308176
v 0.00749064 0.12343389 -0.00393764
v 0.00711254 0.12434905 -0.00347973
v 0.00790130 0.11750635 -0.00680886
v 0.00706948 0.11791356 -0.00701040
v 0.00608326 0.11697321 -0.00785352
v 0.00570516 0.11656601 -0.00807674
v 0.00578078 0.11530662 -0.00836374
v 0.00657164 0.11611682 -0.00799383
v 0.00706738 0.10887532 -0.00957294
v 0.00768705 0.08889296 -0.00669279
v 0.00869427 0.08719698 -0.00343891
v 0.00890643 0.08736910 0.00299104
v 0.00787610 0.10887532 -0.00931273
v 0.00806305 0.10759074 -0.00940329
v 0.00810926 0.10630615 -0.00941477
v 0.00876779 0.09987066 -0.00916222
v 0.00812607 0.09987066 -0.00933824
v 0.00796537 0.09884636 -0.00929487
v 0.00767654 0.09798577 -0.00921962
v 0.00774166 0.09147472 -0.00794664
v 0.00681846 0.09770451 -0.00932038
v 0.00770175 0.09147472 -0.00794664
v 0.00882661 0.12464291 0.00299104
v 0.00916375 0.12399642 0.00299104
v 0.00916690 0.12400901 0.00170786
v 0.00913434 0.12395864 0.00042085
v 0.00949774 0.12302669 0.00042085
v 0.00924987 0.12313164 -0.00094907
v 0.00913119 0.12277061 -0.00191975
v 0.00899045 0.12236341 -0.00277691
v 0.00887072 0.12313164 -0.00227052
v 0.00817648 0.12301409 -0.00348228
v 0.00782358 0.12257331 -0.00417234
v 0.00877514 0.11659539 -0.00636625
v 0.00813342 0.11659539 -0.00700529
v 0.00702747 0.11656601 -0.00765454
v 0.00746754 0.11530662 -0.00784077
v 0.00773326 0.10955119 -0.00924003
v 0.00835398 0.08957723 -0.00716346
v 0.00835398 0.08877542 -0.00676294
v 0.00878039 0.08750343 -0.00558053
v 0.00865751 0.08732292 -0.00472464
v 0.00963953 0.08670582 -0.00215190
v 0.01018988 0.08634059 0.00299104
v 0.00954815 0.08672261 0.00299104
v 0.00851887 0.10887532 -0.00890456
v 0.00870582 0.10759074 -0.00903849
v 0.00875204 0.10630615 -0.00907548
v 0.00963953 0.09987066 -0.00870940
v 0.00963953 0.09858608 -0.00861501
v 0.01092613 0.09215059 -0.00715071
v 0.00837813 0.09848533 -0.00911757
v 0.00963953 0.09086600 -0.00741474
v 0.00824370 0.09097516 -0.00770174
v 0.00922572 0.08876283 -0.00676039
v 0.00958176 0.12302669 0.00299104
v 0.00957756 0.12302669 0.00170786
v 0.00997772 0.12174211 0.00170786
v 0.00988424 0.12174211 0.00042085
v 0.00968994 0.12174211 -0.00086616
v 0.00929398 0.12185545 -0.00227052
v 0.00967734 0.12045333 -0.00215190
v 0.00911228 0.12150282 -0.00301161
v 0.00919106 0.11659539 -0.00572211
v 0.00907027 0.11743918 -0.00549379
v 0.00871423 0.12185545 -0.00344019
v 0.00894004 0.11571381 -0.00657289
v 0.00844955 0.11529402 -0.00711627
v 0.00766709 0.11453418 -0.00792240
v 0.00928033 0.08750343 -0.00558053
v 0.00963953 0.08684855 -0.00343891
v 0.01092613 0.08675619 -0.00086616
v 0.01031171 0.08635318 0.00197062
v 0.01023819 0.08635318 0.00197062
v 0.01033692 0.08634059 0.00299104
v 0.00928138 0.10887532 -0.00826169
v 0.00940741 0.10759074 -0.00839562
v 0.01047766 0.09987066 -0.00813159
v 0.01046400 0.09858608 -0.00810353
v 0.01162457 0.09135717 -0.00669662
v 0.01096709 0.09090379 -0.00691601
v 0.01056588 0.08995085 -0.00679356
v 0.00964898 0.08954365 -0.00696065
v 0.01008380 0.08909446 -0.00655376
v 0.00968154 0.08825067 -0.00606778
v 0.00999242 0.12174211 0.00299104
v 0.01021718 0.12074299 0.00299104
v 0.01020983 0.12070521 0.00170786
v 0.01017727 0.12040295 0.00039916
v 0.00998507 0.12045333 -0.00086616
v 0.00994201 0.11916875 -0.00215190
v 0.00982018 0.11787997 -0.00343891
v 0.00963428 0.11659539 -0.00472464
v 0.00990000 0.11530662 -0.00472464
v 0.00928978 0.11529402 -0.00609074
v 0.00997142 0.10886692 -0.00721321
v 0.01092613 0.08864528 -0.00565196
v 0.01013736 0.08773852 -0.00523103
v 0.01057323 0.08748664 -0.00437260
v 0.00968154 0.08728933 -0.00477056
v 0.01097129 0.08732292 -0.00344656
v 0.01092613 0.08694510 -0.00215190
v 0.01092613 0.08665124 0.00042085
v 0.01207409 0.08733971 -0.00086616
v 0.01231461 0.08734811 0.00049483
v 0.01081480 0.08655469 0.00160837
v 0.01097969 0.08659247 0.00299104
v 0.01005019 0.10759074 -0.00750403
v 0.01010901 0.10630615 -0.00765326
v 0.01039783 0.10115944 -0.00806016
v 0.01107632 0.09987066 -0.00729739
v 0.01285655 0.09151249 -0.00536751
v 0.01285655 0.09150830 -0.00536751
v 0.01167288 0.09215059 -0.00673998
v 0.01219907 0.09100454 -0.00596701
v 0.01142291 0.09050079 -0.00656524
v 0.01096709 0.08954365 -0.00631396
v 0.01162352 0.08888456 -0.00541853
v 0.01033587 0.12010070 0.00299104
v 0.01032957 0.12006292 0.00170786
v 0.01030751 0.11993698 0.00081371
v 0.01026550 0.11970189 -0.00004472
v 0.01020353 0.11923172 -0.00092101
v 0.01026235 0.11840052 -0.00138786
v 0.01017412 0.11793455 -0.00217103
v 0.01024554 0.11700679 -0.00261237
v 0.01010060 0.11658280 -0.00337768
v 0.01020563 0.11530662 -0.00380371
v 0.01026865 0.11457197 -0.00402820
v 0.01012161 0.11409340 -0.00469021
v 0.01026235 0.11196503 -0.00530756
v 0.01024239 0.10929091 -0.00655121
v 0.01031906 0.10843453 -0.00672850
v 0.01097129 0.08798200 -0.00477056
v 0.01143132 0.08773432 -0.00387897
v 0.01169809 0.08756640 -0.00302181
v 0.01188294 0.08744886 -0.00215190
v 0.01221273 0.08722217 0.00170786
v 0.01271791 0.08776370 -0.00086616
v 0.01281139 0.08768394 0.00011472
v 0.01286601 0.08764196 0.00097315
v 0.01221273 0.08720537 0.00299104
v 0.01038313 0.10759074 -0.00686116
v 0.01046925 0.10630615 -0.00701040
v 0.01152584 0.09987066 -0.00654865
v 0.01156470 0.09901007 -0.00664304
v 0.01283345 0.09237308 -0.00531266
v 0.01304560 0.09202465 -0.00482031
v 0.01350878 0.09086600 -0.00343891
v 0.01304665 0.09099194 -0.00477312
v 0.01277358 0.09064771 -0.00523358
v 0.01187033 0.08957723 -0.00566089
v 0.01255617 0.08949747 -0.00477312
v 0.01281349 0.08901050 -0.00399504
v 0.01189974 0.08864108 -0.00472464
v 0.01048606 0.11916875 0.00299104
v 0.01047661 0.11916875 0.00170786
v 0.01058583 0.11787997 0.00042085
v 0.01038313 0.11923172 0.00039916
v 0.01033377 0.11884550 -0.00052942
v 0.01040939 0.11793455 -0.00092101
v 0.01033167 0.11753993 -0.00175521
v 0.01039993 0.11658280 -0.00217103
v 0.01059949 0.11530662 -0.00215190
v 0.01031381 0.11614621 -0.00290829
v 0.01049761 0.11150325 -0.00481648
v 0.01037788 0.11530662 -0.00316212
v 0.01089147 0.11144868 -0.00343891
v 0.01094503 0.10887532 -0.00472464
v 0.01074128 0.11015990 -0.00472464
v 0.01071712 0.10759074 -0.00601038
v 0.01049236 0.10886692 -0.00607798
v 0.01225579 0.08824648 -0.00350906
v 0.01252676 0.08792743 -0.00215190
v 0.01288386 0.08762517 0.00170786
v 0.01312753 0.08856971 -0.00215190
v 0.01324516 0.08840599 -0.00086616
v 0.01322625 0.08818770 0.00049483
v 0.01337119 0.08829265 0.00170786
v 0.01289016 0.08762097 0.00299104
v 0.01144497 0.10115944 -0.00634329
v 0.01178526 0.09987066 -0.00590579
v 0.01277988 0.09343936 -0.00517746
v 0.01302355 0.09343936 -0.00453332
v 0.01349093 0.09215059 -0.00343891
v 0.01379971 0.09086600 -0.00215190
v 0.01359070 0.08957723 -0.00215190
v 0.01318109 0.08949747 -0.00351544
v 0.01299729 0.08987109 -0.00437643
v 0.01298679 0.08876283 -0.00313788
v 0.01066986 0.11787997 0.00299104
v 0.01066461 0.11787997 0.00170786
v 0.01098704 0.11402203 -0.00086616
v 0.01080429 0.11530662 -0.00086616
v 0.01076228 0.11659539 0.00042085
v 0.01287546 0.10065568 -0.00040315
v 0.01061734 0.11659539 -0.00086616
v 0.01078854 0.11402203 -0.00215190
v 0.01108262 0.11015990 -0.00343891
v 0.01157625 0.10571005 -0.00410474
v 0.01113618 0.10759074 -0.00472464
v 0.01156365 0.10304433 -0.00534966
v 0.01169704 0.10115944 -0.00570043
v 0.01380076 0.08957723 -0.00086616
v 0.01391944 0.08957723 0.00042085
v 0.01337960 0.08829265 0.00299104
v 0.01397721 0.08957723 0.00170786
v 0.01219382 0.09987066 -0.00472464
v 0.01234821 0.09858608 -0.00472464
v 0.01288281 0.09559292 -0.00416214
v 0.01335124 0.09343936 -0.00343891
v 0.01362431 0.09343936 -0.00215190
v 0.01376085 0.09215059 -0.00215190
v 0.01397616 0.09086600 -0.00086616
v 0.01084316 0.11659539 0.00299104
v 0.01361171 0.09601272 0.00170786
v 0.01356550 0.09601272 0.00042085
v 0.01116454 0.11273326 -0.00086616
v 0.01282924 0.10031985 -0.00126030
v 0.01155735 0.10942525 -0.00139678
v 0.01097234 0.11273326 -0.00215190
v 0.01346467 0.09601272 -0.00086616
v 0.01328927 0.09729730 -0.00086616
v 0.01154580 0.10805671 -0.00264936
v 0.01160566 0.10720452 -0.00296951
v 0.01127062 0.10887532 -0.00343891
v 0.01151744 0.10657063 -0.00382667
v 0.01216967 0.10244402 -0.00343891
v 0.01234611 0.10115944 -0.00343891
v 0.01252046 0.09987066 -0.00343891
v 0.01201948 0.10115944 -0.00472464
v 0.01407488 0.09086600 0.00042085
v 0.01397616 0.08957723 0.00299104
v 0.01412110 0.09086600 0.00170786
v 0.01278198 0.09729730 -0.00374886
v 0.01283240 0.09644932 -0.00397846
v 0.01271161 0.09853991 -0.00336238
v 0.01287546 0.09808232 -0.00288278
v 0.01379866 0.09343936 -0.00086616
v 0.01345732 0.09472395 -0.00215190
v 0.01363691 0.09472395 -0.00086616
v 0.01392995 0.09215059 -0.00086616
v 0.01360226 0.09601272 0.00299104
v 0.01377975 0.09472395 0.00170786
v 0.01373459 0.09472395 0.00042085
v 0.01288911 0.09946345 -0.00170674
v 0.01161617 0.10856887 -0.00179092
v 0.01115299 0.11144868 -0.00215190
v 0.01168233 0.10761592 -0.00219272
v 0.01204888 0.10501738 -0.00215190
v 0.01258243 0.10115944 -0.00215190
v 0.01281769 0.09893872 -0.00256390
v 0.01145547 0.10761592 -0.00341467
v 0.01199112 0.10373280 -0.00343891
v 0.01165293 0.10620541 -0.00341467
v 0.01402342 0.09215059 0.00042085
v 0.01411585 0.09086600 0.00299104
v 0.01406648 0.09215059 0.00170786
v 0.01328507 0.09601272 -0.00215190
v 0.01389423 0.09343936 0.00042085
v 0.01377030 0.09472395 0.00299104
v 0.01393730 0.09343936 0.00170786
v 0.01294268 0.09853991 -0.00214169
v 0.01405808 0.09215059 0.00299104
v 0.01392679 0.09343936 0.00299104
f 1 2 8
f 1 8 16
f 1 16 32
f 1 32 51
f 1 51 50
f 1 50 55
f 1 55 54
f 1 54 53
f 1 53 78
f 1 78 77
f 1 77 103
f 1 103 136
f 1 136 135
f 1 135 166
f 1 166 198
f 1 198 233
f 1 233 271
f 1 271 297
f 1 297 324
f 1 324 348
f 1 348 355
f 1 355 356
f 1 356 352
f 1 352 334
f 1 334 306
f 1 306 282
f 1 282 247
f 1 247 210
f 1 210 178
f 1 178 177
f 1 177 147
f 1 147 115
f 1 115 114
f 1 114 84
f 1 84 60
f 1 60 36
f 1 36 20
f 1 20 9
f 1 9 3
f 1 3 4
f 1 4 5
f 1 5 6
f 1 6 2
f 2 6 7
f 2 7 8
f 3 9 4
f 4 9 10
f 4 10 11
f 4 11 5
f 5 11 12
f 5 12 13
f 5 13 6
f 6 13 14
f 6 14 7
f 7 14 15
f 7 15 8
f 8 15 17
f 8 17 18
f 8 18 19
f 8 19 16
f 9 20 21
f 9 21 10
f 10 21 22
f 10 22 11
f 11 22 23
f 11 23 24
f 11 24 25
f 11 25 26
f 11 26 12
f 12 26 27
f 12 27 13
f 13 27 14
f 14 27 28
f 14 28 15
f 15 28 29
f 15 29 30
f 15 30 17
f 16 19 31
f 16 31 32
f 17 30 33
f 17 33 19
f 17 19 18
f 19 33 34
f 19 34 35
f 19 35 31
f 20 36 37
f 20 37 21
f 21 37 38
f 21 38 39
f 21 39 22
f 22 39 40
f 22 40 23
f 23 40 41
f 23 41 42
f 23 42 25
f 23 25 24
f 25 42 43
f 25 43 44
f 25 44 45
f 25 45 46
f 25 46 26
f 26 46 45
f 26 45 28
f 26 28 27
f 28 45 47
f 28 47 48
f 28 48 29
f 29 48 30
f 30 49 33
f 30 48 49
f 31 50 51
f 31 51 32
f 31 35 52
f 31 52 53
f 31 53 54
f 31 54 55
f 31 55 50
f 33 49 34
f 34 49 56
f 34 56 57
f 34 57 35
f 35 57 58
f 35 58 59
f 35 59 52
f 36 60 61
f 36 61 37
f 37 61 38
f 38 61 62
f 38 62 39
f 39 62 63
f 39 63 64
f 39 64 65
f 39 65 40
f 40 65 66
f 40 66 41
f 41 66 67
f 41 67 42
f 42 67 43
f 43 67 44
f 44 67 68
f 44 68 69
f 44 69 70
f 44 70 47
f 44 47 45
f 47 70 71
f 47 71 72
f 47 72 48
f 48 72 73
f 48 73 74
f 48 74 49
f 49 74 56
f 52 59 75
f 52 75 76
f 52 76 77
f 52 77 78
f 52 78 53
f 56 74 79
f 56 79 80
f 56 80 57
f 57 80 81
f 57 81 58
f 58 81 82
f 58 82 83
f 58 83 75
f 58 75 59
f 60 84 85
f 60 85 86
f 60 86 61
f 61 86 87
f 61 87 62
f 62 87 63
f 63 65 64
f 63 87 88
f 63 88 89
f 63 89 65
f 65 89 90
f 65 90 66
f 66 90 91
f 66 91 92
f 66 92 93
f 66 93 67
f 67 93 68
f 68 93 69
f 69 93 92
f 69 92 94
f 69 94 95
f 69 95 96
f 69 96 70
f 70 96 71
f 71 96 97
f 71 97 73
f 71 73 72
f 73 97 98
f 73 98 74
f 74 98 99
f 74 99 100
f 74 100 79
f 75 83 101
f 75 101 76
f 76 101 102
f 76 102 103
f 76 103 77
f 79 100 104
f 79 104 105
f 79 105 106
f 79 106 80
f 80 106 107
f 80 107 108
f 80 108 81
f 81 108 109
f 81 109 82
f 82 109 110
f 82 110 111
f 82 111 112
f 82 112 83
f 83 112 111
f 83 111 113
f 83 113 101
f 84 114 85
f 85 114 115
f 85 115 116
f 85 116 87
f 85 87 86
f 87 116 117
f 87 117 88
f 88 118 119
f 88 119 89
f 88 117 118
f 89 119 120
f 89 120 121
f 89 121 122
f 89 122 90
f 90 122 91
f 91 122 121
f 91 121 123
f 91 123 124
f 91 124 92
f 92 124 94
f 94 124 125
f 94 125 126
f 94 126 127
f 94 127 95
f 95 127 96
f 96 127 99
f 96 99 97
f 97 99 98
f 99 127 128
f 99 128 129
f 99 129 100
f 100 129 104
f 101 113 130
f 101 130 131
f 101 131 132
f 101 132 133
f 101 133 102
f 102 133 134
f 102 134 135
f 102 135 136
f 102 136 103
f 104 129 137
f 104 137 138
f 104 138 105
f 105 138 139
f 105 139 106
f 106 139 140
f 106 140 107
f 107 140 141
f 107 141 142
f 107 142 143
f 107 143 109
f 107 109 108
f 109 143 144
f 109 144 110
f 110 144 111
f 111 144 145
f 111 145 146
f 111 146 130
f 111 130 113
f 115 147 116
f 116 147 148
f 116 148 117
f 117 148 118
f 118 148 149
f 118 149 150
f 118 150 151
f 118 151 119
f 119 151 120
f 120 151 152
f 120 152 121
f 121 152 153
f 121 153 154
f 121 154 155
f 121 155 156
f 121 156 157
f 121 157 123
f 123 157 125
f 123 125 124
f 125 158 126
f 125 157 156
f 125 156 158
f 126 158 159
f 126 159 137
f 126 137 160
f 126 160 128
f 126 128 127
f 128 160 129
f 129 160 137
f 130 146 131
f 131 146 132
f 132 161 162
f 132 162 133
f 132 146 161
f 133 162 134
f 134 162 163
f 134 163 164
f 134 164 165
f 134 165 135
f 135 165 164
f 135 164 166
f 137 167 138
f 137 159 167
f 138 167 168
f 138 168 169
f 138 169 139
f 139 169 140
f 140 169 170
f 140 170 141
f 141 170 171
f 141 171 142
f 142 171 172
f 142 172 144
f 142 144 143
f 144 172 173
f 144 173 174
f 144 174 145
f 145 174 146
f 146 174 173
f 146 173 175
f 146 175 176
f 146 176 161
f 147 177 148
f 148 177 149
f 149 177 178
f 149 178 179
f 149 179 150
f 150 179 180
f 150 180 181
f 150 181 151
f 151 181 153
f 151 153 152
f 153 181 182
f 153 182 183
f 153 183 154
f 154 183 184
f 154 184 155
f 155 184 185
f 155 185 186
f 155 186 158
f 155 158 156
f 158 186 187
f 158 187 167
f 158 167 159
f 161 176 188
f 161 188 189
f 161 189 190
f 161 190 191
f 161 191 162
f 162 191 192
f 162 192 193
f 162 193 163
f 163 194 164
f 163 193 195
f 163 195 196
f 163 196 194
f 164 194 197
f 164 197 166
f 166 197 198
f 167 187 199
f 167 199 168
f 168 199 200
f 168 200 201
f 168 201 169
f 169 201 202
f 169 202 203
f 169 203 204
f 169 204 205
f 169 205 170
f 170 205 171
f 171 205 204
f 171 204 206
f 171 206 207
f 171 207 172
f 172 207 173
f 173 207 208
f 173 208 175
f 175 208 209
f 175 209 188
f 175 188 176
f 178 210 211
f 178 211 179
f 179 211 212
f 179 212 180
f 180 212 213
f 180 213 181
f 181 213 214
f 181 214 215
f 181 215 182
f 182 215 216
f 182 216 217
f 182 217 183
f 183 217 218
f 183 218 185
f 183 185 184
f 185 219 220
f 185 220 221
f 185 221 222
f 185 222 223
f 185 223 186
f 185 218 219
f 186 223 224
f 186 224 187
f 187 224 199
f 188 209 189
f 189 209 225
f 189 225 190
f 190 192 191
f 190 225 226
f 190 226 192
f 192 226 227
f 192 227 193
f 193 227 228
f 193 228 195
f 194 196 229
f 194 229 197
f 195 228 230
f 195 230 231
f 195 231 196
f 196 231 232
f 196 232 229
f 197 229 198
f 198 229 233
f 199 224 234
f 199 234 235
f 199 235 236
f 199 236 202
f 199 202 200
f 200 202 201
f 202 236 237
f 202 237 203
f 203 238 239
f 203 239 204
f 203 237 238
f 204 240 241
f 204 241 242
f 204 242 206
f 204 239 240
f 206 242 207
f 207 242 243
f 207 243 209
f 207 209 208
f 209 243 244
f 209 244 245
f 209 245 246
f 209 246 226
f 209 226 225
f 210 247 248
f 210 248 211
f 211 248 212
f 212 248 249
f 212 249 250
f 212 250 213
f 213 250 249
f 213 249 251
f 213 251 214
f 214 251 215
f 215 251 252
f 215 252 253
f 215 253 217
f 215 217 216
f 217 253 254
f 217 254 255
f 217 255 256
f 217 256 219
f 217 219 218
f 219 256 220
f 220 257 222
f 220 222 221
f 220 256 258
f 220 258 259
f 220 259 260
f 220 260 261
f 220 261 257
f 222 257 261
f 222 261 260
f 222 260 262
f 222 262 263
f 222 263 223
f 223 263 224
f 224 263 262
f 224 262 234
f 226 246 245
f 226 245 264
f 226 264 227
f 227 264 265
f 227 265 228
f 228 265 230
f 229 232 266
f 229 266 233
f 230 265 267
f 230 267 268
f 230 268 231
f 231 268 269
f 231 269 232
f 232 269 270
f 232 270 266
f 233 266 271
f 234 262 272
f 234 272 236
f 234 236 235
f 236 272 273
f 236 273 274
f 236 274 238
f 236 238 237
f 238 274 275
f 238 275 239
f 239 276 240
f 239 275 276
f 240 276 277
f 240 277 278
f 240 278 279
f 240 279 280
f 240 280 241
f 241 280 242
f 242 280 244
f 242 244 243
f 244 280 245
f 245 281 264
f 245 280 279
f 245 279 281
f 247 282 283
f 247 283 248
f 248 283 249
f 249 284 285
f 249 285 251
f 249 283 286
f 249 286 287
f 249 287 284
f 251 285 288
f 251 288 252
f 252 288 255
f 252 255 253
f 253 255 254
f 255 289 290
f 255 290 256
f 255 288 289
f 256 290 259
f 256 259 258
f 259 290 291
f 259 291 260
f 260 291 292
f 260 292 262
f 262 292 293
f 262 293 294
f 262 294 272
f 264 281 265
f 265 281 267
f 266 270 271
f 267 281 278
f 267 278 295
f 267 295 268
f 268 295 296
f 268 296 270
f 268 270 269
f 270 297 271
f 270 296 298
f 270 298 297
f 272 294 273
f 273 294 299
f 273 299 300
f 273 300 275
f 273 275 274
f 275 301 302
f 275 302 276
f 275 300 301
f 276 302 303
f 276 303 304
f 276 304 277
f 277 305 295
f 277 295 278
f 277 304 305
f 278 281 279
f 282 306 283
f 283 306 307
f 283 307 308
f 283 308 286
f 284 309 310
f 284 310 311
f 284 311 312
f 284 312 285
f 284 287 309
f 285 312 289
f 285 289 288
f 286 308 287
f 287 308 313
f 287 313 314
f 287 314 309
f 289 312 315
f 289 315 316
f 289 316 317
f 289 317 290
f 290 317 318
f 290 318 291
f 291 319 320
f 291 320 321
f 291 321 299
f 291 299 322
f 291 322 292
f 291 318 319
f 292 322 293
f 293 322 299
f 293 299 294
f 295 305 296
f 296 305 323
f 296 323 298
f 297 298 324
f 298 323 325
f 298 325 324
f 299 321 326
f 299 326 327
f 299 327 301
f 299 301 300
f 301 327 302
f 302 327 326
f 302 326 328
f 302 328 329
f 302 329 303
f 303 330 304
f 303 329 331
f 303 331 332
f 303 332 330
f 304 330 333
f 304 333 305
f 305 333 323
f 306 334 307
f 307 334 352
f 307 352 335
f 307 335 336
f 307 336 308
f 308 336 332
f 308 332 313
f 309 314 310
f 310 314 313
f 310 313 337
f 310 337 311
f 311 338 312
f 311 337 338
f 312 338 339
f 312 339 315
f 313 332 337
f 315 339 338
f 315 338 340
f 315 340 341
f 315 341 342
f 315 342 343
f 315 343 316
f 316 318 344
f 316 344 317
f 316 343 329
f 316 329 319
f 316 319 345
f 316 345 346
f 316 346 318
f 317 344 318
f 318 346 345
f 318 345 319
f 319 329 320
f 320 329 321
f 321 329 328
f 321 328 326
f 323 333 347
f 323 347 325
f 324 325 348
f 325 347 349
f 325 349 348
f 329 343 350
f 329 350 331
f 330 351 333
f 330 332 336
f 330 336 351
f 331 350 337
f 331 337 332
f 333 351 347
f 335 352 353
f 335 353 351
f 335 351 336
f 337 350 354
f 337 354 343
f 337 343 342
f 337 342 341
f 337 341 338
f 338 341 340
f 343 354 350
f 347 351 353
f 347 353 349
f 348 349 355
f 349 353 355
f 352 356 353
f 353 356 355

