# https://github.com/mikedh/trimesh
v -0.00838085 -0.09879338 -0.00274863
v -0.00837649 -0.09879338 -0.00177843
v -0.00837998 -0.09879338 -0.00292020
v -0.00818611 -0.10010684 -0.00292020
v -0.00817650 -0.09879338 -0.00094558
v -0.00817999 -0.10010684 -0.00177843
v -0.00802018 -0.10079838 -0.00115136
v -0.00807869 -0.10010684 -0.00106350
v -0.00822279 -0.09879338 -0.00379744
v -0.00808480 -0.10010684 -0.00379513
v -0.00802454 -0.10081105 -0.00362680
v -0.00804550 -0.10088384 -0.00292020
v -0.00804201 -0.10087434 -0.00177843
v -0.00741497 -0.09879338 -0.00051689
v -0.00816253 -0.09896429 -0.00095760
v -0.00741497 -0.10010684 -0.00065193
v -0.00741497 -0.09896429 -0.00053215
v -0.00786647 -0.10144562 -0.00177843
v -0.00684470 -0.10410735 -0.00120500
v -0.00695474 -0.10353291 -0.00107830
v -0.00717481 -0.10239036 -0.00089101
v -0.00747698 -0.10120667 -0.00086049
v -0.00818087 -0.09879338 -0.00398473
v -0.00769094 -0.10010684 -0.00436625
v -0.00686391 -0.10302652 -0.00465018
v -0.00779661 -0.09879338 -0.00454336
v -0.00695474 -0.10345695 -0.00397040
v -0.00685256 -0.10412160 -0.00352830
v -0.00754073 -0.10239036 -0.00292020
v -0.00787433 -0.10145511 -0.00292020
v -0.00627268 -0.09879338 -0.00034857
v -0.00627268 -0.10239036 -0.00050302
v -0.00627268 -0.10124939 -0.00041423
v -0.00627268 -0.10010684 -0.00038047
v -0.00752588 -0.10239036 -0.00177843
v -0.00708486 -0.10353291 -0.00177843
v -0.00685431 -0.10412476 -0.00177843
v -0.00327461 -0.11282682 -0.00292020
v -0.00322919 -0.11276352 -0.00177843
v -0.00342307 -0.11211471 -0.00120038
v -0.00627268 -0.10353291 -0.00070603
v -0.00286590 -0.11256571 -0.00099413
v -0.00692679 -0.10239036 -0.00468302
v -0.00170439 -0.11267016 -0.00505944
v -0.00267552 -0.11267016 -0.00484117
v -0.00246592 -0.11351837 -0.00476949
v -0.00338028 -0.11201026 -0.00451006
v -0.00737655 -0.09879338 -0.00466868
v -0.00703421 -0.10124939 -0.00470984
v -0.00685955 -0.10413584 -0.00292020
v -0.00709709 -0.10353291 -0.00292020
v -0.00322221 -0.11261635 -0.00410265
v -0.00345102 -0.11220016 -0.00374843
v -0.00513039 -0.09896429 -0.00035088
v -0.00513039 -0.09879338 -0.00034718
v -0.00513039 -0.10239036 -0.00043088
v -0.00513039 -0.10124939 -0.00040360
v -0.00170439 -0.11267016 -0.00067597
v -0.00513039 -0.10353291 -0.00045955
v -0.00256897 -0.11386335 -0.00398658
v -0.00273490 -0.11381271 -0.00292020
v -0.00259692 -0.11389341 -0.00180109
v -0.00219956 -0.11433018 -0.00143576
v -0.00249823 -0.11356742 -0.00104315
v -0.00627268 -0.10239036 -0.00478383
v -0.00170439 -0.11152760 -0.00504603
v -0.00056210 -0.11267016 -0.00507054
v -0.00056210 -0.11381271 -0.00500441
v -0.00173059 -0.11386335 -0.00485828
v -0.00627268 -0.10124939 -0.00479863
v -0.00513039 -0.10353291 -0.00486013
v -0.00136817 -0.11447734 -0.00472279
v -0.00212970 -0.11427954 -0.00431630
v -0.00724031 -0.09879338 -0.00470198
v -0.00495835 -0.09879338 -0.00034718
v -0.00170439 -0.11038505 -0.00061262
v -0.00398810 -0.10124939 -0.00040313
v -0.00170439 -0.10353291 -0.00045539
v 0.00054089 -0.10467546 -0.00048175
v -0.00170439 -0.11152760 -0.00063990
v -0.00177339 -0.11389341 -0.00093494
v -0.00056210 -0.11381271 -0.00076199
v -0.00056210 -0.11267016 -0.00066672
v -0.00229039 -0.11439506 -0.00355466
v -0.00230611 -0.11440614 -0.00292020
v -0.00230174 -0.11440297 -0.00219694
v -0.00177339 -0.11457862 -0.00180109
v -0.00143803 -0.11450583 -0.00109309
v -0.00170439 -0.11038505 -0.00502060
v -0.00056210 -0.11152760 -0.00504696
v -0.00646219 -0.09879338 -0.00475470
v -0.00513039 -0.10124939 -0.00481158
v 0.00054089 -0.11263059 -0.00507008
v 0.00054089 -0.11267016 -0.00507054
v 0.00054089 -0.11381271 -0.00500488
v 0.00054089 -0.11451849 -0.00478892
v -0.00056210 -0.11454223 -0.00478059
v -0.00627268 -0.10010684 -0.00478198
v -0.00056210 -0.11482232 -0.00406288
v -0.00173059 -0.11455172 -0.00398658
v -0.00398810 -0.09896429 -0.00035180
v -0.00398810 -0.09879338 -0.00034810
v 0.00054089 -0.10353291 -0.00045631
v -0.00056210 -0.11152760 -0.00063898
v 0.00054089 -0.11152760 -0.00063898
v 0.00054089 -0.10695898 -0.00053400
v -0.00284668 -0.10353291 -0.00045539
v -0.00056210 -0.11458496 -0.00102512
v 0.00054089 -0.11381271 -0.00076152
v 0.00054089 -0.11270972 -0.00066996
v 0.00054089 -0.11267016 -0.00066672
v 0.00054089 -0.11156717 -0.00063990
v -0.00170439 -0.11467515 -0.00292020
v -0.00056210 -0.11487772 -0.00177843
v -0.00170439 -0.10924250 -0.00499470
v -0.00056210 -0.11038505 -0.00502106
v 0.00054089 -0.11152760 -0.00504696
v -0.00530156 -0.09879338 -0.00475516
v -0.00398810 -0.10239036 -0.00483793
v 0.00054089 -0.11454381 -0.00478105
v 0.00054089 -0.11481441 -0.00408786
v 0.00054089 -0.11482390 -0.00406288
v 0.00054089 -0.11495842 -0.00292020
v -0.00056210 -0.11495525 -0.00292020
v -0.00284668 -0.09879338 -0.00045631
v 0.00054089 -0.10239036 -0.00052429
v 0.00054089 -0.11459603 -0.00105055
v 0.00054089 -0.11458496 -0.00102465
v 0.00054089 -0.11487930 -0.00177843
v 0.00054089 -0.11488246 -0.00181820
v 0.00054089 -0.11038505 -0.00502106
v -0.00513039 -0.09879338 -0.00475516
v 0.00054089 -0.10467546 -0.00489019
v -0.00201442 -0.09879338 -0.00088592
v 0.00054089 -0.10143770 -0.00090812
v -0.00415927 -0.09879338 -0.00475470
v 0.00054089 -0.10463590 -0.00488927
v -0.00174282 -0.09879338 -0.00177843
v 0.00054089 -0.10098828 -0.00167993
v 0.00054089 -0.10096296 -0.00175947
v -0.00398810 -0.09879338 -0.00475423
v 0.00054089 -0.10353291 -0.00486337
v -0.00174107 -0.09879338 -0.00195046
v 0.00054089 -0.10097087 -0.00292020
v -0.00173583 -0.09879338 -0.00292020
v -0.00291480 -0.09879338 -0.00470013
v 0.00054089 -0.10239036 -0.00480186
v 0.00054089 -0.10115444 -0.00399583
v -0.00176727 -0.09879338 -0.00308159
v -0.00280739 -0.09879338 -0.00469458
v 0.00054089 -0.10169407 -0.00469365
v -0.00230873 -0.09879338 -0.00462891
v 0.00054089 -0.10167667 -0.00467192
v -0.00203800 -0.09879338 -0.00414474
f 1 2 5
f 1 5 14
f 1 14 31
f 1 31 55
f 1 55 75
f 1 75 102
f 1 102 125
f 1 125 134
f 1 134 138
f 1 138 143
f 1 143 145
f 1 145 149
f 1 149 154
f 1 154 152
f 1 152 150
f 1 150 146
f 1 146 141
f 1 141 136
f 1 136 132
f 1 132 118
f 1 118 91
f 1 91 74
f 1 74 48
f 1 48 26
f 1 26 23
f 1 23 9
f 1 9 3
f 1 3 4
f 1 4 2
f 2 4 6
f 2 6 7
f 2 7 8
f 2 8 5
f 3 9 10
f 3 10 11
f 3 11 4
f 4 11 12
f 4 12 13
f 4 13 6
f 5 8 15
f 5 15 16
f 5 16 17
f 5 17 14
f 6 13 7
f 7 13 18
f 7 18 19
f 7 19 20
f 7 20 21
f 7 21 22
f 7 22 8
f 8 22 16
f 8 16 15
f 9 23 10
f 10 24 25
f 10 25 11
f 10 23 26
f 10 26 24
f 11 25 27
f 11 27 28
f 11 28 29
f 11 29 30
f 11 30 12
f 12 30 13
f 13 30 18
f 14 17 32
f 14 32 33
f 14 33 34
f 14 34 31
f 16 22 21
f 16 21 32
f 16 32 17
f 18 30 29
f 18 29 35
f 18 35 19
f 19 35 36
f 19 36 37
f 19 37 38
f 19 38 39
f 19 39 40
f 19 40 20
f 20 40 21
f 21 41 32
f 21 40 42
f 21 42 41
f 24 26 25
f 25 26 43
f 25 43 44
f 25 44 45
f 25 45 46
f 25 46 47
f 25 47 27
f 26 48 49
f 26 49 43
f 27 47 28
f 28 50 51
f 28 51 29
f 28 47 52
f 28 52 53
f 28 53 38
f 28 38 50
f 29 51 36
f 29 36 35
f 31 54 55
f 31 34 56
f 31 56 57
f 31 57 54
f 32 41 42
f 32 42 58
f 32 58 33
f 33 58 59
f 33 59 34
f 34 59 56
f 36 51 37
f 37 51 50
f 37 50 38
f 38 53 52
f 38 52 60
f 38 60 61
f 38 61 39
f 39 61 62
f 39 62 40
f 40 62 63
f 40 63 64
f 40 64 42
f 42 64 58
f 43 49 65
f 43 65 44
f 44 66 67
f 44 67 68
f 44 68 69
f 44 69 46
f 44 46 45
f 44 65 70
f 44 70 71
f 44 71 66
f 46 69 72
f 46 72 73
f 46 73 60
f 46 60 52
f 46 52 47
f 48 74 49
f 49 70 65
f 49 74 70
f 54 75 55
f 54 57 76
f 54 76 77
f 54 77 78
f 54 78 79
f 54 79 75
f 56 59 80
f 56 80 57
f 57 80 76
f 58 64 81
f 58 81 82
f 58 82 83
f 58 83 80
f 58 80 59
f 60 73 84
f 60 84 61
f 61 84 85
f 61 85 86
f 61 86 62
f 62 86 63
f 63 86 87
f 63 87 88
f 63 88 64
f 64 88 81
f 66 89 90
f 66 90 67
f 66 71 91
f 66 91 92
f 66 92 89
f 67 90 93
f 67 93 94
f 67 94 95
f 67 95 68
f 68 95 96
f 68 96 97
f 68 97 72
f 68 72 69
f 70 74 91
f 70 91 98
f 70 98 71
f 71 98 91
f 72 97 99
f 72 99 100
f 72 100 73
f 73 100 84
f 75 101 102
f 75 79 103
f 75 103 101
f 76 80 104
f 76 104 105
f 76 105 106
f 76 106 78
f 76 78 107
f 76 107 77
f 77 107 78
f 78 106 79
f 79 106 105
f 79 105 112
f 79 112 111
f 79 111 110
f 79 110 109
f 79 109 128
f 79 128 127
f 79 127 129
f 79 129 130
f 79 130 123
f 79 123 122
f 79 122 121
f 79 121 120
f 79 120 96
f 79 96 95
f 79 95 94
f 79 94 93
f 79 93 117
f 79 117 131
f 79 131 133
f 79 133 137
f 79 137 142
f 79 142 147
f 79 147 151
f 79 151 153
f 79 153 148
f 79 148 144
f 79 144 140
f 79 140 139
f 79 139 135
f 79 135 126
f 79 126 103
f 80 83 104
f 81 88 82
f 82 88 108
f 82 108 128
f 82 128 109
f 82 109 83
f 83 109 110
f 83 110 111
f 83 111 112
f 83 112 104
f 84 100 113
f 84 113 85
f 85 113 86
f 86 113 87
f 87 113 114
f 87 114 88
f 88 114 108
f 89 115 116
f 89 116 90
f 89 92 115
f 90 116 131
f 90 131 117
f 90 117 93
f 91 118 92
f 92 118 119
f 92 119 115
f 96 120 97
f 97 120 121
f 97 121 99
f 99 121 122
f 99 122 123
f 99 123 124
f 99 124 100
f 100 124 113
f 101 103 102
f 102 103 126
f 102 126 125
f 104 112 105
f 108 127 128
f 108 114 129
f 108 129 127
f 113 124 114
f 114 124 123
f 114 123 130
f 114 130 129
f 115 119 116
f 116 119 131
f 118 132 119
f 119 132 133
f 119 133 131
f 125 126 135
f 125 135 134
f 132 136 137
f 132 137 133
f 134 135 139
f 134 139 140
f 134 140 138
f 136 141 142
f 136 142 137
f 138 140 143
f 140 144 145
f 140 145 143
f 141 146 147
f 141 147 142
f 144 148 145
f 145 148 149
f 146 150 147
f 147 150 152
f 147 152 151
f 148 153 152
f 148 152 154
f 148 154 149
f 151 152 153

