# Blender 4.0.0
# www.blender.org
o CabinetDoorPanel003
v -0.250000 0.014000 0.350000
v 0.250000 0.014000 0.350000
v -0.250000 -0.014000 0.350000
v 0.250000 -0.014000 0.350000
v -0.250000 0.014000 -0.350000
v 0.250000 0.014000 -0.350000
v -0.250000 -0.014000 -0.350000
v 0.250000 -0.014000 -0.350000
vn -0.0000 -0.0000 1.0000
vn -0.0000 -0.0000 -1.0000
vn -0.0000 1.0000 -0.0000
vn 1.0000 -0.0000 -0.0000
vn -0.0000 -1.0000 -0.0000
vn -1.0000 -0.0000 -0.0000
vt 0.123955 0.501726
vt 0.735944 0.526726
vt 0.123955 0.526726
vt 0.299212 0.546257
vt 0.911202 0.521257
vt 0.911202 0.546257
vt 0.228900 0.985877
vt 0.840889 0.048376
vt 0.840889 0.985877
vt 0.462663 0.966345
vt 0.487663 0.028845
vt 0.487663 0.966345
vt 0.053642 0.966345
vt 0.665632 0.028845
vt 0.665632 0.966345
vt 0.457649 0.966345
vt 0.482649 0.028845
vt 0.482649 0.966345
vt 0.735944 0.501726
vt 0.299212 0.521257
vt 0.228899 0.048376
vt 0.462663 0.028845
vt 0.053642 0.028845
vt 0.457649 0.028845
s 1
f 3/1/1 2/2/1 1/3/1
f 6/4/2 7/5/2 5/6/2
f 2/7/3 5/8/3 1/9/3
f 4/10/4 6/11/4 2/12/4
f 3/13/5 8/14/5 4/15/5
f 1/16/6 7/17/6 3/18/6
f 3/1/1 4/19/1 2/2/1
f 6/4/2 8/20/2 7/5/2
f 2/7/3 6/21/3 5/8/3
f 4/10/4 8/22/4 6/11/4
f 3/13/5 7/23/5 8/14/5
f 1/16/6 5/24/6 7/17/6
