# Blender 4.0.0
# www.blender.org
o CoffeeMachine045_Button001
v -0.016397 -0.119280 0.101152
v -0.016397 -0.115885 0.101110
v -0.016243 -0.115870 0.102677
v -0.015181 -0.119450 0.098330
v -0.015600 -0.119437 0.099714
v -0.014498 -0.119462 0.097054
v -0.013581 -0.119473 0.095936
v -0.012463 -0.119481 0.095019
v -0.011187 -0.119488 0.094337
v -0.009803 -0.119492 0.093917
v -0.008363 -0.119493 0.093775
v -0.006923 -0.119492 0.093916
v -0.005539 -0.119488 0.094337
v -0.004263 -0.119482 0.095018
v -0.003145 -0.119473 0.095936
v -0.002227 -0.119462 0.097054
v -0.001545 -0.119450 0.098330
v -0.001125 -0.119437 0.099714
v -0.000983 -0.119423 0.101154
v -0.001125 -0.119410 0.102593
v -0.001545 -0.119397 0.103978
v -0.002227 -0.119385 0.105253
v -0.003145 -0.119374 0.106371
v -0.004263 -0.119365 0.107289
v -0.005539 -0.119359 0.107971
v -0.006923 -0.119355 0.108391
v -0.008363 -0.119354 0.108533
v -0.009803 -0.119355 0.108391
v -0.011187 -0.119359 0.107971
v -0.012463 -0.119366 0.107289
v -0.013581 -0.119374 0.106372
v -0.014499 -0.119385 0.105253
v -0.015180 -0.119397 0.103978
v -0.015600 -0.119410 0.102593
v -0.015742 -0.119424 0.101154
v -0.016243 -0.119295 0.099585
v -0.016243 -0.115899 0.099543
v -0.015043 -0.115927 0.096647
v -0.015785 -0.115914 0.098036
v -0.014044 -0.115938 0.095429
v -0.012826 -0.115948 0.094430
v -0.011437 -0.115955 0.093688
v -0.009930 -0.119355 0.093273
v -0.009930 -0.115959 0.093231
v -0.008363 -0.119356 0.093118
v -0.008363 -0.115960 0.093076
v -0.006795 -0.115959 0.093231
v -0.005288 -0.119350 0.093730
v -0.005288 -0.115955 0.093688
v -0.003899 -0.115947 0.094430
v -0.002682 -0.115938 0.095429
v -0.001683 -0.115927 0.096647
v -0.000941 -0.115914 0.098036
v -0.000483 -0.115899 0.099543
v -0.000329 -0.119280 0.101152
v -0.000329 -0.115885 0.101110
v -0.000483 -0.115870 0.102677
v -0.000940 -0.115855 0.104185
v -0.001683 -0.115842 0.105573
v -0.002682 -0.115831 0.106791
v -0.003900 -0.115821 0.107790
v -0.005288 -0.115814 0.108532
v -0.006795 -0.115810 0.108989
v -0.008363 -0.115809 0.109144
v -0.009930 -0.115810 0.108989
v -0.011437 -0.115814 0.108532
v -0.012826 -0.115821 0.107790
v -0.014044 -0.115831 0.106791
v -0.015043 -0.115842 0.105573
v -0.015785 -0.119251 0.104226
v -0.015786 -0.115856 0.104185
v -0.016205 -0.119381 0.101153
v -0.016054 -0.119396 0.099623
v -0.015993 -0.119413 0.101154
v -0.015846 -0.119427 0.099665
v -0.015740 -0.119364 0.098097
v -0.015608 -0.119410 0.098153
v -0.015412 -0.119440 0.098234
v -0.015002 -0.119377 0.096717
v -0.014884 -0.119423 0.096797
v -0.014707 -0.119453 0.096915
v -0.014008 -0.119388 0.095507
v -0.013908 -0.119434 0.095608
v -0.013758 -0.119464 0.095759
v -0.012799 -0.119398 0.094514
v -0.012720 -0.119443 0.094633
v -0.012602 -0.119472 0.094810
v -0.011418 -0.119405 0.093777
v -0.011364 -0.119450 0.093908
v -0.011283 -0.119479 0.094105
v -0.009893 -0.119454 0.093462
v -0.009852 -0.119483 0.093671
v -0.008363 -0.119456 0.093311
v -0.008363 -0.119485 0.093524
v -0.006805 -0.119409 0.093322
v -0.006833 -0.119454 0.093462
v -0.006874 -0.119483 0.093671
v -0.005362 -0.119450 0.093908
v -0.005443 -0.119479 0.094105
v -0.003927 -0.119398 0.094514
v -0.004006 -0.119443 0.094633
v -0.004124 -0.119472 0.094810
v -0.002717 -0.119388 0.095507
v -0.002818 -0.119434 0.095608
v -0.002968 -0.119463 0.095759
v -0.001724 -0.119377 0.096717
v -0.001842 -0.119423 0.096796
v -0.002019 -0.119453 0.096915
v -0.000987 -0.119364 0.098097
v -0.001118 -0.119410 0.098152
v -0.001314 -0.119440 0.098234
v -0.000532 -0.119350 0.099595
v -0.000671 -0.119396 0.099623
v -0.000880 -0.119427 0.099665
v -0.000520 -0.119381 0.101153
v -0.000733 -0.119413 0.101154
v -0.000532 -0.119320 0.102710
v -0.000672 -0.119367 0.102683
v -0.000880 -0.119399 0.102642
v -0.000986 -0.119306 0.104208
v -0.001117 -0.119353 0.104154
v -0.001314 -0.119385 0.104073
v -0.001724 -0.119293 0.105588
v -0.001842 -0.119340 0.105510
v -0.002019 -0.119373 0.105392
v -0.002717 -0.119282 0.106798
v -0.002818 -0.119329 0.106698
v -0.002968 -0.119362 0.106548
v -0.003927 -0.119272 0.107791
v -0.004006 -0.119320 0.107674
v -0.004124 -0.119353 0.107497
v -0.005308 -0.119265 0.108529
v -0.005362 -0.119313 0.108398
v -0.005443 -0.119346 0.108202
v -0.006805 -0.119261 0.108983
v -0.006833 -0.119309 0.108845
v -0.006874 -0.119342 0.108637
v -0.008363 -0.119259 0.109136
v -0.008363 -0.119307 0.108995
v -0.008363 -0.119340 0.108783
v -0.009921 -0.119261 0.108983
v -0.009893 -0.119309 0.108844
v -0.009851 -0.119342 0.108637
v -0.011418 -0.119265 0.108529
v -0.011364 -0.119313 0.108398
v -0.011283 -0.119346 0.108202
v -0.012799 -0.119272 0.107791
v -0.012720 -0.119320 0.107674
v -0.012602 -0.119353 0.107497
v -0.014009 -0.119282 0.106798
v -0.013908 -0.119329 0.106698
v -0.013758 -0.119362 0.106548
v -0.015002 -0.119293 0.105588
v -0.014883 -0.119340 0.105510
v -0.014707 -0.119373 0.105392
v -0.015608 -0.119353 0.104154
v -0.015412 -0.119385 0.104073
v -0.016194 -0.119320 0.102710
v -0.016054 -0.119367 0.102683
v -0.015846 -0.119399 0.102642
v -0.008363 -0.119423 0.101154
vn -0.9995 -0.0004 -0.0330
vn -0.9991 -0.0042 0.0432
vn -0.9847 -0.0076 0.1738
vn -0.9738 -0.0072 0.2275
vn -0.9712 -0.0081 -0.2382
vn -0.9850 -0.0023 -0.1725
vn -0.8126 -0.0216 -0.5824
vn -0.8493 -0.0210 -0.5275
vn -0.9107 -0.0194 -0.4127
vn -0.9324 -0.0145 -0.3612
vn -0.6835 -0.0234 -0.7296
vn -0.7300 -0.0230 -0.6830
vn -0.5279 -0.0249 -0.8489
vn -0.5827 -0.0246 -0.8123
vn -0.3626 -0.0213 -0.9317
vn -0.4220 -0.0257 -0.9062
vn -0.1627 -0.0122 -0.9866
vn -0.2370 -0.0166 -0.9714
vn 0.0440 -0.0176 -0.9989
vn -0.0227 -0.0124 -0.9997
vn 0.2161 -0.0219 -0.9761
vn 0.1626 -0.0222 -0.9864
vn 0.4229 -0.0165 -0.9060
vn 0.3522 -0.0160 -0.9358
vn 0.5822 -0.0246 -0.8127
vn 0.5364 -0.0203 -0.8437
vn 0.7297 -0.0230 -0.6834
vn 0.6833 -0.0235 -0.7297
vn 0.8491 -0.0210 -0.5278
vn 0.8128 -0.0216 -0.5822
vn 0.9357 -0.0189 -0.3523
vn 0.9107 -0.0195 -0.4126
vn 0.9847 -0.0120 -0.1740
vn 0.9714 -0.0173 -0.2368
vn 0.9990 -0.0048 0.0439
vn 0.9995 -0.0048 -0.0325
vn 0.9738 -0.0118 0.2270
vn 0.9849 -0.0077 0.1728
vn 0.9109 -0.0095 0.4126
vn 0.9359 -0.0100 0.3522
vn 0.8128 -0.0074 0.5825
vn 0.8492 -0.0079 0.5281
vn 0.6837 -0.0056 0.7298
vn 0.7299 -0.0060 0.6836
vn 0.5281 -0.0040 0.8492
vn 0.5825 -0.0044 0.8128
vn 0.3523 -0.0029 0.9359
vn 0.4128 -0.0031 0.9108
vn 0.1630 -0.0023 0.9866
vn 0.2273 -0.0024 0.9738
vn -0.0326 -0.0022 0.9995
vn 0.0330 -0.0022 0.9995
vn -0.2271 -0.0024 0.9739
vn -0.1626 -0.0024 0.9867
vn -0.4127 -0.0032 0.9109
vn -0.3519 -0.0029 0.9360
vn -0.5825 -0.0044 0.8128
vn -0.5277 -0.0040 0.8494
vn -0.7299 -0.0059 0.6835
vn -0.6833 -0.0055 0.7301
vn -0.8433 -0.0031 0.5375
vn -0.8067 -0.0072 0.5910
vn -0.9399 -0.0010 0.3415
vn -0.9107 0.0004 0.4131
vn -0.3119 -0.9489 -0.0487
vn -0.3202 -0.9473 0.0090
vn -0.4593 -0.8852 -0.0742
vn -0.4626 -0.8866 0.0065
vn -0.0954 -0.9954 -0.0096
vn -0.0976 -0.9952 0.0094
vn 0.0008 -1.0000 0.0095
vn 0.0009 -1.0000 0.0093
vn -0.2160 -0.9731 -0.0802
vn -0.2948 -0.9491 -0.1112
vn -0.0901 -0.9955 -0.0279
vn 0.0008 -1.0000 0.0097
vn -0.1943 -0.9735 -0.1207
vn -0.2585 -0.9520 -0.1638
vn -0.0812 -0.9957 -0.0448
vn 0.0008 -1.0000 0.0098
vn -0.1657 -0.9737 -0.1565
vn -0.2200 -0.9524 -0.2110
vn -0.0691 -0.9958 -0.0597
vn 0.0006 -1.0000 0.0100
vn -0.1299 -0.9741 -0.1852
vn -0.1730 -0.9527 -0.2498
vn -0.0541 -0.9960 -0.0716
vn 0.0006 -0.9999 0.0101
vn -0.0852 -0.9735 -0.2122
vn -0.1077 -0.9531 -0.2829
vn -0.0371 -0.9961 -0.0801
vn 0.0004 -0.9999 0.0101
vn -0.0624 -0.9503 -0.3049
vn -0.0883 -0.8910 -0.4453
vn -0.0191 -0.9961 -0.0862
vn 0.0002 -0.9999 0.0103
vn -0.0043 -0.9511 -0.3088
vn -0.0087 -0.8885 -0.4588
vn -0.0000 -0.9961 -0.0881
vn -0.0000 -0.9999 0.0103
vn 0.0523 -0.9735 -0.2227
vn 0.0721 -0.9511 -0.3003
vn 0.0191 -0.9960 -0.0869
vn 0.1177 -0.9508 -0.2866
vn 0.1708 -0.8903 -0.4220
vn 0.0372 -0.9961 -0.0802
vn -0.0002 -0.9999 0.0102
vn 0.1302 -0.9740 -0.1856
vn 0.1760 -0.9500 -0.2579
vn 0.0541 -0.9960 -0.0715
vn -0.0004 -0.9999 0.0102
vn 0.1655 -0.9737 -0.1564
vn 0.2207 -0.9521 -0.2117
vn 0.0687 -0.9959 -0.0592
vn -0.0005 -0.9999 0.0101
vn 0.1945 -0.9734 -0.1207
vn 0.2592 -0.9518 -0.1642
vn 0.0810 -0.9957 -0.0447
vn -0.0007 -0.9999 0.0100
vn 0.2168 -0.9729 -0.0806
vn 0.2894 -0.9507 -0.1110
vn 0.0897 -0.9956 -0.0277
vn -0.0007 -1.0000 0.0099
vn 0.2343 -0.9717 -0.0312
vn 0.3082 -0.9505 -0.0399
vn 0.0954 -0.9954 -0.0096
vn -0.0008 -1.0000 0.0097
vn 0.3182 -0.9480 0.0046
vn 0.4633 -0.8862 0.0015
vn 0.0975 -0.9952 0.0094
vn -0.0008 -1.0000 0.0094
vn 0.2295 -0.9718 0.0548
vn 0.3121 -0.9475 0.0691
vn 0.0964 -0.9949 0.0285
vn -0.0009 -1.0000 0.0094
vn 0.2167 -0.9712 0.0989
vn 0.2888 -0.9487 0.1285
vn 0.0896 -0.9949 0.0466
vn -0.0008 -1.0000 0.0093
vn 0.1951 -0.9708 0.1396
vn 0.2593 -0.9484 0.1824
vn 0.0810 -0.9947 0.0635
vn -0.0006 -1.0000 0.0090
vn 0.1661 -0.9704 0.1752
vn 0.2212 -0.9477 0.2300
vn 0.0692 -0.9945 0.0785
vn -0.0007 -1.0000 0.0089
vn 0.1303 -0.9702 0.2042
vn 0.1736 -0.9474 0.2689
vn 0.0538 -0.9945 0.0902
vn -0.0006 -1.0000 0.0089
vn 0.0897 -0.9700 0.2261
vn 0.1194 -0.9472 0.2974
vn 0.0373 -0.9943 0.0995
vn -0.0003 -1.0000 0.0087
vn 0.0459 -0.9698 0.2397
vn 0.0612 -0.9467 0.3161
vn 0.0190 -0.9943 0.1050
vn -0.0002 -1.0000 0.0086
vn -0.0000 -0.9700 0.2432
vn -0.0001 -0.9472 0.3205
vn -0.0000 -0.9942 0.1071
vn -0.0000 -1.0000 0.0086
vn -0.0458 -0.9698 0.2395
vn -0.0611 -0.9467 0.3162
vn -0.0190 -0.9943 0.1051
vn -0.0898 -0.9700 0.2260
vn -0.1194 -0.9472 0.2975
vn -0.0373 -0.9943 0.0995
vn 0.0002 -1.0000 0.0087
vn -0.1302 -0.9702 0.2042
vn -0.1734 -0.9475 0.2685
vn -0.0541 -0.9944 0.0904
vn 0.0005 -1.0000 0.0088
vn -0.1659 -0.9705 0.1751
vn -0.2211 -0.9477 0.2300
vn -0.0689 -0.9946 0.0782
vn 0.0005 -1.0000 0.0087
vn -0.2012 -0.9700 0.1363
vn -0.2653 -0.9488 0.1713
vn -0.0811 -0.9947 0.0637
vn 0.0006 -1.0000 0.0089
vn -0.2925 -0.9467 0.1349
vn -0.4261 -0.8840 0.1924
vn -0.0897 -0.9949 0.0465
vn 0.0007 -1.0000 0.0091
vn -0.2340 -0.9710 0.0495
vn -0.3133 -0.9477 0.0606
vn -0.0960 -0.9950 0.0285
vn 0.0008 -1.0000 0.0092
vn -0.0000 -1.0000 0.0094
vt 0.583937 0.085389
vt 0.583939 0.085788
vt 0.585419 0.100422
vt 0.585887 0.100737
vt 0.585418 0.070350
vt 0.585419 0.070752
vt 0.596929 0.042567
vt 0.597327 0.043239
vt 0.589807 0.055892
vt 0.590246 0.056481
vt 0.606515 0.030887
vt 0.606854 0.031635
vt 0.618193 0.021303
vt 0.618458 0.022108
vt 0.631522 0.014180
vt 0.631702 0.015031
vt 0.645977 0.009795
vt 0.645979 0.010197
vt 0.661018 0.008313
vt 0.661013 0.008717
vt 0.676054 0.009794
vt 0.675961 0.010673
vt 0.690513 0.014182
vt 0.690514 0.014582
vt 0.703838 0.021302
vt 0.703572 0.022108
vt 0.715521 0.030887
vt 0.715181 0.031635
vt 0.725103 0.042568
vt 0.724706 0.043240
vt 0.732224 0.055892
vt 0.731782 0.056482
vt 0.736612 0.070351
vt 0.736143 0.070851
vt 0.738092 0.085386
vt 0.738092 0.085788
vt 0.736612 0.100422
vt 0.736143 0.100738
vt 0.732226 0.114883
vt 0.731784 0.115108
vt 0.725105 0.128205
vt 0.724706 0.128350
vt 0.715518 0.139885
vt 0.715178 0.139954
vt 0.703835 0.149470
vt 0.703573 0.149481
vt 0.690513 0.156590
vt 0.690328 0.156559
vt 0.676054 0.160977
vt 0.675959 0.160918
vt 0.661015 0.162459
vt 0.661017 0.162388
vt 0.645981 0.160979
vt 0.646071 0.160917
vt 0.631519 0.156590
vt 0.631706 0.156559
vt 0.618194 0.149470
vt 0.618460 0.149482
vt 0.606514 0.139882
vt 0.606850 0.139954
vt 0.596928 0.128203
vt 0.597326 0.128350
vt 0.589805 0.114882
vt 0.589806 0.115281
vt 0.587226 0.071123
vt 0.585780 0.085800
vt 0.589224 0.071523
vt 0.587817 0.085805
vt 0.591583 0.071993
vt 0.590221 0.085804
vt 0.591508 0.057012
vt 0.593388 0.057792
vt 0.595609 0.058714
vt 0.598457 0.044004
vt 0.600151 0.045140
vt 0.602154 0.046478
vt 0.607817 0.032601
vt 0.609257 0.034046
vt 0.610955 0.035746
vt 0.619217 0.023249
vt 0.620349 0.024945
vt 0.621685 0.026945
vt 0.632226 0.016294
vt 0.633003 0.018182
vt 0.633923 0.020402
vt 0.646340 0.012011
vt 0.646734 0.014016
vt 0.647203 0.016375
vt 0.661015 0.010567
vt 0.661015 0.012608
vt 0.661014 0.015014
vt 0.675695 0.012012
vt 0.675298 0.014014
vt 0.674826 0.016372
vt 0.689809 0.016294
vt 0.689030 0.018180
vt 0.688109 0.020402
vt 0.702815 0.023248
vt 0.701682 0.024944
vt 0.700350 0.026944
vt 0.714216 0.032599
vt 0.712777 0.034049
vt 0.711076 0.035747
vt 0.723572 0.044002
vt 0.721880 0.045140
vt 0.719881 0.046476
vt 0.730526 0.057011
vt 0.728645 0.057793
vt 0.726423 0.058716
vt 0.734809 0.071124
vt 0.732806 0.071523
vt 0.730452 0.071994
vt 0.736255 0.085800
vt 0.734217 0.085804
vt 0.731812 0.085806
vt 0.734805 0.100476
vt 0.732809 0.100085
vt 0.730451 0.099615
vt 0.730529 0.114592
vt 0.728643 0.113815
vt 0.726423 0.112897
vt 0.723575 0.127596
vt 0.721879 0.126468
vt 0.719879 0.125134
vt 0.714214 0.138998
vt 0.712777 0.137559
vt 0.711078 0.135862
vt 0.702819 0.148354
vt 0.701683 0.146663
vt 0.700348 0.144666
vt 0.689806 0.155305
vt 0.689030 0.153426
vt 0.688110 0.151206
vt 0.675691 0.159588
vt 0.675299 0.157593
vt 0.674828 0.155236
vt 0.661017 0.161033
vt 0.661018 0.159001
vt 0.661015 0.156596
vt 0.646339 0.159587
vt 0.646735 0.157594
vt 0.647202 0.155234
vt 0.632225 0.155306
vt 0.633002 0.153428
vt 0.633923 0.151207
vt 0.619217 0.148354
vt 0.620347 0.146664
vt 0.621683 0.144664
vt 0.607817 0.138997
vt 0.609255 0.137560
vt 0.610956 0.135864
vt 0.598460 0.127598
vt 0.600153 0.126469
vt 0.602152 0.125135
vt 0.591505 0.114591
vt 0.593388 0.113816
vt 0.595610 0.112895
vt 0.587226 0.100477
vt 0.589225 0.100084
vt 0.591580 0.099617
vt 0.661016 0.085805
s 1
f 2/1/1 1/2/2 3/3/3
f 3/3/3 1/2/2 158/4/4
f 37/5/5 36/6/6 2/1/1
f 2/1/1 36/6/6 1/2/2
f 38/7/7 79/8/8 39/9/9
f 39/9/9 79/8/8 76/10/10
f 40/11/11 82/12/12 38/7/7
f 38/7/7 82/12/12 79/8/8
f 41/13/13 85/14/14 40/11/11
f 40/11/11 85/14/14 82/12/12
f 42/15/15 88/16/16 41/13/13
f 41/13/13 88/16/16 85/14/14
f 44/17/17 43/18/18 42/15/15
f 42/15/15 43/18/18 88/16/16
f 46/19/19 45/20/20 44/17/17
f 44/17/17 45/20/20 43/18/18
f 47/21/21 95/22/22 46/19/19
f 46/19/19 95/22/22 45/20/20
f 49/23/23 48/24/24 47/21/21
f 47/21/21 48/24/24 95/22/22
f 50/25/25 100/26/26 49/23/23
f 49/23/23 100/26/26 48/24/24
f 51/27/27 103/28/28 50/25/25
f 50/25/25 103/28/28 100/26/26
f 52/29/29 106/30/30 51/27/27
f 51/27/27 106/30/30 103/28/28
f 53/31/31 109/32/32 52/29/29
f 52/29/29 109/32/32 106/30/30
f 54/33/33 112/34/34 53/31/31
f 53/31/31 112/34/34 109/32/32
f 56/35/35 55/36/36 54/33/33
f 54/33/33 55/36/36 112/34/34
f 57/37/37 117/38/38 56/35/35
f 56/35/35 117/38/38 55/36/36
f 58/39/39 120/40/40 57/37/37
f 57/37/37 120/40/40 117/38/38
f 59/41/41 123/42/42 58/39/39
f 58/39/39 123/42/42 120/40/40
f 60/43/43 126/44/44 59/41/41
f 59/41/41 126/44/44 123/42/42
f 61/45/45 129/46/46 60/43/43
f 60/43/43 129/46/46 126/44/44
f 62/47/47 132/48/48 61/45/45
f 61/45/45 132/48/48 129/46/46
f 63/49/49 135/50/50 62/47/47
f 62/47/47 135/50/50 132/48/48
f 64/51/51 138/52/52 63/49/49
f 63/49/49 138/52/52 135/50/50
f 65/53/53 141/54/54 64/51/51
f 64/51/51 141/54/54 138/52/52
f 66/55/55 144/56/56 65/53/53
f 65/53/53 144/56/56 141/54/54
f 67/57/57 147/58/58 66/55/55
f 66/55/55 147/58/58 144/56/56
f 68/59/59 150/60/60 67/57/57
f 67/57/57 150/60/60 147/58/58
f 69/61/61 153/62/62 68/59/59
f 68/59/59 153/62/62 150/60/60
f 71/63/63 70/64/64 69/61/61
f 69/61/61 70/64/64 153/62/62
f 3/3/3 158/4/4 71/63/63
f 71/63/63 158/4/4 70/64/64
f 39/9/9 76/10/10 37/5/5
f 37/5/5 76/10/10 36/6/6
f 73/65/65 72/66/66 36/6/67
f 36/6/67 72/66/66 1/2/68
f 75/67/69 74/68/70 73/65/65
f 73/65/65 74/68/70 72/66/66
f 5/69/71 35/70/72 75/67/69
f 75/67/69 35/70/72 74/68/70
f 77/71/73 73/65/65 76/10/74
f 76/10/74 73/65/65 36/6/67
f 78/72/75 75/67/69 77/71/73
f 77/71/73 75/67/69 73/65/65
f 4/73/76 5/69/71 78/72/75
f 78/72/75 5/69/71 75/67/69
f 80/74/77 77/71/73 79/8/78
f 79/8/78 77/71/73 76/10/74
f 81/75/79 78/72/75 80/74/77
f 80/74/77 78/72/75 77/71/73
f 6/76/80 4/73/76 81/75/79
f 81/75/79 4/73/76 78/72/75
f 83/77/81 80/74/77 82/12/82
f 82/12/82 80/74/77 79/8/78
f 84/78/83 81/75/79 83/77/81
f 83/77/81 81/75/79 80/74/77
f 7/79/84 6/76/80 84/78/83
f 84/78/83 6/76/80 81/75/79
f 86/80/85 83/77/81 85/14/86
f 85/14/86 83/77/81 82/12/82
f 87/81/87 84/78/83 86/80/85
f 86/80/85 84/78/83 83/77/81
f 8/82/88 7/79/84 87/81/87
f 87/81/87 7/79/84 84/78/83
f 89/83/89 86/80/85 88/16/90
f 88/16/90 86/80/85 85/14/86
f 90/84/91 87/81/87 89/83/89
f 89/83/89 87/81/87 86/80/85
f 9/85/92 8/82/88 90/84/91
f 90/84/91 8/82/88 87/81/87
f 91/86/93 89/83/89 43/18/94
f 43/18/94 89/83/89 88/16/90
f 90/84/91 89/83/89 92/87/95
f 92/87/95 89/83/89 91/86/93
f 10/88/96 9/85/92 92/87/95
f 92/87/95 9/85/92 90/84/91
f 93/89/97 91/86/93 45/20/98
f 45/20/98 91/86/93 43/18/94
f 94/90/99 92/87/95 93/89/97
f 93/89/97 92/87/95 91/86/93
f 11/91/100 10/88/96 94/90/99
f 94/90/99 10/88/96 92/87/95
f 96/92/101 93/89/97 95/22/102
f 95/22/102 93/89/97 45/20/98
f 97/93/103 94/90/99 96/92/101
f 96/92/101 94/90/99 93/89/97
f 12/94/100 11/91/100 97/93/103
f 97/93/103 11/91/100 94/90/99
f 98/95/104 96/92/101 48/24/105
f 48/24/105 96/92/101 95/22/102
f 99/96/106 97/93/103 98/95/104
f 98/95/104 97/93/103 96/92/101
f 13/97/107 12/94/100 99/96/106
f 99/96/106 12/94/100 97/93/103
f 101/98/108 98/95/104 100/26/109
f 100/26/109 98/95/104 48/24/105
f 102/99/110 99/96/106 101/98/108
f 101/98/108 99/96/106 98/95/104
f 14/100/111 13/97/107 102/99/110
f 102/99/110 13/97/107 99/96/106
f 104/101/112 101/98/108 103/28/113
f 103/28/113 101/98/108 100/26/109
f 105/102/114 102/99/110 104/101/112
f 104/101/112 102/99/110 101/98/108
f 15/103/115 14/100/111 105/102/114
f 105/102/114 14/100/111 102/99/110
f 107/104/116 104/101/112 106/30/117
f 106/30/117 104/101/112 103/28/113
f 108/105/118 105/102/114 107/104/116
f 107/104/116 105/102/114 104/101/112
f 16/106/119 15/103/115 108/105/118
f 108/105/118 15/103/115 105/102/114
f 110/107/120 107/104/116 109/32/121
f 109/32/121 107/104/116 106/30/117
f 111/108/122 108/105/118 110/107/120
f 110/107/120 108/105/118 107/104/116
f 17/109/123 16/106/119 111/108/122
f 111/108/122 16/106/119 108/105/118
f 113/110/124 110/107/120 112/34/125
f 112/34/125 110/107/120 109/32/121
f 114/111/126 111/108/122 113/110/124
f 113/110/124 111/108/122 110/107/120
f 18/112/127 17/109/123 114/111/126
f 114/111/126 17/109/123 111/108/122
f 115/113/128 113/110/124 55/36/129
f 55/36/129 113/110/124 112/34/125
f 116/114/130 114/111/126 115/113/128
f 115/113/128 114/111/126 113/110/124
f 19/115/131 18/112/127 116/114/130
f 116/114/130 18/112/127 114/111/126
f 118/116/132 115/113/128 117/38/133
f 117/38/133 115/113/128 55/36/129
f 119/117/134 116/114/130 118/116/132
f 118/116/132 116/114/130 115/113/128
f 20/118/135 19/115/131 119/117/134
f 119/117/134 19/115/131 116/114/130
f 121/119/136 118/116/132 120/40/137
f 120/40/137 118/116/132 117/38/133
f 122/120/138 119/117/134 121/119/136
f 121/119/136 119/117/134 118/116/132
f 21/121/139 20/118/135 122/120/138
f 122/120/138 20/118/135 119/117/134
f 124/122/140 121/119/136 123/42/141
f 123/42/141 121/119/136 120/40/137
f 125/123/142 122/120/138 124/122/140
f 124/122/140 122/120/138 121/119/136
f 22/124/143 21/121/139 125/123/142
f 125/123/142 21/121/139 122/120/138
f 127/125/144 124/122/140 126/44/145
f 126/44/145 124/122/140 123/42/141
f 128/126/146 125/123/142 127/125/144
f 127/125/144 125/123/142 124/122/140
f 23/127/147 22/124/143 128/126/146
f 128/126/146 22/124/143 125/123/142
f 130/128/148 127/125/144 129/46/149
f 129/46/149 127/125/144 126/44/145
f 131/129/150 128/126/146 130/128/148
f 130/128/148 128/126/146 127/125/144
f 24/130/151 23/127/147 131/129/150
f 131/129/150 23/127/147 128/126/146
f 133/131/152 130/128/148 132/48/153
f 132/48/153 130/128/148 129/46/149
f 134/132/154 131/129/150 133/131/152
f 133/131/152 131/129/150 130/128/148
f 25/133/155 24/130/151 134/132/154
f 134/132/154 24/130/151 131/129/150
f 136/134/156 133/131/152 135/50/157
f 135/50/157 133/131/152 132/48/153
f 134/132/154 133/131/152 137/135/158
f 137/135/158 133/131/152 136/134/156
f 26/136/159 25/133/155 137/135/158
f 137/135/158 25/133/155 134/132/154
f 139/137/160 136/134/156 138/52/161
f 138/52/161 136/134/156 135/50/157
f 140/138/162 137/135/158 139/137/160
f 139/137/160 137/135/158 136/134/156
f 27/139/163 26/136/159 140/138/162
f 140/138/162 26/136/159 137/135/158
f 142/140/164 139/137/160 141/54/165
f 141/54/165 139/137/160 138/52/161
f 143/141/166 140/138/162 142/140/164
f 142/140/164 140/138/162 139/137/160
f 28/142/163 27/139/163 143/141/166
f 143/141/166 27/139/163 140/138/162
f 145/143/167 142/140/164 144/56/168
f 144/56/168 142/140/164 141/54/165
f 146/144/169 143/141/166 145/143/167
f 145/143/167 143/141/166 142/140/164
f 29/145/170 28/142/163 146/144/169
f 146/144/169 28/142/163 143/141/166
f 148/146/171 145/143/167 147/58/172
f 147/58/172 145/143/167 144/56/168
f 149/147/173 146/144/169 148/146/171
f 148/146/171 146/144/169 145/143/167
f 30/148/174 29/145/170 149/147/173
f 149/147/173 29/145/170 146/144/169
f 151/149/175 148/146/171 150/60/176
f 150/60/176 148/146/171 147/58/172
f 152/150/177 149/147/173 151/149/175
f 151/149/175 149/147/173 148/146/171
f 31/151/178 30/148/174 152/150/177
f 152/150/177 30/148/174 149/147/173
f 154/152/179 151/149/175 153/62/180
f 153/62/180 151/149/175 150/60/176
f 155/153/181 152/150/177 154/152/179
f 154/152/179 152/150/177 151/149/175
f 32/154/182 31/151/178 155/153/181
f 155/153/181 31/151/178 152/150/177
f 156/155/183 154/152/179 70/64/184
f 70/64/184 154/152/179 153/62/180
f 157/156/185 155/153/181 156/155/183
f 156/155/183 155/153/181 154/152/179
f 33/157/186 32/154/182 157/156/185
f 157/156/185 32/154/182 155/153/181
f 159/158/187 156/155/183 158/4/188
f 158/4/188 156/155/183 70/64/184
f 160/159/189 157/156/185 159/158/187
f 159/158/187 157/156/185 156/155/183
f 34/160/190 33/157/186 160/159/189
f 160/159/189 33/157/186 157/156/185
f 72/66/66 159/158/187 1/2/68
f 1/2/68 159/158/187 158/4/188
f 74/68/70 160/159/189 72/66/66
f 72/66/66 160/159/189 159/158/187
f 35/70/72 34/160/190 74/68/70
f 74/68/70 34/160/190 160/159/189
f 5/69/71 4/73/76 161/161/191
f 4/73/76 6/76/80 161/161/191
f 6/76/80 7/79/84 161/161/191
f 7/79/84 8/82/88 161/161/191
f 8/82/88 9/85/92 161/161/191
f 9/85/92 10/88/96 161/161/191
f 10/88/96 11/91/100 161/161/191
f 11/91/100 12/94/100 161/161/191
f 12/94/100 13/97/107 161/161/191
f 13/97/107 14/100/111 161/161/191
f 14/100/111 15/103/115 161/161/191
f 15/103/115 16/106/119 161/161/191
f 16/106/119 17/109/123 161/161/191
f 17/109/123 18/112/127 161/161/191
f 18/112/127 19/115/131 161/161/191
f 19/115/131 20/118/135 161/161/191
f 20/118/135 21/121/139 161/161/191
f 21/121/139 22/124/143 161/161/191
f 22/124/143 23/127/147 161/161/191
f 23/127/147 24/130/151 161/161/191
f 24/130/151 25/133/155 161/161/191
f 25/133/155 26/136/159 161/161/191
f 26/136/159 27/139/163 161/161/191
f 27/139/163 28/142/163 161/161/191
f 28/142/163 29/145/170 161/161/191
f 29/145/170 30/148/174 161/161/191
f 30/148/174 31/151/178 161/161/191
f 31/151/178 32/154/182 161/161/191
f 32/154/182 33/157/186 161/161/191
f 33/157/186 34/160/190 161/161/191
f 34/160/190 35/70/72 161/161/191
f 35/70/72 5/69/71 161/161/191
