# Blender 4.0.0
# www.blender.org
o door_Clear
v -0.21494600 -0.19614900 -0.22399300
v 0.21788500 -0.19614900 -0.22399300
v -0.21494600 -0.19614900 0.13565100
v 0.21788500 -0.19614900 0.13565100
v -0.21494600 -0.19463800 -0.22399300
v 0.21788500 -0.19463800 -0.22399300
v -0.21494600 -0.19463800 0.13565100
v 0.21788500 -0.19463800 0.13565100
vn -0.0000 -1.0000 -0.0000
vn -0.0000 1.0000 -0.0000
vt 0.868811 0.106216
vt 0.946413 0.012823
vt 0.946413 0.106216
vt 0.868811 0.012823
s 0
f 4/1/1 1/2/1 2/3/1
f 4/1/1 3/4/1 1/2/1
f 8/1/2 6/3/2 5/2/2
f 8/1/2 5/2/2 7/4/2
