# Blender 4.0.0
# www.blender.org
o TurkeySlice001
v 0.024478 -0.021505 -0.001491
v -0.026664 -0.021120 -0.000760
v 0.025635 0.021620 -0.001014
v -0.026480 0.021401 -0.000869
v 0.010086 -0.024612 -0.001464
v -0.011203 -0.024508 -0.001262
v -0.011149 0.024624 -0.001311
v 0.010368 0.024553 -0.001266
v 0.034574 0.016050 -0.000862
v 0.033587 -0.016154 -0.001419
v -0.035564 -0.015458 -0.000946
v -0.038926 -0.007296 -0.000764
v -0.035100 0.015985 -0.000926
v 0.011415 -0.016567 -0.001704
v 0.011713 0.016469 -0.001297
v -0.012646 -0.016441 -0.001542
v -0.013478 -0.007289 -0.001381
v -0.012460 0.016481 -0.001361
v 0.031812 -0.017736 -0.001450
v 0.029651 -0.019137 -0.001493
v 0.027178 -0.020384 -0.001518
v -0.015774 -0.023936 -0.000989
v -0.019813 -0.023166 -0.000798
v -0.023412 -0.022218 -0.000723
v -0.033619 0.017569 -0.000902
v -0.031662 0.018982 -0.000901
v -0.029260 0.020250 -0.000884
v 0.014990 0.024066 -0.001095
v 0.018991 0.023412 -0.001034
v 0.022495 0.022594 -0.001023
v 0.021552 -0.022506 -0.001415
v 0.018295 -0.023380 -0.001342
v 0.014528 -0.024092 -0.001340
v 0.004930 -0.024916 -0.001661
v -0.000591 -0.025000 -0.001740
v -0.006069 -0.024864 -0.001563
v -0.023317 0.022439 -0.000891
v -0.019765 0.023349 -0.000971
v -0.015735 0.024090 -0.001112
v -0.005989 0.024924 -0.001535
v -0.000474 0.025000 -0.001645
v 0.005105 0.024870 -0.001511
v 0.011458 0.018503 -0.001298
v 0.011150 0.020525 -0.001241
v 0.010794 0.022541 -0.001185
v -0.012205 0.018525 -0.001338
v -0.011872 0.020562 -0.001276
v -0.011497 0.022594 -0.001217
v 0.028460 0.020470 -0.000978
v 0.030954 0.019164 -0.000927
v 0.033020 0.017691 -0.000885
v 0.035576 0.014245 -0.000859
v 0.036136 0.012312 -0.000868
v 0.036793 0.010293 -0.000912
v 0.039617 0.002023 -0.001207
v 0.039864 -0.002115 -0.001295
v 0.038886 -0.007300 -0.001345
v 0.035894 -0.012448 -0.001378
v 0.034931 -0.014378 -0.001405
v -0.029561 -0.019873 -0.000854
v -0.032062 -0.018509 -0.000909
v -0.034077 -0.017033 -0.000917
v -0.036497 -0.013793 -0.001020
v -0.036955 -0.012042 -0.001032
v -0.039984 -0.002169 -0.000845
v -0.040000 0.002011 -0.000844
v -0.037323 0.010292 -0.000946
v -0.036684 0.012304 -0.001068
v -0.036102 0.014218 -0.001016
v 0.010535 -0.022612 -0.001344
v 0.010849 -0.020608 -0.001519
v 0.011135 -0.018594 -0.001674
v 0.011618 -0.014522 -0.001752
v 0.011767 -0.012463 -0.001777
v 0.012674 -0.007290 -0.001548
v 0.013027 -0.002115 -0.001495
v 0.013009 0.002023 -0.001438
v 0.012151 0.010299 -0.001295
v 0.011975 0.012364 -0.001284
v 0.011882 0.014422 -0.001286
v -0.011555 -0.022492 -0.001146
v -0.012005 -0.020477 -0.001346
v -0.012389 -0.018460 -0.001508
v -0.012820 -0.014421 -0.001601
v -0.012906 -0.012395 -0.001632
v -0.013832 -0.002124 -0.001435
v -0.013812 0.002021 -0.001404
v -0.012926 0.010299 -0.001418
v -0.012773 0.012366 -0.001510
v -0.012654 0.014427 -0.001447
v -0.006713 -0.016556 -0.001831
v -0.000684 -0.016609 -0.002010
v 0.005409 -0.016609 -0.001918
v -0.007070 -0.007288 -0.001679
v -0.000585 -0.007288 -0.001863
v 0.006023 -0.007288 -0.001768
v -0.006538 0.016531 -0.001591
v -0.000495 0.016543 -0.001708
v 0.005635 0.016522 -0.001561
v 0.017178 -0.016492 -0.001580
v 0.022733 -0.016393 -0.001548
v 0.028181 -0.016277 -0.001499
v 0.019263 -0.007292 -0.001443
v 0.025803 -0.007294 -0.001426
v 0.032350 -0.007297 -0.001369
v 0.017601 0.016389 -0.001131
v 0.023324 0.016288 -0.001058
v 0.028967 0.016172 -0.000967
v -0.029907 -0.015749 -0.001032
v -0.024222 -0.016022 -0.001151
v -0.018477 -0.016259 -0.001312
v -0.032580 -0.007294 -0.000853
v -0.026228 -0.007292 -0.000978
v -0.019861 -0.007290 -0.001145
v -0.029532 0.016134 -0.000978
v -0.023928 0.016273 -0.001061
v -0.018248 0.016392 -0.001181
v -0.017770 0.018355 -0.001157
v -0.023156 0.018126 -0.001039
v -0.028418 0.017857 -0.000958
v -0.017155 0.020285 -0.001112
v -0.022160 0.019909 -0.001012
v -0.026963 0.019463 -0.000948
v -0.016447 0.022193 -0.001052
v -0.020993 0.021642 -0.000956
v -0.025219 0.020978 -0.000907
v 0.027798 0.017929 -0.000991
v 0.022521 0.018153 -0.001066
v 0.017109 0.018348 -0.001134
v 0.026266 0.019571 -0.001016
v 0.021486 0.019950 -0.001058
v 0.016489 0.020274 -0.001101
v 0.024459 0.021113 -0.001024
v 0.020287 0.021695 -0.001031
v 0.015778 0.022176 -0.001054
v 0.005536 0.018604 -0.001553
v -0.000488 0.018646 -0.001691
v -0.006429 0.018621 -0.001569
v 0.005430 0.020690 -0.001476
v -0.000459 0.020758 -0.001607
v -0.006275 0.020719 -0.001492
v 0.005299 0.022780 -0.001412
v -0.000438 0.022877 -0.001541
v -0.006109 0.022820 -0.001431
v 0.005160 -0.022838 -0.001491
v -0.000520 -0.022896 -0.001561
v -0.006166 -0.022782 -0.001399
v 0.005243 -0.020761 -0.001677
v -0.000593 -0.020794 -0.001750
v -0.006393 -0.020702 -0.001592
v 0.005308 -0.018684 -0.001872
v -0.000670 -0.018698 -0.001956
v -0.006598 -0.018626 -0.001785
v 0.005477 -0.014536 -0.001980
v -0.000701 -0.014529 -0.002080
v -0.006798 -0.014494 -0.001896
v 0.005530 -0.012464 -0.002016
v -0.000705 -0.012457 -0.002121
v -0.006840 -0.012436 -0.001933
v 0.006199 -0.002115 -0.001756
v -0.000588 -0.002116 -0.001892
v -0.007250 -0.002119 -0.001726
v 0.006210 0.002023 -0.001705
v -0.000564 0.002023 -0.001847
v -0.007224 0.002023 -0.001689
v 0.005821 0.010300 -0.001558
v -0.000507 0.010300 -0.001718
v -0.006751 0.010300 -0.001627
v 0.005738 0.012371 -0.001556
v -0.000511 0.012373 -0.001737
v -0.006681 0.012372 -0.001683
v 0.005702 0.014444 -0.001556
v -0.000503 0.014453 -0.001724
v -0.006625 0.014448 -0.001643
v 0.023453 -0.021073 -0.001488
v 0.019562 -0.021702 -0.001397
v 0.015316 -0.022226 -0.001312
v 0.025247 -0.019583 -0.001529
v 0.020744 -0.019996 -0.001502
v 0.015996 -0.020346 -0.001465
v 0.026850 -0.017994 -0.001518
v 0.021822 -0.018233 -0.001543
v 0.016625 -0.018439 -0.001563
v 0.029185 -0.014421 -0.001507
v 0.023414 -0.014461 -0.001586
v 0.017588 -0.014496 -0.001625
v 0.029906 -0.012452 -0.001492
v 0.023905 -0.012457 -0.001597
v 0.017884 -0.012461 -0.001646
v 0.033178 -0.002115 -0.001306
v 0.026479 -0.002115 -0.001353
v 0.019782 -0.002115 -0.001370
v 0.032998 0.002023 -0.001229
v 0.026364 0.002023 -0.001281
v 0.019722 0.002023 -0.001304
v 0.030674 0.010295 -0.000989
v 0.024538 0.010296 -0.001085
v 0.018384 0.010298 -0.001145
v 0.030146 0.012327 -0.000957
v 0.024137 0.012342 -0.001058
v 0.018101 0.012354 -0.001126
v 0.029724 0.014297 -0.000955
v 0.023846 0.014345 -0.001054
v 0.017922 0.014388 -0.001124
v -0.016533 -0.022029 -0.000961
v -0.021133 -0.021414 -0.000871
v -0.025435 -0.020679 -0.000848
v -0.017332 -0.020118 -0.001165
v -0.022403 -0.019648 -0.001054
v -0.027283 -0.019099 -0.000976
v -0.017997 -0.018196 -0.001286
v -0.023449 -0.017852 -0.001129
v -0.028790 -0.017456 -0.001009
v -0.018792 -0.014304 -0.001376
v -0.024722 -0.014153 -0.001223
v -0.030618 -0.013979 -0.001106
v -0.018947 -0.012329 -0.001406
v -0.024968 -0.012245 -0.001250
v -0.030966 -0.012146 -0.001126
v -0.020390 -0.002132 -0.001203
v -0.026932 -0.002143 -0.001042
v -0.033461 -0.002156 -0.000924
v -0.020377 0.002019 -0.001180
v -0.026928 0.002017 -0.001026
v -0.033467 0.002014 -0.000916
v -0.019060 0.010298 -0.001238
v -0.025163 0.010296 -0.001105
v -0.031247 0.010294 -0.001008
v -0.018803 0.012355 -0.001348
v -0.024787 0.012340 -0.001222
v -0.030742 0.012322 -0.001129
v -0.018596 0.014390 -0.001279
v -0.024469 0.014339 -0.001158
v -0.030296 0.014281 -0.001071
v 0.033404 -0.016131 -0.001421
v 0.031638 -0.017706 -0.001452
v 0.029488 -0.019099 -0.001495
v 0.027028 -0.020339 -0.001519
v 0.024341 -0.021456 -0.001490
v -0.011153 -0.024439 -0.001255
v -0.015700 -0.023870 -0.000986
v -0.019716 -0.023105 -0.000801
v -0.023296 -0.022163 -0.000731
v -0.026531 -0.021071 -0.000769
v -0.034918 0.015966 -0.000928
v -0.033446 0.017541 -0.000904
v -0.031500 0.018945 -0.000904
v -0.029113 0.020205 -0.000888
v -0.026348 0.021351 -0.000873
v 0.010326 0.024484 -0.001263
v 0.014925 0.023999 -0.001093
v 0.018901 0.023349 -0.001033
v 0.022382 0.022537 -0.001023
v 0.025502 0.021569 -0.001015
v 0.021432 -0.022452 -0.001413
v 0.018197 -0.023319 -0.001338
v 0.014457 -0.024026 -0.001334
v 0.010044 -0.024543 -0.001457
v 0.004915 -0.024846 -0.001651
v -0.000585 -0.024929 -0.001730
v -0.006042 -0.024793 -0.001554
v -0.023202 0.022383 -0.000893
v -0.019670 0.023288 -0.000971
v -0.015665 0.024024 -0.001110
v -0.011106 0.024555 -0.001308
v -0.005970 0.024854 -0.001531
v -0.000475 0.024929 -0.001640
v 0.005085 0.024800 -0.001506
v 0.028310 0.020426 -0.000981
v 0.030789 0.019127 -0.000930
v 0.032842 0.017664 -0.000888
v 0.034388 0.016032 -0.000865
v 0.035386 0.014234 -0.000860
v 0.035944 0.012306 -0.000869
v 0.036599 0.010290 -0.000913
v 0.039410 0.002022 -0.001206
v 0.039657 -0.002116 -0.001293
v 0.038684 -0.007298 -0.001343
v 0.035703 -0.012437 -0.001379
v 0.034743 -0.014362 -0.001407
v -0.029413 -0.019830 -0.000862
v -0.031900 -0.018473 -0.000914
v -0.033904 -0.017005 -0.000920
v -0.035382 -0.015439 -0.000950
v -0.036311 -0.013782 -0.001023
v -0.036767 -0.012037 -0.001034
v -0.038728 -0.007296 -0.000767
v -0.039781 -0.002169 -0.000847
v -0.039797 0.002011 -0.000846
v -0.037132 0.010289 -0.000947
v -0.036496 0.012298 -0.001069
v -0.035916 0.014207 -0.001018
v 0.024619 -0.021505 0.001375
v -0.026528 -0.021120 0.002094
v 0.025756 0.021620 0.001857
v -0.026362 0.021401 0.001997
v 0.010221 -0.024612 0.001384
v -0.011070 -0.024508 0.001586
v -0.011032 0.024624 0.001554
v 0.010484 0.024553 0.001598
v 0.034698 0.016050 0.002010
v 0.039025 -0.007300 0.001526
v 0.033730 -0.016154 0.001453
v -0.035421 -0.015458 0.001931
v -0.034976 0.015985 0.001952
v 0.011558 -0.016567 0.001170
v 0.012814 -0.007290 0.001325
v 0.011836 0.016469 0.001578
v -0.012503 -0.016441 0.001333
v -0.012335 0.016481 0.001514
v 0.031955 -0.017736 0.001422
v 0.029794 -0.019137 0.001378
v 0.027321 -0.020384 0.001352
v -0.015642 -0.023936 0.001855
v -0.019682 -0.023166 0.002043
v -0.023280 -0.022218 0.002121
v -0.033496 0.017569 0.001974
v -0.031539 0.018982 0.001973
v -0.029140 0.020250 0.001986
v 0.015107 0.024066 0.001769
v 0.019109 0.023412 0.001831
v 0.022615 0.022594 0.001845
v 0.021691 -0.022507 0.001444
v 0.018432 -0.023380 0.001511
v 0.014663 -0.024092 0.001509
v 0.005065 -0.024916 0.001189
v -0.000456 -0.025000 0.001111
v -0.005935 -0.024864 0.001287
v -0.023200 0.022439 0.001972
v -0.019649 0.023349 0.001891
v -0.015618 0.024090 0.001751
v -0.005872 0.024924 0.001330
v -0.000356 0.025000 0.001220
v 0.005222 0.024870 0.001354
v 0.011580 0.018503 0.001575
v 0.011270 0.020525 0.001626
v 0.010910 0.022541 0.001676
v -0.012083 0.018525 0.001537
v -0.011753 0.020562 0.001592
v -0.011380 0.022594 0.001644
v 0.028582 0.020470 0.001895
v 0.031077 0.019164 0.001946
v 0.033143 0.017691 0.001988
v 0.035702 0.014245 0.002014
v 0.036262 0.012312 0.002005
v 0.036921 0.010293 0.001960
v 0.039750 0.002023 0.001664
v 0.040000 -0.002115 0.001577
v 0.036035 -0.012448 0.001494
v 0.035073 -0.014378 0.001466
v -0.029421 -0.019873 0.002012
v -0.031919 -0.018509 0.001965
v -0.033934 -0.017033 0.001960
v -0.036355 -0.013793 0.001857
v -0.036813 -0.012042 0.001845
v -0.038786 -0.007296 0.002113
v -0.039847 -0.002169 0.002033
v -0.039866 0.002011 0.002033
v -0.037195 0.010292 0.001932
v -0.036557 0.012304 0.001809
v -0.035977 0.014218 0.001861
v 0.010668 -0.022612 0.001499
v 0.010987 -0.020608 0.001338
v 0.011277 -0.018594 0.001196
v 0.011761 -0.014522 0.001121
v 0.011910 -0.012463 0.001097
v 0.013164 -0.002115 0.001378
v 0.013143 0.002023 0.001436
v 0.012279 0.010299 0.001579
v 0.012101 0.012364 0.001590
v 0.012006 0.014422 0.001588
v -0.011423 -0.022492 0.001697
v -0.011867 -0.020477 0.001513
v -0.012247 -0.018460 0.001364
v -0.012677 -0.014421 0.001274
v -0.012764 -0.012395 0.001243
v -0.013338 -0.007289 0.001494
v -0.013696 -0.002124 0.001441
v -0.013678 0.002021 0.001471
v -0.012798 0.010299 0.001458
v -0.012646 0.012366 0.001366
v -0.012528 0.014427 0.001429
v -0.006570 -0.016556 0.001043
v -0.000541 -0.016609 0.000865
v 0.005552 -0.016609 0.000956
v -0.006414 0.016531 0.001285
v -0.000371 0.016543 0.001167
v 0.005758 0.016522 0.001313
v 0.017322 -0.016492 0.001293
v 0.022877 -0.016393 0.001325
v 0.028324 -0.016277 0.001373
v 0.017724 0.016389 0.001743
v 0.023448 0.016288 0.001816
v 0.029091 0.016172 0.001906
v -0.029764 -0.015749 0.001844
v -0.024079 -0.016022 0.001725
v -0.018333 -0.016259 0.001564
v -0.029408 0.016134 0.001899
v -0.023803 0.016273 0.001816
v -0.018124 0.016392 0.001695
v -0.017647 0.018355 0.001718
v -0.023033 0.018126 0.001837
v -0.028295 0.017857 0.001918
v -0.017035 0.020285 0.001757
v -0.022039 0.019909 0.001859
v -0.026842 0.019463 0.001925
v -0.016330 0.022193 0.001810
v -0.020875 0.021642 0.001908
v -0.025100 0.020978 0.001960
v 0.027921 0.017929 0.001882
v 0.022644 0.018153 0.001807
v 0.017231 0.018348 0.001739
v 0.026388 0.019571 0.001857
v 0.021607 0.019950 0.001813
v 0.016609 0.020274 0.001768
v 0.024579 0.021113 0.001847
v 0.020406 0.021695 0.001837
v 0.015895 0.022176 0.001810
v 0.005658 0.018604 0.001320
v -0.000365 0.018646 0.001182
v -0.006307 0.018621 0.001305
v 0.005549 0.020690 0.001390
v -0.000340 0.020758 0.001259
v -0.006156 0.020719 0.001374
v 0.005416 0.022780 0.001448
v -0.000322 0.022877 0.001319
v -0.005993 0.022820 0.001430
v 0.005291 -0.022838 0.001349
v -0.000389 -0.022896 0.001279
v -0.006035 -0.022782 0.001442
v 0.005380 -0.020761 0.001178
v -0.000456 -0.020794 0.001105
v -0.006256 -0.020702 0.001264
v 0.005450 -0.018684 0.000998
v -0.000528 -0.018698 0.000914
v -0.006455 -0.018626 0.001086
v 0.005620 -0.014536 0.000893
v -0.000559 -0.014529 0.000795
v -0.006655 -0.014494 0.000979
v 0.005672 -0.012464 0.000858
v -0.000563 -0.012457 0.000753
v -0.006698 -0.012436 0.000942
v 0.006163 -0.007288 0.001106
v -0.000445 -0.007288 0.001011
v -0.006930 -0.007288 0.001196
v 0.006336 -0.002115 0.001118
v -0.000451 -0.002116 0.000983
v -0.007113 -0.002119 0.001149
v 0.006344 0.002023 0.001169
v -0.000430 0.002023 0.001027
v -0.007090 0.002023 0.001187
v 0.005949 0.010300 0.001316
v -0.000379 0.010300 0.001157
v -0.006623 0.010300 0.001248
v 0.005864 0.012371 0.001319
v -0.000384 0.012373 0.001138
v -0.006554 0.012372 0.001192
v 0.005827 0.014444 0.001318
v -0.000377 0.014453 0.001151
v -0.006500 0.014448 0.001232
v 0.023594 -0.021073 0.001378
v 0.019701 -0.021702 0.001461
v 0.015451 -0.022226 0.001537
v 0.025390 -0.019583 0.001341
v 0.020885 -0.019996 0.001365
v 0.016136 -0.020346 0.001398
v 0.026994 -0.017994 0.001354
v 0.021965 -0.018233 0.001329
v 0.016768 -0.018439 0.001308
v 0.029327 -0.014421 0.001365
v 0.023557 -0.014461 0.001287
v 0.017731 -0.014496 0.001248
v 0.030048 -0.012452 0.001380
v 0.024047 -0.012457 0.001275
v 0.018027 -0.012461 0.001227
v 0.032490 -0.007297 0.001503
v 0.025943 -0.007294 0.001446
v 0.019403 -0.007292 0.001430
v 0.033315 -0.002115 0.001566
v 0.026616 -0.002115 0.001519
v 0.019919 -0.002115 0.001503
v 0.033132 0.002023 0.001643
v 0.026497 0.002023 0.001592
v 0.019856 0.002023 0.001569
v 0.030802 0.010295 0.001883
v 0.024665 0.010296 0.001789
v 0.018511 0.010298 0.001728
v 0.030272 0.012327 0.001916
v 0.024263 0.012342 0.001816
v 0.018227 0.012354 0.001748
v 0.029849 0.014297 0.001918
v 0.023971 0.014345 0.001820
v 0.018047 0.014388 0.001750
v -0.016400 -0.022029 0.001884
v -0.020998 -0.021414 0.001980
v -0.025297 -0.020679 0.002010
v -0.017193 -0.020118 0.001698
v -0.022262 -0.019648 0.001813
v -0.027141 -0.019099 0.001895
v -0.017854 -0.018196 0.001587
v -0.023305 -0.017852 0.001746
v -0.028647 -0.017456 0.001867
v -0.018649 -0.014304 0.001500
v -0.024579 -0.014153 0.001653
v -0.030475 -0.013979 0.001771
v -0.018805 -0.012329 0.001470
v -0.024826 -0.012245 0.001626
v -0.030824 -0.012146 0.001751
v -0.019721 -0.007290 0.001731
v -0.026087 -0.007292 0.001898
v -0.032440 -0.007294 0.002024
v -0.020253 -0.002132 0.001673
v -0.026795 -0.002143 0.001835
v -0.033324 -0.002156 0.001953
v -0.020243 0.002019 0.001696
v -0.026794 0.002017 0.001851
v -0.033333 0.002014 0.001961
v -0.018932 0.010298 0.001638
v -0.025035 0.010296 0.001772
v -0.031119 0.010294 0.001869
v -0.018676 0.012355 0.001528
v -0.024660 0.012340 0.001655
v -0.030615 0.012322 0.001748
v -0.018470 0.014390 0.001597
v -0.024343 0.014339 0.001719
v -0.030171 0.014281 0.001805
v 0.033547 -0.016131 0.001451
v 0.031781 -0.017706 0.001420
v 0.029632 -0.019099 0.001376
v 0.027171 -0.020339 0.001351
v 0.024483 -0.021456 0.001376
v -0.011020 -0.024439 0.001592
v -0.015568 -0.023870 0.001858
v -0.019585 -0.023105 0.002041
v -0.023164 -0.022163 0.002114
v -0.026395 -0.021071 0.002085
v -0.034794 0.015966 0.001949
v -0.033322 0.017541 0.001973
v -0.031378 0.018945 0.001971
v -0.028992 0.020205 0.001982
v -0.026230 0.021351 0.001993
v 0.010443 0.024484 0.001600
v 0.015042 0.023999 0.001771
v 0.019019 0.023349 0.001832
v 0.022502 0.022537 0.001845
v 0.025622 0.021569 0.001856
v 0.021571 -0.022452 0.001446
v 0.018333 -0.023319 0.001514
v 0.014592 -0.024026 0.001514
v 0.010178 -0.024543 0.001391
v 0.005049 -0.024846 0.001198
v -0.000450 -0.024929 0.001121
v -0.005908 -0.024793 0.001295
v -0.023085 0.022383 0.001969
v -0.019554 0.023288 0.001890
v -0.015548 0.024024 0.001752
v -0.010988 0.024555 0.001557
v -0.005852 0.024854 0.001334
v -0.000357 0.024929 0.001225
v 0.005202 0.024800 0.001358
v 0.028431 0.020426 0.001892
v 0.030912 0.019127 0.001943
v 0.032966 0.017664 0.001985
v 0.034512 0.016032 0.002008
v 0.035511 0.014235 0.002012
v 0.036071 0.012306 0.002004
v 0.036727 0.010290 0.001960
v 0.039544 0.002022 0.001666
v 0.039794 -0.002116 0.001579
v 0.038823 -0.007298 0.001528
v 0.035844 -0.012437 0.001492
v 0.034885 -0.014362 0.001464
v -0.029273 -0.019830 0.002004
v -0.031757 -0.018473 0.001960
v -0.033760 -0.017005 0.001956
v -0.035239 -0.015439 0.001927
v -0.036168 -0.013782 0.001854
v -0.036625 -0.012037 0.001843
v -0.038588 -0.007296 0.002111
v -0.039644 -0.002169 0.002031
v -0.039663 0.002011 0.002032
v -0.037004 0.010289 0.001931
v -0.036369 0.012298 0.001808
v -0.035790 0.014207 0.001859
vn -0.0203 0.0366 -0.9991
vn -0.0288 0.0379 -0.9989
vn -0.0274 0.0249 -0.9993
vn -0.0190 0.0222 -0.9996
vn -0.0147 0.0317 -0.9994
vn -0.0136 0.0193 -0.9997
vn -0.0228 0.0298 -0.9993
vn -0.0307 0.0133 -0.9994
vn -0.0173 0.0418 -0.9990
vn -0.0363 0.0258 -0.9990
vn -0.0342 0.0295 -0.9990
vn -0.0262 0.0356 -0.9990
vn -0.0187 0.0374 -0.9991
vn -0.0133 0.0382 -0.9992
vn -0.0095 0.0188 -0.9998
vn -0.0094 0.0407 -0.9991
vn -0.0107 0.0231 -0.9997
vn -0.0136 0.0419 -0.9990
vn -0.0161 0.0410 -0.9990
vn -0.0197 0.0180 -0.9996
vn -0.0246 -0.0152 -0.9996
vn -0.0326 -0.0416 -0.9986
vn -0.0382 -0.0550 -0.9978
vn -0.0379 -0.0005 -0.9993
vn -0.0372 0.0367 -0.9986
vn 0.0139 0.0040 -0.9999
vn 0.0123 0.0052 -0.9999
vn 0.0091 0.0151 -0.9998
vn 0.0176 -0.0001 -0.9998
vn 0.0200 0.0126 -0.9997
vn 0.0188 0.0274 -0.9994
vn 0.0074 0.0070 -0.9999
vn 0.0059 0.0121 -0.9999
vn 0.0184 0.0106 -0.9998
vn 0.0186 0.0003 -0.9998
vn 0.0182 0.0003 -0.9998
vn 0.0150 0.0028 -0.9999
vn 0.0138 0.0011 -0.9999
vn 0.0199 0.0013 -0.9998
vn 0.0359 0.0011 -0.9994
vn 0.0360 0.0184 -0.9992
vn 0.0354 0.0341 -0.9988
vn 0.0357 0.0024 -0.9994
vn 0.0235 -0.0328 -0.9992
vn 0.0381 -0.0471 -0.9982
vn 0.0067 -0.0143 -0.9999
vn 0.0022 -0.0008 -1.0000
vn 0.0080 0.0021 -1.0000
vn 0.0168 0.0023 -0.9999
vn 0.0202 -0.0002 -0.9998
vn 0.0326 0.0359 -0.9988
vn 0.0012 0.0238 -0.9997
vn 0.0015 0.0355 -0.9994
vn 0.0332 0.0220 -0.9992
vn -0.0302 0.0356 -0.9989
vn -0.0302 0.0251 -0.9992
vn 0.0327 -0.0049 -0.9995
vn 0.0019 -0.0086 -1.0000
vn -0.0299 -0.0076 -0.9995
vn 0.0343 0.0025 -0.9994
vn 0.0019 0.0077 -1.0000
vn -0.0282 0.0183 -0.9994
vn -0.0282 -0.0607 -0.9978
vn 0.0016 -0.0616 -0.9981
vn 0.0313 -0.0568 -0.9979
vn -0.0081 -0.0943 -0.9955
vn 0.0222 -0.0923 -0.9955
vn 0.0222 -0.0073 -0.9997
vn -0.0081 -0.0034 -1.0000
vn -0.0398 -0.0116 -0.9991
vn -0.0394 -0.0974 -0.9945
vn -0.0078 -0.0617 -0.9981
vn 0.0237 -0.0584 -0.9980
vn -0.0392 -0.0602 -0.9974
vn 0.0222 -0.0211 -0.9995
vn 0.0247 0.0886 -0.9958
vn 0.0206 0.1084 -0.9939
vn -0.0079 0.1147 -0.9934
vn -0.0379 0.1087 -0.9933
vn -0.0482 0.0893 -0.9948
vn -0.0480 -0.0333 -0.9983
vn -0.0461 -0.1004 -0.9939
vn -0.0450 -0.0553 -0.9975
vn -0.0395 -0.0287 -0.9988
vn -0.0448 -0.0278 -0.9986
vn -0.0074 -0.0294 -0.9995
vn 0.0254 -0.0270 -0.9993
vn 0.0288 -0.0226 -0.9993
vn 0.0268 -0.0486 -0.9985
vn 0.0234 -0.0860 -0.9960
vn -0.0071 0.0152 -0.9999
vn 0.0268 0.0144 -0.9995
vn 0.0265 -0.0242 -0.9994
vn -0.0073 -0.0267 -0.9996
vn -0.0399 -0.0260 -0.9989
vn -0.0395 0.0147 -0.9991
vn -0.0067 0.0217 -0.9997
vn 0.0255 0.0219 -0.9994
vn -0.0373 0.0187 -0.9991
vn 0.0295 -0.0206 -0.9994
vn -0.0442 -0.0256 -0.9987
vn -0.0432 0.0139 -0.9990
vn -0.0413 0.0159 -0.9990
vn 0.0258 0.0225 -0.9994
vn 0.0292 0.0133 -0.9995
vn -0.0036 0.0027 -1.0000
vn 0.0287 0.0075 -0.9996
vn -0.0348 -0.0010 -0.9994
vn -0.0397 -0.0032 -0.9992
vn -0.0381 0.0045 -0.9993
vn -0.0328 0.0083 -0.9994
vn -0.0002 0.0128 -0.9999
vn 0.0305 0.0160 -0.9994
vn 0.0296 0.0175 -0.9994
vn 0.0280 0.0118 -0.9995
vn 0.0333 0.0107 -0.9994
vn 0.0073 0.0029 -1.0000
vn -0.0241 -0.0085 -0.9997
vn -0.0321 -0.0193 -0.9993
vn 0.0329 0.0145 -0.9994
vn 0.0355 0.0009 -0.9994
vn 0.0088 -0.0010 -1.0000
vn -0.0206 -0.0017 -0.9998
vn 0.0358 -0.0001 -0.9994
vn 0.0051 0.0075 -1.0000
vn -0.0233 0.0233 -0.9995
vn -0.0291 -0.0039 -0.9996
vn -0.0304 0.0383 -0.9988
vn 0.0354 -0.0006 -0.9994
vn 0.0345 0.0043 -0.9994
vn -0.0046 -0.0386 -0.9992
vn 0.0010 -0.0103 -0.9999
vn -0.0102 -0.0273 -0.9996
vn -0.0126 -0.0411 -0.9991
vn 0.0054 -0.0681 -0.9977
vn 0.0015 -0.0376 -0.9993
vn 0.0027 -0.0127 -0.9999
vn 0.0089 0.0014 -1.0000
vn 0.0108 -0.0320 -0.9994
vn 0.0024 -0.0086 -1.0000
vn -0.0117 -0.0193 -0.9997
vn -0.0197 -0.0170 -0.9997
vn -0.0144 0.0126 -0.9998
vn 0.0064 0.0550 -0.9985
vn 0.0132 -0.0185 -0.9997
vn 0.0068 -0.0134 -0.9999
vn 0.0132 -0.0056 -0.9999
vn 0.0141 0.0001 -0.9999
vn 0.0137 0.0067 -0.9999
vn 0.0113 0.0049 -0.9999
vn 0.0108 0.0119 -0.9999
vn 0.0165 0.0107 -0.9998
vn 0.0162 -0.0057 -0.9999
vn 0.0096 -0.0150 -0.9998
vn 0.0138 0.0128 -0.9998
vn 0.0139 -0.0186 -0.9997
vn 0.0084 0.0125 -0.9999
vn 0.0073 0.0201 -0.9998
vn 0.0102 0.0236 -0.9997
vn 0.0146 0.0019 -0.9999
vn -0.0032 0.0099 -0.9999
vn 0.0114 0.0074 -0.9999
vn 0.0052 0.0154 -0.9999
vn 0.0050 0.0150 -0.9999
vn 0.0104 0.0147 -0.9998
vn 0.0118 0.0192 -0.9997
vn 0.0065 0.0224 -0.9997
vn 0.0065 0.0261 -0.9996
vn -0.0029 0.0274 -0.9996
vn -0.0045 0.0157 -0.9999
vn 0.0138 0.0256 -0.9996
vn 0.0122 0.0204 -0.9997
vn 0.0168 0.0165 -0.9997
vn 0.0063 0.0294 -0.9995
vn 0.0161 0.0122 -0.9998
vn 0.0137 0.0097 -0.9999
vn 0.0184 0.0070 -0.9998
vn 0.0173 0.0030 -0.9998
vn 0.0141 0.0027 -0.9999
vn 0.0191 0.0012 -0.9998
vn 0.0117 0.0057 -0.9999
vn 0.0094 0.0157 -0.9998
vn -0.0374 -0.1001 -0.9943
vn -0.0330 -0.1011 -0.9943
vn -0.0287 -0.0915 -0.9954
vn -0.0411 -0.0670 -0.9969
vn -0.0270 -0.1170 -0.9928
vn -0.0224 -0.0729 -0.9971
vn -0.0353 -0.0478 -0.9982
vn -0.0266 -0.0393 -0.9989
vn -0.0211 -0.0326 -0.9992
vn -0.0426 0.0493 -0.9979
vn -0.0349 -0.0173 -0.9992
vn -0.0301 -0.0866 -0.9958
vn -0.0223 -0.1011 -0.9946
vn -0.0263 -0.1236 -0.9920
vn -0.0183 -0.0491 -0.9986
vn -0.0169 -0.0311 -0.9994
vn -0.0202 -0.0384 -0.9991
vn -0.0163 -0.0438 -0.9989
vn -0.0256 -0.0340 -0.9991
vn -0.0344 -0.0299 -0.9990
vn -0.0317 0.0141 -0.9994
vn -0.0240 -0.0313 -0.9992
vn -0.0232 0.0158 -0.9996
vn -0.0328 -0.0282 -0.9991
vn -0.0186 -0.0322 -0.9993
vn -0.0178 0.0181 -0.9997
vn -0.0310 0.0162 -0.9994
vn -0.0226 0.0170 -0.9996
vn -0.0166 0.0171 -0.9997
vn -0.0147 -0.0308 -0.9994
vn -0.0135 0.0207 -0.9997
vn -0.0123 0.0169 -0.9998
vn -0.0299 -0.0047 -0.9995
vn -0.0213 -0.0061 -0.9998
vn -0.0150 -0.0077 -0.9999
vn -0.0107 -0.0088 -0.9999
vn -0.0097 -0.0044 -0.9999
vn -0.0138 -0.0027 -0.9999
vn -0.0200 -0.0008 -0.9998
vn -0.0286 0.0015 -0.9996
vn -0.0260 -0.0261 -0.9993
vn -0.0190 -0.0294 -0.9994
vn -0.0132 -0.0317 -0.9994
vn -0.0088 -0.0335 -0.9994
vn -0.0184 -0.0094 -0.9998
vn -0.0245 -0.0066 -0.9997
vn -0.0129 -0.0119 -0.9998
vn -0.0183 0.0452 -0.9988
vn -0.0246 0.0448 -0.9987
vn -0.0129 0.0441 -0.9989
vn -0.0089 -0.0147 -0.9999
vn -0.0092 0.0427 -0.9990
vn 0.4396 -0.5628 -0.7000
vn 0.5307 -0.4841 -0.6957
vn 0.3608 -0.6106 -0.7050
vn 0.2969 -0.6414 -0.7075
vn 0.2416 -0.6665 -0.7053
vn -0.1072 -0.6645 -0.7395
vn -0.1419 -0.6766 -0.7226
vn -0.1773 -0.7001 -0.6917
vn -0.2156 -0.7208 -0.6588
vn -0.2616 -0.7193 -0.6435
vn -0.4900 0.5608 -0.6674
vn -0.5997 0.4630 -0.6527
vn -0.3889 0.6255 -0.6765
vn -0.3118 0.6687 -0.6750
vn -0.2558 0.6911 -0.6760
vn 0.0849 0.6877 -0.7210
vn 0.1073 0.6922 -0.7137
vn 0.1406 0.6923 -0.7077
vn 0.1871 0.6848 -0.7043
vn 0.2449 0.6676 -0.7031
vn 0.1908 -0.6855 -0.7026
vn 0.1441 -0.6894 -0.7099
vn 0.1076 -0.6802 -0.7251
vn 0.0803 -0.6677 -0.7401
vn 0.0440 -0.6578 -0.7519
vn -0.0111 -0.6537 -0.7567
vn -0.0665 -0.6569 -0.7510
vn -0.2109 0.6960 -0.6863
vn -0.1697 0.6919 -0.7018
vn -0.1293 0.6881 -0.7141
vn -0.0908 0.6865 -0.7214
vn -0.0488 0.6827 -0.7291
vn 0.0045 0.6796 -0.7336
vn 0.0545 0.6820 -0.7293
vn 0.3097 0.6426 -0.7009
vn 0.3847 0.6061 -0.6962
vn 0.4793 0.5407 -0.6913
vn 0.5864 0.4277 -0.6879
vn 0.6644 0.2787 -0.6934
vn 0.6597 0.2134 -0.7206
vn 0.6535 0.2397 -0.7180
vn 0.7001 0.1560 -0.6968
vn 0.7108 -0.0351 -0.7025
vn 0.6778 -0.2487 -0.6919
vn 0.6076 -0.3201 -0.7269
vn 0.6096 -0.3711 -0.7005
vn -0.3208 -0.6840 -0.6552
vn -0.3968 -0.6289 -0.6686
vn -0.4929 -0.5648 -0.6619
vn -0.6041 -0.4630 -0.6486
vn -0.6941 -0.2908 -0.6585
vn -0.6718 -0.2041 -0.7121
vn -0.7219 -0.2140 -0.6581
vn -0.7412 -0.0812 -0.6663
vn -0.7496 0.1127 -0.6522
vn -0.6976 0.2015 -0.6876
vn -0.6842 0.1951 -0.7027
vn -0.6809 0.3129 -0.6622
vn 0.0191 -0.0208 0.9996
vn 0.0275 -0.0232 0.9994
vn 0.0204 -0.0333 0.9992
vn 0.0288 -0.0346 0.9990
vn 0.0137 -0.0182 0.9997
vn 0.0148 -0.0287 0.9995
vn 0.0228 -0.0268 0.9994
vn 0.0307 -0.0115 0.9995
vn 0.0173 -0.0380 0.9991
vn 0.0262 -0.0353 0.9990
vn 0.0343 -0.0292 0.9990
vn 0.0364 -0.0238 0.9991
vn 0.0187 -0.0372 0.9991
vn 0.0134 -0.0381 0.9992
vn 0.0095 -0.0406 0.9991
vn 0.0096 -0.0180 0.9998
vn 0.0108 -0.0208 0.9997
vn 0.0136 -0.0381 0.9992
vn 0.0197 -0.0157 0.9997
vn 0.0161 -0.0372 0.9992
vn 0.0247 0.0153 0.9996
vn 0.0327 0.0399 0.9987
vn 0.0383 0.0522 0.9979
vn 0.0380 0.0014 0.9993
vn 0.0373 -0.0334 0.9987
vn -0.0140 -0.0034 0.9999
vn -0.0123 -0.0047 0.9999
vn -0.0176 0.0002 0.9998
vn -0.0093 -0.0137 0.9999
vn -0.0200 -0.0115 0.9997
vn -0.0190 -0.0251 0.9995
vn -0.0078 -0.0060 1.0000
vn -0.0064 -0.0108 0.9999
vn -0.0188 -0.0092 0.9998
vn -0.0186 -0.0003 0.9998
vn -0.0181 -0.0003 0.9998
vn -0.0149 -0.0028 0.9999
vn -0.0138 -0.0011 0.9999
vn -0.0199 -0.0012 0.9998
vn -0.0359 -0.0008 0.9994
vn -0.0360 -0.0168 0.9992
vn -0.0355 -0.0312 0.9989
vn -0.0360 -0.0015 0.9994
vn -0.0240 0.0315 0.9992
vn -0.0383 0.0447 0.9983
vn -0.0074 0.0141 0.9999
vn -0.0028 0.0014 1.0000
vn -0.0169 -0.0018 0.9999
vn -0.0084 -0.0014 1.0000
vn -0.0202 0.0003 0.9998
vn -0.0011 -0.0217 0.9998
vn -0.0326 -0.0328 0.9989
vn -0.0014 -0.0324 0.9995
vn -0.0331 -0.0201 0.9992
vn 0.0302 -0.0230 0.9993
vn 0.0303 -0.0324 0.9990
vn -0.0327 0.0054 0.9995
vn -0.0018 0.0089 1.0000
vn 0.0300 0.0080 0.9995
vn -0.0343 -0.0022 0.9994
vn -0.0018 -0.0074 1.0000
vn 0.0283 -0.0179 0.9994
vn 0.0283 0.0575 0.9979
vn -0.0015 0.0584 0.9983
vn -0.0313 0.0538 0.9981
vn 0.0081 0.0024 1.0000
vn -0.0222 0.0059 0.9997
vn 0.0082 0.0872 0.9962
vn -0.0223 0.0852 0.9961
vn 0.0399 0.0100 0.9992
vn 0.0395 0.0900 0.9952
vn 0.0079 0.0571 0.9983
vn -0.0237 0.0540 0.9983
vn 0.0393 0.0558 0.9977
vn -0.0207 -0.1019 0.9946
vn -0.0252 -0.0834 0.9962
vn -0.0227 0.0189 0.9996
vn 0.0080 -0.1078 0.9941
vn 0.0379 -0.1022 0.9940
vn 0.0483 -0.0841 0.9953
vn 0.0480 0.0302 0.9984
vn 0.0462 0.0929 0.9946
vn 0.0451 0.0512 0.9977
vn 0.0396 0.0278 0.9988
vn 0.0449 0.0271 0.9986
vn 0.0075 0.0285 0.9996
vn -0.0253 0.0262 0.9993
vn -0.0269 0.0447 0.9986
vn -0.0287 0.0219 0.9993
vn -0.0238 0.0793 0.9966
vn -0.0267 -0.0144 0.9995
vn 0.0072 -0.0152 0.9999
vn -0.0265 0.0242 0.9994
vn 0.0073 0.0267 0.9996
vn 0.0400 0.0260 0.9989
vn 0.0396 -0.0147 0.9991
vn 0.0068 -0.0217 0.9997
vn -0.0254 -0.0219 0.9994
vn 0.0374 -0.0187 0.9991
vn -0.0294 0.0205 0.9994
vn 0.0443 0.0256 0.9987
vn 0.0432 -0.0139 0.9990
vn 0.0413 -0.0159 0.9990
vn -0.0292 -0.0134 0.9995
vn -0.0257 -0.0225 0.9994
vn 0.0037 -0.0028 1.0000
vn -0.0286 -0.0075 0.9996
vn 0.0349 0.0010 0.9994
vn 0.0398 0.0032 0.9992
vn 0.0382 -0.0045 0.9993
vn 0.0329 -0.0083 0.9994
vn 0.0003 -0.0128 0.9999
vn -0.0304 -0.0161 0.9994
vn -0.0295 -0.0176 0.9994
vn -0.0279 -0.0118 0.9995
vn -0.0333 -0.0107 0.9994
vn -0.0072 -0.0029 1.0000
vn 0.0241 0.0085 0.9997
vn 0.0322 0.0193 0.9993
vn -0.0328 -0.0145 0.9994
vn -0.0354 -0.0010 0.9994
vn -0.0088 0.0009 1.0000
vn 0.0207 0.0017 0.9998
vn -0.0357 0.0001 0.9994
vn -0.0050 -0.0075 1.0000
vn 0.0234 -0.0233 0.9995
vn 0.0291 0.0039 0.9996
vn 0.0304 -0.0382 0.9988
vn -0.0353 0.0006 0.9994
vn -0.0345 -0.0044 0.9994
vn 0.0114 0.0375 0.9992
vn 0.0093 0.0245 0.9997
vn 0.0040 0.0351 0.9994
vn -0.0013 0.0087 1.0000
vn -0.0026 0.0343 0.9994
vn -0.0061 0.0627 0.9980
vn -0.0028 0.0114 0.9999
vn -0.0089 -0.0019 1.0000
vn -0.0110 0.0293 0.9995
vn 0.0181 0.0149 0.9997
vn 0.0106 0.0170 0.9998
vn -0.0029 0.0070 1.0000
vn 0.0128 -0.0127 0.9998
vn -0.0075 -0.0522 0.9986
vn -0.0132 0.0180 0.9998
vn -0.0068 0.0132 0.9999
vn -0.0131 0.0056 0.9999
vn -0.0137 -0.0069 0.9999
vn -0.0140 -0.0002 0.9999
vn -0.0114 -0.0055 0.9999
vn -0.0095 0.0149 0.9998
vn -0.0162 0.0057 0.9999
vn -0.0107 -0.0120 0.9999
vn -0.0164 -0.0107 0.9998
vn -0.0138 0.0186 0.9997
vn -0.0137 -0.0128 0.9998
vn -0.0072 -0.0201 0.9998
vn -0.0083 -0.0125 0.9999
vn -0.0101 -0.0236 0.9997
vn -0.0145 -0.0019 0.9999
vn -0.0113 -0.0075 0.9999
vn 0.0033 -0.0099 0.9999
vn -0.0052 -0.0154 0.9999
vn -0.0049 -0.0151 0.9999
vn -0.0103 -0.0148 0.9998
vn -0.0117 -0.0192 0.9997
vn -0.0064 -0.0224 0.9997
vn -0.0064 -0.0261 0.9996
vn 0.0030 -0.0274 0.9996
vn 0.0045 -0.0157 0.9999
vn -0.0138 -0.0256 0.9996
vn -0.0122 -0.0204 0.9997
vn -0.0168 -0.0166 0.9997
vn -0.0062 -0.0295 0.9995
vn -0.0160 -0.0123 0.9998
vn -0.0136 -0.0097 0.9999
vn -0.0184 -0.0071 0.9998
vn -0.0173 -0.0030 0.9998
vn -0.0141 -0.0027 0.9999
vn -0.0191 -0.0012 0.9998
vn -0.0116 -0.0058 0.9999
vn -0.0094 -0.0158 0.9998
vn 0.0375 0.0926 0.9950
vn 0.0329 0.0936 0.9951
vn 0.0410 0.0617 0.9973
vn 0.0288 0.0847 0.9960
vn 0.0270 0.1084 0.9937
vn 0.0225 0.0675 0.9975
vn 0.0355 0.0445 0.9984
vn 0.0267 0.0368 0.9990
vn 0.0212 0.0310 0.9993
vn 0.0426 -0.0469 0.9980
vn 0.0349 0.0153 0.9993
vn 0.0301 0.0800 0.9963
vn 0.0262 0.1146 0.9931
vn 0.0223 0.0936 0.9954
vn 0.0184 0.0456 0.9988
vn 0.0170 0.0302 0.9994
vn 0.0203 0.0383 0.9991
vn 0.0164 0.0438 0.9989
vn 0.0257 0.0337 0.9991
vn 0.0345 0.0294 0.9990
vn 0.0318 -0.0141 0.9994
vn 0.0240 0.0313 0.9992
vn 0.0328 0.0282 0.9991
vn 0.0232 -0.0158 0.9996
vn 0.0187 0.0322 0.9993
vn 0.0178 -0.0181 0.9997
vn 0.0311 -0.0162 0.9994
vn 0.0227 -0.0170 0.9996
vn 0.0167 -0.0171 0.9997
vn 0.0148 0.0308 0.9994
vn 0.0136 -0.0207 0.9997
vn 0.0123 -0.0169 0.9998
vn 0.0299 0.0047 0.9995
vn 0.0213 0.0061 0.9998
vn 0.0151 0.0077 0.9999
vn 0.0108 0.0088 0.9999
vn 0.0097 0.0044 0.9999
vn 0.0139 0.0027 0.9999
vn 0.0201 0.0008 0.9998
vn 0.0286 -0.0015 0.9996
vn 0.0190 0.0294 0.9994
vn 0.0260 0.0261 0.9993
vn 0.0133 0.0317 0.9994
vn 0.0089 0.0335 0.9994
vn 0.0185 0.0094 0.9998
vn 0.0245 0.0066 0.9997
vn 0.0130 0.0119 0.9998
vn 0.0183 -0.0452 0.9988
vn 0.0246 -0.0448 0.9987
vn 0.0129 -0.0441 0.9989
vn 0.0090 0.0147 0.9999
vn 0.0093 -0.0427 0.9990
vn 0.4382 -0.5875 0.6803
vn 0.5392 -0.5026 0.6758
vn 0.3550 -0.6365 0.6848
vn 0.2992 -0.6591 0.6900
vn 0.2627 -0.6703 0.6940
vn -0.0827 -0.7315 0.6768
vn -0.0351 -0.7498 0.6607
vn -0.1380 -0.6944 0.7062
vn -0.1941 -0.6490 0.7356
vn -0.2507 -0.6174 0.7457
vn -0.4718 0.5308 0.7040
vn -0.5802 0.4019 0.7084
vn -0.3724 0.6021 0.7062
vn -0.2979 0.6305 0.7167
vn -0.2409 0.6516 0.7193
vn 0.0828 0.7210 0.6880
vn 0.0339 0.7299 0.6827
vn 0.1368 0.7093 0.6915
vn 0.1871 0.6954 0.6938
vn 0.2376 0.6818 0.6919
vn 0.2244 -0.6824 0.6957
vn 0.1725 -0.7054 0.6875
vn 0.1078 -0.7307 0.6741
vn 0.0467 -0.7489 0.6610
vn 0.0113 -0.7586 0.6515
vn 0.0031 -0.7621 0.6474
vn -0.0051 -0.7587 0.6514
vn -0.1888 0.6764 0.7119
vn -0.1370 0.7041 0.6968
vn -0.0837 0.7234 0.6853
vn -0.0351 0.7330 0.6794
vn -0.0041 0.7380 0.6748
vn 0.0025 0.7402 0.6724
vn 0.0067 0.7368 0.6761
vn 0.2943 0.6595 0.6917
vn 0.3712 0.6241 0.6876
vn 0.4759 0.5571 0.6806
vn 0.5962 0.4393 0.6720
vn 0.6846 0.2830 0.6717
vn 0.6845 0.2004 0.7009
vn 0.6844 0.2074 0.6990
vn 0.7413 0.1293 0.6585
vn 0.7511 -0.0567 0.6577
vn 0.7116 -0.2680 0.6494
vn 0.6242 -0.3436 0.7016
vn 0.6257 -0.3945 0.6729
vn -0.3068 -0.6061 0.7338
vn -0.3762 -0.5893 0.7150
vn -0.4684 -0.5238 0.7115
vn -0.5767 -0.4029 0.7107
vn -0.6662 -0.2569 0.7001
vn -0.6371 -0.2368 0.7335
vn -0.6675 -0.2153 0.7128
vn -0.7067 -0.0692 0.7041
vn -0.7111 0.1141 0.6938
vn -0.6476 0.2306 0.7262
vn -0.6634 0.2231 0.7142
vn -0.6615 0.2613 0.7030
vt 0.765471 0.169129
vt 0.770322 0.194244
vt 0.745077 0.191195
vt 0.742155 0.164155
vt 0.759702 0.145059
vt 0.738710 0.137767
vt 0.788126 0.174911
vt 0.795274 0.197731
vt 0.777286 0.156317
vt 0.747225 0.219198
vt 0.720478 0.217910
vt 0.719400 0.188791
vt 0.717923 0.160286
vt 0.716178 0.132191
vt 0.735578 0.115148
vt 0.714053 0.105213
vt 0.754240 0.124583
vt 0.769439 0.136191
vt 0.783127 0.150960
vt 0.796592 0.166718
vt 0.809324 0.184478
vt 0.819214 0.201786
vt 0.826102 0.224817
vt 0.800456 0.222657
vt 0.773874 0.220817
vt 0.760398 0.409490
vt 0.741893 0.390997
vt 0.765417 0.385935
vt 0.738897 0.416950
vt 0.744520 0.364337
vt 0.769721 0.361286
vt 0.780596 0.400630
vt 0.788260 0.380026
vt 0.794615 0.357760
vt 0.735667 0.444571
vt 0.715894 0.422604
vt 0.714294 0.452406
vt 0.717475 0.394875
vt 0.718874 0.366687
vt 0.720001 0.337811
vt 0.746612 0.336626
vt 0.773083 0.335080
vt 0.799461 0.333294
vt 0.815965 0.353992
vt 0.822058 0.331176
vt 0.807727 0.372271
vt 0.797988 0.389772
vt 0.786540 0.405790
vt 0.772184 0.421496
vt 0.754530 0.431676
vt 0.775317 0.307109
vt 0.748642 0.278031
vt 0.776281 0.278099
vt 0.748018 0.307691
vt 0.775844 0.249015
vt 0.748405 0.248311
vt 0.802653 0.306428
vt 0.804009 0.278165
vt 0.803339 0.249808
vt 0.720771 0.308127
vt 0.721136 0.277959
vt 0.721053 0.247742
vt 0.827739 0.251697
vt 0.828023 0.279180
vt 0.826569 0.307198
vt 0.232631 0.276409
vt 0.232994 0.305162
vt 0.205814 0.304315
vt 0.205135 0.276326
vt 0.206703 0.248027
vt 0.233917 0.247353
vt 0.260061 0.276501
vt 0.260161 0.305936
vt 0.261078 0.246783
vt 0.208699 0.330615
vt 0.186276 0.328980
vt 0.182382 0.304304
vt 0.181363 0.275618
vt 0.182584 0.248871
vt 0.186977 0.223255
vt 0.210563 0.220797
vt 0.236940 0.219023
vt 0.263332 0.217502
vt 0.288159 0.246369
vt 0.289743 0.216360
vt 0.287391 0.276606
vt 0.287309 0.306601
vt 0.287783 0.335885
vt 0.261258 0.334370
vt 0.234917 0.332583
vt 0.341716 0.276853
vt 0.341540 0.307530
vt 0.314434 0.307130
vt 0.314601 0.276726
vt 0.315147 0.246144
vt 0.342074 0.246072
vt 0.409341 0.277133
vt 0.409251 0.308084
vt 0.409422 0.246213
vt 0.314533 0.337059
vt 0.316186 0.215680
vt 0.342693 0.215376
vt 0.409495 0.215414
vt 0.409152 0.338974
vt 0.341463 0.337918
vt 0.477010 0.277316
vt 0.476939 0.308261
vt 0.477058 0.246389
vt 0.477072 0.215572
vt 0.531306 0.215702
vt 0.531239 0.246529
vt 0.531163 0.277440
vt 0.531083 0.308327
vt 0.531001 0.339082
vt 0.476857 0.339134
vt 0.639371 0.308503
vt 0.639459 0.277728
vt 0.639539 0.246902
vt 0.639612 0.216179
vt 0.639278 0.339076
vt 0.666463 0.308493
vt 0.666581 0.277806
vt 0.666643 0.247072
vt 0.693590 0.308383
vt 0.693792 0.277884
vt 0.693805 0.247338
vt 0.666644 0.216485
vt 0.693611 0.217028
vt 0.693218 0.338554
vt 0.666294 0.338936
vt 0.242791 0.381421
vt 0.248137 0.403688
vt 0.232125 0.392137
vt 0.220482 0.375324
vt 0.238274 0.357907
vt 0.213692 0.354183
vt 0.265838 0.386885
vt 0.268910 0.411627
vt 0.263216 0.361275
vt 0.240735 0.412414
vt 0.226479 0.398435
vt 0.215060 0.384547
vt 0.204064 0.368411
vt 0.193610 0.350562
vt 0.288686 0.364115
vt 0.289909 0.391459
vt 0.291344 0.418213
vt 0.292560 0.446350
vt 0.272930 0.437334
vt 0.254409 0.424530
vt 0.341387 0.397486
vt 0.341366 0.426853
vt 0.315621 0.423245
vt 0.315170 0.394966
vt 0.341418 0.367881
vt 0.314795 0.366301
vt 0.408805 0.430948
vt 0.408927 0.400379
vt 0.409043 0.369733
vt 0.315374 0.454270
vt 0.409182 0.462143
vt 0.339914 0.459025
vt 0.476691 0.400474
vt 0.476607 0.431001
vt 0.476774 0.369865
vt 0.530918 0.369624
vt 0.530836 0.399986
vt 0.530755 0.430227
vt 0.530973 0.461715
vt 0.476822 0.461828
vt 0.638974 0.429127
vt 0.639078 0.399318
vt 0.639180 0.369331
vt 0.639155 0.461761
vt 0.665569 0.428230
vt 0.665837 0.398721
vt 0.666082 0.368993
vt 0.691345 0.426235
vt 0.692058 0.397364
vt 0.692695 0.368188
vt 0.690769 0.457555
vt 0.664277 0.461510
vt 0.241711 0.192214
vt 0.224797 0.172689
vt 0.247925 0.166788
vt 0.216690 0.195720
vt 0.238569 0.152863
vt 0.255175 0.142352
vt 0.266867 0.189209
vt 0.271430 0.161790
vt 0.276687 0.134963
vt 0.196368 0.199841
vt 0.207068 0.179540
vt 0.218811 0.163231
vt 0.248149 0.133738
vt 0.232830 0.147235
vt 0.265626 0.122454
vt 0.284227 0.111878
vt 0.299039 0.129497
vt 0.304114 0.104611
vt 0.295389 0.158044
vt 0.292211 0.186940
vt 0.343629 0.184909
vt 0.319847 0.155756
vt 0.344821 0.154644
vt 0.317789 0.185563
vt 0.322209 0.126156
vt 0.346185 0.124515
vt 0.409561 0.184806
vt 0.409620 0.154358
vt 0.409676 0.124016
vt 0.324858 0.099526
vt 0.348636 0.097006
vt 0.409730 0.090010
vt 0.477044 0.184933
vt 0.476983 0.154445
vt 0.476899 0.124058
vt 0.476804 0.092737
vt 0.535898 0.097896
vt 0.531455 0.124106
vt 0.531412 0.154526
vt 0.531363 0.185042
vt 0.639676 0.185677
vt 0.639733 0.155368
vt 0.639786 0.125187
vt 0.639801 0.096016
vt 0.666468 0.156163
vt 0.666581 0.186195
vt 0.666321 0.126302
vt 0.692627 0.157696
vt 0.693203 0.187168
vt 0.691938 0.128482
vt 0.666081 0.097469
vt 0.691047 0.100333
vt 0.272523 0.438186
vt 0.292257 0.447245
vt 0.253906 0.425325
vt 0.240153 0.413150
vt 0.225828 0.399108
vt 0.186080 0.223019
vt 0.195512 0.199476
vt 0.206273 0.179051
vt 0.218090 0.162636
vt 0.232188 0.146553
vt 0.735946 0.114278
vt 0.714301 0.104300
vt 0.754723 0.123774
vt 0.770018 0.135452
vt 0.783787 0.150296
vt 0.822961 0.331387
vt 0.816835 0.354318
vt 0.808543 0.372720
vt 0.798735 0.390333
vt 0.787205 0.406450
vt 0.214340 0.385143
vt 0.203271 0.368904
vt 0.192752 0.350922
vt 0.185374 0.329199
vt 0.181460 0.304396
vt 0.180437 0.275603
vt 0.181666 0.248752
vt 0.797326 0.166140
vt 0.810126 0.184004
vt 0.820077 0.201439
vt 0.827006 0.224607
vt 0.828662 0.251610
vt 0.828949 0.279195
vt 0.827489 0.307307
vt 0.772759 0.422239
vt 0.755006 0.432489
vt 0.736029 0.445443
vt 0.714536 0.453320
vt 0.690908 0.458491
vt 0.664346 0.462453
vt 0.639184 0.462706
vt 0.530988 0.462660
vt 0.476839 0.462773
vt 0.409153 0.463088
vt 0.339776 0.459960
vt 0.315165 0.455192
vt 0.247590 0.132984
vt 0.265158 0.121637
vt 0.283865 0.111006
vt 0.303870 0.103696
vt 0.324723 0.098590
vt 0.348579 0.096062
vt 0.409731 0.089065
vt 0.476803 0.091791
vt 0.535900 0.096951
vt 0.639837 0.095071
vt 0.666157 0.096526
vt 0.691193 0.099398
vt 0.743639 0.610070
vt 0.746543 0.636938
vt 0.766807 0.615012
vt 0.771627 0.639967
vt 0.740216 0.583850
vt 0.761074 0.591095
vt 0.789317 0.620758
vt 0.796420 0.643432
vt 0.778547 0.602281
vt 0.721029 0.634549
vt 0.722101 0.663483
vt 0.748677 0.664762
vt 0.719561 0.606226
vt 0.717828 0.578309
vt 0.715716 0.556098
vt 0.736605 0.562651
vt 0.755647 0.573558
vt 0.770250 0.584326
vt 0.796981 0.612872
vt 0.783351 0.598491
vt 0.808632 0.631285
vt 0.817960 0.648482
vt 0.826052 0.671111
vt 0.801569 0.668199
vt 0.775156 0.666371
vt 0.761766 0.853842
vt 0.743379 0.835467
vt 0.740402 0.861255
vt 0.766754 0.830437
vt 0.745989 0.808977
vt 0.771030 0.805945
vt 0.778589 0.841976
vt 0.789450 0.824566
vt 0.795765 0.802442
vt 0.735195 0.884360
vt 0.717545 0.866873
vt 0.715456 0.893421
vt 0.719116 0.839321
vt 0.720507 0.811312
vt 0.721626 0.782620
vt 0.748068 0.781442
vt 0.774371 0.779906
vt 0.800581 0.778132
vt 0.815731 0.797932
vt 0.824282 0.776283
vt 0.807545 0.817371
vt 0.796620 0.833229
vt 0.769232 0.861177
vt 0.783996 0.847614
vt 0.754687 0.872313
vt 0.750085 0.723221
vt 0.776590 0.752113
vt 0.777548 0.723288
vt 0.749465 0.752692
vt 0.749850 0.693690
vt 0.777113 0.694389
vt 0.803752 0.751437
vt 0.805099 0.723354
vt 0.804434 0.695177
vt 0.722392 0.753125
vt 0.722754 0.723149
vt 0.722671 0.693125
vt 0.831176 0.697820
vt 0.830958 0.725384
vt 0.829014 0.752202
vt 0.210039 0.721526
vt 0.210714 0.749337
vt 0.237360 0.721609
vt 0.237721 0.750179
vt 0.211598 0.693407
vt 0.238638 0.692738
vt 0.264616 0.721700
vt 0.264715 0.750948
vt 0.265626 0.692172
vt 0.195172 0.749326
vt 0.198792 0.774100
vt 0.213581 0.775469
vt 0.193161 0.721078
vt 0.193625 0.694246
vt 0.197241 0.668794
vt 0.215432 0.666351
vt 0.241642 0.664589
vt 0.267865 0.663077
vt 0.292535 0.691760
vt 0.294108 0.661942
vt 0.291772 0.721805
vt 0.291690 0.751609
vt 0.265805 0.779201
vt 0.292161 0.780706
vt 0.239632 0.777426
vt 0.345575 0.752532
vt 0.345751 0.722050
vt 0.318642 0.752134
vt 0.318808 0.721924
vt 0.319351 0.691537
vt 0.346106 0.691466
vt 0.412945 0.722328
vt 0.412856 0.753082
vt 0.413025 0.691605
vt 0.318740 0.781873
vt 0.320383 0.661267
vt 0.346722 0.660965
vt 0.413098 0.661003
vt 0.345499 0.782726
vt 0.412757 0.783775
vt 0.480183 0.722510
vt 0.480112 0.753258
vt 0.480230 0.691780
vt 0.480244 0.661160
vt 0.534133 0.661288
vt 0.534066 0.691919
vt 0.533991 0.722633
vt 0.533912 0.753323
vt 0.533830 0.783882
vt 0.480031 0.783935
vt 0.641510 0.753499
vt 0.641597 0.722919
vt 0.641677 0.692289
vt 0.641749 0.661763
vt 0.641417 0.783877
vt 0.668429 0.753488
vt 0.668547 0.722997
vt 0.668609 0.692459
vt 0.695384 0.753380
vt 0.695584 0.723074
vt 0.695597 0.692723
vt 0.668609 0.662067
vt 0.695404 0.662606
vt 0.695014 0.783359
vt 0.668262 0.783738
vt 0.225289 0.819894
vt 0.236857 0.836600
vt 0.247455 0.825952
vt 0.252767 0.848078
vt 0.218542 0.798887
vt 0.242967 0.802588
vt 0.270356 0.831382
vt 0.273408 0.855966
vt 0.267750 0.805935
vt 0.221149 0.828548
vt 0.231248 0.842858
vt 0.245413 0.856748
vt 0.211971 0.814046
vt 0.203582 0.796566
vt 0.293059 0.808756
vt 0.294273 0.835927
vt 0.295700 0.862510
vt 0.278151 0.880233
vt 0.296907 0.889702
vt 0.259749 0.868787
vt 0.319373 0.839411
vt 0.319821 0.867510
vt 0.345424 0.841915
vt 0.345403 0.871094
vt 0.319001 0.810929
vt 0.345454 0.812498
vt 0.412533 0.844789
vt 0.412412 0.875164
vt 0.412649 0.814339
vt 0.319826 0.896806
vt 0.344459 0.900509
vt 0.411413 0.900161
vt 0.479865 0.844884
vt 0.479783 0.875216
vt 0.479948 0.814470
vt 0.533748 0.814230
vt 0.533666 0.844399
vt 0.533585 0.874448
vt 0.533552 0.900119
vt 0.479996 0.900487
vt 0.641116 0.873355
vt 0.641219 0.843736
vt 0.641320 0.813939
vt 0.641045 0.901952
vt 0.667541 0.872463
vt 0.667807 0.843142
vt 0.668051 0.813603
vt 0.693153 0.870481
vt 0.693862 0.841794
vt 0.694495 0.812804
vt 0.692331 0.899815
vt 0.666258 0.903234
vt 0.246383 0.637950
vt 0.229576 0.618549
vt 0.221520 0.641433
vt 0.252557 0.612687
vt 0.245757 0.601658
vt 0.259761 0.588405
vt 0.271378 0.634964
vt 0.275912 0.607720
vt 0.281136 0.581064
vt 0.205074 0.646039
vt 0.214706 0.626123
vt 0.225377 0.611194
vt 0.240055 0.595555
vt 0.253529 0.581123
vt 0.271893 0.569400
vt 0.289876 0.558636
vt 0.303346 0.575632
vt 0.308138 0.552181
vt 0.299718 0.603998
vt 0.296561 0.632710
vt 0.347651 0.630691
vt 0.324021 0.601725
vt 0.321976 0.631342
vt 0.348836 0.600620
vt 0.326368 0.572313
vt 0.350191 0.570683
vt 0.413163 0.630589
vt 0.413222 0.600335
vt 0.413278 0.570187
vt 0.329000 0.547129
vt 0.352626 0.544115
vt 0.413332 0.542779
vt 0.480217 0.630716
vt 0.480156 0.600422
vt 0.480072 0.570228
vt 0.478730 0.543446
vt 0.536199 0.538872
vt 0.534281 0.570276
vt 0.534238 0.600502
vt 0.534189 0.630823
vt 0.641870 0.601339
vt 0.641813 0.631455
vt 0.641923 0.571350
vt 0.644434 0.541088
vt 0.668434 0.602129
vt 0.668547 0.631970
vt 0.668288 0.572458
vt 0.694427 0.603652
vt 0.694999 0.632936
vt 0.693742 0.574624
vt 0.667300 0.544830
vt 0.692856 0.549207
vt 0.277748 0.881079
vt 0.296607 0.890591
vt 0.259249 0.869577
vt 0.244834 0.857479
vt 0.230601 0.843526
vt 0.204223 0.645677
vt 0.196349 0.668559
vt 0.213917 0.625637
vt 0.224660 0.610603
vt 0.239417 0.594877
vt 0.736970 0.561787
vt 0.715962 0.555191
vt 0.756127 0.572754
vt 0.770825 0.583592
vt 0.784007 0.597831
vt 0.816595 0.798256
vt 0.825179 0.776493
vt 0.808356 0.817817
vt 0.797362 0.833787
vt 0.784657 0.848269
vt 0.220434 0.829140
vt 0.211184 0.814536
vt 0.202729 0.796924
vt 0.197895 0.774318
vt 0.194256 0.749418
vt 0.192241 0.721064
vt 0.192712 0.694128
vt 0.797710 0.612297
vt 0.809430 0.630814
vt 0.818818 0.648138
vt 0.826951 0.670903
vt 0.832092 0.697734
vt 0.831878 0.725399
vt 0.829928 0.752311
vt 0.769803 0.861915
vt 0.755160 0.873121
vt 0.735555 0.885227
vt 0.715697 0.894330
vt 0.692469 0.900744
vt 0.666326 0.904171
vt 0.641074 0.902890
vt 0.533567 0.901058
vt 0.480013 0.901426
vt 0.411385 0.901100
vt 0.344322 0.901438
vt 0.319618 0.897722
vt 0.252973 0.580374
vt 0.271428 0.568589
vt 0.289517 0.557770
vt 0.307896 0.551273
vt 0.328866 0.546198
vt 0.352570 0.543177
vt 0.413332 0.541840
vt 0.478729 0.542507
vt 0.536201 0.537933
vt 0.644470 0.540150
vt 0.667376 0.543893
vt 0.693001 0.548278
vt 0.978211 0.431601
vt 0.956700 0.437924
vt 0.973444 0.424491
vt 0.960435 0.443602
vt 0.952527 0.432434
vt 0.968095 0.417640
vt 0.947692 0.427258
vt 0.961955 0.411206
vt 0.942040 0.422657
vt 0.954914 0.405488
vt 0.845858 0.394328
vt 0.857600 0.387729
vt 0.863956 0.408047
vt 0.854892 0.413808
vt 0.835819 0.401043
vt 0.847260 0.419737
vt 0.839985 0.424869
vt 0.827126 0.407664
vt 0.833237 0.429792
vt 0.818901 0.413938
vt 0.803553 0.578086
vt 0.799054 0.571430
vt 0.817578 0.560354
vt 0.821399 0.565569
vt 0.825183 0.571005
vt 0.808838 0.584470
vt 0.814772 0.590913
vt 0.830119 0.575995
vt 0.821653 0.597202
vt 0.835789 0.580890
vt 0.931926 0.614267
vt 0.919966 0.620442
vt 0.913759 0.599865
vt 0.923081 0.594673
vt 0.942006 0.608221
vt 0.931049 0.589732
vt 0.950658 0.602127
vt 0.937929 0.584814
vt 0.958176 0.595689
vt 0.943885 0.579641
vt 0.935611 0.418665
vt 0.947011 0.400513
vt 0.928448 0.414949
vt 0.938207 0.395890
vt 0.920389 0.411056
vt 0.928189 0.391125
vt 0.911040 0.406736
vt 0.916370 0.386016
vt 0.899859 0.402800
vt 0.902251 0.381574
vt 0.887289 0.401224
vt 0.886784 0.379996
vt 0.874714 0.402986
vt 0.871657 0.382588
vt 0.829355 0.603602
vt 0.842234 0.585744
vt 0.849083 0.591112
vt 0.838238 0.609826
vt 0.857063 0.596405
vt 0.848417 0.616101
vt 0.866452 0.601484
vt 0.860413 0.621997
vt 0.877451 0.605875
vt 0.874670 0.626390
vt 0.890059 0.628247
vt 0.890083 0.606919
vt 0.905710 0.625829
vt 0.902635 0.604596
vt 0.964658 0.588732
vt 0.948951 0.574058
vt 0.970177 0.581429
vt 0.953213 0.568217
vt 0.974879 0.574052
vt 0.956831 0.562332
vt 0.978955 0.566665
vt 0.959962 0.556440
vt 0.982585 0.559115
vt 0.962696 0.550392
vt 0.985905 0.551196
vt 0.964979 0.543991
vt 0.967458 0.537292
vt 0.988757 0.542650
vt 0.974628 0.507432
vt 0.996216 0.508615
vt 0.975200 0.492919
vt 0.996739 0.490883
vt 0.972641 0.474584
vt 0.993538 0.469086
vt 0.966798 0.455938
vt 0.986226 0.447106
vt 0.963868 0.449548
vt 0.982540 0.439064
vt 0.827046 0.434717
vt 0.811345 0.420281
vt 0.821803 0.439967
vt 0.805062 0.427052
vt 0.799760 0.433785
vt 0.817995 0.445711
vt 0.814289 0.451005
vt 0.795448 0.440520
vt 0.810849 0.456156
vt 0.791484 0.447127
vt 0.808160 0.461724
vt 0.788507 0.454213
vt 0.784235 0.474833
vt 0.806117 0.479008
vt 0.802748 0.497017
vt 0.781675 0.496521
vt 0.782102 0.514305
vt 0.804164 0.511654
vt 0.809127 0.542063
vt 0.788613 0.548186
vt 0.810378 0.549130
vt 0.790866 0.556906
vt 0.794554 0.564549
vt 0.813704 0.555043
s 1
f 122/1/1 121/2/2 118/3/3
f 118/3/3 119/4/4 122/1/1
f 123/5/5 122/1/1 119/4/4
f 119/4/4 120/6/6 123/5/5
f 125/7/7 124/8/8 121/2/2
f 121/2/2 122/1/1 125/7/7
f 126/9/9 125/7/7 122/1/1
f 122/1/1 123/5/5 126/9/9
f 118/3/3 46/10/10 18/11/11
f 118/3/3 18/11/11 117/12/12
f 119/4/4 118/3/3 117/12/12
f 117/12/12 116/13/13 119/4/4
f 120/6/6 119/4/4 116/13/13
f 116/13/13 115/14/14 120/6/6
f 246/15/15 120/6/6 115/14/14
f 115/14/14 245/16/16 246/15/15
f 247/17/17 123/5/5 120/6/6
f 120/6/6 246/15/15 247/17/17
f 248/18/18 126/9/9 123/5/5
f 123/5/5 247/17/17 248/18/18
f 249/19/19 262/20/20 126/9/9
f 126/9/9 248/18/18 249/19/19
f 262/20/20 263/21/21 125/7/7
f 125/7/7 126/9/9 262/20/20
f 263/21/21 264/22/22 124/8/8
f 124/8/8 125/7/7 263/21/21
f 264/22/22 265/23/23 48/24/24
f 48/24/24 124/8/8 264/22/22
f 124/8/8 48/24/24 47/25/25
f 47/25/25 121/2/2 124/8/8
f 121/2/2 47/25/25 46/10/10
f 46/10/10 118/3/3 121/2/2
f 130/26/26 128/27/27 131/28/28
f 128/27/27 130/26/26 127/29/29
f 131/28/28 129/30/30 132/31/31
f 129/30/30 131/28/28 128/27/27
f 133/32/32 131/28/28 134/33/33
f 131/28/28 133/32/32 130/26/26
f 134/33/33 132/31/31 135/34/34
f 132/31/31 134/33/33 131/28/28
f 271/35/35 108/36/36 127/29/29
f 108/36/36 271/35/35 272/37/37
f 127/29/29 107/38/38 128/27/27
f 107/38/38 127/29/29 108/36/36
f 128/27/27 106/39/39 129/30/30
f 106/39/39 128/27/27 107/38/38
f 129/30/30 15/40/40 43/41/41
f 15/40/40 129/30/30 106/39/39
f 132/31/31 43/41/41 44/42/42
f 43/41/41 132/31/31 129/30/30
f 135/34/34 44/42/42 45/43/43
f 44/42/42 135/34/34 132/31/31
f 251/44/44 45/43/43 250/45/45
f 45/43/43 251/44/44 135/34/34
f 252/46/46 135/34/34 251/44/44
f 135/34/34 252/46/46 134/33/33
f 253/47/47 134/33/33 252/46/46
f 134/33/33 253/47/47 133/32/32
f 254/48/48 133/32/32 253/47/47
f 133/32/32 254/48/48 269/49/49
f 269/49/49 130/26/26 133/32/32
f 130/26/26 269/49/49 270/50/50
f 270/50/50 127/29/29 130/26/26
f 127/29/29 270/50/50 271/35/35
f 139/51/51 137/52/52 140/53/53
f 137/52/52 139/51/51 136/54/54
f 141/55/55 140/53/53 137/52/52
f 141/55/55 137/52/52 138/56/56
f 142/57/57 140/53/53 143/58/58
f 140/53/53 142/57/57 139/51/51
f 144/59/59 143/58/58 140/53/53
f 144/59/59 140/53/53 141/55/55
f 43/41/41 99/60/60 136/54/54
f 99/60/60 43/41/41 15/40/40
f 136/54/54 98/61/61 137/52/52
f 98/61/61 136/54/54 99/60/60
f 138/56/56 137/52/52 98/61/61
f 138/56/56 98/61/61 97/62/62
f 46/10/10 138/56/56 97/62/62
f 46/10/10 97/62/62 18/11/11
f 47/25/25 141/55/55 138/56/56
f 47/25/25 138/56/56 46/10/10
f 48/24/24 144/59/59 141/55/55
f 48/24/24 141/55/55 47/25/25
f 265/23/23 266/63/63 144/59/59
f 265/23/23 144/59/59 48/24/24
f 266/63/63 267/64/64 143/58/58
f 266/63/63 143/58/58 144/59/59
f 268/65/65 143/58/58 267/64/64
f 143/58/58 268/65/65 142/57/57
f 250/45/45 142/57/57 268/65/65
f 142/57/57 250/45/45 45/43/43
f 45/43/43 139/51/51 142/57/57
f 139/51/51 45/43/43 44/42/42
f 44/42/42 136/54/54 139/51/51
f 136/54/54 44/42/42 43/41/41
f 149/66/66 148/67/67 145/68/68
f 149/66/66 145/68/68 146/69/69
f 149/66/66 147/70/70 150/71/71
f 147/70/70 149/66/66 146/69/69
f 152/72/72 151/73/73 148/67/67
f 152/72/72 148/67/67 149/66/66
f 152/72/72 150/71/71 153/74/74
f 150/71/71 152/72/72 149/66/66
f 145/68/68 70/75/75 258/76/76
f 145/68/68 258/76/76 259/77/77
f 146/69/69 145/68/68 259/77/77
f 146/69/69 259/77/77 260/78/78
f 146/69/69 261/79/79 147/70/70
f 261/79/79 146/69/69 260/78/78
f 147/70/70 240/80/80 81/81/81
f 240/80/80 147/70/70 261/79/79
f 150/71/71 81/81/81 82/82/82
f 81/81/81 150/71/71 147/70/70
f 153/74/74 82/82/82 83/83/83
f 82/82/82 153/74/74 150/71/71
f 91/84/84 83/83/83 16/85/85
f 83/83/83 91/84/84 153/74/74
f 92/86/86 153/74/74 91/84/84
f 153/74/74 92/86/86 152/72/72
f 92/86/86 93/87/87 151/73/73
f 92/86/86 151/73/73 152/72/72
f 93/87/87 14/88/88 72/89/89
f 93/87/87 72/89/89 151/73/73
f 151/73/73 72/89/89 71/90/90
f 151/73/73 71/90/90 148/67/67
f 148/67/67 71/90/90 70/75/75
f 148/67/67 70/75/75 145/68/68
f 158/91/91 157/92/92 154/93/93
f 158/91/91 154/93/93 155/94/94
f 158/91/91 156/95/95 159/96/96
f 156/95/95 158/91/91 155/94/94
f 95/97/97 96/98/98 157/92/92
f 95/97/97 157/92/92 158/91/91
f 95/97/97 159/96/96 94/99/99
f 159/96/96 95/97/97 158/91/91
f 154/93/93 73/100/100 14/88/88
f 154/93/93 14/88/88 93/87/87
f 155/94/94 154/93/93 93/87/87
f 155/94/94 93/87/87 92/86/86
f 155/94/94 91/84/84 156/95/95
f 91/84/84 155/94/94 92/86/86
f 156/95/95 16/85/85 84/101/101
f 16/85/85 156/95/95 91/84/84
f 159/96/96 84/101/101 85/102/102
f 84/101/101 159/96/96 156/95/95
f 94/99/99 85/102/102 17/103/103
f 85/102/102 94/99/99 159/96/96
f 96/98/98 75/104/104 74/105/105
f 96/98/98 74/105/105 157/92/92
f 157/92/92 74/105/105 73/100/100
f 157/92/92 73/100/100 154/93/93
f 161/106/106 160/107/107 96/98/98
f 161/106/106 96/98/98 95/97/97
f 161/106/106 94/99/99 162/108/108
f 94/99/99 161/106/106 95/97/97
f 162/108/108 17/103/103 86/109/109
f 17/103/103 162/108/108 94/99/99
f 87/110/110 165/111/111 162/108/108
f 87/110/110 162/108/108 86/109/109
f 165/111/111 164/112/112 161/106/106
f 165/111/111 161/106/106 162/108/108
f 164/112/112 163/113/113 160/107/107
f 164/112/112 160/107/107 161/106/106
f 77/114/114 160/107/107 163/113/113
f 160/107/107 77/114/114 76/115/115
f 160/107/107 76/115/115 75/104/104
f 160/107/107 75/104/104 96/98/98
f 166/116/116 164/112/112 167/117/117
f 164/112/112 166/116/116 163/113/113
f 167/117/117 164/112/112 168/118/118
f 168/118/118 164/112/112 165/111/111
f 168/118/118 165/111/111 88/119/119
f 88/119/119 165/111/111 87/110/110
f 78/120/120 163/113/113 166/116/116
f 163/113/113 78/120/120 77/114/114
f 169/121/121 167/117/117 170/122/122
f 167/117/117 169/121/121 166/116/116
f 171/123/123 170/122/122 167/117/117
f 171/123/123 167/117/117 168/118/118
f 172/124/124 170/122/122 173/125/125
f 170/122/122 172/124/124 169/121/121
f 174/126/126 173/125/125 170/122/122
f 174/126/126 170/122/122 171/123/123
f 89/127/127 171/123/123 168/118/118
f 89/127/127 168/118/118 88/119/119
f 90/128/128 174/126/126 171/123/123
f 90/128/128 171/123/123 89/127/127
f 18/11/11 97/62/62 174/126/126
f 18/11/11 174/126/126 90/128/128
f 97/62/62 98/61/61 173/125/125
f 97/62/62 173/125/125 174/126/126
f 99/60/60 173/125/125 98/61/61
f 173/125/125 99/60/60 172/124/124
f 15/40/40 172/124/124 99/60/60
f 172/124/124 15/40/40 80/129/129
f 80/129/129 169/121/121 172/124/124
f 169/121/121 80/129/129 79/130/130
f 79/130/130 166/116/116 169/121/121
f 166/116/116 79/130/130 78/120/120
f 179/131/131 178/132/132 175/133/133
f 175/133/133 176/134/134 179/131/131
f 180/135/135 179/131/131 176/134/134
f 176/134/134 177/136/136 180/135/135
f 182/137/137 181/138/138 178/132/132
f 178/132/132 179/131/131 182/137/137
f 183/139/139 182/137/137 179/131/131
f 179/131/131 180/135/135 183/139/139
f 175/133/133 238/140/140 239/141/141
f 239/141/141 255/142/142 175/133/133
f 176/134/134 175/133/133 255/142/142
f 255/142/142 256/143/143 176/134/134
f 177/136/136 176/134/134 256/143/143
f 256/143/143 257/144/144 177/136/136
f 70/75/75 177/136/136 257/144/144
f 70/75/75 257/144/144 258/76/76
f 71/90/90 180/135/135 177/136/136
f 71/90/90 177/136/136 70/75/75
f 72/89/89 183/139/139 180/135/135
f 72/89/89 180/135/135 71/90/90
f 14/88/88 100/145/145 183/139/139
f 14/88/88 183/139/139 72/89/89
f 100/145/145 101/146/146 182/137/137
f 100/145/145 182/137/137 183/139/139
f 101/146/146 102/147/147 181/138/138
f 181/138/138 182/137/137 101/146/146
f 102/147/147 235/148/148 236/149/149
f 236/149/149 181/138/138 102/147/147
f 181/138/138 236/149/149 237/150/150
f 237/150/150 178/132/132 181/138/138
f 178/132/132 237/150/150 238/140/140
f 238/140/140 175/133/133 178/132/132
f 188/151/151 187/152/152 184/153/153
f 188/151/151 184/153/153 185/154/154
f 189/155/155 188/151/151 185/154/154
f 189/155/155 185/154/154 186/156/156
f 105/157/157 187/152/152 104/158/158
f 187/152/152 188/151/151 104/158/158
f 104/158/158 188/151/151 103/159/159
f 188/151/151 189/155/155 103/159/159
f 184/153/153 280/160/160 235/148/148
f 235/148/148 102/147/147 184/153/153
f 185/154/154 184/153/153 102/147/147
f 102/147/147 101/146/146 185/154/154
f 186/156/156 185/154/154 101/146/146
f 186/156/156 101/146/146 100/145/145
f 73/100/100 186/156/156 100/145/145
f 73/100/100 100/145/145 14/88/88
f 74/105/105 189/155/155 186/156/156
f 74/105/105 186/156/156 73/100/100
f 75/104/104 189/155/155 74/105/105
f 189/155/155 75/104/104 103/159/159
f 278/161/161 279/162/162 105/157/157
f 279/162/162 187/152/152 105/157/157
f 187/152/152 279/162/162 280/160/160
f 280/160/160 184/153/153 187/152/152
f 191/163/163 190/164/164 105/157/157
f 191/163/163 105/157/157 104/158/158
f 192/165/165 191/163/163 104/158/158
f 192/165/165 104/158/158 103/159/159
f 76/115/115 103/159/159 75/104/104
f 103/159/159 76/115/115 192/165/165
f 195/166/166 76/115/115 77/114/114
f 76/115/115 195/166/166 192/165/165
f 194/167/167 192/165/165 195/166/166
f 192/165/165 194/167/167 191/163/163
f 193/168/168 191/163/163 194/167/167
f 191/163/163 193/168/168 190/164/164
f 276/169/169 190/164/164 193/168/168
f 190/164/164 276/169/169 277/170/170
f 190/164/164 277/170/170 278/161/161
f 190/164/164 278/161/161 105/157/157
f 196/171/171 194/167/167 197/172/172
f 194/167/167 196/171/171 193/168/168
f 197/172/172 195/166/166 198/173/173
f 195/166/166 197/172/172 194/167/167
f 198/173/173 77/114/114 78/120/120
f 77/114/114 198/173/173 195/166/166
f 275/174/174 193/168/168 196/171/171
f 193/168/168 275/174/174 276/169/169
f 199/175/175 197/172/172 200/176/176
f 197/172/172 199/175/175 196/171/171
f 200/176/176 198/173/173 201/177/177
f 198/173/173 200/176/176 197/172/172
f 202/178/178 200/176/176 203/179/179
f 200/176/176 202/178/178 199/175/175
f 203/179/179 201/177/177 204/180/180
f 201/177/177 203/179/179 200/176/176
f 201/177/177 78/120/120 79/130/130
f 78/120/120 201/177/177 198/173/173
f 204/180/180 79/130/130 80/129/129
f 79/130/130 204/180/180 201/177/177
f 106/39/39 80/129/129 15/40/40
f 80/129/129 106/39/39 204/180/180
f 107/38/38 204/180/180 106/39/39
f 204/180/180 107/38/38 203/179/179
f 108/36/36 203/179/179 107/38/38
f 203/179/179 108/36/36 202/178/178
f 272/37/37 202/178/178 108/36/36
f 202/178/178 272/37/37 273/181/181
f 273/181/181 199/175/175 202/178/178
f 199/175/175 273/181/181 274/182/182
f 274/182/182 196/171/171 199/175/175
f 196/171/171 274/182/182 275/174/174
f 208/183/183 206/184/184 209/185/185
f 206/184/184 208/183/183 205/186/186
f 209/185/185 207/187/187 210/188/188
f 207/187/187 209/185/185 206/184/184
f 211/189/189 209/185/185 212/190/190
f 209/185/185 211/189/189 208/183/183
f 212/190/190 210/188/188 213/191/191
f 210/188/188 212/190/190 209/185/185
f 81/81/81 241/192/192 205/186/186
f 241/192/192 81/81/81 240/80/80
f 205/186/186 242/193/193 206/184/184
f 242/193/193 205/186/186 241/192/192
f 206/184/184 243/194/194 207/187/187
f 243/194/194 206/184/184 242/193/193
f 281/195/195 207/187/187 244/196/196
f 243/194/194 244/196/196 207/187/187
f 282/197/197 210/188/188 281/195/195
f 207/187/187 281/195/195 210/188/188
f 213/191/191 282/197/197 283/198/198
f 282/197/197 213/191/191 210/188/188
f 109/199/199 283/198/198 284/200/200
f 283/198/198 109/199/199 213/191/191
f 110/201/201 213/191/191 109/199/199
f 213/191/191 110/201/201 212/190/190
f 111/202/202 212/190/190 110/201/201
f 212/190/190 111/202/202 211/189/189
f 16/85/85 211/189/189 111/202/202
f 211/189/189 16/85/85 83/83/83
f 83/83/83 208/183/183 211/189/189
f 208/183/183 83/83/83 82/82/82
f 82/82/82 205/186/186 208/183/183
f 205/186/186 82/82/82 81/81/81
f 217/203/203 215/204/204 218/205/205
f 215/204/204 217/203/203 214/206/206
f 218/205/205 216/207/207 219/208/208
f 216/207/207 218/205/205 215/204/204
f 114/209/209 218/205/205 113/210/210
f 218/205/205 114/209/209 217/203/203
f 113/210/210 219/208/208 112/211/211
f 219/208/208 113/210/210 218/205/205
f 84/101/101 111/202/202 214/206/206
f 111/202/202 84/101/101 16/85/85
f 214/206/206 110/201/201 215/204/204
f 110/201/201 214/206/206 111/202/202
f 215/204/204 109/199/199 216/207/207
f 109/199/199 215/204/204 110/201/201
f 216/207/207 284/200/200 285/212/212
f 284/200/200 216/207/207 109/199/199
f 219/208/208 285/212/212 286/213/213
f 285/212/212 219/208/208 216/207/207
f 112/211/211 286/213/213 287/214/214
f 286/213/213 112/211/211 219/208/208
f 17/103/103 217/203/203 114/209/209
f 217/203/203 17/103/103 85/102/102
f 85/102/102 214/206/206 217/203/203
f 214/206/206 85/102/102 84/101/101
f 220/215/215 113/210/210 221/216/216
f 113/210/210 220/215/215 114/209/209
f 221/216/216 112/211/211 222/217/217
f 112/211/211 221/216/216 113/210/210
f 222/217/217 287/214/214 288/218/218
f 287/214/214 222/217/217 112/211/211
f 289/219/219 225/220/220 222/217/217
f 289/219/219 222/217/217 288/218/218
f 225/220/220 224/221/221 221/216/216
f 225/220/220 221/216/216 222/217/217
f 224/221/221 223/222/222 220/215/215
f 224/221/221 220/215/215 221/216/216
f 223/222/222 87/110/110 86/109/109
f 223/222/222 86/109/109 220/215/215
f 86/109/109 114/209/209 220/215/215
f 114/209/209 86/109/109 17/103/103
f 226/223/223 223/222/222 227/224/224
f 223/222/222 224/221/221 227/224/224
f 227/224/224 224/221/221 228/225/225
f 224/221/221 225/220/220 228/225/225
f 228/225/225 225/220/220 290/226/226
f 225/220/220 289/219/219 290/226/226
f 88/119/119 87/110/110 226/223/223
f 226/223/223 87/110/110 223/222/222
f 230/227/227 229/228/228 226/223/223
f 230/227/227 226/223/223 227/224/224
f 231/229/229 230/227/227 227/224/224
f 231/229/229 227/224/224 228/225/225
f 233/230/230 232/231/231 229/228/228
f 233/230/230 229/228/228 230/227/227
f 234/232/232 233/230/230 230/227/227
f 234/232/232 230/227/227 231/229/229
f 291/233/233 231/229/229 228/225/225
f 291/233/233 228/225/225 290/226/226
f 292/234/234 234/232/232 231/229/229
f 292/234/234 231/229/229 291/233/233
f 245/16/16 115/14/14 234/232/232
f 234/232/232 292/234/234 245/16/16
f 115/14/14 116/13/13 233/230/230
f 233/230/230 234/232/232 115/14/14
f 116/13/13 117/12/12 232/231/231
f 116/13/13 232/231/231 233/230/230
f 117/12/12 18/11/11 90/128/128
f 117/12/12 90/128/128 232/231/231
f 232/231/231 90/128/128 89/127/127
f 232/231/231 89/127/127 229/228/228
f 229/228/228 89/127/127 88/119/119
f 229/228/228 88/119/119 226/223/223
f 19/235/235 235/148/148 10/236/236
f 235/148/148 19/235/235 236/149/149
f 20/237/237 236/149/149 19/235/235
f 236/149/149 20/237/237 237/150/150
f 21/238/238 237/150/150 20/237/237
f 237/150/150 21/238/238 238/140/140
f 1/239/239 238/140/140 21/238/238
f 238/140/140 1/239/239 239/141/141
f 6/240/240 241/192/192 240/80/80
f 241/192/192 6/240/240 22/241/241
f 22/241/241 242/193/193 241/192/192
f 242/193/193 22/241/241 23/242/242
f 23/242/242 243/194/194 242/193/193
f 23/242/242 24/243/243 243/194/194
f 24/243/243 244/196/196 243/194/194
f 24/243/243 2/244/244 244/196/196
f 245/16/16 25/245/245 246/15/15
f 25/245/245 245/16/16 13/246/246
f 246/15/15 26/247/247 247/17/17
f 26/247/247 246/15/15 25/245/245
f 247/17/17 27/248/248 248/18/18
f 27/248/248 247/17/17 26/247/247
f 248/18/18 4/249/249 249/19/19
f 4/249/249 248/18/18 27/248/248
f 8/250/250 28/251/251 251/44/44
f 251/44/44 250/45/45 8/250/250
f 28/251/251 29/252/252 252/46/46
f 252/46/46 251/44/44 28/251/251
f 29/252/252 30/253/253 253/47/47
f 253/47/47 252/46/46 29/252/252
f 30/253/253 3/254/254 254/48/48
f 254/48/48 253/47/47 30/253/253
f 31/255/255 239/141/141 1/239/239
f 239/141/141 31/255/255 255/142/142
f 32/256/256 255/142/142 31/255/255
f 255/142/142 32/256/256 256/143/143
f 33/257/257 256/143/143 32/256/256
f 256/143/143 33/257/257 257/144/144
f 5/258/258 257/144/144 33/257/257
f 257/144/144 5/258/258 258/76/76
f 34/259/259 258/76/76 5/258/258
f 258/76/76 34/259/259 259/77/77
f 35/260/260 259/77/77 34/259/259
f 259/77/77 35/260/260 260/78/78
f 35/260/260 261/79/79 260/78/78
f 261/79/79 35/260/260 36/261/261
f 36/261/261 240/80/80 261/79/79
f 240/80/80 36/261/261 6/240/240
f 37/262/262 249/19/19 4/249/249
f 249/19/19 37/262/262 262/20/20
f 38/263/263 262/20/20 37/262/262
f 262/20/20 38/263/263 263/21/21
f 39/264/264 263/21/21 38/263/263
f 263/21/21 39/264/264 264/22/22
f 7/265/265 264/22/22 39/264/264
f 264/22/22 7/265/265 265/23/23
f 40/266/266 265/23/23 7/265/265
f 265/23/23 40/266/266 266/63/63
f 41/267/267 266/63/63 40/266/266
f 266/63/63 41/267/267 267/64/64
f 41/267/267 42/268/268 268/65/65
f 41/267/267 268/65/65 267/64/64
f 42/268/268 8/250/250 250/45/45
f 42/268/268 250/45/45 268/65/65
f 3/254/254 49/269/269 269/49/49
f 269/49/49 254/48/48 3/254/254
f 49/269/269 50/270/270 270/50/50
f 270/50/50 269/49/49 49/269/269
f 50/270/270 51/271/271 271/35/35
f 271/35/35 270/50/50 50/270/270
f 51/271/271 272/37/37 271/35/35
f 272/37/37 51/271/271 9/272/272
f 9/272/272 273/181/181 272/37/37
f 273/181/181 9/272/272 52/273/273
f 52/273/273 274/182/182 273/181/181
f 274/182/182 52/273/273 53/274/274
f 53/274/274 275/174/174 274/182/182
f 275/174/174 53/274/274 54/275/275
f 54/275/275 276/169/169 275/174/174
f 276/169/169 54/275/275 55/276/276
f 55/276/276 277/170/170 276/169/169
f 277/170/170 55/276/276 56/277/277
f 277/170/170 57/278/278 278/161/161
f 57/278/278 277/170/170 56/277/277
f 278/161/161 58/279/279 279/162/162
f 58/279/279 278/161/161 57/278/278
f 59/280/280 279/162/162 58/279/279
f 279/162/162 59/280/280 280/160/160
f 10/236/236 280/160/160 59/280/280
f 280/160/160 10/236/236 235/148/148
f 2/244/244 60/281/281 281/195/195
f 2/244/244 281/195/195 244/196/196
f 60/281/281 61/282/282 282/197/197
f 60/281/281 282/197/197 281/195/195
f 61/282/282 62/283/283 283/198/198
f 61/282/282 283/198/198 282/197/197
f 62/283/283 11/284/284 284/200/200
f 284/200/200 283/198/198 62/283/283
f 11/284/284 63/285/285 285/212/212
f 285/212/212 284/200/200 11/284/284
f 63/285/285 64/286/286 286/213/213
f 286/213/213 285/212/212 63/285/285
f 287/214/214 64/286/286 12/287/287
f 64/286/286 287/214/214 286/213/213
f 288/218/218 12/287/287 65/288/288
f 12/287/287 288/218/218 287/214/214
f 289/219/219 65/288/288 66/289/289
f 65/288/288 289/219/219 288/218/218
f 289/219/219 67/290/290 290/226/226
f 67/290/290 289/219/219 66/289/289
f 68/291/291 290/226/226 67/290/290
f 290/226/226 68/291/291 291/233/233
f 69/292/292 291/233/233 68/291/291
f 291/233/233 69/292/292 292/234/234
f 13/246/246 292/234/234 69/292/292
f 292/234/234 13/246/246 245/16/16
f 402/293/293 401/294/294 405/295/295
f 401/294/294 404/296/296 405/295/295
f 403/297/297 402/293/293 406/298/298
f 402/293/293 405/295/295 406/298/298
f 405/295/295 404/296/296 408/299/299
f 404/296/296 407/300/300 408/299/299
f 406/298/298 405/295/295 409/301/301
f 405/295/295 408/299/299 409/301/301
f 400/302/302 310/303/303 401/294/294
f 310/303/303 338/304/304 401/294/294
f 399/305/305 400/302/302 402/293/293
f 400/302/302 401/294/294 402/293/293
f 398/306/306 399/305/305 403/297/297
f 399/305/305 402/293/293 403/297/297
f 537/307/307 398/306/306 538/308/308
f 398/306/306 403/297/297 538/308/308
f 538/308/308 403/297/297 539/309/309
f 403/297/297 406/298/298 539/309/309
f 409/301/301 540/310/310 406/298/298
f 539/309/309 406/298/298 540/310/310
f 554/311/311 541/312/312 409/301/301
f 540/310/310 409/301/301 541/312/312
f 555/313/313 554/311/311 408/299/299
f 409/301/301 408/299/299 554/311/311
f 556/314/314 555/313/313 407/300/300
f 408/299/299 407/300/300 555/313/313
f 557/315/315 556/314/314 340/316/316
f 407/300/300 340/316/316 556/314/314
f 404/296/296 339/317/317 407/300/300
f 339/317/317 340/316/316 407/300/300
f 401/294/294 338/304/304 404/296/296
f 338/304/304 339/317/317 404/296/296
f 413/318/318 411/319/319 410/320/320
f 411/319/319 413/318/318 414/321/321
f 414/321/321 412/322/322 411/319/319
f 412/322/322 414/321/321 415/323/323
f 416/324/324 414/321/321 413/318/318
f 414/321/321 416/324/324 417/325/325
f 417/325/325 415/323/323 414/321/321
f 415/323/323 417/325/325 418/326/326
f 563/327/327 394/328/328 564/329/329
f 394/328/328 563/327/327 410/320/320
f 410/320/320 393/330/330 394/328/328
f 393/330/330 410/320/320 411/319/319
f 411/319/319 392/331/331 393/330/330
f 392/331/331 411/319/319 412/322/322
f 308/332/332 412/322/322 335/333/333
f 412/322/322 308/332/332 392/331/331
f 335/333/333 415/323/323 336/334/334
f 415/323/323 335/333/333 412/322/322
f 336/334/334 418/326/326 337/335/335
f 418/326/326 336/334/334 415/323/323
f 337/335/335 543/336/336 542/337/337
f 543/336/336 337/335/335 418/326/326
f 544/338/338 418/326/326 417/325/325
f 418/326/326 544/338/338 543/336/336
f 545/339/339 417/325/325 416/324/324
f 417/325/325 545/339/339 544/338/338
f 416/324/324 561/340/340 546/341/341
f 546/341/341 545/339/339 416/324/324
f 413/318/318 562/342/342 561/340/340
f 561/340/340 416/324/324 413/318/318
f 562/342/342 410/320/320 563/327/327
f 410/320/320 562/342/342 413/318/318
f 420/343/343 422/344/344 423/345/345
f 422/344/344 420/343/343 419/346/346
f 421/347/347 420/343/343 424/348/348
f 420/343/343 423/345/345 424/348/348
f 423/345/345 425/349/349 426/350/350
f 425/349/349 423/345/345 422/344/344
f 424/348/348 423/345/345 427/351/351
f 423/345/345 426/350/350 427/351/351
f 388/352/352 335/333/333 419/346/346
f 335/333/333 388/352/352 308/332/332
f 387/353/353 419/346/346 420/343/343
f 419/346/346 387/353/353 388/352/352
f 386/354/354 387/353/353 421/347/347
f 387/353/353 420/343/343 421/347/347
f 310/303/303 386/354/354 338/304/304
f 386/354/354 421/347/347 338/304/304
f 338/304/304 421/347/347 339/317/317
f 421/347/347 424/348/348 339/317/317
f 339/317/317 424/348/348 340/316/316
f 424/348/348 427/351/351 340/316/316
f 340/316/316 427/351/351 557/315/315
f 427/351/351 558/355/355 557/315/315
f 427/351/351 426/350/350 558/355/355
f 426/350/350 559/356/356 558/355/355
f 426/350/350 560/357/357 559/356/356
f 560/357/357 426/350/350 425/349/349
f 425/349/349 542/337/337 560/357/357
f 542/337/337 425/349/349 337/335/335
f 422/344/344 337/335/335 425/349/349
f 337/335/335 422/344/344 336/334/334
f 419/346/346 336/334/334 422/344/344
f 336/334/334 419/346/346 335/333/333
f 429/358/358 428/359/359 432/360/360
f 428/359/359 431/361/361 432/360/360
f 430/362/362 432/360/360 433/363/363
f 432/360/360 430/362/362 429/358/358
f 432/360/360 431/361/361 435/364/364
f 431/361/361 434/365/365 435/364/364
f 433/363/363 435/364/364 436/366/366
f 435/364/364 433/363/363 432/360/360
f 551/367/367 550/368/368 428/359/359
f 550/368/368 362/369/369 428/359/359
f 552/370/370 551/367/367 429/358/358
f 551/367/367 428/359/359 429/358/358
f 553/371/371 429/358/358 430/362/362
f 429/358/358 553/371/371 552/370/370
f 532/372/372 430/362/362 372/373/373
f 430/362/362 532/372/372 553/371/371
f 372/373/373 433/363/363 373/374/374
f 433/363/363 372/373/373 430/362/362
f 373/374/374 436/366/366 374/375/375
f 436/366/366 373/374/374 433/363/363
f 374/375/375 383/376/376 309/377/377
f 383/376/376 374/375/375 436/366/366
f 436/366/366 384/378/378 383/376/376
f 384/378/378 436/366/366 435/364/364
f 435/364/364 434/365/365 384/378/378
f 434/365/365 385/379/379 384/378/378
f 434/365/365 364/380/380 385/379/379
f 364/380/380 306/381/381 385/379/379
f 431/361/361 363/382/382 434/365/365
f 363/382/382 364/380/380 434/365/365
f 428/359/359 362/369/369 431/361/361
f 362/369/369 363/382/382 431/361/361
f 440/383/383 441/384/384 437/385/385
f 438/386/386 437/385/385 441/384/384
f 441/384/384 439/387/387 438/386/386
f 439/387/387 441/384/384 442/388/388
f 441/384/384 440/383/383 444/389/389
f 440/383/383 443/390/390 444/389/389
f 442/388/388 444/389/389 445/391/391
f 444/389/389 442/388/388 441/384/384
f 365/392/392 437/385/385 306/381/381
f 385/379/379 306/381/381 437/385/385
f 437/385/385 438/386/386 385/379/379
f 384/378/378 385/379/379 438/386/386
f 383/376/376 438/386/386 439/387/387
f 438/386/386 383/376/376 384/378/378
f 309/377/377 439/387/387 375/393/393
f 439/387/387 309/377/377 383/376/376
f 442/388/388 375/393/393 439/387/387
f 375/393/393 442/388/388 376/394/394
f 376/394/394 445/391/391 377/395/395
f 445/391/391 376/394/394 442/388/388
f 366/396/396 443/390/390 440/383/383
f 443/390/390 366/396/396 307/397/397
f 366/396/396 440/383/383 365/392/392
f 437/385/385 365/392/392 440/383/383
f 444/389/389 443/390/390 447/398/398
f 443/390/390 446/399/399 447/398/398
f 445/391/391 447/398/398 448/400/400
f 447/398/398 445/391/391 444/389/389
f 377/395/395 448/400/400 378/401/401
f 448/400/400 377/395/395 445/391/391
f 378/401/401 448/400/400 379/402/402
f 448/400/400 451/403/403 379/402/402
f 448/400/400 447/398/398 451/403/403
f 447/398/398 450/404/404 451/403/403
f 447/398/398 446/399/399 450/404/404
f 446/399/399 449/405/405 450/404/404
f 446/399/399 368/406/406 449/405/405
f 368/406/406 446/399/399 367/407/407
f 307/397/397 446/399/399 443/390/390
f 446/399/399 307/397/397 367/407/407
f 450/404/404 452/408/408 453/409/409
f 452/408/408 450/404/404 449/405/405
f 454/410/410 451/403/403 450/404/404
f 450/404/404 453/409/409 454/410/410
f 380/411/411 379/402/402 451/403/403
f 451/403/403 454/410/410 380/411/411
f 449/405/405 369/412/412 452/408/408
f 369/412/412 449/405/405 368/406/406
f 455/413/413 453/409/409 452/408/408
f 453/409/409 455/413/413 456/414/414
f 456/414/414 457/415/415 453/409/409
f 454/410/410 453/409/409 457/415/415
f 458/416/416 456/414/414 455/413/413
f 456/414/414 458/416/416 459/417/417
f 459/417/417 460/418/418 456/414/414
f 457/415/415 456/414/414 460/418/418
f 457/415/415 381/419/419 454/410/410
f 380/411/411 454/410/410 381/419/419
f 460/418/418 382/420/420 457/415/415
f 381/419/419 457/415/415 382/420/420
f 382/420/420 460/418/418 310/303/303
f 460/418/418 386/354/354 310/303/303
f 460/418/418 459/417/417 386/354/354
f 459/417/417 387/353/353 386/354/354
f 388/352/352 459/417/417 458/416/416
f 459/417/417 388/352/352 387/353/353
f 308/332/332 458/416/416 371/421/421
f 458/416/416 308/332/332 388/352/352
f 371/421/421 455/413/413 370/422/422
f 455/413/413 371/421/421 458/416/416
f 370/422/422 452/408/408 369/412/412
f 452/408/408 370/422/422 455/413/413
f 462/423/423 461/424/424 465/425/425
f 461/424/424 464/426/426 465/425/425
f 463/427/427 462/423/423 466/428/428
f 462/423/423 465/425/425 466/428/428
f 465/425/425 464/426/426 468/429/429
f 464/426/426 467/430/430 468/429/429
f 466/428/428 465/425/425 469/431/431
f 465/425/425 468/429/429 469/431/431
f 547/432/432 531/433/433 461/424/424
f 531/433/433 530/434/434 461/424/424
f 548/435/435 547/432/432 462/423/423
f 547/432/432 461/424/424 462/423/423
f 549/436/436 548/435/435 463/427/427
f 548/435/435 462/423/423 463/427/427
f 550/368/368 549/436/436 362/369/369
f 549/436/436 463/427/427 362/369/369
f 362/369/369 463/427/427 363/382/382
f 463/427/427 466/428/428 363/382/382
f 363/382/382 466/428/428 364/380/380
f 466/428/428 469/431/431 364/380/380
f 364/380/380 469/431/431 306/381/381
f 469/431/431 389/437/437 306/381/381
f 469/431/431 468/429/429 389/437/437
f 468/429/429 390/438/438 389/437/437
f 468/429/429 467/430/430 390/438/438
f 467/430/430 391/439/439 390/438/438
f 467/430/430 528/440/440 391/439/439
f 528/440/440 527/441/441 391/439/439
f 464/426/426 529/442/442 467/430/430
f 529/442/442 528/440/440 467/430/430
f 461/424/424 530/434/434 464/426/426
f 530/434/434 529/442/442 464/426/426
f 471/443/443 470/444/444 474/445/445
f 470/444/444 473/446/446 474/445/445
f 472/447/447 471/443/443 475/448/448
f 471/443/443 474/445/445 475/448/448
f 477/449/449 474/445/445 473/446/446
f 473/446/446 476/450/450 477/449/449
f 478/451/451 475/448/448 474/445/445
f 474/445/445 477/449/449 478/451/451
f 391/439/439 527/441/441 470/444/444
f 527/441/441 572/452/452 470/444/444
f 390/438/438 391/439/439 471/443/443
f 391/439/439 470/444/444 471/443/443
f 389/437/437 390/438/438 472/447/447
f 390/438/438 471/443/443 472/447/447
f 306/381/381 389/437/437 365/392/392
f 389/437/437 472/447/447 365/392/392
f 365/392/392 472/447/447 366/396/396
f 472/447/447 475/448/448 366/396/396
f 475/448/448 307/397/397 366/396/396
f 307/397/397 475/448/448 478/451/451
f 571/453/453 476/450/450 473/446/446
f 476/450/450 571/453/453 570/454/454
f 470/444/444 572/452/452 473/446/446
f 572/452/452 571/453/453 473/446/446
f 477/449/449 476/450/450 480/455/455
f 476/450/450 479/456/456 480/455/455
f 478/451/451 477/449/449 481/457/457
f 477/449/449 480/455/455 481/457/457
f 478/451/451 367/407/407 307/397/397
f 367/407/407 478/451/451 481/457/457
f 367/407/407 484/458/458 368/406/406
f 484/458/458 367/407/407 481/457/457
f 481/457/457 483/459/459 484/458/458
f 483/459/459 481/457/457 480/455/455
f 480/455/455 482/460/460 483/459/459
f 482/460/460 480/455/455 479/456/456
f 479/456/456 568/461/461 482/460/460
f 568/461/461 479/456/456 569/462/462
f 570/454/454 479/456/456 476/450/450
f 479/456/456 570/454/454 569/462/462
f 485/463/463 483/459/459 482/460/460
f 483/459/459 485/463/463 486/464/464
f 484/458/458 486/464/464 487/465/465
f 486/464/464 484/458/458 483/459/459
f 484/458/458 487/465/465 368/406/406
f 368/406/406 487/465/465 369/412/412
f 567/466/466 482/460/460 568/461/461
f 482/460/460 567/466/466 485/463/463
f 488/467/467 486/464/464 485/463/463
f 486/464/464 488/467/467 489/468/468
f 489/468/468 487/465/465 486/464/464
f 487/465/465 489/468/468 490/469/469
f 491/470/470 489/468/468 488/467/467
f 489/468/468 491/470/470 492/471/471
f 492/471/471 490/469/469 489/468/468
f 490/469/469 492/471/471 493/472/472
f 490/469/469 369/412/412 487/465/465
f 369/412/412 490/469/469 370/422/422
f 493/472/472 370/422/422 490/469/469
f 370/422/422 493/472/472 371/421/421
f 392/331/331 371/421/421 493/472/472
f 371/421/421 392/331/331 308/332/332
f 393/330/330 493/472/472 492/471/471
f 493/472/472 393/330/330 392/331/331
f 394/328/328 492/471/471 491/470/470
f 492/471/471 394/328/328 393/330/330
f 564/329/329 491/470/470 565/473/473
f 491/470/470 564/329/329 394/328/328
f 565/473/473 488/467/467 566/474/474
f 488/467/467 565/473/473 491/470/470
f 566/474/474 485/463/463 567/466/466
f 485/463/463 566/474/474 488/467/467
f 497/475/475 495/476/476 494/477/477
f 495/476/476 497/475/475 498/478/478
f 498/478/478 496/479/479 495/476/476
f 496/479/479 498/478/478 499/480/480
f 500/481/481 498/478/478 497/475/475
f 498/478/478 500/481/481 501/482/482
f 501/482/482 499/480/480 498/478/478
f 499/480/480 501/482/482 502/483/483
f 372/373/373 533/484/484 532/372/372
f 533/484/484 372/373/373 494/477/477
f 494/477/477 534/485/485 533/484/484
f 534/485/485 494/477/477 495/476/476
f 495/476/476 535/486/486 534/485/485
f 535/486/486 495/476/476 496/479/479
f 496/479/479 536/487/487 535/486/486
f 536/487/487 496/479/479 573/488/488
f 499/480/480 573/488/488 496/479/479
f 573/488/488 499/480/480 574/489/489
f 502/483/483 574/489/489 499/480/480
f 574/489/489 502/483/483 575/490/490
f 395/491/491 575/490/490 502/483/483
f 575/490/490 395/491/491 576/492/492
f 396/493/493 502/483/483 501/482/482
f 502/483/483 396/493/493 395/491/491
f 397/494/494 501/482/482 500/481/481
f 501/482/482 397/494/494 396/493/493
f 500/481/481 309/377/377 397/494/494
f 309/377/377 500/481/481 374/375/375
f 374/375/375 497/475/475 373/374/374
f 497/475/475 374/375/375 500/481/481
f 373/374/374 494/477/477 372/373/373
f 494/477/477 373/374/374 497/475/475
f 506/495/495 504/496/496 503/497/497
f 504/496/496 506/495/495 507/498/498
f 507/498/498 505/499/499 504/496/496
f 505/499/499 507/498/498 508/500/500
f 509/501/501 507/498/498 506/495/495
f 507/498/498 509/501/501 510/502/502
f 510/502/502 508/500/500 507/498/498
f 508/500/500 510/502/502 511/503/503
f 397/494/494 375/393/393 503/497/497
f 375/393/393 397/494/494 309/377/377
f 503/497/497 396/493/493 397/494/494
f 396/493/493 503/497/497 504/496/496
f 504/496/496 395/491/491 396/493/493
f 395/491/491 504/496/496 505/499/499
f 505/499/499 576/492/492 395/491/491
f 576/492/492 505/499/499 577/504/504
f 508/500/500 577/504/504 505/499/499
f 577/504/504 508/500/500 578/505/505
f 511/503/503 578/505/505 508/500/500
f 578/505/505 511/503/503 579/506/506
f 506/495/495 377/395/395 509/501/501
f 377/395/395 506/495/495 376/394/394
f 376/394/394 503/497/497 375/393/393
f 503/497/497 376/394/394 506/495/495
f 510/502/502 512/507/507 513/508/508
f 512/507/507 510/502/502 509/501/501
f 511/503/503 513/508/508 514/509/509
f 513/508/508 511/503/503 510/502/502
f 579/506/506 514/509/509 580/510/510
f 514/509/509 579/506/506 511/503/503
f 580/510/510 514/509/509 581/511/511
f 514/509/509 517/512/512 581/511/511
f 514/509/509 513/508/508 517/512/512
f 513/508/508 516/513/513 517/512/512
f 513/508/508 512/507/507 516/513/513
f 512/507/507 515/514/514 516/513/513
f 512/507/507 378/401/401 515/514/514
f 378/401/401 379/402/402 515/514/514
f 509/501/501 378/401/401 512/507/507
f 378/401/401 509/501/501 377/395/395
f 519/515/515 516/513/513 515/514/514
f 515/514/514 518/516/516 519/515/515
f 520/517/517 517/512/512 516/513/513
f 516/513/513 519/515/515 520/517/517
f 582/518/518 581/511/511 517/512/512
f 517/512/512 520/517/517 582/518/518
f 379/402/402 518/516/516 515/514/514
f 518/516/516 379/402/402 380/411/411
f 519/515/515 518/516/516 522/519/519
f 518/516/516 521/520/520 522/519/519
f 520/517/517 519/515/515 523/521/521
f 519/515/515 522/519/519 523/521/521
f 522/519/519 521/520/520 525/522/522
f 521/520/520 524/523/523 525/522/522
f 523/521/521 522/519/519 526/524/524
f 522/519/519 525/522/522 526/524/524
f 582/518/518 520/517/517 583/525/525
f 520/517/517 523/521/521 583/525/525
f 583/525/525 523/521/521 584/526/526
f 523/521/521 526/524/524 584/526/526
f 584/526/526 526/524/524 537/307/307
f 526/524/524 398/306/306 537/307/307
f 526/524/524 525/522/522 398/306/306
f 525/522/522 399/305/305 398/306/306
f 525/522/522 524/523/523 399/305/305
f 524/523/523 400/302/302 399/305/305
f 524/523/523 382/420/420 400/302/302
f 382/420/420 310/303/303 400/302/302
f 521/520/520 381/419/419 524/523/523
f 381/419/419 382/420/420 524/523/523
f 518/516/516 380/411/411 521/520/520
f 380/411/411 381/419/419 521/520/520
f 311/527/527 527/441/441 528/440/440
f 527/441/441 311/527/527 303/528/528
f 312/529/529 528/440/440 529/442/442
f 528/440/440 312/529/529 311/527/527
f 313/530/530 529/442/442 530/434/434
f 529/442/442 313/530/530 312/529/529
f 293/531/531 530/434/434 531/433/433
f 530/434/434 293/531/531 313/530/530
f 314/532/532 298/533/533 533/484/484
f 533/484/484 298/533/533 532/372/372
f 315/534/534 314/532/532 534/485/485
f 534/485/485 314/532/532 533/484/484
f 316/535/535 315/534/534 535/486/486
f 535/486/486 315/534/534 534/485/485
f 294/536/536 316/535/535 536/487/487
f 535/486/486 536/487/487 316/535/535
f 537/307/307 317/537/537 305/538/538
f 317/537/537 537/307/307 538/308/308
f 318/539/539 538/308/308 539/309/309
f 538/308/308 318/539/539 317/537/537
f 319/540/540 539/309/309 540/310/310
f 539/309/309 319/540/540 318/539/539
f 296/541/541 540/310/310 541/312/312
f 540/310/310 296/541/541 319/540/540
f 320/542/542 300/543/543 543/336/336
f 542/337/337 543/336/336 300/543/543
f 321/544/544 320/542/542 544/338/338
f 543/336/336 544/338/338 320/542/542
f 322/545/545 321/544/544 545/339/339
f 544/338/338 545/339/339 321/544/544
f 295/546/546 322/545/545 546/341/341
f 545/339/339 546/341/341 322/545/545
f 531/433/433 323/547/547 293/531/531
f 323/547/547 531/433/433 547/432/432
f 547/432/432 324/548/548 323/547/547
f 324/548/548 547/432/432 548/435/435
f 548/435/435 325/549/549 324/548/548
f 325/549/549 548/435/435 549/436/436
f 549/436/436 297/550/550 325/549/549
f 297/550/550 549/436/436 550/368/368
f 326/551/551 550/368/368 551/367/367
f 550/368/368 326/551/551 297/550/550
f 327/552/552 551/367/367 552/370/370
f 551/367/367 327/552/552 326/551/551
f 327/552/552 553/371/371 328/553/553
f 553/371/371 327/552/552 552/370/370
f 328/553/553 532/372/372 298/533/533
f 532/372/372 328/553/553 553/371/371
f 329/554/554 541/312/312 554/311/311
f 541/312/312 329/554/554 296/541/541
f 330/555/555 554/311/311 555/313/313
f 554/311/311 330/555/555 329/554/554
f 331/556/556 555/313/313 556/314/314
f 555/313/313 331/556/556 330/555/555
f 299/557/557 556/314/314 557/315/315
f 556/314/314 299/557/557 331/556/556
f 332/558/558 557/315/315 558/355/355
f 557/315/315 332/558/558 299/557/557
f 333/559/559 558/355/355 559/356/356
f 558/355/355 333/559/559 332/558/558
f 334/560/560 333/559/559 560/357/357
f 559/356/356 560/357/357 333/559/559
f 300/543/543 334/560/560 542/337/337
f 560/357/357 542/337/337 334/560/560
f 295/546/546 561/340/340 341/561/561
f 546/341/341 561/340/340 295/546/546
f 341/561/561 562/342/342 342/562/562
f 561/340/340 562/342/342 341/561/561
f 342/562/562 563/327/327 343/563/563
f 562/342/342 563/327/327 342/562/562
f 343/563/563 564/329/329 301/564/564
f 564/329/329 343/563/563 563/327/327
f 301/564/564 565/473/473 344/565/565
f 565/473/473 301/564/564 564/329/329
f 345/566/566 344/565/565 566/474/474
f 566/474/474 344/565/565 565/473/473
f 346/567/567 345/566/566 567/466/466
f 567/466/466 345/566/566 566/474/474
f 568/461/461 346/567/567 567/466/466
f 346/567/567 568/461/461 347/568/568
f 569/462/462 347/568/568 568/461/461
f 347/568/568 569/462/462 348/569/569
f 302/570/570 569/462/462 570/454/454
f 569/462/462 302/570/570 348/569/569
f 349/571/571 570/454/454 571/453/453
f 570/454/454 349/571/571 302/570/570
f 350/572/572 571/453/453 572/452/452
f 571/453/453 350/572/572 349/571/571
f 303/528/528 572/452/452 527/441/441
f 572/452/452 303/528/528 350/572/572
f 351/573/573 294/536/536 573/488/488
f 536/487/487 573/488/488 294/536/536
f 352/574/574 351/573/573 574/489/489
f 573/488/488 574/489/489 351/573/573
f 353/575/575 352/574/574 575/490/490
f 574/489/489 575/490/490 352/574/574
f 304/576/576 353/575/575 576/492/492
f 575/490/490 576/492/492 353/575/575
f 354/577/577 304/576/576 577/504/504
f 576/492/492 577/504/504 304/576/576
f 355/578/578 354/577/577 578/505/505
f 577/504/504 578/505/505 354/577/577
f 356/579/579 355/578/578 579/506/506
f 578/505/505 579/506/506 355/578/578
f 357/580/580 356/579/579 580/510/510
f 579/506/506 580/510/510 356/579/579
f 580/510/510 581/511/511 357/580/580
f 357/580/580 581/511/511 358/581/581
f 581/511/511 359/582/582 358/581/581
f 359/582/582 581/511/511 582/518/518
f 582/518/518 360/583/583 359/582/582
f 360/583/583 582/518/518 583/525/525
f 583/525/525 361/584/584 360/583/583
f 361/584/584 583/525/525 584/526/526
f 584/526/526 305/538/538 361/584/584
f 305/538/538 584/526/526 537/307/307
f 10/585/236 311/586/527 19/587/235
f 311/586/527 10/585/236 303/588/528
f 19/587/235 312/589/529 20/590/237
f 312/589/529 19/587/235 311/586/527
f 20/590/237 313/591/530 21/592/238
f 313/591/530 20/590/237 312/589/529
f 21/592/238 293/593/531 1/594/239
f 293/593/531 21/592/238 313/591/530
f 22/595/241 6/596/240 298/597/533
f 22/595/241 298/597/533 314/598/532
f 23/599/242 22/595/241 314/598/532
f 23/599/242 314/598/532 315/600/534
f 23/599/242 316/601/535 24/602/243
f 316/601/535 23/599/242 315/600/534
f 24/602/243 294/603/536 2/604/244
f 294/603/536 24/602/243 316/601/535
f 25/605/245 13/606/246 305/607/538
f 25/605/245 305/607/538 317/608/537
f 25/605/245 318/609/539 26/610/247
f 318/609/539 25/605/245 317/608/537
f 318/609/539 27/611/248 26/610/247
f 27/611/248 318/609/539 319/612/540
f 319/612/540 4/613/249 27/611/248
f 4/613/249 319/612/540 296/614/541
f 28/615/251 8/616/250 300/617/543
f 28/615/251 300/617/543 320/618/542
f 29/619/252 28/615/251 320/618/542
f 29/619/252 320/618/542 321/620/544
f 30/621/253 29/619/252 321/620/544
f 30/621/253 321/620/544 322/622/545
f 3/623/254 30/621/253 322/622/545
f 3/623/254 322/622/545 295/624/546
f 1/594/239 323/625/547 31/626/255
f 323/625/547 1/594/239 293/593/531
f 31/626/255 324/627/548 32/628/256
f 324/627/548 31/626/255 323/625/547
f 32/628/256 325/629/549 33/630/257
f 325/629/549 32/628/256 324/627/548
f 33/630/257 297/631/550 5/632/258
f 297/631/550 33/630/257 325/629/549
f 5/632/258 326/633/551 34/634/259
f 326/633/551 5/632/258 297/631/550
f 34/634/259 327/635/552 35/636/260
f 327/635/552 34/634/259 326/633/551
f 35/636/260 328/637/553 36/638/261
f 328/637/553 35/636/260 327/635/552
f 6/596/240 36/638/261 328/637/553
f 6/596/240 328/637/553 298/597/533
f 296/614/541 37/639/262 4/613/249
f 37/639/262 296/614/541 329/640/554
f 37/639/262 330/641/555 38/642/263
f 330/641/555 37/639/262 329/640/554
f 38/642/263 331/643/556 39/644/264
f 331/643/556 38/642/263 330/641/555
f 39/644/264 299/645/557 7/646/265
f 299/645/557 39/644/264 331/643/556
f 7/646/265 332/647/558 40/648/266
f 332/647/558 7/646/265 299/645/557
f 332/647/558 41/649/267 40/648/266
f 41/649/267 332/647/558 333/650/559
f 42/651/268 41/649/267 333/650/559
f 42/651/268 333/650/559 334/652/560
f 8/616/250 42/651/268 334/652/560
f 8/616/250 334/652/560 300/617/543
f 49/653/269 3/623/254 295/624/546
f 49/653/269 295/624/546 341/654/561
f 50/655/270 49/653/269 341/654/561
f 50/655/270 341/654/561 342/656/562
f 51/657/271 50/655/270 342/656/562
f 51/657/271 342/656/562 343/658/563
f 9/659/272 51/657/271 343/658/563
f 9/659/272 343/658/563 301/660/564
f 52/661/273 9/659/272 301/660/564
f 52/661/273 301/660/564 344/662/565
f 53/663/274 52/661/273 344/662/565
f 53/663/274 344/662/565 345/664/566
f 53/663/274 346/665/567 54/666/275
f 346/665/567 53/663/274 345/664/566
f 54/666/275 347/667/568 55/668/276
f 347/667/568 54/666/275 346/665/567
f 55/668/276 348/669/569 56/670/277
f 348/669/569 55/668/276 347/667/568
f 56/670/277 302/671/570 57/672/278
f 302/671/570 56/670/277 348/669/569
f 57/672/278 349/673/571 58/674/279
f 349/673/571 57/672/278 302/671/570
f 58/674/279 350/675/572 59/676/280
f 350/675/572 58/674/279 349/673/571
f 59/676/280 303/588/528 10/585/236
f 303/588/528 59/676/280 350/675/572
f 2/604/244 351/677/573 60/678/281
f 351/677/573 2/604/244 294/603/536
f 60/678/281 352/679/574 61/680/282
f 352/679/574 60/678/281 351/677/573
f 62/681/283 61/680/282 352/679/574
f 62/681/283 352/679/574 353/682/575
f 62/681/283 304/683/576 11/684/284
f 304/683/576 62/681/283 353/682/575
f 11/684/284 354/685/577 63/686/285
f 354/685/577 11/684/284 304/683/576
f 63/686/285 355/687/578 64/688/286
f 355/687/578 63/686/285 354/685/577
f 12/689/287 64/688/286 355/687/578
f 12/689/287 355/687/578 356/690/579
f 12/689/287 357/691/580 65/692/288
f 357/691/580 12/689/287 356/690/579
f 66/693/289 65/692/288 357/691/580
f 66/693/289 357/691/580 358/694/581
f 66/693/289 359/695/582 67/696/290
f 359/695/582 66/693/289 358/694/581
f 67/696/290 360/697/583 68/698/291
f 360/697/583 67/696/290 359/695/582
f 69/699/292 68/698/291 360/697/583
f 69/699/292 360/697/583 361/700/584
f 13/606/246 69/699/292 361/700/584
f 13/606/246 361/700/584 305/607/538
