# https://github.com/mikedh/trimesh
v 0.13283938 0.11311179 -0.01998469
v 0.13530719 0.10967924 -0.04047232
v 0.13283938 0.09808339 -0.05941669
v 0.13062561 0.11073542 -0.00018996
v 0.16502990 0.11234167 -0.01497696
v 0.16502990 0.11192361 -0.02497668
v 0.17504634 0.11047137 -0.03174815
v 0.18506280 0.10954723 -0.03346464
v 0.20505938 0.10404634 -0.04497613
v 0.18506280 0.10516852 -0.04497613
v 0.17504634 0.10164796 -0.05231452
v 0.13120626 0.08089863 -0.07199901
v 0.20505938 0.09432079 -0.05889701
v 0.21500325 0.09143832 -0.06136939
v 0.19504294 0.08587143 -0.06700702
v 0.13062561 0.06716843 -0.07703824
v 0.13062561 0.10545456 0.01499073
v 0.17105429 0.10926117 0.00146354
v 0.18506280 0.11018533 -0.00403237
v 0.19504294 0.11047137 -0.00765432
v 0.18506280 0.11163756 -0.01497696
v 0.17504634 0.11181359 -0.01998469
v 0.18506280 0.11113147 -0.02497668
v 0.20393434 0.10965724 -0.02777975
v 0.26004094 0.10708283 -0.02497668
v 0.26004094 0.10475045 -0.03499215
v 0.21678153 0.10136192 -0.04833037
v 0.25503272 0.10173596 -0.04318091
v 0.25503272 0.09885351 -0.04818865
v 0.19504294 0.07792816 -0.07187304
v 0.20505938 0.06499009 -0.07655007
v 0.27502930 0.09280254 -0.05352708
v 0.23503613 0.08092064 -0.06806211
v 0.24948013 0.08820380 -0.06127490
v 0.24501628 0.07634391 -0.07061322
v 0.20505938 0.08166875 -0.06919594
v 0.13062561 0.05216203 -0.07905394
v 0.21003130 0.05497848 -0.07864450
v 0.13062561 0.09957962 0.02565186
v 0.16002168 0.09962364 0.02464401
v 0.16002168 0.10475045 0.01499073
v 0.19003472 0.10736887 0.00499100
v 0.19504294 0.10939319 -0.00264658
v 0.20505938 0.10915115 -0.00392214
v 0.26004094 0.10644473 -0.00499298
v 0.25503272 0.10789695 -0.01497696
v 0.21209992 0.11020733 -0.01526041
v 0.31995815 0.10369429 -0.01497696
v 0.32496637 0.10239607 -0.02497668
v 0.33995473 0.09856746 -0.03289773
v 0.26501286 0.09988767 -0.04502338
v 0.33995473 0.09086622 -0.04636192
v 0.24004436 0.06499009 -0.07562096
v 0.24004436 0.05497848 -0.07825081
v 0.27502930 0.08602545 -0.06070799
v 0.26501286 0.08774173 -0.06006233
v 0.34496295 0.08367108 -0.05346409
v 0.26004094 0.07517771 -0.07001482
v 0.26004094 0.06499009 -0.07450289
v 0.13062561 0.03715562 -0.07834530
v 0.24004436 0.03981805 -0.08028226
v 0.24004436 0.02498767 -0.08067594
v 0.13062561 0.09058018 0.03687989
v 0.15504976 0.09302257 0.03354140
v 0.17504634 0.10259411 0.01829773
v 0.29502591 0.08232886 0.04245454
v 0.31001428 0.08437519 0.03848615
v 0.26004094 0.09988767 0.01486475
v 0.27502930 0.10063580 0.01135303
v 0.24501628 0.10464044 0.00499100
v 0.26004094 0.10384831 0.00499100
v 0.30504236 0.10367228 -0.00499298
v 0.33498281 0.10155994 -0.00499298
v 0.33498281 0.10246208 -0.01497696
v 0.34917277 0.09977765 -0.02456724
v 0.35497940 0.09548697 -0.03499215
v 0.35497940 0.08963403 -0.04478716
v 0.26004094 0.05497848 -0.07741620
v 0.26025867 0.04355865 -0.07944763
v 0.34496295 0.07541975 -0.06018832
v 0.35497940 0.08265892 -0.05253498
v 0.27502930 0.07374749 -0.06924319
v 0.34496295 0.06499009 -0.06621964
v 0.34496295 0.05544055 -0.07010931
v 0.13062561 -0.05499514 -0.06324334
v 0.22501969 0.01625227 -0.07985707
v 0.22501969 0.00498647 -0.07866025
v 0.22501969 -0.00498113 -0.07755792
v 0.22501969 -0.01497073 -0.07629812
v 0.22501969 -0.03497193 -0.07324308
v 0.21500325 -0.03497193 -0.07261318
v 0.25503272 0.02998247 -0.08050272
v 0.24004436 0.00954120 -0.07958937
v 0.26457739 0.01627428 -0.07995155
v 0.25503272 0.00943118 -0.07965235
v 0.13062561 0.07973245 0.04629696
v 0.20505938 0.07744408 0.04798195
v 0.24501628 0.09913956 0.01823474
v 0.25503272 0.07715803 0.04744653
v 0.32166383 0.06034734 0.06031232
v 0.39250475 0.07042496 0.04042310
v 0.38880304 0.08195481 0.02675419
v 0.35566893 0.09066820 0.01908511
v 0.34496295 0.09247248 0.01814025
v 0.33498281 0.09504689 0.01499073
v 0.33498281 0.09955762 0.00365246
v 0.34456375 0.09973365 -0.00048916
v 0.34928164 0.10052578 -0.01289827
v 0.36495954 0.09762131 -0.01497696
v 0.36495954 0.09630109 -0.02497668
v 0.37646395 0.09220845 -0.02831517
v 0.36521357 0.08888592 -0.04198409
v 0.37432274 0.08081062 -0.04785794
v 0.34496295 0.04498888 -0.07278639
v 0.26679116 0.03345903 -0.07992005
v 0.34496295 0.03497728 -0.07429817
v 0.35497940 0.07418756 -0.05932220
v 0.35497940 0.06499009 -0.06473938
v 0.38847640 0.07154714 -0.05124368
v 0.35603184 0.05048976 -0.07015654
v 0.13062561 -0.06859332 -0.06028280
v 0.22088246 -0.04854811 -0.07045574
v 0.15504976 -0.06498474 -0.06272368
v 0.24004436 -0.00498113 -0.07803035
v 0.24004436 -0.01497073 -0.07675479
v 0.23002791 -0.02498233 -0.07502255
v 0.24004436 -0.03497193 -0.07358952
v 0.23503613 -0.04498354 -0.07155809
v 0.35995132 0.00998127 -0.07409345
v 0.35995132 -0.00498113 -0.07319583
v 0.27502930 0.00001367 -0.07809334
v 0.26501286 0.00498647 -0.07902245
v 0.26004094 -0.00498113 -0.07809334
v 0.13062561 0.06061138 0.05772972
v 0.15091252 0.06085342 0.06062727
v 0.16502990 0.06140351 0.06125718
v 0.18872823 0.04307457 0.07035929
v 0.39493629 0.02496567 0.06991836
v 0.41014242 0.03471323 0.06305240
v 0.41496918 0.05506649 0.04991891
v 0.40495273 0.05858706 0.04889531
v 0.41496918 0.06325181 0.04311594
v 0.41496918 0.07024893 0.03550985
v 0.40495273 0.07984246 0.02484873
v 0.39493629 0.08675157 0.01499073
v 0.37497598 0.08998609 0.01506947
v 0.36495954 0.09183438 0.01404587
v 0.35497940 0.09687319 0.00499100
v 0.36495954 0.09726925 -0.00499298
v 0.37497598 0.09524493 -0.00499298
v 0.38499242 0.09304458 -0.00499298
v 0.37497598 0.09537695 -0.01497696
v 0.38920224 0.09077822 -0.01979572
v 0.42106614 0.08034854 -0.02083506
v 0.40636811 0.08254890 -0.02812620
v 0.39519033 0.08004050 -0.03999989
v 0.38499242 0.08188879 -0.04228329
v 0.40339220 0.07086502 -0.04601547
v 0.36641121 0.03829981 -0.07122739
v 0.35497940 0.03497728 -0.07341631
v 0.34496295 0.02498767 -0.07503830
v 0.35497940 0.02498767 -0.07432966
v 0.36521357 0.06809258 -0.06062925
v 0.38484725 0.05986326 -0.05995210
v 0.36495954 0.05497848 -0.06688105
v 0.40495273 0.06296576 -0.05212554
v 0.39493629 0.04498888 -0.06387326
v 0.39493629 0.03497728 -0.06688105
v 0.13062561 -0.10998195 -0.02511841
v 0.14503331 -0.07107972 -0.06037729
v 0.14503331 -0.07609652 -0.05853482
v 0.13175064 -0.08278559 -0.05477114
v 0.13175064 -0.09295122 -0.04867682
v 0.23503613 -0.05583128 -0.06881800
v 0.21003130 -0.06498474 -0.06546377
v 0.19504294 -0.06498474 -0.06483386
v 0.26004094 -0.01497073 -0.07692802
v 0.26004094 -0.02498233 -0.07546349
v 0.26004094 -0.03497193 -0.07369976
v 0.25002450 -0.04918621 -0.07056598
v 0.37497598 0.01497607 -0.07256593
v 0.37497598 0.00001367 -0.07220374
v 0.38343191 -0.01336447 -0.06974711
v 0.36971372 -0.01956947 -0.07025103
v 0.35497940 -0.01497073 -0.07218799
v 0.28003752 -0.01497073 -0.07631385
v 0.13062561 -0.00997593 0.06839085
v 0.15504976 0.01497607 0.07371353
v 0.16502990 0.02947639 0.07343008
v 0.17388502 -0.00163659 0.08005981
v 0.37497598 0.01497607 0.07278442
v 0.40760201 0.02199519 0.06982388
v 0.42850590 0.03139070 0.06114695
v 0.42687279 0.05136990 0.04949372
v 0.42494932 0.06188758 0.04187188
v 0.42636469 0.06875269 0.03363589
v 0.42494932 0.07689399 0.02091183
v 0.41525951 0.07986447 0.01998272
v 0.40495273 0.08444120 0.01499073
v 0.38579082 0.09005210 0.01026645
v 0.36495954 0.09520093 0.00499100
v 0.37497598 0.09344064 0.00499100
v 0.39486372 0.09007411 -0.00036318
v 0.42494932 0.08193280 0.00499100
v 0.43405849 0.07966644 -0.00499298
v 0.43010271 0.07916035 -0.01499270
v 0.44316763 0.07000689 -0.02554359
v 0.41300943 0.07130510 -0.04140143
v 0.42364284 0.06646432 -0.04129120
v 0.38452065 0.03172075 -0.06952664
v 0.37497598 0.02498767 -0.07193603
v 0.36495954 0.02498767 -0.07325882
v 0.39493629 0.05731085 -0.05858206
v 0.40473497 0.04974164 -0.05966865
v 0.41877979 0.05709082 -0.05122793
v 0.41522321 0.04243647 -0.05968439
v 0.40495273 0.03497728 -0.06477086
v 0.40495273 0.02498767 -0.06686530
v 0.13175064 -0.11167622 -0.01053613
v 0.13062561 -0.10065246 0.02617153
v 0.13283938 -0.10335889 -0.03820467
v 0.16252579 -0.10335889 -0.03828340
v 0.18005456 -0.10481112 -0.03499215
v 0.15504976 -0.10984993 -0.02464598
v 0.15504976 -0.11128016 -0.01497696
v 0.15504976 -0.07431424 -0.05971589
v 0.18506280 -0.07838489 -0.05930645
v 0.15004154 -0.08498594 -0.05456642
v 0.17504634 -0.09152099 -0.05122793
v 0.14503331 -0.09363334 -0.04867682
v 0.14503331 -0.10124655 -0.04151166
v 0.26954931 -0.04936224 -0.07010931
v 0.26004094 -0.06498474 -0.06543227
v 0.24004436 -0.06498474 -0.06581020
v 0.22501969 -0.06498474 -0.06587321
v 0.19504294 -0.07640457 -0.06056626
v 0.28003752 -0.02498233 -0.07488082
v 0.27502930 -0.03497193 -0.07340056
v 0.38923854 0.01700039 -0.07050300
v 0.38960144 0.00023371 -0.07020380
v 0.40495273 -0.00498113 -0.06688105
v 0.39493629 -0.01497073 -0.06747946
v 0.38499242 -0.02498233 -0.06721175
v 0.37497598 -0.03497193 -0.06604642
v 0.36495954 -0.03497193 -0.06695978
v 0.28504574 -0.03497193 -0.07281789
v 0.13062561 -0.02933903 0.06519409
v 0.16502990 -0.02498233 0.07713076
v 0.17217933 -0.01239632 0.08017005
v 0.16502990 0.01497607 0.07624890
v 0.18760319 -0.00612531 0.08020154
v 0.35497940 0.00498647 0.07446942
v 0.35040668 -0.00480510 0.07322535
v 0.40429950 -0.01906338 0.05983990
v 0.43946591 -0.02445425 0.04850162
v 0.44853878 0.02661593 0.05333614
v 0.44628870 0.05849904 0.03344692
v 0.43420365 0.06179957 0.03777751
v 0.44233292 0.06811458 0.02497471
v 0.43365929 0.07832421 0.01012472
v 0.44494593 0.07517771 -0.00001673
v 0.44872022 0.07126109 -0.01656746
v 0.45441800 0.05783894 -0.03179539
v 0.44374830 0.05757489 -0.03959046
v 0.42494932 0.04498888 -0.05555852
v 0.43467543 0.04965363 -0.04952719
v 0.42407835 0.03414114 -0.05990486
v 0.41496918 0.02498767 -0.06455040
v 0.40495273 0.00998127 -0.06773141
v 0.18771206 -0.11006996 -0.00919759
v 0.15254565 -0.11033401 -0.00080411
v 0.13283938 -0.11000395 0.00393591
v 0.13185951 -0.09240113 0.03725784
v 0.13062561 -0.07776879 0.05144643
v 0.13283938 -0.10663742 0.01417185
v 0.15504976 -0.10368894 0.01897487
v 0.17003812 -0.09990434 0.02497471
v 0.15504976 -0.09369934 0.03442327
v 0.19126862 -0.09979431 -0.04247227
v 0.20505938 -0.10054244 -0.04080302
v 0.26127484 -0.09959629 -0.03694486
v 0.27502930 -0.09977232 -0.03480319
v 0.27502930 -0.10377696 -0.02497668
v 0.16502990 -0.11037801 -0.01955951
v 0.17642543 -0.11020198 -0.01833119
v 0.21003130 -0.07684465 -0.06078672
v 0.19003472 -0.08498594 -0.05573174
v 0.17504634 -0.08498594 -0.05535380
v 0.20505938 -0.08498594 -0.05598371
v 0.19003472 -0.09156500 -0.05132242
v 0.16502990 -0.09638377 -0.04658239
v 0.17504634 -0.09887017 -0.04406277
v 0.28504574 -0.04577566 -0.07020380
v 0.28504574 -0.05499514 -0.06729048
v 0.27502930 -0.06498474 -0.06440867
v 0.26004094 -0.07592049 -0.06042453
v 0.24501628 -0.07389617 -0.06193630
v 0.40495273 -0.01497073 -0.06525904
v 0.41496918 0.00998127 -0.06538503
v 0.41496918 -0.00498113 -0.06436142
v 0.39493629 -0.02498233 -0.06533778
v 0.38499242 -0.03497193 -0.06458190
v 0.36495954 -0.04824006 -0.06214102
v 0.30504236 -0.05499514 -0.06554250
v 0.38499242 -0.04601770 -0.06040878
v 0.29502591 -0.05090249 -0.06782590
v 0.13062561 -0.06716309 0.05694234
v 0.15504976 -0.06557883 0.05799743
v 0.27746084 -0.04256315 0.06936720
v 0.33498281 -0.00498113 0.07508357
v 0.31222805 -0.02760075 0.07075298
v 0.40709394 -0.04546762 0.04944648
v 0.42857847 -0.03439984 0.04847013
v 0.44672421 -0.03389376 0.03950974
v 0.47909617 0.00307216 0.03110053
v 0.47085804 0.01948679 0.04067507
v 0.46555948 0.03026852 0.04058058
v 0.46370861 0.04877349 0.02634475
v 0.45278490 0.06234966 0.02321098
v 0.45311150 0.06857666 0.00977827
v 0.45474461 0.06965484 -0.00499298
v 0.46399891 0.05766291 -0.01916582
v 0.45293003 0.04767331 -0.04151166
v 0.46076900 0.04861946 -0.03392132
v 0.44498223 0.03959801 -0.04979490
v 0.43496576 0.03497728 -0.05585773
v 0.43003014 0.02516370 -0.05996785
v 0.42944947 0.01497607 -0.06108593
v 0.27502930 -0.10544923 -0.01497696
v 0.29502591 -0.10410701 -0.00998497
v 0.18506280 -0.10956389 -0.00335523
v 0.17286886 -0.10914582 0.00124307
v 0.16502990 -0.10516317 0.01499073
v 0.14354536 -0.09187305 0.03732083
v 0.20505938 -0.07572246 0.05042283
v 0.27502930 -0.05303683 0.06333587
v 0.17504634 -0.09328127 0.03376187
v 0.28504574 -0.09799004 0.01598283
v 0.29502591 -0.09101491 0.02670695
v 0.28377557 -0.08850650 0.03144697
v 0.20505938 -0.09647179 -0.04579501
v 0.23503613 -0.09086089 -0.05083424
v 0.24501628 -0.09732993 -0.04204708
v 0.28504574 -0.09288521 -0.04352735
v 0.29502591 -0.09224711 -0.04272423
v 0.30275598 -0.09810005 -0.03160642
v 0.28504574 -0.10115854 -0.02948049
v 0.31723627 -0.10019039 -0.02050436
v 0.28504574 -0.10483313 -0.01497696
v 0.22501969 -0.08093730 -0.05829860
v 0.21500325 -0.08815445 -0.05362157
v 0.20505938 -0.09145498 -0.05133817
v 0.27502930 -0.07484232 -0.05982612
v 0.30083254 -0.06648098 -0.06119616
v 0.28504574 -0.06815325 -0.06207803
v 0.26501286 -0.08476591 -0.05393652
v 0.40317446 -0.03290360 -0.06095995
v 0.42063063 -0.01585087 -0.06031430
v 0.41304573 -0.02573045 -0.06004659
v 0.42944947 0.00029972 -0.06029855
v 0.39587986 -0.04049482 -0.06023556
v 0.37504858 -0.05176062 -0.05908598
v 0.33621672 -0.06197026 -0.05911748
v 0.38927484 -0.05844969 -0.05188933
v 0.40495273 -0.04498354 -0.05527506
v 0.39558953 -0.05154059 0.04850162
v 0.41496918 -0.05233271 0.04202936
v 0.42585662 -0.04865813 0.04058058
v 0.43881267 -0.04381735 0.03744681
v 0.45165986 -0.04177102 0.02787227
v 0.45891812 -0.03268357 0.02782502
v 0.49067315 0.00346823 0.02056538
v 0.48123738 0.01497607 0.03130524
v 0.49245143 0.01807857 0.01985674
v 0.47074914 0.03601144 0.03084856
v 0.47249115 0.04281053 0.02278579
v 0.47038624 0.05040175 0.01584110
v 0.46291018 0.05788295 0.01582535
v 0.46280134 0.06259170 -0.00001673
v 0.47753567 0.04703521 -0.00499298
v 0.49161673 0.02287534 -0.01163846
v 0.47053140 0.04369067 -0.02573257
v 0.46073270 0.03766171 -0.04064554
v 0.45376474 0.03040054 -0.04762173
v 0.44494593 0.02498767 -0.05381054
v 0.44494593 0.00998127 -0.05433021
v 0.30504236 -0.10318287 -0.00998497
v 0.31719998 -0.10027839 0.00064467
v 0.28504574 -0.10247874 0.00499100
v 0.19504294 -0.08844049 0.03817120
v 0.24501628 -0.07460028 0.04933625
v 0.27502930 -0.07336809 0.04847013
v 0.34111607 -0.06029799 0.05018662
v 0.27502930 -0.08364373 0.03823419
v 0.30228421 -0.09862813 0.01149476
v 0.31502250 -0.09543762 0.01499073
v 0.30504236 -0.09046483 0.02584083
v 0.30359069 -0.08172943 0.03705312
v 0.28958219 -0.08135536 0.03943101
v 0.24911721 -0.08903460 -0.05152714
v 0.26047644 -0.09268717 -0.04662963
v 0.29502591 -0.08760436 -0.04773196
v 0.27502930 -0.08778040 -0.05012560
v 0.30504236 -0.08912261 -0.04433048
v 0.32097429 -0.09158701 -0.03748028
v 0.33498281 -0.09539361 -0.02497668
v 0.34496295 -0.09552564 -0.01497696
v 0.33498281 -0.09803404 -0.00998497
v 0.28504574 -0.07631655 -0.05779468
v 0.32496637 -0.06654699 -0.05817262
v 0.28504574 -0.08597611 -0.05066102
v 0.41043276 -0.03536800 -0.05744823
v 0.42494932 -0.02498233 -0.05557427
v 0.43474802 -0.01961347 -0.05305465
v 0.45202273 -0.00091048 -0.04870832
v 0.44403863 -0.01633495 -0.04933822
v 0.35624960 -0.06766917 -0.05236176
v 0.34496295 -0.07204787 -0.05160587
v 0.38960144 -0.06828527 -0.04292895
v 0.35497940 -0.07574446 -0.04581076
v 0.40938029 -0.05818565 -0.04445646
v 0.42128390 -0.04511556 -0.04748000
v 0.38499242 -0.05913180 0.04456472
v 0.40346479 -0.05948386 0.03947825
v 0.41645712 -0.05921982 0.03423430
v 0.42959464 -0.05959388 0.02472275
v 0.44545400 -0.05028639 0.02357317
v 0.45764792 -0.04267317 0.01551040
v 0.50072587 0.00606464 0.00831375
v 0.50137913 0.01640630 0.00897515
v 0.48051155 0.03565938 0.02029767
v 0.49379420 0.02857425 0.00655002
v 0.47735417 0.04712322 0.00499100
v 0.47013217 0.05524252 -0.00001673
v 0.50032669 0.01207160 -0.00313476
v 0.49274176 0.01497607 -0.01258332
v 0.47180158 0.02905833 -0.03204735
v 0.46530545 0.01997087 -0.04015737
v 0.45405507 0.01497607 -0.04930672
v 0.34496295 -0.09583369 -0.00499298
v 0.34496295 -0.09398539 0.00499100
v 0.32496637 -0.07292801 0.04264352
v 0.33498281 -0.06883536 0.04442300
v 0.32496637 -0.09374335 0.01499073
v 0.33305934 -0.08918862 0.02042365
v 0.31502250 -0.08973871 0.02472275
v 0.32496637 -0.08010116 0.03530513
v 0.31502250 -0.08087128 0.03615550
v 0.30504236 -0.07836288 -0.05360582
v 0.32289773 -0.07930903 -0.04979490
v 0.31502250 -0.08571206 -0.04573202
v 0.33498281 -0.08080527 -0.04603122
v 0.34496295 -0.07952908 -0.04478716
v 0.33498281 -0.08998075 -0.03514963
v 0.34492666 -0.09083888 -0.02935451
v 0.39366609 -0.07941906 -0.02327594
v 0.35632217 -0.09138897 -0.01878787
v 0.37497598 -0.08720830 -0.01497696
v 0.38499242 -0.08518398 -0.00499298
v 0.35904405 -0.09215909 -0.00315051
v 0.33498281 -0.07328007 -0.05240900
v 0.44113532 -0.02590648 -0.04673987
v 0.43086484 -0.03706227 -0.04672412
v 0.46501511 0.00498647 -0.03984242
v 0.45779312 -0.01087807 -0.04152741
v 0.45293003 -0.02570845 -0.03793696
v 0.40636811 -0.06934144 -0.03425202
v 0.36078602 -0.08150940 -0.03729130
v 0.42952204 -0.05297082 -0.03554332
v 0.41946930 -0.06181623 -0.03448823
v 0.44255069 -0.03527998 -0.04022036
v 0.37497598 -0.07217990 0.03270678
v 0.38974661 -0.06885736 0.03278552
v 0.33498281 -0.07922103 0.03421855
v 0.40905368 -0.06947346 0.02412434
v 0.43645370 -0.06038601 0.01584110
v 0.41965076 -0.06969349 0.01477026
v 0.44324023 -0.05858172 0.00639254
v 0.45271230 -0.05004435 0.00884917
v 0.45866409 -0.04357531 -0.00650475
v 0.45688581 -0.04177102 -0.01622101
v 0.49172562 0.00498647 -0.01154398
v 0.47223711 0.00498647 -0.03247254
v 0.40125102 -0.07761477 0.01237663
v 0.35534230 -0.08993673 0.01004598
v 0.34496295 -0.08993673 0.01502222
v 0.36873385 -0.08023319 0.02295901
v 0.35087845 -0.08175142 0.02650223
v 0.38350448 -0.07946306 -0.02960648
v 0.38499242 -0.08436985 -0.01497696
v 0.40495273 -0.07493034 -0.02497668
v 0.41496918 -0.07418221 -0.01497696
v 0.39961788 -0.08043122 -0.00987473
v 0.41496918 -0.07526039 -0.00001673
v 0.47045881 -0.00621333 -0.03051984
v 0.46098673 -0.01890936 -0.03415753
v 0.45920846 -0.03127534 -0.02644121
v 0.45140579 -0.03796441 -0.02977970
v 0.41725552 -0.06843929 -0.02710261
v 0.41431594 -0.07134376 -0.02425229
v 0.44186115 -0.04975830 -0.02708686
v 0.42759860 -0.06260836 -0.02521290
v 0.38499242 -0.07919902 0.01820324
v 0.43496576 -0.06430264 0.00499100
v 0.42538482 -0.07017757 -0.00001673
v 0.43496576 -0.06454468 -0.00499298
v 0.44313133 -0.05847170 -0.00634727
v 0.44908315 -0.05158459 -0.01242584
v 0.42389688 -0.06925343 -0.01634700
v 0.43678033 -0.06060604 -0.01566985
f 1 2 3
f 1 3 4
f 1 4 5
f 1 5 6
f 1 6 2
f 2 6 7
f 2 7 8
f 2 8 9
f 2 9 10
f 2 10 11
f 2 11 3
f 3 12 4
f 3 11 13
f 3 13 14
f 3 14 15
f 3 15 12
f 4 12 16
f 4 16 37
f 4 37 60
f 4 60 85
f 4 85 121
f 4 121 169
f 4 169 220
f 4 220 274
f 4 274 307
f 4 307 247
f 4 247 187
f 4 187 134
f 4 134 96
f 4 96 63
f 4 63 39
f 4 39 17
f 4 17 18
f 4 18 19
f 4 19 5
f 5 19 20
f 5 20 21
f 5 21 22
f 5 22 6
f 6 22 23
f 6 23 7
f 7 23 24
f 7 24 25
f 7 25 8
f 8 25 26
f 8 26 9
f 9 27 11
f 9 11 10
f 9 26 28
f 9 28 27
f 11 27 29
f 11 29 13
f 12 15 30
f 12 30 31
f 12 31 16
f 13 29 32
f 13 32 14
f 14 33 15
f 14 32 34
f 14 34 33
f 15 33 35
f 15 35 36
f 15 36 30
f 16 31 38
f 16 38 37
f 17 39 40
f 17 40 41
f 17 41 18
f 18 41 42
f 18 42 43
f 18 43 19
f 19 43 20
f 20 43 44
f 20 44 45
f 20 45 46
f 20 46 21
f 21 46 47
f 21 47 23
f 21 23 22
f 23 47 25
f 23 25 24
f 25 46 48
f 25 48 49
f 25 49 26
f 25 47 46
f 26 49 50
f 26 50 28
f 27 28 29
f 28 50 51
f 28 51 29
f 29 51 52
f 29 52 32
f 30 36 35
f 30 35 53
f 30 53 31
f 31 53 54
f 31 54 38
f 32 55 56
f 32 56 34
f 32 52 57
f 32 57 55
f 33 34 55
f 33 55 35
f 34 56 55
f 35 55 58
f 35 58 59
f 35 59 53
f 37 38 61
f 37 61 62
f 37 62 60
f 38 54 61
f 39 63 64
f 39 64 40
f 40 65 41
f 40 64 66
f 40 66 67
f 40 67 65
f 41 65 68
f 41 68 69
f 41 69 42
f 42 69 70
f 42 70 43
f 43 70 71
f 43 71 45
f 43 45 44
f 45 71 72
f 45 72 46
f 46 72 48
f 48 73 74
f 48 74 49
f 48 72 73
f 49 74 75
f 49 75 50
f 50 52 51
f 50 75 76
f 50 76 52
f 52 76 77
f 52 77 57
f 53 59 78
f 53 78 54
f 54 78 79
f 54 79 61
f 55 57 80
f 55 80 58
f 57 77 81
f 57 81 80
f 58 80 82
f 58 82 59
f 59 82 83
f 59 83 84
f 59 84 78
f 60 62 86
f 60 86 87
f 60 87 88
f 60 88 89
f 60 89 90
f 60 90 91
f 60 91 85
f 61 92 62
f 61 79 92
f 62 93 86
f 62 92 94
f 62 94 95
f 62 95 93
f 63 96 97
f 63 97 66
f 63 66 64
f 65 67 98
f 65 98 68
f 66 99 100
f 66 100 67
f 66 97 99
f 67 100 101
f 67 101 102
f 67 102 103
f 67 103 104
f 67 104 105
f 67 105 98
f 68 98 105
f 68 105 69
f 69 71 70
f 69 105 106
f 69 106 71
f 71 106 72
f 72 106 73
f 73 106 107
f 73 107 108
f 73 108 74
f 74 108 75
f 75 108 109
f 75 109 110
f 75 110 76
f 76 110 111
f 76 111 112
f 76 112 77
f 77 112 113
f 77 113 81
f 78 84 114
f 78 114 79
f 79 115 92
f 79 114 116
f 79 116 115
f 80 81 117
f 80 117 118
f 80 118 83
f 80 83 82
f 81 113 119
f 81 119 117
f 83 118 84
f 84 118 120
f 84 120 114
f 85 91 122
f 85 122 123
f 85 123 121
f 86 93 87
f 87 93 124
f 87 124 88
f 88 124 89
f 89 124 125
f 89 125 126
f 89 126 90
f 90 122 91
f 90 126 127
f 90 127 128
f 90 128 122
f 92 115 94
f 93 95 124
f 94 115 129
f 94 129 130
f 94 130 131
f 94 131 132
f 94 132 95
f 95 133 124
f 95 132 133
f 96 134 135
f 96 135 136
f 96 136 97
f 97 136 100
f 97 100 99
f 100 136 137
f 100 137 138
f 100 138 139
f 100 139 140
f 100 140 141
f 100 141 101
f 101 141 142
f 101 142 143
f 101 143 102
f 102 143 144
f 102 144 145
f 102 145 146
f 102 146 103
f 103 146 147
f 103 147 104
f 104 147 105
f 105 147 148
f 105 148 106
f 106 148 107
f 107 148 149
f 107 149 108
f 108 149 109
f 109 149 150
f 109 150 151
f 109 151 152
f 109 152 110
f 110 152 153
f 110 153 111
f 111 153 154
f 111 154 155
f 111 155 112
f 112 155 156
f 112 156 157
f 112 157 113
f 113 157 156
f 113 156 158
f 113 158 119
f 114 120 159
f 114 159 160
f 114 160 116
f 115 116 161
f 115 161 129
f 116 160 162
f 116 162 161
f 117 163 118
f 117 119 163
f 118 163 164
f 118 164 165
f 118 165 120
f 119 158 166
f 119 166 163
f 120 165 167
f 120 167 168
f 120 168 159
f 121 123 170
f 121 170 171
f 121 171 172
f 121 172 173
f 121 173 169
f 122 128 174
f 122 174 175
f 122 175 176
f 122 176 123
f 123 176 170
f 124 133 177
f 124 177 125
f 125 127 126
f 125 177 178
f 125 178 127
f 127 178 179
f 127 179 128
f 128 179 180
f 128 180 174
f 129 181 182
f 129 182 130
f 129 161 162
f 129 162 181
f 130 182 183
f 130 183 184
f 130 184 185
f 130 185 186
f 130 186 131
f 131 186 132
f 132 186 133
f 133 186 177
f 134 187 188
f 134 188 189
f 134 189 135
f 135 189 137
f 135 137 136
f 137 189 190
f 137 190 191
f 137 191 138
f 138 191 192
f 138 192 139
f 139 192 193
f 139 193 140
f 140 142 141
f 140 193 194
f 140 194 195
f 140 195 142
f 142 195 143
f 143 195 196
f 143 196 144
f 144 196 197
f 144 197 198
f 144 198 145
f 145 198 199
f 145 199 200
f 145 200 146
f 146 148 147
f 146 200 148
f 148 200 201
f 148 201 149
f 149 201 202
f 149 202 150
f 150 203 151
f 150 202 203
f 151 203 204
f 151 204 205
f 151 205 152
f 152 205 153
f 153 205 206
f 153 206 154
f 154 206 207
f 154 207 155
f 155 207 156
f 156 207 208
f 156 208 158
f 158 208 209
f 158 209 166
f 159 168 210
f 159 210 160
f 160 210 211
f 160 211 212
f 160 212 162
f 162 212 181
f 163 166 213
f 163 213 164
f 164 213 214
f 164 214 165
f 165 214 167
f 166 209 215
f 166 215 213
f 167 214 216
f 167 216 217
f 167 217 168
f 168 217 218
f 168 218 210
f 169 219 220
f 169 173 221
f 169 221 222
f 169 222 223
f 169 223 224
f 169 224 225
f 169 225 219
f 170 176 226
f 170 226 171
f 171 226 227
f 171 227 172
f 172 227 228
f 172 228 173
f 173 228 229
f 173 229 230
f 173 230 231
f 173 231 221
f 174 180 232
f 174 232 233
f 174 233 234
f 174 234 235
f 174 235 175
f 175 235 236
f 175 236 226
f 175 226 176
f 177 237 178
f 177 186 237
f 178 237 238
f 178 238 179
f 179 238 180
f 180 238 232
f 181 211 239
f 181 239 240
f 181 240 182
f 181 212 211
f 182 240 183
f 183 240 241
f 183 241 242
f 183 242 243
f 183 243 184
f 184 244 245
f 184 245 246
f 184 246 185
f 184 243 244
f 185 246 237
f 185 237 186
f 187 247 248
f 187 248 249
f 187 249 190
f 187 190 188
f 188 190 250
f 188 250 189
f 189 250 190
f 190 249 251
f 190 251 252
f 190 252 191
f 191 252 192
f 192 252 253
f 192 253 254
f 192 254 255
f 192 255 256
f 192 256 193
f 193 256 194
f 194 256 257
f 194 257 258
f 194 258 195
f 195 258 196
f 196 258 259
f 196 259 197
f 197 259 260
f 197 260 199
f 197 199 198
f 199 260 204
f 199 204 200
f 200 204 203
f 200 203 202
f 200 202 201
f 204 260 205
f 205 260 261
f 205 261 262
f 205 262 206
f 206 262 207
f 207 209 208
f 207 262 263
f 207 263 264
f 207 264 209
f 209 264 215
f 210 218 239
f 210 239 211
f 213 215 214
f 214 215 265
f 214 265 216
f 215 264 266
f 215 266 265
f 216 265 267
f 216 267 217
f 217 267 268
f 217 268 218
f 218 269 239
f 218 268 269
f 219 225 270
f 219 270 271
f 219 271 272
f 219 272 220
f 220 273 274
f 220 272 275
f 220 275 276
f 220 276 277
f 220 277 278
f 220 278 273
f 221 231 222
f 222 231 279
f 222 279 280
f 222 280 223
f 223 280 281
f 223 281 282
f 223 282 283
f 223 283 224
f 224 284 225
f 224 283 285
f 224 285 284
f 225 284 285
f 225 285 270
f 226 236 227
f 227 236 286
f 227 286 287
f 227 287 288
f 227 288 228
f 228 288 229
f 229 288 287
f 229 287 289
f 229 289 290
f 229 290 291
f 229 291 230
f 230 291 231
f 231 291 292
f 231 292 279
f 232 238 293
f 232 293 294
f 232 294 233
f 233 294 295
f 233 295 296
f 233 296 297
f 233 297 234
f 234 297 235
f 235 297 286
f 235 286 236
f 237 246 238
f 238 246 293
f 239 269 240
f 240 269 241
f 241 298 242
f 241 269 299
f 241 299 300
f 241 300 298
f 242 301 243
f 242 298 301
f 243 301 302
f 243 302 244
f 244 303 304
f 244 304 245
f 244 302 305
f 244 305 303
f 245 304 306
f 245 306 293
f 245 293 246
f 247 307 248
f 248 307 308
f 248 308 309
f 248 309 249
f 249 309 310
f 249 310 251
f 251 310 252
f 252 310 253
f 253 310 311
f 253 311 254
f 254 312 313
f 254 313 255
f 254 311 312
f 255 313 314
f 255 314 315
f 255 315 316
f 255 316 256
f 256 316 317
f 256 317 257
f 257 317 318
f 257 318 319
f 257 319 259
f 257 259 258
f 259 319 320
f 259 320 260
f 260 320 261
f 261 320 321
f 261 321 262
f 262 321 322
f 262 322 263
f 263 323 264
f 263 322 324
f 263 324 323
f 264 323 266
f 265 266 325
f 265 325 326
f 265 326 267
f 266 323 325
f 267 326 327
f 267 327 268
f 268 327 328
f 268 328 299
f 268 299 269
f 270 329 330
f 270 330 331
f 270 331 271
f 270 285 329
f 271 332 272
f 271 331 332
f 272 332 333
f 272 333 275
f 273 334 274
f 273 278 334
f 274 308 307
f 274 334 335
f 274 335 336
f 274 336 309
f 274 309 308
f 275 333 276
f 276 333 277
f 277 337 278
f 277 333 338
f 277 338 339
f 277 339 340
f 277 340 337
f 278 337 334
f 279 341 280
f 279 292 341
f 280 341 342
f 280 342 343
f 280 343 281
f 281 343 344
f 281 344 282
f 282 344 345
f 282 345 346
f 282 346 347
f 282 347 283
f 283 347 348
f 283 348 349
f 283 349 329
f 283 329 285
f 286 350 289
f 286 289 287
f 286 297 350
f 289 350 351
f 289 351 352
f 289 352 290
f 290 352 292
f 290 292 291
f 292 352 341
f 293 306 294
f 294 306 304
f 294 304 295
f 295 353 296
f 295 304 354
f 295 354 355
f 295 355 353
f 296 353 356
f 296 356 351
f 296 351 350
f 296 350 297
f 298 357 301
f 298 300 358
f 298 358 359
f 298 359 357
f 299 328 360
f 299 360 300
f 300 360 358
f 301 357 302
f 302 357 361
f 302 361 305
f 303 305 362
f 303 362 363
f 303 363 354
f 303 354 304
f 305 364 362
f 305 361 365
f 305 365 364
f 309 311 310
f 309 336 366
f 309 366 312
f 309 312 311
f 312 366 367
f 312 367 368
f 312 368 313
f 313 368 369
f 313 369 314
f 314 370 371
f 314 371 372
f 314 372 315
f 314 369 370
f 315 372 373
f 315 373 316
f 316 373 374
f 316 374 317
f 317 374 375
f 317 375 318
f 318 375 376
f 318 376 319
f 319 376 377
f 319 377 378
f 319 378 320
f 320 378 379
f 320 379 321
f 321 379 380
f 321 380 322
f 322 380 381
f 322 381 382
f 322 382 324
f 323 324 383
f 323 383 325
f 324 382 383
f 325 383 384
f 325 384 385
f 325 385 326
f 326 385 327
f 327 385 328
f 328 385 386
f 328 386 360
f 329 349 330
f 330 387 388
f 330 388 389
f 330 389 331
f 330 349 387
f 331 389 332
f 332 389 333
f 333 389 338
f 334 337 390
f 334 390 335
f 335 390 391
f 335 391 336
f 336 392 393
f 336 393 366
f 336 391 392
f 337 340 394
f 337 394 390
f 338 389 395
f 338 395 396
f 338 396 397
f 338 397 339
f 339 397 398
f 339 398 340
f 340 398 399
f 340 399 394
f 341 352 342
f 342 352 351
f 342 351 356
f 342 356 400
f 342 400 401
f 342 401 343
f 343 401 344
f 344 402 345
f 344 401 403
f 344 403 402
f 345 402 404
f 345 404 405
f 345 405 346
f 346 405 406
f 346 406 348
f 346 348 347
f 348 406 407
f 348 407 408
f 348 408 387
f 348 387 349
f 353 355 354
f 353 354 409
f 353 409 356
f 354 363 410
f 354 410 409
f 356 409 411
f 356 411 403
f 356 403 400
f 357 359 412
f 357 412 365
f 357 365 361
f 358 413 359
f 358 360 414
f 358 414 413
f 359 413 412
f 360 386 415
f 360 415 416
f 360 416 414
f 362 364 417
f 362 417 418
f 362 418 410
f 362 410 363
f 364 419 420
f 364 420 418
f 364 418 417
f 364 365 421
f 364 421 419
f 365 412 422
f 365 422 421
f 366 423 424
f 366 424 367
f 366 393 423
f 367 425 368
f 367 424 425
f 368 426 369
f 368 425 426
f 369 426 427
f 369 427 370
f 370 427 428
f 370 428 429
f 370 429 371
f 371 429 372
f 372 429 430
f 372 430 374
f 372 374 373
f 374 430 431
f 374 431 375
f 375 431 376
f 376 431 377
f 377 431 432
f 377 432 433
f 377 433 378
f 378 433 379
f 379 433 434
f 379 434 380
f 380 433 432
f 380 432 381
f 380 434 433
f 381 432 435
f 381 435 436
f 381 436 437
f 381 437 382
f 382 437 383
f 383 437 438
f 383 438 384
f 384 438 439
f 384 439 385
f 385 439 386
f 386 439 415
f 387 408 388
f 388 396 395
f 388 395 389
f 388 408 440
f 388 440 441
f 388 441 396
f 390 394 391
f 391 394 392
f 392 394 399
f 392 399 442
f 392 442 393
f 393 442 443
f 393 443 423
f 396 441 444
f 396 444 445
f 396 445 446
f 396 446 397
f 397 446 447
f 397 447 448
f 397 448 398
f 398 448 442
f 398 442 399
f 400 403 401
f 402 449 450
f 402 450 451
f 402 451 404
f 402 403 411
f 402 411 449
f 404 451 405
f 405 451 452
f 405 452 453
f 405 453 454
f 405 454 406
f 406 454 455
f 406 455 456
f 406 456 457
f 406 457 407
f 407 457 458
f 407 458 459
f 407 459 460
f 407 460 440
f 407 440 408
f 409 410 449
f 409 449 411
f 410 418 461
f 410 461 449
f 412 413 422
f 413 414 462
f 413 462 463
f 413 463 422
f 414 416 462
f 415 439 464
f 415 464 465
f 415 465 416
f 416 465 466
f 416 466 462
f 418 420 453
f 418 453 452
f 418 452 450
f 418 450 461
f 419 421 467
f 419 467 468
f 419 468 453
f 419 453 420
f 421 422 469
f 421 469 470
f 421 470 467
f 422 463 471
f 422 471 469
f 423 472 473
f 423 473 424
f 423 443 442
f 423 442 474
f 423 474 472
f 424 473 475
f 424 475 425
f 425 475 426
f 426 476 427
f 426 475 477
f 426 477 476
f 427 478 479
f 427 479 428
f 427 476 478
f 428 479 429
f 429 435 430
f 429 479 480
f 429 480 481
f 429 481 435
f 430 435 432
f 430 432 431
f 435 481 482
f 435 482 436
f 436 482 483
f 436 483 464
f 436 464 438
f 436 438 437
f 438 464 439
f 440 460 441
f 441 460 484
f 441 484 485
f 441 485 486
f 441 486 444
f 442 448 447
f 442 447 474
f 444 486 445
f 445 486 487
f 445 487 488
f 445 488 446
f 446 488 474
f 446 474 447
f 449 461 450
f 450 452 451
f 453 468 454
f 454 468 455
f 455 468 489
f 455 489 456
f 456 490 457
f 456 489 491
f 456 491 492
f 456 492 490
f 457 490 458
f 458 490 459
f 459 490 493
f 459 493 494
f 459 494 484
f 459 484 460
f 462 471 463
f 462 466 471
f 464 483 495
f 464 495 465
f 465 495 496
f 465 496 466
f 466 496 497
f 466 497 498
f 466 498 471
f 467 491 489
f 467 489 468
f 467 470 499
f 467 499 500
f 467 500 491
f 469 471 498
f 469 498 501
f 469 501 502
f 469 502 470
f 470 502 499
f 472 488 487
f 472 487 473
f 472 474 488
f 473 487 503
f 473 503 475
f 475 503 484
f 475 484 477
f 476 477 504
f 476 504 478
f 477 494 505
f 477 505 504
f 477 484 494
f 478 504 506
f 478 506 507
f 478 507 479
f 479 507 480
f 480 508 481
f 480 507 508
f 481 497 482
f 481 508 501
f 481 501 498
f 481 498 497
f 482 496 495
f 482 495 483
f 482 497 496
f 484 503 485
f 485 503 486
f 486 503 487
f 490 492 493
f 491 500 492
f 492 494 493
f 492 500 509
f 492 509 506
f 492 506 505
f 492 505 494
f 499 502 509
f 499 509 500
f 501 510 502
f 501 508 510
f 502 510 509
f 504 505 506
f 506 510 507
f 506 509 510
f 507 510 508

