# https://github.com/mikedh/trimesh
v 0.05498932 0.11420697 -0.02497719
v 0.06498308 0.11418462 -0.01497960
v 0.06498308 0.11418462 -0.02497719
v 0.03497782 0.11266486 -0.03497479
v 0.02498406 0.11416227 -0.02497719
v 0.02498406 0.11413992 -0.01497960
v 0.07497685 0.11284366 -0.00498200
v 0.07497685 0.11416227 -0.01497960
v 0.00502049 0.11288836 -0.00498200
v 0.02498406 0.11288836 -0.00498200
v 0.07497685 0.11411757 -0.02497719
v 0.07497685 0.11253077 -0.03497479
v 0.01499029 0.11257546 -0.03497479
v 0.01499029 0.11413992 -0.02497719
v 0.06498308 0.11065342 -0.04165025
v 0.01499029 0.11063107 -0.04161905
v 0.01499029 0.11411757 -0.01497960
v -0.00499724 0.11286601 -0.00498200
v 0.00502049 0.11025113 0.00593581
v 0.07497685 0.11092161 0.00291001
v 0.08499458 0.11275426 -0.00498200
v 0.08499458 0.11405052 -0.01497960
v 0.08499458 0.11400582 -0.02497719
v 0.08499458 0.11241902 -0.03497479
v 0.09498834 0.11054167 -0.04133831
v 0.08499458 0.11060872 -0.04149428
v 0.07497685 0.11063107 -0.04158786
v 0.00502049 0.11246372 -0.03497479
v -0.00499724 0.11396112 -0.02497719
v 0.00502049 0.11407287 -0.02497719
v -0.01499100 0.11396112 -0.01497960
v -0.00499724 0.11402817 -0.01497960
v 0.06498308 0.10853023 -0.04664125
v 0.05498932 0.10857493 -0.04664125
v 0.03497782 0.10964770 -0.04427052
v 0.01499029 0.10855258 -0.04664125
v 0.00502049 0.10953595 -0.04398978
v -0.01499100 0.11042993 -0.04107317
v 0.02498406 0.10962535 -0.04423933
v -0.01499100 0.11277661 -0.00498200
v -0.01499100 0.11020643 0.00576424
v -0.00499724 0.11022878 0.00590461
v 0.02498406 0.10946891 0.00830653
v 0.09498834 0.10926776 0.00771385
v 0.10498211 0.10998294 0.00501559
v 0.11499984 0.11232962 -0.00498200
v 0.11499984 0.11355884 -0.01497960
v 0.11499984 0.11346944 -0.02497719
v 0.11499984 0.11192733 -0.03497479
v 0.09498834 0.11228492 -0.03497479
v 0.10498211 0.11047462 -0.04115115
v 0.09498834 0.10841849 -0.04634491
v 0.08499458 0.10846318 -0.04651647
v -0.00499724 0.11230727 -0.03497479
v -0.01499100 0.11382703 -0.02497719
v -0.08499528 0.11306715 -0.01497960
v -0.07497755 0.11320125 -0.01497960
v -0.07497755 0.11208378 -0.00498200
v 0.06498308 0.10359102 -0.05498558
v 0.05498932 0.10363572 -0.05498558
v 0.00502049 0.10356867 -0.05498558
v -0.00499724 0.10343458 -0.05498558
v -0.01499100 0.10826204 -0.04607976
v -0.02498477 0.11031818 -0.04082362
v -0.01499100 0.11212847 -0.03497479
v -0.07497755 0.10971475 0.00426694
v -0.08499528 0.10546837 0.01499759
v -0.01499100 0.10665289 0.01499759
v -0.00499724 0.10671993 0.01499759
v 0.02498406 0.10663053 0.01499759
v 0.08499458 0.10629530 0.01499759
v 0.00502049 0.10671993 0.01499759
v 0.09498834 0.10622825 0.01499759
v 0.10498211 0.10611650 0.01499759
v 0.11499984 0.10593770 0.01499759
v 0.11499984 0.10989354 0.00478164
v 0.12499360 0.11215083 -0.00498200
v 0.12499360 0.11338004 -0.01497960
v 0.12499360 0.11324594 -0.02497719
v 0.11499984 0.11038522 -0.04094839
v 0.12499360 0.11163679 -0.03497479
v 0.12499360 0.11022878 -0.04054287
v 0.10498211 0.10830674 -0.04615774
v 0.12499360 0.10305464 -0.05423693
v 0.11499984 0.10318874 -0.05436170
v 0.09498834 0.10341223 -0.05464244
v 0.07497685 0.10350163 -0.05498558
v -0.07497755 0.11279896 -0.02497719
v -0.08499528 0.11192733 -0.00498200
v -0.08499528 0.11257546 -0.02497719
v -0.09498905 0.11232962 -0.02497719
v -0.09498905 0.11279896 -0.01497960
v -0.09498905 0.11027348 0.00089802
v 0.07754119 0.09999277 -0.06000777
v 0.05498932 0.10005983 -0.06005456
v 0.00502049 0.10008217 -0.06008575
v -0.00753762 0.10001513 -0.06002336
v -0.01405633 0.10260765 -0.05589019
v -0.10498282 0.10211597 -0.05300477
v -0.09498905 0.10685403 -0.04497238
v -0.02498477 0.10815029 -0.04579902
v -0.09498905 0.11025113 -0.03603537
v -0.08499528 0.11103336 -0.03388301
v -0.08499528 0.10962535 0.00387702
v -0.09498905 0.10868668 0.00590461
v -0.09498905 0.10526723 0.01499759
v -0.10498282 0.10146783 0.02245289
v -0.09498905 0.10157958 0.02262446
v -0.01499100 0.10218301 0.02349789
v -0.00499724 0.10220537 0.02357587
v 0.00502049 0.10220537 0.02359147
v 0.02498406 0.10216066 0.02349789
v 0.09498834 0.10195952 0.02310796
v 0.10498211 0.10189247 0.02306117
v 0.11499984 0.10182542 0.02293640
v 0.13062558 0.10160193 0.02260886
v 0.12499360 0.10564716 0.01499759
v 0.12499360 0.10975944 0.00440731
v 0.13062558 0.11199438 -0.00498200
v 0.13062558 0.11297775 -0.01279604
v 0.13062558 0.11306715 -0.02497719
v 0.11499984 0.10819499 -0.04595499
v 0.12499360 0.10806090 -0.04556506
v 0.13062558 0.11076517 -0.03757947
v 0.13062558 0.10815029 -0.04475403
v 0.12499360 0.09932230 -0.05924352
v 0.13062558 0.10401566 -0.05217814
v 0.13062558 0.10001513 -0.05799577
v 0.08405991 0.10276410 -0.05589019
v -0.09498905 0.11165914 -0.00498200
v -0.10498282 0.11007234 -0.03534911
v -0.10498282 0.11197203 -0.02497719
v -0.10498282 0.11237432 -0.01497960
v -0.10498282 0.11125685 -0.00498200
v -0.11327500 0.10929011 0.00192741
v -0.10498282 0.10933480 0.00289442
v 0.12499360 0.09433839 -0.06368863
v 0.08405991 0.09590285 -0.06342348
v 0.07497685 0.09498652 -0.06437489
v 0.06498308 0.09498652 -0.06442168
v 0.00502049 0.09498652 -0.06462444
v -0.00499724 0.09498652 -0.06446847
v -0.10498282 0.09331032 -0.06292439
v -0.11420967 0.09310918 -0.06281520
v -0.10498282 0.09831658 -0.05799577
v -0.10498282 0.10656349 -0.04497238
v -0.11420967 0.09811543 -0.05771503
v -0.11420967 0.10189247 -0.05272403
v -0.10498282 0.10504373 0.01499759
v -0.11420967 0.10137844 0.02178223
v -0.11420967 0.09811543 0.02688241
v -0.10498282 0.09820483 0.02745949
v -0.09498905 0.09831658 0.02763106
v -0.01499100 0.09892001 0.02848888
v -0.00499724 0.09898706 0.02858246
v 0.00502049 0.09900941 0.02858246
v 0.01499029 0.09898706 0.02855127
v 0.10498211 0.09860712 0.02805217
v 0.11499984 0.09851772 0.02792740
v 0.12499360 0.09838363 0.02772464
v 0.13062558 0.10546837 0.01499759
v 0.13062558 0.09829423 0.02759986
v 0.13062558 0.10949125 0.00462567
v 0.13062558 0.09527706 -0.06261244
v -0.11420967 0.10609415 -0.04497238
v -0.11420967 0.10982649 -0.03469405
v -0.11420967 0.11154740 -0.02528913
v -0.11420967 0.11190499 -0.01536952
v -0.11420967 0.11069812 -0.00446731
v -0.11420967 0.10477554 0.01460767
v 0.13062558 0.08767828 -0.06858604
v 0.12499360 0.08787943 -0.06871082
v 0.08499458 0.08881810 -0.06927231
v 0.07497685 0.08895220 -0.06936589
v 0.02498406 0.08924274 -0.06950627
v 0.01499029 0.08928744 -0.06952186
v 0.00502049 0.08924274 -0.06952186
v -0.11420967 0.08665022 -0.06782180
v -0.11420967 0.09317622 0.03330832
v -0.10498282 0.09319858 0.03371384
v -0.05499002 0.08043709 0.05065204
v 0.00502049 0.09400315 0.03458726
v -0.04808785 0.08043709 0.05068323
v 0.01499029 0.09398080 0.03458726
v 0.02498406 0.09393610 0.03458726
v 0.03497782 0.09386905 0.03458726
v 0.10498211 0.09360086 0.03419734
v 0.11499984 0.09351146 0.03408816
v 0.12499360 0.09337737 0.03397898
v 0.13062558 0.09331032 0.03390100
v 0.13062558 0.08267203 -0.07145587
v 0.12499360 0.08287317 -0.07158065
v 0.11499984 0.08309667 -0.07173661
v 0.08499458 0.08383419 -0.07206415
v 0.09498834 0.08356600 -0.07198617
v 0.02498406 0.08425883 -0.07242288
v 0.01499029 0.08428118 -0.07243847
v 0.00502049 0.08421414 -0.07236049
v -0.11420967 0.08135342 -0.07108155
v -0.11420967 0.08879575 0.03834611
v -0.05499002 0.07498385 0.05425492
v -0.11420967 0.08381185 0.04305636
v -0.11420967 0.07773282 0.04803177
v -0.11420967 0.07265952 0.05146307
v 0.09498834 0.06224472 0.06238089
v 0.07497685 0.07898439 0.04920153
v 0.09498834 0.08432588 0.04394538
v 0.12499360 0.08906394 0.03898558
v 0.11499984 0.08915334 0.03909476
v 0.10498211 0.08924274 0.03918834
v 0.09498834 0.08930979 0.03926632
v 0.07497685 0.08944388 0.03940669
v 0.03497782 0.08962268 0.03959386
v 0.13062558 0.08787943 0.03985900
v 0.13062558 0.07670475 -0.07401375
v 0.12499360 0.07498385 -0.07498077
v 0.11499984 0.07498385 -0.07532389
v 0.10498211 0.07498385 -0.07557344
v 0.02498406 0.07498385 -0.07643127
v 0.09498834 0.07498385 -0.07572941
v 0.01499029 0.07498385 -0.07649366
v 0.00502049 0.07498385 -0.07636888
v -0.11420967 0.07498385 -0.07402936
v -0.01499100 0.04159392 0.07081880
v -0.00499724 0.04197386 0.07088118
v 0.07497685 0.05498118 0.06632689
v -0.11420967 0.06526189 0.05601736
v -0.11420967 0.05951810 0.05930830
v 0.08499458 0.05498118 0.06598376
v 0.10498211 0.06208827 0.06208455
v 0.12499360 0.08405769 0.04338390
v 0.08499458 0.07878324 0.04910795
v 0.13062558 0.08249323 0.04435090
v 0.13062558 0.06718393 -0.07703955
v 0.11499984 0.06497134 -0.07808454
v 0.10498211 0.06497134 -0.07831849
v 0.01499029 0.06497134 -0.07898916
v 0.00502049 0.06497134 -0.07898916
v -0.09498905 0.06497134 -0.07783499
v -0.11420967 0.06465845 -0.07755425
v -0.11420967 0.05399781 0.06174141
v -0.01499100 0.03497851 0.07322071
v 0.06498308 0.04630963 0.07022611
v 0.10498211 0.05498118 0.06445527
v 0.11499984 0.06159659 0.06139828
v 0.13062558 0.07697295 0.04825012
v 0.13062558 0.05717142 -0.07884879
v 0.10498211 0.05498118 -0.07947266
v 0.01499029 0.05933930 -0.07994057
v -0.08499528 0.05509293 -0.07998736
v -0.09498905 0.05723846 -0.07958184
v -0.10498282 0.05694792 -0.07948826
v -0.11420967 0.05402016 -0.07984699
v -0.11420967 0.04494632 0.06269282
v -0.01499100 0.02498835 0.07524831
v 0.02498406 0.01499819 0.07740068
v -0.00499724 0.03497851 0.07323631
v 0.02498406 0.02498835 0.07534189
v 0.07075886 0.04309132 0.07042887
v 0.13062558 -0.00498214 0.06885359
v 0.11499984 0.05498118 0.06306715
v 0.12300444 0.06083671 0.06064963
v 0.13062558 0.06474785 0.05659445
v 0.13062558 0.04718126 -0.07926990
v 0.08755893 0.04995257 -0.08000296
v 0.09407764 0.05402016 -0.07967542
v 0.00502049 0.05723846 -0.08012773
v -0.07497755 0.05265685 -0.08037728
v 0.03497782 0.05312618 -0.08023691
v -0.10498282 0.05194167 -0.08028370
v -0.11420967 0.04458873 -0.08067362
v -0.11420967 -0.01499465 0.06712233
v -0.10498282 -0.01499465 0.06876001
v -0.02498477 0.01499819 0.07521711
v 0.01499029 0.00498568 0.07846126
v 0.01499029 0.01499819 0.07722910
v 0.13062558 -0.01497230 0.06796457
v 0.13062558 0.05645624 0.05887159
v 0.09498834 -0.00498214 0.07173901
v 0.13062558 0.03716874 -0.07834969
v 0.04173620 0.03978362 -0.08001856
v 0.03497782 0.04499102 -0.08023691
v -0.07497755 0.04499102 -0.08087638
v 0.02498406 0.05379666 -0.08023691
v -0.11420967 0.03473267 -0.08051766
v -0.11420967 -0.02458252 0.06752785
v -0.09228090 -0.01973271 0.07016373
v -0.03497853 0.00498568 0.07488958
v 0.00502049 -0.00498214 0.07796216
v 0.01499029 -0.00498214 0.07791537
v 0.13062558 -0.02936528 0.06520392
v 0.08408387 -0.02444842 0.07060044
v 0.08017744 -0.03008046 0.07002335
v 0.13062558 -0.05499999 -0.06323632
v 0.04499555 -0.05499999 -0.06496757
v -0.05499002 -0.03531021 -0.07003655
v -0.05499002 -0.02498481 -0.07167423
v -0.10498282 -0.00498214 -0.07552665
v -0.10498282 0.00498568 -0.07697716
v -0.10498282 0.01499819 -0.07841208
v -0.06869850 0.02986051 -0.07998736
v -0.08499528 0.02932412 -0.08008094
v -0.07497755 0.03231893 -0.08028370
v -0.10498282 0.03497851 -0.08056445
v -0.11420967 0.02615051 -0.07984699
v -0.11420967 -0.03459503 0.06562503
v -0.06498379 -0.02498481 0.07225370
v -0.00499724 -0.01499465 0.07718232
v 0.12499360 -0.06499015 0.05823212
v 0.13062558 -0.06715804 0.05695317
v -0.02498477 -0.03499732 0.07356384
v -0.02498477 -0.04308778 0.07167662
v 0.13062558 -0.06543714 -0.06119313
v 0.04499555 -0.06499015 -0.06276841
v -0.06498379 -0.05499999 -0.06635570
v -0.06498379 -0.04498748 -0.06846127
v -0.09498905 -0.03931074 -0.06988059
v -0.10498282 -0.03720990 -0.07037969
v -0.10498282 -0.02498481 -0.07243847
v -0.10498282 -0.01499465 -0.07398257
v -0.11420967 -0.01499465 -0.07406055
v -0.11420967 -0.00498214 -0.07558905
v -0.11420967 0.00498568 -0.07708634
v -0.11420967 0.01459590 -0.07841208
v -0.10498282 0.02617286 -0.07984699
v -0.09498905 0.02894418 -0.08009654
v -0.11420967 -0.04572501 0.06177261
v -0.03497853 -0.04311013 0.07105274
v 0.11499984 -0.07498031 0.05384940
v 0.12499360 -0.07498031 0.05355306
v 0.08499458 -0.06630876 0.05852846
v 0.13060161 -0.07777398 0.05144748
v 0.13062558 -0.09227871 0.03750388
v -0.03497853 -0.04813874 0.06890038
v 0.09498834 -0.07498031 0.05423932
v 0.10498211 -0.07498031 0.05405216
v 0.13062558 -0.07173965 -0.05936829
v 0.02498406 -0.07191845 -0.06074082
v 0.03497782 -0.06499015 -0.06283081
v -0.09498905 -0.05499999 -0.06660525
v -0.08499528 -0.05499999 -0.06652726
v -0.09498905 -0.04498748 -0.06880441
v -0.10498282 -0.04498748 -0.06888239
v -0.11420967 -0.03725460 -0.07033290
v -0.11420967 -0.02536475 -0.07242288
v -0.11420967 -0.06463256 0.05469163
v -0.09498905 -0.05772661 0.05944867
v -0.08499528 -0.05924636 0.05977621
v 0.09498834 -0.08079115 0.05063644
v 0.10498211 -0.08061235 0.05049607
v 0.11499984 -0.09053546 0.04057646
v 0.13062558 -0.09916231 0.02869164
v 0.11499984 -0.09509473 0.03499278
v -0.09498905 -0.06499015 0.05601736
v -0.09498905 -0.07198550 0.05155666
v 0.06498308 -0.08072410 0.05051167
v 0.07497685 -0.08085819 0.05063644
v 0.08499458 -0.07498031 0.05420813
v 0.08499458 -0.08085819 0.05066764
v 0.13062558 -0.08278023 -0.05472043
v 0.04499555 -0.07428748 -0.05968023
v 0.03497782 -0.07442158 -0.05972702
v 0.02498406 -0.07692470 -0.05872883
v -0.08499528 -0.07176200 -0.06086560
v -0.08499528 -0.06499015 -0.06353267
v -0.09498905 -0.06499015 -0.06347027
v -0.10498282 -0.05499999 -0.06652726
v -0.11420967 -0.04536742 -0.06866403
v -0.11420967 -0.07122562 0.05127591
v -0.10498282 -0.06499015 0.05531550
v 0.07497685 -0.08586445 0.04647208
v 0.06498308 -0.09156353 0.04155906
v 0.07497685 -0.09145179 0.04146548
v 0.09498834 -0.08579740 0.04601977
v 0.10498211 -0.08561860 0.04581701
v 0.10498211 -0.09078130 0.04081041
v 0.07497685 -0.09645804 0.03561665
v 0.08499458 -0.09623455 0.03532032
v 0.13062558 -0.10215712 0.02368505
v 0.11499984 -0.09954225 0.02925313
v 0.09158519 -0.10007863 0.03011096
v -0.10498282 -0.07171731 0.05133830
v -0.11420967 -0.07629892 0.04717394
v 0.04499555 -0.09131769 0.04130951
v 0.05498932 -0.08539511 0.04651887
v 0.06498308 -0.08573035 0.04656566
v 0.13062558 -0.09265865 -0.04888720
v 0.03497782 -0.08499282 -0.05461125
v -0.08499528 -0.07674591 -0.05822972
v -0.09498905 -0.07162791 -0.06080321
v -0.10498282 -0.06499015 -0.06322072
v -0.11420967 -0.05537993 -0.06615294
v 0.05498932 -0.09151883 0.04152787
v 0.05498932 -0.09652509 0.03592859
v 0.06498308 -0.09654744 0.03586620
v 0.08499458 -0.09122829 0.04126272
v 0.07497685 -0.10043623 0.03062566
v 0.06498308 -0.10063737 0.03087521
v 0.13062558 -0.10642585 0.01499759
v 0.06498308 -0.10421327 0.02499518
v -0.11420967 -0.08177451 0.04219854
v 0.04499555 -0.09630159 0.03564785
v -0.07497755 -0.09232341 0.03280922
v 0.13062558 -0.10119610 -0.04135391
v 0.03497782 -0.09618985 -0.04667244
v 0.04499555 -0.09113889 -0.05083681
v 0.03497782 -0.09120594 -0.05085240
v 0.01499029 -0.08499282 -0.05442409
v 0.01499029 -0.09096010 -0.05071203
v -0.09498905 -0.07663416 -0.05815174
v -0.10498282 -0.07122562 -0.06061605
v -0.11420967 -0.06499015 -0.06283081
v 0.04499555 -0.10048092 0.03065685
v 0.05498932 -0.10068206 0.03092200
v 0.05498932 -0.10434736 0.02499518
v 0.13062558 -0.10953241 0.00612297
v 0.06498308 -0.10953241 0.01389021
v 0.05498932 -0.10964416 0.01420215
v -0.11420967 -0.08678077 0.03658366
v -0.11420967 -0.09096010 0.03135871
v -0.07497755 -0.09732966 0.02585301
v 0.13062558 -0.10546483 -0.03497479
v 0.03497782 -0.10635880 -0.03497479
v 0.03497782 -0.10155369 -0.04166584
v 0.02498406 -0.10153134 -0.04160346
v 0.02498406 -0.09607810 -0.04661005
v 0.02498406 -0.09109420 -0.05077442
v 0.00502049 -0.09082600 -0.05063405
v -0.08499528 -0.08454584 -0.05322313
v -0.09498905 -0.08429999 -0.05312955
v -0.11420967 -0.08356246 -0.05264604
v -0.10498282 -0.07623187 -0.05787100
v -0.11420967 -0.07097977 -0.06028851
v 0.04499555 -0.10401212 0.02499518
v -0.06498379 -0.10077146 0.02128313
v 0.04499555 -0.10955476 0.01404618
v 0.13062558 -0.11078397 0.00058608
v 0.06498308 -0.11208024 0.00499999
v 0.05498932 -0.11241548 0.00499999
v 0.03497782 -0.11040404 0.01100479
v 0.04499555 -0.11248253 0.00499999
v -0.11420967 -0.09493829 0.02499518
v -0.07497755 -0.10050327 0.02086201
v 0.13062558 -0.10997940 -0.02511756
v 0.12499360 -0.10928657 -0.02778463
v 0.03497782 -0.11067223 -0.02697359
v 0.02498406 -0.10633645 -0.03497479
v 0.01499029 -0.10137489 -0.04146309
v -0.08499528 -0.08955209 -0.04962025
v 0.01499029 -0.09596635 -0.04645409
v -0.09498905 -0.08928390 -0.04940189
v -0.11420967 -0.08856872 -0.04879362
v -0.11420967 -0.07576254 -0.05762145
v -0.06498379 -0.10378863 0.01499759
v 0.13062558 -0.11163325 -0.00716557
v 0.05498932 -0.11384583 -0.00498200
v 0.04499555 -0.11411403 -0.00498200
v 0.03497782 -0.11223669 0.00499999
v -0.07497755 -0.10327459 0.01499759
v -0.06498379 -0.10740922 0.00499999
v 0.03497782 -0.11409168 -0.00498200
v -0.11420967 -0.09896117 0.01774264
v -0.08935707 -0.09994454 0.01987941
v -0.08269456 -0.10021273 0.02034732
v 0.13062558 -0.11152150 -0.01669525
v 0.12499360 -0.11080632 -0.02279363
v 0.03497782 -0.11384583 -0.01497960
v 0.02498406 -0.11064988 -0.02697359
v 0.01499029 -0.10959946 -0.02882962
v 0.01499029 -0.10597886 -0.03497479
v -0.03497853 -0.10043623 -0.04051168
v 0.00502049 -0.10119610 -0.04130712
v -0.08499528 -0.09435720 -0.04462925
v -0.09498905 -0.09415606 -0.04439530
v -0.10498282 -0.09388787 -0.04405217
v -0.11420967 -0.09373142 -0.04355307
v 0.12499360 -0.11192379 -0.01497960
v 0.04499555 -0.11373409 -0.01497960
v -0.06469620 -0.10942066 -0.00560588
v 0.02498406 -0.11362235 -0.00498200
v -0.11420967 -0.10117375 0.01275164
v -0.07497755 -0.10685049 0.00499999
v -0.06114925 -0.11006880 -0.01022255
v 0.02498406 -0.11357764 -0.01497960
v 0.01499029 -0.11123096 -0.02383862
v -0.08499528 -0.10660464 -0.02497719
v -0.09498905 -0.10222417 -0.03380502
v -0.08499528 -0.10249236 -0.03413256
v -0.02498477 -0.10441441 -0.03497479
v -0.08499528 -0.09936345 -0.03913915
v -0.09498905 -0.09916231 -0.03879602
v -0.11420967 -0.09853653 -0.03776663
v -0.10498282 -0.09887177 -0.03837490
v -0.09498905 -0.10727513 -0.00498200
v -0.11420967 -0.10381097 0.00499999
v -0.11420967 -0.10580007 -0.00459208
v -0.09498905 -0.10772211 -0.01497960
v -0.06469620 -0.10955476 -0.01463647
v -0.05499002 -0.10980060 -0.01736592
v -0.03224642 -0.11006880 -0.02031373
v -0.09498905 -0.10595652 -0.02497719
v -0.10498282 -0.10191128 -0.03336831
v -0.11420967 -0.10166544 -0.03244809
v -0.11420967 -0.10622471 -0.01497960
v -0.10498282 -0.10521898 -0.02497719
v -0.11420967 -0.10448146 -0.02497719
f 1 2 8
f 1 8 3
f 1 3 4
f 1 4 5
f 1 5 6
f 1 6 2
f 2 7 8
f 2 6 9
f 2 9 10
f 2 10 7
f 3 8 11
f 3 11 12
f 3 12 4
f 4 13 14
f 4 14 5
f 4 12 15
f 4 15 16
f 4 16 13
f 5 14 17
f 5 17 6
f 6 17 18
f 6 18 9
f 7 10 19
f 7 19 20
f 7 20 21
f 7 21 8
f 8 21 22
f 8 22 23
f 8 23 11
f 9 18 19
f 9 19 10
f 11 23 24
f 11 24 12
f 12 24 25
f 12 25 26
f 12 26 27
f 12 27 15
f 13 16 28
f 13 28 29
f 13 29 30
f 13 30 14
f 14 30 31
f 14 31 32
f 14 32 17
f 15 27 33
f 15 33 34
f 15 34 35
f 15 35 16
f 16 36 37
f 16 37 38
f 16 38 28
f 16 35 39
f 16 39 36
f 17 32 18
f 18 32 31
f 18 31 40
f 18 40 41
f 18 41 42
f 18 42 19
f 19 42 43
f 19 43 20
f 20 43 44
f 20 44 45
f 20 45 21
f 21 45 46
f 21 46 22
f 22 46 47
f 22 47 23
f 23 47 48
f 23 48 49
f 23 49 50
f 23 50 24
f 24 50 51
f 24 51 25
f 25 51 52
f 25 52 26
f 26 53 27
f 26 52 53
f 27 53 33
f 28 38 54
f 28 54 55
f 28 55 29
f 29 55 56
f 29 56 57
f 29 57 31
f 29 31 30
f 31 57 58
f 31 58 40
f 33 59 60
f 33 60 34
f 33 53 59
f 34 60 36
f 34 36 35
f 35 36 39
f 36 61 62
f 36 62 63
f 36 63 37
f 36 60 61
f 37 63 38
f 38 63 64
f 38 64 65
f 38 65 54
f 40 58 41
f 41 58 66
f 41 66 67
f 41 67 68
f 41 68 42
f 42 68 69
f 42 69 43
f 43 70 71
f 43 71 44
f 43 69 72
f 43 72 70
f 44 73 74
f 44 74 75
f 44 75 76
f 44 76 45
f 44 71 73
f 45 76 46
f 46 76 77
f 46 77 78
f 46 78 47
f 47 78 48
f 48 78 79
f 48 79 49
f 49 80 50
f 49 79 81
f 49 81 82
f 49 82 80
f 50 80 51
f 51 80 52
f 52 80 83
f 52 83 84
f 52 84 85
f 52 85 86
f 52 86 53
f 53 87 59
f 53 86 87
f 54 65 88
f 54 88 55
f 55 88 56
f 56 89 58
f 56 58 57
f 56 88 90
f 56 90 91
f 56 91 92
f 56 92 130
f 56 130 89
f 58 89 93
f 58 93 66
f 59 87 94
f 59 94 60
f 60 94 95
f 60 95 96
f 60 96 61
f 61 96 97
f 61 97 62
f 62 97 98
f 62 98 99
f 62 99 63
f 63 99 100
f 63 100 101
f 63 101 64
f 64 101 100
f 64 100 102
f 64 102 65
f 65 102 103
f 65 103 88
f 66 104 105
f 66 105 106
f 66 106 67
f 66 93 104
f 67 106 107
f 67 107 108
f 67 108 68
f 68 108 109
f 68 109 69
f 69 109 110
f 69 110 111
f 69 111 72
f 70 112 71
f 70 72 111
f 70 111 112
f 71 112 113
f 71 113 73
f 73 113 114
f 73 114 74
f 74 115 75
f 74 114 115
f 75 115 116
f 75 116 117
f 75 117 118
f 75 118 76
f 76 118 77
f 77 118 119
f 77 119 120
f 77 120 78
f 78 120 121
f 78 121 79
f 79 121 81
f 80 122 83
f 80 82 123
f 80 123 122
f 81 121 124
f 81 124 82
f 82 124 125
f 82 125 123
f 83 122 84
f 84 126 94
f 84 94 85
f 84 122 123
f 84 123 127
f 84 127 128
f 84 128 126
f 85 94 129
f 85 129 86
f 86 129 87
f 87 129 94
f 88 103 90
f 89 130 93
f 90 103 91
f 91 131 132
f 91 132 92
f 91 103 131
f 92 132 133
f 92 133 134
f 92 134 130
f 93 130 134
f 93 134 135
f 93 135 136
f 93 136 105
f 93 105 104
f 94 126 137
f 94 137 138
f 94 138 139
f 94 139 140
f 94 140 95
f 95 140 141
f 95 141 96
f 96 141 97
f 97 141 142
f 97 142 143
f 97 143 144
f 97 144 145
f 97 145 99
f 97 99 98
f 99 146 100
f 99 145 147
f 99 147 148
f 99 148 146
f 100 146 102
f 102 146 131
f 102 131 103
f 105 136 149
f 105 149 106
f 106 149 107
f 107 149 150
f 107 150 151
f 107 151 152
f 107 152 153
f 107 153 108
f 108 153 109
f 109 154 155
f 109 155 110
f 109 153 154
f 110 155 156
f 110 156 111
f 111 156 157
f 111 157 112
f 112 157 113
f 113 158 114
f 113 157 158
f 114 158 115
f 115 158 159
f 115 159 160
f 115 160 116
f 116 161 117
f 116 160 162
f 116 162 190
f 116 190 214
f 116 214 233
f 116 233 246
f 116 246 263
f 116 263 278
f 116 278 260
f 116 260 277
f 116 277 291
f 116 291 310
f 116 310 333
f 116 333 352
f 116 352 379
f 116 379 399
f 116 399 416
f 116 416 437
f 116 437 455
f 116 455 465
f 116 465 444
f 116 444 422
f 116 422 404
f 116 404 387
f 116 387 360
f 116 360 337
f 116 337 313
f 116 313 294
f 116 294 280
f 116 280 264
f 116 264 247
f 116 247 234
f 116 234 215
f 116 215 191
f 116 191 171
f 116 171 164
f 116 164 128
f 116 128 127
f 116 127 125
f 116 125 124
f 116 124 121
f 116 121 120
f 116 120 119
f 116 119 163
f 116 163 161
f 117 161 118
f 118 161 163
f 118 163 119
f 123 125 127
f 126 128 164
f 126 164 137
f 131 146 165
f 131 165 166
f 131 166 132
f 132 166 167
f 132 167 133
f 133 167 168
f 133 168 169
f 133 169 134
f 134 169 135
f 135 169 170
f 135 170 136
f 136 170 149
f 137 164 171
f 137 171 172
f 137 172 173
f 137 173 138
f 138 173 139
f 139 173 174
f 139 174 175
f 139 175 176
f 139 176 140
f 140 176 141
f 141 177 142
f 141 176 177
f 142 177 143
f 143 177 144
f 144 178 199
f 144 199 223
f 144 223 240
f 144 240 253
f 144 253 271
f 144 271 285
f 144 285 305
f 144 305 324
f 144 324 323
f 144 323 322
f 144 322 321
f 144 321 345
f 144 345 344
f 144 344 368
f 144 368 392
f 144 392 412
f 144 412 433
f 144 433 453
f 144 453 431
f 144 431 452
f 144 452 476
f 144 476 492
f 144 492 503
f 144 503 506
f 144 506 504
f 144 504 496
f 144 496 495
f 144 495 481
f 144 481 462
f 144 462 442
f 144 442 420
f 144 420 419
f 144 419 401
f 144 401 383
f 144 383 369
f 144 369 346
f 144 346 327
f 144 327 306
f 144 306 286
f 144 286 272
f 144 272 254
f 144 254 241
f 144 241 228
f 144 228 227
f 144 227 204
f 144 204 203
f 144 203 202
f 144 202 200
f 144 200 179
f 144 179 151
f 144 151 150
f 144 150 170
f 144 170 169
f 144 169 168
f 144 168 167
f 144 167 166
f 144 166 165
f 144 165 148
f 144 148 147
f 144 147 145
f 144 177 178
f 146 148 165
f 149 170 150
f 151 179 152
f 152 179 180
f 152 180 153
f 153 180 181
f 153 181 154
f 154 181 155
f 155 182 156
f 155 181 183
f 155 183 182
f 156 182 184
f 156 184 185
f 156 185 157
f 157 185 186
f 157 186 187
f 157 187 158
f 158 187 188
f 158 188 159
f 159 188 189
f 159 189 190
f 159 190 160
f 160 190 162
f 171 191 192
f 171 192 172
f 172 192 193
f 172 193 173
f 173 194 174
f 173 193 195
f 173 195 194
f 174 194 196
f 174 196 175
f 175 196 176
f 176 197 177
f 176 196 197
f 177 197 198
f 177 198 199
f 177 199 178
f 179 200 180
f 180 200 181
f 181 201 183
f 181 200 202
f 181 202 203
f 181 203 204
f 181 204 201
f 182 183 184
f 183 201 205
f 183 205 206
f 183 206 207
f 183 207 208
f 183 208 209
f 183 209 210
f 183 210 211
f 183 211 212
f 183 212 213
f 183 213 184
f 184 213 185
f 185 213 186
f 186 213 212
f 186 212 187
f 187 210 209
f 187 209 188
f 187 212 211
f 187 211 210
f 188 209 208
f 188 208 189
f 189 208 190
f 190 208 214
f 191 215 216
f 191 216 192
f 192 216 217
f 192 217 193
f 193 217 218
f 193 218 195
f 194 219 196
f 194 195 218
f 194 218 220
f 194 220 219
f 196 219 221
f 196 221 197
f 197 221 198
f 198 221 222
f 198 222 223
f 198 223 199
f 201 224 225
f 201 225 226
f 201 226 205
f 201 204 227
f 201 227 228
f 201 228 224
f 205 226 229
f 205 229 230
f 205 230 231
f 205 231 232
f 205 232 206
f 206 232 208
f 206 208 207
f 208 232 231
f 208 231 214
f 214 231 233
f 215 234 216
f 216 234 217
f 217 235 218
f 217 234 235
f 218 236 220
f 218 235 236
f 219 220 236
f 219 236 237
f 219 237 221
f 221 237 238
f 221 238 239
f 221 239 222
f 222 239 223
f 223 239 240
f 224 228 241
f 224 241 242
f 224 242 225
f 225 242 243
f 225 243 226
f 226 243 229
f 229 243 244
f 229 244 230
f 230 244 245
f 230 245 233
f 230 233 231
f 233 245 246
f 234 247 235
f 235 247 236
f 236 247 248
f 236 248 249
f 236 249 237
f 237 249 238
f 238 249 250
f 238 250 251
f 238 251 239
f 239 251 252
f 239 252 240
f 240 252 253
f 241 254 255
f 241 255 242
f 242 255 256
f 242 256 258
f 242 258 257
f 242 257 243
f 243 258 256
f 243 256 259
f 243 259 244
f 243 257 258
f 244 260 261
f 244 261 262
f 244 262 245
f 244 259 260
f 245 262 246
f 246 262 263
f 247 264 248
f 248 264 265
f 248 265 266
f 248 266 249
f 249 267 268
f 249 268 250
f 249 266 269
f 249 269 267
f 250 268 270
f 250 270 251
f 251 270 253
f 251 253 252
f 253 270 271
f 254 272 273
f 254 273 274
f 254 274 255
f 255 274 275
f 255 275 276
f 255 276 256
f 256 260 259
f 256 276 275
f 256 275 260
f 260 278 262
f 260 262 261
f 260 275 279
f 260 279 277
f 262 278 263
f 264 280 281
f 264 281 265
f 265 281 282
f 265 282 283
f 265 283 269
f 265 269 266
f 267 283 268
f 267 269 284
f 267 284 283
f 268 283 270
f 269 283 284
f 270 283 271
f 271 283 285
f 272 286 273
f 273 287 288
f 273 288 274
f 273 286 287
f 274 288 275
f 275 289 290
f 275 290 279
f 275 288 289
f 277 279 292
f 277 292 293
f 277 293 291
f 279 290 292
f 280 294 295
f 280 295 296
f 280 296 297
f 280 297 298
f 280 298 281
f 281 298 299
f 281 299 300
f 281 300 301
f 281 301 302
f 281 302 303
f 281 303 283
f 281 283 282
f 283 303 304
f 283 304 285
f 285 304 305
f 286 306 307
f 286 307 287
f 287 307 308
f 287 308 288
f 288 308 289
f 289 308 290
f 290 308 293
f 290 293 292
f 291 309 310
f 291 293 309
f 293 308 311
f 293 311 312
f 293 312 309
f 294 313 295
f 295 313 314
f 295 314 315
f 295 315 316
f 295 316 296
f 296 316 317
f 296 317 318
f 296 318 319
f 296 319 297
f 297 319 320
f 297 320 298
f 298 320 321
f 298 321 322
f 298 322 323
f 298 323 299
f 299 323 300
f 300 323 324
f 300 324 325
f 300 325 302
f 300 302 301
f 302 325 326
f 302 326 303
f 303 326 304
f 304 326 305
f 305 326 325
f 305 325 324
f 306 327 328
f 306 328 307
f 307 328 311
f 307 311 308
f 309 329 330
f 309 330 310
f 309 312 331
f 309 331 329
f 310 332 333
f 310 330 332
f 311 328 312
f 312 328 334
f 312 334 335
f 312 335 336
f 312 336 329
f 312 329 331
f 313 337 314
f 314 338 339
f 314 339 340
f 314 340 341
f 314 341 315
f 314 337 338
f 315 341 342
f 315 342 316
f 316 342 317
f 317 342 318
f 318 343 344
f 318 344 345
f 318 345 319
f 318 342 343
f 319 345 321
f 319 321 320
f 327 346 347
f 327 347 328
f 328 347 348
f 328 348 334
f 329 336 349
f 329 349 350
f 329 350 330
f 330 350 332
f 332 350 351
f 332 351 333
f 333 351 353
f 333 353 352
f 334 348 354
f 334 354 355
f 334 355 356
f 334 356 357
f 334 357 358
f 334 358 335
f 335 358 357
f 335 357 359
f 335 359 349
f 335 349 336
f 337 360 361
f 337 361 338
f 338 361 362
f 338 362 363
f 338 363 364
f 338 364 365
f 338 365 339
f 339 365 340
f 340 366 367
f 340 367 343
f 340 343 342
f 340 342 341
f 340 365 366
f 343 367 368
f 343 368 344
f 346 369 370
f 346 370 348
f 346 348 347
f 348 370 354
f 349 359 371
f 349 371 372
f 349 372 373
f 349 373 350
f 350 373 374
f 350 374 375
f 350 375 351
f 351 375 376
f 351 376 377
f 351 377 378
f 351 378 353
f 352 353 380
f 352 380 379
f 353 381 380
f 353 378 381
f 354 370 369
f 354 369 382
f 354 382 355
f 355 382 383
f 355 383 384
f 355 384 385
f 355 385 356
f 356 385 386
f 356 386 357
f 357 386 359
f 359 386 371
f 360 387 388
f 360 388 363
f 360 363 361
f 361 363 362
f 363 388 364
f 364 389 390
f 364 390 366
f 364 366 365
f 364 388 389
f 366 390 391
f 366 391 367
f 367 391 392
f 367 392 368
f 369 383 382
f 371 386 372
f 372 386 393
f 372 393 394
f 372 394 395
f 372 395 373
f 373 395 377
f 373 377 396
f 373 396 375
f 373 375 374
f 375 396 376
f 376 396 377
f 377 397 378
f 377 395 398
f 377 398 397
f 378 397 381
f 379 380 381
f 379 381 400
f 379 400 399
f 381 397 400
f 383 401 384
f 384 402 394
f 384 394 393
f 384 393 385
f 384 401 403
f 384 403 402
f 385 393 386
f 387 404 405
f 387 405 406
f 387 406 388
f 388 406 407
f 388 407 408
f 388 408 389
f 389 408 407
f 389 407 409
f 389 409 410
f 389 410 390
f 390 410 411
f 390 411 391
f 391 411 412
f 391 412 392
f 394 402 413
f 394 413 414
f 394 414 395
f 395 414 398
f 397 398 400
f 398 414 415
f 398 415 400
f 399 400 417
f 399 417 416
f 400 415 418
f 400 418 417
f 401 419 403
f 402 403 413
f 403 419 420
f 403 420 421
f 403 421 413
f 404 422 423
f 404 423 424
f 404 424 405
f 405 424 425
f 405 425 426
f 405 426 407
f 405 407 406
f 407 426 427
f 407 427 409
f 409 428 429
f 409 429 410
f 409 427 426
f 409 426 428
f 410 430 431
f 410 431 432
f 410 432 433
f 410 433 411
f 410 429 430
f 411 433 412
f 413 434 414
f 413 421 435
f 413 435 434
f 414 434 415
f 415 434 436
f 415 436 418
f 416 417 438
f 416 438 437
f 417 418 439
f 417 439 438
f 418 436 440
f 418 440 441
f 418 441 439
f 420 442 443
f 420 443 421
f 421 443 435
f 422 444 445
f 422 445 446
f 422 446 423
f 423 446 468
f 423 468 447
f 423 447 424
f 424 447 425
f 425 447 448
f 425 448 449
f 425 449 450
f 425 450 426
f 426 450 449
f 426 449 428
f 428 449 429
f 429 449 430
f 430 451 431
f 430 449 451
f 431 453 432
f 431 451 452
f 432 453 433
f 434 435 436
f 435 443 436
f 436 443 454
f 436 454 440
f 437 438 439
f 437 439 456
f 437 456 455
f 439 441 457
f 439 457 456
f 440 458 441
f 440 454 459
f 440 459 460
f 440 460 458
f 441 458 461
f 441 461 457
f 442 462 463
f 442 463 464
f 442 464 443
f 443 464 459
f 443 459 454
f 444 465 466
f 444 466 445
f 445 466 446
f 446 467 468
f 446 466 467
f 447 468 469
f 447 469 470
f 447 470 471
f 447 471 472
f 447 472 448
f 448 472 449
f 449 472 471
f 449 471 473
f 449 473 474
f 449 474 451
f 451 474 475
f 451 475 452
f 452 475 476
f 455 456 477
f 455 477 465
f 456 457 477
f 457 478 477
f 457 461 467
f 457 467 478
f 458 460 479
f 458 479 480
f 458 480 461
f 459 464 463
f 459 463 462
f 459 462 481
f 459 481 482
f 459 482 460
f 460 482 479
f 461 480 483
f 461 483 484
f 461 484 467
f 465 477 466
f 466 477 478
f 466 478 467
f 467 484 485
f 467 485 468
f 468 485 486
f 468 486 469
f 469 486 487
f 469 487 488
f 469 488 489
f 469 489 470
f 470 489 471
f 471 489 490
f 471 490 474
f 471 474 473
f 474 491 475
f 474 490 491
f 475 491 476
f 476 491 493
f 476 493 492
f 479 482 494
f 479 494 483
f 479 483 480
f 481 495 482
f 482 495 496
f 482 496 494
f 483 494 497
f 483 497 498
f 483 498 499
f 483 499 484
f 484 499 485
f 485 499 500
f 485 500 486
f 486 500 499
f 486 499 497
f 486 497 501
f 486 501 502
f 486 502 487
f 487 502 493
f 487 493 491
f 487 491 488
f 488 490 489
f 488 491 490
f 492 493 502
f 492 502 503
f 494 496 497
f 496 504 497
f 497 504 505
f 497 505 501
f 497 499 498
f 501 505 503
f 501 503 502
f 503 505 506
f 504 506 505

