# https://github.com/mikedh/trimesh
v -0.11428528 0.11194751 -0.01499044
v -0.11428528 0.10979052 -0.03473410
v -0.11466347 0.11154174 -0.02515010
v -0.12506361 0.11111461 -0.02499451
v -0.16269322 0.10983323 -0.01754202
v -0.15248217 0.10994001 -0.01096080
v -0.12506361 0.11062342 -0.00680669
v -0.11428528 0.10944882 0.00077027
v -0.12506361 0.11032443 -0.03118678
v -0.11428528 0.10592503 -0.04529829
v -0.17505993 0.10667250 -0.03499860
v -0.13587976 0.11002544 -0.03001989
v -0.17505993 0.10872271 -0.02499451
v -0.18504407 0.10816744 -0.02499451
v -0.18504407 0.10850915 -0.01499044
v -0.17505993 0.10910712 -0.01499044
v -0.17505993 0.10782574 -0.00497080
v -0.16503797 0.10840236 -0.00497080
v -0.16503797 0.10569011 0.00498661
v -0.11447437 0.10477179 0.01460172
v -0.11428528 0.09317531 0.03330297
v -0.11428528 0.07457395 -0.07417475
v -0.11447437 0.09994526 -0.05527125
v -0.18519534 0.10039374 -0.04881449
v -0.19506602 0.10203817 -0.04422475
v -0.19506602 0.10556197 -0.03499860
v -0.20505017 0.10496400 -0.03499860
v -0.19506602 0.10752675 -0.02499451
v -0.20505017 0.10688606 -0.02499451
v -0.19506602 0.10774031 -0.01499044
v -0.18504407 0.10709962 -0.00497080
v -0.17505993 0.10504942 0.00498661
v -0.17505993 0.10045781 0.01606422
v -0.11466347 0.09962492 0.02451245
v -0.16503797 0.10077816 0.01671767
v -0.11428528 0.08621314 0.04080214
v -0.19506602 0.08226223 0.04245134
v -0.11428528 0.06466462 -0.07755094
v -0.14506970 0.06498496 -0.07748871
v -0.18504407 0.06498496 -0.07727089
v -0.14506970 0.07814045 -0.07238553
v -0.11447437 0.08394937 -0.06947611
v -0.11466347 0.09308988 -0.06280153
v -0.12506361 0.09776691 -0.05732496
v -0.20505017 0.09272682 -0.05780727
v -0.20505017 0.10047916 -0.04610732
v -0.21503431 0.10009475 -0.04537608
v -0.21503431 0.10419516 -0.03499860
v -0.21503431 0.10603181 -0.02499451
v -0.22505626 0.10517756 -0.01499044
v -0.23504040 0.10302057 -0.00497080
v -0.24506235 0.10050052 0.00120590
v -0.18504407 0.10430194 0.00498661
v -0.18504407 0.10007340 0.01527074
v -0.19506602 0.09838625 0.01676435
v -0.18504407 0.09449939 0.02499476
v -0.19529293 0.09101832 0.02922666
v -0.20505017 0.08181375 0.04217129
v -0.12506361 0.07512922 0.04998163
v -0.11466347 0.07508650 0.04982604
v -0.11428528 0.06498496 0.05618944
v -0.17010568 0.06000894 0.06001682
v -0.13504775 0.07250239 0.05189531
v -0.11428528 0.05398646 -0.07983803
v -0.18504407 0.05417867 -0.07983803
v -0.18504407 0.07773469 -0.07177876
v -0.19506602 0.05407188 -0.07980692
v -0.19506602 0.06498496 -0.07706863
v -0.15505384 0.08110899 -0.07073634
v -0.14506970 0.08629857 -0.06722013
v -0.18504407 0.08546568 -0.06619328
v -0.13504775 0.09247055 -0.06239701
v -0.14506970 0.09215020 -0.06221031
v -0.19506602 0.08804979 -0.06343943
v -0.21499649 0.08886133 -0.06096564
v -0.22365695 0.09148815 -0.05702935
v -0.23504040 0.09253462 -0.05326421
v -0.28503671 0.08986507 -0.04500267
v -0.27505258 0.09663503 -0.03499860
v -0.22687155 0.10152563 -0.03873262
v -0.26419860 0.10020153 -0.02869743
v -0.25504649 0.10188869 -0.02499451
v -0.22505626 0.10504942 -0.02499451
v -0.24506235 0.10342634 -0.01499044
v -0.23504040 0.10432331 -0.01499044
v -0.24506235 0.10212360 -0.00497080
v -0.25402537 0.10024425 -0.00120565
v -0.27505258 0.09546043 0.00498661
v -0.26503062 0.09665638 0.00498661
v -0.21087423 0.10009475 0.01019869
v -0.23504040 0.10097037 0.00234167
v -0.27505258 0.09003592 0.01519294
v -0.20505017 0.08629857 0.03499885
v -0.21503431 0.08113034 0.04139337
v -0.31343856 0.05968859 0.04959267
v -0.12506361 0.06498496 0.05676511
v -0.12506361 0.05725398 0.06130818
v -0.11466347 0.05663464 0.06063916
v -0.11428528 0.04495274 0.06269287
v -0.18504407 0.04497409 0.06541561
v -0.14257367 0.03784108 0.07106332
v -0.13217352 0.04183471 0.06961638
v -0.13743033 0.06203779 0.05875659
v -0.32497326 0.05326035 0.05243986
v -0.11428528 0.04497409 -0.08067819
v -0.19506602 0.04497409 -0.08105159
v -0.16503797 0.08089542 -0.07061187
v -0.19506602 0.07758519 -0.07154538
v -0.20505017 0.04926671 -0.08030479
v -0.21552594 0.04822025 -0.08013364
v -0.22505626 0.05148777 -0.07893564
v -0.20505017 0.06498496 -0.07669523
v -0.20395342 0.08145069 -0.06843369
v -0.22505626 0.08444057 -0.06389062
v -0.27240527 0.07963540 -0.05968985
v -0.28503671 0.08320190 -0.05343535
v -0.27505258 0.08907489 -0.04873670
v -0.28503671 0.09507602 -0.03499860
v -0.29502085 0.08219816 -0.05236182
v -0.29634449 0.08875455 -0.04329124
v -0.28503671 0.09791641 -0.02499451
v -0.27353984 0.09977441 -0.02360981
v -0.25504649 0.10235852 -0.01499044
v -0.27077907 0.10011611 -0.01124085
v -0.28503671 0.09731843 -0.00497080
v -0.28503671 0.09413634 0.00498661
v -0.28503671 0.08928846 0.01413497
v -0.31495130 0.08296698 0.01411941
v -0.33495739 0.07233154 0.02339225
v -0.32497326 0.05825772 0.04749227
v -0.11428528 -0.01499446 0.06712703
v -0.15505384 0.02496322 0.07549747
v -0.11428528 -0.02458344 0.06753155
v -0.33760470 0.05071894 0.05066620
v -0.35704350 0.03920788 0.05071287
v -0.17505993 0.00497370 0.07728670
v -0.16503797 0.01496846 0.07678883
v -0.11428528 0.03043044 -0.08019587
v -0.19506602 0.02496322 -0.08148722
v -0.20505017 0.02496322 -0.08164281
v -0.19506602 0.03495798 -0.08162725
v -0.20505017 0.03495798 -0.08165837
v -0.21503431 0.03495798 -0.08147167
v -0.22505626 0.03899432 -0.08078709
v -0.21503431 0.07668822 -0.07084525
v -0.23632622 0.03777701 -0.08039813
v -0.32497326 0.02496322 -0.07689749
v -0.23504040 0.05496885 -0.07737979
v -0.21503431 0.06498496 -0.07611956
v -0.31495130 0.03495798 -0.07565281
v -0.22505626 0.07570583 -0.07028515
v -0.28503671 0.07816181 -0.05844517
v -0.31366548 0.06887181 -0.06067003
v -0.29502085 0.09323937 -0.03499860
v -0.29502085 0.09622926 -0.02499451
v -0.30504280 0.07854623 -0.05374652
v -0.31374109 0.08070321 -0.04886117
v -0.30961886 0.08982236 -0.03484301
v -0.29502085 0.09704080 -0.01499044
v -0.28503671 0.09855710 -0.01499044
v -0.29502085 0.09580214 -0.00497080
v -0.30927849 0.08977965 0.00434871
v -0.29362154 0.09127459 0.00817609
v -0.32497326 0.08157882 0.01247022
v -0.34830740 0.07068710 0.01877139
v -0.11428528 -0.03457820 0.06563342
v -0.18504407 -0.00499970 0.07636875
v -0.14506970 -0.03498397 0.06796718
v -0.37122554 0.06223000 0.01516183
v -0.40915769 0.03957094 0.01954931
v -0.41494393 0.02981110 0.02491697
v -0.42020074 0.02015805 0.03012905
v -0.36646038 0.03115655 0.05051061
v -0.11428528 0.01496846 -0.07846889
v -0.20505017 0.00520862 -0.07994694
v -0.20505017 0.01496846 -0.08098935
v -0.21503431 0.01496846 -0.08112938
v -0.21503431 0.02496322 -0.08162725
v -0.22505626 0.02496322 -0.08144055
v -0.23504040 0.02496322 -0.08112938
v -0.33495739 0.00497370 -0.07835998
v -0.22505626 0.06498496 -0.07520162
v -0.32497326 0.01496846 -0.07811105
v -0.33495739 0.01496846 -0.07759761
v -0.33495739 0.02496322 -0.07594842
v -0.32497326 0.03495798 -0.07473486
v -0.30504280 0.04497409 -0.07377024
v -0.31495130 0.04497409 -0.07285229
v -0.23504040 0.06498496 -0.07405029
v -0.31495130 0.05383696 -0.06939831
v -0.30504280 0.06135439 -0.06684673
v -0.32497326 0.06295611 -0.06210141
v -0.32497326 0.07051625 -0.05576912
v -0.30504280 0.09407227 -0.02499451
v -0.30504280 0.09501195 -0.01499044
v -0.33771816 0.07068710 -0.05075930
v -0.32497326 0.07976354 -0.04481597
v -0.32497326 0.08491041 -0.03499860
v -0.31964082 0.08975829 -0.02446553
v -0.30504280 0.09385870 -0.00497080
v -0.32497326 0.08516669 0.00498661
v -0.33507085 0.07982761 0.00974749
v -0.35643840 0.07273731 0.00837835
v -0.11428528 -0.04564077 0.06179049
v -0.20505017 -0.01499446 0.07387940
v -0.19506602 -0.01499446 0.07484402
v -0.37096080 0.02096959 0.05026168
v -0.17415228 -0.06227735 0.05898996
v -0.16363868 -0.06281126 0.05866324
v -0.11428528 -0.06462654 0.05469583
v -0.36710328 0.07013184 0.00377305
v -0.41014096 0.04869009 0.00529777
v -0.40291759 0.04766499 0.01281250
v -0.41759124 0.04093775 0.01128778
v -0.49462795 0.00215467 -0.00142347
v -0.43260527 0.00764324 0.02997347
v -0.42496589 0.00497370 0.03394087
v -0.41494393 0.00497370 0.03742596
v -0.11428528 0.00497370 -0.07709974
v -0.20505017 -0.00499970 -0.07850000
v -0.21503431 0.00443980 -0.08004029
v -0.22505626 0.00723747 -0.08032034
v -0.33495739 -0.00499970 -0.07825107
v -0.22505626 0.01496846 -0.08102047
v -0.34494153 -0.00499970 -0.07778431
v -0.34494153 0.00497370 -0.07762873
v -0.34494153 0.01496846 -0.07652408
v -0.34494153 0.02496322 -0.07450148
v -0.33495739 0.03860991 -0.07215216
v -0.32482198 0.04798533 -0.07030071
v -0.33495739 0.05112471 -0.06659780
v -0.34399605 0.05505427 -0.06199250
v -0.34664336 0.05844993 -0.05880301
v -0.33991164 0.06383172 -0.05642257
v -0.31786335 0.09125324 -0.01499044
v -0.31967863 0.08980101 -0.00532864
v -0.35496348 0.06214457 -0.05215956
v -0.37171715 0.05864214 -0.04855000
v -0.38533190 0.05817230 -0.04234218
v -0.33367157 0.08034015 -0.03846813
v -0.37039351 0.07013184 -0.03031550
v -0.34104621 0.08040423 -0.03118678
v -0.38495371 0.06594600 -0.02499451
v -0.34312624 0.07935777 0.00333741
v -0.22823302 -0.01787756 0.07073659
v -0.21503431 -0.02210611 0.07171677
v -0.20505017 -0.02255459 0.07218353
v -0.42496589 -0.00499970 0.03465656
v -0.38495371 0.00497370 0.04643430
v -0.38495371 -0.00499970 0.04581196
v -0.37496957 -0.00499970 0.04772565
v -0.18504407 -0.06496824 0.05707628
v -0.19506602 -0.07246431 0.05208202
v -0.19506602 -0.06170072 0.05822760
v -0.16503797 -0.07519792 0.04999718
v -0.11428528 -0.07385247 0.04914147
v -0.17505993 -0.07530470 0.05010609
v -0.38495371 0.06633041 -0.01499044
v -0.40132922 0.05712584 -0.00497080
v -0.33495739 0.08437650 -0.00497080
v -0.41539776 0.05016368 -0.00497080
v -0.42602482 0.04279575 -0.00145459
v -0.50060332 0.00059566 -0.00865815
v -0.49617851 -0.00758381 -0.00193690
v -0.43634933 -0.00499970 0.03051801
v -0.11428528 -0.00499970 -0.07560613
v -0.20505017 -0.01499446 -0.07675746
v -0.21503431 -0.00499970 -0.07867115
v -0.11428528 -0.01499446 -0.07405029
v -0.11428528 -0.02537363 -0.07241666
v -0.33495739 -0.01499446 -0.07730200
v -0.34494153 -0.01499446 -0.07695971
v -0.35496348 -0.01499446 -0.07618180
v -0.35496348 -0.00499970 -0.07680413
v -0.35496348 0.00497370 -0.07638405
v -0.35496348 0.01496846 -0.07498380
v -0.35496348 0.02496322 -0.07266559
v -0.34528190 0.03801193 -0.07039405
v -0.36037156 0.04653310 -0.06236590
v -0.38502935 0.04499545 -0.05514678
v -0.38294932 0.05129556 -0.05116382
v -0.33495739 0.08501719 -0.01499044
v -0.39229053 0.04896772 -0.04904787
v -0.39819026 0.05197896 -0.04221771
v -0.39380330 0.05956046 -0.03400286
v -0.37519649 0.07004641 -0.01499044
v -0.36494762 0.07391191 -0.01499044
v -0.40061066 0.05891977 -0.02524345
v -0.39989209 0.05988080 -0.01541051
v -0.27505258 -0.04497873 0.05688957
v -0.37496957 -0.01499446 0.04665212
v -0.35496348 -0.02498921 0.04817685
v -0.26503062 -0.05499484 0.05486698
v -0.43385330 -0.01435377 0.02969341
v -0.41494393 -0.01499446 0.03574565
v -0.41494393 -0.00499970 0.03753487
v -0.38495371 -0.01499446 0.04411609
v -0.20505017 -0.06842797 0.05377788
v -0.21503431 -0.07105479 0.05089957
v -0.19506602 -0.07974682 0.04489401
v -0.18504407 -0.07524063 0.05001274
v -0.16503797 -0.08245907 0.04280918
v -0.11428528 -0.08177567 0.04220241
v -0.17505993 -0.08256585 0.04291809
v -0.42220515 0.04815618 -0.01499044
v -0.43279436 0.04187743 -0.01499044
v -0.42784011 0.04266761 -0.02623919
v -0.43714350 0.03226708 -0.03233810
v -0.43222708 0.02722699 -0.04092636
v -0.44119012 0.01768072 -0.04084857
v -0.49129990 -0.00499970 -0.01646849
v -0.42205387 -0.04974119 -0.01780652
v -0.42356661 -0.04775505 0.00014793
v -0.42768884 -0.04100645 0.01142780
v -0.42818049 -0.03203680 0.02183640
v -0.43479878 -0.02501057 0.02331445
v -0.20505017 -0.02498921 -0.07470375
v -0.21503431 -0.01499446 -0.07691304
v -0.11428528 -0.04122002 -0.06952278
v -0.33495739 -0.02498921 -0.07541943
v -0.34494153 -0.02498921 -0.07512382
v -0.35496348 -0.02498921 -0.07440814
v -0.36494762 -0.02498921 -0.07331904
v -0.36494762 -0.01499446 -0.07495268
v -0.36494762 -0.00499970 -0.07535720
v -0.36494762 0.00497370 -0.07467262
v -0.36494762 0.01496846 -0.07305455
v -0.36411560 0.02460016 -0.07084525
v -0.36691418 0.02769683 -0.06927384
v -0.36022028 0.03397559 -0.06849592
v -0.37633106 0.03792651 -0.06238146
v -0.38956761 0.03500069 -0.05978319
v -0.39807680 0.04209099 -0.05163057
v -0.40813658 0.05185083 -0.03316270
v -0.42496589 0.03722175 -0.03703675
v -0.41581377 0.05041995 -0.02499451
v -0.28503671 -0.04497873 0.05506924
v -0.28034720 -0.05644707 0.05184864
v -0.36494762 -0.02498921 0.04630983
v -0.35496348 -0.03498397 0.04509627
v -0.26503062 -0.06441298 0.04929705
v -0.42553318 -0.02249052 0.02953783
v -0.39149636 -0.02103829 0.04041318
v -0.40110230 -0.01125710 0.04028872
v -0.20505017 -0.07912748 0.04419389
v -0.27505258 -0.06857746 0.04385160
v -0.20062537 -0.08777680 0.03361414
v -0.18504407 -0.08243772 0.04279362
v -0.11428528 -0.08880190 0.03406534
v -0.17505993 -0.08929309 0.03406534
v -0.40806094 0.03303591 -0.05167725
v -0.42118403 0.02120451 -0.05057260
v -0.43094125 0.01541694 -0.04770985
v -0.43298346 0.00627644 -0.04900119
v -0.44720328 0.00029667 -0.04145535
v -0.43324819 -0.00499970 -0.04915678
v -0.43029833 -0.01473818 -0.04884561
v -0.44213557 -0.01802705 -0.04128421
v -0.38794139 -0.04198884 -0.06127680
v -0.38729846 -0.05565689 -0.04974800
v -0.38400823 -0.06150852 -0.04441145
v -0.38824394 -0.06321702 -0.03641441
v -0.39943826 -0.05965052 -0.02824623
v -0.38007510 -0.06996562 -0.02508787
v -0.41225880 -0.04937813 0.00850281
v -0.37640667 -0.07039275 -0.00901599
v -0.37432665 -0.06695438 0.00436427
v -0.41868800 -0.04122002 0.01707552
v -0.36646038 -0.05313684 0.02812201
v -0.41513303 -0.03160967 0.02762414
v -0.21503431 -0.02498921 -0.07482821
v -0.11428528 -0.05537926 -0.06614660
v -0.32497326 -0.02498921 -0.07537276
v -0.33495739 -0.03498397 -0.07265003
v -0.21503431 -0.03498397 -0.07232330
v -0.25504649 -0.03498397 -0.07251000
v -0.26503062 -0.03498397 -0.07254112
v -0.32497326 -0.03498397 -0.07268114
v -0.34494153 -0.03498397 -0.07235442
v -0.36494762 -0.03581687 -0.07023847
v -0.37606633 -0.03052050 -0.07017624
v -0.37496957 -0.01499446 -0.07310122
v -0.37496957 -0.00499970 -0.07335016
v -0.37496957 0.00497370 -0.07260335
v -0.38404608 0.00909547 -0.06974060
v -0.37481830 0.01966685 -0.06980284
v -0.38495371 0.02496322 -0.06563317
v -0.39898446 0.02410897 -0.06063891
v -0.36301887 -0.03795250 0.04134669
v -0.35496348 -0.04455160 0.03954191
v -0.28628471 -0.07086259 0.03888845
v -0.37625542 -0.02791503 0.04207794
v -0.26503062 -0.07457859 0.03916851
v -0.22804393 -0.07974682 0.03966638
v -0.19506602 -0.09352164 0.02499476
v -0.18504407 -0.08914360 0.03386308
v -0.24506235 -0.08216008 0.03308516
v -0.26503062 -0.08446656 0.02499476
v -0.11428528 -0.09495252 0.02499476
v -0.16503797 -0.09104431 0.03152931
v -0.17505993 -0.09482438 0.02499476
v -0.39898446 0.01496846 -0.06325273
v -0.40893078 0.00384182 -0.06049889
v -0.39493784 -0.00499970 -0.06715790
v -0.40632129 -0.00858756 -0.06179024
v -0.39493784 -0.01499446 -0.06661335
v -0.39626151 -0.03022151 -0.06213252
v -0.38495371 -0.03498397 -0.06599101
v -0.36494762 -0.04871608 -0.06390618
v -0.37723869 -0.05174868 -0.05874078
v -0.37750342 -0.06041935 -0.05051036
v -0.36612001 -0.07026461 -0.04053740
v -0.37447792 -0.07011512 -0.03451628
v -0.36494762 -0.07528335 -0.01499044
v -0.36494762 -0.07519792 -0.02499451
v -0.37496957 -0.06199972 0.01298365
v -0.36638474 -0.07214396 -0.00162573
v -0.35749733 -0.06947443 0.01113219
v -0.36691418 -0.06114546 0.01917591
v -0.36555272 -0.04529907 0.03526334
v -0.35496348 -0.06022714 0.02541484
v -0.35496348 -0.05303006 0.03272731
v -0.11428528 -0.06522452 -0.06272374
v -0.20505017 -0.03823013 -0.07137424
v -0.33495739 -0.04378277 -0.06944499
v -0.32497326 -0.04391091 -0.06952278
v -0.34494153 -0.04341972 -0.06925829
v -0.35507694 -0.03995999 -0.06983395
v -0.38340315 -0.02441259 -0.06970948
v -0.38571009 -0.01499446 -0.07020735
v -0.38620174 -0.00499970 -0.07034738
v -0.39493784 0.00497370 -0.06667559
v -0.28503671 -0.08068649 0.02623944
v -0.27614930 -0.07906342 0.03100032
v -0.29502085 -0.07269923 0.03325630
v -0.25504649 -0.07782475 0.03709923
v -0.24150738 -0.09019006 0.02037391
v -0.19434747 -0.09967227 0.00949856
v -0.17505993 -0.09969362 0.01430611
v -0.18504407 -0.09441861 0.02499476
v -0.27505258 -0.08807578 0.01575305
v -0.26503062 -0.08871647 0.01712219
v -0.11428528 -0.10001396 0.01533297
v -0.16503797 -0.09486709 0.02499476
v -0.16503797 -0.09980040 0.01457061
v -0.35496348 -0.05384160 -0.06256816
v -0.36494762 -0.05992815 -0.05520901
v -0.34418514 -0.07077716 -0.04898563
v -0.35496348 -0.07037139 -0.04574948
v -0.33495739 -0.08043022 -0.03604101
v -0.35496348 -0.07577454 -0.03499860
v -0.35496348 -0.07810238 -0.01499044
v -0.32497326 -0.08495776 -0.00497080
v -0.35496348 -0.07643659 -0.00497080
v -0.35496348 -0.07808103 -0.02499451
v -0.33571377 -0.08021665 0.00033463
v -0.31642622 -0.08256585 0.00806718
v -0.30443770 -0.08209601 0.01520850
v -0.29502085 -0.07934105 0.02418573
v -0.11428528 -0.07338263 -0.05895860
v -0.31495130 -0.05499484 -0.06445073
v -0.32497326 -0.05499484 -0.06415512
v -0.33495739 -0.05777116 -0.06210141
v -0.29502085 -0.08470149 0.01499069
v -0.17505993 -0.10234180 0.00498661
v -0.18504407 -0.10054787 0.00924962
v -0.28280541 -0.08969886 0.00876731
v -0.28503671 -0.09273146 -0.00497080
v -0.20281886 -0.10031296 0.00182824
v -0.16503797 -0.10268351 0.00498661
v -0.11428528 -0.10368725 0.00531333
v -0.34395826 -0.05896712 -0.06065447
v -0.35496348 -0.06131631 -0.05653148
v -0.33495739 -0.07101208 -0.05108603
v -0.33495739 -0.07541148 -0.04498712
v -0.34513062 -0.07993902 -0.02910194
v -0.32637256 -0.08087870 -0.03857704
v -0.31495130 -0.08442385 -0.03499860
v -0.32497326 -0.08600422 -0.02499451
v -0.32497326 -0.08653813 -0.01499044
v -0.30678245 -0.08980564 -0.00557758
v -0.29986164 -0.08865240 0.00302624
v -0.33495739 -0.08352689 -0.02499451
v -0.11428528 -0.08606829 -0.05071262
v -0.30504280 -0.06150852 -0.06101231
v -0.32497326 -0.06095325 -0.06067003
v -0.17505993 -0.10351640 -0.00497080
v -0.16503797 -0.10400759 -0.00497080
v -0.11428528 -0.10590831 -0.00497080
v -0.18504407 -0.10266215 -0.00497080
v -0.29502085 -0.09202670 -0.01499044
v -0.32497326 -0.06883374 -0.05424439
v -0.31495130 -0.07216533 -0.05212844
v -0.31495130 -0.07908477 -0.04397582
v -0.30504280 -0.08538488 -0.03499860
v -0.29502085 -0.08931445 -0.02788839
v -0.29502085 -0.09087346 -0.02287857
v -0.30693373 -0.08986972 -0.02029587
v -0.11428528 -0.10449879 -0.02499451
v -0.11447437 -0.10012075 -0.03509194
v -0.11466347 -0.09360707 -0.04366465
v -0.12506361 -0.08820392 -0.04845665
v -0.30504280 -0.06650590 -0.05737164
v -0.31495130 -0.06377229 -0.05898971
v -0.17505993 -0.10283300 -0.01499044
v -0.16503797 -0.10347369 -0.01499044
v -0.11428528 -0.10622865 -0.01499044
v -0.28503671 -0.09294502 -0.01499044
v -0.16136956 -0.10014210 -0.02798174
v -0.17505993 -0.10007803 -0.02536792
v -0.18844774 -0.10033431 -0.02101155
f 1 2 3
f 1 3 4
f 1 4 5
f 1 5 6
f 1 6 7
f 1 7 8
f 1 8 21
f 1 21 36
f 1 36 61
f 1 61 99
f 1 99 131
f 1 131 133
f 1 133 166
f 1 166 204
f 1 204 210
f 1 210 256
f 1 256 303
f 1 303 349
f 1 349 399
f 1 399 443
f 1 443 471
f 1 471 489
f 1 489 507
f 1 507 499
f 1 499 484
f 1 484 460
f 1 460 423
f 1 423 372
f 1 372 319
f 1 319 270
f 1 270 269
f 1 269 266
f 1 266 219
f 1 219 174
f 1 174 138
f 1 138 105
f 1 105 64
f 1 64 38
f 1 38 22
f 1 22 10
f 1 10 2
f 2 9 3
f 2 10 11
f 2 11 9
f 3 9 12
f 3 12 4
f 4 12 13
f 4 13 5
f 5 13 14
f 5 14 15
f 5 15 16
f 5 16 6
f 6 16 17
f 6 17 18
f 6 18 7
f 7 18 8
f 8 18 19
f 8 19 20
f 8 20 21
f 9 11 12
f 10 22 23
f 10 23 24
f 10 24 25
f 10 25 11
f 11 26 12
f 11 25 26
f 12 26 14
f 12 14 13
f 14 26 27
f 14 27 28
f 14 28 15
f 15 28 29
f 15 29 30
f 15 30 31
f 15 31 17
f 15 17 16
f 17 31 32
f 17 32 19
f 17 19 18
f 19 32 33
f 19 33 20
f 20 34 21
f 20 33 35
f 20 35 34
f 21 34 37
f 21 37 36
f 22 38 39
f 22 39 40
f 22 40 41
f 22 41 42
f 22 42 23
f 23 42 43
f 23 43 44
f 23 44 45
f 23 45 24
f 24 45 46
f 24 46 25
f 25 46 47
f 25 47 27
f 25 27 26
f 27 29 28
f 27 47 48
f 27 48 29
f 29 48 49
f 29 49 85
f 29 85 50
f 29 50 30
f 30 50 51
f 30 51 31
f 31 51 52
f 31 52 53
f 31 53 32
f 32 53 54
f 32 54 33
f 33 54 55
f 33 55 56
f 33 56 35
f 34 35 56
f 34 56 57
f 34 57 58
f 34 58 37
f 36 59 60
f 36 60 61
f 36 37 59
f 37 58 62
f 37 62 63
f 37 63 59
f 38 64 65
f 38 65 39
f 39 65 40
f 40 66 41
f 40 65 67
f 40 67 68
f 40 68 66
f 41 66 69
f 41 69 42
f 42 69 70
f 42 70 43
f 43 70 71
f 43 71 72
f 43 72 44
f 44 72 73
f 44 73 45
f 45 74 75
f 45 75 76
f 45 76 47
f 45 47 46
f 45 73 74
f 47 76 77
f 47 77 78
f 47 78 79
f 47 79 80
f 47 80 48
f 48 80 81
f 48 81 82
f 48 82 83
f 48 83 49
f 49 83 84
f 49 84 85
f 50 85 51
f 51 85 84
f 51 84 86
f 51 86 52
f 52 86 87
f 52 87 88
f 52 88 89
f 52 89 90
f 52 90 91
f 52 91 53
f 53 91 90
f 53 90 54
f 54 90 55
f 55 90 92
f 55 92 57
f 55 57 56
f 57 92 93
f 57 93 58
f 58 93 94
f 58 94 95
f 58 95 62
f 59 63 96
f 59 96 60
f 60 96 61
f 61 96 97
f 61 97 98
f 61 98 99
f 62 100 101
f 62 101 102
f 62 102 97
f 62 97 103
f 62 103 63
f 62 95 104
f 62 104 100
f 63 103 96
f 64 105 106
f 64 106 65
f 65 106 67
f 66 107 69
f 66 68 108
f 66 108 107
f 67 106 109
f 67 109 110
f 67 110 111
f 67 111 112
f 67 112 68
f 68 112 108
f 69 107 70
f 70 107 71
f 71 73 72
f 71 107 113
f 71 113 74
f 71 74 73
f 74 113 75
f 75 114 76
f 75 113 114
f 76 114 115
f 76 115 116
f 76 116 117
f 76 117 77
f 77 117 78
f 78 118 79
f 78 117 119
f 78 119 120
f 78 120 118
f 79 118 81
f 79 81 80
f 81 118 121
f 81 121 122
f 81 122 82
f 82 122 123
f 82 123 84
f 82 84 83
f 84 123 86
f 86 123 124
f 86 124 125
f 86 125 87
f 87 125 126
f 87 126 88
f 88 126 127
f 88 127 92
f 88 92 89
f 89 92 90
f 92 127 94
f 92 94 93
f 94 127 95
f 95 128 129
f 95 129 130
f 95 130 104
f 95 127 128
f 96 103 97
f 97 102 98
f 98 102 99
f 99 102 131
f 100 132 101
f 100 104 132
f 101 132 102
f 102 132 133
f 102 133 131
f 104 130 134
f 104 134 135
f 104 135 136
f 104 136 137
f 104 137 132
f 105 138 139
f 105 139 140
f 105 140 141
f 105 141 106
f 106 141 142
f 106 142 143
f 106 143 144
f 106 144 110
f 106 110 109
f 107 108 113
f 108 112 145
f 108 145 113
f 110 144 146
f 110 146 147
f 110 147 111
f 111 148 149
f 111 149 112
f 111 147 150
f 111 150 148
f 112 149 145
f 113 145 114
f 114 145 151
f 114 151 115
f 115 152 119
f 115 119 116
f 115 151 153
f 115 153 152
f 116 119 117
f 118 120 154
f 118 154 155
f 118 155 121
f 119 156 157
f 119 157 120
f 119 152 156
f 120 157 158
f 120 158 154
f 121 155 159
f 121 159 122
f 122 159 160
f 122 160 123
f 123 160 124
f 124 160 125
f 125 160 159
f 125 159 161
f 125 161 126
f 126 161 162
f 126 162 163
f 126 163 127
f 127 163 128
f 128 164 129
f 128 163 164
f 129 165 130
f 129 164 165
f 130 165 134
f 132 137 133
f 133 137 136
f 133 136 167
f 133 167 168
f 133 168 166
f 134 165 169
f 134 169 170
f 134 170 135
f 135 170 171
f 135 171 172
f 135 172 173
f 135 173 136
f 136 173 167
f 138 174 175
f 138 175 176
f 138 176 139
f 139 176 140
f 140 176 177
f 140 177 178
f 140 178 142
f 140 142 141
f 142 178 179
f 142 179 143
f 143 179 180
f 143 180 181
f 143 181 146
f 143 146 144
f 145 149 182
f 145 182 151
f 146 181 183
f 146 183 184
f 146 184 147
f 147 184 185
f 147 185 186
f 147 186 150
f 148 182 149
f 148 150 187
f 148 187 188
f 148 188 182
f 150 186 187
f 151 182 189
f 151 189 190
f 151 190 191
f 151 191 153
f 152 153 156
f 153 191 192
f 153 192 193
f 153 193 156
f 154 158 194
f 154 194 155
f 155 194 195
f 155 195 159
f 156 193 157
f 157 193 196
f 157 196 197
f 157 197 158
f 158 197 198
f 158 198 199
f 158 199 194
f 159 195 200
f 159 200 161
f 161 200 162
f 162 200 201
f 162 201 164
f 162 164 163
f 164 201 202
f 164 202 165
f 165 202 203
f 165 203 169
f 166 168 204
f 167 205 206
f 167 206 168
f 167 173 207
f 167 207 205
f 168 206 208
f 168 208 209
f 168 209 210
f 168 210 204
f 169 211 212
f 169 212 213
f 169 213 170
f 169 203 211
f 170 213 214
f 170 214 215
f 170 215 171
f 171 215 172
f 172 215 216
f 172 216 173
f 173 216 217
f 173 217 218
f 173 218 207
f 174 219 175
f 175 220 221
f 175 221 176
f 175 219 220
f 176 221 177
f 177 221 222
f 177 222 223
f 177 223 224
f 177 224 178
f 178 224 223
f 178 223 179
f 179 223 181
f 179 181 180
f 181 223 225
f 181 225 226
f 181 226 184
f 181 184 183
f 182 188 190
f 182 190 189
f 184 226 227
f 184 227 185
f 185 227 228
f 185 228 186
f 186 188 187
f 186 228 229
f 186 229 188
f 188 229 230
f 188 230 190
f 190 230 231
f 190 231 192
f 190 192 191
f 192 231 232
f 192 232 233
f 192 233 193
f 193 233 234
f 193 234 196
f 194 199 235
f 194 235 195
f 195 235 236
f 195 236 200
f 196 234 237
f 196 237 238
f 196 238 239
f 196 239 197
f 197 239 240
f 197 240 198
f 198 240 241
f 198 241 242
f 198 242 199
f 199 242 241
f 199 241 243
f 199 243 235
f 200 236 201
f 201 236 244
f 201 244 202
f 202 244 203
f 203 244 211
f 205 245 246
f 205 246 206
f 205 207 245
f 206 246 247
f 206 247 208
f 207 218 248
f 207 248 249
f 207 249 250
f 207 250 251
f 207 251 245
f 208 252 253
f 208 253 209
f 208 247 254
f 208 254 252
f 209 255 256
f 209 256 210
f 209 253 257
f 209 257 255
f 211 258 259
f 211 259 212
f 211 244 260
f 211 260 258
f 212 259 261
f 212 261 262
f 212 262 215
f 212 215 214
f 212 214 213
f 215 263 264
f 215 264 265
f 215 265 216
f 215 262 261
f 215 261 263
f 216 265 217
f 217 265 248
f 217 248 218
f 219 266 220
f 220 267 268
f 220 268 221
f 220 266 269
f 220 269 270
f 220 270 267
f 221 268 271
f 221 271 222
f 222 271 223
f 223 271 272
f 223 272 225
f 225 272 273
f 225 273 274
f 225 274 226
f 226 274 275
f 226 275 227
f 227 275 276
f 227 276 228
f 228 276 277
f 228 277 229
f 229 277 278
f 229 278 230
f 230 278 231
f 231 278 279
f 231 279 232
f 232 279 233
f 233 237 234
f 233 279 280
f 233 280 281
f 233 281 237
f 235 243 282
f 235 282 260
f 235 260 236
f 236 260 244
f 237 281 238
f 238 281 239
f 239 281 283
f 239 283 284
f 239 284 285
f 239 285 240
f 240 285 241
f 241 285 243
f 243 258 286
f 243 286 287
f 243 287 282
f 243 285 288
f 243 288 289
f 243 289 258
f 245 290 246
f 245 251 291
f 245 291 292
f 245 292 290
f 246 254 247
f 246 290 293
f 246 293 254
f 248 265 294
f 248 294 295
f 248 295 296
f 248 296 249
f 249 296 250
f 250 297 291
f 250 291 251
f 250 296 297
f 252 254 298
f 252 298 253
f 253 298 299
f 253 299 300
f 253 300 301
f 253 301 257
f 254 293 298
f 255 257 304
f 255 304 302
f 255 302 303
f 255 303 256
f 257 301 304
f 258 260 286
f 258 289 259
f 259 289 261
f 260 282 287
f 260 287 286
f 261 289 305
f 261 305 263
f 263 305 306
f 263 306 307
f 263 307 308
f 263 308 309
f 263 309 310
f 263 310 311
f 263 311 264
f 264 312 313
f 264 313 314
f 264 314 315
f 264 315 316
f 264 316 294
f 264 294 265
f 264 311 312
f 267 317 318
f 267 318 268
f 267 270 319
f 267 319 317
f 268 318 271
f 271 320 321
f 271 321 272
f 271 318 320
f 272 321 322
f 272 322 273
f 273 322 323
f 273 323 324
f 273 324 274
f 274 324 325
f 274 325 275
f 275 325 326
f 275 326 276
f 276 326 327
f 276 327 277
f 277 327 328
f 277 328 329
f 277 329 278
f 278 329 330
f 278 330 279
f 279 330 331
f 279 331 280
f 280 331 332
f 280 332 333
f 280 333 283
f 280 283 281
f 283 333 284
f 284 334 285
f 284 333 335
f 284 335 334
f 285 334 288
f 288 334 336
f 288 336 305
f 288 305 289
f 290 337 338
f 290 338 293
f 290 292 337
f 291 297 339
f 291 339 292
f 292 339 340
f 292 340 337
f 293 338 341
f 293 341 298
f 294 316 342
f 294 342 295
f 295 343 297
f 295 297 344
f 295 344 296
f 295 342 343
f 296 344 297
f 297 343 339
f 298 341 299
f 299 345 300
f 299 341 346
f 299 346 345
f 300 345 347
f 300 347 348
f 300 348 301
f 301 348 304
f 302 304 349
f 302 349 303
f 304 348 350
f 304 350 349
f 305 336 306
f 306 336 307
f 307 336 334
f 307 334 308
f 308 334 335
f 308 335 309
f 309 335 333
f 309 333 351
f 309 351 352
f 309 352 310
f 310 352 353
f 310 353 354
f 310 354 311
f 311 354 355
f 311 355 356
f 311 356 357
f 311 357 358
f 311 358 359
f 311 359 360
f 311 360 361
f 311 361 362
f 311 362 312
f 312 363 364
f 312 364 313
f 312 362 363
f 313 365 314
f 313 364 366
f 313 366 367
f 313 367 365
f 314 365 368
f 314 368 315
f 315 368 369
f 315 369 370
f 315 370 342
f 315 342 316
f 317 371 318
f 317 319 372
f 317 372 371
f 318 371 373
f 318 373 320
f 320 374 379
f 320 379 321
f 320 373 375
f 320 375 376
f 320 376 377
f 320 377 378
f 320 378 374
f 321 379 322
f 322 379 380
f 322 380 323
f 323 380 381
f 323 381 382
f 323 382 324
f 324 382 325
f 325 382 383
f 325 383 326
f 326 383 384
f 326 384 327
f 327 384 385
f 327 385 386
f 327 386 328
f 328 386 329
f 329 386 387
f 329 387 330
f 330 387 331
f 331 387 332
f 332 387 388
f 332 388 351
f 332 351 333
f 337 340 338
f 338 340 389
f 338 389 390
f 338 390 391
f 338 391 346
f 338 346 341
f 339 343 392
f 339 392 340
f 340 392 389
f 342 370 389
f 342 389 392
f 342 392 343
f 345 346 393
f 345 393 394
f 345 394 347
f 346 391 393
f 347 395 396
f 347 396 348
f 347 394 397
f 347 397 398
f 347 398 395
f 348 396 350
f 349 350 400
f 349 400 399
f 350 396 401
f 350 401 400
f 351 388 352
f 352 388 353
f 353 388 402
f 353 402 354
f 354 356 355
f 354 402 403
f 354 403 356
f 356 403 404
f 356 404 405
f 356 405 406
f 356 406 357
f 357 406 407
f 357 407 358
f 358 407 359
f 359 408 409
f 359 409 410
f 359 410 360
f 359 407 408
f 360 410 411
f 360 411 361
f 361 411 412
f 361 412 413
f 361 413 362
f 362 413 364
f 362 364 363
f 364 414 366
f 364 413 415
f 364 415 414
f 365 367 416
f 365 416 368
f 366 414 417
f 366 417 367
f 367 417 418
f 367 418 416
f 368 416 419
f 368 419 369
f 369 420 370
f 369 419 421
f 369 421 422
f 369 422 420
f 370 420 390
f 370 390 389
f 371 372 375
f 371 375 373
f 372 423 378
f 372 378 377
f 372 377 376
f 372 376 424
f 372 424 375
f 374 425 379
f 374 378 423
f 374 423 426
f 374 426 425
f 375 424 376
f 379 425 427
f 379 427 428
f 379 428 380
f 380 409 408
f 380 408 381
f 380 428 409
f 381 408 429
f 381 429 382
f 382 429 430
f 382 430 431
f 382 431 383
f 383 431 384
f 384 431 385
f 385 387 386
f 385 431 432
f 385 432 402
f 385 402 387
f 387 402 388
f 390 420 422
f 390 422 391
f 391 433 434
f 391 434 393
f 391 422 421
f 391 421 435
f 391 435 433
f 393 434 436
f 393 436 394
f 394 436 397
f 395 398 437
f 395 437 438
f 395 438 439
f 395 439 440
f 395 440 396
f 396 440 401
f 397 436 434
f 397 434 398
f 398 434 433
f 398 433 441
f 398 441 442
f 398 442 437
f 399 400 444
f 399 444 443
f 400 401 444
f 401 439 445
f 401 445 443
f 401 443 444
f 401 440 439
f 402 432 403
f 403 432 404
f 404 406 405
f 404 432 431
f 404 431 430
f 404 430 406
f 406 430 429
f 406 429 407
f 407 429 408
f 409 428 446
f 409 446 410
f 410 446 447
f 410 447 411
f 411 447 448
f 411 448 449
f 411 449 412
f 412 449 450
f 412 450 451
f 412 451 413
f 413 451 415
f 414 452 453
f 414 453 454
f 414 454 417
f 414 415 455
f 414 455 452
f 415 451 455
f 416 418 419
f 417 454 453
f 417 453 456
f 417 456 418
f 418 456 457
f 418 457 458
f 418 458 459
f 418 459 419
f 419 459 421
f 421 459 435
f 423 460 425
f 423 425 426
f 425 460 461
f 425 461 462
f 425 462 427
f 427 446 428
f 427 462 463
f 427 463 446
f 433 435 459
f 433 459 464
f 433 464 441
f 437 442 438
f 438 465 466
f 438 466 439
f 438 442 441
f 438 441 467
f 438 467 468
f 438 468 469
f 438 469 465
f 439 465 470
f 439 470 471
f 439 471 445
f 439 466 465
f 441 464 467
f 443 445 471
f 446 463 472
f 446 472 473
f 446 473 447
f 447 473 448
f 448 474 475
f 448 475 449
f 448 473 474
f 449 475 450
f 450 476 451
f 450 475 477
f 450 477 478
f 450 478 479
f 450 479 476
f 451 476 455
f 452 455 480
f 452 480 453
f 453 480 481
f 453 481 482
f 453 482 457
f 453 457 456
f 455 476 483
f 455 483 480
f 457 482 464
f 457 464 458
f 458 464 459
f 460 484 485
f 460 485 461
f 461 485 462
f 462 485 486
f 462 486 463
f 463 486 472
f 464 482 467
f 465 487 488
f 465 488 489
f 465 489 470
f 465 469 490
f 465 490 487
f 467 482 481
f 467 481 468
f 468 490 469
f 468 481 491
f 468 491 490
f 470 489 471
f 472 486 492
f 472 492 474
f 472 474 473
f 474 492 493
f 474 493 494
f 474 494 475
f 475 494 477
f 476 479 483
f 477 494 478
f 478 494 495
f 478 495 496
f 478 496 497
f 478 497 479
f 479 497 498
f 479 498 480
f 479 480 483
f 480 498 491
f 480 491 481
f 484 499 500
f 484 500 501
f 484 501 502
f 484 502 503
f 484 503 486
f 484 486 485
f 486 503 504
f 486 504 492
f 487 505 506
f 487 506 507
f 487 507 488
f 487 490 505
f 488 507 489
f 490 491 508
f 490 508 505
f 491 498 497
f 491 497 508
f 492 504 503
f 492 503 493
f 493 503 502
f 493 502 501
f 493 501 494
f 494 501 500
f 494 500 495
f 495 500 509
f 495 509 496
f 496 509 510
f 496 510 511
f 496 511 497
f 497 511 505
f 497 505 508
f 499 507 506
f 499 506 505
f 499 505 511
f 499 511 510
f 499 510 509
f 499 509 500

