# Blender 4.0.0
# www.blender.org
o knob_temp
v 0.21450000 -0.13858950 0.06449050
v 0.21123500 -0.13858950 0.06874550
v 0.20698100 -0.13858950 0.07200950
v 0.20202700 -0.13858950 0.07406150
v 0.19671000 -0.13858950 0.07476150
v 0.19139400 -0.13858950 0.07406150
v 0.18643900 -0.13858950 0.07200950
v 0.18218500 -0.13858950 0.06874550
v 0.17892100 -0.13858950 0.06449050
v 0.17686800 -0.13858950 0.05953650
v 0.17616900 -0.13858950 0.05421950
v 0.17686800 -0.13858950 0.04890350
v 0.17892100 -0.13858950 0.04394950
v 0.18218500 -0.13858950 0.03969450
v 0.18643900 -0.13858950 0.03643050
v 0.19139400 -0.13858950 0.03437850
v 0.19671000 -0.13858950 0.03367850
v 0.20202700 -0.13858950 0.03437850
v 0.20698100 -0.13858950 0.03643050
v 0.21123500 -0.13858950 0.03969450
v 0.21450000 -0.13858950 0.04394950
v 0.21655200 -0.13858950 0.04890350
v 0.21725200 -0.13858950 0.05421950
v 0.21655200 -0.13858950 0.05953650
v 0.20686200 -0.14938850 0.07180250
v 0.20698100 -0.14858650 0.07200950
v 0.21123500 -0.14858650 0.06874550
v 0.21106700 -0.14938850 0.06857650
v 0.20196500 -0.14938850 0.07383150
v 0.20202700 -0.14858650 0.07406150
v 0.19671000 -0.14938850 0.07452250
v 0.19671000 -0.14858650 0.07476150
v 0.19145500 -0.14938850 0.07383150
v 0.19139400 -0.14858650 0.07406150
v 0.18655900 -0.14938850 0.07180250
v 0.18643900 -0.14858650 0.07200950
v 0.18235400 -0.14938850 0.06857650
v 0.18218500 -0.14858650 0.06874550
v 0.17912700 -0.14938850 0.06437150
v 0.17892100 -0.14858650 0.06449050
v 0.17709900 -0.14938850 0.05947450
v 0.17686800 -0.14858650 0.05953650
v 0.17640700 -0.14938850 0.05421950
v 0.17616900 -0.14858650 0.05421950
v 0.17709900 -0.14938850 0.04896550
v 0.17686800 -0.14858650 0.04890350
v 0.17912700 -0.14938850 0.04406850
v 0.17892100 -0.14858650 0.04394950
v 0.18235400 -0.14938850 0.03986350
v 0.18218500 -0.14858650 0.03969450
v 0.18655900 -0.14938850 0.03663750
v 0.18643900 -0.14858650 0.03643050
v 0.19145500 -0.14938850 0.03460850
v 0.19139400 -0.14858650 0.03437850
v 0.19671000 -0.14938850 0.03391650
v 0.19671000 -0.14858650 0.03367850
v 0.20196500 -0.14938850 0.03460850
v 0.20202700 -0.14858650 0.03437850
v 0.20686200 -0.14938850 0.03663750
v 0.20698100 -0.14858650 0.03643050
v 0.21106700 -0.14938850 0.03986350
v 0.21123500 -0.14858650 0.03969450
v 0.21429300 -0.14938850 0.04406850
v 0.21450000 -0.14858650 0.04394950
v 0.21632100 -0.14938850 0.04896550
v 0.21655200 -0.14858650 0.04890350
v 0.21701300 -0.14938850 0.05421950
v 0.21725200 -0.14858650 0.05421950
v 0.21632100 -0.14938850 0.05947450
v 0.21655200 -0.14858650 0.05953650
v 0.21429300 -0.14938850 0.06437150
v 0.21450000 -0.14858650 0.06449050
v 0.17872000 -0.16747950 0.05368050
v 0.18464100 -0.16747950 0.05368050
v 0.17872000 -0.16576350 0.05368050
v 0.18464100 -0.16576350 0.05368050
v 0.17872000 -0.16747950 0.05475950
v 0.18464100 -0.16747950 0.05475950
v 0.17872000 -0.16576350 0.05475950
v 0.18464100 -0.16576350 0.05475950
v 0.17818000 -0.16547150 0.05421950
v 0.17900800 -0.16660650 0.05421950
v 0.17843000 -0.16627450 0.05421950
v 0.17947400 -0.16660650 0.05649450
v 0.17881100 -0.16547250 0.05743750
v 0.17906300 -0.16627450 0.05705250
v 0.17881100 -0.16547250 0.05100250
v 0.17947400 -0.16660650 0.05194550
v 0.17906300 -0.16627450 0.05138750
v 0.21524000 -0.16547150 0.05421950
v 0.21441200 -0.16660650 0.05421950
v 0.21499100 -0.16627450 0.05421950
v 0.21394700 -0.16660650 0.05194550
v 0.21460900 -0.16547250 0.05100250
v 0.21435700 -0.16627450 0.05138750
v 0.21460900 -0.16547250 0.05743750
v 0.21394700 -0.16660650 0.05649450
v 0.21435700 -0.16627450 0.05705250
v 0.20925000 -0.15185750 0.06675950
v 0.21021100 -0.15107350 0.06772050
v 0.20958400 -0.15175250 0.06709350
v 0.20993600 -0.15146550 0.06744550
v 0.20557700 -0.15185750 0.06957750
v 0.20625700 -0.15107350 0.07075550
v 0.20581400 -0.15175250 0.06998750
v 0.20606200 -0.15146550 0.07041850
v 0.20130000 -0.15185750 0.07134950
v 0.20165200 -0.15107350 0.07266250
v 0.20142200 -0.15175250 0.07180650
v 0.20155100 -0.15146550 0.07228650
v 0.19671000 -0.15185750 0.07195350
v 0.19671000 -0.15107350 0.07331350
v 0.19671000 -0.15175250 0.07242650
v 0.19671000 -0.15146550 0.07292450
v 0.19176800 -0.15107350 0.07266250
v 0.19212000 -0.15185750 0.07134950
v 0.19186900 -0.15146550 0.07228650
v 0.19199800 -0.15175250 0.07180650
v 0.18716400 -0.15107350 0.07075550
v 0.18784300 -0.15185750 0.06957750
v 0.18735800 -0.15146550 0.07041850
v 0.18760700 -0.15175250 0.06998750
v 0.18320900 -0.15107350 0.06772050
v 0.18417100 -0.15185750 0.06675950
v 0.18348400 -0.15146550 0.06744550
v 0.18383600 -0.15175250 0.06709350
v 0.18017500 -0.15107350 0.06376650
v 0.18135200 -0.15185750 0.06308650
v 0.18051200 -0.15146550 0.06357250
v 0.18094300 -0.15175250 0.06332350
v 0.17999300 -0.15185750 0.05980550
v 0.17826700 -0.15107350 0.05916150
v 0.17881100 -0.15296150 0.05888750
v 0.17940900 -0.15174250 0.05961650
v 0.17961900 -0.15201950 0.05940050
v 0.17918600 -0.15189450 0.05930650
v 0.17853200 -0.15161750 0.05906250
v 0.17877800 -0.15145550 0.05938050
v 0.17883500 -0.15176250 0.05919550
v 0.17918900 -0.15242150 0.05906650
v 0.17873100 -0.15230750 0.05896250
v 0.17896500 -0.15208050 0.05909750
v 0.17761700 -0.15107350 0.05421950
v 0.17818000 -0.15296150 0.05421950
v 0.17789700 -0.15161350 0.05421950
v 0.17810300 -0.15230450 0.05421950
v 0.17826700 -0.15107350 0.04927850
v 0.17999300 -0.15185750 0.04863450
v 0.17881100 -0.15296150 0.04955150
v 0.17877800 -0.15145550 0.04905850
v 0.17853200 -0.15161750 0.04937750
v 0.17883500 -0.15176250 0.04924450
v 0.17961900 -0.15201950 0.04903850
v 0.17940900 -0.15174250 0.04882350
v 0.17918600 -0.15189450 0.04913350
v 0.17873100 -0.15230750 0.04947750
v 0.17918900 -0.15242150 0.04937350
v 0.17896500 -0.15208050 0.04934250
v 0.18017500 -0.15107350 0.04467350
v 0.18135200 -0.15185750 0.04535350
v 0.18051200 -0.15146550 0.04486750
v 0.18094300 -0.15175250 0.04511650
v 0.18417100 -0.15185750 0.04168050
v 0.18320900 -0.15107350 0.04071850
v 0.18383600 -0.15175250 0.04134550
v 0.18348400 -0.15146550 0.04099350
v 0.18716400 -0.15107350 0.03768450
v 0.18784300 -0.15185750 0.03886250
v 0.18735800 -0.15146550 0.03802150
v 0.18760700 -0.15175250 0.03845250
v 0.19176800 -0.15107350 0.03577750
v 0.19212000 -0.15185750 0.03709050
v 0.19186900 -0.15146550 0.03615250
v 0.19199800 -0.15175250 0.03663350
v 0.19671000 -0.15185750 0.03648650
v 0.19671000 -0.15107350 0.03512650
v 0.19671000 -0.15175250 0.03601350
v 0.19671000 -0.15146550 0.03551550
v 0.20165200 -0.15107350 0.03577750
v 0.20130000 -0.15185750 0.03709050
v 0.20155100 -0.15146550 0.03615250
v 0.20142200 -0.15175250 0.03663350
v 0.20557700 -0.15185750 0.03886250
v 0.20625700 -0.15107350 0.03768450
v 0.20581400 -0.15175250 0.03845250
v 0.20606200 -0.15146550 0.03802150
v 0.20925000 -0.15185750 0.04168050
v 0.21021100 -0.15107350 0.04071850
v 0.20958400 -0.15175250 0.04134550
v 0.20993600 -0.15146550 0.04099350
v 0.21324600 -0.15107350 0.04467350
v 0.21206800 -0.15185750 0.04535350
v 0.21290900 -0.15146550 0.04486750
v 0.21247800 -0.15175250 0.04511650
v 0.21342700 -0.15185750 0.04863450
v 0.21515300 -0.15107350 0.04927850
v 0.21460900 -0.15296150 0.04955150
v 0.21401100 -0.15174250 0.04882350
v 0.21380100 -0.15201950 0.04903850
v 0.21423500 -0.15189450 0.04913350
v 0.21488900 -0.15161750 0.04937750
v 0.21464200 -0.15145550 0.04905850
v 0.21458600 -0.15176250 0.04924450
v 0.21423200 -0.15242150 0.04937350
v 0.21469000 -0.15230750 0.04947750
v 0.21445500 -0.15208050 0.04934250
v 0.21580400 -0.15107350 0.05421950
v 0.21524000 -0.15296150 0.05421950
v 0.21552400 -0.15161350 0.05421950
v 0.21531800 -0.15230450 0.05421950
v 0.21515300 -0.15107350 0.05916150
v 0.21342700 -0.15185750 0.05980550
v 0.21460900 -0.15296150 0.05888750
v 0.21464200 -0.15145550 0.05938050
v 0.21488900 -0.15161750 0.05906250
v 0.21458600 -0.15176250 0.05919550
v 0.21380100 -0.15201950 0.05940050
v 0.21401100 -0.15174250 0.05961650
v 0.21423500 -0.15189450 0.05930650
v 0.21469000 -0.15230750 0.05896250
v 0.21423200 -0.15242150 0.05906650
v 0.21445500 -0.15208050 0.05909750
v 0.21206800 -0.15185750 0.06308650
v 0.21324600 -0.15107350 0.06376650
v 0.21247800 -0.15175250 0.06332350
v 0.21290900 -0.15146550 0.06357250
vn -0.0000 1.0000 -0.0000
vn 0.0260 0.0159 0.9995
vn -0.2588 -0.0000 0.9659
vn -0.2598 0.0190 0.9655
vn 0.2588 -0.0000 0.9659
vn 0.4999 0.0187 0.8659
vn 0.5000 -0.0000 0.8660
vn -0.5000 -0.0000 -0.8660
vn -0.7070 0.0184 -0.7070
vn -0.7071 -0.0000 -0.7071
vn -0.0000 -0.0000 1.0000
vn 0.4772 0.0163 -0.8786
vn 0.7071 -0.0000 -0.7071
vn 0.7078 0.0187 -0.7062
vn 0.6884 0.0163 0.7252
vn 0.8660 -0.0000 0.5000
vn 0.7071 -0.0000 0.7071
vn 0.2588 -0.0000 -0.9659
vn 0.5000 -0.0000 -0.8660
vn -0.8525 0.0169 -0.5224
vn -0.9659 -0.0000 -0.2588
vn -0.8660 -0.0000 -0.5000
vn -0.5223 0.0163 0.8526
vn -0.5000 -0.0000 0.8660
vn 0.9659 -0.0000 -0.2588
vn 0.8659 0.0187 -0.4999
vn 0.8660 -0.0000 -0.5000
vn 0.9995 0.0165 -0.0261
vn 0.9659 -0.0000 0.2588
vn 0.9655 0.0190 0.2598
vn -0.8660 -0.0000 0.5000
vn -0.7070 0.0190 0.7070
vn -0.7071 -0.0000 0.7071
vn 0.8526 0.0165 0.5224
vn -0.9587 0.0165 -0.2839
vn -1.0000 -0.0000 -0.0000
vn 0.0260 0.0159 -0.9995
vn -0.2588 -0.0000 -0.9659
vn -0.0000 -0.0000 -1.0000
vn -0.5223 0.0165 -0.8526
vn -0.2577 0.0190 -0.9660
vn -0.9995 0.0161 -0.0260
vn -0.9659 -0.0000 0.2588
vn 0.2598 0.0190 -0.9655
vn -0.0000 -0.5218 0.8531
vn 0.9587 0.0169 -0.2839
vn 1.0000 -0.0000 -0.0000
vn -0.6069 -0.5213 0.5999
vn -0.3959 -0.6107 0.6857
vn -0.4279 -0.5216 0.7381
vn 1.0000 0.0028 -0.0064
vn 0.1190 -0.1115 -0.9866
vn 0.1075 -0.1503 -0.9828
vn 0.3987 -0.6108 0.6840
vn 0.2208 -0.5216 0.8241
vn 0.2043 -0.6107 0.7650
vn -0.2055 -0.6107 0.7647
vn -0.0000 -0.6108 0.7918
vn -0.1066 -0.1588 0.9815
vn 0.1171 -0.1108 0.9869
vn 0.1141 -0.0943 0.9890
vn -0.4223 -0.5215 -0.7414
vn -0.5599 -0.6107 -0.5599
vn -0.6023 -0.5215 -0.6044
vn 0.6872 -0.6111 0.3929
vn 0.6033 -0.5216 0.6033
vn 0.5595 -0.6107 0.5604
vn -0.1153 -0.1102 -0.9872
vn -0.1141 -0.0943 -0.9890
vn 0.6839 -0.6111 -0.3986
vn 0.8242 -0.5215 -0.2208
vn 0.7803 -0.5895 -0.2089
vn -1.0000 0.0028 0.0064
vn -0.1165 -0.1106 0.9870
vn 0.5998 -0.5215 -0.6069
vn 0.5599 -0.6107 -0.5599
vn 0.4223 -0.5215 -0.7414
vn 0.3959 -0.6107 -0.6858
vn 0.8254 -0.5216 0.2160
vn 0.7808 -0.5889 0.2085
vn -0.0050 -0.5217 -0.8531
vn 0.2055 -0.6107 -0.7647
vn -0.0000 -0.6108 -0.7918
vn 0.8532 -0.5215 0.0050
vn -0.7414 -0.5215 0.4223
vn -0.5599 -0.6107 0.5599
vn -0.8254 -0.5216 0.2160
vn -0.6855 -0.6110 0.3960
vn 0.0091 -0.9994 -0.0339
vn 0.0176 -0.9994 -0.0303
vn 0.0363 -0.9962 -0.0795
vn -0.2081 -0.6108 -0.7639
vn -0.2223 -0.5215 0.8238
vn 0.2160 -0.5215 -0.8254
vn 0.2598 0.0190 0.9655
vn 0.4266 -0.5216 0.7389
vn -0.2160 -0.5215 -0.8254
vn -0.3959 -0.6107 -0.6858
vn 0.7389 -0.5215 -0.4267
vn -0.8532 -0.5215 0.0055
vn -0.9655 0.0190 0.2598
vn -0.8659 0.0187 0.4998
vn 0.7397 -0.5215 0.4253
vn -0.8241 -0.5217 -0.2208
vn -0.0000 -1.0000 -0.0000
vn -0.6852 -0.6110 -0.3966
vn -0.7808 -0.5889 -0.2086
vn -0.7415 -0.5214 -0.4223
vn -0.8281 -0.5605 -0.0000
vn -0.9999 0.0145 -0.0000
vn -0.0487 -0.9932 -0.1055
vn 0.0517 -0.9934 -0.1021
vn 0.0486 -0.9932 0.1054
vn 0.9999 0.0145 -0.0000
vn 0.8282 -0.5604 0.0034
vn -0.0538 -0.9935 0.0999
vn -0.7894 -0.6138 -0.0000
vn -0.0777 -0.9970 0.0008
vn -0.0865 -0.7340 0.6736
vn -0.0956 -0.6939 -0.7137
vn 0.7894 -0.6138 -0.0000
vn 0.0777 -0.9970 -0.0008
vn 0.0861 -0.7340 -0.6736
vn 0.0951 -0.6938 0.7138
vn -0.7808 -0.5889 0.2085
vn -0.3727 -0.8976 0.2355
vn -0.0358 -0.7858 0.6174
vn -0.0388 -0.9962 0.0782
vn -0.5716 -0.7687 0.2868
vn -0.4102 -0.5094 0.7565
vn -0.8958 -0.4133 0.1633
vn -0.9425 -0.2817 0.1801
vn -0.4706 -0.4210 0.7754
vn -0.0223 -0.5127 0.8583
vn -0.3484 -0.3048 0.8864
vn -0.5395 -0.7856 -0.3031
vn -0.9129 -0.3693 -0.1740
vn -0.4098 -0.5098 -0.7564
vn -0.4704 -0.4240 -0.7739
vn -0.0449 -0.7922 -0.6086
vn -0.3752 -0.8968 -0.2347
vn -0.0314 -0.9961 -0.0828
vn -0.0055 -0.4999 -0.8660
vn -0.9589 -0.2090 -0.1918
vn -0.3610 -0.3124 -0.8787
vn 0.3727 -0.8976 -0.2355
vn 0.0354 -0.7861 -0.6171
vn 0.5716 -0.7687 -0.2868
vn 0.4102 -0.5093 -0.7565
vn 0.8958 -0.4133 -0.1633
vn 0.9425 -0.2817 -0.1801
vn 0.4706 -0.4210 -0.7754
vn 0.0222 -0.5128 -0.8582
vn 0.3484 -0.3048 -0.8864
vn 0.5395 -0.7856 0.3031
vn 0.9129 -0.3693 0.1740
vn 0.4098 -0.5098 0.7564
vn 0.4704 -0.4240 0.7739
vn 0.0446 -0.7924 0.6084
vn 0.3752 -0.8968 0.2347
vn 0.0314 -0.9961 0.0828
vn 0.0055 -0.5000 0.8660
vn 0.9589 -0.2090 0.1918
vn 0.3610 -0.3124 0.8787
vn 0.0248 -0.9994 0.0250
vn 0.1863 -0.9280 0.3227
vn 0.0176 -0.9994 0.0304
vn 0.2636 -0.9279 0.2636
vn 0.3030 -0.7955 0.5247
vn 0.4282 -0.7955 0.4287
vn 0.0964 -0.9280 0.3598
vn 0.0091 -0.9994 0.0338
vn 0.1568 -0.7955 0.5853
vn -0.0000 -0.9279 0.3728
vn -0.0000 -0.9994 0.0349
vn -0.0000 -0.7955 0.6059
vn -0.0090 -0.9994 0.0339
vn -0.0965 -0.9278 0.3603
vn -0.1568 -0.7955 0.5853
vn -0.1863 -0.9280 0.3227
vn -0.0175 -0.9994 0.0304
vn -0.3030 -0.7955 0.5247
vn -0.2634 -0.9280 0.2634
vn -0.0248 -0.9994 0.0249
vn -0.4284 -0.7955 0.4284
vn -0.3248 -0.9266 0.1895
vn -0.0302 -0.9994 0.0175
vn -0.5241 -0.7953 0.3046
vn -0.9759 -0.2182 -0.0000
vn -0.9296 -0.3685 -0.0000
vn -0.3248 -0.9266 -0.1894
vn -0.0303 -0.9994 -0.0175
vn -0.5241 -0.7953 -0.3046
vn -0.2635 -0.9280 -0.2635
vn -0.0248 -0.9994 -0.0248
vn -0.4285 -0.7955 -0.4285
vn -0.0176 -0.9994 -0.0303
vn -0.1865 -0.9278 -0.3230
vn -0.3030 -0.7955 -0.5248
vn -0.0092 -0.9994 -0.0339
vn -0.0964 -0.9280 -0.3598
vn -0.1568 -0.7955 -0.5853
vn -0.0000 -0.9280 -0.3727
vn -0.0000 -0.9994 -0.0349
vn -0.0000 -0.7955 -0.6060
vn 0.0964 -0.9280 -0.3598
vn 0.1568 -0.7955 -0.5853
vn 0.1863 -0.9280 -0.3227
vn 0.3030 -0.7955 -0.5248
vn 0.2634 -0.9280 -0.2634
vn 0.0248 -0.9994 -0.0248
vn 0.4284 -0.7955 -0.4285
vn 0.0302 -0.9994 -0.0176
vn 0.3248 -0.9266 -0.1895
vn 0.5241 -0.7953 -0.3046
vn 0.9759 -0.2182 -0.0000
vn 0.9296 -0.3685 -0.0000
vn 0.3248 -0.9266 0.1894
vn 0.0302 -0.9994 0.0174
vn 0.5241 -0.7953 0.3046
vt 0.316211 0.686558
vt 0.028404 0.693069
vt 0.031413 0.694038
vt 0.028390 0.693980
vt 0.031432 0.692163
vt 0.028407 0.691248
vt 0.031430 0.691226
vt 0.030915 0.702457
vt 0.027994 0.701254
vt 0.031004 0.701524
vt 0.031426 0.693101
vt 0.028099 0.683968
vt 0.031178 0.684670
vt 0.028166 0.684878
vt 0.028396 0.690337
vt 0.031400 0.689351
vt 0.031419 0.690289
vt 0.031028 0.682803
vt 0.031107 0.683736
vt 0.028072 0.700346
vt 0.031156 0.699655
vt 0.031084 0.700590
vt 0.028369 0.694890
vt 0.031390 0.694975
vt 0.031292 0.686541
vt 0.028224 0.685787
vt 0.031240 0.685606
vt 0.028317 0.687606
vt 0.031372 0.688415
vt 0.028351 0.688516
vt 0.031321 0.696848
vt 0.028339 0.695801
vt 0.031360 0.695912
vt 0.028378 0.689426
vt 0.028141 0.699438
vt 0.031219 0.698720
vt 0.027687 0.703987
vt 0.030818 0.703388
vt 0.030716 0.704318
vt 0.027908 0.702162
vt 0.027808 0.703072
vt 0.028203 0.698529
vt 0.031275 0.697785
vt 0.027919 0.682136
vt 0.028020 0.683056
vt 0.028296 0.693068
vt 0.028274 0.686696
vt 0.031336 0.687478
vt 0.028232 0.695797
vt 0.027967 0.694878
vt 0.028261 0.694887
vt 0.027778 0.687628
vt 0.027736 0.686723
vt 0.028005 0.691250
vt 0.028302 0.692158
vt 0.028007 0.692157
vt 0.027988 0.693972
vt 0.028002 0.693064
vt 0.027718 0.697590
vt 0.027812 0.688533
vt 0.027801 0.702150
vt 0.027595 0.701216
vt 0.027887 0.701244
vt 0.027976 0.689436
vt 0.028289 0.690339
vt 0.027994 0.690343
vt 0.027603 0.699398
vt 0.027823 0.685810
vt 0.028167 0.686702
vt 0.027873 0.686716
vt 0.027665 0.698494
vt 0.028059 0.684885
vt 0.027765 0.684906
vt 0.027993 0.683978
vt 0.027700 0.684004
vt 0.028244 0.688520
vt 0.027949 0.688529
vt 0.027809 0.682159
vt 0.027623 0.683109
vt 0.027513 0.682235
vt 0.028209 0.687611
vt 0.028194 0.696706
vt 0.027937 0.695785
vt 0.028149 0.697614
vt 0.027900 0.696692
vt 0.027493 0.683821
vt 0.027567 0.684540
vt 0.027723 0.686876
vt 0.027415 0.703011
vt 0.027577 0.703963
vt 0.027287 0.703879
vt 0.028283 0.693978
vt 0.027915 0.683069
vt 0.028409 0.692158
vt 0.028299 0.691248
vt 0.027703 0.703056
vt 0.027510 0.702117
vt 0.028117 0.685793
vt 0.028095 0.698523
vt 0.028256 0.697620
vt 0.028302 0.696711
vt 0.028270 0.689429
vt 0.028034 0.699430
vt 0.027671 0.700313
vt 0.027740 0.699409
vt 0.027965 0.700338
vt 0.027801 0.698503
vt 0.027622 0.698918
vt 0.027744 0.687203
vt 0.027800 0.688511
vt 0.027778 0.687628
vt 0.027915 0.687622
vt 0.027706 0.697612
vt 0.027664 0.698494
vt 0.027665 0.698313
vt 0.027716 0.697586
vt 0.027606 0.699326
vt 0.027778 0.687628
vt 0.027775 0.687809
vt 0.027737 0.686796
vt 0.027811 0.688537
vt 0.027855 0.697598
vt 0.027725 0.697386
vt 0.027723 0.697355
vt 0.027728 0.697226
vt 0.027766 0.697533
vt 0.027721 0.697470
vt 0.027773 0.697597
vt 0.027718 0.697610
vt 0.027728 0.697559
vt 0.027719 0.697495
vt 0.027718 0.697551
vt 0.027654 0.699467
vt 0.027659 0.699396
vt 0.027600 0.699354
vt 0.027615 0.699433
vt 0.027600 0.699223
vt 0.027595 0.699375
vt 0.027594 0.699214
vt 0.027601 0.699433
vt 0.027604 0.699396
vt 0.027602 0.699425
vt 0.027727 0.686731
vt 0.027728 0.686881
vt 0.027778 0.686661
vt 0.027731 0.686758
vt 0.027792 0.686724
vt 0.027736 0.686694
vt 0.027743 0.686691
vt 0.027734 0.686856
vt 0.027735 0.686777
vt 0.027870 0.688596
vt 0.027867 0.688525
vt 0.027813 0.688653
vt 0.027827 0.688566
vt 0.027813 0.688769
vt 0.027815 0.688737
vt 0.027815 0.688897
vt 0.027813 0.688568
vt 0.027812 0.688530
vt 0.027813 0.688560
vt 0.027852 0.690419
vt 0.027865 0.691270
vt 0.027862 0.691299
vt 0.027855 0.690374
vt 0.027923 0.691250
vt 0.027912 0.690344
vt 0.027868 0.692166
vt 0.027864 0.692181
vt 0.027925 0.692157
vt 0.027862 0.693063
vt 0.027859 0.693063
vt 0.027920 0.693063
vt 0.027846 0.693944
vt 0.027849 0.693959
vt 0.027907 0.693970
vt 0.027828 0.694855
vt 0.027825 0.694826
vt 0.027885 0.694876
vt 0.027799 0.695750
vt 0.027797 0.695706
vt 0.027856 0.695782
vt 0.027762 0.696645
vt 0.027761 0.696583
vt 0.027818 0.696688
vt 0.027777 0.697528
vt 0.027665 0.698494
vt 0.027718 0.697593
vt 0.027720 0.698498
vt 0.027659 0.699399
vt 0.027537 0.700136
vt 0.027542 0.699892
vt 0.027590 0.700306
vt 0.027462 0.701002
vt 0.027469 0.700702
vt 0.027513 0.701209
vt 0.027390 0.701439
vt 0.027381 0.701844
vt 0.027429 0.702108
vt 0.027318 0.700732
vt 0.027296 0.702009
vt 0.027336 0.702997
vt 0.027382 0.683267
vt 0.027392 0.684569
vt 0.027375 0.682271
vt 0.027281 0.702990
vt 0.027152 0.703840
vt 0.027489 0.683398
vt 0.027431 0.682258
vt 0.027542 0.683120
vt 0.027565 0.684225
vt 0.027618 0.684011
vt 0.027629 0.685087
vt 0.027629 0.685341
vt 0.027684 0.684911
vt 0.027685 0.686176
vt 0.027685 0.685962
vt 0.027741 0.685815
vt 0.027788 0.686655
vt 0.027778 0.687628
vt 0.027736 0.686725
vt 0.027834 0.687626
vt 0.027868 0.688528
vt 0.027837 0.689479
vt 0.027834 0.689541
vt 0.027894 0.689438
vt 0.027605 0.699265
vt 0.030945 0.681874
vt 0.027811 0.688629
s 0
f 79/1/1 76/1/1 75/1/1
s 1
f 32/2/2 6/3/3 34/4/4
f 4/5/5 26/6/6 3/7/7
f 15/8/8 50/9/9 14/10/10
f 32/2/2 4/5/5 5/11/11
f 60/12/12 20/13/13 62/14/14
f 27/15/15 1/16/16 2/17/17
f 60/12/12 18/18/18 19/19/19
f 48/20/20 12/21/21 13/22/22
f 36/23/23 6/3/3 7/24/24
f 22/25/25 64/26/26 21/27/27
f 68/28/28 24/29/29 70/30/30
f 9/31/31 38/32/32 8/33/33
f 72/34/34 24/29/29 1/16/16
f 46/35/35 11/36/36 12/21/21
f 56/37/37 16/38/38 17/39/39
f 52/40/40 16/38/38 54/41/41
f 62/14/14 21/27/27 64/26/26
f 44/42/42 10/43/43 11/36/36
f 56/44/37 18/18/18 58/45/44
f 34/4/4 31/46/45 32/2/2
f 66/47/46 23/48/47 68/28/28
f 36/23/23 8/33/33 38/32/32
f 50/9/9 13/22/22 14/10/10
f 37/49/48 119/50/49 35/51/50
f 208/52/51 94/53/52 197/53/53
f 104/54/54 29/55/55 108/56/56
f 31/46/45 115/57/57 112/58/58
f 133/59/59 96/60/60 213/60/61
f 51/61/62 164/62/63 49/63/64
f 224/64/65 28/65/66 100/66/67
f 197/53/53 87/67/68 149/67/69
f 191/68/70 65/69/71 196/70/72
f 144/71/73 85/59/74 133/59/59
f 61/72/75 191/68/70 188/73/76
f 59/74/77 188/73/76 184/75/78
f 69/76/79 224/64/65 211/77/80
f 55/78/81 179/79/82 176/80/83
f 108/56/56 31/46/45 112/58/58
f 67/81/84 196/70/72 65/69/71
f 39/82/85 123/83/86 37/49/48
f 41/84/87 127/85/88 39/82/85
f 180/86/89 183/87/90 195/88/91
f 171/89/92 55/90/81 176/91/83
f 35/51/50 115/57/57 33/92/93
f 57/93/94 184/75/78 179/79/82
f 66/47/46 67/81/84 65/69/71
f 49/63/64 48/20/20 50/9/9
f 55/90/81 54/41/41 56/37/37
f 31/46/45 30/94/95 32/2/2
f 26/6/6 29/55/55 25/95/96
f 69/76/79 68/28/28 70/30/30
f 53/96/97 167/97/98 51/61/62
f 27/15/15 25/95/96 28/65/66
f 66/47/46 63/98/99 64/26/26
f 43/99/100 42/100/101 44/42/42
f 46/35/35 43/99/100 44/42/42
f 39/82/85 38/32/32 40/101/102
f 62/14/14 59/74/77 60/12/12
f 60/12/12 57/93/94 58/45/44
f 58/45/44 55/78/81 56/44/37
f 51/61/62 50/9/9 52/40/40
f 36/23/23 33/92/93 34/4/4
f 64/26/26 61/72/75 62/14/14
f 40/101/102 41/84/87 39/82/85
f 52/40/40 53/96/97 51/61/62
f 28/65/66 72/34/34 27/15/15
f 70/30/30 71/102/103 69/76/79
f 48/20/20 45/103/104 46/35/35
f 38/32/32 35/51/50 36/23/23
f 27/15/15 3/7/7 26/6/6
s 0
f 77/1/36 75/1/36 73/1/36
f 74/1/39 75/1/39 76/1/39
f 80/1/11 77/1/11 78/1/11
f 78/1/105 73/1/105 74/1/105
f 80/1/47 74/1/47 76/1/47
s 1
f 40/101/102 10/43/43 42/100/101
f 45/103/104 159/104/106 147/105/107
f 100/66/67 25/95/96 104/54/54
f 47/106/108 164/62/63 159/104/106
f 45/103/104 143/107/109 43/99/100
f 144/71/73 87/67/68 81/71/110
f 88/108/111 93/109/112 97/110/113
f 208/52/51 96/60/60 90/111/114
f 207/112/115 69/76/79 211/77/80
f 84/113/116 83/114/117 82/115/118
f 86/116/119 81/71/110 83/114/117
f 88/108/111 83/114/117 89/117/120
f 89/117/120 81/71/110 87/67/68
f 93/109/112 92/118/121 91/119/122
f 95/120/123 90/111/114 92/118/121
f 97/110/113 92/118/121 98/121/124
f 98/121/124 90/111/114 96/60/60
f 84/113/116 98/121/124 86/116/119
f 98/121/124 85/59/74 86/116/119
f 87/67/68 95/120/123 89/117/120
f 95/120/123 88/108/111 89/117/120
f 41/84/87 143/107/109 132/122/125
f 134/123/126 135/124/127 131/125/128
f 138/126/129 136/127/130 134/123/126
f 137/128/131 138/126/129 132/122/125
f 141/129/132 139/130/133 137/128/131
f 140/131/134 141/129/132 133/59/59
f 140/131/134 136/127/130 142/132/135
f 136/127/130 139/130/133 142/132/135
f 150/133/136 151/134/137 147/105/107
f 150/133/136 155/135/138 152/136/139
f 153/137/140 154/138/141 148/139/142
f 157/140/143 155/135/138 153/137/140
f 156/141/144 157/140/143 149/67/69
f 156/141/144 152/136/139 158/142/145
f 152/136/139 155/135/138 158/142/145
f 198/143/146 199/144/147 195/88/91
f 202/145/148 200/146/149 198/143/146
f 201/147/150 202/145/148 196/70/72
f 205/148/151 203/149/152 201/147/150
f 204/150/153 205/148/151 197/53/53
f 204/150/153 200/146/149 206/151/154
f 200/146/149 203/149/152 206/151/154
f 214/152/155 215/153/156 211/77/80
f 214/152/155 219/154/157 216/155/158
f 217/156/159 218/157/160 212/158/161
f 221/159/162 219/154/157 217/156/159
f 220/160/163 221/159/162 213/60/61
f 220/160/163 216/155/158 222/161/164
f 216/155/158 219/154/157 222/161/164
f 99/162/165 105/163/166 103/164/167
f 101/165/168 106/166/169 105/163/166
f 102/167/170 104/54/54 106/166/169
f 103/164/167 109/168/171 107/169/172
f 105/163/166 110/170/173 109/168/171
f 106/166/169 108/56/56 110/170/173
f 107/169/172 113/171/174 111/172/175
f 109/168/171 114/173/176 113/171/174
f 110/170/173 112/58/58 114/173/176
f 116/174/177 113/171/174 118/175/178
f 118/175/178 114/173/176 117/176/179
f 117/176/179 112/58/58 115/57/57
f 116/174/177 122/177/180 120/178/181
f 118/175/178 121/179/182 122/177/180
f 117/176/179 119/50/49 121/179/182
f 120/178/181 126/180/183 124/181/184
f 122/177/180 125/182/185 126/180/183
f 121/179/182 123/83/86 125/182/185
f 124/181/184 130/183/186 128/184/187
f 126/180/183 129/185/188 130/183/186
f 129/185/188 123/83/86 127/85/88
f 131/125/128 130/183/186 134/123/126
f 134/123/126 129/185/188 138/186/129
f 138/186/129 127/85/88 132/122/125
f 133/59/59 146/187/189 144/71/73
f 141/188/132 145/189/190 146/187/189
f 137/128/131 143/107/109 145/189/190
f 149/67/69 146/187/189 156/141/144
f 156/141/144 145/189/190 151/190/137
f 151/190/137 143/107/109 147/105/107
f 148/139/142 162/191/191 160/192/192
f 154/138/141 161/193/193 162/191/191
f 150/133/136 159/104/106 161/193/193
f 160/192/192 165/194/194 163/195/195
f 162/191/191 166/196/196 165/194/194
f 161/193/193 164/62/63 166/196/196
f 168/197/197 165/194/194 170/198/198
f 170/198/198 166/196/196 169/199/199
f 166/196/196 167/97/98 169/199/199
f 172/200/200 170/198/198 174/201/201
f 174/201/201 169/199/199 173/202/202
f 173/202/202 167/97/98 171/89/92
f 172/200/200 177/203/203 175/204/204
f 174/201/201 178/205/205 177/203/203
f 173/206/202 176/91/83 178/207/205
f 180/86/89 177/203/203 182/208/206
f 182/208/206 178/209/205 181/210/207
f 181/210/207 176/80/83 179/79/82
f 180/86/89 185/211/208 183/87/90
f 182/208/206 186/212/209 185/211/208
f 181/210/207 184/75/78 186/212/209
f 183/87/90 189/213/210 187/214/211
f 189/213/210 186/212/209 190/215/212
f 190/215/212 184/75/78 188/73/76
f 192/216/213 189/213/210 194/217/214
f 194/217/214 190/215/212 193/218/215
f 193/218/215 188/73/76 191/68/70
f 195/88/91 194/217/214 198/143/146
f 198/143/146 193/218/215 202/219/148
f 202/219/148 191/68/70 196/70/72
f 197/53/53 210/220/216 208/52/51
f 205/221/151 209/222/217 210/220/216
f 201/147/150 207/112/115 209/222/217
f 213/60/61 210/220/216 220/160/163
f 220/160/163 209/222/217 215/223/156
f 215/223/156 207/112/115 211/77/80
f 212/158/161 225/224/218 223/225/219
f 218/157/160 226/226/220 225/224/218
f 214/152/155 224/64/65 226/226/220
f 99/162/165 225/224/218 101/165/168
f 225/224/218 102/167/170 101/165/168
f 226/226/220 100/66/67 102/167/170
f 213/60/61 140/131/134 133/59/59
f 140/131/134 217/156/159 135/124/127
f 217/156/159 131/125/128 135/124/127
f 195/88/91 153/137/140 148/139/142
f 199/144/147 157/227/143 153/137/140
f 204/150/153 149/67/69 157/227/143
f 131/125/128 212/158/161 111/172/175
s 0
f 79/1/1 80/1/1 76/1/1
s 1
f 32/2/2 5/11/11 6/3/3
f 4/5/5 30/94/95 26/6/6
f 15/8/8 52/40/40 50/9/9
f 32/2/2 30/94/95 4/5/5
f 60/12/12 19/19/19 20/13/13
f 27/15/15 72/34/34 1/16/16
f 60/12/12 58/45/44 18/18/18
f 48/20/20 46/35/35 12/21/21
f 36/23/23 34/4/4 6/3/3
f 22/25/25 66/47/46 64/26/26
f 68/28/28 23/48/47 24/29/29
f 9/31/31 40/101/102 38/32/32
f 72/34/34 70/30/30 24/29/29
f 46/35/35 44/42/42 11/36/36
f 56/37/37 54/41/41 16/38/38
f 52/40/40 15/8/8 16/38/38
f 62/14/14 20/13/13 21/27/27
f 44/42/42 42/100/101 10/43/43
f 56/44/37 17/228/39 18/18/18
f 34/4/4 33/92/93 31/46/45
f 66/47/46 22/25/25 23/48/47
f 36/23/23 7/24/24 8/33/33
f 50/9/9 48/20/20 13/22/22
f 37/49/48 123/83/86 119/50/49
f 208/52/51 90/111/114 94/53/52
f 104/54/54 25/95/96 29/55/55
f 31/46/45 33/92/93 115/57/57
f 133/59/59 85/59/74 96/60/60
f 51/61/62 167/97/98 164/62/63
f 224/64/65 71/102/103 28/65/66
f 197/53/53 94/53/52 87/67/68
f 191/68/70 63/98/99 65/69/71
f 144/71/73 81/71/110 85/59/74
f 61/72/75 63/98/99 191/68/70
f 59/74/77 61/72/75 188/73/76
f 69/76/79 71/102/103 224/64/65
f 55/78/81 57/93/94 179/79/82
f 108/56/56 29/55/55 31/46/45
f 67/81/84 207/112/115 196/70/72
f 39/82/85 127/85/88 123/83/86
f 41/84/87 132/122/125 127/85/88
f 192/216/213 195/88/91 187/214/211
f 195/88/91 148/139/142 175/204/204
f 187/214/211 195/88/91 183/87/90
f 148/139/142 160/192/192 163/195/195
f 163/195/195 168/197/197 148/139/142
f 168/197/197 172/200/200 148/139/142
f 172/200/200 175/204/204 148/139/142
f 175/204/204 180/86/89 195/88/91
f 171/89/92 53/96/97 55/90/81
f 35/51/50 119/50/49 115/57/57
f 57/93/94 59/74/77 184/75/78
f 66/47/46 68/28/28 67/81/84
f 49/63/64 47/106/108 48/20/20
f 55/90/81 53/96/97 54/41/41
f 31/46/45 29/55/55 30/94/95
f 26/6/6 30/94/95 29/55/55
f 69/76/79 67/81/84 68/28/28
f 53/96/97 171/89/92 167/97/98
f 27/15/15 26/6/6 25/95/96
f 66/47/46 65/69/71 63/98/99
f 43/99/100 41/84/87 42/100/101
f 46/35/35 45/103/104 43/99/100
f 39/82/85 37/49/48 38/32/32
f 62/14/14 61/72/75 59/74/77
f 60/12/12 59/74/77 57/93/94
f 58/45/44 57/93/94 55/78/81
f 51/61/62 49/63/64 50/9/9
f 36/23/23 35/51/50 33/92/93
f 64/26/26 63/98/99 61/72/75
f 40/101/102 42/100/101 41/84/87
f 52/40/40 54/41/41 53/96/97
f 28/65/66 71/102/103 72/34/34
f 70/30/30 72/34/34 71/102/103
f 48/20/20 47/106/108 45/103/104
f 38/32/32 37/49/48 35/51/50
f 27/15/15 2/17/17 3/7/7
s 0
f 77/1/36 79/1/36 75/1/36
f 74/1/39 73/1/39 75/1/39
f 80/1/11 79/1/11 77/1/11
f 78/1/105 77/1/105 73/1/105
f 80/1/47 78/1/47 74/1/47
s 1
f 40/101/102 9/31/31 10/43/43
f 45/103/104 47/106/108 159/104/106
f 100/66/67 28/65/66 25/95/96
f 47/106/108 49/63/64 164/62/63
f 45/103/104 147/105/107 143/107/109
f 144/71/73 149/67/69 87/67/68
f 91/119/122 97/110/113 93/109/112
f 97/110/113 84/113/116 88/108/111
f 84/113/116 82/115/118 88/108/111
f 208/52/51 213/60/61 96/60/60
f 207/112/115 67/81/84 69/76/79
f 84/113/116 86/116/119 83/114/117
f 86/116/119 85/59/74 81/71/110
f 88/108/111 82/115/118 83/114/117
f 89/117/120 83/114/117 81/71/110
f 93/109/112 95/120/123 92/118/121
f 95/120/123 94/53/52 90/111/114
f 97/110/113 91/119/122 92/118/121
f 98/121/124 92/118/121 90/111/114
f 84/113/116 97/110/113 98/121/124
f 98/121/124 96/60/60 85/59/74
f 87/67/68 94/53/52 95/120/123
f 95/120/123 93/109/112 88/108/111
f 41/84/87 43/99/100 143/107/109
f 134/123/126 136/127/130 135/124/127
f 138/126/129 139/130/133 136/127/130
f 137/128/131 139/130/133 138/126/129
f 141/129/132 142/132/135 139/130/133
f 140/131/134 142/132/135 141/129/132
f 140/131/134 135/124/127 136/127/130
f 150/133/136 152/136/139 151/134/137
f 150/133/136 154/138/141 155/135/138
f 153/137/140 155/135/138 154/138/141
f 157/140/143 158/142/145 155/135/138
f 156/141/144 158/142/145 157/140/143
f 156/141/144 151/134/137 152/136/139
f 198/143/146 200/146/149 199/144/147
f 202/145/148 203/149/152 200/146/149
f 201/147/150 203/149/152 202/145/148
f 205/148/151 206/151/154 203/149/152
f 204/150/153 206/151/154 205/148/151
f 204/150/153 199/144/147 200/146/149
f 214/152/155 216/155/158 215/153/156
f 214/152/155 218/157/160 219/154/157
f 217/156/159 219/154/157 218/157/160
f 221/159/162 222/161/164 219/154/157
f 220/160/163 222/161/164 221/159/162
f 220/160/163 215/153/156 216/155/158
f 99/162/165 101/165/168 105/163/166
f 101/165/168 102/167/170 106/166/169
f 102/167/170 100/66/67 104/54/54
f 103/164/167 105/163/166 109/168/171
f 105/163/166 106/166/169 110/170/173
f 106/166/169 104/54/54 108/56/56
f 107/169/172 109/168/171 113/171/174
f 109/168/171 110/170/173 114/173/176
f 110/170/173 108/56/56 112/58/58
f 116/174/177 111/172/175 113/171/174
f 118/175/178 113/171/174 114/173/176
f 117/176/179 114/173/176 112/58/58
f 116/174/177 118/175/178 122/177/180
f 118/175/178 117/176/179 121/179/182
f 117/176/179 115/57/57 119/50/49
f 120/178/181 122/177/180 126/180/183
f 122/177/180 121/179/182 125/182/185
f 121/179/182 119/50/49 123/83/86
f 124/181/184 126/180/183 130/183/186
f 126/180/183 125/182/185 129/185/188
f 129/185/188 125/182/185 123/83/86
f 131/125/128 128/184/187 130/183/186
f 134/123/126 130/183/186 129/185/188
f 138/186/129 129/185/188 127/85/88
f 133/59/59 141/188/132 146/187/189
f 141/188/132 137/128/131 145/189/190
f 137/128/131 132/122/125 143/107/109
f 149/67/69 144/71/73 146/187/189
f 156/141/144 146/187/189 145/189/190
f 151/190/137 145/189/190 143/107/109
f 148/139/142 154/138/141 162/191/191
f 154/138/141 150/133/136 161/193/193
f 150/133/136 147/105/107 159/104/106
f 160/192/192 162/191/191 165/194/194
f 162/191/191 161/193/193 166/196/196
f 161/193/193 159/104/106 164/62/63
f 168/197/197 163/195/195 165/194/194
f 170/198/198 165/194/194 166/196/196
f 166/196/196 164/62/63 167/97/98
f 172/200/200 168/197/197 170/198/198
f 174/201/201 170/198/198 169/199/199
f 173/202/202 169/199/199 167/97/98
f 172/200/200 174/201/201 177/203/203
f 174/201/201 173/206/202 178/205/205
f 173/206/202 171/89/92 176/91/83
f 180/86/89 175/204/204 177/203/203
f 182/208/206 177/203/203 178/209/205
f 181/210/207 178/209/205 176/80/83
f 180/86/89 182/208/206 185/211/208
f 182/208/206 181/210/207 186/212/209
f 181/210/207 179/79/82 184/75/78
f 183/87/90 185/211/208 189/213/210
f 189/213/210 185/211/208 186/212/209
f 190/215/212 186/212/209 184/75/78
f 192/216/213 187/214/211 189/213/210
f 194/217/214 189/213/210 190/215/212
f 193/218/215 190/215/212 188/73/76
f 195/88/91 192/216/213 194/217/214
f 198/143/146 194/217/214 193/218/215
f 202/219/148 193/218/215 191/68/70
f 197/53/53 205/221/151 210/220/216
f 205/221/151 201/147/150 209/222/217
f 201/147/150 196/70/72 207/112/115
f 213/60/61 208/52/51 210/220/216
f 220/160/163 210/220/216 209/222/217
f 215/223/156 209/222/217 207/112/115
f 212/158/161 218/157/160 225/224/218
f 218/157/160 214/152/155 226/226/220
f 214/152/155 211/77/80 224/64/65
f 99/162/165 223/225/219 225/224/218
f 225/224/218 226/226/220 102/167/170
f 226/226/220 224/64/65 100/66/67
f 213/60/61 221/229/162 140/131/134
f 140/131/134 221/229/162 217/156/159
f 217/156/159 212/158/161 131/125/128
f 195/88/91 199/144/147 153/137/140
f 199/144/147 204/150/153 157/227/143
f 204/150/153 197/53/53 149/67/69
f 223/225/219 99/162/165 212/158/161
f 99/162/165 103/164/167 212/158/161
f 103/164/167 107/169/172 212/158/161
f 107/169/172 111/172/175 212/158/161
f 111/172/175 116/174/177 131/125/128
f 116/174/177 120/178/181 131/125/128
f 120/178/181 124/181/184 131/125/128
f 124/181/184 128/184/187 131/125/128
