# Blender 4.0.0
# www.blender.org
o knob_time
v 0.21450000 -0.13858950 -0.03636550
v 0.21123500 -0.13858950 -0.03211050
v 0.20698100 -0.13858950 -0.02884650
v 0.20202700 -0.13858950 -0.02679450
v 0.19671000 -0.13858950 -0.02609450
v 0.19139400 -0.13858950 -0.02679450
v 0.18643900 -0.13858950 -0.02884650
v 0.18218500 -0.13858950 -0.03211050
v 0.17892100 -0.13858950 -0.03636550
v 0.17686800 -0.13858950 -0.04131950
v 0.17616900 -0.13858950 -0.04663650
v 0.17686800 -0.13858950 -0.05195250
v 0.17892100 -0.13858950 -0.05690650
v 0.18218500 -0.13858950 -0.06116150
v 0.18643900 -0.13858950 -0.06442550
v 0.19139400 -0.13858950 -0.06647750
v 0.19671000 -0.13858950 -0.06717750
v 0.20202700 -0.13858950 -0.06647750
v 0.20698100 -0.13858950 -0.06442550
v 0.21123500 -0.13858950 -0.06116150
v 0.21450000 -0.13858950 -0.05690650
v 0.21655200 -0.13858950 -0.05195250
v 0.21725200 -0.13858950 -0.04663650
v 0.21655200 -0.13858950 -0.04131950
v 0.20686200 -0.14928350 -0.02905350
v 0.20698100 -0.14848150 -0.02884650
v 0.21123500 -0.14848150 -0.03211050
v 0.21106700 -0.14928350 -0.03227950
v 0.20196500 -0.14928350 -0.02702450
v 0.20202700 -0.14848150 -0.02679450
v 0.19671000 -0.14928350 -0.02633350
v 0.19671000 -0.14848150 -0.02609450
v 0.19145500 -0.14928350 -0.02702450
v 0.19139400 -0.14848150 -0.02679450
v 0.18655900 -0.14928350 -0.02905350
v 0.18643900 -0.14848150 -0.02884650
v 0.18235400 -0.14928350 -0.03227950
v 0.18218500 -0.14848150 -0.03211050
v 0.17912700 -0.14928350 -0.03648450
v 0.17892100 -0.14848150 -0.03636550
v 0.17709900 -0.14928350 -0.04138150
v 0.17686800 -0.14848150 -0.04131950
v 0.17640700 -0.14928350 -0.04663650
v 0.17616900 -0.14848150 -0.04663650
v 0.17709900 -0.14928350 -0.05189050
v 0.17686800 -0.14848150 -0.05195250
v 0.17912700 -0.14928350 -0.05678750
v 0.17892100 -0.14848150 -0.05690650
v 0.18235400 -0.14928350 -0.06099250
v 0.18218500 -0.14848150 -0.06116150
v 0.18655900 -0.14928350 -0.06421850
v 0.18643900 -0.14848150 -0.06442550
v 0.19145500 -0.14928350 -0.06624750
v 0.19139400 -0.14848150 -0.06647750
v 0.19671000 -0.14928350 -0.06693850
v 0.19671000 -0.14848150 -0.06717750
v 0.20196500 -0.14928350 -0.06624750
v 0.20202700 -0.14848150 -0.06647750
v 0.20686200 -0.14928350 -0.06421850
v 0.20698100 -0.14848150 -0.06442550
v 0.21106700 -0.14928350 -0.06099250
v 0.21123500 -0.14848150 -0.06116150
v 0.21429300 -0.14928350 -0.05678750
v 0.21450000 -0.14848150 -0.05690650
v 0.21632100 -0.14928350 -0.05189050
v 0.21655200 -0.14848150 -0.05195250
v 0.21701300 -0.14928350 -0.04663650
v 0.21725200 -0.14848150 -0.04663650
v 0.21632100 -0.14928350 -0.04138150
v 0.21655200 -0.14848150 -0.04131950
v 0.21429300 -0.14928350 -0.03648450
v 0.21450000 -0.14848150 -0.03636550
v 0.17866600 -0.16747950 -0.04717550
v 0.18458700 -0.16747950 -0.04717550
v 0.17866600 -0.16576350 -0.04717550
v 0.18458700 -0.16576350 -0.04717550
v 0.17866600 -0.16747950 -0.04609650
v 0.18458700 -0.16747950 -0.04609650
v 0.17866600 -0.16576350 -0.04609650
v 0.18458700 -0.16576350 -0.04609650
v 0.21394500 -0.16640750 -0.04414250
v 0.21460900 -0.16528350 -0.04322450
v 0.21394500 -0.16640750 -0.04912950
v 0.21460900 -0.16528350 -0.05004750
v 0.21442300 -0.16640750 -0.04663650
v 0.21524000 -0.16528250 -0.04663650
v 0.17947500 -0.16640750 -0.04912950
v 0.17881100 -0.16528350 -0.05004750
v 0.17947500 -0.16640750 -0.04414250
v 0.17881100 -0.16528350 -0.04322450
v 0.17899800 -0.16640750 -0.04663650
v 0.17818000 -0.16528250 -0.04663650
v 0.20933200 -0.15175250 -0.03401350
v 0.21015300 -0.15108250 -0.03319350
v 0.20961800 -0.15166250 -0.03372850
v 0.20991800 -0.15141750 -0.03342850
v 0.20563600 -0.15175250 -0.03117750
v 0.20621600 -0.15108250 -0.03017250
v 0.20583700 -0.15166250 -0.03082750
v 0.20605000 -0.15141750 -0.03045950
v 0.20133000 -0.15175250 -0.02939350
v 0.20163100 -0.15108250 -0.02827350
v 0.20143500 -0.15166250 -0.02900350
v 0.20154500 -0.15141750 -0.02859350
v 0.19671000 -0.15175250 -0.02878550
v 0.19671000 -0.15108250 -0.02762550
v 0.19671000 -0.15166250 -0.02838150
v 0.19671000 -0.15141750 -0.02795750
v 0.19179000 -0.15108250 -0.02827350
v 0.19209000 -0.15175250 -0.02939350
v 0.19187600 -0.15141750 -0.02859350
v 0.19198600 -0.15166250 -0.02900350
v 0.18720500 -0.15108250 -0.03017250
v 0.18778500 -0.15175250 -0.03117750
v 0.18737100 -0.15141750 -0.03045950
v 0.18758300 -0.15166250 -0.03082750
v 0.18326800 -0.15108250 -0.03319350
v 0.18408800 -0.15175250 -0.03401350
v 0.18350200 -0.15141750 -0.03342850
v 0.18380300 -0.15166250 -0.03372850
v 0.18024600 -0.15108250 -0.03713050
v 0.18125100 -0.15175250 -0.03771050
v 0.18053400 -0.15141750 -0.03729650
v 0.18090200 -0.15166250 -0.03750850
v 0.17982000 -0.15175250 -0.04116650
v 0.17834700 -0.15108250 -0.04171550
v 0.17881100 -0.15269450 -0.04193650
v 0.17932200 -0.15165450 -0.04132750
v 0.17950000 -0.15189050 -0.04150950
v 0.17913100 -0.15178450 -0.04159050
v 0.17857300 -0.15154750 -0.04179650
v 0.17878300 -0.15140950 -0.04152850
v 0.17883100 -0.15167150 -0.04168450
v 0.17913300 -0.15223450 -0.04179050
v 0.17874300 -0.15213650 -0.04187650
v 0.17894300 -0.15194250 -0.04176550
v 0.17770000 -0.15108250 -0.04663650
v 0.17818000 -0.15269550 -0.04663650
v 0.17793800 -0.15154350 -0.04663650
v 0.17811400 -0.15213450 -0.04663650
v 0.17834700 -0.15108250 -0.05155650
v 0.17982000 -0.15175250 -0.05210550
v 0.17881100 -0.15269450 -0.05133550
v 0.17878300 -0.15140950 -0.05174350
v 0.17857300 -0.15154750 -0.05147550
v 0.17883100 -0.15167150 -0.05158750
v 0.17950000 -0.15189050 -0.05176250
v 0.17932200 -0.15165450 -0.05194450
v 0.17913100 -0.15178450 -0.05168150
v 0.17874300 -0.15213650 -0.05139550
v 0.17913300 -0.15223450 -0.05148150
v 0.17894300 -0.15194250 -0.05150650
v 0.18024600 -0.15108250 -0.05614150
v 0.18125100 -0.15175250 -0.05556150
v 0.18053400 -0.15141750 -0.05597550
v 0.18090200 -0.15166250 -0.05576350
v 0.18408800 -0.15175250 -0.05925850
v 0.18326800 -0.15108250 -0.06007850
v 0.18380300 -0.15166250 -0.05954350
v 0.18350200 -0.15141750 -0.05984350
v 0.18720500 -0.15108250 -0.06309950
v 0.18778500 -0.15175250 -0.06209550
v 0.18737100 -0.15141750 -0.06281250
v 0.18758300 -0.15166250 -0.06244450
v 0.19179000 -0.15108250 -0.06499850
v 0.19209000 -0.15175250 -0.06387850
v 0.19187600 -0.15141750 -0.06467850
v 0.19198600 -0.15166250 -0.06426850
v 0.19671000 -0.15175250 -0.06448650
v 0.19671000 -0.15108250 -0.06564650
v 0.19671000 -0.15166250 -0.06489050
v 0.19671000 -0.15141750 -0.06531450
v 0.20163100 -0.15108250 -0.06499850
v 0.20133000 -0.15175250 -0.06387850
v 0.20154500 -0.15141750 -0.06467850
v 0.20143500 -0.15166250 -0.06426850
v 0.20563600 -0.15175250 -0.06209550
v 0.20621600 -0.15108250 -0.06309950
v 0.20583700 -0.15166250 -0.06244450
v 0.20605000 -0.15141750 -0.06281250
v 0.20933200 -0.15175250 -0.05925850
v 0.21015300 -0.15108250 -0.06007850
v 0.20961800 -0.15166250 -0.05954350
v 0.20991800 -0.15141750 -0.05984350
v 0.21317400 -0.15108250 -0.05614150
v 0.21216900 -0.15175250 -0.05556150
v 0.21288700 -0.15141750 -0.05597550
v 0.21251900 -0.15166250 -0.05576350
v 0.21360100 -0.15175250 -0.05210550
v 0.21507300 -0.15108250 -0.05155650
v 0.21460900 -0.15269450 -0.05133550
v 0.21409900 -0.15165450 -0.05194450
v 0.21392000 -0.15189050 -0.05176250
v 0.21429000 -0.15178450 -0.05168150
v 0.21484700 -0.15154750 -0.05147550
v 0.21463700 -0.15140950 -0.05174350
v 0.21458900 -0.15167150 -0.05158750
v 0.21428700 -0.15223450 -0.05148150
v 0.21467800 -0.15213650 -0.05139550
v 0.21447800 -0.15194250 -0.05150650
v 0.21572100 -0.15108250 -0.04663650
v 0.21524000 -0.15269550 -0.04663650
v 0.21548200 -0.15154350 -0.04663650
v 0.21530600 -0.15213450 -0.04663650
v 0.21507300 -0.15108250 -0.04171550
v 0.21360100 -0.15175250 -0.04116650
v 0.21460900 -0.15269450 -0.04193650
v 0.21463700 -0.15140950 -0.04152850
v 0.21484700 -0.15154750 -0.04179650
v 0.21458900 -0.15167150 -0.04168450
v 0.21392000 -0.15189050 -0.04150950
v 0.21409900 -0.15165450 -0.04132750
v 0.21429000 -0.15178450 -0.04159050
v 0.21467800 -0.15213650 -0.04187650
v 0.21428700 -0.15223450 -0.04179050
v 0.21447800 -0.15194250 -0.04176550
v 0.21216900 -0.15175250 -0.03771050
v 0.21317400 -0.15108250 -0.03713050
v 0.21251900 -0.15166250 -0.03750850
v 0.21288700 -0.15141750 -0.03729650
vn -0.0000 1.0000 -0.0000
vn -0.5000 -0.0000 -0.8660
vn -0.7070 0.0181 -0.7070
vn -0.7071 -0.0000 -0.7071
vn 0.0260 0.0156 0.9995
vn -0.2588 -0.0000 0.9659
vn -0.2598 0.0187 0.9655
vn -0.8660 -0.0000 0.5000
vn -0.7070 0.0183 0.7070
vn -0.7071 -0.0000 0.7071
vn 0.2588 -0.0000 0.9659
vn 0.4999 0.0183 0.8659
vn 0.5000 -0.0000 0.8660
vn 0.5224 0.0160 -0.8526
vn 0.2588 -0.0000 -0.9659
vn 0.5000 -0.0000 -0.8660
vn 0.0261 0.0156 -0.9995
vn -0.2588 -0.0000 -0.9659
vn -0.0000 -0.0000 -1.0000
vn -0.5224 0.0162 -0.8525
vn -0.2577 0.0187 -0.9660
vn -0.8525 0.0166 -0.5225
vn -0.9659 -0.0000 -0.2588
vn -0.8660 -0.0000 -0.5000
vn -0.5224 0.0160 0.8526
vn -0.5000 -0.0000 0.8660
vn 0.9659 -0.0000 -0.2588
vn 0.8659 0.0183 -0.4999
vn 0.8660 -0.0000 -0.5000
vn 0.9587 0.0162 -0.2840
vn 1.0000 -0.0000 -0.0000
vn 0.9998 0.0187 0.0011
vn -0.0000 -0.0000 1.0000
vn -0.9995 0.0158 -0.0261
vn -0.9659 -0.0000 0.2588
vn -1.0000 -0.0000 -0.0000
vn 0.2598 0.0187 -0.9655
vn 0.9659 -0.0000 0.2588
vn 0.9655 0.0187 0.2598
vn -0.8525 0.0162 0.5224
vn -0.9660 0.0191 0.2577
vn -0.9587 0.0162 -0.2840
vn 0.8525 0.0162 0.5224
vn 0.8660 -0.0000 0.5000
vn -0.0000 -0.5260 0.8505
vn 0.6883 0.0160 0.7253
vn 0.7071 -0.0000 0.7071
vn 0.7070 0.0183 -0.7070
vn 0.7071 -0.0000 -0.7071
vn -0.2065 -0.6063 0.7680
vn -0.0000 -0.6063 0.7952
vn 0.4205 -0.5257 -0.7395
vn 0.5628 -0.6063 -0.5618
vn 0.3976 -0.6062 -0.6887
vn -0.4302 -0.5257 0.7339
vn -0.2217 -0.5257 0.8213
vn -0.0056 -0.5259 -0.8506
vn 0.2065 -0.6063 -0.7680
vn -0.0000 -0.6063 -0.7953
vn -1.0000 0.0059 0.0069
vn -0.1197 -0.1483 0.9817
vn -0.1099 -0.1315 0.9852
vn 0.4009 -0.6064 0.6867
vn 0.2202 -0.5258 0.8216
vn 0.2051 -0.6063 0.7684
vn 0.1087 -0.1432 -0.9837
vn -0.1179 -0.1474 -0.9820
vn -0.1165 -0.0783 -0.9901
vn 0.8231 -0.5258 0.2147
vn 0.6881 -0.6065 0.3983
vn 0.7806 -0.5893 0.2083
vn 0.1196 -0.1483 0.9817
vn 0.1165 -0.0783 0.9901
vn 0.5975 -0.5257 -0.6055
vn 0.6889 -0.6065 -0.3971
vn -0.7395 -0.5257 0.4205
vn -0.5624 -0.6062 0.5624
vn -0.6026 -0.5258 0.6004
vn 0.2147 -0.5257 -0.8231
vn 0.8216 -0.5259 -0.2201
vn 0.7801 -0.5898 -0.2086
vn -0.2095 -0.6064 -0.7670
vn -0.3976 -0.6063 0.6887
vn -0.8232 -0.5256 0.2147
vn -0.6887 -0.6065 0.3973
vn 0.6015 -0.5258 0.6015
vn 0.5618 -0.6063 0.5628
vn -0.0245 -0.9994 -0.0246
vn -0.0175 -0.9994 -0.0300
vn -0.0370 -0.9963 -0.0781
vn 1.0000 0.0059 -0.0070
vn 0.1221 -0.1495 -0.9812
vn 0.8249 -0.5652 -0.0008
vn -0.4205 -0.5257 -0.7395
vn -0.5623 -0.6063 -0.5623
vn -0.6004 -0.5257 -0.6026
vn 0.2598 0.0187 0.9655
vn 0.4253 -0.5258 0.7366
vn -0.8215 -0.5259 -0.2202
vn 0.7367 -0.5257 -0.4254
vn -0.8506 -0.5257 0.0058
vn -0.2147 -0.5257 -0.8231
vn -0.3976 -0.6062 -0.6887
vn 0.7367 -0.5257 0.4254
vn -0.8249 -0.5652 -0.0000
vn -0.7806 -0.5893 0.2083
vn 1.0000 -0.0010 -0.0000
vn -0.7396 -0.5255 -0.4205
vn -0.6887 -0.6065 -0.3973
vn 0.0598 -0.9750 0.2140
vn -0.0695 -0.9774 0.1995
vn -0.0594 -0.9750 -0.2141
vn -0.7806 -0.5893 -0.2083
vn -0.0000 -1.0000 -0.0000
vn 0.0586 -0.9747 -0.2155
vn 0.1073 -0.9942 -0.0030
vn -1.0000 -0.0010 -0.0000
vn -0.1073 -0.9942 0.0030
vn -0.3708 -0.8996 0.2306
vn -0.0347 -0.7834 0.6205
vn -0.0388 -0.9963 0.0765
vn -0.5707 -0.7710 0.2827
vn -0.4093 -0.5040 0.7606
vn -0.8965 -0.4137 0.1584
vn -0.9438 -0.2815 0.1730
vn -0.4671 -0.4151 0.7807
vn -0.0210 -0.5048 0.8630
vn -0.3439 -0.2968 0.8909
vn -0.5369 -0.7886 -0.2997
vn -0.9145 -0.3674 -0.1692
vn -0.4089 -0.5045 -0.7605
vn -0.4669 -0.4182 -0.7792
vn -0.0445 -0.7897 -0.6118
vn -0.3732 -0.8988 -0.2297
vn -0.0043 -0.4921 -0.8705
vn -0.9608 -0.2074 -0.1842
vn -0.3564 -0.3047 -0.8833
vn 0.3708 -0.8996 -0.2306
vn 0.0347 -0.7834 -0.6205
vn 0.0388 -0.9963 -0.0765
vn 0.5707 -0.7710 -0.2827
vn 0.4093 -0.5040 -0.7606
vn 0.8965 -0.4137 -0.1584
vn 0.9438 -0.2815 -0.1730
vn 0.4671 -0.4151 -0.7807
vn 0.0210 -0.5048 -0.8630
vn 0.3439 -0.2968 -0.8909
vn 0.5369 -0.7886 0.2997
vn 0.9145 -0.3674 0.1692
vn 0.4090 -0.5045 0.7604
vn 0.4669 -0.4182 0.7792
vn 0.0445 -0.7897 0.6118
vn 0.3732 -0.8988 0.2297
vn 0.0312 -0.9962 0.0812
vn 0.0043 -0.4921 0.8705
vn 0.9608 -0.2074 0.1842
vn 0.3564 -0.3047 0.8833
vn 0.0245 -0.9994 0.0247
vn 0.1862 -0.9281 0.3225
vn 0.0174 -0.9994 0.0301
vn 0.2632 -0.9282 0.2632
vn 0.3029 -0.7956 0.5246
vn 0.4281 -0.7956 0.4286
vn 0.0964 -0.9281 0.3596
vn 0.0090 -0.9994 0.0335
vn 0.1568 -0.7956 0.5851
vn -0.0000 -0.9281 0.3723
vn -0.0000 -0.9994 0.0346
vn -0.0000 -0.7956 0.6058
vn -0.0089 -0.9994 0.0336
vn -0.0964 -0.9281 0.3596
vn -0.1568 -0.7956 0.5852
vn -0.1864 -0.9279 0.3228
vn -0.0174 -0.9994 0.0301
vn -0.3029 -0.7956 0.5246
vn -0.2634 -0.9280 0.2634
vn -0.0246 -0.9994 0.0246
vn -0.4283 -0.7956 0.4283
vn -0.3245 -0.9268 0.1889
vn -0.0299 -0.9994 0.0173
vn -0.5238 -0.7957 0.3042
vn -0.9762 -0.2170 -0.0000
vn -0.9299 -0.3677 -0.0000
vn -0.3245 -0.9268 -0.1889
vn -0.0300 -0.9994 -0.0173
vn -0.5238 -0.7957 -0.3042
vn -0.2633 -0.9281 -0.2633
vn -0.4283 -0.7957 -0.4283
vn -0.1861 -0.9281 -0.3224
vn -0.3029 -0.7956 -0.5246
vn -0.0963 -0.9282 -0.3594
vn -0.0090 -0.9994 -0.0335
vn -0.1568 -0.7956 -0.5851
vn -0.0000 -0.9281 -0.3722
vn -0.0000 -0.9994 -0.0346
vn -0.0000 -0.7956 -0.6058
vn 0.0089 -0.9994 -0.0336
vn 0.0963 -0.9282 -0.3595
vn 0.1568 -0.7956 -0.5852
vn 0.1862 -0.9281 -0.3225
vn 0.0173 -0.9994 -0.0301
vn 0.3029 -0.7956 -0.5246
vn 0.2634 -0.9280 -0.2634
vn 0.0245 -0.9994 -0.0246
vn 0.4284 -0.7956 -0.4284
vn 0.0299 -0.9994 -0.0174
vn 0.3244 -0.9269 -0.1889
vn 0.5238 -0.7957 -0.3042
vn 0.9762 -0.2170 -0.0000
vn 0.9299 -0.3677 -0.0000
vn 0.3245 -0.9268 0.1890
vn 0.0299 -0.9994 0.0173
vn 0.5239 -0.7956 0.3042
vn 0.8508 -0.5255 -0.0000
vt 0.316211 0.686558
vt 0.030881 0.702415
vt 0.027976 0.701225
vt 0.030968 0.701488
vt 0.028369 0.693088
vt 0.031362 0.694046
vt 0.028357 0.693993
vt 0.031276 0.696840
vt 0.028310 0.695803
vt 0.031313 0.695908
vt 0.031378 0.692182
vt 0.028369 0.691277
vt 0.031374 0.691250
vt 0.028051 0.684041
vt 0.030960 0.682877
vt 0.031041 0.683805
vt 0.027675 0.703942
vt 0.030786 0.703342
vt 0.030686 0.704266
vt 0.027891 0.702128
vt 0.027794 0.703032
vt 0.028051 0.700322
vt 0.031116 0.699630
vt 0.031046 0.700560
vt 0.028337 0.694898
vt 0.031341 0.694977
vt 0.031230 0.686594
vt 0.028178 0.685849
vt 0.031176 0.685663
vt 0.028230 0.686753
vt 0.031275 0.687524
vt 0.028273 0.687657
vt 0.031374 0.693114
vt 0.028178 0.698516
vt 0.031231 0.697770
vt 0.031178 0.698701
vt 0.027869 0.682220
vt 0.027971 0.683135
vt 0.031312 0.688455
vt 0.028309 0.688561
vt 0.028274 0.696708
vt 0.028230 0.697612
vt 0.028119 0.699419
vt 0.028337 0.689466
vt 0.031341 0.689387
vt 0.028262 0.693087
vt 0.028357 0.690372
vt 0.031361 0.690318
vt 0.028119 0.684945
vt 0.031113 0.684734
vt 0.027938 0.693985
vt 0.027949 0.693083
vt 0.027945 0.684051
vt 0.027700 0.684975
vt 0.027634 0.684079
vt 0.028231 0.694895
vt 0.028250 0.693991
vt 0.027760 0.682243
vt 0.027556 0.683190
vt 0.027445 0.682324
vt 0.027643 0.698482
vt 0.027695 0.697583
vt 0.027949 0.691280
vt 0.028266 0.692182
vt 0.027953 0.692182
vt 0.027694 0.686780
vt 0.027584 0.699381
vt 0.028202 0.688565
vt 0.027917 0.689477
vt 0.027890 0.688576
vt 0.027773 0.688579
vt 0.027773 0.688579
vt 0.028013 0.684953
vt 0.027759 0.685874
vt 0.028167 0.696703
vt 0.027890 0.695788
vt 0.028203 0.695799
vt 0.027866 0.683148
vt 0.028123 0.686758
vt 0.027810 0.686774
vt 0.027384 0.702969
vt 0.027566 0.703919
vt 0.027257 0.703830
vt 0.027918 0.694886
vt 0.028123 0.697606
vt 0.027854 0.696689
vt 0.028250 0.690374
vt 0.027937 0.690378
vt 0.027451 0.700751
vt 0.027374 0.701512
vt 0.027576 0.699225
vt 0.027738 0.687680
vt 0.027694 0.686780
vt 0.027854 0.687675
vt 0.027786 0.702116
vt 0.027558 0.701186
vt 0.027870 0.701215
vt 0.028373 0.692182
vt 0.028262 0.691278
vt 0.028012 0.699412
vt 0.028072 0.685855
vt 0.028072 0.698509
vt 0.027690 0.703016
vt 0.027476 0.702082
vt 0.028230 0.689469
vt 0.027759 0.698490
vt 0.027811 0.697589
vt 0.027945 0.700314
vt 0.027633 0.700288
vt 0.027762 0.688574
vt 0.027684 0.697589
vt 0.027600 0.698922
vt 0.027700 0.699389
vt 0.027702 0.687239
vt 0.027735 0.687860
vt 0.027644 0.698301
vt 0.027700 0.697410
vt 0.027699 0.697383
vt 0.027703 0.697274
vt 0.027736 0.697535
vt 0.027698 0.697481
vt 0.027742 0.697588
vt 0.027695 0.697600
vt 0.027703 0.697557
vt 0.027695 0.697502
vt 0.027695 0.697550
vt 0.027627 0.699439
vt 0.027631 0.699380
vt 0.027581 0.699344
vt 0.027594 0.699411
vt 0.027581 0.699232
vt 0.027577 0.699361
vt 0.027582 0.699410
vt 0.027584 0.699379
vt 0.027583 0.699403
vt 0.027687 0.686787
vt 0.027688 0.686914
vt 0.027683 0.686910
vt 0.027730 0.686728
vt 0.027690 0.686809
vt 0.027742 0.686780
vt 0.027694 0.686756
vt 0.027700 0.686753
vt 0.027693 0.686893
vt 0.027694 0.686826
vt 0.027822 0.688633
vt 0.027820 0.688573
vt 0.027774 0.688681
vt 0.027786 0.688608
vt 0.027774 0.688779
vt 0.027776 0.688753
vt 0.027776 0.688889
vt 0.027774 0.688609
vt 0.027773 0.688578
vt 0.027774 0.688602
vt 0.027817 0.690443
vt 0.027831 0.691297
vt 0.027828 0.691322
vt 0.027819 0.690405
vt 0.027880 0.691280
vt 0.027868 0.690379
vt 0.027835 0.692190
vt 0.027832 0.692202
vt 0.027884 0.692182
vt 0.027831 0.693082
vt 0.027828 0.693082
vt 0.027880 0.693083
vt 0.027817 0.693962
vt 0.027819 0.693974
vt 0.027868 0.693984
vt 0.027800 0.694867
vt 0.027797 0.694842
vt 0.027849 0.694884
vt 0.027772 0.695758
vt 0.027771 0.695721
vt 0.027821 0.695785
vt 0.027737 0.696649
vt 0.027736 0.696597
vt 0.027785 0.696685
vt 0.027745 0.697531
vt 0.027695 0.697585
vt 0.027691 0.698485
vt 0.027632 0.699382
vt 0.027519 0.700139
vt 0.027523 0.699932
vt 0.027564 0.700283
vt 0.027446 0.701005
vt 0.027490 0.701180
vt 0.027366 0.701851
vt 0.027407 0.702074
vt 0.027281 0.702115
vt 0.027298 0.701005
vt 0.027316 0.702957
vt 0.027335 0.683205
vt 0.027346 0.684336
vt 0.027328 0.682355
vt 0.027270 0.702951
vt 0.027143 0.703797
vt 0.027447 0.683789
vt 0.027443 0.683434
vt 0.027375 0.682344
vt 0.027488 0.683200
vt 0.027520 0.684267
vt 0.027522 0.684532
vt 0.027565 0.684085
vt 0.027585 0.685129
vt 0.027586 0.685344
vt 0.027631 0.684980
vt 0.027643 0.686184
vt 0.027643 0.686003
vt 0.027690 0.685878
vt 0.027739 0.686723
vt 0.027738 0.687679
vt 0.027694 0.686781
vt 0.027785 0.687678
vt 0.027820 0.688576
vt 0.027800 0.689514
vt 0.027797 0.689566
vt 0.027848 0.689479
vt 0.027585 0.699268
vt 0.027773 0.688660
vt 0.030876 0.681954
vt 0.028167 0.687662
s 0
f 79/1/1 76/1/1 75/1/1
s 1
f 15/2/2 50/3/3 14/4/4
f 32/5/5 6/6/6 34/7/7
f 9/8/8 38/9/9 8/10/10
f 4/11/11 26/12/12 3/13/13
f 60/14/14 18/15/15 19/16/16
f 56/17/17 16/18/18 17/19/19
f 52/20/20 16/18/18 54/21/21
f 48/22/22 12/23/23 13/24/24
f 36/25/25 6/6/6 7/26/26
f 22/27/27 64/28/28 21/29/29
f 66/30/30 23/31/31 68/32/32
f 32/5/5 4/11/11 5/33/33
f 44/34/34 10/35/35 11/36/36
f 56/37/17 18/15/15 58/38/37
f 68/32/32 24/39/38 70/40/39
f 40/41/40 10/35/35 42/42/41
f 36/25/25 8/10/10 38/9/9
f 46/43/42 11/36/36 12/23/23
f 72/44/43 24/39/38 1/45/44
f 34/7/7 31/46/45 32/5/5
f 27/47/46 1/45/44 2/48/47
f 21/29/29 62/49/48 20/50/49
f 50/3/3 13/24/24 14/4/4
f 31/46/45 109/51/50 106/52/51
f 59/53/52 182/54/53 178/55/54
f 35/56/55 109/51/50 33/57/56
f 55/58/57 173/59/58 170/60/59
f 138/61/60 90/62/61 127/62/62
f 98/63/63 29/64/64 102/65/65
f 191/66/66 88/67/67 143/67/68
f 69/68/69 218/69/70 205/70/71
f 102/65/65 31/46/45 106/52/51
f 127/62/62 82/71/72 207/72/73
f 61/73/74 185/74/75 182/54/53
f 39/75/76 117/76/77 37/77/78
f 57/78/79 178/55/54 173/59/58
f 185/74/75 65/79/80 190/80/81
f 165/81/82 55/82/57 170/83/59
f 37/77/78 113/84/83 35/56/55
f 41/85/84 121/86/85 39/75/76
f 218/69/70 28/87/86 94/88/87
f 157/89/88 162/90/89 142/91/90
f 202/92/91 84/93/92 191/66/66
f 65/79/80 201/94/93 190/80/81
f 51/95/94 158/96/95 49/97/96
f 64/28/28 61/73/74 62/49/48
f 60/14/14 57/78/79 58/38/37
f 55/82/57 54/21/21 56/17/17
f 31/46/45 30/98/97 32/5/5
f 26/12/12 29/64/64 25/99/98
f 27/47/46 25/99/98 28/87/86
f 49/97/96 48/22/22 50/3/3
f 48/22/22 45/100/99 46/43/42
f 66/30/30 63/101/100 64/28/28
f 43/102/101 42/42/41 44/34/34
f 46/43/42 43/102/101 44/34/34
f 53/103/102 161/104/103 51/95/94
f 62/49/48 59/53/52 60/14/14
f 40/41/40 37/77/78 38/9/9
f 58/38/37 55/58/57 56/37/17
f 51/95/94 50/3/3 52/20/20
f 52/20/20 53/103/102 51/95/94
f 38/9/9 35/56/55 36/25/25
f 72/44/43 28/87/86 71/105/104
f 36/25/25 33/57/56 34/7/7
f 69/68/69 68/32/32 70/40/39
f 71/105/104 70/40/39 72/44/43
f 42/42/41 39/75/76 40/41/40
f 68/32/32 65/79/80 66/30/30
f 45/100/99 137/106/105 43/102/101
f 41/85/84 137/106/105 126/107/106
f 201/94/93 69/68/69 205/70/71
f 202/92/91 82/71/72 86/92/107
f 47/108/108 158/96/95 153/109/109
f 81/110/110 89/111/111 87/112/112
f 45/100/99 153/109/109 141/113/113
s 0
f 77/1/36 75/1/36 73/1/36
f 74/1/19 75/1/19 76/1/19
f 80/1/33 77/1/33 78/1/33
f 78/1/114 73/1/114 74/1/114
f 80/1/31 74/1/31 76/1/31
s 1
f 60/14/14 20/50/49 62/49/48
f 27/47/46 3/13/13 26/12/12
f 94/88/87 25/99/98 98/63/63
f 83/114/115 88/67/67 84/93/92
f 83/114/115 86/92/107 85/115/116
f 89/111/111 92/61/117 91/116/118
f 90/62/61 81/110/110 82/71/72
f 81/110/110 86/92/107 82/71/72
f 87/112/112 92/61/117 88/67/67
f 138/61/60 88/67/67 92/61/117
f 128/117/119 129/118/120 125/119/121
f 132/120/122 130/121/123 128/117/119
f 131/122/124 132/120/122 126/107/106
f 135/123/125 133/124/126 131/122/124
f 134/125/127 135/123/125 127/62/62
f 134/125/127 130/121/123 136/126/128
f 130/121/123 133/124/126 136/126/128
f 144/127/129 145/128/130 141/113/113
f 144/127/129 149/129/131 146/130/132
f 147/131/133 148/132/134 142/91/90
f 151/133/135 149/129/131 147/131/133
f 150/134/136 151/133/135 143/67/68
f 150/134/136 146/130/132 152/135/137
f 146/130/132 149/129/131 152/135/137
f 192/136/138 193/137/139 189/138/140
f 196/139/141 194/140/142 192/136/138
f 195/141/143 196/139/141 190/80/81
f 199/142/144 197/143/145 195/141/143
f 198/144/146 199/142/144 191/66/66
f 198/144/146 194/140/142 200/145/147
f 194/140/142 197/143/145 200/145/147
f 208/146/148 209/147/149 205/70/71
f 208/146/148 213/148/150 210/149/151
f 211/150/152 212/151/153 206/152/154
f 215/153/155 213/148/150 211/150/152
f 214/154/156 215/153/155 207/72/73
f 214/154/156 210/149/151 216/155/157
f 210/149/151 213/148/150 216/155/157
f 93/156/158 99/157/159 97/158/160
f 95/159/161 100/160/162 99/157/159
f 96/161/163 98/63/63 100/160/162
f 97/158/160 103/162/164 101/163/165
f 99/157/159 104/164/166 103/162/164
f 100/160/162 102/65/65 104/164/166
f 101/163/165 107/165/167 105/166/168
f 103/162/164 108/167/169 107/165/167
f 104/164/166 106/52/51 108/167/169
f 110/168/170 107/165/167 112/169/171
f 107/165/167 111/170/172 112/169/171
f 111/170/172 106/52/51 109/51/50
f 110/168/170 116/171/173 114/172/174
f 116/171/173 111/170/172 115/173/175
f 111/170/172 113/84/83 115/173/175
f 114/172/174 120/174/176 118/175/177
f 116/171/173 119/176/178 120/174/176
f 115/173/175 117/76/77 119/176/178
f 118/175/177 124/177/179 122/178/180
f 124/177/179 119/176/178 123/179/181
f 123/179/181 117/76/77 121/86/85
f 125/119/121 124/177/179 128/117/119
f 128/117/119 123/179/181 132/180/122
f 132/180/122 121/86/85 126/107/106
f 127/62/62 140/61/182 138/61/60
f 135/181/125 139/182/183 140/61/182
f 131/122/124 137/106/105 139/182/183
f 143/67/68 140/61/182 150/134/136
f 150/134/136 139/182/183 145/183/130
f 145/183/130 137/106/105 141/113/113
f 142/91/90 156/184/184 154/185/185
f 148/132/134 155/186/186 156/184/184
f 144/127/129 153/109/109 155/186/186
f 154/185/185 159/187/187 157/89/88
f 159/187/187 155/186/186 160/188/188
f 155/186/186 158/96/95 160/188/188
f 162/90/89 159/187/187 164/189/189
f 159/187/187 163/190/190 164/189/189
f 160/188/188 161/104/103 163/190/190
f 162/90/89 168/191/191 166/192/192
f 164/189/189 167/193/193 168/191/191
f 167/193/193 161/104/103 165/81/82
f 166/192/192 171/194/194 169/195/195
f 168/191/191 172/196/196 171/194/194
f 167/197/193 170/83/59 172/198/196
f 174/199/197 171/194/194 176/200/198
f 176/200/198 172/201/196 175/202/199
f 175/202/199 170/60/59 173/59/58
f 174/199/197 179/203/200 177/204/201
f 176/200/198 180/205/202 179/203/200
f 175/202/199 178/55/54 180/205/202
f 177/204/201 183/206/203 181/207/204
f 179/203/200 184/208/205 183/206/203
f 184/208/205 178/55/54 182/54/53
f 186/209/206 183/206/203 188/210/207
f 188/210/207 184/208/205 187/211/208
f 184/208/205 185/74/75 187/211/208
f 189/138/140 188/210/207 192/136/138
f 192/136/138 187/211/208 196/212/141
f 196/212/141 185/74/75 190/80/81
f 191/66/66 204/213/209 202/92/91
f 199/214/144 203/215/210 204/213/209
f 195/141/143 201/94/93 203/215/210
f 207/72/73 204/213/209 214/154/156
f 214/154/156 203/215/210 209/216/149
f 209/216/149 201/94/93 205/70/71
f 206/152/154 219/217/211 217/218/212
f 212/151/153 220/219/213 219/217/211
f 208/146/148 218/69/70 220/219/213
f 93/156/158 219/217/211 95/159/161
f 219/217/211 96/161/163 95/159/161
f 96/161/163 218/69/70 94/88/87
f 143/67/68 198/144/146 191/66/66
f 151/220/135 193/137/139 198/144/146
f 147/131/133 189/138/140 193/137/139
f 125/119/121 211/150/152 206/152/154
f 129/118/120 215/221/155 211/150/152
f 134/125/127 207/72/73 215/221/155
f 110/168/170 114/172/174 125/119/121
s 0
f 79/1/1 80/1/1 76/1/1
s 1
f 15/2/2 52/20/20 50/3/3
f 32/5/5 5/33/33 6/6/6
f 9/8/8 40/41/40 38/9/9
f 4/11/11 30/98/97 26/12/12
f 60/14/14 58/38/37 18/15/15
f 56/17/17 54/21/21 16/18/18
f 52/20/20 15/2/2 16/18/18
f 48/22/22 46/43/42 12/23/23
f 36/25/25 34/7/7 6/6/6
f 22/27/27 66/30/30 64/28/28
f 66/30/30 22/27/27 23/31/31
f 32/5/5 30/98/97 4/11/11
f 44/34/34 42/42/41 10/35/35
f 56/37/17 17/222/19 18/15/15
f 68/32/32 23/31/31 24/39/38
f 40/41/40 9/8/8 10/35/35
f 36/25/25 7/26/26 8/10/10
f 46/43/42 44/34/34 11/36/36
f 72/44/43 70/40/39 24/39/38
f 34/7/7 33/57/56 31/46/45
f 27/47/46 72/44/43 1/45/44
f 21/29/29 64/28/28 62/49/48
f 50/3/3 48/22/22 13/24/24
f 31/46/45 33/57/56 109/51/50
f 59/53/52 61/73/74 182/54/53
f 35/56/55 113/84/83 109/51/50
f 55/58/57 57/78/79 173/59/58
f 138/61/60 92/61/117 90/62/61
f 98/63/63 25/99/98 29/64/64
f 191/66/66 84/93/92 88/67/67
f 69/68/69 71/105/104 218/69/70
f 102/65/65 29/64/64 31/46/45
f 127/62/62 90/62/61 82/71/72
f 61/73/74 63/101/100 185/74/75
f 39/75/76 121/86/85 117/76/77
f 57/78/79 59/53/52 178/55/54
f 185/74/75 63/101/100 65/79/80
f 165/81/82 53/103/102 55/82/57
f 37/77/78 117/76/77 113/84/83
f 41/85/84 126/107/106 121/86/85
f 218/69/70 71/105/104 28/87/86
f 162/90/89 166/192/192 142/91/90
f 166/192/192 169/195/195 142/91/90
f 169/195/195 174/199/197 189/138/140
f 174/199/197 177/204/201 189/138/140
f 177/204/201 181/207/204 189/138/140
f 181/207/204 186/209/206 189/138/140
f 189/138/140 142/91/90 169/195/195
f 142/91/90 154/185/185 157/89/88
f 202/92/91 86/92/107 84/93/92
f 65/79/80 67/223/214 201/94/93
f 51/95/94 161/104/103 158/96/95
f 64/28/28 63/101/100 61/73/74
f 60/14/14 59/53/52 57/78/79
f 55/82/57 53/103/102 54/21/21
f 31/46/45 29/64/64 30/98/97
f 26/12/12 30/98/97 29/64/64
f 27/47/46 26/12/12 25/99/98
f 49/97/96 47/108/108 48/22/22
f 48/22/22 47/108/108 45/100/99
f 66/30/30 65/79/80 63/101/100
f 43/102/101 41/85/84 42/42/41
f 46/43/42 45/100/99 43/102/101
f 53/103/102 165/81/82 161/104/103
f 62/49/48 61/73/74 59/53/52
f 40/41/40 39/75/76 37/77/78
f 58/38/37 57/78/79 55/58/57
f 51/95/94 49/97/96 50/3/3
f 52/20/20 54/21/21 53/103/102
f 38/9/9 37/77/78 35/56/55
f 72/44/43 27/47/46 28/87/86
f 36/25/25 35/56/55 33/57/56
f 69/68/69 67/223/214 68/32/32
f 71/105/104 69/68/69 70/40/39
f 42/42/41 41/85/84 39/75/76
f 68/32/32 67/223/214 65/79/80
f 45/100/99 141/113/113 137/106/105
f 41/85/84 43/102/101 137/106/105
f 201/94/93 67/223/214 69/68/69
f 202/92/91 207/72/73 82/71/72
f 47/108/108 49/97/96 158/96/95
f 91/116/118 87/112/112 89/111/111
f 87/112/112 83/114/115 81/110/110
f 83/114/115 85/115/116 81/110/110
f 45/100/99 47/108/108 153/109/109
s 0
f 77/1/36 79/1/36 75/1/36
f 74/1/19 73/1/19 75/1/19
f 80/1/33 79/1/33 77/1/33
f 78/1/114 77/1/114 73/1/114
f 80/1/31 78/1/31 74/1/31
s 1
f 60/14/14 19/16/16 20/50/49
f 27/47/46 2/48/47 3/13/13
f 94/88/87 28/87/86 25/99/98
f 83/114/115 87/112/112 88/67/67
f 83/114/115 84/93/92 86/92/107
f 89/111/111 90/62/61 92/61/117
f 90/62/61 89/111/111 81/110/110
f 81/110/110 85/115/116 86/92/107
f 87/112/112 91/116/118 92/61/117
f 138/61/60 143/67/68 88/67/67
f 128/117/119 130/121/123 129/118/120
f 132/120/122 133/124/126 130/121/123
f 131/122/124 133/124/126 132/120/122
f 135/123/125 136/126/128 133/124/126
f 134/125/127 136/126/128 135/123/125
f 134/125/127 129/118/120 130/121/123
f 144/127/129 146/130/132 145/128/130
f 144/127/129 148/132/134 149/129/131
f 147/131/133 149/129/131 148/132/134
f 151/133/135 152/135/137 149/129/131
f 150/134/136 152/135/137 151/133/135
f 150/134/136 145/128/130 146/130/132
f 192/136/138 194/140/142 193/137/139
f 196/139/141 197/143/145 194/140/142
f 195/141/143 197/143/145 196/139/141
f 199/142/144 200/145/147 197/143/145
f 198/144/146 200/145/147 199/142/144
f 198/144/146 193/137/139 194/140/142
f 208/146/148 210/149/151 209/147/149
f 208/146/148 212/151/153 213/148/150
f 211/150/152 213/148/150 212/151/153
f 215/153/155 216/155/157 213/148/150
f 214/154/156 216/155/157 215/153/155
f 214/154/156 209/147/149 210/149/151
f 93/156/158 95/159/161 99/157/159
f 95/159/161 96/161/163 100/160/162
f 96/161/163 94/88/87 98/63/63
f 97/158/160 99/157/159 103/162/164
f 99/157/159 100/160/162 104/164/166
f 100/160/162 98/63/63 102/65/65
f 101/163/165 103/162/164 107/165/167
f 103/162/164 104/164/166 108/167/169
f 104/164/166 102/65/65 106/52/51
f 110/168/170 105/166/168 107/165/167
f 107/165/167 108/167/169 111/170/172
f 111/170/172 108/167/169 106/52/51
f 110/168/170 112/169/171 116/171/173
f 116/171/173 112/169/171 111/170/172
f 111/170/172 109/51/50 113/84/83
f 114/172/174 116/171/173 120/174/176
f 116/171/173 115/173/175 119/176/178
f 115/173/175 113/84/83 117/76/77
f 118/175/177 120/174/176 124/177/179
f 124/177/179 120/174/176 119/176/178
f 123/179/181 119/176/178 117/76/77
f 125/119/121 122/178/180 124/177/179
f 128/117/119 124/177/179 123/179/181
f 132/180/122 123/179/181 121/86/85
f 127/62/62 135/181/125 140/61/182
f 135/181/125 131/122/124 139/182/183
f 131/122/124 126/107/106 137/106/105
f 143/67/68 138/61/60 140/61/182
f 150/134/136 140/61/182 139/182/183
f 145/183/130 139/182/183 137/106/105
f 142/91/90 148/132/134 156/184/184
f 148/132/134 144/127/129 155/186/186
f 144/127/129 141/113/113 153/109/109
f 154/185/185 156/184/184 159/187/187
f 159/187/187 156/184/184 155/186/186
f 155/186/186 153/109/109 158/96/95
f 162/90/89 157/89/88 159/187/187
f 159/187/187 160/188/188 163/190/190
f 160/188/188 158/96/95 161/104/103
f 162/90/89 164/189/189 168/191/191
f 164/189/189 163/190/190 167/193/193
f 167/193/193 163/190/190 161/104/103
f 166/192/192 168/191/191 171/194/194
f 168/191/191 167/197/193 172/196/196
f 167/197/193 165/81/82 170/83/59
f 174/199/197 169/195/195 171/194/194
f 176/200/198 171/194/194 172/201/196
f 175/202/199 172/201/196 170/60/59
f 174/199/197 176/200/198 179/203/200
f 176/200/198 175/202/199 180/205/202
f 175/202/199 173/59/58 178/55/54
f 177/204/201 179/203/200 183/206/203
f 179/203/200 180/205/202 184/208/205
f 184/208/205 180/205/202 178/55/54
f 186/209/206 181/207/204 183/206/203
f 188/210/207 183/206/203 184/208/205
f 184/208/205 182/54/53 185/74/75
f 189/138/140 186/209/206 188/210/207
f 192/136/138 188/210/207 187/211/208
f 196/212/141 187/211/208 185/74/75
f 191/66/66 199/214/144 204/213/209
f 199/214/144 195/141/143 203/215/210
f 195/141/143 190/80/81 201/94/93
f 207/72/73 202/92/91 204/213/209
f 214/154/156 204/213/209 203/215/210
f 209/216/149 203/215/210 201/94/93
f 206/152/154 212/151/153 219/217/211
f 212/151/153 208/146/148 220/219/213
f 208/146/148 205/70/71 218/69/70
f 93/156/158 217/218/212 219/217/211
f 219/217/211 220/219/213 96/161/163
f 96/161/163 220/219/213 218/69/70
f 143/67/68 151/220/135 198/144/146
f 151/220/135 147/131/133 193/137/139
f 147/131/133 142/91/90 189/138/140
f 125/119/121 129/118/120 211/150/152
f 129/118/120 134/125/127 215/221/155
f 134/125/127 127/62/62 207/72/73
f 122/178/180 125/119/121 118/175/177
f 125/119/121 206/152/154 105/166/168
f 118/175/177 125/119/121 114/172/174
f 206/152/154 217/218/212 93/156/158
f 93/156/158 97/158/160 206/152/154
f 97/158/160 101/163/165 206/152/154
f 101/163/165 105/166/168 206/152/154
f 105/166/168 110/168/170 125/119/121
