# Blender 4.0.0
# www.blender.org
o rack0
v 0.14127200 0.11269150 -0.02167850
v 0.14125000 0.11230950 -0.02050250
v 0.14119200 0.11130950 -0.01977650
v 0.14112100 0.11007350 -0.01977650
v 0.14106300 0.10907350 -0.02050250
v 0.14104100 0.10869150 -0.02167850
v 0.14106300 0.10907350 -0.02285350
v 0.14112100 0.11007350 -0.02358050
v 0.14119200 0.11130950 -0.02358050
v 0.14125000 0.11230950 -0.02285350
v -0.20573000 0.11269150 -0.02167850
v -0.20570800 0.11230950 -0.02050250
v -0.20565000 0.11130950 -0.01977650
v -0.20557900 0.11007350 -0.01977650
v -0.20552200 0.10907350 -0.02050250
v -0.20550000 0.10869150 -0.02167850
v -0.20552200 0.10907350 -0.02285350
v -0.20557900 0.11007350 -0.02358050
v -0.20565000 0.11130950 -0.02358050
v -0.20570800 0.11230950 -0.02285350
v -0.20813500 0.11241350 -0.02167850
v -0.20804700 0.11203950 -0.02050250
v -0.20781800 0.11105950 -0.01977650
v -0.20753600 0.10984750 -0.01977650
v -0.20730700 0.10886750 -0.02050250
v -0.20721900 0.10849250 -0.02167850
v -0.20730700 0.10886750 -0.02285350
v -0.20753600 0.10984750 -0.02358050
v -0.20781800 0.11105950 -0.02358050
v -0.20804700 0.11203950 -0.02285350
v -0.21045500 0.11158350 -0.02167850
v -0.21028600 0.11123850 -0.02050250
v -0.20984400 0.11033450 -0.01977650
v -0.20929800 0.10921750 -0.01977650
v -0.20885500 0.10831350 -0.02050250
v -0.20868600 0.10796750 -0.02167850
v -0.20885500 0.10831350 -0.02285350
v -0.20929800 0.10921750 -0.02358050
v -0.20984400 0.11033450 -0.02358050
v -0.21028600 0.11123850 -0.02285350
v -0.21250100 0.11028250 -0.02167850
v -0.21226000 0.10998250 -0.02050250
v -0.21163100 0.10919750 -0.01977650
v -0.21085300 0.10822750 -0.01977650
v -0.21022400 0.10744250 -0.02050250
v -0.20998300 0.10714250 -0.02167850
v -0.21022400 0.10744250 -0.02285350
v -0.21085300 0.10822750 -0.02358050
v -0.21163100 0.10919750 -0.02358050
v -0.21226000 0.10998250 -0.02285350
v -0.21420500 0.10857750 -0.02167850
v -0.21390600 0.10833750 -0.02050250
v -0.21312100 0.10770750 -0.01977650
v -0.21215100 0.10692950 -0.01977650
v -0.21136700 0.10629950 -0.02050250
v -0.21106700 0.10605950 -0.02167850
v -0.21136700 0.10629950 -0.02285350
v -0.21215100 0.10692950 -0.02358050
v -0.21312100 0.10770750 -0.02358050
v -0.21390600 0.10833750 -0.02285350
v -0.21550700 0.10653250 -0.02167850
v -0.21516200 0.10636350 -0.02050250
v -0.21425800 0.10592050 -0.01977650
v -0.21314100 0.10537350 -0.01977650
v -0.21223700 0.10493150 -0.02050250
v -0.21189200 0.10476250 -0.02167850
v -0.21223700 0.10493150 -0.02285350
v -0.21314100 0.10537350 -0.02358050
v -0.21425800 0.10592050 -0.02358050
v -0.21516200 0.10636350 -0.02285350
v -0.21633700 0.10421050 -0.02167850
v -0.21596300 0.10412350 -0.02050250
v -0.21498300 0.10389450 -0.01977650
v -0.21377100 0.10361250 -0.01977650
v -0.21279100 0.10338350 -0.02050250
v -0.21241600 0.10329550 -0.02167850
v -0.21279100 0.10338350 -0.02285350
v -0.21377100 0.10361250 -0.02358050
v -0.21498300 0.10389450 -0.02358050
v -0.21596300 0.10412350 -0.02285350
v -0.21661500 0.10180650 -0.02167850
v -0.21623300 0.10178450 -0.02050250
v -0.21523300 0.10172650 -0.01977650
v -0.21399700 0.10165550 -0.01977650
v -0.21299700 0.10159850 -0.02050250
v -0.21261500 0.10157650 -0.02167850
v -0.21299700 0.10159850 -0.02285350
v -0.21399700 0.10165550 -0.02358050
v -0.21523300 0.10172650 -0.02358050
v -0.21623300 0.10178450 -0.02285350
v -0.21661500 -0.09347850 -0.02167850
v -0.21623300 -0.09345650 -0.02050250
v -0.21523300 -0.09339850 -0.01977650
v -0.21399700 -0.09332750 -0.01977650
v -0.21299700 -0.09326950 -0.02050250
v -0.21261500 -0.09324850 -0.02167850
v -0.21299700 -0.09326950 -0.02285350
v -0.21399700 -0.09332750 -0.02358050
v -0.21523300 -0.09339850 -0.02358050
v -0.21623300 -0.09345650 -0.02285350
v -0.21633700 -0.09588250 -0.02167850
v -0.21596300 -0.09579550 -0.02050250
v -0.21498300 -0.09556650 -0.01977650
v -0.21377100 -0.09528350 -0.01977650
v -0.21279100 -0.09505550 -0.02050250
v -0.21241600 -0.09496750 -0.02167850
v -0.21279100 -0.09505550 -0.02285350
v -0.21377100 -0.09528350 -0.02358050
v -0.21498300 -0.09556650 -0.02358050
v -0.21596300 -0.09579550 -0.02285350
v -0.21550700 -0.09820350 -0.02167850
v -0.21516200 -0.09803450 -0.02050250
v -0.21425800 -0.09759250 -0.01977650
v -0.21314100 -0.09704550 -0.01977650
v -0.21223700 -0.09660350 -0.02050250
v -0.21189200 -0.09643450 -0.02167850
v -0.21223700 -0.09660350 -0.02285350
v -0.21314100 -0.09704550 -0.02358050
v -0.21425800 -0.09759250 -0.02358050
v -0.21516200 -0.09803450 -0.02285350
v -0.21420500 -0.10024950 -0.02167850
v -0.21390600 -0.10000950 -0.02050250
v -0.21312100 -0.09937950 -0.01977650
v -0.21215100 -0.09860150 -0.01977650
v -0.21136700 -0.09797150 -0.02050250
v -0.21106700 -0.09773050 -0.02167850
v -0.21136700 -0.09797150 -0.02285350
v -0.21215100 -0.09860150 -0.02358050
v -0.21312100 -0.09937950 -0.02358050
v -0.21390600 -0.10000950 -0.02285350
v -0.21250100 -0.10195450 -0.02167850
v -0.21226000 -0.10165450 -0.02050250
v -0.21163100 -0.10086950 -0.01977650
v -0.21085300 -0.09989950 -0.01977650
v -0.21022400 -0.09911450 -0.02050250
v -0.20998300 -0.09881450 -0.02167850
v -0.21022400 -0.09911450 -0.02285350
v -0.21085300 -0.09989950 -0.02358050
v -0.21163100 -0.10086950 -0.02358050
v -0.21226000 -0.10165450 -0.02285350
v -0.21045500 -0.10325550 -0.02167850
v -0.21028600 -0.10290950 -0.02050250
v -0.20984400 -0.10200650 -0.01977650
v -0.20929700 -0.10088850 -0.01977650
v -0.20885500 -0.09998550 -0.02050250
v -0.20868600 -0.09963950 -0.02167850
v -0.20885500 -0.09998550 -0.02285350
v -0.20929700 -0.10088850 -0.02358050
v -0.20984400 -0.10200650 -0.02358050
v -0.21028600 -0.10290950 -0.02285350
v -0.20813500 -0.10408550 -0.02167850
v -0.20804700 -0.10371150 -0.02050250
v -0.20781800 -0.10273050 -0.01977650
v -0.20753600 -0.10151950 -0.01977650
v -0.20730700 -0.10053950 -0.02050250
v -0.20721900 -0.10016450 -0.02167850
v -0.20730700 -0.10053950 -0.02285350
v -0.20753600 -0.10151950 -0.02358050
v -0.20781800 -0.10273050 -0.02358050
v -0.20804700 -0.10371150 -0.02285350
v -0.20573000 -0.10436350 -0.02167850
v -0.20570800 -0.10398150 -0.02050250
v -0.20565000 -0.10298150 -0.01977650
v -0.20557900 -0.10174550 -0.01977650
v -0.20552200 -0.10074550 -0.02050250
v -0.20550000 -0.10036350 -0.02167850
v -0.20552200 -0.10074550 -0.02285350
v -0.20557900 -0.10174550 -0.02358050
v -0.20565000 -0.10298150 -0.02358050
v -0.20570800 -0.10398150 -0.02285350
v 0.14127200 -0.10436350 -0.02167850
v 0.14125000 -0.10398150 -0.02050250
v 0.14119200 -0.10298150 -0.01977650
v 0.14112100 -0.10174550 -0.01977650
v 0.14106300 -0.10074550 -0.02050250
v 0.14104100 -0.10036350 -0.02167850
v 0.14106300 -0.10074550 -0.02285350
v 0.14112100 -0.10174550 -0.02358050
v 0.14119200 -0.10298150 -0.02358050
v 0.14125000 -0.10398150 -0.02285350
v 0.14367600 -0.10408550 -0.02167850
v 0.14358900 -0.10371150 -0.02050250
v 0.14336000 -0.10273050 -0.01977650
v 0.14307700 -0.10151950 -0.01977650
v 0.14284900 -0.10053950 -0.02050250
v 0.14276100 -0.10016450 -0.02167850
v 0.14284900 -0.10053950 -0.02285350
v 0.14307700 -0.10151950 -0.02358050
v 0.14336000 -0.10273050 -0.02358050
v 0.14358900 -0.10371150 -0.02285350
v 0.14599700 -0.10325550 -0.02167850
v 0.14582800 -0.10290950 -0.02050250
v 0.14538600 -0.10200650 -0.01977650
v 0.14483900 -0.10088850 -0.01977650
v 0.14439700 -0.09998550 -0.02050250
v 0.14422800 -0.09963950 -0.02167850
v 0.14439700 -0.09998550 -0.02285350
v 0.14483900 -0.10088850 -0.02358050
v 0.14538600 -0.10200650 -0.02358050
v 0.14582800 -0.10290950 -0.02285350
v 0.14804200 -0.10195450 -0.02167850
v 0.14780200 -0.10165450 -0.02050250
v 0.14717300 -0.10086950 -0.01977650
v 0.14639500 -0.09989950 -0.01977650
v 0.14576500 -0.09911450 -0.02050250
v 0.14552500 -0.09881450 -0.02167850
v 0.14576500 -0.09911450 -0.02285350
v 0.14639500 -0.09989950 -0.02358050
v 0.14717300 -0.10086950 -0.02358050
v 0.14780200 -0.10165450 -0.02285350
v 0.14974700 -0.10024950 -0.02167850
v 0.14944800 -0.10000950 -0.02050250
v 0.14866300 -0.09937950 -0.01977650
v 0.14769300 -0.09860150 -0.01977650
v 0.14690800 -0.09797150 -0.02050250
v 0.14660900 -0.09773050 -0.02167850
v 0.14690800 -0.09797150 -0.02285350
v 0.14769300 -0.09860150 -0.02358050
v 0.14866300 -0.09937950 -0.02358050
v 0.14944800 -0.10000950 -0.02285350
v 0.15104900 -0.09820350 -0.02167850
v 0.15070300 -0.09803450 -0.02050250
v 0.14980000 -0.09759250 -0.01977650
v 0.14868200 -0.09704550 -0.01977650
v 0.14777900 -0.09660350 -0.02050250
v 0.14743300 -0.09643450 -0.02167850
v 0.14777900 -0.09660350 -0.02285350
v 0.14868200 -0.09704550 -0.02358050
v 0.14980000 -0.09759250 -0.02358050
v 0.15070300 -0.09803450 -0.02285350
v 0.15187900 -0.09588250 -0.02167850
v 0.15150500 -0.09579550 -0.02050250
v 0.15052400 -0.09556650 -0.01977650
v 0.14931300 -0.09528350 -0.01977650
v 0.14833300 -0.09505550 -0.02050250
v 0.14795800 -0.09496750 -0.02167850
v 0.14833300 -0.09505550 -0.02285350
v 0.14931300 -0.09528350 -0.02358050
v 0.15052400 -0.09556650 -0.02358050
v 0.15150500 -0.09579550 -0.02285350
v 0.15215700 -0.09347850 -0.02167850
v 0.15177500 -0.09345650 -0.02050250
v 0.15077500 -0.09339850 -0.01977650
v 0.14953900 -0.09332750 -0.01977650
v 0.14853900 -0.09327050 -0.02050250
v 0.14815700 -0.09324850 -0.02167850
v 0.14853900 -0.09327050 -0.02285350
v 0.14953900 -0.09332750 -0.02358050
v 0.15077500 -0.09339850 -0.02358050
v 0.15177500 -0.09345650 -0.02285350
v 0.15215700 0.10180650 -0.02167850
v 0.15177500 0.10178450 -0.02050250
v 0.15077500 0.10172650 -0.01977650
v 0.14953900 0.10165550 -0.01977650
v 0.14853900 0.10159850 -0.02050250
v 0.14815700 0.10157650 -0.02167850
v 0.14853900 0.10159850 -0.02285350
v 0.14953900 0.10165550 -0.02358050
v 0.15077500 0.10172650 -0.02358050
v 0.15177500 0.10178450 -0.02285350
v 0.15187900 0.10421050 -0.02167850
v 0.15150500 0.10412350 -0.02050250
v 0.15052400 0.10389450 -0.01977650
v 0.14931300 0.10361250 -0.01977650
v 0.14833300 0.10338350 -0.02050250
v 0.14795800 0.10329550 -0.02167850
v 0.14833300 0.10338350 -0.02285350
v 0.14931300 0.10361250 -0.02358050
v 0.15052400 0.10389450 -0.02358050
v 0.15150500 0.10412350 -0.02285350
v 0.15104900 0.10653250 -0.02167850
v 0.15070300 0.10636350 -0.02050250
v 0.14980000 0.10592050 -0.01977650
v 0.14868200 0.10537350 -0.01977650
v 0.14777900 0.10493150 -0.02050250
v 0.14743300 0.10476250 -0.02167850
v 0.14777900 0.10493150 -0.02285350
v 0.14868200 0.10537350 -0.02358050
v 0.14980000 0.10592050 -0.02358050
v 0.15070300 0.10636350 -0.02285350
v 0.14974700 0.10857750 -0.02167850
v 0.14944700 0.10833750 -0.02050250
v 0.14866300 0.10770750 -0.01977650
v 0.14769300 0.10692950 -0.01977650
v 0.14690800 0.10629950 -0.02050250
v 0.14660900 0.10605950 -0.02167850
v 0.14690800 0.10629950 -0.02285350
v 0.14769300 0.10692950 -0.02358050
v 0.14866300 0.10770750 -0.02358050
v 0.14944700 0.10833750 -0.02285350
v 0.14804200 0.11028250 -0.02167850
v 0.14780200 0.10998250 -0.02050250
v 0.14717300 0.10919750 -0.01977650
v 0.14639500 0.10822750 -0.01977650
v 0.14576500 0.10744250 -0.02050250
v 0.14552500 0.10714250 -0.02167850
v 0.14576500 0.10744250 -0.02285350
v 0.14639500 0.10822750 -0.02358050
v 0.14717300 0.10919750 -0.02358050
v 0.14780200 0.10998250 -0.02285350
v 0.14599700 0.11158350 -0.02167850
v 0.14582800 0.11123850 -0.02050250
v 0.14538600 0.11033450 -0.01977650
v 0.14483900 0.10921750 -0.01977650
v 0.14439700 0.10831350 -0.02050250
v 0.14422800 0.10796750 -0.02167850
v 0.14439700 0.10831350 -0.02285350
v 0.14483900 0.10921750 -0.02358050
v 0.14538600 0.11033450 -0.02358050
v 0.14582800 0.11123850 -0.02285350
v 0.14367600 0.11241350 -0.02167850
v 0.14358900 0.11203950 -0.02050250
v 0.14336000 0.11105950 -0.01977650
v 0.14307700 0.10984750 -0.01977650
v 0.14284900 0.10886750 -0.02050250
v 0.14276100 0.10849250 -0.02167850
v 0.14284900 0.10886750 -0.02285350
v 0.14307700 0.10984750 -0.02358050
v 0.14336000 0.11105950 -0.02358050
v 0.14358900 0.11203950 -0.02285350
v -0.19882200 0.11212750 -0.01856050
v -0.19853600 0.11212750 -0.01767950
v -0.19778600 0.11212750 -0.01713450
v -0.19685900 0.11212750 -0.01713450
v -0.19610900 0.11212750 -0.01767950
v -0.19582200 0.11212750 -0.01856050
v -0.19610900 0.11212750 -0.01944250
v -0.19685900 0.11212750 -0.01998750
v -0.19778600 0.11212750 -0.01998750
v -0.19853600 0.11212750 -0.01944250
v -0.19882200 -0.10382050 -0.01856050
v -0.19853600 -0.10382050 -0.01767950
v -0.19778600 -0.10382050 -0.01713450
v -0.19685900 -0.10382050 -0.01713450
v -0.19610900 -0.10382050 -0.01767950
v -0.19582200 -0.10382050 -0.01856050
v -0.19610900 -0.10382050 -0.01944250
v -0.19685900 -0.10382050 -0.01998750
v -0.19778600 -0.10382050 -0.01998750
v -0.19853600 -0.10382050 -0.01944250
v -0.19732200 0.11212750 -0.01856050
v -0.19732200 -0.10382050 -0.01856050
v -0.17682200 0.11212750 -0.01856050
v -0.17653600 0.11212750 -0.01767950
v -0.17578600 0.11212750 -0.01713450
v -0.17485900 0.11212750 -0.01713450
v -0.17410900 0.11212750 -0.01767950
v -0.17382200 0.11212750 -0.01856050
v -0.17410900 0.11212750 -0.01944250
v -0.17485900 0.11212750 -0.01998750
v -0.17578600 0.11212750 -0.01998750
v -0.17653600 0.11212750 -0.01944250
v -0.17682200 -0.10382050 -0.01856050
v -0.17653600 -0.10382050 -0.01767950
v -0.17578600 -0.10382050 -0.01713450
v -0.17485900 -0.10382050 -0.01713450
v -0.17410900 -0.10382050 -0.01767950
v -0.17382200 -0.10382050 -0.01856050
v -0.17410900 -0.10382050 -0.01944250
v -0.17485900 -0.10382050 -0.01998750
v -0.17578600 -0.10382050 -0.01998750
v -0.17653600 -0.10382050 -0.01944250
v -0.17532200 0.11212750 -0.01856050
v -0.17532200 -0.10382050 -0.01856050
v -0.15482200 0.11212750 -0.01856050
v -0.15453600 0.11212750 -0.01767950
v -0.15378600 0.11212750 -0.01713450
v -0.15285900 0.11212750 -0.01713450
v -0.15210900 0.11212750 -0.01767950
v -0.15182200 0.11212750 -0.01856050
v -0.15210900 0.11212750 -0.01944250
v -0.15285900 0.11212750 -0.01998750
v -0.15378600 0.11212750 -0.01998750
v -0.15453600 0.11212750 -0.01944250
v -0.15482200 -0.10382050 -0.01856050
v -0.15453600 -0.10382050 -0.01767950
v -0.15378600 -0.10382050 -0.01713450
v -0.15285900 -0.10382050 -0.01713450
v -0.15210900 -0.10382050 -0.01767950
v -0.15182200 -0.10382050 -0.01856050
v -0.15210900 -0.10382050 -0.01944250
v -0.15285900 -0.10382050 -0.01998750
v -0.15378600 -0.10382050 -0.01998750
v -0.15453600 -0.10382050 -0.01944250
v -0.15332200 0.11212750 -0.01856050
v -0.15332200 -0.10382050 -0.01856050
v -0.13282200 0.11212750 -0.01856050
v -0.13253600 0.11212750 -0.01767950
v -0.13178600 0.11212750 -0.01713450
v -0.13085900 0.11212750 -0.01713450
v -0.13010900 0.11212750 -0.01767950
v -0.12982200 0.11212750 -0.01856050
v -0.13010900 0.11212750 -0.01944250
v -0.13085900 0.11212750 -0.01998750
v -0.13178600 0.11212750 -0.01998750
v -0.13253600 0.11212750 -0.01944250
v -0.13282200 -0.10382050 -0.01856050
v -0.13253600 -0.10382050 -0.01767950
v -0.13178600 -0.10382050 -0.01713450
v -0.13085900 -0.10382050 -0.01713450
v -0.13010900 -0.10382050 -0.01767950
v -0.12982200 -0.10382050 -0.01856050
v -0.13010900 -0.10382050 -0.01944250
v -0.13085900 -0.10382050 -0.01998750
v -0.13178600 -0.10382050 -0.01998750
v -0.13253600 -0.10382050 -0.01944250
v -0.13132200 0.11212750 -0.01856050
v -0.13132200 -0.10382050 -0.01856050
v -0.11082200 0.11212750 -0.01856050
v -0.11053600 0.11212750 -0.01767950
v -0.10978600 0.11212750 -0.01713450
v -0.10885900 0.11212750 -0.01713450
v -0.10810900 0.11212750 -0.01767950
v -0.10782200 0.11212750 -0.01856050
v -0.10810900 0.11212750 -0.01944250
v -0.10885900 0.11212750 -0.01998750
v -0.10978600 0.11212750 -0.01998750
v -0.11053600 0.11212750 -0.01944250
v -0.11082200 -0.10382050 -0.01856050
v -0.11053600 -0.10382050 -0.01767950
v -0.10978600 -0.10382050 -0.01713450
v -0.10885900 -0.10382050 -0.01713450
v -0.10810900 -0.10382050 -0.01767950
v -0.10782200 -0.10382050 -0.01856050
v -0.10810900 -0.10382050 -0.01944250
v -0.10885900 -0.10382050 -0.01998750
v -0.10978600 -0.10382050 -0.01998750
v -0.11053600 -0.10382050 -0.01944250
v -0.10932200 0.11212750 -0.01856050
v -0.10932200 -0.10382050 -0.01856050
v -0.08882200 0.11212750 -0.01856050
v -0.08853600 0.11212750 -0.01767950
v -0.08778600 0.11212750 -0.01713450
v -0.08685900 0.11212750 -0.01713450
v -0.08610900 0.11212750 -0.01767950
v -0.08582200 0.11212750 -0.01856050
v -0.08610900 0.11212750 -0.01944250
v -0.08685900 0.11212750 -0.01998750
v -0.08778600 0.11212750 -0.01998750
v -0.08853600 0.11212750 -0.01944250
v -0.08882200 -0.10382050 -0.01856050
v -0.08853600 -0.10382050 -0.01767950
v -0.08778600 -0.10382050 -0.01713450
v -0.08685900 -0.10382050 -0.01713450
v -0.08610900 -0.10382050 -0.01767950
v -0.08582200 -0.10382050 -0.01856050
v -0.08610900 -0.10382050 -0.01944250
v -0.08685900 -0.10382050 -0.01998750
v -0.08778600 -0.10382050 -0.01998750
v -0.08853600 -0.10382050 -0.01944250
v -0.08732200 0.11212750 -0.01856050
v -0.08732200 -0.10382050 -0.01856050
v -0.06682200 0.11212750 -0.01856050
v -0.06653600 0.11212750 -0.01767950
v -0.06578600 0.11212750 -0.01713450
v -0.06485900 0.11212750 -0.01713450
v -0.06410900 0.11212750 -0.01767950
v -0.06382200 0.11212750 -0.01856050
v -0.06410900 0.11212750 -0.01944250
v -0.06485900 0.11212750 -0.01998750
v -0.06578600 0.11212750 -0.01998750
v -0.06653600 0.11212750 -0.01944250
v -0.06682200 -0.10382050 -0.01856050
v -0.06653600 -0.10382050 -0.01767950
v -0.06578600 -0.10382050 -0.01713450
v -0.06485900 -0.10382050 -0.01713450
v -0.06410900 -0.10382050 -0.01767950
v -0.06382200 -0.10382050 -0.01856050
v -0.06410900 -0.10382050 -0.01944250
v -0.06485900 -0.10382050 -0.01998750
v -0.06578600 -0.10382050 -0.01998750
v -0.06653600 -0.10382050 -0.01944250
v -0.06532200 0.11212750 -0.01856050
v -0.06532200 -0.10382050 -0.01856050
v -0.04482200 0.11212750 -0.01856050
v -0.04453600 0.11212750 -0.01767950
v -0.04378600 0.11212750 -0.01713450
v -0.04285900 0.11212750 -0.01713450
v -0.04210900 0.11212750 -0.01767950
v -0.04182200 0.11212750 -0.01856050
v -0.04210900 0.11212750 -0.01944250
v -0.04285900 0.11212750 -0.01998750
v -0.04378600 0.11212750 -0.01998750
v -0.04453600 0.11212750 -0.01944250
v -0.04482200 -0.10382050 -0.01856050
v -0.04453600 -0.10382050 -0.01767950
v -0.04378600 -0.10382050 -0.01713450
v -0.04285900 -0.10382050 -0.01713450
v -0.04210900 -0.10382050 -0.01767950
v -0.04182200 -0.10382050 -0.01856050
v -0.04210900 -0.10382050 -0.01944250
v -0.04285900 -0.10382050 -0.01998750
v -0.04378600 -0.10382050 -0.01998750
v -0.04453600 -0.10382050 -0.01944250
v -0.04332200 0.11212750 -0.01856050
v -0.04332200 -0.10382050 -0.01856050
v -0.02282200 0.11212750 -0.01856050
v -0.02253600 0.11212750 -0.01767950
v -0.02178600 0.11212750 -0.01713450
v -0.02085900 0.11212750 -0.01713450
v -0.02010900 0.11212750 -0.01767950
v -0.01982200 0.11212750 -0.01856050
v -0.02010900 0.11212750 -0.01944250
v -0.02085900 0.11212750 -0.01998750
v -0.02178600 0.11212750 -0.01998750
v -0.02253600 0.11212750 -0.01944250
v -0.02282200 -0.10382050 -0.01856050
v -0.02253600 -0.10382050 -0.01767950
v -0.02178600 -0.10382050 -0.01713450
v -0.02085900 -0.10382050 -0.01713450
v -0.02010900 -0.10382050 -0.01767950
v -0.01982200 -0.10382050 -0.01856050
v -0.02010900 -0.10382050 -0.01944250
v -0.02085900 -0.10382050 -0.01998750
v -0.02178600 -0.10382050 -0.01998750
v -0.02253600 -0.10382050 -0.01944250
v -0.02132200 0.11212750 -0.01856050
v -0.02132200 -0.10382050 -0.01856050
v -0.00082200 0.11212750 -0.01856050
v -0.00053600 0.11212750 -0.01767950
v 0.00021400 0.11212750 -0.01713450
v 0.00114100 0.11212750 -0.01713450
v 0.00189100 0.11212750 -0.01767950
v 0.00217800 0.11212750 -0.01856050
v 0.00189100 0.11212750 -0.01944250
v 0.00114100 0.11212750 -0.01998750
v 0.00021400 0.11212750 -0.01998750
v -0.00053600 0.11212750 -0.01944250
v -0.00082200 -0.10382050 -0.01856050
v -0.00053600 -0.10382050 -0.01767950
v 0.00021400 -0.10382050 -0.01713450
v 0.00114100 -0.10382050 -0.01713450
v 0.00189100 -0.10382050 -0.01767950
v 0.00217800 -0.10382050 -0.01856050
v 0.00189100 -0.10382050 -0.01944250
v 0.00114100 -0.10382050 -0.01998750
v 0.00021400 -0.10382050 -0.01998750
v -0.00053600 -0.10382050 -0.01944250
v 0.00067800 0.11212750 -0.01856050
v 0.00067800 -0.10382050 -0.01856050
v 0.02117800 0.11212750 -0.01856050
v 0.02146400 0.11212750 -0.01767950
v 0.02221400 0.11212750 -0.01713450
v 0.02314100 0.11212750 -0.01713450
v 0.02389100 0.11212750 -0.01767950
v 0.02417800 0.11212750 -0.01856050
v 0.02389100 0.11212750 -0.01944250
v 0.02314100 0.11212750 -0.01998750
v 0.02221400 0.11212750 -0.01998750
v 0.02146400 0.11212750 -0.01944250
v 0.02117800 -0.10382050 -0.01856050
v 0.02146400 -0.10382050 -0.01767950
v 0.02221400 -0.10382050 -0.01713450
v 0.02314100 -0.10382050 -0.01713450
v 0.02389100 -0.10382050 -0.01767950
v 0.02417800 -0.10382050 -0.01856050
v 0.02389100 -0.10382050 -0.01944250
v 0.02314100 -0.10382050 -0.01998750
v 0.02221400 -0.10382050 -0.01998750
v 0.02146400 -0.10382050 -0.01944250
v 0.02267800 0.11212750 -0.01856050
v 0.02267800 -0.10382050 -0.01856050
v 0.04317800 0.11212750 -0.01856050
v 0.04346400 0.11212750 -0.01767950
v 0.04421400 0.11212750 -0.01713450
v 0.04514100 0.11212750 -0.01713450
v 0.04589100 0.11212750 -0.01767950
v 0.04617800 0.11212750 -0.01856050
v 0.04589100 0.11212750 -0.01944250
v 0.04514100 0.11212750 -0.01998750
v 0.04421400 0.11212750 -0.01998750
v 0.04346400 0.11212750 -0.01944250
v 0.04317800 -0.10382050 -0.01856050
v 0.04346400 -0.10382050 -0.01767950
v 0.04421400 -0.10382050 -0.01713450
v 0.04514100 -0.10382050 -0.01713450
v 0.04589100 -0.10382050 -0.01767950
v 0.04617800 -0.10382050 -0.01856050
v 0.04589100 -0.10382050 -0.01944250
v 0.04514100 -0.10382050 -0.01998750
v 0.04421400 -0.10382050 -0.01998750
v 0.04346400 -0.10382050 -0.01944250
v 0.04467800 0.11212750 -0.01856050
v 0.04467800 -0.10382050 -0.01856050
v 0.06517800 0.11212750 -0.01856050
v 0.06546400 0.11212750 -0.01767950
v 0.06621400 0.11212750 -0.01713450
v 0.06714100 0.11212750 -0.01713450
v 0.06789100 0.11212750 -0.01767950
v 0.06817800 0.11212750 -0.01856050
v 0.06789100 0.11212750 -0.01944250
v 0.06714100 0.11212750 -0.01998750
v 0.06621400 0.11212750 -0.01998750
v 0.06546400 0.11212750 -0.01944250
v 0.06517800 -0.10382050 -0.01856050
v 0.06546400 -0.10382050 -0.01767950
v 0.06621400 -0.10382050 -0.01713450
v 0.06714100 -0.10382050 -0.01713450
v 0.06789100 -0.10382050 -0.01767950
v 0.06817800 -0.10382050 -0.01856050
v 0.06789100 -0.10382050 -0.01944250
v 0.06714100 -0.10382050 -0.01998750
v 0.06621400 -0.10382050 -0.01998750
v 0.06546400 -0.10382050 -0.01944250
v 0.06667800 0.11212750 -0.01856050
v 0.06667800 -0.10382050 -0.01856050
v 0.08717800 0.11212750 -0.01856050
v 0.08746400 0.11212750 -0.01767950
v 0.08821400 0.11212750 -0.01713450
v 0.08914100 0.11212750 -0.01713450
v 0.08989100 0.11212750 -0.01767950
v 0.09017800 0.11212750 -0.01856050
v 0.08989100 0.11212750 -0.01944250
v 0.08914100 0.11212750 -0.01998750
v 0.08821400 0.11212750 -0.01998750
v 0.08746400 0.11212750 -0.01944250
v 0.08717800 -0.10382050 -0.01856050
v 0.08746400 -0.10382050 -0.01767950
v 0.08821400 -0.10382050 -0.01713450
v 0.08914100 -0.10382050 -0.01713450
v 0.08989100 -0.10382050 -0.01767950
v 0.09017800 -0.10382050 -0.01856050
v 0.08989100 -0.10382050 -0.01944250
v 0.08914100 -0.10382050 -0.01998750
v 0.08821400 -0.10382050 -0.01998750
v 0.08746400 -0.10382050 -0.01944250
v 0.08867800 0.11212750 -0.01856050
v 0.08867800 -0.10382050 -0.01856050
v 0.10917800 0.11212750 -0.01856050
v 0.10946400 0.11212750 -0.01767950
v 0.11021400 0.11212750 -0.01713450
v 0.11114100 0.11212750 -0.01713450
v 0.11189100 0.11212750 -0.01767950
v 0.11217800 0.11212750 -0.01856050
v 0.11189100 0.11212750 -0.01944250
v 0.11114100 0.11212750 -0.01998750
v 0.11021400 0.11212750 -0.01998750
v 0.10946400 0.11212750 -0.01944250
v 0.10917800 -0.10382050 -0.01856050
v 0.10946400 -0.10382050 -0.01767950
v 0.11021400 -0.10382050 -0.01713450
v 0.11114100 -0.10382050 -0.01713450
v 0.11189100 -0.10382050 -0.01767950
v 0.11217800 -0.10382050 -0.01856050
v 0.11189100 -0.10382050 -0.01944250
v 0.11114100 -0.10382050 -0.01998750
v 0.11021400 -0.10382050 -0.01998750
v 0.10946400 -0.10382050 -0.01944250
v 0.11067800 0.11212750 -0.01856050
v 0.11067800 -0.10382050 -0.01856050
v 0.13117800 0.11212750 -0.01856050
v 0.13146400 0.11212750 -0.01767950
v 0.13221400 0.11212750 -0.01713450
v 0.13314100 0.11212750 -0.01713450
v 0.13389100 0.11212750 -0.01767950
v 0.13417800 0.11212750 -0.01856050
v 0.13389100 0.11212750 -0.01944250
v 0.13314100 0.11212750 -0.01998750
v 0.13221400 0.11212750 -0.01998750
v 0.13146400 0.11212750 -0.01944250
v 0.13117800 -0.10382050 -0.01856050
v 0.13146400 -0.10382050 -0.01767950
v 0.13221400 -0.10382050 -0.01713450
v 0.13314100 -0.10382050 -0.01713450
v 0.13389100 -0.10382050 -0.01767950
v 0.13417800 -0.10382050 -0.01856050
v 0.13389100 -0.10382050 -0.01944250
v 0.13314100 -0.10382050 -0.01998750
v 0.13221400 -0.10382050 -0.01998750
v 0.13146400 -0.10382050 -0.01944250
v 0.13267800 0.11212750 -0.01856050
v 0.13267800 -0.10382050 -0.01856050
vn -0.0008 0.9943 0.1062
vn 0.0007 0.9056 0.4242
vn 0.0010 0.9943 -0.1067
vn -0.0006 0.8081 0.5890
vn -0.0000 0.0553 0.9985
vn -0.0000 0.0220 0.9998
vn -0.0032 -0.0553 0.9985
vn 0.0001 -0.1426 0.9898
vn -0.0005 -0.7417 0.6707
vn 0.0003 -0.8674 0.4976
vn -0.0004 -0.9942 0.1073
vn 0.0003 -0.9942 -0.1077
vn -0.0005 -0.8676 -0.4973
vn 0.0005 -0.7417 -0.6707
vn -0.0001 -0.1426 -0.9898
vn 0.0001 -0.0555 -0.9985
vn 0.0024 0.0422 -0.9991
vn -0.0000 0.1022 -0.9948
vn 0.0006 0.7411 -0.6714
vn -0.0006 0.8669 -0.4984
vn -0.2161 0.8210 0.5284
vn -0.0005 0.0023 1.0000
vn 0.0001 -0.0005 1.0000
vn 0.1662 -0.6846 0.7097
vn 0.2376 -0.9701 -0.0493
vn 0.1629 -0.7130 -0.6820
vn 0.0001 -0.0005 -1.0000
vn -0.0005 0.0023 -1.0000
vn -0.1983 0.8474 -0.4925
vn -0.4050 0.9143 -0.0000
vn -0.2435 0.9688 -0.0456
vn -0.3640 0.7271 0.5821
vn -0.0005 0.0010 1.0000
vn 0.0003 -0.0007 1.0000
vn 0.3476 -0.7606 0.5483
vn 0.3289 -0.7089 -0.6239
vn 0.0004 -0.0008 -1.0000
vn -0.0003 0.0007 -1.0000
vn -0.3664 0.7435 -0.5595
vn -0.5733 0.8193 -0.0000
vn -0.4737 0.6120 0.6333
vn -0.0008 0.0009 1.0000
vn 0.0003 -0.0005 1.0000
vn 0.5118 -0.6372 0.5763
vn 0.4579 -0.8866 0.0649
vn 0.4852 -0.5827 -0.6520
vn 0.0005 -0.0007 -1.0000
vn -0.0006 0.0007 -1.0000
vn -0.5089 0.6349 -0.5812
vn -0.8026 0.5965 -0.0000
vn -0.5667 0.4407 0.6961
vn -0.0005 0.0004 1.0000
vn 0.0014 -0.0011 1.0000
vn 0.6706 -0.5376 0.5111
vn 0.6637 -0.7474 0.0306
vn 0.6706 -0.5376 -0.5111
vn 0.0014 -0.0011 -1.0000
vn -0.0004 0.0003 -1.0000
vn -0.5667 0.4408 -0.6961
vn -0.7528 0.3930 0.5280
vn -0.0008 0.0005 1.0000
vn 0.0008 -0.0004 1.0000
vn 0.7202 -0.3453 0.6017
vn 0.8816 -0.4721 -0.0000
vn 0.7805 -0.6252 -0.0000
vn 0.7202 -0.3453 -0.6017
vn 0.0008 -0.0004 -1.0000
vn -0.0010 0.0006 -1.0000
vn -0.7271 0.3640 -0.5821
vn -0.9143 0.4050 -0.0000
vn -0.8654 0.1966 0.4610
vn -0.0017 0.0003 1.0000
vn 0.0005 -0.0001 1.0000
vn 0.7130 -0.1629 0.6820
vn 0.9751 -0.2218 -0.0000
vn 0.7130 -0.1629 -0.6820
vn 0.0005 -0.0001 -1.0000
vn -0.0023 0.0005 -1.0000
vn -0.8210 0.2161 -0.5284
vn -0.9945 0.0014 -0.1051
vn -0.9688 0.2435 0.0456
vn -0.8085 0.0008 0.5885
vn -0.0324 -0.0000 0.9995
vn 0.0326 -0.0001 0.9995
vn 0.8094 -0.0007 0.5873
vn 0.8097 -0.0014 -0.5868
vn 0.0887 -0.0001 -0.9961
vn -0.0246 -0.0000 -0.9997
vn -0.7405 0.0008 -0.6720
vn -0.9944 -0.0018 0.1060
vn -0.0473 -0.0000 0.9989
vn 0.0887 0.0001 0.9961
vn 0.9943 0.0005 0.1067
vn 0.9943 -0.0014 0.1064
vn 0.6838 0.0011 -0.7297
vn 0.0326 0.0001 -0.9995
vn -0.0616 -0.0000 -0.9981
vn -0.8664 -0.0010 -0.4993
vn -0.8474 -0.1983 0.4925
vn -0.8080 -0.0015 0.5892
vn -0.0023 -0.0005 1.0000
vn 0.0005 0.0001 1.0000
vn 0.6846 0.1662 0.7097
vn 0.8089 0.0008 0.5879
vn 0.9701 0.2375 -0.0492
vn 0.7130 0.1629 -0.6820
vn 0.0005 0.0001 -1.0000
vn -0.0023 -0.0005 -1.0000
vn -0.8474 -0.1983 -0.4925
vn -0.9192 -0.3927 -0.0288
vn -0.9738 -0.2276 -0.0000
vn -0.7010 -0.3274 0.6336
vn -0.0010 -0.0005 1.0000
vn 0.0008 0.0004 1.0000
vn 0.7202 0.3454 0.6017
vn 0.7202 0.3453 -0.6017
vn 0.0008 0.0004 -1.0000
vn -0.0010 -0.0006 -1.0000
vn -0.7271 -0.3640 -0.5821
vn -0.7803 -0.6254 -0.0003
vn -0.5534 -0.4571 0.6963
vn -0.0004 -0.0004 1.0000
vn 0.0014 0.0011 1.0000
vn 0.6706 0.5376 0.5111
vn 0.8815 0.4721 -0.0000
vn 0.6706 0.5376 -0.5111
vn 0.0014 0.0011 -1.0000
vn -0.0005 -0.0004 -1.0000
vn -0.5667 -0.4408 -0.6961
vn -0.5150 -0.6298 0.5816
vn -0.0007 -0.0009 1.0000
vn 0.0005 0.0007 1.0000
vn 0.4852 0.5827 0.6520
vn 0.6637 0.7474 -0.0306
vn 0.7801 0.6256 -0.0000
vn 0.4951 0.6265 -0.6020
vn 0.0005 0.0007 -1.0000
vn -0.0007 -0.0009 -1.0000
vn -0.4737 -0.6120 -0.6333
vn -0.5857 -0.8100 0.0290
vn -0.3640 -0.7271 0.5821
vn -0.0006 -0.0010 1.0000
vn 0.0004 0.0008 1.0000
vn 0.3289 0.7089 0.6239
vn 0.4579 0.8866 -0.0649
vn 0.3454 0.7202 -0.6017
vn 0.0004 0.0008 -1.0000
vn -0.0005 -0.0010 -1.0000
vn -0.3640 -0.7271 -0.5821
vn -0.4050 -0.9143 -0.0000
vn -0.1983 -0.8474 0.4925
vn -0.0005 -0.0023 1.0000
vn 0.0001 0.0005 1.0000
vn 0.1629 0.7130 0.6820
vn 0.2219 0.9751 -0.0000
vn 0.1629 0.7130 -0.6820
vn 0.0001 0.0005 -1.0000
vn -0.0005 -0.0023 -1.0000
vn -0.1983 -0.8474 -0.4925
vn -0.0010 -0.9943 -0.1067
vn -0.2280 -0.9737 -0.0000
vn -0.0007 -0.9056 0.4242
vn -0.0001 -0.0553 0.9985
vn 0.0001 0.0555 0.9985
vn 0.0006 0.6828 0.7306
vn 0.0005 0.8676 -0.4973
vn 0.0001 0.1426 -0.9898
vn -0.0000 -0.0424 -0.9991
vn -0.0006 -0.7411 -0.6714
vn 0.0010 -0.9943 0.1067
vn 0.0008 -0.8084 0.5886
vn -0.0000 -0.0220 0.9998
vn -0.0001 0.1426 0.9898
vn -0.0005 0.8090 0.5879
vn 0.0006 1.0000 -0.0000
vn -0.0004 0.9816 -0.1911
vn -0.0005 0.7418 -0.6706
vn -0.0000 0.0552 -0.9985
vn -0.0000 -0.1022 -0.9948
vn 0.0006 -0.8669 -0.4984
vn 0.1983 -0.8474 0.4925
vn 0.0005 -0.0023 1.0000
vn -0.0001 0.0005 1.0000
vn -0.1662 0.6846 0.7097
vn -0.2376 0.9701 -0.0492
vn -0.1780 0.7795 -0.6006
vn -0.0001 0.0002 -1.0000
vn 0.0005 -0.0023 -1.0000
vn 0.1983 -0.8474 -0.4925
vn 0.4050 -0.9143 -0.0000
vn 0.2283 -0.9736 -0.0000
vn 0.3640 -0.7271 0.5821
vn 0.0005 -0.0010 1.0000
vn -0.0003 0.0007 1.0000
vn -0.3476 0.7606 0.5483
vn -0.3595 0.7343 -0.5758
vn -0.0002 0.0005 -1.0000
vn 0.0003 -0.0007 -1.0000
vn 0.3664 -0.7435 -0.5595
vn 0.5965 -0.8026 -0.0000
vn 0.5210 -0.6452 0.5588
vn 0.0005 -0.0006 1.0000
vn -0.0003 0.0005 1.0000
vn -0.5118 0.6372 0.5763
vn -0.4721 0.8815 -0.0000
vn -0.4951 0.6265 -0.6020
vn -0.0005 0.0007 -1.0000
vn 0.0006 -0.0007 -1.0000
vn 0.5486 -0.6485 -0.5277
vn 0.7695 -0.6369 -0.0468
vn 0.5822 -0.4644 0.6674
vn 0.0003 -0.0003 1.0000
vn -0.0014 0.0011 1.0000
vn -0.6706 0.5376 0.5111
vn -0.6537 0.7568 -0.0000
vn -0.6829 0.5564 -0.4734
vn -0.0010 0.0008 -1.0000
vn 0.0004 -0.0003 -1.0000
vn 0.5817 -0.4662 -0.6666
vn 0.7010 -0.3274 0.6336
vn 0.0010 -0.0005 1.0000
vn -0.0005 0.0003 1.0000
vn -0.7343 0.3595 0.5758
vn -0.8816 0.4721 -0.0000
vn -0.7801 0.6256 -0.0000
vn -0.7606 0.3476 -0.5483
vn -0.0007 0.0003 -1.0000
vn 0.0010 -0.0006 -1.0000
vn 0.7271 -0.3640 -0.5821
vn 0.9192 -0.3928 -0.0287
vn 0.8474 -0.1983 0.4925
vn 0.0022 -0.0005 1.0000
vn -0.0004 0.0001 1.0000
vn -0.7423 0.1547 0.6520
vn -0.9701 0.2376 0.0493
vn -0.6846 0.1662 -0.7097
vn -0.0005 0.0001 -1.0000
vn 0.0022 -0.0005 -1.0000
vn 0.8474 -0.1983 -0.4925
vn 0.9944 -0.0018 -0.1060
vn 0.9736 -0.2282 -0.0000
vn 0.8664 -0.0010 0.4993
vn 0.0473 -0.0000 0.9989
vn -0.0478 0.0001 0.9989
vn -0.8094 0.0007 0.5873
vn -0.8672 0.0006 -0.4980
vn -0.0887 0.0001 -0.9961
vn 0.0246 -0.0000 -0.9997
vn 0.7411 -0.0010 -0.6714
vn 0.9942 0.0014 0.1077
vn 0.7411 0.0010 0.6714
vn -0.0615 -0.0000 0.9981
vn -1.0000 -0.0005 -0.0000
vn -1.0000 0.0008 0.0007
vn -0.7422 -0.0009 -0.6702
vn -0.0326 -0.0001 -0.9995
vn 0.0615 -0.0000 -0.9981
vn 0.8670 0.0005 -0.4983
vn 0.8474 0.1983 0.4925
vn 0.0022 0.0005 1.0000
vn 0.0324 0.0001 0.9995
vn -0.0004 -0.0001 1.0000
vn -0.7380 -0.1835 0.6494
vn -0.8102 -0.0012 0.5861
vn -0.9751 -0.2218 -0.0000
vn -0.7423 -0.1547 -0.6520
vn -0.0004 -0.0001 -1.0000
vn 0.0011 0.0003 -1.0000
vn 0.8623 0.2310 -0.4507
vn 0.9143 0.4050 -0.0000
vn 0.9688 0.2435 0.0456
vn 0.7271 0.3640 0.5821
vn 0.0010 0.0005 1.0000
vn -0.0008 -0.0004 1.0000
vn -0.7202 -0.3454 0.6017
vn -0.7238 -0.3428 -0.5988
vn -0.0005 -0.0002 -1.0000
vn 0.0008 0.0005 -1.0000
vn 0.7528 0.3931 -0.5280
vn 0.8026 0.5965 -0.0000
vn 0.5667 0.4407 0.6961
vn 0.0004 0.0004 1.0000
vn -0.0014 -0.0011 1.0000
vn -0.6706 -0.5376 0.5111
vn -0.8866 -0.4579 0.0649
vn -0.6230 -0.4994 -0.6021
vn -0.0014 -0.0011 -1.0000
vn 0.0005 0.0004 -1.0000
vn 0.5667 0.4407 -0.6961
vn 0.4737 0.6120 0.6333
vn 0.0007 0.0009 1.0000
vn -0.0005 -0.0007 1.0000
vn -0.4851 -0.5827 0.6520
vn -0.6536 -0.7560 0.0352
vn -0.7752 -0.6217 0.1122
vn -0.4766 -0.6188 -0.6244
vn -0.0005 -0.0007 -1.0000
vn 0.0007 0.0009 -1.0000
vn 0.4737 0.6120 -0.6333
vn 0.5733 0.8193 -0.0000
vn 0.3930 0.7528 0.5280
vn 0.0005 0.0008 1.0000
vn -0.0004 -0.0008 1.0000
vn -0.3289 -0.7089 0.6239
vn -0.4723 -0.8808 -0.0347
vn -0.3455 -0.6750 -0.6519
vn -0.0004 -0.0008 -1.0000
vn 0.0005 0.0010 -1.0000
vn 0.3640 0.7271 -0.5821
vn 0.4050 0.9143 -0.0000
vn 0.1966 0.8654 0.4610
vn 0.0003 0.0017 1.0000
vn -0.0001 -0.0005 1.0000
vn -0.1629 -0.7129 0.6821
vn -0.2057 -0.9776 0.0441
vn -0.1485 -0.6917 -0.7068
vn -0.0001 -0.0005 -1.0000
vn 0.0005 0.0023 -1.0000
vn 0.1983 0.8474 -0.4925
vn 0.2280 0.9737 -0.0000
vn -1.0000 -0.0000 -0.0000
vn -0.8090 -0.0000 0.5878
vn -0.9815 -0.0000 -0.1914
vn -0.6816 -0.0000 0.7317
vn -0.4096 -0.0000 0.9122
vn -0.2048 -0.0000 0.9788
vn 0.2048 -0.0000 0.9788
vn 0.4096 -0.0000 0.9123
vn 0.6816 -0.0000 0.7317
vn 0.8090 -0.0000 0.5878
vn 1.0000 -0.0000 -0.0000
vn 0.9815 -0.0000 -0.1914
vn 0.8676 -0.0000 -0.4972
vn 0.7410 -0.0000 -0.6715
vn 0.4096 -0.0000 -0.9123
vn 0.2048 -0.0000 -0.9788
vn -0.2048 -0.0000 -0.9788
vn -0.4096 -0.0000 -0.9123
vn -0.7410 -0.0000 -0.6715
vn -0.8676 -0.0000 -0.4972
vn -0.0000 1.0000 -0.0000
vn -0.0000 -1.0000 -0.0000
vn -0.4097 -0.0000 0.9122
vn 0.6816 -0.0000 0.7318
vn -0.9942 -0.0000 0.1077
vn -0.8676 -0.0000 0.4973
vn -0.9942 -0.0000 -0.1077
vn -0.7410 -0.0000 0.6715
vn 0.4096 -0.0000 0.9122
vn 0.7410 -0.0000 0.6715
vn 0.8676 -0.0000 0.4973
vn 0.9815 -0.0000 0.1914
vn 0.8090 -0.0000 -0.5878
vn 0.6816 -0.0000 -0.7317
vn 0.4096 -0.0000 -0.9122
vn -0.4097 -0.0000 -0.9122
vn -0.8676 -0.0000 -0.4973
vn -0.4096 -0.0000 -0.9122
vn -0.9815 -0.0000 -0.1913
vn 0.8676 -0.0000 0.4972
vn 0.9942 -0.0000 0.1077
vn 0.9942 -0.0000 -0.1076
vn 0.8676 -0.0000 -0.4973
vn 0.4097 -0.0000 0.9122
vn 0.4097 -0.0000 -0.9122
vn -0.6816 -0.0000 -0.7317
vn -0.8090 -0.0000 -0.5878
vn -0.4096 -0.0000 0.9123
vt 0.147415 0.703550
vt 0.199910 0.703492
vt 0.199913 0.703550
vt 0.147419 0.703492
vt 0.199901 0.703341
vt 0.147428 0.703341
vt 0.199890 0.703154
vt 0.147438 0.703154
vt 0.199881 0.703003
vt 0.147447 0.703003
vt 0.199878 0.702945
vt 0.147450 0.702945
vt 0.147065 0.703451
vt 0.147100 0.703303
vt 0.147142 0.703120
vt 0.147177 0.702971
vt 0.147190 0.702915
vt 0.146701 0.703382
vt 0.147052 0.703508
vt 0.146726 0.703330
vt 0.146793 0.703193
vt 0.146876 0.703024
vt 0.146943 0.702888
vt 0.146391 0.703185
vt 0.146428 0.703140
vt 0.146523 0.703021
vt 0.146640 0.702875
vt 0.146736 0.702756
vt 0.146968 0.702835
vt 0.146133 0.702928
vt 0.146179 0.702891
vt 0.146297 0.702796
vt 0.146444 0.702678
vt 0.146563 0.702583
vt 0.146772 0.702711
vt 0.146297 0.702796
vt 0.145989 0.702592
vt 0.146125 0.702526
vt 0.146294 0.702443
vt 0.146431 0.702376
vt 0.146483 0.702350
vt 0.146608 0.702547
vt 0.145936 0.702618
vt 0.145867 0.702254
vt 0.146016 0.702219
vt 0.146199 0.702176
vt 0.146347 0.702142
vt 0.146404 0.702129
vt 0.145769 0.701903
vt 0.145811 0.702267
vt 0.145826 0.701900
vt 0.145978 0.701891
vt 0.146165 0.701880
vt 0.146316 0.701872
vt 0.145769 0.672359
vt 0.145978 0.672371
vt 0.146165 0.672382
vt 0.146374 0.672394
vt 0.146374 0.701868
vt 0.146316 0.672390
vt 0.145826 0.672362
vt 0.145867 0.672008
vt 0.146016 0.672043
vt 0.146199 0.672086
vt 0.146347 0.672120
vt 0.146404 0.672133
vt 0.145936 0.671644
vt 0.145811 0.671995
vt 0.145989 0.671669
vt 0.146125 0.671736
vt 0.146294 0.671819
vt 0.146431 0.671886
vt 0.146133 0.671334
vt 0.146179 0.671371
vt 0.146297 0.671466
vt 0.146444 0.671584
vt 0.146563 0.671679
vt 0.146483 0.671911
vt 0.146428 0.671122
vt 0.146523 0.671241
vt 0.146640 0.671387
vt 0.146736 0.671506
vt 0.146772 0.671551
vt 0.146608 0.671715
vt 0.146391 0.671076
vt 0.146726 0.670932
vt 0.146793 0.671069
vt 0.146876 0.671238
vt 0.146943 0.671374
vt 0.146968 0.671427
vt 0.146701 0.670880
vt 0.147065 0.670811
vt 0.147100 0.670959
vt 0.147142 0.671142
vt 0.147177 0.671291
vt 0.147190 0.671347
vt 0.147415 0.670712
vt 0.147052 0.670754
vt 0.147419 0.670770
vt 0.147428 0.670921
vt 0.147438 0.671108
vt 0.147447 0.671259
vt 0.199913 0.670712
vt 0.199910 0.670770
vt 0.199901 0.670921
vt 0.199890 0.671108
vt 0.199881 0.671259
vt 0.147450 0.671317
vt 0.199878 0.671317
vt 0.200264 0.670811
vt 0.200229 0.670959
vt 0.200186 0.671142
vt 0.200152 0.671291
vt 0.200138 0.671347
vt 0.200628 0.670880
vt 0.200277 0.670754
vt 0.200602 0.670932
vt 0.200535 0.671069
vt 0.200453 0.671238
vt 0.200386 0.671374
vt 0.200937 0.671076
vt 0.200901 0.671122
vt 0.200806 0.671241
vt 0.200688 0.671387
vt 0.200593 0.671506
vt 0.200360 0.671427
vt 0.201195 0.671334
vt 0.201150 0.671371
vt 0.201031 0.671466
vt 0.200884 0.671584
vt 0.200766 0.671679
vt 0.200556 0.671551
vt 0.201340 0.671669
vt 0.201203 0.671736
vt 0.201034 0.671819
vt 0.200897 0.671886
vt 0.200845 0.671911
vt 0.200720 0.671715
vt 0.201392 0.671644
vt 0.201461 0.672008
vt 0.201313 0.672043
vt 0.201129 0.672086
vt 0.200981 0.672120
vt 0.200925 0.672133
vt 0.201560 0.672359
vt 0.201518 0.671995
vt 0.201502 0.672362
vt 0.201351 0.672371
vt 0.201164 0.672382
vt 0.201012 0.672390
vt 0.201560 0.701903
vt 0.201502 0.701900
vt 0.201164 0.701880
vt 0.200955 0.701868
vt 0.200955 0.672394
vt 0.201012 0.701872
vt 0.201351 0.701891
vt 0.201461 0.702254
vt 0.201313 0.702219
vt 0.201129 0.702176
vt 0.200981 0.702142
vt 0.200925 0.702129
vt 0.201392 0.702618
vt 0.201518 0.702267
vt 0.201340 0.702592
vt 0.201203 0.702526
vt 0.201034 0.702443
vt 0.200897 0.702376
vt 0.201195 0.702928
vt 0.201150 0.702891
vt 0.201031 0.702796
vt 0.200884 0.702678
vt 0.200766 0.702583
vt 0.200845 0.702350
vt 0.200901 0.703140
vt 0.200806 0.703021
vt 0.200688 0.702875
vt 0.200593 0.702756
vt 0.200556 0.702711
vt 0.200720 0.702547
vt 0.200937 0.703185
vt 0.200602 0.703330
vt 0.200535 0.703193
vt 0.200453 0.703024
vt 0.200386 0.702888
vt 0.200360 0.702835
vt 0.200628 0.703382
vt 0.200264 0.703451
vt 0.200229 0.703303
vt 0.200186 0.703120
vt 0.200152 0.702971
vt 0.200138 0.702915
vt 0.200277 0.703508
vt 0.148461 0.670794
vt 0.148504 0.703465
vt 0.148461 0.703465
vt 0.148504 0.670794
vt 0.148617 0.703465
vt 0.148617 0.670794
vt 0.148758 0.703465
vt 0.148758 0.670794
vt 0.148871 0.703465
vt 0.148871 0.670794
vt 0.148914 0.703465
vt 0.148914 0.670794
vt 0.148687 0.703465
vt 0.148687 0.670794
vt 0.151789 0.670794
vt 0.151832 0.703465
vt 0.151789 0.703465
vt 0.151832 0.670794
vt 0.151946 0.703465
vt 0.151946 0.670794
vt 0.152086 0.703465
vt 0.152086 0.670794
vt 0.152199 0.703465
vt 0.152199 0.670794
vt 0.152243 0.703465
vt 0.152243 0.670794
vt 0.152016 0.703465
vt 0.152016 0.670794
vt 0.155117 0.670794
vt 0.155161 0.703465
vt 0.155117 0.703465
vt 0.155161 0.670794
vt 0.155274 0.703465
vt 0.155274 0.670794
vt 0.155414 0.703465
vt 0.155414 0.670794
vt 0.155528 0.703465
vt 0.155528 0.670794
vt 0.155571 0.703465
vt 0.155571 0.670794
vt 0.155344 0.703465
vt 0.155344 0.670794
vt 0.158446 0.670794
vt 0.158489 0.703465
vt 0.158446 0.703465
vt 0.158489 0.670794
vt 0.158602 0.703465
vt 0.158602 0.670794
vt 0.158743 0.703465
vt 0.158743 0.670794
vt 0.158856 0.703465
vt 0.158856 0.670794
vt 0.158899 0.703465
vt 0.158899 0.670794
vt 0.158673 0.703465
vt 0.158673 0.670794
vt 0.161774 0.670794
vt 0.161817 0.703465
vt 0.161774 0.703465
vt 0.161817 0.670794
vt 0.161931 0.703465
vt 0.161931 0.670794
vt 0.162071 0.703465
vt 0.162071 0.670794
vt 0.162184 0.703465
vt 0.162184 0.670794
vt 0.162228 0.703465
vt 0.162228 0.670794
vt 0.162001 0.703465
vt 0.162001 0.670794
vt 0.165102 0.670794
vt 0.165146 0.703465
vt 0.165102 0.703465
vt 0.165146 0.670794
vt 0.165259 0.703465
vt 0.165259 0.670794
vt 0.165399 0.703465
vt 0.165399 0.670794
vt 0.165513 0.703465
vt 0.165513 0.670794
vt 0.165556 0.703465
vt 0.165556 0.670794
vt 0.165329 0.703465
vt 0.165329 0.670794
vt 0.168431 0.670794
vt 0.168474 0.703465
vt 0.168431 0.703465
vt 0.168474 0.670794
vt 0.168587 0.703465
vt 0.168587 0.670794
vt 0.168728 0.703465
vt 0.168728 0.670794
vt 0.168841 0.703465
vt 0.168841 0.670794
vt 0.168885 0.703465
vt 0.168885 0.670794
vt 0.168658 0.703465
vt 0.168658 0.670794
vt 0.171759 0.670794
vt 0.171802 0.703465
vt 0.171759 0.703465
vt 0.171802 0.670794
vt 0.171916 0.703465
vt 0.171916 0.670794
vt 0.172056 0.703465
vt 0.172056 0.670794
vt 0.172170 0.703465
vt 0.172170 0.670794
vt 0.172213 0.703465
vt 0.172213 0.670794
vt 0.171986 0.703465
vt 0.171986 0.670794
vt 0.175087 0.670794
vt 0.175131 0.703465
vt 0.175087 0.703465
vt 0.175131 0.670794
vt 0.175244 0.703465
vt 0.175244 0.670794
vt 0.175384 0.703465
vt 0.175384 0.670794
vt 0.175498 0.703465
vt 0.175498 0.670794
vt 0.175541 0.703465
vt 0.175541 0.670794
vt 0.175314 0.703465
vt 0.175314 0.670794
vt 0.178416 0.670794
vt 0.178459 0.703465
vt 0.178416 0.703465
vt 0.178459 0.670794
vt 0.178573 0.703465
vt 0.178573 0.670794
vt 0.178713 0.703465
vt 0.178713 0.670794
vt 0.178826 0.703465
vt 0.178826 0.670794
vt 0.178870 0.703465
vt 0.178870 0.670794
vt 0.178643 0.703465
vt 0.178643 0.670794
vt 0.181744 0.670794
vt 0.181787 0.703465
vt 0.181744 0.703465
vt 0.181787 0.670794
vt 0.181901 0.703465
vt 0.181901 0.670794
vt 0.182041 0.703465
vt 0.182041 0.670794
vt 0.182155 0.703465
vt 0.182155 0.670794
vt 0.182198 0.703465
vt 0.182198 0.670794
vt 0.181971 0.703465
vt 0.181971 0.670794
vt 0.185072 0.670794
vt 0.185116 0.703465
vt 0.185072 0.703465
vt 0.185116 0.670794
vt 0.185229 0.703465
vt 0.185229 0.670794
vt 0.185369 0.703465
vt 0.185369 0.670794
vt 0.185483 0.703465
vt 0.185483 0.670794
vt 0.185526 0.703465
vt 0.185526 0.670794
vt 0.185299 0.703465
vt 0.185299 0.670794
vt 0.188401 0.670794
vt 0.188444 0.703465
vt 0.188401 0.703465
vt 0.188444 0.670794
vt 0.188558 0.703465
vt 0.188558 0.670794
vt 0.188698 0.703465
vt 0.188698 0.670794
vt 0.188811 0.703465
vt 0.188811 0.670794
vt 0.188855 0.703465
vt 0.188855 0.670794
vt 0.188628 0.703465
vt 0.188628 0.670794
vt 0.191729 0.670794
vt 0.191772 0.703465
vt 0.191729 0.703465
vt 0.191772 0.670794
vt 0.191886 0.703465
vt 0.191886 0.670794
vt 0.192026 0.703465
vt 0.192026 0.670794
vt 0.192140 0.703465
vt 0.192140 0.670794
vt 0.192183 0.703465
vt 0.192183 0.670794
vt 0.191956 0.703465
vt 0.191956 0.670794
vt 0.195057 0.670794
vt 0.195101 0.703465
vt 0.195057 0.703465
vt 0.195101 0.670794
vt 0.195214 0.703465
vt 0.195214 0.670794
vt 0.195355 0.703465
vt 0.195355 0.670794
vt 0.195468 0.703465
vt 0.195468 0.670794
vt 0.195511 0.703465
vt 0.195511 0.670794
vt 0.195284 0.703465
vt 0.195284 0.670794
vt 0.198386 0.670794
vt 0.198429 0.703465
vt 0.198386 0.703465
vt 0.198429 0.670794
vt 0.198543 0.703465
vt 0.198543 0.670794
vt 0.198683 0.703465
vt 0.198683 0.670794
vt 0.198796 0.703465
vt 0.198796 0.670794
vt 0.198840 0.703465
vt 0.198840 0.670794
vt 0.198613 0.703465
vt 0.198613 0.670794
s 1
f 11/1/1 2/2/2 1/3/3
f 12/4/4 3/5/5 2/2/2
f 13/6/6 4/7/7 3/5/5
f 14/8/8 5/9/9 4/7/7
f 15/10/10 6/11/11 5/9/9
f 16/12/12 7/9/13 6/11/11
f 17/10/14 8/7/15 7/9/13
f 18/8/16 9/5/17 8/7/15
f 19/6/18 10/2/19 9/5/17
f 20/4/20 1/3/3 10/2/19
f 11/1/1 22/13/21 12/4/4
f 12/4/4 23/14/22 13/6/6
f 13/6/6 24/15/23 14/8/8
f 14/8/8 25/16/24 15/10/10
f 15/10/10 26/17/25 16/12/12
f 26/17/25 17/10/14 16/12/12
f 27/16/26 18/8/16 17/10/14
f 28/15/27 19/6/18 18/8/16
f 29/14/28 20/4/20 19/6/18
f 30/13/29 11/1/1 20/4/20
f 31/18/30 22/13/21 21/19/31
f 32/20/32 23/14/22 22/13/21
f 33/21/33 24/15/23 23/14/22
f 34/22/34 25/16/24 24/15/23
f 35/23/35 26/17/25 25/16/24
f 26/17/25 37/23/36 27/16/26
f 27/16/26 38/22/37 28/15/27
f 28/15/27 39/21/38 29/14/28
f 29/14/28 40/20/39 30/13/29
f 30/13/29 31/18/30 21/19/31
f 41/24/40 32/20/32 31/18/30
f 42/25/41 33/21/33 32/20/32
f 43/26/42 34/22/34 33/21/33
f 44/27/43 35/23/35 34/22/34
f 45/28/44 36/29/45 35/23/35
f 36/29/45 47/28/46 37/23/36
f 37/23/36 48/27/47 38/22/37
f 38/22/37 49/26/48 39/21/38
f 39/21/38 50/25/49 40/20/39
f 40/20/39 41/24/40 31/18/30
f 51/30/50 42/25/41 41/24/40
f 52/31/51 43/26/42 42/25/41
f 53/32/52 44/27/43 43/26/42
f 54/33/53 45/28/44 44/27/43
f 55/34/54 46/35/55 45/28/44
f 46/35/55 57/34/56 47/28/46
f 47/28/46 58/33/57 48/27/47
f 48/27/47 59/36/58 49/26/48
f 49/26/48 60/31/59 50/25/49
f 50/25/49 51/30/50 41/24/40
f 51/30/50 62/37/60 52/31/51
f 52/31/51 63/38/61 53/32/52
f 53/32/52 64/39/62 54/33/53
f 54/33/53 65/40/63 55/34/54
f 55/34/54 66/41/64 56/42/65
f 66/41/64 57/34/56 56/42/65
f 67/40/66 58/33/57 57/34/56
f 68/39/67 59/36/58 58/33/57
f 69/38/68 60/31/59 59/36/58
f 70/37/69 51/30/50 60/31/59
f 61/43/70 72/44/71 62/37/60
f 62/37/60 73/45/72 63/38/61
f 63/38/61 74/46/73 64/39/62
f 64/39/62 75/47/74 65/40/63
f 65/40/63 76/48/75 66/41/64
f 76/48/75 67/40/66 66/41/64
f 77/47/76 68/39/67 67/40/66
f 78/46/77 69/38/68 68/39/67
f 79/45/78 70/37/69 69/38/68
f 80/44/79 61/43/70 70/37/69
f 81/49/80 72/44/71 71/50/81
f 82/51/82 73/45/72 72/44/71
f 83/52/83 74/46/73 73/45/72
f 84/53/84 75/47/74 74/46/73
f 85/54/85 76/48/75 75/47/74
f 76/48/75 87/54/86 77/47/76
f 77/47/76 88/53/87 78/46/77
f 78/46/77 89/52/88 79/45/78
f 79/45/78 90/51/89 80/44/79
f 80/44/79 81/49/80 71/50/81
f 91/55/90 82/51/82 81/49/80
f 82/51/82 93/56/91 83/52/83
f 93/56/91 84/53/84 83/52/83
f 94/57/92 85/54/85 84/53/84
f 85/54/85 96/58/93 86/59/94
f 96/58/93 87/54/86 86/59/94
f 97/60/95 88/53/87 87/54/86
f 98/57/96 89/52/88 88/53/87
f 99/56/97 90/51/89 89/52/88
f 100/61/98 81/49/80 90/51/89
f 91/55/90 102/62/99 92/61/100
f 92/61/100 103/63/101 93/56/91
f 93/56/91 104/64/102 94/57/92
f 94/57/92 105/65/103 95/60/104
f 95/60/104 106/66/105 96/58/93
f 106/66/105 97/60/95 96/58/93
f 107/65/106 98/57/96 97/60/95
f 108/64/107 99/56/97 98/57/96
f 109/63/108 100/61/98 99/56/97
f 110/62/109 91/55/90 100/61/98
f 111/67/110 102/62/99 101/68/111
f 112/69/112 103/63/101 102/62/99
f 113/70/113 104/64/102 103/63/101
f 114/71/114 105/65/103 104/64/102
f 115/72/115 106/66/105 105/65/103
f 106/66/105 117/72/116 107/65/106
f 107/65/106 118/71/117 108/64/107
f 108/64/107 119/70/118 109/63/108
f 109/63/108 120/69/119 110/62/109
f 110/62/109 111/67/110 101/68/111
f 121/73/120 112/69/112 111/67/110
f 122/74/121 113/70/113 112/69/112
f 123/75/122 114/71/114 113/70/113
f 124/76/123 115/72/115 114/71/114
f 125/77/124 116/78/125 115/72/115
f 116/78/125 127/77/126 117/72/116
f 117/72/116 128/76/127 118/71/117
f 118/71/117 129/75/128 119/70/118
f 119/70/118 130/74/129 120/69/119
f 120/69/119 121/73/120 111/67/110
f 121/73/120 132/79/130 122/74/121
f 122/74/121 133/80/131 123/75/122
f 123/75/122 134/81/132 124/76/123
f 124/76/123 135/82/133 125/77/124
f 125/77/124 136/83/134 126/84/135
f 136/83/134 127/77/126 126/84/135
f 137/82/136 128/76/127 127/77/126
f 138/81/137 129/75/128 128/76/127
f 139/80/138 130/74/129 129/75/128
f 140/79/139 121/73/120 130/74/129
f 131/85/140 142/86/141 132/79/130
f 132/79/130 143/87/142 133/80/131
f 133/80/131 144/88/143 134/81/132
f 134/81/132 145/89/144 135/82/133
f 135/82/133 146/90/145 136/83/134
f 146/90/145 137/82/136 136/83/134
f 147/89/146 138/81/137 137/82/136
f 148/88/147 139/80/138 138/81/137
f 149/87/148 140/79/139 139/80/138
f 150/86/149 131/85/140 140/79/139
f 141/91/150 152/92/151 142/86/141
f 142/86/141 153/93/152 143/87/142
f 143/87/142 154/94/153 144/88/143
f 144/88/143 155/95/154 145/89/144
f 145/89/144 156/96/155 146/90/145
f 156/96/155 147/89/146 146/90/145
f 157/95/156 148/88/147 147/89/146
f 158/94/157 149/87/148 148/88/147
f 159/93/158 150/86/149 149/87/148
f 160/92/159 141/91/150 150/86/149
f 161/97/160 152/92/151 151/98/161
f 162/99/162 153/93/152 152/92/151
f 163/100/163 154/94/153 153/93/152
f 164/101/164 155/95/154 154/94/153
f 165/102/165 156/96/155 155/95/154
f 156/96/155 167/102/166 157/95/156
f 157/95/156 168/101/167 158/94/157
f 158/94/157 169/100/168 159/93/158
f 159/93/158 170/99/169 160/92/159
f 160/92/159 161/97/160 151/98/161
f 171/103/170 162/99/162 161/97/160
f 172/104/171 163/100/163 162/99/162
f 173/105/172 164/101/164 163/100/163
f 174/106/173 165/102/165 164/101/164
f 175/107/174 166/108/175 165/102/165
f 176/109/176 167/102/166 166/108/175
f 177/107/177 168/101/167 167/102/166
f 178/106/178 169/100/168 168/101/167
f 179/105/179 170/99/169 169/100/168
f 180/104/180 161/97/160 170/99/169
f 171/103/170 182/110/181 172/104/171
f 172/104/171 183/111/182 173/105/172
f 173/105/172 184/112/183 174/106/173
f 174/106/173 185/113/184 175/107/174
f 175/107/174 186/114/185 176/109/176
f 186/114/185 177/107/177 176/109/176
f 187/113/186 178/106/178 177/107/177
f 188/112/187 179/105/179 178/106/178
f 189/111/188 180/104/180 179/105/179
f 190/110/189 171/103/170 180/104/180
f 191/115/190 182/110/181 181/116/191
f 192/117/192 183/111/182 182/110/181
f 193/118/193 184/112/183 183/111/182
f 194/119/194 185/113/184 184/112/183
f 195/120/195 186/114/185 185/113/184
f 186/114/185 197/120/196 187/113/186
f 187/113/186 198/119/197 188/112/187
f 188/112/187 199/118/198 189/111/188
f 189/111/188 200/117/199 190/110/189
f 190/110/189 191/115/190 181/116/191
f 201/121/200 192/117/192 191/115/190
f 202/122/201 193/118/193 192/117/192
f 203/123/202 194/119/194 193/118/193
f 204/124/203 195/120/195 194/119/194
f 205/125/204 196/126/205 195/120/195
f 196/126/205 207/125/206 197/120/196
f 197/120/196 208/124/207 198/119/197
f 198/119/197 209/123/208 199/118/198
f 199/118/198 210/122/209 200/117/199
f 200/117/199 201/121/200 191/115/190
f 211/127/210 202/122/201 201/121/200
f 212/128/211 203/123/202 202/122/201
f 213/129/212 204/124/203 203/123/202
f 214/130/213 205/125/204 204/124/203
f 215/131/214 206/132/215 205/125/204
f 206/132/215 217/131/216 207/125/206
f 207/125/206 218/130/217 208/124/207
f 208/124/207 219/129/218 209/123/208
f 209/123/208 220/128/219 210/122/209
f 210/122/209 211/127/210 201/121/200
f 211/127/210 222/133/220 212/128/211
f 212/128/211 223/134/221 213/129/212
f 213/129/212 224/135/222 214/130/213
f 214/130/213 225/136/223 215/131/214
f 215/131/214 226/137/224 216/138/225
f 226/137/224 217/131/216 216/138/225
f 227/136/226 218/130/217 217/131/216
f 228/135/227 219/129/218 218/130/217
f 229/134/228 220/128/219 219/129/218
f 230/133/229 211/127/210 220/128/219
f 221/139/230 232/140/231 222/133/220
f 222/133/220 233/141/232 223/134/221
f 223/134/221 234/142/233 224/135/222
f 224/135/222 235/143/234 225/136/223
f 225/136/223 236/144/235 226/137/224
f 236/144/235 227/136/226 226/137/224
f 237/143/236 228/135/227 227/136/226
f 238/142/237 229/134/228 228/135/227
f 239/141/238 230/133/229 229/134/228
f 240/140/239 221/139/230 230/133/229
f 241/145/240 232/140/231 231/146/241
f 242/147/242 233/141/232 232/140/231
f 243/148/243 234/142/233 233/141/232
f 244/149/244 235/143/234 234/142/233
f 245/150/245 236/144/235 235/143/234
f 236/144/235 247/150/246 237/143/236
f 237/143/236 248/149/247 238/142/237
f 238/142/237 249/148/248 239/141/238
f 239/141/238 250/147/249 240/140/239
f 240/140/239 241/145/240 231/146/241
f 251/151/250 242/147/242 241/145/240
f 252/152/251 243/148/243 242/147/242
f 243/148/243 254/153/252 244/149/244
f 254/153/252 245/150/245 244/149/244
f 245/150/245 256/154/253 246/155/254
f 256/154/253 247/150/246 246/155/254
f 257/156/255 248/149/247 247/150/246
f 258/153/256 249/148/248 248/149/247
f 259/157/257 250/147/249 249/148/248
f 260/152/258 241/145/240 250/147/249
f 251/151/250 262/158/259 252/152/251
f 252/152/251 263/159/260 253/157/261
f 253/157/261 264/160/262 254/153/252
f 254/153/252 265/161/263 255/156/264
f 255/156/264 266/162/265 256/154/253
f 266/162/265 257/156/255 256/154/253
f 267/161/266 258/153/256 257/156/255
f 268/160/267 259/157/257 258/153/256
f 269/159/268 260/152/258 259/157/257
f 270/158/269 251/151/250 260/152/258
f 271/163/270 262/158/259 261/164/271
f 272/165/272 263/159/260 262/158/259
f 273/166/273 264/160/262 263/159/260
f 274/167/274 265/161/263 264/160/262
f 275/168/275 266/162/265 265/161/263
f 266/162/265 277/168/276 267/161/266
f 267/161/266 278/167/277 268/160/267
f 268/160/267 279/166/278 269/159/268
f 269/159/268 280/165/279 270/158/269
f 270/158/269 271/163/270 261/164/271
f 281/169/280 272/165/272 271/163/270
f 282/170/281 273/166/273 272/165/272
f 283/171/282 274/167/274 273/166/273
f 284/172/283 275/168/275 274/167/274
f 285/173/284 276/174/285 275/168/275
f 276/174/285 287/173/286 277/168/276
f 277/168/276 288/172/287 278/167/277
f 278/167/277 289/171/288 279/166/278
f 279/166/278 290/170/289 280/165/279
f 280/165/279 281/169/280 271/163/270
f 281/169/280 292/175/290 282/170/281
f 282/170/281 293/176/291 283/171/282
f 283/171/282 294/177/292 284/172/283
f 284/172/283 295/178/293 285/173/284
f 285/173/284 296/179/294 286/180/295
f 296/179/294 287/173/286 286/180/295
f 297/178/296 288/172/287 287/173/286
f 298/177/297 289/171/288 288/172/287
f 299/176/298 290/170/289 289/171/288
f 300/175/299 281/169/280 290/170/289
f 291/181/300 302/182/301 292/175/290
f 292/175/290 303/183/302 293/176/291
f 293/176/291 304/184/303 294/177/292
f 294/177/292 305/185/304 295/178/293
f 295/178/293 306/186/305 296/179/294
f 306/186/305 297/178/296 296/179/294
f 307/185/306 298/177/297 297/178/296
f 308/184/307 299/176/298 298/177/297
f 309/183/308 300/175/299 299/176/298
f 310/182/309 291/181/300 300/175/299
f 301/187/310 312/188/311 302/182/301
f 302/182/301 313/189/312 303/183/302
f 303/183/302 314/190/313 304/184/303
f 304/184/303 315/191/314 305/185/304
f 305/185/304 316/192/315 306/186/305
f 316/192/315 307/185/306 306/186/305
f 317/191/316 308/184/307 307/185/306
f 318/190/317 309/183/308 308/184/307
f 319/189/318 310/182/309 309/183/308
f 320/188/319 301/187/310 310/182/309
f 1/3/3 312/188/311 311/193/320
f 2/2/2 313/189/312 312/188/311
f 3/5/5 314/190/313 313/189/312
f 4/7/7 315/191/314 314/190/313
f 5/9/9 316/192/315 315/191/314
f 316/192/315 7/9/13 317/191/316
f 317/191/316 8/7/15 318/190/317
f 318/190/317 9/5/17 319/189/318
f 319/189/318 10/2/19 320/188/319
f 320/188/319 1/3/3 311/193/320
f 331/194/321 322/195/322 321/196/323
f 332/197/324 323/198/325 322/195/322
f 333/199/326 324/200/327 323/198/325
f 334/201/328 325/202/329 324/200/327
f 335/203/330 326/204/331 325/202/329
f 336/205/332 327/202/333 326/204/331
f 337/203/334 328/200/335 327/202/333
f 338/201/336 329/198/337 328/200/335
f 339/199/338 330/195/339 329/198/337
f 340/197/340 321/196/323 330/195/339
f 322/195/341 341/206/341 321/196/341
f 324/200/341 341/206/341 323/198/341
f 326/204/341 341/206/341 325/202/341
f 328/200/341 341/206/341 327/202/341
f 330/195/341 341/206/341 329/198/341
f 332/197/342 342/207/342 333/199/342
f 334/201/342 342/207/342 335/203/342
f 336/205/342 342/207/342 337/203/342
f 338/201/342 342/207/342 339/199/342
f 340/197/342 342/207/342 331/194/342
f 353/208/321 344/209/322 343/210/323
f 354/211/324 345/212/343 344/209/322
f 355/213/326 346/214/327 345/212/343
f 356/215/328 347/216/344 346/214/327
f 357/217/330 348/218/331 347/216/344
f 358/219/332 349/216/333 348/218/331
f 359/217/334 350/214/335 349/216/333
f 360/215/336 351/212/337 350/214/335
f 361/213/338 352/209/339 351/212/337
f 362/211/340 343/210/323 352/209/339
f 344/209/341 363/220/341 343/210/341
f 346/214/341 363/220/341 345/212/341
f 348/218/341 363/220/341 347/216/341
f 350/214/341 363/220/341 349/216/341
f 352/209/341 363/220/341 351/212/341
f 354/211/342 364/221/342 355/213/342
f 356/215/342 364/221/342 357/217/342
f 358/219/342 364/221/342 359/217/342
f 360/215/342 364/221/342 361/213/342
f 362/211/342 364/221/342 353/208/342
f 375/222/345 366/223/346 365/224/347
f 376/225/348 367/226/343 366/223/346
f 377/227/326 368/228/327 367/226/343
f 378/229/349 369/230/350 368/228/327
f 379/231/351 370/232/352 369/230/350
f 380/233/331 371/230/353 370/232/352
f 381/231/354 372/228/355 371/230/353
f 382/229/336 373/226/337 372/228/355
f 383/227/356 374/223/339 373/226/337
f 384/225/357 365/224/347 374/223/339
f 366/223/341 385/234/341 365/224/341
f 368/228/341 385/234/341 367/226/341
f 370/232/341 385/234/341 369/230/341
f 372/228/341 385/234/341 371/230/341
f 374/223/341 385/234/341 373/226/341
f 376/225/342 386/235/342 377/227/342
f 378/229/342 386/235/342 379/231/342
f 380/233/342 386/235/342 381/231/342
f 382/229/342 386/235/342 383/227/342
f 384/225/342 386/235/342 375/222/342
f 397/236/321 388/237/322 387/238/323
f 398/239/324 389/240/325 388/237/322
f 399/241/326 390/242/327 389/240/325
f 400/243/349 391/244/329 390/242/327
f 401/245/330 392/246/331 391/244/329
f 402/247/332 393/244/333 392/246/331
f 403/245/334 394/242/355 393/244/333
f 404/243/336 395/240/337 394/242/355
f 405/241/358 396/237/339 395/240/337
f 406/239/340 387/238/323 396/237/339
f 388/237/341 407/248/341 387/238/341
f 390/242/341 407/248/341 389/240/341
f 392/246/341 407/248/341 391/244/341
f 394/242/341 407/248/341 393/244/341
f 396/237/341 407/248/341 395/240/341
f 398/239/342 408/249/342 399/241/342
f 400/243/342 408/249/342 401/245/342
f 402/247/342 408/249/342 403/245/342
f 404/243/342 408/249/342 405/241/342
f 406/239/342 408/249/342 397/236/342
f 419/250/321 410/251/322 409/252/323
f 420/253/324 411/254/343 410/251/322
f 421/255/326 412/256/327 411/254/343
f 422/257/349 413/258/329 412/256/327
f 423/259/330 414/260/331 413/258/329
f 424/261/332 415/258/333 414/260/331
f 425/259/334 416/256/355 415/258/333
f 426/257/336 417/254/337 416/256/355
f 427/255/356 418/251/339 417/254/337
f 428/253/340 409/252/323 418/251/339
f 410/251/341 429/262/341 409/252/341
f 412/256/341 429/262/341 411/254/341
f 414/260/341 429/262/341 413/258/341
f 416/256/341 429/262/341 415/258/341
f 418/251/341 429/262/341 417/254/341
f 420/253/342 430/263/342 421/255/342
f 422/257/342 430/263/342 423/259/342
f 424/261/342 430/263/342 425/259/342
f 426/257/342 430/263/342 427/255/342
f 428/253/342 430/263/342 419/250/342
f 441/264/321 432/265/322 431/266/359
f 442/267/324 433/268/343 432/265/322
f 443/269/326 434/270/327 433/268/343
f 444/271/349 435/272/329 434/270/327
f 445/273/330 436/274/331 435/272/329
f 446/275/332 437/272/333 436/274/331
f 447/273/334 438/270/355 437/272/333
f 448/271/336 439/268/337 438/270/355
f 449/269/358 440/265/339 439/268/337
f 450/267/340 431/266/359 440/265/339
f 432/265/341 451/276/341 431/266/341
f 434/270/341 451/276/341 433/268/341
f 436/274/341 451/276/341 435/272/341
f 438/270/341 451/276/341 437/272/341
f 440/265/341 451/276/341 439/268/341
f 442/267/342 452/277/342 443/269/342
f 444/271/342 452/277/342 445/273/342
f 446/275/342 452/277/342 447/273/342
f 448/271/342 452/277/342 449/269/342
f 450/267/342 452/277/342 441/264/342
f 463/278/321 454/279/322 453/280/359
f 464/281/324 455/282/343 454/279/322
f 465/283/326 456/284/327 455/282/343
f 466/285/349 457/286/350 456/284/327
f 467/287/360 458/288/361 457/286/350
f 468/289/362 459/286/363 458/288/361
f 469/287/334 460/284/355 459/286/363
f 470/285/336 461/282/337 460/284/355
f 471/283/358 462/279/339 461/282/337
f 472/281/340 453/280/359 462/279/339
f 454/279/341 473/290/341 453/280/341
f 456/284/341 473/290/341 455/282/341
f 458/288/341 473/290/341 457/286/341
f 460/284/341 473/290/341 459/286/341
f 462/279/341 473/290/341 461/282/341
f 464/281/342 474/291/342 465/283/342
f 466/285/342 474/291/342 467/287/342
f 468/289/342 474/291/342 469/287/342
f 470/285/342 474/291/342 471/283/342
f 472/281/342 474/291/342 463/278/342
f 485/292/321 476/293/322 475/294/323
f 486/295/324 477/296/325 476/293/322
f 487/297/326 478/298/327 477/296/325
f 488/299/349 479/300/329 478/298/327
f 489/301/330 480/302/331 479/300/329
f 490/303/332 481/300/333 480/302/331
f 491/301/334 482/298/355 481/300/333
f 492/299/336 483/296/337 482/298/355
f 493/297/356 484/293/339 483/296/337
f 494/295/340 475/294/323 484/293/339
f 476/293/341 495/304/341 475/294/341
f 478/298/341 495/304/341 477/296/341
f 480/302/341 495/304/341 479/300/341
f 482/298/341 495/304/341 481/300/341
f 484/293/341 495/304/341 483/296/341
f 486/295/342 496/305/342 487/297/342
f 488/299/342 496/305/342 489/301/342
f 490/303/342 496/305/342 491/301/342
f 492/299/342 496/305/342 493/297/342
f 494/295/342 496/305/342 485/292/342
f 507/306/345 498/307/322 497/308/347
f 508/309/324 499/310/343 498/307/322
f 509/311/326 500/312/327 499/310/343
f 510/313/364 501/314/329 500/312/327
f 511/315/330 502/316/331 501/314/329
f 512/317/332 503/314/333 502/316/331
f 513/315/334 504/312/365 503/314/333
f 514/313/336 505/310/337 504/312/365
f 515/311/356 506/307/366 505/310/337
f 516/309/367 497/308/347 506/307/366
f 498/307/341 517/318/341 497/308/341
f 500/312/341 517/318/341 499/310/341
f 502/316/341 517/318/341 501/314/341
f 504/312/341 517/318/341 503/314/341
f 506/307/341 517/318/341 505/310/341
f 508/309/342 518/319/342 509/311/342
f 510/313/342 518/319/342 511/315/342
f 512/317/342 518/319/342 513/315/342
f 514/313/342 518/319/342 515/311/342
f 516/309/342 518/319/342 507/306/342
f 529/320/321 520/321/322 519/322/323
f 530/323/324 521/324/325 520/321/322
f 531/325/326 522/326/327 521/324/325
f 532/327/349 523/328/329 522/326/327
f 533/329/330 524/330/331 523/328/329
f 534/331/332 525/328/333 524/330/331
f 535/329/334 526/326/355 525/328/333
f 536/327/336 527/324/337 526/326/355
f 537/325/356 528/321/339 527/324/337
f 538/323/357 519/322/323 528/321/339
f 520/321/341 539/332/341 519/322/341
f 522/326/341 539/332/341 521/324/341
f 524/330/341 539/332/341 523/328/341
f 526/326/341 539/332/341 525/328/341
f 528/321/341 539/332/341 527/324/341
f 530/323/342 540/333/342 531/325/342
f 532/327/342 540/333/342 533/329/342
f 534/331/342 540/333/342 535/329/342
f 536/327/342 540/333/342 537/325/342
f 538/323/342 540/333/342 529/320/342
f 551/334/345 542/335/346 541/336/347
f 552/337/348 543/338/343 542/335/346
f 553/339/326 544/340/327 543/338/343
f 554/341/364 545/342/350 544/340/327
f 555/343/360 546/344/352 545/342/350
f 556/345/331 547/342/353 546/344/352
f 557/343/354 548/340/365 547/342/353
f 558/341/336 549/338/337 548/340/365
f 559/339/356 550/335/339 549/338/337
f 560/337/357 541/336/347 550/335/339
f 542/335/341 561/346/341 541/336/341
f 544/340/341 561/346/341 543/338/341
f 546/344/341 561/346/341 545/342/341
f 548/340/341 561/346/341 547/342/341
f 550/335/341 561/346/341 549/338/341
f 552/337/342 562/347/342 553/339/342
f 554/341/342 562/347/342 555/343/342
f 556/345/342 562/347/342 557/343/342
f 558/341/342 562/347/342 559/339/342
f 560/337/342 562/347/342 551/334/342
f 573/348/321 564/349/322 563/350/323
f 574/351/324 565/352/343 564/349/322
f 575/353/326 566/354/327 565/352/343
f 576/355/364 567/356/329 566/354/327
f 577/357/330 568/358/331 567/356/329
f 578/359/332 569/356/333 568/358/331
f 579/357/334 570/354/365 569/356/333
f 580/355/336 571/352/337 570/354/365
f 581/353/356 572/349/339 571/352/337
f 582/351/340 563/350/323 572/349/339
f 564/349/341 583/360/341 563/350/341
f 566/354/341 583/360/341 565/352/341
f 568/358/341 583/360/341 567/356/341
f 570/354/341 583/360/341 569/356/341
f 572/349/341 583/360/341 571/352/341
f 574/351/342 584/361/342 575/353/342
f 576/355/342 584/361/342 577/357/342
f 578/359/342 584/361/342 579/357/342
f 580/355/342 584/361/342 581/353/342
f 582/351/342 584/361/342 573/348/342
f 595/362/321 586/363/322 585/364/323
f 596/365/324 587/366/343 586/363/322
f 597/367/326 588/368/327 587/366/343
f 598/369/364 589/370/329 588/368/327
f 599/371/330 590/372/331 589/370/329
f 600/373/332 591/370/333 590/372/331
f 601/371/334 592/368/365 591/370/333
f 602/369/336 593/366/337 592/368/365
f 603/367/356 594/363/339 593/366/337
f 604/365/340 585/364/323 594/363/339
f 586/363/341 605/374/341 585/364/341
f 588/368/341 605/374/341 587/366/341
f 590/372/341 605/374/341 589/370/341
f 592/368/341 605/374/341 591/370/341
f 594/363/341 605/374/341 593/366/341
f 596/365/342 606/375/342 597/367/342
f 598/369/342 606/375/342 599/371/342
f 600/373/342 606/375/342 601/371/342
f 602/369/342 606/375/342 603/367/342
f 604/365/342 606/375/342 595/362/342
f 617/376/321 608/377/322 607/378/323
f 618/379/324 609/380/325 608/377/322
f 619/381/326 610/382/327 609/380/325
f 620/383/364 611/384/329 610/382/327
f 621/385/330 612/386/331 611/384/329
f 622/387/332 613/384/333 612/386/331
f 623/385/334 614/382/365 613/384/333
f 624/383/336 615/380/337 614/382/365
f 625/381/358 616/377/339 615/380/337
f 626/379/340 607/378/323 616/377/339
f 608/377/341 627/388/341 607/378/341
f 610/382/341 627/388/341 609/380/341
f 612/386/341 627/388/341 611/384/341
f 614/382/341 627/388/341 613/384/341
f 616/377/341 627/388/341 615/380/341
f 618/379/342 628/389/342 619/381/342
f 620/383/342 628/389/342 621/385/342
f 622/387/342 628/389/342 623/385/342
f 624/383/342 628/389/342 625/381/342
f 626/379/342 628/389/342 617/376/342
f 639/390/321 630/391/322 629/392/323
f 640/393/324 631/394/343 630/391/322
f 641/395/326 632/396/327 631/394/343
f 642/397/328 633/398/344 632/396/327
f 643/399/330 634/400/331 633/398/344
f 644/401/332 635/398/333 634/400/331
f 645/399/334 636/396/335 635/398/333
f 646/397/336 637/394/337 636/396/335
f 647/395/338 638/391/339 637/394/337
f 648/393/340 629/392/323 638/391/339
f 630/391/341 649/402/341 629/392/341
f 632/396/341 649/402/341 631/394/341
f 634/400/341 649/402/341 633/398/341
f 636/396/341 649/402/341 635/398/341
f 638/391/341 649/402/341 637/394/341
f 640/393/342 650/403/342 641/395/342
f 642/397/342 650/403/342 643/399/342
f 644/401/342 650/403/342 645/399/342
f 646/397/342 650/403/342 647/395/342
f 648/393/342 650/403/342 639/390/342
f 661/404/321 652/405/322 651/406/323
f 662/407/324 653/408/368 652/405/322
f 663/409/326 654/410/327 653/408/368
f 664/411/328 655/412/329 654/410/327
f 665/413/330 656/414/331 655/412/329
f 666/415/332 657/412/333 656/414/331
f 667/413/334 658/410/335 657/412/333
f 668/411/336 659/408/337 658/410/335
f 669/409/338 660/405/339 659/408/337
f 670/407/340 651/406/323 660/405/339
f 652/405/341 671/416/341 651/406/341
f 654/410/341 671/416/341 653/408/341
f 656/414/341 671/416/341 655/412/341
f 658/410/341 671/416/341 657/412/341
f 660/405/341 671/416/341 659/408/341
f 662/407/342 672/417/342 663/409/342
f 664/411/342 672/417/342 665/413/342
f 666/415/342 672/417/342 667/413/342
f 668/411/342 672/417/342 669/409/342
f 670/407/342 672/417/342 661/404/342
f 11/1/1 12/4/4 2/2/2
f 12/4/4 13/6/6 3/5/5
f 13/6/6 14/8/8 4/7/7
f 14/8/8 15/10/10 5/9/9
f 15/10/10 16/12/12 6/11/11
f 16/12/12 17/10/14 7/9/13
f 17/10/14 18/8/16 8/7/15
f 18/8/16 19/6/18 9/5/17
f 19/6/18 20/4/20 10/2/19
f 20/4/20 11/1/1 1/3/3
f 11/1/1 21/19/31 22/13/21
f 12/4/4 22/13/21 23/14/22
f 13/6/6 23/14/22 24/15/23
f 14/8/8 24/15/23 25/16/24
f 15/10/10 25/16/24 26/17/25
f 26/17/25 27/16/26 17/10/14
f 27/16/26 28/15/27 18/8/16
f 28/15/27 29/14/28 19/6/18
f 29/14/28 30/13/29 20/4/20
f 30/13/29 21/19/31 11/1/1
f 31/18/30 32/20/32 22/13/21
f 32/20/32 33/21/33 23/14/22
f 33/21/33 34/22/34 24/15/23
f 34/22/34 35/23/35 25/16/24
f 35/23/35 36/29/45 26/17/25
f 26/17/25 36/29/45 37/23/36
f 27/16/26 37/23/36 38/22/37
f 28/15/27 38/22/37 39/21/38
f 29/14/28 39/21/38 40/20/39
f 30/13/29 40/20/39 31/18/30
f 41/24/40 42/25/41 32/20/32
f 42/25/41 43/26/42 33/21/33
f 43/26/42 44/27/43 34/22/34
f 44/27/43 45/28/44 35/23/35
f 45/28/44 46/35/55 36/29/45
f 36/29/45 46/35/55 47/28/46
f 37/23/36 47/28/46 48/27/47
f 38/22/37 48/27/47 49/26/48
f 39/21/38 49/26/48 50/25/49
f 40/20/39 50/25/49 41/24/40
f 51/30/50 52/31/51 42/25/41
f 52/31/51 53/32/52 43/26/42
f 53/32/52 54/33/53 44/27/43
f 54/33/53 55/34/54 45/28/44
f 55/34/54 56/42/65 46/35/55
f 46/35/55 56/42/65 57/34/56
f 47/28/46 57/34/56 58/33/57
f 48/27/47 58/33/57 59/36/58
f 49/26/48 59/36/58 60/31/59
f 50/25/49 60/31/59 51/30/50
f 51/30/50 61/43/70 62/37/60
f 52/31/51 62/37/60 63/38/61
f 53/32/52 63/38/61 64/39/62
f 54/33/53 64/39/62 65/40/63
f 55/34/54 65/40/63 66/41/64
f 66/41/64 67/40/66 57/34/56
f 67/40/66 68/39/67 58/33/57
f 68/39/67 69/38/68 59/36/58
f 69/38/68 70/37/69 60/31/59
f 70/37/69 61/43/70 51/30/50
f 61/43/70 71/50/81 72/44/71
f 62/37/60 72/44/71 73/45/72
f 63/38/61 73/45/72 74/46/73
f 64/39/62 74/46/73 75/47/74
f 65/40/63 75/47/74 76/48/75
f 76/48/75 77/47/76 67/40/66
f 77/47/76 78/46/77 68/39/67
f 78/46/77 79/45/78 69/38/68
f 79/45/78 80/44/79 70/37/69
f 80/44/79 71/50/81 61/43/70
f 81/49/80 82/51/82 72/44/71
f 82/51/82 83/52/83 73/45/72
f 83/52/83 84/53/84 74/46/73
f 84/53/84 85/54/85 75/47/74
f 85/54/85 86/59/94 76/48/75
f 76/48/75 86/59/94 87/54/86
f 77/47/76 87/54/86 88/53/87
f 78/46/77 88/53/87 89/52/88
f 79/45/78 89/52/88 90/51/89
f 80/44/79 90/51/89 81/49/80
f 91/55/90 92/61/100 82/51/82
f 82/51/82 92/61/100 93/56/91
f 93/56/91 94/57/92 84/53/84
f 94/57/92 95/60/104 85/54/85
f 85/54/85 95/60/104 96/58/93
f 96/58/93 97/60/95 87/54/86
f 97/60/95 98/57/96 88/53/87
f 98/57/96 99/56/97 89/52/88
f 99/56/97 100/61/98 90/51/89
f 100/61/98 91/55/90 81/49/80
f 91/55/90 101/68/111 102/62/99
f 92/61/100 102/62/99 103/63/101
f 93/56/91 103/63/101 104/64/102
f 94/57/92 104/64/102 105/65/103
f 95/60/104 105/65/103 106/66/105
f 106/66/105 107/65/106 97/60/95
f 107/65/106 108/64/107 98/57/96
f 108/64/107 109/63/108 99/56/97
f 109/63/108 110/62/109 100/61/98
f 110/62/109 101/68/111 91/55/90
f 111/67/110 112/69/112 102/62/99
f 112/69/112 113/70/113 103/63/101
f 113/70/113 114/71/114 104/64/102
f 114/71/114 115/72/115 105/65/103
f 115/72/115 116/78/125 106/66/105
f 106/66/105 116/78/125 117/72/116
f 107/65/106 117/72/116 118/71/117
f 108/64/107 118/71/117 119/70/118
f 109/63/108 119/70/118 120/69/119
f 110/62/109 120/69/119 111/67/110
f 121/73/120 122/74/121 112/69/112
f 122/74/121 123/75/122 113/70/113
f 123/75/122 124/76/123 114/71/114
f 124/76/123 125/77/124 115/72/115
f 125/77/124 126/84/135 116/78/125
f 116/78/125 126/84/135 127/77/126
f 117/72/116 127/77/126 128/76/127
f 118/71/117 128/76/127 129/75/128
f 119/70/118 129/75/128 130/74/129
f 120/69/119 130/74/129 121/73/120
f 121/73/120 131/85/140 132/79/130
f 122/74/121 132/79/130 133/80/131
f 123/75/122 133/80/131 134/81/132
f 124/76/123 134/81/132 135/82/133
f 125/77/124 135/82/133 136/83/134
f 136/83/134 137/82/136 127/77/126
f 137/82/136 138/81/137 128/76/127
f 138/81/137 139/80/138 129/75/128
f 139/80/138 140/79/139 130/74/129
f 140/79/139 131/85/140 121/73/120
f 131/85/140 141/91/150 142/86/141
f 132/79/130 142/86/141 143/87/142
f 133/80/131 143/87/142 144/88/143
f 134/81/132 144/88/143 145/89/144
f 135/82/133 145/89/144 146/90/145
f 146/90/145 147/89/146 137/82/136
f 147/89/146 148/88/147 138/81/137
f 148/88/147 149/87/148 139/80/138
f 149/87/148 150/86/149 140/79/139
f 150/86/149 141/91/150 131/85/140
f 141/91/150 151/98/161 152/92/151
f 142/86/141 152/92/151 153/93/152
f 143/87/142 153/93/152 154/94/153
f 144/88/143 154/94/153 155/95/154
f 145/89/144 155/95/154 156/96/155
f 156/96/155 157/95/156 147/89/146
f 157/95/156 158/94/157 148/88/147
f 158/94/157 159/93/158 149/87/148
f 159/93/158 160/92/159 150/86/149
f 160/92/159 151/98/161 141/91/150
f 161/97/160 162/99/162 152/92/151
f 162/99/162 163/100/163 153/93/152
f 163/100/163 164/101/164 154/94/153
f 164/101/164 165/102/165 155/95/154
f 165/102/165 166/108/175 156/96/155
f 156/96/155 166/108/175 167/102/166
f 157/95/156 167/102/166 168/101/167
f 158/94/157 168/101/167 169/100/168
f 159/93/158 169/100/168 170/99/169
f 160/92/159 170/99/169 161/97/160
f 171/103/170 172/104/171 162/99/162
f 172/104/171 173/105/172 163/100/163
f 173/105/172 174/106/173 164/101/164
f 174/106/173 175/107/174 165/102/165
f 175/107/174 176/109/176 166/108/175
f 176/109/176 177/107/177 167/102/166
f 177/107/177 178/106/178 168/101/167
f 178/106/178 179/105/179 169/100/168
f 179/105/179 180/104/180 170/99/169
f 180/104/180 171/103/170 161/97/160
f 171/103/170 181/116/191 182/110/181
f 172/104/171 182/110/181 183/111/182
f 173/105/172 183/111/182 184/112/183
f 174/106/173 184/112/183 185/113/184
f 175/107/174 185/113/184 186/114/185
f 186/114/185 187/113/186 177/107/177
f 187/113/186 188/112/187 178/106/178
f 188/112/187 189/111/188 179/105/179
f 189/111/188 190/110/189 180/104/180
f 190/110/189 181/116/191 171/103/170
f 191/115/190 192/117/192 182/110/181
f 192/117/192 193/118/193 183/111/182
f 193/118/193 194/119/194 184/112/183
f 194/119/194 195/120/195 185/113/184
f 195/120/195 196/126/205 186/114/185
f 186/114/185 196/126/205 197/120/196
f 187/113/186 197/120/196 198/119/197
f 188/112/187 198/119/197 199/118/198
f 189/111/188 199/118/198 200/117/199
f 190/110/189 200/117/199 191/115/190
f 201/121/200 202/122/201 192/117/192
f 202/122/201 203/123/202 193/118/193
f 203/123/202 204/124/203 194/119/194
f 204/124/203 205/125/204 195/120/195
f 205/125/204 206/132/215 196/126/205
f 196/126/205 206/132/215 207/125/206
f 197/120/196 207/125/206 208/124/207
f 198/119/197 208/124/207 209/123/208
f 199/118/198 209/123/208 210/122/209
f 200/117/199 210/122/209 201/121/200
f 211/127/210 212/128/211 202/122/201
f 212/128/211 213/129/212 203/123/202
f 213/129/212 214/130/213 204/124/203
f 214/130/213 215/131/214 205/125/204
f 215/131/214 216/138/225 206/132/215
f 206/132/215 216/138/225 217/131/216
f 207/125/206 217/131/216 218/130/217
f 208/124/207 218/130/217 219/129/218
f 209/123/208 219/129/218 220/128/219
f 210/122/209 220/128/219 211/127/210
f 211/127/210 221/139/230 222/133/220
f 212/128/211 222/133/220 223/134/221
f 213/129/212 223/134/221 224/135/222
f 214/130/213 224/135/222 225/136/223
f 215/131/214 225/136/223 226/137/224
f 226/137/224 227/136/226 217/131/216
f 227/136/226 228/135/227 218/130/217
f 228/135/227 229/134/228 219/129/218
f 229/134/228 230/133/229 220/128/219
f 230/133/229 221/139/230 211/127/210
f 221/139/230 231/146/241 232/140/231
f 222/133/220 232/140/231 233/141/232
f 223/134/221 233/141/232 234/142/233
f 224/135/222 234/142/233 235/143/234
f 225/136/223 235/143/234 236/144/235
f 236/144/235 237/143/236 227/136/226
f 237/143/236 238/142/237 228/135/227
f 238/142/237 239/141/238 229/134/228
f 239/141/238 240/140/239 230/133/229
f 240/140/239 231/146/241 221/139/230
f 241/145/240 242/147/242 232/140/231
f 242/147/242 243/148/243 233/141/232
f 243/148/243 244/149/244 234/142/233
f 244/149/244 245/150/245 235/143/234
f 245/150/245 246/155/254 236/144/235
f 236/144/235 246/155/254 247/150/246
f 237/143/236 247/150/246 248/149/247
f 238/142/237 248/149/247 249/148/248
f 239/141/238 249/148/248 250/147/249
f 240/140/239 250/147/249 241/145/240
f 251/151/250 252/152/251 242/147/242
f 252/152/251 253/157/261 243/148/243
f 243/148/243 253/157/261 254/153/252
f 254/153/252 255/156/264 245/150/245
f 245/150/245 255/156/264 256/154/253
f 256/154/253 257/156/255 247/150/246
f 257/156/255 258/153/256 248/149/247
f 258/153/256 259/157/257 249/148/248
f 259/157/257 260/152/258 250/147/249
f 260/152/258 251/151/250 241/145/240
f 251/151/250 261/164/271 262/158/259
f 252/152/251 262/158/259 263/159/260
f 253/157/261 263/159/260 264/160/262
f 254/153/252 264/160/262 265/161/263
f 255/156/264 265/161/263 266/162/265
f 266/162/265 267/161/266 257/156/255
f 267/161/266 268/160/267 258/153/256
f 268/160/267 269/159/268 259/157/257
f 269/159/268 270/158/269 260/152/258
f 270/158/269 261/164/271 251/151/250
f 271/163/270 272/165/272 262/158/259
f 272/165/272 273/166/273 263/159/260
f 273/166/273 274/167/274 264/160/262
f 274/167/274 275/168/275 265/161/263
f 275/168/275 276/174/285 266/162/265
f 266/162/265 276/174/285 277/168/276
f 267/161/266 277/168/276 278/167/277
f 268/160/267 278/167/277 279/166/278
f 269/159/268 279/166/278 280/165/279
f 270/158/269 280/165/279 271/163/270
f 281/169/280 282/170/281 272/165/272
f 282/170/281 283/171/282 273/166/273
f 283/171/282 284/172/283 274/167/274
f 284/172/283 285/173/284 275/168/275
f 285/173/284 286/180/295 276/174/285
f 276/174/285 286/180/295 287/173/286
f 277/168/276 287/173/286 288/172/287
f 278/167/277 288/172/287 289/171/288
f 279/166/278 289/171/288 290/170/289
f 280/165/279 290/170/289 281/169/280
f 281/169/280 291/181/300 292/175/290
f 282/170/281 292/175/290 293/176/291
f 283/171/282 293/176/291 294/177/292
f 284/172/283 294/177/292 295/178/293
f 285/173/284 295/178/293 296/179/294
f 296/179/294 297/178/296 287/173/286
f 297/178/296 298/177/297 288/172/287
f 298/177/297 299/176/298 289/171/288
f 299/176/298 300/175/299 290/170/289
f 300/175/299 291/181/300 281/169/280
f 291/181/300 301/187/310 302/182/301
f 292/175/290 302/182/301 303/183/302
f 293/176/291 303/183/302 304/184/303
f 294/177/292 304/184/303 305/185/304
f 295/178/293 305/185/304 306/186/305
f 306/186/305 307/185/306 297/178/296
f 307/185/306 308/184/307 298/177/297
f 308/184/307 309/183/308 299/176/298
f 309/183/308 310/182/309 300/175/299
f 310/182/309 301/187/310 291/181/300
f 301/187/310 311/193/320 312/188/311
f 302/182/301 312/188/311 313/189/312
f 303/183/302 313/189/312 314/190/313
f 304/184/303 314/190/313 315/191/314
f 305/185/304 315/191/314 316/192/315
f 316/192/315 317/191/316 307/185/306
f 317/191/316 318/190/317 308/184/307
f 318/190/317 319/189/318 309/183/308
f 319/189/318 320/188/319 310/182/309
f 320/188/319 311/193/320 301/187/310
f 1/3/3 2/2/2 312/188/311
f 2/2/2 3/5/5 313/189/312
f 3/5/5 4/7/7 314/190/313
f 4/7/7 5/9/9 315/191/314
f 5/9/9 6/11/11 316/192/315
f 316/192/315 6/11/11 7/9/13
f 317/191/316 7/9/13 8/7/15
f 318/190/317 8/7/15 9/5/17
f 319/189/318 9/5/17 10/2/19
f 320/188/319 10/2/19 1/3/3
f 331/194/321 332/197/324 322/195/322
f 332/197/324 333/199/326 323/198/325
f 333/199/326 334/201/328 324/200/327
f 334/201/328 335/203/330 325/202/329
f 335/203/330 336/205/332 326/204/331
f 336/205/332 337/203/334 327/202/333
f 337/203/334 338/201/336 328/200/335
f 338/201/336 339/199/338 329/198/337
f 339/199/338 340/197/340 330/195/339
f 340/197/340 331/194/321 321/196/323
f 322/195/341 323/198/341 341/206/341
f 324/200/341 325/202/341 341/206/341
f 326/204/341 327/202/341 341/206/341
f 328/200/341 329/198/341 341/206/341
f 330/195/341 321/196/341 341/206/341
f 332/197/342 331/194/342 342/207/342
f 334/201/342 333/199/342 342/207/342
f 336/205/342 335/203/342 342/207/342
f 338/201/342 337/203/342 342/207/342
f 340/197/342 339/199/342 342/207/342
f 353/208/321 354/211/324 344/209/322
f 354/211/324 355/213/326 345/212/343
f 355/213/326 356/215/328 346/214/327
f 356/215/328 357/217/330 347/216/344
f 357/217/330 358/219/332 348/218/331
f 358/219/332 359/217/334 349/216/333
f 359/217/334 360/215/336 350/214/335
f 360/215/336 361/213/338 351/212/337
f 361/213/338 362/211/340 352/209/339
f 362/211/340 353/208/321 343/210/323
f 344/209/341 345/212/341 363/220/341
f 346/214/341 347/216/341 363/220/341
f 348/218/341 349/216/341 363/220/341
f 350/214/341 351/212/341 363/220/341
f 352/209/341 343/210/341 363/220/341
f 354/211/342 353/208/342 364/221/342
f 356/215/342 355/213/342 364/221/342
f 358/219/342 357/217/342 364/221/342
f 360/215/342 359/217/342 364/221/342
f 362/211/342 361/213/342 364/221/342
f 375/222/345 376/225/348 366/223/346
f 376/225/348 377/227/326 367/226/343
f 377/227/326 378/229/349 368/228/327
f 378/229/349 379/231/351 369/230/350
f 379/231/351 380/233/331 370/232/352
f 380/233/331 381/231/354 371/230/353
f 381/231/354 382/229/336 372/228/355
f 382/229/336 383/227/356 373/226/337
f 383/227/356 384/225/357 374/223/339
f 384/225/357 375/222/345 365/224/347
f 366/223/341 367/226/341 385/234/341
f 368/228/341 369/230/341 385/234/341
f 370/232/341 371/230/341 385/234/341
f 372/228/341 373/226/341 385/234/341
f 374/223/341 365/224/341 385/234/341
f 376/225/342 375/222/342 386/235/342
f 378/229/342 377/227/342 386/235/342
f 380/233/342 379/231/342 386/235/342
f 382/229/342 381/231/342 386/235/342
f 384/225/342 383/227/342 386/235/342
f 397/236/321 398/239/324 388/237/322
f 398/239/324 399/241/326 389/240/325
f 399/241/326 400/243/349 390/242/327
f 400/243/349 401/245/330 391/244/329
f 401/245/330 402/247/332 392/246/331
f 402/247/332 403/245/334 393/244/333
f 403/245/334 404/243/336 394/242/355
f 404/243/336 405/241/358 395/240/337
f 405/241/358 406/239/340 396/237/339
f 406/239/340 397/236/321 387/238/323
f 388/237/341 389/240/341 407/248/341
f 390/242/341 391/244/341 407/248/341
f 392/246/341 393/244/341 407/248/341
f 394/242/341 395/240/341 407/248/341
f 396/237/341 387/238/341 407/248/341
f 398/239/342 397/236/342 408/249/342
f 400/243/342 399/241/342 408/249/342
f 402/247/342 401/245/342 408/249/342
f 404/243/342 403/245/342 408/249/342
f 406/239/342 405/241/342 408/249/342
f 419/250/321 420/253/324 410/251/322
f 420/253/324 421/255/326 411/254/343
f 421/255/326 422/257/349 412/256/327
f 422/257/349 423/259/330 413/258/329
f 423/259/330 424/261/332 414/260/331
f 424/261/332 425/259/334 415/258/333
f 425/259/334 426/257/336 416/256/355
f 426/257/336 427/255/356 417/254/337
f 427/255/356 428/253/340 418/251/339
f 428/253/340 419/250/321 409/252/323
f 410/251/341 411/254/341 429/262/341
f 412/256/341 413/258/341 429/262/341
f 414/260/341 415/258/341 429/262/341
f 416/256/341 417/254/341 429/262/341
f 418/251/341 409/252/341 429/262/341
f 420/253/342 419/250/342 430/263/342
f 422/257/342 421/255/342 430/263/342
f 424/261/342 423/259/342 430/263/342
f 426/257/342 425/259/342 430/263/342
f 428/253/342 427/255/342 430/263/342
f 441/264/321 442/267/324 432/265/322
f 442/267/324 443/269/326 433/268/343
f 443/269/326 444/271/349 434/270/327
f 444/271/349 445/273/330 435/272/329
f 445/273/330 446/275/332 436/274/331
f 446/275/332 447/273/334 437/272/333
f 447/273/334 448/271/336 438/270/355
f 448/271/336 449/269/358 439/268/337
f 449/269/358 450/267/340 440/265/339
f 450/267/340 441/264/321 431/266/359
f 432/265/341 433/268/341 451/276/341
f 434/270/341 435/272/341 451/276/341
f 436/274/341 437/272/341 451/276/341
f 438/270/341 439/268/341 451/276/341
f 440/265/341 431/266/341 451/276/341
f 442/267/342 441/264/342 452/277/342
f 444/271/342 443/269/342 452/277/342
f 446/275/342 445/273/342 452/277/342
f 448/271/342 447/273/342 452/277/342
f 450/267/342 449/269/342 452/277/342
f 463/278/321 464/281/324 454/279/322
f 464/281/324 465/283/326 455/282/343
f 465/283/326 466/285/349 456/284/327
f 466/285/349 467/287/360 457/286/350
f 467/287/360 468/289/362 458/288/361
f 468/289/362 469/287/334 459/286/363
f 469/287/334 470/285/336 460/284/355
f 470/285/336 471/283/358 461/282/337
f 471/283/358 472/281/340 462/279/339
f 472/281/340 463/278/321 453/280/359
f 454/279/341 455/282/341 473/290/341
f 456/284/341 457/286/341 473/290/341
f 458/288/341 459/286/341 473/290/341
f 460/284/341 461/282/341 473/290/341
f 462/279/341 453/280/341 473/290/341
f 464/281/342 463/278/342 474/291/342
f 466/285/342 465/283/342 474/291/342
f 468/289/342 467/287/342 474/291/342
f 470/285/342 469/287/342 474/291/342
f 472/281/342 471/283/342 474/291/342
f 485/292/321 486/295/324 476/293/322
f 486/295/324 487/297/326 477/296/325
f 487/297/326 488/299/349 478/298/327
f 488/299/349 489/301/330 479/300/329
f 489/301/330 490/303/332 480/302/331
f 490/303/332 491/301/334 481/300/333
f 491/301/334 492/299/336 482/298/355
f 492/299/336 493/297/356 483/296/337
f 493/297/356 494/295/340 484/293/339
f 494/295/340 485/292/321 475/294/323
f 476/293/341 477/296/341 495/304/341
f 478/298/341 479/300/341 495/304/341
f 480/302/341 481/300/341 495/304/341
f 482/298/341 483/296/341 495/304/341
f 484/293/341 475/294/341 495/304/341
f 486/295/342 485/292/342 496/305/342
f 488/299/342 487/297/342 496/305/342
f 490/303/342 489/301/342 496/305/342
f 492/299/342 491/301/342 496/305/342
f 494/295/342 493/297/342 496/305/342
f 507/306/345 508/309/324 498/307/322
f 508/309/324 509/311/326 499/310/343
f 509/311/326 510/313/364 500/312/327
f 510/313/364 511/315/330 501/314/329
f 511/315/330 512/317/332 502/316/331
f 512/317/332 513/315/334 503/314/333
f 513/315/334 514/313/336 504/312/365
f 514/313/336 515/311/356 505/310/337
f 515/311/356 516/309/367 506/307/366
f 516/309/367 507/306/345 497/308/347
f 498/307/341 499/310/341 517/318/341
f 500/312/341 501/314/341 517/318/341
f 502/316/341 503/314/341 517/318/341
f 504/312/341 505/310/341 517/318/341
f 506/307/341 497/308/341 517/318/341
f 508/309/342 507/306/342 518/319/342
f 510/313/342 509/311/342 518/319/342
f 512/317/342 511/315/342 518/319/342
f 514/313/342 513/315/342 518/319/342
f 516/309/342 515/311/342 518/319/342
f 529/320/321 530/323/324 520/321/322
f 530/323/324 531/325/326 521/324/325
f 531/325/326 532/327/349 522/326/327
f 532/327/349 533/329/330 523/328/329
f 533/329/330 534/331/332 524/330/331
f 534/331/332 535/329/334 525/328/333
f 535/329/334 536/327/336 526/326/355
f 536/327/336 537/325/356 527/324/337
f 537/325/356 538/323/357 528/321/339
f 538/323/357 529/320/321 519/322/323
f 520/321/341 521/324/341 539/332/341
f 522/326/341 523/328/341 539/332/341
f 524/330/341 525/328/341 539/332/341
f 526/326/341 527/324/341 539/332/341
f 528/321/341 519/322/341 539/332/341
f 530/323/342 529/320/342 540/333/342
f 532/327/342 531/325/342 540/333/342
f 534/331/342 533/329/342 540/333/342
f 536/327/342 535/329/342 540/333/342
f 538/323/342 537/325/342 540/333/342
f 551/334/345 552/337/348 542/335/346
f 552/337/348 553/339/326 543/338/343
f 553/339/326 554/341/364 544/340/327
f 554/341/364 555/343/360 545/342/350
f 555/343/360 556/345/331 546/344/352
f 556/345/331 557/343/354 547/342/353
f 557/343/354 558/341/336 548/340/365
f 558/341/336 559/339/356 549/338/337
f 559/339/356 560/337/357 550/335/339
f 560/337/357 551/334/345 541/336/347
f 542/335/341 543/338/341 561/346/341
f 544/340/341 545/342/341 561/346/341
f 546/344/341 547/342/341 561/346/341
f 548/340/341 549/338/341 561/346/341
f 550/335/341 541/336/341 561/346/341
f 552/337/342 551/334/342 562/347/342
f 554/341/342 553/339/342 562/347/342
f 556/345/342 555/343/342 562/347/342
f 558/341/342 557/343/342 562/347/342
f 560/337/342 559/339/342 562/347/342
f 573/348/321 574/351/324 564/349/322
f 574/351/324 575/353/326 565/352/343
f 575/353/326 576/355/364 566/354/327
f 576/355/364 577/357/330 567/356/329
f 577/357/330 578/359/332 568/358/331
f 578/359/332 579/357/334 569/356/333
f 579/357/334 580/355/336 570/354/365
f 580/355/336 581/353/356 571/352/337
f 581/353/356 582/351/340 572/349/339
f 582/351/340 573/348/321 563/350/323
f 564/349/341 565/352/341 583/360/341
f 566/354/341 567/356/341 583/360/341
f 568/358/341 569/356/341 583/360/341
f 570/354/341 571/352/341 583/360/341
f 572/349/341 563/350/341 583/360/341
f 574/351/342 573/348/342 584/361/342
f 576/355/342 575/353/342 584/361/342
f 578/359/342 577/357/342 584/361/342
f 580/355/342 579/357/342 584/361/342
f 582/351/342 581/353/342 584/361/342
f 595/362/321 596/365/324 586/363/322
f 596/365/324 597/367/326 587/366/343
f 597/367/326 598/369/364 588/368/327
f 598/369/364 599/371/330 589/370/329
f 599/371/330 600/373/332 590/372/331
f 600/373/332 601/371/334 591/370/333
f 601/371/334 602/369/336 592/368/365
f 602/369/336 603/367/356 593/366/337
f 603/367/356 604/365/340 594/363/339
f 604/365/340 595/362/321 585/364/323
f 586/363/341 587/366/341 605/374/341
f 588/368/341 589/370/341 605/374/341
f 590/372/341 591/370/341 605/374/341
f 592/368/341 593/366/341 605/374/341
f 594/363/341 585/364/341 605/374/341
f 596/365/342 595/362/342 606/375/342
f 598/369/342 597/367/342 606/375/342
f 600/373/342 599/371/342 606/375/342
f 602/369/342 601/371/342 606/375/342
f 604/365/342 603/367/342 606/375/342
f 617/376/321 618/379/324 608/377/322
f 618/379/324 619/381/326 609/380/325
f 619/381/326 620/383/364 610/382/327
f 620/383/364 621/385/330 611/384/329
f 621/385/330 622/387/332 612/386/331
f 622/387/332 623/385/334 613/384/333
f 623/385/334 624/383/336 614/382/365
f 624/383/336 625/381/358 615/380/337
f 625/381/358 626/379/340 616/377/339
f 626/379/340 617/376/321 607/378/323
f 608/377/341 609/380/341 627/388/341
f 610/382/341 611/384/341 627/388/341
f 612/386/341 613/384/341 627/388/341
f 614/382/341 615/380/341 627/388/341
f 616/377/341 607/378/341 627/388/341
f 618/379/342 617/376/342 628/389/342
f 620/383/342 619/381/342 628/389/342
f 622/387/342 621/385/342 628/389/342
f 624/383/342 623/385/342 628/389/342
f 626/379/342 625/381/342 628/389/342
f 639/390/321 640/393/324 630/391/322
f 640/393/324 641/395/326 631/394/343
f 641/395/326 642/397/328 632/396/327
f 642/397/328 643/399/330 633/398/344
f 643/399/330 644/401/332 634/400/331
f 644/401/332 645/399/334 635/398/333
f 645/399/334 646/397/336 636/396/335
f 646/397/336 647/395/338 637/394/337
f 647/395/338 648/393/340 638/391/339
f 648/393/340 639/390/321 629/392/323
f 630/391/341 631/394/341 649/402/341
f 632/396/341 633/398/341 649/402/341
f 634/400/341 635/398/341 649/402/341
f 636/396/341 637/394/341 649/402/341
f 638/391/341 629/392/341 649/402/341
f 640/393/342 639/390/342 650/403/342
f 642/397/342 641/395/342 650/403/342
f 644/401/342 643/399/342 650/403/342
f 646/397/342 645/399/342 650/403/342
f 648/393/342 647/395/342 650/403/342
f 661/404/321 662/407/324 652/405/322
f 662/407/324 663/409/326 653/408/368
f 663/409/326 664/411/328 654/410/327
f 664/411/328 665/413/330 655/412/329
f 665/413/330 666/415/332 656/414/331
f 666/415/332 667/413/334 657/412/333
f 667/413/334 668/411/336 658/410/335
f 668/411/336 669/409/338 659/408/337
f 669/409/338 670/407/340 660/405/339
f 670/407/340 661/404/321 651/406/323
f 652/405/341 653/408/341 671/416/341
f 654/410/341 655/412/341 671/416/341
f 656/414/341 657/412/341 671/416/341
f 658/410/341 659/408/341 671/416/341
f 660/405/341 651/406/341 671/416/341
f 662/407/342 661/404/342 672/417/342
f 664/411/342 663/409/342 672/417/342
f 666/415/342 665/413/342 672/417/342
f 668/411/342 667/413/342 672/417/342
f 670/407/342 669/409/342 672/417/342
