# Blender 4.0.0
# www.blender.org
o window
v 0.12150300 -0.13981750 0.08629850
v -0.20017300 -0.13981750 0.08629850
v -0.20017300 -0.13981750 -0.06506350
v 0.12150300 -0.13981750 -0.06506350
v 0.12150300 -0.14281750 0.08629850
v -0.20017300 -0.14281750 0.08629850
v -0.20017300 -0.14281750 -0.06506350
v 0.12150300 -0.14281750 -0.06506350
v 0.06871700 -0.13981750 0.08629850
v 0.06871700 -0.14281750 0.08629850
v 0.06871700 -0.13981750 -0.06506350
v 0.06871700 -0.14281750 -0.06506350
vn -0.0000 -0.0000 1.0000
vn -1.0000 -0.0000 -0.0000
vn -0.0000 -0.0000 -1.0000
vn 1.0000 -0.0000 -0.0000
vn -0.0000 1.0000 -0.0000
vn -0.0000 -1.0000 -0.0000
vt 0.462974 0.872315
vt 0.460697 0.872186
vt 0.462974 0.872186
vt 0.468697 0.874436
vt 0.462169 0.874566
vt 0.462169 0.874436
vt 0.472294 0.872821
vt 0.460697 0.872692
vt 0.472294 0.872692
vt 0.469728 0.876110
vt 0.463200 0.876240
vt 0.463200 0.876110
vt 0.470848 0.878004
vt 0.459529 0.871633
vt 0.459529 0.878004
vt 0.472400 0.878258
vt 0.460483 0.871550
vt 0.472400 0.871550
vt 0.473371 0.872042
vt 0.461774 0.871913
vt 0.473371 0.871913
vt 0.472889 0.874235
vt 0.470612 0.874106
vt 0.472889 0.874106
vt 0.473070 0.871633
vt 0.473070 0.878004
vt 0.475461 0.880921
vt 0.455881 0.825727
vt 0.475461 0.825727
vt 0.460697 0.872315
vt 0.468697 0.874566
vt 0.460697 0.872821
vt 0.469728 0.876240
vt 0.470848 0.871633
vt 0.460483 0.878258
vt 0.461774 0.872042
vt 0.470612 0.874235
vt 0.455881 0.880921
s 1
f 10/1/1 1/2/1 9/3/1
f 3/4/2 6/5/2 2/6/2
f 12/7/3 3/8/3 11/9/3
f 1/10/4 8/11/4 4/12/4
f 9/13/5 3/14/5 2/15/5
f 10/16/6 7/17/6 12/18/6
f 6/19/1 9/20/1 2/21/1
f 8/22/3 11/23/3 4/24/3
f 4/25/5 9/13/5 1/26/5
f 5/27/6 12/28/6 8/29/6
f 10/1/1 5/30/1 1/2/1
f 3/4/2 7/31/2 6/5/2
f 12/7/3 7/32/3 3/8/3
f 1/10/4 5/33/4 8/11/4
f 9/13/5 11/34/5 3/14/5
f 10/16/6 6/35/6 7/17/6
f 6/19/1 10/36/1 9/20/1
f 8/22/3 12/37/3 11/23/3
f 4/25/5 11/34/5 9/13/5
f 5/27/6 10/38/6 12/28/6
