# https://github.com/mikedh/trimesh
v 0.46892068 -0.00315358 -0.09352719
v 0.28722626 -0.01021465 -0.09239198
v 0.46892068 0.00315358 -0.09352719
v 0.48449022 -0.00315358 -0.08559899
v 0.28722626 0.01021465 -0.09239198
v 0.49584612 -0.00315358 -0.06496368
v 0.50000000 -0.00315358 -0.03700440
v 0.28722626 -0.01021465 0.09239198
v 0.27479455 -0.01021465 -0.09026802
v 0.48449022 0.00315358 -0.08559899
v 0.27479455 0.01021465 -0.09026802
v 0.28722626 0.01021465 0.09239198
v 0.50000000 0.00315358 -0.03700440
v 0.49584612 0.00315358 -0.06496368
v 0.50000000 -0.00315358 0.03700440
v 0.46892068 -0.00315358 0.09352719
v 0.27479455 -0.01021465 0.09026802
v 0.49584612 -0.00315358 0.06496368
v 0.48449022 -0.00315358 0.08559899
v 0.26310992 -0.01021465 -0.08336517
v 0.26310992 0.01021465 -0.08336517
v 0.27479455 0.01021465 0.09026802
v 0.46892068 0.00315358 0.09352719
v 0.48449022 0.00315358 0.08559899
v 0.49584612 0.00315358 0.06496368
v 0.50000000 0.00315358 0.03700440
v 0.26310992 -0.01021465 0.08336517
v 0.19470555 -0.01021465 -0.03149310
v 0.19470555 0.01021465 -0.03149310
v 0.26310992 0.01021465 0.08336517
v 0.19470555 -0.01021465 0.03149310
v 0.19470555 0.01021465 0.03149310
f 1 2 5
f 1 5 3
f 1 3 10
f 1 10 4
f 1 4 2
f 2 4 6
f 2 6 7
f 2 7 15
f 2 15 8
f 2 8 17
f 2 17 27
f 2 27 31
f 2 31 28
f 2 28 20
f 2 20 9
f 2 9 11
f 2 11 5
f 3 5 10
f 4 10 14
f 4 14 6
f 5 11 21
f 5 21 29
f 5 29 32
f 5 32 30
f 5 30 22
f 5 22 12
f 5 12 26
f 5 26 13
f 5 13 14
f 5 14 10
f 6 14 13
f 6 13 7
f 7 13 26
f 7 26 15
f 8 16 23
f 8 23 12
f 8 12 22
f 8 22 17
f 8 15 18
f 8 18 19
f 8 19 16
f 9 20 21
f 9 21 11
f 12 23 24
f 12 24 25
f 12 25 26
f 15 26 25
f 15 25 18
f 16 19 24
f 16 24 23
f 17 22 30
f 17 30 27
f 18 25 24
f 18 24 19
f 20 28 29
f 20 29 21
f 27 30 32
f 27 32 31
f 28 31 32
f 28 32 29

