# https://github.com/mikedh/trimesh
v 0.25000000 -0.29036100 0.23277843
v 0.25000000 -0.29036100 -0.20661551
v 0.25000000 -0.07823979 0.35399055
v 0.00757576 -0.07823979 0.35399055
v 0.00757576 -0.29036100 0.23277843
v 0.00757576 -0.07823979 -0.20661551
v 0.00757576 -0.26005797 0.35399055
v 0.25000000 -0.07823979 -0.20661551
v 0.00757576 -0.29036100 -0.20661551
v 0.24199539 -0.25309682 0.34438091
f 1 2 3
f 5 2 1
f 6 4 3
f 6 5 4
f 7 3 4
f 7 5 1
f 7 4 5
f 8 6 3
f 8 3 2
f 8 2 6
f 9 6 2
f 9 2 5
f 9 5 6
f 10 7 1
f 10 1 3
f 10 3 7