# https://github.com/mikedh/trimesh
v 0.00745921 -0.01748683 0.43956255
v 0.00757576 -0.01763373 -0.44903976
v 0.00777259 0.22556781 -0.43572354
v -0.26515151 0.22479051 0.42974812
v -0.44696969 -0.01763373 -0.32782764
v 0.00741525 0.22413161 0.43669219
v -0.40567689 -0.02524379 0.33571058
v -0.28030302 0.22479051 -0.40358521
v -0.21969697 0.22479051 0.44489964
v -0.42110259 -0.02517018 0.27589197
v -0.05303030 0.22479051 -0.44903976
v -0.35606060 -0.01763373 -0.38843370
v -0.34090909 0.20963900 0.05096024
v -0.32575757 0.22479051 0.12671782
v -0.26515151 -0.01763373 0.44489964
v -0.41666666 -0.00248221 0.33883903
v -0.38636363 0.13388142 -0.37328218
v -0.23115281 -0.01805431 -0.40450763
v -0.25000000 0.01266930 -0.41873673
v -0.32575757 0.22479051 -0.38843370
v -0.34090909 0.05812385 0.42974812
v -0.40151515 -0.01763373 0.38429358
v -0.28030302 0.22479051 0.39944509
v -0.44696969 -0.00248221 0.20247539
v -0.41666666 0.07327536 -0.35813067
v -0.34090909 0.19448748 -0.38843370
v -0.14393939 -0.01763373 -0.43388824
v -0.21969697 0.20963900 -0.41873673
v -0.35606060 0.19448748 -0.37328218
v -0.26515151 0.10357839 0.44489964
v -0.31060606 0.14903294 0.42974812
v -0.37121212 -0.01763373 0.41459661
v -0.43342858 -0.02353894 0.19961182
v -0.43181818 -0.00248221 0.27823297
v -0.44696969 0.01266930 -0.29752461
v -0.35606060 0.04297233 -0.38843370
v -0.25000000 0.02782082 -0.41873673
v -0.06818181 0.11872991 -0.44903976
v -0.44696969 0.01266930 0.06611176
v -0.23484848 0.20963900 0.44489964
v -0.35606060 0.07327536 0.41459661
v -0.29545454 0.17933597 0.42974812
v -0.34090909 -0.00248221 0.42974812
v -0.34090909 0.11872991 0.39944509
v -0.44696969 -0.00248221 -0.32782764
v -0.23484848 0.13388142 -0.41873673
v -0.05303030 -0.00248221 -0.44903976
v -0.40151515 0.10357839 -0.00964582
v -0.25000000 0.16418445 0.44489964
v -0.37121212 0.01266930 0.41459661
v -0.40151515 -0.00248221 0.38429358
v -0.31060606 0.16418445 0.41459661
v -0.06818181 0.13388142 -0.44903976
v -0.03787878 -0.01763373 -0.44903976
v -0.35606060 0.19448748 -0.34297915
v -0.38636363 0.01266930 0.39944509
v -0.37121212 0.05812385 0.39944509
f 1 2 3
f 6 1 3
f 7 2 1
f 9 6 3
f 9 3 4
f 9 1 6
f 10 2 7
f 11 8 3
f 11 3 2
f 12 10 5
f 15 7 1
f 15 1 9
f 18 10 12
f 20 14 3
f 20 3 8
f 20 13 14
f 22 10 7
f 23 4 3
f 23 3 14
f 24 14 13
f 24 23 14
f 25 17 12
f 25 12 5
f 26 20 8
f 26 17 20
f 27 18 12
f 27 12 19
f 28 8 11
f 29 20 17
f 29 13 20
f 30 21 15
f 30 15 9
f 32 22 7
f 32 7 15
f 33 24 5
f 33 5 10
f 33 10 24
f 34 22 16
f 34 24 10
f 34 10 22
f 35 5 24
f 35 29 17
f 35 17 25
f 36 12 17
f 36 17 26
f 36 19 12
f 37 26 8
f 37 36 26
f 37 19 36
f 38 11 2
f 38 19 37
f 39 24 13
f 39 35 24
f 39 29 35
f 40 9 4
f 40 30 9
f 40 31 21
f 41 21 31
f 42 4 23
f 42 40 4
f 42 31 40
f 43 32 15
f 43 15 21
f 43 21 32
f 44 23 24
f 44 24 34
f 45 35 25
f 45 25 5
f 45 5 35
f 46 37 8
f 46 8 28
f 46 28 11
f 47 27 19
f 47 19 38
f 47 38 2
f 48 39 13
f 49 40 21
f 49 21 30
f 49 30 40
f 50 32 21
f 50 21 41
f 50 22 32
f 51 16 22
f 51 22 50
f 52 42 23
f 52 23 44
f 52 31 42
f 52 41 31
f 53 38 37
f 53 37 46
f 53 46 11
f 53 11 38
f 54 47 2
f 54 27 47
f 54 18 27
f 54 2 10
f 54 10 18
f 55 48 13
f 55 13 29
f 55 29 39
f 55 39 48
f 56 51 50
f 56 50 41
f 56 41 51
f 57 16 51
f 57 44 34
f 57 34 16
f 57 51 41
f 57 52 44
f 57 41 52