# https://github.com/mikedh/trimesh
v -0.21903608 0.22450751 0.42784821
v -0.14343234 0.22477115 -0.41581437
v -0.14393939 0.34600263 0.23277843
v -0.21910644 0.33061054 0.35390189
v -0.32575757 0.23994203 -0.37328218
v -0.21514923 0.26825315 0.42114941
v -0.14393939 0.22479051 0.23277843
v -0.31690157 0.22006676 -0.36778230
v -0.32575757 0.23994203 0.09641479
v -0.14383357 0.34600853 -0.41822701
v -0.28030302 0.22479051 -0.40358521
v -0.25491459 0.21978998 0.40834094
v -0.28030302 0.34600263 -0.07025188
v -0.32575757 0.22479051 0.09641479
v -0.20454545 0.22479051 -0.41873673
v -0.25000000 0.33085112 -0.40358521
v -0.25000000 0.25509354 0.42974812
v -0.26515151 0.33085112 0.21762691
v -0.29545454 0.33085112 -0.00964582
v -0.25000000 0.34600263 0.23277843
v -0.28030302 0.23994203 0.38429358
v -0.26660924 0.21978706 0.38073994
v -0.31060606 0.25509354 -0.38843370
v -0.20454545 0.34600263 -0.41873673
v -0.26515151 0.34600263 -0.37328218
v -0.24380846 0.22137718 0.41882100
v -0.23484848 0.27024506 0.42974812
v -0.32575757 0.25509354 -0.02479733
v -0.29545454 0.33085112 0.02065721
v -0.26515151 0.23994203 0.41459661
v -0.31060606 0.27024506 0.11156630
v -0.25000000 0.31569960 0.35399055
v -0.28030302 0.25509354 -0.40358521
v -0.23484848 0.34600263 -0.40358521
v -0.31060606 0.27024506 -0.37328218
v -0.28030302 0.31569960 -0.38843370
v -0.28030302 0.34600263 0.05096024
v -0.32575757 0.25509354 0.02065721
v -0.26515151 0.27024506 0.39944509
v -0.26515151 0.30054809 -0.40358521
f 6 3 4
f 7 2 3
f 7 6 1
f 7 3 6
f 10 3 2
f 11 8 5
f 12 8 2
f 12 2 7
f 14 9 5
f 14 5 8
f 15 2 8
f 15 8 11
f 15 10 2
f 20 4 3
f 20 3 10
f 21 9 14
f 22 14 8
f 22 8 12
f 22 21 14
f 22 12 21
f 23 11 5
f 24 15 11
f 24 10 15
f 25 13 10
f 25 19 13
f 26 1 17
f 26 12 7
f 26 7 1
f 27 17 1
f 27 1 6
f 27 6 4
f 28 19 5
f 28 5 9
f 29 13 19
f 29 19 28
f 30 21 12
f 30 26 17
f 30 12 26
f 31 9 21
f 31 29 9
f 31 18 29
f 32 20 18
f 32 4 20
f 32 27 4
f 33 11 23
f 33 24 11
f 34 24 16
f 34 16 25
f 34 25 10
f 34 10 24
f 35 5 19
f 35 19 25
f 35 23 5
f 36 25 16
f 36 16 23
f 36 35 25
f 36 23 35
f 37 29 18
f 37 18 20
f 37 13 29
f 37 20 10
f 37 10 13
f 38 29 28
f 38 28 9
f 38 9 29
f 39 30 17
f 39 21 30
f 39 17 27
f 39 27 32
f 39 31 21
f 39 32 18
f 39 18 31
f 40 33 23
f 40 23 16
f 40 16 24
f 40 24 33