# https://github.com/mikedh/trimesh
v 0.17424243 -0.29036100 0.38429358
v 0.29275041 -0.10658055 0.39383424
v 0.14393940 -0.13884585 0.44489964
v 0.00748366 -0.07777035 0.43744399
v 0.00757576 -0.07823979 0.35399055
v 0.26515152 -0.07823979 0.42974812
v 0.00757576 -0.18430040 0.44489964
v 0.24199539 -0.25309682 0.34438091
v 0.18939394 -0.07823979 0.44489964
v 0.28929114 -0.07428658 0.40304780
v 0.25000000 -0.26005797 0.36914206
v 0.17424243 -0.19945191 0.42974812
v 0.00757576 -0.26005797 0.35399055
v 0.25000000 -0.07823979 0.35399055
v 0.29545455 -0.10854282 0.41459661
v 0.17060041 -0.28388154 0.36183533
v 0.18939394 -0.26005797 0.39944509
v 0.08333334 -0.24490646 0.42974812
v 0.18939394 -0.09339130 0.44489964
v 0.00735342 -0.25741477 0.40887261
v 0.29515973 -0.07811840 0.39887705
v 0.21969697 -0.15399737 0.42974812
v 0.14391497 -0.28933945 0.36841383
v 0.20454546 -0.27520949 0.38429358
v 0.26515152 -0.15399737 0.41459661
v 0.12878788 -0.22975494 0.42974812
v 0.14393940 -0.26005797 0.41459661
v 0.26515152 -0.09339130 0.42974812
v 0.20454546 -0.21460343 0.41459661
v 0.03787879 -0.18430040 0.44489964
v 0.08333334 -0.16914888 0.44489964
f 9 7 3
f 9 4 7
f 10 5 4
f 10 9 6
f 10 4 9
f 11 8 2
f 13 5 8
f 14 8 5
f 14 2 8
f 14 5 10
f 15 10 6
f 15 11 2
f 16 11 1
f 16 8 11
f 16 13 8
f 19 9 3
f 19 3 12
f 19 6 9
f 20 7 4
f 20 4 5
f 20 5 13
f 20 18 7
f 20 1 18
f 21 14 10
f 21 2 14
f 21 15 2
f 21 10 15
f 22 19 12
f 23 16 1
f 23 13 16
f 23 20 13
f 23 1 20
f 24 17 1
f 24 1 11
f 24 11 17
f 25 11 15
f 25 22 12
f 26 12 3
f 27 18 1
f 27 1 17
f 27 26 18
f 27 12 26
f 28 15 6
f 28 6 19
f 28 19 22
f 28 25 15
f 28 22 25
f 29 25 12
f 29 17 11
f 29 11 25
f 29 27 17
f 29 12 27
f 30 3 7
f 30 7 18
f 30 18 26
f 31 30 26
f 31 26 3
f 31 3 30