# https://github.com/mikedh/trimesh
v 0.00741525 0.22413161 0.43669219
v 0.00777259 0.22556781 -0.43572354
v 0.00757576 0.37630566 0.14186933
v -0.12878787 0.42176021 0.38429358
v -0.14393939 0.22479051 -0.37328218
v 0.00757576 0.34600263 0.41459661
v -0.05303030 0.22479051 -0.44903976
v -0.12862619 0.22425476 0.43564243
v -0.11363636 0.43691173 0.30853600
v -0.15163199 0.44133402 0.18575759
v -0.12878787 0.37630566 0.42974812
v -0.00757575 0.37630566 0.32368752
v -0.11363636 0.42176021 0.38429358
v -0.14393939 0.22479051 0.23277843
v -0.12878787 0.45206324 0.18732388
v -0.12878787 0.30054809 0.44489964
v 0.00757576 0.36115415 0.36914206
v -0.08333333 0.39145718 0.41459661
v -0.12878787 0.43691173 -0.40358521
v -0.08333333 0.43691173 0.12671782
v 0.00757576 0.30054809 0.44489964
v -0.00757575 0.36115415 0.39944509
v -0.09848484 0.42176021 0.35399055
v 0.00757576 0.34600263 -0.44903976
v -0.14969013 0.42657425 -0.40236423
v -0.15150996 0.44281132 -0.02215539
v -0.03787878 0.40660870 0.14186933
v -0.11363636 0.45206324 0.06611176
v -0.11363636 0.45206324 0.12671782
v -0.11363636 0.31569960 0.44489964
v -0.05303030 0.36115415 0.42974812
v 0.00757576 0.36115415 -0.34297915
v -0.14393939 0.39145718 -0.40358521
v -0.05303030 0.37630566 -0.44903976
v -0.12878787 0.45206324 -0.02479733
v -0.05303030 0.31569960 0.44489964
v -0.11363636 0.37630566 0.42974812
v -0.00757575 0.34600263 0.42974812
v 0.00757576 0.37630566 -0.00964582
v -0.02272727 0.37630566 -0.38843370
v -0.08333333 0.43691173 0.05096024
v -0.09954691 0.38959648 -0.43184475
v -0.03787878 0.37630566 -0.44903976
v -0.05303030 0.40660870 -0.20661551
v -0.08333333 0.40660870 -0.43388824
v -0.00757575 0.37630566 -0.23691854
v -0.06818181 0.40660870 -0.34297915
f 7 2 1
f 7 1 5
f 8 5 1
f 11 4 10
f 13 9 4
f 13 4 11
f 14 10 5
f 14 5 8
f 14 8 10
f 15 10 4
f 15 4 9
f 16 11 10
f 16 10 8
f 16 8 1
f 17 3 12
f 17 6 2
f 17 2 3
f 20 9 12
f 21 16 1
f 21 1 2
f 21 2 6
f 22 13 6
f 22 6 17
f 23 9 13
f 23 22 17
f 23 13 22
f 23 17 12
f 23 12 9
f 24 2 7
f 26 10 15
f 26 19 25
f 26 25 5
f 26 5 10
f 27 20 12
f 27 12 3
f 29 15 9
f 29 9 20
f 29 28 15
f 29 20 28
f 30 11 16
f 30 16 21
f 32 2 24
f 33 7 5
f 33 5 25
f 34 24 7
f 35 26 15
f 35 15 28
f 35 28 19
f 35 19 26
f 36 30 21
f 36 11 30
f 36 21 31
f 37 31 18
f 37 36 31
f 37 11 36
f 37 18 13
f 37 13 11
f 38 31 21
f 38 21 6
f 38 18 31
f 38 6 13
f 38 13 18
f 39 3 2
f 39 2 32
f 39 27 3
f 40 32 24
f 41 28 20
f 41 20 27
f 41 27 39
f 41 19 28
f 42 33 25
f 42 7 33
f 42 34 7
f 43 24 34
f 43 40 24
f 44 41 39
f 44 32 40
f 44 19 41
f 45 42 25
f 45 25 19
f 45 34 42
f 45 43 34
f 45 19 40
f 45 40 43
f 46 44 39
f 46 39 32
f 46 32 44
f 47 44 40
f 47 40 19
f 47 19 44