# https://github.com/mikedh/trimesh
v -0.12862619 0.22425476 0.43564243
v -0.12878787 0.22479051 0.23277843
v -0.12878787 0.43691173 0.35399055
v -0.20454545 0.46721476 0.30853600
v -0.24890962 0.26974420 0.35389608
v -0.15909090 0.46721476 0.23277843
v -0.18939394 0.37630566 0.42974812
v -0.21969697 0.22479051 0.23277843
v -0.13528254 0.42656115 0.23242675
v -0.15909090 0.46721476 0.30853600
v -0.12878787 0.37630566 0.42974812
v -0.18939394 0.45206324 0.36914206
v -0.21969697 0.22479051 0.44489964
v -0.25000000 0.34600263 0.23277843
v -0.23948794 0.32585973 0.23027801
v -0.25000000 0.28539657 0.39944509
v -0.17424242 0.46721476 0.32368752
v -0.12878787 0.42176021 0.39944509
v -0.17424242 0.30054809 0.44489964
v -0.19784572 0.46011598 0.23121461
v -0.23484848 0.33085112 0.39944509
v -0.23484848 0.28539657 0.42974812
v -0.25000000 0.30054809 0.38429358
v -0.18939394 0.46721476 0.32368752
v -0.15909090 0.45206324 0.36914206
v -0.18939394 0.40660870 0.41459661
v -0.20454545 0.27024506 0.44489964
v -0.12878787 0.30054809 0.44489964
v -0.23484848 0.27024506 0.42974812
v -0.23484848 0.31569960 0.41459661
v -0.25000000 0.34600263 0.24792994
v -0.14393939 0.45206324 0.33883903
v -0.14393939 0.40660870 0.41459661
v -0.21969697 0.23994203 0.44489964
f 1 2 3
f 8 2 1
f 9 6 3
f 9 3 2
f 10 6 4
f 13 8 1
f 13 5 8
f 14 8 5
f 15 9 2
f 15 2 8
f 15 8 14
f 16 5 13
f 16 14 5
f 17 10 4
f 18 11 1
f 18 1 3
f 19 11 7
f 20 14 4
f 20 4 6
f 20 15 14
f 20 6 9
f 20 9 15
f 21 12 4
f 23 14 16
f 23 21 4
f 23 16 21
f 24 17 4
f 24 4 12
f 24 12 17
f 25 17 12
f 25 10 17
f 25 18 3
f 26 7 11
f 26 12 21
f 26 22 7
f 26 25 12
f 27 19 7
f 27 13 19
f 27 7 22
f 28 19 13
f 28 13 1
f 28 1 11
f 28 11 19
f 29 22 16
f 29 16 13
f 29 13 22
f 30 21 16
f 30 16 22
f 30 26 21
f 30 22 26
f 31 23 4
f 31 4 14
f 31 14 23
f 32 25 3
f 32 10 25
f 32 3 6
f 32 6 10
f 33 26 11
f 33 11 18
f 33 18 25
f 33 25 26
f 34 27 22
f 34 22 13
f 34 13 27