# https://github.com/mikedh/trimesh
v 0.40145213 0.13374233 0.12670367
v 0.38907428 0.12420806 -0.37421359
v 0.40151516 0.14903294 -0.20661551
v 0.26415144 0.22347862 0.12699542
v 0.26515152 0.11872991 -0.20661551
v 0.28030303 0.20963900 -0.28237309
v 0.29545455 0.22479051 0.12671782
v 0.40022301 0.13097950 -0.20653691
v 0.38636364 0.11872991 -0.20661551
v 0.26515152 0.13388142 0.12671782
v 0.35606061 0.16418445 -0.37328218
v 0.25844935 0.19867635 -0.28065111
v 0.38636364 0.16418445 0.12671782
v 0.26515152 0.22479051 -0.16116097
v 0.34090910 0.11872991 -0.37328218
v 0.38636364 0.14903294 -0.34297915
v 0.28030303 0.22479051 -0.16116097
v 0.26409351 0.19220002 -0.31259684
v 0.38636364 0.16418445 -0.00964582
v 0.29545455 0.22479051 0.03580873
v 0.32575758 0.19448748 -0.22176703
v 0.31060606 0.19448748 -0.29752461
v 0.33438839 0.15157231 -0.37211841
v 0.26515152 0.11872991 -0.31267612
v 0.37121213 0.16418445 -0.26722157
v 0.35606061 0.17933597 -0.16116097
f 8 2 3
f 8 3 1
f 9 1 5
f 9 8 1
f 9 2 8
f 10 5 1
f 10 1 4
f 12 10 4
f 12 5 10
f 13 1 3
f 13 7 4
f 13 4 1
f 14 4 7
f 14 12 4
f 14 6 12
f 15 9 5
f 15 2 9
f 15 11 2
f 16 3 2
f 16 2 11
f 17 14 7
f 17 6 14
f 18 12 6
f 18 6 11
f 19 13 3
f 19 7 13
f 20 17 7
f 20 19 3
f 20 7 19
f 21 11 17
f 22 17 11
f 22 11 6
f 22 6 17
f 23 18 11
f 23 11 15
f 24 15 5
f 24 5 12
f 24 12 18
f 24 23 15
f 24 18 23
f 25 21 3
f 25 3 16
f 25 16 11
f 25 11 21
f 26 20 3
f 26 3 21
f 26 21 17
f 26 17 20