# https://github.com/mikedh/trimesh
v -0.15909090 -0.15399737 -0.29752461
v -0.15909090 -0.15399737 -0.37328218
v -0.15840677 -0.01750338 -0.41559699
v -0.23484848 -0.01763373 -0.29752461
v -0.23734222 -0.15747168 -0.38440728
v -0.15909090 -0.01763373 -0.29752461
v -0.15738224 -0.09180545 -0.41034204
v -0.23484848 -0.15399737 -0.29752461
v -0.23115281 -0.01805431 -0.40450763
v -0.23484848 -0.09339130 -0.41873673
f 5 2 1
f 6 3 4
f 6 4 1
f 7 1 2
f 7 6 1
f 7 3 6
f 7 2 5
f 8 5 1
f 8 1 4
f 8 4 5
f 9 4 3
f 10 5 4
f 10 4 9
f 10 7 5
f 10 9 3
f 10 3 7