# https://github.com/mikedh/trimesh
v 0.12872323 -0.30532646 -0.32760144
v 0.12878788 -0.30551252 -0.35813067
v 0.12646047 -0.25380607 -0.36144093
v -0.18939394 -0.26005797 -0.32782764
v -0.18910471 -0.30485072 -0.32689647
v 0.12878788 -0.26005797 -0.32782764
v -0.17424242 -0.30551252 -0.35813067
v 0.12878788 -0.27520949 -0.37328218
v -0.18939394 -0.27520949 -0.37328218
v 0.08333334 -0.29036100 -0.37328218
v -0.18939394 -0.26005797 -0.37328218
v -0.12878787 -0.29036100 -0.37328218
f 6 3 4
f 6 5 1
f 6 4 5
f 6 1 2
f 7 2 1
f 7 1 5
f 8 6 2
f 8 3 6
f 9 7 5
f 9 5 4
f 10 8 2
f 10 2 7
f 10 9 8
f 11 9 4
f 11 4 3
f 11 3 8
f 11 8 9
f 12 10 7
f 12 7 9
f 12 9 10