# https://github.com/mikedh/trimesh
v -0.14393939 0.34600263 0.23277843
v -0.14393939 0.34600263 -0.38843370
v -0.14393939 0.46721476 0.15702085
v -0.20454545 0.48236627 0.20247539
v -0.28030302 0.34600263 -0.05510036
v -0.17424242 0.46721476 -0.34297915
v -0.14393939 0.45206324 0.23277843
v -0.27156991 0.33844300 0.00239056
v -0.14393939 0.45206324 -0.32782764
v -0.15909090 0.48236627 0.05096024
v -0.21969697 0.48236627 -0.23691854
v -0.15909090 0.46721476 0.23277843
v -0.23972013 0.34082131 -0.38051602
v -0.25000000 0.34600263 0.23277843
v -0.15909090 0.45206324 -0.38843370
v -0.18939394 0.48236627 -0.23691854
v -0.14393939 0.46721476 -0.00964582
v -0.21969697 0.48236627 0.18732388
v -0.17424242 0.48236627 0.17217236
v -0.25000000 0.36115415 -0.38843370
v -0.28030302 0.36115415 0.00550570
v -0.19784572 0.46011598 0.23121461
v -0.15050432 0.42744378 -0.38806011
v -0.17424242 0.48236627 -0.10055491
v -0.18939394 0.48236627 0.20247539
v -0.15909090 0.48236627 0.08126327
v -0.20454545 0.45206324 -0.37328218
v -0.20454545 0.37630566 -0.41873673
v -0.25000000 0.36115415 0.23277843
v -0.28030302 0.36115415 -0.05510036
v -0.21969697 0.46721476 0.20247539
v -0.21969697 0.46721476 -0.29752461
v -0.18939394 0.45206324 -0.38843370
v -0.20454545 0.34600263 -0.41873673
v -0.18939394 0.37630566 -0.41873673
v -0.23484848 0.39145718 -0.38843370
v -0.20454545 0.42176021 -0.40358521
v -0.20454545 0.46721476 -0.34297915
v -0.18694419 0.34545994 -0.40536095
v -0.23484848 0.34600263 -0.40358521
v -0.23484848 0.37630566 -0.40358521
f 1 2 3
f 7 1 3
f 8 2 1
f 9 3 2
f 11 4 10
f 12 7 3
f 12 1 7
f 13 8 5
f 13 2 8
f 14 8 1
f 14 1 12
f 15 6 9
f 16 9 6
f 16 11 10
f 16 6 11
f 17 10 3
f 17 3 9
f 17 9 10
f 18 4 11
f 19 10 4
f 19 12 3
f 20 13 5
f 21 5 8
f 21 8 14
f 21 18 11
f 22 12 4
f 23 15 9
f 23 9 2
f 24 16 10
f 24 10 9
f 24 9 16
f 25 19 4
f 25 4 12
f 25 12 19
f 26 19 3
f 26 3 10
f 26 10 19
f 29 21 14
f 29 18 21
f 29 14 12
f 29 12 22
f 30 20 5
f 30 5 21
f 30 21 11
f 31 22 4
f 31 4 18
f 31 29 22
f 31 18 29
f 32 30 11
f 32 20 30
f 33 6 15
f 35 23 2
f 35 34 28
f 35 2 34
f 35 15 23
f 36 32 27
f 36 20 32
f 37 33 15
f 37 27 33
f 37 35 28
f 37 15 35
f 38 33 27
f 38 27 32
f 38 32 11
f 38 11 6
f 38 6 33
f 39 34 2
f 39 2 13
f 39 13 34
f 40 34 13
f 40 13 20
f 40 28 34
f 41 37 28
f 41 20 36
f 41 36 27
f 41 27 37
f 41 40 20
f 41 28 40