# https://github.com/mikedh/trimesh
v 0.11363637 -0.41157312 0.24792994
v 0.25000000 -0.35096706 0.24792994
v 0.09848485 -0.27520949 0.41459661
v -0.25890129 -0.25138961 0.35924560
v -0.23484848 -0.26005797 0.23277843
v -0.15909090 -0.36611858 0.32368752
v 0.18939394 -0.30551252 0.36914206
v 0.22931524 -0.35505949 0.22712149
v 0.24199539 -0.25309682 0.34438091
v 0.05303031 -0.36611858 0.33883903
v -0.12878787 -0.27520949 0.41459661
v -0.20106343 -0.38433315 0.22759822
v 0.18939394 -0.38127009 0.26308146
v 0.20454546 -0.38127009 0.23277843
v 0.25000000 -0.26005797 0.23277843
v 0.09672369 -0.25384694 0.40285806
v 0.21969697 -0.27520949 0.36914206
v -0.05303030 -0.42672464 0.24792994
v 0.08333334 -0.32066403 0.38429358
v -0.25000000 -0.30551252 0.35399055
v -0.11363636 -0.32066403 0.38429358
v 0.24511021 -0.34527533 0.22715870
v 0.25000000 -0.32066403 0.30853600
v 0.09848485 -0.38127009 0.30853600
v -0.05237329 -0.41392600 0.22634303
v 0.20454546 -0.38127009 0.24792994
v -0.12878787 -0.26005797 0.41459661
v 0.12878788 -0.29036100 0.39944509
v 0.21103913 -0.25438515 0.35965541
v -0.03787878 -0.38127009 0.32368752
v -0.15909090 -0.41157312 0.24792994
v 0.06818182 -0.30551252 0.39944509
v -0.23484848 -0.27520949 0.38429358
v -0.27988856 -0.25952093 0.33821081
v -0.17424242 -0.33581555 0.35399055
v -0.23078507 -0.37239899 0.22794009
v 0.23484849 -0.36611858 0.24792994
v 0.18939394 -0.35096706 0.30853600
v 0.25000000 -0.27520949 0.35399055
v 0.14393940 -0.39642161 0.26308146
v 0.02272728 -0.42672464 0.24792994
v 0.14393940 -0.33581555 0.35399055
v 0.11069969 -0.39995337 0.22708068
v -0.18612192 -0.25266792 0.38866433
v -0.09848484 -0.39642161 0.29338449
v -0.08333333 -0.36611858 0.33883903
v -0.15643720 -0.39831933 0.22672828
v -0.23484848 -0.35096706 0.30853600
v -0.09848484 -0.30551252 0.39944509
v -0.18939394 -0.27520949 0.39944509
v -0.27498975 -0.25370868 0.34628263
v -0.28030302 -0.27520949 0.35399055
v -0.11363636 -0.33581555 0.36914206
v -0.21969697 -0.32066403 0.35399055
v -0.20454545 -0.39642161 0.24792994
v 0.21969697 -0.36611858 0.26308146
v 0.23484849 -0.29036100 0.35399055
v 0.11363637 -0.39642161 0.27823297
v 0.02272728 -0.42672464 0.23277843
v 0.00757576 -0.41157312 0.27823297
v 0.08333334 -0.33581555 0.36914206
v 0.17424243 -0.33581555 0.33883903
v -0.23049548 -0.25257276 0.37378551
v -0.02272727 -0.41157312 0.27823297
f 15 5 4
f 15 4 9
f 16 9 4
f 17 16 3
f 22 5 15
f 22 15 2
f 22 14 8
f 23 2 15
f 25 22 8
f 26 13 1
f 26 1 14
f 27 11 3
f 27 3 16
f 28 17 3
f 28 7 17
f 28 19 7
f 29 17 9
f 29 9 16
f 29 16 17
f 31 25 18
f 32 3 11
f 32 21 19
f 32 28 3
f 32 19 28
f 36 5 22
f 36 34 5
f 37 22 2
f 37 14 22
f 37 26 14
f 37 2 23
f 37 13 26
f 38 13 23
f 39 17 7
f 39 9 17
f 39 23 15
f 39 15 9
f 40 1 13
f 42 7 19
f 42 13 38
f 43 25 8
f 43 8 14
f 44 27 16
f 44 16 4
f 45 31 18
f 45 6 31
f 46 45 30
f 46 6 45
f 47 31 12
f 47 25 31
f 47 12 36
f 47 36 22
f 47 22 25
f 48 31 6
f 49 32 11
f 49 11 21
f 49 21 32
f 50 11 27
f 50 27 33
f 50 21 11
f 51 4 5
f 51 5 34
f 52 20 33
f 52 51 34
f 52 33 4
f 52 4 51
f 52 48 20
f 52 34 36
f 52 36 48
f 53 35 6
f 53 21 35
f 53 6 46
f 53 46 30
f 53 19 21
f 54 33 20
f 54 20 48
f 54 48 6
f 54 6 35
f 54 50 33
f 54 35 21
f 54 21 50
f 55 36 12
f 55 12 31
f 55 48 36
f 55 31 48
f 56 37 23
f 56 23 13
f 56 13 37
f 57 39 7
f 57 7 23
f 57 23 39
f 58 1 40
f 58 41 1
f 58 24 41
f 58 42 24
f 58 40 13
f 58 13 42
f 59 41 18
f 59 18 25
f 59 25 43
f 59 1 41
f 59 43 14
f 59 14 1
f 60 18 41
f 60 10 30
f 60 41 24
f 60 24 10
f 61 42 19
f 61 10 24
f 61 24 42
f 61 30 10
f 61 53 30
f 61 19 53
f 62 42 38
f 62 7 42
f 62 38 23
f 62 23 7
f 63 33 27
f 63 27 44
f 63 44 4
f 63 4 33
f 64 45 18
f 64 30 45
f 64 60 30
f 64 18 60