# https://github.com/mikedh/trimesh
v 0.47727273 -0.07823979 0.06611176
v 0.49242425 0.04297233 -0.22176703
v 0.49242425 0.13388142 0.12671782
v 0.40141617 0.13347742 0.08128295
v 0.37797180 -0.07361979 -0.32108540
v 0.40151516 0.13388142 -0.40358521
v 0.45677823 -0.00135309 0.12527213
v 0.50757576 0.02782082 0.00550570
v 0.46212122 -0.07823979 -0.19146400
v 0.49242425 0.10357839 -0.23691854
v 0.40151516 0.14903294 -0.20661551
v 0.40151516 -0.03278524 -0.35813067
v 0.47727273 -0.00248221 0.12671782
v 0.46448578 0.12433832 0.12815231
v 0.40151516 -0.07823979 0.00550570
v 0.49242425 -0.04793676 -0.05510036
v 0.46212122 0.11872991 -0.31267612
v 0.50757576 0.07327536 -0.16116097
v 0.37722145 0.12479073 -0.39654408
v 0.40151516 -0.07823979 -0.32782764
v 0.45651976 -0.06186519 0.08006100
v 0.50757576 0.08842688 0.08126327
v 0.49242425 0.05812385 0.12671782
v 0.40151516 0.07327536 0.08126327
v 0.49242425 -0.03278524 0.03580873
v 0.47727273 -0.07823979 -0.13085794
v 0.49242425 0.11872991 -0.11570642
v 0.49242425 0.13388142 0.08126327
v 0.40151516 0.14903294 -0.25207006
v 0.46212122 0.07327536 -0.32782764
v 0.49242425 0.05812385 -0.23691854
v 0.50757576 0.02782082 -0.08540339
v 0.38181666 0.13912278 -0.20613761
v 0.37779927 0.07748001 -0.39368248
v 0.38636364 -0.07823979 -0.20661551
v 0.47727273 -0.06308827 0.08126327
v 0.45581904 -0.07673132 0.06507432
v 0.49242425 -0.04793676 -0.03994885
v 0.50757576 0.04297233 0.03580873
v 0.47727273 -0.04793676 -0.17631248
v 0.49242425 -0.03278524 -0.11570642
v 0.50757576 0.10357839 -0.14600945
v 0.41666667 0.13388142 -0.37328218
v 0.46212122 0.10357839 -0.32782764
v 0.40151516 0.07327536 -0.40358521
v 0.43181819 -0.03278524 -0.31267612
v 0.38002588 0.13657225 -0.24957080
v 0.37750785 -0.02817787 -0.34914484
v 0.50757576 0.05812385 -0.14600945
v 0.50757576 0.08842688 -0.16116097
v 0.50757576 0.10357839 0.08126327
v 0.43181819 0.11872991 -0.37328218
v 0.43181819 0.07327536 -0.37328218
v 0.41666667 -0.04793676 -0.32782764
v 0.44696970 -0.07823979 -0.23691854
v 0.44696970 0.05812385 -0.34297915
v 0.44696970 -0.04793676 -0.26722157
v 0.47727273 0.05812385 -0.28237309
f 11 4 3
f 14 3 4
f 14 4 7
f 14 7 13
f 15 9 1
f 20 5 12
f 20 9 15
f 21 13 7
f 21 7 15
f 22 8 18
f 23 14 13
f 23 3 14
f 23 22 3
f 24 15 7
f 24 7 4
f 24 5 15
f 26 16 1
f 26 1 9
f 28 11 3
f 28 27 17
f 29 11 28
f 29 6 19
f 31 10 18
f 31 30 10
f 32 18 8
f 32 8 16
f 33 4 11
f 33 11 29
f 33 24 4
f 33 5 24
f 35 20 15
f 35 15 5
f 35 5 20
f 36 21 1
f 36 13 21
f 36 23 13
f 36 1 23
f 37 21 15
f 37 15 1
f 37 1 21
f 38 16 8
f 38 8 25
f 38 25 1
f 38 1 16
f 39 25 8
f 39 8 22
f 39 22 23
f 39 23 1
f 39 1 25
f 40 26 9
f 40 31 2
f 40 9 31
f 41 32 16
f 41 16 26
f 41 40 2
f 41 26 40
f 42 10 17
f 42 17 27
f 42 27 28
f 42 22 18
f 42 28 3
f 43 6 29
f 43 29 28
f 43 28 17
f 44 17 10
f 44 10 30
f 45 34 19
f 45 19 6
f 47 5 33
f 47 33 29
f 47 29 19
f 48 12 5
f 48 19 34
f 48 47 19
f 48 5 47
f 48 45 12
f 48 34 45
f 49 41 2
f 49 18 32
f 49 32 41
f 49 31 18
f 49 2 31
f 50 42 18
f 50 18 10
f 50 10 42
f 51 42 3
f 51 3 22
f 51 22 42
f 52 44 30
f 52 17 44
f 52 43 17
f 52 6 43
f 52 45 6
f 53 12 45
f 53 52 30
f 53 45 52
f 54 46 20
f 54 20 12
f 54 12 53
f 54 30 46
f 55 9 20
f 55 20 46
f 55 31 9
f 56 54 53
f 56 53 30
f 56 30 54
f 57 55 46
f 57 46 30
f 58 57 30
f 58 30 31
f 58 31 55
f 58 55 57