# https://github.com/mikedh/trimesh
v 0.14347183 0.13369366 0.43606586
v 0.14347773 0.22539926 -0.43442464
v 0.14393940 0.30054809 0.36914206
v 0.00757576 0.36115415 0.33883903
v 0.00757576 0.13388142 -0.20661551
v 0.02272728 0.34600263 -0.40358521
v 0.00757576 0.30054809 0.44489964
v 0.14393940 0.13388142 -0.20661551
v 0.14393940 0.27024506 -0.43388824
v 0.03787879 0.36115415 0.09641479
v -0.00021558 0.33407762 -0.40124825
v 0.14393940 0.25509354 0.44489964
v 0.03787879 0.33085112 0.42974812
v 0.00752882 0.13378371 0.44062180
v 0.00777259 0.22556781 -0.43572354
v 0.14393940 0.25509354 -0.44903976
v 0.02272728 0.36115415 -0.05510036
v 0.02272728 0.36115415 0.33883903
v 0.14393940 0.30054809 -0.00964582
v -0.00180078 0.35081507 -0.05018553
v 0.00472148 0.32182530 0.41851148
v 0.14393940 0.28539657 0.42974812
v 0.12878788 0.27024506 0.44489964
v 0.03787879 0.33085112 -0.44903976
v 0.12878788 0.31569960 0.32368752
v 0.12878788 0.30054809 -0.14600945
v 0.03787879 0.34600263 -0.25207006
v 0.11363637 0.31569960 0.36914206
v 0.03787879 0.30054809 0.44489964
v 0.00441468 0.32512376 -0.43692466
v 0.11363637 0.28539657 -0.44903976
v 0.03787879 0.36115415 0.12671782
v 0.12878788 0.31569960 0.15702085
f 8 1 5
f 9 3 8
f 12 8 3
f 12 1 8
f 14 5 1
f 14 12 7
f 14 1 12
f 15 8 5
f 15 2 8
f 15 5 11
f 16 9 8
f 16 8 2
f 16 2 15
f 17 10 6
f 17 4 10
f 18 10 4
f 18 4 13
f 19 3 9
f 20 4 17
f 20 17 6
f 20 6 11
f 20 11 5
f 20 5 14
f 21 13 4
f 21 7 13
f 21 4 20
f 21 20 14
f 21 14 7
f 22 12 3
f 23 7 12
f 23 22 13
f 23 12 22
f 24 16 15
f 24 6 9
f 25 3 19
f 26 19 9
f 26 9 6
f 26 6 19
f 27 19 6
f 27 6 10
f 27 10 19
f 28 18 13
f 28 13 22
f 28 22 3
f 28 25 18
f 28 3 25
f 29 23 13
f 29 13 7
f 29 7 23
f 30 24 15
f 30 15 11
f 30 11 6
f 30 6 24
f 31 24 9
f 31 9 16
f 31 16 24
f 32 25 10
f 32 10 18
f 32 18 25
f 33 25 19
f 33 19 10
f 33 10 25