# https://github.com/mikedh/trimesh
v 0.00757576 -0.48733070 0.05096024
v 0.00757576 -0.32066403 -0.35813067
v 0.00757576 -0.26005797 0.23277843
v -0.23484848 -0.26005797 0.14186933
v -0.23484848 -0.42672464 -0.17631248
v 0.00757576 -0.26005797 -0.32782764
v -0.11363636 -0.44187615 0.18732388
v -0.00757575 -0.44187615 -0.22176703
v -0.23132972 -0.25416847 -0.34662597
v 0.00757576 -0.38127009 0.23277843
v -0.21969697 -0.45702767 0.02065721
v -0.15909090 -0.38127009 -0.29752461
v 0.00757576 -0.45702767 -0.17631248
v -0.09848484 -0.26005797 0.23277843
v -0.23484848 -0.27520949 -0.35813067
v 0.00757576 -0.47217918 0.12671782
v -0.12878787 -0.47217918 0.09641479
v -0.23484848 -0.42672464 0.14186933
v -0.12878787 -0.44187615 -0.20661551
v -0.00757575 -0.36611858 -0.32782764
v -0.09848484 -0.38127009 0.23277843
v -0.23484848 -0.36611858 -0.28237309
v -0.18888358 -0.25892637 -0.35601295
v -0.08333333 -0.48733070 -0.00964582
v -0.06818181 -0.47217918 0.12671782
v -0.23484848 -0.44187615 0.09641479
v -0.20454545 -0.44187615 0.14186933
v -0.09848484 -0.41157312 -0.26722157
v -0.21969697 -0.39642161 -0.25207006
v -0.09848484 -0.45702767 -0.17631248
v 0.00757576 -0.41157312 -0.26722157
v -0.11363636 -0.32066403 -0.35813067
v -0.23484848 -0.30551252 -0.34297915
v 0.00737304 -0.30097347 -0.35092317
v -0.15909090 -0.47217918 0.05096024
v -0.03787878 -0.48733070 0.05096024
v -0.20454545 -0.45702767 -0.10055491
v 0.00757576 -0.48733070 -0.05510036
v -0.23484848 -0.44187615 -0.13085794
v -0.14393939 -0.45702767 0.14186933
v -0.12878787 -0.42672464 -0.23691854
v -0.03787878 -0.36611858 -0.32782764
v -0.17424242 -0.42672464 -0.22176703
v -0.20454545 -0.36611858 -0.29752461
v -0.23484848 -0.39642161 -0.23691854
v -0.05303030 -0.44187615 -0.22176703
v -0.15909090 -0.35096706 -0.32782764
v -0.21969697 -0.29036100 -0.35813067
v -0.08333333 -0.48733070 0.02065721
v -0.20454545 -0.45702767 0.06611176
v -0.11363636 -0.47217918 -0.11570642
v -0.15909090 -0.47217918 -0.07025188
v -0.08333333 -0.47217918 -0.13085794
v -0.21969697 -0.45702767 -0.03994885
v -0.11363636 -0.45702767 0.15702085
v -0.21969697 -0.42672464 -0.19146400
v -0.18939394 -0.39642161 -0.26722157
v -0.20454545 -0.33581555 -0.32782764
v -0.14393939 -0.33581555 -0.34297915
v -0.14393939 -0.47217918 0.08126327
v -0.18939394 -0.45702767 0.09641479
v -0.18939394 -0.44187615 -0.17631248
v -0.05303030 -0.48733070 -0.05510036
v 0.00757576 -0.47217918 -0.13085794
f 1 2 3
f 6 3 2
f 9 3 6
f 10 1 3
f 13 2 1
f 14 9 4
f 14 3 9
f 14 10 3
f 15 5 4
f 15 4 9
f 16 10 7
f 16 1 10
f 18 4 5
f 18 14 4
f 21 7 10
f 21 10 14
f 21 18 7
f 21 14 18
f 22 5 15
f 23 15 9
f 23 9 6
f 23 2 15
f 25 16 7
f 25 1 16
f 26 18 5
f 27 7 18
f 27 18 26
f 30 8 13
f 31 13 8
f 31 28 20
f 31 8 28
f 31 20 2
f 31 2 13
f 32 15 2
f 32 2 20
f 33 22 15
f 34 23 6
f 34 6 2
f 34 2 23
f 36 24 1
f 36 25 17
f 36 1 25
f 38 13 1
f 38 1 24
f 39 26 5
f 39 11 26
f 40 17 25
f 41 12 28
f 42 28 12
f 42 20 28
f 42 32 20
f 43 41 19
f 44 29 22
f 45 29 5
f 45 5 22
f 45 22 29
f 46 30 19
f 46 8 30
f 46 19 41
f 46 41 28
f 46 28 8
f 47 12 44
f 47 42 12
f 48 33 15
f 48 15 32
f 49 35 24
f 49 36 17
f 49 24 36
f 50 26 11
f 50 11 35
f 52 35 11
f 52 24 35
f 52 37 51
f 53 30 13
f 53 51 30
f 54 39 37
f 54 11 39
f 54 52 11
f 54 37 52
f 55 40 25
f 55 25 7
f 55 7 27
f 55 27 40
f 56 5 29
f 56 29 43
f 57 43 29
f 57 12 41
f 57 41 43
f 57 44 12
f 57 29 44
f 58 47 44
f 58 33 48
f 58 44 22
f 58 22 33
f 59 32 42
f 59 42 47
f 59 48 32
f 59 58 48
f 59 47 58
f 60 49 17
f 60 35 49
f 60 50 35
f 60 40 27
f 60 17 40
f 61 27 26
f 61 26 50
f 61 60 27
f 61 50 60
f 62 51 37
f 62 37 39
f 62 19 30
f 62 30 51
f 62 39 5
f 62 5 56
f 62 56 43
f 62 43 19
f 63 52 51
f 63 24 52
f 63 51 53
f 63 53 38
f 63 38 24
f 64 53 13
f 64 13 38
f 64 38 53