# https://github.com/mikedh/trimesh
v 0.25000000 0.13388142 0.44489964
v 0.26515152 0.11872991 -0.37328218
v 0.26515152 0.25509354 0.30853600
v 0.14393940 0.30054809 0.33883903
v 0.14393940 0.11872991 -0.37328218
v 0.17424243 0.25509354 -0.43388824
v 0.23484849 0.23994203 0.42974812
v 0.26479425 0.13384097 0.42699269
v 0.14393940 0.11872991 -0.20661551
v 0.26515152 0.20963900 -0.38843370
v 0.21969697 0.28539657 0.17217236
v 0.14044539 0.24992627 -0.42884443
v 0.15909091 0.20963900 -0.44903976
v 0.15909091 0.30054809 0.33883903
v 0.14393940 0.25509354 0.44489964
v 0.26515152 0.20963900 0.42974812
v 0.26515152 0.11872991 -0.20661551
v 0.26515152 0.22479051 -0.25207006
v 0.15909091 0.30054809 0.11156630
v 0.13718968 0.25865129 -0.31108301
v 0.18925973 0.17936081 -0.43140100
v 0.14393940 0.23994203 -0.44903976
v 0.26515152 0.19448748 -0.43388824
v 0.21969697 0.27024506 0.35399055
v 0.25000000 0.27024506 0.29338449
v 0.14347183 0.13369366 0.43606586
v 0.17424243 0.27024506 0.42974812
v 0.26515152 0.22479051 0.41459661
v 0.23484849 0.19448748 0.44489964
v 0.20454546 0.23994203 -0.43388824
v 0.15909091 0.27024506 -0.31267612
v 0.17424243 0.30054809 0.24792994
v 0.13705896 0.28787708 0.11268763
v 0.14393940 0.20963900 -0.44903976
v 0.26321588 0.17675434 -0.42502705
v 0.15909091 0.23994203 -0.44903976
v 0.25000000 0.27024506 0.15702085
v 0.18939394 0.23994203 0.44489964
v 0.26515152 0.23994203 0.36914206
v 0.25000000 0.16418445 0.44489964
v 0.23484849 0.22479051 -0.41873673
v 0.15909091 0.28539657 -0.11570642
v 0.17424243 0.27024506 -0.25207006
v 0.17424243 0.30054809 0.15702085
v 0.21969697 0.28539657 0.26308146
v 0.14031588 0.26150848 0.42066586
v 0.25000000 0.20963900 -0.43388824
v 0.23484849 0.23994203 -0.26722157
v 0.26515152 0.25509354 0.14186933
v 0.15909091 0.25509354 0.44489964
v 0.13701049 0.27294049 -0.11516832
f 9 5 2
f 10 3 2
f 16 2 3
f 16 1 8
f 17 8 1
f 17 1 9
f 17 9 2
f 17 16 8
f 17 2 16
f 18 3 10
f 19 4 14
f 20 12 5
f 20 5 9
f 21 2 5
f 22 12 6
f 23 10 2
f 25 14 24
f 26 9 1
f 26 1 15
f 26 20 9
f 27 14 4
f 27 4 15
f 27 24 14
f 27 7 24
f 28 16 3
f 28 7 16
f 29 15 1
f 31 6 12
f 31 12 20
f 32 19 14
f 33 4 19
f 34 21 5
f 34 13 21
f 34 22 13
f 34 5 12
f 34 12 22
f 35 21 13
f 35 13 23
f 35 23 2
f 35 2 21
f 36 23 13
f 36 13 22
f 36 22 6
f 36 6 30
f 37 11 25
f 37 6 11
f 37 25 3
f 38 7 27
f 38 15 29
f 38 29 16
f 38 16 7
f 39 7 28
f 39 25 24
f 39 24 7
f 39 28 3
f 39 3 25
f 40 29 1
f 40 1 16
f 40 16 29
f 41 30 18
f 41 18 10
f 42 31 20
f 43 11 6
f 43 6 31
f 43 31 42
f 44 32 11
f 44 19 32
f 44 42 19
f 44 43 42
f 44 11 43
f 45 25 11
f 45 11 32
f 45 32 14
f 45 14 25
f 46 15 4
f 46 4 33
f 46 33 26
f 46 26 15
f 47 36 30
f 47 23 36
f 47 30 41
f 47 41 10
f 47 10 23
f 48 37 18
f 48 18 30
f 48 30 6
f 48 6 37
f 49 37 3
f 49 3 18
f 49 18 37
f 50 38 27
f 50 27 15
f 50 15 38
f 51 33 19
f 51 19 42
f 51 42 20
f 51 20 26
f 51 26 33