# https://github.com/mikedh/trimesh
v 0.38636364 -0.07823979 -0.20661551
v 0.38636364 -0.07823979 -0.34297915
v 0.38636364 0.13388142 -0.41873673
v 0.19681691 0.22257708 -0.37400433
v 0.14393940 -0.07823979 -0.20661551
v 0.14403190 0.01289011 -0.43637324
v 0.38636364 0.11872991 -0.20661551
v 0.28030303 -0.04793676 -0.43388824
v 0.14393940 0.19448748 -0.44903976
v 0.29545455 0.19448748 -0.31267612
v 0.14393940 0.11872991 -0.20661551
v 0.37121213 -0.03278524 -0.38843370
v 0.14393940 -0.07823979 -0.37328218
v 0.28030303 0.19448748 -0.43388824
v 0.21969697 -0.00248221 -0.44903976
v 0.32575758 0.17933597 -0.31267612
v 0.14393940 0.20963900 -0.37328218
v 0.26409351 0.19220002 -0.31259684
v 0.34090910 0.04297233 -0.43388824
v 0.38636364 0.04297233 -0.40358521
v 0.34090910 -0.07823979 -0.38843370
v 0.18899567 0.20894123 -0.43095494
v 0.29545455 0.19448748 -0.37328218
v 0.28030303 -0.07823979 -0.41873673
v 0.37121213 0.14903294 -0.37328218
v 0.14393600 0.20963727 -0.43377682
v 0.23484849 -0.00248221 -0.44903976
v 0.34090910 0.14903294 -0.43388824
v 0.38636364 -0.03278524 -0.37328218
v 0.38636364 0.08842688 -0.41873673
v 0.32575758 -0.03278524 -0.41873673
v 0.15909091 0.19448748 -0.44903976
v 0.37121213 0.14903294 -0.41873673
v 0.26515152 -0.04793676 -0.43388824
v 0.32575758 0.01266930 -0.43388824
v 0.37121213 -0.06308827 -0.37328218
v 0.34090910 -0.04793676 -0.40358521
v 0.31060606 0.17933597 -0.43388824
v 0.21969697 0.10357839 -0.44903976
v 0.32575758 0.17933597 -0.37328218
v 0.29545455 -0.03278524 -0.43388824
v 0.38636364 -0.06308827 -0.35813067
v 0.20454546 0.13388142 -0.44903976
v 0.23484849 0.05812385 -0.44903976
f 1 2 3
f 5 2 1
f 7 1 3
f 7 5 1
f 11 5 7
f 11 7 10
f 13 2 5
f 13 9 6
f 15 6 9
f 16 10 7
f 17 11 4
f 18 11 10
f 18 10 4
f 18 4 11
f 20 3 2
f 21 2 13
f 22 4 14
f 23 14 4
f 23 4 10
f 23 10 16
f 24 13 6
f 24 21 13
f 25 16 7
f 25 7 3
f 26 17 4
f 26 11 17
f 26 5 11
f 26 13 5
f 26 9 13
f 26 4 22
f 27 8 15
f 27 15 9
f 28 3 19
f 28 19 27
f 29 20 2
f 29 12 20
f 30 19 3
f 30 3 20
f 30 20 12
f 31 30 12
f 31 21 24
f 32 22 14
f 32 26 22
f 32 9 26
f 32 27 9
f 33 25 3
f 33 16 25
f 34 24 6
f 34 6 15
f 34 15 8
f 34 8 24
f 35 27 19
f 35 19 30
f 35 30 31
f 36 21 12
f 36 12 29
f 36 2 21
f 37 31 12
f 37 12 21
f 37 21 31
f 38 32 14
f 38 28 32
f 38 14 23
f 38 33 3
f 38 3 28
f 39 27 32
f 40 23 16
f 40 16 33
f 40 38 23
f 40 33 38
f 41 8 27
f 41 27 35
f 41 35 31
f 41 31 24
f 41 24 8
f 42 36 29
f 42 29 2
f 42 2 36
f 43 39 32
f 43 32 28
f 43 28 39
f 44 39 28
f 44 28 27
f 44 27 39