# https://github.com/mikedh/trimesh
v 0.00735342 -0.25741477 0.40887261
v 0.00757576 -0.26005797 -0.38843370
v 0.00758114 -0.01753479 -0.43287896
v -0.23309698 -0.01732064 0.43197312
v -0.23132972 -0.25416847 -0.34662597
v 0.00745921 -0.01748683 0.43956255
v -0.21969697 -0.26005797 0.39944509
v -0.21969697 -0.10854282 -0.41873673
v -0.08333333 -0.18430040 0.44489964
v 0.00757576 -0.18430040 0.44489964
v -0.21969697 -0.26005797 -0.37328218
v -0.17424242 -0.26005797 0.41459661
v -0.23484848 -0.24490646 0.39944509
v 0.00757576 -0.10854282 -0.43388824
v -0.23484848 -0.01763373 -0.29752461
v -0.23484848 -0.09339130 0.44489964
v -0.12878787 -0.21460343 -0.40358521
v -0.23484848 -0.16914888 -0.40358521
v -0.11363636 -0.24490646 0.42974812
v -0.23049548 -0.25257276 0.37378551
v -0.23484848 -0.18430040 0.42974812
v -0.14393939 -0.01763373 -0.43388824
v -0.15840677 -0.01750338 -0.41559699
v -0.11363636 -0.26005797 -0.38843370
v 0.00757576 -0.21460343 -0.40358521
v -0.08333333 -0.10854282 -0.43388824
v -0.23484848 -0.24490646 -0.37328218
v -0.18939394 -0.19945191 -0.40358521
v -0.23397408 -0.09290857 -0.39970832
v -0.21969697 -0.22975494 0.41459661
v -0.15909090 -0.22975494 0.42974812
v -0.18939394 -0.13884585 0.44489964
v -0.12878787 -0.09339130 -0.43388824
v -0.23484848 -0.21460343 -0.38843370
v -0.21969697 -0.09339130 -0.41873673
v -0.18939394 -0.21460343 0.42974812
v -0.12878787 -0.16914888 0.44489964
v -0.14393939 -0.06308827 -0.43388824
v -0.17424242 -0.13884585 -0.41873673
f 6 3 4
f 10 1 2
f 10 2 3
f 10 3 6
f 11 7 5
f 11 2 7
f 12 7 2
f 12 2 1
f 16 6 4
f 16 15 13
f 16 4 15
f 16 10 6
f 16 9 10
f 18 13 15
f 19 10 9
f 19 12 1
f 19 1 10
f 20 13 5
f 20 5 7
f 20 7 13
f 21 13 7
f 21 16 13
f 22 3 14
f 23 15 4
f 23 4 3
f 23 3 22
f 24 17 2
f 24 2 11
f 25 17 14
f 25 2 17
f 25 14 3
f 25 3 2
f 26 14 17
f 26 22 14
f 27 11 5
f 27 5 13
f 27 13 18
f 28 24 11
f 28 17 24
f 28 26 17
f 28 18 8
f 29 18 15
f 29 15 23
f 30 21 7
f 30 7 12
f 30 12 21
f 31 12 19
f 31 19 9
f 32 9 16
f 32 16 21
f 33 22 26
f 33 26 28
f 34 27 18
f 34 11 27
f 34 28 11
f 34 18 28
f 35 8 18
f 35 18 29
f 35 22 8
f 35 29 23
f 35 23 22
f 36 21 12
f 36 12 31
f 36 32 21
f 37 31 9
f 37 9 32
f 37 36 31
f 37 32 36
f 38 33 8
f 38 8 22
f 38 22 33
f 39 33 28
f 39 28 8
f 39 8 33