# https://github.com/mikedh/trimesh
v 0.26515152 -0.39642161 0.12671782
v 0.47727273 -0.09339130 -0.10055491
v 0.38636364 -0.22975494 0.26308146
v 0.25000000 -0.07823979 0.39944509
v 0.24700168 -0.07511671 -0.41059663
v 0.40151516 -0.07823979 0.32368752
v 0.26515152 -0.24490646 0.36914206
v 0.38636364 -0.30551252 -0.05510036
v 0.24338242 -0.35332973 0.21312520
v 0.47727273 -0.09339130 0.03580873
v 0.31941094 -0.07470625 0.38797225
v 0.39073417 -0.07265572 -0.30502940
v 0.29545455 -0.32066403 0.26308146
v 0.32575758 -0.15399737 0.38429358
v 0.38636364 -0.30551252 0.08126327
v 0.25000000 -0.36611858 -0.20661551
v 0.24556381 -0.17882129 0.38859667
v 0.44696970 -0.09339130 0.18732388
v 0.44696970 -0.19945191 0.00550570
v 0.26063142 -0.07372727 -0.40616115
v 0.47727273 -0.07823979 0.03580873
v 0.38636364 -0.24490646 -0.20661551
v 0.26515152 -0.36611858 0.21762691
v 0.34090910 -0.18430040 0.35399055
v 0.35606061 -0.07823979 0.38429358
v 0.29545455 -0.39642161 0.03580873
v 0.35606061 -0.32066403 0.15702085
v 0.24413478 -0.38455840 -0.12690709
v 0.24581243 -0.08809151 -0.40566202
v 0.25000000 -0.24490646 0.36914206
v 0.26515152 -0.18430040 0.39944509
v 0.40151516 -0.09339130 0.32368752
v 0.43181819 -0.19945191 0.14186933
v 0.43181819 -0.19945191 -0.14600945
v 0.46212122 -0.15399737 0.02065721
v 0.43181819 -0.22975494 0.02065721
v 0.44696970 -0.07823979 0.18732388
v 0.46212122 -0.07823979 -0.17631248
v 0.31060606 -0.36611858 -0.13085794
v 0.34090910 -0.16914888 -0.34297915
v 0.25000000 -0.38127009 0.18732388
v 0.26515152 -0.32066403 0.29338449
v 0.29545455 -0.21460343 0.36914206
v 0.35606061 -0.09339130 0.38429358
v 0.40151516 -0.27520949 0.12671782
v 0.35606061 -0.27520949 0.24792994
v 0.32575758 -0.33581555 0.18732388
v 0.32575758 -0.36611858 0.09641479
v 0.26515152 -0.39642161 -0.13085794
v 0.24467445 -0.32483437 -0.24487216
v 0.32575758 -0.10854282 0.39944509
v 0.41666667 -0.18430040 0.21762691
v 0.38636364 -0.13884585 0.32368752
v 0.44696970 -0.15399737 0.12671782
v 0.43181819 -0.22975494 -0.05510036
v 0.40151516 -0.27520949 -0.10055491
v 0.46212122 -0.15399737 -0.05510036
v 0.44696970 -0.18430040 0.06611176
v 0.47727273 -0.07823979 -0.10055491
v 0.46212122 -0.09339130 -0.17631248
v 0.32575758 -0.29036100 -0.25207006
v 0.34090910 -0.35096706 -0.08540339
v 0.37121213 -0.09339130 -0.35813067
v 0.26515152 -0.13884585 -0.40358521
f 20 5 4
f 20 4 11
f 20 11 12
f 21 12 11
f 21 10 2
f 21 18 10
f 24 13 3
f 25 6 11
f 25 11 4
f 29 17 4
f 29 4 5
f 29 9 17
f 29 28 9
f 30 17 9
f 31 4 17
f 31 30 7
f 31 17 30
f 32 18 6
f 32 6 25
f 35 2 10
f 36 15 8
f 37 21 11
f 37 11 6
f 37 6 18
f 37 18 21
f 41 1 23
f 41 28 1
f 41 9 28
f 41 30 9
f 42 23 13
f 42 13 7
f 42 7 30
f 42 41 23
f 42 30 41
f 43 24 14
f 43 7 13
f 43 13 24
f 43 31 7
f 43 14 31
f 44 14 24
f 44 32 25
f 45 27 15
f 45 3 27
f 45 33 3
f 45 15 36
f 45 36 19
f 46 27 3
f 46 3 13
f 47 13 23
f 47 23 1
f 47 46 13
f 47 27 46
f 48 15 27
f 48 27 47
f 48 47 1
f 48 1 26
f 49 26 1
f 49 1 28
f 49 39 26
f 49 28 16
f 49 16 39
f 50 16 28
f 50 28 29
f 51 25 4
f 51 4 31
f 51 44 25
f 51 31 14
f 51 14 44
f 52 32 3
f 52 18 32
f 52 33 18
f 52 3 33
f 53 24 3
f 53 3 32
f 53 44 24
f 53 32 44
f 54 33 10
f 54 10 18
f 54 18 33
f 55 36 8
f 55 19 36
f 56 22 34
f 56 39 22
f 56 55 8
f 56 34 55
f 57 35 19
f 57 2 35
f 57 19 55
f 57 55 34
f 57 34 2
f 58 19 35
f 58 45 19
f 58 33 45
f 58 35 10
f 58 10 33
f 59 21 2
f 59 2 38
f 59 38 12
f 59 12 21
f 60 38 2
f 60 2 34
f 60 34 22
f 61 39 16
f 61 22 39
f 61 40 22
f 61 16 50
f 62 26 39
f 62 48 26
f 62 8 15
f 62 15 48
f 62 56 8
f 62 39 56
f 63 20 12
f 63 12 38
f 63 38 60
f 63 60 22
f 63 22 40
f 64 29 5
f 64 5 20
f 64 63 40
f 64 20 63
f 64 50 29
f 64 61 50
f 64 40 61