# https://github.com/mikedh/trimesh
v 0.14393940 0.01266930 -0.31267612
v 0.14403190 0.01289011 -0.43637324
v 0.14393940 0.22479051 -0.20661551
v 0.00757576 0.22479051 -0.20661551
v 0.00726525 0.01297656 -0.43470043
v 0.00777259 0.22556781 -0.43572354
v 0.00757576 0.11872991 -0.20661551
v 0.14393940 0.11872991 -0.20661551
v 0.00757576 0.01266930 -0.32782764
v 0.14347773 0.22539926 -0.43442464
v 0.00757576 0.01266930 -0.31267612
v 0.14393940 0.22479051 -0.31267612
f 6 4 3
f 6 5 4
f 6 2 5
f 7 3 4
f 7 4 5
f 8 1 2
f 8 2 3
f 8 7 1
f 8 3 7
f 9 5 2
f 9 2 1
f 10 6 3
f 10 2 6
f 11 7 5
f 11 5 9
f 11 9 1
f 11 1 7
f 12 10 3
f 12 3 2
f 12 2 10