# https://github.com/mikedh/trimesh
v 0.09848485 -0.42672464 -0.22176703
v 0.25000000 -0.27520949 -0.32782764
v 0.25000000 -0.26005797 -0.20661551
v 0.00757576 -0.26005797 -0.20661551
v 0.00757576 -0.32066403 -0.35813067
v 0.18507076 -0.25282183 -0.34568381
v 0.09507014 -0.41509570 -0.20080518
v 0.25000000 -0.36611858 -0.20661551
v 0.09848485 -0.36611858 -0.31267612
v 0.24412075 -0.25230944 -0.31776486
v 0.00757576 -0.26005797 -0.32782764
v 0.18939394 -0.27520949 -0.35813067
v 0.00758057 -0.42610751 -0.20623278
v 0.15909091 -0.41157312 -0.20661551
v 0.23484849 -0.33581555 -0.28237309
v 0.00633421 -0.41432924 -0.22929833
v 0.12877718 -0.26003375 -0.35807834
v 0.06818182 -0.32066403 -0.35813067
v 0.25000000 -0.33581555 -0.26722157
v 0.17424243 -0.39642161 -0.23691854
v 0.20454546 -0.29036100 -0.34297915
v 0.00737304 -0.30097347 -0.35092317
v 0.00757576 -0.41157312 -0.26722157
v 0.15909091 -0.41157312 -0.22176703
v 0.14393940 -0.36611858 -0.29752461
v 0.21969697 -0.36611858 -0.25207006
v 0.23484849 -0.29036100 -0.32782764
v 0.17424243 -0.30551252 -0.34297915
v 0.05303031 -0.41157312 -0.26722157
v 0.06818182 -0.42672464 -0.23691854
v 0.25000000 -0.36611858 -0.22176703
v 0.17424243 -0.36611858 -0.28237309
v 0.15909091 -0.29036100 -0.35813067
v 0.09848485 -0.35096706 -0.32782764
v 0.08333334 -0.39642161 -0.28237309
v 0.14393940 -0.33581555 -0.32782764
v 0.09848485 -0.41157312 -0.25207006
f 7 3 4
f 8 2 3
f 8 3 7
f 10 3 2
f 10 6 4
f 10 4 3
f 11 4 6
f 12 10 2
f 12 6 10
f 13 1 7
f 13 7 4
f 14 8 7
f 14 7 1
f 16 4 11
f 16 13 4
f 17 11 6
f 17 6 12
f 17 12 5
f 18 9 5
f 18 5 12
f 19 15 2
f 19 2 8
f 21 12 2
f 22 16 11
f 22 5 16
f 22 17 5
f 22 11 17
f 23 16 5
f 23 5 9
f 23 13 16
f 24 14 1
f 24 8 14
f 26 15 19
f 26 24 20
f 27 21 2
f 27 2 15
f 27 15 21
f 28 12 21
f 29 23 9
f 30 1 13
f 30 13 23
f 30 23 29
f 30 24 1
f 31 26 19
f 31 19 8
f 31 8 24
f 31 24 26
f 32 25 15
f 32 15 26
f 32 26 20
f 32 20 25
f 33 18 12
f 33 12 28
f 34 9 18
f 34 25 9
f 35 29 9
f 35 9 25
f 35 30 29
f 36 25 34
f 36 28 21
f 36 21 15
f 36 15 25
f 36 34 18
f 36 33 28
f 36 18 33
f 37 24 30
f 37 30 35
f 37 20 24
f 37 35 25
f 37 25 20