# https://github.com/mikedh/trimesh
v -0.11363636 -0.44187615 0.18732388
v -0.10001996 -0.44093639 0.14645560
v -0.09848484 -0.26005797 0.23277843
v -0.41666666 -0.24490646 0.24792994
v -0.34090909 -0.36611858 0.14186933
v -0.09848484 -0.42672464 0.23277843
v -0.18939394 -0.44187615 0.14186933
v -0.09848484 -0.26005797 0.14186933
v -0.23484848 -0.24490646 0.24792994
v -0.31060606 -0.35096706 0.24792994
v -0.11357523 -0.44139376 0.14171472
v -0.18939394 -0.41157312 0.23277843
v -0.40151515 -0.24490646 0.14186933
v -0.37121212 -0.33581555 0.18732388
v -0.29545454 -0.39642161 0.15702085
v -0.23484848 -0.38127009 0.24792994
v -0.37953522 -0.31262148 0.13848242
v -0.14393939 -0.44187615 0.18732388
v -0.23484848 -0.24490646 0.14186933
v -0.41574961 -0.24411121 0.20223537
v -0.41666666 -0.26005797 0.24792994
v -0.29545454 -0.39642161 0.14186933
v -0.26515151 -0.39642161 0.20247539
v -0.34090909 -0.36611858 0.15702085
v -0.31060606 -0.36611858 0.21762691
v -0.11363636 -0.42672464 0.23277843
v -0.25000000 -0.38127009 0.24792994
v -0.40255159 -0.29146498 0.14225927
v -0.21969697 -0.42672464 0.17217236
v -0.37121212 -0.30551252 0.24792994
v -0.41666666 -0.27520949 0.20247539
v -0.26515151 -0.41157312 0.14186933
v -0.35606060 -0.33581555 0.21762691
v -0.29545454 -0.38127009 0.20247539
v -0.23484848 -0.39642161 0.23277843
v -0.38636363 -0.32066403 0.18732388
v -0.18939394 -0.44187615 0.15702085
v -0.26515151 -0.41157312 0.15702085
v -0.41666666 -0.27520949 0.21762691
f 6 1 2
f 8 6 2
f 8 3 6
f 9 6 3
f 9 3 8
f 10 9 4
f 11 2 1
f 11 1 7
f 11 8 2
f 16 6 9
f 16 9 10
f 17 11 7
f 17 8 11
f 18 7 1
f 18 1 6
f 19 9 8
f 19 17 13
f 19 8 17
f 20 4 9
f 20 19 13
f 20 9 19
f 21 10 4
f 22 15 5
f 22 5 17
f 24 14 5
f 24 5 15
f 25 24 15
f 26 6 16
f 26 18 6
f 26 12 18
f 27 16 10
f 27 26 16
f 27 12 26
f 28 17 5
f 28 13 17
f 30 10 21
f 31 21 4
f 31 4 20
f 31 20 13
f 31 13 28
f 32 15 22
f 32 22 17
f 32 17 7
f 33 25 10
f 33 14 24
f 33 24 25
f 33 10 30
f 33 30 21
f 34 25 15
f 34 15 23
f 34 23 25
f 35 12 27
f 35 29 12
f 35 23 29
f 35 25 23
f 35 27 10
f 35 10 25
f 36 28 5
f 36 5 14
f 36 31 28
f 36 33 21
f 36 14 33
f 37 18 12
f 37 12 29
f 37 7 18
f 37 32 7
f 38 29 23
f 38 23 15
f 38 15 32
f 38 37 29
f 38 32 37
f 39 36 21
f 39 21 31
f 39 31 36