# https://github.com/mikedh/trimesh
v -0.05303030 0.22479051 -0.37328218
v -0.05288359 0.22483866 -0.43288973
v -0.05303030 0.39145718 -0.37328218
v -0.15909090 0.45206324 -0.38843370
v -0.14393939 0.22479051 -0.37328218
v -0.06818181 0.39145718 -0.44903976
v -0.05134534 0.25673849 -0.43410715
v -0.14343234 0.22477115 -0.41581437
v -0.14393939 0.39145718 -0.37328218
v -0.12878787 0.43691173 -0.41873673
v -0.05303030 0.37630566 -0.44903976
v -0.08333333 0.27024506 -0.44903976
v -0.18939394 0.34600263 -0.38843370
v -0.17345603 0.43988388 -0.38243013
v -0.12878787 0.43691173 -0.40358521
v -0.05303030 0.39145718 -0.40358521
v -0.06818181 0.25509354 -0.44903976
v -0.15909090 0.42176021 -0.43388824
v -0.18270451 0.43296058 -0.38323158
v -0.14393939 0.25509354 -0.43388824
v -0.11363636 0.42176021 -0.43388824
v -0.09848484 0.39145718 -0.44903976
v -0.17424242 0.45206324 -0.40358521
v -0.18694419 0.34545994 -0.40536095
v -0.09848484 0.33085112 -0.44903976
v -0.15909090 0.45206324 -0.40358521
v -0.18939394 0.42176021 -0.41873673
v -0.15909090 0.36115415 -0.43388824
v -0.17424242 0.43691173 -0.41873673
v -0.18939394 0.43691173 -0.40358521
f 5 1 3
f 7 1 2
f 7 3 1
f 8 2 1
f 8 1 5
f 9 5 3
f 11 7 2
f 12 6 11
f 13 8 5
f 14 9 3
f 14 3 4
f 15 10 4
f 15 4 3
f 15 3 10
f 16 10 3
f 16 6 10
f 16 11 6
f 16 3 7
f 16 7 11
f 17 2 8
f 17 12 11
f 17 11 2
f 19 13 5
f 19 5 9
f 19 9 14
f 20 17 8
f 20 12 17
f 21 18 10
f 21 10 6
f 21 6 18
f 22 18 6
f 22 6 12
f 23 10 18
f 23 19 14
f 23 14 4
f 24 20 8
f 24 8 13
f 25 18 22
f 25 22 12
f 25 12 20
f 26 23 4
f 26 4 10
f 26 10 23
f 27 20 24
f 27 24 13
f 28 25 20
f 28 18 25
f 28 27 18
f 28 20 27
f 29 27 23
f 29 23 18
f 29 18 27
f 30 19 23
f 30 23 27
f 30 27 13
f 30 13 19