# https://github.com/mikedh/trimesh
v 0.37121213 -0.07823979 0.36914206
v 0.46526569 -0.07922762 0.00589360
v 0.47727273 0.14903294 0.23277843
v 0.28030303 0.25509354 0.27823297
v 0.26515152 -0.07823979 0.00550570
v 0.40003501 0.12914039 0.00547551
v 0.32575758 0.17933597 0.42974812
v 0.44696970 -0.07823979 0.20247539
v 0.26515152 -0.07823979 0.42974812
v 0.49242425 0.13388142 0.12671782
v 0.26515152 0.13388142 0.00550570
v 0.46212122 0.07327536 0.00550570
v 0.43181819 0.13388142 0.35399055
v 0.41666667 0.16418445 0.36914206
v 0.40151516 -0.07823979 0.32368752
v 0.35606061 0.04297233 0.41459661
v 0.26515152 0.20963900 0.42974812
v 0.47727273 -0.04793676 0.09641479
v 0.28030303 0.23994203 0.12671782
v 0.47727273 0.14903294 0.17217236
v 0.25805468 0.24668910 0.27396145
v 0.46212122 0.13388142 0.08126327
v 0.46212122 0.10357839 0.27823297
v 0.43181819 0.16418445 0.33883903
v 0.40151516 0.02782082 0.36914206
v 0.32575758 -0.06308827 0.41459661
v 0.32575758 0.02782082 0.42974812
v 0.37121213 0.14903294 0.41459661
v 0.28030303 0.22479051 0.39944509
v 0.46212122 -0.07823979 0.12671782
v 0.49242425 0.07327536 0.12671782
v 0.29545455 0.23994203 0.15702085
v 0.25857185 0.22774216 0.12928575
v 0.26515152 0.25509354 0.24792994
v 0.44696970 0.14903294 0.32368752
v 0.43181819 -0.03278524 0.27823297
v 0.44696970 0.11872991 0.32368752
v 0.40151516 -0.04793676 0.33883903
v 0.34090910 -0.07823979 0.39944509
v 0.34090910 -0.01763373 0.41459661
v 0.28030303 -0.07823979 0.42974812
v 0.38636364 0.16418445 0.39944509
v 0.37121213 0.11872991 0.41459661
v 0.26515152 0.22479051 0.39944509
v 0.31060606 0.19448748 0.42974812
v 0.47727273 -0.04793676 0.08126327
v 0.49242425 0.13388142 0.17217236
v 0.49242425 0.10357839 0.17217236
v 0.28030303 0.25509354 0.24792994
v 0.43181819 0.14903294 0.35399055
v 0.41666667 -0.04793676 0.30853600
v 0.37121213 -0.03278524 0.38429358
v 0.31060606 -0.01763373 0.42974812
v 0.38636364 0.08842688 0.39944509
v 0.28030303 0.20963900 0.42974812
v 0.32575758 0.19448748 0.41459661
v 0.47727273 0.10357839 0.23277843
v 0.47727273 -0.03278524 0.11156630
v 0.49242425 0.07327536 0.14186933
v 0.44696970 0.05812385 0.29338449
v 0.41666667 -0.01763373 0.32368752
v 0.35606061 -0.03278524 0.39944509
v 0.41666667 0.10357839 0.36914206
v 0.40151516 0.08842688 0.38429358
f 9 5 2
f 11 6 5
f 12 2 5
f 12 5 6
f 12 10 2
f 15 1 2
f 15 2 8
f 17 9 7
f 19 6 11
f 20 4 3
f 20 3 10
f 21 5 9
f 21 9 17
f 22 12 6
f 22 10 12
f 22 19 10
f 22 6 19
f 24 3 4
f 24 4 14
f 27 7 9
f 28 7 27
f 29 14 4
f 30 18 8
f 30 8 2
f 30 2 18
f 31 2 10
f 32 20 10
f 32 10 19
f 33 11 5
f 33 5 21
f 33 19 11
f 34 33 21
f 34 19 33
f 35 23 3
f 35 3 24
f 35 24 14
f 37 13 25
f 37 35 13
f 37 23 35
f 38 25 1
f 38 1 15
f 39 2 1
f 40 27 26
f 40 16 27
f 40 26 39
f 41 27 9
f 41 39 26
f 41 9 2
f 41 2 39
f 42 28 14
f 42 7 28
f 43 28 27
f 43 27 16
f 44 21 17
f 44 17 29
f 44 29 4
f 44 34 21
f 44 4 34
f 45 17 7
f 45 7 42
f 45 42 14
f 46 31 18
f 46 18 2
f 46 2 31
f 47 31 10
f 47 10 3
f 48 31 47
f 48 47 3
f 49 4 20
f 49 20 32
f 49 34 4
f 49 32 19
f 49 19 34
f 50 35 14
f 50 14 13
f 50 13 35
f 51 15 8
f 51 8 36
f 52 39 1
f 52 1 25
f 53 41 26
f 53 26 27
f 53 27 41
f 54 43 16
f 54 16 40
f 55 45 29
f 55 29 17
f 55 17 45
f 56 45 14
f 56 14 29
f 56 29 45
f 57 8 48
f 57 36 8
f 57 48 3
f 57 3 23
f 58 48 8
f 58 8 18
f 59 18 31
f 59 31 48
f 59 58 18
f 59 48 58
f 60 51 36
f 60 23 37
f 60 57 23
f 60 36 57
f 61 38 15
f 61 15 51
f 61 37 25
f 61 25 38
f 61 60 37
f 61 51 60
f 62 40 39
f 62 39 52
f 62 54 40
f 62 52 25
f 63 25 13
f 63 13 14
f 64 25 63
f 64 62 25
f 64 54 62
f 64 43 54
f 64 63 14
f 64 14 28
f 64 28 43