# https://github.com/mikedh/trimesh
v -0.23484848 -0.44187615 0.06611176
v -0.23484848 -0.38127009 -0.25207006
v -0.23309698 -0.01732064 0.43197312
v -0.38636363 -0.01763373 0.39944509
v -0.50757575 -0.19945191 -0.03994885
v -0.25000000 -0.32066403 0.33883903
v -0.22878742 -0.41426410 0.12206361
v -0.37121212 -0.36611858 -0.11570642
v -0.25000000 -0.01763373 -0.41873673
v -0.25000000 -0.16914888 0.42974812
v -0.44696969 -0.27520949 0.15702085
v -0.22941253 -0.42864508 -0.08407205
v -0.23484848 -0.35096706 0.29338449
v -0.44696969 -0.07823979 -0.32782764
v -0.40962685 -0.01684096 -0.34482017
v -0.32575757 -0.06308827 0.42974812
v -0.34090909 -0.39642161 0.05096024
v -0.44696969 -0.30551252 -0.05510036
v -0.41666666 -0.18430040 0.32368752
v -0.23115281 -0.01805431 -0.40450763
v -0.25000000 -0.42672464 -0.16116097
v -0.22985640 -0.35644638 0.25648713
v -0.23484848 -0.24490646 0.39944509
v -0.47727272 -0.03278524 0.02065721
v -0.26515151 -0.22975494 -0.37328218
v -0.37121212 -0.27520949 -0.28237309
v -0.32115792 -0.01676722 0.41551304
v -0.35606060 -0.01763373 -0.38843370
v -0.25000000 -0.06308827 0.44489964
v -0.26515151 -0.42672464 0.11156630
v -0.47727272 -0.26005797 0.06611176
v -0.38636363 -0.36611858 -0.03994885
v -0.34090909 -0.32066403 0.26308146
v -0.49242424 -0.09339130 0.18732388
v -0.40151515 -0.07823979 0.38429358
v -0.23484848 -0.29036100 -0.34297915
v -0.23484848 -0.42672464 -0.16116097
v -0.25000000 -0.44187615 -0.08540339
v -0.23484848 -0.32066403 0.33883903
v -0.32575757 -0.22975494 0.36914206
v -0.23484848 -0.16914888 0.42974812
v -0.50757575 -0.10854282 -0.11570642
v -0.46212121 -0.01763373 0.08126327
v -0.44696969 -0.26005797 -0.17631248
v -0.35606060 -0.35096706 -0.19146400
v -0.38636363 -0.13884585 -0.35813067
v -0.24787609 -0.01704222 0.43007292
v -0.44696969 -0.01763373 -0.32782764
v -0.28030302 -0.13884585 0.42974812
v -0.25000000 -0.42672464 0.12671782
v -0.47727272 -0.26005797 -0.02479733
v -0.41666666 -0.33581555 0.06611176
v -0.41666666 -0.33581555 -0.07025188
v -0.41666666 -0.24490646 0.26308146
v -0.37121212 -0.35096706 0.14186933
v -0.26515151 -0.36611858 0.26308146
v -0.50757575 -0.18430040 0.11156630
v -0.38636363 -0.06308827 0.39944509
v -0.46212121 -0.13884585 0.27823297
v -0.29545454 -0.29036100 -0.32782764
v -0.23484848 -0.15399737 -0.40358521
v -0.34090909 -0.39642161 -0.07025188
v -0.25000000 -0.44187615 0.06611176
v -0.26515151 -0.26005797 0.38429358
f 12 7 1
f 13 1 7
f 20 3 7
f 20 7 12
f 20 9 3
f 22 13 7
f 22 7 3
f 27 4 16
f 28 15 9
f 29 27 16
f 36 20 12
f 36 12 2
f 37 21 2
f 37 2 12
f 38 21 37
f 38 37 12
f 38 12 1
f 39 23 6
f 39 6 13
f 39 13 22
f 39 22 23
f 40 33 6
f 40 19 33
f 40 35 19
f 41 10 23
f 41 29 10
f 41 3 29
f 41 23 22
f 41 22 3
f 42 14 5
f 42 34 24
f 43 27 15
f 43 4 27
f 43 34 4
f 43 24 34
f 44 18 5
f 44 5 14
f 44 14 26
f 45 21 8
f 45 44 26
f 45 8 44
f 45 2 21
f 46 26 14
f 46 14 28
f 47 3 9
f 47 9 15
f 47 15 27
f 47 29 3
f 47 27 29
f 48 28 14
f 48 15 28
f 48 14 42
f 48 42 24
f 48 43 15
f 48 24 43
f 49 29 16
f 49 10 29
f 50 1 13
f 51 31 5
f 51 5 18
f 51 18 31
f 52 11 31
f 52 32 17
f 52 31 18
f 53 8 32
f 53 44 8
f 53 18 44
f 53 52 18
f 53 32 52
f 54 33 19
f 54 11 33
f 55 17 30
f 55 30 33
f 55 52 17
f 55 33 11
f 55 11 52
f 56 13 6
f 56 6 33
f 56 50 13
f 56 33 30
f 56 30 50
f 57 5 31
f 57 31 11
f 57 42 5
f 57 34 42
f 58 16 4
f 58 4 35
f 58 49 16
f 58 35 40
f 58 40 49
f 59 19 35
f 59 34 57
f 59 54 19
f 59 57 11
f 59 11 54
f 59 35 4
f 59 4 34
f 60 25 36
f 60 46 25
f 60 26 46
f 60 36 2
f 60 45 26
f 60 2 45
f 61 36 25
f 61 9 20
f 61 20 36
f 61 25 46
f 61 46 28
f 61 28 9
f 62 38 17
f 62 17 32
f 62 32 8
f 62 8 21
f 62 21 38
f 63 30 17
f 63 17 38
f 63 38 1
f 63 50 30
f 63 1 50
f 64 40 6
f 64 6 23
f 64 23 10
f 64 49 40
f 64 10 49