# https://github.com/mikedh/trimesh
v 0.24848704 -0.25824369 -0.31024169
v 0.25000000 -0.26005797 -0.34297915
v 0.26515152 0.01266930 -0.40358521
v 0.00757576 0.01266930 -0.31267612
v 0.00757576 -0.26005797 -0.31267612
v 0.25000000 -0.07823979 -0.31267612
v 0.26515152 -0.07823979 -0.37328218
v 0.00757576 -0.10854282 -0.43388824
v 0.14393940 0.01266930 -0.31267612
v 0.26515152 -0.06308827 -0.43388824
v 0.26515152 0.01266930 -0.37328218
v 0.00757576 -0.26005797 -0.38843370
v 0.00726525 0.01297656 -0.43470043
v 0.17424243 -0.26005797 -0.37328218
v 0.15909091 -0.10854282 -0.43388824
v 0.21969697 -0.01763373 -0.44903976
v 0.21855174 0.01312162 -0.43453368
v 0.21969697 -0.16914888 -0.40358521
v 0.00757576 -0.21460343 -0.40358521
v 0.09848485 -0.21460343 -0.40358521
v 0.21969697 -0.09339130 -0.43388824
v 0.09848485 -0.03278524 -0.44903976
v 0.21969697 -0.26005797 -0.35813067
v 0.06818182 -0.26005797 -0.38843370
v 0.15909091 -0.19945191 -0.40358521
v 0.18939394 -0.03278524 -0.44903976
v 0.23484849 -0.12369434 -0.41873673
v 0.00757576 -0.01763373 -0.44903976
v 0.12878788 -0.24490646 -0.38843370
f 5 2 1
f 5 1 4
f 7 1 2
f 7 6 1
f 9 4 1
f 9 1 6
f 10 7 2
f 10 3 7
f 11 7 3
f 11 6 7
f 11 9 6
f 12 2 5
f 13 5 4
f 13 12 5
f 14 2 12
f 16 3 10
f 17 13 4
f 17 4 9
f 17 9 11
f 17 11 3
f 17 16 13
f 17 3 16
f 19 8 15
f 19 13 8
f 19 12 13
f 20 19 15
f 20 12 19
f 21 16 10
f 22 15 8
f 23 2 14
f 23 14 18
f 24 14 12
f 24 12 20
f 25 18 14
f 25 24 20
f 25 20 15
f 25 15 21
f 26 21 15
f 26 16 21
f 26 22 16
f 26 15 22
f 27 21 10
f 27 25 21
f 27 18 25
f 27 10 2
f 27 23 18
f 27 2 23
f 28 22 8
f 28 8 13
f 28 13 16
f 28 16 22
f 29 25 14
f 29 14 24
f 29 24 25