# https://github.com/mikedh/trimesh
v 0.26515152 -0.07823979 0.42974812
v 0.26515152 -0.07823979 0.00550570
v 0.26515152 0.13388142 0.00550570
v 0.00752882 0.13378371 0.44062180
v 0.00767006 -0.07872044 0.43738186
v 0.26479425 0.13384097 0.42699269
v 0.21969697 -0.06308827 0.44489964
v 0.00757576 -0.07823979 0.00550570
v 0.00757576 0.13388142 0.00550570
v 0.20454546 -0.07823979 0.44489964
v 0.25000000 0.13388142 0.44489964
v 0.00748366 -0.07777035 0.43744399
v 0.25000000 -0.00248221 0.44489964
f 1 2 3
f 5 2 1
f 6 1 3
f 8 3 2
f 8 2 5
f 9 3 8
f 10 5 1
f 10 1 7
f 11 10 7
f 11 4 10
f 11 9 4
f 11 6 3
f 11 3 9
f 11 1 6
f 12 8 5
f 12 9 8
f 12 4 9
f 12 10 4
f 12 5 10
f 13 11 7
f 13 7 1
f 13 1 11