# https://github.com/mikedh/trimesh
v 0.11363637 -0.45702767 0.14186933
v 0.25108160 -0.38314031 0.12770928
v 0.25000000 -0.36611858 0.23277843
v 0.00757576 -0.29036100 0.23277843
v 0.00757576 -0.29036100 0.12671782
v -0.09848484 -0.42672464 0.23277843
v 0.25000000 -0.38127009 0.20247539
v 0.00739629 -0.45384654 0.12569248
v 0.25000000 -0.29036100 0.12671782
v 0.08333334 -0.42672464 0.23277843
v -0.09848484 -0.38127009 0.14186933
v 0.14393940 -0.44187615 0.15702085
v 0.11363637 -0.45702767 0.12671782
v -0.06818181 -0.45702767 0.17217236
v 0.25000000 -0.29036100 0.23277843
v 0.14128074 -0.43237559 0.12356081
v 0.14393940 -0.42672464 0.20247539
v -0.09848484 -0.38127009 0.23277843
v -0.09711502 -0.44412344 0.13758088
v -0.02272727 -0.44187615 0.21762691
v -0.09848484 -0.45702767 0.15702085
v 0.21969697 -0.38127009 0.23277843
v 0.11363637 -0.44187615 0.18732388
v -0.09848484 -0.44187615 0.20247539
v 0.03787879 -0.45702767 0.17217236
v 0.14393940 -0.41157312 0.23277843
v 0.08333334 -0.45702767 0.15702085
v 0.06818182 -0.44187615 0.20247539
v 0.00757576 -0.44187615 0.21762691
f 6 3 4
f 7 2 3
f 9 5 4
f 10 3 6
f 11 4 5
f 12 2 7
f 13 12 1
f 13 2 12
f 14 13 1
f 15 3 2
f 15 2 9
f 15 9 4
f 15 4 3
f 16 8 5
f 16 5 9
f 16 13 8
f 16 9 2
f 16 2 13
f 17 12 7
f 17 1 12
f 18 11 6
f 18 6 4
f 18 4 11
f 19 11 5
f 19 5 8
f 20 10 6
f 21 8 13
f 21 13 14
f 21 19 8
f 21 6 11
f 21 11 19
f 22 17 7
f 22 7 3
f 22 3 10
f 23 17 10
f 23 1 17
f 24 20 6
f 24 14 20
f 24 21 14
f 24 6 21
f 25 20 14
f 25 14 1
f 26 22 10
f 26 10 17
f 26 17 22
f 27 25 1
f 27 1 23
f 28 23 10
f 28 27 23
f 28 25 27
f 29 28 10
f 29 10 20
f 29 20 25
f 29 25 28