# https://github.com/mikedh/trimesh
v 0.11363637 -0.47217918 0.06611176
v 0.14393940 -0.42672464 -0.19146400
v 0.14393940 -0.29036100 0.12671782
v 0.00757576 -0.29036100 0.12671782
v 0.00757576 -0.45702767 -0.17631248
v 0.00757576 -0.29036100 -0.20661551
v 0.00757576 -0.47217918 0.12671782
v 0.14393940 -0.45702767 0.11156630
v 0.08333334 -0.47217918 -0.11570642
v 0.14393940 -0.29036100 -0.20661551
v 0.06818182 -0.44187615 -0.20661551
v 0.14393940 -0.45702767 -0.11570642
v 0.06818182 -0.47217918 0.11156630
v 0.12878788 -0.45702767 0.12671782
v 0.00757576 -0.48733070 -0.03994885
v 0.00783834 -0.43016712 -0.19967784
v 0.05303031 -0.47217918 -0.13085794
v 0.12878788 -0.42672464 -0.20661551
v 0.12878788 -0.47217918 0.03580873
v 0.11363637 -0.45702767 -0.14600945
v 0.14128074 -0.43237559 0.12356081
v 0.02272728 -0.47217918 0.12671782
v 0.03787879 -0.48733070 0.03580873
v 0.03787879 -0.45702767 -0.17631248
v 0.00757576 -0.47217918 -0.13085794
v 0.03787879 -0.48733070 -0.03994885
v 0.13996920 -0.40063273 -0.20161143
v 0.12878788 -0.47217918 -0.03994885
v 0.09848485 -0.44187615 -0.19146400
v 0.14393940 -0.44187615 -0.16116097
v 0.08333334 -0.45702767 -0.16116097
v 0.00757576 -0.48733070 0.03580873
v 0.05303031 -0.48733070 -0.00964582
v 0.11363637 -0.47217918 -0.07025188
v 0.05303031 -0.48733070 0.00550570
f 6 4 3
f 6 5 4
f 7 3 4
f 7 4 5
f 8 2 3
f 10 6 3
f 10 3 2
f 11 6 10
f 12 2 8
f 13 1 8
f 14 3 7
f 14 13 8
f 15 7 5
f 16 11 5
f 16 5 6
f 16 6 11
f 18 11 10
f 19 12 8
f 19 8 1
f 20 12 9
f 20 9 17
f 21 14 8
f 21 8 3
f 21 3 14
f 22 14 7
f 22 13 14
f 23 1 13
f 23 13 22
f 23 22 7
f 24 17 5
f 24 5 11
f 24 11 17
f 25 17 15
f 25 15 5
f 25 5 17
f 26 17 9
f 26 15 17
f 26 23 15
f 27 18 10
f 27 10 2
f 27 2 18
f 28 12 19
f 29 20 11
f 29 11 18
f 29 18 20
f 30 20 18
f 30 18 2
f 30 2 12
f 30 12 20
f 31 20 17
f 31 17 11
f 31 11 20
f 32 23 7
f 32 7 15
f 32 15 23
f 33 23 26
f 33 28 19
f 34 9 12
f 34 12 28
f 34 26 9
f 34 33 26
f 34 28 33
f 35 33 19
f 35 23 33
f 35 19 1
f 35 1 23