# https://github.com/mikedh/trimesh
v 0.15909091 -0.45702767 0.08126327
v 0.25000000 -0.38127009 -0.19146400
v 0.26515152 -0.39642161 0.14186933
v 0.14393940 -0.29036100 0.12671782
v 0.13996920 -0.40063273 -0.20161143
v 0.25000000 -0.29036100 0.12671782
v 0.14316113 -0.37960161 0.24677649
v 0.25000000 -0.42672464 -0.03994885
v 0.14393940 -0.29036100 -0.20661551
v 0.25000000 -0.29036100 -0.20661551
v 0.17424243 -0.41157312 0.21762691
v 0.14059983 -0.44290373 0.07876817
v 0.17105662 -0.37273927 0.24255717
v 0.26515152 -0.41157312 -0.07025188
v 0.25000000 -0.42672464 0.02065721
v 0.15909091 -0.44187615 -0.14600945
v 0.14035531 -0.38426136 0.24159830
v 0.23484849 -0.38127009 -0.20661551
v 0.21969697 -0.42672464 0.12671782
v 0.23484849 -0.39642161 0.18732388
v 0.17424243 -0.39642161 0.24792994
v 0.25000000 -0.36611858 -0.20661551
v 0.17424243 -0.45702767 0.05096024
v 0.26515152 -0.41157312 0.08126327
v 0.21969697 -0.42672464 -0.11570642
v 0.14393940 -0.44187615 -0.14600945
v 0.13912368 -0.42841342 0.13745961
v 0.17424243 -0.41157312 -0.20661551
v 0.15909091 -0.44187615 0.14186933
v 0.23011920 -0.37241125 0.18332090
v 0.25000000 -0.41157312 0.12671782
v 0.21969697 -0.41157312 0.17217236
v 0.14393940 -0.42672464 0.18732388
v 0.21969697 -0.44187615 0.00550570
v 0.18939394 -0.44187615 0.11156630
v 0.20454546 -0.44187615 0.08126327
v 0.25000000 -0.41157312 -0.11570642
v 0.17424243 -0.45702767 -0.05510036
v 0.14031541 -0.44259933 -0.08274771
v 0.21969697 -0.41157312 -0.16116097
v 0.15909091 -0.42672464 0.18732388
v 0.23484849 -0.42672464 -0.08540339
v 0.25000000 -0.39642161 -0.16116097
v 0.20454546 -0.44187615 -0.08540339
v 0.21969697 -0.44187615 -0.00964582
v 0.15909091 -0.45702767 -0.08540339
v 0.17424243 -0.44187615 -0.13085794
f 9 4 6
f 10 6 3
f 10 9 6
f 13 6 4
f 13 4 7
f 14 10 3
f 15 8 14
f 17 9 5
f 17 4 9
f 17 7 4
f 18 9 10
f 20 3 6
f 21 13 7
f 21 20 13
f 21 11 20
f 21 7 17
f 22 14 2
f 22 10 14
f 22 18 10
f 22 2 18
f 24 15 14
f 24 14 3
f 27 17 5
f 28 5 9
f 28 9 18
f 28 26 5
f 28 16 26
f 28 18 2
f 30 20 6
f 30 6 13
f 30 13 20
f 31 3 20
f 31 24 3
f 31 19 24
f 32 20 11
f 32 11 19
f 32 31 20
f 32 19 31
f 33 21 17
f 33 17 27
f 33 1 29
f 33 27 12
f 33 12 1
f 34 8 15
f 35 1 23
f 35 29 1
f 35 19 29
f 36 35 23
f 36 19 35
f 36 24 19
f 36 15 24
f 36 34 15
f 36 23 34
f 38 34 23
f 38 23 1
f 39 5 26
f 39 27 5
f 39 12 27
f 40 28 2
f 41 33 29
f 41 11 21
f 41 21 33
f 41 29 19
f 41 19 11
f 42 25 37
f 42 37 14
f 42 14 8
f 43 2 14
f 43 14 37
f 43 40 2
f 43 37 25
f 43 25 40
f 44 25 42
f 44 42 8
f 44 8 38
f 45 38 8
f 45 8 34
f 45 34 38
f 46 26 16
f 46 44 38
f 46 38 1
f 46 39 26
f 46 1 12
f 46 12 39
f 47 40 25
f 47 16 28
f 47 28 40
f 47 25 44
f 47 46 16
f 47 44 46