# https://github.com/mikedh/trimesh
v 0.03744952 0.05435266 0.00939679
v 0.03807412 0.05427975 0.00939679
v 0.03664242 0.05448392 0.00939596
v 0.03744938 0.01706250 0.00939679
v 0.03807412 0.05476100 0.00799894
v 0.03664242 0.05497976 0.00803271
v 0.03807425 0.01706250 0.00939679
v 0.03664242 -0.01882764 0.00939596
v 0.03744938 -0.01882764 0.00939679
v 0.03807412 0.05533705 0.00311432
v 0.03744924 0.05551206 0.00269175
v 0.03664242 0.05565789 0.00269175
v 0.03807425 0.01706250 0.00571972
v 0.03807425 -0.01882764 0.00939679
v 0.03664242 -0.01883493 0.00555498
v 0.03744924 0.05551206 0.00098172
v 0.03807425 0.01421142 0.00311432
v 0.03664242 0.05565789 0.00098172
v 0.03744924 -0.01883493 0.00555498
v 0.03807425 -0.01882764 0.00571972
v 0.03664242 -0.01883493 0.00449157
v 0.03744924 -0.01883493 0.00098172
v 0.03807425 -0.01882035 0.00311432
v 0.03664242 0.04856299 0.00098172
v 0.03664256 -0.01883493 0.00098172
f 1 2 3
f 1 3 4
f 1 4 9
f 1 9 14
f 1 14 7
f 1 7 2
f 2 5 6
f 2 6 3
f 2 7 5
f 3 6 12
f 3 12 18
f 3 18 24
f 3 24 21
f 3 21 15
f 3 15 8
f 3 8 9
f 3 9 4
f 5 7 10
f 5 10 11
f 5 11 12
f 5 12 6
f 7 13 10
f 7 14 20
f 7 20 23
f 7 23 17
f 7 17 13
f 8 15 9
f 9 15 19
f 9 19 14
f 10 16 11
f 10 13 17
f 10 17 16
f 11 16 18
f 11 18 12
f 14 19 22
f 14 22 20
f 15 21 25
f 15 25 22
f 15 22 19
f 16 17 23
f 16 23 22
f 16 22 25
f 16 25 24
f 16 24 18
f 20 22 23
f 21 24 25

