# https://github.com/mikedh/trimesh
v 0.01724612 -0.01883493 -0.00327533
v 0.01724612 -0.01883493 0.01007174
v 0.01724612 -0.00512267 -0.00327533
v 0.03285364 -0.01883493 -0.00327533
v 0.03285364 -0.01883493 0.01007174
v 0.01724612 -0.00512267 0.01007174
v 0.01724838 0.05555283 -0.00268872
v 0.01724838 0.05547954 -0.00327402
v 0.01882204 0.05569941 -0.00327533
v 0.04037551 -0.01550031 -0.00327402
v 0.04037098 -0.01883493 -0.00327402
v 0.03285364 0.05588996 -0.00327533
v 0.04037777 -0.01883493 0.01007043
v 0.03285364 0.05451213 0.01007174
v 0.01882204 0.05442419 0.01007174
v 0.01724838 0.05435090 0.01007043
v 0.01724838 0.05462207 0.00929176
v 0.01724838 0.05488591 0.00811070
v 0.01724838 0.05523036 0.00544024
v 0.01724838 0.05536961 0.00429968
v 0.01724838 0.05555283 0.00269270
v 0.01882204 0.05577270 -0.00268872
v 0.02959990 0.05603654 -0.00269002
v 0.02422456 0.05582400 -0.00327533
v 0.04037777 -0.01594737 -0.00131429
v 0.04037551 0.05492988 -0.00327402
v 0.04037777 -0.01642374 0.00043771
v 0.04037777 -0.01709800 0.00311470
v 0.03018182 0.05594126 -0.00327533
v 0.03285364 0.05593393 -0.00304408
v 0.03498205 0.05584599 -0.00327402
v 0.03664175 0.05558215 -0.00327402
v 0.04037777 0.05227684 0.01007043
v 0.03908035 0.05413836 0.01007043
v 0.03498205 0.05449748 0.01006782
v 0.03339706 0.05451213 0.01007043
v 0.02959990 0.05455611 0.01007174
v 0.02055646 0.05445350 0.01007174
v 0.02422456 0.05520105 0.00807281
v 0.01884468 0.05509112 0.00807281
v 0.01882204 0.05577270 0.00269270
v 0.03498205 0.05592660 -0.00269002
v 0.02959990 0.05594126 -0.00327533
v 0.02959990 0.05603654 0.00269139
v 0.04037777 0.04134220 -0.00131429
v 0.03664175 0.05565543 -0.00268741
v 0.04037551 0.05498851 -0.00270178
v 0.04037777 0.05498851 0.00098382
v 0.04037777 0.05295109 0.00939498
v 0.04037551 0.05440220 0.00796045
v 0.04035966 0.05441686 0.00794216
v 0.03807276 0.05475399 0.00799704
v 0.03498205 0.05520837 0.00807020
v 0.03285364 0.05525235 0.00807281
v 0.02959990 0.05528899 0.00807281
v 0.03498205 0.05592660 0.00269139
v 0.03664175 0.05565543 0.00098382
v 0.04037777 0.05498851 0.00164882
v 0.04037777 0.05492988 0.00311470
v 0.04037551 0.05440953 0.00793302
v 0.04036418 0.05495186 0.00311470
v 0.03744782 0.05550886 0.00269270
v 0.04037777 0.05498118 0.00269270
v 0.04037551 0.05494453 0.00311470
f 1 2 6
f 1 6 3
f 1 3 9
f 1 9 24
f 1 24 43
f 1 43 29
f 1 29 12
f 1 12 4
f 1 4 11
f 1 11 13
f 1 13 5
f 1 5 2
f 2 5 14
f 2 14 37
f 2 37 38
f 2 38 15
f 2 15 6
f 3 6 21
f 3 21 7
f 3 7 8
f 3 8 9
f 4 10 11
f 4 12 26
f 4 26 10
f 5 13 33
f 5 33 14
f 6 15 16
f 6 16 17
f 6 17 18
f 6 18 19
f 6 19 20
f 6 20 21
f 7 21 41
f 7 41 22
f 7 22 9
f 7 9 8
f 9 22 23
f 9 23 24
f 10 25 11
f 10 26 45
f 10 45 25
f 11 25 27
f 11 27 28
f 11 28 13
f 12 29 30
f 12 30 31
f 12 31 32
f 12 32 26
f 13 28 27
f 13 27 25
f 13 25 45
f 13 45 48
f 13 48 58
f 13 58 63
f 13 63 59
f 13 59 49
f 13 49 33
f 14 33 34
f 14 34 35
f 14 35 36
f 14 36 37
f 15 38 39
f 15 39 40
f 15 40 17
f 15 17 16
f 17 40 18
f 18 40 19
f 19 40 41
f 19 41 20
f 20 41 21
f 22 41 44
f 22 44 23
f 23 42 30
f 23 30 29
f 23 29 43
f 23 43 24
f 23 44 56
f 23 56 42
f 26 32 46
f 26 46 47
f 26 47 48
f 26 48 45
f 30 42 31
f 31 42 32
f 32 42 46
f 33 49 50
f 33 50 34
f 34 50 51
f 34 51 52
f 34 52 53
f 34 53 35
f 35 37 36
f 35 53 54
f 35 54 55
f 35 55 37
f 37 55 38
f 38 55 39
f 39 55 44
f 39 44 40
f 40 44 41
f 42 56 57
f 42 57 46
f 44 55 54
f 44 54 56
f 46 57 58
f 46 58 48
f 46 48 47
f 49 59 50
f 50 60 51
f 50 59 60
f 51 60 61
f 51 61 62
f 51 62 56
f 51 56 52
f 52 56 53
f 53 56 54
f 56 62 57
f 57 62 58
f 58 62 63
f 59 63 60
f 60 63 64
f 60 64 61
f 61 64 63
f 61 63 62

