# https://github.com/mikedh/trimesh
v 0.01336396 0.04574213 0.01146018
v 0.01336396 0.05128500 0.01113486
v 0.01156385 0.04574213 0.01146018
v 0.01336396 -0.01882766 0.01146018
v 0.01724611 0.05436600 0.01007141
v 0.01336396 0.05130686 0.01113262
v -0.00060835 0.04994481 0.01111019
v -0.00221417 0.04611359 0.01142653
v -0.00221417 0.04572028 0.01145794
v 0.00269281 0.04573484 0.01146018
v -0.00060835 -0.01882766 0.01146018
v 0.01645940 -0.01883494 0.00761469
v 0.01724611 -0.01882766 0.01007141
v 0.01724611 0.05462821 0.00929065
v 0.01622890 0.05432958 0.01007141
v 0.01336396 0.05361578 0.01051564
v 0.00082793 0.05010505 0.01111019
v -0.00221417 0.04976271 0.01110794
v -0.00221417 -0.01882766 0.01145794
v -0.00060835 0.04242806 0.01146018
v 0.01336968 -0.01883494 0.00761469
v 0.01645940 -0.01883494 -0.01146018
v 0.01724611 -0.01882766 0.00761469
v 0.01724611 0.05489771 0.00811277
v 0.00269281 0.05411836 0.00715925
v 0.00269281 0.05298210 0.00985154
v 0.00082793 0.05186041 0.01028679
v -0.00060835 0.05098637 0.01062333
v -0.00221417 0.05001036 0.01099801
v -0.00221417 -0.01883494 0.00269229
v 0.01645940 0.04573484 -0.01146018
v 0.01724421 -0.01881309 -0.01145794
v 0.01724421 -0.01882037 -0.00962269
v 0.01336396 -0.01883494 -0.01146018
v 0.01724611 0.05495597 0.00761469
v 0.01724421 0.05557509 0.00268780
v 0.01724421 0.05538571 0.00429869
v -0.00059121 0.05400910 0.00656694
v 0.00082793 0.05277816 0.00927270
v -0.00060835 0.05399453 0.00658265
v -0.00221417 0.05243583 0.00833488
v -0.00221417 -0.01883494 -0.00400254
v 0.01724421 0.05116846 -0.01128518
v 0.01724421 0.04572756 -0.01145794
v 0.00269281 0.04573484 -0.01146018
v 0.00082793 -0.01882766 -0.01146018
v 0.01724421 0.05406009 -0.01096435
v 0.01724421 0.05489771 -0.00811052
v 0.01724421 0.05557509 -0.00268780
v 0.01724421 0.05235571 -0.01116179
v 0.00269281 0.05443155 0.00268780
v 0.00082793 0.05419847 0.00489324
v -0.00060835 0.05400910 0.00654451
v -0.00206178 0.05277816 0.00785476
v -0.00221417 0.05264705 0.00798713
v -0.00221417 -0.01882037 -0.01146018
v -0.00060835 0.04572756 -0.01145794
v -0.00221417 0.04572028 -0.01145570
v -0.00221417 0.04977728 -0.01111019
v -0.00221417 0.04034492 -0.01146018
v -0.00221417 0.04448933 -0.01145794
v 0.01645940 0.05404552 -0.01094640
v 0.01512788 0.05400182 -0.01091499
v 0.00269281 0.05411836 -0.00715925
v -0.00059121 0.05400182 -0.00656919
v 0.00269281 0.05443155 -0.00268780
v 0.00082793 0.05427131 0.00268780
v -0.00060835 0.05414020 0.00268780
v -0.00088837 0.05410379 0.00268780
v -0.00221417 0.05360850 0.00268780
v -0.00221417 0.05352109 0.00437048
v -0.00221417 0.05351381 0.00448266
v -0.00221417 0.05269075 0.00785476
v -0.00221417 0.05242854 -0.00833488
v -0.00060835 0.05261792 -0.00883071
v 0.00269281 0.05298210 -0.00985154
v 0.00082793 0.05357208 -0.00798264
v -0.00221417 0.05360850 -0.00269005
v -0.00060835 0.05400910 -0.00634483
v -0.00221417 0.05264705 -0.00798713
v 0.00082793 0.05427131 -0.00268780
v -0.00060835 0.05414020 -0.00269005
v -0.00088837 0.05410379 -0.00269005
v 0.00082793 0.05277816 -0.00927270
f 1 2 3
f 1 3 10
f 1 10 20
f 1 20 11
f 1 11 4
f 1 4 13
f 1 13 5
f 1 5 2
f 2 6 7
f 2 7 8
f 2 8 9
f 2 9 10
f 2 10 3
f 2 5 6
f 4 11 21
f 4 21 12
f 4 12 13
f 5 14 15
f 5 15 16
f 5 16 6
f 5 13 23
f 5 23 35
f 5 35 24
f 5 24 14
f 6 17 7
f 6 16 17
f 7 18 8
f 7 17 16
f 7 16 18
f 8 18 29
f 8 29 41
f 8 41 55
f 8 55 73
f 8 73 72
f 8 72 71
f 8 71 70
f 8 70 78
f 8 78 80
f 8 80 74
f 8 74 59
f 8 59 58
f 8 58 61
f 8 61 60
f 8 60 56
f 8 56 42
f 8 42 30
f 8 30 19
f 8 19 9
f 9 19 11
f 9 11 20
f 9 20 10
f 11 19 21
f 12 21 30
f 12 30 42
f 12 42 34
f 12 34 22
f 12 22 23
f 12 23 13
f 14 24 25
f 14 25 15
f 15 25 26
f 15 26 16
f 16 26 27
f 16 27 28
f 16 28 29
f 16 29 18
f 19 30 21
f 22 31 44
f 22 44 32
f 22 32 33
f 22 33 23
f 22 34 46
f 22 46 56
f 22 56 60
f 22 60 45
f 22 45 31
f 23 33 32
f 23 32 44
f 23 44 35
f 24 35 36
f 24 36 37
f 24 37 38
f 24 38 25
f 25 38 26
f 26 39 27
f 26 38 40
f 26 40 39
f 27 41 28
f 27 39 41
f 28 41 29
f 31 43 44
f 31 45 43
f 34 42 46
f 35 47 48
f 35 48 49
f 35 49 36
f 35 44 43
f 35 43 50
f 35 50 47
f 36 49 66
f 36 66 51
f 36 51 52
f 36 52 53
f 36 53 38
f 36 38 37
f 38 53 40
f 39 40 54
f 39 54 41
f 40 53 54
f 41 54 55
f 42 56 46
f 43 45 57
f 43 57 58
f 43 58 59
f 43 59 50
f 45 60 61
f 45 61 57
f 47 62 48
f 47 50 59
f 47 59 62
f 48 62 63
f 48 63 64
f 48 64 65
f 48 65 49
f 49 65 66
f 51 66 81
f 51 81 67
f 51 67 52
f 52 67 68
f 52 68 53
f 53 69 70
f 53 70 71
f 53 71 72
f 53 72 73
f 53 73 54
f 53 68 69
f 54 73 55
f 57 61 58
f 59 74 75
f 59 75 76
f 59 76 63
f 59 63 62
f 63 76 77
f 63 77 65
f 63 65 64
f 65 78 79
f 65 79 66
f 65 77 80
f 65 80 78
f 66 79 81
f 67 81 82
f 67 82 68
f 68 82 83
f 68 83 69
f 69 83 78
f 69 78 70
f 74 80 75
f 75 80 77
f 75 77 84
f 75 84 76
f 76 84 77
f 78 83 79
f 79 83 82
f 79 82 81

