# https://github.com/mikedh/trimesh
v 0.00637662 -0.01883493 0.01020910
v 0.00805114 -0.01883493 0.01020910
v 0.00637662 -0.01883493 0.01146018
v 0.00637662 0.05215134 0.01020910
v 0.00805114 -0.01883493 0.01146018
v 0.00805114 0.05213744 0.01020910
v 0.00637662 0.04574479 0.01146018
v 0.00637662 0.05028218 0.01111214
v 0.00805114 0.05027524 0.01111214
v 0.00805114 0.04574479 0.01146018
f 1 2 5
f 1 5 3
f 1 3 7
f 1 7 8
f 1 8 4
f 1 4 6
f 1 6 2
f 2 6 9
f 2 9 10
f 2 10 5
f 3 5 10
f 3 10 7
f 4 8 9
f 4 9 6
f 7 10 8
f 8 10 9

