# https://github.com/mikedh/trimesh
v -0.04063543 0.04009495 0.01146018
v -0.04063543 0.04599728 0.01117974
v -0.04574925 0.03498813 0.01146018
v -0.04063543 0.03087507 0.01146018
v -0.04063543 0.04850426 0.01067493
v -0.04422983 0.04437865 0.01099576
v -0.04592277 0.04052658 0.01117974
v -0.04881142 0.03884522 0.01099352
v -0.04932470 0.03498813 0.01111019
v -0.05111971 0.02509068 0.01129865
v -0.05025793 0.02509068 0.01135698
v -0.04575071 0.03087507 0.01146018
v -0.04063835 0.02509068 0.01146018
v -0.04063543 0.03087507 -0.01146018
v -0.04063543 0.04971635 0.00833937
v -0.04259230 0.04796974 0.01029352
v -0.04338117 0.04624321 0.01063230
v -0.04592132 0.04346269 0.01053583
v -0.04831564 0.04063700 0.01050666
v -0.05395003 0.02740193 0.01087461
v -0.05405647 0.02509068 0.01095762
v -0.04575071 0.02509068 0.01146018
v -0.04063835 0.02509068 -0.01146018
v -0.04063543 0.03498813 -0.01146018
v -0.04063543 0.04972388 0.00832142
v -0.04341034 0.04871757 0.00670380
v -0.04864373 0.04333219 0.00642784
v -0.04781840 0.04243380 0.01001756
v -0.05432332 0.02854375 0.00807238
v -0.05489638 0.02509068 0.00807238
v -0.05474181 0.02509068 0.00883969
v -0.04933636 0.04063700 0.00826309
v -0.04942531 0.04052909 0.00816213
v -0.04575071 0.02509068 -0.01146018
v -0.04063543 0.04037601 -0.01144448
v -0.04574925 0.03498813 -0.01146018
v -0.04063543 0.05070258 0.00304453
v -0.04063543 0.05072767 0.00268780
v -0.04358678 0.04886061 0.00268780
v -0.04592132 0.04652176 0.00268780
v -0.04592132 0.04648161 0.00318812
v -0.05020543 0.04063700 0.00268780
v -0.05018939 0.04063700 0.00302883
v -0.05267121 0.03498813 0.00268556
v -0.04939615 0.04063700 0.00809482
v -0.04627857 0.04616040 0.00268780
v -0.04874580 0.04347273 0.00268780
v -0.05396169 0.03087507 0.00458587
v -0.05427083 0.02936435 0.00617881
v -0.05463391 0.02944968 0.00269005
v -0.05553215 0.02509068 0.00269005
v -0.05543007 0.02509068 0.00377369
v -0.05111971 0.02509068 -0.01129865
v -0.04575071 0.03087507 -0.01146018
v -0.04063543 0.04599728 -0.01117974
v -0.04932470 0.03498813 -0.01111019
v -0.04881142 0.03884522 -0.01099352
v -0.04592277 0.04052658 -0.01117974
v -0.04063543 0.05072767 -0.00269005
v -0.04358678 0.04886061 -0.00269005
v -0.04592132 0.04652176 -0.00269005
v -0.05020543 0.04063700 -0.00268780
v -0.05034396 0.04036347 0.00268556
v -0.05267121 0.03498813 -0.00268780
v -0.05376046 0.03214487 0.00268780
v -0.04627857 0.04616040 -0.00268780
v -0.04874580 0.04347273 -0.00268780
v -0.05417167 0.03087758 0.00268780
v -0.05463391 0.02944968 -0.00269005
v -0.05553215 0.02509068 -0.00269005
v -0.05190129 0.02509068 -0.01121115
v -0.04422983 0.04437865 -0.01099576
v -0.04086728 0.04624321 -0.01107204
v -0.04063543 0.04601233 -0.01117525
v -0.05405647 0.02509068 -0.01095762
v -0.05395003 0.02740193 -0.01087461
v -0.04781840 0.04243380 -0.01001756
v -0.04063543 0.04972388 -0.00832142
v -0.04341034 0.04871757 -0.00670605
v -0.04864373 0.04333219 -0.00642784
v -0.05034396 0.04036347 -0.00268780
v -0.05432332 0.02854375 -0.00807238
v -0.05376046 0.03214487 -0.00269005
v -0.05417167 0.03087758 -0.00269005
v -0.05489638 0.02509068 -0.00807238
v -0.04259230 0.04796974 -0.01029352
v -0.04063543 0.04624321 -0.01100025
v -0.04942531 0.04052909 -0.00816213
v -0.04933636 0.04063700 -0.00826533
v -0.04939615 0.04063700 -0.00809706
v -0.04063543 0.04971635 -0.00833937
f 1 2 3
f 1 3 12
f 1 12 22
f 1 22 13
f 1 13 4
f 1 4 14
f 1 14 24
f 1 24 35
f 1 35 55
f 1 55 74
f 1 74 87
f 1 87 91
f 1 91 78
f 1 78 59
f 1 59 38
f 1 38 37
f 1 37 25
f 1 25 15
f 1 15 5
f 1 5 2
f 2 5 6
f 2 6 7
f 2 7 3
f 3 7 8
f 3 8 9
f 3 9 10
f 3 10 11
f 3 11 12
f 4 13 23
f 4 23 14
f 5 15 16
f 5 16 17
f 5 17 6
f 6 17 18
f 6 18 8
f 6 8 7
f 8 18 19
f 8 19 20
f 8 20 9
f 9 20 21
f 9 21 10
f 10 21 31
f 10 31 30
f 10 30 52
f 10 52 51
f 10 51 70
f 10 70 85
f 10 85 75
f 10 75 71
f 10 71 53
f 10 53 34
f 10 34 23
f 10 23 13
f 10 13 22
f 10 22 11
f 11 22 12
f 14 23 34
f 14 34 54
f 14 54 36
f 14 36 24
f 15 25 16
f 16 25 26
f 16 26 27
f 16 27 28
f 16 28 17
f 17 28 18
f 18 28 19
f 19 28 20
f 20 29 30
f 20 30 31
f 20 31 21
f 20 28 32
f 20 32 33
f 20 33 29
f 24 36 35
f 25 37 26
f 26 37 38
f 26 38 39
f 26 39 40
f 26 40 41
f 26 41 27
f 27 42 43
f 27 43 44
f 27 44 29
f 27 29 45
f 27 45 28
f 27 41 46
f 27 46 47
f 27 47 42
f 28 45 32
f 29 48 49
f 29 49 50
f 29 50 51
f 29 51 52
f 29 52 30
f 29 33 45
f 29 44 48
f 32 45 33
f 34 53 54
f 35 36 55
f 36 54 53
f 36 53 56
f 36 56 57
f 36 57 58
f 36 58 55
f 38 59 60
f 38 60 39
f 39 60 61
f 39 61 40
f 40 61 66
f 40 66 46
f 40 46 41
f 42 47 67
f 42 67 62
f 42 62 81
f 42 81 63
f 42 63 43
f 43 63 44
f 44 63 81
f 44 81 64
f 44 64 83
f 44 83 65
f 44 65 48
f 46 66 67
f 46 67 47
f 48 65 68
f 48 68 50
f 48 50 49
f 50 69 70
f 50 70 51
f 50 68 84
f 50 84 69
f 53 71 56
f 55 72 73
f 55 73 74
f 55 58 72
f 56 71 75
f 56 75 76
f 56 76 57
f 57 77 72
f 57 72 58
f 57 76 77
f 59 78 79
f 59 79 60
f 60 79 61
f 61 79 66
f 62 67 80
f 62 80 81
f 64 81 80
f 64 80 82
f 64 82 83
f 65 83 84
f 65 84 68
f 66 79 80
f 66 80 67
f 69 82 70
f 69 84 82
f 70 82 85
f 72 86 73
f 72 77 86
f 73 86 87
f 73 87 74
f 75 85 76
f 76 85 82
f 76 82 88
f 76 88 89
f 76 89 77
f 77 89 90
f 77 90 80
f 77 80 86
f 78 91 86
f 78 86 79
f 79 86 80
f 80 90 82
f 82 84 83
f 82 90 88
f 86 91 87
f 88 90 89

