# https://github.com/mikedh/trimesh
v -0.01368308 -0.03829156 -0.00307201
v -0.01368308 -0.03829156 -0.00170937
v -0.01368308 -0.03489499 -0.00307201
v 0.05544416 -0.03829156 -0.00307201
v -0.01368308 -0.03489499 -0.00170937
v -0.01367631 -0.03829156 0.01145903
v -0.01358828 -0.03489300 -0.00307201
v 0.05495664 -0.03489300 -0.00307201
v 0.05549157 -0.03829156 -0.00269081
v -0.01367631 -0.03489699 0.01145903
v -0.01367631 -0.03489599 0.00555615
v -0.01358828 -0.03489300 -0.00251586
v 0.04573426 -0.03829156 0.01145903
v 0.05499727 -0.03489300 -0.00269081
v 0.05501081 -0.03498448 -0.00269081
v 0.05549157 -0.03829156 0.00269290
v 0.05503789 -0.03515880 -0.00251586
v -0.01343932 -0.03489300 0.01145903
v -0.01350703 -0.03489300 0.00555615
v -0.01358151 -0.03489300 -0.00170937
v 0.05121216 -0.03829156 0.01125420
v 0.04573426 -0.03489300 0.01145903
v 0.05499727 -0.03489300 0.00269290
v 0.05481444 -0.03829156 0.00817475
v 0.05501081 -0.03498448 0.00269290
v 0.05436754 -0.03489300 0.00834828
v 0.05138144 -0.03489300 0.01110770
v 0.05274923 -0.03829156 0.01107783
v 0.05274923 -0.03736009 0.01104369
v 0.05394773 -0.03663154 0.01087443
v 0.05401544 -0.03829156 0.01092848
v 0.05274923 -0.03489499 0.00984747
v 0.05274246 -0.03581982 0.01098537
v 0.05274923 -0.03581982 0.01098395
f 1 2 5
f 1 5 3
f 1 3 7
f 1 7 8
f 1 8 4
f 1 4 9
f 1 9 16
f 1 16 24
f 1 24 31
f 1 31 28
f 1 28 21
f 1 21 13
f 1 13 6
f 1 6 2
f 2 6 10
f 2 10 5
f 3 5 12
f 3 12 7
f 4 8 9
f 5 10 11
f 5 11 12
f 6 13 22
f 6 22 18
f 6 18 10
f 7 12 20
f 7 20 19
f 7 19 18
f 7 18 22
f 7 22 27
f 7 27 26
f 7 26 23
f 7 23 14
f 7 14 8
f 8 14 15
f 8 15 9
f 9 15 17
f 9 17 16
f 10 18 19
f 10 19 20
f 10 20 11
f 11 20 12
f 13 21 22
f 14 23 17
f 14 17 15
f 16 17 25
f 16 25 26
f 16 26 24
f 17 23 25
f 21 27 22
f 21 28 29
f 21 29 27
f 23 26 25
f 24 26 30
f 24 30 31
f 26 32 30
f 26 27 32
f 27 29 33
f 27 33 34
f 27 34 32
f 28 31 29
f 29 31 30
f 29 30 33
f 30 32 34
f 30 34 33

