# https://github.com/mikedh/trimesh
v -0.03007163 0.05236638 -0.01054929
v -0.02962990 0.05236638 -0.01111692
v -0.03001437 0.05169936 -0.01116627
v -0.03001437 0.05159292 -0.01117749
v -0.03001437 0.04572452 -0.01145794
v -0.03001437 -0.01109319 -0.01146018
v -0.03001437 -0.01881365 -0.01146018
v -0.03007163 0.05236638 0.01107429
v -0.03007163 0.05365076 -0.00948584
v -0.02888004 0.05365076 -0.01102044
v -0.02763391 0.05236638 -0.01119544
v -0.02603059 0.05236638 -0.01125826
v -0.02421457 0.05111039 -0.01145121
v -0.02860464 0.04573162 -0.01146018
v -0.02860464 -0.01882074 -0.01146018
v -0.03001437 -0.01881365 0.01146018
v -0.03001437 0.04572452 0.01146018
v -0.03001437 0.05159292 0.01117525
v -0.03001437 0.05169936 0.01116627
v -0.02962990 0.05236638 0.01111692
v -0.03007163 0.05365076 0.01090602
v -0.01387200 0.05365786 -0.00967878
v -0.02790114 0.05365076 -0.01105858
v -0.02421457 0.05236638 -0.01131435
v -0.02740487 0.05365076 -0.01107429
v -0.02421457 0.05365076 -0.01117301
v -0.02093702 0.05236638 -0.01128743
v -0.01883742 0.05111039 -0.01140634
v -0.00221514 0.04573162 -0.01145794
v -0.01345481 0.04572452 -0.01146018
v -0.02160234 0.04851325 -0.01145570
v -0.02421457 0.04851325 -0.01145570
v -0.02624873 0.04573162 -0.01146018
v -0.02860464 -0.01882074 0.01146018
v -0.01232321 -0.01882783 -0.01146018
v -0.00358125 -0.01883493 -0.01015891
v -0.02860464 0.04573162 0.01146018
v -0.02682680 0.04851325 0.01145570
v -0.02421457 0.05111039 0.01145121
v -0.02763391 0.05140133 0.01128967
v -0.02888004 0.05365076 0.01102044
v -0.01387200 0.05365786 0.00866693
v -0.01272404 0.05365786 -0.00807014
v -0.00221787 0.05362947 -0.00268556
v -0.01523811 0.05365076 -0.01095089
v -0.01883742 0.05365076 -0.01112140
v -0.02238765 0.05365076 -0.01115730
v -0.02310205 0.05365076 -0.01116403
v -0.01883742 0.05236638 -0.01126724
v -0.00221514 0.04977634 -0.01111019
v -0.00221514 0.04033866 -0.01146018
v -0.00358125 -0.01883493 -0.00799162
v -0.01366204 -0.01882783 0.01146018
v -0.00221514 -0.01882783 -0.01146018
v -0.00221787 -0.01883493 -0.01015891
v -0.02624873 0.04573162 0.01146018
v -0.02421457 0.04851325 0.01145570
v -0.01883742 0.05111039 0.01140634
v -0.02421457 0.05236638 0.01131435
v -0.01345481 0.04572452 0.01146018
v -0.00358397 0.04573162 0.01145794
v -0.00221787 0.04572452 0.01145570
v -0.02421457 0.05365076 0.01117301
v -0.01883742 0.05365076 0.01112140
v -0.01622519 0.05365076 0.01100249
v -0.01590343 0.05365076 0.01098679
v -0.01523811 0.05365076 0.01095089
v -0.01272404 0.05365786 0.00807014
v -0.01019634 0.05365786 -0.00268780
v -0.00221787 0.05265732 -0.00799162
v -0.00221787 0.05362947 0.00268780
v -0.00221514 0.05067044 -0.01015891
v -0.00221787 0.05244444 -0.00833488
v -0.00221787 -0.01883493 -0.00799162
v -0.00808857 -0.01882783 0.01146018
v -0.00221514 -0.01882783 -0.01015891
v -0.01883742 0.05236638 0.01126724
v -0.00221787 0.04976925 0.01110794
v -0.00808857 0.04033866 0.01146018
v -0.00358397 -0.01882074 0.01145794
v -0.00221787 -0.01882783 0.01145570
v -0.00221787 0.05243735 0.00833264
v -0.00221787 0.05265732 0.00798713
v -0.00221787 0.05269990 0.00783905
v -0.00221787 0.05352303 0.00446247
v -0.00221787 0.05001761 0.01099576
v -0.01019634 0.05365786 0.00268780
f 1 2 3
f 1 3 4
f 1 4 5
f 1 5 6
f 1 6 7
f 1 7 16
f 1 16 8
f 1 8 21
f 1 21 9
f 1 9 10
f 1 10 2
f 2 11 4
f 2 4 3
f 2 10 11
f 4 11 12
f 4 12 13
f 4 13 5
f 5 14 6
f 5 13 14
f 6 14 33
f 6 33 30
f 6 30 51
f 6 51 54
f 6 54 35
f 6 35 15
f 6 15 7
f 7 15 34
f 7 34 16
f 8 16 17
f 8 17 18
f 8 18 19
f 8 19 20
f 8 20 21
f 9 21 42
f 9 42 22
f 9 22 10
f 10 22 23
f 10 23 12
f 10 12 11
f 12 24 13
f 12 23 25
f 12 25 26
f 12 26 24
f 13 24 27
f 13 27 28
f 13 28 29
f 13 29 30
f 13 30 31
f 13 31 32
f 13 32 14
f 14 32 31
f 14 31 33
f 15 35 36
f 15 36 52
f 15 52 34
f 16 34 53
f 16 53 75
f 16 75 79
f 16 79 60
f 16 60 56
f 16 56 37
f 16 37 17
f 17 37 38
f 17 38 39
f 17 39 40
f 17 40 18
f 18 40 19
f 19 40 20
f 20 40 41
f 20 41 21
f 21 41 42
f 22 42 68
f 22 68 87
f 22 87 69
f 22 69 43
f 22 43 44
f 22 44 45
f 22 45 46
f 22 46 47
f 22 47 48
f 22 48 26
f 22 26 25
f 22 25 23
f 24 26 48
f 24 48 27
f 27 49 28
f 27 48 47
f 27 47 49
f 28 49 50
f 28 50 29
f 29 50 72
f 29 72 76
f 29 76 54
f 29 54 51
f 29 51 30
f 30 33 31
f 34 52 53
f 35 54 55
f 35 55 36
f 36 55 74
f 36 74 52
f 37 56 57
f 37 57 38
f 38 57 39
f 39 58 59
f 39 59 41
f 39 41 40
f 39 57 60
f 39 60 61
f 39 61 62
f 39 62 58
f 41 63 42
f 41 59 63
f 42 64 65
f 42 65 66
f 42 66 67
f 42 67 68
f 42 63 64
f 43 69 44
f 44 70 45
f 44 69 87
f 44 87 71
f 44 71 72
f 44 72 70
f 45 70 73
f 45 73 50
f 45 50 46
f 46 50 49
f 46 49 47
f 50 73 72
f 52 74 75
f 52 75 53
f 54 76 74
f 54 74 55
f 56 60 57
f 58 77 63
f 58 63 59
f 58 62 78
f 58 78 77
f 60 79 61
f 61 79 75
f 61 75 80
f 61 80 81
f 61 81 62
f 62 81 76
f 62 76 72
f 62 72 78
f 63 77 64
f 64 77 78
f 64 78 65
f 65 78 66
f 66 78 67
f 67 82 83
f 67 83 84
f 67 84 85
f 67 85 71
f 67 71 68
f 67 78 86
f 67 86 82
f 68 71 87
f 70 72 73
f 71 85 72
f 72 86 78
f 72 85 84
f 72 84 83
f 72 83 82
f 72 82 86
f 74 76 81
f 74 81 75
f 75 81 80

