# https://github.com/mikedh/trimesh
v -0.01368985 -0.04225669 0.00371999
v -0.01368985 -0.04225747 0.00457224
v -0.01368985 -0.04145000 0.00371999
v 0.05575306 -0.04225669 0.00371999
v -0.01368985 -0.04225747 0.00998374
v 0.05563070 -0.04225747 0.00457224
v -0.01368985 -0.03829234 0.00374206
v 0.05570548 -0.04145000 0.00371999
v 0.05517527 -0.04225592 0.00806954
v 0.05516847 -0.04225747 0.00807261
v 0.05573267 -0.04189139 0.00371999
v 0.05565789 -0.04036536 0.00374206
v 0.05509370 -0.04036575 0.00806954
v 0.05448193 -0.04225747 0.00998374
v -0.01368985 -0.03829156 0.00998374
v -0.01368985 -0.03829156 0.00457224
v 0.05534521 -0.03829234 0.00374206
v 0.05541319 -0.03869685 0.00374206
v 0.05444795 -0.04036575 0.00998374
v 0.05482860 -0.03829156 0.00806954
v 0.05481501 -0.03829156 0.00817623
v 0.05421683 -0.03829156 0.00998374
v 0.05524325 -0.03829156 0.00457224
f 1 2 5
f 1 5 15
f 1 15 16
f 1 16 7
f 1 7 3
f 1 3 8
f 1 8 11
f 1 11 4
f 1 4 6
f 1 6 2
f 2 6 10
f 2 10 14
f 2 14 5
f 3 7 17
f 3 17 8
f 4 9 10
f 4 10 6
f 4 11 12
f 4 12 13
f 4 13 9
f 5 14 19
f 5 19 22
f 5 22 15
f 7 16 23
f 7 23 17
f 8 17 18
f 8 18 12
f 8 12 11
f 9 14 10
f 9 13 19
f 9 19 14
f 12 18 20
f 12 20 21
f 12 21 13
f 13 21 22
f 13 22 19
f 15 22 21
f 15 21 20
f 15 20 23
f 15 23 16
f 17 23 20
f 17 20 18

