# https://github.com/mikedh/trimesh
v -0.02421751 0.05365799 -0.01117724
v -0.02789924 0.05365799 -0.01105908
v -0.02860172 0.05413922 -0.01098468
v -0.02421751 0.05431799 -0.01110284
v -0.02310086 0.05365799 -0.01116630
v -0.02887860 0.05365799 -0.01102188
v -0.02421751 0.05570891 -0.00807221
v -0.02421751 0.05433846 -0.01105908
v -0.03093342 0.05433846 -0.00943107
v -0.02907768 0.05433846 -0.01020568
v -0.01884250 0.05423379 -0.01105908
v -0.01884250 0.05365799 -0.01112253
v -0.03008220 0.05365799 -0.00948140
v -0.03007762 0.05475770 -0.00856674
v -0.02421751 0.05660333 -0.00268928
v -0.01884021 0.05545864 -0.00807221
v -0.01884250 0.05433846 -0.01080525
v -0.03227659 0.05433846 -0.00750984
v -0.01547654 0.05402677 -0.01092778
v -0.01524085 0.05365799 -0.01095404
v -0.03008220 0.05365799 0.01090590
v -0.03357172 0.05433846 -0.00268928
v -0.03348706 0.05433846 -0.00314004
v -0.02959939 0.05568469 -0.00268928
v -0.02421751 0.05660333 0.00268928
v -0.01884021 0.05627117 -0.00268928
v -0.01431871 0.05447369 -0.00807221
v -0.01620648 0.05433846 -0.01030634
v -0.01395259 0.05365799 -0.00979649
v -0.03008220 0.05396853 0.01086652
v -0.03227659 0.05433846 0.00750984
v -0.03274339 0.05433846 0.00663676
v -0.03348706 0.05433846 0.00314004
v -0.03357172 0.05433846 0.00268928
v -0.02888089 0.05365799 0.01102188
v -0.03352825 0.05435692 -0.00268928
v -0.02959939 0.05568469 0.00268928
v -0.03007762 0.05475770 0.00856674
v -0.02421751 0.05570891 0.00807221
v -0.01884021 0.05545864 0.00807221
v -0.01884021 0.05627117 0.00268928
v -0.01349495 0.05481767 -0.00268928
v -0.01019535 0.05365799 -0.00268928
v -0.01272840 0.05365799 -0.00807002
v -0.03008220 0.05433846 0.00978774
v -0.03093342 0.05433846 0.00943107
v -0.02860172 0.05413922 0.01098687
v -0.03352825 0.05435692 0.00268928
v -0.02421751 0.05365799 0.01117724
v -0.02421751 0.05431799 0.01110503
v -0.01884021 0.05423379 0.01106126
v -0.01547425 0.05402677 0.01092778
v -0.01431871 0.05447369 0.00807221
v -0.01349495 0.05481767 0.00268928
v -0.01019535 0.05365799 0.00268928
v -0.01884021 0.05365799 0.01112472
v -0.01622479 0.05365799 0.01100437
v -0.01590444 0.05365799 0.01098905
v -0.01523628 0.05365799 0.01095404
v -0.01272840 0.05365799 0.00807002
f 1 2 3
f 1 3 4
f 1 4 5
f 1 5 12
f 1 12 20
f 1 20 29
f 1 29 44
f 1 44 43
f 1 43 55
f 1 55 60
f 1 60 59
f 1 59 58
f 1 58 57
f 1 57 56
f 1 56 49
f 1 49 35
f 1 35 21
f 1 21 13
f 1 13 6
f 1 6 2
f 2 6 3
f 3 7 8
f 3 8 4
f 3 6 9
f 3 9 10
f 3 10 7
f 4 8 11
f 4 11 5
f 5 11 12
f 6 13 9
f 7 10 14
f 7 14 15
f 7 15 16
f 7 16 17
f 7 17 11
f 7 11 8
f 9 18 14
f 9 14 10
f 9 13 18
f 11 17 19
f 11 19 12
f 12 19 20
f 13 21 34
f 13 34 22
f 13 22 23
f 13 23 18
f 14 24 15
f 14 18 24
f 15 24 37
f 15 37 25
f 15 25 41
f 15 41 26
f 15 26 16
f 16 26 27
f 16 27 28
f 16 28 17
f 17 28 19
f 18 23 24
f 19 28 27
f 19 27 29
f 19 29 20
f 21 30 31
f 21 31 32
f 21 32 33
f 21 33 34
f 21 35 30
f 22 34 48
f 22 48 36
f 22 36 23
f 23 36 24
f 24 36 48
f 24 48 37
f 25 37 38
f 25 38 39
f 25 39 40
f 25 40 41
f 26 41 54
f 26 54 42
f 26 42 27
f 27 42 43
f 27 43 44
f 27 44 29
f 30 45 46
f 30 46 31
f 30 35 47
f 30 47 45
f 31 46 38
f 31 38 32
f 32 38 37
f 32 37 33
f 33 37 48
f 33 48 34
f 35 49 47
f 38 46 45
f 38 45 47
f 38 47 39
f 39 47 50
f 39 50 51
f 39 51 40
f 40 51 52
f 40 52 53
f 40 53 41
f 41 53 54
f 42 54 55
f 42 55 43
f 47 49 50
f 49 56 50
f 50 56 51
f 51 56 57
f 51 57 52
f 52 57 58
f 52 58 59
f 52 59 60
f 52 60 53
f 53 60 55
f 53 55 54

