# https://github.com/mikedh/trimesh
v 0.04574971 0.04035389 0.01146018
v 0.04574971 0.04570973 0.01131211
v 0.04037935 0.04574587 0.01145794
v 0.04037778 0.04035389 0.01146018
v 0.04574971 -0.01883493 0.01146018
v 0.04928683 0.02957718 0.01145345
v 0.05088500 0.02958440 0.01144897
v 0.05112954 0.02958440 0.01144672
v 0.04891450 0.04570973 0.01096211
v 0.04848064 0.04848522 0.01079833
v 0.04667580 0.04899117 0.01090826
v 0.04574971 0.04924414 0.01096435
v 0.04360567 0.05002475 0.01103615
v 0.04037935 0.05119566 0.01114160
v 0.04037935 0.04783471 0.01133679
v 0.05162650 0.03546787 0.01117525
v 0.05017663 0.04035389 0.01111019
v 0.04928683 0.04414128 0.01100698
v 0.04037778 0.04328840 0.01145794
v 0.04037778 -0.01883493 0.01146018
v 0.04904387 -0.01883493 0.01111019
v 0.05112954 0.01883660 0.01137941
v 0.05112954 0.02421411 0.01143999
v 0.05088500 0.02886885 0.01144897
v 0.04928683 0.02775576 0.01145345
v 0.05218026 0.02959163 0.01133454
v 0.05218026 0.03113116 0.01128743
v 0.05413498 0.03400062 0.01098679
v 0.04882142 0.04889721 0.00806790
v 0.04325701 0.05392779 0.00606438
v 0.04215264 0.05303876 0.00965186
v 0.04059707 0.05144864 0.01094865
v 0.04037935 0.05122457 0.01112813
v 0.05375319 0.03759286 0.01071307
v 0.05418073 0.03868426 0.00712560
v 0.04037778 0.04328840 -0.01146018
v 0.04037935 0.05144864 0.01090602
v 0.04037935 0.05440483 0.00796021
v 0.04037935 0.05441928 0.00793104
v 0.04037935 0.05500474 0.00268780
v 0.04037778 -0.01883493 -0.01146018
v 0.04928525 -0.01883493 0.01066147
v 0.05068464 -0.01882771 0.00806790
v 0.05372006 0.01092933 0.01068839
v 0.05400246 0.01452157 0.01091275
v 0.05417126 0.01883660 0.01103390
v 0.05218026 0.01883660 0.01126275
v 0.05218026 0.02063633 0.01128518
v 0.05218026 0.02421411 0.01132557
v 0.05429906 0.02959163 0.01110121
v 0.05563376 0.02959163 0.00807238
v 0.05475027 0.03546787 0.00857943
v 0.05139458 0.04573864 0.00268780
v 0.04928683 0.04906345 0.00268780
v 0.04902494 0.04913572 0.00465318
v 0.04604474 0.05197627 0.00269005
v 0.05338086 0.04188620 0.00268780
v 0.05218183 0.04422079 0.00268780
v 0.04360567 0.05381214 0.00269005
v 0.04335325 0.05398561 0.00268780
v 0.05465403 0.03600996 0.00833713
v 0.05567793 0.03496915 0.00268780
v 0.05535609 0.03600996 0.00268780
v 0.05436059 0.03919021 0.00268780
v 0.04037935 0.05500474 -0.00268780
v 0.04037935 0.05441206 -0.00793553
v 0.04037935 0.05440483 -0.00796021
v 0.04037935 0.05351580 -0.01028679
v 0.04037935 0.05144864 -0.01104961
v 0.04037935 0.05119566 -0.01114160
v 0.04037935 0.05118843 -0.01114384
v 0.04037935 0.04783471 -0.01133903
v 0.04037935 0.04570250 -0.01146018
v 0.04574656 -0.01883493 -0.01146018
v 0.05088500 -0.01883493 0.00708745
v 0.05388255 -0.00085928 0.00579067
v 0.05403243 0.00269682 0.00664996
v 0.05524407 0.01883660 0.00807238
v 0.05556434 0.02422134 0.00807238
v 0.05427855 0.02422134 0.01109224
v 0.05649358 0.02959163 0.00268780
v 0.05139458 0.04573864 -0.00268556
v 0.04928683 0.04906345 -0.00268780
v 0.04914168 0.04925860 0.00268556
v 0.04604474 0.05197627 -0.00269005
v 0.05338086 0.04188620 -0.00268556
v 0.05218183 0.04422079 -0.00268556
v 0.04360567 0.05381214 -0.00269005
v 0.04335325 0.05398561 -0.00268780
v 0.05567793 0.03496915 -0.00268780
v 0.05535609 0.03600996 -0.00268556
v 0.05436059 0.03919021 -0.00268556
v 0.04325701 0.05392779 -0.00606663
v 0.04215264 0.05303876 -0.00965410
v 0.04848064 0.04848522 -0.01079384
v 0.04667580 0.04899117 -0.01090826
v 0.04360567 0.05002475 -0.01103615
v 0.04360251 0.04792145 -0.01124480
v 0.04360251 0.04574587 -0.01137044
v 0.04282630 0.04328840 -0.01146018
v 0.04904071 -0.01883493 -0.01111019
v 0.04574971 -0.01344296 -0.01146018
v 0.04928683 0.02957718 -0.01145345
v 0.05088500 0.02910737 -0.01144897
v 0.05112954 0.02958440 -0.01144672
v 0.05112954 0.02421411 -0.01143999
v 0.05112954 0.01883660 -0.01137941
v 0.05178742 -0.01883493 0.00268556
v 0.05323887 -0.00806544 0.00268556
v 0.05372006 -0.00398171 0.00268556
v 0.05596665 0.01883660 0.00268780
v 0.05639735 0.02422134 0.00268780
v 0.05649358 0.02959163 -0.00268780
v 0.04882142 0.04889721 -0.00806790
v 0.04902494 0.04913572 -0.00465318
v 0.04914168 0.04925860 -0.00268556
v 0.04360567 0.05368927 -0.00564708
v 0.05418073 0.03868426 -0.00712560
v 0.05475027 0.03546787 -0.00857943
v 0.05465403 0.03600996 -0.00833713
v 0.05525985 0.03600996 -0.00392177
v 0.04876935 0.04664212 -0.01090602
v 0.04574971 0.04570973 -0.01131211
v 0.05375319 0.03759286 -0.01071532
v 0.05413498 0.03400062 -0.01098679
v 0.04574971 0.04924414 -0.01096435
v 0.04574971 0.04035389 -0.01146018
v 0.05372006 0.01092933 -0.01068839
v 0.04928525 -0.01883493 -0.01065923
v 0.05218026 0.01883660 -0.01126275
v 0.05417126 0.01883660 -0.01103390
v 0.05400246 0.01452157 -0.01091275
v 0.04928683 0.03142750 -0.01145345
v 0.05088500 0.02982292 -0.01144897
v 0.05162650 0.03546787 -0.01117525
v 0.05218026 0.02959163 -0.01133454
v 0.05218026 0.02421411 -0.01132557
v 0.05178584 -0.01883493 -0.00269005
v 0.05323887 -0.00806544 -0.00268780
v 0.05372006 -0.00398171 -0.00268780
v 0.05596665 0.01883660 -0.00268780
v 0.05639735 0.02422134 -0.00268780
v 0.05556434 0.02422134 -0.00807238
v 0.05563376 0.02959163 -0.00807238
v 0.04891450 0.04570973 -0.01096211
v 0.05012457 0.04057796 -0.01110345
v 0.04928683 0.04141639 -0.01115057
v 0.05098439 0.03763622 -0.01114608
v 0.05429906 0.02959163 -0.01110121
v 0.04999677 0.04057796 -0.01111692
v 0.05403243 0.00269682 -0.00664996
v 0.05388255 -0.00085928 -0.00579291
v 0.05068306 -0.01882771 -0.00807014
v 0.05524407 0.01883660 -0.00807238
v 0.05088500 -0.01883493 -0.00708521
v 0.05427855 0.02422134 -0.01109224
f 1 2 3
f 1 3 4
f 1 4 20
f 1 20 5
f 1 5 25
f 1 25 6
f 1 6 7
f 1 7 8
f 1 8 2
f 2 9 10
f 2 10 11
f 2 11 12
f 2 12 13
f 2 13 14
f 2 14 15
f 2 15 3
f 2 8 16
f 2 16 17
f 2 17 18
f 2 18 9
f 3 15 19
f 3 19 4
f 4 19 36
f 4 36 41
f 4 41 20
f 5 20 41
f 5 41 74
f 5 74 101
f 5 101 129
f 5 129 155
f 5 155 138
f 5 138 108
f 5 108 75
f 5 75 42
f 5 42 21
f 5 21 22
f 5 22 23
f 5 23 8
f 5 8 24
f 5 24 25
f 6 25 24
f 6 24 7
f 7 24 8
f 8 26 27
f 8 27 16
f 8 23 26
f 9 18 28
f 9 28 10
f 10 29 30
f 10 30 31
f 10 31 32
f 10 32 33
f 10 33 14
f 10 14 11
f 10 28 34
f 10 34 35
f 10 35 29
f 11 14 13
f 11 13 12
f 14 33 19
f 14 19 15
f 16 27 28
f 16 28 17
f 17 28 18
f 19 33 37
f 19 37 38
f 19 38 39
f 19 39 40
f 19 40 65
f 19 65 36
f 21 42 43
f 21 43 44
f 21 44 45
f 21 45 46
f 21 46 47
f 21 47 22
f 22 47 48
f 22 48 49
f 22 49 23
f 23 49 26
f 26 50 28
f 26 28 27
f 26 49 50
f 28 50 51
f 28 51 52
f 28 52 34
f 29 53 54
f 29 54 55
f 29 55 56
f 29 56 30
f 29 35 57
f 29 57 58
f 29 58 53
f 30 56 59
f 30 59 60
f 30 60 40
f 30 40 39
f 30 39 31
f 31 39 38
f 31 38 32
f 32 38 37
f 32 37 33
f 34 52 61
f 34 61 35
f 35 61 62
f 35 62 63
f 35 63 64
f 35 64 57
f 36 65 66
f 36 66 67
f 36 67 68
f 36 68 69
f 36 69 70
f 36 70 71
f 36 71 72
f 36 72 73
f 36 73 100
f 36 100 127
f 36 127 102
f 36 102 74
f 36 74 41
f 40 60 89
f 40 89 65
f 42 75 43
f 43 75 76
f 43 76 44
f 44 76 77
f 44 77 78
f 44 78 45
f 45 78 79
f 45 79 46
f 46 79 80
f 46 80 47
f 47 80 48
f 48 80 49
f 49 80 50
f 50 80 51
f 51 81 52
f 51 80 79
f 51 79 81
f 52 62 61
f 52 81 62
f 53 82 83
f 53 83 54
f 53 58 87
f 53 87 82
f 54 83 116
f 54 116 84
f 54 84 55
f 55 84 56
f 56 84 116
f 56 116 85
f 56 85 88
f 56 88 59
f 57 86 87
f 57 87 58
f 57 64 92
f 57 92 86
f 59 88 89
f 59 89 60
f 62 90 91
f 62 91 63
f 62 81 113
f 62 113 90
f 63 91 92
f 63 92 64
f 65 89 93
f 65 93 66
f 66 93 67
f 67 93 94
f 67 94 68
f 68 94 95
f 68 95 96
f 68 96 69
f 69 96 70
f 70 96 97
f 70 97 71
f 71 97 98
f 71 98 72
f 72 98 99
f 72 99 73
f 73 99 100
f 74 102 103
f 74 103 104
f 74 104 105
f 74 105 106
f 74 106 107
f 74 107 101
f 75 108 76
f 76 108 109
f 76 109 110
f 76 110 111
f 76 111 78
f 76 78 77
f 78 111 112
f 78 112 79
f 79 112 81
f 81 112 142
f 81 142 113
f 82 114 83
f 82 87 114
f 83 114 115
f 83 115 116
f 85 116 115
f 85 115 114
f 85 114 117
f 85 117 88
f 86 92 118
f 86 118 114
f 86 114 87
f 88 117 93
f 88 93 89
f 90 119 120
f 90 120 121
f 90 121 91
f 90 113 119
f 91 121 118
f 91 118 92
f 93 117 114
f 93 114 95
f 93 95 94
f 95 122 123
f 95 123 96
f 95 114 118
f 95 118 124
f 95 124 125
f 95 125 122
f 96 123 126
f 96 126 97
f 97 126 98
f 98 126 123
f 98 123 99
f 99 123 100
f 100 123 127
f 101 128 129
f 101 107 130
f 101 130 131
f 101 131 132
f 101 132 128
f 102 127 133
f 102 133 103
f 103 133 134
f 103 134 104
f 104 134 105
f 105 134 127
f 105 127 123
f 105 123 135
f 105 135 125
f 105 125 136
f 105 136 106
f 106 136 137
f 106 137 107
f 107 137 130
f 108 138 139
f 108 139 109
f 109 139 140
f 109 140 110
f 110 140 141
f 110 141 111
f 111 141 142
f 111 142 112
f 113 142 143
f 113 143 144
f 113 144 119
f 118 121 120
f 118 120 124
f 119 124 120
f 119 144 125
f 119 125 124
f 122 145 123
f 122 125 145
f 123 145 146
f 123 146 147
f 123 147 148
f 123 148 135
f 125 144 149
f 125 149 136
f 125 135 148
f 125 148 150
f 125 150 146
f 125 146 145
f 127 134 133
f 128 151 152
f 128 152 153
f 128 153 129
f 128 132 154
f 128 154 151
f 129 153 155
f 130 137 156
f 130 156 131
f 131 156 143
f 131 143 132
f 132 143 154
f 136 149 137
f 137 149 156
f 138 155 152
f 138 152 139
f 139 152 140
f 140 152 141
f 141 154 142
f 141 152 154
f 142 154 143
f 143 156 144
f 144 156 149
f 146 150 147
f 147 150 148
f 151 154 152
f 152 155 153

