# https://github.com/mikedh/trimesh
v -0.04574536 -0.04574702 -0.01146018
v -0.04574536 -0.05112941 -0.01145794
v -0.05112857 -0.04574702 -0.01145570
v -0.04574536 -0.03489459 -0.01146018
v -0.01369405 -0.04574702 -0.01146018
v -0.04574536 -0.05117563 -0.01145345
v -0.04648917 -0.05117563 -0.01142204
v -0.01369405 -0.05112941 -0.01145794
v -0.05112857 -0.04036623 -0.01138839
v -0.05146055 -0.05117563 -0.01119544
v -0.05416686 -0.04991809 -0.01099352
v -0.05432235 -0.04574702 -0.01110570
v -0.05116219 -0.03489459 -0.01112813
v -0.01369405 -0.03489459 -0.01146018
v -0.01876208 -0.05117563 -0.01145345
v -0.01369405 -0.05117244 -0.01145345
v -0.05419208 -0.04036623 -0.01104063
v -0.05399457 -0.03689007 -0.01090826
v -0.05200265 -0.05117563 -0.01114384
v -0.05393574 -0.05117563 -0.01081852
v -0.05467955 -0.05117563 -0.00894513
v -0.05572173 -0.04574702 -0.00807238
v -0.05136390 -0.03489459 -0.01100025
v -0.01369405 -0.03489459 -0.01082749
v -0.01369405 -0.05117563 0.01075794
v -0.05532251 -0.04036623 -0.00807238
v -0.05435597 -0.03489459 -0.00792655
v -0.05424671 -0.03489459 -0.00812623
v -0.05485185 -0.05117563 -0.00842911
v -0.05662104 -0.04574702 -0.00269005
v -0.01369405 -0.03489778 0.01146018
v -0.01874947 -0.03489459 0.01146018
v -0.01369405 -0.05117563 0.01145345
v -0.05608314 -0.04036623 -0.00269005
v -0.05491908 -0.03489459 -0.00269005
v -0.05489807 -0.05117563 -0.00814194
v -0.05575956 -0.05112941 -0.00269005
v -0.05662104 -0.04574702 0.00269005
v -0.01369405 -0.04574702 0.01146018
v -0.04574536 -0.03489459 0.01146018
v -0.01369405 -0.05113100 0.01145794
v -0.04574536 -0.05117563 0.01145345
v -0.05608314 -0.04036623 0.00269005
v -0.05491908 -0.03489459 0.00275287
v -0.05563349 -0.05117563 -0.00343491
v -0.05573434 -0.05117563 -0.00275287
v -0.05573854 -0.05117563 -0.00269005
v -0.05575956 -0.05112941 0.00269005
v -0.05572173 -0.04574702 0.00807238
v -0.05532251 -0.04036623 0.00807238
v -0.05485185 -0.05117563 0.00842911
v -0.04574536 -0.04574702 0.01146018
v -0.05104032 -0.03489459 0.01113711
v -0.05112857 -0.04036623 0.01138839
v -0.05112857 -0.04574702 0.01145570
v -0.04574536 -0.05112941 0.01145794
v -0.04580839 -0.05117563 0.01145121
v -0.05435597 -0.03489459 0.00792655
v -0.05573854 -0.05117563 0.00269005
v -0.05563349 -0.05117563 0.00343491
v -0.05467955 -0.05117563 0.00894513
v -0.05416686 -0.04991809 0.01099352
v -0.05432235 -0.04574702 0.01110570
v -0.05419208 -0.04036623 0.01104063
v -0.05399457 -0.03689007 0.01090826
v -0.05116219 -0.03489459 0.01112813
v -0.05146055 -0.05117563 0.01119544
v -0.04648917 -0.05117563 0.01142204
v -0.05346507 -0.03489459 0.01023519
v -0.05200265 -0.05117563 0.01114384
f 1 2 3
f 1 3 4
f 1 4 14
f 1 14 5
f 1 5 8
f 1 8 2
f 2 6 7
f 2 7 3
f 2 8 15
f 2 15 6
f 3 9 4
f 3 7 10
f 3 10 11
f 3 11 12
f 3 12 9
f 4 9 13
f 4 13 23
f 4 23 28
f 4 28 27
f 4 27 35
f 4 35 44
f 4 44 58
f 4 58 69
f 4 69 66
f 4 66 53
f 4 53 40
f 4 40 32
f 4 32 24
f 4 24 14
f 5 14 24
f 5 24 31
f 5 31 39
f 5 39 41
f 5 41 33
f 5 33 25
f 5 25 16
f 5 16 8
f 6 15 25
f 6 25 33
f 6 33 42
f 6 42 57
f 6 57 68
f 6 68 67
f 6 67 70
f 6 70 61
f 6 61 51
f 6 51 60
f 6 60 59
f 6 59 47
f 6 47 46
f 6 46 45
f 6 45 36
f 6 36 29
f 6 29 21
f 6 21 20
f 6 20 19
f 6 19 10
f 6 10 7
f 8 16 15
f 9 12 17
f 9 17 18
f 9 18 13
f 10 19 11
f 11 20 21
f 11 21 22
f 11 22 12
f 11 19 20
f 12 22 17
f 13 18 23
f 15 16 25
f 17 22 18
f 18 22 26
f 18 26 27
f 18 27 28
f 18 28 23
f 21 29 22
f 22 30 26
f 22 29 30
f 24 32 31
f 26 30 34
f 26 34 27
f 27 34 35
f 29 36 30
f 30 37 48
f 30 48 38
f 30 38 43
f 30 43 34
f 30 36 37
f 31 32 40
f 31 40 52
f 31 52 39
f 33 41 42
f 34 43 44
f 34 44 35
f 36 45 37
f 37 46 47
f 37 47 59
f 37 59 48
f 37 45 46
f 38 49 50
f 38 50 43
f 38 48 51
f 38 51 49
f 39 52 41
f 40 53 54
f 40 54 55
f 40 55 52
f 41 52 56
f 41 56 42
f 42 56 57
f 43 50 58
f 43 58 44
f 48 59 60
f 48 60 51
f 49 51 61
f 49 61 62
f 49 62 63
f 49 63 64
f 49 64 65
f 49 65 50
f 50 65 58
f 52 55 56
f 53 66 54
f 54 66 65
f 54 65 64
f 54 64 63
f 54 63 55
f 55 63 62
f 55 62 67
f 55 67 68
f 55 68 56
f 56 68 57
f 58 65 69
f 61 70 62
f 62 70 67
f 65 66 69

