# https://github.com/mikedh/trimesh
v 0.05421578 -0.03829157 0.00998442
v 0.05402189 -0.03829157 0.01093128
v 0.05445646 -0.04036745 0.00998442
v 0.05253101 -0.03829157 0.00998442
v 0.05269814 -0.03829157 0.01108586
v 0.05253101 -0.03851479 0.01111389
v 0.05411549 -0.04036745 0.01099874
v 0.05460354 -0.04574757 0.00998442
v 0.05253101 -0.05113527 0.00998442
v -0.01368317 -0.03829157 0.00998471
v 0.05253101 -0.03829157 0.01110536
v 0.05253101 -0.04036745 0.01118352
v 0.05122731 -0.03829157 0.01125691
v 0.05420241 -0.04574757 0.01106130
v 0.05449657 -0.04796596 0.00998442
v 0.05366755 -0.05035713 0.00998442
v 0.05090641 -0.05117563 0.01114466
v 0.05246415 -0.05117563 0.00998500
v -0.01041391 -0.05117563 0.00998485
v -0.01366980 -0.05117563 0.00998485
v -0.01368317 -0.05117437 0.00998485
v -0.01368317 -0.03916934 0.00998471
v -0.01368317 -0.03829157 0.01146018
v 0.05112034 -0.04036871 0.01134648
v 0.04573843 -0.03829157 0.01146018
v 0.05118051 -0.03916934 0.01129491
v 0.05406869 -0.04909975 0.01096032
v 0.05253101 -0.04574757 0.01125070
v 0.05423583 -0.04944657 0.00998442
v 0.05401521 -0.04980096 0.00998442
v 0.05253101 -0.05005445 0.01105870
v 0.05102006 -0.05098519 0.01115463
v 0.04573843 -0.05112770 0.01145310
v 0.04573843 -0.05117563 0.01144819
v -0.01368317 -0.05117563 0.01075979
v -0.01368317 -0.04574631 0.01146018
v 0.05112034 -0.04098668 0.01135371
v 0.04573843 -0.04098668 0.01146018
v 0.05112034 -0.04574631 0.01140875
v 0.04706887 -0.04979465 0.01144227
v 0.04573175 -0.04574631 0.01146018
v 0.04035653 -0.05112770 0.01145960
v 0.04565821 -0.05117563 0.01144834
v -0.01368317 -0.05117563 0.01145484
v -0.01368317 -0.05113023 0.01145946
v -0.01344249 -0.05112770 0.01145960
v -0.00832801 -0.05113401 0.01145946
v 0.04035653 -0.05117563 0.01145469
v -0.01041391 -0.05117563 0.01145484
f 1 2 3
f 1 3 8
f 1 8 15
f 1 15 29
f 1 29 30
f 1 30 16
f 1 16 9
f 1 9 4
f 1 4 10
f 1 10 23
f 1 23 25
f 1 25 13
f 1 13 11
f 1 11 5
f 1 5 2
f 2 5 6
f 2 6 7
f 2 7 3
f 3 7 8
f 4 9 22
f 4 22 10
f 5 11 6
f 6 12 7
f 6 11 13
f 6 13 12
f 7 14 8
f 7 12 14
f 8 14 15
f 9 16 17
f 9 17 18
f 9 18 19
f 9 19 20
f 9 20 21
f 9 21 22
f 10 22 21
f 10 21 35
f 10 35 44
f 10 44 45
f 10 45 36
f 10 36 23
f 12 13 24
f 12 24 14
f 13 25 26
f 13 26 24
f 14 27 15
f 14 24 28
f 14 28 27
f 15 27 29
f 16 30 27
f 16 27 17
f 17 27 31
f 17 31 32
f 17 32 33
f 17 33 34
f 17 34 43
f 17 43 48
f 17 48 49
f 17 49 44
f 17 44 35
f 17 35 20
f 17 20 19
f 17 19 18
f 20 35 21
f 23 36 41
f 23 41 38
f 23 38 25
f 24 37 28
f 24 26 25
f 24 25 37
f 25 38 39
f 25 39 37
f 27 30 29
f 27 28 39
f 27 39 31
f 28 37 39
f 31 39 32
f 32 39 33
f 33 39 40
f 33 40 41
f 33 41 42
f 33 42 43
f 33 43 34
f 36 45 46
f 36 46 42
f 36 42 41
f 38 41 39
f 39 41 40
f 42 46 47
f 42 47 48
f 42 48 43
f 44 49 47
f 44 47 45
f 45 47 46
f 47 49 48

