# https://github.com/mikedh/trimesh
v 0.05496308 -0.03489300 -0.00307206
v 0.05570003 -0.03999857 -0.00307206
v 0.05556356 -0.03947059 -0.00361889
v 0.05533156 -0.03857678 -0.00454751
v 0.05490166 -0.03489300 -0.00361889
v -0.01358749 -0.03489300 -0.00307206
v 0.05574780 -0.04036976 -0.00307206
v 0.05537932 -0.04036843 -0.00589241
v 0.05499037 -0.03727426 -0.00589241
v 0.05436260 -0.03490238 -0.00834492
v 0.05434895 -0.03489300 -0.00834820
v -0.01360114 -0.03489300 -0.00361889
v -0.01368303 -0.03489434 -0.00454751
v -0.01367620 -0.03489568 -0.00307206
v 0.05602075 -0.04574737 -0.00307206
v 0.05590474 -0.04485222 -0.00361889
v 0.05508591 -0.04037110 -0.00807069
v 0.05423977 -0.03542098 -0.00910522
v 0.05389176 -0.03489568 -0.00986553
v 0.05388494 -0.03489434 -0.00986553
v 0.05365293 -0.03489434 -0.01060777
v 0.05273174 -0.03489300 -0.00986553
v -0.01361479 -0.03489300 -0.00454587
v -0.01366255 -0.03489300 -0.00910522
v -0.01366938 -0.03489300 -0.00986553
v -0.01368985 -0.03489434 -0.00910522
v -0.01368303 -0.03489568 -0.00361889
v -0.01367620 -0.04858290 -0.00307206
v 0.05537932 -0.04858290 -0.00307206
v 0.05496308 -0.04777218 -0.00807233
v 0.05508591 -0.04711287 -0.00807233
v 0.05531108 -0.04574469 -0.00807069
v 0.05489484 -0.04384316 -0.00910522
v 0.05474472 -0.04037110 -0.00910522
v 0.05394635 -0.03663372 -0.01087625
v 0.05138748 -0.03489836 -0.01110943
v 0.05138065 -0.03489434 -0.01110943
v 0.04573748 -0.03489434 -0.01145921
v -0.01368985 -0.03489434 -0.01145921
v -0.01368985 -0.04777084 -0.00910522
v -0.01368303 -0.04858290 -0.00361889
v 0.05530426 -0.04858290 -0.00361889
v 0.05517461 -0.04858023 -0.00454587
v 0.05432847 -0.04777084 -0.00986553
v 0.05411695 -0.04748943 -0.01100844
v 0.05464919 -0.04574603 -0.00986553
v 0.05410329 -0.04036843 -0.01099777
v 0.05111453 -0.04036843 -0.01134590
v 0.05112135 -0.04065385 -0.01134918
v 0.05112135 -0.04574603 -0.01140830
v 0.04573748 -0.04574603 -0.01145921
v -0.01368985 -0.04749077 -0.01145921
v -0.01368985 -0.04777084 -0.00986553
v -0.01368303 -0.04858290 -0.00454587
v -0.01115827 -0.04858290 -0.00454587
v -0.00627252 -0.04749077 -0.01145921
v 0.04035360 -0.04748943 -0.01145921
v 0.04573748 -0.04748943 -0.01145674
v 0.05108041 -0.04748943 -0.01132373
v 0.05264985 -0.04748943 -0.01117430
v 0.05418518 -0.04574603 -0.01106017
f 1 2 3
f 1 3 4
f 1 4 5
f 1 5 11
f 1 11 22
f 1 22 25
f 1 25 24
f 1 24 23
f 1 23 12
f 1 12 6
f 1 6 14
f 1 14 28
f 1 28 29
f 1 29 15
f 1 15 7
f 1 7 2
f 2 7 3
f 3 7 4
f 4 7 8
f 4 8 9
f 4 9 5
f 5 9 10
f 5 10 11
f 6 12 13
f 6 13 14
f 7 15 16
f 7 16 8
f 8 16 17
f 8 17 10
f 8 10 9
f 10 18 19
f 10 19 11
f 10 17 18
f 11 19 20
f 11 20 21
f 11 21 22
f 12 23 13
f 13 23 24
f 13 24 25
f 13 25 26
f 13 26 27
f 13 27 14
f 14 27 41
f 14 41 28
f 15 29 30
f 15 30 31
f 15 31 32
f 15 32 17
f 15 17 16
f 17 32 33
f 17 33 34
f 17 34 35
f 17 35 18
f 18 35 19
f 19 35 21
f 19 21 20
f 21 36 37
f 21 37 22
f 21 35 36
f 22 37 38
f 22 38 39
f 22 39 25
f 25 39 26
f 26 39 52
f 26 52 53
f 26 53 40
f 26 40 41
f 26 41 27
f 28 41 54
f 28 54 55
f 28 55 42
f 28 42 29
f 29 42 30
f 30 42 43
f 30 43 44
f 30 44 45
f 30 45 31
f 31 45 32
f 32 46 33
f 32 45 46
f 33 46 47
f 33 47 34
f 34 47 35
f 35 47 36
f 36 47 48
f 36 48 38
f 36 38 37
f 38 48 49
f 38 49 50
f 38 50 51
f 38 51 57
f 38 57 56
f 38 56 52
f 38 52 39
f 40 53 54
f 40 54 41
f 42 55 43
f 43 55 44
f 44 55 54
f 44 54 53
f 44 53 52
f 44 52 56
f 44 56 57
f 44 57 58
f 44 58 59
f 44 59 60
f 44 60 45
f 45 60 50
f 45 50 61
f 45 61 46
f 46 61 47
f 47 49 48
f 47 61 49
f 49 61 50
f 50 60 59
f 50 59 58
f 50 58 51
f 51 58 57

