# https://github.com/mikedh/trimesh
v 0.02542427 -0.01545467 -0.00547900
v 0.02677396 0.01407880 -0.00634706
v 0.02677543 -0.01544768 -0.00634706
v 0.04037777 -0.01545467 -0.00547900
v 0.02542427 -0.01545467 -0.00327533
v 0.02542427 0.05556545 -0.00547900
v 0.02677396 0.05546759 -0.00634706
v 0.04037630 -0.01544768 -0.00634706
v 0.04037777 -0.01545467 -0.00327533
v 0.04037777 0.05469168 -0.00547900
v 0.02542427 0.05585904 -0.00327533
v 0.02960510 0.05595690 -0.00327533
v 0.02960364 0.05565633 -0.00547900
v 0.02960364 0.05553050 -0.00634706
v 0.04037630 0.05458683 -0.00634706
v 0.04037777 0.05493634 -0.00327533
v 0.04036167 0.05459382 -0.00634706
v 0.03783355 0.05513206 -0.00547900
v 0.03557918 0.05577515 -0.00327533
v 0.03207612 0.05562137 -0.00547900
v 0.03498192 0.05586603 -0.00327533
v 0.03412701 0.05550953 -0.00606171
v 0.03140274 0.05550953 -0.00634706
v 0.03914811 0.05480352 -0.00634706
v 0.03498192 0.05545361 -0.00634706
v 0.03751735 0.05518099 -0.00547900
v 0.03872066 0.05487343 -0.00634706
v 0.03498192 0.05557245 -0.00547900
v 0.03412701 0.05546759 -0.00634706
f 1 2 3
f 1 3 8
f 1 8 4
f 1 4 9
f 1 9 5
f 1 5 11
f 1 11 6
f 1 6 7
f 1 7 2
f 2 7 14
f 2 14 23
f 2 23 29
f 2 29 25
f 2 25 27
f 2 27 24
f 2 24 17
f 2 17 15
f 2 15 8
f 2 8 3
f 4 8 15
f 4 15 10
f 4 10 16
f 4 16 9
f 5 9 16
f 5 16 19
f 5 19 21
f 5 21 12
f 5 12 11
f 6 11 12
f 6 12 13
f 6 13 14
f 6 14 7
f 10 15 17
f 10 17 18
f 10 18 19
f 10 19 16
f 12 20 13
f 12 21 22
f 12 22 20
f 13 20 23
f 13 23 14
f 17 24 18
f 18 25 26
f 18 26 19
f 18 24 27
f 18 27 25
f 19 26 28
f 19 28 21
f 20 22 23
f 21 28 22
f 22 25 29
f 22 29 23
f 22 28 25
f 25 28 26

