# https://github.com/mikedh/trimesh
v -0.04573271 -0.05501571 -0.00970645
v 0.04034880 -0.05501571 -0.00970645
v -0.04573271 -0.05575102 -0.00817738
v -0.04773028 -0.05501571 -0.00947746
v -0.05483927 -0.05117951 -0.00842853
v -0.05480989 -0.05117624 -0.00842853
v -0.04646711 -0.05117624 -0.00842853
v 0.04429498 -0.05117624 -0.00842705
v 0.04430477 -0.05501571 -0.00964145
v 0.04035860 -0.05575102 -0.00817738
v -0.04573271 -0.05580171 -0.00807101
v -0.04586000 -0.05575102 -0.00816261
v -0.04602647 -0.05575102 -0.00809169
v -0.05012932 -0.05501571 -0.00842705
v -0.05115748 -0.05485982 -0.00842705
v -0.05144144 -0.05481458 -0.00842705
v -0.05146103 -0.05481077 -0.00842705
v -0.05148061 -0.05479932 -0.00842705
v -0.05175479 -0.05454695 -0.00842705
v -0.05346839 -0.05283162 -0.00842853
v -0.05476093 -0.05151527 -0.00842853
v -0.05477072 -0.05147984 -0.00842853
v -0.05483927 -0.05117624 -0.00842705
v -0.05573034 -0.05117624 -0.00274954
v 0.04429498 -0.05117624 0.00538336
v 0.04430477 -0.05283162 -0.00842705
v 0.04430477 -0.05558858 -0.00842705
v 0.04429498 -0.05575102 -0.00809169
v 0.04035860 -0.05580171 -0.00807101
v -0.04573271 -0.05674468 -0.00268897
v -0.04710359 -0.05626992 -0.00413531
v -0.04868010 -0.05575102 -0.00564370
v -0.05112810 -0.05575102 -0.00279534
v -0.05115748 -0.05575102 -0.00273476
v -0.05251857 -0.05454695 -0.00784202
v -0.05446718 -0.05283162 -0.00766473
v -0.05447697 -0.05283162 -0.00761894
v -0.05497636 -0.05283162 -0.00268601
v -0.05573034 -0.05117624 0.00268865
v -0.05432029 -0.05379639 -0.00641488
v 0.04430477 -0.05283162 0.00538632
v -0.04646711 -0.05117624 0.00538484
v 0.04430477 -0.05454695 0.00538632
v 0.04429498 -0.05667818 0.00269012
v 0.04429498 -0.05667818 -0.00268897
v 0.04429498 -0.05576028 -0.00807101
v 0.04035860 -0.05674468 -0.00268897
v -0.04573271 -0.05674468 0.00269012
v -0.04872906 -0.05620342 0.00016974
v -0.05014890 -0.05594615 -0.00171390
v -0.05111831 -0.05576900 -0.00268897
v -0.05116727 -0.05575102 -0.00268897
v -0.05338026 -0.05454750 -0.00585792
v -0.05261649 -0.05454695 -0.00761894
v -0.05410487 -0.05414415 -0.00690241
v -0.05421258 -0.05379639 -0.00710333
v -0.05416362 -0.05407874 -0.00681082
v -0.05497636 -0.05283162 -0.00089692
v -0.05451614 -0.05379694 -0.00268601
v -0.05429092 -0.05430113 0.00282900
v -0.05529950 -0.05129452 0.00538484
v -0.05562263 -0.05117624 0.00343324
v -0.05418321 -0.05420247 0.00538632
v -0.05427133 -0.05430603 -0.00268601
v -0.05458468 -0.05283162 0.00538632
v -0.05529950 -0.05117624 0.00538484
v -0.05294941 -0.05454695 0.00538632
v 0.04035860 -0.05627210 0.00538484
v 0.04305140 -0.05624431 0.00538484
v 0.04429498 -0.05622359 0.00538484
v 0.04035860 -0.05674468 0.00269012
v 0.04133780 -0.05672832 -0.00171390
v -0.04573271 -0.05627210 0.00538484
v -0.05126519 -0.05531878 0.00538484
v -0.05112810 -0.05575102 0.00279502
v -0.05111831 -0.05576900 0.00269012
v -0.05114769 -0.05575919 0.00016826
v -0.05116727 -0.05575102 0.00269012
v -0.05377194 -0.05454750 -0.00268749
v -0.05377194 -0.05454750 0.00268865
v -0.05114769 -0.05575919 0.00016974
f 1 2 10
f 1 10 3
f 1 3 4
f 1 4 5
f 1 5 6
f 1 6 7
f 1 7 2
f 2 7 8
f 2 8 9
f 2 9 10
f 3 11 12
f 3 12 4
f 3 10 29
f 3 29 11
f 4 12 13
f 4 13 14
f 4 14 15
f 4 15 16
f 4 16 17
f 4 17 18
f 4 18 19
f 4 19 20
f 4 20 21
f 4 21 22
f 4 22 5
f 5 23 6
f 5 22 24
f 5 24 23
f 6 23 24
f 6 24 39
f 6 39 62
f 6 62 66
f 6 66 42
f 6 42 25
f 6 25 8
f 6 8 7
f 8 25 41
f 8 41 26
f 8 26 9
f 9 26 41
f 9 41 43
f 9 43 27
f 9 27 28
f 9 28 29
f 9 29 10
f 11 30 13
f 11 13 12
f 11 29 47
f 11 47 30
f 13 30 31
f 13 31 32
f 13 32 16
f 13 16 15
f 13 15 14
f 16 32 33
f 16 33 17
f 17 33 34
f 17 34 35
f 17 35 18
f 18 35 19
f 19 35 36
f 19 36 20
f 20 36 21
f 21 24 22
f 21 36 37
f 21 37 24
f 24 38 58
f 24 58 39
f 24 37 40
f 24 40 38
f 25 42 41
f 27 43 44
f 27 44 45
f 27 45 46
f 27 46 28
f 28 46 29
f 29 46 47
f 30 48 49
f 30 49 50
f 30 50 51
f 30 51 33
f 30 33 32
f 30 32 31
f 30 47 71
f 30 71 48
f 33 51 34
f 34 52 53
f 34 53 54
f 34 54 35
f 34 51 52
f 35 54 55
f 35 55 56
f 35 56 36
f 36 56 37
f 37 56 57
f 37 57 40
f 38 40 59
f 38 59 60
f 38 60 58
f 39 61 62
f 39 58 60
f 39 60 63
f 39 63 61
f 40 64 59
f 40 57 64
f 41 42 66
f 41 66 65
f 41 65 63
f 41 63 67
f 41 67 43
f 43 67 73
f 43 73 68
f 43 68 69
f 43 69 70
f 43 70 44
f 44 70 71
f 44 71 72
f 44 72 45
f 45 72 47
f 45 47 46
f 47 72 71
f 48 71 68
f 48 68 73
f 48 73 74
f 48 74 75
f 48 75 76
f 48 76 49
f 49 76 50
f 50 76 51
f 51 76 81
f 51 81 77
f 51 77 52
f 52 77 81
f 52 81 78
f 52 78 80
f 52 80 79
f 52 79 53
f 53 79 55
f 53 55 54
f 55 79 64
f 55 64 57
f 55 57 56
f 59 64 60
f 60 64 79
f 60 79 80
f 60 80 78
f 60 78 63
f 61 66 62
f 61 63 65
f 61 65 66
f 63 78 75
f 63 75 74
f 63 74 67
f 67 74 73
f 68 71 69
f 69 71 70
f 75 78 76
f 76 78 81

