# https://github.com/mikedh/trimesh
v 0.05475831 -0.05117563 0.00268997
v 0.05425589 -0.05117563 0.00641108
v 0.05355804 -0.05351999 0.00268997
v 0.05475831 -0.05117563 -0.00268995
v 0.05391310 -0.05117563 0.00807214
v 0.05086689 -0.05519261 0.00268997
v 0.05355804 -0.05351999 -0.00268995
v 0.05288371 -0.05282078 0.00807214
v 0.05019256 -0.05475520 0.00807214
v 0.05391310 -0.05117563 -0.00807212
v 0.05340967 -0.05117563 0.00934987
v 0.04574858 -0.05665460 0.00268997
v 0.05086689 -0.05519261 -0.00268995
v 0.05019256 -0.05475520 -0.00807212
v 0.05288371 -0.05282078 -0.00807212
v 0.04916010 -0.05415241 0.01098626
v 0.04574858 -0.05574530 0.00807214
v 0.05121377 -0.05117563 -0.01084054
v 0.05091395 -0.05117563 0.01114318
v 0.04430477 -0.05667830 0.00268997
v 0.04574858 -0.05665460 -0.00268995
v 0.04430477 -0.05601357 0.00662852
v 0.04574858 -0.05574530 -0.00807212
v 0.04916010 -0.05415241 -0.01098624
v 0.04574858 -0.05117563 0.01144804
v 0.04574858 -0.05432856 0.01110507
v 0.04430477 -0.05472395 0.01029136
v 0.04430477 -0.05576038 0.00807214
v 0.05091395 -0.05117563 -0.01114316
v 0.04430477 -0.05667830 -0.00268995
v 0.04430477 -0.05576038 -0.00807212
v 0.04574858 -0.05432856 -0.01110505
v 0.04574858 -0.05117563 -0.01144802
v 0.04579975 -0.05117563 -0.01144578
v 0.04430477 -0.05117563 0.01145028
v 0.04430477 -0.05433179 0.01110507
v 0.04430477 -0.05433179 -0.01110505
v 0.04430477 -0.05348336 -0.01119920
v 0.04430477 -0.05117563 -0.01145026
f 1 2 3
f 1 3 7
f 1 7 4
f 1 4 10
f 1 10 18
f 1 18 29
f 1 29 34
f 1 34 33
f 1 33 39
f 1 39 35
f 1 35 25
f 1 25 19
f 1 19 11
f 1 11 5
f 1 5 2
f 2 5 3
f 3 6 13
f 3 13 7
f 3 5 8
f 3 8 9
f 3 9 6
f 4 7 10
f 5 11 8
f 6 12 21
f 6 21 13
f 6 9 12
f 7 13 14
f 7 14 15
f 7 15 10
f 8 11 16
f 8 16 9
f 9 16 17
f 9 17 12
f 10 15 18
f 11 19 16
f 12 20 30
f 12 30 21
f 12 17 22
f 12 22 20
f 13 21 14
f 14 23 24
f 14 24 15
f 14 21 23
f 15 24 18
f 16 19 25
f 16 25 26
f 16 26 17
f 17 26 27
f 17 27 28
f 17 28 22
f 18 24 29
f 20 22 28
f 20 28 27
f 20 27 36
f 20 36 35
f 20 35 39
f 20 39 38
f 20 38 37
f 20 37 31
f 20 31 30
f 21 30 23
f 23 30 31
f 23 31 32
f 23 32 24
f 24 32 33
f 24 33 34
f 24 34 29
f 25 35 26
f 26 36 27
f 26 35 36
f 31 37 32
f 32 37 38
f 32 38 39
f 32 39 33

