# https://github.com/mikedh/trimesh
v 0.00099347 0.03033606 0.00094572
v 0.00099347 0.03033606 -0.00087896
v -0.00614033 0.03025290 0.00094572
v 0.00101142 0.02987867 0.00236800
v 0.00474589 0.03028854 0.00094572
v 0.00101142 0.02987867 -0.00236800
v -0.00614033 0.03025290 -0.00087896
v 0.00474589 0.03028854 -0.00087896
v -0.00600867 0.02978957 0.00236800
v -0.00803151 0.02975987 0.00094572
v 0.00470400 0.02982521 0.00236800
v 0.00650540 0.02956979 0.00236800
v 0.00657123 0.03002718 0.00094572
v -0.00600867 0.02978957 -0.00236800
v 0.00470400 0.02982521 -0.00236800
v -0.00803151 0.02975987 -0.00087896
v 0.00657123 0.03002718 -0.00087896
v 0.00650540 0.02956979 -0.00236800
v -0.00787590 0.02930248 0.00236800
v -0.00973117 0.02898766 0.00094572
v 0.01214900 0.02751452 0.00236800
v 0.01230460 0.02793626 0.00094572
v -0.00787590 0.02930248 -0.00236800
v -0.00973117 0.02898766 -0.00087896
v 0.01230460 0.02793626 -0.00087896
v 0.01214900 0.02751452 -0.00236800
v -0.00954564 0.02854215 0.00236800
v -0.01477630 0.02659380 0.00094572
v -0.01451297 0.02618987 0.00236800
v 0.01578173 0.02582159 0.00236800
v 0.01599718 0.02621958 0.00094572
v -0.00954564 0.02854215 -0.00236800
v -0.01451297 0.02618987 -0.00236800
v -0.01477630 0.02659380 -0.00087896
v 0.01599718 0.02621958 -0.00087896
v 0.01578173 0.02582159 -0.00236800
v -0.02103034 0.02237634 0.00094572
v -0.02066527 0.02203775 0.00236800
v 0.01894167 0.02341585 0.00236800
v 0.01921098 0.02377820 0.00094572
v -0.02066527 0.02203775 -0.00236800
v -0.02103034 0.02237634 -0.00087896
v 0.01921098 0.02377820 -0.00087896
v 0.01894167 0.02341585 -0.00236800
v -0.02221532 0.02093883 0.00094572
v -0.02183828 0.02062401 0.00236800
v 0.02292152 0.01938847 0.00236800
v 0.02325068 0.01967953 0.00094572
v -0.02183828 0.02062401 -0.00236800
v -0.02221532 0.02093883 -0.00087896
v 0.02325068 0.01967953 -0.00087896
v 0.02292152 0.01938847 -0.00236800
v -0.02765544 0.01263458 0.00094572
v -0.02718863 0.01244450 0.00236800
v 0.02411248 0.01783216 0.00236800
v 0.02445959 0.01809947 0.00094572
v -0.02718863 0.01244450 -0.00236800
v -0.02765544 0.01263458 -0.00087896
v 0.02445959 0.01809947 -0.00087896
v 0.02411248 0.01783216 -0.00236800
v -0.02972017 0.00640936 0.00094572
v -0.02922344 0.00632026 0.00236800
v 0.02629690 0.01483836 0.00236800
v 0.02667394 0.01506408 0.00094572
v -0.02922344 0.00632026 -0.00236800
v -0.02972017 0.00640936 -0.00087896
v 0.02667394 0.01506408 -0.00087896
v 0.02629690 0.01483836 -0.00236800
v -0.03040243 0.00336803 0.00094572
v -0.02988774 0.00333239 0.00236800
v 0.02736817 0.01331769 0.00236800
v 0.02776915 0.01351965 0.00094572
v -0.02988774 0.00333239 -0.00236800
v -0.03040243 0.00336803 -0.00087896
v 0.02776915 0.01351965 -0.00087896
v 0.02736817 0.01331769 -0.00236800
v -0.03057000 -0.00000594 0.00094572
v -0.03005531 0.00000000 0.00236800
v 0.02899602 0.01015162 0.00236800
v 0.02942093 0.01030012 0.00094572
v -0.03005531 0.00000000 -0.00236800
v -0.03057000 -0.00000594 -0.00087896
v 0.02942093 0.01030012 -0.00087896
v 0.02899602 0.01015162 -0.00236800
v -0.02967828 -0.00582129 0.00094572
v -0.02918154 -0.00572031 0.00236800
v 0.03000744 0.00596979 0.00236800
v 0.03045031 0.00605296 0.00094572
v -0.02918154 -0.00572031 -0.00236800
v -0.02967828 -0.00582129 -0.00087896
v 0.03045031 0.00605296 -0.00087896
v 0.03000744 0.00596979 -0.00236800
v -0.02837360 -0.00922497 0.00094572
v -0.02790081 -0.00906458 0.00236800
v 0.03012713 0.00389670 0.00236800
v 0.03057000 0.00395016 0.00094572
v -0.02790081 -0.00906458 -0.00236800
v -0.02837360 -0.00922497 -0.00087896
v 0.03057000 0.00395016 -0.00087896
v 0.03012713 0.00389670 -0.00236800
v -0.02439974 -0.01809353 0.00094572
v -0.02398680 -0.01779652 0.00236800
v 0.03027675 -0.00041581 0.00094572
v 0.02983388 -0.00039799 0.00236800
v -0.02398680 -0.01779652 -0.00236800
v -0.02439974 -0.01809353 -0.00087896
v 0.03027675 -0.00041581 -0.00087896
v 0.02983388 -0.00039799 -0.00236800
v -0.02289159 -0.02039234 0.00094572
v -0.02250258 -0.02006564 0.00236800
v 0.02947479 -0.00472832 0.00236800
v 0.02991168 -0.00481742 0.00094572
v -0.02250258 -0.02006564 -0.00236800
v -0.02289159 -0.02039234 -0.00087896
v 0.02991168 -0.00481742 -0.00087896
v 0.02947479 -0.00472832 -0.00236800
v -0.01848683 -0.02444943 0.00094572
v -0.01816366 -0.02405738 0.00236800
v 0.02872670 -0.00857750 0.00236800
v 0.02914563 -0.00873194 0.00094572
v -0.01848683 -0.02444943 -0.00087896
v -0.01816366 -0.02405738 -0.00236800
v 0.02914563 -0.00873194 -0.00087896
v 0.02872670 -0.00857750 -0.00236800
v -0.01598521 -0.02614235 0.00094572
v -0.01570393 -0.02572655 0.00236800
v 0.02748787 -0.01284248 0.00236800
v 0.02788884 -0.01305633 0.00094572
v -0.01570393 -0.02572655 -0.00236800
v -0.01598521 -0.02614235 -0.00087896
v 0.02788884 -0.01305633 -0.00087896
v 0.02748787 -0.01284248 -0.00236800
v -0.01335193 -0.02750858 0.00094572
v -0.01310656 -0.02706307 0.00236800
v 0.02685348 -0.01474925 0.00236800
v 0.02724249 -0.01499280 0.00094572
v -0.01335193 -0.02750858 -0.00087896
v -0.01310656 -0.02706307 -0.00236800
v 0.02724249 -0.01499280 -0.00087896
v 0.02685348 -0.01474925 -0.00236800
v -0.01061093 -0.02866095 0.00094572
v -0.01041343 -0.02820357 0.00236800
v 0.02589593 -0.01650158 0.00236800
v 0.02627296 -0.01677483 0.00094572
v -0.01041343 -0.02820357 -0.00236800
v -0.01061093 -0.02866095 -0.00087896
v 0.02627296 -0.01677483 -0.00087896
v 0.02589593 -0.01650158 -0.00236800
v -0.00816916 -0.02943911 0.00094572
v -0.00800757 -0.02896984 0.00236800
v 0.02401074 -0.02034482 0.00094572
v 0.02366961 -0.02001218 0.00236800
v -0.00800757 -0.02896984 -0.00236800
v -0.00816916 -0.02943911 -0.00087896
v 0.02401074 -0.02034482 -0.00087896
v 0.02366961 -0.02001218 -0.00236800
v -0.00548800 -0.02990243 0.00094572
v -0.00536830 -0.02942723 0.00236800
v 0.02173654 -0.02197835 0.00236800
v 0.02204775 -0.02234070 0.00094572
v -0.00536830 -0.02942723 -0.00236800
v -0.00548800 -0.02990243 -0.00087896
v 0.02204775 -0.02234070 -0.00087896
v 0.02173654 -0.02197835 -0.00236800
v -0.00047878 -0.03033606 0.00094572
v -0.00043689 -0.02985491 0.00236800
v 0.01724799 -0.02489493 0.00236800
v 0.01748738 -0.02529886 0.00094572
v -0.00043689 -0.02985491 -0.00236800
v -0.00047878 -0.03033606 -0.00087896
v 0.01748738 -0.02529886 -0.00087896
v 0.01724799 -0.02489493 -0.00236800
v 0.00464415 -0.03033606 0.00094572
v 0.00460226 -0.02985491 0.00236800
v 0.01483016 -0.02678983 0.00094572
v 0.01463266 -0.02636214 0.00236800
v 0.00460226 -0.02985491 -0.00236800
v 0.00464415 -0.03033606 -0.00087896
v 0.01483016 -0.02678983 -0.00087896
v 0.01463266 -0.02636214 -0.00236800
v 0.00706198 -0.02981927 0.00094572
v 0.00698418 -0.02933813 0.00236800
v 0.01207718 -0.02814417 0.00094572
v 0.01192757 -0.02769272 0.00236800
v 0.00698418 -0.02933813 -0.00236800
v 0.00706198 -0.02981927 -0.00087896
v 0.01207718 -0.02814417 -0.00087896
v 0.01192757 -0.02769272 -0.00236800
v 0.00968329 -0.02910646 0.00094572
v 0.00956958 -0.02863719 0.00236800
v 0.00956958 -0.02863719 -0.00236800
v 0.00968329 -0.02910646 -0.00087896
f 1 2 7
f 1 7 3
f 1 3 4
f 1 4 5
f 1 5 8
f 1 8 2
f 2 6 7
f 2 8 6
f 3 9 4
f 3 7 16
f 3 16 10
f 3 10 9
f 4 9 19
f 4 19 27
f 4 27 29
f 4 29 38
f 4 38 46
f 4 46 54
f 4 54 62
f 4 62 70
f 4 70 78
f 4 78 86
f 4 86 94
f 4 94 102
f 4 102 110
f 4 110 118
f 4 118 126
f 4 126 134
f 4 134 142
f 4 142 150
f 4 150 158
f 4 158 166
f 4 166 174
f 4 174 182
f 4 182 190
f 4 190 184
f 4 184 176
f 4 176 167
f 4 167 159
f 4 159 152
f 4 152 143
f 4 143 135
f 4 135 127
f 4 127 119
f 4 119 111
f 4 111 104
f 4 104 95
f 4 95 87
f 4 87 79
f 4 79 71
f 4 71 63
f 4 63 55
f 4 55 47
f 4 47 39
f 4 39 30
f 4 30 21
f 4 21 12
f 4 12 11
f 4 11 5
f 5 11 12
f 5 12 13
f 5 13 17
f 5 17 8
f 6 14 7
f 6 8 15
f 6 15 18
f 6 18 26
f 6 26 36
f 6 36 44
f 6 44 52
f 6 52 60
f 6 60 68
f 6 68 76
f 6 76 84
f 6 84 92
f 6 92 100
f 6 100 108
f 6 108 116
f 6 116 124
f 6 124 132
f 6 132 140
f 6 140 148
f 6 148 156
f 6 156 164
f 6 164 172
f 6 172 180
f 6 180 188
f 6 188 191
f 6 191 185
f 6 185 177
f 6 177 169
f 6 169 161
f 6 161 153
f 6 153 145
f 6 145 138
f 6 138 129
f 6 129 122
f 6 122 113
f 6 113 105
f 6 105 97
f 6 97 89
f 6 89 81
f 6 81 73
f 6 73 65
f 6 65 57
f 6 57 49
f 6 49 41
f 6 41 33
f 6 33 32
f 6 32 23
f 6 23 14
f 7 14 16
f 8 17 18
f 8 18 15
f 9 10 19
f 10 16 24
f 10 24 20
f 10 20 19
f 12 21 13
f 13 21 22
f 13 22 25
f 13 25 17
f 14 23 16
f 16 23 24
f 17 25 26
f 17 26 18
f 19 20 27
f 20 24 34
f 20 34 28
f 20 28 29
f 20 29 27
f 21 30 31
f 21 31 22
f 22 31 35
f 22 35 25
f 23 32 24
f 24 33 34
f 24 32 33
f 25 35 26
f 26 35 36
f 28 34 42
f 28 42 37
f 28 37 29
f 29 37 38
f 30 39 40
f 30 40 31
f 31 40 43
f 31 43 35
f 33 41 42
f 33 42 34
f 35 43 36
f 36 43 44
f 37 42 50
f 37 50 45
f 37 45 46
f 37 46 38
f 39 47 40
f 40 47 48
f 40 48 51
f 40 51 43
f 41 49 42
f 42 49 50
f 43 51 52
f 43 52 44
f 45 50 58
f 45 58 53
f 45 53 46
f 46 53 54
f 47 55 48
f 48 55 56
f 48 56 59
f 48 59 51
f 49 57 58
f 49 58 50
f 51 59 60
f 51 60 52
f 53 58 66
f 53 66 61
f 53 61 62
f 53 62 54
f 55 63 56
f 56 63 64
f 56 64 67
f 56 67 59
f 57 65 58
f 58 65 66
f 59 67 68
f 59 68 60
f 61 66 74
f 61 74 69
f 61 69 62
f 62 69 70
f 63 71 72
f 63 72 64
f 64 72 75
f 64 75 67
f 65 73 74
f 65 74 66
f 67 75 68
f 68 75 76
f 69 74 82
f 69 82 77
f 69 77 78
f 69 78 70
f 71 79 72
f 72 79 80
f 72 80 83
f 72 83 75
f 73 81 74
f 74 81 82
f 75 83 84
f 75 84 76
f 77 82 90
f 77 90 85
f 77 85 86
f 77 86 78
f 79 87 88
f 79 88 80
f 80 88 91
f 80 91 83
f 81 89 82
f 82 89 90
f 83 91 84
f 84 91 92
f 85 90 98
f 85 98 93
f 85 93 94
f 85 94 86
f 87 95 88
f 88 95 96
f 88 96 99
f 88 99 91
f 89 97 90
f 90 97 98
f 91 99 100
f 91 100 92
f 93 101 94
f 93 98 106
f 93 106 101
f 94 101 102
f 95 103 96
f 95 104 103
f 96 103 107
f 96 107 99
f 97 105 106
f 97 106 98
f 99 107 100
f 100 107 108
f 101 106 114
f 101 114 109
f 101 109 110
f 101 110 102
f 103 104 111
f 103 111 112
f 103 112 115
f 103 115 107
f 105 113 106
f 106 113 114
f 107 115 116
f 107 116 108
f 109 114 121
f 109 121 117
f 109 117 110
f 110 117 118
f 111 119 112
f 112 119 120
f 112 120 123
f 112 123 115
f 113 121 114
f 113 122 121
f 115 123 124
f 115 124 116
f 117 125 126
f 117 126 118
f 117 121 130
f 117 130 125
f 119 127 120
f 120 127 128
f 120 128 131
f 120 131 123
f 121 122 129
f 121 129 130
f 123 131 132
f 123 132 124
f 125 130 137
f 125 137 133
f 125 133 126
f 126 133 134
f 127 135 128
f 128 135 136
f 128 136 139
f 128 139 131
f 129 137 130
f 129 138 137
f 131 139 140
f 131 140 132
f 133 141 142
f 133 142 134
f 133 137 146
f 133 146 141
f 135 143 144
f 135 144 136
f 136 144 147
f 136 147 139
f 137 138 145
f 137 145 146
f 139 147 140
f 140 147 148
f 141 146 154
f 141 154 149
f 141 149 142
f 142 149 150
f 143 151 144
f 143 152 151
f 144 151 155
f 144 155 147
f 145 153 154
f 145 154 146
f 147 155 148
f 148 155 156
f 149 154 162
f 149 162 157
f 149 157 158
f 149 158 150
f 151 152 159
f 151 159 160
f 151 160 163
f 151 163 155
f 153 161 154
f 154 161 162
f 155 163 164
f 155 164 156
f 157 165 166
f 157 166 158
f 157 162 170
f 157 170 165
f 159 167 160
f 160 167 168
f 160 168 171
f 160 171 163
f 161 169 162
f 162 169 170
f 163 171 172
f 163 172 164
f 165 170 178
f 165 178 173
f 165 173 174
f 165 174 166
f 167 175 168
f 167 176 175
f 168 175 179
f 168 179 171
f 169 177 178
f 169 178 170
f 171 179 172
f 172 179 180
f 173 181 174
f 173 178 186
f 173 186 181
f 174 181 182
f 175 176 183
f 175 183 187
f 175 187 179
f 176 184 183
f 177 185 186
f 177 186 178
f 179 187 180
f 180 187 188
f 181 189 190
f 181 190 182
f 181 186 192
f 181 192 189
f 183 184 189
f 183 189 192
f 183 192 187
f 184 190 189
f 185 191 186
f 186 191 192
f 187 192 188
f 188 192 191

