# https://github.com/mikedh/trimesh
v -0.03999857 0.00201180 -0.00084375
v -0.03998287 -0.00216746 -0.00084471
v -0.03986585 0.00201180 0.00203290
v -0.03680183 0.01152849 0.00185634
v -0.03685178 0.01152849 0.00074682
v -0.03693027 0.01152849 -0.00102094
v -0.03984587 -0.00216746 0.00203290
v -0.02542198 -0.00213934 -0.00107915
v -0.02542198 -0.00642581 -0.00101134
v -0.03910520 -0.00642581 -0.00077754
v -0.03896534 -0.00642581 0.00209942
v -0.03966177 0.00201180 0.00203194
v -0.03719429 0.01029124 0.00193183
v -0.03661202 0.01152849 0.00185506
v -0.03700305 0.01028772 0.00193087
v -0.02542198 0.01152849 -0.00116807
v -0.02542198 -0.00642581 0.00186786
v -0.03876697 -0.00642581 0.00209718
v -0.03111904 0.01029299 0.00186882
v -0.03081221 0.01152849 0.00179525
v -0.02542198 0.01152849 0.00171082
v -0.02620690 -0.00642581 0.00188737
v -0.02542198 0.00848104 0.00178918
v -0.03769663 -0.00642581 0.00208407
v -0.03333250 0.00201532 0.00196093
v -0.03259040 -0.00642581 0.00201179
v -0.02542198 0.01029475 0.00177798
v -0.03148866 -0.00642581 0.00199196
f 1 2 3
f 1 3 4
f 1 4 5
f 1 5 6
f 1 6 2
f 2 7 3
f 2 6 8
f 2 8 9
f 2 9 10
f 2 10 7
f 3 7 11
f 3 11 12
f 3 12 13
f 3 13 4
f 4 14 20
f 4 20 21
f 4 21 16
f 4 16 6
f 4 6 5
f 4 13 15
f 4 15 14
f 6 16 8
f 7 10 11
f 8 16 21
f 8 21 27
f 8 27 23
f 8 23 17
f 8 17 9
f 9 17 22
f 9 22 28
f 9 28 26
f 9 26 24
f 9 24 18
f 9 18 11
f 9 11 10
f 11 18 19
f 11 19 15
f 11 15 12
f 12 15 13
f 14 15 20
f 15 19 20
f 17 23 22
f 18 24 19
f 19 25 26
f 19 26 27
f 19 27 21
f 19 21 20
f 19 24 25
f 22 23 28
f 23 27 28
f 24 26 25
f 26 28 27

