# https://github.com/mikedh/trimesh
v 0.03954594 0.00261198 0.00168509
v 0.04000000 -0.00211511 0.00157691
v 0.03974957 0.00202288 0.00166377
v 0.03953892 0.00261198 0.00148003
v 0.03934231 0.00261198 0.00168703
v 0.03706498 -0.01067198 0.00150490
v 0.03902400 -0.00729995 0.00152589
v 0.03986191 -0.00211511 -0.00129486
v 0.03961615 0.00202288 -0.00120670
v 0.03941487 0.00261198 -0.00118571
v 0.03699476 -0.01067198 0.00150554
v 0.03338801 0.00261198 0.00166539
v 0.03701817 -0.01067198 0.00051449
v 0.03888591 -0.00729995 -0.00134491
v 0.02456189 -0.01067198 -0.00153770
v 0.01608919 -0.01067198 -0.00161197
v 0.01608919 0.00202288 -0.00137624
v 0.01608919 0.00261198 -0.00136300
v 0.03469169 -0.01067198 0.00149553
v 0.02019915 0.00261198 0.00158466
v 0.03692455 -0.01067198 -0.00136655
v 0.01608919 -0.01067198 0.00125786
v 0.01608919 0.00261198 0.00150748
v 0.01940337 -0.00729084 0.00142998
v 0.01850461 -0.01067198 0.00129726
v 0.01976147 0.00261198 0.00158014
v 0.01622494 -0.01067198 0.00126076
v 0.01608919 -0.01053803 0.00126335
v 0.01608919 -0.00729084 0.00137702
v 0.01936826 0.00261198 0.00157239
f 1 2 3
f 1 3 4
f 1 4 10
f 1 10 18
f 1 18 23
f 1 23 30
f 1 30 26
f 1 26 20
f 1 20 12
f 1 12 5
f 1 5 6
f 1 6 7
f 1 7 2
f 2 8 9
f 2 9 3
f 2 7 8
f 3 9 4
f 4 9 10
f 5 11 6
f 5 12 11
f 6 11 19
f 6 19 25
f 6 25 27
f 6 27 22
f 6 22 16
f 6 16 15
f 6 15 21
f 6 21 13
f 6 13 7
f 7 13 14
f 7 14 8
f 8 14 15
f 8 15 16
f 8 16 17
f 8 17 9
f 9 17 18
f 9 18 10
f 11 12 19
f 12 20 19
f 13 21 14
f 14 21 15
f 16 22 28
f 16 28 29
f 16 29 23
f 16 23 18
f 16 18 17
f 19 20 24
f 19 24 25
f 20 26 24
f 22 27 28
f 23 29 30
f 24 26 29
f 24 29 28
f 24 28 25
f 25 28 27
f 26 30 29

