# https://github.com/mikedh/trimesh
v -0.00036706 -0.00536911 0.00100159
v -0.00036706 -0.00728817 0.00101193
v -0.00036706 -0.00536911 -0.00187034
v -0.01747898 -0.00536911 0.00162277
v -0.01972067 -0.00729024 0.00173077
v -0.01333650 -0.00728921 0.00149371
v -0.01295635 -0.01067300 0.00132750
v -0.00036706 -0.00735619 0.00100887
v -0.00036706 -0.01067300 -0.00202659
v -0.00044309 -0.01067300 -0.00202813
v -0.00066382 -0.01067300 -0.00203196
v -0.00044799 -0.00536911 -0.00187149
v -0.01991688 -0.00536911 0.00170933
v -0.02541811 -0.00729180 0.00188052
v -0.01910506 -0.01067300 0.00155575
v -0.00036706 -0.01067300 0.00084457
v -0.00692045 -0.01067300 -0.00184583
v -0.00713874 -0.00536911 -0.00169609
v -0.00058779 -0.00536911 -0.00187340
v -0.02349280 -0.00536911 0.00180316
v -0.02541811 -0.00670300 0.00187209
v -0.02541811 -0.00990922 0.00175414
v -0.02522435 -0.01067300 0.00171201
v -0.02541811 -0.01067300 -0.00116260
v -0.02541811 -0.00536911 -0.00102818
v -0.02391220 -0.00536911 0.00181388
v -0.02541811 -0.00536911 0.00185141
v -0.02541811 -0.01067300 0.00171584
f 1 2 8
f 1 8 16
f 1 16 9
f 1 9 3
f 1 3 12
f 1 12 19
f 1 19 18
f 1 18 25
f 1 25 27
f 1 27 26
f 1 26 20
f 1 20 13
f 1 13 4
f 1 4 5
f 1 5 6
f 1 6 2
f 2 7 8
f 2 6 7
f 3 9 10
f 3 10 11
f 3 11 12
f 4 13 5
f 5 13 14
f 5 14 15
f 5 15 7
f 5 7 6
f 7 16 8
f 7 15 23
f 7 23 28
f 7 28 24
f 7 24 17
f 7 17 11
f 7 11 10
f 7 10 9
f 7 9 16
f 11 17 18
f 11 18 19
f 11 19 12
f 13 20 14
f 14 20 21
f 14 21 27
f 14 27 25
f 14 25 24
f 14 24 28
f 14 28 22
f 14 22 15
f 15 22 23
f 17 24 25
f 17 25 18
f 20 26 21
f 21 26 27
f 22 28 23

