# https://github.com/mikedh/trimesh
v -0.00036706 0.01152849 0.00114606
v -0.00036706 0.01030455 0.00115706
v -0.00036706 0.01152849 -0.00172491
v -0.01877641 0.01152849 0.00157185
v -0.01892848 0.01029793 0.00163781
v -0.00036706 0.01029958 0.00115706
v -0.02390975 -0.00536859 0.00181406
v -0.01991688 -0.00536859 0.00170890
v -0.00036706 0.00190397 -0.00184400
v -0.00051176 0.01152849 -0.00172894
v -0.02480740 0.01152849 0.00170120
v -0.02503304 0.01029462 0.00177156
v -0.02541811 0.00848020 0.00178878
v -0.02541811 0.00201975 0.00181809
v -0.02541811 -0.00536859 0.00185144
v -0.00036706 -0.00536859 0.00100132
v -0.01747898 -0.00536859 0.00162279
v -0.00036706 -0.00211356 -0.00188724
v -0.00059024 -0.00211356 -0.00189200
v -0.00056572 0.00202471 -0.00184693
v -0.00416861 0.01152849 -0.00169669
v -0.02541811 0.01152849 0.00171073
v -0.02541811 0.01029462 0.00177779
v -0.02541811 -0.00536859 -0.00102796
v -0.00036706 -0.00536859 -0.00187001
v -0.00036706 -0.00228888 -0.00188760
v -0.00725156 -0.00211686 -0.00172564
v -0.00670953 0.01152849 -0.00166005
v -0.00058779 -0.00536859 -0.00187368
v -0.02541811 0.01152849 -0.00116794
v -0.02541811 -0.00213836 -0.00107889
v -0.00713874 -0.00536859 -0.00169633
f 1 2 6
f 1 6 16
f 1 16 25
f 1 25 26
f 1 26 18
f 1 18 9
f 1 9 3
f 1 3 10
f 1 10 21
f 1 21 28
f 1 28 30
f 1 30 22
f 1 22 11
f 1 11 4
f 1 4 5
f 1 5 2
f 2 5 7
f 2 7 8
f 2 8 6
f 3 9 10
f 4 11 12
f 4 12 5
f 5 12 13
f 5 13 14
f 5 14 15
f 5 15 7
f 6 8 17
f 6 17 16
f 7 15 24
f 7 24 32
f 7 32 29
f 7 29 25
f 7 25 16
f 7 16 17
f 7 17 8
f 9 18 19
f 9 19 20
f 9 20 10
f 10 20 21
f 11 22 23
f 11 23 12
f 12 23 13
f 13 23 22
f 13 22 30
f 13 30 31
f 13 31 24
f 13 24 15
f 13 15 14
f 18 26 19
f 19 27 28
f 19 28 21
f 19 21 20
f 19 26 29
f 19 29 27
f 24 31 32
f 25 29 26
f 27 29 32
f 27 32 31
f 27 31 30
f 27 30 28

