# https://github.com/mikedh/trimesh
v -0.00036460 -0.01067198 -0.00202685
v 0.00570088 -0.01067198 -0.00192981
v -0.00036460 -0.01067198 0.00084430
v -0.00036460 0.00202289 -0.00184254
v 0.01608919 -0.01067198 -0.00161188
v -0.00036460 0.01047786 -0.00171508
v 0.00621144 0.00202289 -0.00170458
v 0.01222055 -0.01067198 0.00117562
v -0.00036460 -0.00728709 0.00101195
v 0.01608919 -0.01067198 0.00125746
v 0.01608919 0.00202289 -0.00137615
v -0.00036460 0.01047786 0.00115535
v 0.00581523 0.01047786 -0.00155756
v 0.01608919 -0.01053741 0.00126325
v 0.01281163 -0.00728916 0.00132445
v 0.01608919 0.01029774 0.00166990
v 0.01227692 0.01029774 0.00157865
v 0.01226081 0.01047786 0.00157974
v -0.00036460 0.01029774 0.00115716
v 0.01608919 0.01047786 -0.00119763
v -0.00036460 0.01030396 0.00115716
v 0.01608919 -0.00923521 0.00130888
v 0.01608919 -0.00728916 0.00137659
v 0.01608919 0.01047786 0.00167244
v 0.01260709 0.01047786 0.00158879
f 1 2 5
f 1 5 10
f 1 10 8
f 1 8 3
f 1 3 9
f 1 9 19
f 1 19 21
f 1 21 12
f 1 12 6
f 1 6 4
f 1 4 2
f 2 4 6
f 2 6 7
f 2 7 5
f 3 8 9
f 5 7 11
f 5 11 20
f 5 20 24
f 5 24 16
f 5 16 23
f 5 23 22
f 5 22 14
f 5 14 10
f 6 12 18
f 6 18 25
f 6 25 24
f 6 24 20
f 6 20 13
f 6 13 7
f 7 13 11
f 8 10 14
f 8 14 15
f 8 15 9
f 9 15 16
f 9 16 17
f 9 17 18
f 9 18 19
f 11 13 20
f 12 21 18
f 14 22 15
f 15 22 23
f 15 23 16
f 16 24 17
f 17 24 25
f 17 25 18
f 18 21 19

