# https://github.com/mikedh/trimesh
v 0.03706653 -0.01067274 0.00150502
v 0.03692363 -0.01067274 -0.00136633
v 0.03699325 -0.01067274 0.00150573
v 0.03603329 -0.01244831 0.00149367
v 0.03506966 -0.01437824 0.00146567
v 0.03493043 -0.01437824 -0.00140496
v 0.00553073 -0.01246428 -0.00201567
v 0.00570293 -0.01067274 -0.00192989
v 0.03469227 -0.01067274 0.00149545
v 0.03372865 -0.01615380 0.00145291
v 0.03358575 -0.01615380 -0.00141879
v 0.03180873 -0.01773547 -0.00144998
v 0.03072419 -0.01844037 -0.00147160
v 0.00547943 -0.01453640 -0.00197987
v -0.00036460 -0.01245743 -0.00211527
v -0.00036460 -0.01067274 -0.00202666
v 0.01850118 -0.01067274 0.00129696
v 0.01676813 -0.01843885 0.00130795
v 0.01676813 -0.01844037 0.00130795
v 0.03195162 -0.01773547 0.00142172
v 0.03086709 -0.01844037 0.00139975
v 0.00532188 -0.01844037 -0.00187708
v -0.00036460 -0.01452956 -0.00207451
v -0.00036460 -0.01257149 -0.00211314
v -0.00036460 -0.01067274 0.00084469
v 0.01622586 -0.01067274 0.00126080
v 0.01130148 -0.01844037 0.00119382
v 0.00460741 -0.01844037 -0.00188807
v -0.00036460 -0.01844037 -0.00195825
v -0.00036460 -0.01844037 0.00091026
v 0.01222480 -0.01067274 0.00117574
f 1 2 8
f 1 8 16
f 1 16 25
f 1 25 31
f 1 31 26
f 1 26 17
f 1 17 9
f 1 9 3
f 1 3 4
f 1 4 5
f 1 5 6
f 1 6 2
f 2 6 7
f 2 7 8
f 3 9 4
f 4 9 10
f 4 10 5
f 5 10 6
f 6 10 11
f 6 11 12
f 6 12 13
f 6 13 7
f 7 14 15
f 7 15 8
f 7 13 14
f 8 15 16
f 9 17 18
f 9 18 19
f 9 19 10
f 10 20 12
f 10 12 11
f 10 19 20
f 12 20 21
f 12 21 13
f 13 21 19
f 13 19 27
f 13 27 30
f 13 30 29
f 13 29 28
f 13 28 22
f 13 22 23
f 13 23 14
f 14 23 24
f 14 24 15
f 15 24 23
f 15 23 29
f 15 29 30
f 15 30 25
f 15 25 16
f 17 26 18
f 18 26 27
f 18 27 19
f 19 21 20
f 22 28 23
f 23 28 29
f 25 30 31
f 26 31 27
f 27 31 30

