# https://github.com/mikedh/trimesh
v -0.00036460 -0.01280645 0.00076292
v -0.00036460 -0.02021250 0.00105326
v -0.00036460 -0.01280645 -0.00210840
v -0.01274647 -0.01280645 0.00124899
v -0.00036460 -0.02021250 -0.00180385
v -0.01715636 -0.02021250 0.00170703
v -0.00036460 -0.01452964 -0.00207429
v -0.00070300 -0.01452964 -0.00207998
v -0.00070657 -0.01280645 -0.00211409
v -0.01403595 -0.01280645 0.00129812
v -0.00061751 -0.02021250 -0.00180710
v -0.00036460 -0.01880393 -0.00194151
v -0.01876643 -0.01280645 0.00147720
v -0.01747338 -0.02021250 0.00171840
v -0.00036460 -0.01464419 -0.00207104
v -0.00036460 -0.01869664 -0.00195166
v -0.00067095 -0.01869736 -0.00195572
v -0.00659828 -0.01862559 -0.00178476
v -0.03649501 -0.01379310 -0.00101973
v -0.03675505 -0.01280645 -0.00102663
v -0.00499534 -0.02021250 -0.00168081
v -0.02031594 -0.01280645 0.00151780
v -0.02584076 -0.02021250 0.00197585
v -0.02185477 -0.02021250 0.00186621
v -0.00644155 -0.02021250 -0.00163736
v -0.03206019 -0.01850888 -0.00090887
v -0.03407634 -0.01703288 -0.00091699
v -0.03556174 -0.01545830 -0.00094582
v -0.03635253 -0.01379310 0.00185687
v -0.03661256 -0.01280645 0.00184997
v -0.02475076 -0.01280645 0.00163394
v -0.02862989 -0.02021250 0.00203432
v -0.02876881 -0.02021250 -0.00082806
v -0.02955960 -0.01987250 -0.00085364
v -0.02942068 -0.01987250 0.00201199
v -0.03191771 -0.01850888 0.00196489
v -0.03393386 -0.01703288 0.00195961
v -0.03541926 -0.01545830 0.00193078
v -0.03650570 -0.01280645 0.00184875
v -0.03069591 -0.01280645 0.00175820
v -0.02866907 -0.02021250 0.00125711
v -0.03642021 -0.01280645 0.00184753
f 1 2 5
f 1 5 12
f 1 12 16
f 1 16 15
f 1 15 7
f 1 7 3
f 1 3 9
f 1 9 20
f 1 20 30
f 1 30 39
f 1 39 42
f 1 42 40
f 1 40 31
f 1 31 22
f 1 22 13
f 1 13 10
f 1 10 4
f 1 4 2
f 2 4 6
f 2 6 14
f 2 14 24
f 2 24 23
f 2 23 32
f 2 32 41
f 2 41 33
f 2 33 25
f 2 25 21
f 2 21 11
f 2 11 5
f 3 7 8
f 3 8 9
f 4 10 6
f 5 11 12
f 6 10 13
f 6 13 14
f 7 15 8
f 8 15 16
f 8 16 17
f 8 17 18
f 8 18 19
f 8 19 9
f 9 19 20
f 11 21 17
f 11 17 12
f 12 17 16
f 13 22 23
f 13 23 24
f 13 24 14
f 17 21 18
f 18 21 25
f 18 25 26
f 18 26 19
f 19 26 27
f 19 27 28
f 19 28 38
f 19 38 29
f 19 29 30
f 19 30 20
f 22 31 23
f 23 31 32
f 25 33 34
f 25 34 26
f 26 34 35
f 26 35 36
f 26 36 37
f 26 37 27
f 27 37 38
f 27 38 28
f 29 38 30
f 30 38 32
f 30 32 39
f 31 40 32
f 32 40 42
f 32 42 39
f 32 38 37
f 32 37 35
f 32 35 41
f 33 41 34
f 34 41 35
f 35 37 36

