# https://github.com/mikedh/trimesh
v -0.00070651 -0.01245686 -0.00212100
v -0.00066650 -0.01067300 -0.00203195
v -0.00036460 -0.01067300 -0.00202680
v -0.00036460 -0.01245728 -0.00211506
v -0.00036460 -0.01257130 -0.00211308
v -0.00064831 -0.01280645 -0.00211308
v -0.00070651 -0.01280645 -0.00211388
v -0.03675243 -0.01280645 -0.00102666
v -0.03695248 -0.01204190 -0.00103181
v -0.03752354 -0.01067300 -0.00095463
v -0.00036460 -0.01067300 0.00084459
v -0.00036460 -0.01280645 -0.00210833
v -0.03661057 -0.01280645 0.00184988
v -0.03738169 -0.01067300 0.00192231
v -0.01296067 -0.01067300 0.00132745
v -0.01274971 -0.01280645 0.00124908
v -0.00036460 -0.01280645 0.00076306
v -0.03650509 -0.01280645 0.00184909
v -0.03718891 -0.01067300 0.00191993
v -0.01700902 -0.01067300 0.00147784
v -0.01876948 -0.01280645 0.00147705
v -0.01403368 -0.01280645 0.00129816
v -0.03542117 -0.01067300 0.00189500
v -0.03069628 -0.01280645 0.00175806
v -0.03131099 -0.01067300 0.00183365
v -0.01910412 -0.01067300 0.00155542
v -0.02031535 -0.01280645 0.00151782
v -0.02475289 -0.01280645 0.00163378
v -0.02522574 -0.01067300 0.00171215
v -0.02938320 -0.01067300 0.00179526
f 1 2 3
f 1 3 4
f 1 4 5
f 1 5 6
f 1 6 7
f 1 7 8
f 1 8 9
f 1 9 10
f 1 10 2
f 2 10 14
f 2 14 19
f 2 19 23
f 2 23 25
f 2 25 30
f 2 30 29
f 2 29 26
f 2 26 20
f 2 20 15
f 2 15 11
f 2 11 3
f 3 11 17
f 3 17 12
f 3 12 5
f 3 5 4
f 5 12 6
f 6 12 17
f 6 17 16
f 6 16 22
f 6 22 21
f 6 21 27
f 6 27 28
f 6 28 24
f 6 24 18
f 6 18 13
f 6 13 8
f 6 8 7
f 8 13 14
f 8 14 10
f 8 10 9
f 11 15 16
f 11 16 17
f 13 18 14
f 14 18 19
f 15 20 21
f 15 21 22
f 15 22 16
f 18 23 19
f 18 24 25
f 18 25 23
f 20 26 21
f 21 26 27
f 24 28 29
f 24 29 30
f 24 30 25
f 26 29 28
f 26 28 27

