# https://github.com/mikedh/trimesh
v -0.00036460 -0.02021297 0.00105322
v -0.00036460 -0.02079360 0.00110589
v -0.00036460 -0.02021297 -0.00180369
v -0.01715172 -0.02021297 0.00170688
v -0.01639815 -0.02202937 0.00188376
v -0.00036460 -0.02289539 0.00127892
v -0.00036460 -0.02499625 -0.00173640
v -0.00059262 -0.02500000 -0.00173986
v -0.00061487 -0.02021297 -0.00180715
v -0.01746872 -0.02021297 0.00171842
v -0.02099743 -0.02141406 0.00197988
v -0.02316360 -0.02216340 0.00211369
v -0.02327761 -0.02221823 0.00212100
v -0.01958483 -0.02310487 0.00204064
v -0.00036460 -0.02290430 0.00127854
v -0.01967938 -0.02316579 0.00204294
v -0.01556672 -0.02386967 0.00185800
v -0.00036460 -0.02499812 0.00106360
v -0.00045637 -0.02500000 0.00111089
v -0.00593714 -0.02486363 0.00128700
v -0.00607061 -0.02486363 -0.00156299
v -0.00644322 -0.02021297 -0.00163720
v -0.00499726 -0.02021297 -0.00168065
v -0.02185667 -0.02021297 0.00186607
v -0.02584142 -0.02021297 0.00197604
v -0.02639478 -0.02107102 0.00208486
v -0.02652547 -0.02112023 0.00209370
v -0.02666173 -0.02112023 -0.00075975
v -0.02341108 -0.02221823 -0.00072283
v -0.01981285 -0.02316579 -0.00079781
v -0.00036460 -0.02492736 0.00112204
v -0.01564179 -0.02393574 0.00185492
v -0.00036460 -0.02499719 0.00111243
v -0.01107032 -0.02450794 0.00158576
v -0.01120379 -0.02450794 -0.00126192
v -0.02877228 -0.02021297 -0.00082819
v -0.02845806 -0.02021297 0.00203064
v -0.02863325 -0.02021297 0.00203410
v -0.01577249 -0.02393574 -0.00098891
f 1 2 6
f 1 6 15
f 1 15 31
f 1 31 33
f 1 33 18
f 1 18 7
f 1 7 3
f 1 3 9
f 1 9 23
f 1 23 22
f 1 22 36
f 1 36 38
f 1 38 37
f 1 37 25
f 1 25 24
f 1 24 10
f 1 10 4
f 1 4 5
f 1 5 2
f 2 5 6
f 3 7 8
f 3 8 9
f 4 10 5
f 5 10 11
f 5 11 12
f 5 12 13
f 5 13 14
f 5 14 6
f 6 14 16
f 6 16 17
f 6 17 15
f 7 18 19
f 7 19 8
f 8 19 20
f 8 20 21
f 8 21 22
f 8 22 23
f 8 23 9
f 10 24 11
f 11 24 25
f 11 25 26
f 11 26 27
f 11 27 12
f 12 27 13
f 13 27 28
f 13 28 29
f 13 29 30
f 13 30 16
f 13 16 14
f 15 17 31
f 16 30 32
f 16 32 17
f 17 32 31
f 18 33 19
f 19 33 20
f 20 34 35
f 20 35 21
f 20 33 34
f 21 35 36
f 21 36 22
f 25 37 27
f 25 27 26
f 27 37 38
f 27 38 36
f 27 36 28
f 28 36 39
f 28 39 30
f 28 30 29
f 30 39 32
f 31 32 33
f 32 39 35
f 32 35 34
f 32 34 33
f 35 39 36

