# https://github.com/mikedh/trimesh
v 0.03086853 -0.01844037 0.00139980
v 0.02979237 -0.01913753 0.00137790
v 0.03072484 -0.01844037 -0.00147146
v 0.01676531 -0.01844037 0.00130776
v 0.01545069 -0.02222597 0.00153700
v 0.01833064 -0.02331858 0.00151373
v 0.01843153 -0.02337957 0.00151100
v 0.02169059 -0.02250651 0.00144394
v 0.02964868 -0.01913753 -0.00149267
v 0.02461640 -0.02150506 0.00137482
v 0.02731903 -0.02038421 0.00135190
v 0.00532193 -0.01844037 -0.00187724
v 0.01129890 -0.01844037 0.00119383
v 0.01066911 -0.02261179 0.00149868
v 0.01459465 -0.02402537 0.00151373
v 0.01829395 -0.02337957 -0.00134179
v 0.01466497 -0.02409149 0.00150894
v 0.01453045 -0.02409149 -0.00133973
v 0.02154995 -0.02250587 -0.00141466
v 0.02447577 -0.02150506 -0.00149096
v 0.02717534 -0.02038421 -0.00151799
v 0.00460653 -0.01844037 -0.00188819
v -0.00036460 -0.01844037 0.00091020
v -0.00036460 -0.02082651 0.00110864
v -0.00036460 -0.02289553 0.00127902
v 0.01017994 -0.02454279 0.00139091
v 0.01008822 -0.02461148 -0.00146393
v 0.01022274 -0.02461148 0.00138372
v 0.00493060 -0.02491576 -0.00166066
v -0.00036460 -0.02499601 -0.00173662
v -0.00036460 -0.01869779 -0.00195148
v -0.00036460 -0.01844037 -0.00195833
v -0.00036460 -0.02290452 0.00127834
v -0.00036460 -0.02492732 0.00112198
v -0.00036460 -0.02499729 0.00111240
v 0.00506512 -0.02491576 0.00118870
v -0.00036460 -0.02499857 0.00106382
f 1 2 3
f 1 3 12
f 1 12 22
f 1 22 32
f 1 32 23
f 1 23 13
f 1 13 4
f 1 4 5
f 1 5 6
f 1 6 7
f 1 7 8
f 1 8 2
f 2 9 3
f 2 8 10
f 2 10 11
f 2 11 9
f 3 9 12
f 4 13 14
f 4 14 5
f 5 14 15
f 5 15 6
f 6 15 7
f 7 16 8
f 7 15 17
f 7 17 18
f 7 18 16
f 8 16 19
f 8 19 20
f 8 20 10
f 9 11 21
f 9 21 12
f 10 20 11
f 11 20 21
f 12 21 22
f 13 23 24
f 13 24 25
f 13 25 14
f 14 25 15
f 15 25 26
f 15 26 17
f 16 18 27
f 16 27 19
f 17 26 28
f 17 28 18
f 18 28 27
f 19 27 29
f 19 29 20
f 20 29 21
f 21 29 30
f 21 30 31
f 21 31 22
f 22 31 32
f 23 32 31
f 23 31 30
f 23 30 37
f 23 37 35
f 23 35 34
f 23 34 33
f 23 33 25
f 23 25 24
f 25 33 26
f 26 33 34
f 26 34 28
f 27 28 29
f 28 34 35
f 28 35 36
f 28 36 29
f 29 36 37
f 29 37 30
f 35 37 36

