# https://github.com/mikedh/trimesh
v -0.02122909 0.02297391 -0.00093773
v -0.02331777 0.02243839 -0.00089098
v -0.02320096 0.02243839 0.00197185
v -0.02122909 0.02294366 0.00192703
v -0.02122909 0.01234971 -0.00129659
v -0.03610190 0.01421844 -0.00101576
v -0.03166173 0.01898101 -0.00090098
v -0.02925951 0.02024924 -0.00088389
v -0.02648076 0.02140095 -0.00086873
v -0.02308569 0.02238237 0.00196895
v -0.02122909 0.02285851 0.00192736
v -0.02636241 0.02140095 0.00199668
v -0.02122909 0.01185003 -0.00127144
v -0.03668285 0.01230489 -0.00106799
v -0.03692876 0.01152849 -0.00102092
v -0.03685191 0.01152849 0.00074695
v -0.03597587 0.01421844 0.00186094
v -0.03497533 0.01598521 0.00195186
v -0.03509982 0.01598521 -0.00092580
v -0.03361823 0.01756826 -0.00090194
v -0.03349527 0.01756826 0.00197379
v -0.03153877 0.01898101 0.00197282
v -0.02913964 0.02024924 0.00198572
v -0.02380344 0.01627314 0.00181580
v -0.02122909 0.02176058 0.00191768
v -0.03332160 0.01754025 0.00197282
v -0.02940706 0.01613422 0.00189898
v -0.03081181 0.01152849 0.00179516
v -0.02481012 0.01152849 0.00170133
v -0.02122909 0.01152849 -0.00125500
v -0.03680273 0.01152849 0.00185610
v -0.03672896 0.01152849 0.00185578
v -0.03661216 0.01152849 0.00185481
v -0.02122909 0.01152849 0.00162363
f 1 2 3
f 1 3 4
f 1 4 11
f 1 11 25
f 1 25 34
f 1 34 30
f 1 30 13
f 1 13 5
f 1 5 6
f 1 6 7
f 1 7 8
f 1 8 9
f 1 9 2
f 2 9 3
f 3 10 11
f 3 11 4
f 3 9 12
f 3 12 10
f 5 13 14
f 5 14 6
f 6 14 15
f 6 15 16
f 6 16 17
f 6 17 18
f 6 18 19
f 6 19 20
f 6 20 7
f 7 20 21
f 7 21 22
f 7 22 23
f 7 23 8
f 8 23 12
f 8 12 9
f 10 12 24
f 10 24 25
f 10 25 11
f 12 23 21
f 12 21 26
f 12 26 18
f 12 18 27
f 12 27 28
f 12 28 29
f 12 29 24
f 13 30 14
f 14 30 15
f 15 30 34
f 15 34 29
f 15 29 28
f 15 28 33
f 15 33 32
f 15 32 31
f 15 31 16
f 16 31 17
f 17 31 18
f 18 26 21
f 18 21 19
f 18 31 32
f 18 32 33
f 18 33 27
f 19 21 20
f 21 23 22
f 24 29 25
f 25 29 34
f 27 33 28

