# https://github.com/mikedh/trimesh
v -0.00036460 0.02500000 0.00101100
v -0.00036460 0.02499868 0.00122012
v -0.00036460 0.02499604 -0.00164194
v -0.00047489 0.02500000 -0.00164481
v -0.00587278 0.02492352 0.00132988
v -0.00036460 0.02492879 0.00122514
v -0.01103172 0.02462286 0.00155371
v -0.01561676 0.02408880 0.00175100
v -0.00036460 0.01450077 -0.00172014
v -0.00050348 0.01445330 -0.00172373
v -0.00668154 0.01237244 -0.00168284
v -0.00598919 0.02492352 -0.00153469
v -0.00036460 0.02289145 0.00131876
v -0.01114813 0.02462286 -0.00131086
v -0.01573317 0.02408880 -0.00111179
v -0.01976474 0.02334771 -0.00097082
v -0.01964832 0.02334771 0.00189089
v -0.01554732 0.02402287 0.00175171
v -0.00036460 0.02287563 0.00131948
v -0.00036460 0.01242255 -0.00173270
v -0.00051165 0.01237376 -0.00173700
v -0.00416947 0.01152849 -0.00169718
v -0.00671014 0.01152849 -0.00165988
v -0.02122909 0.01235002 -0.00129688
v -0.02122909 0.02297321 -0.00093782
v -0.01955233 0.02328705 0.00188981
v -0.02122909 0.02295607 0.00069247
v -0.02122909 0.02294288 0.00192676
v -0.00036460 0.01152849 0.00114623
v -0.01632953 0.02219256 0.00180982
v -0.00036460 0.01237376 -0.00173270
v -0.00050961 0.01152849 -0.00172911
v -0.02122909 0.01152849 -0.00125491
v -0.02122909 0.01185025 -0.00127141
v -0.02122909 0.02285848 0.00192748
v -0.00036460 0.01152849 -0.00172480
v -0.02087372 0.02164135 0.00190775
v -0.01877829 0.01152849 0.00157201
v -0.02122909 0.02176003 0.00191743
v -0.00042383 0.01152849 -0.00172660
v -0.02122909 0.01152849 0.00162366
f 1 2 6
f 1 6 13
f 1 13 19
f 1 19 29
f 1 29 36
f 1 36 31
f 1 31 20
f 1 20 9
f 1 9 3
f 1 3 4
f 1 4 5
f 1 5 2
f 2 5 7
f 2 7 8
f 2 8 6
f 3 9 4
f 4 10 11
f 4 11 12
f 4 12 5
f 4 9 10
f 5 12 14
f 5 14 7
f 6 8 13
f 7 14 15
f 7 15 8
f 8 15 16
f 8 16 17
f 8 17 18
f 8 18 19
f 8 19 13
f 9 20 21
f 9 21 10
f 10 21 11
f 11 21 22
f 11 22 23
f 11 23 24
f 11 24 12
f 12 24 25
f 12 25 14
f 14 25 15
f 15 25 16
f 16 25 17
f 17 26 18
f 17 25 27
f 17 27 28
f 17 28 26
f 18 26 19
f 19 26 30
f 19 30 29
f 20 31 21
f 21 32 22
f 21 31 40
f 21 40 32
f 22 32 40
f 22 40 36
f 22 36 29
f 22 29 38
f 22 38 41
f 22 41 33
f 22 33 23
f 23 33 34
f 23 34 24
f 24 34 33
f 24 33 41
f 24 41 39
f 24 39 35
f 24 35 28
f 24 28 27
f 24 27 25
f 26 28 35
f 26 35 30
f 29 30 37
f 29 37 38
f 30 35 39
f 30 39 37
f 31 36 40
f 37 39 41
f 37 41 38

