# https://github.com/mikedh/trimesh
v 0.01608919 0.02390419 0.00178393
v 0.01911047 0.02341190 0.00183076
v 0.01608919 0.02390027 0.00106010
v 0.01608919 0.02382715 0.00178676
v 0.01899271 0.02341190 -0.00103375
v 0.01901910 0.02334791 0.00183171
v 0.03314280 0.01768985 0.00198791
v 0.03107582 0.01916280 0.00194580
v 0.02261500 0.02259316 0.00184491
v 0.01608919 0.02388591 -0.00107807
v 0.01608919 0.02224842 0.00181128
v 0.02249521 0.02259316 -0.00102275
v 0.03469608 0.01605106 0.00200991
v 0.03301894 0.01768985 -0.00088478
v 0.03095399 0.01916280 -0.00092689
v 0.02858042 0.02046992 0.00189488
v 0.02575608 0.02161902 0.00185685
v 0.02563629 0.02161902 -0.00101395
v 0.01608919 0.01837540 -0.00116356
v 0.01608919 0.02215441 0.00181096
v 0.03451131 0.01603278 0.00200771
v 0.03457222 0.01605106 -0.00086183
v 0.03551029 0.01423599 0.00201180
v 0.03570115 0.01424513 0.00201400
v 0.03670418 0.01056537 -0.00090583
v 0.02845859 0.02046992 -0.00097781
v 0.02830834 0.02042552 -0.00098095
v 0.02626775 0.01957021 -0.00101584
v 0.01608919 0.01641016 -0.00117362
v 0.01608919 0.01161654 0.00168713
v 0.01822723 0.01235433 0.00174779
v 0.03607069 0.01230601 0.00200394
v 0.03557526 0.01424513 -0.00085869
v 0.03626155 0.01231254 0.00200489
v 0.03683210 0.01056537 0.00196591
v 0.02448706 0.01056537 -0.00108121
v 0.01608919 0.01056537 -0.00119687
v 0.01608919 0.01056537 0.00167330
v 0.01636736 0.01056537 0.00168022
v 0.01847495 0.01056537 0.00173050
v 0.03663718 0.01056537 0.00196591
f 1 2 3
f 1 3 10
f 1 10 19
f 1 19 29
f 1 29 37
f 1 37 38
f 1 38 30
f 1 30 20
f 1 20 11
f 1 11 4
f 1 4 2
f 2 5 3
f 2 4 6
f 2 6 7
f 2 7 8
f 2 8 9
f 2 9 5
f 3 5 10
f 4 11 6
f 5 9 12
f 5 12 10
f 6 11 7
f 7 13 14
f 7 14 15
f 7 15 8
f 7 11 13
f 8 15 26
f 8 26 16
f 8 16 9
f 9 16 17
f 9 17 18
f 9 18 12
f 10 12 18
f 10 18 19
f 11 20 21
f 11 21 13
f 13 22 14
f 13 21 23
f 13 23 24
f 13 24 22
f 14 22 25
f 14 25 15
f 15 25 26
f 16 26 18
f 16 18 17
f 18 26 27
f 18 27 28
f 18 28 19
f 19 28 29
f 20 30 31
f 20 31 32
f 20 32 23
f 20 23 21
f 22 24 33
f 22 33 25
f 23 32 24
f 24 32 34
f 24 34 35
f 24 35 33
f 25 33 35
f 25 35 41
f 25 41 40
f 25 40 39
f 25 39 38
f 25 38 37
f 25 37 36
f 25 36 28
f 25 28 27
f 25 27 26
f 28 36 29
f 29 36 37
f 30 38 39
f 30 39 31
f 31 39 40
f 31 40 32
f 32 41 34
f 32 40 41
f 34 41 35

