# https://github.com/mikedh/trimesh
v -0.00035494 0.02500000 0.00121987
v 0.00522253 0.02486922 0.00135378
v 0.00510657 0.02486922 -0.00151073
v -0.00036460 0.02500000 0.00101102
v -0.00036460 0.02499858 0.00121987
v 0.01048272 0.02455223 0.00159767
v 0.01036676 0.02455223 -0.00126581
v 0.01608919 0.02388554 -0.00107812
v 0.01608919 0.01837577 -0.00116347
v 0.00553660 0.01860321 -0.00155271
v -0.00036460 0.02499574 -0.00164221
v -0.00036460 0.02492750 0.00122507
v 0.01504069 0.02399784 0.00177078
v 0.01510673 0.02406465 0.00176870
v 0.01044246 0.02448399 0.00159975
v 0.01498915 0.02406465 -0.00109478
v 0.01608919 0.02390544 0.00178396
v 0.01608919 0.01640982 -0.00117353
v 0.00563645 0.01652212 -0.00156069
v -0.00036460 0.01237415 -0.00173276
v -0.00036460 0.01450073 -0.00172027
v -0.00036460 0.02289190 0.00131909
v 0.01589430 0.02217546 0.00180998
v 0.01608919 0.02224796 0.00181137
v 0.01608919 0.02382725 0.00178674
v -0.00036460 0.02287627 0.00131978
v 0.01090953 0.02254079 0.00167572
v 0.01608919 0.01047786 -0.00119781
v 0.00581523 0.01047786 -0.00155757
v -0.00036460 0.01047786 -0.00171541
v 0.01226242 0.01047786 0.00157963
v 0.01260870 0.01047786 0.00158865
v 0.01279553 0.01047786 0.00159350
v 0.01608919 0.01161649 0.00168717
v 0.01608919 0.02215414 0.00181102
v -0.00036460 0.01047786 0.00115569
v 0.01608919 0.01047786 0.00167225
f 1 2 3
f 1 3 4
f 1 4 5
f 1 5 6
f 1 6 2
f 2 6 3
f 3 6 7
f 3 7 8
f 3 8 9
f 3 9 10
f 3 10 11
f 3 11 4
f 4 11 21
f 4 21 20
f 4 20 30
f 4 30 36
f 4 36 26
f 4 26 22
f 4 22 12
f 4 12 5
f 5 12 6
f 6 13 14
f 6 14 7
f 6 12 15
f 6 15 13
f 7 14 16
f 7 16 8
f 8 16 17
f 8 17 25
f 8 25 24
f 8 24 35
f 8 35 34
f 8 34 37
f 8 37 28
f 8 28 18
f 8 18 9
f 9 18 19
f 9 19 10
f 10 19 20
f 10 20 21
f 10 21 11
f 12 22 15
f 13 23 24
f 13 24 25
f 13 25 17
f 13 17 14
f 13 15 26
f 13 26 27
f 13 27 23
f 14 17 16
f 15 22 26
f 18 28 19
f 19 29 20
f 19 28 29
f 20 29 30
f 23 27 31
f 23 31 32
f 23 32 33
f 23 33 34
f 23 34 35
f 23 35 24
f 26 36 31
f 26 31 27
f 28 37 33
f 28 33 32
f 28 32 31
f 28 31 36
f 28 36 30
f 28 30 29
f 33 37 34

