# https://github.com/mikedh/trimesh
v 0.03683157 0.01056537 0.00196580
v 0.03670298 0.01056537 -0.00090603
v 0.03663638 0.01056537 0.00196580
v 0.03672594 0.01028982 0.00195994
v 0.03691883 0.01029293 0.00195994
v 0.03954808 0.00261328 0.00168488
v 0.03953889 0.00261328 0.00147989
v 0.03941489 0.00261328 -0.00118565
v 0.02448672 0.01056537 -0.00108136
v 0.01847503 0.01056537 0.00173050
v 0.01851177 0.01029760 0.00172790
v 0.01976095 0.00261328 0.00158026
v 0.03338713 0.00261328 0.00166532
v 0.03934141 0.00261328 0.00168683
v 0.03935519 0.00261328 0.00168683
v 0.02019954 0.00261328 0.00158450
v 0.01608919 0.00261328 -0.00136294
v 0.01608919 0.01056537 -0.00119673
v 0.01608919 0.01056537 0.00167347
v 0.01608919 0.01029838 0.00166989
v 0.01608919 0.00656520 0.00159623
v 0.01608919 0.00261328 0.00150759
f 1 2 9
f 1 9 18
f 1 18 19
f 1 19 10
f 1 10 3
f 1 3 4
f 1 4 5
f 1 5 6
f 1 6 2
f 2 6 7
f 2 7 8
f 2 8 9
f 3 10 11
f 3 11 12
f 3 12 4
f 4 13 14
f 4 14 15
f 4 15 5
f 4 12 16
f 4 16 13
f 5 15 6
f 6 15 14
f 6 14 13
f 6 13 16
f 6 16 12
f 6 12 22
f 6 22 17
f 6 17 8
f 6 8 7
f 8 17 18
f 8 18 9
f 10 19 11
f 11 19 20
f 11 20 21
f 11 21 12
f 12 21 22
f 17 22 21
f 17 21 20
f 17 20 19
f 17 19 18

