# https://github.com/mikedh/trimesh
v -0.02542056 -0.00642581 0.00186771
v -0.02542056 -0.00642581 -0.00101129
v -0.02620688 -0.00642581 0.00188727
v -0.02542056 -0.00670269 0.00187220
v -0.02542056 -0.01067300 -0.00116263
v -0.03910557 -0.00642581 -0.00077754
v -0.03148880 -0.00642581 0.00199212
v -0.02608766 -0.00729221 0.00189785
v -0.02542056 -0.00729179 0.00188022
v -0.02542056 -0.01067300 0.00171605
v -0.03752354 -0.01067300 -0.00095453
v -0.03892473 -0.00729636 -0.00076375
v -0.03878541 -0.00729636 0.00211300
v -0.03896492 -0.00642581 0.00209921
v -0.03243989 -0.00729429 0.00202386
v -0.03258858 -0.00642581 0.00201200
v -0.02938701 -0.01067300 0.00179557
v -0.02542056 -0.00990928 0.00175421
v -0.03738155 -0.01067300 0.00192222
v -0.03858716 -0.00729636 0.00211076
v -0.03876666 -0.00642581 0.00209729
v -0.03893143 -0.00642581 0.00209889
v -0.03732395 -0.01067300 0.00192158
v -0.03131465 -0.01067300 0.00183373
v -0.03542042 -0.01067300 0.00189497
v -0.03769635 -0.00642581 0.00208414
v -0.03718865 -0.01067300 0.00191998
f 1 2 6
f 1 6 14
f 1 14 22
f 1 22 21
f 1 21 26
f 1 26 16
f 1 16 7
f 1 7 3
f 1 3 4
f 1 4 9
f 1 9 18
f 1 18 10
f 1 10 5
f 1 5 2
f 2 5 6
f 3 7 8
f 3 8 4
f 4 8 9
f 5 10 17
f 5 17 24
f 5 24 25
f 5 25 27
f 5 27 23
f 5 23 19
f 5 19 11
f 5 11 6
f 6 11 12
f 6 12 13
f 6 13 14
f 7 15 8
f 7 16 15
f 8 15 17
f 8 17 18
f 8 18 9
f 10 18 17
f 11 19 13
f 11 13 12
f 13 20 21
f 13 21 22
f 13 22 14
f 13 19 23
f 13 23 20
f 15 24 17
f 15 16 20
f 15 20 25
f 15 25 24
f 16 26 20
f 20 26 21
f 20 23 27
f 20 27 25

