# Blender 4.0.0
# www.blender.org
o TomatoSlice001
v -0.006141 0.030256 -0.000879
v -0.006141 0.030256 0.000946
v 0.000999 0.030342 0.000946
v 0.000999 0.030342 -0.000879
v 0.004746 0.030293 0.000946
v 0.004746 0.030293 -0.000879
v -0.009733 0.028990 -0.000879
v -0.009733 0.028990 0.000946
v -0.008034 0.029763 0.000946
v -0.008034 0.029763 -0.000879
v -0.011410 0.027937 0.000946
v -0.011410 0.027937 -0.000879
v -0.013105 0.027358 -0.000879
v -0.013105 0.027358 0.000946
v 0.024825 -0.018679 0.000946
v 0.024825 -0.018679 -0.000879
v 0.026273 -0.016778 -0.000879
v 0.026273 -0.016778 0.000946
v 0.026679 0.015067 0.000946
v 0.026679 0.015067 -0.000879
v 0.024462 0.018104 -0.000879
v 0.024462 0.018104 0.000946
v 0.029149 -0.008732 0.000946
v 0.029149 -0.008732 -0.000879
v 0.029912 -0.004818 -0.000879
v 0.029912 -0.004818 0.000946
v 0.030277 -0.000416 -0.000879
v 0.030277 -0.000416 0.000946
v -0.023801 0.018210 -0.000879
v -0.023801 0.018210 0.000946
v -0.022220 0.020941 0.000946
v -0.022220 0.020941 -0.000879
v 0.009688 -0.029108 -0.000879
v 0.009688 -0.029108 0.000946
v 0.007065 -0.029820 0.000946
v 0.007065 -0.029820 -0.000879
v -0.030403 0.003372 -0.000879
v -0.030403 0.003372 0.000946
v -0.029722 0.006411 0.000946
v -0.029722 0.006411 -0.000879
v -0.000481 -0.030342 -0.000879
v -0.000481 -0.030342 0.000946
v -0.005493 -0.029908 0.000946
v -0.005493 -0.029908 -0.000879
v -0.021031 0.022379 0.000946
v -0.021031 0.022379 -0.000879
v -0.010616 -0.028665 -0.000879
v -0.010616 -0.028665 0.000946
v -0.013352 -0.027509 0.000946
v -0.013352 -0.027509 -0.000879
v -0.008171 -0.029445 0.000946
v -0.008171 -0.029445 -0.000879
v 0.004646 -0.030342 0.000946
v 0.004646 -0.030342 -0.000879
v -0.022895 -0.020397 -0.000879
v -0.022895 -0.020397 0.000946
v -0.024403 -0.018094 0.000946
v -0.024403 -0.018094 -0.000879
v -0.027656 0.012636 0.000946
v -0.027656 0.012636 -0.000879
v -0.025659 0.015618 0.000946
v -0.025659 0.015618 -0.000879
v -0.019795 0.023164 0.000946
v -0.019795 0.023164 -0.000879
v -0.029683 -0.005827 -0.000879
v -0.029683 -0.005827 0.000946
v -0.030570 -0.000010 0.000946
v -0.030570 -0.000010 -0.000879
v 0.022051 -0.022345 0.000946
v 0.022051 -0.022345 -0.000879
v 0.024015 -0.020346 -0.000879
v 0.024015 -0.020346 0.000946
v 0.030570 0.003951 0.000946
v 0.030570 0.003951 -0.000879
v 0.030454 0.006056 -0.000879
v 0.030454 0.006056 0.000946
v -0.016413 0.025282 -0.000879
v -0.016413 0.025282 0.000946
v -0.014781 0.026595 0.000946
v -0.014781 0.026595 -0.000879
v 0.029673 0.008428 0.000946
v 0.029673 0.008428 -0.000879
v 0.029426 0.010302 -0.000879
v 0.029426 0.010302 0.000946
v 0.028598 0.011822 0.000946
v 0.028598 0.011822 -0.000879
v 0.027772 0.013523 -0.000879
v 0.027772 0.013523 0.000946
v -0.026481 -0.012085 -0.002368
v -0.027901 -0.009070 -0.002368
v -0.029186 -0.005723 -0.002368
v -0.030061 0.000002 -0.002368
v -0.029893 0.003333 -0.002368
v -0.029224 0.006323 -0.002368
v -0.027189 0.012450 -0.002368
v -0.025225 0.015385 -0.002368
v -0.023395 0.017939 -0.002368
v -0.021839 0.020625 -0.002368
v -0.020668 0.022041 -0.002368
v -0.019452 0.022814 -0.002368
v -0.016124 0.024898 -0.002368
v -0.014518 0.026191 -0.002368
v -0.012866 0.026944 -0.002368
v -0.011198 0.027513 -0.002368
v -0.009548 0.028547 -0.002368
v -0.007877 0.029308 -0.002368
v -0.006013 0.029795 -0.002368
v 0.001016 0.029879 -0.002368
v 0.004706 0.029830 -0.002368
v 0.006509 0.029573 -0.002368
v 0.008312 0.028761 -0.002368
v 0.012150 0.027517 -0.002368
v 0.015785 0.025822 -0.002368
v 0.018946 0.023421 -0.002368
v 0.021469 0.020692 -0.002368
v 0.022926 0.019389 -0.002368
v 0.024113 0.017833 -0.002368
v 0.026297 0.014843 -0.002368
v 0.027370 0.013323 -0.002368
v 0.028184 0.011649 -0.002368
v 0.028998 0.010153 -0.002368
v 0.029243 0.008310 -0.002368
v 0.030012 0.005974 -0.002368
v 0.030128 0.003902 -0.002368
v 0.029838 -0.000398 -0.002368
v 0.029479 -0.004732 -0.002368
v 0.028727 -0.008583 -0.002368
v 0.027489 -0.012844 -0.002368
v 0.026856 -0.014753 -0.002368
v 0.025896 -0.016503 -0.002368
v 0.024470 -0.018377 -0.002368
v 0.023672 -0.020015 -0.002368
v 0.021739 -0.021983 -0.002368
v 0.019595 -0.023164 -0.002368
v 0.017251 -0.024898 -0.002368
v 0.014635 -0.026365 -0.002368
v 0.011928 -0.027695 -0.002368
v 0.009570 -0.028641 -0.002368
v 0.006988 -0.029343 -0.002368
v 0.004606 -0.029855 -0.002368
v -0.000441 -0.029855 -0.002368
v -0.005372 -0.029428 -0.002368
v -0.008010 -0.028973 -0.002368
v -0.010419 -0.028206 -0.002368
v -0.013109 -0.027068 -0.002368
v -0.015709 -0.025730 -0.002368
v -0.018165 -0.024060 -0.002368
v -0.020083 -0.022294 -0.002368
v -0.022504 -0.020066 -0.002368
v -0.023988 -0.017800 -0.002368
v 0.012309 0.027941 -0.000879
v 0.012309 0.027941 0.000946
v 0.016001 0.026222 0.000946
v 0.016001 0.026222 -0.000879
v 0.019214 0.023782 0.000946
v 0.019214 0.023782 -0.000879
v 0.023256 0.019685 0.000946
v 0.023256 0.019685 -0.000879
v 0.021777 0.021011 -0.000879
v 0.021777 0.021011 0.000946
v 0.012083 -0.028145 -0.000879
v 0.012083 -0.028145 0.000946
v -0.026936 -0.012289 0.000946
v -0.026936 -0.012289 -0.000879
v 0.008407 0.029206 -0.000879
v 0.008407 0.029206 0.000946
v -0.018488 -0.024454 -0.000879
v -0.018488 -0.024454 0.000946
v -0.020435 -0.022661 0.000946
v -0.020435 -0.022661 -0.000879
v 0.006576 0.030030 0.000946
v 0.006576 0.030030 -0.000879
v -0.028376 -0.009227 0.000946
v -0.028376 -0.009227 -0.000879
v 0.017492 -0.025304 -0.000879
v 0.017492 -0.025304 0.000946
v 0.014834 -0.026795 0.000946
v 0.014834 -0.026795 -0.000879
v 0.019870 -0.023544 -0.000879
v 0.019870 -0.023544 0.000946
v 0.027248 -0.014998 -0.000879
v 0.027248 -0.014998 0.000946
v 0.027892 -0.013058 -0.000879
v 0.027892 -0.013058 0.000946
v -0.027189 0.012450 0.002368
v -0.029224 0.006323 0.002368
v -0.029893 0.003333 0.002368
v -0.030061 0.000002 0.002368
v -0.029186 -0.005723 0.002368
v -0.027901 -0.009070 0.002368
v -0.026481 -0.012085 0.002368
v -0.023988 -0.017800 0.002368
v -0.022504 -0.020066 0.002368
v -0.020083 -0.022294 0.002368
v -0.018165 -0.024060 0.002368
v -0.015709 -0.025730 0.002368
v -0.013109 -0.027068 0.002368
v -0.010419 -0.028206 0.002368
v -0.008010 -0.028973 0.002368
v -0.005372 -0.029428 0.002368
v -0.000441 -0.029855 0.002368
v 0.004606 -0.029855 0.002368
v 0.006988 -0.029343 0.002368
v 0.009570 -0.028641 0.002368
v 0.011928 -0.027695 0.002368
v 0.014635 -0.026365 0.002368
v 0.017251 -0.024898 0.002368
v 0.019595 -0.023164 0.002368
v 0.021739 -0.021983 0.002368
v 0.023672 -0.020015 0.002368
v 0.024470 -0.018377 0.002368
v 0.025896 -0.016503 0.002368
v 0.026856 -0.014753 0.002368
v 0.027489 -0.012844 0.002368
v 0.028727 -0.008583 0.002368
v 0.029479 -0.004732 0.002368
v 0.029838 -0.000398 0.002368
v 0.030128 0.003902 0.002368
v 0.030012 0.005974 0.002368
v 0.029243 0.008310 0.002368
v 0.028998 0.010153 0.002368
v 0.028184 0.011649 0.002368
v 0.027370 0.013323 0.002368
v 0.026297 0.014843 0.002368
v 0.024113 0.017833 0.002368
v 0.022926 0.019389 0.002368
v 0.021469 0.020692 0.002368
v 0.018946 0.023421 0.002368
v 0.015785 0.025822 0.002368
v 0.012150 0.027517 0.002368
v 0.008312 0.028761 0.002368
v 0.006509 0.029573 0.002368
v 0.004706 0.029830 0.002368
v 0.001016 0.029879 0.002368
v -0.006013 0.029795 0.002368
v -0.007877 0.029308 0.002368
v -0.009548 0.028547 0.002368
v -0.011198 0.027513 0.002368
v -0.012866 0.026944 0.002368
v -0.014518 0.026191 0.002368
v -0.016124 0.024898 0.002368
v -0.019452 0.022814 0.002368
v -0.020668 0.022041 0.002368
v -0.021839 0.020625 0.002368
v -0.023395 0.017939 0.002368
v -0.025225 0.015385 0.002368
v -0.015991 -0.026148 -0.000879
v -0.015991 -0.026148 0.000946
vn -0.1331 0.9784 0.1584
vn 0.0005 0.9887 -0.1500
vn -0.1335 0.9793 -0.1519
vn 0.0005 0.9877 0.1566
vn 0.0765 0.9858 -0.1493
vn -0.4673 0.8694 0.1603
vn -0.3304 0.9311 -0.1544
vn -0.4679 0.8704 -0.1536
vn -0.3304 0.9300 0.1609
vn -0.4248 0.8919 -0.1553
vn -0.3652 0.9172 0.1592
vn -0.4243 0.8909 0.1622
vn 0.8426 -0.5170 -0.1509
vn 0.8282 -0.5382 0.1566
vn 0.8417 -0.5164 0.1576
vn 0.8037 0.5775 -0.1435
vn 0.7924 0.5914 0.1499
vn 0.8028 0.5771 0.1501
vn 0.9616 -0.2333 -0.1443
vn 0.9795 -0.1360 0.1489
vn 0.9607 -0.2332 0.1503
vn 0.9804 -0.1362 -0.1426
vn 0.9860 -0.0741 0.1494
vn -0.8286 0.5349 0.1655
vn -0.8102 0.5644 -0.1581
vn -0.8295 0.5355 -0.1586
vn 0.3133 -0.9359 0.1609
vn 0.2333 -0.9599 -0.1556
vn 0.3139 -0.9368 -0.1545
vn -0.9766 0.1322 0.1699
vn -0.9511 0.2632 -0.1614
vn -0.9777 0.1324 -0.1629
vn -0.0427 -0.9856 0.1637
vn -0.1273 -0.9792 -0.1578
vn -0.0428 -0.9866 -0.1572
vn -0.8093 0.5638 0.1649
vn -0.6544 0.7397 -0.1571
vn -0.3422 -0.9246 0.1672
vn -0.4186 -0.8937 -0.1615
vn -0.3426 -0.9257 -0.1603
vn -0.1271 -0.9781 0.1647
vn -0.2350 -0.9589 -0.1590
vn 0.2331 -0.9588 0.1624
vn 0.1044 -0.9822 -0.1561
vn -0.7526 -0.6380 -0.1629
vn -0.8667 -0.4697 0.1681
vn -0.8677 -0.4702 -0.1612
vn 0.1044 -0.9811 0.1631
vn -0.2348 -0.9578 0.1658
vn -0.9500 0.2629 0.1684
vn -0.8871 0.4333 -0.1594
vn -0.8861 0.4327 0.1663
vn -0.8118 0.5622 -0.1580
vn -0.5265 0.8346 0.1619
vn -0.5271 0.8355 -0.1552
vn -0.9529 -0.2522 0.1687
vn -0.9854 -0.0500 -0.1625
vn -0.9540 -0.2525 -0.1618
vn 0.5976 -0.7872 -0.1520
vn 0.8057 -0.5712 0.1567
vn 0.5970 -0.7864 0.1586
vn 0.8066 -0.5717 -0.1502
vn 0.9897 -0.0052 -0.1432
vn 0.9714 0.1834 0.1508
vn 0.9887 -0.0051 0.1501
vn -0.5720 0.8038 0.1632
vn -0.5187 0.8410 -0.1540
vn -0.5727 0.8047 -0.1563
vn 0.9644 0.2203 -0.1464
vn 0.9398 0.3065 0.1511
vn 0.9635 0.2198 0.1529
vn 0.8795 0.4530 -0.1458
vn 0.8511 0.5028 0.1507
vn 0.8786 0.4526 0.1523
vn 0.8520 0.5033 -0.1444
vn -0.0000 -0.0000 -1.0000
vn 0.3616 0.9197 0.1527
vn 0.5106 0.8473 -0.1459
vn 0.3619 0.9207 -0.1463
vn 0.5101 0.8465 0.1523
vn 0.6644 0.7333 -0.1442
vn 0.7268 0.6719 -0.1428
vn 0.6934 0.7046 0.1507
vn 0.7265 0.6708 0.1493
vn 0.4015 -0.9018 0.1600
vn 0.4019 -0.9028 -0.1533
vn -0.8989 -0.4075 -0.1610
vn 0.3566 0.9215 0.1536
vn -0.6122 -0.7723 0.1696
vn -0.6681 -0.7258 -0.1639
vn -0.6132 -0.7730 -0.1624
vn 0.2743 0.9504 -0.1468
vn 0.0770 0.9847 0.1563
vn 0.2739 0.9495 0.1532
vn -0.8978 -0.4070 0.1680
vn -0.9080 -0.3871 -0.1604
vn -0.9069 -0.3866 0.1674
vn 0.5360 -0.8292 0.1585
vn 0.4596 -0.8749 -0.1530
vn 0.5366 -0.8300 -0.1519
vn 0.4591 -0.8739 0.1597
vn 0.5325 -0.8313 0.1595
vn 0.5329 -0.8322 -0.1532
vn 0.8290 -0.5387 -0.1500
vn 0.9053 -0.3959 0.1537
vn 0.9063 -0.3963 -0.1472
vn 0.9437 -0.2939 0.1520
vn -0.3655 0.9182 -0.1525
vn -0.5182 0.8401 0.1606
vn 0.9870 -0.0741 -0.1426
vn 0.9407 0.3072 -0.1442
vn 0.9723 0.1836 -0.1445
vn -0.0000 -0.0000 1.0000
vn -0.7517 -0.6372 0.1699
vn -0.5039 -0.8471 0.1688
vn -0.5046 -0.8482 -0.1614
vn -0.8108 0.5616 0.1648
vn 0.7931 0.5919 -0.1435
vn 0.6941 0.7053 -0.1442
vn 0.6640 0.7325 0.1502
vn 0.3567 0.9226 -0.1467
vn -0.1240 0.9448 -0.3032
vn 0.0007 0.9549 -0.2969
vn -0.1231 0.9406 0.3165
vn 0.0007 0.9508 0.3097
vn 0.0739 0.9520 -0.2972
vn 0.0737 0.9478 0.3104
vn -0.3186 0.8966 -0.3074
vn -0.4524 0.8379 -0.3053
vn -0.3172 0.8926 0.3205
vn -0.4504 0.8341 0.3183
vn -0.3491 0.8820 0.3165
vn -0.4083 0.8561 0.3168
vn -0.3507 0.8861 -0.3031
vn -0.4099 0.8602 -0.3035
vn 0.8086 -0.5008 0.3089
vn 0.7974 -0.5170 0.3112
vn 0.8121 -0.5029 -0.2960
vn 0.8008 -0.5194 -0.2983
vn 0.7755 0.5573 0.2965
vn 0.7653 0.5712 0.2967
vn 0.7786 0.5595 -0.2842
vn 0.7682 0.5735 -0.2844
vn 0.9277 -0.2239 0.2988
vn 0.9460 -0.1305 0.2969
vn 0.9314 -0.2248 -0.2864
vn 0.9498 -0.1311 -0.2842
vn 0.9526 -0.0716 0.2957
vn 0.9564 -0.0719 -0.2831
vn -0.7800 0.5410 -0.3146
vn -0.7982 0.5156 -0.3115
vn -0.7763 0.5384 0.3279
vn -0.7945 0.5132 0.3248
vn 0.2250 -0.9244 -0.3081
vn 0.3035 -0.9020 -0.3069
vn 0.2242 -0.9200 0.3215
vn 0.3020 -0.8981 0.3196
vn -0.9372 0.1286 -0.3242
vn -0.9127 0.2542 -0.3201
vn -0.9327 0.1278 0.3373
vn -0.9082 0.2527 0.3336
vn -0.1209 -0.9420 -0.3131
vn -0.0407 -0.9495 -0.3112
vn -0.1203 -0.9376 0.3264
vn -0.0405 -0.9451 0.3244
vn -0.6258 0.7138 -0.3144
vn -0.6228 0.7104 0.3278
vn -0.4012 -0.8585 -0.3194
vn -0.3284 -0.8892 -0.3184
vn -0.3992 -0.8541 0.3333
vn -0.3268 -0.8848 0.3321
vn -0.2240 -0.9219 -0.3161
vn -0.2229 -0.9174 0.3298
vn 0.1013 -0.9450 -0.3110
vn 0.1007 -0.9405 0.3245
vn -0.7212 -0.6116 -0.3253
vn -0.8342 -0.4488 -0.3206
vn -0.7175 -0.6085 0.3390
vn -0.8301 -0.4465 0.3341
vn -0.8505 0.4187 -0.3185
vn -0.8465 0.4165 0.3316
vn -0.7807 0.5412 -0.3123
vn -0.7771 0.5387 0.3255
vn -0.5078 0.8051 -0.3065
vn -0.5055 0.8014 0.3196
vn -0.9445 -0.0486 -0.3248
vn -0.9146 -0.2438 -0.3226
vn -0.9399 -0.0484 0.3379
vn -0.9100 -0.2426 0.3362
vn 0.5714 -0.7568 0.3175
vn 0.7786 -0.5435 0.3138
vn 0.5740 -0.7601 -0.3045
vn 0.7819 -0.5460 -0.3009
vn 0.9367 0.1772 0.3019
vn 0.9545 -0.0069 0.2982
vn 0.9406 0.1779 -0.2891
vn 0.9583 -0.0069 -0.2856
vn -0.4989 0.8102 -0.3079
vn -0.5523 0.7750 -0.3070
vn -0.4965 0.8063 0.3215
vn -0.5498 0.7715 0.3201
vn 0.9062 0.2946 0.3035
vn 0.9299 0.2134 0.2995
vn 0.9099 0.2958 -0.2909
vn 0.9336 0.2142 -0.2872
vn 0.8482 0.4362 0.3003
vn 0.8206 0.4865 0.3000
vn 0.8516 0.4380 -0.2879
vn 0.8239 0.4884 -0.2875
vn 0.3501 0.8902 -0.2915
vn 0.4948 0.8188 -0.2910
vn 0.3489 0.8866 0.3038
vn 0.4930 0.8151 0.3042
vn 0.6448 0.7082 -0.2875
vn 0.6424 0.7054 0.2996
vn 0.7009 0.6480 0.2979
vn 0.6697 0.6809 0.2965
vn 0.7037 0.6506 -0.2856
vn 0.6724 0.6836 -0.2840
vn 0.3883 -0.8699 -0.3042
vn 0.3866 -0.8658 0.3176
vn -0.8637 -0.3916 -0.3175
vn -0.8596 -0.3897 0.3304
vn 0.3419 0.8899 0.3021
vn 0.3432 0.8937 -0.2890
vn -0.5878 -0.7415 -0.3236
vn -0.6409 -0.6961 -0.3235
vn -0.6673 -0.7249 0.1710
vn -0.5848 -0.7378 0.3372
vn -0.6377 -0.6926 0.3371
vn 0.2688 0.9129 0.3071
vn 0.2698 0.9168 -0.2943
vn -0.8718 -0.3726 -0.3180
vn -0.8675 -0.3706 0.3319
vn 0.4433 -0.8436 -0.3032
vn 0.5180 -0.8004 -0.3018
vn 0.4416 -0.8397 0.3161
vn 0.5156 -0.7967 0.3154
vn 0.5153 -0.8026 -0.3006
vn 0.5131 -0.7990 0.3134
vn 0.8737 -0.3777 0.3065
vn 0.8773 -0.3795 -0.2938
vn 0.9108 -0.2823 0.3012
vn 0.9446 -0.2942 -0.1456
vn 0.9145 -0.2838 -0.2884
vn -0.4831 -0.8142 -0.3219
vn -0.4806 -0.8102 0.3355
vn -0.4182 -0.8927 0.1681
vn -0.6537 0.7388 0.1639
vn -0.9842 -0.0499 0.1699
vt 0.393429 0.924780
vt 0.491483 0.963889
vt 0.387160 0.950089
vt 0.492606 0.936865
vt 0.548006 0.962601
vt 0.342989 0.907491
vt 0.359180 0.941998
vt 0.332626 0.932422
vt 0.367525 0.917183
vt 0.304533 0.920201
vt 0.293180 0.883190
vt 0.316721 0.894755
vt 0.886334 0.240401
vt 0.880343 0.283893
vt 0.863286 0.254815
vt 0.890996 0.750610
vt 0.835081 0.777541
vt 0.868862 0.734876
vt 0.944183 0.393002
vt 0.926832 0.454450
vt 0.918020 0.398325
vt 0.953222 0.451585
vt 0.930022 0.517985
vt 0.142666 0.743101
vt 0.147644 0.798197
vt 0.118733 0.758539
vt 0.664584 0.093546
vt 0.637380 0.055354
vt 0.674991 0.069663
vt 0.064984 0.518009
vt 0.043413 0.567770
vt 0.037654 0.519504
vt 0.525282 0.063206
vt 0.451278 0.036634
vt 0.526882 0.036333
vt 0.168694 0.781453
vt 0.166461 0.819257
vt 0.379078 0.075860
vt 0.328704 0.063494
vt 0.372192 0.049614
vt 0.453158 0.063555
vt 0.410446 0.041474
vt 0.629360 0.080394
vt 0.602100 0.046061
vt 0.175793 0.165025
vt 0.170583 0.213932
vt 0.148375 0.197391
vt 0.596584 0.071322
vt 0.414741 0.067891
vt 0.070768 0.562851
vt 0.070850 0.663871
vt 0.096189 0.654415
vt 0.093508 0.714668
vt 0.200749 0.815682
vt 0.181961 0.835485
vt 0.080668 0.387666
vt 0.038500 0.467213
vt 0.054957 0.380154
vt 0.844313 0.187841
vt 0.849866 0.232923
vt 0.826299 0.204956
vt 0.870065 0.218020
vt 0.955349 0.583416
vt 0.925257 0.609534
vt 0.929064 0.580729
vt 0.245948 0.852186
vt 0.256209 0.892386
vt 0.229492 0.874777
vt 0.941791 0.651463
vt 0.907614 0.668357
vt 0.915369 0.643115
vt 0.920758 0.701920
vt 0.884205 0.712683
vt 0.897138 0.689881
vt 0.906754 0.726724
vt 0.844717 0.539233
vt 0.841482 0.490883
vt 0.834837 0.588894
vt 0.655744 0.908240
vt 0.720610 0.907715
vt 0.665533 0.933451
vt 0.708115 0.884729
vt 0.770402 0.875320
vt 0.835127 0.817267
vt 0.794905 0.818472
vt 0.815941 0.798618
vt 0.696685 0.109364
vt 0.709117 0.086303
vt 0.096461 0.280593
vt 0.598810 0.926243
vt 0.261723 0.128209
vt 0.213188 0.129654
vt 0.246717 0.105410
vt 0.575521 0.959073
vt 0.545889 0.936296
vt 0.571305 0.933234
vt 0.121299 0.294106
vt 0.073688 0.328119
vt 0.098815 0.338838
vt 0.768268 0.155779
vt 0.747697 0.109388
vt 0.783987 0.135033
vt 0.733391 0.131434
vt 0.800256 0.182815
vt 0.818150 0.162324
vt 0.903863 0.272032
vt 0.892332 0.309366
vt 0.916502 0.299492
vt 0.901992 0.336342
vt 0.280004 0.906857
vt 0.270608 0.869931
vt 0.957478 0.517579
vt 0.931243 0.678311
vt 0.950495 0.614477
vt 0.752563 0.732807
vt 0.217043 0.363932
vt 0.846028 0.495430
vt 0.195276 0.183452
vt 0.299142 0.106304
vt 0.286873 0.081945
vt 0.118482 0.701746
vt 0.855512 0.795297
vt 0.813869 0.838609
vt 0.754704 0.854252
vt 0.605780 0.953092
vt 0.382767 0.973768
vt 0.490527 0.987838
vt 0.398868 0.905194
vt 0.493861 0.915384
vt 0.550267 0.987501
vt 0.544488 0.915914
vt 0.351569 0.965881
vt 0.322883 0.955220
vt 0.374133 0.897919
vt 0.351059 0.887849
vt 0.303903 0.864780
vt 0.326639 0.874541
vt 0.268595 0.928759
vt 0.293663 0.942688
vt 0.845441 0.266280
vt 0.862512 0.293854
vt 0.907499 0.227849
vt 0.925934 0.261566
vt 0.851413 0.722504
vt 0.818662 0.763601
vt 0.910441 0.765163
vt 0.873727 0.811007
vt 0.897512 0.403221
vt 0.905884 0.457055
vt 0.967647 0.388954
vt 0.976808 0.449407
vt 0.908231 0.518152
vt 0.981257 0.516929
vt 0.127881 0.813687
vt 0.097456 0.772251
vt 0.185136 0.768220
vt 0.161840 0.731062
vt 0.645281 0.032486
vt 0.685108 0.047949
vt 0.623476 0.100138
vt 0.657080 0.112460
vt 0.012080 0.521488
vt 0.018660 0.573250
vt 0.086407 0.517169
vt 0.092442 0.559429
vt 0.450534 0.012162
vt 0.528751 0.012162
vt 0.455306 0.084858
vt 0.524460 0.084764
vt 0.148427 0.837142
vt 0.200703 0.787938
vt 0.320333 0.039718
vt 0.366359 0.025248
vt 0.346518 0.109113
vt 0.385155 0.096303
vt 0.407207 0.016922
vt 0.418969 0.088409
vt 0.607284 0.022595
vt 0.592813 0.090956
vt 0.156887 0.147486
vt 0.127656 0.183160
vt 0.210464 0.197629
vt 0.187762 0.227251
vt 0.047741 0.673262
vt 0.116466 0.647460
vt 0.071331 0.726960
vt 0.138506 0.692049
vt 0.165621 0.854673
vt 0.215873 0.800501
vt 0.012895 0.464764
vt 0.031252 0.372929
vt 0.086486 0.471305
vt 0.101134 0.392913
vt 0.812905 0.218099
vt 0.834356 0.244849
vt 0.861430 0.171135
vt 0.889514 0.204361
vt 0.906116 0.605573
vt 0.908686 0.578500
vt 0.974877 0.619043
vt 0.979502 0.585049
vt 0.243217 0.913447
vt 0.215130 0.895042
vt 0.282074 0.852801
vt 0.259582 0.834748
vt 0.889987 0.661348
vt 0.894491 0.636699
vt 0.954152 0.687750
vt 0.965499 0.658742
vt 0.878662 0.680432
vt 0.866923 0.702319
vt 0.942599 0.713566
vt 0.927163 0.739965
vt 0.674776 0.956102
vt 0.732642 0.928455
vt 0.648401 0.888371
vt 0.698815 0.866589
vt 0.785186 0.894005
vt 0.742826 0.837615
vt 0.801211 0.784175
vt 0.779990 0.802150
vt 0.852542 0.834119
vt 0.830372 0.856266
vt 0.720961 0.065740
vt 0.687340 0.127800
vt 0.074532 0.268706
vt 0.141137 0.305164
vt 0.593451 0.905171
vt 0.612825 0.977017
vt 0.232646 0.083764
vt 0.197205 0.109918
vt 0.230844 0.151287
vt 0.273699 0.145818
vt 0.244871 0.168369
vt 0.568710 0.913583
vt 0.580475 0.983197
vt 0.050947 0.317850
vt 0.119016 0.347118
vt 0.760877 0.089860
vt 0.798287 0.116482
vt 0.722327 0.149153
vt 0.755945 0.172373
vt 0.833587 0.144254
vt 0.786018 0.199449
vt 0.874042 0.318030
vt 0.939210 0.291252
vt 0.882370 0.343653
vt 0.927286 0.327983
vt 0.950499 0.321689
vt 0.275892 0.059145
vt 0.309259 0.125124
vt 0.338376 0.089125
vt 0.185673 0.801495
vt 0.065428 0.469637
vt 0.212496 0.359385
vt 0.196584 0.393309
vt 0.226486 0.668457
vt 0.182245 0.430905
vt 0.181808 0.566512
vt 0.172540 0.495430
vt 0.174376 0.532850
vt 0.204540 0.635495
vt 0.246945 0.697222
vt 0.264344 0.727474
vt 0.291010 0.752042
vt 0.277371 0.743386
vt 0.328169 0.775561
vt 0.346092 0.790075
vt 0.364541 0.798556
vt 0.383164 0.804938
vt 0.401612 0.816567
vt 0.441043 0.830643
vt 0.420235 0.825135
vt 0.256912 0.269593
vt 0.240300 0.295036
vt 0.283928 0.244500
vt 0.332803 0.205855
vt 0.305349 0.224653
vt 0.519557 0.831605
vt 0.560738 0.830993
vt 0.601044 0.819015
vt 0.748017 0.728173
vt 0.580935 0.828108
vt 0.643885 0.805026
vt 0.684541 0.785966
vt 0.719776 0.758949
vt 0.764279 0.713572
vt 0.777481 0.695998
vt 0.801875 0.662337
vt 0.813941 0.645288
vt 0.823033 0.626403
vt 0.832126 0.609616
vt 0.361830 0.190817
vt 0.391907 0.177964
vt 0.448213 0.164237
vt 0.418748 0.169308
vt 0.559689 0.159429
vt 0.503295 0.159429
vt 0.586268 0.165199
vt 0.641437 0.183735
vt 0.615120 0.173068
vt 0.671689 0.198686
vt 0.837460 0.442096
vt 0.829066 0.398817
vt 0.727033 0.234708
vt 0.700891 0.215210
vt 0.772585 0.270118
vt 0.750990 0.247997
vt 0.781503 0.288566
vt 0.808170 0.329396
vt 0.797416 0.309637
vt 0.815252 0.350817
vt 0.843405 0.562577
vt 0.231119 0.673091
vt 0.209174 0.640042
vt 0.186442 0.571058
vt 0.178923 0.537397
vt 0.177087 0.499976
vt 0.186879 0.435539
vt 0.201218 0.397856
vt 0.244934 0.299669
vt 0.288475 0.249046
vt 0.261458 0.274139
vt 0.282005 0.747933
vt 0.268890 0.732020
vt 0.295557 0.756676
vt 0.251491 0.701769
vt 0.309896 0.229199
vt 0.337349 0.210402
vt 0.366377 0.195363
vt 0.332715 0.780108
vt 0.387710 0.809572
vt 0.369087 0.803102
vt 0.350639 0.794709
vt 0.424869 0.829769
vt 0.406158 0.821201
vt 0.445677 0.835190
vt 0.396453 0.182511
vt 0.452759 0.168784
vt 0.423382 0.173942
vt 0.507929 0.163975
vt 0.564235 0.163975
vt 0.590814 0.169746
vt 0.645984 0.188281
vt 0.619667 0.177702
vt 0.676235 0.203320
vt 0.705438 0.219757
vt 0.731667 0.239254
vt 0.755623 0.252544
vt 0.786050 0.293200
vt 0.777219 0.274751
vt 0.802050 0.314271
vt 0.819799 0.355451
vt 0.812716 0.333943
vt 0.833613 0.403364
vt 0.842006 0.446730
vt 0.849263 0.543867
vt 0.839383 0.593441
vt 0.847952 0.567124
vt 0.836673 0.614250
vt 0.827580 0.631036
vt 0.818487 0.649834
vt 0.806509 0.666971
vt 0.782115 0.700632
vt 0.768826 0.718119
vt 0.724410 0.763496
vt 0.648519 0.809572
vt 0.689088 0.790512
vt 0.524191 0.836152
vt 0.605590 0.823561
vt 0.565372 0.835627
vt 0.585481 0.832742
s 1
f 2/1/1 4/2/2 1/3/3
f 3/4/4 6/5/5 4/2/2
f 8/6/6 10/7/7 7/8/8
f 9/9/9 1/3/3 10/7/7
f 12/10/10 14/11/11 11/12/12
f 11/12/12 7/8/8 12/10/10
f 16/13/13 18/14/14 15/15/15
f 20/16/16 22/17/17 19/18/18
f 24/19/19 26/20/20 23/21/21
f 25/22/22 28/23/23 26/20/20
f 30/24/24 32/25/25 29/26/26
f 34/27/27 36/28/28 33/29/29
f 38/30/30 40/31/31 37/32/32
f 42/33/33 44/34/34 41/35/35
f 31/36/36 46/37/37 32/25/25
f 48/38/38 50/39/39 47/40/40
f 43/41/41 52/42/42 44/34/34
f 35/43/43 54/44/44 36/28/28
f 55/45/45 57/46/46 58/47/47
f 53/48/48 41/35/35 54/44/44
f 51/49/49 47/40/40 52/42/42
f 39/50/50 60/51/51 40/31/31
f 59/52/52 62/53/53 60/51/51
f 46/37/37 63/54/54 64/55/55
f 66/56/56 68/57/57 65/58/58
f 70/59/59 72/60/60 69/61/61
f 71/62/62 15/15/15 72/60/60
f 74/63/63 76/64/64 73/65/65
f 78/66/66 80/67/67 77/68/68
f 82/69/69 84/70/70 81/71/71
f 86/72/72 88/73/73 85/74/74
f 87/75/75 19/18/18 88/73/73
f 124/76/76 125/77/76 122/78/76
f 152/79/77 154/80/78 151/81/79
f 153/82/80 156/83/81 154/80/78
f 158/84/82 160/85/83 157/86/84
f 162/87/85 33/29/29 161/88/86
f 57/46/46 164/89/87 58/47/47
f 151/81/79 166/90/88 152/79/77
f 168/91/89 170/92/90 167/93/91
f 172/94/92 5/95/93 171/96/94
f 163/97/95 174/98/96 164/89/87
f 173/99/97 65/58/58 174/98/96
f 176/100/98 178/101/99 175/102/100
f 177/103/101 161/88/86 178/101/99
f 180/104/102 175/102/100 179/105/103
f 17/106/104 182/107/105 18/14/14
f 69/61/61 179/105/103 70/59/59
f 181/108/106 184/109/107 182/107/105
f 184/109/107 24/19/19 23/21/21
f 13/110/108 79/111/109 14/11/11
f 27/112/110 73/65/65 28/23/23
f 64/55/55 78/66/66 77/68/68
f 83/113/111 85/74/74 84/70/70
f 75/114/112 81/71/71 76/64/64
f 68/57/57 38/30/30 37/32/32
f 227/115/113 191/116/113 217/117/113
f 170/92/90 56/118/114 55/45/45
f 248/119/115 167/93/91 247/120/116
f 61/121/117 29/26/26 62/53/53
f 50/39/39 248/119/115 247/120/116
f 21/122/118 157/86/84 22/17/17
f 159/123/119 155/124/120 160/85/83
f 171/96/94 165/125/121 172/94/92
f 107/126/122 4/2/2 108/127/123
f 3/4/4 235/128/124 234/129/125
f 4/2/2 109/130/126 108/127/123
f 233/131/127 3/4/4 234/129/125
f 7/8/8 106/132/128 105/133/129
f 236/134/130 8/6/6 237/135/131
f 106/132/128 1/3/3 107/126/122
f 2/1/1 236/134/130 235/128/124
f 11/12/12 239/136/132 238/137/133
f 103/138/134 12/10/10 104/139/135
f 12/10/10 105/133/129 104/139/135
f 237/135/131 11/12/12 238/137/133
f 211/140/136 18/14/14 212/141/137
f 17/106/104 131/142/138 130/143/139
f 224/144/140 22/17/17 225/145/141
f 21/122/118 118/146/142 117/147/143
f 215/148/144 26/20/20 216/149/145
f 25/22/22 127/150/146 126/151/147
f 216/149/145 28/23/23 217/152/148
f 27/112/110 126/151/147 125/153/149
f 29/26/26 98/154/150 97/155/151
f 244/156/152 30/24/24 245/157/153
f 33/29/29 139/158/154 138/159/155
f 203/160/156 34/27/27 204/161/157
f 93/162/158 40/31/31 94/163/159
f 39/50/50 187/164/160 186/165/161
f 41/35/35 142/166/162 141/167/163
f 200/168/164 42/33/33 201/169/165
f 32/25/25 99/170/166 98/154/150
f 243/171/167 31/36/36 244/156/152
f 47/40/40 145/172/168 144/173/169
f 197/174/170 48/38/38 198/175/171
f 44/34/34 143/176/172 142/166/162
f 199/177/173 43/41/41 200/168/164
f 36/28/28 140/178/174 139/158/154
f 202/179/175 35/43/43 203/160/156
f 149/180/176 58/47/47 150/181/177
f 57/46/46 193/182/178 192/183/179
f 140/178/174 41/35/35 141/167/163
f 42/33/33 202/179/175 201/169/165
f 52/42/42 144/173/169 143/176/172
f 198/175/171 51/49/49 199/177/173
f 94/163/159 60/51/51 95/184/180
f 59/52/52 186/165/161 185/185/181
f 95/184/180 62/53/53 96/186/182
f 61/121/117 185/185/181 246/187/183
f 99/170/166 64/55/55 100/188/184
f 63/54/54 243/171/167 242/189/185
f 65/58/58 92/190/186 91/191/187
f 188/192/188 66/56/56 189/193/189
f 209/194/190 72/60/60 210/195/191
f 71/62/62 133/196/192 132/197/193
f 210/195/191 15/15/15 211/140/136
f 16/13/13 132/197/193 131/142/138
f 73/65/65 219/198/194 218/199/195
f 123/200/196 74/63/63 124/201/197
f 77/68/68 102/202/198 101/203/199
f 240/204/200 78/66/66 241/205/201
f 81/71/71 221/206/202 220/207/203
f 121/208/204 82/69/69 122/209/205
f 222/210/206 88/73/73 223/211/207
f 87/75/75 120/212/208 119/213/209
f 223/211/207 19/18/18 224/144/140
f 20/16/16 119/213/209 118/146/142
f 112/214/210 154/80/78 113/215/211
f 153/82/80 230/216/212 229/217/213
f 113/215/211 156/83/81 114/218/214
f 155/124/120 229/217/213 228/219/215
f 226/220/216 160/85/83 227/221/217
f 159/123/119 116/222/218 115/223/219
f 161/88/86 138/159/155 137/224/220
f 204/161/157 162/87/85 205/225/221
f 150/181/177 164/89/87 89/226/222
f 163/97/95 192/183/179 191/227/223
f 152/79/77 231/228/224 230/216/212
f 111/229/225 151/81/79 112/214/210
f 147/230/226 170/92/90 148/231/227
f 169/232/228 195/233/229 194/234/230
f 171/96/94 233/131/127 232/235/231
f 109/130/126 172/94/92 110/236/232
f 164/89/87 90/237/233 89/226/222
f 190/238/234 163/97/95 191/227/223
f 174/98/96 91/191/187 90/237/233
f 189/193/189 173/99/97 190/238/234
f 175/102/100 136/239/235 135/240/236
f 206/241/237 176/100/98 207/242/238
f 178/101/99 137/224/220 136/239/235
f 205/225/221 177/103/101 206/241/237
f 179/105/103 135/240/236 134/243/239
f 207/242/238 180/104/102 208/244/240
f 212/141/137 182/107/105 213/245/241
f 181/108/106 130/143/139 129/246/242
f 133/196/192 179/105/103 134/243/239
f 180/104/102 209/194/190 208/244/240
f 213/245/241 184/109/107 214/247/243
f 183/248/244 129/246/242 128/249/245
f 214/247/243 23/21/21 215/148/144
f 24/19/19 128/249/245 127/150/146
f 14/11/11 240/204/200 239/136/132
f 102/202/198 13/110/108 103/138/134
f 28/23/23 218/199/195 217/152/148
f 124/201/197 27/112/110 125/153/149
f 100/188/184 77/68/68 101/203/199
f 78/66/66 242/189/185 241/205/201
f 221/206/202 85/74/74 222/210/206
f 86/72/72 121/208/204 120/212/208
f 219/198/194 81/71/71 220/207/203
f 82/69/69 123/200/196 122/209/205
f 92/190/186 37/32/32 93/162/158
f 38/30/30 188/192/188 187/164/160
f 170/92/90 149/180/176 148/231/227
f 193/182/178 169/232/228 194/234/230
f 247/120/116 147/230/226 146/250/246
f 195/233/229 248/119/115 196/251/247
f 96/186/182 29/26/26 97/155/151
f 30/24/24 246/187/183 245/157/153
f 50/39/39 146/250/246 145/172/168
f 196/251/247 49/252/248 197/174/170
f 22/17/17 226/220/216 225/145/141
f 116/222/218 21/122/118 117/147/143
f 160/85/83 228/219/215 227/221/217
f 114/218/214 159/123/119 115/223/219
f 110/236/232 165/125/121 111/229/225
f 166/90/88 232/235/231 231/228/224
f 2/1/1 3/4/4 4/2/2
f 3/4/4 5/95/93 6/5/5
f 8/6/6 9/9/9 10/7/7
f 9/9/9 2/1/1 1/3/3
f 12/10/10 13/110/108 14/11/11
f 11/12/12 8/6/6 7/8/8
f 16/13/13 17/106/104 18/14/14
f 20/16/16 21/122/118 22/17/17
f 24/19/19 25/22/22 26/20/20
f 25/22/22 27/112/110 28/23/23
f 30/24/24 31/36/36 32/25/25
f 34/27/27 35/43/43 36/28/28
f 38/30/30 39/50/50 40/31/31
f 42/33/33 43/41/41 44/34/34
f 31/36/36 45/253/249 46/37/37
f 48/38/38 49/252/248 50/39/39
f 43/41/41 51/49/49 52/42/42
f 35/43/43 53/48/48 54/44/44
f 55/45/45 56/118/114 57/46/46
f 53/48/48 42/33/33 41/35/35
f 51/49/49 48/38/38 47/40/40
f 39/50/50 59/52/52 60/51/51
f 59/52/52 61/121/117 62/53/53
f 46/37/37 45/253/249 63/54/54
f 66/56/56 67/254/250 68/57/57
f 70/59/59 71/62/62 72/60/60
f 71/62/62 16/13/13 15/15/15
f 74/63/63 75/114/112 76/64/64
f 78/66/66 79/111/109 80/67/67
f 82/69/69 83/113/111 84/70/70
f 86/72/72 87/75/75 88/73/73
f 87/75/75 20/16/16 19/18/18
f 89/255/76 90/256/76 96/257/76
f 90/256/76 91/258/76 94/259/76
f 94/259/76 91/258/76 92/260/76
f 92/260/76 93/261/76 94/259/76
f 94/259/76 95/262/76 96/257/76
f 96/257/76 97/263/76 89/255/76
f 96/257/76 90/256/76 94/259/76
f 97/263/76 98/264/76 100/265/76
f 98/264/76 99/266/76 100/265/76
f 100/265/76 101/267/76 97/263/76
f 101/267/76 102/268/76 103/269/76
f 104/270/76 105/271/76 107/272/76
f 105/271/76 106/273/76 107/272/76
f 101/267/76 103/269/76 104/270/76
f 149/274/76 150/275/76 148/276/76
f 150/275/76 89/255/76 148/276/76
f 146/277/76 147/278/76 148/276/76
f 97/263/76 101/267/76 104/270/76
f 107/272/76 108/279/76 104/270/76
f 108/279/76 109/280/76 111/281/76
f 104/270/76 108/279/76 115/282/76
f 109/280/76 110/283/76 111/281/76
f 111/281/76 112/284/76 115/282/76
f 112/284/76 113/285/76 114/286/76
f 115/282/76 112/284/76 114/286/76
f 115/282/76 116/287/76 117/288/76
f 117/288/76 118/289/76 125/77/76
f 118/289/76 119/290/76 120/291/76
f 120/291/76 121/292/76 122/78/76
f 118/289/76 120/291/76 122/78/76
f 115/282/76 117/288/76 125/77/76
f 89/255/76 97/263/76 115/282/76
f 97/263/76 104/270/76 115/282/76
f 146/277/76 148/276/76 145/293/76
f 148/276/76 89/255/76 145/293/76
f 144/294/76 145/293/76 142/295/76
f 142/295/76 143/296/76 144/294/76
f 140/297/76 141/298/76 139/299/76
f 141/298/76 142/295/76 89/255/76
f 139/299/76 137/300/76 138/301/76
f 136/302/76 137/300/76 141/298/76
f 136/302/76 126/303/76 127/304/76
f 134/305/76 135/306/76 136/302/76
f 132/307/76 133/308/76 131/309/76
f 133/308/76 134/305/76 131/309/76
f 129/310/76 130/311/76 128/312/76
f 130/311/76 131/309/76 128/312/76
f 134/305/76 136/302/76 127/304/76
f 126/303/76 136/302/76 141/298/76
f 139/299/76 141/298/76 137/300/76
f 145/293/76 89/255/76 142/295/76
f 89/255/76 125/77/76 126/303/76
f 108/279/76 111/281/76 115/282/76
f 115/282/76 125/77/76 89/255/76
f 118/289/76 122/78/76 125/77/76
f 122/78/76 123/313/76 124/76/76
f 141/298/76 89/255/76 126/303/76
f 131/309/76 134/305/76 128/312/76
f 128/312/76 134/305/76 127/304/76
f 152/79/77 153/82/80 154/80/78
f 153/82/80 155/124/120 156/83/81
f 158/84/82 159/123/119 160/85/83
f 162/87/85 34/27/27 33/29/29
f 57/46/46 163/97/95 164/89/87
f 151/81/79 165/125/121 166/90/88
f 168/91/89 169/232/228 170/92/90
f 172/94/92 6/5/5 5/95/93
f 163/97/95 173/99/97 174/98/96
f 173/99/97 66/56/56 65/58/58
f 176/100/98 177/103/101 178/101/99
f 177/103/101 162/87/85 161/88/86
f 180/104/102 176/100/98 175/102/100
f 17/106/104 181/108/106 182/107/105
f 69/61/61 180/104/102 179/105/103
f 181/108/106 183/248/244 184/109/107
f 184/109/107 183/248/244 24/19/19
f 13/110/108 80/67/67 79/111/109
f 27/112/110 74/63/63 73/65/65
f 64/55/55 63/54/54 78/66/66
f 83/113/111 86/72/72 85/74/74
f 75/114/112 82/69/69 81/71/71
f 68/57/57 67/254/250 38/30/30
f 246/314/113 185/315/113 186/316/113
f 186/316/113 187/317/113 188/318/113
f 188/318/113 189/319/113 186/316/113
f 189/319/113 190/320/113 186/316/113
f 191/116/113 192/321/113 194/322/113
f 192/321/113 193/323/113 194/322/113
f 190/320/113 191/116/113 246/314/113
f 186/316/113 190/320/113 246/314/113
f 243/324/113 244/325/113 242/326/113
f 244/325/113 245/327/113 242/326/113
f 245/327/113 246/314/113 191/116/113
f 194/322/113 195/328/113 196/329/113
f 191/116/113 194/322/113 197/330/113
f 197/330/113 194/322/113 196/329/113
f 241/331/113 245/327/113 238/332/113
f 241/331/113 242/326/113 245/327/113
f 239/333/113 240/334/113 241/331/113
f 236/335/113 237/336/113 235/337/113
f 237/336/113 238/332/113 235/337/113
f 238/332/113 239/333/113 241/331/113
f 197/330/113 198/338/113 200/339/113
f 191/116/113 197/330/113 200/339/113
f 198/338/113 199/340/113 200/339/113
f 200/339/113 201/341/113 191/116/113
f 201/341/113 202/342/113 203/343/113
f 205/344/113 203/343/113 204/345/113
f 201/341/113 203/343/113 205/344/113
f 205/344/113 206/346/113 201/341/113
f 206/346/113 207/347/113 208/348/113
f 208/348/113 209/349/113 211/350/113
f 209/349/113 210/351/113 211/350/113
f 211/350/113 212/352/113 214/353/113
f 212/352/113 213/354/113 214/353/113
f 206/346/113 208/348/113 215/355/113
f 216/356/113 206/346/113 215/355/113
f 216/356/113 201/341/113 206/346/113
f 245/327/113 191/116/113 227/115/113
f 238/332/113 245/327/113 227/115/113
f 201/341/113 216/356/113 191/116/113
f 208/348/113 211/350/113 214/353/113
f 214/353/113 215/355/113 208/348/113
f 216/356/113 217/117/113 191/116/113
f 217/117/113 218/357/113 220/358/113
f 218/357/113 219/359/113 220/358/113
f 220/358/113 221/360/113 222/361/113
f 222/361/113 223/362/113 224/363/113
f 224/363/113 225/364/113 217/117/113
f 225/364/113 226/365/113 227/115/113
f 227/115/113 228/366/113 230/367/113
f 228/366/113 229/368/113 230/367/113
f 225/364/113 227/115/113 217/117/113
f 220/358/113 222/361/113 224/363/113
f 217/117/113 220/358/113 224/363/113
f 235/337/113 238/332/113 234/369/113
f 234/369/113 227/115/113 231/370/113
f 233/371/113 234/369/113 231/370/113
f 231/370/113 232/372/113 233/371/113
f 230/367/113 231/370/113 227/115/113
f 234/369/113 238/332/113 227/115/113
f 170/92/90 169/232/228 56/118/114
f 248/119/115 168/91/89 167/93/91
f 61/121/117 30/24/24 29/26/26
f 50/39/39 49/252/248 248/119/115
f 21/122/118 158/84/82 157/86/84
f 159/123/119 156/83/81 155/124/120
f 171/96/94 166/90/88 165/125/121
f 107/126/122 1/3/3 4/2/2
f 3/4/4 2/1/1 235/128/124
f 4/2/2 6/5/5 109/130/126
f 233/131/127 5/95/93 3/4/4
f 7/8/8 10/7/7 106/132/128
f 236/134/130 9/9/9 8/6/6
f 106/132/128 10/7/7 1/3/3
f 2/1/1 9/9/9 236/134/130
f 11/12/12 14/11/11 239/136/132
f 103/138/134 13/110/108 12/10/10
f 12/10/10 7/8/8 105/133/129
f 237/135/131 8/6/6 11/12/12
f 211/140/136 15/15/15 18/14/14
f 17/106/104 16/13/13 131/142/138
f 224/144/140 19/18/18 22/17/17
f 21/122/118 20/16/16 118/146/142
f 215/148/144 23/21/21 26/20/20
f 25/22/22 24/19/19 127/150/146
f 216/149/145 26/20/20 28/23/23
f 27/112/110 25/22/22 126/151/147
f 29/26/26 32/25/25 98/154/150
f 244/156/152 31/36/36 30/24/24
f 33/29/29 36/28/28 139/158/154
f 203/160/156 35/43/43 34/27/27
f 93/162/158 37/32/32 40/31/31
f 39/50/50 38/30/30 187/164/160
f 41/35/35 44/34/34 142/166/162
f 200/168/164 43/41/41 42/33/33
f 32/25/25 46/37/37 99/170/166
f 243/171/167 45/253/249 31/36/36
f 47/40/40 50/39/39 145/172/168
f 197/174/170 49/252/248 48/38/38
f 44/34/34 52/42/42 143/176/172
f 199/177/173 51/49/49 43/41/41
f 36/28/28 54/44/44 140/178/174
f 202/179/175 53/48/48 35/43/43
f 149/180/176 55/45/45 58/47/47
f 57/46/46 56/118/114 193/182/178
f 140/178/174 54/44/44 41/35/35
f 42/33/33 53/48/48 202/179/175
f 52/42/42 47/40/40 144/173/169
f 198/175/171 48/38/38 51/49/49
f 94/163/159 40/31/31 60/51/51
f 59/52/52 39/50/50 186/165/161
f 95/184/180 60/51/51 62/53/53
f 61/121/117 59/52/52 185/185/181
f 99/170/166 46/37/37 64/55/55
f 63/54/54 45/253/249 243/171/167
f 65/58/58 68/57/57 92/190/186
f 188/192/188 67/254/250 66/56/56
f 209/194/190 69/61/61 72/60/60
f 71/62/62 70/59/59 133/196/192
f 210/195/191 72/60/60 15/15/15
f 16/13/13 71/62/62 132/197/193
f 73/65/65 76/64/64 219/198/194
f 123/200/196 75/114/112 74/63/63
f 77/68/68 80/67/67 102/202/198
f 240/204/200 79/111/109 78/66/66
f 81/71/71 84/70/70 221/206/202
f 121/208/204 83/113/111 82/69/69
f 222/210/206 85/74/74 88/73/73
f 87/75/75 86/72/72 120/212/208
f 223/211/207 88/73/73 19/18/18
f 20/16/16 87/75/75 119/213/209
f 112/214/210 151/81/79 154/80/78
f 153/82/80 152/79/77 230/216/212
f 113/215/211 154/80/78 156/83/81
f 155/124/120 153/82/80 229/217/213
f 226/220/216 157/86/84 160/85/83
f 159/123/119 158/84/82 116/222/218
f 161/88/86 33/29/29 138/159/155
f 204/161/157 34/27/27 162/87/85
f 150/181/177 58/47/47 164/89/87
f 163/97/95 57/46/46 192/183/179
f 152/79/77 166/90/88 231/228/224
f 111/229/225 165/125/121 151/81/79
f 147/230/226 167/93/91 170/92/90
f 169/232/228 168/91/89 195/233/229
f 171/96/94 5/95/93 233/131/127
f 109/130/126 6/5/5 172/94/92
f 164/89/87 174/98/96 90/237/233
f 190/238/234 173/99/97 163/97/95
f 174/98/96 65/58/58 91/191/187
f 189/193/189 66/56/56 173/99/97
f 175/102/100 178/101/99 136/239/235
f 206/241/237 177/103/101 176/100/98
f 178/101/99 161/88/86 137/224/220
f 205/225/221 162/87/85 177/103/101
f 179/105/103 175/102/100 135/240/236
f 207/242/238 176/100/98 180/104/102
f 212/141/137 18/14/14 182/107/105
f 181/108/106 17/106/104 130/143/139
f 133/196/192 70/59/59 179/105/103
f 180/104/102 69/61/61 209/194/190
f 213/245/241 182/107/105 184/109/107
f 183/248/244 181/108/106 129/246/242
f 214/247/243 184/109/107 23/21/21
f 24/19/19 183/248/244 128/249/245
f 14/11/11 79/111/109 240/204/200
f 102/202/198 80/67/67 13/110/108
f 28/23/23 73/65/65 218/199/195
f 124/201/197 74/63/63 27/112/110
f 100/188/184 64/55/55 77/68/68
f 78/66/66 63/54/54 242/189/185
f 221/206/202 84/70/70 85/74/74
f 86/72/72 83/113/111 121/208/204
f 219/198/194 76/64/64 81/71/71
f 82/69/69 75/114/112 123/200/196
f 92/190/186 68/57/57 37/32/32
f 38/30/30 67/254/250 188/192/188
f 170/92/90 55/45/45 149/180/176
f 193/182/178 56/118/114 169/232/228
f 247/120/116 167/93/91 147/230/226
f 195/233/229 168/91/89 248/119/115
f 96/186/182 62/53/53 29/26/26
f 30/24/24 61/121/117 246/187/183
f 50/39/39 247/120/116 146/250/246
f 196/251/247 248/119/115 49/252/248
f 22/17/17 157/86/84 226/220/216
f 116/222/218 158/84/82 21/122/118
f 160/85/83 155/124/120 228/219/215
f 114/218/214 156/83/81 159/123/119
f 110/236/232 172/94/92 165/125/121
f 166/90/88 171/96/94 232/235/231
