# https://github.com/mikedh/trimesh
v -0.00312688 0.26895827 -0.12505825
v -0.00159675 0.27099204 -0.12505825
v -0.00286435 0.26895827 -0.12505825
v -0.00433570 0.26895827 -0.11961059
v -0.00786616 0.30496359 -0.07500462
v -0.00337765 0.30496359 -0.08342256
v -0.00153797 0.27102730 -0.12505825
v 0.00664557 0.26897237 -0.12505825
v 0.00666516 0.26895827 -0.12499988
v -0.00591872 0.26895827 -0.11103052
v -0.00826583 0.27500319 -0.08500497
v -0.00811498 0.29499912 -0.07500462
v -0.00625766 0.30496359 -0.06500427
v -0.00767220 0.26895827 -0.10103666
v 0.00499985 0.30496359 -0.08402569
v 0.00282710 0.27102730 -0.12505825
v 0.00883006 0.26895827 -0.12064824
v 0.01030141 0.30496359 -0.08060794
v -0.00608134 0.26895827 -0.08446021
v -0.00691595 0.28500292 -0.07500462
v -0.00790730 0.26895827 -0.09104279
v -0.00353831 0.29528111 -0.06450491
v -0.00176916 0.30496359 -0.05880432
v 0.00942566 0.26895827 -0.11883235
v 0.01144950 0.30496359 -0.07500462
v -0.00399872 0.26895827 -0.07993346
v -0.00362059 0.27527109 -0.07472575
v -0.00248622 0.28500292 -0.06763731
v -0.00067005 0.29880232 -0.05960201
v 0.00318172 0.30496359 -0.05880432
v 0.01055415 0.26895827 -0.11282695
v 0.01114583 0.30496359 -0.06656075
v 0.01153766 0.29499912 -0.07500462
v 0.01174926 0.27500319 -0.08500497
v 0.01108313 0.26895827 -0.10499918
v -0.00258810 0.26895827 -0.07704102
v -0.00096001 0.27878526 -0.06934295
v 0.00119706 0.29880232 -0.05960201
v 0.00817961 0.30496359 -0.06156057
v 0.01066582 0.29499912 -0.06848040
v 0.01101064 0.28538713 -0.07493977
v 0.01062468 0.27500319 -0.07843535
v 0.01106942 0.26895827 -0.08500497
v 0.01126142 0.26895827 -0.09446055
v -0.00029585 0.26895827 -0.07671026
v 0.00171036 0.27878526 -0.06934295
v 0.00502532 0.28538713 -0.06785133
v 0.00471772 0.29528111 -0.06329215
v 0.01024460 0.28897533 -0.06957642
v 0.01020541 0.26943409 -0.07968701
v 0.01034452 0.26895827 -0.08079600
v 0.00500572 0.26895827 -0.07709289
v 0.00837553 0.28231353 -0.07156741
v 0.00915529 0.26895827 -0.07937572
v 0.00994288 0.26895827 -0.07995292
f 1 2 7
f 1 7 16
f 1 16 8
f 1 8 3
f 1 3 9
f 1 9 17
f 1 17 24
f 1 24 31
f 1 31 35
f 1 35 44
f 1 44 43
f 1 43 51
f 1 51 55
f 1 55 54
f 1 54 52
f 1 52 45
f 1 45 36
f 1 36 26
f 1 26 19
f 1 19 21
f 1 21 14
f 1 14 10
f 1 10 4
f 1 4 5
f 1 5 6
f 1 6 2
f 2 6 7
f 3 8 9
f 4 10 5
f 5 11 12
f 5 12 13
f 5 13 23
f 5 23 30
f 5 30 39
f 5 39 32
f 5 32 25
f 5 25 18
f 5 18 15
f 5 15 6
f 5 10 14
f 5 14 11
f 6 15 7
f 7 15 16
f 8 17 9
f 8 16 15
f 8 15 18
f 8 18 17
f 11 19 20
f 11 20 12
f 11 14 21
f 11 21 19
f 12 20 13
f 13 22 23
f 13 20 22
f 17 18 24
f 18 25 24
f 19 26 20
f 20 26 27
f 20 27 28
f 20 28 22
f 22 28 29
f 22 29 23
f 23 29 38
f 23 38 30
f 24 25 31
f 25 32 33
f 25 33 34
f 25 34 35
f 25 35 31
f 26 36 27
f 27 36 28
f 28 36 37
f 28 37 29
f 29 37 46
f 29 46 38
f 30 38 39
f 32 39 40
f 32 40 41
f 32 41 34
f 32 34 33
f 34 41 42
f 34 42 43
f 34 43 44
f 34 44 35
f 36 45 37
f 37 45 46
f 38 47 48
f 38 48 39
f 38 46 47
f 39 48 49
f 39 49 40
f 40 49 41
f 41 49 42
f 42 50 51
f 42 51 43
f 42 49 50
f 45 52 46
f 46 53 47
f 46 52 54
f 46 54 50
f 46 50 53
f 47 53 49
f 47 49 48
f 49 53 50
f 50 54 55
f 50 55 51

