# https://github.com/mikedh/trimesh
v -0.00507088 0.40504783 0.19216153
v -0.00473297 0.40504783 0.19224577
v -0.01122986 0.40504783 0.19624116
v -0.00499879 0.41546622 0.09883553
v -0.00251853 0.41547823 0.09883553
v 0.00310656 0.40504783 0.19476095
v -0.01191920 0.40504783 0.19669846
v -0.01068920 0.41845232 0.09883553
v -0.01448507 0.40504783 0.20499009
v 0.00211986 0.41719660 0.09883553
v 0.00790940 0.40504783 0.20494196
v 0.00329128 0.40504783 0.19510993
v -0.01141909 0.42075351 0.09883553
v -0.01305683 0.40504783 0.21500263
v -0.01461573 0.41500357 0.20499009
v -0.01467655 0.43883249 0.09883553
v -0.01338123 0.42838404 0.09883553
v 0.00539084 0.42524773 0.09883553
v 0.00830137 0.41500357 0.20499009
v 0.00628067 0.40504783 0.21494246
v 0.00772242 0.43500519 0.09883553
v 0.00833742 0.44499698 0.10500912
v -0.01049096 0.40504783 0.22045417
v -0.01017558 0.41092393 0.22015332
v -0.01186739 0.41455296 0.21552011
v -0.01345557 0.42500138 0.20499009
v -0.01396243 0.43500519 0.19498959
v -0.01412463 0.44499698 0.18498909
v -0.01459996 0.42500138 0.19498959
v -0.01465853 0.44499698 0.10500912
v -0.01389034 0.44499698 0.09883553
v 0.00822027 0.44499698 0.17498858
v 0.00763456 0.44499698 0.18498909
v 0.00745885 0.43500519 0.19498959
v 0.00694297 0.42500138 0.20499009
v 0.00508446 0.41500357 0.21499060
v 0.00187657 0.40504783 0.22128454
v 0.00740929 0.44499698 0.09883553
v 0.00632572 0.45499480 0.11500963
v 0.00754220 0.45499480 0.12501013
v 0.00808962 0.45499480 0.13501063
v -0.00499654 0.40504783 0.22177795
v -0.00107677 0.42030889 0.22020146
v -0.00774037 0.41758713 0.21921465
v -0.01100459 0.42500138 0.21196999
v -0.00464511 0.41455296 0.22064672
v -0.01181332 0.44449830 0.19472484
v -0.01454815 0.44499698 0.17498858
v -0.01087393 0.45099327 0.19121082
v -0.01155651 0.45201468 0.18498909
v -0.01388134 0.45499480 0.15501164
v -0.01448732 0.45499480 0.14501114
v -0.01448507 0.45499480 0.13501063
v -0.01412463 0.45499480 0.12501013
v -0.01312441 0.45499480 0.11500963
v -0.01284057 0.44859597 0.09883553
v 0.00806258 0.45499480 0.14501114
v 0.00726061 0.45499480 0.15501164
v 0.00562512 0.45499480 0.16498809
v 0.00321019 0.45327041 0.18498909
v 0.00186981 0.45168424 0.19202915
v 0.00372156 0.44505107 0.19521824
v 0.00227981 0.42418426 0.21450923
v 0.00309079 0.43462667 0.20485772
v 0.00031317 0.42030889 0.22020146
v 0.00103179 0.41500357 0.22068283
v 0.00309755 0.45423174 0.09883553
v 0.00375084 0.45586601 0.10450368
v 0.00193063 0.46147776 0.11500963
v 0.00295337 0.46269745 0.12501013
v 0.00357513 0.46388108 0.13501063
v -0.00499879 0.44693768 0.19743255
v -0.00499879 0.44193876 0.20158440
v -0.00499879 0.43585837 0.20659065
v -0.00499879 0.43086547 0.21069436
v -0.01007421 0.43010843 0.21008061
v -0.01054728 0.44083324 0.20066978
v -0.01121635 0.43406188 0.20440042
v -0.00499879 0.45200866 0.19242629
v -0.00499879 0.45528921 0.18498909
v -0.00809180 0.45937485 0.16864651
v -0.01054278 0.46055248 0.16197951
v -0.01120508 0.46139964 0.15501164
v -0.01177953 0.46248716 0.14501114
v -0.01182233 0.46254122 0.13501063
v -0.01139882 0.46162796 0.12501013
v -0.01056305 0.46058851 0.11500963
v -0.01177728 0.45529521 0.10598390
v -0.01132222 0.45295799 0.09883553
v 0.00351431 0.46382701 0.14501114
v 0.00274612 0.46249315 0.15501164
v 0.00143953 0.46108723 0.16498809
v 0.00041229 0.46026409 0.17098117
v 0.00149360 0.44175252 0.20143998
v 0.00097998 0.43104571 0.21085081
v -0.00097315 0.45589003 0.09883553
v 0.00086959 0.46058252 0.10750023
v -0.00499879 0.46642259 0.13501063
v -0.00142820 0.46026409 0.17098117
v -0.00485461 0.46120137 0.16519266
v -0.00499879 0.46389911 0.15501164
v -0.00499879 0.46631444 0.14501114
v -0.01000888 0.46000573 0.10996725
v -0.00499879 0.45679128 0.09883553
v -0.00499879 0.45895427 0.10310771
v -0.00499879 0.46044433 0.10810193
v -0.00499879 0.46207258 0.11500963
v -0.00499879 0.46433169 0.12501013
f 1 2 6
f 1 6 12
f 1 12 11
f 1 11 20
f 1 20 37
f 1 37 42
f 1 42 23
f 1 23 14
f 1 14 9
f 1 9 7
f 1 7 3
f 1 3 4
f 1 4 5
f 1 5 2
f 2 5 6
f 3 7 4
f 4 8 13
f 4 13 17
f 4 17 16
f 4 16 31
f 4 31 56
f 4 56 89
f 4 89 104
f 4 104 96
f 4 96 67
f 4 67 38
f 4 38 21
f 4 21 18
f 4 18 10
f 4 10 5
f 4 7 9
f 4 9 8
f 5 10 11
f 5 11 12
f 5 12 6
f 8 9 13
f 9 14 15
f 9 15 16
f 9 16 17
f 9 17 13
f 10 18 11
f 11 19 20
f 11 18 21
f 11 21 22
f 11 22 19
f 14 23 24
f 14 24 25
f 14 25 15
f 15 25 26
f 15 26 27
f 15 27 28
f 15 28 29
f 15 29 30
f 15 30 16
f 16 30 31
f 19 32 33
f 19 33 34
f 19 34 35
f 19 35 36
f 19 36 20
f 19 22 32
f 20 36 37
f 21 38 22
f 22 38 39
f 22 39 40
f 22 40 41
f 22 41 32
f 23 42 24
f 24 43 44
f 24 44 45
f 24 45 25
f 24 42 46
f 24 46 43
f 25 45 26
f 26 45 47
f 26 47 27
f 27 47 28
f 28 48 29
f 28 47 49
f 28 49 50
f 28 50 51
f 28 51 52
f 28 52 48
f 29 48 30
f 30 52 53
f 30 53 54
f 30 54 55
f 30 55 31
f 30 48 52
f 31 55 56
f 32 41 57
f 32 57 33
f 33 57 58
f 33 58 59
f 33 59 60
f 33 60 61
f 33 61 62
f 33 62 34
f 34 62 35
f 35 63 36
f 35 62 64
f 35 64 63
f 36 63 65
f 36 65 66
f 36 66 37
f 37 66 42
f 38 67 68
f 38 68 39
f 39 69 70
f 39 70 71
f 39 71 40
f 39 68 69
f 40 71 41
f 41 71 57
f 42 66 65
f 42 65 43
f 42 43 46
f 43 72 73
f 43 73 74
f 43 74 75
f 43 75 76
f 43 76 44
f 43 65 72
f 44 76 45
f 45 76 77
f 45 77 78
f 45 78 47
f 47 78 77
f 47 77 49
f 49 79 80
f 49 80 81
f 49 81 82
f 49 82 50
f 49 77 72
f 49 72 79
f 50 82 83
f 50 83 51
f 51 83 84
f 51 84 52
f 52 84 85
f 52 85 53
f 53 85 54
f 54 85 86
f 54 86 55
f 55 86 87
f 55 87 88
f 55 88 56
f 56 88 89
f 57 71 90
f 57 90 58
f 58 90 91
f 58 91 59
f 59 91 60
f 60 91 92
f 60 92 93
f 60 93 61
f 61 93 80
f 61 80 79
f 61 79 72
f 61 72 94
f 61 94 62
f 62 94 64
f 63 64 94
f 63 94 95
f 63 95 65
f 65 95 72
f 67 96 97
f 67 97 68
f 68 97 69
f 69 98 70
f 69 97 98
f 70 98 71
f 71 98 90
f 72 77 76
f 72 76 73
f 72 95 94
f 73 76 74
f 74 76 75
f 80 99 100
f 80 100 81
f 80 93 99
f 81 100 82
f 82 101 102
f 82 102 83
f 82 100 101
f 83 102 84
f 84 98 85
f 84 102 98
f 85 98 86
f 86 98 87
f 87 98 103
f 87 103 88
f 88 103 89
f 89 103 104
f 90 98 102
f 90 102 91
f 91 102 92
f 92 102 93
f 93 102 99
f 96 104 97
f 97 104 105
f 97 105 106
f 97 106 107
f 97 107 108
f 97 108 98
f 98 108 103
f 99 102 101
f 99 101 100
f 103 106 105
f 103 105 104
f 103 108 107
f 103 107 106

