# https://github.com/mikedh/trimesh
v -0.00499893 0.37498733 0.22446428
v -0.00499893 0.38499281 0.22358868
v -0.01049059 0.40503311 0.22045855
v -0.01090871 0.39499828 0.22090669
v -0.01124365 0.38499281 0.22131348
v -0.01148867 0.37498733 0.22168578
v -0.01136503 0.36499655 0.22153410
v -0.00499893 0.36499655 0.22414714
v 0.00293622 0.36499655 0.22260964
v 0.00307559 0.37498733 0.22277512
v 0.00234052 0.39499828 0.22178920
v 0.00186171 0.40498906 0.22131348
v -0.00499893 0.39499828 0.22269928
v -0.00499668 0.40503311 0.22177541
v -0.01305547 0.40503311 0.21499807
v -0.01306221 0.40498906 0.21499807
v -0.00499893 0.40498906 0.22178230
v -0.01359047 0.39499828 0.21499807
v -0.01399959 0.38499281 0.21499807
v -0.01429407 0.37498733 0.21499807
v -0.01411199 0.36499655 0.21499807
v -0.01070864 0.35499108 0.22073433
v -0.01126388 0.31501329 0.21146116
v -0.01018488 0.34914353 0.22016898
v -0.00499893 0.35499108 0.22241661
v -0.00070990 0.33932906 0.22012761
v 0.00020725 0.33932906 0.22012761
v 0.00098727 0.34498560 0.22067918
v 0.00214495 0.35499108 0.22167888
v 0.00281258 0.31501329 0.21257119
v 0.00347122 0.32500407 0.21366742
v 0.00652165 0.35499108 0.21499807
v 0.00752197 0.36499655 0.21499807
v 0.00773552 0.37498733 0.21499807
v 0.00735563 0.38499281 0.21499807
v 0.00687457 0.39499828 0.21499807
v 0.00626988 0.40498906 0.21499807
v 0.00273166 0.38499281 0.22227181
v 0.00187520 0.40503311 0.22128589
v -0.01448514 0.40503311 0.20499408
v -0.01453460 0.35499108 0.20499408
v -0.01453685 0.34498560 0.20499408
v -0.01453460 0.33499482 0.20499408
v -0.01444918 0.32500407 0.20499408
v -0.01391867 0.31501329 0.20499408
v -0.01061873 0.30821073 0.21065450
v -0.00442346 0.34548515 0.22064470
v -0.00499893 0.31501329 0.21403973
v 0.00015330 0.29973328 0.21009605
v 0.00130873 0.30500782 0.21106128
v 0.00252710 0.28501156 0.20233278
v 0.00544714 0.30500782 0.20499408
v 0.00733315 0.31501329 0.20499408
v 0.00805473 0.32500407 0.20499408
v 0.00791761 0.40498906 0.20499408
v 0.00820983 0.33499482 0.20499408
v 0.00820983 0.35499108 0.20499408
v 0.00628112 0.40503311 0.21494980
v -0.01192027 0.40503311 0.19670683
v -0.01361745 0.25495106 0.16495053
v -0.01362869 0.25495106 0.16500568
v -0.01465599 0.25495106 0.17495452
v -0.01459754 0.30500782 0.19499698
v -0.01448739 0.29500234 0.19499698
v -0.01428508 0.26500061 0.18500677
v -0.01359047 0.28501156 0.19499698
v -0.00430882 0.30493435 0.21124053
v -0.01100761 0.28501156 0.20121586
v -0.01028378 0.27925217 0.20027821
v -0.00051883 0.29973328 0.21009605
v -0.00499893 0.26500061 0.19590706
v 0.00122106 0.27744502 0.20092629
v 0.00330937 0.26500061 0.19360428
v 0.00695999 0.28501156 0.19499698
v 0.00780746 0.26500061 0.18500677
v 0.00807046 0.29500234 0.19499698
v 0.00826828 0.30500782 0.19499698
v 0.00791086 0.40503311 0.20494582
v 0.00830874 0.25500983 0.17500278
v -0.00507086 0.40503311 0.19216332
v -0.01116047 0.25495106 0.15766989
v -0.01464475 0.25495106 0.17500968
v -0.01459754 0.27500609 0.18500677
v -0.01229567 0.25495106 0.18522739
v -0.01089972 0.25819808 0.19105330
v -0.01162804 0.26500061 0.19230121
v -0.00499893 0.27751848 0.20090561
v -0.00499893 0.25640562 0.19212195
v 0.00191566 0.25700802 0.19177723
v 0.00369602 0.25495106 0.18744054
v 0.00458169 0.25495106 0.18579964
v 0.00829750 0.25495106 0.17500278
v 0.00827502 0.27500609 0.18500677
v 0.00329139 0.40503311 0.19510730
v 0.00707913 0.25495106 0.16500568
v 0.00707239 0.25500983 0.16500568
v -0.00473143 0.40503311 0.19225295
v 0.00240121 0.25495106 0.15570495
v -0.00513605 0.25495106 0.15402956
v -0.00568230 0.25495106 0.15418124
v -0.01071988 0.25495106 0.15738721
v -0.01227319 0.25495106 0.18528946
v -0.00499893 0.25495106 0.19117740
v -0.00061999 0.25495106 0.19070168
v 0.00310481 0.40503311 0.19476946
v 0.00674419 0.25495106 0.16430934
f 1 2 3
f 1 3 4
f 1 4 5
f 1 5 6
f 1 6 7
f 1 7 8
f 1 8 9
f 1 9 10
f 1 10 11
f 1 11 12
f 1 12 2
f 2 12 13
f 2 13 3
f 3 14 39
f 3 39 58
f 3 58 78
f 3 78 94
f 3 94 105
f 3 105 97
f 3 97 80
f 3 80 59
f 3 59 40
f 3 40 15
f 3 15 16
f 3 16 4
f 3 13 17
f 3 17 14
f 4 16 18
f 4 18 5
f 5 18 19
f 5 19 6
f 6 19 20
f 6 20 21
f 6 21 7
f 7 22 8
f 7 21 23
f 7 23 22
f 8 22 24
f 8 24 25
f 8 25 26
f 8 26 27
f 8 27 28
f 8 28 29
f 8 29 9
f 9 29 30
f 9 30 31
f 9 31 32
f 9 32 33
f 9 33 10
f 10 34 35
f 10 35 36
f 10 36 37
f 10 37 38
f 10 38 11
f 10 33 34
f 11 37 12
f 11 38 37
f 12 17 13
f 12 37 39
f 12 39 14
f 12 14 17
f 15 40 16
f 16 40 18
f 18 40 19
f 19 40 20
f 20 40 41
f 20 41 42
f 20 42 43
f 20 43 44
f 20 44 21
f 21 44 45
f 21 45 23
f 22 23 24
f 23 45 46
f 23 46 24
f 24 47 25
f 24 46 48
f 24 48 47
f 25 47 26
f 26 47 48
f 26 48 27
f 27 48 49
f 27 49 50
f 27 50 30
f 27 30 28
f 28 30 29
f 30 50 51
f 30 51 52
f 30 52 53
f 30 53 31
f 31 53 32
f 32 53 33
f 33 53 54
f 33 54 34
f 34 55 35
f 34 54 56
f 34 56 57
f 34 57 55
f 35 55 36
f 36 55 58
f 36 58 37
f 37 58 39
f 40 59 60
f 40 60 61
f 40 61 62
f 40 62 63
f 40 63 41
f 41 63 42
f 42 63 43
f 43 63 44
f 44 63 64
f 44 64 45
f 45 64 65
f 45 65 66
f 45 66 46
f 46 67 48
f 46 66 68
f 46 68 69
f 46 69 67
f 48 67 70
f 48 70 49
f 49 70 71
f 49 71 72
f 49 72 50
f 50 72 51
f 51 72 73
f 51 73 52
f 52 73 74
f 52 74 53
f 53 74 75
f 53 75 76
f 53 76 54
f 54 76 77
f 54 77 56
f 55 78 58
f 55 57 79
f 55 79 78
f 56 77 57
f 57 77 79
f 59 80 81
f 59 81 60
f 60 81 101
f 60 101 100
f 60 100 99
f 60 99 98
f 60 98 106
f 60 106 95
f 60 95 92
f 60 92 91
f 60 91 90
f 60 90 104
f 60 104 103
f 60 103 102
f 60 102 84
f 60 84 82
f 60 82 62
f 60 62 61
f 62 82 65
f 62 65 83
f 62 83 63
f 63 83 64
f 64 83 65
f 65 82 84
f 65 84 85
f 65 85 86
f 65 86 66
f 66 86 68
f 67 69 87
f 67 87 70
f 68 86 85
f 68 85 69
f 69 85 71
f 69 71 87
f 70 87 71
f 71 85 88
f 71 88 72
f 72 88 89
f 72 89 73
f 73 89 90
f 73 90 91
f 73 91 75
f 73 75 74
f 75 91 92
f 75 92 79
f 75 79 93
f 75 93 76
f 76 93 77
f 77 93 79
f 78 79 95
f 78 95 96
f 78 96 94
f 79 92 95
f 80 97 98
f 80 98 99
f 80 99 100
f 80 100 101
f 80 101 81
f 84 102 85
f 85 102 103
f 85 103 88
f 88 103 89
f 89 103 104
f 89 104 90
f 94 96 106
f 94 106 98
f 94 98 105
f 95 106 96
f 97 105 98

