# https://github.com/mikedh/trimesh
v -0.00499895 -0.36498678 -0.00653232
v -0.01258876 -0.24503338 -0.00771065
v -0.01261662 -0.28496090 -0.00769332
v -0.01267234 -0.36498678 -0.00765866
v -0.01266305 -0.37497932 -0.00767599
v -0.00499895 -0.37497932 -0.00655831
v 0.00106486 -0.37497932 -0.00888898
v 0.00106486 -0.36498678 -0.00888032
v 0.00105557 -0.35499421 -0.00888898
v 0.00078628 -0.06512466 -0.00916624
v -0.00499895 -0.06512466 -0.00700019
v -0.00509181 -0.06512466 -0.00700885
v -0.01240614 -0.06512466 -0.00784061
v -0.01241852 -0.07503182 -0.00783195
v -0.01248971 -0.13502985 -0.00777996
v -0.01253614 -0.17500009 -0.00774531
v -0.01254543 -0.18503535 -0.00773664
v -0.01605866 -0.06512466 -0.01500591
v -0.01615771 -0.24503338 -0.01500591
v -0.01617938 -0.28496090 -0.01500591
v -0.01620105 -0.32497382 -0.01500591
v -0.01621652 -0.35499421 -0.01500591
v -0.01621962 -0.36498678 -0.01500591
v -0.01621033 -0.37497932 -0.01500591
v -0.01609580 -0.38497186 -0.01500591
v -0.01254852 -0.38497186 -0.00781462
v -0.01232875 -0.39496443 -0.00805722
v -0.00499895 -0.38497186 -0.00683556
v 0.00095343 -0.38497186 -0.00901895
v 0.00316661 -0.38497186 -0.01500591
v 0.00328114 -0.37497932 -0.01500591
v 0.01128882 -0.06512466 -0.03645847
v 0.00306756 -0.06512466 -0.01492793
v -0.01688512 -0.06512466 -0.02500439
v -0.01654772 -0.40499967 -0.02500439
v -0.01589770 -0.39496443 -0.01500591
v -0.01565007 -0.40499967 -0.01500591
v -0.01205946 -0.40499967 -0.00833447
v -0.00499895 -0.39496443 -0.00731210
v 0.00024459 -0.41238737 -0.00976406
v 0.00049841 -0.40499967 -0.00951280
v 0.00073985 -0.39496443 -0.00926154
v 0.00271778 -0.40499967 -0.01500591
v 0.00295922 -0.39496443 -0.01500591
v 0.00433356 -0.40499967 -0.02500439
v 0.01161074 -0.06512466 -0.04127576
v -0.01275282 -0.06512466 -0.07499683
v -0.01291687 -0.38497186 -0.05499985
v -0.01276210 -0.40499967 -0.05499985
v -0.01258876 -0.41499224 -0.05499985
v -0.01511148 -0.41499224 -0.03500288
v -0.01632486 -0.41499224 -0.02500439
v -0.01229470 -0.13502985 -0.07499683
v -0.01576769 -0.42498481 -0.02500439
v -0.01513315 -0.43497735 -0.02500439
v -0.01439955 -0.44496989 -0.02500439
v -0.01485456 -0.41499224 -0.01500591
v -0.01140015 -0.41499224 -0.00888032
v -0.00499895 -0.40499967 -0.00784061
v -0.00050449 -0.41904905 -0.01017995
v 0.00133106 -0.44496989 -0.01749253
v 0.00167155 -0.43497735 -0.01645283
v 0.00182941 -0.41541928 -0.01410483
v 0.00294684 -0.44496989 -0.02500439
v 0.00335233 -0.43497735 -0.02500439
v 0.00411379 -0.41499224 -0.02500439
v 0.00342352 -0.48498285 -0.04500137
v 0.01473705 -0.06512466 -0.09504579
v -0.01117418 -0.06512466 -0.08362637
v -0.01214303 -0.30498871 -0.06499834
v -0.01198826 -0.31498128 -0.06499834
v -0.01082441 -0.30498871 -0.07100263
v -0.01220803 -0.14502241 -0.07499683
v -0.01069440 -0.31498128 -0.07079469
v -0.01098227 -0.41499224 -0.06161064
v -0.01080584 -0.42498481 -0.06122942
v -0.01006605 -0.46123984 -0.06007708
v -0.01064797 -0.48498285 -0.05200204
v -0.01182111 -0.48498285 -0.04500137
v -0.01335332 -0.46499771 -0.03500288
v -0.01271567 -0.47499031 -0.03500288
v -0.01343689 -0.45496249 -0.02500439
v -0.01232566 -0.44496989 -0.01654813
v -0.01229470 -0.43420869 -0.01432144
v -0.01005986 -0.43036541 -0.00995468
v -0.00960174 -0.43036541 -0.00995468
v -0.00757738 -0.42498481 -0.00959945
v -0.00429940 -0.41541928 -0.00896696
v -0.00257838 -0.42498481 -0.01067381
v -0.00499895 -0.44496989 -0.01403552
v 0.00021054 -0.46119714 -0.01971057
v 0.00070889 -0.45496249 -0.01887014
v 0.00213585 -0.45496249 -0.02500439
v 0.00135273 -0.48485473 -0.03472563
v 0.00215443 -0.49535972 -0.04450751
v 0.00130630 -0.50133818 -0.05165548
v 0.00202752 -0.49497539 -0.05305041
v 0.00344519 -0.46499771 -0.05499985
v 0.00385378 -0.45496249 -0.05499985
v 0.01065118 -0.20574641 -0.09504579
v 0.01105048 -0.19502789 -0.09504579
v 0.01133526 -0.18503535 -0.09504579
v 0.01247125 -0.14502241 -0.09504579
v -0.00038686 -0.06512466 -0.09504579
v -0.00738547 -0.06512466 -0.09499380
v -0.00737928 -0.06521007 -0.09504579
v -0.01087393 -0.14502241 -0.08143433
v -0.01207493 -0.15501498 -0.07499683
v -0.01076869 -0.15501498 -0.08127838
v -0.01052416 -0.32497382 -0.07056076
v -0.00526515 -0.19507059 -0.09504579
v -0.01031058 -0.33496639 -0.07031816
v -0.00225336 -0.22521909 -0.09504579
v -0.00953984 -0.46794426 -0.05944459
v -0.01018057 -0.50022793 -0.05034718
v -0.01043130 -0.49497539 -0.05096234
v -0.00490918 -0.20506316 -0.09504579
v -0.00387224 -0.21505570 -0.09504579
v -0.01076869 -0.49484730 -0.04568584
v -0.01070679 -0.49138832 -0.03845990
v -0.01126395 -0.48472661 -0.03507219
v -0.01138776 -0.47499031 -0.02697983
v -0.01193564 -0.46576637 -0.02408599
v -0.01144967 -0.45496249 -0.01813368
v -0.01060154 -0.46299067 -0.01931201
v -0.00576040 -0.43420869 -0.01147958
v -0.00499895 -0.46316150 -0.01926870
v -0.00499895 -0.46815777 -0.02093222
v 0.00039626 -0.48139578 -0.02931917
v 0.00081414 -0.47499031 -0.02782026
v 0.00088533 -0.49228510 -0.03787940
v 0.00130630 -0.50133818 -0.04751399
v 0.00021983 -0.48075521 -0.06015506
v -0.00499895 -0.50121009 -0.05149085
v -0.00086045 -0.48075521 -0.06015506
v 0.00078628 -0.47499031 -0.06060559
v 0.00145797 -0.46499771 -0.06121209
v 0.01052427 -0.20877834 -0.09504579
v 0.00290041 -0.22705533 -0.09504579
v -0.00279815 -0.47499031 -0.06060559
v -0.00779715 -0.47499031 -0.05837023
v -0.00499895 -0.49497539 -0.05402080
v -0.01018057 -0.50022793 -0.04947210
v -0.00499895 -0.49775112 -0.04274001
v -0.00499895 -0.49275482 -0.03724691
v -0.01054273 -0.48118228 -0.02917187
v -0.00499895 -0.47499031 -0.02479645
v -0.00499895 -0.48195091 -0.02886863
v -0.00499895 -0.48698992 -0.03224767
v -0.00499895 -0.50121009 -0.04773926
v 0.00484739 -0.22692722 -0.09504579
v 0.00955542 -0.21501301 -0.09504579
f 1 2 3
f 1 3 4
f 1 4 5
f 1 5 6
f 1 6 7
f 1 7 8
f 1 8 9
f 1 9 10
f 1 10 11
f 1 11 12
f 1 12 13
f 1 13 14
f 1 14 15
f 1 15 16
f 1 16 17
f 1 17 2
f 2 17 18
f 2 18 3
f 3 18 4
f 4 19 20
f 4 20 21
f 4 21 22
f 4 22 23
f 4 23 24
f 4 24 5
f 4 18 19
f 5 24 25
f 5 25 26
f 5 26 6
f 6 26 27
f 6 27 28
f 6 28 29
f 6 29 7
f 7 29 30
f 7 30 31
f 7 31 32
f 7 32 8
f 8 32 33
f 8 33 9
f 9 33 10
f 10 33 32
f 10 32 46
f 10 46 68
f 10 68 104
f 10 104 105
f 10 105 69
f 10 69 47
f 10 47 34
f 10 34 18
f 10 18 13
f 10 13 12
f 10 12 11
f 13 18 14
f 14 18 15
f 15 18 16
f 16 18 17
f 18 34 19
f 19 34 20
f 20 34 21
f 21 34 22
f 22 34 23
f 23 34 24
f 24 34 35
f 24 35 25
f 25 35 36
f 25 36 26
f 26 36 37
f 26 37 27
f 27 37 38
f 27 38 28
f 28 38 39
f 28 39 40
f 28 40 41
f 28 41 42
f 28 42 29
f 29 42 43
f 29 43 44
f 29 44 30
f 30 44 45
f 30 45 32
f 30 32 31
f 32 45 46
f 34 47 35
f 35 48 49
f 35 49 50
f 35 50 51
f 35 51 52
f 35 52 36
f 35 47 53
f 35 53 48
f 36 52 37
f 37 52 54
f 37 54 55
f 37 55 56
f 37 56 57
f 37 57 38
f 38 57 58
f 38 58 59
f 38 59 39
f 39 59 40
f 40 60 61
f 40 61 62
f 40 62 63
f 40 63 43
f 40 43 41
f 40 59 60
f 41 43 42
f 43 63 62
f 43 62 64
f 43 64 65
f 43 65 66
f 43 66 44
f 44 66 45
f 45 66 67
f 45 67 68
f 45 68 46
f 47 69 53
f 48 53 49
f 49 70 71
f 49 71 72
f 49 72 50
f 49 53 73
f 49 73 70
f 50 72 74
f 50 74 75
f 50 75 76
f 50 76 77
f 50 77 78
f 50 78 79
f 50 79 51
f 51 79 52
f 52 79 80
f 52 80 54
f 53 69 73
f 54 80 55
f 55 80 81
f 55 81 56
f 56 81 82
f 56 82 57
f 57 82 83
f 57 83 84
f 57 84 58
f 58 84 83
f 58 83 85
f 58 85 59
f 59 85 86
f 59 86 87
f 59 87 88
f 59 88 60
f 60 88 87
f 60 87 86
f 60 86 89
f 60 89 90
f 60 90 91
f 60 91 92
f 60 92 61
f 61 92 93
f 61 93 64
f 61 64 62
f 64 93 67
f 64 67 65
f 65 67 66
f 67 93 94
f 67 94 95
f 67 95 96
f 67 96 97
f 67 97 98
f 67 98 99
f 67 99 100
f 67 100 101
f 67 101 102
f 67 102 103
f 67 103 68
f 68 103 102
f 68 102 101
f 68 101 100
f 68 100 138
f 68 138 152
f 68 152 151
f 68 151 139
f 68 139 113
f 68 113 118
f 68 118 117
f 68 117 111
f 68 111 106
f 68 106 104
f 69 105 106
f 69 106 107
f 69 107 73
f 70 72 71
f 70 73 108
f 70 108 107
f 70 107 109
f 70 109 72
f 72 109 74
f 73 107 108
f 74 110 75
f 74 109 111
f 74 111 110
f 75 110 112
f 75 112 76
f 76 112 77
f 77 113 114
f 77 114 115
f 77 115 116
f 77 116 78
f 77 112 111
f 77 111 117
f 77 117 118
f 77 118 113
f 78 116 79
f 79 116 115
f 79 115 119
f 79 119 81
f 79 81 80
f 81 119 120
f 81 120 121
f 81 121 122
f 81 122 82
f 82 122 123
f 82 123 83
f 83 123 124
f 83 124 85
f 85 124 125
f 85 125 90
f 85 90 86
f 86 90 126
f 86 126 89
f 89 126 90
f 90 125 127
f 90 127 91
f 91 127 128
f 91 128 129
f 91 129 130
f 91 130 92
f 92 130 93
f 93 130 94
f 94 130 129
f 94 129 131
f 94 131 95
f 95 131 132
f 95 132 96
f 96 133 97
f 96 132 150
f 96 150 134
f 96 134 135
f 96 135 133
f 97 133 136
f 97 136 137
f 97 137 138
f 97 138 98
f 98 138 100
f 98 100 99
f 104 106 105
f 106 111 109
f 106 109 107
f 110 111 112
f 113 139 135
f 113 135 140
f 113 140 114
f 114 140 135
f 114 135 141
f 114 141 115
f 115 135 142
f 115 142 134
f 115 134 150
f 115 150 143
f 115 143 119
f 115 141 135
f 119 143 120
f 120 143 144
f 120 144 145
f 120 145 146
f 120 146 122
f 120 122 121
f 122 125 123
f 122 146 125
f 123 125 124
f 125 146 128
f 125 128 127
f 128 146 147
f 128 147 129
f 129 148 149
f 129 149 131
f 129 147 148
f 131 145 132
f 131 149 145
f 132 145 144
f 132 144 150
f 133 139 151
f 133 151 152
f 133 152 136
f 133 135 139
f 134 142 135
f 136 152 138
f 136 138 137
f 143 150 144
f 145 149 146
f 146 149 148
f 146 148 147

