# https://github.com/mikedh/trimesh
v -0.00248901 0.21570426 -0.11178233
v 0.00454313 0.21570426 -0.11140795
v -0.00746165 0.21570426 -0.10619244
v -0.00121786 0.24919581 -0.17119275
v 0.00220608 0.24919581 -0.17119275
v 0.00466441 0.21570426 -0.11136922
v -0.01034214 0.21570426 -0.10119639
v -0.00400739 0.25486499 -0.17471710
v -0.00227210 0.25810945 -0.18283729
v -0.00115722 0.26924804 -0.20080759
v 0.00887436 0.25089037 -0.16879155
v 0.00213844 0.26924804 -0.20080759
v 0.00499794 0.25824034 -0.18266946
v 0.01033210 0.25953534 -0.18072009
v 0.01086855 0.21570426 -0.10474655
v -0.00829198 0.25525764 -0.16531883
v -0.01074798 0.21570426 -0.09505138
v -0.01014855 0.26941338 -0.18088792
v -0.00950248 0.27196208 -0.18754932
v -0.00797011 0.26895183 -0.18655528
v -0.00588729 0.26486012 -0.18519977
v -0.00299747 0.26718152 -0.19498530
v -0.00411468 0.26895183 -0.19493367
v -0.00804008 0.27517900 -0.19474003
v -0.00292516 0.27499989 -0.20256330
v -0.00323071 0.28607649 -0.20727533
v 0.00309705 0.28607649 -0.20857921
v 0.00416761 0.28607649 -0.20857921
v 0.00528249 0.27472436 -0.20260203
v 0.00880439 0.27120435 -0.19884531
v 0.00690816 0.26895183 -0.19694757
v 0.00528249 0.26702309 -0.19530806
v 0.01095485 0.25782013 -0.17498820
v 0.01061199 0.24914759 -0.16213015
v 0.01054435 0.26895183 -0.19262284
v 0.01066796 0.26879340 -0.19217099
v 0.01134669 0.26527342 -0.18442518
v 0.01088488 0.21570426 -0.10466909
v -0.01038879 0.21570426 -0.08786067
v -0.00790713 0.26895183 -0.09106228
v -0.01019054 0.25128302 -0.12804855
v -0.01027917 0.28318334 -0.18836263
v -0.01027917 0.28318334 -0.19122858
v -0.01027917 0.27863008 -0.19122858
v -0.00540682 0.26895183 -0.19223554
v -0.00469778 0.28607649 -0.20544216
v -0.00426395 0.28496745 -0.20557126
v 0.00581428 0.28607649 -0.20777881
v 0.01060732 0.27787235 -0.20091087
v 0.01176185 0.25453436 -0.16526720
v 0.01069362 0.26895183 -0.19226137
v 0.01272746 0.26499099 -0.17498820
v 0.01144465 0.26895183 -0.18865956
v 0.01182716 0.21570426 -0.09572268
v 0.01300035 0.25499588 -0.15499108
v -0.00783483 0.21570426 -0.08278716
v -0.00258930 0.26895183 -0.07705526
v -0.00399806 0.26895183 -0.07993412
v -0.00608088 0.26895183 -0.08446543
v -0.01004826 0.26016220 -0.13955109
v -0.00877245 0.28607649 -0.18499321
v -0.00955846 0.28607649 -0.19474003
v -0.00955613 0.28591117 -0.19474003
v 0.01077525 0.28607649 -0.20351861
v 0.01123007 0.28607649 -0.20276985
v 0.01117876 0.28499502 -0.20243420
v 0.01159859 0.27472436 -0.19529514
v 0.01306332 0.27499989 -0.18499321
v 0.01237060 0.22501053 -0.10500474
v 0.01234495 0.22501053 -0.09501264
v 0.01182483 0.21570426 -0.09501264
v 0.01307965 0.25499588 -0.13501978
v 0.01287906 0.23500565 -0.10500474
v -0.00719576 0.21570426 -0.08220623
v -0.00279688 0.21570426 -0.07857861
v -0.00029657 0.26895183 -0.07670670
v 0.00502826 0.28607649 -0.17435563
v -0.00357823 0.28607649 -0.17577568
v 0.01289073 0.28607649 -0.19612136
v 0.01304233 0.28499502 -0.19498530
v 0.01304466 0.28607649 -0.19498530
v 0.01106913 0.26895183 -0.08500763
v 0.01034376 0.26895183 -0.08081198
v 0.01092919 0.21570426 -0.08780903
v 0.01296070 0.25499588 -0.12500186
v 0.00267722 0.21570426 -0.07857861
v 0.00500494 0.26895183 -0.07709399
v 0.00581894 0.28607649 -0.17445889
v 0.01198110 0.28607649 -0.18428317
v 0.00994259 0.26895183 -0.07995994
v 0.01081724 0.21570426 -0.08735719
v 0.01194611 0.28607649 -0.18411535
v 0.01185981 0.28607649 -0.18388298
v 0.00303641 0.21570426 -0.07879807
v 0.00915425 0.26895183 -0.07937901
v 0.00659796 0.28607649 -0.17516893
v 0.00766619 0.21570426 -0.08234823
v 0.00811634 0.21570426 -0.08269680
f 1 2 6
f 1 6 15
f 1 15 38
f 1 38 54
f 1 54 71
f 1 71 84
f 1 84 91
f 1 91 98
f 1 98 97
f 1 97 94
f 1 94 86
f 1 86 75
f 1 75 74
f 1 74 56
f 1 56 39
f 1 39 17
f 1 17 7
f 1 7 3
f 1 3 4
f 1 4 5
f 1 5 2
f 2 5 6
f 3 7 4
f 4 8 9
f 4 9 10
f 4 10 12
f 4 12 5
f 4 7 8
f 5 11 6
f 5 12 13
f 5 13 14
f 5 14 11
f 6 11 15
f 7 16 8
f 7 17 18
f 7 18 19
f 7 19 16
f 8 16 19
f 8 19 20
f 8 20 21
f 8 21 22
f 8 22 9
f 9 22 10
f 10 22 23
f 10 23 24
f 10 24 25
f 10 25 26
f 10 26 27
f 10 27 28
f 10 28 12
f 11 14 15
f 12 28 29
f 12 29 30
f 12 30 31
f 12 31 32
f 12 32 13
f 13 32 14
f 14 33 34
f 14 34 15
f 14 32 31
f 14 31 30
f 14 30 35
f 14 35 36
f 14 36 37
f 14 37 33
f 15 34 38
f 17 39 40
f 17 40 41
f 17 41 42
f 17 42 43
f 17 43 44
f 17 44 18
f 18 44 19
f 19 44 24
f 19 24 45
f 19 45 20
f 20 45 21
f 21 45 22
f 22 45 23
f 23 45 24
f 24 46 47
f 24 47 25
f 24 44 46
f 25 47 26
f 26 47 46
f 26 46 62
f 26 62 61
f 26 61 78
f 26 78 77
f 26 77 88
f 26 88 96
f 26 96 93
f 26 93 92
f 26 92 89
f 26 89 81
f 26 81 79
f 26 79 65
f 26 65 64
f 26 64 48
f 26 48 28
f 26 28 27
f 28 48 29
f 29 48 30
f 30 48 49
f 30 49 35
f 33 37 50
f 33 50 38
f 33 38 34
f 35 51 36
f 35 49 51
f 36 51 37
f 37 52 50
f 37 51 53
f 37 53 52
f 38 50 55
f 38 55 54
f 39 56 57
f 39 57 58
f 39 58 59
f 39 59 40
f 40 60 41
f 40 59 61
f 40 61 42
f 40 42 60
f 41 60 42
f 42 61 62
f 42 62 43
f 43 62 44
f 44 62 63
f 44 63 46
f 46 63 62
f 48 64 49
f 49 64 65
f 49 65 66
f 49 66 67
f 49 67 51
f 50 52 55
f 51 67 53
f 52 53 67
f 52 67 68
f 52 68 55
f 54 55 69
f 54 69 70
f 54 70 71
f 55 72 73
f 55 73 69
f 55 68 72
f 56 74 57
f 57 74 75
f 57 75 76
f 57 76 77
f 57 77 78
f 57 78 61
f 57 61 58
f 58 61 59
f 65 79 80
f 65 80 66
f 66 80 67
f 67 80 68
f 68 80 81
f 68 81 72
f 69 73 70
f 70 73 82
f 70 82 83
f 70 83 84
f 70 84 71
f 72 85 73
f 72 81 85
f 73 85 82
f 75 86 76
f 76 86 87
f 76 87 77
f 77 87 88
f 79 81 80
f 81 89 82
f 81 82 85
f 82 89 83
f 83 90 91
f 83 91 84
f 83 89 92
f 83 92 93
f 83 93 90
f 86 94 95
f 86 95 87
f 87 95 88
f 88 95 90
f 88 90 96
f 90 95 94
f 90 94 97
f 90 97 98
f 90 98 91
f 90 93 96

