# https://github.com/mikedh/trimesh
v -0.00499822 0.45679265 0.09883553
v -0.00499822 0.45483670 0.09499685
v -0.01008070 0.45011467 0.08990536
v -0.01107642 0.45169526 0.09499685
v -0.01132253 0.45295972 0.09883553
v -0.00097242 0.45588383 0.09883553
v 0.00095807 0.45104325 0.08918946
v -0.00499822 0.45086545 0.08932523
v -0.01100191 0.44499749 0.08818968
v -0.01341107 0.44499749 0.09499685
v -0.00001056 0.43999887 0.07999392
v -0.00499822 0.42259261 0.06803972
v -0.01071968 0.42122936 0.06907653
v -0.01106288 0.43219471 0.07840167
v -0.01283982 0.44859335 0.09883553
v 0.00309628 0.45422420 0.09883553
v 0.00265373 0.45311779 0.09499685
v 0.00000073 0.43999887 0.07999392
v 0.00683307 0.44499749 0.09499685
v 0.00206217 0.44398987 0.08551124
v 0.00169188 0.42223698 0.06830509
v -0.01248082 0.43531638 0.08460403
v -0.01205634 0.42472640 0.07503820
v -0.01406134 0.41498601 0.07499500
v -0.01452646 0.42498326 0.08499901
v -0.01468677 0.43498051 0.09499685
v -0.01467548 0.43883318 0.09883553
v -0.01388974 0.44499749 0.09883553
v -0.00499822 0.41498601 0.06394184
v -0.01018230 0.40062237 0.05982545
v -0.01154832 0.41498601 0.06762623
v 0.00740882 0.44499749 0.09883553
v 0.00837971 0.43498051 0.09499685
v 0.00811554 0.42498326 0.08499901
v 0.00754204 0.41498601 0.07499500
v 0.00577186 0.43498051 0.08499901
v 0.00403104 0.42533889 0.07447660
v 0.00319337 0.41498601 0.06631169
v 0.00109580 0.40299326 0.05920212
v -0.01324850 0.39499152 0.06500334
v -0.01398683 0.38499427 0.06500334
v -0.01449485 0.40498877 0.07499500
v -0.01330043 0.25501031 0.05500550
v -0.01338172 0.42838153 0.09883553
v -0.01311754 0.25497079 0.05605466
v -0.01159348 0.25497079 0.06463305
v -0.00499822 0.40771529 0.06089929
v -0.01077387 0.39499152 0.05913424
v -0.00499822 0.40271667 0.05927001
v -0.01016198 0.33056262 0.03984211
v -0.01184862 0.40437627 0.06465773
v 0.00772267 0.43498051 0.09883553
v 0.00816521 0.40498877 0.07499500
v 0.00684210 0.25501031 0.05500550
v 0.00751494 0.38499427 0.06500334
v 0.00653954 0.39499152 0.06500334
v 0.00386621 0.40579882 0.06406527
v 0.00033941 0.37084797 0.04977824
v -0.00122079 0.37084797 0.04977824
v 0.00222248 0.39499152 0.05810977
v 0.00105064 0.33279520 0.03920028
v -0.01067000 0.32501081 0.03926817
v -0.01295272 0.32501081 0.04500149
v -0.01343816 0.31501356 0.04500149
v -0.01375878 0.33500803 0.05500550
v -0.01274499 0.27500480 0.04500149
v -0.01169734 0.25501031 0.04658757
v -0.01329366 0.25497079 0.05499933
v -0.01141736 0.42073542 0.09883553
v -0.00696031 0.25497079 0.06882350
v -0.00499822 0.33249885 0.03928051
v -0.00499822 0.32501081 0.03750312
v 0.00539028 0.42524010 0.09883553
v 0.00341238 0.25497079 0.06582415
v 0.00356140 0.25497079 0.06557111
v 0.00743140 0.33500803 0.05500550
v 0.00736592 0.34500527 0.05500550
v 0.00683532 0.25497079 0.05500550
v 0.00514417 0.26500756 0.04500149
v 0.00613764 0.27500480 0.04500149
v 0.00645148 0.28500205 0.04500149
v 0.00669533 0.30501631 0.04500149
v 0.00680597 0.31501356 0.04500149
v 0.00620538 0.32501081 0.04500149
v 0.00314595 0.38499427 0.05672735
v 0.00209152 0.32501081 0.03824370
v -0.00499822 0.31501356 0.03633670
v -0.01111029 0.31501356 0.03873742
v -0.01112610 0.30501631 0.03866953
v -0.01112158 0.29501906 0.03862016
v -0.01108320 0.28500205 0.03861399
v -0.01080322 0.27500480 0.03901514
v -0.01177411 0.26481000 0.04432880
v -0.01037196 0.26803043 0.03959525
v -0.00862662 0.26135245 0.04055184
v -0.01169282 0.25497079 0.04659991
v -0.01068807 0.41844356 0.09883553
v -0.00499822 0.25497079 0.06973688
v 0.00211862 0.41717908 0.09883553
v 0.00313015 0.25497079 0.04428560
v 0.00313466 0.25501031 0.04426708
v 0.00235795 0.27500480 0.03773763
v 0.00278243 0.28500205 0.03717603
v 0.00278017 0.29501906 0.03727477
v 0.00271470 0.30501631 0.03744140
v 0.00264244 0.31501356 0.03760186
v -0.00499822 0.30501631 0.03610836
v -0.00499822 0.29501906 0.03589235
v -0.00499822 0.28500205 0.03579361
v -0.00499822 0.27500480 0.03675019
v -0.00517433 0.26481000 0.03886702
v -0.00196137 0.25834930 0.03963846
v -0.00517433 0.25501031 0.04153928
v -0.00517659 0.25497079 0.04156397
v -0.00499822 0.41546017 0.09883553
v -0.00251907 0.41546017 0.09883553
v 0.00051326 0.25834930 0.03963846
v 0.00136900 0.26500756 0.03888553
f 1 2 3
f 1 3 4
f 1 4 5
f 1 5 15
f 1 15 28
f 1 28 27
f 1 27 44
f 1 44 69
f 1 69 97
f 1 97 115
f 1 115 116
f 1 116 99
f 1 99 73
f 1 73 52
f 1 52 32
f 1 32 16
f 1 16 6
f 1 6 7
f 1 7 2
f 2 7 8
f 2 8 3
f 3 9 10
f 3 10 4
f 3 8 11
f 3 11 12
f 3 12 13
f 3 13 14
f 3 14 9
f 4 10 5
f 5 10 15
f 6 16 17
f 6 17 7
f 7 18 11
f 7 11 8
f 7 17 19
f 7 19 20
f 7 20 21
f 7 21 18
f 9 22 10
f 9 14 23
f 9 23 22
f 10 22 23
f 10 23 24
f 10 24 25
f 10 25 26
f 10 26 27
f 10 27 28
f 10 28 15
f 11 18 12
f 12 18 21
f 12 21 29
f 12 29 13
f 13 29 30
f 13 30 31
f 13 31 23
f 13 23 14
f 16 32 19
f 16 19 17
f 19 32 33
f 19 33 34
f 19 34 35
f 19 35 36
f 19 36 20
f 20 36 37
f 20 37 21
f 21 37 38
f 21 38 39
f 21 39 29
f 23 31 24
f 24 31 40
f 24 40 41
f 24 41 42
f 24 42 25
f 25 42 26
f 26 42 43
f 26 43 27
f 27 43 45
f 27 45 46
f 27 46 44
f 29 39 47
f 29 47 30
f 30 48 31
f 30 47 49
f 30 49 50
f 30 50 48
f 31 48 51
f 31 51 40
f 32 52 33
f 33 53 34
f 33 52 54
f 33 54 53
f 34 53 35
f 35 38 37
f 35 37 36
f 35 53 55
f 35 55 56
f 35 56 38
f 38 56 57
f 38 57 39
f 39 58 59
f 39 59 49
f 39 49 47
f 39 57 60
f 39 60 61
f 39 61 58
f 40 51 48
f 40 48 62
f 40 62 63
f 40 63 41
f 41 63 64
f 41 64 42
f 42 64 65
f 42 65 43
f 43 65 64
f 43 64 66
f 43 66 67
f 43 67 68
f 43 68 45
f 44 46 70
f 44 70 69
f 45 68 96
f 45 96 114
f 45 114 100
f 45 100 78
f 45 78 75
f 45 75 74
f 45 74 98
f 45 98 70
f 45 70 46
f 48 50 62
f 49 59 71
f 49 71 50
f 50 71 72
f 50 72 62
f 52 73 74
f 52 74 75
f 52 75 54
f 53 54 76
f 53 76 77
f 53 77 55
f 54 75 78
f 54 78 79
f 54 79 80
f 54 80 81
f 54 81 82
f 54 82 83
f 54 83 76
f 55 77 83
f 55 83 84
f 55 84 56
f 56 85 60
f 56 60 57
f 56 84 86
f 56 86 85
f 58 61 59
f 59 61 71
f 60 85 86
f 60 86 61
f 61 86 72
f 61 72 71
f 62 72 87
f 62 87 88
f 62 88 63
f 63 88 64
f 64 88 89
f 64 89 90
f 64 90 91
f 64 91 66
f 66 91 92
f 66 92 93
f 66 93 67
f 67 93 92
f 67 92 94
f 67 94 95
f 67 95 96
f 67 96 68
f 69 70 97
f 70 98 97
f 72 86 87
f 73 99 74
f 74 99 98
f 76 83 77
f 78 100 101
f 78 101 79
f 79 101 102
f 79 102 80
f 80 102 103
f 80 103 81
f 81 103 82
f 82 103 83
f 83 103 104
f 83 104 105
f 83 105 106
f 83 106 84
f 84 106 86
f 86 106 87
f 87 106 107
f 87 107 88
f 88 107 108
f 88 108 109
f 88 109 89
f 89 109 90
f 90 109 91
f 91 109 92
f 92 109 110
f 92 110 94
f 94 110 111
f 94 111 95
f 95 111 112
f 95 112 113
f 95 113 96
f 96 113 114
f 97 98 115
f 98 99 116
f 98 116 115
f 100 114 117
f 100 117 101
f 101 117 118
f 101 118 102
f 102 110 109
f 102 109 103
f 102 118 110
f 103 109 108
f 103 108 104
f 104 108 106
f 104 106 105
f 106 108 107
f 110 118 117
f 110 117 112
f 110 112 111
f 112 117 113
f 113 117 114

