# https://github.com/mikedh/trimesh
v 0.01473515 -0.06512468 -0.09504580
v 0.01553473 -0.06512468 -0.10487670
v -0.00038277 -0.06512468 -0.09504580
v 0.01445665 -0.07501169 -0.09504580
v 0.01546960 -0.37499905 -0.19499129
v 0.01554372 -0.06512468 -0.10500528
v -0.00737462 -0.06512468 -0.09512763
v -0.00737911 -0.06520605 -0.09504580
v 0.01360541 -0.10503890 -0.09504580
v 0.01509227 -0.38496742 -0.19499129
v 0.01296080 -0.41499466 -0.20499752
v 0.01326626 -0.40498558 -0.20499752
v 0.01341449 -0.39497650 -0.20499752
v 0.01338305 -0.38496742 -0.20499752
v 0.01541794 -0.36498997 -0.19499129
v 0.01551901 -0.33496276 -0.18499674
v 0.01133693 -0.18503010 -0.09504580
v 0.01105169 -0.19503918 -0.09504580
v 0.01065190 -0.20573993 -0.09504580
v 0.01556168 -0.09502983 -0.11501151
v 0.01544714 -0.08502075 -0.11501151
v 0.01475312 -0.07501169 -0.11501151
v 0.01372220 -0.06512468 -0.11501151
v -0.00578444 -0.06512468 -0.10513386
v -0.00562722 -0.08502075 -0.11501151
v -0.00566765 -0.15500289 -0.13500062
v -0.00570358 -0.22502571 -0.15498970
v -0.00573503 -0.29496714 -0.17499050
v -0.00587877 -0.33496276 -0.18499674
v -0.00590797 -0.37499905 -0.19499129
v -0.00526561 -0.19507986 -0.09504580
v -0.00541609 -0.44498116 -0.18499674
v -0.00542508 -0.42496303 -0.17499050
v 0.01392210 -0.38496742 -0.18499674
v 0.01111233 -0.39497650 -0.16499595
v 0.01225555 -0.39497650 -0.17499050
v 0.01339653 -0.39497650 -0.18499674
v 0.00998483 -0.45983201 -0.19006999
v 0.01035991 -0.46499932 -0.19646417
v 0.01014430 -0.47041070 -0.19854490
v 0.01014430 -0.47041070 -0.20032170
v 0.01216571 -0.43497211 -0.20499752
v 0.01015104 -0.23186117 -0.09972161
v 0.01111008 -0.43497211 -0.21162549
v 0.01131223 -0.42496303 -0.21183589
v 0.01140431 -0.41499466 -0.21185929
v 0.01255427 -0.37548730 -0.20564045
v 0.01283278 -0.36498997 -0.20351295
v 0.01126731 -0.40498558 -0.21150859
v 0.01490136 -0.35498089 -0.19499129
v 0.01529890 -0.32499436 -0.18499674
v 0.01548532 -0.29496714 -0.17499050
v 0.01052387 -0.20879148 -0.09504580
v 0.01551901 -0.12501636 -0.12500606
v 0.01522029 -0.18503010 -0.14500685
v 0.01514842 -0.11500728 -0.12500606
v 0.01547634 -0.22502571 -0.15498970
v 0.01526746 -0.25501224 -0.16499595
v 0.01438702 -0.17502102 -0.14500685
v 0.01276540 -0.08502075 -0.12363839
v 0.01488563 -0.21501663 -0.15498970
v 0.01074398 -0.06512468 -0.12075108
v 0.01192763 -0.07501169 -0.12214213
v -0.00301061 -0.06512468 -0.11588823
v -0.00479619 -0.07501169 -0.11501151
v -0.00528582 -0.11500728 -0.12500606
v -0.00547000 -0.32499436 -0.18499674
v -0.00567888 -0.36498997 -0.19499129
v -0.00412463 -0.39497650 -0.20499752
v -0.00428859 -0.40498558 -0.20499752
v -0.00429758 -0.41499466 -0.20499752
v -0.00494892 -0.46499932 -0.19499129
v -0.00491074 -0.20504825 -0.09504580
v -0.00493095 -0.45499027 -0.18499674
v -0.00414709 -0.43497211 -0.17499050
v -0.00265349 -0.42496303 -0.16711175
v -0.00387083 -0.21505731 -0.09504580
v 0.01121565 -0.36498997 -0.15498970
v 0.01011061 -0.40067273 -0.15980580
v 0.01005221 -0.32027465 -0.12992735
v 0.00973552 -0.46499932 -0.19146104
v 0.00709870 -0.47423533 -0.19511987
v 0.00162966 -0.48074532 -0.19499129
v 0.00060098 -0.48025703 -0.20028664
v 0.00435856 -0.47423533 -0.20207514
v 0.00486616 -0.46528411 -0.20661068
v 0.01026783 -0.45092154 -0.21036302
v 0.01070580 -0.44498116 -0.21102932
v 0.01157726 -0.44498116 -0.20499752
v 0.00955809 -0.21501663 -0.09504580
v 0.00958055 -0.23853388 -0.10092563
v 0.01010387 -0.29069498 -0.11983930
v 0.01013082 -0.26119670 -0.10977460
v 0.00499868 -0.43497211 -0.21404523
v 0.00499868 -0.42496303 -0.21445435
v 0.00499868 -0.41499466 -0.21445435
v 0.01020943 -0.37914914 -0.21016429
v 0.01096409 -0.39497650 -0.21097088
v 0.01055083 -0.38496742 -0.21049160
v 0.01214999 -0.35498089 -0.20228556
v 0.01261267 -0.32499436 -0.19313265
v 0.01394905 -0.34497184 -0.19499129
v 0.01448584 -0.31498531 -0.18499674
v 0.01493056 -0.28499877 -0.17499050
v 0.01281705 -0.15500289 -0.14370932
v 0.01444317 -0.24500316 -0.16499595
v 0.01243523 -0.11500728 -0.13293156
v 0.01256775 -0.25501224 -0.17307341
v 0.01250486 -0.18503010 -0.15301418
v 0.00495600 -0.06512468 -0.12139400
v 0.01141330 -0.10503890 -0.13147038
v 0.01150987 -0.17502102 -0.15156467
v 0.01053735 -0.09808138 -0.13051184
v 0.01010836 -0.12965471 -0.14009725
v 0.01201523 -0.14503451 -0.14223643
v -0.00272537 -0.06512468 -0.11655453
v -0.00266248 -0.08502075 -0.12352149
v -0.00270515 -0.15500289 -0.14359242
v -0.00449972 -0.31498531 -0.18499674
v -0.00500283 -0.28499877 -0.17499050
v -0.00501630 -0.35498089 -0.19499129
v -0.00357436 -0.38496742 -0.20499752
v -0.00179327 -0.40498558 -0.21218659
v -0.00188985 -0.41499466 -0.21259572
v -0.00180675 -0.42496303 -0.21260741
v -0.00414934 -0.42496303 -0.20499752
v -0.00315885 -0.45499027 -0.20499752
v -0.00206953 -0.46528411 -0.20569889
v -0.00341265 -0.47496772 -0.19499129
v -0.00205830 -0.47496772 -0.18789575
v -0.00228739 -0.45499027 -0.17784274
v -0.00135081 -0.43497211 -0.16887687
v -0.00174835 -0.40498558 -0.15833291
v -0.00203359 -0.37499905 -0.14789416
v -0.00189434 -0.26502129 -0.10813807
v -0.00207851 -0.23503478 -0.09783959
v -0.00225595 -0.22522914 -0.09504580
v 0.00945926 -0.37833542 -0.15094513
v 0.00505258 -0.40437526 -0.15855502
v 0.00175543 -0.41137350 -0.15949018
v 0.00230571 -0.43497211 -0.16887687
v 0.00185875 -0.46141884 -0.17924549
v 0.00366455 -0.45499027 -0.17784274
v 0.00892247 -0.45588535 -0.18512532
v 0.00991296 -0.34948811 -0.14023753
v 0.00291662 -0.24256192 -0.09909038
v 0.00342647 -0.47496772 -0.18789575
v 0.00157351 -0.48074532 -0.18936862
v -0.00089262 -0.48074532 -0.19499129
v 0.00144773 -0.46215123 -0.21052667
v -0.00032213 -0.48025703 -0.20028664
v 0.00486616 -0.45454270 -0.21119297
v 0.00499868 -0.44498116 -0.21301654
v 0.00484820 -0.22693801 -0.09504580
v -0.00161134 -0.43497211 -0.21242037
v -0.00100716 -0.45499027 -0.21121636
v -0.00137327 -0.44498116 -0.21197617
v 0.00499868 -0.40498558 -0.21369454
v 0.00499868 -0.37890503 -0.21021105
v 0.00499868 -0.37394118 -0.20906548
v 0.00499868 -0.36498997 -0.20694968
v 0.00499868 -0.35498089 -0.20450656
v 0.01022291 -0.33923492 -0.20018144
v 0.01102474 -0.34497184 -0.20097633
v 0.00499868 -0.39497650 -0.21243206
v 0.00499868 -0.38496742 -0.21109946
v 0.01163565 -0.31498531 -0.19167146
v 0.01215448 -0.28499877 -0.18237828
v 0.01285075 -0.22502571 -0.16376854
v 0.01287321 -0.29496714 -0.18382779
v 0.01209608 -0.21501663 -0.16230735
v 0.00271897 -0.06512468 -0.12100825
v 0.00499868 -0.09238516 -0.12933119
v 0.00008440 -0.13002089 -0.14000373
v 0.01060473 -0.16794145 -0.15057106
v 0.01083382 -0.13502543 -0.14082199
v 0.01157950 -0.24500316 -0.17161222
v 0.00674832 -0.12965471 -0.14009725
v 0.01068559 -0.30762088 -0.19061941
v 0.00499868 -0.33406764 -0.19882545
v -0.00206504 -0.06512468 -0.11785208
v -0.00181124 -0.07501169 -0.12203692
v -0.00231210 -0.11500728 -0.13281468
v -0.00250750 -0.32499436 -0.19303913
v -0.00277702 -0.29496714 -0.18371089
v -0.00274333 -0.36498997 -0.20343113
v -0.00139797 -0.39497650 -0.21145014
v -0.00135530 -0.47496772 -0.20234400
v -0.00051529 -0.46215123 -0.21052667
v -0.00086791 -0.48074532 -0.18936862
v -0.00103187 -0.46141884 -0.17924549
v -0.00016940 -0.44022077 -0.16989386
v -0.00069497 -0.41137350 -0.15949018
v -0.00102289 -0.38228208 -0.14915663
v -0.00126770 -0.35314995 -0.13886985
v -0.00162033 -0.29496714 -0.11847162
v -0.00108353 -0.24256192 -0.09909038
v 0.00290315 -0.22706006 -0.09504580
v 0.00032697 -0.44022077 -0.16989386
v 0.00279534 -0.38228208 -0.14915663
v 0.00083008 -0.33052784 -0.12982215
v 0.00240229 -0.27189746 -0.10933040
v 0.00171276 -0.30119231 -0.11957043
v -0.00065454 -0.38496742 -0.21059680
v -0.00014694 -0.37939328 -0.21011753
v -0.00015143 -0.33947903 -0.20012298
v 0.00499868 -0.34497184 -0.20187642
v 0.00499868 -0.33903149 -0.20023988
v -0.00085444 -0.06683354 -0.12086797
v -0.00043892 -0.09840687 -0.13041832
v -0.00151252 -0.31498531 -0.19156626
v -0.00202236 -0.28499877 -0.18224970
v -0.00205381 -0.35498089 -0.20221542
v -0.00026823 -0.33052784 -0.12982215
v -0.00057818 -0.30119231 -0.11957043
v -0.00084770 -0.27189746 -0.10933040
v -0.00092182 -0.34497184 -0.20089450
f 1 2 6
f 1 6 23
f 1 23 62
f 1 62 110
f 1 110 172
f 1 172 181
f 1 181 116
f 1 116 64
f 1 64 24
f 1 24 7
f 1 7 3
f 1 3 8
f 1 8 31
f 1 31 73
f 1 73 77
f 1 77 137
f 1 137 198
f 1 198 154
f 1 154 90
f 1 90 53
f 1 53 19
f 1 19 18
f 1 18 17
f 1 17 9
f 1 9 4
f 1 4 5
f 1 5 2
f 2 5 6
f 3 7 8
f 4 9 5
f 5 10 11
f 5 11 12
f 5 12 13
f 5 13 14
f 5 14 15
f 5 15 16
f 5 16 6
f 5 9 17
f 5 17 18
f 5 18 19
f 5 19 10
f 6 20 21
f 6 21 22
f 6 22 23
f 6 16 20
f 7 24 25
f 7 25 26
f 7 26 27
f 7 27 28
f 7 28 29
f 7 29 30
f 7 30 8
f 8 30 32
f 8 32 33
f 8 33 31
f 10 34 35
f 10 35 36
f 10 36 37
f 10 37 38
f 10 38 39
f 10 39 40
f 10 40 41
f 10 41 42
f 10 42 11
f 10 19 43
f 10 43 34
f 11 42 44
f 11 44 12
f 12 44 45
f 12 45 13
f 13 45 46
f 13 46 14
f 14 47 48
f 14 48 15
f 14 46 49
f 14 49 47
f 15 50 51
f 15 51 52
f 15 52 16
f 15 48 50
f 16 52 20
f 19 53 43
f 20 54 21
f 20 52 54
f 21 55 56
f 21 56 22
f 21 54 57
f 21 57 51
f 21 51 58
f 21 58 55
f 22 59 60
f 22 60 23
f 22 56 55
f 22 55 61
f 22 61 59
f 23 60 63
f 23 63 62
f 24 64 65
f 24 65 25
f 25 65 66
f 25 66 67
f 25 67 26
f 26 67 28
f 26 28 27
f 28 67 68
f 28 68 29
f 29 68 30
f 30 68 69
f 30 69 70
f 30 70 71
f 30 71 72
f 30 72 32
f 31 33 73
f 32 72 74
f 32 74 33
f 33 74 75
f 33 75 76
f 33 76 77
f 33 77 73
f 34 78 35
f 34 43 78
f 35 79 38
f 35 38 36
f 35 78 80
f 35 80 79
f 36 38 37
f 38 81 39
f 38 79 81
f 39 81 40
f 40 81 82
f 40 82 41
f 41 82 83
f 41 83 84
f 41 84 85
f 41 85 86
f 41 86 87
f 41 87 88
f 41 88 89
f 41 89 42
f 42 89 88
f 42 88 44
f 43 53 90
f 43 90 91
f 43 91 92
f 43 92 93
f 43 93 78
f 44 88 94
f 44 94 95
f 44 95 45
f 45 95 46
f 46 95 96
f 46 96 49
f 47 97 48
f 47 49 98
f 47 98 99
f 47 99 97
f 48 97 100
f 48 100 101
f 48 101 102
f 48 102 50
f 49 99 98
f 49 96 99
f 50 102 103
f 50 103 104
f 50 104 51
f 51 104 58
f 51 57 52
f 52 57 54
f 55 58 104
f 55 104 61
f 59 105 60
f 59 61 106
f 59 106 105
f 60 107 63
f 60 105 108
f 60 108 109
f 60 109 107
f 61 104 106
f 62 63 111
f 62 111 112
f 62 112 113
f 62 113 114
f 62 114 110
f 63 107 115
f 63 115 112
f 63 112 111
f 64 116 117
f 64 117 65
f 65 117 118
f 65 118 119
f 65 119 120
f 65 120 66
f 66 120 67
f 67 121 68
f 67 120 121
f 68 121 122
f 68 122 69
f 69 123 124
f 69 124 70
f 69 122 123
f 70 124 71
f 71 124 125
f 71 125 126
f 71 126 72
f 72 126 127
f 72 127 128
f 72 128 129
f 72 129 74
f 74 129 130
f 74 130 131
f 74 131 75
f 75 131 76
f 76 131 132
f 76 132 133
f 76 133 134
f 76 134 135
f 76 135 136
f 76 136 77
f 77 136 137
f 78 92 80
f 78 93 92
f 79 138 139
f 79 139 140
f 79 140 141
f 79 141 142
f 79 142 143
f 79 143 144
f 79 144 81
f 79 80 145
f 79 145 138
f 80 92 91
f 80 91 146
f 80 146 145
f 81 144 147
f 81 147 148
f 81 148 82
f 82 148 83
f 83 148 190
f 83 190 149
f 83 149 151
f 83 151 84
f 84 150 85
f 84 151 189
f 84 189 150
f 85 150 86
f 86 150 87
f 87 150 152
f 87 152 153
f 87 153 88
f 88 153 94
f 90 154 91
f 91 154 146
f 94 155 95
f 94 153 156
f 94 156 157
f 94 157 155
f 95 125 124
f 95 124 96
f 95 155 125
f 96 158 97
f 96 97 99
f 96 124 123
f 96 123 158
f 97 159 160
f 97 160 161
f 97 161 162
f 97 162 163
f 97 163 164
f 97 164 100
f 97 158 165
f 97 165 166
f 97 166 159
f 100 164 167
f 100 167 101
f 101 167 168
f 101 168 108
f 101 108 105
f 101 105 169
f 101 169 170
f 101 170 103
f 101 103 102
f 103 170 106
f 103 106 104
f 105 106 169
f 106 170 169
f 107 109 171
f 107 171 115
f 108 168 109
f 109 168 171
f 110 114 173
f 110 173 174
f 110 174 172
f 112 175 176
f 112 176 113
f 112 115 171
f 112 171 168
f 112 168 177
f 112 177 175
f 113 176 175
f 113 175 114
f 114 178 173
f 114 175 179
f 114 179 163
f 114 163 180
f 114 180 178
f 116 181 182
f 116 182 117
f 117 182 183
f 117 183 184
f 117 184 118
f 118 184 185
f 118 185 119
f 119 185 184
f 119 184 121
f 119 121 120
f 121 186 122
f 121 184 186
f 122 187 123
f 122 186 187
f 123 187 158
f 125 155 126
f 126 155 127
f 127 157 156
f 127 156 128
f 127 155 157
f 128 188 129
f 128 156 189
f 128 189 188
f 129 188 151
f 129 151 149
f 129 149 190
f 129 190 130
f 130 190 191
f 130 191 131
f 131 191 132
f 132 191 192
f 132 192 193
f 132 193 194
f 132 194 133
f 133 194 195
f 133 195 134
f 134 195 196
f 134 196 135
f 135 197 136
f 135 196 197
f 136 197 137
f 137 197 198
f 138 140 139
f 138 145 140
f 140 199 141
f 140 145 200
f 140 200 201
f 140 201 199
f 141 199 142
f 142 199 192
f 142 192 191
f 142 191 190
f 142 190 148
f 142 148 147
f 142 147 143
f 143 147 144
f 145 146 202
f 145 202 203
f 145 203 200
f 146 197 216
f 146 216 202
f 146 154 198
f 146 198 197
f 150 189 153
f 150 153 152
f 151 188 189
f 153 189 156
f 158 187 204
f 158 204 205
f 158 205 165
f 159 166 205
f 159 205 160
f 160 205 161
f 161 205 162
f 162 206 207
f 162 207 163
f 162 205 206
f 163 179 164
f 163 207 208
f 163 208 180
f 164 179 175
f 164 175 167
f 165 205 166
f 167 175 177
f 167 177 168
f 172 209 181
f 172 174 209
f 173 178 180
f 173 180 174
f 174 210 209
f 174 180 206
f 174 206 210
f 180 208 206
f 181 209 182
f 182 209 211
f 182 211 212
f 182 212 183
f 183 212 184
f 184 213 186
f 184 212 211
f 184 211 213
f 186 213 205
f 186 205 204
f 186 204 187
f 192 199 201
f 192 201 214
f 192 214 193
f 193 214 194
f 194 214 195
f 195 214 215
f 195 215 216
f 195 216 197
f 195 197 196
f 200 203 201
f 201 203 202
f 201 202 216
f 201 216 214
f 205 213 217
f 205 217 206
f 206 208 207
f 206 217 210
f 209 210 217
f 209 217 211
f 211 217 213
f 214 216 215

