# https://github.com/mikedh/trimesh
v 0.00503124 0.28609392 -0.17436397
v -0.00357944 0.28609392 -0.17578554
v 0.00581989 0.28609392 -0.17446621
v 0.00499905 0.44715640 -0.18410558
v -0.00145034 0.44715640 -0.18505977
v -0.00877114 0.28609392 -0.18501109
v -0.00435889 0.44715640 -0.18610160
v -0.00829750 0.44715640 -0.19184627
v -0.00913902 0.44715640 -0.19330677
v 0.00659933 0.28609392 -0.17519160
v 0.01091732 0.44715640 -0.18799052
v -0.01024496 0.30500072 -0.19875933
v -0.01021967 0.29792053 -0.19875933
v -0.00955749 0.28609392 -0.19475268
v -0.01009781 0.44715640 -0.19700186
v -0.01022887 0.44715640 -0.19781974
v 0.01186001 0.28609392 -0.18389136
v 0.00986656 0.28983113 -0.18012811
v 0.01282340 0.44715640 -0.19500096
v 0.01194738 0.28609392 -0.18412991
v -0.01024496 0.30500072 -0.20139311
v -0.01026796 0.44499606 -0.19865710
v -0.01041281 0.37499839 -0.20822343
v -0.01038982 0.36500096 -0.20823804
v -0.01021967 0.29792053 -0.20088194
v -0.00811356 0.29475099 -0.20452835
v -0.00469918 0.28609392 -0.20545334
v -0.01022887 0.44715640 -0.20103772
v 0.01302113 0.43499866 -0.20499571
v 0.01263256 0.44499606 -0.20499571
v 0.01236125 0.44715640 -0.20502491
v 0.01198187 0.28609392 -0.18430030
v 0.01307631 0.29500329 -0.19500096
v -0.01038982 0.36500096 -0.21152905
v -0.01026796 0.44499606 -0.20128602
v -0.01041281 0.37499839 -0.21163128
v -0.01031394 0.35500357 -0.21119313
v -0.01021277 0.34500614 -0.21077932
v -0.01003573 0.32832277 -0.21012209
v -0.00917121 0.30500072 -0.20639293
v -0.00613391 0.31501389 -0.21499532
v -0.00356105 0.30571032 -0.21525334
v -0.00274481 0.29500329 -0.21209377
v -0.00322996 0.28609392 -0.20728384
v -0.00924939 0.44715640 -0.20435795
v -0.01001274 0.42064905 -0.21004419
v 0.01283949 0.37499839 -0.21499532
v 0.01269234 0.38499582 -0.21499532
v 0.01242333 0.39499322 -0.21499532
v 0.01162549 0.42498547 -0.21412387
v 0.01305102 0.31501389 -0.20499571
v 0.01131509 0.43499866 -0.21274127
v 0.01071729 0.44499606 -0.21108116
v 0.01174965 0.44715640 -0.20696738
v 0.01304642 0.28609392 -0.19500096
v -0.00885852 0.37499839 -0.21663108
v -0.00878264 0.36500096 -0.21652885
v -0.01017828 0.40499064 -0.21064787
v -0.01028175 0.39499322 -0.21105681
v -0.01036912 0.38499582 -0.21143168
v -0.00853892 0.35500357 -0.21619293
v -0.00823312 0.34500614 -0.21577913
v -0.00785145 0.33500874 -0.21537505
v -0.00789743 0.32499555 -0.21407034
v -0.00239763 0.32501131 -0.22144103
v -0.00135607 0.31501389 -0.22077893
v -0.00037429 0.30951059 -0.22020446
v -0.00116523 0.28830156 -0.21070142
v 0.00309758 0.28609392 -0.20858856
v -0.00851133 0.44715640 -0.20585741
v -0.00879414 0.44499606 -0.20628582
v -0.00772499 0.42438626 -0.21402651
v -0.00768820 0.41498804 -0.21525334
v -0.00810206 0.40499064 -0.21564768
v -0.00844005 0.39499322 -0.21605662
v -0.00870677 0.38499582 -0.21643148
v 0.01077477 0.37499839 -0.22097853
v 0.01276362 0.36500096 -0.21499532
v 0.01072648 0.36500096 -0.22090064
v 0.01067820 0.38499582 -0.22082275
v 0.01049196 0.39499322 -0.22056472
v 0.01208534 0.40499064 -0.21499532
v 0.01024824 0.40499064 -0.22027262
v 0.01007350 0.41117200 -0.22007789
v 0.01288088 0.30500072 -0.20499571
v 0.00961365 0.41784221 -0.21965434
v 0.00891467 0.42498547 -0.21912369
v 0.01054484 0.44715640 -0.21078905
v 0.01289008 0.28609392 -0.19613042
v -0.00385765 0.37499839 -0.22311574
v -0.00378178 0.36500096 -0.22298430
v -0.00353806 0.35500357 -0.22258995
v -0.00323226 0.34500614 -0.22220050
v -0.00285058 0.33500874 -0.22181588
v 0.00499905 0.36500096 -0.22388494
v 0.00428859 0.32501131 -0.22144103
v 0.00238251 0.31501389 -0.22077893
v 0.00063738 0.30951059 -0.22020446
v 0.00204912 0.28830156 -0.21070142
v 0.00416903 0.28609392 -0.20858856
v -0.00460951 0.44715640 -0.21135865
v -0.00379327 0.44499606 -0.21334495
v -0.00447155 0.43531403 -0.21573532
v -0.00219759 0.42498547 -0.22129011
v -0.00268733 0.41498804 -0.22166984
v -0.00310120 0.40499064 -0.22205931
v -0.00343919 0.39499322 -0.22245365
v -0.00370590 0.38499582 -0.22285286
v 0.00499905 0.37499839 -0.22409429
v 0.01252220 0.35500357 -0.21499532
v 0.01056094 0.35500357 -0.22065723
v 0.00499905 0.38499582 -0.22367561
v 0.00499905 0.39499322 -0.22301838
v 0.00499905 0.40499064 -0.22233194
v 0.00576700 0.41470420 -0.22138260
v 0.00391381 0.42498547 -0.22129011
v 0.01165078 0.29494023 -0.20540464
v 0.01098400 0.30500072 -0.21173352
v 0.01143465 0.31501389 -0.21327679
v 0.01165768 0.32501131 -0.21440138
v 0.01220720 0.34500614 -0.21499532
v 0.00227215 0.43219182 -0.22073512
v 0.00536234 0.43531403 -0.21793580
v 0.00489789 0.44715640 -0.21371007
v 0.01123232 0.28609392 -0.20277086
v 0.01034021 0.34500614 -0.22037485
v 0.01014247 0.33761057 -0.22015092
v 0.00984357 0.33094037 -0.21984908
v 0.00499905 0.35500357 -0.22324719
v 0.00499905 0.34500614 -0.22258022
v 0.00590496 0.33456719 -0.22154814
v 0.00928945 0.32501131 -0.21940118
v 0.00738338 0.31501389 -0.21827659
v 0.01047127 0.29822013 -0.21062353
v 0.00871464 0.29154992 -0.20900723
v 0.00522898 0.29494023 -0.21204996
v 0.00581529 0.28609392 -0.20778041
v -0.00341160 0.44715640 -0.21292140
v -0.00128939 0.43219182 -0.22073512
v 0.01149673 0.33456719 -0.21591057
v 0.00347005 0.44715640 -0.21376850
v 0.01077477 0.28609392 -0.20352545
f 1 2 6
f 1 6 14
f 1 14 27
f 1 27 44
f 1 44 69
f 1 69 100
f 1 100 137
f 1 137 142
f 1 142 125
f 1 125 89
f 1 89 55
f 1 55 32
f 1 32 20
f 1 20 17
f 1 17 10
f 1 10 3
f 1 3 4
f 1 4 5
f 1 5 2
f 2 5 7
f 2 7 8
f 2 8 9
f 2 9 6
f 3 10 11
f 3 11 4
f 4 11 19
f 4 19 31
f 4 31 54
f 4 54 88
f 4 88 124
f 4 124 141
f 4 141 138
f 4 138 101
f 4 101 70
f 4 70 45
f 4 45 28
f 4 28 16
f 4 16 15
f 4 15 9
f 4 9 8
f 4 8 7
f 4 7 5
f 6 12 13
f 6 13 14
f 6 9 15
f 6 15 16
f 6 16 12
f 10 17 18
f 10 18 11
f 11 18 17
f 11 17 20
f 11 20 19
f 12 21 25
f 12 25 13
f 12 16 22
f 12 22 23
f 12 23 24
f 12 24 34
f 12 34 21
f 13 25 14
f 14 26 27
f 14 25 26
f 16 28 35
f 16 35 22
f 19 29 30
f 19 30 31
f 19 20 32
f 19 32 33
f 19 33 29
f 21 34 25
f 22 35 36
f 22 36 23
f 23 36 34
f 23 34 24
f 25 34 37
f 25 37 38
f 25 38 39
f 25 39 40
f 25 40 26
f 26 40 41
f 26 41 42
f 26 42 43
f 26 43 27
f 27 43 44
f 28 45 46
f 28 46 35
f 29 47 48
f 29 48 49
f 29 49 50
f 29 50 30
f 29 33 51
f 29 51 47
f 30 50 52
f 30 52 53
f 30 53 31
f 31 53 54
f 32 55 33
f 33 55 51
f 34 36 56
f 34 56 57
f 34 57 37
f 35 46 58
f 35 58 59
f 35 59 60
f 35 60 36
f 36 60 56
f 37 57 39
f 37 39 38
f 39 57 61
f 39 61 62
f 39 62 63
f 39 63 64
f 39 64 40
f 40 64 41
f 41 64 65
f 41 65 66
f 41 66 42
f 42 66 67
f 42 67 43
f 43 67 68
f 43 68 44
f 44 68 69
f 45 70 71
f 45 71 46
f 46 71 72
f 46 72 73
f 46 73 74
f 46 74 75
f 46 75 76
f 46 76 59
f 46 59 58
f 47 77 48
f 47 51 78
f 47 78 79
f 47 79 77
f 48 77 80
f 48 80 49
f 49 80 81
f 49 81 82
f 49 82 50
f 50 82 83
f 50 83 84
f 50 84 52
f 51 55 85
f 51 85 78
f 52 84 86
f 52 86 87
f 52 87 53
f 53 87 88
f 53 88 54
f 55 89 85
f 56 60 59
f 56 59 76
f 56 76 90
f 56 90 57
f 57 90 91
f 57 91 61
f 61 91 92
f 61 92 93
f 61 93 62
f 62 93 94
f 62 94 63
f 63 94 65
f 63 65 64
f 65 94 93
f 65 93 95
f 65 95 96
f 65 96 97
f 65 97 66
f 66 97 98
f 66 98 67
f 67 98 99
f 67 99 68
f 68 99 100
f 68 100 69
f 70 101 102
f 70 102 71
f 71 102 103
f 71 103 72
f 72 103 104
f 72 104 73
f 73 105 74
f 73 104 105
f 74 105 106
f 74 106 75
f 75 106 107
f 75 107 108
f 75 108 76
f 76 108 90
f 77 109 80
f 77 79 109
f 78 85 110
f 78 110 79
f 79 95 109
f 79 110 111
f 79 111 95
f 80 109 81
f 81 109 83
f 81 83 82
f 83 109 112
f 83 112 84
f 84 112 113
f 84 113 114
f 84 114 115
f 84 115 116
f 84 116 86
f 85 89 117
f 85 117 118
f 85 118 119
f 85 119 120
f 85 120 121
f 85 121 110
f 86 116 87
f 87 116 122
f 87 122 123
f 87 123 88
f 88 123 122
f 88 122 124
f 89 125 117
f 90 108 109
f 90 109 91
f 91 109 95
f 91 95 92
f 92 95 93
f 95 111 126
f 95 126 127
f 95 127 128
f 95 128 129
f 95 129 96
f 96 129 130
f 96 130 131
f 96 131 128
f 96 128 132
f 96 132 97
f 97 132 133
f 97 133 98
f 98 133 134
f 98 134 135
f 98 135 136
f 98 136 99
f 99 136 135
f 99 135 100
f 100 135 137
f 101 138 102
f 102 139 103
f 102 138 139
f 103 139 104
f 104 139 122
f 104 122 116
f 104 116 112
f 104 112 106
f 104 106 105
f 106 112 107
f 107 112 108
f 108 112 109
f 110 121 111
f 111 121 126
f 112 116 113
f 113 116 114
f 114 116 115
f 117 134 118
f 117 125 134
f 118 134 132
f 118 132 128
f 118 128 119
f 119 128 120
f 120 128 127
f 120 127 140
f 120 140 121
f 121 140 127
f 121 127 126
f 122 141 124
f 122 139 141
f 125 142 134
f 128 131 130
f 128 130 129
f 132 134 133
f 134 142 135
f 135 142 137
f 138 141 139

