# https://github.com/mikedh/trimesh
v 0.00347214 0.44717216 -0.21375602
v 0.00489823 0.44717216 -0.21371025
v -0.00341108 0.44717216 -0.21291691
v -0.00203306 0.45500323 -0.21139127
v -0.00053830 0.46076977 -0.21029282
v 0.00093815 0.46076977 -0.21029282
v 0.00456174 0.45451584 -0.21128449
v 0.01025235 0.45085222 -0.21029282
v 0.01054535 0.44717216 -0.21078101
v -0.00461055 0.44717216 -0.21136075
v -0.00377961 0.46446076 -0.20536497
v -0.00252979 0.47500259 -0.20210010
v -0.00074660 0.48047888 -0.20051342
v 0.00128609 0.48047888 -0.20051342
v 0.00477004 0.47492594 -0.20213062
v 0.00456174 0.46446076 -0.20693639
v 0.01174940 0.44717216 -0.20696691
v 0.01054993 0.47154158 -0.20075753
v 0.01109015 0.46500292 -0.20196280
v 0.01144267 0.45451584 -0.20510562
v -0.00851111 0.44717216 -0.20585319
v -0.00750621 0.45487729 -0.20432754
v -0.00764127 0.47461379 -0.19456342
v -0.00258243 0.48243392 -0.19499061
v -0.00212462 0.49169976 -0.18251082
v -0.00104876 0.50067538 -0.17099221
v 0.00794955 0.47820073 -0.19824022
v 0.00190642 0.50067538 -0.17099221
v 0.00499895 0.49149713 -0.18220571
v 0.01022030 0.49029237 -0.18043596
v 0.01236058 0.44717216 -0.20501408
v 0.01057282 0.48096627 -0.19157316
v 0.01145869 0.47492594 -0.19494483
v 0.01290538 0.46500292 -0.19499061
v -0.00925048 0.44717216 -0.20435806
v -0.01015008 0.45146009 -0.20054394
v -0.00932144 0.46500292 -0.19575343
v -0.01021875 0.47101587 -0.19096290
v -0.00936264 0.47768050 -0.18691994
v -0.00379793 0.49501839 -0.17459273
v -0.00792511 0.49445981 -0.16508797
v -0.00253894 0.50176513 -0.16499643
v 0.00514316 0.50165564 -0.16490489
v 0.00857218 0.49893391 -0.16818503
v 0.01035765 0.50041252 -0.16151796
v 0.01084293 0.49191880 -0.17498940
v 0.01114967 0.48458061 -0.18425006
v 0.01301983 0.45500323 -0.19499061
v 0.01282297 0.44717216 -0.19499061
v 0.01259406 0.48499680 -0.17498940
v 0.01302670 0.47500259 -0.18499763
v -0.01022791 0.44717216 -0.20103215
v -0.01030345 0.49113572 -0.15498820
v -0.01020273 0.49076331 -0.16180784
v -0.01004250 0.48017222 -0.18025288
v -0.00895977 0.48596063 -0.17498940
v -0.00982274 0.48777327 -0.16847490
v -0.00849509 0.49613553 -0.15498820
v -0.00349348 0.50250447 -0.15498820
v 0.00499895 0.50311780 -0.15498820
v 0.01153881 0.49535793 -0.16490489
v 0.01053162 0.50060964 -0.15498820
v 0.01248190 0.49499649 -0.15498820
v 0.01308164 0.48499680 -0.16499643
v 0.01302899 0.45500323 -0.07501394
v 0.01300152 0.44717216 -0.07501394
v -0.01022791 0.44717216 -0.19781303
v -0.01026911 0.46500292 -0.08282523
v -0.01030345 0.48833734 -0.15498820
v -0.01026911 0.46500292 -0.07866022
v -0.01027369 0.48126745 -0.09760872
v -0.01028285 0.49105355 -0.12500930
v -0.00844015 0.49605340 -0.12500930
v -0.00343854 0.50243324 -0.12500930
v 0.01051788 0.50059325 -0.14499524
v 0.00499895 0.50299186 -0.12500930
v 0.01049041 0.50055492 -0.12500930
v 0.01246359 0.49499649 -0.14499524
v 0.01306790 0.48499680 -0.10500810
v 0.01293971 0.47500259 -0.08500691
v 0.01274514 0.46500292 -0.07501394
v 0.01201951 0.44717216 -0.06605840
v -0.00952288 0.44717216 -0.07481560
v -0.01016382 0.45838210 -0.07895009
v -0.00801896 0.44717216 -0.06517353
v -0.01019357 0.47085705 -0.07927048
v -0.01005165 0.49018830 -0.10966131
v -0.01017755 0.49066475 -0.11500107
v -0.00816089 0.49566460 -0.11500107
v -0.00315928 0.50219780 -0.11500107
v 0.01242467 0.49499649 -0.12500930
v 0.00499895 0.50255376 -0.11500107
v 0.01031416 0.50035775 -0.11500107
v 0.01215228 0.49499649 -0.11500107
v 0.01116111 0.48263654 -0.08500691
v 0.01052704 0.48078007 -0.07853817
v 0.01130303 0.47468498 -0.07512073
v 0.01182952 0.48563752 -0.09451167
v 0.01035307 0.47114182 -0.06956738
v 0.01174024 0.44717216 -0.06468532
v -0.00270147 0.44717216 -0.05797248
v -0.00394214 0.46500292 -0.06639405
v -0.00894374 0.46500292 -0.07365611
v -0.00736658 0.47451520 -0.07556316
v -0.00846762 0.48476133 -0.09457269
v -0.00945192 0.48793209 -0.10299425
v -0.00568869 0.49484861 -0.10526746
v -0.00192776 0.50131613 -0.10752541
v 0.00499895 0.50106966 -0.10798310
v 0.01009670 0.50010586 -0.10979863
v 0.01114967 0.49465695 -0.10587771
v 0.00473342 0.48217106 -0.07512073
v 0.00788775 0.47780645 -0.07187111
v 0.00928637 0.48939973 -0.09085012
v 0.00122428 0.48044601 -0.06958264
v 0.00473342 0.47468498 -0.06845366
v 0.00954732 0.44930243 -0.06039826
v 0.01084293 0.44717216 -0.06259519
v 0.00508822 0.44717216 -0.05791146
v -0.00157982 0.45266488 -0.05900992
v -0.00227112 0.47500259 -0.06837738
v -0.00434501 0.48542944 -0.08499165
v -0.00071685 0.48044601 -0.06958264
v -0.00247485 0.48212177 -0.07501394
v -0.00316843 0.49283883 -0.09501513
v -0.00143790 0.49093857 -0.08831755
v 0.00261832 0.49093857 -0.08831755
v 0.00288156 0.45266488 -0.05900992
v 0.00736355 0.44717216 -0.05879633
f 1 2 9
f 1 9 17
f 1 17 31
f 1 31 49
f 1 49 66
f 1 66 82
f 1 82 100
f 1 100 118
f 1 118 129
f 1 129 119
f 1 119 101
f 1 101 85
f 1 85 83
f 1 83 67
f 1 67 52
f 1 52 35
f 1 35 21
f 1 21 10
f 1 10 3
f 1 3 4
f 1 4 5
f 1 5 6
f 1 6 2
f 2 7 8
f 2 8 9
f 2 6 7
f 3 10 11
f 3 11 4
f 4 11 12
f 4 12 5
f 5 12 13
f 5 13 14
f 5 14 6
f 6 8 7
f 6 14 15
f 6 15 16
f 6 16 8
f 8 17 9
f 8 16 15
f 8 15 18
f 8 18 19
f 8 19 20
f 8 20 17
f 10 21 22
f 10 22 11
f 11 22 23
f 11 23 12
f 12 23 13
f 13 23 24
f 13 24 25
f 13 25 26
f 13 26 28
f 13 28 14
f 14 27 15
f 14 28 29
f 14 29 30
f 14 30 27
f 15 27 18
f 17 20 31
f 18 27 32
f 18 32 33
f 18 33 34
f 18 34 19
f 19 31 20
f 19 34 31
f 21 35 22
f 22 35 36
f 22 36 37
f 22 37 23
f 23 38 39
f 23 39 24
f 23 37 38
f 24 39 40
f 24 40 25
f 25 40 26
f 26 40 41
f 26 41 42
f 26 42 28
f 27 30 32
f 28 42 43
f 28 43 44
f 28 44 30
f 28 30 29
f 30 44 45
f 30 45 46
f 30 46 47
f 30 47 32
f 31 34 48
f 31 48 49
f 32 47 33
f 33 47 50
f 33 50 51
f 33 51 34
f 34 51 48
f 35 52 36
f 36 52 38
f 36 38 37
f 38 52 53
f 38 53 54
f 38 54 55
f 38 55 39
f 39 55 56
f 39 56 41
f 39 41 40
f 41 56 55
f 41 55 57
f 41 57 54
f 41 54 58
f 41 58 42
f 42 58 59
f 42 59 60
f 42 60 43
f 43 60 45
f 43 45 44
f 45 61 46
f 45 60 62
f 45 62 63
f 45 63 61
f 46 50 47
f 46 61 50
f 48 51 64
f 48 64 65
f 48 65 66
f 48 66 49
f 50 61 63
f 50 63 64
f 50 64 51
f 52 67 70
f 52 70 68
f 52 68 69
f 52 69 53
f 53 58 54
f 53 69 70
f 53 70 71
f 53 71 72
f 53 72 58
f 54 57 55
f 58 72 73
f 58 73 74
f 58 74 59
f 59 74 60
f 60 75 62
f 60 74 76
f 60 76 77
f 60 77 75
f 62 75 78
f 62 78 63
f 63 78 79
f 63 79 64
f 64 79 65
f 65 80 81
f 65 81 82
f 65 82 66
f 65 79 80
f 67 83 84
f 67 84 70
f 68 70 69
f 70 84 83
f 70 83 85
f 70 85 86
f 70 86 71
f 71 86 87
f 71 87 88
f 71 88 72
f 72 88 73
f 73 88 89
f 73 89 90
f 73 90 74
f 74 90 76
f 75 77 91
f 75 91 78
f 76 90 92
f 76 92 93
f 76 93 77
f 77 93 91
f 78 91 79
f 79 91 94
f 79 94 80
f 80 95 96
f 80 96 97
f 80 97 81
f 80 94 98
f 80 98 95
f 81 97 99
f 81 99 100
f 81 100 82
f 85 101 102
f 85 102 103
f 85 103 86
f 86 103 104
f 86 104 105
f 86 105 106
f 86 106 87
f 87 106 107
f 87 107 89
f 87 89 88
f 89 107 108
f 89 108 90
f 90 108 92
f 91 93 94
f 92 108 109
f 92 109 110
f 92 110 93
f 93 110 94
f 94 110 111
f 94 111 98
f 95 98 111
f 95 111 110
f 95 110 96
f 96 112 113
f 96 113 99
f 96 99 97
f 96 110 114
f 96 114 112
f 99 113 115
f 99 115 116
f 99 116 117
f 99 117 118
f 99 118 100
f 101 119 120
f 101 120 121
f 101 121 102
f 102 121 103
f 103 121 104
f 104 122 105
f 104 121 123
f 104 123 124
f 104 124 122
f 105 125 107
f 105 107 106
f 105 122 125
f 107 125 108
f 108 125 126
f 108 126 127
f 108 127 109
f 109 127 110
f 110 127 114
f 112 127 115
f 112 115 113
f 112 114 127
f 115 127 126
f 115 126 123
f 115 123 120
f 115 120 128
f 115 128 116
f 116 128 117
f 117 128 119
f 117 119 129
f 117 129 118
f 119 128 120
f 120 123 121
f 122 124 125
f 123 126 124
f 124 126 125

