# https://github.com/mikedh/trimesh
v 0.00012442 0.43012035 -0.04996242
v 0.00407392 0.43407360 -0.05326457
v 0.01054170 0.44262037 -0.05925326
v 0.00736250 0.44717216 -0.05878967
v 0.00508807 0.44717216 -0.05791188
v -0.00007385 0.43012035 -0.04996242
v 0.00009935 0.42499787 -0.04997382
v 0.00509719 0.42499787 -0.05273637
v 0.01104536 0.43499231 -0.05828428
v 0.01181338 0.44557139 -0.06423497
v 0.01174045 0.44717216 -0.06467196
v 0.01084481 0.44717216 -0.06258960
v -0.00270153 0.44717216 -0.05796888
v -0.00314365 0.44498676 -0.05755469
v -0.00345815 0.43407360 -0.05464014
v -0.00464779 0.42499787 -0.05500113
v -0.00436292 0.34500057 -0.05506193
v -0.00005790 0.42499787 -0.04997382
v 0.00000819 0.41976401 -0.05000042
v 0.00499919 0.34500057 -0.05310497
v 0.01124819 0.42499787 -0.05773709
v 0.01294604 0.43499231 -0.06500256
v 0.01201849 0.44717216 -0.06605514
v -0.00801842 0.44717216 -0.06517356
v -0.00850840 0.44591939 -0.06532175
v -0.00926731 0.43499231 -0.06379798
v -0.00878188 0.33500612 -0.06500256
v -0.00425352 0.33500612 -0.05533173
v -0.00000320 0.41976401 -0.05000042
v 0.00499919 0.33500612 -0.05362176
v 0.01092913 0.33500612 -0.05829187
v 0.01102257 0.34500057 -0.05804488
v 0.01292781 0.42499787 -0.06500256
v 0.01300301 0.44717216 -0.07499638
v -0.00952256 0.44717216 -0.07480258
v -0.01027918 0.44320500 -0.06886709
v -0.00965929 0.42459419 -0.06572074
v -0.00946102 0.41498950 -0.06500256
v -0.00887076 0.34500057 -0.06500256
v -0.00786573 0.30496711 -0.07499638
v -0.00845827 0.32501167 -0.06500256
v -0.01024044 0.43499231 -0.06879869
v -0.01024044 0.43499231 -0.07100265
v -0.00771987 0.31500331 -0.06500256
v -0.00381824 0.32501167 -0.05628931
v -0.00302059 0.31500331 -0.05756989
v -0.00176942 0.30496711 -0.05880487
v 0.00499919 0.32501167 -0.05527473
v 0.00972582 0.31089696 -0.06034004
v 0.01028417 0.31756455 -0.05960665
v 0.01062602 0.32501167 -0.05898726
v 0.01192733 0.32501167 -0.06500256
v 0.01212332 0.33500612 -0.06500256
v 0.01299390 0.44498676 -0.07499638
v 0.01267940 0.44717216 -0.07712815
v -0.01027918 0.44320500 -0.07119265
v -0.00462728 0.44717216 -0.08525240
v -0.00337611 0.30496711 -0.08342084
v -0.00625676 0.30496711 -0.06499876
v -0.00626587 0.30500886 -0.06500256
v -0.00177626 0.30500886 -0.05880107
v 0.00318055 0.30496711 -0.05880487
v 0.00583558 0.31454396 -0.05782069
v 0.00818066 0.30496711 -0.06155982
v 0.01114563 0.30496711 -0.06656053
v 0.01114791 0.30500886 -0.06655293
v 0.01124819 0.31454396 -0.06420457
v 0.01144874 0.30496711 -0.07499638
v 0.01120717 0.44717216 -0.08274825
v 0.01030241 0.30496711 -0.08060129
v -0.00230954 0.44717216 -0.08793896
v 0.00499919 0.30496711 -0.08402123
v 0.00200915 0.44717216 -0.08877874
v 0.01016795 0.44717216 -0.08404402
v 0.00554615 0.44717216 -0.08752856
v 0.00296861 0.44717216 -0.08877874
v 0.00473027 0.44717216 -0.08802636
f 1 2 3
f 1 3 4
f 1 4 5
f 1 5 6
f 1 6 18
f 1 18 7
f 1 7 8
f 1 8 2
f 2 8 9
f 2 9 3
f 3 9 10
f 3 10 11
f 3 11 12
f 3 12 4
f 4 12 11
f 4 11 23
f 4 23 34
f 4 34 55
f 4 55 69
f 4 69 74
f 4 74 75
f 4 75 77
f 4 77 76
f 4 76 73
f 4 73 71
f 4 71 57
f 4 57 35
f 4 35 24
f 4 24 13
f 4 13 5
f 5 13 6
f 6 13 14
f 6 14 15
f 6 15 16
f 6 16 17
f 6 17 18
f 7 18 29
f 7 29 19
f 7 19 20
f 7 20 8
f 8 21 9
f 8 20 21
f 9 22 10
f 9 21 22
f 10 22 23
f 10 23 11
f 13 24 14
f 14 24 25
f 14 25 15
f 15 26 16
f 15 25 26
f 16 26 17
f 17 27 28
f 17 28 29
f 17 29 18
f 17 26 27
f 19 29 20
f 20 30 31
f 20 31 32
f 20 32 21
f 20 29 30
f 21 33 22
f 21 32 33
f 22 34 23
f 22 33 34
f 24 35 36
f 24 36 25
f 25 36 26
f 26 36 37
f 26 37 38
f 26 38 39
f 26 39 27
f 27 40 41
f 27 41 28
f 27 39 42
f 27 42 43
f 27 43 40
f 28 41 44
f 28 44 45
f 28 45 30
f 28 30 29
f 30 45 46
f 30 46 47
f 30 47 48
f 30 48 49
f 30 49 50
f 30 50 51
f 30 51 31
f 31 51 52
f 31 52 53
f 31 53 32
f 32 53 33
f 33 54 34
f 33 53 54
f 34 54 55
f 35 43 56
f 35 56 36
f 35 57 40
f 35 40 43
f 36 56 43
f 36 43 42
f 36 42 37
f 37 42 39
f 37 39 38
f 40 58 72
f 40 72 70
f 40 70 68
f 40 68 65
f 40 65 64
f 40 64 62
f 40 62 47
f 40 47 59
f 40 59 60
f 40 60 44
f 40 44 41
f 40 57 58
f 44 60 45
f 45 60 59
f 45 59 46
f 46 59 61
f 46 61 47
f 47 62 48
f 47 61 59
f 48 62 63
f 48 63 49
f 49 62 64
f 49 64 65
f 49 65 50
f 49 63 62
f 50 65 66
f 50 66 67
f 50 67 51
f 51 67 52
f 52 67 66
f 52 66 68
f 52 68 53
f 53 68 54
f 54 68 55
f 55 68 70
f 55 70 69
f 57 71 58
f 58 71 73
f 58 73 72
f 65 68 66
f 69 70 74
f 70 72 75
f 70 75 74
f 72 76 77
f 72 77 75
f 72 73 76

