# https://github.com/mikedh/trimesh
v -0.00499800 0.12435475 -0.06439032
v -0.01029227 0.16186564 -0.06975286
v -0.01271939 0.12435475 -0.06707159
v 0.00154995 0.12435475 -0.06687676
v 0.00122615 0.16500421 -0.06924722
v 0.00060069 0.17499220 -0.06966936
v 0.00016065 0.18094745 -0.06991985
v -0.00038732 0.18094745 -0.06991985
v -0.01079042 0.15500727 -0.06932145
v -0.00884486 0.16853623 -0.07040694
v -0.00499800 0.19499503 -0.07382115
v -0.00595280 0.20585933 -0.07675755
v -0.00992419 0.20976689 -0.08022279
v -0.01050537 0.20309632 -0.07913265
v -0.01096755 0.19499503 -0.07826518
v -0.01525720 0.13500445 -0.07500406
v -0.01609576 0.12500751 -0.07500406
v -0.01614834 0.12435475 -0.07500406
v -0.01436053 0.14500138 -0.07500406
v 0.00228611 0.12435475 -0.06725251
v 0.00166065 0.15500727 -0.06883900
v 0.00958406 0.20499198 -0.08126653
v 0.00468555 0.19499503 -0.07556073
v 0.00458315 0.20499198 -0.07659983
v 0.00291434 0.21499786 -0.07842290
v 0.00267910 0.21570426 -0.07856671
v -0.00279783 0.21570426 -0.07856671
v -0.00306351 0.21499786 -0.07842290
v -0.00719542 0.21570426 -0.08219431
v -0.00783471 0.21570426 -0.08277416
v -0.01038913 0.21570426 -0.08784445
v -0.01117234 0.20585933 -0.08413336
v -0.01241496 0.19499503 -0.08500082
v -0.01641126 0.12500751 -0.08500082
v -0.01644170 0.12435475 -0.08500082
v -0.01429134 0.16500421 -0.08500082
v -0.01490019 0.15500727 -0.08500082
v -0.01543432 0.14500138 -0.08500082
v 0.00542171 0.12435475 -0.07432678
v 0.00968646 0.19499503 -0.08215719
v 0.01076302 0.20499198 -0.08626723
v 0.01082114 0.21499786 -0.08725067
v 0.01081837 0.21570426 -0.08733881
v 0.00811451 0.21570426 -0.08269066
v 0.00791525 0.21499786 -0.08224997
v 0.00303611 0.21570426 -0.07879865
v -0.01074614 0.21570426 -0.09503934
v -0.01142419 0.20499198 -0.09499758
v -0.01034209 0.21570426 -0.10118120
v -0.01291311 0.12435475 -0.09492800
v 0.00559330 0.12435475 -0.07500406
v 0.00561544 0.12500751 -0.07500406
v 0.01045029 0.19499503 -0.08715790
v 0.01182575 0.21570426 -0.09499758
v 0.01092907 0.21570426 -0.08779342
v 0.00766617 0.21570426 -0.08234275
v -0.00746110 0.21570426 -0.10618190
v -0.01255334 0.12435475 -0.09548931
v 0.00631562 0.12435475 -0.08435602
v 0.00696322 0.13500445 -0.08500082
v 0.00751672 0.14500138 -0.08500082
v 0.01013756 0.18796678 -0.08879078
v 0.01178700 0.21499786 -0.09499758
v 0.01182575 0.21570426 -0.09570269
v -0.00249063 0.21570426 -0.11177638
v -0.00871478 0.12435475 -0.09986376
v 0.00635436 0.12435475 -0.08500082
v 0.01088479 0.21570426 -0.10466035
v 0.00454441 0.21570426 -0.11139135
v 0.00028519 0.12435475 -0.10017920
v -0.00371941 0.12435475 -0.10017920
v 0.00330456 0.12435475 -0.09499758
v 0.01086819 0.21570426 -0.10472994
v 0.00466341 0.21570426 -0.11135888
v 0.00459145 0.21565062 -0.11137280
v 0.00765233 0.21275346 -0.10776839
f 1 2 3
f 1 3 18
f 1 18 35
f 1 35 50
f 1 50 58
f 1 58 66
f 1 66 71
f 1 71 70
f 1 70 72
f 1 72 67
f 1 67 59
f 1 59 51
f 1 51 39
f 1 39 20
f 1 20 4
f 1 4 5
f 1 5 6
f 1 6 7
f 1 7 8
f 1 8 2
f 2 9 3
f 2 8 10
f 2 10 11
f 2 11 12
f 2 12 13
f 2 13 14
f 2 14 15
f 2 15 9
f 3 16 17
f 3 17 18
f 3 9 19
f 3 19 16
f 4 20 21
f 4 21 5
f 5 21 22
f 5 22 23
f 5 23 6
f 6 23 7
f 7 23 24
f 7 24 25
f 7 25 26
f 7 26 27
f 7 27 8
f 8 27 28
f 8 28 11
f 8 11 10
f 9 15 19
f 11 28 12
f 12 28 13
f 13 28 27
f 13 27 29
f 13 29 30
f 13 30 31
f 13 31 32
f 13 32 14
f 14 32 33
f 14 33 17
f 14 17 16
f 14 16 15
f 15 16 19
f 17 33 18
f 18 34 35
f 18 33 36
f 18 36 37
f 18 37 38
f 18 38 34
f 20 39 22
f 20 22 21
f 22 40 41
f 22 41 42
f 22 42 43
f 22 43 44
f 22 44 45
f 22 45 24
f 22 24 23
f 22 39 40
f 24 45 25
f 25 45 46
f 25 46 26
f 26 46 56
f 26 56 44
f 26 44 43
f 26 43 55
f 26 55 54
f 26 54 64
f 26 64 68
f 26 68 73
f 26 73 74
f 26 74 69
f 26 69 65
f 26 65 57
f 26 57 49
f 26 49 47
f 26 47 31
f 26 31 30
f 26 30 29
f 26 29 27
f 31 47 33
f 31 33 32
f 33 47 48
f 33 48 36
f 34 38 49
f 34 49 35
f 35 49 50
f 36 48 37
f 37 48 38
f 38 48 49
f 39 51 52
f 39 52 40
f 40 52 51
f 40 51 41
f 41 51 53
f 41 53 54
f 41 54 55
f 41 55 42
f 42 55 43
f 44 56 45
f 45 56 46
f 47 49 48
f 49 57 50
f 50 57 58
f 51 59 60
f 51 60 61
f 51 61 53
f 53 62 54
f 53 61 60
f 53 60 62
f 54 62 63
f 54 63 64
f 57 65 66
f 57 66 58
f 59 67 60
f 60 67 62
f 62 67 63
f 63 67 64
f 64 67 68
f 65 69 70
f 65 70 71
f 65 71 66
f 67 72 73
f 67 73 68
f 69 74 75
f 69 75 70
f 70 75 74
f 70 74 76
f 70 76 73
f 70 73 72
f 73 76 74

