# https://github.com/mikedh/trimesh
v -0.00499980 0.20584863 0.08806008
v -0.01124110 0.20844409 0.08806008
v -0.00278471 0.20611298 0.08806008
v -0.00499980 0.20621872 0.11500020
v -0.01127060 0.20861232 0.11500020
v -0.01203090 0.21023208 0.08806008
v 0.00280975 0.20741072 0.08806008
v 0.00276890 0.20761259 0.11500020
v 0.00212889 0.20824704 0.12500307
v -0.00499980 0.20743474 0.12500307
v -0.01072818 0.20919390 0.12500307
v -0.01332682 0.21500006 0.12500307
v -0.01400769 0.21500006 0.11500020
v -0.01386017 0.21500006 0.08806008
v 0.00721724 0.21500006 0.08806008
v 0.00735795 0.21500006 0.11500020
v 0.00658630 0.21500006 0.12500307
v 0.00092375 0.20936693 0.13200811
v 0.00342027 0.21647082 0.14499871
v 0.00229229 0.21808578 0.15499149
v -0.00499980 0.20948228 0.13163464
v -0.01005866 0.20994851 0.13017106
v -0.01088251 0.21901824 0.15499149
v -0.01170863 0.21769646 0.14499871
v -0.01335179 0.22500223 0.15499149
v -0.01432543 0.22500223 0.14499871
v -0.01440713 0.22500223 0.13500594
v -0.01452061 0.22500223 0.10500742
v -0.01418926 0.21806176 0.08806008
v 0.00806379 0.22500223 0.08806008
v 0.00810691 0.22500223 0.13500594
v 0.00788676 0.22500223 0.14499871
v 0.00661581 0.22500223 0.15499149
v 0.00105084 0.21926817 0.16119912
v -0.00499980 0.21710527 0.15499149
v -0.01019710 0.21981610 0.16028060
v -0.01111173 0.22580971 0.16416669
v -0.01361052 0.23499960 0.16499436
v -0.01474984 0.23499960 0.15499149
v -0.01453650 0.22500223 0.08806008
v 0.00609835 0.23193790 0.08806008
v 0.00829755 0.25494626 0.17499724
v 0.00843599 0.24499696 0.16499436
v 0.00830890 0.23499960 0.15499149
v 0.00707426 0.23499960 0.16499436
v 0.00291415 0.22522333 0.16471174
v 0.00114390 0.22870798 0.17103040
v -0.00499980 0.22379102 0.16611476
v -0.00499980 0.21931623 0.16111839
v -0.01021979 0.22968368 0.17025319
v -0.01113897 0.23499960 0.17225175
v -0.01228737 0.25491261 0.18521208
v -0.01229417 0.25494626 0.18521208
v -0.01464544 0.25494626 0.17499724
v -0.01465452 0.25494626 0.17494677
v -0.01473849 0.24499696 0.16499436
v -0.01198778 0.23478812 0.08806008
v 0.00452100 0.23526394 0.08806008
v 0.00707880 0.25494626 0.16499436
v 0.00633665 0.24499696 0.17499724
v 0.00458228 0.25494626 0.18578741
v 0.00249655 0.23570134 0.17461368
v 0.00212208 0.24499696 0.18260789
v 0.00048572 0.23950322 0.18038729
v -0.00171348 0.23950322 0.18038729
v -0.00499980 0.22878969 0.17095976
v -0.00502704 0.24438174 0.18330437
v -0.00837918 0.24063754 0.17940819
v -0.01116166 0.24730405 0.18203256
v -0.01227148 0.25494626 0.18528274
v -0.01362867 0.25494626 0.16499436
v -0.00652949 0.23958974 0.08806008
v -0.01361733 0.25494626 0.16494390
v 0.00200179 0.23997425 0.08806008
v 0.00674517 0.25494626 0.16429791
v 0.00081481 0.24097398 0.08806008
v 0.00434171 0.25420126 0.18584798
v 0.00369488 0.25494626 0.18743269
v -0.00061955 0.25494626 0.19070306
v -0.00499980 0.25139430 0.18883571
v -0.00499980 0.25494626 0.19117746
v -0.00229903 0.24121910 0.08806008
v -0.01116166 0.25494626 0.15766633
v 0.00240123 0.25494626 0.15569806
v -0.01071910 0.25494626 0.15738371
v -0.00568067 0.25494626 0.15417391
v -0.00513598 0.25494626 0.15402250
f 1 2 6
f 1 6 14
f 1 14 29
f 1 29 40
f 1 40 57
f 1 57 72
f 1 72 82
f 1 82 76
f 1 76 74
f 1 74 58
f 1 58 41
f 1 41 30
f 1 30 15
f 1 15 7
f 1 7 3
f 1 3 4
f 1 4 5
f 1 5 2
f 2 5 6
f 3 7 8
f 3 8 4
f 4 8 9
f 4 9 10
f 4 10 11
f 4 11 5
f 5 11 12
f 5 12 13
f 5 13 6
f 6 13 14
f 7 15 16
f 7 16 8
f 8 16 17
f 8 17 9
f 9 18 10
f 9 17 19
f 9 19 20
f 9 20 18
f 10 18 21
f 10 21 22
f 10 22 11
f 11 22 23
f 11 23 24
f 11 24 12
f 12 24 25
f 12 25 26
f 12 26 13
f 13 26 27
f 13 27 28
f 13 28 29
f 13 29 14
f 15 30 16
f 16 31 32
f 16 32 17
f 16 30 31
f 17 32 33
f 17 33 19
f 18 20 34
f 18 34 35
f 18 35 21
f 19 33 20
f 20 33 34
f 21 35 22
f 22 35 36
f 22 36 23
f 23 36 25
f 23 25 24
f 25 36 37
f 25 37 38
f 25 38 39
f 25 39 26
f 26 39 27
f 27 39 28
f 28 40 29
f 28 39 40
f 30 41 42
f 30 42 43
f 30 43 44
f 30 44 31
f 31 44 32
f 32 44 45
f 32 45 33
f 33 45 46
f 33 46 34
f 34 46 47
f 34 47 48
f 34 48 49
f 34 49 35
f 35 49 36
f 36 49 48
f 36 48 50
f 36 50 37
f 37 50 38
f 38 50 51
f 38 51 52
f 38 52 53
f 38 53 54
f 38 54 55
f 38 55 56
f 38 56 39
f 39 56 40
f 40 56 55
f 40 55 57
f 41 58 59
f 41 59 42
f 42 60 45
f 42 45 43
f 42 59 75
f 42 75 84
f 42 84 87
f 42 87 86
f 42 86 85
f 42 85 83
f 42 83 73
f 42 73 71
f 42 71 55
f 42 55 54
f 42 54 53
f 42 53 70
f 42 70 81
f 42 81 79
f 42 79 78
f 42 78 61
f 42 61 60
f 43 45 44
f 45 60 62
f 45 62 46
f 46 62 47
f 47 62 63
f 47 63 64
f 47 64 65
f 47 65 66
f 47 66 48
f 48 66 50
f 50 66 65
f 50 65 67
f 50 67 68
f 50 68 69
f 50 69 51
f 51 69 70
f 51 70 52
f 52 70 53
f 55 71 57
f 57 71 73
f 57 73 72
f 58 74 59
f 59 74 76
f 59 76 75
f 60 61 77
f 60 77 62
f 61 78 77
f 62 77 63
f 63 77 78
f 63 78 79
f 63 79 64
f 64 79 80
f 64 80 65
f 65 80 67
f 67 80 68
f 68 80 69
f 69 80 81
f 69 81 70
f 72 73 83
f 72 83 82
f 75 76 84
f 76 82 84
f 79 81 80
f 82 83 85
f 82 85 86
f 82 86 87
f 82 87 84

