# https://github.com/mikedh/trimesh
v 0.00581078 0.12435474 0.02894742
v 0.00988914 0.09004220 0.01997070
v 0.01078408 0.09671924 0.02076536
v 0.01140414 0.10499135 0.02158946
v 0.01181965 0.12435474 0.02376741
v -0.00412303 0.12435474 0.02585708
v -0.01240121 -0.06512466 -0.00784241
v -0.00499879 -0.06512466 -0.00700360
v 0.00070963 -0.06512466 -0.00913741
v 0.01244611 0.02501531 0.00207613
v 0.00077995 -0.06512466 -0.00916684
v 0.01316845 0.03499376 0.00322397
v 0.01558478 0.06498478 0.00498988
v 0.03013392 -0.01037298 -0.03974655
v 0.03037683 -0.00499425 -0.03927564
v 0.01451725 0.11498834 0.01499672
v 0.01428073 0.12435474 0.01499672
v -0.00415500 0.12435474 0.02579821
v -0.01605767 -0.06512466 -0.01500906
v 0.00306843 -0.06512466 -0.01493549
v 0.01105256 -0.06098861 -0.02901863
v 0.01218402 -0.05499783 -0.02770891
v 0.01475377 -0.05499783 -0.03500801
v 0.03069645 -0.01209788 -0.04500013
v 0.03171284 -0.00499425 -0.04500013
v 0.03037044 0.00179406 -0.03929035
v 0.01413370 0.12435474 0.00498988
v 0.03104803 0.00507694 -0.04491184
v 0.03201968 0.00500275 -0.05499225
v -0.00868083 0.12435474 0.01499672
v -0.03037668 -0.00499425 -0.03927564
v -0.01688229 -0.06512466 -0.02500118
v -0.03013377 -0.01037298 -0.03974655
v -0.03069630 -0.01209788 -0.04500013
v 0.01128908 -0.06512466 -0.03646489
v 0.01180047 -0.06321429 -0.03500801
v 0.03117588 -0.01348893 -0.05499225
v 0.03265253 -0.00499425 -0.05499225
v 0.01541219 0.10499135 -0.02500118
v 0.00635413 0.12435474 -0.08499803
v 0.03099050 0.00500275 -0.06318902
v 0.03033208 0.01069678 -0.06102578
v -0.01614716 0.12435474 -0.07499120
v -0.01770052 0.10499135 -0.05499225
v -0.03202593 0.00500275 -0.05499225
v -0.03104788 0.00507694 -0.04491184
v -0.03037029 0.00179406 -0.03929035
v -0.03171270 -0.00499425 -0.04500013
v -0.01275279 -0.06512466 -0.07499120
v -0.03117573 -0.01348893 -0.05499225
v -0.03265238 -0.00499425 -0.05499225
v 0.01160870 -0.06512466 -0.04127700
v 0.03077316 -0.01222771 -0.06245323
v 0.01553364 -0.06512466 -0.10486454
v 0.01554004 -0.06512466 -0.10499698
v 0.03131652 -0.00499425 -0.06426328
v 0.00330495 0.12435474 -0.09499015
v 0.02927733 0.00500275 -0.06819244
v 0.02968645 -0.00499425 -0.06925198
v -0.01644122 0.12435474 -0.08499803
v -0.03099035 0.00500275 -0.06318902
v -0.01117387 -0.06512466 -0.08362945
v -0.03077301 -0.01222771 -0.06245323
v -0.01738090 -0.04498227 -0.08499803
v -0.03131637 -0.00499425 -0.06426328
v 0.01371820 -0.06512466 -0.11498910
v 0.00028134 0.12435474 -0.10017016
v 0.01370541 -0.06499483 -0.11498910
v 0.01073933 -0.06512466 -0.12072831
v -0.01291260 0.12435474 -0.09493129
v -0.02971826 -0.00499425 -0.06925198
v -0.00578506 -0.06512466 -0.10511471
v -0.00301075 -0.06512466 -0.11587206
v -0.00371392 0.12435474 -0.10017016
v 0.00495420 -0.06512466 -0.12139053
v -0.01254824 0.12435474 -0.09547578
v -0.00985064 0.11979210 -0.09997885
v -0.01015108 0.11313361 -0.10009658
v -0.01530976 0.07498178 -0.09499015
v -0.00206468 -0.06512466 -0.11784399
v -0.00272309 -0.06512466 -0.11654899
v -0.01574444 0.06498478 -0.09499015
v -0.01615995 0.04499077 -0.09499015
v -0.01629419 0.03499376 -0.09499015
v -0.00871279 0.12435474 -0.09986112
v 0.00271685 -0.06512466 -0.12099320
v 0.00158539 -0.06011688 -0.11994836
v -0.01229254 0.04499077 -0.10130328
v -0.01242039 0.03499376 -0.10131800
f 1 2 3
f 1 3 4
f 1 4 5
f 1 5 17
f 1 17 27
f 1 27 40
f 1 40 57
f 1 57 67
f 1 67 74
f 1 74 85
f 1 85 76
f 1 76 70
f 1 70 60
f 1 60 43
f 1 43 30
f 1 30 18
f 1 18 6
f 1 6 7
f 1 7 8
f 1 8 9
f 1 9 2
f 2 10 3
f 2 9 11
f 2 11 10
f 3 10 12
f 3 12 4
f 4 12 13
f 4 13 14
f 4 14 15
f 4 15 5
f 5 16 17
f 5 15 16
f 6 18 7
f 7 19 32
f 7 32 49
f 7 49 62
f 7 62 72
f 7 72 73
f 7 73 81
f 7 81 80
f 7 80 86
f 7 86 75
f 7 75 69
f 7 69 66
f 7 66 55
f 7 55 54
f 7 54 52
f 7 52 35
f 7 35 20
f 7 20 11
f 7 11 9
f 7 9 8
f 7 18 19
f 10 11 14
f 10 14 12
f 11 20 21
f 11 21 22
f 11 22 14
f 12 14 13
f 14 22 21
f 14 21 23
f 14 23 24
f 14 24 25
f 14 25 15
f 15 25 26
f 15 26 16
f 16 26 17
f 17 26 25
f 17 25 28
f 17 28 29
f 17 29 27
f 18 30 31
f 18 31 19
f 19 31 33
f 19 33 34
f 19 34 32
f 20 35 21
f 21 35 36
f 21 36 23
f 23 36 35
f 23 35 37
f 23 37 24
f 24 37 38
f 24 38 25
f 25 38 29
f 25 29 28
f 27 39 40
f 27 29 39
f 29 38 41
f 29 41 42
f 29 42 40
f 29 40 39
f 30 43 44
f 30 44 45
f 30 45 46
f 30 46 47
f 30 47 31
f 31 47 48
f 31 48 33
f 32 34 50
f 32 50 49
f 33 48 34
f 34 48 51
f 34 51 50
f 35 52 37
f 37 53 38
f 37 52 54
f 37 54 55
f 37 55 53
f 38 56 41
f 38 53 56
f 40 42 41
f 40 41 57
f 41 58 57
f 41 56 59
f 41 59 58
f 43 60 45
f 43 45 44
f 45 61 51
f 45 51 48
f 45 48 46
f 45 60 61
f 46 48 47
f 49 50 63
f 49 63 64
f 49 64 62
f 50 51 63
f 51 61 65
f 51 65 63
f 53 55 66
f 53 66 56
f 56 66 59
f 57 58 68
f 57 68 69
f 57 69 67
f 58 59 66
f 58 66 68
f 60 70 71
f 60 71 65
f 60 65 61
f 62 64 72
f 63 65 71
f 63 71 64
f 64 73 72
f 64 71 73
f 66 69 68
f 67 69 75
f 67 75 74
f 70 76 77
f 70 77 78
f 70 78 79
f 70 79 71
f 71 80 81
f 71 81 73
f 71 79 82
f 71 82 83
f 71 83 84
f 71 84 80
f 74 75 85
f 75 86 85
f 76 85 77
f 77 85 86
f 77 86 87
f 77 87 80
f 77 80 78
f 78 88 79
f 78 80 88
f 79 88 82
f 80 87 86
f 80 84 89
f 80 89 88
f 82 88 83
f 83 88 89
f 83 89 84

