# https://github.com/mikedh/trimesh
v -0.00229718 0.24122158 0.08806007
v -0.00652913 0.23958528 0.08806007
v 0.00081398 0.24096590 0.08806007
v -0.00499896 0.25493827 0.06973195
v -0.00696108 0.25493827 0.06881737
v -0.01198635 0.23477869 0.08806007
v -0.01055217 0.25089869 0.07104894
v -0.01080626 0.24134941 0.08201472
v 0.00199971 0.23996879 0.08806007
v 0.00152260 0.25195971 0.07219216
v 0.00341131 0.25493827 0.06581756
v -0.01159110 0.25493827 0.06461946
v -0.01453569 0.22499931 0.08806007
v 0.00452082 0.23526445 0.08806007
v 0.00356094 0.25493827 0.06556147
v -0.01311845 0.25493827 0.05604987
v -0.01329349 0.25493827 0.05498897
v -0.01455827 0.22499931 0.08499624
v -0.01441429 0.21498981 0.07499991
v -0.01418844 0.21805786 0.08806007
v 0.00609898 0.23192796 0.08806007
v 0.00683583 0.25493827 0.05499811
v -0.01321162 0.20499311 0.04499264
v -0.01433807 0.20499311 0.05499811
v -0.01169274 0.25493827 0.04659314
v -0.01083731 0.17431270 0.02436892
v -0.01227714 0.18501249 0.03500545
v -0.01405857 0.21498981 0.08499624
v -0.01386095 0.21498981 0.08806007
v 0.00806392 0.22499931 0.08806007
v 0.00312899 0.25493827 0.04427927
v 0.00812038 0.22499931 0.08499624
v 0.01385427 0.13500342 0.01500365
v 0.01322188 0.14500012 0.01500365
v 0.01413377 0.12436754 0.00500732
v 0.01406601 0.12500671 0.00500732
v 0.01067819 0.15260631 0.00905890
v -0.01338101 0.19499642 0.04499264
v -0.01021621 0.14500012 0.01895463
v -0.01005247 0.13955434 0.01963141
v -0.01005247 0.13955434 0.02033564
v -0.00517683 0.25493827 0.04156297
v -0.00146998 0.13500342 -0.00109291
v -0.00306226 0.12500671 -0.00296779
v -0.00970239 0.17717621 0.02061001
v -0.01002424 0.17050321 0.01995151
v -0.01026985 0.15500960 0.01890890
v -0.01203152 0.21022157 0.08806007
v -0.00868322 0.12436754 0.01500365
v 0.00721696 0.21498981 0.08806007
v 0.01428340 0.12436754 0.01500365
v 0.01426646 0.12500671 0.01500365
v 0.01077982 0.13198650 -0.00081853
v 0.01167477 0.12436754 -0.00230929
v -0.00758783 0.12436754 0.00500732
v -0.00866628 0.12436754 0.01436345
v 0.00499794 0.12436754 -0.00537313
v 0.00061918 0.14033413 -0.00011431
v -0.00021931 0.14033413 -0.00011431
v -0.00237340 0.12436754 -0.00343422
v -0.00308767 0.12436754 -0.00313241
v -0.00730269 0.12436754 0.00431224
v -0.00757371 0.12500671 0.00500732
v -0.01124103 0.20843187 0.08806007
v -0.00415483 0.12436754 0.02581395
v 0.00280715 0.20739642 0.08806007
v 0.01182158 0.12436754 0.02377445
v -0.00499896 0.20583683 0.08806007
v -0.00412660 0.12436754 0.02586883
v -0.00126107 0.12735887 0.03074352
v -0.00277994 0.20610528 0.08806007
v 0.00581102 0.12436754 0.02895095
v 0.00969290 0.13038856 0.02982895
f 1 2 6
f 1 6 13
f 1 13 20
f 1 20 29
f 1 29 48
f 1 48 64
f 1 64 68
f 1 68 71
f 1 71 66
f 1 66 50
f 1 50 30
f 1 30 21
f 1 21 14
f 1 14 9
f 1 9 3
f 1 3 4
f 1 4 5
f 1 5 2
f 2 5 7
f 2 7 8
f 2 8 6
f 3 9 10
f 3 10 4
f 4 10 11
f 4 11 15
f 4 15 22
f 4 22 31
f 4 31 42
f 4 42 25
f 4 25 17
f 4 17 16
f 4 16 12
f 4 12 5
f 5 12 7
f 6 8 7
f 6 7 12
f 6 12 13
f 9 14 15
f 9 15 11
f 9 11 10
f 12 16 13
f 13 16 17
f 13 17 18
f 13 18 19
f 13 19 20
f 14 21 15
f 15 21 22
f 17 23 24
f 17 24 18
f 17 25 26
f 17 26 27
f 17 27 23
f 18 24 19
f 19 24 28
f 19 28 20
f 20 28 29
f 21 30 22
f 22 30 32
f 22 32 33
f 22 33 34
f 22 34 35
f 22 35 36
f 22 36 37
f 22 37 31
f 23 38 24
f 23 27 38
f 24 38 39
f 24 39 40
f 24 40 41
f 24 41 28
f 25 42 43
f 25 43 44
f 25 44 45
f 25 45 46
f 25 46 26
f 26 46 47
f 26 47 27
f 27 47 39
f 27 39 38
f 28 41 29
f 29 41 49
f 29 49 48
f 30 50 51
f 30 51 52
f 30 52 33
f 30 33 32
f 31 37 53
f 31 53 42
f 33 52 35
f 33 35 34
f 35 51 67
f 35 67 72
f 35 72 69
f 35 69 65
f 35 65 49
f 35 49 56
f 35 56 55
f 35 55 62
f 35 62 61
f 35 61 60
f 35 60 57
f 35 57 54
f 35 54 36
f 35 52 51
f 36 54 37
f 37 54 53
f 39 55 40
f 39 47 55
f 40 55 56
f 40 56 49
f 40 49 41
f 42 53 57
f 42 57 58
f 42 58 59
f 42 59 43
f 43 59 57
f 43 57 60
f 43 60 61
f 43 61 44
f 44 61 45
f 45 61 62
f 45 62 63
f 45 63 46
f 46 63 47
f 47 63 55
f 48 49 65
f 48 65 64
f 50 66 67
f 50 67 51
f 53 54 57
f 55 63 62
f 57 59 58
f 64 65 69
f 64 69 70
f 64 70 68
f 66 71 72
f 66 72 73
f 66 73 67
f 67 73 72
f 68 70 72
f 68 72 71
f 69 72 70

