# https://github.com/mikedh/trimesh
v -0.05646594 -0.07173703 0.23738976
v -0.05646594 -0.05222207 0.23369710
v -0.07721244 -0.07173703 0.24712493
v -0.05646594 -0.07173703 -0.23833878
v -0.09616961 -0.05222207 0.23820502
v -0.11822183 -0.05578882 0.24544644
v -0.11822183 -0.05640016 0.24616580
v -0.11575547 -0.05753304 0.24683718
v -0.10941425 -0.05900024 0.24645354
v -0.05646594 -0.05222207 -0.24150391
v -0.11822183 -0.05813864 0.24736471
v -0.11822183 -0.05946638 0.24770041
v -0.11681939 -0.06050565 0.24779631
v -0.11817952 -0.07173703 0.24525462
v -0.05860587 -0.07173703 -0.23848265
v -0.05927083 -0.05222207 -0.24179165
v -0.09670762 -0.05222207 0.23825297
v -0.11822183 -0.05470752 0.24357614
v -0.09753579 -0.05222207 0.23830093
v -0.09928884 -0.05222207 0.23839684
v -0.11822183 -0.06106350 0.24755654
v -0.11822183 -0.07121740 0.24511075
v -0.11822183 -0.07173703 0.24491893
v -0.06380459 -0.07173703 -0.23872244
v -0.08363225 -0.05810617 -0.24183960
v -0.08563919 -0.05546787 -0.24207939
v -0.08504678 -0.05222207 -0.24212734
v -0.11822183 -0.05414204 0.24237724
v -0.10257129 -0.05222207 0.23777340
v -0.11822183 -0.05325178 0.23964371
v -0.11822183 -0.05338742 0.24026714
v -0.11822183 -0.07173703 -0.23862652
v -0.11187457 -0.07173703 -0.23891427
v -0.08560897 -0.06081514 -0.24131209
v -0.11260602 -0.07173703 -0.23891427
v -0.08746479 -0.05847488 -0.24169575
v -0.08756755 -0.05222207 -0.24207939
v -0.11284781 -0.06223841 -0.24025704
v -0.10776395 -0.05222207 -0.24140801
v -0.11822183 -0.05254301 0.23561536
v -0.11822183 -0.05222207 0.23355323
v -0.11822183 -0.06256318 -0.23987339
v -0.11664408 -0.06772132 -0.23934588
v -0.11559830 -0.07173703 -0.23881835
v -0.11275714 -0.06535812 -0.23992135
v -0.11597914 -0.06123735 -0.24020909
v -0.10882787 -0.05222207 -0.24136004
v -0.11822183 -0.05222207 -0.24083252
v -0.11607586 -0.06453474 -0.23982544
v -0.11525978 -0.07089644 -0.23896222
f 1 2 3
f 1 3 14
f 1 14 23
f 1 23 32
f 1 32 44
f 1 44 35
f 1 35 33
f 1 33 24
f 1 24 15
f 1 15 4
f 1 4 10
f 1 10 2
f 2 5 6
f 2 6 7
f 2 7 8
f 2 8 9
f 2 9 3
f 2 10 16
f 2 16 27
f 2 27 37
f 2 37 39
f 2 39 47
f 2 47 48
f 2 48 41
f 2 41 29
f 2 29 20
f 2 20 19
f 2 19 17
f 2 17 5
f 3 9 8
f 3 8 11
f 3 11 12
f 3 12 13
f 3 13 14
f 4 15 16
f 4 16 10
f 5 17 6
f 6 18 28
f 6 28 31
f 6 31 30
f 6 30 40
f 6 40 41
f 6 41 48
f 6 48 42
f 6 42 32
f 6 32 23
f 6 23 22
f 6 22 21
f 6 21 12
f 6 12 11
f 6 11 7
f 6 17 19
f 6 19 20
f 6 20 18
f 7 11 8
f 12 21 13
f 13 21 14
f 14 22 23
f 14 21 22
f 15 24 16
f 16 24 25
f 16 25 26
f 16 26 27
f 18 20 28
f 20 29 30
f 20 30 31
f 20 31 28
f 24 33 34
f 24 34 25
f 25 34 35
f 25 35 36
f 25 36 26
f 26 37 27
f 26 36 38
f 26 38 39
f 26 39 37
f 29 40 30
f 29 41 40
f 32 42 43
f 32 43 44
f 33 35 34
f 35 44 45
f 35 45 36
f 36 45 38
f 38 46 39
f 38 45 46
f 39 46 47
f 42 49 43
f 42 48 46
f 42 46 49
f 43 49 45
f 43 45 50
f 43 50 44
f 44 50 45
f 45 49 46
f 46 48 47

