# https://github.com/mikedh/trimesh
v -0.04825889 -0.14797655 -0.21491435
v -0.11822188 -0.16704753 -0.21392524
v -0.07514423 -0.14797655 0.23913127
v 0.25394666 -0.14797655 -0.21163231
v -0.11822188 -0.17937759 -0.20866498
v -0.11822188 -0.21367484 0.21278502
v -0.11806914 -0.16406661 0.23656859
v 0.23811081 -0.17695561 -0.20691156
v 0.23663414 -0.18472967 -0.20362952
v -0.07804662 -0.17607489 0.24295282
v -0.05482747 -0.17722660 0.24430160
v 0.04604351 -0.14797655 0.24056996
v -0.11455572 -0.17356823 0.23949094
v -0.09673397 -0.17380536 0.24137925
v 0.26570901 -0.14797655 -0.21041840
v 0.27426344 -0.16545546 -0.20799059
v -0.11822188 -0.19348603 -0.20057228
v 0.13459203 -0.20476602 -0.19567169
v -0.11822188 -0.22133033 0.20671549
v -0.10269153 -0.22260059 0.20941307
v -0.10029832 -0.21751952 0.21395397
v -0.11730534 -0.20723881 0.21759568
v 0.24376284 -0.18090191 -0.20484343
v 0.23795804 -0.19235127 -0.19868398
v -0.07000139 -0.18125759 0.24187380
v -0.01281911 -0.18555957 0.24439153
v 0.06742958 -0.14797655 0.24039014
v -0.09714133 -0.20524025 0.22276603
v -0.08624461 -0.20637503 0.22384505
v 0.29111773 -0.14797655 -0.20601237
v 0.25771469 -0.17827669 -0.20394424
v 0.30603704 -0.16442230 -0.20165130
v -0.11822188 -0.21836637 -0.18470159
v 0.11901075 -0.21167628 -0.19113079
v 0.13505030 -0.21325141 -0.18906265
v -0.11822188 -0.24946253 0.17349045
v -0.11715257 -0.23369427 0.19408189
v -0.10106210 -0.22969715 0.20302881
v -0.08792496 -0.22861320 0.20658062
v -0.07886133 -0.22553068 0.21089673
v -0.08665197 -0.21943340 0.21476324
v -0.09973821 -0.21150692 0.21822512
v -0.07585710 -0.20937286 0.22357529
v 0.25343749 -0.18456028 -0.20079708
v 0.21881241 -0.20320782 -0.19135559
v 0.19421843 -0.20950836 -0.18807355
v 0.24641064 -0.19902441 -0.19149047
v -0.00365365 -0.18798155 0.24362722
v 0.09238000 -0.18225686 0.23782745
v 0.08662613 -0.14797655 0.24003045
v 0.33526468 -0.14797655 -0.19095095
v 0.32197475 -0.16498122 -0.19540194
v 0.30705541 -0.17002842 -0.19715536
v -0.10396451 -0.23205139 -0.17463067
v -0.11755994 -0.23161103 -0.17350668
v -0.11822188 -0.28135473 -0.08821858
v -0.02712740 -0.23952056 -0.16721235
v 0.18250701 -0.21892528 -0.18029556
v 0.18271069 -0.23076418 -0.16815650
v 0.13830914 -0.23902939 -0.16172729
v -0.11822188 -0.25417098 0.16670157
v -0.09989096 -0.25518721 0.17137736
v -0.09510456 -0.24748091 0.18333657
v -0.10243693 -0.24660020 0.18225755
v -0.11679614 -0.23860598 0.18837203
v -0.08273119 -0.24248452 0.19273311
v -0.06358556 -0.23801318 0.19997157
v -0.01500863 -0.23730183 0.20523183
v -0.00884740 -0.23159409 0.21134631
v -0.00910200 -0.22143194 0.21993358
v -0.06796461 -0.21428457 0.22083277
v 0.21046168 -0.20915268 -0.18685964
v 0.28602576 -0.18581362 -0.18996185
v 0.25033140 -0.20268279 -0.18667981
v 0.20404585 -0.22568311 -0.17098895
v 0.19600061 -0.22420961 -0.17395627
v 0.03351738 -0.22436203 0.21782048
v 0.07028106 -0.20916963 0.22780149
v 0.08581142 -0.20059955 0.23292686
v 0.10154545 -0.18615235 0.23575930
v 0.13148595 -0.14797655 0.23580427
v 0.11427526 -0.14797655 0.23787241
v 0.36627448 -0.14797655 -0.16442487
v 0.34035659 -0.16608211 -0.18447679
v 0.32065085 -0.17245039 -0.18883786
v -0.09342423 -0.28995869 -0.07877709
v -0.10299703 -0.29006031 -0.07756319
v -0.03283036 -0.24265389 -0.16280633
v -0.05258702 -0.24827695 -0.15300517
v -0.10849631 -0.29227906 -0.07189830
v -0.11587960 -0.29043293 -0.07284244
v -0.11822188 -0.30120480 -0.04811474
v 0.13342088 -0.25528884 -0.14136067
v 0.11503905 -0.26143694 -0.13304317
v 0.18780261 -0.23701391 -0.16037852
v 0.17787337 -0.24123120 -0.15637712
v 0.14375749 -0.24429677 -0.15480354
v -0.11822188 -0.28426790 0.11558267
v -0.11806914 -0.26079333 0.15685545
v -0.08313854 -0.25147802 0.18090877
v -0.07896318 -0.26382503 0.16472335
v -0.07264918 -0.25500092 0.17839104
v -0.03700574 -0.25173208 0.18868674
v 0.01584841 -0.23667517 0.20837900
v 0.26952797 -0.20114152 -0.18002580
v 0.25689998 -0.21279413 -0.17094399
v 0.24697074 -0.21186259 -0.17624921
v 0.22049275 -0.22869788 -0.16406520
v 0.21041074 -0.23039158 -0.16446982
v 0.04869131 -0.22946005 0.21350437
v 0.08448752 -0.21921322 0.21934910
v 0.10159638 -0.21345466 0.22164203
v 0.10449877 -0.20000675 0.23085873
v 0.11340964 -0.19485793 0.23171295
v 0.13942936 -0.14797655 0.23445548
v 0.40039036 -0.14797655 -0.08929761
v 0.37330133 -0.14799351 -0.15484850
v 0.37768036 -0.16389725 -0.14621629
v 0.35889119 -0.16623455 -0.16847122
v 0.35415572 -0.18096966 -0.14859913
v 0.30155614 -0.21247232 -0.14212498
v 0.29096496 -0.20888169 -0.15637712
v 0.29845005 -0.19192785 -0.17660889
v 0.03295727 -0.27856016 -0.10426911
v -0.01368473 -0.30379614 -0.05755623
v -0.06623337 -0.29886752 -0.06308624
v -0.09087826 -0.30078137 -0.05611753
v -0.00645420 -0.24900524 -0.15296021
v -0.11465755 -0.29935867 -0.05409434
v -0.11822188 -0.31129920 -0.00360487
v -0.10976928 -0.30557454 -0.04002203
v -0.11699983 -0.30618426 -0.03485170
v -0.11745811 -0.30975795 -0.02122898
v 0.17970645 -0.25637281 -0.13434699
v 0.13968395 -0.27891582 -0.10413423
v 0.12970379 -0.27842465 -0.10570781
v 0.19442211 -0.24322975 -0.15075719
v -0.11822188 -0.28987402 0.10155531
v -0.08940160 -0.30007005 0.08973097
v -0.09179482 -0.29265165 0.10650086
v -0.09754868 -0.28491148 0.12048325
v -0.06872840 -0.27534214 0.14745893
v -0.06755726 -0.26953277 0.15838407
v -0.06317821 -0.26609460 0.16494815
v -0.05716975 -0.25962469 0.17501907
v -0.04489821 -0.26396054 0.17142232
v -0.02885866 -0.26799151 0.16778061
v -0.01363382 -0.26257169 0.17668258
v 0.00871973 -0.26138613 0.17947006
v 0.05531081 -0.25347659 0.19174400
v 0.03479037 -0.23880921 0.20622094
v 0.26153365 -0.21718079 -0.16262649
v 0.23322256 -0.23347409 -0.15129671
v 0.20979971 -0.24666795 -0.14122579
v 0.06213398 -0.23598075 0.20761469
v 0.08912117 -0.22366762 0.21552755
v 0.10460061 -0.21924709 0.21674146
v 0.11152562 -0.21982294 0.21498804
v 0.12476462 -0.21154079 0.21849488
v 0.09670813 -0.22459915 0.21386404
v 0.11544640 -0.19797432 0.23009442
v 0.12277877 -0.19765252 0.22883555
v 0.17420718 -0.19863486 0.21642675
v 0.15781119 -0.14797655 0.23031922
v 0.40196884 -0.14797655 -0.05476874
v 0.40013576 -0.16504896 -0.07315716
v 0.39682600 -0.16408357 -0.09968324
v 0.38755870 -0.16545546 -0.12207305
v 0.35802555 -0.18220606 -0.14014676
v 0.31530434 -0.21270944 -0.12679380
v 0.31876683 -0.20656134 -0.13592057
v 0.30349106 -0.21924709 -0.12504038
v 0.24579960 -0.25046182 -0.11182229
v 0.24778545 -0.23721714 -0.13762903
v 0.27197206 -0.21767195 -0.15502834
v 0.30837932 -0.21375953 -0.13241373
v 0.12359348 -0.28071114 -0.10202114
v 0.06916083 -0.28995869 -0.08534118
v -0.02427593 -0.30989343 -0.04092123
v -0.06679347 -0.30716661 -0.04379863
v 0.08260351 -0.29896912 -0.06875113
v 0.08871382 -0.30274606 -0.06070339
v 0.01956552 -0.30850461 -0.04681091
v -0.00996763 -0.30801344 -0.04708067
v -0.11374098 -0.31180730 -0.01300140
v -0.09724317 -0.31475434 0.00376848
v -0.10427003 -0.31355181 0.00682572
v -0.11822188 -0.31038460 0.01392932
v -0.07015415 -0.30948696 -0.03633536
v -0.03990813 -0.31748116 -0.01682295
v -0.05024473 -0.31721020 -0.01506954
v -0.11318088 -0.31007975 -0.02253281
v 0.18602043 -0.26179260 -0.12405127
v 0.20170356 -0.25583082 -0.12994096
v 0.19513498 -0.26108125 -0.12328696
v 0.13499938 -0.28301457 -0.09792982
v 0.15424685 -0.28089744 -0.09792982
v -0.11822188 -0.29341382 0.09116968
v -0.11195883 -0.29693669 0.08420096
v -0.11822188 -0.30108625 0.06504823
v -0.10737610 -0.30772552 0.04773884
v -0.08797587 -0.30999506 0.05034648
v -0.07672273 -0.30498174 0.07736712
v -0.06760818 -0.30562532 0.07957014
v -0.04535648 -0.30816588 0.07916550
v -0.07550067 -0.29864734 0.09773376
v -0.07870857 -0.29520914 0.10465752
v -0.07987972 -0.28978932 0.11562762
v -0.06098868 -0.27774718 0.14480631
v -0.05217966 -0.27828917 0.14566055
v -0.02957153 -0.27818754 0.14930226
v -0.00721799 -0.27368233 0.15977782
v 0.03540140 -0.26367259 0.17744689
v 0.05082992 -0.26931259 0.16737597
v 0.07236875 -0.27156520 0.16004758
v 0.06758234 -0.25124091 0.19304782
v 0.22441353 -0.24587192 -0.13601048
v 0.11758501 -0.23711553 0.19902743
v 0.13250434 -0.23477823 0.19776857
v 0.16122279 -0.21638474 0.20689534
v 0.16987905 -0.20424098 0.21404389
v 0.18159047 -0.20441034 0.20918827
v 0.18622412 -0.19639918 0.21238039
v 0.17858623 -0.14797655 0.22195676
v 0.40089953 -0.14799351 -0.04694579
v 0.39794624 -0.14797655 -0.03471682
v 0.39163226 -0.16489653 -0.01956548
v 0.39244694 -0.17382228 -0.05368971
v 0.37375960 -0.19143668 -0.06056851
v 0.37304673 -0.19162297 -0.06515437
v 0.38536918 -0.17226408 -0.10543805
v 0.38440171 -0.17082445 -0.11407027
v 0.35940039 -0.18676209 -0.12548998
v 0.35777098 -0.18501759 -0.13344780
v 0.30975413 -0.21902691 -0.11762206
v 0.27253219 -0.24461858 -0.09770503
v 0.25318289 -0.24946253 -0.10669692
v 0.21305855 -0.27253062 -0.08583573
v 0.21453521 -0.26494288 -0.10426911
v 0.22339514 -0.25750756 -0.11456482
v 0.23688874 -0.24748091 -0.12562485
v 0.21463704 -0.25515333 -0.12526518
v 0.11315504 -0.28845131 -0.08844338
v 0.10735025 -0.29187256 -0.08228393
v 0.00128552 -0.31016442 -0.04132586
v -0.01388840 -0.31438172 -0.02801786
v 0.11432618 -0.29476878 -0.07616945
v 0.11992729 -0.29669958 -0.07059447
v 0.09798111 -0.30340660 -0.05742135
v 0.07038290 -0.31065559 -0.03970732
v 0.05500530 -0.30894497 -0.04577685
v 0.03254992 -0.31157020 -0.03790894
v -0.04713866 -0.31898856 -0.00463894
v -0.07448228 -0.31721020 0.00039652
v -0.09871982 -0.31411073 0.01303013
v -0.06714991 -0.31812477 0.00790475
v -0.11745811 -0.30906352 0.02966513
v -0.02417409 -0.31809092 -0.01565401
v -0.02315570 -0.31993702 -0.00675203
v 0.20236552 -0.26050541 -0.12175834
v 0.15434869 -0.29077166 -0.07868718
v 0.13805453 -0.28802788 -0.08776899
v 0.14513230 -0.29019582 -0.08205913
v -0.11531949 -0.30521885 0.05147047
v -0.09653030 -0.31148550 0.03568970
v -0.05396183 -0.31853127 0.02602341
v -0.05742434 -0.31424624 0.04782875
v -0.04902267 -0.31184119 0.06387928
v -0.04143570 -0.31038460 0.07228670
v -0.02982612 -0.30975795 0.07682761
v -0.01959136 -0.30294931 0.09912750
v -0.07183447 -0.29476878 0.10722020
v -0.00838913 -0.30120480 0.10456759
v 0.00189655 -0.27608737 0.15622602
v 0.02888373 -0.27903438 0.15177503
v 0.04431226 -0.28516555 0.13878176
v 0.07578033 -0.27510503 0.15258430
v 0.08672796 -0.27273387 0.15456252
v 0.08036307 -0.26902467 0.16256531
v 0.08570959 -0.25535658 0.18297690
v 0.12476462 -0.23841967 0.19592522
v 0.16570367 -0.23855516 0.18045917
v 0.16977721 -0.23245788 0.18675350
v 0.14426668 -0.23054400 0.19853288
v 0.15658914 -0.22260059 0.20266914
v 0.17115203 -0.21296349 0.20667054
v 0.19162156 -0.20556206 0.20325361
v 0.19635704 -0.19763559 0.20667054
v 0.21962713 -0.18989542 0.19758873
v 0.20501330 -0.14797655 0.20968282
v 0.39051202 -0.14797655 -0.01219213
v 0.36963513 -0.14797655 0.03191310
v 0.32589555 -0.16603130 0.11207583
v 0.34896195 -0.19204640 0.02930545
v 0.37172282 -0.18019056 -0.00059259
v 0.37671292 -0.18190119 -0.01929572
v 0.38745686 -0.17853075 -0.05054255
v 0.36637631 -0.19707666 -0.06268161
v 0.37956440 -0.18564425 -0.05004799
v 0.34855458 -0.20979628 -0.02567997
v 0.32930714 -0.22527662 -0.02617452
v 0.36856586 -0.19299486 -0.07522529
v 0.36678368 -0.19240208 -0.08331800
v 0.34336084 -0.21091412 -0.06987512
v 0.33088562 -0.21875592 -0.07045959
v 0.29402012 -0.23760670 -0.08767907
v 0.26392683 -0.25545821 -0.07486562
v 0.24600327 -0.26160631 -0.08048555
v 0.21871057 -0.27542683 -0.07126886
v 0.20531882 -0.27752700 -0.07832750
v 0.20796663 -0.27110791 -0.09406331
v 0.20587894 -0.26780522 -0.10359471
v 0.10704473 -0.30830136 -0.04101114
v 0.06697131 -0.31358570 -0.02828762
v 0.03229532 -0.31390750 -0.02995112
v -0.02279927 -0.32075000 0.00336385
v -0.04596752 -0.31961524 0.00349872
v -0.08023615 -0.31575361 0.02238170
v -0.08772127 -0.31434786 0.02548390
v -0.09434077 -0.31383973 0.02134763
v -0.03934802 -0.32015720 0.01028760
v 0.04772384 -0.31539792 -0.02154370
v 0.03122602 -0.31905630 -0.00333511
v 0.02338446 -0.31990314 0.00134067
v 0.19131604 -0.27280161 -0.10062739
v 0.18031749 -0.28152412 -0.08682483
v 0.18556216 -0.28281131 -0.07994604
v 0.16427794 -0.29297346 -0.06623340
v 0.15592718 -0.29625922 -0.06088322
v 0.14884941 -0.29832554 -0.05755623
v -0.01872574 -0.32093632 0.01599745
v -0.01388840 -0.31975073 0.03245262
v -0.03318679 -0.31895468 0.03155343
v -0.04057008 -0.31675288 0.04207394
v -0.04479638 -0.31543180 0.04782875
v -0.03950077 -0.31331471 0.06046236
v -0.01343013 -0.31358570 0.06554279
v -0.01149520 -0.31135002 0.07444476
v 0.00418791 -0.30782714 0.08698845
v 0.01707048 -0.30184841 0.10227466
v 0.04309019 -0.29177094 0.12457456
v 0.06172663 -0.28801095 0.12943017
v 0.05495437 -0.28462356 0.13788256
v 0.08927393 -0.27735764 0.14503111
v 0.10047615 -0.27639222 0.14350249
v 0.11626111 -0.26717854 0.15379821
v 0.16453253 -0.24355155 0.17317574
v 0.24157330 -0.23860598 0.12430480
v 0.24208251 -0.22366762 0.14548071
v 0.23867092 -0.21596132 0.15847400
v 0.21596095 -0.19849937 0.19471131
v 0.22960728 -0.19404496 0.18927123
v 0.22772327 -0.18813398 0.19363229
v 0.23515749 -0.14797655 0.19255327
v 0.31224918 -0.14799351 0.13743296
v 0.30435669 -0.16386339 0.14539079
v 0.30578244 -0.17341579 0.13563459
v 0.32370600 -0.17348355 0.10524199
v 0.34173143 -0.19792351 0.03407116
v 0.32609922 -0.22190619 0.01748112
v 0.35863659 -0.19887197 -0.01421530
v 0.37223202 -0.18952280 -0.03067047
v 0.35975683 -0.20154801 -0.06380560
v 0.32976538 -0.22490402 -0.02914185
v 0.32334957 -0.22605573 0.00866906
v 0.32920527 -0.22512420 -0.02307232
v 0.32350233 -0.22939229 -0.02500558
v 0.29427469 -0.24448308 -0.05652216
v 0.28638220 -0.24839550 -0.06074835
v 0.27981365 -0.24981821 -0.06852634
v 0.26000607 -0.26091188 -0.06106307
v 0.24997498 -0.26360485 -0.06749227
v 0.22645029 -0.27356377 -0.06726747
v 0.20384216 -0.28254032 -0.06272656
v 0.18179414 -0.28782463 -0.06843641
v 0.10587359 -0.31082496 -0.02612956
v 0.07705332 -0.31494063 -0.01785702
v 0.14640529 -0.30130643 -0.04514742
v 0.13428652 -0.30543903 -0.03278356
v -0.01648529 -0.32100406 0.00794971
v 0.06274501 -0.31783685 0.00219490
v 0.01834346 -0.32037738 0.02314601
v 0.00449343 -0.32085162 0.01473859
v 0.17812796 -0.29094103 -0.06047859
v 0.15526523 -0.30061200 -0.03889805
v 0.16962445 -0.29685202 -0.04231497
v 0.00749767 -0.31961524 0.03883686
v -0.02183181 -0.31551650 0.05466259
v 0.00428975 -0.31685451 0.05268438
v 0.01976919 -0.31604153 0.05816943
v 0.01401532 -0.31316227 0.07044336
v 0.03682713 -0.30149272 0.10088092
v 0.05505621 -0.29327834 0.11886471
v 0.06921176 -0.28694391 0.13001466
v 0.08041398 -0.28902715 0.12255138
v 0.10297120 -0.28272665 0.12803644
v 0.11743225 -0.27242899 0.14318778
v 0.16005164 -0.25366288 0.15604618
v 0.21998355 -0.25740594 0.10546678
v 0.23734701 -0.24427985 0.11733609
v 0.24809097 -0.24861568 0.09598034
v 0.27670759 -0.22190619 0.10816436
v 0.26010790 -0.22039880 0.12987977
v 0.24177697 -0.20786548 0.16535279
v 0.26749119 -0.20772998 0.13837712
v 0.24447569 -0.20198837 0.16899450
v 0.24905843 -0.18981072 0.17609811
v 0.23500472 -0.18818478 0.18913634
v 0.25089151 -0.18051237 0.18050413
v 0.29580230 -0.16418518 0.15226959
v 0.29738078 -0.16721690 0.14952706
v 0.27237943 -0.17797183 0.16440864
v 0.29957029 -0.18130840 0.13433075
v 0.29661697 -0.19633144 0.11796552
v 0.30761552 -0.21524997 0.06936434
v 0.31749386 -0.22348131 0.03555482
v 0.31336939 -0.22893500 0.02773187
v 0.31713742 -0.23335554 -0.03008600
v 0.30674991 -0.23865679 0.00255457
v 0.29223794 -0.24907298 -0.01853141
v 0.28266513 -0.25518721 -0.02675899
v 0.27604562 -0.25843909 -0.03013095
v 0.26168638 -0.26142001 -0.05386955
v 0.25430310 -0.26534936 -0.04905888
v 0.23026924 -0.27629060 -0.04406839
v 0.21178555 -0.28118539 -0.05602761
v 0.19121420 -0.29026356 -0.04577685
v 0.18459471 -0.29146609 -0.04959840
v 0.10312396 -0.31277272 -0.01268668
v 0.08789910 -0.31439865 -0.01385563
v 0.13611960 -0.30631974 -0.02478078
v 0.12333889 -0.31119758 -0.00131194
v 0.07924284 -0.31563506 -0.00931472
v 0.07191047 -0.31739649 0.00965817
v 0.08983403 -0.31519470 -0.00252584
v 0.04604351 -0.31785378 0.03987093
v 0.14457220 -0.30438894 -0.02675899
v 0.17110111 -0.29751256 -0.03476178
v 0.16402334 -0.30106932 -0.01830662
v 0.03697989 -0.31710857 0.04827835
v 0.04538156 -0.31094354 0.06985889
v 0.03545231 -0.30759001 0.08316689
v 0.06727683 -0.29554787 0.10888370
v 0.07965019 -0.29217744 0.11378428
v 0.09680997 -0.28674069 0.12111268
v 0.12776886 -0.28911185 0.09638497
v 0.13912384 -0.28638500 0.09678961
v 0.12797253 -0.27281854 0.13657874
v 0.15730201 -0.25982791 0.14516599
v 0.16056083 -0.28237095 0.09202391
v 0.21417877 -0.26401135 0.09404708
v 0.24386467 -0.25406939 0.08420096
v 0.25150254 -0.25135946 0.08177315
v 0.25817299 -0.24831082 0.08006469
v 0.27726769 -0.21279413 0.12043829
v 0.25022957 -0.19699198 0.16814028
v 0.25608528 -0.18591523 0.17286102
v 0.29310358 -0.23933426 0.03775784
v 0.29936662 -0.24007949 0.01945933
v 0.27232850 -0.25389999 0.03141855
v 0.28684050 -0.24946253 0.00619629
v 0.27181932 -0.25877783 -0.00311032
v 0.25481230 -0.26668736 0.00268945
v 0.24737810 -0.27036268 0.00044148
v 0.22991282 -0.27871257 -0.01628344
v 0.23256060 -0.27747619 -0.02437614
v 0.23709241 -0.27493566 -0.03399747
v 0.22033998 -0.28111762 -0.03647024
v 0.21035983 -0.28304842 -0.04842945
v 0.21519715 -0.28409851 -0.02806282
v 0.19584785 -0.29050067 -0.03125494
v 0.18062299 -0.29625922 -0.02149874
v 0.17334156 -0.29830858 -0.02266768
v 0.11009988 -0.31367037 0.00664589
v 0.13825822 -0.30631974 -0.02136386
v 0.12394992 -0.31123146 0.01455875
v 0.11712674 -0.31273884 0.01159143
v 0.14126244 -0.30694643 -0.00913488
v 0.15338123 -0.30433813 -0.00122202
v 0.10908151 -0.31373811 0.01676176
v 0.09365298 -0.31499144 0.02193210
v 0.08194156 -0.31580442 0.02575366
v 0.09579159 -0.31341630 0.03119375
v 0.07124852 -0.31262028 0.05142551
v 0.14762735 -0.30526966 -0.01241693
v 0.16850424 -0.30042571 -0.00994416
v 0.06137019 -0.30415183 0.08429088
v 0.06992462 -0.30443975 0.07907558
v 0.11208574 -0.29273635 0.09373236
v 0.10806312 -0.31026605 0.03789271
v 0.12695415 -0.30467686 0.04256850
v 0.18286344 -0.29153383 0.02849619
v 0.20511514 -0.28003365 0.04378240
v 0.23383358 -0.26893997 0.04639005
v 0.27431434 -0.25102073 0.03910662
v 0.24539225 -0.26753423 0.02732724
v 0.24513766 -0.26992232 0.01388436
v 0.26586178 -0.26108125 0.00358864
v 0.23968929 -0.27390251 -0.00351495
v 0.22334424 -0.28143942 -0.01961044
v 0.19813922 -0.29060230 -0.00657220
v 0.19783370 -0.29036519 -0.02383663
v 0.11962178 -0.31109595 0.02337081
v 0.14294279 -0.30643833 0.01303013
v 0.12741242 -0.30924982 0.02260650
v 0.17374891 -0.29800373 0.00349872
v 0.16962445 -0.29686895 0.02184219
v 0.17991014 -0.29414210 0.01833535
v 0.19946311 -0.28565672 0.02818147
v 0.23169498 -0.27266610 0.03123871
v 0.19019581 -0.29209274 0.00673581
f 1 2 3
f 1 3 12
f 1 12 27
f 1 27 50
f 1 50 82
f 1 82 81
f 1 81 115
f 1 115 164
f 1 164 224
f 1 224 290
f 1 290 354
f 1 354 292
f 1 292 291
f 1 291 226
f 1 226 165
f 1 165 116
f 1 116 83
f 1 83 51
f 1 51 30
f 1 30 15
f 1 15 4
f 1 4 2
f 2 5 17
f 2 17 33
f 2 33 56
f 2 56 92
f 2 92 130
f 2 130 188
f 2 188 200
f 2 200 198
f 2 198 138
f 2 138 98
f 2 98 61
f 2 61 36
f 2 36 19
f 2 19 6
f 2 6 7
f 2 7 3
f 2 4 8
f 2 8 9
f 2 9 5
f 3 10 11
f 3 11 12
f 3 7 13
f 3 13 14
f 3 14 10
f 4 15 16
f 4 16 8
f 5 9 18
f 5 18 17
f 6 19 20
f 6 20 21
f 6 21 22
f 6 22 13
f 6 13 7
f 8 16 23
f 8 23 9
f 9 23 24
f 9 24 18
f 10 14 13
f 10 13 25
f 10 25 11
f 11 25 26
f 11 26 27
f 11 27 12
f 13 22 28
f 13 28 29
f 13 29 25
f 15 30 16
f 16 31 23
f 16 30 32
f 16 32 31
f 17 18 34
f 17 34 33
f 18 24 35
f 18 35 34
f 19 36 37
f 19 37 38
f 19 38 20
f 20 38 39
f 20 39 40
f 20 40 41
f 20 41 21
f 21 42 22
f 21 41 43
f 21 43 42
f 22 42 28
f 23 31 44
f 23 44 24
f 24 45 46
f 24 46 35
f 24 44 47
f 24 47 45
f 25 29 43
f 25 43 26
f 26 43 48
f 26 48 49
f 26 49 50
f 26 50 27
f 28 42 29
f 29 42 43
f 30 51 32
f 31 32 44
f 32 51 52
f 32 52 53
f 32 53 44
f 33 54 55
f 33 55 56
f 33 34 54
f 34 57 54
f 34 35 57
f 35 46 58
f 35 58 59
f 35 59 60
f 35 60 57
f 36 61 62
f 36 62 63
f 36 63 64
f 36 64 65
f 36 65 37
f 37 65 66
f 37 66 38
f 38 66 39
f 39 66 67
f 39 67 40
f 40 67 68
f 40 68 69
f 40 69 70
f 40 70 71
f 40 71 41
f 41 71 43
f 43 71 48
f 44 53 47
f 45 72 46
f 45 47 72
f 46 72 58
f 47 53 73
f 47 73 74
f 47 74 75
f 47 75 76
f 47 76 72
f 48 71 70
f 48 70 77
f 48 77 78
f 48 78 79
f 48 79 49
f 49 80 81
f 49 81 82
f 49 82 50
f 49 79 80
f 51 83 84
f 51 84 52
f 52 85 53
f 52 84 85
f 53 85 73
f 54 86 87
f 54 87 55
f 54 57 88
f 54 88 89
f 54 89 86
f 55 87 56
f 56 87 90
f 56 90 91
f 56 91 92
f 57 60 93
f 57 93 94
f 57 94 88
f 58 72 76
f 58 76 59
f 59 76 95
f 59 95 96
f 59 96 60
f 60 97 93
f 60 96 97
f 61 98 99
f 61 99 62
f 62 100 63
f 62 99 101
f 62 101 100
f 63 100 66
f 63 66 65
f 63 65 64
f 66 100 102
f 66 102 103
f 66 103 67
f 67 103 68
f 68 103 104
f 68 104 69
f 69 104 70
f 70 104 77
f 73 105 74
f 73 85 105
f 74 106 107
f 74 107 108
f 74 108 109
f 74 109 75
f 74 105 106
f 75 109 95
f 75 95 76
f 77 104 110
f 77 110 78
f 78 110 111
f 78 111 79
f 79 111 112
f 79 112 113
f 79 113 114
f 79 114 80
f 80 114 115
f 80 115 81
f 83 116 117
f 83 117 118
f 83 118 119
f 83 119 84
f 84 119 120
f 84 120 121
f 84 121 122
f 84 122 123
f 84 123 85
f 85 123 105
f 86 89 124
f 86 124 125
f 86 125 126
f 86 126 87
f 87 126 127
f 87 127 90
f 88 94 128
f 88 128 89
f 89 128 124
f 90 127 129
f 90 129 91
f 91 129 92
f 92 129 131
f 92 131 132
f 92 132 133
f 92 133 130
f 93 97 96
f 93 96 134
f 93 134 135
f 93 135 136
f 93 136 94
f 94 136 128
f 95 109 137
f 95 137 96
f 96 137 134
f 98 138 139
f 98 139 140
f 98 140 141
f 98 141 142
f 98 142 143
f 98 143 101
f 98 101 99
f 100 101 102
f 101 143 144
f 101 144 102
f 102 144 145
f 102 145 103
f 103 146 147
f 103 147 148
f 103 148 149
f 103 149 150
f 103 150 104
f 103 145 146
f 104 150 151
f 104 151 110
f 105 123 152
f 105 152 106
f 106 152 108
f 106 108 107
f 108 153 154
f 108 154 137
f 108 137 109
f 108 152 153
f 110 155 111
f 110 151 155
f 111 156 112
f 111 155 156
f 112 157 158
f 112 158 159
f 112 159 113
f 112 156 160
f 112 160 157
f 113 159 161
f 113 161 114
f 114 161 162
f 114 162 163
f 114 163 164
f 114 164 115
f 116 165 166
f 116 166 167
f 116 167 118
f 116 118 117
f 118 167 168
f 118 168 169
f 118 169 120
f 118 120 119
f 120 170 171
f 120 171 121
f 120 169 170
f 121 172 173
f 121 173 174
f 121 174 175
f 121 175 122
f 121 171 176
f 121 176 172
f 122 175 152
f 122 152 123
f 124 128 177
f 124 177 178
f 124 178 125
f 125 179 180
f 125 180 127
f 125 127 126
f 125 178 181
f 125 181 182
f 125 182 183
f 125 183 184
f 125 184 179
f 127 131 129
f 127 180 131
f 128 136 177
f 130 133 185
f 130 185 186
f 130 186 187
f 130 187 188
f 131 180 189
f 131 189 190
f 131 190 191
f 131 191 192
f 131 192 132
f 132 192 133
f 133 192 185
f 134 193 135
f 134 137 194
f 134 194 195
f 134 195 193
f 135 196 136
f 135 193 197
f 135 197 196
f 136 196 177
f 137 154 194
f 138 198 139
f 139 198 199
f 139 199 200
f 139 200 201
f 139 201 202
f 139 202 203
f 139 203 204
f 139 204 205
f 139 205 206
f 139 206 140
f 140 206 207
f 140 207 208
f 140 208 141
f 141 208 209
f 141 209 142
f 142 209 143
f 143 209 210
f 143 210 147
f 143 147 144
f 144 147 146
f 144 146 145
f 147 211 212
f 147 212 213
f 147 213 148
f 147 210 211
f 148 213 149
f 149 213 150
f 150 214 215
f 150 215 216
f 150 216 155
f 150 155 151
f 150 213 214
f 152 175 174
f 152 174 217
f 152 217 153
f 153 217 154
f 154 217 194
f 155 216 160
f 155 160 156
f 157 160 158
f 158 218 219
f 158 219 220
f 158 220 159
f 158 160 218
f 159 162 161
f 159 220 221
f 159 221 162
f 160 216 218
f 162 221 163
f 163 221 222
f 163 222 223
f 163 223 164
f 164 223 224
f 165 225 166
f 165 226 225
f 166 225 227
f 166 227 228
f 166 228 229
f 166 229 230
f 166 230 167
f 167 231 232
f 167 232 168
f 167 230 231
f 168 232 233
f 168 233 234
f 168 234 169
f 169 234 170
f 170 235 172
f 170 172 176
f 170 176 171
f 170 234 233
f 170 233 235
f 172 236 237
f 172 237 173
f 172 235 236
f 173 237 238
f 173 238 239
f 173 239 240
f 173 240 241
f 173 241 174
f 174 241 242
f 174 242 217
f 177 196 243
f 177 243 178
f 178 243 244
f 178 244 181
f 179 184 245
f 179 245 246
f 179 246 190
f 179 190 180
f 180 190 189
f 181 244 247
f 181 247 182
f 182 247 248
f 182 248 249
f 182 249 250
f 182 250 251
f 182 251 183
f 183 251 252
f 183 252 245
f 183 245 184
f 185 192 191
f 185 191 253
f 185 253 254
f 185 254 186
f 186 255 187
f 186 254 256
f 186 256 255
f 187 255 188
f 188 257 200
f 188 255 257
f 190 246 258
f 190 258 259
f 190 259 191
f 191 259 253
f 193 195 197
f 194 260 195
f 194 217 242
f 194 242 260
f 195 260 261
f 195 261 197
f 196 197 262
f 196 262 247
f 196 247 244
f 196 244 243
f 197 261 263
f 197 263 262
f 198 200 199
f 200 257 264
f 200 264 201
f 201 265 202
f 201 264 257
f 201 257 265
f 202 265 266
f 202 266 267
f 202 267 268
f 202 268 203
f 203 268 204
f 204 268 205
f 205 268 269
f 205 269 270
f 205 270 271
f 205 271 206
f 206 271 272
f 206 272 207
f 207 272 208
f 208 272 209
f 209 272 210
f 210 272 271
f 210 271 273
f 210 273 211
f 211 273 274
f 211 274 212
f 212 274 213
f 213 274 275
f 213 275 214
f 214 276 215
f 214 275 276
f 215 277 278
f 215 278 279
f 215 279 216
f 215 276 277
f 216 279 280
f 216 280 281
f 216 281 218
f 218 281 219
f 219 281 282
f 219 282 283
f 219 283 284
f 219 284 285
f 219 285 220
f 220 285 286
f 220 286 221
f 221 286 222
f 222 286 287
f 222 287 288
f 222 288 223
f 223 288 289
f 223 289 290
f 223 290 224
f 225 226 227
f 226 291 227
f 227 291 292
f 227 292 293
f 227 293 294
f 227 294 295
f 227 295 296
f 227 296 228
f 228 296 297
f 228 297 229
f 229 298 230
f 229 297 299
f 229 299 300
f 229 300 301
f 229 301 298
f 230 298 302
f 230 302 231
f 231 302 303
f 231 303 232
f 232 303 233
f 233 303 304
f 233 304 305
f 233 305 306
f 233 306 235
f 235 306 236
f 236 306 307
f 236 307 308
f 236 308 237
f 237 308 238
f 238 309 310
f 238 310 311
f 238 311 239
f 238 308 309
f 239 311 312
f 239 312 260
f 239 260 240
f 240 260 242
f 240 242 241
f 245 252 246
f 246 252 258
f 247 262 263
f 247 263 248
f 248 263 261
f 248 261 249
f 249 313 250
f 249 261 313
f 250 314 315
f 250 315 252
f 250 252 251
f 250 313 314
f 252 315 258
f 253 259 316
f 253 316 317
f 253 317 254
f 254 317 256
f 255 256 318
f 255 318 319
f 255 319 320
f 255 320 257
f 256 266 318
f 256 317 321
f 256 321 266
f 257 320 319
f 257 319 265
f 258 315 314
f 258 314 322
f 258 322 259
f 259 322 323
f 259 323 324
f 259 324 316
f 260 325 261
f 260 312 325
f 261 326 327
f 261 327 328
f 261 328 329
f 261 329 330
f 261 330 313
f 261 325 326
f 265 319 266
f 266 319 318
f 266 321 331
f 266 331 332
f 266 332 333
f 266 333 334
f 266 334 335
f 266 335 267
f 267 335 268
f 268 335 336
f 268 336 269
f 269 336 337
f 269 337 338
f 269 338 270
f 270 338 271
f 271 338 339
f 271 339 273
f 273 339 340
f 273 340 341
f 273 341 276
f 273 276 275
f 273 275 274
f 276 341 342
f 276 342 343
f 276 343 277
f 277 343 344
f 277 344 278
f 278 344 345
f 278 345 346
f 278 346 280
f 278 280 279
f 280 346 281
f 281 346 347
f 281 347 282
f 282 347 348
f 282 348 283
f 283 286 285
f 283 285 284
f 283 348 349
f 283 349 350
f 283 350 287
f 283 287 286
f 287 350 351
f 287 351 288
f 288 351 289
f 289 352 353
f 289 353 290
f 289 351 352
f 290 353 354
f 292 355 293
f 292 354 355
f 293 355 356
f 293 356 357
f 293 357 358
f 293 358 294
f 294 358 359
f 294 359 295
f 295 359 360
f 295 360 296
f 296 360 361
f 296 361 362
f 296 362 297
f 297 362 299
f 298 363 302
f 298 301 364
f 298 364 363
f 299 362 300
f 300 365 366
f 300 366 301
f 300 362 361
f 300 361 365
f 301 366 367
f 301 367 364
f 302 363 303
f 303 363 304
f 304 363 305
f 305 363 368
f 305 368 306
f 306 368 369
f 306 369 370
f 306 370 307
f 307 371 372
f 307 372 308
f 307 370 371
f 308 372 373
f 308 373 309
f 309 373 374
f 309 374 375
f 309 375 310
f 310 375 327
f 310 327 311
f 311 327 326
f 311 326 312
f 312 326 325
f 313 376 377
f 313 377 314
f 313 330 378
f 313 378 379
f 313 379 376
f 314 323 322
f 314 377 323
f 316 324 380
f 316 380 321
f 316 321 317
f 321 380 331
f 323 377 381
f 323 381 324
f 324 381 382
f 324 382 383
f 324 383 380
f 327 375 328
f 328 375 384
f 328 384 329
f 329 385 378
f 329 378 330
f 329 384 386
f 329 386 385
f 331 380 383
f 331 383 382
f 331 382 387
f 331 387 332
f 332 388 333
f 332 387 388
f 333 388 334
f 334 388 335
f 335 388 336
f 336 388 337
f 337 389 390
f 337 390 391
f 337 391 338
f 337 388 389
f 338 391 339
f 339 391 392
f 339 392 340
f 340 392 341
f 341 392 393
f 341 393 342
f 342 394 343
f 342 393 395
f 342 395 394
f 343 394 344
f 344 394 395
f 344 395 345
f 345 395 396
f 345 396 397
f 345 397 346
f 346 397 347
f 347 398 399
f 347 399 400
f 347 400 348
f 347 397 398
f 348 400 401
f 348 401 402
f 348 402 403
f 348 403 349
f 349 404 350
f 349 403 405
f 349 405 404
f 350 404 351
f 351 404 352
f 352 404 406
f 352 406 407
f 352 407 408
f 352 408 353
f 353 408 409
f 353 409 354
f 354 409 410
f 354 410 355
f 355 410 356
f 356 410 411
f 356 411 357
f 357 411 412
f 357 412 413
f 357 413 414
f 357 414 358
f 358 414 415
f 358 415 359
f 359 415 416
f 359 416 360
f 360 416 417
f 360 417 365
f 360 365 361
f 363 364 418
f 363 418 368
f 364 367 418
f 365 417 419
f 365 419 366
f 366 419 367
f 367 419 420
f 367 420 421
f 367 421 418
f 368 421 369
f 368 418 421
f 369 421 422
f 369 422 423
f 369 423 371
f 369 371 370
f 371 423 424
f 371 424 425
f 371 425 373
f 371 373 372
f 373 425 426
f 373 426 374
f 374 426 427
f 374 427 428
f 374 428 384
f 374 384 375
f 376 429 430
f 376 430 377
f 376 379 431
f 376 431 432
f 376 432 429
f 377 430 433
f 377 433 381
f 378 385 431
f 378 431 379
f 381 434 382
f 381 433 435
f 381 435 434
f 382 434 436
f 382 436 387
f 384 428 386
f 385 437 431
f 385 386 438
f 385 438 439
f 385 439 437
f 386 428 427
f 386 427 438
f 387 436 440
f 387 440 390
f 387 390 389
f 387 389 388
f 390 440 441
f 390 441 391
f 391 441 442
f 391 442 392
f 392 442 443
f 392 443 393
f 393 443 395
f 395 444 445
f 395 445 396
f 395 443 444
f 396 445 446
f 396 446 447
f 396 447 448
f 396 448 397
f 397 448 398
f 398 449 399
f 398 448 449
f 399 449 450
f 399 450 451
f 399 451 401
f 399 401 400
f 401 452 453
f 401 453 454
f 401 454 402
f 401 451 452
f 402 414 455
f 402 455 403
f 402 454 416
f 402 416 415
f 402 415 414
f 403 455 405
f 404 405 413
f 404 413 406
f 405 455 413
f 406 413 456
f 406 456 407
f 407 456 412
f 407 412 457
f 407 457 408
f 408 457 412
f 408 412 409
f 409 412 411
f 409 411 410
f 412 456 413
f 413 455 414
f 416 454 458
f 416 458 417
f 417 458 459
f 417 459 419
f 419 459 460
f 419 460 461
f 419 461 420
f 420 461 462
f 420 462 421
f 421 462 463
f 421 463 464
f 421 464 422
f 422 464 465
f 422 465 466
f 422 466 467
f 422 467 424
f 422 424 423
f 424 467 425
f 425 468 469
f 425 469 426
f 425 467 468
f 426 469 427
f 427 469 468
f 427 468 470
f 427 470 471
f 427 471 472
f 427 472 473
f 427 473 438
f 429 435 430
f 429 432 474
f 429 474 435
f 430 435 433
f 431 437 475
f 431 475 432
f 432 476 477
f 432 477 474
f 432 475 478
f 432 478 479
f 432 479 476
f 434 435 474
f 434 474 480
f 434 480 481
f 434 481 482
f 434 482 436
f 436 482 483
f 436 483 484
f 436 484 440
f 437 439 485
f 437 485 475
f 438 473 439
f 439 473 486
f 439 486 485
f 440 484 441
f 441 487 443
f 441 443 442
f 441 484 488
f 441 488 487
f 443 487 444
f 444 489 446
f 444 446 445
f 444 487 488
f 444 488 489
f 446 489 490
f 446 490 491
f 446 491 447
f 447 450 448
f 447 491 450
f 448 450 449
f 450 492 451
f 450 491 492
f 451 493 494
f 451 494 452
f 451 492 493
f 452 494 453
f 453 495 454
f 453 494 495
f 454 495 458
f 458 495 459
f 459 495 460
f 460 496 497
f 460 497 498
f 460 498 462
f 460 462 461
f 460 495 494
f 460 494 496
f 462 498 463
f 463 497 464
f 463 498 497
f 464 497 499
f 464 499 465
f 465 500 466
f 465 499 501
f 465 501 500
f 466 500 470
f 466 470 467
f 467 470 468
f 470 502 471
f 470 500 502
f 471 502 472
f 472 486 473
f 472 502 501
f 472 501 486
f 474 477 480
f 475 485 478
f 476 503 480
f 476 480 477
f 476 479 504
f 476 504 505
f 476 505 503
f 478 485 486
f 478 486 479
f 479 486 506
f 479 506 504
f 480 503 483
f 480 483 481
f 481 483 482
f 483 503 490
f 483 490 484
f 484 490 489
f 484 489 488
f 486 501 506
f 490 503 491
f 491 505 492
f 491 503 505
f 492 505 507
f 492 507 508
f 492 508 509
f 492 509 493
f 493 509 494
f 494 509 510
f 494 510 496
f 496 510 497
f 497 510 509
f 497 509 511
f 497 511 501
f 497 501 499
f 500 501 502
f 501 511 506
f 504 506 508
f 504 508 507
f 504 507 505
f 506 511 508
f 508 511 509

