# https://github.com/mikedh/trimesh
v 0.11941554 -0.14714131 0.24908428
v 0.05207409 -0.13705756 0.25268504
v 0.11941554 -0.14911011 0.24841213
v 0.11941554 -0.14616323 0.24865218
v -0.00826570 -0.09849571 0.25772613
v -0.01154554 -0.09849571 0.25844628
v -0.01201077 -0.11489601 0.25839829
v 0.05249280 -0.13279815 0.25378928
v 0.05016667 -0.13451454 0.25350124
v 0.04905012 -0.13837008 0.25210893
v -0.02166421 -0.11593720 0.25835025
v 0.11941554 -0.15048574 0.24783601
v 0.11941554 -0.14478129 0.24773999
v 0.06365822 -0.09849571 0.23559338
v -0.00752134 -0.09849571 0.25753409
v -0.01296448 -0.09849571 0.25854230
v -0.01968700 -0.11373493 0.25883037
v 0.03006891 -0.15248609 0.24586758
v -0.07258318 -0.16295476 0.23924215
v -0.02657234 -0.11376017 0.25873435
v -0.07779370 -0.16295476 0.23895410
v -0.07351363 -0.16295476 0.23919414
v 0.03227873 -0.15532568 0.24461931
v 0.04590985 -0.16295476 0.24053843
v 0.08638450 -0.15947783 0.24250686
v 0.08650081 -0.16295476 0.24001032
v 0.11941554 -0.16292952 0.23842598
v 0.11941554 -0.09849571 0.20462672
v -0.02061745 -0.09849571 0.25887838
v -0.02675843 -0.09849571 0.25878236
v -0.03476031 -0.09849571 0.25854230
v -0.03785406 -0.09849571 0.25825423
v -0.11822183 -0.09849571 0.24697182
v -0.11819857 -0.16295476 0.23597746
v 0.06461193 -0.16295476 0.24044241
v 0.08926890 -0.16295476 0.23977026
v 0.10434221 -0.16295476 0.23842598
v 0.11941554 -0.16295476 0.22095023
v 0.11941554 -0.09849571 -0.22112876
v -0.11822183 -0.16295476 0.23573740
v -0.11822183 -0.09849571 -0.23121092
v 0.11941554 -0.16295476 -0.20999037
v 0.11941554 -0.11696577 -0.22050463
v 0.05232996 -0.11722449 -0.22487356
v -0.04148283 -0.09849571 -0.23087485
v -0.11822183 -0.16295476 -0.21531951
v -0.11301130 -0.09849571 -0.23159501
v -0.11603527 -0.11517998 -0.23116291
v -0.11822183 -0.11666288 -0.23077883
v 0.04532832 -0.16295476 -0.21267894
v 0.06977594 -0.15832937 -0.21359114
v 0.11941554 -0.16243102 -0.21018240
v 0.11941554 -0.12201396 -0.21959242
v 0.09580532 -0.12362307 -0.22098473
v 0.05295802 -0.12080871 -0.22453749
v 0.04960839 -0.11945201 -0.22492157
v -0.04399505 -0.11851178 -0.23020270
v -0.04329721 -0.09849571 -0.23097087
v -0.11822183 -0.16277176 -0.21541552
v -0.11787292 -0.16295476 -0.21531951
v -0.07018726 -0.09849571 -0.23154700
v -0.11319739 -0.11710460 -0.23111491
v -0.11822183 -0.11767883 -0.23063479
v -0.04657705 -0.16295476 -0.21488741
v -0.04764707 -0.16020350 -0.21642375
v -0.04783316 -0.15656881 -0.21796007
v -0.02899151 -0.15487766 -0.21805610
v -0.02794475 -0.15165313 -0.21925636
v 0.07010160 -0.15560965 -0.21450333
v -0.04329721 -0.13722794 -0.22506560
v 0.11941554 -0.16070201 -0.21075852
v 0.11941554 -0.12302360 -0.21940039
v 0.11941554 -0.12526374 -0.21896829
v 0.05102734 -0.12342745 -0.22415340
v -0.04594900 -0.12128828 -0.22977062
v -0.06595371 -0.12229792 -0.23015469
v -0.06834962 -0.12034806 -0.23049077
v -0.06737265 -0.09849571 -0.23149899
v -0.04643748 -0.09849571 -0.23106690
v -0.04480919 -0.09849571 -0.23101889
v -0.05092691 -0.15885311 -0.21704789
v -0.11822183 -0.14711608 -0.22228101
v -0.11759378 -0.14709714 -0.22232902
v -0.05053147 -0.16295476 -0.21493542
v -0.11131323 -0.11994420 -0.23053879
v -0.11347653 -0.12248722 -0.22996266
v -0.11580266 -0.11935104 -0.23058678
v -0.11822183 -0.11988110 -0.23020270
v -0.04678640 -0.13822496 -0.22477753
v -0.02150138 -0.12808441 -0.22698602
v -0.06572109 -0.12840623 -0.22847433
v -0.04394852 -0.13385196 -0.22612183
v 0.11941554 -0.15884680 -0.21123864
v -0.04429745 -0.12364831 -0.22909847
v -0.06365084 -0.12483463 -0.22948255
v -0.06618632 -0.12538363 -0.22938654
v -0.06895442 -0.12348425 -0.22986664
v -0.11822183 -0.14631468 -0.22261707
v -0.11822183 -0.14370224 -0.22357728
v -0.11645398 -0.14259794 -0.22396137
v -0.11747747 -0.12253140 -0.22967459
v -0.06853571 -0.12653209 -0.22909847
v -0.09114569 -0.13242584 -0.22732209
v -0.11822183 -0.13974571 -0.22482555
v -0.11822183 -0.12265760 -0.22953056
v -0.09079677 -0.13542321 -0.22626586
v -0.11822183 -0.14213099 -0.22410540
v -0.11822183 -0.12417837 -0.22914648
f 1 2 3
f 1 3 12
f 1 12 27
f 1 27 38
f 1 38 42
f 1 42 52
f 1 52 71
f 1 71 93
f 1 93 73
f 1 73 72
f 1 72 53
f 1 53 43
f 1 43 39
f 1 39 28
f 1 28 13
f 1 13 4
f 1 4 5
f 1 5 6
f 1 6 7
f 1 7 8
f 1 8 9
f 1 9 2
f 2 10 3
f 2 9 11
f 2 11 10
f 3 10 12
f 4 13 14
f 4 14 15
f 4 15 5
f 5 15 14
f 5 14 28
f 5 28 39
f 5 39 45
f 5 45 58
f 5 58 80
f 5 80 79
f 5 79 78
f 5 78 61
f 5 61 47
f 5 47 41
f 5 41 33
f 5 33 32
f 5 32 31
f 5 31 30
f 5 30 29
f 5 29 16
f 5 16 6
f 6 16 7
f 7 16 17
f 7 17 8
f 8 17 9
f 9 17 11
f 10 18 12
f 10 11 19
f 10 19 18
f 11 17 20
f 11 20 21
f 11 21 22
f 11 22 19
f 12 18 23
f 12 23 24
f 12 24 25
f 12 25 26
f 12 26 27
f 13 28 14
f 16 29 17
f 17 29 20
f 18 19 23
f 19 22 21
f 19 21 34
f 19 34 40
f 19 40 46
f 19 46 60
f 19 60 84
f 19 84 64
f 19 64 50
f 19 50 42
f 19 42 38
f 19 38 37
f 19 37 36
f 19 36 26
f 19 26 35
f 19 35 24
f 19 24 23
f 20 29 30
f 20 30 31
f 20 31 32
f 20 32 33
f 20 33 34
f 20 34 21
f 24 35 25
f 25 35 26
f 26 36 27
f 27 36 37
f 27 37 38
f 33 40 34
f 33 41 49
f 33 49 63
f 33 63 88
f 33 88 105
f 33 105 108
f 33 108 104
f 33 104 107
f 33 107 99
f 33 99 98
f 33 98 82
f 33 82 59
f 33 59 46
f 33 46 40
f 39 43 44
f 39 44 45
f 41 47 48
f 41 48 49
f 42 50 51
f 42 51 52
f 43 53 54
f 43 54 55
f 43 55 56
f 43 56 44
f 44 56 57
f 44 57 45
f 45 57 58
f 46 59 60
f 47 61 62
f 47 62 48
f 48 62 63
f 48 63 49
f 50 64 65
f 50 65 66
f 50 66 67
f 50 67 68
f 50 68 51
f 51 69 52
f 51 68 70
f 51 70 69
f 52 69 71
f 53 72 54
f 54 72 73
f 54 73 74
f 54 74 55
f 55 74 57
f 55 57 56
f 57 75 76
f 57 76 77
f 57 77 61
f 57 61 78
f 57 78 79
f 57 79 80
f 57 80 58
f 57 74 75
f 59 81 65
f 59 65 60
f 59 82 83
f 59 83 81
f 60 65 84
f 61 77 62
f 62 77 76
f 62 76 85
f 62 85 86
f 62 86 87
f 62 87 63
f 63 87 88
f 64 84 65
f 65 81 66
f 66 83 89
f 66 89 70
f 66 70 68
f 66 68 67
f 66 81 83
f 69 70 90
f 69 90 71
f 70 89 91
f 70 91 92
f 70 92 90
f 71 90 93
f 73 93 74
f 74 90 75
f 74 93 90
f 75 90 94
f 75 94 95
f 75 95 76
f 76 86 85
f 76 95 96
f 76 96 97
f 76 97 86
f 82 98 83
f 83 98 99
f 83 99 100
f 83 100 89
f 86 101 87
f 86 97 102
f 86 102 103
f 86 103 104
f 86 104 101
f 87 101 88
f 88 101 105
f 89 100 106
f 89 106 91
f 90 92 95
f 90 95 94
f 91 106 103
f 91 103 102
f 91 102 96
f 91 96 95
f 91 95 92
f 96 102 97
f 99 107 100
f 100 107 103
f 100 103 106
f 101 104 108
f 101 108 105
f 103 107 104

