# https://github.com/mikedh/trimesh
v -0.19446510 0.04832339 0.21303734
v -0.19446510 0.20589195 0.17678118
v -0.21137421 0.06940170 0.22830564
v -0.27581409 0.04832339 0.19898081
v -0.28062391 0.04832339 -0.26236427
v -0.19446510 0.04870296 -0.25107059
v -0.21233021 0.21011773 0.17101315
v -0.21002986 0.18488955 0.19650880
v -0.19446510 0.24782082 0.13010380
v -0.21233021 0.23559895 0.14314243
v -0.22003789 0.07332383 0.22467032
v -0.28609100 0.05783772 0.19355208
v -0.30769044 0.04832339 0.18099815
v -0.30443409 0.04832339 -0.26372147
v -0.30234286 0.06644112 -0.26376992
v -0.19446510 0.07833404 -0.25271860
v -0.25788921 0.05204310 -0.25979531
v -0.23150980 0.18392800 0.18720239
v -0.22523610 0.24268410 0.12957060
v -0.23007581 0.23089239 0.13960406
v -0.23309317 0.20887783 0.16097969
v -0.22744684 0.18046135 0.19229183
v -0.21002986 0.25875220 0.11498090
v -0.20988047 0.25323591 0.12297859
v -0.19446510 0.28752294 0.06006349
v -0.21002986 0.27132833 0.09505940
v -0.21056759 0.26707724 0.10199073
v -0.23646902 0.17813337 0.18904430
v -0.30096862 0.07241289 0.18225837
v -0.32630244 0.04832339 0.16980138
v -0.32940939 0.04832339 -0.26507863
v -0.35399634 0.06603625 -0.26638734
v -0.34664714 0.06788345 -0.26599959
v -0.30213374 0.11418993 -0.25727484
v -0.19446510 0.09875444 -0.25044045
v -0.25460300 0.23425783 0.12181529
v -0.25451338 0.21545690 0.14086431
v -0.26989889 0.20404476 0.14081582
v -0.21570605 0.25887871 0.11231501
v -0.23981500 0.24493617 0.11847080
v -0.19446510 0.29073656 0.05099945
v -0.20997010 0.28258866 0.07242354
v -0.21143396 0.27555412 0.08662549
v -0.23285416 0.26867139 0.08623772
v -0.22801445 0.26467335 0.09612576
v -0.27960819 0.18519321 0.15080082
v -0.28680798 0.17889249 0.15065542
v -0.28555325 0.16239423 0.16476041
v -0.29681605 0.15353779 0.16141593
v -0.31569690 0.14204973 0.15317589
v -0.32424107 0.13592614 0.14954057
v -0.33194876 0.06821240 0.16350016
v -0.33535448 0.04832339 0.16408181
v -0.38282549 0.04832339 -0.26478782
v -0.37216020 0.04860173 -0.26687205
v -0.36669311 0.05219491 -0.26687205
v -0.36800760 0.06930048 -0.26575723
v -0.36104679 0.07269122 -0.26556334
v -0.37192118 0.11601183 -0.25679013
v -0.31754911 0.16011685 -0.24423620
v -0.27892107 0.15242441 -0.24569032
v -0.22538549 0.14640203 -0.24399385
v -0.19446510 0.14442831 -0.24186113
v -0.19446510 0.13172567 -0.24438161
v -0.25872570 0.23653521 0.11643503
v -0.26150405 0.23489043 0.11638656
v -0.27414107 0.23279020 0.10945524
v -0.28650925 0.19992019 0.13155791
v -0.25543949 0.25758821 0.08914597
v -0.25818795 0.24319017 0.10867970
v -0.26231068 0.23873666 0.11144253
v -0.21200158 0.29617694 0.03354996
v -0.19446510 0.30637449 -0.01051000
v -0.20964147 0.30146551 0.01721530
v -0.21896240 0.28643486 0.05788230
v -0.22009765 0.27970397 0.07203577
v -0.23611051 0.27160668 0.07833698
v -0.24115935 0.26707724 0.08366877
v -0.30252212 0.18423165 0.13286662
v -0.29308170 0.17828520 0.14595374
v -0.29615879 0.16173631 0.15661731
v -0.30288061 0.15811783 0.15356365
v -0.32152247 0.14354268 0.14774716
v -0.33078364 0.13369939 0.14503279
v -0.34348041 0.12388140 0.13737440
v -0.33846146 0.06312628 0.15957403
v -0.34189704 0.04870296 0.15947708
v -0.35495234 0.04832339 0.14963752
v -0.39979434 0.04832339 -0.26129791
v -0.38706771 0.06401192 -0.26328522
v -0.37918076 0.06942700 -0.26449698
v -0.38339311 0.11148240 -0.25514212
v -0.37825465 0.12016170 -0.25412422
v -0.36502013 0.15500543 -0.24210349
v -0.33637023 0.15809253 -0.24443007
v -0.33798346 0.17580539 -0.23711097
v -0.29152820 0.18569928 -0.23313639
v -0.27426058 0.17628616 -0.23725641
v -0.22610247 0.17147839 -0.23701406
v -0.19446510 0.17795624 -0.23328179
v -0.27799493 0.23562425 0.10266932
v -0.28695735 0.22914641 0.10189379
v -0.29036307 0.20930800 0.11905245
v -0.25290012 0.26201642 0.08376571
v -0.25947258 0.26396483 0.07484708
v -0.27190048 0.25518432 0.07809462
v -0.26945075 0.25202131 0.08551066
v -0.25986096 0.25321060 0.09224810
v -0.22947833 0.28744704 0.04707331
v -0.25116739 0.29081249 0.01682753
v -0.19446510 0.30612147 -0.04051342
v -0.21164308 0.30682996 -0.03164327
v -0.21286795 0.30665284 -0.02330629
v -0.22263700 0.30121246 0.00214088
v -0.23348154 0.27692053 0.06878823
v -0.24217510 0.27317554 0.07043624
v -0.25203377 0.27021495 0.06927294
v -0.31199241 0.19630170 0.11246043
v -0.31775823 0.19278443 0.11047312
v -0.31402391 0.17446427 0.13020074
v -0.32689992 0.14103757 0.14440268
v -0.32158223 0.16598740 0.12986144
v -0.33398023 0.14334024 0.13514477
v -0.34837988 0.12327410 0.13262427
v -0.35767093 0.11249456 0.12816495
v -0.36594623 0.08825324 0.12850425
v -0.35901529 0.06973065 0.14004031
v -0.37084571 0.04832339 0.13562948
v -0.41120651 0.04966451 -0.25742024
v -0.40487307 0.06117786 -0.25901979
v -0.43698841 0.04832339 -0.24215195
v -0.39722511 0.07937150 -0.25780803
v -0.40397680 0.07942212 -0.25572377
v -0.41753995 0.07618319 -0.25170070
v -0.38715732 0.11894710 -0.25184610
v -0.37699991 0.16290030 -0.23362109
v -0.36761922 0.16497524 -0.23604462
v -0.35563946 0.17724772 -0.23245779
v -0.34318167 0.17922144 -0.23420274
v -0.33436862 0.18033482 -0.23463899
v -0.29953465 0.18952021 -0.23114908
v -0.29194644 0.19131680 -0.23003426
v -0.24593931 0.18547155 -0.23187613
v -0.24408707 0.19156983 -0.22838625
v -0.19446510 0.20090705 -0.21980691
v -0.29024360 0.23519409 0.09069704
v -0.29096058 0.23053813 0.09617423
v -0.28955647 0.24807388 0.07242354
v -0.31766862 0.20571482 0.09675588
v -0.25887507 0.26770985 0.06820658
v -0.27656096 0.26416728 0.05696136
v -0.28644949 0.25989088 0.05444087
v -0.25756061 0.27378282 0.05599194
v -0.23049405 0.29951710 0.00025052
v -0.24420658 0.29637939 -0.00605068
v -0.27432033 0.28658670 -0.00275467
v -0.28396988 0.28385386 -0.00595374
v -0.26652303 0.28529617 0.01614894
v -0.19446510 0.30222464 -0.06857802
v -0.21815579 0.29650590 -0.08830563
v -0.22789496 0.30260420 -0.04380944
v -0.21860391 0.30528641 -0.03508469
v -0.22177063 0.30485624 -0.02248229
v -0.26655290 0.27135363 0.05293828
v -0.33613122 0.19113967 0.09355681
v -0.34996325 0.18068908 0.08749796
v -0.34085143 0.14880593 0.12307552
v -0.34479490 0.13919038 0.12593532
v -0.35190511 0.14020254 0.11696821
v -0.35853729 0.13190280 0.11483549
v -0.38894981 0.08789898 0.10426886
v -0.38411009 0.04832339 0.11953715
v -0.41849595 0.06089952 -0.25330022
v -0.44421813 0.04832339 -0.23604462
v -0.43722743 0.05829320 -0.24137643
v -0.42978862 0.06046935 -0.24617502
v -0.42040795 0.07066690 -0.25111905
v -0.42330578 0.08898706 -0.24539950
v -0.41795820 0.09442744 -0.24651432
v -0.41096750 0.10007025 -0.24791998
v -0.40681493 0.11803615 -0.24336371
v -0.38745606 0.16085067 -0.22935566
v -0.37628290 0.17092170 -0.22901636
v -0.36884409 0.17869006 -0.22727141
v -0.34954500 0.18324479 -0.22988883
v -0.32543606 0.19506180 -0.22538105
v -0.30595770 0.19458103 -0.22707754
v -0.28519475 0.20326033 -0.22063091
v -0.23712626 0.21662089 -0.21016121
v -0.23715612 0.19822481 -0.22353917
v -0.22672984 0.19842725 -0.22300598
v -0.19446510 0.20644864 -0.21578383
v -0.29636791 0.23653521 0.08216617
v -0.31934160 0.22836198 0.06747952
v -0.33165002 0.20551239 0.08240853
v -0.29600942 0.25867629 0.04489212
v -0.33389062 0.23524469 0.03985116
v -0.33735609 0.20057809 0.08192382
v -0.27267724 0.26884854 0.05162957
v -0.28874984 0.26333225 0.04450436
v -0.27366310 0.29081249 -0.03125550
v -0.30288061 0.27826166 -0.02597218
v -0.31378490 0.27254292 -0.01797450
v -0.32146272 0.26803881 -0.01366060
v -0.30374700 0.26474926 0.02186850
v -0.28065377 0.27578184 0.02327415
v -0.19446510 0.26646996 -0.15194780
v -0.21011947 0.29066065 -0.10866337
v -0.21101572 0.29602513 -0.09286188
v -0.22535560 0.29463339 -0.09208635
v -0.24611856 0.29235601 -0.09019599
v -0.25851658 0.29412732 -0.06440952
v -0.26428241 0.29319108 -0.05961092
v -0.26392391 0.29377306 -0.05282501
v -0.26015970 0.29506356 -0.04637839
v -0.25806847 0.29574677 -0.03988330
v -0.35307023 0.18701510 0.07760992
v -0.35513157 0.17977813 0.08177841
v -0.36006090 0.13939281 0.10717710
v -0.37159258 0.14308721 0.08895209
v -0.40950364 0.15551151 0.02501910
v -0.43226820 0.11702399 0.01794236
v -0.45285192 0.08964497 -0.00100972
v -0.40170634 0.06917396 0.09297516
v -0.41108701 0.04832339 0.07983957
v -0.42877287 0.06661825 -0.24627197
v -0.47253940 0.04832339 -0.21040356
v -0.44550273 0.07145133 -0.23279709
v -0.42889237 0.07646154 -0.24457550
v -0.43412045 0.08162357 -0.23919523
v -0.42948985 0.09447805 -0.23885593
v -0.41586697 0.11416463 -0.24001923
v -0.41183388 0.12309697 -0.23774111
v -0.39432725 0.15520786 -0.22882247
v -0.38909918 0.16664530 -0.22441164
v -0.38981616 0.17398350 -0.21767420
v -0.37622315 0.18921655 -0.21161535
v -0.36627486 0.19055767 -0.21631703
v -0.35572907 0.19108906 -0.22160032
v -0.33087328 0.19979367 -0.22029161
v -0.30022177 0.20956105 -0.21491137
v -0.26165342 0.22502184 -0.20269671
v -0.22368261 0.23155031 -0.19552305
v -0.19446510 0.22039120 -0.20444167
v -0.19446510 0.21409048 -0.20977345
v -0.33920833 0.22952597 0.04164458
v -0.34458578 0.20758733 0.06510445
v -0.30948293 0.25412154 0.03611891
v -0.34189704 0.23724371 0.02477675
v -0.34198669 0.23319507 0.03209583
v -0.35214409 0.19313869 0.07208425
v -0.27485809 0.29093900 -0.04981982
v -0.28498563 0.28729522 -0.04715392
v -0.29789153 0.28208256 -0.04439109
v -0.29795128 0.28107041 -0.03353363
v -0.31847525 0.27312493 -0.05272806
v -0.32728830 0.26884854 -0.05500619
v -0.35829830 0.23810406 -0.01026764
v -0.34802139 0.24394929 -0.00396644
v -0.33771458 0.24326609 0.01794236
v -0.32624269 0.25394443 0.01193198
v -0.31707114 0.25763881 0.01779695
v -0.34174767 0.26044756 -0.05175865
v -0.34927613 0.25591815 -0.05471537
v -0.35823855 0.24802326 -0.04540897
v -0.35814893 0.24685928 -0.03915624
v -0.37162244 0.23468801 -0.03081926
v -0.19446510 0.24192497 -0.18224204
v -0.21863379 0.25174296 -0.17162693
v -0.21415256 0.26115608 -0.15936384
v -0.22093414 0.26485050 -0.15422592
v -0.22338387 0.26905096 -0.14782777
v -0.21020910 0.27588308 -0.13726114
v -0.20967135 0.28048840 -0.12931192
v -0.21125472 0.28514436 -0.12053871
v -0.22111338 0.28415751 -0.12218672
v -0.25445363 0.28167769 -0.11927848
v -0.21403307 0.29334289 -0.10008404
v -0.24247384 0.29111612 -0.09649720
v -0.26780763 0.28876284 -0.08694845
v -0.25036079 0.28896528 -0.09993862
v -0.28044468 0.28317064 -0.10158663
v -0.27889118 0.28886408 -0.06450647
v -0.28701711 0.28443584 -0.08331314
v -0.35596806 0.19559319 0.06418350
v -0.39041367 0.17388228 0.03844551
v -0.41470185 0.15386674 0.01828166
v -0.42136392 0.14923610 0.01096257
v -0.43495694 0.11932667 0.01164116
v -0.44302315 0.11241864 0.00214088
v -0.45076069 0.10371404 -0.00580833
v -0.45341957 0.09576856 -0.00551751
v -0.44956571 0.09662890 0.00058982
v -0.45497304 0.08010533 0.00005664
v -0.45849824 0.09012575 -0.01133400
v -0.46014136 0.07790387 -0.00794105
v -0.45978287 0.07071751 -0.00469350
v -0.46139610 0.06401192 -0.00537209
v -0.46605659 0.05108154 -0.01026764
v -0.47197178 0.05037302 -0.02151287
v -0.49252561 0.04903190 -0.07095309
v -0.47854424 0.04832339 -0.20264825
v -0.46847641 0.08410337 -0.20167884
v -0.46345747 0.08276226 -0.20856169
v -0.45228431 0.08053549 -0.22324833
v -0.44496500 0.08169948 -0.23022813
v -0.42354479 0.10950868 -0.23657781
v -0.43809378 0.10305613 -0.22727141
v -0.42990810 0.10955928 -0.23129448
v -0.41792834 0.12603225 -0.23202154
v -0.39740437 0.16257136 -0.22184268
v -0.40421581 0.16340639 -0.21597773
v -0.40012297 0.17127596 -0.21214852
v -0.39504427 0.17747545 -0.21006429
v -0.39420778 0.18759710 -0.19959459
v -0.37251869 0.19905984 -0.20182425
v -0.36266002 0.20027444 -0.20696214
v -0.35686430 0.20095766 -0.20943415
v -0.34670690 0.20257711 -0.21219701
v -0.33541423 0.21004182 -0.20822239
v -0.32914054 0.20784037 -0.21243936
v -0.30909455 0.22084667 -0.20201814
v -0.27966791 0.22821015 -0.19731647
v -0.25923359 0.23607972 -0.19038513
v -0.24092036 0.23817997 -0.18893102
v -0.19446510 0.23739554 -0.18733147
v -0.37248883 0.20419657 0.03020547
v -0.36522925 0.23218291 -0.00983141
v -0.37422156 0.22492063 -0.01181871
v -0.37921065 0.20396884 0.02031743
v -0.29287258 0.28443584 -0.06479730
v -0.30512121 0.27955216 -0.06053186
v -0.30778009 0.27818573 -0.05476384
v -0.32349420 0.27107528 -0.06465188
v -0.32567507 0.27003783 -0.07100156
v -0.34330118 0.26047286 -0.07216486
v -0.34342065 0.26014394 -0.06053186
v -0.35997128 0.24860525 -0.06038645
v -0.38222799 0.23000675 -0.04487579
v -0.37466967 0.22793181 -0.02030110
v -0.23879924 0.24250697 -0.18369615
v -0.22789496 0.26237068 -0.15747347
v -0.23530391 0.25586754 -0.16600433
v -0.24486382 0.27056921 -0.14370775
v -0.23339191 0.27469379 -0.13827902
v -0.21902215 0.27388403 -0.14021786
v -0.23527402 0.27927381 -0.13032982
v -0.27106398 0.27879304 -0.11927848
v -0.26951051 0.28172830 -0.11210480
v -0.25260139 0.28582758 -0.10837254
v -0.27249798 0.26598915 -0.14724612
v -0.27904055 0.28529617 -0.09160165
v -0.30422497 0.27745193 -0.09106847
v -0.29143858 0.27707237 -0.11258950
v -0.30661497 0.27762905 -0.08341008
v -0.40627718 0.17175673 0.01479176
v -0.42214066 0.15644777 0.00238323
v -0.43167073 0.14728768 -0.00682622
v -0.44556248 0.13020742 -0.01748979
v -0.44338164 0.12233785 -0.00619610
v -0.45521203 0.10024738 -0.01181871
v -0.45933476 0.11021719 -0.02728090
v -0.46303922 0.09058122 -0.02083428
v -0.46510059 0.08326834 -0.02088275
v -0.46698269 0.07608198 -0.02088275
v -0.46602669 0.06575791 -0.01419378
v -0.46961167 0.06044405 -0.01957404
v -0.49485585 0.05571219 -0.07390980
v -0.49856031 0.05067667 -0.10822713
v -0.49954617 0.04910782 -0.13924845
v -0.49757445 0.05085380 -0.15238404
v -0.49282438 0.05275161 -0.16852480
v -0.48786515 0.06702311 -0.17361423
v -0.48481792 0.08157296 -0.17293563
v -0.47708035 0.07949803 -0.18941572
v -0.46291971 0.10032329 -0.19969153
v -0.45939451 0.09232720 -0.20919180
v -0.47125477 0.09121382 -0.19329339
v -0.44762385 0.09766636 -0.22019467
v -0.42566589 0.12686728 -0.22552645
v -0.44627947 0.10495394 -0.21777114
v -0.41727108 0.16047111 -0.20628357
v -0.41290936 0.16694896 -0.20473251
v -0.44182813 0.17393288 -0.16799164
v -0.40654606 0.20017323 -0.17283872
v -0.40385732 0.20520875 -0.16876715
v -0.39098129 0.22023937 -0.15800664
v -0.34849939 0.21479899 -0.19639552
v -0.33610135 0.21750653 -0.19843128
v -0.32170171 0.21732940 -0.20332685
v -0.31566700 0.22190943 -0.19910988
v -0.29033321 0.23203108 -0.19111219
v -0.26753879 0.24293715 -0.18040016
v -0.38348272 0.21570994 -0.01206106
v -0.38464785 0.20318441 0.01144728
v -0.38366199 0.21991041 -0.02194911
v -0.30013213 0.28155118 -0.06431258
v -0.31151441 0.27600959 -0.07899924
v -0.32758704 0.26862079 -0.07865994
v -0.34554178 0.25606996 -0.11641870
v -0.38109276 0.23127195 -0.14632517
v -0.39372978 0.22264326 -0.14768237
v -0.36469150 0.24546754 -0.07938701
v -0.36743999 0.24326609 -0.06305234
v -0.38626108 0.22896928 -0.06314929
v -0.39435714 0.22150457 -0.06407023
v -0.40343907 0.21082625 -0.05660573
v -0.40612781 0.20116009 -0.03590870
v -0.39110079 0.21292649 -0.02379100
v -0.24366882 0.25862569 -0.16125420
v -0.27739745 0.27664217 -0.12155660
v -0.27694932 0.24432886 -0.17691025
v -0.32259795 0.22681844 -0.19033667
v -0.32397220 0.24612546 -0.15960619
v -0.32433069 0.25333712 -0.14768237
v -0.28883946 0.27160668 -0.12819710
v -0.31441227 0.27074632 -0.10522194
v -0.32023785 0.26910156 -0.10216828
v -0.30210388 0.26702663 -0.13081452
v -0.33726647 0.25371668 -0.13847291
v -0.34285304 0.25252739 -0.13604936
v -0.31961048 0.27130303 -0.08830563
v -0.41261062 0.17605843 -0.00338479
v -0.42862350 0.15885165 -0.01380601
v -0.44296339 0.14412467 -0.02674771
v -0.43869129 0.14359328 -0.01724744
v -0.45431578 0.13015682 -0.03653882
v -0.46091813 0.11327899 -0.03377598
v -0.45064119 0.12051596 -0.01889545
v -0.46312883 0.10179093 -0.02931667
v -0.47161329 0.08402746 -0.03639340
v -0.47277838 0.08772185 -0.04196755
v -0.47038841 0.09840018 -0.04463344
v -0.46901417 0.10439725 -0.04671768
v -0.47480989 0.12436218 -0.08534891
v -0.48362294 0.10194276 -0.09261953
v -0.49856031 0.05928006 -0.12654909
v -0.49963582 0.05087911 -0.12490109
v -0.49808234 0.05626887 -0.14113881
v -0.48777550 0.07803039 -0.16644055
v -0.48305529 0.08757003 -0.17259637
v -0.47364476 0.09518656 -0.18616816
v -0.46175462 0.11307655 -0.19159690
v -0.45987248 0.10950868 -0.19721952
v -0.45183617 0.10862304 -0.20836779
v -0.45688501 0.09989312 -0.20778614
v -0.46775943 0.11148240 -0.18306604
v -0.44630936 0.12132569 -0.20589578
v -0.45703441 0.15100738 -0.16459867
v -0.44445711 0.17319907 -0.14409553
v -0.43928879 0.17871536 -0.15228710
v -0.40570956 0.21204084 -0.15015438
v -0.40878665 0.20695472 -0.16076946
v -0.38880044 0.22552793 -0.15039673
v -0.38581297 0.22433864 -0.15577698
v -0.34389865 0.21874642 -0.19290560
v -0.32788581 0.22254205 -0.19460210
v -0.38874069 0.20581605 -0.00285161
v -0.39384925 0.20141312 -0.00556598
v -0.38871080 0.20017323 0.00795738
v -0.34852925 0.25073081 -0.13391665
v -0.40968290 0.20870070 -0.10318617
v -0.39071241 0.22555323 -0.07357050
v -0.38396072 0.23106952 -0.07507311
v -0.41010115 0.20804280 -0.07856300
v -0.41192350 0.20358928 -0.06503965
v -0.42088592 0.19245549 -0.05902927
v -0.42572564 0.17896840 -0.03639340
v -0.40185571 0.20293137 -0.02844419
v -0.32961851 0.25483006 -0.14133269
v -0.41945195 0.17909493 -0.02175522
v -0.43274620 0.16219179 -0.02703854
v -0.43982655 0.15287988 -0.03043150
v -0.45467430 0.13572371 -0.04361555
v -0.46055961 0.11952910 -0.03954401
v -0.46300936 0.11952910 -0.04599062
v -0.46471220 0.11353203 -0.04410026
v -0.47014940 0.13602737 -0.09087458
v -0.48287606 0.10396708 -0.13847291
v -0.48616230 0.09574325 -0.12625827
v -0.44454676 0.15535969 -0.04511815
v -0.49303347 0.07666397 -0.11903612
v -0.49533385 0.06993308 -0.12688839
v -0.49330235 0.07577833 -0.13391665
v -0.49563259 0.06795936 -0.13367429
v -0.49195799 0.07476616 -0.14671296
v -0.48401129 0.09096078 -0.16333842
v -0.47373438 0.10166441 -0.18073943
v -0.47158340 0.12603225 -0.15669793
v -0.46372634 0.13481277 -0.16808856
v -0.46327823 0.14217626 -0.15684333
v -0.46223259 0.14923610 -0.09649720
v -0.45055157 0.16558254 -0.10827560
v -0.43677932 0.18266280 -0.11186244
v -0.42680115 0.19278443 -0.11026290
v -0.41873494 0.20055279 -0.10531888
v -0.42620364 0.19334112 -0.09528542
v -0.42315641 0.19430268 -0.07890230
v -0.43029648 0.18506669 -0.07483075
v -0.43552458 0.17795624 -0.07216486
v -0.43967715 0.17071927 -0.06494270
v -0.42656213 0.17165552 -0.02679619
v -0.43821329 0.16775869 -0.05190406
v -0.47492939 0.12117386 -0.15088144
v -0.47800648 0.11545514 -0.14559811
v -0.48903027 0.08688682 -0.13973315
v -0.45398718 0.15988912 -0.09649720
v -0.44081241 0.17658982 -0.09940545
v -0.43179023 0.18655963 -0.09266800
f 1 2 3
f 1 3 4
f 1 4 13
f 1 13 30
f 1 30 53
f 1 53 88
f 1 88 128
f 1 128 172
f 1 172 225
f 1 225 302
f 1 302 227
f 1 227 174
f 1 174 131
f 1 131 89
f 1 89 54
f 1 54 31
f 1 31 14
f 1 14 5
f 1 5 6
f 1 6 16
f 1 16 35
f 1 35 64
f 1 64 63
f 1 63 100
f 1 100 145
f 1 145 192
f 1 192 245
f 1 245 244
f 1 244 326
f 1 326 268
f 1 268 207
f 1 207 159
f 1 159 111
f 1 111 73
f 1 73 41
f 1 41 25
f 1 25 9
f 1 9 2
f 2 7 8
f 2 8 3
f 2 9 10
f 2 10 7
f 3 11 4
f 3 8 11
f 4 11 12
f 4 12 13
f 5 14 15
f 5 15 16
f 5 16 17
f 5 17 6
f 6 17 16
f 7 18 8
f 7 10 19
f 7 19 20
f 7 20 21
f 7 21 18
f 8 22 11
f 8 18 22
f 9 23 24
f 9 24 10
f 9 25 26
f 9 26 27
f 9 27 23
f 10 24 19
f 11 22 28
f 11 28 29
f 11 29 12
f 12 29 30
f 12 30 13
f 14 31 15
f 15 31 32
f 15 32 33
f 15 33 34
f 15 34 35
f 15 35 16
f 18 28 22
f 18 21 36
f 18 36 37
f 18 37 38
f 18 38 28
f 19 24 39
f 19 39 40
f 19 40 36
f 19 36 20
f 20 36 21
f 23 39 24
f 23 27 39
f 25 41 42
f 25 42 26
f 26 43 44
f 26 44 45
f 26 45 27
f 26 42 43
f 27 45 39
f 28 38 46
f 28 46 47
f 28 47 48
f 28 48 49
f 28 49 29
f 29 49 50
f 29 50 51
f 29 51 52
f 29 52 30
f 30 52 53
f 31 54 55
f 31 55 56
f 31 56 32
f 32 56 57
f 32 57 58
f 32 58 33
f 33 58 34
f 34 58 59
f 34 59 60
f 34 60 61
f 34 61 62
f 34 62 63
f 34 63 64
f 34 64 35
f 36 40 65
f 36 65 66
f 36 66 37
f 37 66 67
f 37 67 38
f 38 68 46
f 38 67 68
f 39 45 40
f 40 45 69
f 40 69 70
f 40 70 71
f 40 71 65
f 41 72 42
f 41 73 74
f 41 74 72
f 42 72 75
f 42 75 76
f 42 76 43
f 43 77 44
f 43 76 77
f 44 77 78
f 44 78 45
f 45 78 69
f 46 68 79
f 46 79 47
f 47 79 80
f 47 80 81
f 47 81 48
f 48 81 82
f 48 82 49
f 49 82 83
f 49 83 50
f 50 83 51
f 51 83 84
f 51 84 52
f 52 84 85
f 52 85 86
f 52 86 87
f 52 87 53
f 53 87 88
f 54 89 90
f 54 90 55
f 55 90 91
f 55 91 57
f 55 57 56
f 57 91 59
f 57 59 58
f 59 92 93
f 59 93 94
f 59 94 95
f 59 95 60
f 59 91 92
f 60 95 96
f 60 96 97
f 60 97 98
f 60 98 61
f 61 98 99
f 61 99 100
f 61 100 62
f 62 100 63
f 65 71 66
f 66 71 67
f 67 101 102
f 67 102 103
f 67 103 68
f 67 71 101
f 68 103 79
f 69 78 104
f 69 104 105
f 69 105 106
f 69 106 107
f 69 107 108
f 69 108 70
f 70 108 101
f 70 101 71
f 72 109 75
f 72 74 110
f 72 110 109
f 73 111 112
f 73 112 113
f 73 113 74
f 74 113 114
f 74 114 110
f 75 115 76
f 75 109 115
f 76 115 77
f 77 115 116
f 77 116 117
f 77 117 78
f 78 117 104
f 79 103 118
f 79 118 119
f 79 119 120
f 79 120 82
f 79 82 81
f 79 81 80
f 82 120 83
f 83 121 84
f 83 120 122
f 83 122 121
f 84 121 123
f 84 123 124
f 84 124 85
f 85 124 125
f 85 125 126
f 85 126 127
f 85 127 86
f 86 88 87
f 86 127 88
f 88 127 128
f 89 129 130
f 89 130 90
f 89 131 129
f 90 130 91
f 91 130 132
f 91 132 92
f 92 132 133
f 92 133 134
f 92 134 135
f 92 135 93
f 93 135 94
f 94 136 137
f 94 137 138
f 94 138 139
f 94 139 96
f 94 96 95
f 94 135 136
f 96 139 140
f 96 140 141
f 96 141 97
f 97 141 142
f 97 142 143
f 97 143 98
f 98 143 100
f 98 100 99
f 100 143 144
f 100 144 145
f 101 146 147
f 101 147 102
f 101 108 107
f 101 107 148
f 101 148 146
f 102 147 149
f 102 149 118
f 102 118 103
f 104 117 105
f 105 117 150
f 105 150 151
f 105 151 106
f 106 151 152
f 106 152 148
f 106 148 107
f 109 153 117
f 109 117 115
f 109 110 153
f 110 114 154
f 110 154 155
f 110 155 156
f 110 156 157
f 110 157 158
f 110 158 153
f 111 159 112
f 112 159 160
f 112 160 161
f 112 161 162
f 112 162 163
f 112 163 113
f 113 163 114
f 114 163 154
f 115 117 116
f 117 153 164
f 117 164 150
f 118 149 119
f 119 149 165
f 119 165 120
f 120 165 122
f 121 122 123
f 122 165 166
f 122 166 123
f 123 166 167
f 123 167 168
f 123 168 124
f 124 168 169
f 124 169 170
f 124 170 125
f 125 170 171
f 125 171 126
f 126 128 127
f 126 171 128
f 128 171 172
f 129 173 130
f 129 131 173
f 130 173 134
f 130 134 133
f 130 133 132
f 131 174 175
f 131 175 176
f 131 176 173
f 134 173 177
f 134 177 178
f 134 178 179
f 134 179 180
f 134 180 135
f 135 180 181
f 135 181 136
f 136 181 182
f 136 182 183
f 136 183 184
f 136 184 137
f 137 184 138
f 138 184 185
f 138 185 139
f 139 185 186
f 139 186 140
f 140 186 141
f 141 186 187
f 141 187 142
f 142 187 188
f 142 188 189
f 142 189 190
f 142 190 144
f 142 144 143
f 144 190 191
f 144 191 145
f 145 191 192
f 146 193 147
f 146 148 193
f 147 193 194
f 147 194 195
f 147 195 149
f 148 152 196
f 148 196 197
f 148 197 193
f 149 195 198
f 149 198 165
f 150 164 199
f 150 199 151
f 151 199 152
f 152 199 200
f 152 200 196
f 153 158 164
f 154 163 155
f 155 163 201
f 155 201 156
f 156 201 157
f 157 202 203
f 157 203 204
f 157 204 158
f 157 201 202
f 158 205 206
f 158 206 164
f 158 204 205
f 159 207 208
f 159 208 209
f 159 209 160
f 160 209 210
f 160 210 211
f 160 211 161
f 161 212 213
f 161 213 214
f 161 214 215
f 161 215 162
f 161 211 212
f 162 215 216
f 162 216 163
f 163 216 201
f 164 206 199
f 165 198 217
f 165 217 166
f 166 217 218
f 166 218 169
f 166 169 167
f 167 169 168
f 169 218 219
f 169 219 170
f 170 219 220
f 170 220 171
f 171 220 221
f 171 221 222
f 171 222 223
f 171 223 224
f 171 224 172
f 172 224 225
f 173 176 226
f 173 226 177
f 174 227 228
f 174 228 175
f 175 229 226
f 175 226 176
f 175 228 229
f 177 226 229
f 177 229 178
f 178 229 230
f 178 230 231
f 178 231 232
f 178 232 179
f 179 232 181
f 179 181 180
f 181 232 233
f 181 233 182
f 182 234 235
f 182 235 183
f 182 233 234
f 183 235 184
f 184 235 236
f 184 236 237
f 184 237 238
f 184 238 239
f 184 239 185
f 185 239 240
f 185 240 186
f 186 240 241
f 186 241 187
f 187 241 188
f 188 241 242
f 188 242 189
f 189 242 243
f 189 243 244
f 189 244 245
f 189 245 192
f 189 192 191
f 189 191 190
f 193 197 194
f 194 197 246
f 194 246 247
f 194 247 195
f 195 247 198
f 196 200 205
f 196 205 248
f 196 248 197
f 197 248 249
f 197 249 250
f 197 250 246
f 198 247 251
f 198 251 217
f 199 206 205
f 199 205 200
f 201 216 252
f 201 252 253
f 201 253 254
f 201 254 255
f 201 255 202
f 202 255 254
f 202 254 203
f 203 254 256
f 203 256 257
f 203 257 204
f 204 258 259
f 204 259 260
f 204 260 261
f 204 261 262
f 204 262 205
f 204 257 263
f 204 263 264
f 204 264 265
f 204 265 266
f 204 266 267
f 204 267 258
f 205 262 248
f 207 268 269
f 207 269 270
f 207 270 271
f 207 271 272
f 207 272 273
f 207 273 274
f 207 274 275
f 207 275 208
f 208 275 276
f 208 276 277
f 208 277 278
f 208 278 209
f 209 278 210
f 210 278 279
f 210 279 211
f 211 280 212
f 211 279 281
f 211 281 282
f 211 282 280
f 212 283 213
f 212 280 284
f 212 284 283
f 213 283 214
f 214 283 252
f 214 252 215
f 215 252 216
f 217 251 285
f 217 285 286
f 217 286 218
f 218 286 220
f 218 220 219
f 220 286 221
f 221 286 287
f 221 287 222
f 222 287 288
f 222 288 289
f 222 289 290
f 222 290 291
f 222 291 292
f 222 292 293
f 222 293 223
f 223 294 224
f 223 293 292
f 223 292 295
f 223 295 296
f 223 296 294
f 224 294 297
f 224 297 298
f 224 298 299
f 224 299 225
f 225 299 300
f 225 300 301
f 225 301 302
f 227 302 303
f 227 303 304
f 227 304 305
f 227 305 228
f 228 230 229
f 228 305 306
f 228 306 230
f 230 306 231
f 231 307 232
f 231 306 308
f 231 308 309
f 231 309 307
f 232 307 310
f 232 310 233
f 233 310 234
f 234 310 311
f 234 311 235
f 235 311 236
f 236 311 312
f 236 312 313
f 236 313 314
f 236 314 237
f 237 314 315
f 237 315 316
f 237 316 317
f 237 317 238
f 238 317 318
f 238 318 239
f 239 318 319
f 239 319 320
f 239 320 240
f 240 320 321
f 240 321 241
f 241 321 322
f 241 322 242
f 242 322 323
f 242 323 324
f 242 324 325
f 242 325 243
f 243 325 268
f 243 268 326
f 243 326 244
f 246 250 327
f 246 327 247
f 247 285 251
f 247 327 285
f 248 262 249
f 249 262 260
f 249 260 259
f 249 259 258
f 249 258 328
f 249 328 329
f 249 329 330
f 249 330 250
f 250 330 327
f 252 283 331
f 252 331 253
f 253 331 332
f 253 332 254
f 254 332 333
f 254 333 256
f 256 333 334
f 256 334 257
f 257 334 335
f 257 335 336
f 257 336 337
f 257 337 263
f 258 267 328
f 260 262 261
f 263 337 264
f 264 337 338
f 264 338 339
f 264 339 265
f 265 339 266
f 266 339 267
f 267 339 340
f 267 340 328
f 268 325 341
f 268 341 269
f 269 341 270
f 270 342 271
f 270 341 343
f 270 343 342
f 271 342 272
f 272 344 345
f 272 345 346
f 272 346 273
f 272 342 344
f 273 345 347
f 273 347 274
f 273 346 345
f 274 347 276
f 274 276 275
f 276 347 277
f 277 348 349
f 277 349 350
f 277 350 278
f 277 347 351
f 277 351 348
f 278 350 279
f 279 350 281
f 280 282 352
f 280 352 284
f 281 350 349
f 281 349 282
f 282 353 284
f 282 284 352
f 282 349 354
f 282 354 353
f 283 284 331
f 284 353 355
f 284 355 331
f 285 327 286
f 286 327 330
f 286 330 356
f 286 356 287
f 287 356 357
f 287 357 288
f 288 357 358
f 288 358 359
f 288 359 360
f 288 360 289
f 289 360 290
f 290 360 291
f 291 361 292
f 291 360 362
f 291 362 361
f 292 361 295
f 294 296 297
f 295 361 363
f 295 363 364
f 295 364 296
f 296 364 365
f 296 365 366
f 296 366 297
f 297 366 298
f 298 366 299
f 299 366 367
f 299 367 300
f 300 367 368
f 300 368 301
f 301 368 369
f 301 369 370
f 301 370 302
f 302 370 371
f 302 371 372
f 302 372 373
f 302 373 374
f 302 374 375
f 302 375 303
f 303 376 377
f 303 377 304
f 303 375 378
f 303 378 376
f 304 377 305
f 305 379 306
f 305 377 379
f 306 379 308
f 307 309 380
f 307 380 310
f 308 380 309
f 308 379 381
f 308 381 380
f 310 380 311
f 311 380 312
f 312 380 382
f 312 382 383
f 312 383 313
f 313 383 315
f 313 315 314
f 315 383 384
f 315 384 385
f 315 385 386
f 315 386 316
f 316 386 387
f 316 387 388
f 316 388 317
f 317 388 318
f 318 388 319
f 319 388 320
f 320 389 390
f 320 390 321
f 320 388 389
f 321 390 322
f 322 390 391
f 322 391 392
f 322 392 323
f 323 392 324
f 324 392 393
f 324 393 341
f 324 341 325
f 328 340 329
f 329 394 395
f 329 395 330
f 329 340 396
f 329 396 394
f 330 395 356
f 331 397 332
f 331 355 398
f 331 398 397
f 332 397 398
f 332 398 335
f 332 335 334
f 332 334 333
f 335 398 399
f 335 399 336
f 336 338 337
f 336 399 400
f 336 400 401
f 336 401 402
f 336 402 403
f 336 403 338
f 338 403 404
f 338 404 339
f 339 404 405
f 339 405 406
f 339 406 407
f 339 407 408
f 339 408 409
f 339 409 396
f 339 396 340
f 341 393 343
f 342 343 410
f 342 410 344
f 343 393 410
f 344 410 351
f 344 351 347
f 344 347 345
f 348 411 354
f 348 354 349
f 348 351 411
f 351 410 393
f 351 393 412
f 351 412 392
f 351 392 391
f 351 391 413
f 351 413 414
f 351 414 415
f 351 415 416
f 351 416 411
f 353 354 417
f 353 417 418
f 353 418 355
f 354 411 416
f 354 416 419
f 354 419 420
f 354 420 421
f 354 421 417
f 355 418 422
f 355 422 398
f 356 395 423
f 356 423 357
f 357 423 424
f 357 424 358
f 358 424 425
f 358 425 426
f 358 426 359
f 359 426 425
f 359 425 427
f 359 427 428
f 359 428 362
f 359 362 429
f 359 429 360
f 360 429 362
f 361 362 363
f 362 428 430
f 362 430 363
f 363 430 431
f 363 431 364
f 364 431 365
f 365 367 366
f 365 431 368
f 365 368 367
f 368 431 432
f 368 432 433
f 368 433 434
f 368 434 435
f 368 435 436
f 368 436 437
f 368 437 369
f 369 437 438
f 369 438 370
f 370 438 437
f 370 437 439
f 370 439 371
f 371 439 440
f 371 440 372
f 372 440 374
f 372 374 373
f 374 440 441
f 374 441 375
f 375 441 442
f 375 442 378
f 376 378 443
f 376 443 444
f 376 444 445
f 376 445 446
f 376 446 377
f 377 446 381
f 377 381 379
f 378 442 447
f 378 447 443
f 380 381 448
f 380 448 384
f 380 384 382
f 381 446 445
f 381 445 448
f 382 384 383
f 384 448 444
f 384 444 443
f 384 443 449
f 384 449 450
f 384 450 451
f 384 451 452
f 384 452 453
f 384 453 385
f 385 453 386
f 386 453 387
f 387 453 454
f 387 454 455
f 387 455 388
f 388 455 456
f 388 456 389
f 389 456 457
f 389 457 390
f 390 457 391
f 391 457 413
f 392 412 393
f 394 396 409
f 394 409 458
f 394 458 395
f 395 458 459
f 395 459 460
f 395 460 423
f 398 422 399
f 399 422 400
f 400 422 418
f 400 418 417
f 400 417 421
f 400 421 461
f 400 461 401
f 401 461 421
f 401 421 420
f 401 420 455
f 401 455 454
f 401 454 402
f 402 454 453
f 402 453 452
f 402 452 462
f 402 462 463
f 402 463 464
f 402 464 403
f 403 464 404
f 404 464 405
f 405 464 463
f 405 463 465
f 405 465 406
f 406 465 407
f 407 465 466
f 407 466 467
f 407 467 408
f 408 468 469
f 408 469 409
f 408 467 468
f 409 459 458
f 409 469 459
f 413 457 414
f 414 457 456
f 414 456 415
f 415 470 419
f 415 419 416
f 415 456 455
f 415 455 420
f 415 420 470
f 419 470 420
f 423 460 471
f 423 471 424
f 424 471 472
f 424 472 473
f 424 473 425
f 425 473 474
f 425 474 427
f 427 474 475
f 427 475 428
f 428 475 476
f 428 476 477
f 428 477 434
f 428 434 433
f 428 433 430
f 430 433 432
f 430 432 431
f 434 477 435
f 435 478 479
f 435 479 480
f 435 480 436
f 435 477 476
f 435 476 474
f 435 474 481
f 435 481 478
f 436 480 482
f 436 482 437
f 437 483 484
f 437 484 485
f 437 485 439
f 437 482 483
f 439 486 440
f 439 485 486
f 440 486 487
f 440 487 441
f 441 488 442
f 441 487 489
f 441 489 490
f 441 490 488
f 442 488 447
f 443 447 449
f 444 448 445
f 447 488 490
f 447 490 449
f 449 490 489
f 449 489 491
f 449 491 450
f 450 491 492
f 450 492 493
f 450 493 494
f 450 494 451
f 451 494 495
f 451 495 452
f 452 495 496
f 452 496 462
f 459 469 468
f 459 468 471
f 459 471 460
f 462 496 463
f 463 496 465
f 465 496 497
f 465 497 498
f 465 498 466
f 466 498 467
f 467 498 499
f 467 499 500
f 467 500 501
f 467 501 468
f 468 481 502
f 468 502 471
f 468 501 503
f 468 503 481
f 471 502 472
f 472 502 481
f 472 481 473
f 473 481 474
f 474 476 475
f 478 492 491
f 478 491 504
f 478 504 505
f 478 505 479
f 478 481 503
f 478 503 501
f 478 501 492
f 479 505 506
f 479 506 484
f 479 484 480
f 480 484 482
f 482 484 483
f 484 506 486
f 484 486 485
f 486 506 487
f 487 506 505
f 487 505 504
f 487 504 489
f 489 504 491
f 492 507 493
f 492 501 500
f 492 500 507
f 493 507 508
f 493 508 494
f 494 508 509
f 494 509 497
f 494 497 495
f 495 497 496
f 497 509 498
f 498 509 499
f 499 509 507
f 499 507 500
f 507 509 508

