# https://github.com/mikedh/trimesh
v -0.15286157 -0.02789134 -0.24534433
v -0.14951587 -0.02789134 -0.24529478
v -0.22441442 -0.02789134 -0.24479936
v -0.22441442 -0.01875840 -0.24658287
v -0.22441442 -0.01560092 -0.24717738
v -0.22441442 -0.00527969 -0.24910951
v -0.14789048 -0.02157637 -0.24633516
v -0.12957218 -0.02711046 -0.24494798
v -0.12547904 -0.02782343 -0.24455166
v -0.10322185 -0.02789134 -0.23994426
v -0.22441442 -0.02789134 0.20890497
v -0.22441442 -0.00188455 -0.24960493
v -0.14705998 -0.01831704 -0.24678104
v -0.10322185 -0.02188194 -0.24430394
v -0.11833681 -0.02748393 -0.24365990
v -0.10322185 -0.02789134 0.23729245
v -0.10322185 -0.02466595 0.23952183
v -0.15674116 -0.01454844 0.23397315
v -0.15881738 -0.01156071 0.23486491
v -0.16197325 -0.01115328 0.23417132
v -0.19232182 0.01614366 0.23640069
v -0.22441442 -0.00344631 0.21762434
v -0.22441442 0.00239334 -0.24980310
v -0.15112939 0.00269890 -0.24826729
v -0.14625321 -0.01471819 -0.24697921
v -0.10322185 -0.00239381 -0.24598837
v -0.10322185 -0.01414101 -0.24499753
v -0.10322185 -0.01757011 -0.24470028
v -0.10322185 -0.00935386 0.24497144
v -0.11869273 0.01393682 0.25215501
v -0.12888406 0.01369916 0.24992563
v -0.12544346 0.01441213 0.25081739
v -0.12214521 0.01610970 0.25185776
v -0.13295348 0.02714393 0.25042105
v -0.13379583 0.03118414 0.25032195
v -0.22441442 0.06992273 0.22936575
v -0.22441442 0.02663466 0.22565012
v -0.22441442 0.07654326 -0.25277561
v -0.14267024 0.00986265 -0.24831684
v -0.10322185 0.01991227 -0.24707828
v -0.10322185 -0.00589082 0.24606135
v -0.10322185 0.03807629 0.25329447
v -0.11846732 0.01756962 0.25269997
v -0.13081792 0.02979214 0.25086692
v -0.13079420 0.04890680 0.25081739
v -0.13404498 0.04744688 0.25017333
v -0.22441442 0.07426851 0.22872171
v -0.15317003 0.06564485 0.24546686
v -0.15209040 0.06920975 0.24526869
v -0.22441442 0.08004025 -0.25282514
v -0.10322185 0.07002458 -0.24856454
v -0.10322185 0.08676264 0.24928159
v -0.10323371 0.09002198 0.24903387
v -0.14863792 0.06927765 0.24596228
v -0.14961079 0.06622202 0.24611090
v -0.15250564 0.11304104 0.23501353
v -0.22441442 0.18186060 0.19879843
v -0.20806558 0.09745733 -0.25064531
v -0.18793207 0.08992012 -0.25123981
v -0.22441442 0.13171433 -0.24440303
v -0.11866900 0.09263624 -0.24831684
v -0.11850290 0.09660855 -0.24777187
v -0.10322185 0.14441216 -0.23647633
v -0.10322185 0.20314814 0.21158023
v -0.11906052 0.18963547 0.21960601
v -0.11997406 0.18586686 0.22069593
v -0.14372614 0.12404130 0.23397315
v -0.14415327 0.12994885 0.23223919
v -0.16470201 0.19191022 0.20935084
v -0.22441442 0.18562920 0.19617271
v -0.16254273 0.18936387 0.21088664
v -0.16161732 0.09966418 -0.24940675
v -0.20928760 0.14621159 -0.24152960
v -0.22441442 0.14261274 -0.24227273
v -0.12222826 0.09647275 -0.24811867
v -0.20594190 0.14780731 -0.24103418
v -0.20558597 0.17771852 -0.23350382
v -0.10322185 0.15941870 -0.23191848
v -0.10322185 0.20549080 0.20930131
v -0.11890629 0.19975300 0.21450320
v -0.11836053 0.19730850 0.21658395
v -0.11930967 0.19432077 0.21797113
v -0.12986879 0.18997499 0.21802066
v -0.13294160 0.19136700 0.21707937
v -0.16138005 0.19224973 0.20999488
v -0.15651573 0.19639181 0.20840955
v -0.15625472 0.19944744 0.20583338
v -0.22441442 0.20606796 0.17660367
v -0.20919269 0.17595305 -0.23404878
v -0.20912150 0.17985746 -0.23271115
v -0.22441442 0.20066969 -0.21997890
v -0.20579953 0.18155503 -0.23181939
v -0.20304704 0.17968771 -0.23241390
v -0.10322185 0.17262581 -0.22681567
v -0.10322185 0.16780470 -0.22889642
v -0.10322185 0.16281384 -0.23087810
v -0.10322185 0.22039548 0.19433966
v -0.12265537 0.19673133 0.21618763
v -0.12067405 0.23417975 0.17922939
v -0.13981096 0.21747565 0.19255616
v -0.14111602 0.20335186 0.20613062
v -0.14195839 0.20046598 0.20860772
v -0.13020098 0.19398126 0.21633625
v -0.13587207 0.19292876 0.21559311
v -0.13338059 0.19476214 0.21514724
v -0.15430899 0.19384545 0.21073802
v -0.14238550 0.19785172 0.21068847
v -0.15411916 0.20576240 0.20038377
v -0.22441442 0.20983657 0.17273942
v -0.16053769 0.21920717 0.18453038
v -0.22441442 0.20759578 -0.21487609
v -0.20854016 0.20430249 -0.21740271
v -0.20593004 0.20151848 -0.21913669
v -0.17928310 0.18691936 -0.22636980
v -0.10322185 0.17639442 -0.22498262
v -0.10322185 0.23295750 0.18096335
v -0.10322185 0.23679401 0.17660367
v -0.10322185 0.24888071 0.16169158
v -0.12296384 0.25210610 0.15634106
v -0.12736544 0.24324478 0.16719072
v -0.13014166 0.23594522 0.17482017
v -0.14169738 0.22365481 0.18537259
v -0.15693098 0.21981829 0.18502580
v -0.14231431 0.20545684 0.20380215
v -0.22441442 0.23577547 0.14400513
v -0.15099889 0.22609931 0.17992298
v -0.22441442 0.21628734 -0.20808885
v -0.19938101 0.21859604 -0.20546313
v -0.20475549 0.20630562 -0.21552013
v -0.15293275 0.20077154 -0.21472746
v -0.15557846 0.19920978 -0.21611463
v -0.13763982 0.19146885 -0.21958256
v -0.13459073 0.18831137 -0.22121744
v -0.10322185 0.19085772 -0.21616417
v -0.10322185 0.25156289 0.15807502
v -0.12888406 0.24497631 0.16466409
v -0.10322185 0.25363392 0.15500343
v -0.10322185 0.25916800 0.14668040
v -0.12392484 0.26052606 0.14355926
v -0.12665360 0.25926986 0.14499597
v -0.12582311 0.25298885 0.15430984
v -0.13157722 0.24209043 0.16728981
v -0.14813963 0.22548819 0.18145877
v -0.22441442 0.24663992 0.13152058
v -0.15715639 0.24083424 0.16055211
v -0.22441442 0.21927507 -0.20551267
v -0.22441442 0.22165167 -0.20323375
v -0.20924014 0.23726933 -0.18747944
v -0.19989116 0.23543595 -0.18896569
v -0.19578616 0.21883370 -0.20496771
v -0.10322185 0.21374099 -0.19981536
v -0.14917180 0.19999066 -0.21487609
v -0.15190056 0.19815728 -0.21646142
v -0.10322185 0.19377755 -0.21423204
v -0.14357191 0.26344588 0.13424538
v -0.22441442 0.25332835 0.12294985
v -0.22441442 0.24901652 0.12864716
v -0.10322185 0.26314032 0.14023995
v -0.12947726 0.26789352 0.13122334
v -0.13336872 0.26806328 0.13013342
v -0.22441442 0.24270156 -0.18138579
v -0.20861134 0.25434691 -0.16771223
v -0.20617919 0.23781255 -0.18673630
v -0.17738482 0.24854121 -0.17241871
v -0.10322185 0.22929074 -0.18554731
v -0.22441442 0.26636571 0.10367806
v -0.22441442 0.25960937 0.11388368
v -0.11846732 0.27926725 0.11224880
v -0.10322185 0.29084468 0.08698246
v -0.13097216 0.26952320 0.12830037
v -0.13473310 0.26993060 0.12661594
v -0.22441442 0.25224191 -0.17028841
v -0.22441442 0.25960937 -0.16097453
v -0.22441442 0.26375145 -0.15572311
v -0.19081508 0.25869268 -0.16161859
v -0.19412518 0.25577286 -0.16533422
v -0.17960343 0.25023878 -0.17063521
v -0.10322185 0.23838973 -0.17519306
v -0.10322185 0.23329702 -0.18108854
v -0.17548655 0.25098571 -0.16934711
v -0.13642968 0.27152634 0.12339572
v -0.22441442 0.27135658 0.09530549
v -0.12233503 0.28636310 0.09713854
v -0.12490956 0.28544641 0.09902113
v -0.12868237 0.28660077 0.09614770
v -0.13094842 0.27651718 0.11536994
v -0.13279924 0.27492148 0.11804520
v -0.13285856 0.27206954 0.12334618
v -0.10322185 0.31002724 0.04348471
v -0.22441442 0.26646757 -0.15195793
v -0.10322185 0.25271723 -0.15820019
v -0.17986444 0.26928553 -0.14616153
v -0.10322185 0.26436257 -0.14318901
v -0.16415626 0.27509123 0.10828546
v -0.14660914 0.28164387 0.10189456
v -0.22441442 0.27580422 0.08713108
v -0.14526850 0.29155767 0.08064110
v -0.11866900 0.31240386 0.03689564
v -0.10322185 0.31138530 0.04021494
v -0.22441442 0.27481961 -0.13882934
v -0.20546733 0.27448010 -0.13947338
v -0.19611835 0.27135658 -0.14383306
v -0.17988816 0.27220535 -0.14160368
v -0.10322185 0.26952320 -0.13590635
v -0.10322185 0.26653546 -0.14026605
v -0.14692947 0.29006380 0.08336590
v -0.22437882 0.28405440 0.06924647
v -0.22441442 0.28537852 0.06587762
v -0.15951736 0.29393429 0.06934556
v -0.15744114 0.29145581 0.07633096
v -0.11961813 0.31345636 0.03322954
v -0.12384178 0.31386375 0.03025703
v -0.12505193 0.31233594 0.03446809
v -0.17707635 0.29403612 0.06216199
v -0.11884697 0.31467861 0.02847352
v -0.10322185 0.31895646 -0.00100388
v -0.11858596 0.31756446 0.01301646
v -0.22441442 0.28137225 -0.12768242
v -0.20908591 0.27712831 -0.13521278
v -0.20492157 0.27641535 -0.13635224
v -0.19567938 0.27909750 -0.13139805
v -0.19335401 0.28520876 -0.12109335
v -0.19066083 0.28619334 -0.11921076
v -0.16311222 0.28904527 -0.11153176
v -0.16167665 0.29148978 -0.10722163
v -0.10322185 0.30140358 -0.08155894
v -0.22441442 0.28782302 0.05923901
v -0.12220453 0.31501812 0.02609551
v -0.12594175 0.31467861 0.02574872
v -0.14775997 0.31372795 0.01757431
v -0.22441442 0.29651457 0.03422038
v -0.22441442 0.29067492 0.05116369
v -0.12178928 0.31674963 0.01688073
v -0.10326930 0.31885463 -0.00561128
v -0.11859782 0.31865090 -0.00947554
v -0.11850290 0.31878671 0.00261267
v -0.11832494 0.31834534 0.00677419
v -0.10322185 0.31824350 -0.01442973
v -0.12110116 0.31780213 0.01053937
v -0.12318926 0.31729287 0.01316509
v -0.22441442 0.28894341 -0.11306757
v -0.20905031 0.27913144 -0.13179439
v -0.20487413 0.27841848 -0.13308248
v -0.19128963 0.29376450 -0.10400140
v -0.18932019 0.29237249 -0.10682529
v -0.17558147 0.29566580 -0.10018668
v -0.17174934 0.29512256 -0.10097935
v -0.15828350 0.29468119 -0.10083073
v -0.17153579 0.29671830 -0.09766005
v -0.14786674 0.30143753 -0.08482870
v -0.10322185 0.31023097 -0.06030549
v -0.12436381 0.31545949 0.02277621
v -0.12536040 0.31668174 0.01569172
v -0.13596697 0.31691939 0.00439618
v -0.14781930 0.31416932 0.01420547
v -0.15652759 0.31335449 0.01177792
v -0.15120058 0.31345636 0.01613760
v -0.15995635 0.31274337 0.01232288
v -0.22441442 0.30663210 -0.01234897
v -0.13247891 0.31739470 -0.01745178
v -0.12702139 0.31807375 -0.01210126
v -0.12531294 0.31834534 -0.00823699
v -0.12117235 0.31865090 0.00038329
v -0.13352296 0.31780213 -0.00471952
v -0.13572970 0.31746262 -0.00224243
v -0.13581274 0.31722495 0.00097779
v -0.13258569 0.31739470 0.00286038
v -0.12152827 0.31817558 0.00637785
v -0.11913171 0.31111369 -0.05733297
v -0.12789933 0.31274337 -0.04722644
v -0.13435344 0.31685150 -0.02077108
v -0.22441442 0.30612284 -0.04043920
v -0.20920455 0.30187890 -0.07041202
v -0.20934692 0.29709175 -0.08968381
v -0.20541987 0.29688805 -0.09181411
v -0.20258434 0.29644668 -0.09394441
v -0.19003204 0.29620901 -0.09731326
v -0.19284385 0.29488492 -0.10083073
v -0.18915409 0.29498675 -0.10107844
v -0.17931868 0.29603925 -0.09909676
v -0.17656620 0.29688805 -0.09706555
v -0.16759688 0.29821214 -0.09369670
v -0.15484288 0.30490059 -0.07492033
v -0.15148532 0.31573108 -0.00313418
v -0.15599371 0.31508601 -0.00194518
v -0.15331240 0.31511995 0.00082917
v -0.16078684 0.31481439 -0.00699845
v -0.22441442 0.30717534 -0.02091971
v -0.13614494 0.31722495 -0.01760041
v -0.13843472 0.31678358 -0.02032521
v -0.13600257 0.31770027 -0.00868287
v -0.13864829 0.31736076 -0.00566082
v -0.13884997 0.31708914 -0.00179655
v -0.19132523 0.30717534 -0.05867061
v -0.12915693 0.31145322 -0.05356779
v -0.13175519 0.31264150 -0.04722644
v -0.14477019 0.31440699 -0.03449418
v -0.19289130 0.30778646 -0.05535130
v -0.20212163 0.30496848 -0.06194037
v -0.22441442 0.30707347 -0.03231434
v -0.19488448 0.30673397 -0.05867061
v -0.19927423 0.29732943 -0.09171502
v -0.16255461 0.31474650 -0.01036729
v -0.22441442 0.30734509 -0.02562619
v -0.15146159 0.31579900 -0.01819491
v -0.14339395 0.31685150 -0.01309210
v -0.15028703 0.31396562 -0.03558410
v -0.15432087 0.31372795 -0.03518777
v -0.15913771 0.31386375 -0.03102625
v -0.16371728 0.31352425 -0.03072900
v -0.14128213 0.31274337 -0.04440255
v -0.14220753 0.31345636 -0.04053828
v -0.14728540 0.31386375 -0.03702081
v -0.16750196 0.31311682 -0.03132350
v -0.16457151 0.31308287 -0.03380059
v -0.15810554 0.31338844 -0.03543548
v -0.22441442 0.30727717 -0.02904457
v -0.16355120 0.31461069 -0.01353797
f 1 2 10
f 1 10 16
f 1 16 11
f 1 11 3
f 1 3 4
f 1 4 5
f 1 5 6
f 1 6 7
f 1 7 2
f 2 8 9
f 2 9 10
f 2 7 8
f 3 11 22
f 3 22 37
f 3 37 36
f 3 36 47
f 3 47 57
f 3 57 70
f 3 70 88
f 3 88 109
f 3 109 125
f 3 125 144
f 3 144 157
f 3 157 156
f 3 156 167
f 3 167 166
f 3 166 182
f 3 182 196
f 3 196 208
f 3 208 227
f 3 227 232
f 3 232 231
f 3 231 259
f 3 259 288
f 3 288 304
f 3 304 317
f 3 317 300
f 3 300 272
f 3 272 241
f 3 241 218
f 3 218 200
f 3 200 190
f 3 190 174
f 3 174 173
f 3 173 172
f 3 172 161
f 3 161 147
f 3 147 146
f 3 146 127
f 3 127 111
f 3 111 91
f 3 91 74
f 3 74 60
f 3 60 50
f 3 50 38
f 3 38 23
f 3 23 12
f 3 12 6
f 3 6 5
f 3 5 4
f 6 12 7
f 7 12 13
f 7 13 8
f 8 14 9
f 8 13 14
f 9 14 15
f 9 15 10
f 10 15 14
f 10 14 28
f 10 28 27
f 10 27 26
f 10 26 40
f 10 40 51
f 10 51 63
f 10 63 78
f 10 78 96
f 10 96 95
f 10 95 94
f 10 94 115
f 10 115 134
f 10 134 154
f 10 154 151
f 10 151 165
f 10 165 179
f 10 179 178
f 10 178 191
f 10 191 193
f 10 193 205
f 10 205 204
f 10 204 226
f 10 226 251
f 10 251 238
f 10 238 216
f 10 216 199
f 10 199 189
f 10 189 169
f 10 169 158
f 10 158 138
f 10 138 137
f 10 137 135
f 10 135 118
f 10 118 117
f 10 117 116
f 10 116 97
f 10 97 79
f 10 79 64
f 10 64 52
f 10 52 42
f 10 42 41
f 10 41 29
f 10 29 17
f 10 17 16
f 11 16 17
f 11 17 18
f 11 18 19
f 11 19 20
f 11 20 21
f 11 21 22
f 12 23 24
f 12 24 13
f 13 24 25
f 13 25 26
f 13 26 27
f 13 27 28
f 13 28 14
f 17 29 30
f 17 30 19
f 17 19 18
f 19 30 31
f 19 31 21
f 19 21 20
f 21 31 32
f 21 32 33
f 21 33 34
f 21 34 35
f 21 35 36
f 21 36 37
f 21 37 22
f 23 38 24
f 24 38 39
f 24 39 26
f 24 26 25
f 26 39 40
f 29 41 30
f 30 42 43
f 30 43 33
f 30 33 32
f 30 32 31
f 30 41 42
f 33 43 34
f 34 43 44
f 34 44 35
f 35 44 45
f 35 45 46
f 35 46 36
f 36 46 48
f 36 48 49
f 36 49 47
f 38 50 51
f 38 51 39
f 39 51 40
f 42 52 53
f 42 53 45
f 42 45 43
f 43 45 44
f 45 53 54
f 45 54 55
f 45 55 48
f 45 48 46
f 47 49 56
f 47 56 57
f 48 55 54
f 48 54 49
f 49 54 56
f 50 58 59
f 50 59 51
f 50 60 58
f 51 61 62
f 51 62 63
f 51 59 61
f 52 64 53
f 53 65 66
f 53 66 67
f 53 67 54
f 53 64 65
f 54 67 56
f 56 67 68
f 56 68 57
f 57 69 70
f 57 68 71
f 57 71 69
f 58 72 59
f 58 60 73
f 58 73 72
f 59 72 61
f 60 74 73
f 61 72 75
f 61 75 62
f 62 75 63
f 63 75 76
f 63 76 77
f 63 77 78
f 64 79 80
f 64 80 81
f 64 81 82
f 64 82 65
f 65 82 83
f 65 83 66
f 66 83 67
f 67 83 84
f 67 84 68
f 68 84 71
f 69 85 86
f 69 86 70
f 69 71 84
f 69 84 85
f 70 86 87
f 70 87 88
f 72 73 76
f 72 76 75
f 73 74 89
f 73 89 77
f 73 77 76
f 74 90 89
f 74 91 90
f 77 89 90
f 77 90 92
f 77 92 93
f 77 93 94
f 77 94 95
f 77 95 96
f 77 96 78
f 79 97 80
f 80 98 81
f 80 97 99
f 80 99 100
f 80 100 101
f 80 101 102
f 80 102 98
f 81 98 82
f 82 98 103
f 82 103 84
f 82 84 83
f 84 103 104
f 84 104 85
f 85 104 103
f 85 103 105
f 85 105 106
f 85 106 86
f 86 106 105
f 86 105 107
f 86 107 102
f 86 102 87
f 87 102 101
f 87 101 108
f 87 108 88
f 88 108 110
f 88 110 109
f 90 91 92
f 91 111 112
f 91 112 113
f 91 113 92
f 92 114 115
f 92 115 94
f 92 94 93
f 92 113 114
f 97 116 99
f 98 105 103
f 98 102 107
f 98 107 105
f 99 116 117
f 99 117 118
f 99 118 119
f 99 119 120
f 99 120 121
f 99 121 122
f 99 122 100
f 100 122 123
f 100 123 108
f 100 108 124
f 100 124 101
f 101 124 108
f 108 123 110
f 109 110 125
f 110 123 126
f 110 126 125
f 111 127 112
f 112 127 128
f 112 128 129
f 112 129 130
f 112 130 131
f 112 131 113
f 113 131 114
f 114 131 132
f 114 132 133
f 114 133 115
f 115 133 134
f 118 135 119
f 119 136 120
f 119 135 137
f 119 137 138
f 119 138 139
f 119 139 140
f 119 140 141
f 119 141 136
f 120 136 142
f 120 142 121
f 121 142 126
f 121 126 143
f 121 143 122
f 122 143 123
f 123 143 126
f 125 126 144
f 126 142 145
f 126 145 144
f 127 146 128
f 128 146 147
f 128 147 148
f 128 148 149
f 128 149 150
f 128 150 129
f 129 150 130
f 130 150 151
f 130 151 152
f 130 152 131
f 131 153 132
f 131 152 153
f 132 153 154
f 132 154 134
f 132 134 133
f 136 145 142
f 136 141 155
f 136 155 156
f 136 156 157
f 136 157 145
f 138 158 139
f 139 158 159
f 139 159 140
f 140 159 160
f 140 160 155
f 140 155 141
f 144 145 157
f 147 161 148
f 148 161 162
f 148 162 163
f 148 163 149
f 149 163 164
f 149 164 165
f 149 165 150
f 150 165 151
f 151 154 152
f 152 154 153
f 155 160 166
f 155 166 167
f 155 167 156
f 158 168 159
f 158 169 168
f 159 168 170
f 159 170 160
f 160 170 171
f 160 171 166
f 161 172 162
f 162 172 173
f 162 173 174
f 162 174 175
f 162 175 176
f 162 176 163
f 163 176 177
f 163 177 164
f 164 178 179
f 164 179 165
f 164 177 180
f 164 180 178
f 166 171 181
f 166 181 182
f 168 183 184
f 168 184 185
f 168 185 186
f 168 186 187
f 168 187 188
f 168 188 170
f 168 169 183
f 169 189 183
f 170 188 181
f 170 181 171
f 174 190 175
f 175 191 180
f 175 180 177
f 175 177 176
f 175 190 192
f 175 192 193
f 175 193 191
f 178 180 191
f 181 194 182
f 181 188 195
f 181 195 194
f 182 194 196
f 183 189 185
f 183 185 184
f 185 197 195
f 185 195 186
f 185 189 198
f 185 198 197
f 186 195 187
f 187 195 188
f 189 199 198
f 190 200 201
f 190 201 202
f 190 202 192
f 192 202 203
f 192 203 204
f 192 204 205
f 192 205 193
f 194 195 196
f 195 197 206
f 195 206 207
f 195 207 196
f 196 207 208
f 197 198 209
f 197 209 210
f 197 210 207
f 197 207 206
f 198 199 211
f 198 211 212
f 198 212 213
f 198 213 214
f 198 214 209
f 199 215 211
f 199 216 217
f 199 217 215
f 200 218 219
f 200 219 201
f 201 219 220
f 201 220 203
f 201 203 202
f 203 220 221
f 203 221 222
f 203 222 223
f 203 223 224
f 203 224 204
f 204 224 225
f 204 225 226
f 207 210 209
f 207 209 208
f 208 209 214
f 208 214 213
f 208 213 227
f 211 215 228
f 211 228 212
f 212 228 229
f 212 229 230
f 212 230 231
f 212 231 213
f 213 231 232
f 213 232 227
f 215 233 228
f 215 217 233
f 216 234 235
f 216 235 236
f 216 236 237
f 216 237 217
f 216 238 234
f 217 237 239
f 217 239 240
f 217 240 233
f 218 241 222
f 218 222 242
f 218 242 219
f 219 242 243
f 219 243 220
f 220 243 221
f 221 243 222
f 222 241 223
f 222 243 242
f 223 241 244
f 223 244 245
f 223 245 246
f 223 246 247
f 223 247 225
f 223 225 224
f 225 247 248
f 225 248 226
f 226 248 249
f 226 249 250
f 226 250 251
f 228 233 252
f 228 252 229
f 229 252 230
f 230 252 253
f 230 253 240
f 230 240 254
f 230 254 255
f 230 255 256
f 230 256 257
f 230 257 231
f 231 257 258
f 231 258 259
f 233 253 252
f 233 240 253
f 234 238 235
f 235 238 260
f 235 260 261
f 235 261 262
f 235 262 263
f 235 263 236
f 236 263 264
f 236 264 265
f 236 265 266
f 236 266 267
f 236 267 268
f 236 268 239
f 236 239 237
f 238 269 270
f 238 270 271
f 238 271 260
f 238 251 269
f 239 268 254
f 239 254 240
f 241 272 273
f 241 273 274
f 241 274 275
f 241 275 276
f 241 276 277
f 241 277 278
f 241 278 279
f 241 279 244
f 244 279 280
f 244 280 246
f 244 246 245
f 246 280 281
f 246 281 249
f 246 249 248
f 246 248 247
f 249 281 282
f 249 282 250
f 250 282 283
f 250 283 251
f 251 283 269
f 254 256 255
f 254 268 267
f 254 267 266
f 254 266 284
f 254 284 285
f 254 285 286
f 254 286 256
f 256 286 285
f 256 285 259
f 256 259 258
f 256 258 257
f 259 285 287
f 259 287 288
f 260 289 261
f 260 271 290
f 260 290 289
f 261 291 262
f 261 289 291
f 262 291 263
f 263 291 264
f 264 292 265
f 264 291 292
f 265 292 293
f 265 293 266
f 266 293 284
f 269 283 294
f 269 294 295
f 269 295 296
f 269 296 270
f 270 296 297
f 270 297 271
f 271 297 290
f 272 298 299
f 272 299 273
f 272 300 298
f 273 299 274
f 274 299 301
f 274 301 294
f 274 294 275
f 275 294 302
f 275 302 276
f 276 302 277
f 277 302 283
f 277 283 281
f 277 281 279
f 277 279 278
f 279 281 280
f 281 283 282
f 283 302 294
f 284 292 287
f 284 287 285
f 284 293 292
f 287 292 303
f 287 303 288
f 288 303 304
f 289 290 305
f 289 305 306
f 289 306 291
f 290 297 307
f 290 307 308
f 290 308 309
f 290 309 310
f 290 310 305
f 291 306 303
f 291 303 292
f 294 301 298
f 294 298 311
f 294 311 295
f 295 311 296
f 296 311 312
f 296 312 297
f 297 312 313
f 297 313 307
f 298 300 314
f 298 314 315
f 298 315 316
f 298 316 308
f 298 308 307
f 298 307 313
f 298 313 312
f 298 312 311
f 298 301 299
f 300 317 305
f 300 305 314
f 303 306 318
f 303 318 304
f 304 318 317
f 305 318 306
f 305 310 314
f 305 317 318
f 308 316 315
f 308 315 309
f 309 315 310
f 310 315 314

