# https://github.com/mikedh/trimesh
v -0.20949352 0.03018045 0.22580129
v -0.20949352 0.02635008 0.22560824
v -0.20949352 0.03344833 0.22435343
v -0.27585763 0.04832340 0.19901612
v -0.26789621 0.04362695 0.20326313
v -0.26715693 0.04058229 0.20466273
v -0.27105236 0.03187689 0.20678623
v -0.25200182 0.01886790 0.21692115
v -0.25271267 0.01541253 0.21774161
v -0.25015363 0.01316251 0.21870683
v -0.25140470 0.01001964 0.21885163
v -0.24898784 0.00660891 0.21914119
v -0.24861822 0.00320711 0.21870683
v -0.22174841 -0.04289133 0.21137108
v -0.21446940 -0.04289133 0.21045411
v -0.20949352 -0.04289133 0.20900626
v -0.20949352 0.04832340 0.21306023
v -0.30764645 0.04832340 0.18106282
v -0.31017703 0.04561803 0.18033889
v -0.31466955 0.02726080 0.18265545
v -0.31293508 0.02105541 0.18516505
v -0.27292895 0.02907331 0.20635188
v -0.25382155 0.01212680 0.21774161
v -0.25717673 0.01201965 0.21605244
v -0.25552759 0.00945714 0.21667986
v -0.25330976 0.00749284 0.21764508
v -0.25049484 0.00037674 0.21711421
v -0.22470552 -0.04289133 0.21026106
v -0.20949352 -0.04289133 -0.24479717
v -0.20949352 0.00234996 -0.24981637
v -0.20955038 0.04832340 -0.25111943
v -0.32430854 0.04832340 0.17112094
v -0.31606281 0.03062689 0.18091804
v -0.32831770 0.04832340 0.16865960
v -0.33832633 0.01794825 0.16981788
v -0.33969116 0.01514467 0.16962484
v -0.31191149 0.01743039 0.18637159
v -0.31057510 0.01468931 0.18743335
v -0.30821511 0.01300180 0.18878467
v -0.30869848 0.00951071 0.18815728
v -0.27665377 0.00334104 0.20466273
v -0.27503306 0.00021602 0.20490403
v -0.27312800 -0.00233756 0.20504881
v -0.27918437 -0.04289133 0.18767466
v -0.24566111 -0.04289133 -0.25111943
v -0.21611856 -0.00439114 -0.25078160
v -0.21247905 -0.00439114 -0.25005770
v -0.20963569 -0.00183756 -0.24962333
v -0.20949352 -0.00527508 -0.24909244
v -0.21313302 -0.00101613 -0.25054029
v -0.23152959 0.03987693 -0.25522166
v -0.25370783 0.04832340 -0.25913084
v -0.33826947 0.04832340 0.16219255
v -0.33963427 0.01198394 0.16943179
v -0.31108689 0.01149286 0.18695073
v -0.34770945 0.03320725 0.15948990
v -0.34975666 0.02603758 0.15987599
v -0.35058123 0.02236792 0.16011730
v -0.36101636 0.02060005 0.15287808
v -0.37244669 0.01432323 0.14530100
v -0.37000141 0.01265358 0.14727972
v -0.37261730 0.01070714 0.14544579
v -0.37042791 0.00888571 0.14694190
v -0.29729658 -0.00499829 0.19153558
v -0.35845736 -0.00281971 0.15196110
v -0.35854265 -0.00578401 0.15056151
v -0.36036241 -0.00769473 0.14843801
v -0.38285342 -0.04289133 0.11373794
v -0.28396121 -0.04289133 -0.25695908
v -0.27847353 0.03888585 -0.26236439
v -0.24000281 0.02535007 -0.25599384
v -0.23892233 0.02821616 -0.25599384
v -0.23497006 0.03835014 -0.25575253
v -0.25723359 0.04832340 -0.25975823
v -0.34097067 0.04832340 0.16031034
v -0.37130934 0.00549283 0.14592841
v -0.34250608 0.01107322 0.16726002
v -0.34617403 0.00654641 0.16373692
v -0.34375715 0.04832340 0.15828337
v -0.35456195 0.04536803 0.15114066
v -0.36223903 0.02365364 0.15114066
v -0.36394504 0.02081434 0.15051325
v -0.37065539 0.01699289 0.14612146
v -0.37298694 0.01774289 0.14399794
v -0.37486356 0.01525181 0.14259836
v -0.37460765 0.01210894 0.14341880
v -0.37369779 0.00768927 0.14443229
v -0.34816438 0.00472497 0.16185471
v -0.35973686 0.00050174 0.15249197
v -0.36141446 -0.00140899 0.15051325
v -0.37378308 0.00407318 0.14337054
v -0.42007303 -0.04289133 0.07913441
v -0.28760073 -0.04289133 -0.25734517
v -0.31327629 0.00582319 -0.26419830
v -0.31012017 0.00768927 -0.26400527
v -0.28430241 0.02175184 -0.26183349
v -0.28367686 0.02474293 -0.26197827
v -0.31282136 0.01015357 -0.26443964
v -0.32689601 0.03154653 -0.26598400
v -0.27904218 0.04222516 -0.26246089
v -0.28060603 0.04768054 -0.26241264
v -0.30443344 0.04832340 -0.26376396
v -0.36326262 0.00121603 0.15022369
v -0.36141446 0.00341247 0.15239546
v -0.36303517 0.00624284 0.15191284
v -0.36906311 0.04832340 0.13738611
v -0.35478941 0.04808233 0.14998238
v -0.35811615 0.04623410 0.14795539
v -0.35675132 0.04393052 0.14978933
v -0.37173587 0.04253766 0.13704827
v -0.37204862 0.04535017 0.13584174
v -0.37395367 0.04157337 0.13526261
v -0.38430354 0.01878754 0.13135341
v -0.38595268 0.01569824 0.13029166
v -0.37594405 0.00947500 0.14211574
v -0.37577343 0.00599284 0.14197096
v -0.46974662 -0.00301614 -0.00981164
v -0.45953894 -0.04289133 -0.00180022
v -0.42049956 -0.00879295 0.08593929
v -0.42183593 -0.00688223 0.08415361
v -0.30847102 -0.04289133 -0.25864822
v -0.32527530 -0.00076613 -0.26439136
v -0.32780588 0.00212675 -0.26472920
v -0.35257158 0.01951969 -0.26665965
v -0.32956877 0.02961795 -0.26608050
v -0.35288435 0.03416262 -0.26723880
v -0.30491680 0.04468945 -0.26410180
v -0.30363730 0.04196623 -0.26415005
v -0.32942662 0.04832340 -0.26506704
v -0.37176430 0.04832340 0.13482825
v -0.37474984 0.04415374 0.13352519
v -0.38464472 0.02164470 0.12985730
v -0.38654977 0.01868933 0.12826468
v -0.40326875 0.03543048 0.09703945
v -0.42175063 -0.00250721 0.08400883
v -0.46113122 0.00463569 0.00833470
v -0.47131047 -0.00198042 -0.01323821
v -0.47367045 -0.00478400 -0.01859524
v -0.46135870 -0.04289133 -0.00561289
v -0.35621110 -0.04289133 -0.25744170
v -0.35419232 -0.00311435 -0.26386046
v -0.34199429 0.00309104 -0.26506704
v -0.32868734 -0.00154291 -0.26443964
v -0.35837206 0.01842147 -0.26665965
v -0.36354697 0.03166261 -0.26709402
v -0.37236139 0.04832340 -0.26680446
v -0.36522457 0.04832340 -0.26680446
v -0.37401056 0.04799304 0.13255996
v -0.41105959 0.04832340 0.07985833
v -0.38575363 0.04818947 0.11740583
v -0.38265437 0.04767161 0.12194242
v -0.38350737 0.04333230 0.12266633
v -0.38478690 0.04582339 0.11991543
v -0.46454325 0.04832340 -0.00706073
v -0.46624929 0.04755554 -0.00985990
v -0.47210661 0.04785911 -0.02120137
v -0.47330081 0.03729656 -0.02240791
v -0.47486466 0.03487691 -0.02564143
v -0.47767961 0.03420726 -0.03215674
v -0.46542469 -0.04289133 -0.01516867
v -0.46289411 -0.04289133 -0.00899119
v -0.49300534 0.04832340 -0.07259993
v -0.49240822 0.04464481 -0.07110382
v -0.47426754 -0.00770366 -0.02153920
v -0.38126114 -0.04289133 -0.25637996
v -0.37841776 0.00050174 -0.26313657
v -0.36124384 0.01987683 -0.26665965
v -0.36690214 0.03095724 -0.26704574
v -0.36966020 0.03235011 -0.26690096
v -0.37929919 0.03012688 -0.26612878
v -0.38279656 0.03176082 -0.26545310
v -0.38339365 0.04786804 -0.26477745
v -0.39692807 0.04776983 -0.26207480
v -0.41182730 0.04832340 -0.25734517
v -0.46721601 -0.04289133 -0.01985005
v -0.49886265 0.04832340 -0.10913393
v -0.49852145 0.04816268 -0.10604519
v -0.49818027 0.03818942 -0.10401820
v -0.49803808 0.03448405 -0.10358385
v -0.49567807 0.02625186 -0.09204934
v -0.49559277 0.02013576 -0.09282152
v -0.48933738 0.01407323 -0.06936640
v -0.48859811 0.01584110 -0.06613288
v -0.46983191 -0.04289133 -0.02713754
v -0.46835336 -0.04289133 -0.02284226
v -0.47878850 -0.04289133 -0.05826624
v -0.47452345 -0.04289133 -0.04243645
v -0.47284588 -0.04288240 -0.03630724
v -0.39539266 -0.04289133 -0.25382209
v -0.38458785 -0.04284669 -0.25613862
v -0.38134643 0.00084995 -0.26270220
v -0.37884426 0.02661794 -0.26588747
v -0.37554598 0.02197506 -0.26569444
v -0.37119561 0.02953759 -0.26675618
v -0.37565970 0.02525186 -0.26603225
v -0.37514791 0.02864473 -0.26637009
v -0.38245535 0.02828759 -0.26540485
v -0.40215984 0.03950193 -0.26125437
v -0.39854878 0.03997514 -0.26207480
v -0.39789480 0.04380552 -0.26212305
v -0.40130684 0.04293945 -0.26144740
v -0.40076661 0.04759125 -0.26125437
v -0.40679455 0.04761804 -0.25922737
v -0.40375215 0.04688589 -0.26043391
v -0.40488949 0.04211801 -0.26038563
v -0.40832996 0.04281444 -0.25903434
v -0.41185573 0.04397516 -0.25744170
v -0.41458535 0.04221623 -0.25618690
v -0.41626292 0.04832340 -0.25498036
v -0.49985784 0.04832340 -0.12737679
v -0.49940288 0.04396624 -0.11231919
v -0.49945974 0.03938586 -0.11178831
v -0.49860674 0.03588584 -0.10676911
v -0.49837929 0.03225189 -0.10623823
v -0.49582025 0.01804647 -0.09562069
v -0.49525160 0.01189465 -0.09658592
v -0.49508098 0.01695717 -0.09233890
v -0.49906170 0.02581436 -0.11333268
v -0.49465448 0.01359109 -0.09248369
v -0.49442703 0.01052857 -0.09344892
v -0.49448389 0.00830535 -0.09562069
v -0.49465448 0.00674284 -0.09841986
v -0.48615283 -0.04289133 -0.10879610
v -0.39991361 -0.04289133 -0.25232595
v -0.41012126 -0.00157863 -0.25507689
v -0.40025479 0.01349287 -0.26019260
v -0.39718395 0.01435895 -0.26115784
v -0.39448276 0.01244823 -0.26149565
v -0.39843506 0.02087684 -0.26125437
v -0.40142059 0.02065362 -0.26038563
v -0.40395117 0.02327863 -0.25975823
v -0.40369526 0.03672513 -0.26057869
v -0.40608370 0.03918943 -0.25985479
v -0.41188416 0.04048407 -0.25748995
v -0.41484126 0.03921621 -0.25609037
v -0.43258384 0.03682334 -0.24667937
v -0.43301034 0.04064479 -0.24605197
v -0.43508601 0.04832340 -0.24354237
v -0.49934602 0.04832340 -0.14171048
v -0.49965879 0.04790375 -0.13765651
v -0.49997157 0.04430552 -0.12858334
v -0.49968722 0.04169837 -0.11429791
v -0.49948817 0.03604655 -0.11347747
v -0.49886265 0.03265368 -0.10947176
v -0.49866360 0.02267149 -0.11280181
v -0.49528003 0.00985000 -0.09914379
v -0.49891952 0.02159113 -0.11569750
v -0.49832243 0.01551074 -0.11675926
v -0.49968722 0.03886800 -0.11540793
v -0.49968722 0.03201975 -0.12206803
v -0.49903327 0.01935004 -0.12095801
v -0.49806651 0.01254644 -0.11864145
v -0.49573496 0.00678748 -0.10763782
v -0.49388677 -0.00290006 -0.10749304
v -0.49365932 -0.00548043 -0.11000264
v -0.49758315 0.00997500 -0.12100627
v -0.48657933 -0.04289133 -0.13340950
v -0.41430101 0.00149281 -0.25406337
v -0.40639645 -0.04289133 -0.25000942
v -0.41097426 0.00139460 -0.25522166
v -0.41265187 0.00426069 -0.25498036
v -0.40341094 0.01351966 -0.25913084
v -0.40161961 0.01692146 -0.26009607
v -0.39817914 0.01760896 -0.26110959
v -0.40432081 0.01966255 -0.25937217
v -0.41475594 0.00716248 -0.25454599
v -0.40702200 0.02218934 -0.25850344
v -0.41822487 0.00731427 -0.25314641
v -0.40901235 0.03838585 -0.25859997
v -0.41222537 0.03734120 -0.25720039
v -0.42277426 0.01915362 -0.25155377
v -0.42595881 0.03092153 -0.25015420
v -0.42723832 0.03430548 -0.24952680
v -0.42999637 0.03475191 -0.24807896
v -0.42723832 0.01224287 -0.24885114
v -0.42993951 0.01503752 -0.24735503
v -0.43252698 0.01282323 -0.24566588
v -0.43457419 0.03217154 -0.24518326
v -0.43599588 0.03509119 -0.24436282
v -0.43519974 0.03800192 -0.24499021
v -0.43682045 0.04157337 -0.24344584
v -0.43645081 0.04573410 -0.24310800
v -0.43886769 0.04832340 -0.24079145
v -0.49963036 0.04555553 -0.14060047
v -0.49815181 0.04832340 -0.15179715
v -0.49829400 0.04544839 -0.15411370
v -0.49872047 0.04553767 -0.15010799
v -0.49963036 0.03331440 -0.13480908
v -0.49977255 0.03185903 -0.12525329
v -0.49883422 0.01887683 -0.11767622
v -0.49869204 0.01592145 -0.11989626
v -0.49951664 0.02823402 -0.13017596
v -0.49943131 0.02790366 -0.13355428
v -0.49872047 0.01668039 -0.12303326
v -0.49823713 0.01316251 -0.12206803
v -0.48649400 -0.04289133 -0.13693258
v -0.41626292 0.00440354 -0.25367731
v -0.41000754 -0.04289133 -0.24851331
v -0.41958967 0.00421604 -0.25213292
v -0.42248991 0.00513569 -0.25082988
v -0.42402533 0.00800177 -0.25034726
v -0.42411062 0.01139465 -0.25054029
v -0.42513424 0.01777861 -0.25020248
v -0.42982578 0.01110893 -0.24721025
v -0.42675495 0.00901071 -0.24894767
v -0.44304743 0.00322497 -0.23808882
v -0.44537899 0.00604641 -0.23664096
v -0.45609847 0.01356430 -0.22867781
v -0.45578569 0.02960010 -0.22920868
v -0.47563237 0.03818942 -0.21419933
v -0.43920887 0.04485910 -0.24122581
v -0.47381261 0.04110908 -0.21521284
v -0.47694033 0.04147515 -0.21260671
v -0.48566943 0.04348409 -0.20396788
v -0.44375825 0.04832340 -0.23654445
v -0.49951664 0.03719835 -0.13992479
v -0.49951664 0.03322511 -0.13842869
v -0.49869204 0.04206444 -0.15179715
v -0.49749786 0.04832340 -0.15556155
v -0.49812338 0.04150194 -0.15507893
v -0.48680681 0.04069836 -0.20285787
v -0.48763138 0.04062694 -0.19943130
v -0.49960193 0.03093939 -0.13249251
v -0.49943131 0.02973402 -0.13640171
v -0.49897641 0.02573400 -0.13587083
v -0.49863517 0.01769825 -0.12612200
v -0.49809495 0.01534110 -0.12839028
v -0.49818027 0.01427859 -0.12515676
v -0.49397206 -0.00423936 -0.13833217
v -0.48626655 -0.04289133 -0.14079350
v -0.41265187 -0.04289133 -0.24706545
v -0.42575976 0.00513569 -0.24909244
v -0.42300171 0.00232318 -0.25005770
v -0.42792073 -0.04289133 -0.23837838
v -0.43042290 -0.04289133 -0.23678575
v -0.44364452 0.00011781 -0.23707531
v -0.44574863 0.00283211 -0.23620661
v -0.45737797 0.01091250 -0.22742301
v -0.48202994 0.03861799 -0.20840795
v -0.48458898 0.04041265 -0.20604314
v -0.48657933 0.04385909 -0.20073436
v -0.48035234 0.04832340 -0.19933479
v -0.47901598 0.04832340 -0.20198916
v -0.47736683 0.04832340 -0.20469181
v -0.47415382 0.04832340 -0.20884231
v -0.47051433 0.04832340 -0.21241365
v -0.49903327 0.02993045 -0.13992479
v -0.49852145 0.03869835 -0.15054235
v -0.49363089 0.04832340 -0.16791651
v -0.49775374 0.03809121 -0.15498240
v -0.49823713 0.03466262 -0.14948060
v -0.48729014 0.03770728 -0.20097567
v -0.48584005 0.03754656 -0.20401615
v -0.49872047 0.02658222 -0.13915262
v -0.49417111 -0.00152506 -0.14064872
v -0.48484486 -0.04284669 -0.15044582
v -0.48299670 -0.04289133 -0.15768506
v -0.42470771 -0.04289133 -0.24021232
v -0.43582529 -0.04289133 -0.23316613
v -0.43898141 -0.04289133 -0.23099436
v -0.44680065 -0.00012326 -0.23480703
v -0.44947344 -0.00290899 -0.23205611
v -0.46147242 0.00066245 -0.22143857
v -0.48379284 0.03655548 -0.20633270
v -0.49257880 0.04832340 -0.17110176
v -0.49667329 0.02289470 -0.14885318
v -0.49735567 0.02280542 -0.14494401
v -0.48811474 0.01026071 -0.18123670
v -0.49564964 0.02798402 -0.15816768
v -0.49803808 0.02435900 -0.14185527
v -0.48635185 0.03470726 -0.20165133
v -0.48177403 0.00303746 -0.19450863
v -0.47856104 0.00025174 -0.19952783
v -0.48040920 0.00227853 -0.19740431
v -0.45390907 -0.04289133 -0.21892898
v -0.46113122 -0.04289133 -0.20884231
v -0.49650267 0.01985005 -0.14726056
v -0.49573496 0.01989469 -0.15136279
v -0.48123381 -0.04289133 -0.16313861
v -0.44259250 -0.04289133 -0.22838823
v -0.44947344 -0.04289133 -0.22317599
v -0.46312156 -0.00154291 -0.21926680
v -0.47964153 -0.04289133 -0.16796477
v -0.49499568 0.02436793 -0.15865028
v -0.47514901 -0.04289133 -0.17998189
v -0.47264683 -0.04289133 -0.18558024
v -0.47398323 -0.04289133 -0.18273281
f 1 2 16
f 1 16 29
f 1 29 49
f 1 49 30
f 1 30 17
f 1 17 3
f 1 3 4
f 1 4 5
f 1 5 6
f 1 6 7
f 1 7 8
f 1 8 9
f 1 9 10
f 1 10 11
f 1 11 12
f 1 12 2
f 2 12 13
f 2 13 14
f 2 14 15
f 2 15 16
f 3 17 4
f 4 18 7
f 4 7 6
f 4 6 5
f 4 17 31
f 4 31 52
f 4 52 74
f 4 74 102
f 4 102 129
f 4 129 147
f 4 147 146
f 4 146 174
f 4 174 209
f 4 209 238
f 4 238 283
f 4 283 315
f 4 315 346
f 4 346 345
f 4 345 344
f 4 344 343
f 4 343 342
f 4 342 365
f 4 365 349
f 4 349 319
f 4 319 285
f 4 285 239
f 4 239 210
f 4 210 176
f 4 176 162
f 4 162 154
f 4 154 149
f 4 149 130
f 4 130 106
f 4 106 79
f 4 79 75
f 4 75 53
f 4 53 34
f 4 34 32
f 4 32 18
f 7 18 19
f 7 19 20
f 7 20 21
f 7 21 22
f 7 22 23
f 7 23 9
f 7 9 8
f 9 23 11
f 9 11 10
f 11 23 24
f 11 24 25
f 11 25 26
f 11 26 13
f 11 13 12
f 13 26 27
f 13 27 14
f 14 28 44
f 14 44 68
f 14 68 92
f 14 92 118
f 14 118 139
f 14 139 161
f 14 161 160
f 14 160 175
f 14 175 185
f 14 185 184
f 14 184 187
f 14 187 186
f 14 186 223
f 14 223 257
f 14 257 296
f 14 296 330
f 14 330 357
f 14 357 379
f 14 379 383
f 14 383 385
f 14 385 387
f 14 387 386
f 14 386 376
f 14 376 375
f 14 375 381
f 14 381 380
f 14 380 360
f 14 360 359
f 14 359 335
f 14 335 334
f 14 334 358
f 14 358 331
f 14 331 298
f 14 298 259
f 14 259 224
f 14 224 189
f 14 189 165
f 14 165 140
f 14 140 121
f 14 121 93
f 14 93 69
f 14 69 45
f 14 45 29
f 14 29 16
f 14 16 15
f 14 27 28
f 17 30 31
f 18 32 19
f 19 32 33
f 19 33 20
f 20 33 34
f 20 34 35
f 20 35 36
f 20 36 21
f 21 36 37
f 21 37 22
f 22 24 23
f 22 37 38
f 22 38 24
f 24 38 39
f 24 39 25
f 25 39 40
f 25 40 41
f 25 41 26
f 26 41 42
f 26 42 27
f 27 42 43
f 27 43 44
f 27 44 28
f 29 45 46
f 29 46 47
f 29 47 48
f 29 48 49
f 30 49 48
f 30 48 50
f 30 50 31
f 31 50 51
f 31 51 52
f 32 34 33
f 34 53 35
f 35 53 36
f 36 54 55
f 36 55 38
f 36 38 37
f 36 53 56
f 36 56 57
f 36 57 58
f 36 58 59
f 36 59 60
f 36 60 61
f 36 61 62
f 36 62 63
f 36 63 54
f 38 55 39
f 39 55 40
f 40 64 41
f 40 55 54
f 40 54 64
f 41 64 42
f 42 64 43
f 43 64 44
f 44 64 65
f 44 65 66
f 44 66 67
f 44 67 68
f 45 69 46
f 46 50 47
f 46 69 70
f 46 70 71
f 46 71 50
f 47 50 48
f 50 71 72
f 50 72 73
f 50 73 51
f 51 73 74
f 51 74 52
f 53 75 56
f 54 63 76
f 54 76 77
f 54 77 78
f 54 78 64
f 56 75 79
f 56 79 80
f 56 80 57
f 57 80 59
f 57 59 58
f 59 80 81
f 59 81 82
f 59 82 83
f 59 83 60
f 60 84 85
f 60 85 86
f 60 86 62
f 60 62 61
f 60 83 84
f 62 86 87
f 62 87 63
f 63 87 76
f 64 78 88
f 64 88 89
f 64 89 65
f 65 89 90
f 65 90 67
f 65 67 66
f 67 90 91
f 67 91 68
f 68 91 92
f 69 93 94
f 69 94 95
f 69 95 96
f 69 96 97
f 69 97 70
f 70 97 95
f 70 95 98
f 70 98 99
f 70 99 100
f 70 100 74
f 70 74 72
f 70 72 71
f 72 74 73
f 74 100 101
f 74 101 102
f 76 87 91
f 76 91 90
f 76 90 103
f 76 103 104
f 76 104 105
f 76 105 77
f 77 105 78
f 78 105 104
f 78 104 88
f 79 106 107
f 79 107 80
f 80 107 108
f 80 108 109
f 80 109 81
f 81 109 84
f 81 84 83
f 81 83 82
f 84 109 108
f 84 108 110
f 84 110 111
f 84 111 112
f 84 112 113
f 84 113 85
f 85 113 114
f 85 114 86
f 86 114 115
f 86 115 87
f 87 115 116
f 87 116 91
f 88 104 89
f 89 104 103
f 89 103 90
f 91 116 92
f 92 117 118
f 92 116 119
f 92 119 120
f 92 120 117
f 93 121 122
f 93 122 94
f 94 122 123
f 94 123 98
f 94 98 95
f 95 97 96
f 98 123 124
f 98 124 125
f 98 125 99
f 99 125 126
f 99 126 127
f 99 127 128
f 99 128 100
f 100 128 101
f 101 128 127
f 101 127 102
f 102 127 129
f 106 130 111
f 106 111 108
f 106 108 107
f 108 111 110
f 111 130 131
f 111 131 112
f 112 131 113
f 113 131 132
f 113 132 114
f 114 132 133
f 114 133 134
f 114 134 135
f 114 135 120
f 114 120 119
f 114 119 115
f 115 119 116
f 117 120 136
f 117 136 137
f 117 137 138
f 117 138 118
f 118 138 139
f 120 135 136
f 121 140 141
f 121 141 142
f 121 142 143
f 121 143 122
f 122 143 123
f 123 143 124
f 124 143 142
f 124 142 144
f 124 144 126
f 124 126 125
f 126 145 146
f 126 146 147
f 126 147 129
f 126 129 127
f 126 144 145
f 130 148 131
f 130 149 150
f 130 150 148
f 131 148 151
f 131 151 152
f 131 152 132
f 132 152 153
f 132 153 133
f 133 153 134
f 134 153 149
f 134 149 135
f 135 149 154
f 135 154 155
f 135 155 136
f 136 155 156
f 136 156 157
f 136 157 137
f 137 157 158
f 137 158 159
f 137 159 138
f 138 160 161
f 138 161 139
f 138 159 162
f 138 162 163
f 138 163 164
f 138 164 160
f 140 165 141
f 141 166 144
f 141 144 142
f 141 165 166
f 144 167 168
f 144 168 145
f 144 166 167
f 145 168 146
f 146 168 169
f 146 169 170
f 146 170 171
f 146 171 172
f 146 172 173
f 146 173 174
f 148 150 151
f 149 153 150
f 150 153 151
f 151 153 152
f 154 162 156
f 154 156 155
f 156 162 159
f 156 159 158
f 156 158 157
f 160 164 175
f 162 176 177
f 162 177 178
f 162 178 179
f 162 179 180
f 162 180 181
f 162 181 163
f 163 181 182
f 163 182 183
f 163 183 164
f 164 184 185
f 164 185 175
f 164 183 182
f 164 182 186
f 164 186 187
f 164 187 188
f 164 188 184
f 165 189 190
f 165 190 166
f 166 191 192
f 166 192 193
f 166 193 167
f 166 190 191
f 167 194 168
f 167 193 195
f 167 195 194
f 168 194 169
f 169 194 170
f 170 196 192
f 170 192 197
f 170 197 171
f 170 194 196
f 171 197 198
f 171 198 199
f 171 199 200
f 171 200 172
f 172 200 173
f 173 200 201
f 173 201 202
f 173 202 174
f 174 203 204
f 174 204 205
f 174 205 206
f 174 206 207
f 174 207 208
f 174 208 209
f 174 202 203
f 176 210 211
f 176 211 177
f 177 211 212
f 177 212 178
f 178 212 213
f 178 213 179
f 179 213 214
f 179 214 181
f 179 181 180
f 181 215 216
f 181 216 217
f 181 217 182
f 181 214 218
f 181 218 215
f 182 217 219
f 182 219 186
f 184 188 187
f 186 219 220
f 186 220 221
f 186 221 222
f 186 222 223
f 189 224 225
f 189 225 226
f 189 226 227
f 189 227 228
f 189 228 190
f 190 228 191
f 191 228 197
f 191 197 192
f 192 196 195
f 192 195 193
f 194 195 196
f 197 228 227
f 197 227 229
f 197 229 198
f 198 205 201
f 198 201 199
f 198 229 230
f 198 230 231
f 198 231 232
f 198 232 233
f 198 233 205
f 199 201 200
f 201 205 204
f 201 204 202
f 202 204 203
f 205 233 206
f 206 234 207
f 206 233 234
f 207 234 208
f 208 234 235
f 208 235 236
f 208 236 209
f 209 236 237
f 209 237 238
f 210 239 240
f 210 240 241
f 210 241 242
f 210 242 211
f 211 242 212
f 212 242 243
f 212 243 218
f 212 218 244
f 212 244 213
f 213 244 214
f 214 244 218
f 215 218 245
f 215 245 216
f 216 246 222
f 216 222 221
f 216 221 220
f 216 220 219
f 216 219 217
f 216 245 247
f 216 247 248
f 216 248 246
f 218 243 249
f 218 249 250
f 218 250 251
f 218 251 247
f 218 247 245
f 222 246 252
f 222 252 253
f 222 253 254
f 222 254 223
f 223 254 255
f 223 255 252
f 223 252 256
f 223 256 257
f 224 258 225
f 224 259 258
f 225 258 260
f 225 260 226
f 226 260 261
f 226 261 262
f 226 262 263
f 226 263 227
f 227 264 229
f 227 263 264
f 229 264 263
f 229 263 230
f 230 263 231
f 231 263 265
f 231 265 266
f 231 266 267
f 231 267 233
f 231 233 232
f 233 267 266
f 233 266 268
f 233 268 269
f 233 269 234
f 234 270 235
f 234 269 270
f 235 271 272
f 235 272 273
f 235 273 274
f 235 274 236
f 235 270 268
f 235 268 271
f 236 274 275
f 236 275 276
f 236 276 277
f 236 277 278
f 236 278 279
f 236 279 280
f 236 280 237
f 237 280 281
f 237 281 282
f 237 282 238
f 238 282 283
f 239 284 240
f 239 285 286
f 239 286 287
f 239 287 284
f 240 284 241
f 241 284 288
f 241 288 289
f 241 289 249
f 241 249 242
f 242 249 243
f 246 248 252
f 247 290 248
f 247 251 290
f 248 290 291
f 248 291 252
f 249 289 250
f 250 289 251
f 251 289 292
f 251 292 293
f 251 293 294
f 251 294 291
f 251 291 290
f 252 255 254
f 252 254 253
f 252 291 295
f 252 295 256
f 256 295 257
f 257 295 296
f 258 297 266
f 258 266 261
f 258 261 260
f 258 259 298
f 258 298 297
f 261 266 262
f 262 266 263
f 263 266 265
f 266 297 268
f 268 270 269
f 268 297 299
f 268 299 300
f 268 300 301
f 268 301 302
f 268 302 271
f 271 302 275
f 271 275 303
f 271 303 274
f 271 274 272
f 272 274 273
f 274 303 275
f 275 304 277
f 275 277 276
f 275 302 305
f 275 305 304
f 277 279 278
f 277 304 306
f 277 306 279
f 279 306 307
f 279 307 308
f 279 308 309
f 279 309 310
f 279 310 280
f 280 310 281
f 281 311 282
f 281 310 311
f 282 311 283
f 283 311 312
f 283 312 313
f 283 313 314
f 283 314 315
f 284 316 317
f 284 317 288
f 284 287 318
f 284 318 316
f 285 319 286
f 286 320 318
f 286 318 287
f 286 319 321
f 286 321 322
f 286 322 320
f 288 317 323
f 288 323 289
f 289 323 292
f 291 294 295
f 292 323 293
f 293 323 324
f 293 324 325
f 293 325 326
f 293 326 294
f 294 326 327
f 294 327 328
f 294 328 295
f 295 328 329
f 295 329 296
f 296 329 330
f 297 298 299
f 298 331 332
f 298 332 333
f 298 333 300
f 298 300 299
f 300 333 332
f 300 332 301
f 301 332 305
f 301 305 302
f 304 305 306
f 305 332 306
f 306 334 335
f 306 335 336
f 306 336 337
f 306 337 307
f 306 332 334
f 307 337 308
f 308 338 310
f 308 310 309
f 308 337 338
f 310 339 340
f 310 340 313
f 310 313 312
f 310 312 311
f 310 338 339
f 313 340 314
f 314 321 341
f 314 341 342
f 314 342 343
f 314 343 344
f 314 344 345
f 314 345 346
f 314 346 315
f 314 340 321
f 316 318 317
f 317 324 323
f 317 318 347
f 317 347 324
f 318 320 348
f 318 348 347
f 319 349 341
f 319 341 321
f 320 350 351
f 320 351 348
f 320 322 352
f 320 352 350
f 321 352 322
f 321 340 353
f 321 353 352
f 324 347 354
f 324 354 325
f 325 327 326
f 325 354 355
f 325 355 327
f 327 355 329
f 327 329 328
f 329 355 330
f 330 355 356
f 330 356 357
f 331 358 332
f 332 358 334
f 335 359 336
f 336 359 360
f 336 360 337
f 337 360 361
f 337 361 362
f 337 362 338
f 338 362 363
f 338 363 364
f 338 364 339
f 339 364 340
f 340 364 353
f 341 349 365
f 341 365 342
f 347 348 351
f 347 351 354
f 350 366 367
f 350 367 351
f 350 352 368
f 350 368 369
f 350 369 366
f 351 367 370
f 351 370 354
f 352 353 371
f 352 371 372
f 352 372 368
f 353 373 374
f 353 374 371
f 353 364 375
f 353 375 376
f 353 376 373
f 354 370 355
f 355 370 367
f 355 367 377
f 355 377 378
f 355 378 368
f 355 368 356
f 356 368 357
f 357 368 379
f 360 380 361
f 361 380 381
f 361 381 362
f 362 381 363
f 363 381 375
f 363 375 382
f 363 382 364
f 364 382 375
f 366 369 378
f 366 378 377
f 366 377 367
f 368 372 383
f 368 383 379
f 368 378 384
f 368 384 369
f 369 384 378
f 371 374 372
f 372 374 385
f 372 385 383
f 373 376 374
f 374 386 387
f 374 387 385
f 374 376 386

