# https://github.com/mikedh/trimesh
v 0.42837065 -0.13076718 -0.08952847
v 0.42827111 -0.13076718 -0.09248210
v 0.19724680 -0.12687686 -0.21838033
v 0.19724680 -0.12687686 0.16988282
v 0.42833745 -0.13076718 -0.08814396
v 0.40196028 -0.17795108 -0.05574639
v 0.40222573 -0.17795108 -0.07032991
v 0.40222573 -0.17795108 -0.07208363
v 0.42807204 -0.13076718 -0.09538957
v 0.42684442 -0.13076718 -0.10974234
v 0.42674488 -0.13076718 -0.11043459
v 0.42657900 -0.13076718 -0.11135760
v 0.42614767 -0.13076718 -0.11357282
v 0.42209983 -0.13076718 -0.12861784
v 0.41609448 -0.13076718 -0.15063158
v 0.41579586 -0.13076718 -0.15150844
v 0.41490003 -0.13076718 -0.15381595
v 0.41380513 -0.13076718 -0.15616962
v 0.41357291 -0.13076718 -0.15663113
v 0.41330746 -0.13076718 -0.15713878
v 0.41045409 -0.13076718 -0.16179997
v 0.40829745 -0.13076718 -0.16503049
v 0.40580904 -0.13076718 -0.16830717
v 0.40458143 -0.13076718 -0.16969168
v 0.40202665 -0.13076718 -0.17246071
v 0.40066630 -0.13076718 -0.17370677
v 0.37113714 -0.13076718 -0.19710501
v 0.36898053 -0.13076718 -0.19853567
v 0.35952455 -0.13076718 -0.20444292
v 0.35703611 -0.13076718 -0.20578128
v 0.35093123 -0.13076718 -0.20864260
v 0.34913957 -0.13076718 -0.20938101
v 0.34628618 -0.13076718 -0.21039632
v 0.33918589 -0.13076718 -0.21270384
v 0.33756015 -0.13076718 -0.21321149
v 0.32345915 -0.13076718 -0.21681122
v 0.32080483 -0.13076718 -0.21745732
v 0.31864822 -0.13076718 -0.21782653
v 0.30481261 -0.13076718 -0.21953410
v 0.30106342 -0.13076718 -0.21999560
v 0.29422858 -0.13076718 -0.22045711
v 0.29353184 -0.13076718 -0.22050326
v 0.29054573 -0.13076718 -0.22064170
v 0.28371087 -0.13076718 -0.22091861
v 0.27929810 -0.13076718 -0.22105706
v 0.08941555 -0.12687686 -0.21847263
v 0.19469203 -0.12687686 0.17168269
v 0.28364453 -0.13076718 0.18497400
v 0.28573480 -0.13076718 0.18335873
v 0.29170698 -0.13076718 0.17805144
v 0.30043301 -0.13076718 0.16979052
v 0.33533716 -0.13076718 0.13203952
v 0.36022130 -0.13076718 0.10268787
v 0.36324057 -0.13076718 0.09871893
v 0.39399737 -0.13076718 0.04661515
v 0.39466095 -0.13076718 0.04541524
v 0.39894101 -0.13076718 0.03618517
v 0.39957142 -0.13076718 0.03456990
v 0.41327429 -0.13076718 -0.00881146
v 0.41403741 -0.13076718 -0.01176508
v 0.41616082 -0.13076718 -0.02016445
v 0.41884834 -0.13076718 -0.03207125
v 0.42422330 -0.13076718 -0.05782316
v 0.42475414 -0.13076718 -0.06082293
v 0.42793933 -0.13076718 -0.08329817
v 0.42820477 -0.13076718 -0.08634409
v 0.40166169 -0.17795108 -0.05108520
v 0.40192711 -0.17795108 -0.05482338
v 0.19724680 -0.17796108 0.21238732
v 0.19724680 -0.17796108 -0.20439677
v 0.40073267 -0.17795108 -0.08708250
v 0.40063316 -0.17795108 -0.08795936
v 0.40023500 -0.17795108 -0.09077453
v 0.40016863 -0.17795108 -0.09118988
v 0.39884150 -0.17795108 -0.09723558
v 0.39787930 -0.17795108 -0.10065071
v 0.39688390 -0.17795108 -0.10365049
v 0.39203984 -0.17795108 -0.11721870
v 0.39124352 -0.17795108 -0.11929546
v 0.39067948 -0.17795108 -0.12072612
v 0.38921961 -0.17795108 -0.12423356
v 0.37946504 -0.17795108 -0.14481662
v 0.37780610 -0.17795108 -0.14804715
v 0.37727523 -0.17795108 -0.14897016
v 0.37601444 -0.17795108 -0.15100078
v 0.37342650 -0.17795108 -0.15483126
v 0.37163484 -0.17795108 -0.15723108
v 0.36745429 -0.17795108 -0.16276912
v 0.36499906 -0.17795108 -0.16599965
v 0.36287561 -0.17795108 -0.16872253
v 0.36085171 -0.17795108 -0.17112234
v 0.35856235 -0.17795108 -0.17370677
v 0.35683706 -0.17795108 -0.17518358
v 0.34047988 -0.17795108 -0.18792108
v 0.34011492 -0.17795108 -0.18819799
v 0.33679703 -0.17795108 -0.19022860
v 0.33414274 -0.17795108 -0.19161311
v 0.32262966 -0.17795108 -0.19692041
v 0.32034034 -0.17795108 -0.19779727
v 0.30826324 -0.17795108 -0.20176619
v 0.30550939 -0.17795108 -0.20264305
v 0.32050622 -0.13201728 -0.21704197
v 0.29233739 -0.17795108 -0.20582743
v 0.28311366 -0.17795108 -0.20767345
v 0.27883360 -0.17795108 -0.20845801
v 0.27398947 -0.17795108 -0.20933487
v 0.27106974 -0.17795108 -0.20984252
v 0.26572794 -0.17795108 -0.21048862
v 0.25491163 -0.17795108 -0.21150392
v 0.25053203 -0.17795108 -0.21182698
v 0.27571478 -0.13076718 -0.22101091
v 0.25311998 -0.15032880 -0.21727273
v 0.08941555 -0.12687686 0.22318651
v 0.08941555 -0.17796108 -0.20998096
v 0.11755121 -0.12687686 0.21695621
v 0.17163274 -0.12907204 0.22558632
v 0.28523710 -0.13263734 0.18562010
v 0.28235054 -0.13076718 0.18571240
v 0.28135517 -0.13136724 0.18695846
v 0.29416221 -0.13367742 0.17772838
v 0.33480629 -0.13172226 0.13277791
v 0.29595387 -0.13526756 0.17615928
v 0.31144840 -0.17795108 0.13877746
v 0.31513125 -0.17795108 0.13333172
v 0.32604709 -0.17795108 0.11570227
v 0.36961091 -0.17795108 0.03193933
v 0.39034769 -0.17795108 -0.01176508
v 0.39101127 -0.17795108 -0.01333419
v 0.39230525 -0.17795108 -0.01647242
v 0.39731526 -0.17795108 -0.03253275
v 0.39827743 -0.17795108 -0.03571713
v 0.39897418 -0.17795108 -0.03834770
v 0.40113083 -0.17795108 -0.04785468
v 0.30982262 -0.17795108 0.14066963
v 0.30915904 -0.17795108 0.14140804
v 0.30706879 -0.17795108 0.14343865
v 0.30378407 -0.17795108 0.14639227
v 0.29412904 -0.17795108 0.15391479
v 0.29021394 -0.17795108 0.15659150
v 0.28629884 -0.17795108 0.15922208
v 0.23563473 -0.17795108 0.19240421
v 0.20680231 -0.17795108 0.20878759
v 0.20398211 -0.17795108 0.21031055
v 0.17996062 -0.17796108 0.22138664
v 0.19396210 -0.17796108 -0.20988867
v 0.16818213 -0.17796108 -0.21035017
v 0.16479790 -0.17796108 -0.21039632
v 0.24708143 -0.17795108 -0.21182698
v 0.08941555 -0.13534257 0.23643167
v 0.14834118 -0.13349241 0.24820001
v 0.10534140 -0.12687686 0.22277115
v 0.10978736 -0.17796108 -0.21011941
v 0.08941555 -0.17796108 0.22092514
v 0.11652267 -0.12687686 0.21755616
v 0.17913115 -0.12941207 0.22535558
v 0.17521605 -0.12947707 0.22770925
v 0.29183969 -0.13410746 0.18022050
v 0.28334591 -0.13360742 0.18760456
v 0.28570160 -0.13563758 0.18654311
v 0.18274765 -0.13044216 0.22780155
v 0.15992060 -0.13326240 0.24626170
v 0.21884623 -0.13491252 0.22392492
v 0.22166644 -0.13661267 0.22374031
v 0.29333276 -0.13598761 0.17865139
v 0.28301412 -0.13641265 0.18774302
v 0.21841490 -0.13711271 0.22577094
v 0.17743903 -0.17796108 0.22249426
v 0.16337121 -0.17796108 -0.21039632
v 0.08941555 -0.13723771 0.23896994
v 0.15540828 -0.13323238 0.24672320
v 0.08941555 -0.13749273 0.23929299
v 0.08941555 -0.14480335 0.24769236
v 0.14588594 -0.13617763 0.25013834
v 0.14953563 -0.13608262 0.25041524
v 0.15202403 -0.13372242 0.24856922
v 0.10709988 -0.17796108 0.23827769
v 0.08941555 -0.17793109 0.23841614
v 0.15776399 -0.13454250 0.24898458
v 0.16373616 -0.13480751 0.24681550
v 0.15875934 -0.17796108 0.23020136
v 0.16154636 -0.17796108 0.22909376
v 0.16128093 -0.13679267 0.24810772
v 0.08941555 -0.14617845 0.24866152
v 0.08941555 -0.14715354 0.24907687
v 0.14744535 -0.13988294 0.24990758
v 0.15089595 -0.13927789 0.24958453
v 0.15394841 -0.13650265 0.24958453
v 0.10500962 -0.14674850 0.24916917
v 0.11280663 -0.17796108 0.23800078
v 0.10597180 -0.14980376 0.24820001
v 0.08941555 -0.14911869 0.24843077
v 0.15580642 -0.17796108 0.23093978
v 0.15769762 -0.13800278 0.24852307
v 0.10749802 -0.14728855 0.24898458
v 0.13141997 -0.17796108 0.23573941
v 0.13536826 -0.17796108 0.23518561
v 0.13659588 -0.17796108 0.23500101
v 0.13822164 -0.17796108 0.23472410
v 0.14293304 -0.17796108 0.23380110
f 1 2 3
f 1 3 4
f 1 4 5
f 1 5 6
f 1 6 7
f 1 7 8
f 1 8 2
f 2 9 3
f 2 8 9
f 3 9 10
f 3 10 11
f 3 11 12
f 3 12 13
f 3 13 14
f 3 14 15
f 3 15 16
f 3 16 17
f 3 17 18
f 3 18 19
f 3 19 20
f 3 20 21
f 3 21 22
f 3 22 23
f 3 23 24
f 3 24 25
f 3 25 26
f 3 26 27
f 3 27 28
f 3 28 29
f 3 29 30
f 3 30 31
f 3 31 32
f 3 32 33
f 3 33 34
f 3 34 35
f 3 35 36
f 3 36 37
f 3 37 38
f 3 38 39
f 3 39 40
f 3 40 41
f 3 41 42
f 3 42 43
f 3 43 44
f 3 44 45
f 3 45 46
f 3 46 113
f 3 113 151
f 3 151 154
f 3 154 115
f 3 115 47
f 3 47 4
f 4 47 48
f 4 48 49
f 4 49 50
f 4 50 51
f 4 51 52
f 4 52 53
f 4 53 54
f 4 54 55
f 4 55 56
f 4 56 57
f 4 57 58
f 4 58 59
f 4 59 60
f 4 60 61
f 4 61 62
f 4 62 63
f 4 63 64
f 4 64 65
f 4 65 66
f 4 66 5
f 5 66 67
f 5 67 68
f 5 68 6
f 6 68 69
f 6 69 7
f 7 69 70
f 7 70 8
f 8 70 71
f 8 71 10
f 8 10 9
f 10 71 72
f 10 72 73
f 10 73 11
f 11 73 74
f 11 74 12
f 12 74 13
f 13 74 75
f 13 75 14
f 14 75 15
f 15 75 76
f 15 76 77
f 15 77 16
f 16 77 78
f 16 78 79
f 16 79 17
f 17 79 80
f 17 80 81
f 17 81 18
f 18 81 82
f 18 82 19
f 19 82 83
f 19 83 20
f 20 83 84
f 20 84 21
f 21 84 85
f 21 85 22
f 22 85 86
f 22 86 87
f 22 87 88
f 22 88 23
f 23 89 90
f 23 90 91
f 23 91 92
f 23 92 24
f 23 88 89
f 24 92 25
f 25 92 26
f 26 92 93
f 26 93 27
f 27 93 94
f 27 94 95
f 27 95 28
f 28 95 29
f 29 95 96
f 29 96 30
f 30 96 97
f 30 97 31
f 31 97 98
f 31 98 32
f 32 98 99
f 32 99 33
f 33 99 100
f 33 100 34
f 34 100 101
f 34 101 35
f 35 101 36
f 36 101 102
f 36 102 37
f 37 102 103
f 37 103 104
f 37 104 105
f 37 105 106
f 37 106 107
f 37 107 38
f 38 107 39
f 39 107 40
f 40 107 108
f 40 108 109
f 40 109 110
f 40 110 41
f 41 110 42
f 42 110 43
f 43 110 44
f 44 110 45
f 45 111 46
f 45 110 112
f 45 112 111
f 46 111 114
f 46 114 153
f 46 153 177
f 46 177 191
f 46 191 184
f 46 184 183
f 46 183 172
f 46 172 171
f 46 171 169
f 46 169 149
f 46 149 113
f 47 115 116
f 47 116 48
f 48 117 49
f 48 116 118
f 48 118 119
f 48 119 117
f 49 117 50
f 50 117 51
f 51 117 120
f 51 120 52
f 52 121 53
f 52 120 122
f 52 122 121
f 53 121 123
f 53 123 54
f 54 124 125
f 54 125 55
f 54 123 124
f 55 125 56
f 56 126 127
f 56 127 57
f 56 125 126
f 57 127 128
f 57 128 129
f 57 129 58
f 58 129 59
f 59 129 130
f 59 130 131
f 59 131 132
f 59 132 60
f 60 132 61
f 61 132 133
f 61 133 62
f 62 133 63
f 63 133 64
f 64 133 67
f 64 67 65
f 65 67 66
f 67 133 69
f 67 69 68
f 69 133 132
f 69 132 131
f 69 131 130
f 69 130 129
f 69 129 128
f 69 128 127
f 69 127 126
f 69 126 125
f 69 125 124
f 69 124 123
f 69 123 134
f 69 134 135
f 69 135 136
f 69 136 137
f 69 137 138
f 69 138 139
f 69 139 140
f 69 140 141
f 69 141 142
f 69 142 143
f 69 143 144
f 69 144 167
f 69 167 181
f 69 181 180
f 69 180 192
f 69 192 199
f 69 199 198
f 69 198 197
f 69 197 196
f 69 196 195
f 69 195 189
f 69 189 176
f 69 176 153
f 69 153 114
f 69 114 152
f 69 152 168
f 69 168 147
f 69 147 146
f 69 146 145
f 69 145 70
f 70 145 84
f 70 84 83
f 70 83 82
f 70 82 81
f 70 81 80
f 70 80 79
f 70 79 78
f 70 78 77
f 70 77 76
f 70 76 75
f 70 75 74
f 70 74 73
f 70 73 72
f 70 72 71
f 84 145 85
f 85 145 86
f 86 145 87
f 87 145 88
f 88 145 89
f 89 145 90
f 90 145 91
f 91 145 92
f 92 145 93
f 93 145 94
f 94 145 95
f 95 145 96
f 96 145 97
f 97 145 98
f 98 145 99
f 99 145 100
f 100 145 101
f 101 145 103
f 101 103 102
f 103 145 104
f 104 145 105
f 105 145 106
f 106 145 107
f 107 145 108
f 108 145 109
f 109 145 110
f 110 145 146
f 110 146 147
f 110 147 168
f 110 168 148
f 110 148 112
f 111 112 114
f 112 148 114
f 113 149 150
f 113 150 151
f 114 148 152
f 115 154 116
f 116 155 118
f 116 154 151
f 116 151 156
f 116 156 155
f 117 157 120
f 117 119 158
f 117 158 159
f 117 159 157
f 118 155 156
f 118 156 160
f 118 160 161
f 118 161 162
f 118 162 119
f 119 162 163
f 119 163 158
f 120 157 122
f 121 122 134
f 121 134 123
f 122 157 159
f 122 159 164
f 122 164 135
f 122 135 134
f 135 164 159
f 135 159 136
f 136 159 137
f 137 159 138
f 138 159 139
f 139 159 140
f 140 159 141
f 141 159 165
f 141 165 166
f 141 166 142
f 142 166 143
f 143 166 144
f 144 166 167
f 148 168 152
f 149 169 150
f 150 170 151
f 150 169 171
f 150 171 172
f 150 172 173
f 150 173 174
f 150 174 175
f 150 175 170
f 151 170 156
f 153 176 177
f 156 170 161
f 156 161 160
f 158 163 166
f 158 166 159
f 159 166 165
f 161 170 175
f 161 175 178
f 161 178 162
f 162 178 179
f 162 179 166
f 162 166 163
f 166 180 181
f 166 181 167
f 166 179 182
f 166 182 180
f 172 183 173
f 173 183 184
f 173 184 174
f 174 185 186
f 174 186 187
f 174 187 178
f 174 178 175
f 174 184 188
f 174 188 185
f 176 189 185
f 176 185 190
f 176 190 177
f 177 190 191
f 178 187 182
f 178 182 179
f 180 182 193
f 180 193 192
f 182 187 186
f 182 186 193
f 184 191 190
f 184 190 188
f 185 188 194
f 185 194 190
f 185 189 195
f 185 195 196
f 185 196 197
f 185 197 198
f 185 198 186
f 186 198 199
f 186 199 192
f 186 192 193
f 188 190 194

