# https://github.com/mikedh/trimesh
v 0.21957892 -0.05674597 0.20381577
v 0.15734899 -0.05674597 0.22650582
v 0.21957892 -0.08674096 0.19929741
v 0.21957892 -0.05674597 -0.22714749
v 0.15351334 -0.05674597 0.22788097
v -0.00751735 -0.12847830 0.25749588
v 0.06357423 -0.12847830 0.23554254
v 0.21957892 -0.08874951 0.19870807
v 0.21957892 -0.12847129 -0.22081196
v -0.06111709 -0.07449996 -0.23834518
v 0.09716914 -0.05674597 -0.23230432
v 0.12494446 -0.05674597 0.23500229
v -0.00827786 -0.12847830 0.25769234
v 0.21957892 -0.12847830 0.16766889
v 0.21957892 -0.09669247 0.19360036
v 0.21957892 -0.09433977 0.19551575
v 0.21957892 -0.09166404 0.19733292
v 0.21957892 -0.09035075 0.19816783
v 0.21957892 -0.12847830 -0.22066462
v -0.04329460 -0.12847830 -0.23092917
v -0.03919443 -0.08806829 -0.23584042
v -0.06445675 -0.07617845 -0.23824695
v -0.11372486 -0.07538486 -0.23839429
v -0.11256756 -0.05674597 -0.23893452
v -0.06376236 -0.05674597 -0.23854160
v 0.04684291 -0.05674597 0.24688755
v -0.01079087 -0.11130019 0.25847813
v -0.01151831 -0.12847830 0.25842902
v -0.07179736 -0.12847830 -0.23142029
v -0.11822182 -0.07422607 -0.23829606
v -0.11312968 -0.12847830 -0.23142029
v -0.11607254 -0.12847830 -0.23137118
v -0.11822182 -0.05674597 -0.23849252
v 0.04502429 -0.05674597 0.24698578
v -0.05655400 -0.09096174 0.26235804
v -0.05344582 -0.09174831 0.26211247
v -0.05625641 -0.09379901 0.26255447
v -0.05943073 -0.09273855 0.26280004
v -0.02061143 -0.12847830 0.25867456
v -0.11808956 -0.12847830 -0.23122384
v -0.11822182 -0.12847830 -0.23117472
v -0.11822182 -0.05674597 0.24477571
v -0.07715403 -0.05674597 0.24703489
v -0.08135340 -0.08498522 0.26108110
v -0.07887346 -0.08742920 0.26211247
v -0.05913314 -0.08952906 0.26201424
v -0.07685643 -0.09023838 0.26201424
v -0.03615238 -0.12847830 0.25842902
v -0.02560437 -0.12847830 0.25862545
v -0.02285990 -0.12847830 0.25867456
v -0.11822182 -0.12847830 0.24698578
v -0.11822182 -0.07557447 0.25228995
v -0.11815569 -0.05674597 0.24521773
v -0.08935533 -0.08329269 0.26014796
v -0.08465998 -0.08566644 0.26122844
v -0.08809882 -0.08623530 0.26113021
v -0.08218004 -0.08851776 0.26162136
v -0.03783873 -0.12847830 0.25828168
v -0.11822182 -0.08681820 0.25479469
v -0.11822182 -0.08358063 0.25474557
f 1 2 3
f 1 3 8
f 1 8 18
f 1 18 17
f 1 17 16
f 1 16 15
f 1 15 14
f 1 14 19
f 1 19 9
f 1 9 4
f 1 4 11
f 1 11 25
f 1 25 24
f 1 24 33
f 1 33 42
f 1 42 53
f 1 53 43
f 1 43 34
f 1 34 26
f 1 26 12
f 1 12 5
f 1 5 2
f 2 5 3
f 3 5 6
f 3 6 7
f 3 7 8
f 4 9 10
f 4 10 11
f 5 12 13
f 5 13 6
f 6 13 28
f 6 28 39
f 6 39 50
f 6 50 49
f 6 49 48
f 6 48 58
f 6 58 51
f 6 51 41
f 6 41 40
f 6 40 32
f 6 32 31
f 6 31 29
f 6 29 20
f 6 20 19
f 6 19 14
f 6 14 7
f 7 14 15
f 7 15 16
f 7 16 17
f 7 17 18
f 7 18 8
f 9 19 20
f 9 20 21
f 9 21 10
f 10 22 23
f 10 23 24
f 10 24 25
f 10 25 11
f 10 21 20
f 10 20 22
f 12 26 27
f 12 27 28
f 12 28 13
f 20 29 22
f 22 29 23
f 23 30 24
f 23 29 31
f 23 31 32
f 23 32 30
f 24 30 33
f 26 34 35
f 26 35 36
f 26 36 27
f 27 36 37
f 27 37 28
f 28 37 38
f 28 38 39
f 30 32 40
f 30 40 41
f 30 41 51
f 30 51 59
f 30 59 60
f 30 60 52
f 30 52 42
f 30 42 33
f 34 43 44
f 34 44 45
f 34 45 46
f 34 46 35
f 35 38 36
f 35 46 45
f 35 45 38
f 36 38 37
f 38 45 47
f 38 47 48
f 38 48 49
f 38 49 50
f 38 50 39
f 42 52 53
f 43 53 54
f 43 54 44
f 44 54 45
f 45 54 55
f 45 55 56
f 45 56 57
f 45 57 47
f 47 57 51
f 47 51 58
f 47 58 48
f 51 57 56
f 51 56 59
f 52 60 54
f 52 54 53
f 54 56 55
f 54 60 56
f 56 60 59

