# https://github.com/mikedh/trimesh
v 0.21219285 -0.11348940 0.17220359
v 0.21219285 -0.12687187 0.16989477
v 0.21219285 -0.11348940 -0.21999040
v 0.16102605 -0.11348940 0.19119687
v 0.10442607 -0.12606625 0.22264905
v 0.10442607 -0.12687187 0.22321537
v 0.11647401 -0.12687187 0.21759580
v 0.21219285 -0.12687187 -0.21833502
v 0.17018332 -0.11395182 -0.22077453
v 0.16904394 -0.11348940 -0.22081809
v 0.21219285 -0.12542699 -0.21859640
v 0.15967567 -0.11348940 0.19158894
v 0.10442607 -0.12394151 0.22020955
v 0.10442607 -0.12541258 0.22190849
v 0.10442607 -0.12687187 -0.21850927
v 0.11471219 -0.11348940 -0.22182003
v 0.10442607 -0.11348940 0.20470127
v 0.10442607 -0.12525146 -0.21890134
v 0.10442607 -0.11348940 -0.22107947
v 0.10442607 -0.12200409 -0.21955477
f 1 2 8
f 1 8 11
f 1 11 3
f 1 3 10
f 1 10 16
f 1 16 19
f 1 19 17
f 1 17 12
f 1 12 4
f 1 4 5
f 1 5 6
f 1 6 7
f 1 7 2
f 2 7 6
f 2 6 15
f 2 15 8
f 3 9 10
f 3 11 9
f 4 12 13
f 4 13 14
f 4 14 5
f 5 14 13
f 5 13 17
f 5 17 19
f 5 19 20
f 5 20 18
f 5 18 15
f 5 15 6
f 8 15 16
f 8 16 11
f 9 16 10
f 9 11 16
f 12 17 13
f 15 18 16
f 16 18 20
f 16 20 19

