# https://github.com/mikedh/trimesh
v -0.07146592 -0.08673891 -0.23827226
v -0.07146592 -0.04993790 -0.24196935
v -0.04092368 -0.00710981 -0.24814799
v -0.03929970 -0.01301713 -0.24759090
v 0.08304022 0.01352590 -0.24981928
v -0.04098066 -0.08673891 -0.23771517
v -0.05593839 -0.08673891 0.23748483
v -0.07146592 0.00123228 0.26199690
v -0.07146592 0.10544861 -0.24445093
v -0.05553951 0.05934756 -0.25017378
v -0.05568197 0.00869627 -0.24845186
v -0.03687797 0.01336624 -0.24946475
v -0.00388551 0.01711819 -0.25017378
v 0.01392130 0.01125078 -0.24997121
v -0.00565194 0.02206756 -0.25032574
v 0.04292504 0.04605608 -0.24997121
v 0.19942555 0.02546028 -0.24622351
v 0.20236009 0.00338765 -0.24495739
v 0.19238830 -0.08673891 -0.22783944
v 0.17842776 -0.08673891 0.21742949
v 0.04603054 -0.06933627 0.24806958
v 0.02759693 -0.04083742 0.26204756
v -0.00539552 -0.00623170 0.26696008
v -0.07146592 0.00662072 0.26321238
v -0.07146592 0.11303233 -0.24242514
v -0.05041115 0.10784347 -0.24419770
v -0.05297533 0.10197607 -0.24556512
v -0.04850226 0.08193907 -0.24829993
v -0.04941396 0.05747158 -0.25042701
v -0.03260434 0.03743459 -0.25027508
v 0.02187026 0.06653214 -0.24870509
v 0.06620210 0.06182224 -0.24840122
v 0.20452541 0.05036683 -0.24450156
v 0.20435447 0.02286585 -0.24556512
v 0.21959710 -0.03313397 -0.23624648
v 0.21959710 -0.06885730 -0.22789009
v 0.21959710 -0.08673891 0.20395797
v 0.13577688 -0.02762578 0.25364053
v 0.12056273 -0.02858372 0.25819856
v 0.11090432 -0.04083742 0.25586888
v 0.10862505 -0.05584522 0.24918377
v 0.08002019 -0.03209619 0.26432657
v 0.07907999 -0.02734639 0.26549140
v 0.03873688 -0.02247684 0.26599783
v 0.06819646 -0.01601072 0.26518753
v -0.04719167 0.02007185 0.26640299
v -0.04992680 0.01288727 0.26599783
v -0.07146592 0.01292718 0.26387075
v -0.07146592 0.14632089 -0.23204295
v -0.04243369 0.13574359 -0.23548681
v -0.03864440 0.13083413 -0.23700614
v -0.02966977 0.13103370 -0.23685421
v 0.13660312 0.11842077 -0.23320779
v 0.21959710 0.10696536 -0.23260005
v 0.20404106 0.07447509 -0.24080451
v 0.06546134 0.07938455 -0.24536255
v 0.21959710 -0.02068070 0.22543137
v 0.12455146 -0.02570990 0.25743887
v 0.21959710 -0.00467504 0.22710265
v 0.11113225 -0.02570990 0.26037627
v 0.10358216 -0.03002064 0.26143980
v 0.10349669 -0.03808334 0.25865436
v 0.04181389 0.08385496 0.25485599
v 0.03748327 0.08197898 0.25571695
v 0.01942005 0.04306251 0.26143980
v -0.04499788 0.02809463 0.26539010
v -0.07146592 0.05499689 0.26108530
v -0.07146592 0.15119044 -0.23032103
v -0.04890113 0.15617973 -0.22849782
v -0.02474084 0.13997450 -0.23346101
v -0.00097944 0.15490247 -0.22672525
v 0.21956861 0.12855901 -0.22515526
v 0.21959710 0.15262735 -0.21370955
v 0.11928064 -0.02379401 0.25865436
v 0.21959710 0.00215031 0.22720394
v 0.16554986 -0.00048403 0.24366349
v 0.16856989 0.00833704 0.24199221
v 0.10999261 0.07902532 0.24422058
v 0.09084672 0.10429110 0.24305575
v 0.06771212 0.10105804 0.24746186
v 0.05201364 0.10860185 0.24796830
v 0.04095916 0.09610866 0.25212115
v 0.01836588 0.07016434 0.25829983
v 0.03272529 0.08505239 0.25541309
v -0.07146592 0.06916648 0.25900885
v -0.07146592 0.16368362 -0.22530720
v -0.04995529 0.16104928 -0.22652267
v -0.02115099 0.16300508 -0.22409172
v 0.02600144 0.16871282 -0.21867274
v 0.11910970 0.15933296 -0.21765985
v 0.14116165 0.16895232 -0.21137989
v 0.21959710 0.17314333 -0.20206125
v 0.18136230 0.13434659 0.22077204
v 0.21959710 0.14911489 0.20350218
v 0.20378464 0.12277143 0.21484661
v 0.18936825 0.13326891 0.21844240
v 0.17227373 0.13829811 0.22143044
v 0.11047696 0.15917331 0.22725458
v 0.09728567 0.16156816 0.22867264
v 0.02551710 0.11103662 0.24994345
v 0.07879508 0.16759524 0.22907779
v 0.06885175 0.16951112 0.22958425
v 0.01412074 0.12297101 0.24730991
v -0.07146592 0.08692836 0.25495726
v -0.07146592 0.16923171 -0.22216722
v -0.04328842 0.17426093 -0.21887532
v -0.02382914 0.16891241 -0.22120498
v -0.03821705 0.18116611 -0.21446922
v 0.02326632 0.18344122 -0.20970860
v 0.09885267 0.19409835 -0.19735128
v 0.16762969 0.19449750 -0.19203357
v 0.21959710 0.19373912 -0.18767813
v 0.21959710 0.15350547 0.20102058
v 0.14218733 0.15015267 0.22345622
v 0.10480727 0.16480123 0.22553265
v 0.09352487 0.16595875 0.22740652
v 0.07400861 0.16915189 0.22907779
v 0.07326784 0.17182615 0.22776103
v 0.06474906 0.17326307 0.22806489
v 0.05497669 0.17206565 0.22978681
v -0.05636575 0.14208998 0.24072610
v -0.07146592 0.13127318 0.24361284
v -0.00388551 0.18751249 0.22740652
v -0.04251917 0.18962795 0.22715329
v -0.07146592 0.18595582 -0.21137989
v -0.04528278 0.18388028 -0.21289922
v -0.02767541 0.19270134 -0.20606218
v -0.02525368 0.20607266 -0.19568001
v 0.11902422 0.20152241 -0.18975456
v 0.16646157 0.19916746 -0.18818457
v 0.21959710 0.21441475 -0.16954729
v 0.21959710 0.16312483 0.19499385
v 0.14270017 0.17569783 0.20871858
v 0.10030571 0.17609699 0.21920206
v 0.14087674 0.17988884 0.20659152
v 0.13136078 0.19022666 0.20248929
v 0.07853866 0.17222530 0.22659619
v 0.07537617 0.17681545 0.22391203
v 0.07449295 0.18551677 0.21788530
v -0.07146592 0.19178331 0.22553265
v 0.02716957 0.20471556 0.21033922
v 0.01617208 0.21333706 0.20517346
v 0.01115768 0.21433492 0.20502152
v 0.00514611 0.21281818 0.20689538
v -0.05249099 0.19661295 0.22239268
v -0.04847377 0.19214255 0.22553265
v -0.07146592 0.19489664 -0.20474543
v -0.05095247 0.19717175 -0.20327672
v -0.04072424 0.19828936 -0.20231447
v -0.05351665 0.22439334 -0.18215784
v 0.14304206 0.21074262 -0.17947367
v 0.16566382 0.21756798 -0.17106664
v 0.19178998 0.22283667 -0.16346993
v 0.21959710 0.22890365 -0.15450579
v 0.21959710 0.17046906 0.19028389
v 0.12449448 0.19078547 0.20375541
v 0.21959710 0.19186315 0.17650850
v 0.13828407 0.20028508 0.19246161
v 0.21959710 0.20479539 0.16769631
v 0.08121680 0.18447900 0.21737885
v 0.08175813 0.18926871 0.21368177
v 0.07628788 0.18894941 0.21494789
v -0.07146592 0.20004559 0.21955657
v 0.08272682 0.21138126 0.19631062
v 0.06845288 0.22271693 0.18891647
v 0.06050392 0.22838476 0.18501683
v 0.01130014 0.21916455 0.20061542
v 0.00466176 0.22215813 0.19838706
v -0.02474084 0.22203839 0.19950125
v -0.03858742 0.21162075 0.20917439
v -0.04360182 0.21082246 0.20998470
v -0.07146592 0.23073971 -0.17648563
v -0.05371609 0.24311316 -0.16387507
v 0.18882692 0.22559077 -0.16088703
v 0.21959710 0.23337406 -0.14928938
v 0.11970801 0.21058297 0.18846068
v 0.10774183 0.20575333 0.19529772
v 0.08420835 0.19318032 0.21023794
v 0.12452297 0.21030357 0.18749842
v 0.21959710 0.21253878 0.16050476
v -0.07146592 0.21233919 0.20861730
v 0.07597448 0.22203839 0.18805552
v 0.03822404 0.23245603 0.18400393
v 0.07343879 0.23002125 0.18066138
v 0.06774061 0.24299341 0.16865857
v 0.04030387 0.24147667 0.17473593
v 0.02021779 0.23772472 0.18116783
v -0.00337268 0.23820369 0.18344684
v -0.00653517 0.23229638 0.18942294
v -0.02570954 0.23257577 0.18987873
v -0.04092368 0.22243753 0.19934930
v -0.04288955 0.21796712 0.20345153
v -0.07146592 0.24786296 -0.15860802
v -0.04231973 0.25544667 -0.14777003
v -0.01417072 0.26039606 -0.13799560
v 0.07406559 0.25452864 -0.13591915
v 0.21959710 0.25237328 -0.12052314
v 0.10312630 0.23600841 0.16688600
v 0.21959710 0.22567059 0.14424779
v 0.14415321 0.24167624 0.14814743
v 0.12965134 0.23856291 0.15619995
v 0.07241312 0.24431059 0.16612633
v -0.05485573 0.22762638 0.19408225
v -0.07146592 0.23445174 0.18648553
v 0.06019052 0.24842176 0.16354345
v 0.00924879 0.24443033 0.17569819
v 0.03540344 0.24945953 0.16622762
v 0.00346515 0.24431059 0.17640722
v -0.01861531 0.24247453 0.17980042
v -0.02220516 0.23972043 0.18273781
v -0.07146592 0.26143384 -0.13971752
v -0.04092368 0.26789996 -0.12943663
v 0.05563198 0.26239178 -0.12604342
v 0.07195726 0.28901464 -0.07828540
v 0.12079066 0.29136959 -0.06511775
v 0.21959710 0.27775878 -0.07225867
v 0.21959710 0.23449166 0.13224497
v 0.21959710 0.23880240 0.12631953
v 0.11834045 0.25504756 0.13791719
v 0.08378098 0.25919864 0.14186747
v 0.06967799 0.25660419 0.14946419
v -0.02642181 0.24259427 0.17964849
v -0.03804610 0.24654579 0.17453337
v -0.07146592 0.24435049 0.17483723
v 0.04731263 0.25385010 0.15893477
v 0.00998956 0.24774322 0.17169726
v 0.01380734 0.25516731 0.16151765
v 0.00107191 0.24714451 0.17326725
v -0.01830190 0.24482948 0.17691366
v -0.07146592 0.27245021 -0.12290345
v -0.04420013 0.26985574 -0.12654987
v 0.00252494 0.26710168 -0.12518246
v -0.03656457 0.29783571 -0.07701927
v 0.06848137 0.29280651 -0.07165093
v 0.07674373 0.29556060 -0.06506710
v 0.07184330 0.29863399 -0.05939489
v 0.10839713 0.29863399 -0.05139302
v 0.21959710 0.28522277 -0.05534331
v 0.15677467 0.25848019 0.11907732
v 0.21959710 0.24694493 0.11401284
v 0.12383918 0.27548367 0.10408647
v 0.07540466 0.26766047 0.13148530
v -0.07146592 0.24826211 0.16962081
v -0.02798881 0.25792137 0.15984638
v -0.03419983 0.25345099 0.16546795
v 0.03548891 0.25804111 0.15457931
v 0.06061789 0.27081370 0.13011789
v 0.04338089 0.26346946 0.14485551
v 0.00990409 0.26135400 0.15311062
v -0.01015351 0.26518577 0.14936291
v -0.01721925 0.25856000 0.15878284
v -0.07146592 0.29599965 -0.08142538
v -0.05590989 0.30430183 -0.06587742
v -0.04183538 0.30617779 -0.06076230
v -0.02049571 0.30737525 -0.05590040
v 0.07190028 0.30390269 -0.04708821
v 0.08212851 0.30430183 -0.04359372
v 0.10144534 0.30482072 -0.03706054
v 0.11714382 0.30665678 -0.02683030
v 0.21959710 0.29009235 -0.04136535
v 0.13911031 0.27340811 0.10180745
v 0.12762848 0.27771890 0.09917393
v 0.21959710 0.25009817 0.10879643
v 0.07865262 0.28745800 0.09897134
v 0.09845380 0.28067255 0.10373195
v -0.03411435 0.26119435 0.15427545
v -0.07146592 0.26330981 0.14602035
v -0.01682038 0.26566476 0.14860323
v -0.02069514 0.26750082 0.14546326
v 0.04098766 0.27280942 0.13072562
v 0.01081579 0.26394844 0.14916033
v 0.07309690 0.29332539 0.09081753
v 0.05714200 0.27328840 0.12692726
v -0.00701950 0.26714158 0.14617229
v -0.07146592 0.31244436 -0.04708821
v -0.05625179 0.30681643 -0.06050908
v -0.02850164 0.31072804 -0.04870884
v -0.00120737 0.31232461 -0.03989665
v 0.06771212 0.30613789 -0.04202373
v 0.08745631 0.30677652 -0.03518669
v 0.11124621 0.30801386 -0.02460193
v 0.11691590 0.30837309 -0.02105679
v 0.11893875 0.30921131 -0.01553651
v 0.12002140 0.30969027 -0.01077590
v 0.15198819 0.30442157 -0.01264976
v 0.18540803 0.29795545 -0.01989196
v 0.20384163 0.29424343 -0.02141131
v 0.20435447 0.29412368 -0.01513135
v 0.21959710 0.28953353 0.01707873
v 0.13250042 0.27735966 0.09780651
v 0.11036299 0.28753781 0.08813336
v 0.13623273 0.27943522 0.09233688
v 0.21959710 0.27280942 0.06362128
v -0.03531097 0.26578450 0.14647615
v -0.07146592 0.27847725 0.11958377
v -0.01445563 0.27145234 0.13908201
v -0.07146592 0.29244727 0.09441332
v 0.03417833 0.28358629 0.11345575
v 0.01195543 0.26881799 0.14110780
v 0.07771242 0.29635888 0.08261308
v 0.05127287 0.30218637 0.07542152
v 0.05118740 0.29927263 0.08190405
v -0.07146592 0.31879073 -0.01573909
v -0.02841617 0.31735381 -0.02617192
v -0.03519700 0.31551775 -0.03462959
v -0.03459870 0.31404093 -0.04040310
v -0.03209150 0.31232461 -0.04511306
v -0.00704800 0.31551775 -0.03118575
v 0.00186965 0.31408083 -0.03386992
v 0.04674282 0.31012934 -0.03543991
v 0.08403740 0.31192547 -0.01882842
v 0.03930669 0.31236452 -0.03017285
v 0.09919456 0.31192547 -0.01189009
v 0.13301325 0.30801386 -0.00312854
v 0.14241526 0.30649713 -0.00404014
v 0.14817041 0.30537951 -0.00728141
v 0.07335331 0.31587699 -0.00003921
v 0.10683012 0.31216496 0.00872234
v 0.18962467 0.29715717 -0.01016816
v 0.19731721 0.29548076 -0.01032010
v 0.14648944 0.30533960 0.00446818
v 0.13175966 0.30737525 0.01510358
v 0.11443719 0.30929112 0.02437158
v 0.12309843 0.30310440 0.04204661
v 0.21959710 0.28753781 0.02416900
v 0.18771578 0.29731682 -0.00419208
v 0.12913850 0.28793696 0.07800440
v 0.12361126 0.29280651 0.06934415
v 0.10979317 0.29967177 0.05956971
v 0.14774305 0.28861549 0.06645739
v 0.01355092 0.29292625 0.09709749
v -0.04229124 0.30494046 0.07263606
v -0.04998378 0.30031040 0.08144825
v -0.07146592 0.30262542 0.07562410
v 0.02642881 0.29452282 0.09329913
v 0.03343757 0.29827476 0.08565177
v 0.07167235 0.30242586 0.06833126
v 0.05221307 0.30466107 0.06898963
v 0.09959343 0.30334389 0.05470780
v 0.04238371 0.29955202 0.08225857
v 0.04574563 0.30486065 0.06995188
v -0.05348816 0.32102594 0.00142949
v -0.05599537 0.31986842 -0.00940849
v -0.04565316 0.31994826 -0.01077590
v -0.05072454 0.31942937 -0.01406781
v -0.07146592 0.31994826 0.01079878
v -0.03254735 0.31918988 -0.01589102
v -0.00753234 0.31843150 -0.01877778
v -0.02331630 0.31679502 -0.02880544
v -0.01009653 0.31707442 -0.02596933
v 0.04454902 0.31771305 -0.00748399
v 0.13583386 0.30757481 -0.00095081
v 0.03885084 0.31879073 -0.00226758
v 0.06591719 0.31667528 0.00203723
v 0.06711381 0.31639588 0.00907686
v 0.10289837 0.31236452 0.01201425
v 0.12264257 0.30865249 0.01829421
v 0.12996474 0.30849284 0.00259432
v 0.10104647 0.31184566 0.01712938
v 0.08945067 0.31088769 0.03055024
v 0.06754117 0.31124693 0.04189467
v 0.10418047 0.30841303 0.03419667
v 0.11791308 0.30442157 0.04057791
v 0.12483637 0.30122843 0.04640206
v 0.11979347 0.29939237 0.05455587
v 0.01298110 0.30050999 0.08154954
v -0.01647849 0.30769455 0.06615353
v -0.03137922 0.30813360 0.06498870
v -0.07146592 0.30729541 0.06493805
v -0.07146592 0.30486065 0.07086349
v 0.02149988 0.30717567 0.06645739
v 0.06563228 0.30717567 0.05718940
v 0.03953462 0.30981001 0.05637908
v 0.03702742 0.30729541 0.06468482
v 0.06754117 0.30981001 0.04817463
v -0.03613721 0.32094610 0.00066982
v -0.02226214 0.32050705 -0.00454659
v -0.03707740 0.31994826 -0.01102912
v -0.03941366 0.31994826 0.01783840
v -0.04237671 0.32090619 0.00527850
v -0.07146592 0.31388128 0.04351531
v -0.04502637 0.31918988 0.02107967
v -0.01599414 0.32022765 -0.00697754
v -0.00129284 0.31891048 -0.01452361
v -0.02254705 0.32074654 0.00406302
v 0.00238249 0.31970876 0.01393875
v 0.02716957 0.31839159 0.01839549
v 0.06164356 0.31695467 0.00710171
v 0.04434958 0.31428042 0.03642504
v 0.06161506 0.31304306 0.03480440
v -0.00531005 0.30992976 0.05936712
v -0.03593777 0.31192547 0.05379620
v -0.04135104 0.30981001 0.05987357
v -0.07146592 0.31076795 0.05556877
v 0.02722655 0.30877224 0.06144356
v 0.01919212 0.31152633 0.05359362
v 0.02121497 0.31276369 0.04873172
v 0.01591567 0.31296325 0.04893430
v -0.02408556 0.31895038 0.02396642
v -0.02739050 0.32014781 0.01647099
v -0.02573803 0.32062680 0.01079878
v -0.07146592 0.31220487 0.05035235
v -0.00596534 0.31994826 0.01409069
v 0.01665643 0.31815210 0.02573899
v -0.04485542 0.31124693 0.05541683
v -0.01291712 0.31312290 0.04933946
v 0.00406345 0.31799245 0.02827123
v 0.00167022 0.31883067 0.02310546
f 1 2 3
f 1 3 4
f 1 4 5
f 1 5 6
f 1 6 19
f 1 19 37
f 1 37 20
f 1 20 7
f 1 7 8
f 1 8 24
f 1 24 48
f 1 48 67
f 1 67 85
f 1 85 104
f 1 104 122
f 1 122 140
f 1 140 163
f 1 163 181
f 1 181 204
f 1 204 224
f 1 224 243
f 1 243 267
f 1 267 295
f 1 295 297
f 1 297 334
f 1 334 370
f 1 370 369
f 1 369 394
f 1 394 402
f 1 402 381
f 1 381 346
f 1 346 303
f 1 303 275
f 1 275 252
f 1 252 230
f 1 230 211
f 1 211 193
f 1 193 172
f 1 172 147
f 1 147 125
f 1 125 105
f 1 105 86
f 1 86 68
f 1 68 49
f 1 49 25
f 1 25 9
f 1 9 2
f 2 9 10
f 2 10 11
f 2 11 3
f 3 11 12
f 3 12 13
f 3 13 14
f 3 14 4
f 4 14 5
f 5 14 15
f 5 15 16
f 5 16 17
f 5 17 18
f 5 18 6
f 6 18 19
f 7 20 21
f 7 21 22
f 7 22 8
f 8 22 23
f 8 23 24
f 9 25 26
f 9 26 27
f 9 27 28
f 9 28 10
f 10 29 11
f 10 28 29
f 11 29 12
f 12 29 30
f 12 30 15
f 12 15 13
f 13 15 14
f 15 30 29
f 15 29 16
f 16 31 32
f 16 32 17
f 16 29 31
f 17 33 34
f 17 34 18
f 17 32 33
f 18 34 35
f 18 35 19
f 19 35 36
f 19 36 37
f 20 37 38
f 20 38 39
f 20 39 40
f 20 40 41
f 20 41 21
f 21 41 42
f 21 42 22
f 22 42 43
f 22 43 44
f 22 44 23
f 23 44 43
f 23 43 45
f 23 45 46
f 23 46 47
f 23 47 24
f 24 47 48
f 25 49 26
f 26 49 50
f 26 50 51
f 26 51 52
f 26 52 53
f 26 53 54
f 26 54 55
f 26 55 27
f 27 55 56
f 27 56 32
f 27 32 28
f 28 32 31
f 28 31 29
f 32 56 55
f 32 55 33
f 33 55 54
f 33 54 34
f 34 54 35
f 35 54 73
f 35 73 92
f 35 92 112
f 35 112 131
f 35 131 154
f 35 154 175
f 35 175 197
f 35 197 216
f 35 216 238
f 35 238 260
f 35 260 289
f 35 289 325
f 35 325 293
f 35 293 263
f 35 263 240
f 35 240 218
f 35 218 217
f 35 217 199
f 35 199 180
f 35 180 159
f 35 159 157
f 35 157 155
f 35 155 132
f 35 132 113
f 35 113 94
f 35 94 75
f 35 75 59
f 35 59 57
f 35 57 37
f 35 37 36
f 37 57 38
f 38 58 39
f 38 57 59
f 38 59 58
f 39 58 60
f 39 60 61
f 39 61 62
f 39 62 40
f 40 62 41
f 41 62 42
f 42 62 61
f 42 61 43
f 43 61 60
f 43 60 63
f 43 63 64
f 43 64 45
f 45 64 65
f 45 65 46
f 46 66 67
f 46 67 48
f 46 48 47
f 46 65 66
f 49 68 69
f 49 69 50
f 50 52 51
f 50 69 52
f 52 69 70
f 52 70 53
f 53 70 71
f 53 71 72
f 53 72 54
f 54 72 73
f 58 74 60
f 58 59 75
f 58 75 76
f 58 76 77
f 58 77 74
f 60 74 78
f 60 78 63
f 63 78 79
f 63 79 80
f 63 80 81
f 63 81 82
f 63 82 64
f 64 83 65
f 64 82 84
f 64 84 83
f 65 83 66
f 66 85 67
f 66 83 85
f 68 86 69
f 69 86 87
f 69 87 71
f 69 71 70
f 71 87 88
f 71 88 89
f 71 89 90
f 71 90 72
f 72 90 73
f 73 91 92
f 73 90 91
f 74 77 93
f 74 93 78
f 75 94 95
f 75 95 96
f 75 96 93
f 75 93 77
f 75 77 76
f 78 93 79
f 79 93 97
f 79 97 98
f 79 98 80
f 80 98 99
f 80 99 81
f 81 100 82
f 81 99 101
f 81 101 102
f 81 102 100
f 82 100 84
f 83 84 85
f 84 100 85
f 85 100 103
f 85 103 104
f 86 105 87
f 87 105 106
f 87 106 107
f 87 107 88
f 88 107 89
f 89 107 108
f 89 108 109
f 89 109 91
f 89 91 90
f 91 109 110
f 91 110 111
f 91 111 92
f 92 111 112
f 93 96 94
f 93 94 97
f 94 113 98
f 94 98 114
f 94 114 97
f 94 96 95
f 97 114 98
f 98 113 115
f 98 115 116
f 98 116 99
f 99 116 101
f 100 102 103
f 101 117 102
f 101 116 117
f 102 117 118
f 102 118 119
f 102 119 120
f 102 120 103
f 103 121 122
f 103 122 104
f 103 120 123
f 103 123 124
f 103 124 121
f 105 125 126
f 105 126 106
f 106 126 108
f 106 108 107
f 108 126 127
f 108 127 109
f 109 127 110
f 110 127 128
f 110 128 129
f 110 129 111
f 111 129 130
f 111 130 112
f 112 130 131
f 113 132 133
f 113 133 115
f 115 134 116
f 115 133 135
f 115 135 136
f 115 136 134
f 116 134 137
f 116 137 118
f 116 118 117
f 118 137 138
f 118 138 119
f 119 138 139
f 119 139 123
f 119 123 120
f 121 124 122
f 122 124 140
f 123 139 141
f 123 141 142
f 123 142 143
f 123 143 144
f 123 144 145
f 123 145 146
f 123 146 124
f 124 146 140
f 125 147 148
f 125 148 126
f 126 148 149
f 126 149 127
f 127 149 128
f 128 149 150
f 128 150 129
f 129 150 151
f 129 151 130
f 130 151 131
f 131 151 152
f 131 152 153
f 131 153 154
f 132 155 135
f 132 135 133
f 134 136 156
f 134 156 137
f 135 155 157
f 135 157 136
f 136 158 156
f 136 157 159
f 136 159 158
f 137 156 160
f 137 160 139
f 137 139 138
f 139 160 161
f 139 161 162
f 139 162 141
f 140 146 145
f 140 145 163
f 141 162 164
f 141 164 142
f 142 164 165
f 142 165 166
f 142 166 143
f 143 166 167
f 143 167 144
f 144 167 168
f 144 168 169
f 144 169 170
f 144 170 145
f 145 170 171
f 145 171 163
f 147 172 150
f 147 150 148
f 148 150 149
f 150 172 173
f 150 173 152
f 150 152 151
f 152 173 153
f 153 173 174
f 153 174 154
f 154 174 173
f 154 173 175
f 156 158 176
f 156 176 177
f 156 177 164
f 156 164 178
f 156 178 161
f 156 161 160
f 158 159 179
f 158 179 176
f 159 180 179
f 161 178 162
f 162 178 164
f 163 171 181
f 164 177 176
f 164 176 182
f 164 182 165
f 165 182 166
f 166 183 167
f 166 182 184
f 166 184 185
f 166 185 186
f 166 186 183
f 167 183 187
f 167 187 188
f 167 188 168
f 168 188 189
f 168 189 190
f 168 190 169
f 169 190 191
f 169 191 171
f 169 171 170
f 171 191 192
f 171 192 181
f 172 193 173
f 173 193 194
f 173 194 175
f 175 194 195
f 175 195 196
f 175 196 197
f 176 179 198
f 176 198 184
f 176 184 182
f 179 180 198
f 180 199 200
f 180 200 201
f 180 201 202
f 180 202 198
f 181 192 191
f 181 191 190
f 181 190 203
f 181 203 204
f 183 186 187
f 184 198 202
f 184 202 185
f 185 202 205
f 185 205 186
f 186 206 187
f 186 205 207
f 186 207 206
f 187 206 188
f 188 206 208
f 188 208 209
f 188 209 210
f 188 210 189
f 189 210 190
f 190 210 203
f 193 211 194
f 194 211 212
f 194 212 195
f 195 212 213
f 195 213 196
f 196 213 197
f 197 213 214
f 197 214 215
f 197 215 216
f 199 217 200
f 200 202 201
f 200 217 218
f 200 218 219
f 200 219 202
f 202 219 220
f 202 220 221
f 202 221 205
f 203 210 222
f 203 222 204
f 204 222 223
f 204 223 224
f 205 225 207
f 205 221 225
f 206 207 226
f 206 226 208
f 207 225 227
f 207 227 226
f 208 226 228
f 208 228 209
f 209 229 222
f 209 222 210
f 209 228 229
f 211 230 231
f 211 231 212
f 212 231 232
f 212 232 213
f 213 232 214
f 214 233 234
f 214 234 235
f 214 235 215
f 214 232 231
f 214 231 233
f 215 235 236
f 215 236 237
f 215 237 238
f 215 238 216
f 218 239 219
f 218 240 239
f 219 239 241
f 219 241 242
f 219 242 220
f 220 242 221
f 221 242 225
f 222 229 223
f 223 243 224
f 223 229 244
f 223 244 245
f 223 245 243
f 225 246 227
f 225 242 247
f 225 247 248
f 225 248 246
f 226 227 228
f 227 246 249
f 227 249 250
f 227 250 228
f 228 250 251
f 228 251 229
f 229 251 244
f 230 252 233
f 230 233 231
f 233 253 254
f 233 254 255
f 233 255 235
f 233 235 234
f 233 252 253
f 235 255 236
f 236 255 256
f 236 256 237
f 237 256 257
f 237 257 258
f 237 258 238
f 238 258 259
f 238 259 260
f 239 240 261
f 239 261 262
f 239 262 241
f 240 263 261
f 241 262 264
f 241 264 265
f 241 265 242
f 242 265 264
f 242 264 247
f 243 245 244
f 243 244 266
f 243 266 267
f 244 251 250
f 244 250 268
f 244 268 269
f 244 269 266
f 246 248 270
f 246 270 271
f 246 271 249
f 247 264 272
f 247 272 273
f 247 273 248
f 248 273 270
f 249 271 274
f 249 274 250
f 250 274 268
f 252 275 253
f 253 275 276
f 253 276 254
f 254 276 277
f 254 277 255
f 255 277 278
f 255 278 256
f 256 278 279
f 256 279 257
f 257 279 280
f 257 280 258
f 258 280 281
f 258 281 259
f 259 281 282
f 259 282 260
f 260 282 283
f 260 283 284
f 260 284 285
f 260 285 286
f 260 286 287
f 260 287 288
f 260 288 289
f 261 263 262
f 262 263 290
f 262 290 291
f 262 291 272
f 262 272 264
f 263 292 290
f 263 293 292
f 266 269 294
f 266 294 267
f 267 294 269
f 267 269 295
f 268 274 296
f 268 296 269
f 269 296 297
f 269 297 295
f 270 273 272
f 270 272 298
f 270 298 299
f 270 299 271
f 271 299 274
f 272 291 300
f 272 300 301
f 272 301 302
f 272 302 298
f 274 299 298
f 274 298 296
f 275 303 304
f 275 304 305
f 275 305 306
f 275 306 307
f 275 307 276
f 276 307 277
f 277 307 278
f 278 306 308
f 278 308 309
f 278 309 310
f 278 310 279
f 278 307 306
f 279 310 280
f 280 310 281
f 281 311 282
f 281 310 312
f 281 312 311
f 282 311 313
f 282 313 283
f 283 313 284
f 284 314 315
f 284 315 316
f 284 316 285
f 284 313 317
f 284 317 318
f 284 318 314
f 285 316 286
f 286 316 319
f 286 319 287
f 287 319 288
f 288 319 320
f 288 320 289
f 289 321 322
f 289 322 323
f 289 323 324
f 289 324 325
f 289 320 319
f 289 319 326
f 289 326 321
f 290 292 291
f 291 327 328
f 291 328 329
f 291 329 300
f 291 292 327
f 292 293 327
f 293 330 327
f 293 325 330
f 296 298 331
f 296 331 332
f 296 332 333
f 296 333 334
f 296 334 297
f 298 335 331
f 298 302 336
f 298 336 335
f 300 337 338
f 300 338 301
f 300 329 339
f 300 339 337
f 301 340 302
f 301 338 341
f 301 341 340
f 302 340 336
f 303 342 343
f 303 343 344
f 303 344 345
f 303 345 304
f 303 346 342
f 304 347 348
f 304 348 349
f 304 349 305
f 304 345 347
f 305 349 306
f 306 349 350
f 306 350 308
f 308 350 312
f 308 312 309
f 309 312 310
f 311 312 351
f 311 351 313
f 312 350 351
f 313 351 317
f 314 352 315
f 314 318 352
f 315 326 319
f 315 319 316
f 315 352 321
f 315 321 326
f 317 351 353
f 317 353 354
f 317 354 318
f 318 355 356
f 318 356 323
f 318 323 357
f 318 357 322
f 318 322 358
f 318 358 352
f 318 354 355
f 321 352 358
f 321 358 322
f 322 357 323
f 323 356 359
f 323 359 360
f 323 360 361
f 323 361 362
f 323 362 363
f 323 363 324
f 324 363 339
f 324 339 329
f 324 329 364
f 324 364 325
f 325 364 330
f 327 330 328
f 328 330 329
f 329 365 364
f 329 330 365
f 330 364 365
f 331 335 336
f 331 336 366
f 331 366 332
f 332 367 368
f 332 368 369
f 332 369 370
f 332 370 334
f 332 334 333
f 332 366 367
f 336 340 371
f 336 371 366
f 337 339 372
f 337 372 338
f 338 372 373
f 338 373 374
f 338 374 341
f 339 363 362
f 339 362 375
f 339 375 372
f 340 341 371
f 341 374 371
f 342 376 377
f 342 377 378
f 342 378 344
f 342 344 343
f 342 346 379
f 342 379 380
f 342 380 376
f 344 378 345
f 345 378 347
f 346 381 382
f 346 382 379
f 347 378 348
f 348 350 349
f 348 378 383
f 348 383 384
f 348 384 351
f 348 351 350
f 351 384 353
f 353 384 383
f 353 383 377
f 353 377 385
f 353 385 386
f 353 386 387
f 353 387 388
f 353 388 354
f 354 388 355
f 355 388 387
f 355 387 389
f 355 389 390
f 355 390 359
f 355 359 356
f 359 390 360
f 360 390 361
f 361 375 362
f 361 390 389
f 361 389 375
f 366 371 367
f 367 371 391
f 367 391 392
f 367 392 368
f 368 392 393
f 368 393 394
f 368 394 369
f 371 374 395
f 371 395 396
f 371 396 391
f 372 375 373
f 373 375 389
f 373 389 397
f 373 397 398
f 373 398 396
f 373 396 395
f 373 395 374
f 376 380 385
f 376 385 377
f 377 383 378
f 379 382 399
f 379 399 400
f 379 400 401
f 379 401 380
f 380 401 385
f 381 402 392
f 381 392 399
f 381 399 382
f 385 401 403
f 385 403 386
f 386 403 404
f 386 404 387
f 387 404 389
f 389 404 397
f 391 396 392
f 392 402 394
f 392 394 405
f 392 405 393
f 392 396 406
f 392 406 399
f 393 405 394
f 396 398 406
f 397 404 398
f 398 404 407
f 398 407 406
f 399 408 400
f 399 406 407
f 399 407 408
f 400 408 403
f 400 403 401
f 403 408 404
f 404 408 407

