# https://github.com/mikedh/trimesh
v 0.45854071 -0.07873665 -0.11780430
v 0.45827746 -0.07873665 -0.11303015
v 0.45756665 -0.09509589 -0.11563690
v 0.45788255 -0.09400392 -0.12161191
v 0.45848805 -0.07873665 -0.11833151
v 0.45727706 -0.07873665 -0.10529779
v 0.45711911 -0.09479313 -0.10890037
v 0.45730340 -0.09515031 -0.11206360
v 0.44969526 -0.10455969 -0.10067008
v 0.44751024 -0.10736277 -0.10128516
v 0.44250834 -0.11348940 -0.09788760
v 0.44248199 -0.11348940 -0.10034790
v 0.45672423 -0.09584088 -0.11932734
v 0.44787878 -0.10247779 -0.13367909
v 0.45588180 -0.09474550 -0.12656179
v 0.45532897 -0.07873665 -0.13025224
v 0.45630300 -0.07873665 -0.12749904
v 0.45706648 -0.07873665 -0.12500946
v 0.45809317 -0.07873665 -0.12149475
v 0.44145530 -0.10994133 -0.13485065
v 0.45667160 -0.09495641 -0.10591286
v 0.45396003 -0.07873665 -0.08596687
v 0.45503938 -0.09766085 -0.10693798
v 0.45159072 -0.10170898 -0.10031861
v 0.43047750 -0.11192118 -0.00958046
v 0.44382462 -0.11047882 -0.08915940
v 0.44600967 -0.10909428 -0.09818050
v 0.44245568 -0.11348940 -0.09686248
v 0.44229773 -0.11348940 -0.10204668
v 0.44011271 -0.11348940 -0.12044033
v 0.44006005 -0.11176129 -0.13271254
v 0.44219244 -0.10821662 -0.13739882
v 0.44687840 -0.10247099 -0.13628583
v 0.44961628 -0.09962709 -0.13458705
v 0.43713790 -0.09533061 -0.16548723
v 0.44735226 -0.07873665 -0.14873376
v 0.44895816 -0.07873665 -0.14533621
v 0.45438123 -0.07873665 -0.13262467
v 0.43779603 -0.11348940 -0.13561217
v 0.43898070 -0.11217631 -0.13584650
v 0.43845418 -0.11348940 -0.13256609
v 0.43834889 -0.11348940 -0.13323975
v 0.45335454 -0.07873665 -0.08286221
v 0.45030075 -0.07873665 -0.06912554
v 0.43158317 -0.10747843 -0.00342972
v 0.43089870 -0.11044480 -0.00600717
v 0.42889795 -0.11314242 -0.00723732
v 0.42860836 -0.11348940 -0.00741306
v 0.42974037 -0.11348940 -0.01379812
v 0.44092879 -0.11348940 -0.08470743
v 0.44142899 -0.11348940 -0.08810499
v 0.44158694 -0.11348940 -0.08930585
v 0.43979681 -0.11039717 -0.13827750
v 0.43339965 -0.11348940 -0.14627346
v 0.43287313 -0.11348940 -0.14738646
v 0.44048125 -0.10830507 -0.14076708
v 0.44240302 -0.10642047 -0.13994698
v 0.44419318 -0.10536592 -0.13763313
v 0.43550569 -0.09797040 -0.16478428
v 0.43384719 -0.09801123 -0.16756676
v 0.43534774 -0.09534082 -0.16850403
v 0.43690097 -0.07873665 -0.16791824
v 0.43734848 -0.07873665 -0.16715671
v 0.43840152 -0.07873665 -0.16531149
v 0.44419318 -0.07873665 -0.15476736
v 0.43495286 -0.11102991 -0.14738646
v 0.43666404 -0.11348940 -0.13868755
v 0.44943202 -0.07873665 -0.06555225
v 0.41634056 -0.10996515 0.04674280
v 0.41578773 -0.11295532 0.04791436
v 0.43387350 -0.07873665 -0.00893610
v 0.41539285 -0.11348940 0.04756290
v 0.43103033 -0.11348940 -0.15090117
v 0.42766064 -0.11348940 -0.15713978
v 0.43171477 -0.10058639 -0.16765463
v 0.43147784 -0.09890930 -0.17014422
v 0.43089870 -0.09706553 -0.17286812
v 0.43316269 -0.09611643 -0.17070071
v 0.42508072 -0.09699409 -0.17966323
v 0.42139512 -0.07873665 -0.18672195
v 0.42579150 -0.07873665 -0.18180135
v 0.43058279 -0.07873665 -0.17638284
v 0.43266252 -0.07873665 -0.17389324
v 0.43450531 -0.07873665 -0.17134508
v 0.43608487 -0.07873665 -0.16914839
v 0.43321535 -0.07873665 -0.00685656
v 0.43258354 -0.07873665 -0.00489418
v 0.43142521 -0.07873665 -0.00149663
v 0.41842031 -0.10313094 0.03968408
v 0.41678810 -0.10732535 0.04495615
v 0.41173357 -0.11099589 0.05883926
v 0.41049626 -0.11167285 0.06124099
v 0.41191784 -0.11314242 0.05623251
v 0.41478735 -0.11348940 0.04926167
v 0.42576519 -0.11348940 -0.16024445
v 0.42415932 -0.11314923 -0.16314408
v 0.42963505 -0.10198453 -0.16900194
v 0.42902958 -0.10019518 -0.17201874
v 0.42871365 -0.09793639 -0.17465477
v 0.42021045 -0.10185186 -0.18060049
v 0.40262488 -0.10586598 -0.19656314
v 0.40273017 -0.10303909 -0.19893557
v 0.40157184 -0.10065783 -0.20148373
v 0.39341086 -0.09410937 -0.21205716
v 0.41439247 -0.07873665 -0.19442502
v 0.43031952 -0.07873665 0.00116870
v 0.40989077 -0.10910449 0.06115311
v 0.40860081 -0.11100269 0.06299834
v 0.40636313 -0.11292131 0.06381844
v 0.40533641 -0.11348940 0.06428707
v 0.40862712 -0.11348940 0.06141672
v 0.41194418 -0.11348940 0.05550028
v 0.42400134 -0.11348940 -0.16290978
v 0.41715667 -0.11348940 -0.17237020
v 0.41768318 -0.11200282 -0.17333674
v 0.40149286 -0.11145853 -0.19243336
v 0.40057147 -0.10902285 -0.19580162
v 0.40020290 -0.10628439 -0.19858409
v 0.39841276 -0.10180423 -0.20329967
v 0.39759666 -0.09949782 -0.20549637
v 0.39119950 -0.07873665 -0.21375594
v 0.39256844 -0.07873665 -0.21284796
v 0.39335820 -0.07873665 -0.21229146
v 0.39370045 -0.07873665 -0.21202786
v 0.39601710 -0.07873665 -0.21024123
v 0.40380952 -0.07873665 -0.20414905
v 0.40559965 -0.07873665 -0.20268458
v 0.40636313 -0.07873665 -0.20204023
v 0.41236538 -0.07873665 -0.19638741
v 0.39420062 -0.09694307 -0.20968473
v 0.39454287 -0.09943999 -0.20783950
v 0.39125216 -0.09674236 -0.21173498
v 0.38914609 -0.09553472 -0.21372664
v 0.37785235 -0.07873665 -0.22037531
v 0.38145900 -0.07873665 -0.21876439
v 0.38498664 -0.07873665 -0.21703634
v 0.38846162 -0.07873665 -0.21527898
v 0.42468584 -0.07873665 0.01159567
v 0.42347485 -0.07873665 0.01332374
v 0.38290691 -0.07873665 0.05131193
v 0.36332056 -0.07873665 0.06847543
v 0.39762297 -0.11348940 0.06818253
v 0.40036085 -0.11348940 -0.19158396
v 0.39907089 -0.11247567 -0.19407356
v 0.39791256 -0.11090744 -0.19641669
v 0.39496407 -0.10189268 -0.20570138
v 0.37943190 -0.10766553 -0.21085630
v 0.37661505 -0.10694095 -0.21302371
v 0.36719045 -0.10113068 -0.22055104
v 0.36692718 -0.09797721 -0.22216195
v 0.36632168 -0.09511970 -0.22350927
v 0.36379442 -0.09391546 -0.22462225
v 0.37495652 -0.07873665 -0.22142972
v 0.18959710 -0.07873665 0.06847543
v 0.34499785 -0.11348940 0.06847543
v 0.39943945 -0.11348940 -0.19257981
v 0.39593813 -0.11348940 -0.19527441
v 0.39833379 -0.11348940 -0.19354634
v 0.38685575 -0.11189736 -0.20291892
v 0.37656239 -0.10971341 -0.21088558
v 0.37937924 -0.11024749 -0.20883533
v 0.36613742 -0.11348940 -0.21381451
v 0.36505806 -0.11348940 -0.21440029
v 0.36547926 -0.11107753 -0.21568903
v 0.36582151 -0.10462432 -0.21920374
v 0.36363646 -0.10280436 -0.22087322
v 0.36455786 -0.09989242 -0.22204480
v 0.36339954 -0.09717099 -0.22356784
v 0.36095124 -0.09501424 -0.22500302
v 0.34225997 -0.09516052 -0.22872275
v 0.34886774 -0.07873665 -0.22793195
v 0.35958230 -0.07873665 -0.22567667
v 0.36137247 -0.07873665 -0.22529590
v 0.36366278 -0.07873665 -0.22471012
v 0.36790124 -0.07873665 -0.22356784
v 0.37174478 -0.07873665 -0.22251342
v 0.18959710 -0.11348940 0.06847543
v 0.18959710 -0.07873665 -0.22248414
v 0.38609231 -0.11348940 -0.20189378
v 0.37843153 -0.11348940 -0.20655078
v 0.36376810 -0.11348940 -0.21489821
v 0.36250445 -0.11261174 -0.21592334
v 0.36329424 -0.10651232 -0.21902800
v 0.36110920 -0.10499172 -0.22049247
v 0.35968760 -0.10296765 -0.22189835
v 0.36150408 -0.10038228 -0.22265987
v 0.35995087 -0.09798402 -0.22406575
v 0.34494519 -0.09985501 -0.22661392
v 0.34523478 -0.09687843 -0.22760975
v 0.33875865 -0.09620488 -0.22883990
v 0.33022913 -0.07873665 -0.23059726
v 0.33641568 -0.07873665 -0.22986503
v 0.34073308 -0.07873665 -0.22933783
v 0.34270751 -0.07873665 -0.22904493
v 0.34189141 -0.09813710 -0.22784407
v 0.18959710 -0.11348940 -0.22072677
v 0.32630658 -0.07873665 -0.23071443
v 0.23421921 -0.10082792 -0.22444652
v 0.18959710 -0.11320706 -0.22090252
v 0.36229384 -0.11348940 -0.21545471
v 0.36045104 -0.11348940 -0.21604049
v 0.34663004 -0.11348940 -0.22014099
v 0.34444502 -0.11131226 -0.22181049
v 0.34241793 -0.10942086 -0.22318707
v 0.34399748 -0.10592721 -0.22430007
v 0.34123328 -0.10422631 -0.22555950
v 0.34170714 -0.10116129 -0.22670180
v 0.34086472 -0.10718588 -0.22441722
v 0.30816817 -0.10833228 -0.22743402
v 0.30493009 -0.10168177 -0.22860560
v 0.32707003 -0.07873665 -0.23074371
v 0.31137991 -0.11348940 -0.22611600
v 0.31077442 -0.11348940 -0.22617458
v 0.30793124 -0.11348940 -0.22635032
v 0.31385452 -0.11348940 -0.22579382
v 0.18959710 -0.11347580 -0.22087322
v 0.21244782 -0.11348940 -0.22189835
v 0.34299710 -0.11348940 -0.22110754
v 0.33828479 -0.10929158 -0.22391932
v 0.34215468 -0.11348940 -0.22128327
v 0.34028554 -0.11184974 -0.22245485
v 0.30532500 -0.11083260 -0.22687753
v 0.30674657 -0.11348940 -0.22637960
v 0.30535132 -0.11348940 -0.22635032
v 0.33925885 -0.11348940 -0.22183977
f 1 2 3
f 1 3 4
f 1 4 5
f 1 5 19
f 1 19 18
f 1 18 17
f 1 17 16
f 1 16 38
f 1 38 37
f 1 37 36
f 1 36 65
f 1 65 64
f 1 64 63
f 1 63 62
f 1 62 85
f 1 85 84
f 1 84 83
f 1 83 82
f 1 82 81
f 1 81 80
f 1 80 105
f 1 105 129
f 1 129 128
f 1 128 127
f 1 127 126
f 1 126 125
f 1 125 124
f 1 124 123
f 1 123 122
f 1 122 121
f 1 121 137
f 1 137 136
f 1 136 135
f 1 135 134
f 1 134 153
f 1 153 176
f 1 176 175
f 1 175 174
f 1 174 173
f 1 173 172
f 1 172 171
f 1 171 194
f 1 194 193
f 1 193 192
f 1 192 191
f 1 191 211
f 1 211 197
f 1 197 178
f 1 178 154
f 1 154 141
f 1 141 140
f 1 140 139
f 1 139 138
f 1 138 106
f 1 106 88
f 1 88 87
f 1 87 86
f 1 86 71
f 1 71 68
f 1 68 44
f 1 44 43
f 1 43 22
f 1 22 6
f 1 6 2
f 2 6 7
f 2 7 3
f 3 7 8
f 3 8 9
f 3 9 10
f 3 10 11
f 3 11 12
f 3 12 13
f 3 13 4
f 4 14 15
f 4 15 16
f 4 16 17
f 4 17 18
f 4 18 19
f 4 19 5
f 4 13 20
f 4 20 14
f 6 21 7
f 6 22 21
f 7 21 8
f 8 21 23
f 8 23 24
f 8 24 9
f 9 24 25
f 9 25 26
f 9 26 27
f 9 27 10
f 10 27 11
f 11 27 28
f 11 28 52
f 11 52 51
f 11 51 50
f 11 50 49
f 11 49 48
f 11 48 72
f 11 72 94
f 11 94 112
f 11 112 111
f 11 111 110
f 11 110 142
f 11 142 155
f 11 155 177
f 11 177 196
f 11 196 217
f 11 217 224
f 11 224 223
f 11 223 214
f 11 214 213
f 11 213 212
f 11 212 215
f 11 215 225
f 11 225 220
f 11 220 218
f 11 218 202
f 11 202 201
f 11 201 200
f 11 200 181
f 11 181 163
f 11 163 162
f 11 162 180
f 11 180 179
f 11 179 157
f 11 157 158
f 11 158 156
f 11 156 143
f 11 143 114
f 11 114 113
f 11 113 95
f 11 95 74
f 11 74 73
f 11 73 55
f 11 55 54
f 11 54 67
f 11 67 39
f 11 39 42
f 11 42 41
f 11 41 30
f 11 30 29
f 11 29 12
f 12 29 13
f 13 30 31
f 13 31 20
f 13 29 30
f 14 20 32
f 14 32 33
f 14 33 34
f 14 34 15
f 15 34 35
f 15 35 36
f 15 36 37
f 15 37 38
f 15 38 16
f 20 39 40
f 20 40 32
f 20 31 41
f 20 41 42
f 20 42 39
f 21 24 23
f 21 22 43
f 21 43 44
f 21 44 45
f 21 45 46
f 21 46 24
f 24 46 25
f 25 47 48
f 25 48 49
f 25 49 50
f 25 50 26
f 25 46 47
f 26 50 51
f 26 51 52
f 26 52 27
f 27 52 28
f 30 41 31
f 32 40 53
f 32 53 54
f 32 54 55
f 32 55 56
f 32 56 57
f 32 57 58
f 32 58 33
f 33 58 57
f 33 57 35
f 33 35 34
f 35 59 60
f 35 60 61
f 35 61 62
f 35 62 63
f 35 63 64
f 35 64 65
f 35 65 36
f 35 57 66
f 35 66 59
f 39 67 40
f 40 67 53
f 44 68 45
f 45 69 70
f 45 70 46
f 45 68 71
f 45 71 69
f 46 70 47
f 47 70 72
f 47 72 48
f 53 67 54
f 55 66 56
f 55 73 66
f 56 66 57
f 59 74 60
f 59 66 74
f 60 74 75
f 60 75 76
f 60 76 61
f 61 76 77
f 61 77 78
f 61 78 79
f 61 79 80
f 61 80 81
f 61 81 82
f 61 82 83
f 61 83 84
f 61 84 85
f 61 85 62
f 66 73 74
f 69 71 86
f 69 86 87
f 69 87 88
f 69 88 89
f 69 89 90
f 69 90 91
f 69 91 70
f 70 91 92
f 70 92 93
f 70 93 94
f 70 94 72
f 74 95 75
f 75 95 96
f 75 96 76
f 76 96 97
f 76 97 98
f 76 98 77
f 77 98 99
f 77 99 79
f 77 79 78
f 79 99 100
f 79 100 101
f 79 101 102
f 79 102 103
f 79 103 104
f 79 104 105
f 79 105 80
f 88 106 89
f 89 106 91
f 89 91 90
f 91 107 92
f 91 106 107
f 92 107 108
f 92 108 109
f 92 109 110
f 92 110 111
f 92 111 93
f 93 111 112
f 93 112 94
f 95 113 96
f 96 113 114
f 96 114 98
f 96 98 97
f 98 114 115
f 98 115 100
f 98 100 99
f 100 116 101
f 100 115 116
f 101 116 117
f 101 117 118
f 101 118 102
f 102 118 119
f 102 119 103
f 103 119 120
f 103 120 104
f 104 121 122
f 104 122 123
f 104 123 124
f 104 124 125
f 104 125 126
f 104 126 127
f 104 127 128
f 104 128 129
f 104 129 105
f 104 120 130
f 104 130 131
f 104 131 132
f 104 132 133
f 104 133 134
f 104 134 135
f 104 135 136
f 104 136 137
f 104 137 121
f 106 138 107
f 107 138 139
f 107 139 140
f 107 140 141
f 107 141 108
f 108 141 142
f 108 142 110
f 108 110 109
f 114 143 116
f 114 116 115
f 116 143 144
f 116 144 117
f 117 144 118
f 118 144 145
f 118 145 146
f 118 146 119
f 119 146 131
f 119 131 120
f 120 131 130
f 131 146 147
f 131 147 132
f 132 147 148
f 132 148 133
f 133 148 149
f 133 149 150
f 133 150 151
f 133 151 134
f 134 151 152
f 134 152 153
f 141 154 177
f 141 177 155
f 141 155 142
f 143 156 144
f 144 157 145
f 144 156 158
f 144 158 157
f 145 157 159
f 145 159 146
f 146 159 147
f 147 160 148
f 147 159 161
f 147 161 160
f 148 162 163
f 148 163 164
f 148 164 165
f 148 165 149
f 148 160 162
f 149 165 166
f 149 166 167
f 149 167 150
f 150 167 168
f 150 168 151
f 151 168 169
f 151 169 152
f 152 169 170
f 152 170 171
f 152 171 172
f 152 172 173
f 152 173 174
f 152 174 175
f 152 175 176
f 152 176 153
f 154 178 199
f 154 199 216
f 154 216 196
f 154 196 177
f 157 179 159
f 159 179 180
f 159 180 161
f 160 161 162
f 161 180 162
f 163 181 182
f 163 182 164
f 164 182 165
f 165 182 183
f 165 183 166
f 166 183 184
f 166 184 185
f 166 185 186
f 166 186 167
f 167 186 168
f 168 187 169
f 168 186 187
f 169 188 189
f 169 189 170
f 169 187 188
f 170 190 191
f 170 191 192
f 170 192 193
f 170 193 194
f 170 194 171
f 170 189 195
f 170 195 190
f 178 197 198
f 178 198 199
f 181 200 182
f 182 200 201
f 182 201 202
f 182 202 183
f 183 202 184
f 184 202 185
f 185 203 186
f 185 202 203
f 186 204 187
f 186 203 204
f 187 204 205
f 187 205 188
f 188 206 207
f 188 207 195
f 188 195 189
f 188 205 204
f 188 204 208
f 188 208 206
f 190 209 210
f 190 210 211
f 190 211 191
f 190 195 212
f 190 212 213
f 190 213 214
f 190 214 209
f 195 207 215
f 195 215 212
f 196 216 217
f 197 211 210
f 197 210 198
f 198 210 199
f 199 210 216
f 202 218 203
f 203 218 204
f 204 219 208
f 204 218 220
f 204 220 221
f 204 221 219
f 206 215 207
f 206 208 215
f 208 219 215
f 209 222 210
f 209 214 223
f 209 223 224
f 209 224 222
f 210 222 216
f 215 219 221
f 215 221 225
f 216 222 224
f 216 224 217
f 220 225 221

