# https://github.com/mikedh/trimesh
v 0.22008722 0.26472113 0.08347541
v 0.24560541 0.25522009 0.08347541
v 0.26543045 0.26862404 0.01769851
v 0.24889995 0.27765200 0.00775774
v 0.21656148 0.28080586 0.03509485
v 0.20459712 0.28581265 0.03002764
v 0.20459712 0.28080586 0.04451922
v 0.20595539 0.27181733 0.06469123
v 0.20459712 -0.10873663 0.08347541
v 0.34152263 0.22912180 0.02053872
v 0.29834688 0.25640279 0.00956515
v 0.28499535 0.26140955 0.01353501
v 0.41076571 0.09859097 0.08347541
v 0.38360023 0.16545303 0.06775738
v 0.35392052 0.19048688 0.06830606
v 0.26349416 0.27335483 0.00449795
v 0.28664261 0.26345956 0.00475615
v 0.24011452 0.28108183 0.00504662
v 0.22390194 0.28526071 0.00995246
v 0.20557970 0.28872997 0.01898952
v 0.20563750 0.29121363 0.00846779
v 0.20459712 0.29302710 -0.00302218
v 0.20459712 0.00271329 -0.24460220
v 0.20812285 -0.10873663 -0.22288099
v 0.36328393 -0.10873663 0.08347541
v 0.34828511 0.22616506 0.01647205
v 0.34406579 0.23109296 0.01188897
v 0.29415646 0.26137012 0.00017306
v 0.30929977 0.25336719 0.00065719
v 0.41963783 0.07446386 0.08347541
v 0.43625501 0.09953713 0.04151762
v 0.43723759 0.10852566 0.03419115
v 0.43252698 0.11838151 0.03473982
v 0.41605431 0.14065573 0.04361551
v 0.41605431 0.14621443 0.03735412
v 0.41671899 0.16198377 0.01192124
v 0.28314579 0.26696825 -0.00273170
v 0.27063233 0.27162021 -0.00082747
v 0.26895615 0.27363080 -0.01009046
v 0.22630060 0.28703475 -0.00292536
v 0.21861334 0.29054344 -0.01234972
v 0.20529070 0.29401270 -0.01770741
v 0.20465492 0.29346076 -0.02709950
v 0.20459712 0.29164729 -0.03526513
v 0.20459712 0.02447500 -0.24550591
v 0.27386907 0.01185952 -0.24624825
v 0.26121110 0.00539409 -0.24566729
v 0.30568734 -0.00584158 -0.24553819
v 0.26554602 -0.01569743 -0.24353713
v 0.30958876 -0.06994400 -0.23537150
v 0.25693399 -0.10873663 -0.22617306
v 0.42405945 -0.10873663 0.01250220
v 0.39920592 -0.07029881 0.08347541
v 0.39258796 0.20578316 -0.03245718
v 0.34397909 0.23412856 -0.00211848
v 0.30314419 0.25833452 -0.00654018
v 0.43850917 0.09121880 0.04132397
v 0.42348146 0.05699930 0.08347541
v 0.46379617 0.05329350 0.00769319
v 0.46613702 0.07544944 -0.01260792
v 0.46769759 0.08991782 -0.02790638
v 0.45980805 0.10655449 -0.02303282
v 0.43830687 0.12725177 0.00840325
v 0.42157409 0.14585961 0.02515408
v 0.42316356 0.16423091 -0.00766981
v 0.28881007 0.26637691 -0.01535132
v 0.25898585 0.27761257 -0.01431851
v 0.28615132 0.26893944 -0.03158575
v 0.24196409 0.28352606 -0.01764286
v 0.23395894 0.28616744 -0.02532436
v 0.23161809 0.28506359 -0.04230113
v 0.21846884 0.28766555 -0.04301118
v 0.20459712 0.28940016 -0.04385034
v 0.20523290 0.05053386 -0.24444082
v 0.22682078 0.03657798 -0.24560274
v 0.20459712 0.07434559 -0.24079373
v 0.26884055 0.03212314 -0.24540909
v 0.33588725 0.01670860 -0.24385987
v 0.35614577 -0.00398868 -0.24318209
v 0.33022296 -0.01534262 -0.24385987
v 0.32825780 -0.03469951 -0.24185881
v 0.30412677 -0.01798399 -0.24392442
v 0.31135163 -0.03824761 -0.24098738
v 0.32649493 -0.06813053 -0.23614609
v 0.32837340 -0.08878838 -0.23207942
v 0.36209905 -0.10873663 -0.22504342
v 0.45726490 -0.10873663 -0.10523780
v 0.46691731 -0.05705256 -0.05127364
v 0.47211921 -0.04991693 -0.05759958
v 0.47006732 -0.04924674 -0.04940167
v 0.46529895 -0.03852356 -0.02216139
v 0.46651271 -0.02945619 -0.01622275
v 0.42842326 -0.05847181 0.04493879
v 0.41299096 -0.04975923 0.08347541
v 0.39319485 0.20736009 -0.04204292
v 0.42070711 0.17582139 -0.03155348
v 0.40440783 0.19462633 -0.03713709
v 0.32973167 0.24567962 -0.02513071
v 0.36747435 0.22616506 -0.05914879
v 0.32062835 0.25155371 -0.03345772
v 0.42472413 0.04540882 0.08347541
v 0.46428746 0.03921935 0.00724134
v 0.46946046 0.03839146 -0.00360314
v 0.46998066 0.04745884 -0.00579785
v 0.46983615 0.05104636 -0.00631426
v 0.47024074 0.06161183 -0.01331798
v 0.48000875 0.07450328 -0.04885300
v 0.48194501 0.06563301 -0.04723923
v 0.47642523 0.09145533 -0.05601809
v 0.46555904 0.10616026 -0.03894450
v 0.46105072 0.11400551 -0.03562015
v 0.45180291 0.13284989 -0.03655614
v 0.44810379 0.14124708 -0.04094557
v 0.44093671 0.14968368 -0.03539423
v 0.42778748 0.16403380 -0.02316192
v 0.25664499 0.27926835 -0.02780955
v 0.31270990 0.25612682 -0.04217203
v 0.30473366 0.25983262 -0.04575457
v 0.29600602 0.26314420 -0.05250010
v 0.26701990 0.27493179 -0.04281753
v 0.25410184 0.27950490 -0.03797625
v 0.22297716 0.28486648 -0.04988580
v 0.26386985 0.27252695 -0.06005250
v 0.20523290 0.28585204 -0.05379111
v 0.20459712 0.27804622 -0.07176840
v 0.22638729 0.05979836 -0.24347258
v 0.20459712 0.15260100 -0.21368255
v 0.20543520 0.12827678 -0.22523707
v 0.20734257 0.10647564 -0.23262809
v 0.22702308 0.08597548 -0.23708208
v 0.31311449 0.03799722 -0.24305299
v 0.33429778 0.03456739 -0.24224612
v 0.35889122 0.02640675 -0.24121331
v 0.37617308 -0.01289837 -0.23924452
v 0.35322693 -0.02728790 -0.24121331
v 0.37715566 0.01670860 -0.23959954
v 0.37735796 0.00527582 -0.23995458
v 0.35655037 -0.04506785 -0.23811489
v 0.34877640 -0.07656714 -0.23282175
v 0.36972851 -0.10873663 -0.22301008
v 0.36758995 -0.06639590 -0.23253128
v 0.37744465 -0.03868126 -0.23604928
v 0.43703529 -0.10873663 -0.16736761
v 0.46859348 -0.06615936 -0.14664692
v 0.47367978 -0.06095547 -0.13967547
v 0.47310179 -0.06738149 -0.12915374
v 0.47656971 -0.06146798 -0.12331193
v 0.47902617 -0.05567274 -0.11475900
v 0.48506615 -0.04077070 -0.10088065
v 0.48838958 -0.03257064 -0.09639440
v 0.48529732 -0.03678893 -0.08687320
v 0.48136702 -0.04282071 -0.08074091
v 0.48107803 -0.03611874 -0.06757262
v 0.47720551 -0.03367449 -0.05140274
v 0.47856379 -0.02358211 -0.04420536
v 0.46925816 -0.02212344 -0.01686825
v 0.47434446 -0.00970507 -0.02067673
v 0.41486943 -0.04175628 0.08347541
v 0.38926452 0.21126300 -0.05937472
v 0.44015643 0.16123474 -0.06615251
v 0.41429144 0.19056574 -0.08422664
v 0.40822256 0.19620328 -0.07999858
v 0.40174907 0.20184082 -0.07477000
v 0.33539596 0.24433923 -0.05120908
v 0.37227166 0.22269580 -0.06641071
v 0.36045179 0.22987086 -0.06641071
v 0.34007767 0.24169788 -0.05818053
v 0.46928704 0.01887688 -0.00253806
v 0.47454676 0.03389719 -0.01535132
v 0.48477715 0.03992897 -0.04262388
v 0.48347670 0.05747238 -0.04623870
v 0.49437177 0.05766949 -0.08199964
v 0.48607761 0.09007552 -0.09403831
v 0.47180131 0.10750066 -0.06189218
v 0.49133733 0.07422732 -0.09290867
v 0.46506774 0.11660746 -0.05143501
v 0.47055864 0.12118057 -0.08141869
v 0.32874909 0.24780849 -0.05572762
v 0.31487736 0.25399795 -0.06266679
v 0.30158362 0.25892588 -0.06515198
v 0.28323248 0.26554900 -0.06360278
v 0.25048941 0.27398562 -0.06476468
v 0.22841024 0.27359137 -0.07499592
v 0.30724791 0.24784791 -0.09639440
v 0.26719329 0.26464227 -0.07912716
v 0.21500091 0.27426159 -0.07780387
v 0.20699577 0.26543075 -0.09807271
v 0.20459712 0.25242102 -0.12050398
v 0.34348780 0.06657918 -0.23656568
v 0.27158600 0.05569832 -0.24227840
v 0.20459712 0.19379845 -0.18766871
v 0.20673567 0.17172135 -0.20319310
v 0.23262957 0.13868456 -0.22046034
v 0.22841024 0.11920940 -0.22778681
v 0.31421268 0.05211079 -0.24089056
v 0.36102977 0.05088867 -0.23853447
v 0.37776256 0.03393662 -0.23808262
v 0.40030411 -0.00564446 -0.23395139
v 0.38611448 -0.03079659 -0.23511329
v 0.36787894 -0.03738029 -0.23792124
v 0.40030411 0.02281922 -0.23401593
v 0.38487181 0.03685395 -0.23640430
v 0.40070871 0.00464504 -0.23440324
v 0.41336665 -0.10873663 -0.19535023
v 0.37452582 -0.07514789 -0.22894873
v 0.40099770 -0.04431880 -0.22775455
v 0.42287457 -0.03422642 -0.22139633
v 0.43391415 -0.03749856 -0.21423122
v 0.43157330 -0.10873663 -0.17508137
v 0.46596360 -0.04171687 -0.17947081
v 0.47076094 -0.04435823 -0.16901365
v 0.47367978 -0.04971982 -0.15681361
v 0.48136702 -0.04487074 -0.13767441
v 0.49107724 -0.02515904 -0.12553892
v 0.49610573 -0.01321375 -0.09881504
v 0.48604873 -0.02673598 -0.07396311
v 0.48625103 -0.02062535 -0.06689484
v 0.48697352 -0.01297721 -0.06140806
v 0.48697352 -0.00048000 -0.05059586
v 0.47726330 -0.01352914 -0.03158575
v 0.48870748 0.01284511 -0.05069268
v 0.47191691 0.00259502 -0.01128464
v 0.46391177 0.13241623 -0.09113353
v 0.44504043 0.15591258 -0.09642667
v 0.41937774 0.18536183 -0.08858379
v 0.41371346 0.19092053 -0.08874517
v 0.40567940 0.19722828 -0.08845469
v 0.39151868 0.20732066 -0.08910020
v 0.38045019 0.21556017 -0.08251605
v 0.36912161 0.22391790 -0.07483455
v 0.34643555 0.23771611 -0.06763718
v 0.36582708 0.22494292 -0.08303245
v 0.47492245 0.00996719 -0.01709418
v 0.48659784 0.01824611 -0.04465722
v 0.49006575 0.02364711 -0.05379111
v 0.49659702 0.04576363 -0.08158007
v 0.49388048 0.06575128 -0.09520021
v 0.49752182 0.04903577 -0.09745948
v 0.48916987 0.08207257 -0.09613619
v 0.48312989 0.09855155 -0.09920233
v 0.32386509 0.24946427 -0.06515198
v 0.31681362 0.25190851 -0.07099380
v 0.30753690 0.25525951 -0.07176840
v 0.25020042 0.27043751 -0.07334989
v 0.22907494 0.26850575 -0.08580812
v 0.33322850 0.23846513 -0.09478063
v 0.32825780 0.23637572 -0.10736797
v 0.31340349 0.24098825 -0.10988544
v 0.30823049 0.24453634 -0.10465685
v 0.31398147 0.25163257 -0.07628693
v 0.29143992 0.24410269 -0.11346799
v 0.28329027 0.24843925 -0.10749707
v 0.26566163 0.24433923 -0.12363468
v 0.24089481 0.24690175 -0.12695903
v 0.21719727 0.24989793 -0.12531298
v 0.21505871 0.24512771 -0.13312359
v 0.20459712 0.24217093 -0.13683525
v 0.34377679 0.11538533 -0.22204183
v 0.36415091 0.08459567 -0.22991697
v 0.36426651 0.07686868 -0.23211169
v 0.21306466 0.19300997 -0.18931475
v 0.20459712 0.23184201 -0.15106863
v 0.20679347 0.21437746 -0.16969141
v 0.30649653 0.16797614 -0.19928780
v 0.32502106 0.15445390 -0.20613015
v 0.30268180 0.14420383 -0.21352117
v 0.32239121 0.13206142 -0.21768467
v 0.36767665 0.06681572 -0.23408048
v 0.37822494 0.06176953 -0.23385456
v 0.42862555 -0.00690601 -0.22430110
v 0.42368376 -0.02279364 -0.22401062
v 0.39611369 -0.02389749 -0.23295085
v 0.41643000 0.00791718 -0.22965878
v 0.40472573 -0.03635528 -0.22820640
v 0.41258636 0.01580185 -0.23072386
v 0.41463822 0.04655210 -0.22807729
v 0.39180768 0.05278099 -0.23256356
v 0.40498582 0.04887808 -0.23017518
v 0.42368376 -0.10873663 -0.18405390
v 0.44073442 -0.04873423 -0.20370951
v 0.44946206 -0.04124378 -0.20032060
v 0.45238090 -0.04735441 -0.19338143
v 0.44504043 -0.02354268 -0.21181059
v 0.44954872 -0.02807637 -0.20693703
v 0.46255350 -0.03682836 -0.18795919
v 0.46723521 -0.02772156 -0.18718459
v 0.47055864 -0.03312256 -0.17837346
v 0.47356418 -0.03501489 -0.17114380
v 0.48107803 -0.01620993 -0.16994962
v 0.48986346 -0.00856180 -0.15245646
v 0.49321580 -0.00513196 -0.14277388
v 0.49535435 -0.01187336 -0.12105267
v 0.49789751 -0.00347618 -0.10901400
v 0.49838877 0.00294983 -0.09952509
v 0.49691492 -0.00024346 -0.09097216
v 0.49049926 0.00216137 -0.06024615
v 0.49044144 -0.01490896 -0.07648058
v 0.49148184 0.01513166 -0.05969747
v 0.47680092 0.10663334 -0.12124632
v 0.47191691 0.11234973 -0.12989607
v 0.45567542 0.14077400 -0.10872353
v 0.44035873 0.16032800 -0.10607696
v 0.43070632 0.17168193 -0.10539918
v 0.42192090 0.18224740 -0.09765313
v 0.42021582 0.18208970 -0.10546373
v 0.40050641 0.19845042 -0.10084838
v 0.38212636 0.21220917 -0.09636212
v 0.35634807 0.22947660 -0.08719596
v 0.33782351 0.24185556 -0.07047740
v 0.49636585 0.02344999 -0.07725519
v 0.49890900 0.02747118 -0.09068168
v 0.49838877 0.03823376 -0.09097216
v 0.49376488 0.06717053 -0.10794892
v 0.49601904 0.05763007 -0.10288171
v 0.49908239 0.04000782 -0.10633516
v 0.48836070 0.08459567 -0.10885263
v 0.48821619 0.08199372 -0.12140769
v 0.33187023 0.24299884 -0.08203192
v 0.35839993 0.22060636 -0.11333889
v 0.33117664 0.23034394 -0.11924525
v 0.34710023 0.22198617 -0.12302145
v 0.31279659 0.23519301 -0.12124632
v 0.31135163 0.23093528 -0.12954104
v 0.30372217 0.22573140 -0.14112785
v 0.23878515 0.24157959 -0.13683525
v 0.21604130 0.23243338 -0.15029401
v 0.39804995 0.11408436 -0.21791060
v 0.28115171 0.19955426 -0.17656603
v 0.26017073 0.19218209 -0.18521580
v 0.23800486 0.22036982 -0.16081573
v 0.32279581 0.17392907 -0.19267137
v 0.30979106 0.18354836 -0.18650681
v 0.34923878 0.16001260 -0.19773859
v 0.34221622 0.14195669 -0.21139100
v 0.34574196 0.13458452 -0.21445715
v 0.40666199 0.08668511 -0.22255823
v 0.39357054 0.06224260 -0.23056248
v 0.44191930 0.02337115 -0.22023441
v 0.43772888 -0.00820699 -0.22000849
v 0.43460774 0.02691925 -0.22304235
v 0.43888485 0.03819434 -0.22117040
v 0.41359785 0.05960124 -0.22633444
v 0.43252698 0.05092809 -0.22204183
v 0.45631123 -0.02310903 -0.20280579
v 0.45472175 -0.00887718 -0.20916401
v 0.46264017 -0.01187336 -0.20128886
v 0.47463346 -0.01794456 -0.18195599
v 0.46810219 -0.01230702 -0.19434969
v 0.47298619 -0.01096662 -0.18818513
v 0.48197389 -0.00789160 -0.17440361
v 0.48801389 -0.00308195 -0.16226812
v 0.49405387 0.00421138 -0.14855115
v 0.49630803 0.00330465 -0.13638338
v 0.49870670 0.00460561 -0.11256428
v 0.49911129 0.01185952 -0.09836318
v 0.49815759 0.01430377 -0.08910020
v 0.49642363 0.01327876 -0.07980493
v 0.48286980 0.08534471 -0.14648554
v 0.47619402 0.09492459 -0.15652314
v 0.46145532 0.12906525 -0.12318283
v 0.47003844 0.10600257 -0.15177867
v 0.44495374 0.15323178 -0.11227380
v 0.42726728 0.17341655 -0.11346799
v 0.40567940 0.19194555 -0.11095051
v 0.42778748 0.16821267 -0.12702358
v 0.38253096 0.20952839 -0.10533463
v 0.36640507 0.21579671 -0.11495265
v 0.49983376 0.02676156 -0.10717432
v 0.49581674 0.05672333 -0.11972938
v 0.49093273 0.07568598 -0.11630820
v 0.49835989 0.03902223 -0.12673309
v 0.48992127 0.06933881 -0.13935271
v 0.48555744 0.07793312 -0.14719559
v 0.36397752 0.21224859 -0.12673309
v 0.34397909 0.21855634 -0.13283312
v 0.32689953 0.22277462 -0.13599609
v 0.31574434 0.22115827 -0.14364532
v 0.31224751 0.20440334 -0.16623798
v 0.29906937 0.22088233 -0.14868025
v 0.40819365 0.12591138 -0.20680793
v 0.46047273 0.08148122 -0.20199892
v 0.31068695 0.18946187 -0.18121368
v 0.32325819 0.18027623 -0.18737824
v 0.33733222 0.17680697 -0.18712004
v 0.36016279 0.17558485 -0.18111685
v 0.45012674 0.01497397 -0.21561906
v 0.45004004 0.02979716 -0.21652277
v 0.46009704 0.00744410 -0.20826031
v 0.44951984 0.04264918 -0.21597409
v 0.46645492 0.02104517 -0.20490369
v 0.46966276 -0.00316079 -0.19602799
v 0.47590503 0.00054501 -0.18876608
v 0.48538405 0.01556532 -0.17979357
v 0.49564335 0.02703752 -0.15565169
v 0.49720392 0.01556532 -0.13915905
v 0.49968928 0.01958650 -0.11398439
v 0.47951746 0.08128411 -0.16643162
v 0.47544265 0.08498990 -0.17269301
v 0.47278389 0.09271689 -0.16894910
v 0.46576133 0.10083810 -0.17269301
v 0.46498105 0.10785547 -0.16184855
v 0.44151470 0.15484814 -0.11950345
v 0.40108439 0.18977726 -0.12505479
v 0.39151868 0.19742540 -0.12282780
v 0.42992604 0.16028857 -0.13867493
v 0.40354085 0.18382433 -0.13428551
v 0.37469921 0.20960723 -0.11889023
v 0.49564335 0.05341177 -0.13028337
v 0.49679932 0.03744530 -0.14183791
v 0.49405387 0.05550121 -0.13822308
v 0.35877562 0.21063223 -0.13470508
v 0.38455391 0.19781964 -0.13225216
v 0.37605748 0.19671577 -0.14274161
v 0.34279421 0.21177551 -0.14532363
v 0.33351749 0.21224859 -0.14880934
v 0.33655193 0.20199850 -0.16113849
v 0.33967307 0.19151190 -0.17282212
v 0.32814220 0.19368017 -0.17388719
v 0.41174829 0.13493933 -0.19522113
v 0.45694700 0.10241504 -0.18528035
v 0.46607924 0.09054860 -0.18489304
v 0.48021102 0.06259742 -0.17930943
v 0.47766790 0.05763007 -0.18657136
v 0.47639632 0.04438381 -0.19102535
v 0.46290028 0.03366065 -0.20897037
v 0.33617625 0.18693878 -0.17882530
v 0.34623325 0.19994849 -0.15910515
v 0.36955512 0.17783198 -0.17314488
v 0.47466236 0.02392308 -0.19502747
v 0.46847787 0.03023082 -0.20270896
v 0.48206061 0.02242499 -0.18531263
v 0.42082271 0.16222031 -0.14877707
v 0.39229897 0.18374547 -0.14787337
v 0.40585279 0.16710882 -0.15936336
v 0.35958481 0.20448218 -0.14448448
v 0.38446721 0.18492818 -0.15297285
v 0.35244665 0.20345718 -0.15126227
v 0.38576770 0.17144538 -0.17004645
v 0.39484212 0.16363956 -0.17295122
v 0.41397354 0.15043272 -0.17272529
v 0.47122332 0.03318757 -0.19906187
v 0.36886153 0.18642628 -0.16242950
v 0.39221227 0.17936948 -0.15442523
f 1 2 3
f 1 3 4
f 1 4 5
f 1 5 6
f 1 6 7
f 1 7 8
f 1 8 9
f 1 9 25
f 1 25 53
f 1 53 94
f 1 94 158
f 1 158 101
f 1 101 58
f 1 58 30
f 1 30 13
f 1 13 2
f 2 10 11
f 2 11 12
f 2 12 3
f 2 13 14
f 2 14 15
f 2 15 10
f 3 16 4
f 3 12 17
f 3 17 16
f 4 18 19
f 4 19 5
f 4 16 18
f 5 19 20
f 5 20 6
f 6 20 21
f 6 21 22
f 6 22 44
f 6 44 73
f 6 73 125
f 6 125 188
f 6 188 257
f 6 257 262
f 6 262 191
f 6 191 127
f 6 127 76
f 6 76 45
f 6 45 23
f 6 23 9
f 6 9 7
f 7 9 8
f 9 23 24
f 9 24 51
f 9 51 86
f 9 86 140
f 9 140 204
f 9 204 279
f 9 279 209
f 9 209 143
f 9 143 87
f 9 87 52
f 9 52 25
f 10 26 27
f 10 27 11
f 10 15 26
f 11 28 17
f 11 17 12
f 11 27 29
f 11 29 28
f 13 30 31
f 13 31 32
f 13 32 33
f 13 33 34
f 13 34 14
f 14 34 35
f 14 35 36
f 14 36 26
f 14 26 15
f 16 17 37
f 16 37 38
f 16 38 39
f 16 39 40
f 16 40 18
f 17 28 37
f 18 40 19
f 19 40 21
f 19 21 20
f 21 41 22
f 21 40 41
f 22 41 42
f 22 42 43
f 22 43 44
f 23 45 46
f 23 46 47
f 23 47 48
f 23 48 49
f 23 49 50
f 23 50 51
f 23 51 24
f 25 52 53
f 26 54 27
f 26 36 54
f 27 54 55
f 27 55 29
f 28 29 56
f 28 56 37
f 29 55 56
f 30 57 31
f 30 58 57
f 31 57 59
f 31 59 32
f 32 60 61
f 32 61 62
f 32 62 33
f 32 59 60
f 33 62 63
f 33 63 64
f 33 64 35
f 33 35 34
f 35 64 36
f 36 64 65
f 36 65 54
f 37 56 66
f 37 66 39
f 37 39 38
f 39 67 40
f 39 66 68
f 39 68 67
f 40 67 69
f 40 69 41
f 41 69 70
f 41 70 42
f 42 70 43
f 43 70 71
f 43 71 72
f 43 72 44
f 44 72 73
f 45 74 75
f 45 75 46
f 45 76 74
f 46 75 77
f 46 77 78
f 46 78 48
f 46 48 47
f 48 78 79
f 48 79 80
f 48 80 81
f 48 81 82
f 48 82 49
f 49 82 81
f 49 81 83
f 49 83 50
f 50 84 85
f 50 85 51
f 50 83 84
f 51 85 86
f 52 87 88
f 52 88 89
f 52 89 90
f 52 90 91
f 52 91 92
f 52 92 93
f 52 93 94
f 52 94 53
f 54 95 55
f 54 65 96
f 54 96 97
f 54 97 95
f 55 98 56
f 55 95 99
f 55 99 98
f 56 98 100
f 56 100 66
f 57 58 59
f 58 101 59
f 59 101 102
f 59 102 103
f 59 103 104
f 59 104 105
f 59 105 106
f 59 106 60
f 60 107 61
f 60 106 108
f 60 108 107
f 61 107 109
f 61 109 110
f 61 110 62
f 62 111 63
f 62 110 111
f 63 111 112
f 63 112 64
f 64 112 65
f 65 112 113
f 65 113 114
f 65 114 115
f 65 115 96
f 66 100 68
f 67 68 116
f 67 116 69
f 68 100 117
f 68 117 118
f 68 118 119
f 68 119 120
f 68 120 116
f 69 116 70
f 70 116 121
f 70 121 71
f 71 122 72
f 71 121 120
f 71 120 123
f 71 123 122
f 72 122 73
f 73 122 124
f 73 124 125
f 74 126 75
f 74 76 126
f 75 126 77
f 76 127 128
f 76 128 129
f 76 129 130
f 76 130 126
f 77 126 131
f 77 131 78
f 78 131 132
f 78 132 133
f 78 133 79
f 79 134 135
f 79 135 80
f 79 133 136
f 79 136 137
f 79 137 134
f 80 135 81
f 81 135 138
f 81 138 84
f 81 84 83
f 84 138 139
f 84 139 85
f 85 139 86
f 86 139 138
f 86 138 141
f 86 141 142
f 86 142 140
f 87 143 144
f 87 144 145
f 87 145 146
f 87 146 147
f 87 147 148
f 87 148 149
f 87 149 150
f 87 150 151
f 87 151 152
f 87 152 153
f 87 153 89
f 87 89 88
f 89 153 90
f 90 153 154
f 90 154 91
f 91 154 155
f 91 155 92
f 92 155 156
f 92 156 93
f 93 156 94
f 94 156 157
f 94 157 158
f 95 159 99
f 95 97 160
f 95 160 161
f 95 161 162
f 95 162 163
f 95 163 159
f 96 115 160
f 96 160 97
f 98 99 164
f 98 164 100
f 99 159 165
f 99 165 166
f 99 166 167
f 99 167 164
f 100 164 117
f 101 168 102
f 101 158 168
f 102 168 103
f 103 168 169
f 103 169 104
f 104 169 170
f 104 170 105
f 105 171 106
f 105 170 171
f 106 171 108
f 107 108 172
f 107 172 109
f 108 171 172
f 109 173 174
f 109 174 110
f 109 172 175
f 109 175 173
f 110 174 176
f 110 176 111
f 111 176 112
f 112 176 177
f 112 177 113
f 113 177 160
f 113 160 114
f 114 160 115
f 116 120 121
f 117 164 178
f 117 178 118
f 118 178 179
f 118 179 119
f 119 179 180
f 119 180 120
f 120 180 181
f 120 181 123
f 122 182 183
f 122 183 124
f 122 123 182
f 123 181 184
f 123 184 185
f 123 185 182
f 124 183 186
f 124 186 125
f 125 186 187
f 125 187 188
f 126 130 189
f 126 189 190
f 126 190 131
f 127 191 192
f 127 192 193
f 127 193 128
f 128 193 194
f 128 194 129
f 129 194 189
f 129 189 130
f 131 190 195
f 131 195 196
f 131 196 132
f 132 196 133
f 133 196 197
f 133 197 136
f 134 137 198
f 134 198 199
f 134 199 142
f 134 142 200
f 134 200 135
f 135 200 138
f 136 201 137
f 136 197 202
f 136 202 201
f 137 201 203
f 137 203 198
f 138 200 141
f 140 142 205
f 140 205 206
f 140 206 207
f 140 207 208
f 140 208 204
f 141 200 142
f 142 199 206
f 142 206 205
f 143 209 210
f 143 210 211
f 143 211 212
f 143 212 144
f 144 212 145
f 145 212 213
f 145 213 146
f 146 213 147
f 147 213 214
f 147 214 148
f 148 214 215
f 148 215 150
f 148 150 149
f 150 215 151
f 151 215 216
f 151 216 153
f 151 153 152
f 153 216 217
f 153 217 154
f 154 217 155
f 155 217 218
f 155 218 219
f 155 219 220
f 155 220 156
f 156 220 157
f 157 220 219
f 157 219 221
f 157 221 222
f 157 222 158
f 158 222 168
f 159 163 165
f 160 177 223
f 160 223 224
f 160 224 225
f 160 225 161
f 161 225 226
f 161 226 162
f 162 226 227
f 162 227 163
f 163 227 228
f 163 228 229
f 163 229 165
f 164 167 178
f 165 229 230
f 165 230 166
f 166 231 167
f 166 230 232
f 166 232 231
f 167 231 178
f 168 222 233
f 168 233 234
f 168 234 169
f 169 234 235
f 169 235 170
f 170 236 171
f 170 235 236
f 171 236 172
f 172 237 175
f 172 236 238
f 172 238 237
f 173 175 239
f 173 239 240
f 173 240 177
f 173 177 174
f 174 177 176
f 175 237 239
f 177 240 223
f 178 231 241
f 178 241 179
f 179 242 180
f 179 241 242
f 180 242 243
f 180 243 181
f 181 243 184
f 182 185 244
f 182 244 183
f 183 244 245
f 183 245 186
f 184 246 247
f 184 247 248
f 184 248 249
f 184 249 185
f 184 243 250
f 184 250 246
f 185 249 251
f 185 251 252
f 185 252 253
f 185 253 244
f 186 245 254
f 186 254 187
f 187 254 255
f 187 255 188
f 188 255 256
f 188 256 257
f 189 196 195
f 189 195 190
f 189 194 258
f 189 258 259
f 189 259 260
f 189 260 196
f 191 261 192
f 191 262 263
f 191 263 261
f 192 261 264
f 192 264 265
f 192 265 266
f 192 266 193
f 193 266 267
f 193 267 194
f 194 267 258
f 196 260 268
f 196 268 269
f 196 269 202
f 196 202 197
f 198 270 271
f 198 271 272
f 198 272 199
f 198 203 273
f 198 273 270
f 199 272 274
f 199 274 206
f 201 275 203
f 201 202 276
f 201 276 275
f 202 269 277
f 202 277 278
f 202 278 276
f 203 275 273
f 204 208 280
f 204 280 281
f 204 281 282
f 204 282 279
f 206 274 271
f 206 271 207
f 207 271 283
f 207 283 208
f 208 283 284
f 208 284 280
f 209 279 282
f 209 282 285
f 209 285 210
f 210 285 286
f 210 286 287
f 210 287 211
f 211 287 288
f 211 288 212
f 212 288 289
f 212 289 290
f 212 290 213
f 213 290 214
f 214 290 291
f 214 291 292
f 214 292 215
f 215 292 293
f 215 293 294
f 215 294 295
f 215 295 296
f 215 296 297
f 215 297 216
f 216 297 217
f 217 297 218
f 218 297 296
f 218 296 219
f 219 296 221
f 221 298 235
f 221 235 234
f 221 234 233
f 221 233 222
f 221 296 298
f 223 240 299
f 223 299 300
f 223 300 301
f 223 301 224
f 224 302 303
f 224 303 304
f 224 304 225
f 224 301 302
f 225 304 226
f 226 304 305
f 226 305 306
f 226 306 227
f 227 306 228
f 228 307 232
f 228 232 229
f 228 306 307
f 229 232 230
f 231 232 308
f 231 308 309
f 231 309 241
f 232 307 308
f 235 298 310
f 235 310 236
f 236 310 311
f 236 311 312
f 236 312 238
f 237 313 239
f 237 238 314
f 237 314 313
f 238 312 315
f 238 315 314
f 239 316 240
f 239 313 316
f 240 316 317
f 240 317 299
f 241 309 318
f 241 318 242
f 242 250 243
f 242 318 250
f 244 253 245
f 245 253 254
f 246 250 318
f 246 318 319
f 246 319 247
f 247 320 248
f 247 319 321
f 247 321 320
f 248 320 322
f 248 322 251
f 248 251 249
f 251 253 252
f 251 322 253
f 253 322 323
f 253 323 324
f 253 324 325
f 253 325 254
f 254 325 255
f 255 325 256
f 256 325 326
f 256 326 262
f 256 262 257
f 258 267 327
f 258 327 259
f 259 327 260
f 260 327 269
f 260 269 268
f 261 263 328
f 261 328 329
f 261 329 264
f 262 326 263
f 263 326 330
f 263 330 328
f 264 331 265
f 264 329 332
f 264 332 331
f 265 331 333
f 265 333 334
f 265 334 266
f 266 334 267
f 267 334 335
f 267 335 327
f 269 327 336
f 269 336 337
f 269 337 277
f 270 273 338
f 270 338 339
f 270 339 271
f 271 274 272
f 271 339 283
f 273 275 340
f 273 340 338
f 275 276 341
f 275 341 340
f 276 278 342
f 276 342 343
f 276 343 341
f 277 337 278
f 278 337 342
f 280 284 281
f 281 284 344
f 281 344 285
f 281 285 282
f 283 339 345
f 283 345 284
f 284 345 346
f 284 346 344
f 285 344 346
f 285 346 286
f 286 347 287
f 286 346 348
f 286 348 349
f 286 349 347
f 287 347 288
f 288 347 289
f 289 347 350
f 289 350 351
f 289 351 290
f 290 351 352
f 290 352 291
f 291 353 292
f 291 352 353
f 292 353 293
f 293 353 354
f 293 354 294
f 294 354 355
f 294 355 356
f 294 356 295
f 295 356 357
f 295 357 296
f 296 357 298
f 298 357 310
f 299 317 358
f 299 358 359
f 299 359 300
f 300 360 301
f 300 359 361
f 300 361 360
f 301 360 362
f 301 362 302
f 302 362 363
f 302 363 303
f 303 363 304
f 304 363 305
f 305 364 306
f 305 363 365
f 305 365 364
f 306 364 366
f 306 366 307
f 307 366 308
f 308 318 309
f 308 366 367
f 308 367 319
f 308 319 318
f 310 357 356
f 310 356 311
f 311 368 312
f 311 356 355
f 311 355 368
f 312 368 315
f 313 314 369
f 313 369 370
f 313 370 316
f 314 315 369
f 315 368 371
f 315 371 369
f 316 370 317
f 317 370 372
f 317 372 373
f 317 373 358
f 319 367 374
f 319 374 321
f 320 321 375
f 320 375 376
f 320 376 322
f 321 374 375
f 322 376 323
f 323 376 377
f 323 377 324
f 324 377 378
f 324 378 379
f 324 379 325
f 325 379 378
f 325 378 330
f 325 330 326
f 327 335 334
f 327 334 333
f 327 333 380
f 327 380 381
f 327 381 336
f 328 382 332
f 328 332 329
f 328 330 378
f 328 378 382
f 331 332 383
f 331 383 384
f 331 384 333
f 332 382 383
f 333 384 385
f 333 385 380
f 336 381 343
f 336 343 342
f 336 342 337
f 338 386 339
f 338 340 341
f 338 341 387
f 338 387 386
f 339 386 388
f 339 388 345
f 341 343 389
f 341 389 387
f 343 381 389
f 345 388 346
f 346 388 390
f 346 390 391
f 346 391 348
f 347 349 350
f 348 391 349
f 349 391 392
f 349 392 350
f 350 392 393
f 350 393 351
f 351 393 352
f 352 393 394
f 352 394 353
f 353 394 395
f 353 395 354
f 354 395 396
f 354 396 355
f 355 396 368
f 358 373 397
f 358 397 359
f 359 397 398
f 359 398 399
f 359 399 400
f 359 400 401
f 359 401 361
f 360 361 401
f 360 401 365
f 360 365 402
f 360 402 362
f 362 402 363
f 363 402 365
f 364 403 404
f 364 404 366
f 364 365 403
f 365 401 405
f 365 405 406
f 365 406 403
f 366 407 367
f 366 404 407
f 367 407 374
f 368 396 371
f 369 371 408
f 369 408 370
f 370 408 372
f 371 396 394
f 371 394 409
f 371 409 408
f 372 408 410
f 372 410 373
f 373 410 397
f 374 411 375
f 374 407 412
f 374 412 413
f 374 413 411
f 375 411 414
f 375 414 376
f 376 414 377
f 377 414 415
f 377 415 416
f 377 416 378
f 378 416 417
f 378 417 418
f 378 418 382
f 380 419 381
f 380 385 419
f 381 419 420
f 381 420 421
f 381 421 398
f 381 398 422
f 381 422 423
f 381 423 424
f 381 424 425
f 381 425 389
f 382 426 383
f 382 418 426
f 383 426 384
f 384 426 385
f 385 426 417
f 385 417 427
f 385 427 428
f 385 428 419
f 386 387 425
f 386 425 388
f 387 389 425
f 388 425 390
f 390 429 393
f 390 393 391
f 390 425 430
f 390 430 429
f 391 393 392
f 393 429 431
f 393 431 394
f 394 423 422
f 394 422 410
f 394 410 409
f 394 396 395
f 394 431 423
f 397 410 422
f 397 422 398
f 398 421 399
f 399 421 400
f 400 421 420
f 400 420 405
f 400 405 401
f 403 406 404
f 404 406 412
f 404 412 407
f 405 432 406
f 405 420 432
f 406 433 412
f 406 432 434
f 406 434 433
f 408 409 410
f 411 413 435
f 411 435 414
f 412 433 413
f 413 433 436
f 413 436 435
f 414 435 437
f 414 437 427
f 414 427 416
f 414 416 415
f 416 427 417
f 417 426 418
f 419 428 438
f 419 438 439
f 419 439 434
f 419 434 440
f 419 440 420
f 420 440 432
f 423 431 424
f 424 441 425
f 424 431 441
f 425 441 430
f 427 437 428
f 428 437 442
f 428 442 438
f 429 430 441
f 429 441 431
f 432 440 434
f 433 434 443
f 433 443 436
f 434 439 443
f 435 436 437
f 436 443 438
f 436 438 442
f 436 442 437
f 438 443 439

