# https://github.com/mikedh/trimesh
v -0.08506256 -0.05222207 -0.24209909
v -0.06232119 -0.04703319 -0.24260248
v -0.05975245 -0.04860447 -0.24240112
v -0.06214155 -0.05149125 -0.24194808
v -0.05914170 -0.05222207 -0.24174672
v -0.08756842 -0.05222207 -0.24204876
v -0.10245990 -0.04385409 -0.24290450
v -0.04146594 -0.01750773 -0.24597514
v -0.04146594 -0.02017525 -0.24567309
v -0.04146594 -0.02342744 -0.24527040
v -0.04146594 -0.05222207 -0.24149504
v -0.10441788 -0.04754478 -0.24235079
v -0.13322183 -0.05222207 -0.24084064
v -0.13322183 -0.04253860 -0.24225011
v -0.13322183 -0.03870174 -0.24265282
v -0.13322183 -0.02192923 -0.24431396
v -0.13322183 -0.01758081 -0.24471667
v -0.13322183 -0.01414591 -0.24501869
v -0.04146594 0.00485562 -0.24808931
v -0.04146594 -0.05222207 0.23364604
v -0.13322183 -0.04579078 -0.24179706
v -0.13322183 -0.05222207 0.23349501
v -0.13322183 -0.00237958 -0.24602547
v -0.04146594 0.00723082 -0.24829069
v -0.04146594 -0.04410988 0.24386466
v -0.09642427 -0.05222207 0.23822679
v -0.09928042 -0.05222207 0.23832747
v -0.06223137 0.00079952 0.26193604
v -0.06534798 -0.00004093 0.26118097
v -0.13322183 0.01340631 0.25212011
v -0.13322183 0.01910678 -0.24708256
v -0.07605403 0.02181084 -0.24849203
v -0.04146594 0.00843668 -0.24839136
v -0.04146594 -0.04337905 0.24467006
v -0.09752901 -0.05222207 0.23827714
v -0.04146594 -0.04100385 0.24678427
v -0.06070450 -0.04334252 0.24507277
v -0.05779446 -0.03881137 0.24844542
v -0.05929439 0.00229771 0.26243940
v -0.06144099 0.00427096 0.26259041
v -0.06444982 0.00324780 0.26198637
v -0.13322183 0.01435639 0.25232145
v -0.04146594 -0.03132038 0.25272417
v -0.13322183 0.09255502 -0.24824035
v -0.11809684 0.06997243 -0.24859270
v -0.09795114 0.06240835 -0.24929744
v -0.04146594 0.05824263 -0.25025386
v -0.04146594 0.01051954 -0.24849203
v -0.04146594 -0.03720355 0.24960320
v -0.04146594 -0.03592460 0.25035828
v -0.04146594 -0.03398791 0.25146571
v -0.04146594 0.00120148 0.26198637
v -0.04146594 0.00478254 0.26284212
v -0.04146594 0.00602494 0.26309380
v -0.04146594 0.00777893 0.26339582
v -0.05932133 0.00675577 0.26309380
v -0.13322183 0.01735278 0.25272417
v -0.13322183 0.09547833 -0.24798864
v -0.09165505 0.08466207 -0.24964979
v -0.09162810 0.08056943 -0.24970013
v -0.07016211 0.08868162 -0.24839136
v -0.04146594 0.08206763 -0.24773696
v -0.04146594 0.01088496 0.26384887
v -0.04146594 0.01402751 0.26399988
v -0.06986572 0.05787721 0.26243940
v -0.13322183 0.03701206 0.25327790
v -0.13322183 0.03412529 0.25322753
v -0.13322183 0.09774390 -0.24748528
v -0.07044054 0.09562450 -0.24718323
v -0.09360405 0.08747576 -0.24919677
v -0.06952441 0.09237231 -0.24778730
v -0.04146594 0.10234812 -0.24522007
v -0.04146594 0.10136150 -0.24537107
v -0.04146594 0.05510007 0.26102993
v -0.04146594 0.05773105 0.26067758
v -0.04146594 0.06748760 0.25931844
v -0.06770115 0.07410160 0.25906676
v -0.07053934 0.07563634 0.25881505
v -0.07455411 0.06704911 0.26042590
v -0.07699710 0.06909543 0.25987217
v -0.07218297 0.05959466 0.26188567
v -0.13322183 0.09007020 0.24904948
v -0.13322183 0.08674493 0.24940184
v -0.13322183 0.03916801 0.25317720
v -0.07229075 0.09843819 -0.24657917
v -0.13322183 0.14437075 -0.23651157
v -0.11469282 0.14396879 -0.23661225
v -0.04146594 0.10545414 -0.24446499
v -0.04146594 0.07092250 0.25861371
v -0.06773708 0.07764612 0.25826135
v -0.04146594 0.14049736 0.24119674
v -0.05959976 0.13011959 0.24401566
v -0.05964467 0.14119165 0.24094504
v -0.06435102 0.18847623 0.22740410
v -0.07123990 0.07888853 0.25785863
v -0.07911675 0.07475935 0.25836203
v -0.07683543 0.07220145 0.25921777
v -0.07380863 0.07059363 0.25972116
v -0.08204475 0.07315153 0.25846270
v -0.08201780 0.08418703 0.25549275
v -0.09765474 0.19253233 0.22322604
v -0.13322183 0.18595488 0.22091049
v -0.13322183 0.15942581 -0.23193081
v -0.11568080 0.14714789 -0.23575650
v -0.11115408 0.14524774 -0.23620954
v -0.04146594 0.11137385 -0.24290450
v -0.04146594 0.08458899 0.25549275
v -0.04146594 0.08842584 0.25458667
v -0.04146594 0.14396879 0.24018998
v -0.05944708 0.14407842 0.24013963
v -0.04146594 0.19092451 0.22599465
v -0.06384806 0.19107068 0.22619599
v -0.06712633 0.19015715 0.22659869
v -0.07306316 0.19048601 0.22609532
v -0.07026989 0.18840316 0.22695106
v -0.09964866 0.19483444 0.22196759
v -0.13322183 0.19424978 0.21824257
v -0.13322183 0.19333625 0.21859494
v -0.13322183 0.16275108 -0.23087370
v -0.11656100 0.17272688 -0.22684667
v -0.07101536 0.14681903 -0.23389399
v -0.04146594 0.11458949 -0.24199842
v -0.04146594 0.19234963 0.22528991
v -0.06993757 0.19121684 0.22589396
v -0.04146594 0.19337279 0.22473618
v -0.06360555 0.19366512 0.22448450
v -0.07228176 0.19322662 0.22453484
v -0.07538939 0.19264196 0.22478652
v -0.09675659 0.19567490 0.22171591
v -0.10238805 0.19706348 0.22030644
v -0.13322183 0.19728272 0.21668209
v -0.13322183 0.19614993 0.21728615
v -0.13322183 0.16432236 -0.23026964
v -0.13322183 0.16779380 -0.22891052
v -0.13322183 0.17199606 -0.22714868
v -0.13322183 0.17338464 -0.22654463
v -0.11805193 0.17630795 -0.22503449
v -0.11418985 0.17546749 -0.22528619
v -0.11248335 0.17258072 -0.22669564
v -0.04146594 0.15127708 -0.23031999
v -0.04146594 0.14769602 -0.23162878
v -0.04146594 0.14290909 -0.23318925
v -0.04146594 0.19483444 0.22372943
v -0.04146594 0.19717309 0.22201793
v -0.06027338 0.19684422 0.22216895
v -0.07762581 0.19483444 0.22322604
v -0.09937023 0.19742888 0.22015542
v -0.13322183 0.20042528 0.21416520
v -0.13322183 0.19943866 0.21502094
v -0.06520428 0.21438411 0.20651381
v -0.10639384 0.20864710 0.20908105
v -0.13322183 0.19081488 -0.21622533
v -0.13322183 0.19377474 -0.21426214
v -0.10873803 0.18018134 -0.22186320
v -0.04146594 0.16896312 -0.22246724
v -0.04146594 0.16563785 -0.22443043
v -0.04146594 0.16487049 -0.22483313
v -0.04146594 0.16216642 -0.22599091
v -0.04146594 0.19918287 0.22035678
v -0.05752502 0.19929250 0.22025611
v -0.06033625 0.19907326 0.22035678
v -0.06399176 0.20090032 0.21864529
v -0.05780344 0.21255703 0.20852733
v -0.13322183 0.20316589 0.21159795
v -0.06079432 0.22695434 0.19458368
v -0.05741724 0.22735630 0.19438232
v -0.08087714 0.23155856 0.18829143
v -0.09521176 0.23049887 0.18814041
v -0.13322183 0.22041343 0.19443268
v -0.13322183 0.20546800 0.20933273
v -0.13322183 0.21076649 -0.20238236
v -0.04146594 0.18595488 -0.21144322
v -0.04146594 0.20100994 0.21874596
v -0.04146594 0.21244740 0.20857766
v -0.04146594 0.22541961 0.19629517
v -0.04146594 0.21054725 0.21028917
v -0.06617428 0.23455496 0.18632825
v -0.07973648 0.23389721 0.18597588
v -0.04146594 0.22794096 0.19377828
v -0.04146594 0.22903721 0.19262050
v -0.06216849 0.23437226 0.18663026
v -0.09178079 0.23725903 0.18134478
v -0.09503213 0.23572429 0.18260323
v -0.13322183 0.23294714 0.18104275
v -0.13322183 0.21376289 -0.19986545
v -0.04146594 0.22629660 -0.18068665
v -0.04146594 0.22545615 -0.18139137
v -0.04146594 0.22373870 -0.18275051
v -0.04146594 0.19498061 -0.20474824
v -0.06466538 0.23641858 0.18421404
v -0.07150935 0.24065739 0.17887820
v -0.04146594 0.23323947 0.18793906
v -0.04146594 0.23400684 0.18708330
v -0.04146594 0.23543195 0.18547249
v -0.06134219 0.23638204 0.18431471
v -0.09501416 0.23798986 0.18008631
v -0.13322183 0.23583391 0.17782110
v -0.13322183 0.23503000 0.17872719
v -0.07153629 0.24314219 0.17585792
v -0.09226580 0.23967075 0.17832449
v -0.13322183 0.22286171 -0.19211338
v -0.04146594 0.22739285 -0.17967989
v -0.05883633 0.24420190 0.17510284
v -0.04146594 0.24321528 0.17631096
v -0.13322183 0.23831873 0.17480083
v -0.13322183 0.23729557 0.17605928
v -0.06973998 0.24500582 0.17364305
v -0.07254223 0.24646747 0.17157918
v -0.13322183 0.25289875 0.15627640
v -0.13322183 0.25121784 0.15849128
v -0.13322183 0.22549269 -0.18959649
v -0.08909529 0.24051121 -0.17147478
v -0.04146594 0.22965841 -0.17756568
v -0.04146594 0.22885451 -0.17832075
v -0.04146594 0.24570009 0.17329068
v -0.07115009 0.24862340 0.16886093
v -0.06915617 0.24705213 0.17102547
v -0.13322183 0.25370267 0.15506829
v -0.07323381 0.25030431 0.16624334
v -0.13322183 0.23068157 -0.18405929
v -0.11634544 0.23685707 -0.17701197
v -0.04146594 0.23137586 -0.17590453
v -0.09107125 0.24263062 -0.16925991
v -0.04146594 0.24442115 -0.16271596
v -0.04146594 0.24255753 -0.16467914
v -0.04146594 0.24833107 0.16946499
v -0.07014415 0.25052357 0.16614267
v -0.07999695 0.26148599 0.14872570
v -0.13322183 0.25918388 0.14671218
v -0.13322183 0.23418954 -0.18018326
v -0.13322183 0.25319108 -0.15773249
v -0.13322183 0.23619932 -0.17781737
v -0.04146594 0.24756370 -0.15909161
v -0.13322183 0.25381228 -0.15697742
v -0.11729749 0.26280147 -0.14529899
v -0.04146594 0.26188794 0.14847401
v -0.06775504 0.25158328 0.16453186
v -0.04146594 0.26305726 0.14656116
v -0.07911675 0.27248496 0.13020128
v -0.08760435 0.26455545 0.14283614
v -0.10338500 0.26393425 0.14233276
v -0.13322183 0.26079172 0.14414494
v -0.04146594 0.24876958 -0.15753113
v -0.13322183 0.26437277 -0.14318478
v -0.11694720 0.26846540 -0.13769794
v -0.11405513 0.26722300 -0.13925841
v -0.04146594 0.26429969 0.14444697
v -0.13322183 0.27877009 0.11323736
v -0.13322183 0.27822196 0.11419378
v -0.04146594 0.27858737 0.11957996
v -0.04146594 0.29254618 0.09441092
v -0.05684242 0.30365479 0.07372198
v -0.06099191 0.30310667 0.07442670
v -0.13322183 0.26247260 0.14142668
v -0.13322183 0.26185140 0.14243343
v -0.13322183 0.26353231 0.13961451
v -0.04146594 0.26079172 -0.14086923
v -0.13322183 0.26831925 -0.13779861
v -0.13322183 0.26930586 -0.13638914
v -0.13322183 0.27029246 -0.13482866
v -0.11637238 0.27018285 -0.13482866
v -0.04146594 0.27336195 -0.12153941
v -0.04146594 0.27197337 -0.12380463
v -0.04146594 0.27113292 -0.12511341
v -0.04146594 0.26272839 -0.13799997
v -0.13322183 0.27997595 0.11097214
v -0.04146594 0.30153537 0.07790003
v -0.04146594 0.30471450 0.07130574
v -0.04146594 0.30606651 0.06813444
v -0.04146594 0.30672425 0.06657396
v -0.04146594 0.30727237 0.06526518
v -0.06260859 0.30548185 0.06914121
v -0.04146594 0.30328935 0.07447704
v -0.06420732 0.30398366 0.07211115
v -0.13322183 0.30080456 -0.08277909
v -0.11382161 0.29959869 -0.08489329
v -0.11066009 0.29919672 -0.08544701
v -0.04146594 0.29674846 -0.08016152
v -0.13322183 0.29082876 0.08701123
v -0.08494581 0.30851477 0.05867089
v -0.08509849 0.30997646 0.05544925
v -0.04146594 0.30906290 0.06078509
v -0.05961773 0.31129193 0.05409012
v -0.11242946 0.30091417 -0.08247707
v -0.13322183 0.30215657 -0.08011118
v -0.04146594 0.30365479 -0.06717429
v -0.13322183 0.31037840 0.04286473
v -0.08173937 0.31067073 0.05388877
v -0.08455061 0.31118232 0.05202626
v -0.08771213 0.31059766 0.05303302
v -0.13322183 0.31121886 0.04085121
v -0.04146594 0.30997646 0.05831852
v -0.04146594 0.31110924 0.05469418
v -0.06025542 0.31227857 0.05076781
v -0.06404565 0.31275359 0.04900598
v -0.06373129 0.31169391 0.05242897
v -0.10055580 0.30888021 -0.06420435
v -0.09829244 0.30793011 -0.06621787
v -0.09502314 0.30818594 -0.06526145
v -0.04146594 0.30478758 -0.06495941
v -0.13322183 0.30307013 -0.07794664
v -0.13322183 0.31450757 0.02972650
v -0.13316795 0.31366712 0.03299847
v -0.13322183 0.31238818 0.03727721
v -0.04146594 0.31194967 0.05177457
v -0.04146594 0.31264398 0.04890530
v -0.06086617 0.31311899 0.04739516
v -0.05968958 0.31388637 0.04392183
v -0.06177331 0.31483644 0.03929073
v -0.08726306 0.31775975 0.02323288
v -0.09144847 0.31794247 0.02192410
v -0.13322183 0.30431253 -0.07497670
v -0.13322183 0.31004953 -0.06083170
v -0.11321984 0.31008607 -0.06088203
v -0.11634544 0.31070727 -0.05917054
v -0.09727752 0.30946487 -0.06224116
v -0.04146594 0.31242472 -0.04789481
v -0.04146594 0.31151119 -0.05026070
v -0.04146594 0.30676079 -0.06088203
v -0.04146594 0.30756471 -0.05912020
v -0.13322183 0.31509224 0.02700824
v -0.04146594 0.31333825 0.04598569
v -0.04146594 0.31384984 0.04382116
v -0.04146594 0.31414217 0.04251237
v -0.04146594 0.31867331 0.02026294
v -0.08887973 0.31834441 0.02011193
v -0.09185264 0.31849059 0.01845077
v -0.13322183 0.31739435 0.01422237
v -0.13322183 0.31037840 -0.05992561
v -0.13322183 0.31092653 -0.05821411
v -0.11334558 0.31103614 -0.05781141
v -0.06681198 0.31194967 -0.05192186
v -0.04146594 0.31271705 -0.04663636
v -0.04146594 0.31922144 0.01714198
v -0.08695768 0.31870985 0.01784671
v -0.13322183 0.31852713 0.00606760
v -0.13322183 0.31823480 0.00848383
v -0.13322183 0.31805211 0.00984296
v -0.13322183 0.31129193 -0.05660330
v -0.11675858 0.31140155 -0.05599924
v -0.06952441 0.31227857 -0.05056273
v -0.06268045 0.31282669 -0.04759278
v -0.04146594 0.31304592 -0.04507588
v -0.04146594 0.31944066 0.01568217
v -0.05655500 0.32090235 0.00410442
v -0.13322183 0.31878293 0.00284597
v -0.13322183 0.31860024 -0.01074531
v -0.10031330 0.31918490 -0.01190309
v -0.04146594 0.31944066 -0.01240647
v -0.04146594 0.31889254 -0.01527574
v -0.04146594 0.31962338 0.01432305
v -0.04146594 0.32108504 0.00098346
v -0.07987121 0.32024458 -0.00425170
v -0.13322183 0.31889254 -0.00480542
v -0.13322183 0.31889254 -0.00108040
v -0.13322183 0.31878293 -0.00827875
v -0.04149288 0.32086578 -0.00218784
v -0.04146594 0.32053691 -0.00500677
v -0.04146594 0.31969646 -0.01084599
v -0.13322183 0.31885600 -0.00646658
f 1 2 3
f 1 3 4
f 1 4 5
f 1 5 11
f 1 11 20
f 1 20 26
f 1 26 35
f 1 35 27
f 1 27 22
f 1 22 13
f 1 13 6
f 1 6 7
f 1 7 8
f 1 8 9
f 1 9 2
f 2 9 3
f 3 9 10
f 3 10 11
f 3 11 4
f 4 11 5
f 6 12 7
f 6 13 12
f 7 12 14
f 7 14 15
f 7 15 16
f 7 16 17
f 7 17 18
f 7 18 19
f 7 19 8
f 8 19 24
f 8 24 33
f 8 33 48
f 8 48 47
f 8 47 62
f 8 62 73
f 8 73 72
f 8 72 88
f 8 88 106
f 8 106 122
f 8 122 142
f 8 142 141
f 8 141 140
f 8 140 158
f 8 158 157
f 8 157 156
f 8 156 155
f 8 155 172
f 8 172 189
f 8 189 188
f 8 188 187
f 8 187 186
f 8 186 202
f 8 202 214
f 8 214 213
f 8 213 222
f 8 222 225
f 8 225 224
f 8 224 233
f 8 233 243
f 8 243 257
f 8 257 265
f 8 265 264
f 8 264 263
f 8 263 262
f 8 262 278
f 8 278 286
f 8 286 300
f 8 300 319
f 8 319 320
f 8 320 318
f 8 318 317
f 8 317 333
f 8 333 343
f 8 343 350
f 8 350 349
f 8 349 359
f 8 359 358
f 8 358 352
f 8 352 351
f 8 351 344
f 8 344 334
f 8 334 325
f 8 325 324
f 8 324 323
f 8 323 322
f 8 322 306
f 8 306 305
f 8 305 293
f 8 293 292
f 8 292 282
f 8 282 271
f 8 271 270
f 8 270 269
f 8 269 268
f 8 268 273
f 8 273 267
f 8 267 251
f 8 251 250
f 8 250 247
f 8 247 238
f 8 238 236
f 8 236 226
f 8 226 215
f 8 215 204
f 8 204 194
f 8 194 193
f 8 193 192
f 8 192 180
f 8 180 179
f 8 179 175
f 8 175 174
f 8 174 176
f 8 176 173
f 8 173 159
f 8 159 144
f 8 144 143
f 8 143 125
f 8 125 123
f 8 123 111
f 8 111 109
f 8 109 91
f 8 91 108
f 8 108 107
f 8 107 89
f 8 89 76
f 8 76 75
f 8 75 74
f 8 74 64
f 8 64 63
f 8 63 55
f 8 55 54
f 8 54 53
f 8 53 52
f 8 52 43
f 8 43 51
f 8 51 50
f 8 50 49
f 8 49 36
f 8 36 34
f 8 34 25
f 8 25 20
f 8 20 11
f 8 11 10
f 8 10 9
f 12 13 21
f 12 21 14
f 13 22 30
f 13 30 42
f 13 42 57
f 13 57 67
f 13 67 66
f 13 66 84
f 13 84 83
f 13 83 82
f 13 82 102
f 13 102 118
f 13 118 117
f 13 117 132
f 13 132 131
f 13 131 149
f 13 149 148
f 13 148 164
f 13 164 170
f 13 170 169
f 13 169 184
f 13 184 198
f 13 198 197
f 13 197 206
f 13 206 205
f 13 205 210
f 13 210 209
f 13 209 218
f 13 218 229
f 13 229 242
f 13 242 255
f 13 255 254
f 13 254 256
f 13 256 249
f 13 249 248
f 13 248 266
f 13 266 279
f 13 279 287
f 13 287 291
f 13 291 304
f 13 304 302
f 13 302 321
f 13 321 328
f 13 328 338
f 13 338 337
f 13 337 336
f 13 336 346
f 13 346 355
f 13 355 354
f 13 354 360
f 13 360 356
f 13 356 347
f 13 347 339
f 13 339 330
f 13 330 329
f 13 329 313
f 13 313 312
f 13 312 301
f 13 301 285
f 13 285 275
f 13 275 260
f 13 260 259
f 13 259 258
f 13 258 244
f 13 244 234
f 13 234 231
f 13 231 232
f 13 232 230
f 13 230 220
f 13 220 211
f 13 211 201
f 13 201 185
f 13 185 171
f 13 171 153
f 13 153 152
f 13 152 136
f 13 136 135
f 13 135 134
f 13 134 133
f 13 133 119
f 13 119 103
f 13 103 86
f 13 86 68
f 13 68 58
f 13 58 44
f 13 44 31
f 13 31 23
f 13 23 18
f 13 18 17
f 13 17 16
f 13 16 15
f 13 15 14
f 13 14 21
f 18 23 19
f 19 23 24
f 20 25 26
f 22 27 28
f 22 28 29
f 22 29 30
f 23 31 32
f 23 32 33
f 23 33 24
f 25 34 26
f 26 34 35
f 27 35 34
f 27 34 36
f 27 36 37
f 27 37 38
f 27 38 28
f 28 39 40
f 28 40 41
f 28 41 42
f 28 42 30
f 28 30 29
f 28 38 43
f 28 43 39
f 31 44 45
f 31 45 46
f 31 46 32
f 32 46 47
f 32 47 48
f 32 48 33
f 36 49 38
f 36 38 37
f 38 49 50
f 38 50 51
f 38 51 43
f 39 52 53
f 39 53 54
f 39 54 55
f 39 55 56
f 39 56 40
f 39 43 52
f 40 56 57
f 40 57 41
f 41 57 42
f 44 58 59
f 44 59 60
f 44 60 46
f 44 46 45
f 46 60 47
f 47 60 59
f 47 59 61
f 47 61 62
f 55 63 56
f 56 63 64
f 56 64 65
f 56 65 66
f 56 66 67
f 56 67 57
f 58 68 69
f 58 69 70
f 58 70 59
f 59 70 71
f 59 71 61
f 61 71 72
f 61 72 73
f 61 73 62
f 64 74 65
f 65 74 75
f 65 75 76
f 65 76 77
f 65 77 78
f 65 78 79
f 65 79 80
f 65 80 81
f 65 81 82
f 65 82 83
f 65 83 84
f 65 84 66
f 68 85 69
f 68 86 87
f 68 87 85
f 69 71 70
f 69 85 72
f 69 72 71
f 72 85 87
f 72 87 88
f 76 89 77
f 77 89 90
f 77 90 78
f 78 90 91
f 78 91 92
f 78 92 93
f 78 93 94
f 78 94 95
f 78 95 96
f 78 96 97
f 78 97 98
f 78 98 79
f 79 98 80
f 80 98 97
f 80 97 99
f 80 99 82
f 80 82 81
f 82 99 96
f 82 96 100
f 82 100 101
f 82 101 102
f 86 103 104
f 86 104 87
f 87 104 105
f 87 105 88
f 88 105 106
f 89 107 90
f 90 107 108
f 90 108 91
f 91 109 94
f 91 94 110
f 91 110 93
f 91 93 92
f 93 110 94
f 94 111 112
f 94 112 113
f 94 113 114
f 94 114 115
f 94 115 95
f 94 109 111
f 95 100 96
f 95 115 100
f 96 99 97
f 100 115 101
f 101 115 114
f 101 114 116
f 101 116 117
f 101 117 118
f 101 118 102
f 103 119 104
f 104 119 120
f 104 120 121
f 104 121 105
f 105 121 122
f 105 122 106
f 111 123 112
f 112 124 113
f 112 123 125
f 112 125 126
f 112 126 127
f 112 127 124
f 113 124 114
f 114 124 128
f 114 128 129
f 114 129 116
f 116 129 130
f 116 130 131
f 116 131 132
f 116 132 117
f 119 133 120
f 120 133 134
f 120 134 135
f 120 135 136
f 120 136 137
f 120 137 138
f 120 138 139
f 120 139 121
f 121 139 140
f 121 140 141
f 121 141 142
f 121 142 122
f 124 127 128
f 125 143 126
f 126 143 144
f 126 144 145
f 126 145 146
f 126 146 127
f 127 146 128
f 128 146 129
f 129 146 147
f 129 147 130
f 130 148 149
f 130 149 131
f 130 147 150
f 130 150 151
f 130 151 148
f 136 152 137
f 137 152 153
f 137 153 154
f 137 154 138
f 138 154 155
f 138 155 156
f 138 156 139
f 139 156 157
f 139 157 158
f 139 158 140
f 144 159 160
f 144 160 145
f 145 160 161
f 145 161 146
f 146 161 147
f 147 161 162
f 147 162 163
f 147 163 150
f 148 151 164
f 150 165 151
f 150 163 166
f 150 166 165
f 151 165 167
f 151 167 168
f 151 168 169
f 151 169 170
f 151 170 164
f 153 171 154
f 154 171 172
f 154 172 155
f 159 173 160
f 160 162 161
f 160 173 163
f 160 163 162
f 163 174 175
f 163 175 166
f 163 173 176
f 163 176 174
f 165 166 177
f 165 177 178
f 165 178 167
f 166 175 179
f 166 179 180
f 166 180 181
f 166 181 177
f 167 178 168
f 168 178 182
f 168 182 183
f 168 183 169
f 169 183 184
f 171 185 186
f 171 186 187
f 171 187 188
f 171 188 189
f 171 189 172
f 177 181 190
f 177 190 191
f 177 191 182
f 177 182 178
f 180 192 181
f 181 192 193
f 181 193 194
f 181 194 195
f 181 195 190
f 182 196 197
f 182 197 198
f 182 198 184
f 182 184 183
f 182 191 199
f 182 199 200
f 182 200 196
f 185 201 186
f 186 201 202
f 190 195 203
f 190 203 191
f 191 203 199
f 194 204 195
f 195 204 203
f 196 200 205
f 196 205 206
f 196 206 197
f 199 203 207
f 199 207 208
f 199 208 200
f 200 208 209
f 200 209 210
f 200 210 205
f 201 211 212
f 201 212 213
f 201 213 214
f 201 214 202
f 203 215 216
f 203 216 217
f 203 217 207
f 203 204 215
f 207 217 208
f 208 217 216
f 208 216 209
f 209 216 219
f 209 219 218
f 211 220 221
f 211 221 212
f 212 222 213
f 212 221 223
f 212 223 224
f 212 224 225
f 212 225 222
f 215 226 227
f 215 227 216
f 216 227 219
f 218 219 228
f 218 228 229
f 219 227 228
f 220 230 221
f 221 231 223
f 221 230 232
f 221 232 231
f 223 233 224
f 223 231 234
f 223 234 235
f 223 235 233
f 226 236 237
f 226 237 227
f 227 237 228
f 228 236 238
f 228 238 239
f 228 239 240
f 228 240 241
f 228 241 229
f 228 237 236
f 229 241 242
f 233 235 243
f 234 244 235
f 235 244 245
f 235 245 246
f 235 246 243
f 238 247 239
f 239 248 249
f 239 249 241
f 239 241 240
f 239 247 250
f 239 250 251
f 239 251 252
f 239 252 253
f 239 253 248
f 241 254 255
f 241 255 242
f 241 249 256
f 241 256 254
f 243 246 257
f 244 258 245
f 245 259 260
f 245 260 261
f 245 261 262
f 245 262 263
f 245 263 264
f 245 264 265
f 245 265 246
f 245 258 259
f 246 265 257
f 248 253 266
f 251 267 252
f 252 268 269
f 252 269 270
f 252 270 271
f 252 271 272
f 252 272 253
f 252 267 273
f 252 273 268
f 253 272 274
f 253 274 266
f 260 275 276
f 260 276 261
f 261 276 277
f 261 277 262
f 262 277 278
f 266 274 280
f 266 280 281
f 266 281 279
f 271 282 272
f 272 282 283
f 272 283 281
f 272 281 280
f 272 280 274
f 275 284 276
f 275 285 284
f 276 284 277
f 277 284 278
f 278 284 286
f 279 281 287
f 281 283 288
f 281 288 289
f 281 289 290
f 281 290 291
f 281 291 287
f 282 292 283
f 283 293 294
f 283 294 295
f 283 295 296
f 283 296 289
f 283 289 288
f 283 292 293
f 284 285 297
f 284 297 298
f 284 298 299
f 284 299 300
f 284 300 286
f 285 301 297
f 289 296 295
f 289 295 302
f 289 302 303
f 289 303 304
f 289 304 291
f 289 291 290
f 293 305 294
f 294 305 295
f 295 305 306
f 295 306 307
f 295 307 308
f 295 308 309
f 295 309 310
f 295 310 311
f 295 311 302
f 297 301 312
f 297 312 313
f 297 313 314
f 297 314 315
f 297 315 316
f 297 316 317
f 297 317 318
f 297 318 299
f 297 299 298
f 299 319 300
f 299 318 320
f 299 320 319
f 302 311 321
f 302 304 303
f 306 322 307
f 307 322 323
f 307 323 324
f 307 324 308
f 308 324 309
f 309 325 310
f 309 324 325
f 310 325 326
f 310 326 311
f 311 326 327
f 311 327 328
f 311 328 321
f 313 329 315
f 313 315 314
f 315 329 330
f 315 330 331
f 315 331 332
f 315 332 316
f 316 332 317
f 317 332 333
f 325 334 326
f 326 334 335
f 326 335 327
f 327 335 336
f 327 336 337
f 327 337 338
f 327 338 328
f 330 339 331
f 331 339 340
f 331 340 341
f 331 341 332
f 332 341 342
f 332 342 333
f 333 342 343
f 334 344 335
f 335 344 345
f 335 345 336
f 336 345 346
f 339 347 348
f 339 348 349
f 339 349 340
f 340 349 342
f 340 342 341
f 342 349 350
f 342 350 343
f 344 351 345
f 345 352 353
f 345 353 354
f 345 354 355
f 345 355 346
f 345 351 352
f 347 356 353
f 347 353 348
f 348 353 357
f 348 357 358
f 348 358 359
f 348 359 349
f 352 358 357
f 352 357 353
f 353 356 360
f 353 360 354

