# https://github.com/mikedh/trimesh
v 0.18959711 -0.12845033 0.05347544
v 0.34499103 -0.12845033 0.05347544
v 0.18959711 -0.12845033 0.16769138
v 0.18959711 0.27039105 0.05347544
v 0.33340442 -0.12845033 0.10143831
v 0.39873159 -0.07085381 0.05347544
v 0.39677364 -0.07288433 0.06873713
v 0.39820179 -0.07120524 0.07054063
v 0.28602150 -0.12845033 0.14344622
v 0.21811441 -0.09525912 0.19193652
v 0.20482323 -0.10076495 0.18991184
v 0.18959711 -0.09666487 0.19365495
v 0.18959711 0.26148799 0.08752074
v 0.20500751 0.27031294 0.05347544
v 0.33186108 -0.12845033 0.10356507
v 0.39967602 -0.06913567 0.07251427
v 0.40082777 -0.06644132 0.07772060
v 0.40257844 -0.06421556 0.07891159
v 0.40237111 -0.06273172 0.08149773
v 0.40011370 -0.06929187 0.05347544
v 0.40055138 -0.06866709 0.06923053
v 0.23099095 -0.08124071 0.19761924
v 0.28781822 -0.12845033 0.14251044
v 0.25957736 -0.04105980 0.20527561
v 0.22732839 -0.08135784 0.19843593
v 0.20659693 -0.09182286 0.19688764
v 0.18959711 -0.09432196 0.19554353
v 0.21631768 0.26371375 0.07455596
v 0.18959711 0.25949651 0.09175726
v 0.20468503 0.24778196 0.11268465
v 0.24290004 0.25543547 0.07055764
v 0.24663170 0.25418591 0.06994513
v 0.22011845 0.26472899 0.05347544
v 0.40430605 -0.06007642 0.08175294
v 0.40391445 -0.05816304 0.08399881
v 0.37855297 -0.06733944 0.10446683
v 0.37516683 -0.06550416 0.10970718
v 0.37539718 -0.06253647 0.11191902
v 0.40435213 -0.06148217 0.07879248
v 0.40075868 -0.06835470 0.05347544
v 0.41213796 -0.05172004 0.05347544
v 0.22848015 -0.07850731 0.19962692
v 0.35273075 -0.04773709 0.13795066
v 0.33623773 -0.04441797 0.15180017
v 0.28113809 -0.04801043 0.18969065
v 0.27876547 -0.04754185 0.19146013
v 0.27865031 -0.04453512 0.19271918
v 0.26229548 -0.04043502 0.20386344
v 0.26054484 -0.03793592 0.20525859
v 0.25784972 -0.03879499 0.20627944
v 0.25543106 -0.04000549 0.20667076
v 0.21818352 -0.03434346 0.21803622
v 0.25679013 -0.04199696 0.20564991
v 0.20606712 -0.08924565 0.19857204
v 0.20979878 -0.08990947 0.19731300
v 0.18959711 -0.09162761 0.19739807
v 0.18959711 -0.09342384 0.19620708
v 0.22246802 0.24051893 0.11639374
v 0.24294610 0.24403331 0.09439445
v 0.24716151 0.24575144 0.08782700
v 0.18959711 0.25574785 0.09905633
v 0.18959711 0.25270206 0.10451786
v 0.18959711 0.24793816 0.11248048
v 0.18959711 0.24614191 0.11545796
v 0.18959711 0.24446285 0.11811216
v 0.18959711 0.23883986 0.12636402
v 0.20475413 0.22470430 0.14559001
v 0.20887738 0.23641884 0.12862690
v 0.22027969 0.23950368 0.11930315
v 0.25867897 0.23813698 0.09417327
v 0.26489842 0.24641526 0.05347544
v 0.26296350 0.24743053 0.05347544
v 0.25980771 0.24891436 0.05347544
v 0.24757613 0.25442019 0.05347544
v 0.24628618 0.25496688 0.05347544
v 0.24347591 0.25602120 0.05347544
v 0.25913969 0.23923033 0.09129788
v 0.26183477 0.23841032 0.08990271
v 0.35471177 0.18846729 0.07059167
v 0.40552691 -0.05648396 0.08156579
v 0.41340488 -0.04929903 0.05347544
v 0.40425998 -0.05488297 0.08428805
v 0.39564490 -0.04726851 0.09738894
v 0.39364088 -0.04961142 0.09893723
v 0.38972491 -0.05203243 0.10223797
v 0.38802034 -0.05441438 0.10308868
v 0.37687141 -0.05632777 0.11367147
v 0.37489042 -0.05937355 0.11409683
v 0.41252953 -0.05097812 0.05347544
v 0.35033512 -0.03727210 0.14497750
v 0.34738666 -0.03520253 0.14834629
v 0.34482977 -0.03469490 0.15057515
v 0.34211165 -0.03426536 0.15273595
v 0.28099987 -0.04469131 0.19118790
v 0.28028578 -0.04133314 0.19251500
v 0.28093076 -0.03282057 0.19375703
v 0.27994028 -0.02938430 0.19498205
v 0.28123021 -0.02665090 0.19453970
v 0.28247410 -0.02380036 0.19399524
v 0.27761373 0.00841465 0.19593485
v 0.27464223 0.00646222 0.19738105
v 0.20991397 0.01595101 0.22456965
v 0.21081233 0.01298333 0.22429742
v 0.18959711 -0.01927073 0.22582869
v 0.18959711 -0.02200413 0.22511411
v 0.18959711 -0.02262890 0.22494397
v 0.18959711 -0.08869896 0.19884427
v 0.18959711 -0.09029996 0.19818071
v 0.22120109 0.23766840 0.12170215
v 0.18959711 0.23395878 0.13313565
v 0.20814027 0.22478238 0.14465423
v 0.18959711 0.22673482 0.14293580
v 0.18959711 0.22474334 0.14552194
v 0.18959711 0.21392691 0.15899715
v 0.18959711 0.21123257 0.16205969
v 0.21279332 0.21439549 0.15595162
v 0.21364562 0.22911677 0.13711695
v 0.21263209 0.23544264 0.12857586
v 0.22361976 0.23555979 0.12313133
v 0.26443774 0.20744485 0.13191064
v 0.27233872 0.20728865 0.12617686
v 0.32372975 0.18671010 0.10979225
v 0.35256952 0.19143498 0.05347544
v 0.32748443 0.18444529 0.10890751
v 0.35588655 0.18585104 0.07309275
v 0.35719955 0.18671010 0.07014930
v 0.41402683 -0.04660469 0.05347544
v 0.41451055 -0.04394939 0.05347544
v 0.42427737 0.04722886 0.06953679
v 0.42314866 0.04355830 0.07134029
v 0.40283182 -0.05312578 0.08655094
v 0.41953218 0.04102015 0.07651259
v 0.39126825 -0.04945523 0.10155740
v 0.41759723 0.03856009 0.07884353
v 0.38965583 0.00564221 0.10809083
v 0.34393141 -0.03168816 0.15232760
v 0.37926704 -0.05308674 0.11261660
v 0.28256625 -0.02954049 0.19329765
v 0.30080995 -0.01431157 0.18247667
v 0.30092514 -0.01044577 0.18228951
v 0.26241064 0.02860273 0.20119222
v 0.30495623 0.06698740 0.17420779
v 0.30253756 0.06948651 0.17541578
v 0.27429670 0.08397350 0.19015004
v 0.26936722 0.08740976 0.19254903
v 0.26701766 0.09010412 0.19348481
v 0.23502207 0.02583028 0.21322122
v 0.21150337 0.01864536 0.22373596
v 0.20597498 0.12380297 0.21373165
v 0.18959711 0.03660767 0.22473979
v 0.18959711 0.03371808 0.22499500
v 0.18959711 0.00743844 0.22693461
v 0.18959711 0.00314310 0.22718982
v 0.18959711 0.00060495 0.22729191
v 0.18959711 -0.00271417 0.22725788
v 0.18959711 -0.00564281 0.22701968
v 0.22076343 0.23567691 0.12479872
v 0.21376079 0.22739863 0.13932879
v 0.21074322 0.22271281 0.14642370
v 0.18959711 0.20834297 0.16495210
v 0.21380687 0.21213067 0.15806137
v 0.21558055 0.21529362 0.15394394
v 0.21528110 0.21744126 0.15144287
v 0.21684748 0.22720340 0.13830794
v 0.21753854 0.22888249 0.13568777
v 0.22587720 0.21595743 0.14775079
v 0.26763958 0.20631245 0.13100888
v 0.26621142 0.20486766 0.13395233
v 0.27275336 0.20424289 0.12988596
v 0.27786711 0.19901037 0.13277836
v 0.32538825 0.18456244 0.11106831
v 0.35517249 0.18952160 0.05347544
v 0.33773500 0.17456603 0.11089817
v 0.38182393 0.16628774 0.06940068
v 0.41515553 -0.03961501 0.05347544
v 0.42446166 0.05027464 0.05347544
v 0.42347115 0.05699098 0.05347544
v 0.42241156 0.06351209 0.05347544
v 0.42176658 0.06726074 0.05347544
v 0.42098337 0.07050177 0.05347544
v 0.42070696 0.07136083 0.05347544
v 0.42298743 0.04957177 0.07157849
v 0.42259583 0.04633075 0.07261635
v 0.42457682 0.04082491 0.05347544
v 0.42489934 0.04414403 0.05347544
v 0.42487627 0.04699457 0.05347544
v 0.42084515 0.04476880 0.07501534
v 0.42123675 0.04859556 0.07460701
v 0.41725171 0.04176207 0.07921784
v 0.41540891 0.03926297 0.08122551
v 0.41331273 0.04031727 0.08338630
v 0.38889566 0.00888323 0.10873737
v 0.38732928 0.00646222 0.11031969
v 0.38624665 0.00942991 0.11106831
v 0.36480108 0.02473693 0.12879704
v 0.36072391 0.02758747 0.13211480
v 0.32407525 0.05550714 0.16008605
v 0.30783561 0.06737789 0.17202997
v 0.24329163 0.04922033 0.20784473
v 0.23122130 0.05195373 0.21293198
v 0.30560121 0.07007223 0.17318694
v 0.27024254 0.09014316 0.19171534
v 0.27293763 0.08740976 0.19052435
v 0.26489842 0.09275942 0.19408031
v 0.21684748 0.11529040 0.21087326
v 0.18959711 0.12513062 0.21391879
v 0.18959711 0.12368582 0.21437818
v 0.18959711 0.12099148 0.21493964
v 0.21979597 0.11646185 0.20952915
v 0.22516310 0.11622756 0.20711315
v 0.21578789 0.13274507 0.20524159
v 0.21433666 0.13598610 0.20461206
v 0.21267816 0.14551394 0.20148146
v 0.20871614 0.14898926 0.20183876
v 0.20602104 0.14809114 0.20342107
v 0.22205338 0.21701175 0.14865255
v 0.21604127 0.21931559 0.14873762
v 0.18959711 0.20740581 0.16580281
v 0.21659410 0.21279451 0.15610474
v 0.21376079 0.20935825 0.16054544
v 0.23138255 0.20756200 0.15358666
v 0.21878242 0.21420026 0.15358666
v 0.21857511 0.21673840 0.15084738
v 0.21910492 0.21872988 0.14805706
v 0.22774303 0.21302879 0.15016681
v 0.26586589 0.19901037 0.14135349
v 0.27722213 0.19662842 0.13578986
v 0.28058523 0.19639415 0.13352698
v 0.33556971 0.17468317 0.11302494
v 0.33508599 0.17667463 0.11098324
v 0.38223857 0.16652203 0.05347544
v 0.33755073 0.17249645 0.11350133
v 0.38320604 0.16535057 0.05347544
v 0.33904800 0.17038783 0.11334820
v 0.38299870 0.16347624 0.07003020
v 0.38461116 0.16066475 0.06986006
v 0.38650003 0.15937614 0.05347544
v 0.38398921 0.16410102 0.05347544
v 0.41927880 0.07538283 0.05347544
v 0.42123675 0.05179754 0.07377331
v 0.41918665 0.05078227 0.07663169
v 0.41070980 0.05359377 0.08488355
v 0.35517249 0.03707625 0.13573882
v 0.39589828 0.05414044 0.09789936
v 0.35987160 0.08096676 0.12525810
v 0.32326904 0.05874817 0.16025619
v 0.35385948 0.04031727 0.13643639
v 0.35929573 0.08717547 0.12462858
v 0.33632988 0.13001168 0.13463290
v 0.33550060 0.13313556 0.13458185
v 0.24792166 0.10279488 0.20010331
v 0.23603562 0.10716831 0.20437387
v 0.32951152 0.13005073 0.13983922
v 0.26798511 0.09299371 0.19232786
v 0.26644176 0.09611759 0.19227681
v 0.18959711 0.12665351 0.21327226
v 0.22679859 0.11349417 0.20709613
v 0.24635528 0.10556732 0.19996721
v 0.25614515 0.12509157 0.18662810
v 0.26013020 0.15914187 0.17002231
v 0.25612211 0.16332005 0.17020947
v 0.21148035 0.14836448 0.20076686
v 0.26084429 0.18327384 0.15707454
v 0.25824133 0.18538246 0.15717663
v 0.20784082 0.15305030 0.19988212
v 0.18959711 0.19018543 0.17766166
v 0.18959711 0.16933352 0.19105178
v 0.18959711 0.16308576 0.19503310
v 0.18959711 0.15347983 0.20105611
v 0.18959711 0.15098073 0.20262140
v 0.18959711 0.14961404 0.20331898
v 0.18959711 0.14801304 0.20406760
v 0.21244781 0.20635149 0.16333576
v 0.18959711 0.20560959 0.16718096
v 0.22693680 0.21080303 0.15283802
v 0.24471980 0.20166567 0.15222552
v 0.23043811 0.21052969 0.15130675
v 0.24764524 0.20123616 0.15086439
v 0.26376972 0.19803417 0.14373547
v 0.26826155 0.19658938 0.14210211
v 0.26667213 0.19510552 0.14443304
v 0.26545128 0.19248928 0.14737649
v 0.26358545 0.19034162 0.15026890
v 0.26135105 0.18585104 0.15511793
v 0.32478935 0.15910281 0.12917136
v 0.32764569 0.15640846 0.12857586
v 0.33273640 0.13450226 0.13599403
v 0.33515507 0.13637659 0.13323773
v 0.33761984 0.13481465 0.13192765
v 0.35362914 0.12716115 0.11887780
v 0.41070980 0.09846050 0.05347544
v 0.38778999 0.15625226 0.05347544
v 0.38673037 0.15882948 0.05347544
v 0.35445839 0.12388107 0.11955836
v 0.38389707 0.13887569 0.08081716
v 0.38592416 0.13684517 0.07949007
v 0.39815572 0.08869837 0.08803117
v 0.39999852 0.08666785 0.08668704
v 0.41142386 0.06737789 0.08051091
v 0.41920969 0.05410140 0.07569591
v 0.41117048 0.05745957 0.08382867
v 0.40916646 0.05581953 0.08597245
v 0.39732647 0.05679574 0.09624899
v 0.39787930 0.06827600 0.09379896
v 0.36049354 0.08963554 0.12296119
v 0.35489607 0.10166247 0.12505394
v 0.33847213 0.13165171 0.13237001
v 0.33022559 0.13321365 0.13837601
v 0.32700071 0.13212030 0.14080903
v 0.26515183 0.12790306 0.18043497
v 0.25913969 0.12626302 0.18450135
v 0.26535913 0.14957498 0.17107719
v 0.32785299 0.13532227 0.13900553
v 0.26142016 0.16117239 0.16828686
v 0.25877112 0.16222669 0.16929071
v 0.25835651 0.18819395 0.15528807
v 0.18959711 0.19373883 0.17529669
v 0.24665473 0.19908848 0.15317830
v 0.18959711 0.20291522 0.16912057
v 0.24962625 0.19846371 0.15214045
v 0.25566140 0.19729224 0.14958833
v 0.26402310 0.19537887 0.14594731
v 0.26261798 0.19330931 0.14860150
v 0.39437801 0.09389181 0.08983466
v 0.35233918 0.12231913 0.12202542
v 0.39534545 0.08830789 0.09121281
v 0.39670452 0.09131461 0.08845651
v 0.39716524 0.08651165 0.08993675
v 0.41170028 0.06413686 0.08122551
v 0.39490780 0.08510590 0.09248887
v 0.36434039 0.09662522 0.11773785
v 0.26644176 0.13075361 0.17846133
v 0.25437146 0.19545697 0.15185121
f 1 2 5
f 1 5 15
f 1 15 23
f 1 23 9
f 1 9 3
f 1 3 12
f 1 12 27
f 1 27 57
f 1 57 56
f 1 56 108
f 1 108 107
f 1 107 106
f 1 106 105
f 1 105 104
f 1 104 156
f 1 156 155
f 1 155 154
f 1 154 153
f 1 153 152
f 1 152 151
f 1 151 150
f 1 150 208
f 1 208 207
f 1 207 206
f 1 206 256
f 1 256 272
f 1 272 271
f 1 271 270
f 1 270 269
f 1 269 268
f 1 268 267
f 1 267 266
f 1 266 317
f 1 317 319
f 1 319 274
f 1 274 218
f 1 218 160
f 1 160 115
f 1 115 114
f 1 114 113
f 1 113 112
f 1 112 110
f 1 110 66
f 1 66 65
f 1 65 64
f 1 64 63
f 1 63 62
f 1 62 61
f 1 61 29
f 1 29 13
f 1 13 4
f 1 4 14
f 1 14 33
f 1 33 76
f 1 76 75
f 1 75 74
f 1 74 73
f 1 73 72
f 1 72 71
f 1 71 123
f 1 123 172
f 1 172 231
f 1 231 233
f 1 233 238
f 1 238 237
f 1 237 293
f 1 293 292
f 1 292 291
f 1 291 239
f 1 239 181
f 1 181 180
f 1 180 179
f 1 179 178
f 1 178 177
f 1 177 176
f 1 176 186
f 1 186 185
f 1 185 184
f 1 184 175
f 1 175 128
f 1 128 127
f 1 127 81
f 1 81 89
f 1 89 41
f 1 41 40
f 1 40 20
f 1 20 6
f 1 6 2
f 2 6 7
f 2 7 8
f 2 8 5
f 3 9 10
f 3 10 11
f 3 11 12
f 4 13 14
f 5 8 16
f 5 16 17
f 5 17 18
f 5 18 19
f 5 19 15
f 6 20 21
f 6 21 7
f 7 21 8
f 8 21 16
f 9 22 10
f 9 23 24
f 9 24 22
f 10 22 25
f 10 25 26
f 10 26 11
f 11 26 27
f 11 27 12
f 13 28 14
f 13 29 30
f 13 30 28
f 14 28 31
f 14 31 32
f 14 32 33
f 15 19 34
f 15 34 35
f 15 35 36
f 15 36 37
f 15 37 38
f 15 38 23
f 16 21 18
f 16 18 17
f 18 39 34
f 18 34 19
f 18 21 39
f 20 40 21
f 21 40 41
f 21 41 39
f 22 42 25
f 22 24 42
f 23 38 43
f 23 43 44
f 23 44 45
f 23 45 46
f 23 46 24
f 24 46 47
f 24 47 48
f 24 48 49
f 24 49 50
f 24 50 51
f 24 51 52
f 24 52 53
f 24 53 42
f 25 54 55
f 25 55 26
f 25 42 54
f 26 55 54
f 26 54 56
f 26 56 57
f 26 57 27
f 28 30 58
f 28 58 59
f 28 59 60
f 28 60 31
f 29 61 30
f 30 62 63
f 30 63 64
f 30 64 65
f 30 65 66
f 30 66 67
f 30 67 68
f 30 68 69
f 30 69 58
f 30 61 62
f 31 60 70
f 31 70 32
f 32 71 72
f 32 72 73
f 32 73 74
f 32 74 75
f 32 75 76
f 32 76 33
f 32 70 77
f 32 77 78
f 32 78 79
f 32 79 71
f 34 80 35
f 34 39 81
f 34 81 80
f 35 80 82
f 35 82 83
f 35 83 84
f 35 84 85
f 35 85 86
f 35 86 38
f 35 38 36
f 36 38 37
f 38 86 87
f 38 87 88
f 38 88 43
f 39 41 89
f 39 89 81
f 42 53 52
f 42 52 54
f 43 88 90
f 43 90 91
f 43 91 92
f 43 92 44
f 44 92 45
f 45 92 93
f 45 93 94
f 45 94 46
f 46 94 47
f 47 94 95
f 47 95 48
f 48 95 96
f 48 96 97
f 48 97 49
f 49 97 98
f 49 98 99
f 49 99 100
f 49 100 101
f 49 101 102
f 49 102 103
f 49 103 50
f 50 103 52
f 50 52 51
f 52 103 104
f 52 104 105
f 52 105 106
f 52 106 54
f 54 107 108
f 54 108 56
f 54 106 107
f 58 69 109
f 58 109 70
f 58 70 59
f 59 70 60
f 66 110 67
f 67 111 68
f 67 110 112
f 67 112 113
f 67 113 114
f 67 114 115
f 67 115 116
f 67 116 111
f 68 111 117
f 68 117 118
f 68 118 69
f 69 118 109
f 70 78 77
f 70 109 119
f 70 119 120
f 70 120 121
f 70 121 122
f 70 122 79
f 70 79 78
f 71 79 123
f 79 122 124
f 79 124 125
f 79 125 126
f 79 126 123
f 80 81 127
f 80 127 128
f 80 128 129
f 80 129 130
f 80 130 82
f 82 131 83
f 82 130 132
f 82 132 131
f 83 133 84
f 83 131 132
f 83 132 134
f 83 134 135
f 83 135 136
f 83 136 91
f 83 91 133
f 84 133 85
f 85 137 86
f 85 133 137
f 86 137 87
f 87 137 90
f 87 90 88
f 90 137 133
f 90 133 91
f 91 136 92
f 92 136 93
f 93 136 94
f 94 136 95
f 95 136 96
f 96 136 138
f 96 138 97
f 97 138 98
f 98 138 136
f 98 136 99
f 99 136 139
f 99 139 140
f 99 140 100
f 100 141 101
f 100 140 142
f 100 142 143
f 100 143 144
f 100 144 145
f 100 145 146
f 100 146 141
f 101 141 147
f 101 147 148
f 101 148 102
f 102 148 149
f 102 149 150
f 102 150 151
f 102 151 152
f 102 152 153
f 102 153 154
f 102 154 155
f 102 155 103
f 103 155 156
f 103 156 104
f 109 118 157
f 109 157 119
f 111 158 117
f 111 116 159
f 111 159 158
f 115 160 116
f 116 160 161
f 116 161 162
f 116 162 163
f 116 163 159
f 117 157 118
f 117 158 164
f 117 164 165
f 117 165 157
f 119 157 166
f 119 166 120
f 120 167 121
f 120 166 168
f 120 168 167
f 121 167 169
f 121 169 170
f 121 170 122
f 122 171 124
f 122 170 171
f 123 126 172
f 124 173 125
f 124 171 173
f 125 173 174
f 125 174 126
f 126 174 172
f 128 175 129
f 129 176 177
f 129 177 178
f 129 178 179
f 129 179 180
f 129 180 181
f 129 181 182
f 129 182 183
f 129 183 130
f 129 175 184
f 129 184 185
f 129 185 186
f 129 186 176
f 130 183 132
f 132 183 187
f 132 187 134
f 134 187 188
f 134 188 189
f 134 189 190
f 134 190 135
f 135 190 191
f 135 191 192
f 135 192 193
f 135 193 136
f 136 140 139
f 136 193 192
f 136 192 194
f 136 194 195
f 136 195 196
f 136 196 197
f 136 197 198
f 136 198 142
f 136 142 140
f 141 199 200
f 141 200 147
f 141 146 199
f 142 198 201
f 142 201 143
f 143 201 202
f 143 202 203
f 143 203 144
f 144 203 145
f 145 203 202
f 145 202 146
f 146 202 204
f 146 204 200
f 146 200 199
f 147 200 148
f 148 200 205
f 148 205 149
f 149 206 207
f 149 207 208
f 149 208 150
f 149 205 209
f 149 209 210
f 149 210 211
f 149 211 212
f 149 212 213
f 149 213 214
f 149 214 215
f 149 215 206
f 157 165 216
f 157 216 166
f 158 159 163
f 158 163 217
f 158 217 164
f 160 218 161
f 161 219 162
f 161 218 220
f 161 220 221
f 161 221 219
f 162 219 222
f 162 222 223
f 162 223 163
f 163 223 217
f 164 217 223
f 164 223 224
f 164 224 216
f 164 216 165
f 166 216 225
f 166 225 168
f 167 168 169
f 168 226 170
f 168 170 169
f 168 225 226
f 170 226 227
f 170 227 228
f 170 228 171
f 171 229 230
f 171 230 173
f 171 228 229
f 172 174 231
f 173 230 229
f 173 229 232
f 173 232 174
f 174 233 231
f 174 232 234
f 174 234 235
f 174 235 236
f 174 236 237
f 174 237 238
f 174 238 233
f 181 239 236
f 181 236 182
f 182 240 188
f 182 188 183
f 182 236 240
f 183 188 187
f 188 240 241
f 188 241 189
f 189 191 190
f 189 241 191
f 191 241 242
f 191 242 192
f 192 242 194
f 194 242 195
f 195 242 196
f 196 243 197
f 196 242 244
f 196 244 243
f 197 244 245
f 197 245 246
f 197 246 198
f 197 243 247
f 197 247 244
f 198 245 248
f 198 248 249
f 198 249 250
f 198 250 201
f 198 246 245
f 200 204 251
f 200 251 252
f 200 252 205
f 201 250 253
f 201 253 202
f 202 253 254
f 202 254 204
f 204 254 255
f 204 255 251
f 205 252 209
f 206 215 256
f 209 252 257
f 209 257 210
f 210 257 251
f 210 251 258
f 210 258 259
f 210 259 211
f 211 259 260
f 211 260 213
f 211 213 212
f 213 260 261
f 213 261 262
f 213 262 214
f 214 262 261
f 214 261 263
f 214 263 264
f 214 264 265
f 214 265 215
f 215 265 266
f 215 266 267
f 215 267 268
f 215 268 269
f 215 269 270
f 215 270 271
f 215 271 272
f 215 272 256
f 216 223 225
f 216 224 223
f 218 273 220
f 218 274 273
f 219 221 275
f 219 275 222
f 220 273 276
f 220 276 221
f 221 277 275
f 221 276 277
f 222 275 225
f 222 225 223
f 225 275 277
f 225 277 278
f 225 278 226
f 226 279 280
f 226 280 227
f 226 278 279
f 227 280 232
f 227 232 229
f 227 229 228
f 232 280 281
f 232 281 282
f 232 282 283
f 232 283 284
f 232 284 263
f 232 263 285
f 232 285 286
f 232 286 287
f 232 287 288
f 232 288 250
f 232 250 234
f 234 236 235
f 234 250 289
f 234 289 290
f 234 290 236
f 236 291 292
f 236 292 293
f 236 293 237
f 236 290 294
f 236 294 295
f 236 295 296
f 236 296 297
f 236 297 298
f 236 298 299
f 236 299 300
f 236 300 240
f 236 239 291
f 240 300 241
f 241 300 301
f 241 301 242
f 242 301 302
f 242 302 244
f 243 244 247
f 244 302 303
f 244 303 245
f 245 303 302
f 245 302 304
f 245 304 248
f 248 304 305
f 248 305 306
f 248 306 307
f 248 307 249
f 249 307 250
f 250 288 287
f 250 287 308
f 250 308 253
f 250 307 289
f 251 255 258
f 251 257 252
f 253 308 254
f 254 308 255
f 255 308 309
f 255 309 310
f 255 310 258
f 258 310 311
f 258 311 259
f 259 311 260
f 260 312 313
f 260 313 314
f 260 314 315
f 260 315 261
f 260 311 310
f 260 310 312
f 261 315 263
f 263 284 264
f 263 315 314
f 263 314 285
f 264 284 316
f 264 316 273
f 264 273 265
f 265 273 317
f 265 317 266
f 273 318 276
f 273 274 319
f 273 319 317
f 273 316 318
f 276 318 320
f 276 320 321
f 276 321 278
f 276 278 277
f 278 321 279
f 279 321 322
f 279 322 280
f 280 322 281
f 281 322 323
f 281 323 282
f 282 323 283
f 283 316 284
f 283 323 316
f 285 314 313
f 285 313 286
f 286 313 287
f 287 313 308
f 289 307 294
f 289 294 290
f 294 324 295
f 294 307 325
f 294 325 326
f 294 326 324
f 295 324 327
f 295 327 296
f 296 327 297
f 297 326 328
f 297 328 298
f 297 327 326
f 298 328 299
f 299 328 329
f 299 329 300
f 300 329 301
f 301 329 328
f 301 328 330
f 301 330 304
f 301 304 302
f 304 330 305
f 305 331 306
f 305 330 331
f 306 331 307
f 307 331 325
f 308 313 309
f 309 313 310
f 310 313 332
f 310 332 312
f 312 332 313
f 316 323 333
f 316 333 320
f 316 320 318
f 320 333 321
f 321 333 323
f 321 323 322
f 324 326 327
f 325 331 330
f 325 330 326
f 326 330 328

