# https://github.com/mikedh/trimesh
v -0.11829397 -0.10380158 0.25003049
v -0.11833003 -0.01289135 0.23736520
v -0.11833003 -0.05820040 0.24731649
v -0.11843821 -0.08519302 0.25475484
v -0.11829397 -0.17496395 0.23837037
v -0.11829397 -0.10380158 -0.23280855
v -0.22326437 -0.01289135 0.21067762
v -0.22506738 -0.03602789 0.23570664
v -0.21363637 -0.03675821 0.23766676
v -0.13538636 -0.07368318 0.25364915
v -0.12644351 -0.07809432 0.25435278
v -0.11833003 -0.03693348 -0.24281010
v -0.12117876 -0.02828650 -0.24301113
v -0.30832970 -0.01289135 -0.25869197
v -0.14533891 -0.08008078 0.25173929
v -0.15114455 -0.16958879 0.23580717
v -0.11829397 -0.20663062 0.21776415
v -0.11829397 -0.12077421 -0.22989351
v -0.11833003 -0.07555280 -0.23808575
v -0.11833003 -0.06261154 -0.23984481
v -0.27922934 -0.01289135 0.18755844
v -0.23444295 -0.04388613 0.23595795
v -0.29192245 -0.04712875 0.20585275
v -0.17054479 -0.07181356 0.24812064
v -0.13250157 -0.05454880 -0.24255881
v -0.28698224 -0.02913366 -0.25703341
v -0.35769573 -0.02816965 -0.25728470
v -0.37594205 -0.01289135 -0.25673187
v -0.17108569 -0.16164291 0.23319370
v -0.18129063 -0.16088338 0.23078126
v -0.18990895 -0.16175976 0.22746415
v -0.16156587 -0.18910293 0.21927193
v -0.14544709 -0.20955190 0.20911959
v -0.12067392 -0.21422595 0.21198437
v -0.12114270 -0.22079882 0.20645586
v -0.11829397 -0.23128621 0.19630353
v -0.11829397 -0.14198270 -0.22396293
v -0.29206669 -0.11268227 -0.23989508
v -0.30897880 -0.05086799 0.19821337
v -0.42004332 -0.01289135 0.07909934
v -0.24677543 -0.05121854 0.22987659
v -0.22149745 -0.14960724 0.22178489
v -0.20656863 -0.06827882 0.23982790
v -0.38365886 -0.02954265 -0.25572670
v -0.35113281 -0.06591258 -0.24848938
v -0.39923674 -0.01289135 -0.25251010
v -0.21165308 -0.15483633 0.22329265
v -0.20022209 -0.16056204 0.22434810
v -0.18695204 -0.19041751 0.20916985
v -0.17815343 -0.20341721 0.20303825
v -0.15839259 -0.19590952 0.21530145
v -0.15424570 -0.20996088 0.20605379
v -0.13754997 -0.22001007 0.20258591
v -0.13336702 -0.22818965 0.19580093
v -0.13001344 -0.23435356 0.18982011
v -0.11836609 -0.23721641 0.18956880
v -0.11829397 -0.24884310 0.17439057
v -0.14021839 -0.15953958 -0.21888678
v -0.11829397 -0.19339722 -0.20044169
v -0.11861850 -0.17046517 -0.21270491
v -0.29203063 -0.12918749 -0.23401475
v -0.36072475 -0.08849407 -0.24079974
v -0.37529296 -0.07108325 -0.24471994
v -0.28398925 -0.13660754 -0.23114999
v -0.31651530 -0.05273761 0.19379057
v -0.28615287 -0.12430896 0.19826363
v -0.38376704 -0.04134462 0.13197190
v -0.46259400 -0.01289135 -0.00825095
v -0.40313122 -0.04613551 0.11568795
v -0.25809824 -0.13800976 0.20846623
v -0.27436125 -0.13015151 0.20278695
v -0.24042889 -0.14691967 0.21419576
v -0.39303443 -0.03053589 -0.25371632
v -0.38257706 -0.05796670 -0.24758472
v -0.40882868 -0.02927974 -0.24858989
v -0.43861416 -0.01289135 -0.23125051
v -0.24100585 -0.17700884 0.19469523
v -0.22452646 -0.18407834 0.19756000
v -0.20426080 -0.18869396 0.20349057
v -0.19524583 -0.19991167 0.19861545
v -0.17609800 -0.21001929 0.19796208
v -0.16866967 -0.21603712 0.19559990
v -0.15413752 -0.22684586 0.19007140
v -0.14007416 -0.24443197 0.17383772
v -0.12676805 -0.25334188 0.16589677
v -0.11966425 -0.25378007 0.16695222
v -0.11829397 -0.26149225 0.15574445
v -0.11995272 -0.17917058 -0.20908625
v -0.18929593 -0.17782679 -0.21094583
v -0.11966425 -0.21846180 -0.18466033
v -0.14815158 -0.19766229 -0.20044169
v -0.11829397 -0.23128621 -0.17365360
v -0.30122590 -0.15372624 -0.22245517
v -0.30843788 -0.15232402 -0.22230439
v -0.32048190 -0.13949960 -0.22657642
v -0.32672027 -0.13456264 -0.22783288
v -0.36429468 -0.11016996 -0.23160233
v -0.38459641 -0.07143380 -0.24270958
v -0.32365516 -0.05408140 0.18806104
v -0.31002453 -0.11592488 0.18499523
v -0.29520389 -0.12439659 0.19248384
v -0.46587545 -0.01289135 -0.01609137
v -0.46356761 -0.04137383 -0.01684525
v -0.39512593 -0.05671055 0.12181956
v -0.46006981 -0.04847254 -0.01267375
v -0.44485253 -0.07572808 0.00099672
v -0.40161669 -0.08881541 0.08060712
v -0.26848349 -0.13479635 0.20409368
v -0.27753454 -0.14259617 0.19389109
v -0.26058638 -0.16184740 0.19288591
v -0.24796541 -0.16894610 0.19610249
v -0.39436865 -0.05054665 -0.24743393
v -0.40024641 -0.03789751 -0.24974585
v -0.40893686 -0.03953342 -0.24562460
v -0.42624563 -0.02866627 -0.23904066
v -0.45202845 -0.02863705 -0.22049506
v -0.44423950 -0.01289135 -0.22712927
v -0.25139111 -0.17756388 0.18831234
v -0.24129432 -0.19532526 0.17996933
v -0.21316761 -0.19593874 0.19374031
v -0.20718166 -0.20140153 0.19178021
v -0.19899605 -0.20365091 0.19348902
v -0.18049732 -0.21302822 0.19318746
v -0.16942692 -0.22091568 0.19042322
v -0.15958257 -0.23555128 0.17725533
v -0.15247877 -0.24782065 0.16398694
v -0.14068718 -0.24817121 0.16830921
v -0.14119202 -0.25754851 0.15423667
v -0.12979709 -0.25854176 0.15679988
v -0.13102312 -0.27869856 0.12146775
v -0.12240480 -0.28354791 0.11553717
v -0.12135907 -0.28901070 0.10211800
v -0.12042150 -0.29304206 0.09085996
v -0.11829397 -0.29894304 0.07241488
v -0.28921795 -0.16275300 -0.21773082
v -0.19149560 -0.20172286 -0.19702408
v -0.11829397 -0.28129852 -0.08826341
v -0.18597843 -0.23417827 -0.16541110
v -0.19751760 -0.23248394 -0.16691887
v -0.20148419 -0.22120780 -0.17983547
v -0.29844928 -0.16462262 -0.21546915
v -0.30129802 -0.17511001 -0.20727693
v -0.32506150 -0.14963645 -0.22009300
v -0.32325852 -0.14361861 -0.22406346
v -0.35827267 -0.12962568 -0.22260594
v -0.37489629 -0.10908909 -0.22893859
v -0.37554538 -0.10196117 -0.23245673
v -0.38438004 -0.09755003 -0.23170283
v -0.39270991 -0.06719794 -0.24195570
v -0.34561566 -0.09299284 0.16177553
v -0.33681703 -0.10648915 0.16348435
v -0.30944756 -0.13838953 0.16956569
v -0.29758385 -0.14177820 0.17911492
v -0.28806403 -0.14323884 0.18605067
v -0.46912086 -0.01289135 -0.02513800
v -0.47824401 -0.03211337 -0.05840952
v -0.45992559 -0.05811276 -0.02156961
v -0.38059378 -0.11826190 0.08960349
v -0.36739585 -0.12106633 0.10875220
v -0.34017062 -0.12562352 0.14624548
v -0.34752682 -0.09795901 0.15629730
v -0.45758170 -0.05562968 -0.01252297
v -0.45253330 -0.07195963 -0.01599085
v -0.45433629 -0.07464720 -0.02488670
v -0.45008123 -0.09042212 -0.03513956
v -0.44142684 -0.08285600 0.00049413
v -0.43425092 -0.08942888 0.00918895
v -0.41340828 -0.10897224 0.03351435
v -0.38813028 -0.11870010 0.07593302
v -0.38297373 -0.12863246 0.07558121
v -0.28269112 -0.15898454 0.18001959
v -0.25737706 -0.17028990 0.18946829
v -0.39981371 -0.05378927 -0.24466968
v -0.40727809 -0.04660292 -0.24416709
v -0.42772406 -0.04969948 -0.23170283
v -0.43457544 -0.03684585 -0.23140128
v -0.45992559 -0.03018533 -0.20943807
v -0.44384286 -0.04587260 -0.21933910
v -0.44467223 -0.07026529 -0.20431164
v -0.44979274 -0.07207648 -0.19722511
v -0.47269076 -0.03106171 -0.18350437
v -0.48632145 -0.01289135 -0.13887431
v -0.25892761 -0.18469180 0.17775792
v -0.26210091 -0.19374777 0.16609782
v -0.24731633 -0.20712723 0.16333356
v -0.23624593 -0.21361247 0.16328330
v -0.22755550 -0.20590030 0.17660196
v -0.22001898 -0.20516998 0.18137658
v -0.18825020 -0.21691352 0.18544756
v -0.20566714 -0.22962108 0.16273046
v -0.19978938 -0.23338953 0.16112217
v -0.17627831 -0.24244550 0.16061957
v -0.16776817 -0.24720719 0.15810663
v -0.14472589 -0.25208572 0.16092113
v -0.16246736 -0.25044981 0.15554340
v -0.15496691 -0.25439352 0.15272890
v -0.13863176 -0.27542675 0.12403096
v -0.14072323 -0.27960417 0.11428070
v -0.13354731 -0.28287601 0.11121490
v -0.13452093 -0.28997472 0.09055841
v -0.12839074 -0.29751164 0.07095737
v -0.12283751 -0.29996550 0.06618275
v -0.11829397 -0.30443507 0.05165788
v -0.28034723 -0.19065121 -0.19752666
v -0.20948949 -0.20718566 -0.19109350
v -0.11829397 -0.29003316 -0.07258258
v -0.20263810 -0.23575577 -0.16008364
v -0.21525908 -0.23785910 -0.15304737
v -0.25921610 -0.21296979 -0.17666914
v -0.22730309 -0.21968873 -0.17671940
v -0.20797497 -0.22284371 -0.17697069
v -0.29394180 -0.18217951 -0.20260283
v -0.32747751 -0.17280219 -0.19853184
v -0.33526647 -0.16944273 -0.19863236
v -0.33270621 -0.16126314 -0.20793030
v -0.34399295 -0.14794211 -0.21521786
v -0.35874146 -0.13243011 -0.22079661
v -0.36793673 -0.12851560 -0.22024377
v -0.38488489 -0.11358786 -0.22215362
v -0.38910389 -0.10570040 -0.22491786
v -0.39714527 -0.08875699 -0.23094895
v -0.40648478 -0.07955495 -0.23114999
v -0.31900343 -0.14846794 0.15212579
v -0.30609399 -0.16634616 0.15122113
v -0.47279894 -0.01289135 -0.03634578
v -0.47640496 -0.04520071 -0.07288413
v -0.46234161 -0.07359555 -0.05308205
v -0.45992559 -0.07146301 -0.03790381
v -0.46118766 -0.06521147 -0.03348101
v -0.48570842 -0.01289135 -0.10158207
v -0.48210242 -0.04128619 -0.12641007
v -0.36487165 -0.13637385 0.09870038
v -0.33602372 -0.14198270 0.13699780
v -0.32704479 -0.14621855 0.14493874
v -0.36036417 -0.13999623 0.10221852
v -0.44928789 -0.10093872 -0.04971469
v -0.43623421 -0.12270226 -0.04448775
v -0.43046463 -0.11163060 -0.01222142
v -0.42379355 -0.11875853 -0.00629084
v -0.40962201 -0.11770687 0.02989570
v -0.38228858 -0.13987938 0.06321747
v -0.27374825 -0.18141997 0.16825895
v -0.29610538 -0.17458418 0.15398538
v -0.41369677 -0.05916442 -0.23632668
v -0.42963523 -0.06462722 -0.22255568
v -0.45714897 -0.05971947 -0.19501370
v -0.46176463 -0.05197807 -0.19260126
v -0.46497396 -0.04292211 -0.19260126
v -0.43958777 -0.07564044 -0.20642252
v -0.43984020 -0.09933202 -0.18863080
v -0.44579008 -0.09828036 -0.18104169
v -0.48037153 -0.02852020 -0.16505930
v -0.46879631 -0.04271762 -0.18430853
v -0.47186142 -0.03959185 -0.17903131
v -0.48412177 -0.02933817 -0.15078571
v -0.48664597 -0.01289135 -0.13163701
v -0.28788373 -0.18343565 0.15308072
v -0.28312382 -0.19284217 0.14735118
v -0.26267785 -0.19830497 0.16046880
v -0.26541841 -0.20663062 0.14760247
v -0.25954065 -0.21241474 0.14503926
v -0.24490032 -0.21796519 0.14956258
v -0.23278418 -0.21881235 0.15850869
v -0.22092047 -0.21206419 0.17358641
v -0.23494779 -0.22252238 0.15112060
v -0.21269882 -0.23885232 0.14242579
v -0.17415078 -0.24928129 0.15031646
v -0.15237059 -0.27323580 0.12016101
v -0.14252622 -0.28018844 0.11156671
v -0.17285262 -0.28699502 0.07020348
v -0.16564064 -0.29032528 0.06562991
v -0.13798268 -0.29648918 0.06703716
v -0.14591587 -0.29917675 0.05035114
v -0.11840215 -0.30875856 0.03044855
v -0.11829397 -0.31132928 -0.00513489
v -0.29549238 -0.18390305 -0.19998936
v -0.26866379 -0.20975637 -0.17797588
v -0.27818361 -0.20759463 -0.17747329
v -0.30613005 -0.18927822 -0.18928418
v -0.11829397 -0.29943967 -0.05242869
v -0.13754997 -0.29134774 -0.06705408
v -0.23851772 -0.24679822 -0.13038053
v -0.27216160 -0.22041905 -0.15963131
v -0.31972465 -0.18331881 -0.19003806
v -0.35459456 -0.15597562 -0.20345724
v -0.34475023 -0.16003621 -0.20406035
v -0.33804306 -0.17440890 -0.19124427
v -0.35481092 -0.16520686 -0.19320437
v -0.34781530 -0.15290828 -0.20948832
v -0.36241958 -0.13929512 -0.21501683
v -0.37053305 -0.13532218 -0.21446398
v -0.38917601 -0.12834032 -0.20984013
v -0.40251818 -0.09977021 -0.22185206
v -0.41153318 -0.09717027 -0.21803237
v -0.31222418 -0.16655067 0.14328019
v -0.29646599 -0.18028067 0.14750196
v -0.47622466 -0.05241627 -0.09213336
v -0.47164506 -0.05878466 -0.07454268
v -0.46565908 -0.07251467 -0.06931574
v -0.46219736 -0.07803589 -0.06202817
v -0.45927650 -0.08075268 -0.05242869
v -0.45372325 -0.09430742 -0.05453956
v -0.48401359 -0.03535600 -0.13616031
v -0.47849643 -0.05145225 -0.12515357
v -0.33789882 -0.15220718 0.12393044
v -0.33580735 -0.16211031 0.11624081
v -0.34965438 -0.15463184 0.10262059
v -0.35289976 -0.14645225 0.10694288
v -0.44665551 -0.10870932 -0.05504216
v -0.43598181 -0.12728867 -0.05343387
v -0.43140218 -0.13614014 -0.05594682
v -0.42487535 -0.14496240 -0.05464008
v -0.35286370 -0.16917981 0.07321903
v -0.35318825 -0.15550822 0.09513199
v -0.36259988 -0.17712569 0.03356461
v -0.42840922 -0.09389844 -0.20481423
v -0.46594757 -0.05118933 -0.18370542
v -0.43403456 -0.09346025 -0.19948676
v -0.43017614 -0.10654758 -0.19234997
v -0.42833710 -0.10242857 -0.19873288
v -0.41128075 -0.13689968 -0.17330179
v -0.41099226 -0.14700730 -0.15530904
v -0.44146290 -0.11481480 -0.15626395
v -0.44726855 -0.11750238 -0.12997845
v -0.46201706 -0.07765612 -0.15822406
v -0.47914553 -0.03731325 -0.15907846
v -0.47312349 -0.04628158 -0.16732095
v -0.48347270 -0.03415827 -0.14490540
v -0.29963925 -0.18790521 0.13398226
v -0.29167002 -0.19707803 0.13046412
v -0.27183709 -0.20420596 0.14413460
v -0.26430055 -0.21498547 0.13538952
v -0.25185987 -0.22187969 0.13659574
v -0.23678684 -0.22941659 0.13815376
v -0.21453787 -0.24262078 0.13347967
v -0.20263810 -0.24910602 0.12991127
v -0.20289052 -0.27396610 0.07397291
v -0.18590631 -0.28597257 0.05939778
v -0.17458349 -0.29365551 0.03838948
v -0.14717796 -0.30358788 0.02240709
v -0.15438995 -0.30513614 0.00159983
v -0.11915942 -0.31024840 0.01351124
v -0.14771886 -0.30650917 -0.00206908
v -0.11847427 -0.31077421 -0.01458359
v -0.30158651 -0.20005773 -0.17712148
v -0.28442198 -0.20867550 -0.17310074
v -0.32102281 -0.19205344 -0.17782509
v -0.14288683 -0.29865092 -0.04679967
v -0.11854640 -0.30700576 -0.03172194
v -0.17130204 -0.28591412 -0.06846133
v -0.24529698 -0.25725639 -0.10540176
v -0.29754779 -0.22798517 -0.13244115
v -0.28535953 -0.21957189 -0.15490696
v -0.37330967 -0.14361861 -0.20581941
v -0.36674675 -0.14312200 -0.20999092
v -0.36310470 -0.15986092 -0.19420956
v -0.32470089 -0.19999930 -0.16405411
v -0.33227348 -0.20005773 -0.15857588
v -0.34687775 -0.18702883 -0.16701940
v -0.36818916 -0.16132157 -0.18807796
v -0.41430980 -0.10488245 -0.21024221
v -0.38167557 -0.14233325 -0.20144688
v -0.38993329 -0.14034678 -0.19586810
v -0.40489814 -0.11907987 -0.20511578
v -0.31727257 -0.16877083 0.13388175
v -0.30616611 -0.17884925 0.13679677
v -0.46980599 -0.06640920 -0.08248362
v -0.47272682 -0.06237783 -0.09519917
v -0.46172857 -0.08481326 -0.07720641
v -0.45516568 -0.09676129 -0.06871263
v -0.47910947 -0.04891073 -0.13264218
v -0.48033547 -0.04374006 -0.14003026
v -0.46194494 -0.09182433 -0.11138259
v -0.46562302 -0.08259308 -0.10695979
v -0.46980599 -0.07222255 -0.10801523
v -0.33908880 -0.16243166 0.11015946
v -0.33129987 -0.17221794 0.10865168
v -0.31474838 -0.18442889 0.11684392
v -0.44990093 -0.10923515 -0.07388932
v -0.44344619 -0.11782372 -0.06273180
v -0.44232833 -0.12188429 -0.07057221
v -0.43032038 -0.13985017 -0.06393801
v -0.42141360 -0.15223639 -0.06609915
v -0.35354882 -0.20744857 -0.01553852
v -0.34341601 -0.19015460 0.05175840
v -0.34334388 -0.18410754 0.06392109
v -0.33472556 -0.18293904 0.08382370
v -0.34197360 -0.19842182 0.03612782
v -0.40432119 -0.13836031 -0.18074013
v -0.41719458 -0.11040366 -0.20245205
v -0.41607672 -0.11671363 -0.19637071
v -0.39804676 -0.14686124 -0.17626707
v -0.39999402 -0.14957802 -0.16892925
v -0.38326222 -0.17689198 -0.14731784
v -0.40677327 -0.15471947 -0.14651369
v -0.41506705 -0.15553744 -0.12274114
v -0.43432301 -0.12594488 -0.14766964
v -0.41499493 -0.15951037 -0.10912093
v -0.41914183 -0.15898454 -0.09137947
v -0.43082523 -0.14379390 -0.09876756
v -0.45004517 -0.11601252 -0.11625772
v -0.46421671 -0.08457956 -0.12238933
v -0.47362834 -0.05679819 -0.14666447
v -0.30439916 -0.19634771 0.11287344
v -0.29736748 -0.20032065 0.11629106
v -0.27724606 -0.20940582 0.12850402
v -0.27562335 -0.21746856 0.11503459
v -0.26127151 -0.23020534 0.10890298
v -0.24998477 -0.22865707 0.12523718
v -0.24479213 -0.22640768 0.13564081
v -0.25113869 -0.23806357 0.10448018
v -0.22153351 -0.26473486 0.07593302
v -0.22174986 -0.26943812 0.06452420
v -0.21381667 -0.27530989 0.05658327
v -0.21147278 -0.28331420 0.02778482
v -0.20754224 -0.28617704 0.02135165
v -0.20076299 -0.29254544 0.00149931
v -0.20667681 -0.29239938 -0.01151779
v -0.13257369 -0.30840799 -0.01232193
v -0.12482081 -0.30884618 -0.01880536
v -0.12085423 -0.30867091 -0.02312764
v -0.30054078 -0.20788676 -0.16531059
v -0.32033765 -0.19774993 -0.17008521
v -0.16326068 -0.29365551 -0.05127272
v -0.17447531 -0.28763771 -0.06273180
v -0.14966610 -0.30054975 -0.03473749
v -0.25261715 -0.26108325 -0.09253544
v -0.30674306 -0.23677821 -0.10680901
v -0.30562520 -0.23055589 -0.12088156
v -0.37918743 -0.14966567 -0.19436035
v -0.35055587 -0.19748701 -0.14797120
v -0.38311797 -0.15761155 -0.17908157
v -0.38210827 -0.15322962 -0.18677121
v -0.36613375 -0.19529605 -0.13776861
v -0.37987256 -0.17099100 -0.16179246
v -0.39501774 -0.13985017 -0.19074169
v -0.46558696 -0.08063583 -0.09479709
v -0.46053860 -0.09045133 -0.08735875
v -0.45714897 -0.09629389 -0.08107636
v -0.45458871 -0.10508694 -0.09524942
v -0.31709227 -0.19900608 0.08598483
v -0.44568190 -0.11884616 -0.08414216
v -0.43872234 -0.13029757 -0.08660486
v -0.43280852 -0.13891536 -0.08318724
v -0.42058420 -0.15682280 -0.08328776
v -0.35232279 -0.21530682 -0.04021573
v -0.31384686 -0.23397379 -0.00010898
v -0.32004917 -0.21811125 0.03788689
v -0.32902810 -0.20949346 0.03949518
v -0.32650390 -0.20239475 0.06130762
v -0.39076266 -0.15071732 -0.18028779
v -0.38261312 -0.16322041 -0.17098987
v -0.37114608 -0.19377698 -0.13344632
v -0.39133963 -0.17928743 -0.12178622
v -0.39811888 -0.17513922 -0.11434788
v -0.40118396 -0.17426284 -0.10685927
v -0.40565541 -0.17245165 -0.09665668
v -0.41265103 -0.16573270 -0.09409346
v -0.30494007 -0.20651376 0.09161385
v -0.28575620 -0.21571580 0.10322370
v -0.27504641 -0.22106174 0.10824961
v -0.27973419 -0.23192888 0.07663664
v -0.24774906 -0.25886309 0.05577913
v -0.23866194 -0.26616630 0.04879311
v -0.22914213 -0.27165830 0.04447083
v -0.24861449 -0.27688739 -0.01121623
v -0.24118614 -0.28106481 -0.01694577
v -0.17288868 -0.29654759 -0.03106857
v -0.14011021 -0.30624625 -0.01578981
v -0.25665584 -0.27396610 -0.03478774
v -0.27638063 -0.26175517 -0.07278361
v -0.19232497 -0.29009157 -0.04086909
v -0.17959583 -0.29388922 -0.03674785
v -0.18547359 -0.28833878 -0.05267998
v -0.18543753 -0.28690737 -0.05750485
v -0.31135875 -0.23745012 -0.10102922
v -0.31189963 -0.24022533 -0.09399295
v -0.31817406 -0.23788831 -0.09228414
v -0.37168697 -0.20052513 -0.11334269
v -0.32134733 -0.20292059 0.07010297
v -0.31658742 -0.21086647 0.06231280
v -0.37363422 -0.20356327 -0.08394113
v -0.35802025 -0.21592028 -0.07288413
v -0.34698594 -0.21936738 -0.04031624
v -0.29105702 -0.24901837 0.00481641
v -0.29733142 -0.23736247 0.02959414
v -0.31085390 -0.22500546 0.03818845
v -0.31052935 -0.21720564 0.05914649
v -0.37150666 -0.20452729 -0.10082819
v -0.37197545 -0.20552053 -0.09132922
v -0.29019156 -0.23809280 0.04070140
v -0.25225654 -0.25985634 0.04562679
v -0.25853097 -0.27358633 -0.01910691
v -0.27569547 -0.25918442 0.00149931
v -0.25261715 -0.27642000 -0.02368049
v -0.27483004 -0.26350793 -0.06268154
v -0.30793303 -0.24542521 -0.08208154
v -0.31388292 -0.24139383 -0.08745927
v -0.35820055 -0.21609557 -0.08786134
v -0.35758755 -0.21694273 -0.08042300
v -0.29624963 -0.25065428 -0.02755044
v -0.30879849 -0.24253315 -0.02739966
v -0.29949501 -0.24729483 -0.01749862
v -0.29884595 -0.24618474 -0.00749706
v -0.28626105 -0.25307897 0.00089621
v -0.27529883 -0.25544518 0.01557186
v -0.28074387 -0.24951500 0.02436720
v -0.28056356 -0.25740245 -0.00297374
f 1 2 3
f 1 3 4
f 1 4 5
f 1 5 17
f 1 17 36
f 1 36 57
f 1 57 87
f 1 87 134
f 1 134 203
f 1 203 275
f 1 275 280
f 1 280 206
f 1 206 137
f 1 137 92
f 1 92 59
f 1 59 37
f 1 37 18
f 1 18 6
f 1 6 2
f 2 7 8
f 2 8 9
f 2 9 10
f 2 10 11
f 2 11 4
f 2 4 3
f 2 6 12
f 2 12 13
f 2 13 14
f 2 14 28
f 2 28 46
f 2 46 76
f 2 76 117
f 2 117 182
f 2 182 256
f 2 256 230
f 2 230 225
f 2 225 155
f 2 155 102
f 2 102 68
f 2 68 40
f 2 40 21
f 2 21 7
f 4 11 10
f 4 10 15
f 4 15 16
f 4 16 5
f 5 16 17
f 6 18 19
f 6 19 20
f 6 20 12
f 7 21 8
f 8 22 9
f 8 21 23
f 8 23 22
f 9 22 10
f 10 24 15
f 10 22 24
f 12 20 25
f 12 25 26
f 12 26 13
f 13 26 14
f 14 26 27
f 14 27 28
f 15 24 29
f 15 29 16
f 16 29 30
f 16 30 31
f 16 31 32
f 16 32 33
f 16 33 34
f 16 34 17
f 17 34 35
f 17 35 36
f 18 37 38
f 18 38 26
f 18 26 19
f 19 25 20
f 19 26 25
f 21 39 23
f 21 40 39
f 22 41 42
f 22 42 43
f 22 43 24
f 22 23 39
f 22 39 41
f 24 43 29
f 26 38 27
f 27 44 28
f 27 38 45
f 27 45 44
f 28 44 46
f 29 43 30
f 30 42 47
f 30 47 31
f 30 43 42
f 31 47 48
f 31 48 49
f 31 49 32
f 32 49 50
f 32 50 51
f 32 51 33
f 33 51 52
f 33 52 53
f 33 53 35
f 33 35 34
f 35 53 54
f 35 54 36
f 36 54 55
f 36 55 56
f 36 56 57
f 37 58 38
f 37 59 60
f 37 60 58
f 38 61 62
f 38 62 63
f 38 63 45
f 38 58 64
f 38 64 61
f 39 65 66
f 39 66 41
f 39 40 67
f 39 67 65
f 40 68 69
f 40 69 67
f 41 70 42
f 41 66 71
f 41 71 70
f 42 70 72
f 42 72 47
f 44 73 46
f 44 45 63
f 44 63 74
f 44 74 73
f 46 73 75
f 46 75 76
f 47 72 77
f 47 77 78
f 47 78 79
f 47 79 48
f 48 79 49
f 49 79 50
f 50 52 51
f 50 79 80
f 50 80 81
f 50 81 82
f 50 82 52
f 52 82 53
f 53 82 83
f 53 83 54
f 54 83 55
f 55 83 84
f 55 84 56
f 56 84 57
f 57 84 85
f 57 85 86
f 57 86 87
f 58 60 88
f 58 88 89
f 58 89 64
f 59 90 91
f 59 91 88
f 59 88 60
f 59 92 90
f 61 64 93
f 61 93 94
f 61 94 95
f 61 95 96
f 61 96 62
f 62 96 97
f 62 97 63
f 63 97 98
f 63 98 74
f 64 89 93
f 65 99 100
f 65 100 66
f 65 67 99
f 66 100 101
f 66 101 71
f 67 69 99
f 68 102 103
f 68 103 69
f 69 104 99
f 69 103 105
f 69 105 106
f 69 106 107
f 69 107 104
f 70 71 108
f 70 108 72
f 71 101 108
f 72 108 109
f 72 109 110
f 72 110 111
f 72 111 77
f 73 74 112
f 73 112 113
f 73 113 75
f 74 98 112
f 75 114 115
f 75 115 76
f 75 113 114
f 76 116 117
f 76 115 116
f 77 111 118
f 77 118 119
f 77 119 78
f 78 119 120
f 78 120 79
f 79 120 80
f 80 120 121
f 80 121 122
f 80 122 81
f 81 122 123
f 81 123 82
f 82 123 124
f 82 124 83
f 83 124 125
f 83 125 84
f 84 125 126
f 84 126 127
f 84 127 85
f 85 127 128
f 85 128 129
f 85 129 87
f 85 87 86
f 87 129 130
f 87 130 131
f 87 131 132
f 87 132 133
f 87 133 134
f 88 91 89
f 89 91 135
f 89 135 93
f 90 136 91
f 90 92 136
f 91 136 135
f 92 137 138
f 92 138 139
f 92 139 140
f 92 140 136
f 93 135 141
f 93 141 94
f 94 141 142
f 94 142 143
f 94 143 144
f 94 144 95
f 95 144 96
f 96 144 97
f 97 144 145
f 97 145 146
f 97 146 147
f 97 147 98
f 98 147 148
f 98 148 149
f 98 149 112
f 99 150 100
f 99 104 150
f 100 150 151
f 100 151 152
f 100 152 153
f 100 153 101
f 101 109 108
f 101 153 154
f 101 154 109
f 102 155 103
f 103 155 156
f 103 156 157
f 103 157 105
f 104 107 158
f 104 158 159
f 104 159 160
f 104 160 161
f 104 161 150
f 105 157 162
f 105 162 106
f 106 162 163
f 106 163 164
f 106 164 165
f 106 165 166
f 106 166 167
f 106 167 168
f 106 168 107
f 107 169 170
f 107 170 158
f 107 168 169
f 109 154 171
f 109 171 110
f 110 171 172
f 110 172 111
f 111 172 118
f 112 173 113
f 112 149 173
f 113 173 174
f 113 174 114
f 114 174 175
f 114 175 115
f 115 175 176
f 115 176 116
f 116 177 117
f 116 176 175
f 116 175 178
f 116 178 179
f 116 179 180
f 116 180 177
f 117 177 181
f 117 181 182
f 118 172 171
f 118 171 183
f 118 183 119
f 119 183 184
f 119 184 185
f 119 185 186
f 119 186 187
f 119 187 188
f 119 188 121
f 119 121 120
f 121 123 122
f 121 188 189
f 121 189 123
f 123 189 124
f 124 189 190
f 124 190 191
f 124 191 125
f 125 191 192
f 125 192 193
f 125 193 126
f 126 194 127
f 126 193 195
f 126 195 128
f 126 128 194
f 127 194 128
f 128 195 196
f 128 196 197
f 128 197 130
f 128 130 129
f 130 197 198
f 130 198 199
f 130 199 131
f 131 199 132
f 132 199 200
f 132 200 133
f 133 200 201
f 133 201 202
f 133 202 134
f 134 202 203
f 135 136 204
f 135 204 141
f 136 140 205
f 136 205 204
f 137 206 138
f 138 206 139
f 139 206 207
f 139 207 208
f 139 208 209
f 139 209 210
f 139 210 211
f 139 211 140
f 140 211 204
f 140 204 205
f 141 204 142
f 142 204 212
f 142 212 213
f 142 213 214
f 142 214 215
f 142 215 216
f 142 216 143
f 143 216 217
f 143 217 145
f 143 145 144
f 145 217 218
f 145 218 146
f 146 218 219
f 146 219 148
f 146 148 147
f 148 219 220
f 148 220 221
f 148 221 149
f 149 221 222
f 149 222 173
f 150 161 151
f 151 161 160
f 151 160 152
f 152 160 223
f 152 223 153
f 153 223 224
f 153 224 171
f 153 171 154
f 155 225 156
f 156 226 227
f 156 227 228
f 156 228 229
f 156 229 157
f 156 225 230
f 156 230 231
f 156 231 226
f 157 163 162
f 157 229 163
f 158 232 159
f 158 170 232
f 159 232 160
f 160 233 234
f 160 234 223
f 160 232 235
f 160 235 233
f 163 229 164
f 164 229 228
f 164 228 165
f 165 228 236
f 165 236 237
f 165 237 166
f 166 238 167
f 166 237 238
f 167 238 168
f 168 238 239
f 168 239 240
f 168 240 241
f 168 241 170
f 168 170 169
f 170 241 232
f 171 242 183
f 171 224 243
f 171 243 242
f 173 222 244
f 173 244 174
f 174 244 175
f 175 244 222
f 175 222 245
f 175 245 178
f 177 180 246
f 177 246 247
f 177 247 248
f 177 248 181
f 178 245 249
f 178 249 179
f 179 249 180
f 180 249 250
f 180 250 251
f 180 251 246
f 181 252 182
f 181 248 253
f 181 253 254
f 181 254 252
f 182 252 255
f 182 255 256
f 183 242 184
f 184 242 257
f 184 257 258
f 184 258 259
f 184 259 185
f 185 259 260
f 185 260 261
f 185 261 262
f 185 262 186
f 186 262 263
f 186 263 190
f 186 190 264
f 186 264 187
f 187 264 188
f 188 264 189
f 189 264 190
f 190 263 265
f 190 265 266
f 190 266 191
f 191 266 267
f 191 267 193
f 191 193 192
f 193 267 195
f 195 267 268
f 195 268 196
f 196 268 197
f 197 268 198
f 198 269 199
f 198 268 269
f 199 269 270
f 199 270 200
f 200 270 271
f 200 271 272
f 200 272 201
f 201 272 202
f 202 272 273
f 202 273 203
f 203 273 274
f 203 274 275
f 204 276 212
f 204 211 210
f 204 210 209
f 204 209 277
f 204 277 278
f 204 278 279
f 204 279 276
f 206 280 281
f 206 281 207
f 207 282 208
f 207 281 282
f 208 282 209
f 209 282 283
f 209 283 277
f 212 276 213
f 213 276 279
f 213 279 284
f 213 284 214
f 214 285 286
f 214 286 215
f 214 284 287
f 214 287 288
f 214 288 285
f 215 286 289
f 215 289 216
f 216 290 217
f 216 289 290
f 217 290 218
f 218 290 291
f 218 291 219
f 219 291 292
f 219 292 293
f 219 293 220
f 220 293 221
f 221 293 222
f 222 293 294
f 222 294 245
f 223 234 224
f 224 234 295
f 224 295 296
f 224 296 243
f 226 297 298
f 226 298 299
f 226 299 227
f 226 231 297
f 227 299 300
f 227 300 301
f 227 301 228
f 228 301 302
f 228 302 236
f 230 256 303
f 230 303 231
f 231 303 304
f 231 304 297
f 232 241 235
f 233 235 305
f 233 305 234
f 234 305 306
f 234 306 295
f 235 241 307
f 235 307 308
f 235 308 305
f 236 302 309
f 236 309 237
f 237 309 310
f 237 310 311
f 237 311 312
f 237 312 241
f 237 241 239
f 237 239 238
f 239 241 240
f 241 313 314
f 241 314 307
f 241 312 315
f 241 315 313
f 242 243 257
f 243 296 257
f 245 294 316
f 245 316 249
f 246 251 247
f 247 251 317
f 247 317 253
f 247 253 248
f 249 316 318
f 249 318 250
f 250 319 251
f 250 318 320
f 250 320 319
f 251 319 321
f 251 321 322
f 251 322 323
f 251 323 324
f 251 324 325
f 251 325 317
f 252 326 255
f 252 254 326
f 253 317 254
f 254 317 327
f 254 327 326
f 255 326 328
f 255 328 303
f 255 303 256
f 257 296 258
f 258 329 330
f 258 330 331
f 258 331 260
f 258 260 259
f 258 296 329
f 260 331 261
f 261 331 332
f 261 332 333
f 261 333 262
f 262 333 334
f 262 334 265
f 262 265 263
f 265 334 266
f 266 334 335
f 266 335 336
f 266 336 268
f 266 268 267
f 268 336 337
f 268 337 270
f 268 270 269
f 270 337 338
f 270 338 271
f 271 338 273
f 271 273 272
f 273 339 340
f 273 340 274
f 273 338 339
f 274 340 341
f 274 341 342
f 274 342 275
f 275 342 343
f 275 343 344
f 275 344 280
f 277 283 278
f 278 345 279
f 278 283 346
f 278 346 345
f 279 345 347
f 279 347 284
f 280 348 281
f 280 344 349
f 280 349 348
f 281 348 350
f 281 350 282
f 282 351 352
f 282 352 353
f 282 353 283
f 282 350 351
f 283 353 346
f 284 347 287
f 285 354 355
f 285 355 289
f 285 289 286
f 285 288 356
f 285 356 354
f 287 347 288
f 288 347 357
f 288 357 358
f 288 358 359
f 288 359 360
f 288 360 356
f 289 355 290
f 290 355 291
f 291 355 292
f 292 361 294
f 292 294 293
f 292 355 354
f 292 354 362
f 292 362 363
f 292 363 364
f 292 364 361
f 294 361 316
f 295 306 365
f 295 365 366
f 295 366 296
f 296 366 329
f 297 367 298
f 297 304 368
f 297 368 367
f 298 367 299
f 299 367 369
f 299 369 300
f 300 302 301
f 300 369 370
f 300 370 302
f 302 370 309
f 303 371 304
f 303 328 372
f 303 372 371
f 304 371 373
f 304 373 374
f 304 374 375
f 304 375 368
f 305 308 306
f 306 308 307
f 306 307 376
f 306 376 377
f 306 377 378
f 306 378 366
f 306 366 365
f 307 314 376
f 309 370 379
f 309 379 380
f 309 380 310
f 310 380 311
f 311 380 381
f 311 381 382
f 311 382 312
f 312 382 383
f 312 383 384
f 312 384 315
f 313 315 385
f 313 385 386
f 313 386 387
f 313 387 377
f 313 377 314
f 314 377 376
f 315 384 388
f 315 388 385
f 316 361 320
f 316 320 318
f 317 325 327
f 319 389 321
f 319 320 390
f 319 390 391
f 319 391 389
f 320 361 390
f 321 392 393
f 321 393 394
f 321 394 322
f 321 389 392
f 322 394 395
f 322 395 396
f 322 396 397
f 322 397 323
f 323 397 324
f 324 396 398
f 324 398 399
f 324 399 400
f 324 400 401
f 324 401 402
f 324 402 325
f 324 397 396
f 325 402 403
f 325 403 326
f 325 326 327
f 326 403 328
f 328 403 372
f 329 366 378
f 329 378 404
f 329 404 330
f 330 404 405
f 330 405 406
f 330 406 331
f 331 406 332
f 332 406 407
f 332 407 408
f 332 408 333
f 333 408 409
f 333 409 410
f 333 410 334
f 334 410 411
f 334 411 335
f 335 411 412
f 335 412 337
f 335 337 336
f 337 412 413
f 337 413 338
f 338 413 414
f 338 414 415
f 338 415 416
f 338 416 417
f 338 417 339
f 339 417 341
f 339 341 340
f 341 417 418
f 341 418 343
f 341 343 342
f 343 418 419
f 343 419 344
f 344 419 420
f 344 420 421
f 344 421 349
f 345 346 422
f 345 422 357
f 345 357 423
f 345 423 347
f 346 353 422
f 347 423 357
f 348 424 425
f 348 425 350
f 348 349 426
f 348 426 424
f 349 421 426
f 350 425 351
f 351 425 427
f 351 427 352
f 352 427 428
f 352 428 429
f 352 429 358
f 352 358 357
f 352 357 353
f 353 357 422
f 354 356 362
f 356 360 430
f 356 430 362
f 358 431 359
f 358 429 431
f 359 431 360
f 360 432 433
f 360 433 430
f 360 431 434
f 360 434 435
f 360 435 432
f 361 364 390
f 362 430 363
f 363 391 364
f 363 430 433
f 363 433 436
f 363 436 391
f 364 391 390
f 367 368 437
f 367 437 369
f 368 375 437
f 369 437 438
f 369 438 439
f 369 439 370
f 370 439 379
f 371 402 373
f 371 372 403
f 371 403 402
f 373 440 438
f 373 438 437
f 373 437 374
f 373 402 401
f 373 401 440
f 374 437 375
f 377 387 378
f 378 387 441
f 378 441 404
f 379 381 380
f 379 439 440
f 379 440 442
f 379 442 381
f 381 442 382
f 382 442 443
f 382 443 444
f 382 444 445
f 382 445 383
f 383 446 384
f 383 445 446
f 384 447 448
f 384 448 449
f 384 449 388
f 384 446 447
f 385 388 450
f 385 450 387
f 385 387 386
f 387 450 441
f 388 449 450
f 389 391 436
f 389 436 451
f 389 451 392
f 392 451 393
f 393 451 394
f 394 452 435
f 394 435 434
f 394 434 453
f 394 453 454
f 394 454 395
f 394 451 452
f 395 454 396
f 396 454 455
f 396 455 456
f 396 456 398
f 398 456 457
f 398 457 458
f 398 458 399
f 399 458 445
f 399 445 400
f 400 445 444
f 400 444 443
f 400 443 401
f 401 443 442
f 401 442 440
f 404 441 459
f 404 459 405
f 405 459 460
f 405 460 407
f 405 407 406
f 407 460 461
f 407 461 408
f 408 461 462
f 408 462 411
f 408 411 409
f 409 411 410
f 411 462 463
f 411 463 413
f 411 413 412
f 413 463 464
f 413 464 414
f 414 464 465
f 414 465 466
f 414 466 415
f 415 466 467
f 415 467 416
f 416 467 417
f 417 467 418
f 418 468 469
f 418 469 419
f 418 467 470
f 418 470 471
f 418 471 472
f 418 472 473
f 418 473 468
f 419 469 420
f 420 468 426
f 420 426 421
f 420 469 468
f 424 426 473
f 424 473 472
f 424 472 474
f 424 474 475
f 424 475 425
f 425 475 427
f 426 468 473
f 427 475 471
f 427 471 428
f 428 476 431
f 428 431 429
f 428 471 477
f 428 477 476
f 431 476 434
f 432 451 433
f 432 435 452
f 432 452 451
f 433 451 436
f 434 476 477
f 434 477 478
f 434 478 479
f 434 479 453
f 438 440 439
f 441 450 480
f 441 480 481
f 441 481 459
f 445 458 482
f 445 482 446
f 446 482 483
f 446 483 484
f 446 484 447
f 447 485 486
f 447 486 487
f 447 487 448
f 447 484 485
f 448 487 488
f 448 488 481
f 448 481 449
f 449 481 450
f 450 481 480
f 453 479 454
f 454 479 455
f 455 479 489
f 455 489 456
f 456 489 457
f 457 489 490
f 457 490 458
f 458 490 482
f 459 481 488
f 459 488 460
f 460 488 462
f 460 462 461
f 462 488 487
f 462 487 486
f 462 486 491
f 462 491 492
f 462 492 463
f 463 492 464
f 464 492 466
f 464 466 465
f 466 493 467
f 466 492 494
f 466 494 493
f 467 493 495
f 467 495 470
f 470 496 471
f 470 495 493
f 470 493 496
f 471 497 498
f 471 498 477
f 471 475 474
f 471 474 472
f 471 496 497
f 477 498 478
f 478 498 499
f 478 499 489
f 478 489 479
f 482 490 500
f 482 500 483
f 483 500 501
f 483 501 484
f 484 501 502
f 484 502 503
f 484 503 504
f 484 504 485
f 485 505 506
f 485 506 507
f 485 507 486
f 485 504 505
f 486 507 491
f 489 499 490
f 490 499 500
f 491 507 492
f 492 507 506
f 492 506 494
f 493 494 508
f 493 508 503
f 493 503 501
f 493 501 500
f 493 500 497
f 493 497 496
f 494 506 505
f 494 505 508
f 497 500 499
f 497 499 498
f 501 503 502
f 503 508 504
f 504 508 505

