# https://github.com/mikedh/trimesh
v 0.44254136 -0.09848940 -0.09784400
v 0.44198072 -0.11415441 -0.09719678
v 0.44249040 -0.09848940 -0.10031151
v 0.44210812 -0.09848940 -0.09363709
v 0.44083393 -0.11378165 -0.08530418
v 0.43996745 -0.11662467 -0.09897663
v 0.44170037 -0.11445766 -0.10095873
v 0.42793882 -0.13076076 -0.08328162
v 0.42821914 -0.13076076 -0.08639635
v 0.42834657 -0.13076076 -0.08813575
v 0.44231200 -0.09848940 -0.10201045
v 0.44162393 -0.09848940 -0.08943018
v 0.44142005 -0.09848940 -0.08801439
v 0.44103777 -0.09848940 -0.08538508
v 0.42974821 -0.09848940 -0.01382720
v 0.42956981 -0.09848940 -0.01277547
v 0.42860138 -0.09848940 -0.00739548
v 0.41394788 -0.11392696 0.05036860
v 0.41422820 -0.11504521 0.04652575
v 0.43940678 -0.11501363 -0.08182539
v 0.42671555 -0.12803778 -0.06058859
v 0.42477876 -0.13076076 -0.06095265
v 0.43963614 -0.11680789 -0.10233406
v 0.42834657 -0.13076076 -0.08951108
v 0.42829558 -0.13076076 -0.09246401
v 0.43820900 -0.11826730 -0.10451842
v 0.43815804 -0.11384483 -0.13255098
v 0.44009486 -0.09848940 -0.12045613
v 0.41537499 -0.09848940 0.04753703
v 0.41476339 -0.09848940 0.04927642
v 0.41193461 -0.09848940 0.05550588
v 0.40806097 -0.11404701 0.06145218
v 0.41206205 -0.11448925 0.05340242
v 0.39962566 -0.13076076 0.03459270
v 0.41277561 -0.13076076 -0.00735503
v 0.41325980 -0.13076076 -0.00893262
v 0.41404980 -0.13076076 -0.01180464
v 0.41613954 -0.13076076 -0.02017801
v 0.41881540 -0.13076076 -0.03207061
v 0.42016608 -0.13076076 -0.03825962
v 0.42421809 -0.13076076 -0.05779747
v 0.42477876 -0.13074180 -0.06087175
v 0.42681748 -0.13076076 -0.10977706
v 0.42674103 -0.13076076 -0.11050517
v 0.43627220 -0.11975514 -0.11014111
v 0.43487057 -0.11682368 -0.13481624
v 0.42806622 -0.11574965 -0.15330237
v 0.42697039 -0.11472932 -0.15670025
v 0.42572168 -0.11370268 -0.16005769
v 0.43290827 -0.09848940 -0.14735606
v 0.43665448 -0.09848940 -0.13865909
v 0.43782675 -0.09848940 -0.13554436
v 0.43846387 -0.09848940 -0.13255098
v 0.43973809 -0.09848940 -0.12312590
v 0.43571156 -0.11994468 -0.11317494
v 0.42658812 -0.13076076 -0.11143555
v 0.42615491 -0.13076076 -0.11357945
v 0.40862164 -0.09848940 0.06141173
v 0.30051687 -0.13076076 0.16982050
v 0.37449804 -0.12470198 0.09336805
v 0.37238285 -0.12594976 0.09458158
v 0.37582323 -0.12551382 0.09005106
v 0.37345320 -0.12706800 0.09073873
v 0.38647571 -0.12258236 0.07884613
v 0.40245444 -0.11688685 0.06464782
v 0.40541062 -0.11558539 0.06254436
v 0.39468169 -0.13076076 0.04543357
v 0.39852983 -0.13076076 0.03718156
v 0.39891207 -0.13076076 0.03629164
v 0.42217934 -0.13076076 -0.12838453
v 0.41799989 -0.12901072 -0.15038989
v 0.41856056 -0.12757659 -0.15334281
v 0.42093059 -0.12525164 -0.15233155
v 0.41901928 -0.12582339 -0.15564853
v 0.42579812 -0.11721538 -0.15552717
v 0.42513552 -0.09848940 -0.16123077
v 0.42577264 -0.09848940 -0.16021949
v 0.42763299 -0.09848940 -0.15710476
v 0.43104792 -0.09848940 -0.15087530
v 0.42360646 -0.11872850 -0.15722612
v 0.41201106 -0.12633513 -0.16640851
v 0.41035458 -0.12511896 -0.16968504
v 0.39947274 -0.09848940 -0.19258033
v 0.40033922 -0.09848940 -0.19160950
v 0.41718441 -0.09848940 -0.17231436
v 0.42398873 -0.09848940 -0.16292971
v 0.40533414 -0.09848940 0.06428375
v 0.29753521 -0.12046589 0.17014411
v 0.29175025 -0.13076076 0.17807251
v 0.33537951 -0.13076076 0.13212015
v 0.36624110 -0.12807885 0.09967841
v 0.37133798 -0.12796512 0.09215452
v 0.36662337 -0.13076076 0.09312534
v 0.41611406 -0.13076076 -0.15059215
v 0.41626695 -0.12960777 -0.15399003
v 0.41636890 -0.12799671 -0.15722612
v 0.40948811 -0.12812307 -0.16774338
v 0.41297948 -0.12790827 -0.16280836
v 0.40785712 -0.12738705 -0.17045361
v 0.40490091 -0.12771873 -0.17308292
v 0.37416676 -0.11904123 -0.20503925
v 0.39830047 -0.09848940 -0.19355115
v 0.28782564 -0.09848940 0.14251606
v 0.29554743 -0.11820728 0.16982050
v 0.29488483 -0.12087655 0.17212622
v 0.28374815 -0.13076076 0.18498965
v 0.28596529 -0.13076076 0.18333115
v 0.36145005 -0.13076076 0.10121555
v 0.36331040 -0.13076076 0.09874804
v 0.41580823 -0.13076076 -0.15152252
v 0.41491628 -0.13076076 -0.15382823
v 0.41379496 -0.13076076 -0.15617439
v 0.41382045 -0.13056806 -0.15661936
v 0.41331077 -0.13076076 -0.15714522
v 0.41376948 -0.12901704 -0.15973409
v 0.41081330 -0.12885910 -0.16475001
v 0.40691417 -0.13021743 -0.16798609
v 0.40546158 -0.12953827 -0.17061540
v 0.40067053 -0.13076076 -0.17368969
v 0.39952371 -0.13076076 -0.17462006
v 0.37118506 -0.13076076 -0.19711083
v 0.40204668 -0.13076076 -0.17251661
v 0.36850923 -0.13076076 -0.19889069
v 0.37128702 -0.12019423 -0.20592916
v 0.36738789 -0.11538953 -0.21175411
v 0.36494142 -0.11427444 -0.21397892
v 0.39615977 -0.09848940 -0.19512874
v 0.28599077 -0.09848940 0.14344643
v 0.29322833 -0.11643513 0.16840471
v 0.29254025 -0.11827993 0.17127675
v 0.28833532 -0.12214643 0.17681853
v 0.28242296 -0.13076076 0.18579866
v 0.41045651 -0.13076076 -0.16187799
v 0.40829033 -0.13076076 -0.16503316
v 0.40655741 -0.13076076 -0.16746023
v 0.40586933 -0.13076076 -0.16826925
v 0.40260732 -0.13076076 -0.17190984
v 0.35953870 -0.13076076 -0.20447293
v 0.36427879 -0.11725013 -0.21211818
v 0.36043066 -0.09848940 -0.21604192
v 0.36231652 -0.09848940 -0.21543516
v 0.36376911 -0.09848940 -0.21490930
v 0.36504334 -0.09848940 -0.21438342
v 0.36613917 -0.09848940 -0.21381712
v 0.37839717 -0.09848940 -0.20657638
v 0.38609344 -0.09848940 -0.20188406
v 0.35706672 -0.13076076 -0.20580781
v 0.35092500 -0.13076076 -0.20863938
v 0.34873334 -0.12963934 -0.21029788
v 0.34554780 -0.12872010 -0.21199682
v 0.34361097 -0.12649624 -0.21397892
v 0.34208190 -0.12432607 -0.21567786
v 0.34404421 -0.11633721 -0.21939936
v 0.34264258 -0.11393328 -0.22097695
v 0.18219286 -0.09848940 0.17224757
v 0.28599077 -0.12261079 0.17778936
v 0.28117421 -0.13076076 0.18636498
v 0.35828999 -0.13076076 -0.20516059
v 0.34638876 -0.09848940 -0.22020838
v 0.34916657 -0.13076076 -0.20932706
v 0.34740815 -0.13076076 -0.20997427
v 0.34628683 -0.13076076 -0.21037878
v 0.34248966 -0.12901388 -0.21280584
v 0.34029800 -0.12701114 -0.21466659
v 0.32085341 -0.13076076 -0.21749815
v 0.30856994 -0.11966985 -0.22433439
v 0.31129676 -0.11731331 -0.22477935
v 0.31371778 -0.11486516 -0.22530521
v 0.31083804 -0.11389853 -0.22607379
v 0.33922765 -0.09848940 -0.22178596
v 0.34215835 -0.09848940 -0.22126010
v 0.34294838 -0.09848940 -0.22109830
v 0.18219286 -0.13076076 0.17827477
v 0.18224382 -0.13076076 0.17859837
v 0.27831995 -0.13076076 0.18685040
v 0.18219286 -0.09848940 -0.21996567
v 0.33759665 -0.13076076 -0.21321034
v 0.33764762 -0.12891281 -0.21426208
v 0.32342735 -0.13076076 -0.21685094
v 0.31812659 -0.13076076 -0.21790268
v 0.30561376 -0.12191583 -0.22372761
v 0.30540988 -0.11839681 -0.22514340
v 0.30823866 -0.11619189 -0.22562882
v 0.30538440 -0.11476091 -0.22607379
v 0.30670959 -0.09848940 -0.22639740
v 0.31078708 -0.09848940 -0.22615469
v 0.31381974 -0.09848940 -0.22579062
v 0.18219286 -0.13076076 -0.21790268
v 0.21246831 -0.09848940 -0.22190732
v 0.21188217 -0.11481462 -0.22190732
v 0.18219286 -0.12542221 -0.21854989
v 0.30490020 -0.13076076 -0.21956116
v 0.30630183 -0.12503998 -0.22219048
v 0.30247918 -0.12030794 -0.22449619
v 0.30115399 -0.13076076 -0.21996567
v 0.29771358 -0.13076076 -0.22024883
v 0.29429868 -0.13076076 -0.22049154
v 0.29055247 -0.13076076 -0.22069380
v 0.27936482 -0.13076076 -0.22101741
v 0.27577153 -0.13076076 -0.22101741
v 0.25334528 -0.13076076 -0.22049154
v 0.23963466 -0.13076076 -0.22016793
v 0.30247918 -0.11656465 -0.22554791
v 0.21302897 -0.12375115 -0.22073424
v 0.21178024 -0.12015316 -0.22138146
v 0.18219286 -0.13030587 -0.21798357
v 0.18219286 -0.12941191 -0.21810493
f 1 2 3
f 1 3 11
f 1 11 28
f 1 28 54
f 1 54 53
f 1 53 52
f 1 52 51
f 1 51 50
f 1 50 79
f 1 79 78
f 1 78 77
f 1 77 76
f 1 76 86
f 1 86 85
f 1 85 84
f 1 84 83
f 1 83 102
f 1 102 127
f 1 127 146
f 1 146 145
f 1 145 144
f 1 144 143
f 1 143 142
f 1 142 141
f 1 141 140
f 1 140 159
f 1 159 172
f 1 172 171
f 1 171 170
f 1 170 187
f 1 187 186
f 1 186 185
f 1 185 189
f 1 189 176
f 1 176 155
f 1 155 128
f 1 128 103
f 1 103 87
f 1 87 58
f 1 58 31
f 1 31 30
f 1 30 29
f 1 29 17
f 1 17 16
f 1 16 15
f 1 15 14
f 1 14 13
f 1 13 12
f 1 12 4
f 1 4 5
f 1 5 2
f 2 6 7
f 2 7 3
f 2 5 8
f 2 8 9
f 2 9 10
f 2 10 6
f 3 7 11
f 4 12 5
f 5 13 14
f 5 14 15
f 5 15 16
f 5 16 17
f 5 17 18
f 5 18 19
f 5 19 20
f 5 20 21
f 5 21 22
f 5 22 8
f 5 12 13
f 6 23 7
f 6 10 24
f 6 24 25
f 6 25 23
f 7 23 26
f 7 26 27
f 7 27 11
f 8 22 41
f 8 41 40
f 8 40 39
f 8 39 38
f 8 38 37
f 8 37 36
f 8 36 35
f 8 35 34
f 8 34 69
f 8 69 68
f 8 68 67
f 8 67 93
f 8 93 109
f 8 109 108
f 8 108 90
f 8 90 59
f 8 59 89
f 8 89 107
f 8 107 106
f 8 106 132
f 8 132 157
f 8 157 175
f 8 175 174
f 8 174 173
f 8 173 188
f 8 188 202
f 8 202 201
f 8 201 200
f 8 200 199
f 8 199 198
f 8 198 197
f 8 197 196
f 8 196 195
f 8 195 192
f 8 192 180
f 8 180 165
f 8 165 179
f 8 179 177
f 8 177 162
f 8 162 161
f 8 161 160
f 8 160 148
f 8 148 147
f 8 147 158
f 8 158 138
f 8 138 123
f 8 123 121
f 8 121 120
f 8 120 119
f 8 119 122
f 8 122 137
f 8 137 136
f 8 136 135
f 8 135 134
f 8 134 133
f 8 133 114
f 8 114 112
f 8 112 111
f 8 111 110
f 8 110 94
f 8 94 70
f 8 70 57
f 8 57 56
f 8 56 44
f 8 44 43
f 8 43 25
f 8 25 24
f 8 24 10
f 8 10 9
f 11 27 28
f 17 29 18
f 18 29 30
f 18 30 31
f 18 31 32
f 18 32 33
f 18 33 19
f 19 33 34
f 19 34 35
f 19 35 36
f 19 36 37
f 19 37 38
f 19 38 39
f 19 39 40
f 19 40 41
f 19 41 21
f 19 21 20
f 21 41 42
f 21 42 22
f 22 42 41
f 23 25 26
f 25 43 26
f 26 43 44
f 26 44 45
f 26 45 27
f 27 46 47
f 27 47 48
f 27 48 49
f 27 49 50
f 27 50 51
f 27 51 52
f 27 52 53
f 27 53 54
f 27 54 28
f 27 45 55
f 27 55 44
f 27 44 56
f 27 56 57
f 27 57 46
f 31 58 32
f 32 58 59
f 32 59 60
f 32 60 61
f 32 61 62
f 32 62 63
f 32 63 64
f 32 64 65
f 32 65 66
f 32 66 33
f 33 66 67
f 33 67 68
f 33 68 69
f 33 69 34
f 44 55 45
f 46 57 70
f 46 70 71
f 46 71 72
f 46 72 73
f 46 73 47
f 47 73 74
f 47 74 75
f 47 75 48
f 48 75 49
f 49 76 77
f 49 77 78
f 49 78 79
f 49 79 50
f 49 75 80
f 49 80 81
f 49 81 82
f 49 82 83
f 49 83 84
f 49 84 85
f 49 85 86
f 49 86 76
f 58 87 88
f 58 88 89
f 58 89 59
f 59 90 60
f 60 90 91
f 60 91 61
f 61 91 63
f 61 63 62
f 63 67 64
f 63 91 92
f 63 92 67
f 64 67 65
f 65 67 66
f 67 92 93
f 70 94 71
f 71 94 95
f 71 95 72
f 72 95 96
f 72 96 74
f 72 74 73
f 74 96 80
f 74 80 75
f 80 96 81
f 81 97 82
f 81 96 98
f 81 98 97
f 82 97 99
f 82 99 100
f 82 100 101
f 82 101 83
f 83 101 102
f 87 103 104
f 87 104 88
f 88 104 105
f 88 105 106
f 88 106 107
f 88 107 89
f 90 108 91
f 91 109 92
f 91 108 109
f 92 109 93
f 94 110 95
f 95 110 111
f 95 111 112
f 95 112 113
f 95 113 96
f 96 113 114
f 96 114 115
f 96 115 116
f 96 116 98
f 97 98 116
f 97 116 117
f 97 117 118
f 97 118 99
f 99 118 100
f 100 119 120
f 100 120 121
f 100 121 101
f 100 118 122
f 100 122 119
f 101 121 123
f 101 123 124
f 101 124 125
f 101 125 102
f 102 125 126
f 102 126 127
f 103 128 129
f 103 129 104
f 104 129 130
f 104 130 131
f 104 131 105
f 105 131 132
f 105 132 106
f 112 114 113
f 114 133 115
f 115 133 116
f 116 134 117
f 116 133 134
f 117 134 135
f 117 135 136
f 117 136 137
f 117 137 118
f 118 137 122
f 123 138 124
f 124 139 125
f 124 138 139
f 125 139 126
f 126 140 141
f 126 141 142
f 126 142 143
f 126 143 144
f 126 144 145
f 126 145 146
f 126 146 127
f 126 139 147
f 126 147 148
f 126 148 149
f 126 149 150
f 126 150 151
f 126 151 152
f 126 152 153
f 126 153 154
f 126 154 140
f 128 155 129
f 129 155 130
f 130 155 131
f 131 155 156
f 131 156 157
f 131 157 132
f 138 158 139
f 139 158 147
f 140 154 159
f 148 160 149
f 149 160 161
f 149 161 162
f 149 162 150
f 150 162 163
f 150 163 151
f 151 164 152
f 151 163 164
f 152 164 165
f 152 165 153
f 153 165 154
f 154 166 167
f 154 167 168
f 154 168 169
f 154 169 170
f 154 170 171
f 154 171 172
f 154 172 159
f 154 165 166
f 155 173 174
f 155 174 175
f 155 175 156
f 155 176 191
f 155 191 207
f 155 207 206
f 155 206 188
f 155 188 173
f 156 175 157
f 162 177 163
f 163 177 164
f 164 177 178
f 164 178 179
f 164 179 165
f 165 180 166
f 166 181 182
f 166 182 183
f 166 183 169
f 166 169 168
f 166 168 167
f 166 180 181
f 169 184 185
f 169 185 186
f 169 186 187
f 169 187 170
f 169 183 184
f 176 189 190
f 176 190 191
f 177 179 178
f 180 192 193
f 180 193 181
f 181 194 182
f 181 193 195
f 181 195 196
f 181 196 197
f 181 197 198
f 181 198 194
f 182 194 199
f 182 199 200
f 182 200 201
f 182 201 202
f 182 202 203
f 182 203 184
f 182 184 183
f 184 203 202
f 184 202 204
f 184 204 205
f 184 205 190
f 184 190 185
f 185 190 189
f 188 206 205
f 188 205 204
f 188 204 202
f 190 205 191
f 191 205 207
f 192 195 193
f 194 198 199
f 205 206 207

