# https://github.com/mikedh/trimesh
v 0.21735781 -0.25225218 -0.39779024
v 0.22556277 -0.25211763 -0.39779024
v 0.22556277 -0.25161908 -0.38959613
v 0.22556277 -0.25059822 -0.37315178
v 0.21735781 -0.25172987 -0.38959613
v 0.20916105 -0.25195146 -0.39779024
v 0.20916105 -0.25192772 -0.40598438
v 0.21735781 -0.25222052 -0.40598438
v 0.22556277 -0.25210971 -0.40598438
v 0.23182044 -0.24895218 -0.39779024
v 0.23181634 -0.24872269 -0.38959613
v 0.23170516 -0.24826372 -0.37315178
v 0.23158577 -0.24801047 -0.36495766
v 0.23142111 -0.24774933 -0.35676355
v 0.23121937 -0.24747234 -0.34856944
v 0.23097649 -0.24719538 -0.34037532
v 0.23070065 -0.24691048 -0.33218121
v 0.23038365 -0.24662560 -0.32398707
v 0.23002959 -0.24634070 -0.31573686
v 0.22978258 -0.24615076 -0.31046119
v 0.22556277 -0.25006801 -0.36495766
v 0.21735781 -0.25003636 -0.36495766
v 0.20916105 -0.25085936 -0.38140202
v 0.20916105 -0.25142125 -0.38959613
v 0.22556277 -0.24951407 -0.35676355
v 0.22556277 -0.24839032 -0.34037532
v 0.20465305 -0.24617452 -0.31831855
v 0.20397789 -0.24637235 -0.32398707
v 0.20310511 -0.24666515 -0.33218121
v 0.20239700 -0.24695006 -0.34037532
v 0.20184534 -0.24724286 -0.34856944
v 0.20144188 -0.24752773 -0.35676355
v 0.20115370 -0.24781264 -0.36495766
v 0.20096020 -0.24849321 -0.38140202
v 0.20096020 -0.24884932 -0.38959613
v 0.20096020 -0.24915796 -0.39779024
v 0.20019446 -0.24844573 -0.40620886
v 0.20241759 -0.24787595 -0.41154063
v 0.20916105 -0.24885724 -0.41227026
v 0.21735781 -0.24899968 -0.41227026
v 0.23166813 -0.24896802 -0.40598438
v 0.22556277 -0.24896802 -0.41210188
v 0.23090650 -0.24793924 -0.41137226
v 0.23371834 -0.24196447 -0.39779024
v 0.23373068 -0.24196447 -0.38959613
v 0.23368952 -0.24196447 -0.38140202
v 0.23361953 -0.24196447 -0.37315178
v 0.23177515 -0.24848529 -0.38140202
v 0.23350425 -0.24196447 -0.36495766
v 0.23333546 -0.24196447 -0.35676355
v 0.23313374 -0.24196447 -0.34856944
v 0.23135113 -0.23969325 -0.25012778
v 0.23120702 -0.23944003 -0.24193369
v 0.23101765 -0.23917097 -0.23373955
v 0.23079946 -0.23890982 -0.22554544
v 0.23054831 -0.23864073 -0.21735133
v 0.23026013 -0.23836377 -0.20915721
v 0.22993489 -0.23807887 -0.20090698
v 0.22972907 -0.23791269 -0.19608030
v 0.22556277 -0.24666515 -0.31573686
v 0.22556277 -0.24724286 -0.32398707
v 0.22185345 -0.21330926 0.15660344
v 0.21735781 -0.24946657 -0.35676355
v 0.20916105 -0.24972772 -0.36495766
v 0.20713966 -0.24598458 -0.31287452
v 0.20545996 -0.22964295 -0.08226066
v 0.20493713 -0.22147612 0.03301821
v 0.20326155 -0.21347544 0.14352653
v 0.20061027 -0.21370492 0.13510791
v 0.19678567 -0.21331716 0.13224560
v 0.19167249 -0.22646960 -0.06974498
v 0.19690507 -0.24587380 -0.37017721
v 0.20016564 -0.24771767 -0.37303953
v 0.19682273 -0.24611121 -0.37567736
v 0.19676921 -0.24622991 -0.40362717
v 0.19678567 -0.24617452 -0.38140202
v 0.19674451 -0.24625365 -0.38959613
v 0.19672804 -0.24630114 -0.39779024
v 0.19695035 -0.24529610 -0.40907119
v 0.20019446 -0.24232058 -0.41193351
v 0.20916105 -0.24196447 -0.41445909
v 0.21735781 -0.24196447 -0.41445909
v 0.23341779 -0.24196447 -0.40598438
v 0.22556277 -0.24196447 -0.41412239
v 0.23140464 -0.24196447 -0.41193351
v 0.23319136 -0.23375803 -0.39779024
v 0.23322018 -0.23375803 -0.38959613
v 0.23290731 -0.23375803 -0.40598438
v 0.23239680 -0.22555955 -0.40598438
v 0.23322841 -0.23375803 -0.38140202
v 0.23323665 -0.23375803 -0.36495766
v 0.23322841 -0.23375803 -0.33218121
v 0.23321607 -0.23375803 -0.29115450
v 0.23321196 -0.23375803 -0.28296038
v 0.23319549 -0.23375803 -0.27476627
v 0.23315843 -0.23375803 -0.26657213
v 0.23308844 -0.23375803 -0.25832192
v 0.23193159 -0.21736103 -0.02052416
v 0.23246268 -0.22555955 -0.13529792
v 0.23298964 -0.23375803 -0.25012778
v 0.23058537 -0.21448838 0.09430570
v 0.23048246 -0.21428263 0.10249983
v 0.23035483 -0.21406895 0.11069395
v 0.23073358 -0.22271063 -0.01233005
v 0.23098059 -0.23109908 -0.12715992
v 0.23081180 -0.23084583 -0.11896581
v 0.23060185 -0.23058469 -0.11077169
v 0.23018191 -0.22197467 0.01225230
v 0.23036718 -0.23031562 -0.10257757
v 0.23010368 -0.23005448 -0.09432733
v 0.22986491 -0.22983289 -0.08764857
v 0.22955615 -0.22963505 -0.08214841
v 0.22169289 -0.22148401 0.04132458
v 0.22072952 -0.22148401 0.04132458
v 0.22294852 -0.21348336 0.15172064
v 0.22952733 -0.21314306 0.13898048
v 0.22412185 -0.21217761 0.15879227
v 0.21784360 -0.21309559 0.15879227
v 0.21972501 -0.21330926 0.15660344
v 0.20916105 -0.24915796 -0.35676355
v 0.21735781 -0.24773349 -0.33218121
v 0.21260689 -0.24609537 -0.31130304
v 0.20916105 -0.24511408 -0.29934861
v 0.20916105 -0.22428543 -0.00413594
v 0.20916105 -0.21560421 0.11888806
v 0.20916105 -0.21278695 0.15879227
v 0.20461189 -0.21330926 0.14835320
v 0.19764198 -0.21302436 0.13768962
v 0.19528712 -0.20785678 0.15879227
v 0.19167249 -0.22423004 -0.04622899
v 0.19167249 -0.22583650 -0.06261723
v 0.19167249 -0.22615306 -0.07793910
v 0.19630812 -0.24196447 -0.39779024
v 0.19656336 -0.24232058 -0.40620886
v 0.19544357 -0.22555955 -0.40598438
v 0.19672804 -0.23982780 -0.41024980
v 0.20096020 -0.23375803 -0.41271926
v 0.19652219 -0.23375803 -0.41053043
v 0.19625048 -0.22555955 -0.41086713
v 0.20096020 -0.22555955 -0.41311214
v 0.20916105 -0.23375803 -0.41451522
v 0.21735781 -0.22555955 -0.41457134
v 0.23115762 -0.23375803 -0.41176513
v 0.23091471 -0.22555955 -0.41154063
v 0.22556277 -0.23375803 -0.41395402
v 0.22556277 -0.22555955 -0.41378564
v 0.23266029 -0.22555955 -0.39779024
v 0.23269322 -0.22555955 -0.38959613
v 0.23141698 -0.21736103 -0.39779024
v 0.23041247 -0.21912575 -0.41097938
v 0.23075829 -0.21677541 -0.40604048
v 0.23270146 -0.22555955 -0.38140202
v 0.23270969 -0.22555955 -0.37315178
v 0.23270969 -0.22555955 -0.35676355
v 0.23100941 -0.20096401 0.14352653
v 0.23210862 -0.21736103 -0.05335675
v 0.23266029 -0.22555955 -0.16813050
v 0.23209628 -0.21736103 -0.04516264
v 0.23151579 -0.20916252 0.07791747
v 0.23254914 -0.22555955 -0.14349203
v 0.23147052 -0.20916252 0.08611158
v 0.23139640 -0.20916252 0.09430570
v 0.23129349 -0.20916252 0.10249983
v 0.23182044 -0.21736103 -0.01233005
v 0.23116586 -0.20916252 0.11069395
v 0.23100118 -0.20916252 0.11888806
v 0.23046598 -0.20745317 0.15879227
v 0.23019015 -0.21384739 0.11888806
v 0.23058950 -0.22248114 -0.00413594
v 0.23040423 -0.22223581 0.00405818
v 0.22993079 -0.22171352 0.02050254
v 0.22998843 -0.21360206 0.12708217
v 0.22980729 -0.21340420 0.13353645
v 0.22975376 -0.22153940 0.02589045
v 0.22460764 -0.21377616 0.14352653
v 0.21713548 -0.21307975 0.15879227
v 0.21735781 -0.23442279 -0.14349203
v 0.22998843 -0.20803087 0.15879227
v 0.22518813 -0.21178192 0.15879227
v 0.21526230 -0.22139696 0.04008984
v 0.21425366 -0.21322221 0.15536871
v 0.20813183 -0.21266032 0.15879227
v 0.20103431 -0.21166322 0.15879227
v 0.19369388 -0.20196903 0.15879227
v 0.19167249 -0.22410342 -0.04516264
v 0.19167249 -0.22396890 -0.08523523
v 0.19520891 -0.22555955 -0.39779024
v 0.19575233 -0.23375803 -0.39779024
v 0.19598700 -0.23375803 -0.40598438
v 0.19518831 -0.21736103 -0.39779024
v 0.19565764 -0.21736103 -0.40598438
v 0.19643162 -0.21736103 -0.41064268
v 0.20096020 -0.21736103 -0.41221413
v 0.20916105 -0.22555955 -0.41451522
v 0.20916105 -0.21736103 -0.41322439
v 0.21735781 -0.21736103 -0.41305601
v 0.22590035 -0.21677541 -0.41176513
v 0.23165165 -0.21736103 -0.38959613
v 0.23181634 -0.21736103 -0.38140202
v 0.23194394 -0.21736103 -0.37315178
v 0.23203864 -0.21736103 -0.36495766
v 0.23210038 -0.21736103 -0.35676355
v 0.23213744 -0.21736103 -0.34856944
v 0.23215802 -0.21736103 -0.34037532
v 0.23217037 -0.21736103 -0.33218121
v 0.23005018 -0.21287400 -0.39779024
v 0.23026837 -0.21262867 -0.38959613
v 0.22983609 -0.21309559 -0.40334654
v 0.22886040 -0.21365745 -0.40884669
v 0.23217037 -0.21736103 -0.30754272
v 0.23047422 -0.19275757 0.15879227
v 0.23093119 -0.19980861 0.15879227
v 0.23100531 -0.20096401 0.15879227
v 0.23155695 -0.20916252 0.05327901
v 0.23155285 -0.20916252 0.06147312
v 0.23154461 -0.20916252 0.06966723
v 0.19343452 -0.20096401 0.15879227
v 0.19167249 -0.22295596 -0.03842775
v 0.19167249 -0.21736103 -0.08781694
v 0.19474370 -0.21736103 -0.37315178
v 0.19485485 -0.21736103 -0.38140202
v 0.19499071 -0.21736103 -0.38959613
v 0.19167249 -0.18972666 -0.07793910
v 0.19596642 -0.21223300 -0.38959613
v 0.19615167 -0.21248623 -0.39779024
v 0.19650161 -0.21288192 -0.40598438
v 0.19678155 -0.21318264 -0.41019367
v 0.20096020 -0.21281860 -0.41064268
v 0.20916105 -0.21255746 -0.41097938
v 0.21735781 -0.21269990 -0.41081100
v 0.22339315 -0.21293731 -0.41053043
v 0.23042892 -0.21240710 -0.38140202
v 0.23055244 -0.21220927 -0.37315178
v 0.23064301 -0.21201933 -0.36495766
v 0.23035070 -0.20416902 -0.25012778
v 0.22976200 -0.18851588 -0.02052416
v 0.22983609 -0.18839717 -0.01233005
v 0.22965085 -0.18057852 0.12708217
v 0.22965908 -0.18049147 0.13235785
v 0.22966730 -0.18044399 0.13780187
v 0.22966730 -0.18043608 0.14352653
v 0.22968377 -0.20503951 -0.28739418
v 0.22979905 -0.20492081 -0.28296038
v 0.22998843 -0.20470715 -0.27476627
v 0.22590035 -0.21257328 -0.40604048
v 0.22556277 -0.21174235 -0.39779024
v 0.22407245 -0.20454887 -0.29934861
v 0.22168466 -0.18038859 0.04003372
v 0.22966730 -0.18043608 0.15172064
v 0.23161459 -0.20916252 -0.20090698
v 0.22994313 -0.18455907 0.15172064
v 0.22990197 -0.18397346 0.15879227
v 0.19295285 -0.19391297 0.15879227
v 0.19167249 -0.22279768 -0.03764201
v 0.19167249 -0.20916252 -0.08882717
v 0.19167249 -0.20096401 -0.08978128
v 0.19167249 -0.19268635 -0.08540360
v 0.19167249 -0.19197413 -0.08439337
v 0.19167249 -0.18865041 -0.06974498
v 0.20096020 -0.21105386 -0.39779024
v 0.19682685 -0.20503951 -0.31203264
v 0.20096020 -0.21186105 -0.40598438
v 0.20916105 -0.21134666 -0.40598438
v 0.21735781 -0.21163948 -0.40598438
v 0.23014074 -0.20451721 -0.26657213
v 0.23025602 -0.20433521 -0.25832192
v 0.22995961 -0.19648489 -0.14349203
v 0.22970025 -0.18861084 -0.02602433
v 0.22961789 -0.18084758 0.11888806
v 0.22118239 -0.17226130 0.15598608
v 0.22448825 -0.17507855 0.15879227
v 0.22504816 -0.17558502 0.15879227
v 0.22528694 -0.17581452 0.15879227
v 0.22956028 -0.19699928 -0.16324771
v 0.22974141 -0.19676978 -0.15774755
v 0.22424534 -0.17935190 0.06966723
v 0.21735781 -0.21080856 -0.39779024
v 0.21735781 -0.21019920 -0.38959613
v 0.22179991 -0.20500786 -0.31248165
v 0.22271799 -0.20483376 -0.30754272
v 0.22137176 -0.19686475 -0.19675378
v 0.22966730 -0.18044399 0.15879227
v 0.19231885 -0.18455907 0.15879227
v 0.19167249 -0.21736103 -0.03107549
v 0.19167249 -0.18850797 -0.06643366
v 0.19617637 -0.17180231 0.15879227
v 0.19650573 -0.17203181 0.15172064
v 0.19676097 -0.17219008 0.14678172
v 0.19546415 -0.18837344 -0.07793910
v 0.20916105 -0.21051573 -0.39779024
v 0.20126897 -0.20484959 -0.31517561
v 0.20420844 -0.20499203 -0.32078801
v 0.19676921 -0.19678561 -0.19787626
v 0.22984433 -0.19664317 -0.15174227
v 0.22465294 -0.17906702 0.07791747
v 0.22496581 -0.17878212 0.08611158
v 0.22520458 -0.17849724 0.09430570
v 0.22536103 -0.17821235 0.10249983
v 0.21987322 -0.18872163 -0.08113818
v 0.21735781 -0.17407352 0.12708217
v 0.21735781 -0.17293396 0.14352653
v 0.21801239 -0.17241958 0.15160839
v 0.21571516 -0.17215052 0.15424623
v 0.21844878 -0.17197641 0.15879227
v 0.20916105 -0.20989848 -0.38959613
v 0.21735781 -0.20961360 -0.38140202
v 0.21735781 -0.20844238 -0.36495766
v 0.21735781 -0.20488915 -0.31410923
v 0.19351686 -0.17750803 0.15879227
v 0.19167249 -0.18804106 -0.04516264
v 0.19167249 -0.18804898 -0.04129008
v 0.19167249 -0.19015399 -0.03348883
v 0.19167249 -0.19266262 -0.02972852
v 0.19167249 -0.19316909 -0.02911115
v 0.19167249 -0.19694389 -0.02535083
v 0.19167249 -0.20638483 -0.02641720
v 0.19167249 -0.20919417 -0.02692231
v 0.19167249 -0.18827847 -0.05756606
v 0.19376800 -0.17635265 0.15879227
v 0.19583879 -0.17241166 0.15879227
v 0.20096020 -0.17141455 0.15879227
v 0.20490419 -0.19684892 -0.20511627
v 0.19673627 -0.18037277 0.03161511
v 0.19656336 -0.18856336 -0.08332702
v 0.20096020 -0.17186563 0.15172064
v 0.20096020 -0.17219008 0.14678172
v 0.20709850 -0.20499203 -0.32078801
v 0.20916105 -0.20931288 -0.38140202
v 0.21735781 -0.19011443 -0.10257757
v 0.21283745 -0.18046773 0.03296209
v 0.20916105 -0.17376489 0.12708217
v 0.21109600 -0.17232461 0.14880220
v 0.20909520 -0.17162030 0.15879227
v 0.20916105 -0.20872726 -0.37315178
v 0.20916105 -0.20757187 -0.35676355
v 0.21256985 -0.20508701 -0.31955328
v 0.19167249 -0.18807272 -0.04903520
v 0.20562876 -0.17222965 0.14734297
v 0.20526235 -0.19684892 -0.20511627
v 0.20916105 -0.18851588 -0.08405663
f 1 2 3
f 1 3 4
f 1 4 5
f 1 5 6
f 1 6 7
f 1 7 8
f 1 8 9
f 1 9 2
f 2 10 11
f 2 11 12
f 2 12 13
f 2 13 14
f 2 14 15
f 2 15 16
f 2 16 17
f 2 17 18
f 2 18 19
f 2 19 20
f 2 20 3
f 2 9 10
f 3 20 4
f 4 21 5
f 4 20 21
f 5 22 23
f 5 23 24
f 5 24 6
f 5 21 25
f 5 25 26
f 5 26 22
f 6 24 27
f 6 27 28
f 6 28 29
f 6 29 30
f 6 30 31
f 6 31 32
f 6 32 33
f 6 33 34
f 6 34 35
f 6 35 36
f 6 36 7
f 7 37 38
f 7 38 39
f 7 39 8
f 7 36 37
f 8 39 40
f 8 40 9
f 9 41 10
f 9 40 42
f 9 42 43
f 9 43 41
f 10 44 45
f 10 45 46
f 10 46 47
f 10 47 11
f 10 41 44
f 11 47 48
f 11 48 12
f 12 48 49
f 12 49 50
f 12 50 13
f 13 50 51
f 13 51 52
f 13 52 53
f 13 53 14
f 14 53 54
f 14 54 15
f 15 54 55
f 15 55 16
f 16 55 56
f 16 56 17
f 17 56 57
f 17 57 18
f 18 57 58
f 18 58 59
f 18 59 19
f 19 59 20
f 20 60 61
f 20 61 26
f 20 26 25
f 20 25 21
f 20 59 62
f 20 62 60
f 22 63 120
f 22 120 64
f 22 64 23
f 22 26 63
f 23 64 27
f 23 27 24
f 26 61 63
f 27 64 65
f 27 65 66
f 27 66 67
f 27 67 68
f 27 68 69
f 27 69 70
f 27 70 71
f 27 71 28
f 28 71 29
f 29 71 30
f 30 71 31
f 31 71 32
f 32 72 33
f 32 71 72
f 33 72 73
f 33 73 34
f 34 73 74
f 34 74 35
f 35 74 36
f 36 75 37
f 36 74 76
f 36 76 77
f 36 77 78
f 36 78 75
f 37 79 38
f 37 75 79
f 38 80 81
f 38 81 39
f 38 79 80
f 39 81 40
f 40 81 82
f 40 82 42
f 41 83 44
f 41 43 83
f 42 82 84
f 42 84 43
f 43 84 85
f 43 85 83
f 44 86 87
f 44 87 45
f 44 83 88
f 44 88 89
f 44 89 86
f 45 87 90
f 45 90 91
f 45 91 92
f 45 92 93
f 45 93 94
f 45 94 95
f 45 95 96
f 45 96 46
f 46 96 97
f 46 97 47
f 47 49 48
f 47 97 98
f 47 98 99
f 47 99 100
f 47 100 49
f 49 100 101
f 49 101 102
f 49 102 50
f 50 102 103
f 50 103 51
f 51 103 104
f 51 104 105
f 51 105 52
f 52 105 53
f 53 105 106
f 53 106 54
f 54 106 107
f 54 107 55
f 55 107 108
f 55 108 109
f 55 109 56
f 56 109 110
f 56 110 57
f 57 110 111
f 57 111 58
f 58 111 59
f 59 111 112
f 59 112 62
f 60 63 61
f 60 62 113
f 60 113 114
f 60 114 63
f 62 115 116
f 62 116 117
f 62 117 118
f 62 118 119
f 62 119 114
f 62 114 113
f 62 112 115
f 63 114 121
f 63 121 122
f 63 122 120
f 64 120 65
f 65 120 123
f 65 123 124
f 65 124 66
f 66 124 125
f 66 125 126
f 66 126 67
f 67 126 127
f 67 127 68
f 68 127 128
f 68 128 70
f 68 70 69
f 70 128 129
f 70 129 130
f 70 130 131
f 70 131 71
f 71 131 130
f 71 130 185
f 71 185 218
f 71 218 254
f 71 254 284
f 71 284 317
f 71 317 316
f 71 316 315
f 71 315 314
f 71 314 313
f 71 313 312
f 71 312 311
f 71 311 310
f 71 310 337
f 71 337 318
f 71 318 285
f 71 285 259
f 71 259 223
f 71 223 258
f 71 258 257
f 71 257 256
f 71 256 255
f 71 255 219
f 71 219 186
f 71 186 132
f 71 132 78
f 71 78 77
f 71 77 76
f 71 76 74
f 71 74 72
f 72 74 73
f 75 78 132
f 75 132 133
f 75 133 134
f 75 134 79
f 79 134 135
f 79 135 136
f 79 136 80
f 80 137 81
f 80 136 138
f 80 138 139
f 80 139 137
f 81 140 141
f 81 141 142
f 81 142 82
f 81 137 140
f 82 142 84
f 83 85 143
f 83 143 144
f 83 144 88
f 84 142 145
f 84 145 85
f 85 145 146
f 85 146 143
f 86 89 147
f 86 147 148
f 86 148 87
f 87 148 152
f 87 152 90
f 88 144 89
f 89 149 147
f 89 144 150
f 89 150 151
f 89 151 149
f 90 152 153
f 90 153 91
f 91 153 154
f 91 154 155
f 91 155 214
f 91 214 156
f 91 156 92
f 92 156 93
f 93 156 157
f 93 157 94
f 94 157 216
f 94 216 158
f 94 158 95
f 95 158 159
f 95 159 96
f 96 160 97
f 96 159 161
f 96 161 160
f 97 160 162
f 97 162 98
f 98 162 163
f 98 163 99
f 99 163 164
f 99 164 100
f 100 164 101
f 101 164 165
f 101 165 102
f 102 165 103
f 103 165 166
f 103 166 167
f 103 167 168
f 103 168 169
f 103 169 105
f 103 105 104
f 105 169 106
f 106 169 170
f 106 170 107
f 107 170 108
f 108 171 109
f 108 170 172
f 108 172 173
f 108 173 171
f 109 171 110
f 110 171 174
f 110 174 111
f 111 174 112
f 112 174 175
f 112 175 115
f 114 119 176
f 114 176 177
f 114 177 121
f 115 175 116
f 116 173 167
f 116 167 178
f 116 178 179
f 116 179 117
f 116 175 174
f 116 174 173
f 117 179 178
f 117 178 167
f 117 167 213
f 117 213 212
f 117 212 211
f 117 211 252
f 117 252 282
f 117 282 273
f 117 273 272
f 117 272 271
f 117 271 304
f 117 304 333
f 117 333 321
f 117 321 286
f 117 286 320
f 117 320 319
f 117 319 309
f 117 309 283
f 117 283 253
f 117 253 217
f 117 217 184
f 117 184 129
f 117 129 183
f 117 183 182
f 117 182 126
f 117 126 176
f 117 176 118
f 118 176 119
f 120 122 123
f 121 177 122
f 122 177 180
f 122 180 125
f 122 125 124
f 122 124 123
f 125 180 181
f 125 181 126
f 126 181 176
f 126 182 127
f 127 182 183
f 127 183 128
f 128 183 129
f 129 184 185
f 129 185 130
f 132 186 187
f 132 187 188
f 132 188 133
f 133 188 134
f 134 189 135
f 134 188 189
f 135 139 138
f 135 138 136
f 135 189 188
f 135 188 187
f 135 187 190
f 135 190 191
f 135 191 139
f 137 139 140
f 139 191 192
f 139 192 140
f 140 193 194
f 140 194 141
f 140 192 193
f 141 194 142
f 142 194 195
f 142 195 196
f 142 196 146
f 142 146 145
f 143 146 144
f 144 146 150
f 146 196 197
f 146 197 150
f 147 149 198
f 147 198 199
f 147 199 200
f 147 200 201
f 147 201 202
f 147 202 203
f 147 203 148
f 148 203 204
f 148 204 205
f 148 205 152
f 149 206 207
f 149 207 198
f 149 151 208
f 149 208 206
f 150 197 209
f 150 209 151
f 151 209 208
f 152 205 153
f 153 205 210
f 153 210 154
f 154 210 155
f 155 211 212
f 155 212 213
f 155 213 214
f 155 210 211
f 156 214 215
f 156 215 216
f 156 216 157
f 158 216 159
f 159 216 213
f 159 213 161
f 160 161 162
f 161 213 162
f 162 213 163
f 163 213 165
f 163 165 164
f 165 213 167
f 165 167 166
f 167 173 172
f 167 172 168
f 168 172 170
f 168 170 169
f 171 173 174
f 176 181 180
f 176 180 177
f 184 217 185
f 185 217 218
f 186 219 220
f 186 220 187
f 187 220 221
f 187 221 222
f 187 222 190
f 190 222 223
f 190 223 224
f 190 224 225
f 190 225 226
f 190 226 191
f 191 226 227
f 191 227 192
f 192 227 193
f 193 195 194
f 193 227 228
f 193 228 195
f 195 228 229
f 195 229 196
f 196 229 230
f 196 230 231
f 196 231 197
f 197 231 209
f 198 207 232
f 198 232 233
f 198 233 199
f 199 233 234
f 199 234 235
f 199 235 236
f 199 236 200
f 200 236 237
f 200 237 201
f 201 237 238
f 201 238 202
f 202 238 203
f 203 238 239
f 203 239 204
f 204 239 240
f 204 240 205
f 205 240 241
f 205 241 249
f 205 249 210
f 206 208 242
f 206 242 207
f 207 242 243
f 207 243 244
f 207 244 232
f 208 209 245
f 208 245 246
f 208 246 247
f 208 247 248
f 208 248 242
f 209 231 245
f 210 249 250
f 210 250 251
f 210 251 211
f 211 251 252
f 213 216 215
f 213 215 214
f 217 253 254
f 217 254 218
f 219 255 220
f 220 255 256
f 220 256 257
f 220 257 258
f 220 258 221
f 221 258 223
f 221 223 222
f 223 259 225
f 223 225 224
f 225 259 226
f 226 260 227
f 226 259 261
f 226 261 260
f 227 260 262
f 227 262 228
f 228 262 263
f 228 263 229
f 229 263 230
f 230 263 264
f 230 264 231
f 231 264 245
f 232 244 265
f 232 265 233
f 233 265 294
f 233 294 266
f 233 266 234
f 234 266 235
f 235 266 267
f 235 267 268
f 235 268 236
f 236 268 269
f 236 269 237
f 237 269 238
f 238 269 270
f 238 270 271
f 238 271 272
f 238 272 239
f 239 272 273
f 239 273 240
f 240 273 241
f 241 273 249
f 242 274 275
f 242 275 243
f 242 248 270
f 242 270 276
f 242 276 274
f 243 275 244
f 244 275 265
f 245 264 277
f 245 277 246
f 246 277 278
f 246 278 279
f 246 279 280
f 246 280 247
f 247 280 248
f 248 280 279
f 248 279 281
f 248 281 270
f 249 273 282
f 249 282 251
f 249 251 250
f 251 282 252
f 253 283 254
f 254 283 284
f 259 285 286
f 259 286 287
f 259 287 288
f 259 288 289
f 259 289 261
f 260 290 262
f 260 261 291
f 260 291 292
f 260 292 290
f 261 293 291
f 261 289 293
f 262 290 263
f 263 290 277
f 263 277 264
f 265 275 294
f 266 294 267
f 267 294 268
f 268 295 296
f 268 296 297
f 268 297 269
f 268 294 275
f 268 275 295
f 269 297 298
f 269 298 270
f 270 281 299
f 270 299 300
f 270 300 301
f 270 301 302
f 270 302 303
f 270 303 304
f 270 304 271
f 270 298 297
f 270 297 296
f 270 296 295
f 270 295 276
f 274 276 295
f 274 295 275
f 277 290 305
f 277 305 278
f 278 305 328
f 278 328 306
f 278 306 279
f 279 306 307
f 279 307 281
f 281 307 308
f 281 308 299
f 283 309 310
f 283 310 311
f 283 311 312
f 283 312 313
f 283 313 314
f 283 314 315
f 283 315 316
f 283 316 317
f 283 317 284
f 285 318 319
f 285 319 320
f 285 320 286
f 286 321 287
f 287 321 288
f 288 322 292
f 288 292 323
f 288 323 324
f 288 324 289
f 288 321 325
f 288 325 326
f 288 326 339
f 288 339 322
f 289 324 293
f 290 292 305
f 291 293 292
f 292 322 339
f 292 339 327
f 292 327 328
f 292 328 305
f 292 293 324
f 292 324 323
f 299 329 300
f 299 308 329
f 300 330 331
f 300 331 332
f 300 332 301
f 300 329 330
f 301 332 302
f 302 332 303
f 303 333 304
f 303 332 333
f 306 328 307
f 307 328 334
f 307 334 335
f 307 335 336
f 307 336 308
f 308 336 330
f 308 330 329
f 309 319 337
f 309 337 310
f 318 337 319
f 321 333 338
f 321 338 325
f 325 338 326
f 326 338 339
f 327 335 334
f 327 334 328
f 327 339 335
f 330 340 331
f 330 336 340
f 331 338 332
f 331 340 338
f 332 338 333
f 335 339 338
f 335 338 340
f 335 340 336

