# https://github.com/mikedh/trimesh
v 0.18172816 0.18781552 0.16957677
v 0.17589326 0.18781552 0.16995562
v 0.18474434 0.18781552 0.19635379
v 0.18142294 0.17798639 0.20055546
v 0.18013029 0.17798639 0.19754198
v 0.17697047 0.17798639 0.19487288
v 0.16802962 0.17798639 0.19347807
v 0.00361130 0.17798639 0.19420131
v 0.00361130 0.18781552 0.19420131
v 0.18521112 0.18781552 0.20506709
v 0.18212312 0.17798639 0.20916545
v 0.00361130 0.17798639 0.29461084
v 0.00361130 0.18781552 0.28839443
v 0.18530090 0.18781552 0.20916545
v 0.18214108 0.17798639 0.21736213
v 0.18542658 0.18781552 0.21736213
v 0.18555225 0.18781552 0.22557607
v 0.18670128 0.18781552 0.30757746
v 0.18677308 0.18781552 0.31577416
v 0.18684489 0.18781552 0.32398808
v 0.18702444 0.18781552 0.34549580
v 0.00361130 0.17844345 0.29442142
v 0.02871032 0.17798639 0.29461084
v 0.16813734 0.17811051 0.34549580
v 0.15950170 0.18061519 0.34549580
v 0.15795769 0.18106647 0.34549580
v 0.15556987 0.18261758 0.34549580
v 0.15210484 0.18516651 0.34549580
v 0.15140467 0.18688601 0.34549580
v 0.15102763 0.18781552 0.34549580
v 0.00361130 0.18455165 0.29071913
v 0.18215903 0.17798639 0.22557607
v 0.18445708 0.18455165 0.34549580
v 0.18214108 0.17798639 0.23377275
v 0.00361130 0.18418889 0.29094300
v 0.04511984 0.17798639 0.29459363
v 0.16312831 0.17798639 0.29145959
v 0.16817324 0.17798639 0.29080523
v 0.17336181 0.17798639 0.28879049
v 0.17722181 0.17798639 0.27473901
v 0.17634209 0.17828948 0.34549580
v 0.05246282 0.17798639 0.29457640
v 0.06973411 0.17798639 0.29452475
v 0.07793887 0.17798639 0.29449031
v 0.08612567 0.17798639 0.29445586
v 0.09397135 0.17798639 0.29440421
v 0.10251723 0.17798639 0.29431809
v 0.10526412 0.17798639 0.29428367
v 0.11088357 0.17798639 0.29416311
v 0.11892674 0.17798639 0.29390483
v 0.11944739 0.17798639 0.29388759
v 0.14513888 0.17798639 0.29251001
v 0.18217699 0.18173329 0.34549580
v 0.18144089 0.17798639 0.23966199
v 0.18081252 0.18005517 0.34549580
f 1 2 9
f 1 9 13
f 1 13 30
f 1 30 21
f 1 21 20
f 1 20 19
f 1 19 18
f 1 18 17
f 1 17 16
f 1 16 14
f 1 14 10
f 1 10 3
f 1 3 4
f 1 4 5
f 1 5 6
f 1 6 7
f 1 7 8
f 1 8 2
f 2 8 9
f 3 10 11
f 3 11 4
f 4 11 15
f 4 15 32
f 4 32 34
f 4 34 54
f 4 54 40
f 4 40 39
f 4 39 38
f 4 38 37
f 4 37 52
f 4 52 51
f 4 51 50
f 4 50 49
f 4 49 48
f 4 48 47
f 4 47 46
f 4 46 45
f 4 45 44
f 4 44 43
f 4 43 42
f 4 42 36
f 4 36 23
f 4 23 12
f 4 12 8
f 4 8 7
f 4 7 6
f 4 6 5
f 8 12 22
f 8 22 35
f 8 35 31
f 8 31 13
f 8 13 9
f 10 14 11
f 11 14 16
f 11 16 17
f 11 17 18
f 11 18 19
f 11 19 20
f 11 20 21
f 11 21 15
f 12 23 24
f 12 24 25
f 12 25 26
f 12 26 27
f 12 27 28
f 12 28 29
f 12 29 30
f 12 30 22
f 13 31 30
f 15 21 32
f 21 33 34
f 21 34 32
f 21 30 29
f 21 29 28
f 21 28 27
f 21 27 26
f 21 26 25
f 21 25 24
f 21 24 41
f 21 41 55
f 21 55 53
f 21 53 33
f 22 30 35
f 23 36 24
f 24 37 38
f 24 38 39
f 24 39 40
f 24 40 41
f 24 36 42
f 24 42 43
f 24 43 44
f 24 44 45
f 24 45 46
f 24 46 47
f 24 47 48
f 24 48 49
f 24 49 50
f 24 50 51
f 24 51 52
f 24 52 37
f 30 31 35
f 33 53 34
f 34 53 55
f 34 55 41
f 34 41 54
f 40 54 41

