# https://github.com/mikedh/trimesh
v 0.20096475 0.16952774 0.40783771
v 0.23786383 0.03280698 0.38550119
v 0.20915255 0.15991739 0.40606779
v 0.20915255 0.16811339 0.40687859
v 0.20924522 0.16952774 0.40665118
v 0.19276152 0.16952774 0.40778826
v 0.20916027 -0.12857428 0.36051475
v 0.21735575 -0.12857428 0.36051475
v 0.23833503 0.08854698 0.39395525
v 0.23375449 0.08771287 0.39408380
v 0.23376221 -0.08610744 0.36678362
v 0.23940869 -0.06750326 0.36939398
v 0.24207359 -0.06086669 0.36973017
v 0.24609023 -0.05767533 0.36912702
v 0.23375449 0.09431318 0.39506269
v 0.23896842 0.09431318 0.39436066
v 0.21585724 0.15991739 0.40396170
v 0.21510798 0.16811339 0.40402102
v 0.21486082 0.16952774 0.40381339
v 0.18455830 0.16952774 0.40740264
v 0.19671638 -0.12360593 0.36097947
v 0.20096475 -0.12418618 0.36105857
v 0.20096475 -0.12828417 0.36038620
v 0.20916027 -0.13531965 0.35933810
v 0.21735575 -0.13531965 0.35934798
v 0.22188994 -0.12400484 0.36102892
v 0.23376221 -0.09430344 0.36542898
v 0.24195772 -0.09430344 0.36414355
v 0.24195772 -0.08610744 0.36557729
v 0.24684722 -0.09430344 0.36192871
v 0.24721799 -0.08610744 0.36265052
v 0.24622155 -0.05332347 0.36929510
v 0.24190365 0.09431318 0.38960464
v 0.23886800 0.09982553 0.39433099
v 0.21706997 0.16811339 0.39780161
v 0.21655242 0.16952774 0.39780161
v 0.17647866 0.16952774 0.40514822
v 0.19534917 -0.15171164 0.35404813
v 0.19620657 -0.15736905 0.35320767
v 0.20096475 -0.14351565 0.35751875
v 0.20096475 -0.13531965 0.35909091
v 0.17353569 0.16952774 0.40399135
v 0.20916027 -0.14351565 0.35771651
v 0.21735575 -0.14351565 0.35772638
v 0.24629880 -0.09861902 0.36118710
v 0.22308720 -0.15776799 0.35332632
v 0.24713302 -0.09470235 0.35692547
v 0.24824534 -0.08610744 0.35679694
v 0.24638377 -0.04509121 0.36954231
v 0.24408192 0.06972521 0.38139776
v 0.24400468 0.07792120 0.38139776
v 0.24378839 0.08611719 0.38139776
v 0.24344079 0.09431318 0.38139776
v 0.23965588 0.10250918 0.38889271
v 0.21723218 0.16811339 0.38960464
v 0.24097673 0.10250918 0.38139776
v 0.21670691 0.16952774 0.38960464
v 0.19463081 -0.14351565 0.35502702
v 0.19291601 -0.15171164 0.34859997
v 0.19497068 -0.16810363 0.34691902
v 0.16968125 0.16952774 0.39780161
v 0.20096475 -0.16810363 0.34965796
v 0.20096475 -0.16248248 0.35209034
v 0.20096475 -0.15838448 0.35353398
v 0.20096475 -0.15171164 0.35554119
v 0.19584353 -0.17405117 0.34552486
v 0.20916027 -0.15171164 0.35570927
v 0.21735575 -0.15171164 0.35573895
v 0.22402185 -0.17448634 0.34577205
v 0.22627734 -0.16795858 0.34683992
v 0.22948296 -0.17064220 0.34313201
v 0.22983826 -0.18097787 0.33678404
v 0.22987689 -0.18906506 0.32875518
v 0.22977647 -0.19700720 0.31225245
v 0.22997731 -0.19729731 0.30759530
v 0.21735575 -0.15874715 0.35363283
v 0.21735575 -0.16284514 0.35231778
v 0.21735575 -0.16810363 0.35011278
v 0.22999275 -0.19733359 0.30683392
v 0.24639922 -0.03689522 0.36967084
v 0.24680087 -0.09223631 0.35045887
v 0.24709440 -0.08610744 0.34989525
v 0.24656916 -0.06151947 0.35196181
v 0.24795180 -0.07791145 0.35679694
v 0.24761965 -0.06971546 0.35679694
v 0.24051328 0.09431318 0.37486193
v 0.23948594 0.10250918 0.37593971
v 0.24726434 -0.06151947 0.35679694
v 0.24632197 -0.05470156 0.35235733
v 0.24605161 -0.04922548 0.35273305
v 0.21730943 0.16811339 0.38139776
v 0.23836593 0.10696983 0.37688892
v 0.21656787 0.16952774 0.38014201
v 0.21676871 0.16952774 0.38139776
v 0.19264566 -0.16810363 0.34040297
v 0.19453039 -0.17658974 0.34082816
v 0.16934138 0.16952774 0.38960464
v 0.19245255 -0.17629963 0.33220600
v 0.20916027 -0.16810363 0.35002380
v 0.20096475 -0.17517539 0.34616757
v 0.20916027 -0.16273634 0.35228810
v 0.20916027 -0.15863834 0.35361306
v 0.19550366 -0.18257356 0.33838586
v 0.20096475 -0.17927339 0.34373516
v 0.21735575 -0.17561058 0.34638510
v 0.21735575 -0.17970858 0.34408123
v 0.22555898 -0.18282741 0.33851442
v 0.22555898 -0.18692539 0.33465818
v 0.22555898 -0.19040689 0.33055475
v 0.22224527 -0.19700720 0.32045930
v 0.22521140 -0.19769623 0.31530776
v 0.22555898 -0.19932818 0.30759530
v 0.22555898 -0.19943699 0.30683392
v 0.22957563 -0.19758745 0.30683392
v 0.23030946 -0.19272787 0.30683392
v 0.23004683 -0.18453188 0.30683392
v 0.23002365 -0.18409669 0.30683392
v 0.22950613 -0.17550178 0.30683392
v 0.22948296 -0.17513914 0.30683392
v 0.22151916 0.13979007 0.36901824
v 0.22897314 -0.16810363 0.30683392
v 0.21503073 0.16952774 0.37502014
v 0.19446860 -0.18496707 0.33262129
v 0.16973532 0.16952774 0.38139776
v 0.19154108 -0.16886521 0.30683392
v 0.19197364 -0.17629963 0.30683392
v 0.19247572 -0.18453188 0.30683392
v 0.19256069 -0.18453188 0.31579228
v 0.19275380 -0.18453188 0.32399915
v 0.20916027 -0.17546552 0.34632577
v 0.20916027 -0.17956352 0.34400212
v 0.20096475 -0.18387910 0.33963174
v 0.19567359 -0.19004423 0.33015924
v 0.20096475 -0.18797710 0.33555797
v 0.20916027 -0.18420549 0.33989870
v 0.21735575 -0.18431429 0.33997780
v 0.21735575 -0.18841229 0.33608201
v 0.21735575 -0.19145858 0.33197859
v 0.21735575 -0.19555657 0.32466163
v 0.21735575 -0.19704345 0.32056808
v 0.21735575 -0.19867541 0.31579228
v 0.21735575 -0.20077881 0.30759530
v 0.22480200 -0.19958204 0.30683392
v 0.21353995 0.15643592 0.36898859
v 0.22525003 -0.15972631 0.30683392
v 0.20922977 0.16952774 0.37202414
v 0.19497068 -0.19145858 0.32399915
v 0.17136516 0.16952774 0.37780849
v 0.19151790 -0.16810363 0.30683392
v 0.19254524 -0.18529345 0.30683392
v 0.19345672 -0.19272787 0.30683392
v 0.19349534 -0.19272787 0.30759530
v 0.20916027 -0.18830349 0.33591393
v 0.19616795 -0.19747864 0.31371584
v 0.19955893 -0.19646321 0.31918377
v 0.20176036 -0.19523019 0.32317844
v 0.20096475 -0.19102339 0.33146442
v 0.20916027 -0.19131352 0.33182038
v 0.20916027 -0.19541152 0.32424634
v 0.20916027 -0.19838528 0.31579228
v 0.20916027 -0.19689840 0.32014289
v 0.20916027 -0.20048868 0.30759530
v 0.21735575 -0.20088759 0.30683392
v 0.19130935 0.16952774 0.37074861
v 0.20096475 0.16952774 0.37112435
v 0.20773898 0.16952774 0.37165827
v 0.20915255 0.16811339 0.37150009
v 0.21735575 -0.15566459 0.30683392
v 0.19555772 -0.19813142 0.30759530
v 0.17357430 0.16952774 0.37500037
v 0.19364982 -0.15990764 0.30683392
v 0.17443171 0.16952774 0.37404125
v 0.19364982 -0.19327184 0.30683392
v 0.20096475 -0.19998096 0.30683392
v 0.20096475 -0.19987215 0.30759530
v 0.20176036 -0.19776878 0.31618779
v 0.20502774 -0.19682587 0.31990560
v 0.20916027 -0.20059748 0.30683392
v 0.18252679 0.16952774 0.37107490
v 0.20916027 -0.15530192 0.30683392
v 0.20096475 -0.15515687 0.30683392
v 0.19551911 -0.19816769 0.30683392
v 0.19379659 -0.15954498 0.30683392
v 0.19870153 -0.15570084 0.30683392
f 1 2 3
f 1 3 4
f 1 4 5
f 1 5 19
f 1 19 36
f 1 36 57
f 1 57 94
f 1 94 93
f 1 93 122
f 1 122 146
f 1 146 166
f 1 166 165
f 1 165 164
f 1 164 179
f 1 179 172
f 1 172 170
f 1 170 148
f 1 148 124
f 1 124 97
f 1 97 61
f 1 61 42
f 1 42 37
f 1 37 20
f 1 20 6
f 1 6 7
f 1 7 8
f 1 8 2
f 2 9 10
f 2 10 3
f 2 8 11
f 2 11 12
f 2 12 13
f 2 13 14
f 2 14 9
f 3 10 15
f 3 15 9
f 3 9 4
f 4 9 16
f 4 16 17
f 4 17 18
f 4 18 5
f 5 18 19
f 6 20 21
f 6 21 22
f 6 22 7
f 7 22 23
f 7 23 24
f 7 24 25
f 7 25 8
f 8 25 26
f 8 26 27
f 8 27 11
f 9 15 10
f 9 14 16
f 11 27 12
f 12 27 28
f 12 28 29
f 12 29 14
f 12 14 13
f 14 29 28
f 14 28 30
f 14 30 31
f 14 31 32
f 14 32 33
f 14 33 16
f 16 33 34
f 16 34 17
f 17 34 18
f 18 34 19
f 19 34 35
f 19 35 36
f 20 37 21
f 21 38 39
f 21 39 40
f 21 40 41
f 21 41 23
f 21 23 22
f 21 37 42
f 21 42 38
f 23 41 24
f 24 41 40
f 24 40 43
f 24 43 44
f 24 44 25
f 25 44 26
f 26 44 27
f 27 44 28
f 28 45 30
f 28 44 46
f 28 46 45
f 30 45 47
f 30 47 48
f 30 48 31
f 31 48 49
f 31 49 32
f 32 49 33
f 33 50 51
f 33 51 52
f 33 52 53
f 33 53 54
f 33 54 34
f 33 49 50
f 34 54 35
f 35 55 36
f 35 54 56
f 35 56 55
f 36 55 57
f 38 58 59
f 38 59 60
f 38 60 39
f 38 42 61
f 38 61 58
f 39 62 63
f 39 63 64
f 39 64 65
f 39 65 40
f 39 60 66
f 39 66 62
f 40 65 43
f 43 65 67
f 43 67 68
f 43 68 44
f 44 68 46
f 45 46 69
f 45 69 70
f 45 70 71
f 45 71 72
f 45 72 73
f 45 73 74
f 45 74 75
f 45 75 47
f 46 68 76
f 46 76 77
f 46 77 78
f 46 78 69
f 47 75 79
f 47 79 48
f 48 80 49
f 48 79 81
f 48 81 82
f 48 82 83
f 48 83 84
f 48 84 52
f 48 52 51
f 48 51 80
f 49 80 50
f 50 80 51
f 52 84 85
f 52 85 53
f 53 86 87
f 53 87 56
f 53 56 54
f 53 85 88
f 53 88 89
f 53 89 90
f 53 90 86
f 55 91 57
f 55 56 91
f 56 87 92
f 56 92 93
f 56 93 91
f 57 91 94
f 58 61 59
f 59 95 60
f 59 61 95
f 60 95 96
f 60 96 66
f 61 97 98
f 61 98 95
f 62 99 63
f 62 66 100
f 62 100 99
f 63 99 101
f 63 101 64
f 64 102 67
f 64 67 65
f 64 101 102
f 66 96 103
f 66 103 104
f 66 104 100
f 67 102 76
f 67 76 68
f 69 105 106
f 69 106 107
f 69 107 72
f 69 72 71
f 69 71 70
f 69 78 105
f 72 107 108
f 72 108 73
f 73 108 109
f 73 109 110
f 73 110 74
f 74 111 112
f 74 112 113
f 74 113 114
f 74 114 75
f 74 110 111
f 75 114 79
f 76 102 77
f 77 101 78
f 77 102 101
f 78 101 99
f 78 99 105
f 79 115 81
f 79 114 113
f 79 113 143
f 79 143 163
f 79 163 178
f 79 178 174
f 79 174 182
f 79 182 173
f 79 173 151
f 79 151 150
f 79 150 127
f 79 127 126
f 79 126 125
f 79 125 149
f 79 149 171
f 79 171 183
f 79 183 184
f 79 184 181
f 79 181 180
f 79 180 168
f 79 168 145
f 79 145 121
f 79 121 119
f 79 119 118
f 79 118 117
f 79 117 116
f 79 116 115
f 81 115 82
f 82 115 116
f 82 116 117
f 82 117 118
f 82 118 119
f 82 119 83
f 83 88 85
f 83 85 84
f 83 119 89
f 83 89 88
f 86 120 87
f 86 90 121
f 86 121 120
f 87 120 122
f 87 122 92
f 89 119 121
f 89 121 90
f 91 93 94
f 92 122 93
f 95 98 96
f 96 123 103
f 96 98 123
f 97 124 125
f 97 125 126
f 97 126 127
f 97 127 128
f 97 128 129
f 97 129 98
f 98 129 123
f 99 100 130
f 99 130 105
f 100 104 131
f 100 131 130
f 103 132 104
f 103 123 133
f 103 133 134
f 103 134 132
f 104 132 135
f 104 135 131
f 105 130 106
f 106 131 135
f 106 135 136
f 106 136 107
f 106 130 131
f 107 136 108
f 108 136 137
f 108 137 109
f 109 137 138
f 109 138 110
f 110 138 139
f 110 139 140
f 110 140 141
f 110 141 142
f 110 142 111
f 111 142 112
f 112 142 143
f 112 143 113
f 120 144 122
f 120 121 145
f 120 145 144
f 122 144 146
f 123 129 147
f 123 147 133
f 124 148 149
f 124 149 125
f 127 150 128
f 128 150 151
f 128 151 129
f 129 151 152
f 129 152 147
f 132 134 153
f 132 153 135
f 133 147 154
f 133 154 155
f 133 155 156
f 133 156 157
f 133 157 134
f 134 157 153
f 135 153 137
f 135 137 136
f 137 153 138
f 138 153 158
f 138 158 139
f 139 158 159
f 139 159 140
f 140 160 141
f 140 159 161
f 140 161 160
f 141 160 162
f 141 162 142
f 142 162 178
f 142 178 163
f 142 163 143
f 144 164 165
f 144 165 166
f 144 166 167
f 144 167 146
f 144 145 168
f 144 168 164
f 146 167 166
f 147 152 169
f 147 169 154
f 148 170 149
f 149 170 172
f 149 172 171
f 151 173 152
f 152 173 169
f 153 157 158
f 154 169 174
f 154 174 175
f 154 175 176
f 154 176 155
f 155 177 156
f 155 176 177
f 156 177 159
f 156 159 157
f 157 159 158
f 159 177 161
f 160 161 177
f 160 177 176
f 160 176 162
f 162 175 174
f 162 174 178
f 162 176 175
f 164 168 180
f 164 180 181
f 164 181 179
f 169 173 182
f 169 182 174
f 171 172 183
f 172 179 183
f 179 181 184
f 179 184 183

