# https://github.com/mikedh/trimesh
v 0.19167249 -0.20095943 -0.08972602
v 0.19167249 -0.19268673 -0.08538402
v 0.19167249 -0.20915313 -0.08878704
v -0.17806359 -0.21735812 -0.08370771
v -0.17806359 -0.21564264 -0.08379594
v -0.17806359 -0.20915313 -0.08397239
v -0.17806359 -0.20744141 -0.08399129
v -0.17806359 -0.20095943 -0.08399760
v -0.17806359 -0.19480851 -0.08300190
v 0.19167249 -0.19197571 -0.08438201
v -0.17806359 -0.19084709 -0.07791626
v 0.19167249 -0.21735812 -0.08777874
v -0.17806359 -0.22134587 -0.08297039
v 0.19167249 -0.18972977 -0.07790997
v -0.17806359 -0.18893222 -0.06971750
v 0.19167249 -0.22396802 -0.08520756
v -0.17806359 -0.22239549 -0.08274352
v 0.19167249 -0.18865007 -0.06971750
v -0.17806359 -0.18893222 -0.05331996
v 0.19167249 -0.18804814 -0.04511488
v 0.19167249 -0.18807071 -0.04898425
v 0.19167249 -0.18828139 -0.05756113
v 0.19167249 -0.18850711 -0.06641530
v 0.19167249 -0.22615375 -0.07790997
v -0.17806359 -0.22465272 -0.07791626
v -0.17806359 -0.22418245 -0.07893717
v -0.17806359 -0.18894727 -0.04512119
v 0.19167249 -0.18805190 -0.04128963
v 0.19167249 -0.22647730 -0.06971750
v -0.17806359 -0.22551046 -0.06971750
v -0.17806359 -0.18977492 -0.04345118
v 0.19167249 -0.19015112 -0.03345637
v 0.19167249 -0.22583775 -0.06259635
v -0.17806359 -0.22477685 -0.06322654
v 0.19167249 -0.22422760 -0.04620511
v 0.19167249 -0.22410721 -0.04511488
v -0.17806359 -0.19290869 -0.03731313
v 0.19167249 -0.19266792 -0.02970674
v -0.17806359 -0.22384763 -0.05503407
v 0.19167249 -0.22295226 -0.03841597
v -0.17806359 -0.22272278 -0.04512119
v -0.17806359 -0.19442478 -0.03655061
v 0.19167249 -0.19694534 -0.02534583
v 0.19167249 -0.19316827 -0.02907025
v 0.19167249 -0.22279802 -0.03764083
v -0.17806359 -0.22185753 -0.04016789
v -0.17806359 -0.20091805 -0.03359501
v -0.17806359 -0.20908166 -0.03360132
v 0.19167249 -0.20638430 -0.02639825
v 0.19167249 -0.21735812 -0.03104905
v -0.17806359 -0.21735812 -0.03647498
v 0.19167249 -0.20918699 -0.02692761
f 1 2 10
f 1 10 14
f 1 14 18
f 1 18 23
f 1 23 22
f 1 22 21
f 1 21 20
f 1 20 28
f 1 28 32
f 1 32 38
f 1 38 44
f 1 44 43
f 1 43 49
f 1 49 52
f 1 52 50
f 1 50 45
f 1 45 40
f 1 40 36
f 1 36 35
f 1 35 33
f 1 33 29
f 1 29 24
f 1 24 16
f 1 16 12
f 1 12 3
f 1 3 4
f 1 4 5
f 1 5 6
f 1 6 7
f 1 7 8
f 1 8 9
f 1 9 2
f 2 9 11
f 2 11 10
f 3 12 4
f 4 13 17
f 4 17 26
f 4 26 25
f 4 25 30
f 4 30 34
f 4 34 39
f 4 39 41
f 4 41 46
f 4 46 51
f 4 51 48
f 4 48 47
f 4 47 42
f 4 42 37
f 4 37 31
f 4 31 27
f 4 27 19
f 4 19 15
f 4 15 11
f 4 11 9
f 4 9 8
f 4 8 7
f 4 7 6
f 4 6 5
f 4 12 13
f 10 11 14
f 11 15 14
f 12 16 17
f 12 17 13
f 14 15 18
f 15 19 20
f 15 20 21
f 15 21 22
f 15 22 23
f 15 23 18
f 16 24 25
f 16 25 26
f 16 26 17
f 19 27 28
f 19 28 20
f 24 29 30
f 24 30 25
f 27 31 32
f 27 32 28
f 29 33 30
f 30 33 35
f 30 35 36
f 30 36 34
f 31 37 32
f 32 37 38
f 34 36 39
f 36 40 41
f 36 41 39
f 37 42 43
f 37 43 44
f 37 44 38
f 40 45 46
f 40 46 41
f 42 47 43
f 43 47 48
f 43 48 49
f 45 50 46
f 46 50 51
f 48 51 52
f 48 52 49
f 50 52 51

