# https://github.com/mikedh/trimesh
v 0.18215235 0.17793142 0.22557573
v 0.18211089 0.17793142 0.20916284
v 0.18211089 0.17793142 0.23378216
v 0.22893324 -0.16810471 0.30680610
v 0.18140585 0.17793142 0.20055426
v 0.22963828 -0.18039205 0.15880716
v 0.18144731 0.17793142 0.23963539
v 0.22943092 -0.17549244 0.30680610
v 0.22988710 -0.18391367 0.15880716
v 0.17721714 0.17793142 0.27472501
v 0.17336019 0.17793142 0.28879958
v 0.16813468 0.17793142 0.29079535
v 0.13528851 0.13532762 0.30028264
v 0.22515926 -0.15968348 0.30680610
v 0.07789066 0.04510560 0.30954656
v 0.07789066 0.03691404 0.30971039
v 0.06967912 0.03691404 0.31002313
v 0.06967912 0.00736316 0.31029125
v 0.06967912 0.00407123 0.31032102
v 0.06967912 -0.00412034 0.31033591
v 0.18012020 0.17793142 0.19754573
v 0.22495190 -0.17549244 0.15880716
v 0.16801025 0.17793142 0.19347974
v 0.17692683 0.17793142 0.19487976
v 0.22997007 -0.18448785 0.30680610
v 0.23100687 -0.20090925 0.15880716
v 0.16307502 0.17793142 0.29146556
v 0.13528851 0.15171076 0.29873370
v 0.13528851 0.14351919 0.29956776
v 0.12711843 0.13532762 0.30142947
v 0.12711843 0.12709779 0.30201033
v 0.12711843 0.11890622 0.30254650
v 0.12280531 0.11438939 0.30345502
v 0.11961192 0.11128884 0.30397628
v 0.11069535 0.11071465 0.30494439
v 0.11069535 0.10252310 0.30534650
v 0.11069535 0.08610169 0.30610610
v 0.10248381 0.08610169 0.30680610
v 0.10248381 0.07791013 0.30714865
v 0.09427227 0.07791013 0.30778908
v 0.08610220 0.07791013 0.30826568
v 0.07789066 0.07791013 0.30863802
v 0.06967912 0.04510560 0.30987422
v 0.06150905 0.03691404 0.31021676
v 0.05325604 0.00407123 0.31067848
v 0.05325604 -0.00412034 0.31069336
v 0.23030183 -0.19271768 0.30680610
v 0.22437128 -0.17503310 0.15880716
v 0.21835779 -0.17189429 0.15880716
v 0.20902648 -0.17154976 0.15880716
v 0.20197617 -0.17135838 0.15880716
v 0.20085642 -0.17135838 0.15880716
v -0.16799938 0.17793142 0.19349464
v 0.23042626 -0.19271768 0.29935924
v 0.23096539 -0.20090925 0.18457330
v 0.23042626 -0.20737829 0.15880716
v 0.14511747 0.17793142 0.29250813
v 0.12711843 0.17693617 0.29399750
v 0.12711843 0.17284040 0.29547198
v 0.13172187 0.17234278 0.29530815
v 0.12711843 0.16813216 0.29667836
v 0.12711843 0.15990233 0.29845073
v 0.13528851 0.15990233 0.29757199
v 0.12711843 0.15171076 0.29971667
v 0.12711843 0.14351919 0.30064010
v 0.11886543 0.13532762 0.30232308
v 0.11849218 0.12686811 0.30303799
v 0.11720653 0.11890622 0.30373799
v 0.11069535 0.11890622 0.30437842
v 0.10248381 0.11071465 0.30559970
v 0.10248381 0.10252310 0.30601673
v 0.09427227 0.08610169 0.30746142
v 0.08610220 0.08610169 0.30792313
v 0.07789066 0.08610169 0.30831036
v 0.06967912 0.07791013 0.30893590
v 0.06967912 0.06971857 0.30917422
v 0.06150905 0.06152701 0.30960611
v 0.06150905 0.04510560 0.31005293
v 0.05325604 0.04510560 0.31023165
v 0.05325604 0.03691404 0.31038059
v 0.05325604 0.00740144 0.31064868
v 0.04504449 0.00407123 0.31079762
v 0.05325604 -0.01235018 0.31066359
v 0.22992859 -0.19727282 0.30680610
v 0.04504449 -0.00412034 0.31079762
v 0.23009447 -0.19761732 0.29935924
v 0.19608710 -0.17174117 0.15880716
v -0.19051892 -0.18448785 0.19050100
v -0.19051892 -0.17629628 0.19063504
v -0.17019743 0.17793142 0.19383720
v 0.19575531 -0.17235360 0.15880716
v 0.19368168 -0.17629628 0.15880716
v 0.19347432 -0.17744462 0.15880716
v 0.19223015 -0.18448785 0.15880716
v 0.23063362 -0.20090925 0.22559061
v 0.23079951 -0.20090925 0.20917772
v 0.23034332 -0.20603855 0.20917772
v 0.23038478 -0.20619167 0.20100108
v 0.22988710 -0.20795248 0.15880716
v 0.11940457 0.17793142 0.29389324
v 0.11886543 0.17751036 0.29416133
v 0.11886543 0.17341458 0.29568050
v 0.11886543 0.16813216 0.29715496
v 0.11886543 0.15990233 0.29906136
v 0.11886543 0.15171076 0.30043159
v 0.11886543 0.14351919 0.30145925
v 0.11052946 0.13502140 0.30303799
v 0.10770934 0.13211225 0.30357416
v 0.11318370 0.12939448 0.30333587
v 0.11546469 0.12395896 0.30354439
v 0.10248381 0.11890622 0.30498907
v 0.09427227 0.11071465 0.30615079
v 0.09427227 0.10252310 0.30661248
v 0.08610220 0.09429326 0.30750610
v 0.07789066 0.09429326 0.30786356
v 0.06967912 0.08610169 0.30857845
v 0.08610220 0.10252310 0.30707419
v 0.06150905 0.07791013 0.30912953
v 0.05325604 0.06971857 0.30954656
v 0.05325604 0.05329716 0.31000825
v 0.04508597 0.04510560 0.31035079
v 0.04508597 0.03691404 0.31049973
v 0.04508597 0.01230107 0.31072314
v 0.03687443 0.00407123 0.31085719
v 0.04504449 -0.01235018 0.31075293
v 0.04504449 -0.02873331 0.31063379
v 0.05325604 -0.03688659 0.31046996
v 0.22955534 -0.19754076 0.30680610
v 0.22959680 -0.20492849 0.25400785
v 0.04504449 -0.04511643 0.31046996
v 0.03687443 -0.00412034 0.31085719
v 0.03687443 -0.01235018 0.31082742
v 0.22972122 -0.20511986 0.24852696
v 0.22988710 -0.20527299 0.24194393
v 0.23001153 -0.20546436 0.23378216
v -0.19051892 -0.19271768 0.19100739
v -0.19259255 0.00740144 0.20916284
v -0.19155572 0.00740144 0.20097129
v 0.19227163 -0.18563619 0.15880716
v 0.19330844 -0.20090925 0.15880716
v 0.19517470 -0.20776107 0.15880716
v -0.19051892 -0.02724045 0.19560955
v -0.19010419 -0.01235018 0.19571380
v -0.18989682 -0.00415862 0.19581806
v -0.18960652 0.00740144 0.19598189
v -0.18948212 0.01230107 0.19607126
v -0.18131203 0.13532762 0.19604147
v -0.17596210 0.17793142 0.19486486
v 0.22507632 -0.21170375 0.15880716
v 0.11081977 0.17793142 0.29416133
v 0.11069535 0.17781658 0.29423581
v 0.11069535 0.17372080 0.29581453
v 0.11069535 0.16813216 0.29746773
v 0.11069535 0.15990233 0.29947839
v 0.11069535 0.15171076 0.30093798
v 0.11069535 0.14351919 0.30205501
v 0.10248381 0.13762433 0.30327628
v 0.10248381 0.13349028 0.30372310
v 0.09427227 0.12709779 0.30476565
v 0.09427227 0.11890622 0.30551033
v 0.08610220 0.11071465 0.30656779
v 0.07789066 0.10252310 0.30740185
v 0.06967912 0.10252310 0.30765505
v 0.06150905 0.08610169 0.30877208
v 0.05325604 0.07791013 0.30929336
v 0.04508597 0.06971857 0.30966570
v 0.04508597 0.05329716 0.31012739
v 0.02866288 0.04510560 0.31046996
v 0.02866288 0.03691404 0.31061890
v 0.03687443 0.01230107 0.31078273
v 0.02866288 0.00407123 0.31090188
v 0.02866288 -0.00412034 0.31091676
v 0.03687443 -0.02873331 0.31069336
v 0.03687443 -0.03688659 0.31061890
v 0.22549103 -0.19941641 0.30680610
v 0.03687443 -0.04511643 0.31052953
v 0.22312712 -0.20538783 0.26654837
v 0.22474453 -0.20577061 0.25835683
v 0.22627900 -0.20592371 0.25082059
v 0.22403952 -0.21212481 0.15880716
v 0.02866288 -0.01235018 0.31087208
v 0.02866288 -0.03688659 0.31067848
v -0.19051892 -0.20094753 0.19164783
v -0.19130690 0.01230107 0.20097129
v -0.19051892 -0.20133031 0.19175207
v -0.19051892 -0.20653617 0.19400103
v -0.19267549 0.00740144 0.22557573
v -0.18164382 0.17793142 0.21081604
v -0.18160234 0.17793142 0.20916284
v -0.18861120 0.06585246 0.20496281
v -0.18877708 0.06152701 0.20408408
v -0.18865266 0.04177539 0.19681595
v -0.18881854 0.03691404 0.19668190
v -0.19051892 0.00403295 0.19784360
v -0.19051892 -0.00415862 0.19708403
v -0.19051892 -0.01235018 0.19647339
v -0.19051892 -0.02050347 0.19595210
v 0.20093937 -0.21158891 0.15880716
v -0.18927475 0.02049263 0.19626487
v -0.18106321 0.14351919 0.19622020
v -0.18060700 0.15990233 0.19665212
v -0.18048260 0.16506989 0.19680105
v -0.18015081 0.17050543 0.19736700
v -0.17981902 0.17793142 0.19833510
v 0.10522099 0.17793142 0.29426558
v 0.10248381 0.17793142 0.29431027
v 0.10248381 0.17391220 0.29590390
v 0.09427227 0.16813216 0.29784007
v 0.10248381 0.16813216 0.29767624
v 0.09427227 0.15990233 0.29999967
v 0.10248381 0.15990233 0.29977627
v 0.10248381 0.15171076 0.30132521
v 0.10248381 0.14351919 0.30251670
v 0.09713387 0.13884924 0.30341033
v 0.09435522 0.13578696 0.30388693
v 0.08610220 0.12709779 0.30515290
v 0.08610220 0.11890622 0.30591247
v 0.07789066 0.11071465 0.30688056
v 0.06967912 0.11071465 0.30711887
v 0.06150905 0.10252310 0.30781887
v 0.05325604 0.08610169 0.30892102
v 0.04508597 0.07791013 0.30941250
v 0.03687443 0.06971857 0.30972528
v 0.02866288 0.06152701 0.31000825
v 0.02049282 0.05329716 0.31026145
v 0.02049282 0.04510560 0.31048485
v 0.02049282 0.03691404 0.31063379
v 0.02049282 0.02868419 0.31072314
v 0.02045134 0.00736316 0.31090188
v 0.02045134 -0.00412034 0.31096145
v 0.22474453 -0.19956950 0.30680610
v 0.22188295 -0.20508158 0.27144840
v 0.02866288 -0.04511643 0.31057422
v 0.21727951 -0.20707207 0.25013548
v 0.21773570 -0.21304350 0.15880716
v 0.02045134 -0.01235018 0.31090188
v 0.02045134 -0.02050347 0.31084230
v 0.02045134 -0.03688659 0.31069336
v -0.18923327 0.04472282 0.20049469
v -0.19051892 -0.20703379 0.19547552
v 0.20803114 -0.21262243 0.15880716
v 0.20910942 -0.21273725 0.15880716
v -0.19051892 -0.20787592 0.20100108
v -0.19051892 -0.20799073 0.20323513
v -0.19051892 -0.20791420 0.20920752
v -0.19051892 -0.20469880 0.25807383
v -0.19051892 -0.20366530 0.26656326
v -0.19051892 -0.20140687 0.27475480
v -0.19051892 -0.19865082 0.28176975
v -0.19263400 0.00740144 0.23378216
v -0.18168528 0.17793142 0.22721404
v -0.18127055 0.17793142 0.20378621
v -0.18110467 0.17793142 0.20214789
v -0.18027523 0.17793142 0.19891596
v 0.09394049 0.17793142 0.29439964
v 0.09427227 0.17402702 0.29596347
v 0.08610220 0.16813216 0.29795924
v 0.08610220 0.15990233 0.30019330
v 0.08610220 0.15171076 0.30186139
v 0.09427227 0.15171076 0.30162307
v 0.08610220 0.14459100 0.30302310
v 0.09165951 0.13988276 0.30354439
v 0.08610220 0.13532762 0.30428907
v 0.07789066 0.12709779 0.30540610
v 0.07789066 0.11890622 0.30619545
v 0.06150905 0.11071465 0.30728270
v 0.06967912 0.11890622 0.30641885
v 0.05325604 0.10252310 0.30796782
v 0.04508597 0.08610169 0.30902525
v 0.03687443 0.07791013 0.30947208
v 0.02866288 0.06971857 0.30976994
v 0.02049282 0.06971857 0.30979973
v -0.02044047 0.05329716 0.31026145
v -0.01227040 0.03691404 0.31064868
v -0.02044047 0.04510560 0.31048485
v -0.02044047 0.03691404 0.31064868
v 0.00054458 0.00736316 0.31090188
v 0.00054458 -0.00412034 0.31096145
v 0.21727951 -0.20083269 0.30680610
v 0.21727951 -0.20194278 0.29935924
v -0.17629386 -0.20496677 0.26136534
v 0.21727951 -0.20638305 0.25835683
v 0.02045134 -0.04511643 0.31058911
v 0.02045134 -0.05330800 0.31042528
v 0.21649153 -0.21300522 0.15880716
v -0.00410034 -0.01235018 0.31090188
v -0.02044047 -0.03692487 0.31069336
v 0.00054458 -0.03692487 0.31069336
v -0.18230738 -0.20511986 0.25613765
v -0.17629386 -0.20412464 0.26656326
v 0.21649153 -0.20083269 0.30680610
v -0.19051892 -0.19719626 0.28288678
v 0.20910942 -0.20056475 0.30680610
v 0.20085642 -0.19995228 0.30680610
v -0.19051892 -0.18414335 0.29058684
v -0.19051892 -0.17694703 0.29302941
v -0.19051892 -0.17629628 0.29319324
v -0.19051892 -0.16810471 0.29425070
v -0.19051892 -0.04515471 0.27045052
v -0.19051892 -0.04151827 0.26896115
v -0.18861120 0.06577590 0.23789285
v -0.18164382 0.17793142 0.23378216
v 0.08556306 0.17793142 0.29445919
v 0.06967912 0.17421842 0.29606773
v 0.07789066 0.17418014 0.29602304
v 0.06967912 0.16813216 0.29810816
v 0.06150905 0.15990233 0.30047627
v 0.06967912 0.15990233 0.30040181
v 0.07789066 0.15990233 0.30031244
v 0.06967912 0.15171076 0.30215925
v 0.07789066 0.15171076 0.30202522
v 0.07789066 0.14524172 0.30311245
v 0.07789066 0.14114595 0.30375290
v 0.08610220 0.14049520 0.30363373
v 0.07789066 0.13532762 0.30451247
v 0.06967912 0.12709779 0.30559970
v 0.06150905 0.11890622 0.30656779
v 0.05325604 0.11071465 0.30741673
v 0.04508597 0.10252310 0.30805719
v 0.03687443 0.09429326 0.30860825
v 0.03687443 0.08610169 0.30908485
v 0.02866288 0.07791013 0.30951676
v 0.02049282 0.07791013 0.30954656
v -0.02044047 0.06971857 0.30979973
v -0.02869349 0.04510560 0.31046996
v -0.02537569 0.00740144 0.31088696
v -0.02044047 0.01230107 0.31085719
v -0.02869349 0.03691404 0.31061890
v -0.02044047 0.00403295 0.31091676
v -0.02044047 -0.00415862 0.31094656
v -0.02044047 -0.04515471 0.31058911
v 0.00054458 -0.05330800 0.31042528
v -0.02044047 -0.02050347 0.31082742
v -0.02865201 -0.03692487 0.31066359
v -0.02044047 -0.05334628 0.31041039
v -0.15982932 -0.19099518 0.28872512
v -0.02044047 -0.06972940 0.30994868
v -0.02865201 -0.07795925 0.30968059
v -0.03686355 -0.07795925 0.30963590
v -0.04507510 -0.08615081 0.30929336
v -0.05328664 -0.08615081 0.30920399
v -0.05328664 -0.09434237 0.30880187
v -0.06966825 -0.11068723 0.30761036
v -0.07787979 -0.11887878 0.30686567
v -0.08604985 -0.12707034 0.30591247
v -0.09421993 -0.13530019 0.30489970
v -0.10247294 -0.14234340 0.30384225
v -0.10247294 -0.14640092 0.30330607
v -0.10247294 -0.15168331 0.30256139
v -0.11881309 -0.15991316 0.30069967
v -0.12706609 -0.15991316 0.30037201
v -0.13523617 -0.16810471 0.29846561
v -0.14348917 -0.17556900 0.29626135
v -0.14348917 -0.17962649 0.29501027
v -0.15170072 -0.17878437 0.29480176
v -0.15170072 -0.17472688 0.29596347
v -0.14348917 -0.16810471 0.29798901
v -0.14348917 -0.15991316 0.29935924
v -0.14348917 -0.15168331 0.30043159
v -0.15170072 0.05329716 0.29922519
v -0.15170072 0.06971857 0.29873370
v -0.15170072 0.08610169 0.29819753
v -0.16546956 0.17793142 0.29005067
v -0.16878735 0.17793142 0.28868044
v -0.17264430 0.17793142 0.28312507
v -0.17612798 0.17793142 0.27768886
v -0.14348917 -0.14349174 0.30123584
v -0.14348917 -0.13530019 0.30186139
v -0.14348917 -0.12707034 0.30223373
v -0.13979813 -0.10249565 0.30354439
v -0.14021286 -0.09434237 0.30361884
v -0.14054463 -0.08615081 0.30367842
v -0.14066905 -0.07795925 0.30372310
v -0.14075199 -0.06972940 0.30375290
v -0.14075199 -0.06153784 0.30375290
v -0.14025432 -0.02873331 0.30367842
v -0.13983959 0.00740144 0.30338056
v -0.13896867 0.02049263 0.30338056
v -0.14348917 0.02868419 0.30211456
v -0.14348917 0.04510560 0.30175713
v -0.14348917 0.06152701 0.30136988
v -0.14348917 0.06971857 0.30116139
v -0.17658417 0.17793142 0.27459098
v -0.18114615 0.17793142 0.23924816
v 0.07789066 0.17793142 0.29448898
v 0.06150905 0.16813216 0.29815284
v 0.06150905 0.17793142 0.29454856
v 0.05325604 0.17429499 0.29608261
v 0.03687443 0.17433327 0.29611241
v 0.03687443 0.16813216 0.29824221
v 0.04508597 0.15990233 0.30056564
v 0.04508597 0.15171076 0.30236776
v 0.05325604 0.15171076 0.30232308
v 0.06150905 0.15171076 0.30224862
v 0.06967912 0.14573934 0.30317204
v 0.06150905 0.14608384 0.30323159
v 0.06967912 0.14164357 0.30382736
v 0.06967912 0.13532762 0.30469119
v 0.06150905 0.12709779 0.30574865
v 0.05325604 0.11890622 0.30670185
v 0.04508597 0.11071465 0.30750610
v 0.03687443 0.10252310 0.30811673
v 0.02866288 0.09429326 0.30865291
v 0.02866288 0.08610169 0.30912953
v 0.02049282 0.08610169 0.30915930
v -0.02044047 0.07791013 0.30954656
v -0.02869349 0.06971857 0.30976994
v -0.02869349 0.06152701 0.31000825
v -0.03686355 0.06971857 0.30972528
v -0.04507510 0.05329716 0.31012739
v -0.04507510 0.04510560 0.31035079
v -0.02869349 0.00740144 0.31087208
v -0.03686355 0.02049263 0.31070825
v -0.04507510 0.03691404 0.31049973
v -0.04507510 0.01230107 0.31072314
v -0.02865201 -0.01235018 0.31085719
v -0.03686355 0.00403295 0.31084230
v -0.03686355 -0.00415862 0.31085719
v -0.03686355 -0.01235018 0.31082742
v -0.04507510 -0.04515471 0.31045507
v -0.02865201 -0.02050347 0.31079762
v -0.04507510 -0.03692487 0.31054442
v -0.02865201 -0.06153784 0.31015719
v -0.03686355 -0.05334628 0.31032102
v -0.03686355 -0.06153784 0.31011251
v -0.04507510 -0.06972940 0.30982953
v -0.05328664 -0.07795925 0.30951676
v -0.06145671 -0.08615081 0.30908485
v -0.06145671 -0.09434237 0.30866782
v -0.06966825 -0.09434237 0.30851888
v -0.07787979 -0.11068723 0.30743165
v -0.08604985 -0.11887878 0.30659759
v -0.09421993 -0.12707034 0.30562950
v -0.10247294 -0.13530019 0.30458693
v -0.11064300 -0.14096537 0.30367842
v -0.12706609 -0.15168331 0.30159330
v -0.11881309 -0.15168331 0.30193585
v -0.13523617 -0.15991316 0.29995499
v -0.13523617 -0.15168331 0.30111670
v -0.13523617 -0.14349174 0.30198053
v -0.14348917 0.08610169 0.30068479
v -0.15170072 0.09429326 0.29788476
v -0.14348917 0.09429326 0.30040181
v -0.14348917 0.10252310 0.30010393
v -0.15170072 0.10252310 0.29755710
v -0.15170072 0.11071465 0.29721455
v -0.14348917 0.11071465 0.29979116
v -0.14348917 0.12709779 0.29903158
v -0.14348917 0.13532762 0.29858476
v -0.14348917 0.14351919 0.29798901
v -0.14348917 0.15171076 0.29728901
v -0.14390390 0.16028512 0.29614219
v -0.13531911 0.15990233 0.29754221
v -0.14149849 0.16575891 0.29562090
v -0.13730978 0.17123271 0.29505496
v -0.13183541 0.17241934 0.29532304
v -0.13486290 0.17559645 0.29395281
v -0.15170072 0.17793142 0.29137621
v -0.13523617 -0.13530019 0.30266564
v -0.13511175 -0.12733831 0.30317204
v -0.13366022 -0.11887878 0.30375290
v -0.13772451 -0.11887878 0.30329119
v -0.13942489 -0.10689767 0.30345502
v -0.13523617 -0.10249565 0.30408056
v -0.13523617 -0.09434237 0.30428907
v -0.13523617 -0.08615081 0.30442310
v -0.13523617 -0.07795925 0.30452736
v -0.13523617 -0.06972940 0.30463162
v -0.13523617 -0.06153784 0.30467630
v -0.13523617 -0.03692487 0.30463162
v -0.13523617 -0.02873331 0.30458693
v -0.13523617 -0.02050347 0.30452736
v -0.13523617 -0.00415862 0.30440822
v -0.13573382 0.00736316 0.30419970
v -0.13938340 0.00778422 0.30346990
v -0.13486290 0.02049263 0.30421459
v -0.13299664 0.06152701 0.30387204
v -0.13859543 0.02868419 0.30330607
v -0.13710241 0.06152701 0.30297842
v -0.13660476 0.06971857 0.30287416
v 0.02866288 0.17793142 0.29460815
v -0.02044047 0.17437152 0.29612730
v 0.03687443 0.15990233 0.30059542
v -0.01227040 0.16813216 0.29825710
v 0.02049282 0.15990233 0.30061030
v 0.03687443 0.15171076 0.30239756
v 0.03687443 0.14658146 0.30330607
v 0.04508597 0.14650490 0.30327628
v 0.05325604 0.14631352 0.30326139
v 0.04508597 0.14237085 0.30397628
v 0.05325604 0.14221773 0.30393162
v 0.06150905 0.14194979 0.30388693
v 0.05325604 0.13532762 0.30492948
v 0.06150905 0.13532762 0.30482524
v 0.05325604 0.12709779 0.30585290
v 0.04508597 0.11890622 0.30679119
v 0.02866288 0.11071465 0.30761036
v 0.02866288 0.10252310 0.30816142
v 0.02049282 0.10252310 0.30817633
v -0.02044047 0.08610169 0.30915930
v -0.02869349 0.07791013 0.30951676
v -0.03686355 0.07791013 0.30947208
v -0.04507510 0.06971857 0.30966570
v -0.05328664 0.05329716 0.31000825
v -0.05328664 0.04510560 0.31023165
v -0.05328664 0.03691404 0.31038059
v -0.05328664 0.01230107 0.31060399
v -0.05001032 0.00736316 0.31069336
v -0.04507510 0.00403295 0.31078273
v -0.04507510 -0.00415862 0.31079762
v -0.04507510 -0.01235018 0.31075293
v -0.04507510 -0.05334628 0.31026145
v -0.05328664 -0.04515471 0.31036570
v -0.05328664 -0.02873331 0.31052953
v -0.05328664 -0.03692487 0.31045507
v -0.05328664 -0.05334628 0.31017208
v -0.06145671 -0.05334628 0.31003805
v -0.06966825 -0.07795925 0.30920399
v -0.06966825 -0.08615081 0.30893590
v -0.07787979 -0.09434237 0.30834016
v -0.08604985 -0.10249565 0.30759547
v -0.08604985 -0.11068723 0.30713376
v -0.09421993 -0.11887878 0.30628482
v -0.10247294 -0.12707034 0.30531673
v -0.11064300 -0.13530019 0.30421459
v -0.11620031 -0.13993187 0.30354439
v -0.12167467 -0.13843900 0.30341033
v -0.13531911 0.09429326 0.30230819
v -0.13531911 0.10252310 0.30198053
v -0.13531911 0.11071465 0.30165287
v -0.13531911 0.11890622 0.30122096
v -0.13531911 0.12709779 0.30075924
v -0.13531911 0.13532762 0.30023796
v -0.13531911 0.14351919 0.29953796
v -0.13531911 0.15171076 0.29870393
v -0.12706609 0.15171076 0.29971667
v -0.12706609 0.15990233 0.29848050
v -0.13486290 0.16836184 0.29591879
v -0.12706609 0.16813216 0.29670816
v -0.12706609 0.17291696 0.29550176
v -0.12706609 0.17701273 0.29404218
v -0.14348917 0.17793142 0.29213578
v -0.13017652 -0.13020918 0.30341033
v -0.13237457 -0.12469710 0.30357416
v -0.13569236 -0.11003648 0.30379756
v -0.12706609 -0.11887878 0.30434864
v -0.12706609 -0.11068723 0.30469119
v -0.12706609 -0.10249565 0.30498907
v -0.12706609 -0.09434237 0.30524227
v -0.12706609 -0.08615081 0.30543587
v -0.12706609 -0.07795925 0.30558482
v -0.12706609 -0.06153784 0.30577844
v -0.12706609 -0.04515471 0.30589759
v -0.12706609 -0.03692487 0.30591247
v -0.12706609 -0.02873331 0.30591247
v -0.12706609 -0.02050347 0.30589759
v -0.12706609 0.00403295 0.30574865
v -0.13511175 0.01230107 0.30425927
v -0.12706609 0.00740144 0.30571885
v -0.12706609 0.02049263 0.30556993
v -0.12706609 0.02868419 0.30546567
v -0.12706609 0.05329716 0.30503376
v -0.12706609 0.06152701 0.30484013
v -0.13245751 0.06971857 0.30375290
v -0.13457260 0.08598686 0.30276990
v -0.13594119 0.07791013 0.30274010
v -0.02869349 0.17793142 0.29462304
v -0.04507510 0.17437152 0.29612730
v 0.02049282 0.15171076 0.30242736
v -0.03686355 0.16813216 0.29825710
v -0.03686355 0.15990233 0.30061030
v 0.02866288 0.14665803 0.30332096
v 0.02866288 0.14256223 0.30400607
v 0.04508597 0.13532762 0.30498907
v 0.02866288 0.13532762 0.30506353
v 0.03687443 0.13532762 0.30503376
v 0.04508597 0.12709779 0.30594227
v 0.03687443 0.11890622 0.30683588
v 0.02049282 0.11890622 0.30689547
v 0.02049282 0.11071465 0.30762525
v -0.02044047 0.10252310 0.30817633
v -0.02869349 0.10252310 0.30816142
v -0.02869349 0.09429326 0.30865291
v -0.02869349 0.08610169 0.30912953
v -0.03686355 0.08610169 0.30908485
v -0.04507510 0.07791013 0.30941250
v -0.05328664 0.06971857 0.30954656
v -0.06145671 0.06971857 0.30936782
v -0.06970972 0.04510560 0.30987422
v -0.06145671 0.03691404 0.31021676
v -0.06145671 0.00740144 0.31046996
v -0.05328664 0.00403295 0.31066359
v -0.05328664 -0.00415862 0.31069336
v -0.06145671 -0.04515471 0.31020188
v -0.06145671 -0.01235018 0.31048485
v -0.06145671 -0.02873331 0.31036570
v -0.06145671 -0.03692487 0.31029125
v -0.06966825 -0.05334628 0.30984442
v -0.07787979 -0.06153784 0.30941250
v -0.07787979 -0.07795925 0.30898059
v -0.07787979 -0.08615081 0.30871250
v -0.08604985 -0.09434237 0.30802739
v -0.09421993 -0.11068723 0.30682099
v -0.10247294 -0.11887878 0.30595716
v -0.11064300 -0.12707034 0.30489970
v -0.11881309 -0.12707034 0.30437842
v -0.11064300 -0.11887878 0.30548056
v -0.13142071 0.08315427 0.30351459
v -0.13079861 0.08862807 0.30341033
v -0.12880793 0.10252310 0.30311245
v -0.12673432 0.11121228 0.30302310
v -0.12706609 0.11890622 0.30251670
v -0.12706609 0.12709779 0.30199542
v -0.12706609 0.13532762 0.30141456
v -0.12706609 0.14351919 0.30062519
v -0.11889603 0.14351919 0.30145925
v -0.11889603 0.15171076 0.30044647
v -0.11889603 0.15990233 0.29909116
v -0.11889603 0.16813216 0.29719964
v -0.11889603 0.17349114 0.29571027
v -0.12706609 0.17793142 0.29355067
v -0.11889603 0.17758692 0.29420601
v -0.11881309 -0.11068723 0.30537630
v -0.11881309 -0.10249565 0.30573376
v -0.11064300 -0.11068723 0.30595716
v -0.11881309 -0.09434237 0.30601673
v -0.11881309 -0.08615081 0.30626993
v -0.11881309 -0.07795925 0.30638907
v -0.11881309 -0.05334628 0.30673164
v -0.11881309 -0.04515471 0.30680610
v -0.11881309 -0.03692487 0.30686567
v -0.11881309 -0.02873331 0.30689547
v -0.11881309 -0.02050347 0.30691036
v -0.11881309 -0.01235018 0.30691036
v -0.11881309 -0.00415862 0.30686567
v -0.11889603 0.00740144 0.30679119
v -0.11889603 0.01230107 0.30674653
v -0.11889603 0.02868419 0.30655290
v -0.11889603 0.03691404 0.30644865
v -0.11889603 0.04510560 0.30629970
v -0.12706609 0.06971857 0.30461673
v -0.11889603 0.06971857 0.30571885
v -0.11889603 0.07791013 0.30551033
v -0.05328664 0.17793142 0.29462304
v -0.04507510 0.16813216 0.29824221
v -0.06241058 0.17793142 0.29460815
v -0.07866777 0.17793142 0.29456347
v -0.06145671 0.17433327 0.29609753
v 0.02049282 0.14669631 0.30332096
v -0.02869349 0.15171076 0.30242736
v -0.04507510 0.15990233 0.30059542
v 0.01228127 0.14260051 0.30402096
v 0.02049282 0.13532762 0.30507842
v 0.02866288 0.12709779 0.30601673
v 0.03687443 0.12709779 0.30598696
v 0.02049282 0.12709779 0.30603162
v 0.01228127 0.12709779 0.30604651
v -0.02044047 0.11890622 0.30689547
v -0.02044047 0.11071465 0.30762525
v -0.02869349 0.11071465 0.30761036
v -0.03686355 0.11071465 0.30756568
v -0.04507510 0.10252310 0.30805719
v -0.03686355 0.09429326 0.30860825
v -0.04507510 0.08610169 0.30902525
v -0.05328664 0.08610169 0.30892102
v -0.05328664 0.07791013 0.30929336
v -0.06145671 0.07791013 0.30912953
v -0.06970972 0.06971857 0.30917422
v -0.07787979 0.07791013 0.30863802
v -0.07787979 0.04510560 0.30953165
v -0.07787979 0.03691404 0.30969548
v -0.06970972 0.03691404 0.31002313
v -0.06970972 0.02049263 0.31017208
v -0.06145671 -0.00415862 0.31052953
v -0.06966825 0.00403295 0.31030613
v -0.06966825 -0.03692487 0.31011251
v -0.06966825 -0.04515471 0.31000825
v -0.06966825 -0.01235018 0.31029125
v -0.07787979 -0.05334628 0.30959122
v -0.08604985 -0.06153784 0.30904016
v -0.08604985 -0.06972940 0.30884653
v -0.08604985 -0.07795925 0.30863802
v -0.08604985 -0.08615081 0.30838485
v -0.09421993 -0.08615081 0.30802739
v -0.09421993 -0.09434237 0.30765505
v -0.10247294 -0.10249565 0.30686567
v -0.10247294 -0.11068723 0.30643376
v -0.12706609 0.07791013 0.30436353
v -0.12768818 0.08598686 0.30397628
v -0.12586338 0.09429326 0.30390182
v -0.12470216 0.10252310 0.30372310
v -0.12374830 0.10880075 0.30358905
v -0.12275295 0.11427455 0.30344010
v -0.12121848 0.11890622 0.30329119
v -0.11843982 0.12679157 0.30302310
v -0.11889603 0.13532762 0.30232308
v -0.11051861 0.13502140 0.30303799
v -0.11072595 0.14351919 0.30205501
v -0.11072595 0.15171076 0.30095287
v -0.11072595 0.15990233 0.29949327
v -0.11072595 0.16813216 0.29751241
v -0.11072595 0.17383564 0.29584433
v -0.11889603 0.17793142 0.29399750
v -0.11072595 0.17793142 0.29429536
v -0.11064300 -0.10249565 0.30632950
v -0.11064300 -0.09434237 0.30668696
v -0.10247294 -0.09434237 0.30723802
v -0.11064300 -0.08615081 0.30692525
v -0.10247294 -0.07795925 0.30775930
v -0.10247294 -0.06153784 0.30807207
v -0.10247294 -0.05334628 0.30822102
v -0.10247294 -0.04515471 0.30835505
v -0.11064300 -0.05334628 0.30749122
v -0.11064300 -0.04515471 0.30759547
v -0.11064300 -0.03692487 0.30765505
v -0.10247294 -0.02050347 0.30850399
v -0.10247294 -0.00415862 0.30854867
v -0.11561969 0.00740144 0.30714865
v -0.11064300 -0.00415862 0.30772950
v -0.11064300 0.00403295 0.30769973
v -0.11072595 0.01230107 0.30761036
v -0.11072595 0.03691404 0.30731250
v -0.11072595 0.04510560 0.30714865
v -0.11072595 0.07791013 0.30640396
v -0.11889603 0.08610169 0.30521247
v -0.06970972 0.17429499 0.29608261
v -0.07787979 0.17425671 0.29606773
v -0.06145671 0.16813216 0.29818264
v -0.09430287 0.17793142 0.29447410
v -0.02869349 0.14669631 0.30332096
v -0.03686355 0.15171076 0.30241245
v -0.06970972 0.16813216 0.29813796
v -0.05328664 0.15990233 0.30055073
v -0.04507510 0.15171076 0.30238267
v -0.02044047 0.14260051 0.30402096
v -0.00405886 0.13532762 0.30509333
v -0.02044047 0.12709779 0.30604651
v -0.02869349 0.11890622 0.30688056
v -0.04507510 0.11890622 0.30679119
v -0.04507510 0.11071465 0.30750610
v -0.05328664 0.10252310 0.30796782
v -0.06145671 0.08610169 0.30877208
v -0.06970972 0.07791013 0.30893590
v -0.07787979 0.08610169 0.30829547
v -0.08604985 0.08610169 0.30792313
v -0.08604985 0.07791013 0.30825079
v -0.08604985 0.04510560 0.30908485
v -0.07787979 0.01230107 0.30993379
v -0.08604985 0.03691404 0.30924868
v -0.08604985 0.01230107 0.30951676
v -0.07787979 0.00740144 0.30997845
v -0.06966825 -0.00415862 0.31032102
v -0.07787979 -0.00415862 0.31003805
v -0.07787979 -0.03692487 0.30982953
v -0.07787979 -0.04515471 0.30974016
v -0.07787979 -0.02050347 0.30994868
v -0.08604985 -0.05334628 0.30921888
v -0.09421993 -0.06972940 0.30845930
v -0.09421993 -0.07795925 0.30826568
v -0.10247294 -0.08615081 0.30755079
v -0.11889603 0.10252310 0.30448267
v -0.11955958 0.11121228 0.30397628
v -0.11711271 0.11890622 0.30372310
v -0.11072595 0.11890622 0.30436353
v -0.11313136 0.12931794 0.30332096
v -0.10765700 0.13211225 0.30357416
v -0.10247294 0.13762433 0.30327628
v -0.09724741 0.13888752 0.30342522
v -0.10247294 0.14351919 0.30251670
v -0.10247294 0.15171076 0.30135499
v -0.10247294 0.15990233 0.29980604
v -0.09430287 0.15990233 0.30002947
v -0.10247294 0.16813216 0.29773582
v -0.09430287 0.16813216 0.29788476
v -0.10247294 0.17402702 0.29593367
v -0.09430287 0.17414186 0.29599324
v -0.10247294 0.17793142 0.29439964
v -0.09421993 -0.05334628 0.30877208
v -0.09421993 -0.04515471 0.30892102
v -0.09421993 -0.03692487 0.30899548
v -0.09421993 -0.01235018 0.30914442
v -0.09421993 -0.00415862 0.30917422
v -0.09421993 0.00403295 0.30912953
v -0.09430287 0.00740144 0.30909973
v -0.10247294 0.00740144 0.30845930
v -0.10740815 0.00736316 0.30798270
v -0.10247294 0.02049263 0.30831036
v -0.10247294 0.03691404 0.30811673
v -0.10247294 0.04510560 0.30795291
v -0.10247294 0.07791013 0.30711887
v -0.11072595 0.08610169 0.30609119
v -0.03686355 0.14665803 0.30330607
v -0.02869349 0.14260051 0.30400607
v -0.07787979 0.16813216 0.29807838
v -0.06145671 0.15990233 0.30050605
v -0.05328664 0.15171076 0.30232308
v -0.05328664 0.14635178 0.30326139
v -0.04507510 0.14650490 0.30329119
v -0.02044047 0.13532762 0.30509333
v -0.02869349 0.12709779 0.30601673
v -0.04507510 0.12709779 0.30594227
v -0.05328664 0.12709779 0.30586779
v -0.05328664 0.11890622 0.30670185
v -0.05328664 0.11071465 0.30741673
v -0.06145671 0.11071465 0.30728270
v -0.06145671 0.10252310 0.30781887
v -0.06970972 0.10252310 0.30765505
v -0.06970972 0.08610169 0.30857845
v -0.07787979 0.09429326 0.30786356
v -0.08604985 0.10252310 0.30707419
v -0.09430287 0.08610169 0.30744653
v -0.09430287 0.07791013 0.30775930
v -0.09430287 0.06971857 0.30798270
v -0.09430287 0.04510560 0.30862313
v -0.09430287 0.03691404 0.30877208
v -0.08604985 0.00740144 0.30956145
v -0.08604985 -0.00415862 0.30962102
v -0.08604985 -0.04515471 0.30935293
v -0.11072595 0.10252310 0.30533162
v -0.11072595 0.11071465 0.30492948
v -0.10247294 0.11071465 0.30558482
v -0.10247294 0.11890622 0.30498907
v -0.11051861 0.12679157 0.30375290
v -0.09430287 0.11890622 0.30551033
v -0.09430287 0.12709779 0.30476565
v -0.10247294 0.13352856 0.30372310
v -0.09442729 0.13582524 0.30388693
v -0.09177305 0.13992104 0.30354439
v -0.09430287 0.15171076 0.30165287
v -0.08604985 0.15171076 0.30190607
v -0.08604985 0.15990233 0.30022307
v -0.07787979 0.15990233 0.30034222
v -0.08604985 0.16813216 0.29800390
v -0.10247294 0.08610169 0.30680610
v -0.04507510 0.14244741 0.30397628
v -0.06970972 0.15990233 0.30043159
v -0.06145671 0.15171076 0.30226353
v -0.06145671 0.14612212 0.30323159
v -0.05328664 0.14225601 0.30394650
v -0.02869349 0.13532762 0.30506353
v -0.04507510 0.13532762 0.30500396
v -0.05328664 0.13532762 0.30492948
v -0.06145671 0.13532762 0.30484013
v -0.06145671 0.12709779 0.30574865
v -0.06145671 0.11890622 0.30658270
v -0.06970972 0.11890622 0.30643376
v -0.06970972 0.11071465 0.30711887
v -0.07787979 0.11071465 0.30688056
v -0.07787979 0.10252310 0.30740185
v -0.08604985 0.11071465 0.30656779
v -0.09430287 0.11071465 0.30615079
v -0.09430287 0.10252310 0.30659759
v -0.10247294 0.10252310 0.30600184
v -0.08604985 0.11890622 0.30591247
v -0.08604985 0.12709779 0.30515290
v -0.08604985 0.13532762 0.30428907
v -0.08604985 0.14053348 0.30364862
v -0.08604985 0.14466754 0.30302310
v -0.07787979 0.14531828 0.30311245
v -0.07787979 0.15171076 0.30205501
v -0.06970972 0.15171076 0.30217416
v -0.06145671 0.14202635 0.30388693
v -0.06970972 0.14577762 0.30317204
v -0.06970972 0.14168182 0.30384225
v -0.06970972 0.13532762 0.30470608
v -0.06970972 0.12709779 0.30561462
v -0.07787979 0.12709779 0.30540610
v -0.07787979 0.11890622 0.30619545
v -0.07787979 0.13532762 0.30452736
v -0.07787979 0.14122251 0.30375290
f 1 2 5
f 1 5 21
f 1 21 24
f 1 24 23
f 1 23 53
f 1 53 90
f 1 90 148
f 1 148 204
f 1 204 254
f 1 254 253
f 1 253 252
f 1 252 189
f 1 189 188
f 1 188 251
f 1 251 302
f 1 302 384
f 1 384 383
f 1 383 366
f 1 366 365
f 1 365 364
f 1 364 363
f 1 363 458
f 1 458 542
f 1 542 621
f 1 621 703
f 1 703 704
f 1 704 777
f 1 777 729
f 1 729 647
f 1 647 646
f 1 646 644
f 1 644 567
f 1 567 481
f 1 481 387
f 1 387 385
f 1 385 303
f 1 303 255
f 1 255 206
f 1 206 205
f 1 205 150
f 1 150 100
f 1 100 57
f 1 57 27
f 1 27 12
f 1 12 11
f 1 11 10
f 1 10 7
f 1 7 3
f 1 3 4
f 1 4 2
f 2 4 6
f 2 6 5
f 3 7 4
f 4 8 9
f 4 9 6
f 4 7 10
f 4 10 11
f 4 11 12
f 4 12 13
f 4 13 14
f 4 14 15
f 4 15 16
f 4 16 17
f 4 17 18
f 4 18 19
f 4 19 20
f 4 20 8
f 5 6 21
f 6 9 26
f 6 26 56
f 6 56 99
f 6 99 149
f 6 149 180
f 6 180 235
f 6 235 285
f 6 285 242
f 6 242 241
f 6 241 198
f 6 198 141
f 6 141 140
f 6 140 139
f 6 139 94
f 6 94 93
f 6 93 92
f 6 92 91
f 6 91 87
f 6 87 52
f 6 52 51
f 6 51 50
f 6 50 49
f 6 49 48
f 6 48 22
f 6 22 23
f 6 23 24
f 6 24 21
f 8 25 26
f 8 26 9
f 8 20 25
f 12 27 28
f 12 28 29
f 12 29 13
f 13 29 30
f 13 30 31
f 13 31 14
f 14 31 32
f 14 32 33
f 14 33 34
f 14 34 35
f 14 35 36
f 14 36 37
f 14 37 38
f 14 38 39
f 14 39 40
f 14 40 41
f 14 41 15
f 15 42 43
f 15 43 16
f 15 41 42
f 16 43 17
f 17 43 44
f 17 44 18
f 18 44 19
f 19 44 45
f 19 45 46
f 19 46 20
f 20 46 47
f 20 47 25
f 22 48 23
f 23 48 49
f 23 49 50
f 23 50 51
f 23 51 52
f 23 52 53
f 25 47 54
f 25 54 26
f 26 54 55
f 26 55 56
f 27 57 58
f 27 58 59
f 27 59 60
f 27 60 61
f 27 61 62
f 27 62 63
f 27 63 28
f 28 63 64
f 28 64 65
f 28 65 29
f 29 65 30
f 30 65 66
f 30 66 67
f 30 67 33
f 30 33 31
f 31 33 32
f 33 67 68
f 33 68 35
f 33 35 34
f 35 68 69
f 35 69 70
f 35 70 71
f 35 71 36
f 36 71 38
f 36 38 37
f 38 71 72
f 38 72 39
f 39 72 40
f 40 72 41
f 41 72 73
f 41 73 74
f 41 74 42
f 42 74 75
f 42 75 76
f 42 76 43
f 43 76 77
f 43 77 78
f 43 78 44
f 44 78 79
f 44 79 80
f 44 80 81
f 44 81 45
f 45 81 82
f 45 82 46
f 46 83 84
f 46 84 47
f 46 82 85
f 46 85 83
f 47 84 86
f 47 86 54
f 52 87 53
f 53 88 89
f 53 89 90
f 53 87 91
f 53 91 92
f 53 92 93
f 53 93 94
f 53 94 88
f 54 95 96
f 54 96 55
f 54 86 95
f 55 96 97
f 55 97 98
f 55 98 56
f 56 98 97
f 56 97 99
f 57 100 101
f 57 101 58
f 58 101 102
f 58 102 59
f 59 102 103
f 59 103 61
f 59 61 60
f 61 103 104
f 61 104 62
f 62 104 105
f 62 105 64
f 62 64 63
f 64 105 106
f 64 106 65
f 65 106 66
f 66 106 107
f 66 107 108
f 66 108 109
f 66 109 67
f 67 109 110
f 67 110 69
f 67 69 68
f 69 108 111
f 69 111 70
f 69 110 109
f 69 109 108
f 70 111 112
f 70 112 113
f 70 113 72
f 70 72 71
f 72 113 114
f 72 114 73
f 73 114 74
f 74 115 116
f 74 116 75
f 74 114 117
f 74 117 115
f 75 116 164
f 75 164 118
f 75 118 77
f 75 77 76
f 77 118 119
f 77 119 120
f 77 120 79
f 77 79 78
f 79 120 167
f 79 167 121
f 79 121 122
f 79 122 80
f 80 122 81
f 81 122 123
f 81 123 82
f 82 124 131
f 82 131 85
f 82 123 124
f 83 85 125
f 83 125 126
f 83 126 127
f 83 127 84
f 84 128 129
f 84 129 86
f 84 127 130
f 84 130 128
f 85 131 132
f 85 132 125
f 86 129 133
f 86 133 134
f 86 134 135
f 86 135 97
f 86 97 95
f 88 136 137
f 88 137 138
f 88 138 89
f 88 94 139
f 88 139 140
f 88 140 141
f 88 141 136
f 89 138 142
f 89 142 143
f 89 143 144
f 89 144 145
f 89 145 146
f 89 146 147
f 89 147 148
f 89 148 90
f 95 97 96
f 97 135 149
f 97 149 99
f 100 150 151
f 100 151 101
f 101 151 152
f 101 152 102
f 102 152 153
f 102 153 103
f 103 153 154
f 103 154 104
f 104 154 155
f 104 155 105
f 105 155 156
f 105 156 106
f 106 156 107
f 107 156 108
f 108 156 157
f 108 157 158
f 108 158 159
f 108 159 160
f 108 160 111
f 111 160 112
f 112 160 161
f 112 161 117
f 112 117 113
f 113 117 114
f 115 162 116
f 115 117 162
f 116 162 163
f 116 163 164
f 117 161 162
f 118 164 165
f 118 165 119
f 119 165 222
f 119 222 166
f 119 166 167
f 119 167 120
f 121 167 168
f 121 168 169
f 121 169 122
f 122 169 170
f 122 170 123
f 123 170 124
f 124 170 169
f 124 169 171
f 124 171 230
f 124 230 172
f 124 172 131
f 125 132 126
f 126 130 127
f 126 132 173
f 126 173 174
f 126 174 130
f 128 175 129
f 128 130 176
f 128 176 175
f 129 175 177
f 129 177 178
f 129 178 179
f 129 179 180
f 129 180 149
f 129 149 133
f 130 174 176
f 131 172 132
f 132 172 230
f 132 230 181
f 132 181 182
f 132 182 173
f 133 149 134
f 134 149 135
f 136 183 137
f 136 141 183
f 137 184 138
f 137 183 185
f 137 185 186
f 137 186 187
f 137 187 188
f 137 188 189
f 137 189 190
f 137 190 191
f 137 191 184
f 138 184 192
f 138 192 193
f 138 193 194
f 138 194 195
f 138 195 196
f 138 196 197
f 138 197 142
f 141 198 183
f 142 197 143
f 143 197 144
f 144 197 145
f 145 197 196
f 145 196 146
f 146 199 147
f 146 196 195
f 146 195 199
f 147 199 200
f 147 200 148
f 148 200 201
f 148 201 202
f 148 202 203
f 148 203 204
f 150 205 151
f 151 205 206
f 151 206 207
f 151 207 152
f 152 207 208
f 152 208 209
f 152 209 153
f 153 209 210
f 153 210 211
f 153 211 154
f 154 211 260
f 154 260 212
f 154 212 155
f 155 212 213
f 155 213 156
f 156 213 157
f 157 213 214
f 157 214 215
f 157 215 158
f 158 215 159
f 159 215 216
f 159 216 217
f 159 217 160
f 160 217 161
f 161 217 218
f 161 218 162
f 162 218 163
f 163 218 219
f 163 219 266
f 163 266 220
f 163 220 164
f 164 220 268
f 164 268 221
f 164 221 165
f 165 221 222
f 166 222 270
f 166 270 223
f 166 223 167
f 167 223 168
f 168 224 272
f 168 272 225
f 168 225 226
f 168 226 227
f 168 227 169
f 168 223 224
f 169 227 228
f 169 228 171
f 171 228 229
f 171 229 230
f 173 182 174
f 174 182 176
f 175 231 232
f 175 232 177
f 175 176 233
f 175 233 231
f 176 182 233
f 177 232 234
f 177 234 178
f 178 234 235
f 178 235 180
f 178 180 179
f 181 230 236
f 181 236 237
f 181 237 182
f 182 237 238
f 182 238 283
f 182 283 233
f 183 198 185
f 184 191 239
f 184 239 192
f 185 198 186
f 186 240 187
f 186 198 241
f 186 241 242
f 186 242 240
f 187 240 243
f 187 243 244
f 187 244 245
f 187 245 246
f 187 246 247
f 187 247 248
f 187 248 249
f 187 249 250
f 187 250 251
f 187 251 188
f 189 252 190
f 190 252 253
f 190 253 191
f 191 253 239
f 192 239 253
f 192 253 254
f 192 254 202
f 192 202 193
f 193 199 194
f 193 202 200
f 193 200 199
f 194 199 195
f 200 202 201
f 202 254 203
f 203 254 204
f 206 255 256
f 206 256 207
f 207 256 257
f 207 257 208
f 208 257 258
f 208 258 209
f 209 258 210
f 210 258 259
f 210 259 211
f 211 259 260
f 212 260 261
f 212 261 262
f 212 262 213
f 213 262 214
f 214 262 215
f 215 262 263
f 215 263 216
f 216 263 264
f 216 264 265
f 216 265 217
f 217 265 218
f 218 265 219
f 219 265 267
f 219 267 266
f 220 266 268
f 221 268 269
f 221 269 222
f 222 269 321
f 222 321 270
f 223 270 322
f 223 322 271
f 223 271 224
f 224 271 272
f 225 272 324
f 225 324 273
f 225 273 275
f 225 275 226
f 226 274 227
f 226 275 276
f 226 276 274
f 227 274 228
f 228 274 276
f 228 276 277
f 228 277 229
f 229 277 278
f 229 278 230
f 230 278 286
f 230 286 236
f 231 279 280
f 231 280 232
f 231 233 279
f 232 280 281
f 232 281 282
f 232 282 234
f 233 283 284
f 233 284 279
f 234 282 281
f 234 281 235
f 235 281 245
f 235 245 244
f 235 244 243
f 235 243 240
f 235 240 285
f 236 286 237
f 237 286 287
f 237 287 288
f 237 288 238
f 238 288 283
f 240 242 285
f 245 281 289
f 245 289 246
f 246 289 281
f 246 281 247
f 247 281 290
f 247 290 248
f 248 290 291
f 248 291 249
f 249 292 250
f 249 291 293
f 249 293 294
f 249 294 292
f 250 292 295
f 250 295 296
f 250 296 297
f 250 297 298
f 250 298 299
f 250 299 300
f 250 300 301
f 250 301 302
f 250 302 251
f 255 303 304
f 255 304 305
f 255 305 256
f 256 305 304
f 256 304 306
f 256 306 257
f 257 306 307
f 257 307 308
f 257 308 309
f 257 309 258
f 258 309 310
f 258 310 311
f 258 311 259
f 259 311 312
f 259 312 261
f 259 261 260
f 261 312 313
f 261 313 314
f 261 314 262
f 262 314 263
f 263 314 315
f 263 315 264
f 264 315 316
f 264 316 267
f 264 267 265
f 266 267 317
f 266 317 400
f 266 400 318
f 266 318 268
f 267 316 399
f 267 399 317
f 268 318 401
f 268 401 319
f 268 319 269
f 269 319 320
f 269 320 321
f 270 321 404
f 270 404 322
f 271 322 323
f 271 323 272
f 272 323 406
f 272 406 324
f 273 324 408
f 273 408 325
f 273 325 275
f 275 325 276
f 276 326 327
f 276 327 277
f 276 325 328
f 276 328 326
f 277 327 329
f 277 329 278
f 278 329 330
f 278 330 286
f 279 291 280
f 279 284 332
f 279 332 291
f 280 291 281
f 281 291 290
f 283 288 331
f 283 331 284
f 284 331 332
f 286 330 333
f 286 333 287
f 287 331 288
f 287 333 421
f 287 421 334
f 287 334 331
f 291 332 335
f 291 335 293
f 292 294 336
f 292 336 295
f 293 335 294
f 294 335 337
f 294 337 338
f 294 338 339
f 294 339 340
f 294 340 341
f 294 341 342
f 294 342 343
f 294 343 344
f 294 344 345
f 294 345 346
f 294 346 347
f 294 347 348
f 294 348 349
f 294 349 350
f 294 350 351
f 294 351 352
f 294 352 353
f 294 353 354
f 294 354 295
f 294 295 336
f 295 354 355
f 295 355 296
f 296 355 353
f 296 353 297
f 297 353 356
f 297 356 357
f 297 357 358
f 297 358 359
f 297 359 298
f 298 360 361
f 298 361 362
f 298 362 363
f 298 363 364
f 298 364 365
f 298 365 366
f 298 366 299
f 298 359 367
f 298 367 368
f 298 368 369
f 298 369 370
f 298 370 371
f 298 371 372
f 298 372 373
f 298 373 374
f 298 374 375
f 298 375 376
f 298 376 377
f 298 377 378
f 298 378 379
f 298 379 380
f 298 380 381
f 298 381 382
f 298 382 360
f 299 366 383
f 299 383 300
f 300 383 301
f 301 384 302
f 301 383 384
f 303 385 304
f 304 386 306
f 304 385 387
f 304 387 388
f 304 388 389
f 304 389 390
f 304 390 386
f 306 386 307
f 307 386 391
f 307 391 392
f 307 392 393
f 307 393 394
f 307 394 308
f 308 394 309
f 309 394 310
f 310 395 311
f 310 394 396
f 310 396 395
f 311 395 312
f 312 395 397
f 312 397 313
f 313 397 398
f 313 398 315
f 313 315 314
f 315 398 316
f 316 398 399
f 317 399 400
f 318 400 496
f 318 496 401
f 319 401 402
f 319 402 320
f 320 402 498
f 320 498 403
f 320 403 404
f 320 404 321
f 322 404 405
f 322 405 323
f 323 405 500
f 323 500 406
f 324 406 501
f 324 501 407
f 324 407 408
f 325 408 409
f 325 409 410
f 325 410 411
f 325 411 414
f 325 414 328
f 326 330 329
f 326 329 327
f 326 328 412
f 326 412 330
f 328 413 412
f 328 414 415
f 328 415 413
f 330 416 333
f 330 412 417
f 330 417 418
f 330 418 419
f 330 419 416
f 331 335 332
f 331 334 420
f 331 420 424
f 331 424 335
f 333 416 419
f 333 419 421
f 334 421 419
f 334 419 422
f 334 422 420
f 335 423 337
f 335 424 425
f 335 425 423
f 337 423 338
f 338 423 425
f 338 425 339
f 339 425 426
f 339 426 427
f 339 427 340
f 340 427 341
f 341 427 428
f 341 428 342
f 342 428 429
f 342 429 343
f 343 429 430
f 343 430 520
f 343 520 431
f 343 431 344
f 344 431 432
f 344 432 345
f 345 432 433
f 345 433 346
f 346 433 524
f 346 524 434
f 346 434 435
f 346 435 347
f 347 435 436
f 347 436 437
f 347 437 348
f 348 437 349
f 349 437 350
f 350 437 351
f 351 437 436
f 351 436 438
f 351 438 352
f 352 438 357
f 352 357 353
f 353 357 356
f 353 355 354
f 357 438 358
f 358 438 439
f 358 439 359
f 359 439 440
f 359 440 367
f 360 382 441
f 360 441 361
f 361 441 362
f 362 442 363
f 362 441 443
f 362 443 444
f 362 444 447
f 362 447 442
f 363 442 445
f 363 445 446
f 363 446 447
f 363 447 448
f 363 448 449
f 363 449 450
f 363 450 451
f 363 451 452
f 363 452 453
f 363 453 454
f 363 454 455
f 363 455 456
f 363 456 457
f 363 457 458
f 367 440 459
f 367 459 368
f 368 459 460
f 368 460 461
f 368 461 462
f 368 462 369
f 369 462 463
f 369 463 370
f 370 463 464
f 370 464 465
f 370 465 466
f 370 466 371
f 371 466 372
f 372 466 467
f 372 467 468
f 372 468 373
f 373 468 469
f 373 469 374
f 374 469 375
f 375 469 470
f 375 470 376
f 376 470 471
f 376 471 472
f 376 472 473
f 376 473 474
f 376 474 475
f 376 475 377
f 377 475 378
f 378 475 476
f 378 476 477
f 378 477 478
f 378 478 379
f 379 478 479
f 379 479 380
f 380 479 381
f 381 479 382
f 382 479 480
f 382 480 441
f 386 390 483
f 386 483 391
f 387 481 389
f 387 389 388
f 389 481 482
f 389 482 390
f 390 482 484
f 390 484 485
f 390 485 483
f 391 483 486
f 391 486 392
f 392 486 487
f 392 487 488
f 392 488 393
f 393 489 396
f 393 396 394
f 393 488 489
f 395 396 397
f 396 489 490
f 396 490 491
f 396 491 492
f 396 492 397
f 397 492 493
f 397 493 494
f 397 494 398
f 398 494 399
f 399 494 493
f 399 493 495
f 399 495 400
f 400 495 577
f 400 577 496
f 401 496 497
f 401 497 402
f 402 497 498
f 403 498 405
f 403 405 404
f 405 499 581
f 405 581 500
f 405 498 499
f 406 500 584
f 406 584 501
f 407 501 502
f 407 502 409
f 407 409 408
f 409 502 586
f 409 586 503
f 409 503 410
f 410 504 505
f 410 505 411
f 410 503 587
f 410 587 504
f 411 505 506
f 411 506 414
f 412 413 415
f 412 415 417
f 414 506 507
f 414 507 415
f 415 507 508
f 415 508 509
f 415 509 417
f 417 509 510
f 417 510 418
f 418 510 419
f 419 510 511
f 419 511 422
f 420 512 424
f 420 422 515
f 420 515 513
f 420 513 516
f 420 516 512
f 422 511 514
f 422 514 515
f 424 512 425
f 425 512 426
f 426 512 516
f 426 516 427
f 427 516 517
f 427 517 518
f 427 518 519
f 427 519 428
f 428 519 430
f 428 430 429
f 430 519 520
f 431 520 521
f 431 521 522
f 431 522 432
f 432 522 603
f 432 603 523
f 432 523 524
f 432 524 433
f 434 524 525
f 434 525 526
f 434 526 435
f 435 526 436
f 436 526 527
f 436 527 439
f 436 439 438
f 439 527 440
f 440 527 459
f 441 480 443
f 442 447 445
f 443 480 528
f 443 528 444
f 444 528 447
f 445 447 446
f 447 528 529
f 447 529 530
f 447 530 448
f 448 530 531
f 448 531 449
f 449 531 532
f 449 532 533
f 449 533 450
f 450 533 534
f 450 534 451
f 451 534 535
f 451 535 452
f 452 535 453
f 453 535 536
f 453 536 537
f 453 537 538
f 453 538 455
f 453 455 454
f 455 538 456
f 456 539 540
f 456 540 541
f 456 541 457
f 456 538 539
f 457 541 542
f 457 542 458
f 459 527 543
f 459 543 544
f 459 544 460
f 460 544 461
f 461 464 545
f 461 545 462
f 461 544 546
f 461 546 547
f 461 547 548
f 461 548 549
f 461 549 464
f 462 545 464
f 462 464 463
f 464 549 465
f 465 549 550
f 465 550 551
f 465 551 466
f 466 551 467
f 467 551 468
f 468 551 552
f 468 552 553
f 468 553 469
f 469 553 554
f 469 554 555
f 469 555 556
f 469 556 470
f 470 556 471
f 471 556 557
f 471 557 472
f 472 557 473
f 473 558 474
f 473 557 559
f 473 559 558
f 474 558 476
f 474 476 475
f 476 558 559
f 476 559 560
f 476 560 561
f 476 561 477
f 477 480 479
f 477 479 478
f 477 561 562
f 477 562 563
f 477 563 564
f 477 564 480
f 480 564 565
f 480 565 566
f 480 566 528
f 481 567 482
f 482 567 644
f 482 644 568
f 482 568 570
f 482 570 484
f 483 485 569
f 483 569 486
f 484 570 571
f 484 571 485
f 485 571 650
f 485 650 569
f 486 569 572
f 486 572 487
f 487 490 488
f 487 572 573
f 487 573 490
f 488 490 489
f 490 574 493
f 490 493 491
f 490 573 575
f 490 575 576
f 490 576 574
f 491 493 492
f 493 574 577
f 493 577 495
f 496 577 655
f 496 655 578
f 496 578 497
f 497 579 580
f 497 580 499
f 497 499 498
f 497 578 579
f 499 580 659
f 499 659 581
f 500 581 582
f 500 582 583
f 500 583 584
f 501 584 585
f 501 585 502
f 502 585 664
f 502 664 586
f 503 586 666
f 503 666 587
f 504 587 588
f 504 588 589
f 504 589 505
f 505 590 506
f 505 589 590
f 506 590 507
f 507 590 591
f 507 591 592
f 507 592 508
f 508 592 509
f 509 592 593
f 509 593 510
f 510 593 511
f 511 593 514
f 513 515 597
f 513 597 594
f 513 594 517
f 513 517 516
f 514 593 595
f 514 595 596
f 514 596 597
f 514 597 515
f 517 594 677
f 517 677 598
f 517 598 518
f 518 598 599
f 518 599 600
f 518 600 601
f 518 601 519
f 519 601 520
f 520 601 602
f 520 602 521
f 521 602 603
f 521 603 522
f 523 603 604
f 523 604 524
f 524 604 605
f 524 605 527
f 524 527 525
f 525 527 526
f 527 606 543
f 527 605 607
f 527 607 606
f 528 566 565
f 528 565 608
f 528 608 529
f 529 608 530
f 530 608 609
f 530 609 610
f 530 610 611
f 530 611 531
f 531 611 532
f 532 611 612
f 532 612 533
f 533 612 613
f 533 613 614
f 533 614 534
f 534 614 615
f 534 615 535
f 535 615 536
f 536 615 616
f 536 616 617
f 536 617 537
f 537 617 618
f 537 618 539
f 537 539 538
f 539 618 619
f 539 619 540
f 540 619 620
f 540 620 541
f 541 621 542
f 541 620 622
f 541 622 621
f 543 546 544
f 543 606 607
f 543 607 546
f 546 623 624
f 546 624 547
f 546 607 625
f 546 625 623
f 547 624 548
f 548 624 626
f 548 626 549
f 549 626 627
f 549 627 550
f 550 627 551
f 551 627 628
f 551 628 629
f 551 629 552
f 552 629 630
f 552 630 553
f 553 630 631
f 553 631 632
f 553 632 633
f 553 633 554
f 554 633 634
f 554 634 555
f 555 634 556
f 556 634 635
f 556 635 636
f 556 636 557
f 557 636 559
f 559 636 637
f 559 637 560
f 560 637 638
f 560 638 639
f 560 639 561
f 561 639 562
f 562 639 640
f 562 640 563
f 563 641 564
f 563 640 642
f 563 642 643
f 563 643 641
f 564 641 608
f 564 608 565
f 568 645 570
f 568 644 646
f 568 646 647
f 568 647 648
f 568 648 645
f 569 649 572
f 569 650 730
f 569 730 649
f 570 645 651
f 570 651 571
f 571 651 650
f 572 649 652
f 572 652 573
f 573 653 575
f 573 652 653
f 574 576 655
f 574 655 577
f 575 654 655
f 575 655 576
f 575 653 656
f 575 656 654
f 578 655 579
f 579 654 656
f 579 656 657
f 579 657 737
f 579 737 658
f 579 658 659
f 579 659 580
f 579 655 654
f 581 659 660
f 581 660 582
f 582 660 661
f 582 661 662
f 582 662 663
f 582 663 583
f 583 663 585
f 583 585 584
f 585 663 664
f 586 664 665
f 586 665 666
f 587 666 667
f 587 667 588
f 588 667 743
f 588 743 668
f 588 668 589
f 589 668 669
f 589 669 670
f 589 670 671
f 589 671 672
f 589 672 590
f 590 672 673
f 590 673 591
f 591 674 592
f 591 673 675
f 591 675 674
f 592 674 593
f 593 674 595
f 594 597 676
f 594 676 677
f 595 674 678
f 595 678 676
f 595 676 596
f 596 676 597
f 598 677 679
f 598 679 599
f 599 679 757
f 599 757 680
f 599 680 681
f 599 681 682
f 599 682 600
f 600 682 683
f 600 683 601
f 601 683 602
f 602 683 684
f 602 684 685
f 602 685 686
f 602 686 603
f 603 686 687
f 603 687 604
f 604 687 625
f 604 625 607
f 604 607 605
f 608 641 688
f 608 688 609
f 609 688 689
f 609 689 690
f 609 690 691
f 609 691 610
f 610 691 692
f 610 692 611
f 611 692 693
f 611 693 612
f 612 693 613
f 613 693 614
f 614 693 694
f 614 694 695
f 614 695 696
f 614 696 615
f 615 696 616
f 616 696 697
f 616 697 698
f 616 698 617
f 617 698 699
f 617 699 618
f 618 699 700
f 618 700 619
f 619 700 701
f 619 701 620
f 620 701 702
f 620 702 622
f 621 622 703
f 622 702 704
f 622 704 703
f 623 625 705
f 623 705 706
f 623 706 624
f 624 706 626
f 625 687 686
f 625 686 707
f 625 707 705
f 626 706 627
f 627 706 708
f 627 708 709
f 627 709 710
f 627 710 711
f 627 711 712
f 627 712 628
f 628 712 713
f 628 713 629
f 629 713 712
f 629 712 714
f 629 714 630
f 630 714 715
f 630 715 631
f 631 715 632
f 632 715 716
f 632 716 717
f 632 717 633
f 633 717 719
f 633 719 634
f 634 718 635
f 634 719 720
f 634 720 718
f 635 718 636
f 636 718 637
f 637 718 721
f 637 721 638
f 638 721 722
f 638 722 639
f 639 722 640
f 640 722 723
f 640 723 724
f 640 724 642
f 641 643 688
f 642 724 643
f 643 725 688
f 643 724 725
f 645 648 726
f 645 726 727
f 645 727 728
f 645 728 651
f 647 727 726
f 647 726 648
f 647 729 727
f 649 730 735
f 649 735 652
f 650 651 731
f 650 731 730
f 651 728 732
f 651 732 733
f 651 733 734
f 651 734 731
f 652 735 799
f 652 799 736
f 652 736 653
f 653 736 657
f 653 657 656
f 657 736 799
f 657 799 737
f 658 737 738
f 658 738 660
f 658 660 659
f 660 738 739
f 660 739 661
f 661 739 740
f 661 740 662
f 662 740 804
f 662 804 741
f 662 741 664
f 662 664 663
f 664 741 665
f 665 741 806
f 665 806 742
f 665 742 666
f 666 742 667
f 667 742 808
f 667 808 743
f 668 743 669
f 669 744 745
f 669 745 746
f 669 746 670
f 669 743 744
f 670 746 747
f 670 747 749
f 670 749 671
f 671 748 672
f 671 749 750
f 671 750 748
f 672 748 751
f 672 751 673
f 673 751 675
f 674 675 752
f 674 752 678
f 675 751 753
f 675 753 752
f 676 678 754
f 676 754 755
f 676 755 677
f 677 755 679
f 678 752 753
f 678 753 756
f 678 756 754
f 679 755 757
f 680 757 758
f 680 758 759
f 680 759 681
f 681 759 682
f 682 759 684
f 682 684 683
f 684 759 760
f 684 760 707
f 684 707 685
f 685 707 686
f 688 725 689
f 689 725 690
f 690 725 691
f 691 725 692
f 692 725 761
f 692 761 762
f 692 762 693
f 693 762 763
f 693 763 694
f 694 763 695
f 695 763 764
f 695 764 696
f 696 764 765
f 696 765 766
f 696 766 697
f 697 766 698
f 698 766 767
f 698 767 768
f 698 768 769
f 698 769 699
f 699 769 770
f 699 770 700
f 700 770 771
f 700 771 701
f 701 771 772
f 701 772 773
f 701 773 702
f 702 773 774
f 702 774 775
f 702 775 704
f 704 775 776
f 704 776 777
f 705 707 706
f 706 707 760
f 706 760 708
f 708 760 709
f 709 760 759
f 709 759 758
f 709 758 778
f 709 778 710
f 710 778 779
f 710 779 711
f 711 779 712
f 712 716 715
f 712 715 714
f 712 779 780
f 712 780 781
f 712 781 716
f 716 781 782
f 716 782 717
f 717 720 719
f 717 782 783
f 717 783 784
f 717 784 785
f 717 785 720
f 718 720 721
f 720 785 786
f 720 786 721
f 721 786 785
f 721 785 787
f 721 787 788
f 721 788 722
f 722 788 789
f 722 789 723
f 723 789 724
f 724 789 790
f 724 790 834
f 724 834 791
f 724 791 725
f 725 791 761
f 727 732 728
f 727 729 776
f 727 776 732
f 729 777 776
f 730 731 792
f 730 792 793
f 730 793 735
f 731 734 792
f 732 776 794
f 732 794 795
f 732 795 733
f 733 795 734
f 734 795 796
f 734 796 797
f 734 797 798
f 734 798 792
f 735 793 799
f 737 799 840
f 737 840 800
f 737 800 738
f 738 800 801
f 738 801 739
f 739 801 802
f 739 802 803
f 739 803 804
f 739 804 740
f 741 804 805
f 741 805 806
f 742 806 807
f 742 807 808
f 743 808 744
f 744 809 810
f 744 810 745
f 744 808 809
f 745 810 852
f 745 852 811
f 745 811 746
f 746 811 812
f 746 812 813
f 746 813 814
f 746 814 747
f 747 814 749
f 748 750 816
f 748 816 751
f 749 814 815
f 749 815 784
f 749 784 750
f 750 784 816
f 751 816 817
f 751 817 753
f 753 817 756
f 754 756 818
f 754 818 755
f 755 818 757
f 756 817 780
f 756 780 818
f 757 818 779
f 757 779 778
f 757 778 758
f 761 791 819
f 761 819 820
f 761 820 762
f 762 820 763
f 763 820 764
f 764 820 821
f 764 821 822
f 764 822 766
f 764 766 823
f 764 823 765
f 765 823 766
f 766 822 824
f 766 824 825
f 766 825 826
f 766 826 767
f 767 826 768
f 768 826 827
f 768 827 828
f 768 828 769
f 769 828 770
f 770 829 771
f 770 828 829
f 771 829 830
f 771 830 772
f 772 830 831
f 772 831 773
f 773 831 774
f 774 831 832
f 774 832 833
f 774 833 775
f 775 833 776
f 776 833 794
f 779 818 780
f 780 817 781
f 781 817 782
f 782 817 816
f 782 816 783
f 783 816 784
f 784 815 785
f 785 815 787
f 787 815 788
f 788 815 814
f 788 814 789
f 789 814 790
f 790 814 813
f 790 813 812
f 790 812 811
f 790 811 834
f 791 834 819
f 792 798 835
f 792 835 793
f 793 835 799
f 794 833 836
f 794 836 795
f 795 837 796
f 795 836 837
f 796 837 797
f 797 837 838
f 797 838 839
f 797 839 835
f 797 835 798
f 799 835 840
f 800 840 841
f 800 841 801
f 801 841 842
f 801 842 802
f 802 842 843
f 802 843 844
f 802 844 845
f 802 845 803
f 803 845 804
f 804 845 805
f 805 845 846
f 805 846 847
f 805 847 807
f 805 807 806
f 807 847 848
f 807 848 849
f 807 849 808
f 808 849 809
f 809 849 810
f 810 850 851
f 810 851 852
f 810 849 850
f 811 852 821
f 811 821 853
f 811 853 834
f 819 834 853
f 819 853 820
f 820 853 821
f 821 852 851
f 821 851 822
f 822 851 824
f 824 851 850
f 824 850 854
f 824 854 825
f 825 827 826
f 825 854 855
f 825 855 827
f 827 855 856
f 827 856 828
f 828 856 857
f 828 857 858
f 828 858 829
f 829 858 830
f 830 858 859
f 830 859 860
f 830 860 831
f 831 860 861
f 831 861 832
f 832 861 836
f 832 836 833
f 835 839 841
f 835 841 840
f 836 861 837
f 837 861 838
f 838 862 839
f 838 861 863
f 838 863 864
f 838 864 862
f 839 862 843
f 839 843 842
f 839 842 841
f 843 862 864
f 843 864 865
f 843 865 866
f 843 866 844
f 844 866 845
f 845 866 846
f 846 866 867
f 846 867 868
f 846 868 848
f 846 848 847
f 848 868 854
f 848 854 850
f 848 850 849
f 854 868 855
f 855 868 867
f 855 867 856
f 856 867 869
f 856 869 857
f 857 869 870
f 857 870 858
f 858 870 859
f 859 870 864
f 859 864 863
f 859 863 860
f 860 863 861
f 864 870 865
f 865 870 869
f 865 869 866
f 866 869 867

