# https://github.com/mikedh/trimesh
v -0.21736023 -0.25180411 -0.39777985
v -0.20915585 -0.25151957 -0.39777985
v -0.21736023 -0.25127456 -0.38958672
v -0.22555911 -0.25080033 -0.38139358
v -0.22555911 -0.25130617 -0.38958672
v -0.22555911 -0.25178039 -0.39777985
v -0.22555911 -0.25177247 -0.40597299
v -0.21736023 -0.25177247 -0.40597299
v -0.20915585 -0.25151957 -0.40597299
v -0.20450597 -0.24623199 -0.32572515
v -0.20915585 -0.25099002 -0.38958672
v -0.20102267 -0.24872167 -0.39777985
v -0.20107197 -0.24845292 -0.38958672
v -0.20117603 -0.24817630 -0.38139358
v -0.20136225 -0.24789177 -0.37320045
v -0.20162513 -0.24760723 -0.36495121
v -0.20197018 -0.24732269 -0.35675805
v -0.20244119 -0.24703815 -0.34856492
v -0.17806905 -0.22550848 -0.06977381
v -0.21736023 -0.25014433 -0.37320045
v -0.22555911 -0.24914845 -0.35675805
v -0.22555911 -0.24970963 -0.36495121
v -0.22989133 -0.24622409 -0.31758814
v -0.23019804 -0.24645329 -0.32398551
v -0.23055403 -0.24674572 -0.33217867
v -0.23087169 -0.24703026 -0.34037178
v -0.23115650 -0.24732269 -0.34856492
v -0.23139747 -0.24760723 -0.35675805
v -0.23160012 -0.24788387 -0.36495121
v -0.23175894 -0.24814467 -0.37320045
v -0.23188493 -0.24840550 -0.38139358
v -0.23195064 -0.24863472 -0.38958672
v -0.23196706 -0.24884022 -0.39777985
v -0.23181920 -0.24885602 -0.40597299
v -0.23100313 -0.24786806 -0.41141635
v -0.22555911 -0.24880070 -0.41214588
v -0.21736023 -0.24878488 -0.41225813
v -0.20915585 -0.24867424 -0.41225813
v -0.20118150 -0.24872956 -0.40597299
v -0.20258907 -0.24776531 -0.41152860
v -0.20586971 -0.24603440 -0.32028178
v -0.20915585 -0.24985979 -0.37320045
v -0.19692050 -0.24551275 -0.39777985
v -0.17806905 -0.22465489 -0.07796695
v -0.17806905 -0.22458376 -0.06152455
v -0.19678357 -0.21332889 0.12416784
v -0.19746271 -0.21303646 0.12966733
v -0.20284100 -0.21355808 0.13533520
v -0.20423213 -0.21336050 0.14089082
v -0.20503723 -0.23786987 -0.20496056
v -0.21736023 -0.24957525 -0.36495121
v -0.22555911 -0.24857940 -0.34856492
v -0.22984203 -0.23799634 -0.20310869
v -0.22555911 -0.24741754 -0.33217867
v -0.22555911 -0.24630312 -0.31646580
v -0.22226752 -0.21336050 0.14902785
v -0.23010493 -0.23820972 -0.20911324
v -0.23043354 -0.23849426 -0.21730640
v -0.23072382 -0.23877880 -0.22555563
v -0.23097575 -0.23904752 -0.23374879
v -0.23119483 -0.23932416 -0.24194190
v -0.23138105 -0.23959288 -0.25013506
v -0.23346773 -0.24196400 -0.35675805
v -0.23152344 -0.23984581 -0.25832818
v -0.23366490 -0.24196400 -0.36495121
v -0.23382922 -0.24196400 -0.37320045
v -0.23394971 -0.24196400 -0.38139358
v -0.23401544 -0.24196400 -0.38958672
v -0.23400996 -0.24196400 -0.39777985
v -0.23371420 -0.24196400 -0.40597299
v -0.23155082 -0.24196400 -0.41197756
v -0.22555911 -0.24196400 -0.41416615
v -0.21736023 -0.24196400 -0.41439060
v -0.20915585 -0.24196400 -0.41439060
v -0.19707931 -0.24412170 -0.40597299
v -0.20029426 -0.24143443 -0.41186536
v -0.19682739 -0.23835199 -0.41012567
v -0.20915585 -0.24294404 -0.27477057
v -0.20882176 -0.24635844 -0.32336823
v -0.20915585 -0.24872167 -0.35675805
v -0.20915585 -0.24929072 -0.36495121
v -0.20915585 -0.23765649 -0.19979777
v -0.17806905 -0.22239443 -0.08279304
v -0.17806905 -0.22272639 -0.04513828
v -0.19540339 -0.20754337 0.15879227
v -0.19618111 -0.20808084 0.15879227
v -0.20095695 -0.21112375 0.15879227
v -0.20924348 -0.21234882 0.15879227
v -0.20757850 -0.21317080 0.14639033
v -0.20915585 -0.23541972 -0.16809145
v -0.21736023 -0.24900618 -0.35675805
v -0.22142955 -0.23786197 -0.19682355
v -0.22150623 -0.23786197 -0.19682355
v -0.22217988 -0.22969746 -0.08155845
v -0.22977084 -0.22974486 -0.08896595
v -0.22045467 -0.22969746 -0.08155845
v -0.21947978 -0.22152503 0.03376275
v -0.21736023 -0.21305225 0.15289993
v -0.21736023 -0.21263336 0.15879227
v -0.21847202 -0.21248320 0.15879227
v -0.22551530 -0.21129762 0.15879227
v -0.22905884 -0.21292579 0.13791659
v -0.22974347 -0.21333678 0.13247320
v -0.22366412 -0.21355019 0.14352833
v -0.22967226 -0.22146969 0.02472786
v -0.22997897 -0.22992666 -0.09435322
v -0.23028020 -0.23020327 -0.10254635
v -0.23054308 -0.23047202 -0.11073949
v -0.23077311 -0.23073284 -0.11898875
v -0.23057046 -0.22239443 -0.00411648
v -0.23098123 -0.23100157 -0.12718188
v -0.23075668 -0.22264734 -0.01230961
v -0.23114555 -0.23126239 -0.13531889
v -0.23051023 -0.21424571 0.10250653
v -0.23063619 -0.21445912 0.09431340
v -0.23264074 -0.22555590 -0.13531889
v -0.23330343 -0.23375994 -0.25832818
v -0.23276122 -0.22555590 -0.14351204
v -0.23340202 -0.23375994 -0.26652134
v -0.23352798 -0.23375994 -0.36495121
v -0.23352798 -0.23375994 -0.37320045
v -0.23346225 -0.23375994 -0.27477057
v -0.23349513 -0.23375994 -0.28296373
v -0.23350608 -0.23375994 -0.29115684
v -0.23351156 -0.23375994 -0.29935000
v -0.23352251 -0.23375994 -0.34037178
v -0.23352251 -0.23375994 -0.38139358
v -0.23351156 -0.23375994 -0.38958672
v -0.23348415 -0.23375994 -0.39777985
v -0.23319390 -0.23375994 -0.40597299
v -0.23104148 -0.22555590 -0.41164085
v -0.23129341 -0.23375994 -0.41186536
v -0.22555911 -0.22555590 -0.41382945
v -0.21736023 -0.22555590 -0.41450285
v -0.20915585 -0.23375994 -0.41444673
v -0.20095695 -0.22555590 -0.41293154
v -0.20095695 -0.23375994 -0.41253876
v -0.19670690 -0.24001969 -0.40597299
v -0.19638376 -0.22555590 -0.41074295
v -0.19666856 -0.23375994 -0.41035017
v -0.19571010 -0.22555590 -0.40597299
v -0.19627421 -0.23375994 -0.40597299
v -0.21736023 -0.24727527 -0.33217867
v -0.21736023 -0.24148977 -0.25013506
v -0.20915585 -0.24699076 -0.33217867
v -0.21736023 -0.23917397 -0.21730640
v -0.17806905 -0.22134323 -0.08301751
v -0.17806905 -0.22203876 -0.04121006
v -0.19365626 -0.20095959 0.15879227
v -0.17806905 -0.22185697 -0.04019995
v -0.21049769 -0.21239625 0.15879227
v -0.20915585 -0.21690135 0.09431340
v -0.21815984 -0.23752212 -0.19351262
v -0.23058141 -0.20740902 0.15879227
v -0.22601918 -0.21377149 0.13522297
v -0.22991324 -0.21351066 0.12708594
v -0.23009946 -0.22186489 0.01226979
v -0.22982560 -0.22160406 0.02046293
v -0.23034591 -0.22213361 0.00407666
v -0.23014874 -0.21376359 0.11889280
v -0.23035138 -0.21401650 0.11069967
v -0.23127699 -0.20916364 0.11069967
v -0.23143580 -0.20916364 0.10250653
v -0.23210400 -0.21735976 -0.02055887
v -0.23156179 -0.20916364 0.09431340
v -0.23221354 -0.21735976 -0.02875200
v -0.23166038 -0.20916364 0.08612026
v -0.23172609 -0.20916364 0.07787100
v -0.23298577 -0.22555590 -0.35675805
v -0.23298577 -0.22555590 -0.37320045
v -0.23289814 -0.22555590 -0.15989831
v -0.23176989 -0.20916364 0.06967787
v -0.23236141 -0.21735976 -0.05333142
v -0.23293647 -0.22555590 -0.17634070
v -0.23180277 -0.20916364 0.04509846
v -0.23123318 -0.20095959 0.15879227
v -0.23298030 -0.22555590 -0.38139358
v -0.23296935 -0.22555590 -0.38958672
v -0.23293647 -0.22555590 -0.39777985
v -0.23266811 -0.22555590 -0.40597299
v -0.23031305 -0.21735976 -0.41085520
v -0.22555911 -0.21735976 -0.41237039
v -0.21736023 -0.21735976 -0.41321217
v -0.20915585 -0.21735976 -0.41338049
v -0.20915585 -0.22555590 -0.41444673
v -0.20095695 -0.21735976 -0.41225813
v -0.19647686 -0.21735976 -0.41057462
v -0.19576487 -0.21735976 -0.40597299
v -0.17806905 -0.20095959 -0.08402762
v -0.17806905 -0.20916364 -0.08402762
v -0.17806905 -0.21735976 -0.08374703
v -0.19250065 -0.18455941 0.15879227
v -0.17806905 -0.21735976 -0.03649620
v -0.23114007 -0.20191595 0.15879227
v -0.23242714 -0.21735976 -0.29115684
v -0.23243261 -0.21735976 -0.31573627
v -0.23243261 -0.21735976 -0.33217867
v -0.23179182 -0.20916364 0.06148473
v -0.23068547 -0.19275556 0.15879227
v -0.23014326 -0.18455941 0.14352833
v -0.23186300 -0.20916364 -0.20911324
v -0.23242714 -0.21735976 -0.34037178
v -0.23241616 -0.21735976 -0.34856492
v -0.23238878 -0.21735976 -0.35675805
v -0.23234498 -0.21735976 -0.36495121
v -0.23227377 -0.21735976 -0.37320045
v -0.23216423 -0.21735976 -0.38139358
v -0.23202184 -0.21735976 -0.38958672
v -0.23180824 -0.21735976 -0.39777985
v -0.23132079 -0.21735976 -0.40597299
v -0.22969416 -0.21322615 -0.41012567
v -0.22555911 -0.21290208 -0.41051850
v -0.21736023 -0.21251480 -0.41102358
v -0.20915585 -0.21237254 -0.41113583
v -0.20095695 -0.21269660 -0.41074295
v -0.19675618 -0.21314709 -0.41023792
v -0.19647686 -0.21283095 -0.40597299
v -0.17806905 -0.19085076 -0.07796695
v -0.17806905 -0.19481052 -0.08301751
v -0.19365078 -0.17635538 0.15879227
v -0.17806905 -0.21087874 -0.03425151
v -0.17806905 -0.20909251 -0.03363421
v -0.17806905 -0.20091217 -0.03363421
v -0.17806905 -0.19442324 -0.03655232
v -0.17806905 -0.19290572 -0.03733797
v -0.17806905 -0.18977586 -0.04345476
v -0.17806905 -0.18894597 -0.04513828
v -0.23128794 -0.20095959 -0.09435322
v -0.23071287 -0.19275556 0.02046293
v -0.23021447 -0.18570545 0.15879227
v -0.23013779 -0.18455941 0.15879227
v -0.22981465 -0.18073402 0.15879227
v -0.22976537 -0.18014915 0.15172147
v -0.22976537 -0.18021238 0.13533520
v -0.23013231 -0.18455941 0.12708594
v -0.23070190 -0.19275556 0.00407666
v -0.22975442 -0.18025190 0.12708594
v -0.22974347 -0.18029141 0.11889280
v -0.22972154 -0.18035465 0.11069967
v -0.22968869 -0.18040997 0.10407782
v -0.22965583 -0.18047321 0.09857833
v -0.23013779 -0.19624109 -0.14351204
v -0.23044449 -0.20408946 -0.25832818
v -0.23074573 -0.21195365 -0.37320045
v -0.22992419 -0.18828206 -0.02055887
v -0.22983655 -0.18841642 -0.02875200
v -0.23050475 -0.21236464 -0.38958672
v -0.23064167 -0.21215124 -0.38139358
v -0.23030758 -0.21260965 -0.39777985
v -0.22995159 -0.21298111 -0.40597299
v -0.22555911 -0.21127391 -0.39777985
v -0.22555911 -0.21204850 -0.40597299
v -0.21736023 -0.21126602 -0.40597299
v -0.20915585 -0.21098940 -0.40597299
v -0.20095695 -0.21162169 -0.40597299
v -0.20095695 -0.21082342 -0.39777985
v -0.17806905 -0.18893806 -0.06977381
v -0.19597299 -0.17162896 0.15879227
v -0.17806905 -0.18893806 -0.05164790
v -0.22975989 -0.18010963 0.15879227
v -0.22627658 -0.17591277 0.15879227
v -0.22272757 -0.17238772 0.15879227
v -0.22227847 -0.17196882 0.15879227
v -0.22967226 -0.18864563 -0.04137841
v -0.22973249 -0.18856659 -0.03694514
v -0.23003920 -0.19639916 -0.15170518
v -0.23034043 -0.20426334 -0.26652134
v -0.23021447 -0.20445303 -0.27477057
v -0.23004468 -0.20465853 -0.28296373
v -0.22983655 -0.20488774 -0.29115684
v -0.22970511 -0.20502210 -0.29592683
v -0.21736023 -0.20981175 -0.38958672
v -0.21736023 -0.21042822 -0.39777985
v -0.22397631 -0.20462691 -0.30754311
v -0.22237158 -0.20491145 -0.31573627
v -0.22147335 -0.20506161 -0.31988895
v -0.20915585 -0.21014368 -0.39777985
v -0.20312581 -0.20487192 -0.32258257
v -0.20061739 -0.20466643 -0.31579237
v -0.19685476 -0.18865354 -0.09025665
v -0.19685476 -0.18044950 0.02455950
v -0.19659187 -0.17207947 0.14515575
v -0.19626874 -0.17185817 0.15172147
v -0.20029973 -0.17111522 0.15879227
v -0.21735475 -0.17154203 0.15879227
v -0.22184580 -0.17212689 0.15385394
v -0.22965583 -0.19686548 -0.17218802
v -0.22978180 -0.19673112 -0.16668851
v -0.22991324 -0.19657304 -0.15989831
v -0.22603561 -0.20446093 -0.29895717
v -0.22150623 -0.18044159 0.03258428
v -0.20915585 -0.20953511 -0.38958672
v -0.21736023 -0.20864199 -0.37320045
v -0.20915585 -0.20835745 -0.37320045
v -0.21736023 -0.19087447 -0.11898875
v -0.21736023 -0.20634201 -0.34037178
v -0.21736023 -0.20748805 -0.35675805
v -0.21736023 -0.18399825 -0.02055887
v -0.20095695 -0.17201624 0.14425786
v -0.20095695 -0.17151831 0.15172147
v -0.20095695 -0.17106780 0.15879227
v -0.21620460 -0.17150251 0.15879227
v -0.20915585 -0.17170799 0.15172147
v -0.21733832 -0.17201624 0.15132864
v -0.22005485 -0.17230078 0.14835442
v -0.20915585 -0.20778048 -0.36495121
v -0.20534393 -0.18044159 0.02444727
v -0.20915585 -0.19058994 -0.11898875
v -0.20915585 -0.20548842 -0.33217867
v -0.21736023 -0.17426090 0.11889280
v -0.20915585 -0.17239563 0.14150812
v -0.20915585 -0.17211109 0.14560467
v -0.20800569 -0.17123378 0.15879227
v -0.20915585 -0.17126540 0.15879227
v -0.21458892 -0.17220593 0.14695149
v -0.21733832 -0.17251418 0.14392116
f 1 2 11
f 1 11 3
f 1 3 4
f 1 4 5
f 1 5 6
f 1 6 7
f 1 7 8
f 1 8 9
f 1 9 2
f 2 10 11
f 2 9 12
f 2 12 13
f 2 13 14
f 2 14 15
f 2 15 16
f 2 16 17
f 2 17 18
f 2 18 19
f 2 19 10
f 3 11 42
f 3 42 20
f 3 20 21
f 3 21 22
f 3 22 4
f 4 22 23
f 4 23 5
f 5 23 6
f 6 23 24
f 6 24 25
f 6 25 26
f 6 26 27
f 6 27 28
f 6 28 29
f 6 29 30
f 6 30 31
f 6 31 32
f 6 32 33
f 6 33 7
f 7 33 34
f 7 34 35
f 7 35 36
f 7 36 37
f 7 37 8
f 8 37 38
f 8 38 9
f 9 39 12
f 9 38 40
f 9 40 39
f 10 41 11
f 10 19 41
f 11 41 42
f 12 39 43
f 12 43 19
f 12 19 13
f 13 19 14
f 14 19 15
f 15 19 16
f 16 19 17
f 17 19 18
f 19 44 83
f 19 83 147
f 19 147 191
f 19 191 190
f 19 190 189
f 19 189 219
f 19 219 218
f 19 218 257
f 19 257 259
f 19 259 227
f 19 227 226
f 19 226 225
f 19 225 224
f 19 224 223
f 19 223 222
f 19 222 221
f 19 221 193
f 19 193 150
f 19 150 148
f 19 148 84
f 19 84 45
f 19 45 46
f 19 46 47
f 19 47 48
f 19 48 49
f 19 49 50
f 19 50 41
f 19 43 44
f 20 42 81
f 20 81 51
f 20 51 21
f 21 51 91
f 21 91 52
f 21 52 23
f 21 23 22
f 23 53 24
f 23 52 54
f 23 54 55
f 23 55 56
f 23 56 53
f 24 53 57
f 24 57 25
f 25 57 58
f 25 58 26
f 26 58 27
f 27 58 59
f 27 59 28
f 28 59 60
f 28 60 61
f 28 61 29
f 29 61 62
f 29 62 30
f 30 63 31
f 30 62 64
f 30 64 63
f 31 63 65
f 31 65 66
f 31 66 32
f 32 66 67
f 32 67 33
f 33 67 68
f 33 68 69
f 33 69 34
f 34 69 70
f 34 70 35
f 35 71 72
f 35 72 36
f 35 70 71
f 36 72 73
f 36 73 37
f 37 73 74
f 37 74 38
f 38 74 40
f 39 75 43
f 39 40 75
f 40 74 76
f 40 76 77
f 40 77 75
f 41 78 79
f 41 79 80
f 41 80 81
f 41 81 42
f 41 50 82
f 41 82 78
f 43 75 44
f 44 75 83
f 45 84 46
f 46 85 47
f 46 84 85
f 47 85 86
f 47 86 87
f 47 87 49
f 47 49 48
f 49 87 88
f 49 88 89
f 49 89 50
f 50 90 82
f 50 89 90
f 51 81 80
f 51 80 91
f 52 91 92
f 52 92 93
f 52 93 94
f 52 94 56
f 52 56 54
f 53 56 95
f 53 95 57
f 54 56 55
f 56 94 96
f 56 96 97
f 56 97 98
f 56 98 99
f 56 99 100
f 56 100 101
f 56 101 102
f 56 102 103
f 56 103 104
f 56 104 105
f 56 105 95
f 57 95 58
f 58 95 106
f 58 106 107
f 58 107 59
f 59 107 108
f 59 108 60
f 60 108 61
f 61 108 109
f 61 109 110
f 61 110 111
f 61 111 62
f 62 111 112
f 62 112 113
f 62 113 64
f 63 64 113
f 63 113 112
f 63 112 114
f 63 114 65
f 65 114 115
f 65 115 66
f 66 116 117
f 66 117 67
f 66 115 116
f 67 117 118
f 67 118 119
f 67 119 68
f 68 120 121
f 68 121 127
f 68 127 69
f 68 119 122
f 68 122 123
f 68 123 124
f 68 124 125
f 68 125 126
f 68 126 120
f 69 127 128
f 69 128 129
f 69 129 180
f 69 180 130
f 69 130 70
f 70 130 131
f 70 131 132
f 70 132 71
f 71 132 133
f 71 133 72
f 72 133 134
f 72 134 73
f 73 134 135
f 73 135 74
f 74 135 136
f 74 136 137
f 74 137 76
f 75 77 138
f 75 138 83
f 76 137 136
f 76 136 139
f 76 139 140
f 76 140 77
f 77 140 141
f 77 141 142
f 77 142 138
f 78 143 79
f 78 82 144
f 78 144 143
f 79 143 145
f 79 145 80
f 80 145 143
f 80 143 91
f 82 90 146
f 82 146 144
f 83 138 142
f 83 142 141
f 83 141 147
f 84 148 85
f 85 149 192
f 85 192 220
f 85 220 258
f 85 258 284
f 85 284 301
f 85 301 313
f 85 313 314
f 85 314 302
f 85 302 285
f 85 285 263
f 85 263 262
f 85 262 261
f 85 261 260
f 85 260 232
f 85 232 231
f 85 231 230
f 85 230 199
f 85 199 176
f 85 176 194
f 85 194 154
f 85 154 101
f 85 101 100
f 85 100 99
f 85 99 151
f 85 151 88
f 85 88 87
f 85 87 86
f 85 148 150
f 85 150 149
f 88 151 89
f 89 151 98
f 89 98 152
f 89 152 90
f 90 152 98
f 90 98 146
f 91 143 92
f 92 143 144
f 92 144 153
f 92 153 96
f 92 96 94
f 92 94 93
f 95 105 106
f 96 98 97
f 96 153 98
f 98 151 99
f 98 153 146
f 101 154 102
f 102 154 103
f 103 155 104
f 103 154 156
f 103 156 157
f 103 157 158
f 103 158 105
f 103 105 155
f 104 155 105
f 105 158 107
f 105 107 106
f 107 158 157
f 107 157 108
f 108 157 159
f 108 159 109
f 109 159 110
f 110 159 160
f 110 160 161
f 110 161 112
f 110 112 111
f 112 161 114
f 114 161 154
f 114 154 162
f 114 162 115
f 115 162 163
f 115 163 116
f 116 163 164
f 116 164 117
f 117 164 165
f 117 165 118
f 118 165 166
f 118 166 119
f 119 166 167
f 119 167 168
f 119 168 122
f 120 169 170
f 120 170 121
f 120 126 169
f 121 170 177
f 121 177 127
f 122 171 123
f 122 168 171
f 123 171 172
f 123 172 173
f 123 173 124
f 124 174 125
f 124 173 174
f 125 174 175
f 125 175 176
f 125 176 126
f 126 176 169
f 127 177 178
f 127 178 128
f 128 178 129
f 129 178 179
f 129 179 180
f 130 180 131
f 131 133 132
f 131 180 181
f 131 181 133
f 133 181 182
f 133 182 183
f 133 183 134
f 134 183 184
f 134 184 185
f 134 185 135
f 135 185 136
f 136 185 186
f 136 186 187
f 136 187 139
f 139 187 188
f 139 188 141
f 139 141 140
f 141 188 189
f 141 189 190
f 141 190 191
f 141 191 147
f 144 146 153
f 149 150 193
f 149 193 192
f 154 194 163
f 154 163 162
f 154 161 160
f 154 160 156
f 156 160 159
f 156 159 157
f 163 194 176
f 163 176 165
f 163 165 164
f 165 176 167
f 165 167 166
f 167 176 168
f 168 176 172
f 168 172 171
f 169 195 196
f 169 196 197
f 169 197 170
f 169 176 195
f 170 197 202
f 170 202 177
f 172 176 198
f 172 198 173
f 173 198 175
f 173 175 174
f 175 198 176
f 176 199 200
f 176 200 201
f 176 201 195
f 177 202 203
f 177 203 178
f 178 203 204
f 178 204 179
f 179 204 205
f 179 205 206
f 179 206 207
f 179 207 208
f 179 208 209
f 179 209 180
f 180 209 210
f 180 210 181
f 181 210 211
f 181 211 182
f 182 211 212
f 182 212 183
f 183 212 213
f 183 213 214
f 183 214 184
f 184 214 215
f 184 215 186
f 184 186 185
f 186 215 216
f 186 216 187
f 187 216 188
f 188 216 217
f 188 217 218
f 188 218 219
f 188 219 189
f 192 193 221
f 192 221 222
f 192 222 223
f 192 223 224
f 192 224 225
f 192 225 226
f 192 226 227
f 192 227 220
f 195 201 196
f 196 201 197
f 197 201 228
f 197 228 229
f 197 229 236
f 197 236 202
f 199 230 200
f 200 230 231
f 200 231 232
f 200 232 233
f 200 233 234
f 200 234 235
f 200 235 229
f 200 229 228
f 200 228 201
f 202 236 234
f 202 234 203
f 203 234 237
f 203 237 238
f 203 238 204
f 204 238 239
f 204 239 205
f 205 239 240
f 205 240 241
f 205 241 206
f 206 241 207
f 207 242 243
f 207 243 244
f 207 244 208
f 207 241 245
f 207 245 246
f 207 246 242
f 208 247 209
f 208 244 248
f 208 248 247
f 209 247 249
f 209 249 250
f 209 250 210
f 210 250 211
f 211 250 251
f 211 251 252
f 211 252 212
f 212 252 253
f 212 253 213
f 213 253 254
f 213 254 214
f 214 254 215
f 215 254 255
f 215 255 216
f 216 255 256
f 216 256 217
f 217 256 257
f 217 257 218
f 220 227 258
f 227 259 258
f 229 235 236
f 232 260 233
f 233 260 234
f 234 236 235
f 234 260 261
f 234 261 237
f 237 261 238
f 238 261 239
f 239 261 240
f 240 261 241
f 241 261 262
f 241 262 263
f 241 263 264
f 241 264 265
f 241 265 246
f 241 246 245
f 242 266 243
f 242 246 266
f 243 266 244
f 244 266 267
f 244 267 248
f 246 265 266
f 247 248 268
f 247 268 269
f 247 269 249
f 248 267 268
f 249 269 270
f 249 270 271
f 249 271 250
f 250 271 251
f 251 272 273
f 251 273 252
f 251 271 274
f 251 274 275
f 251 275 276
f 251 276 272
f 252 273 253
f 253 273 277
f 253 277 254
f 254 277 255
f 255 277 256
f 256 277 278
f 256 278 279
f 256 279 257
f 257 280 281
f 257 281 282
f 257 282 283
f 257 283 258
f 257 258 259
f 257 279 278
f 257 278 280
f 258 283 284
f 263 285 286
f 263 286 271
f 263 271 287
f 263 287 264
f 264 287 288
f 264 288 289
f 264 289 266
f 264 266 265
f 266 289 267
f 267 289 268
f 268 289 288
f 268 288 269
f 269 288 287
f 269 287 270
f 270 287 271
f 271 290 274
f 271 286 291
f 271 291 290
f 272 292 277
f 272 277 273
f 272 276 293
f 272 293 294
f 272 294 292
f 274 290 291
f 274 291 275
f 275 291 276
f 276 295 296
f 276 296 297
f 276 297 293
f 276 291 298
f 276 298 295
f 277 292 278
f 278 292 294
f 278 294 281
f 278 281 280
f 281 299 282
f 281 294 299
f 282 299 300
f 282 300 301
f 282 301 284
f 282 284 283
f 285 302 303
f 285 303 304
f 285 304 305
f 285 305 286
f 286 305 291
f 291 305 298
f 293 297 294
f 294 297 306
f 294 306 307
f 294 307 299
f 295 308 296
f 295 298 308
f 296 309 306
f 296 306 297
f 296 308 309
f 298 305 310
f 298 310 311
f 298 311 308
f 299 307 311
f 299 311 312
f 299 312 300
f 300 312 303
f 300 303 301
f 301 303 313
f 302 314 303
f 303 314 313
f 303 312 315
f 303 315 305
f 303 305 304
f 305 315 316
f 305 316 310
f 306 309 307
f 307 309 308
f 307 308 311
f 310 316 315
f 310 315 311
f 311 315 312

