# https://github.com/mikedh/trimesh
v -0.17817558 0.18781552 0.17328792
v -0.16805159 0.17798639 0.19349908
v -0.17023956 0.17798639 0.19383622
v -0.17598762 0.17798639 0.19486448
v -0.17984437 0.17798639 0.19833695
v -0.18130920 0.18781552 0.17672668
v 0.00361130 0.18781552 0.19420707
v 0.00361130 0.18504143 0.19419021
v 0.00361130 0.17798639 0.19419021
v -0.18032647 0.17798639 0.19891008
v -0.18158733 0.18781552 0.17768752
v 0.00361130 0.18781552 0.28840221
v 0.00361130 0.17798639 0.29462233
v -0.18116087 0.17798639 0.20212970
v -0.18423886 0.18781552 0.20100031
v 0.00361130 0.18455165 0.29072845
v -0.15041804 0.18781552 0.34547896
v -0.15136368 0.18554466 0.34547896
v -0.15822427 0.18113863 0.34547896
v -0.16076454 0.18040446 0.34547896
v -0.16426900 0.17939412 0.34547896
v -0.16814430 0.17828660 0.34547896
v -0.05429572 0.17798639 0.29462233
v 0.00361130 0.17822694 0.29452120
v -0.18164295 0.17798639 0.20915895
v -0.18455407 0.18781552 0.20915895
v 0.00361130 0.17844345 0.29442005
v -0.18581493 0.18781552 0.34547896
v -0.17114812 0.17840303 0.34547896
v -0.17617303 0.17798639 0.27769823
v -0.17270566 0.17798639 0.28312607
v -0.16881182 0.17798639 0.28868877
v -0.16547423 0.17798639 0.29005419
v -0.15171599 0.17798639 0.29138584
v -0.14353892 0.17798639 0.29214441
v -0.12712914 0.17798639 0.29356035
v -0.11891499 0.17798639 0.29401549
v -0.11071937 0.17798639 0.29426835
v -0.10943997 0.17798639 0.29430206
v -0.10283897 0.17798639 0.29440321
v -0.09484732 0.17798639 0.29447063
v -0.08680005 0.17798639 0.29452120
v -0.07871568 0.17798639 0.29455491
v -0.07059424 0.17798639 0.29458862
v -0.06245425 0.17798639 0.29460549
v -0.18166150 0.17798639 0.21081090
v -0.18485073 0.18781552 0.22953867
v -0.18462824 0.18781552 0.21298541
v -0.18557388 0.18781552 0.31206902
v -0.18168005 0.17798639 0.21900326
v -0.18168005 0.17798639 0.22721245
v -0.18166150 0.17798639 0.23376972
v -0.18308924 0.18415810 0.34547896
v -0.17669221 0.17899577 0.34547896
v -0.17661805 0.17798639 0.27459660
v -0.18553680 0.18781552 0.30758513
v -0.18030793 0.18054206 0.34547896
v -0.18095690 0.18138016 0.34547896
v -0.18153171 0.17798639 0.23532052
v -0.18116087 0.17798639 0.23926498
f 1 2 3
f 1 3 4
f 1 4 5
f 1 5 6
f 1 6 11
f 1 11 15
f 1 15 26
f 1 26 48
f 1 48 47
f 1 47 56
f 1 56 49
f 1 49 28
f 1 28 17
f 1 17 12
f 1 12 7
f 1 7 8
f 1 8 9
f 1 9 2
f 2 9 13
f 2 13 23
f 2 23 45
f 2 45 44
f 2 44 43
f 2 43 42
f 2 42 41
f 2 41 40
f 2 40 39
f 2 39 38
f 2 38 37
f 2 37 36
f 2 36 35
f 2 35 34
f 2 34 33
f 2 33 32
f 2 32 31
f 2 31 30
f 2 30 55
f 2 55 60
f 2 60 59
f 2 59 52
f 2 52 51
f 2 51 50
f 2 50 46
f 2 46 25
f 2 25 14
f 2 14 10
f 2 10 5
f 2 5 4
f 2 4 3
f 5 10 6
f 6 10 11
f 7 12 16
f 7 16 27
f 7 27 24
f 7 24 13
f 7 13 9
f 7 9 8
f 10 14 11
f 11 14 15
f 12 17 16
f 13 17 18
f 13 18 19
f 13 19 20
f 13 20 21
f 13 21 22
f 13 22 23
f 13 24 17
f 14 25 15
f 15 25 26
f 16 17 27
f 17 28 53
f 17 53 58
f 17 58 57
f 17 57 54
f 17 54 29
f 17 29 22
f 17 22 21
f 17 21 20
f 17 20 19
f 17 19 18
f 17 24 27
f 22 29 30
f 22 30 31
f 22 31 32
f 22 32 33
f 22 33 34
f 22 34 35
f 22 35 36
f 22 36 37
f 22 37 38
f 22 38 39
f 22 39 40
f 22 40 41
f 22 41 42
f 22 42 43
f 22 43 44
f 22 44 45
f 22 45 23
f 25 46 47
f 25 47 48
f 25 48 26
f 28 49 46
f 28 46 50
f 28 50 51
f 28 51 52
f 28 52 53
f 29 54 55
f 29 55 30
f 46 49 56
f 46 56 47
f 52 57 58
f 52 58 53
f 52 59 54
f 52 54 57
f 54 59 60
f 54 60 55

