# https://github.com/mikedh/trimesh
v 0.15101757 0.18781647 0.34549580
v 0.18701417 0.18781647 0.34549580
v 0.15209939 0.18516685 0.34549580
v 0.00007365 0.18781647 0.37539886
v 0.20548974 0.18781647 0.37699369
v 0.21416541 0.17415570 0.37608051
v 0.21503509 0.16956579 0.37503229
v 0.18542328 0.18578504 0.34549580
v 0.15557814 0.18261552 0.34549580
v 0.00007365 0.18463443 0.37569467
v 0.00007365 0.18619418 0.37554676
v 0.00007365 0.18781647 0.41053013
v 0.20595641 0.18781647 0.37815765
v 0.21253209 0.17927804 0.38140519
v 0.21461087 0.17517766 0.38140519
v 0.21677448 0.16956579 0.38140519
v 0.21656235 0.16956579 0.38014475
v 0.20922304 0.16956579 0.37202913
v 0.18082030 0.18005344 0.34549580
v 0.18217787 0.18173291 0.34549580
v 0.18444754 0.18455047 0.34549580
v 0.15795386 0.18106470 0.34549580
v 0.00007365 0.18254762 0.37685863
v 0.00007365 0.18763601 0.41049156
v 0.20095039 0.16956579 0.40784849
v 0.19274139 0.18521867 0.41078734
v 0.17634458 0.18781647 0.41117318
v 0.20633822 0.18781647 0.38140519
v 0.20879880 0.18455047 0.38140519
v 0.20913820 0.18455047 0.38960442
v 0.21268059 0.17930663 0.38960442
v 0.21458965 0.17520625 0.38960442
v 0.21671085 0.16956579 0.38960442
v 0.20773822 0.16956579 0.37166258
v 0.17634458 0.17829002 0.34549580
v 0.15950233 0.18061446 0.34549580
v 0.00007365 0.18053227 0.37801617
v 0.00007365 0.18353386 0.40649161
v 0.18453239 0.16956579 0.40739834
v 0.19274139 0.16956579 0.40779706
v 0.20924426 0.16956579 0.40665236
v 0.20095039 0.17634972 0.40907034
v 0.19821406 0.18632104 0.41056871
v 0.19284746 0.18781647 0.41089666
v 0.18453239 0.18781647 0.41119249
v 0.20672004 0.18781647 0.38960442
v 0.20907457 0.18455047 0.39781007
v 0.21263818 0.17920836 0.39781007
v 0.21452602 0.17510978 0.39781007
v 0.21656235 0.16956579 0.39781007
v 0.20095039 0.16956579 0.37112882
v 0.16813558 0.17811135 0.34549580
v 0.16204776 0.17987479 0.34549580
v 0.00007365 0.18029286 0.38211258
v 0.16607802 0.17870632 0.34549580
v 0.18251726 0.16956579 0.37108382
v 0.17441430 0.16956579 0.37404196
v 0.00007365 0.18194730 0.40447878
v 0.17645065 0.16956579 0.40515399
v 0.00007365 0.18030179 0.40238877
v 0.21486539 0.16956579 0.40382282
v 0.19821406 0.18781647 0.41056871
v 0.20665639 0.18781647 0.39781007
v 0.20585035 0.18781647 0.40341127
v 0.21408057 0.17411818 0.40316047
v 0.19129898 0.16956579 0.37074942
v 0.00007365 0.18021425 0.38594530
v 0.17356582 0.16956579 0.37501300
v 0.17133858 0.16956579 0.37782325
v 0.16972647 0.16956579 0.38140519
v 0.17352341 0.16956579 0.40399646
v 0.00007365 0.18014993 0.39781007
v 0.16966284 0.16956579 0.39781007
v 0.20703822 0.18455047 0.40463312
v 0.00007365 0.18014099 0.38960442
v 0.16932345 0.16956579 0.38960442
v 0.00007365 0.18014457 0.39378440
f 1 2 8
f 1 8 21
f 1 21 20
f 1 20 19
f 1 19 35
f 1 35 52
f 1 52 55
f 1 55 53
f 1 53 36
f 1 36 22
f 1 22 9
f 1 9 3
f 1 3 4
f 1 4 12
f 1 12 27
f 1 27 45
f 1 45 44
f 1 44 62
f 1 62 64
f 1 64 63
f 1 63 46
f 1 46 28
f 1 28 13
f 1 13 5
f 1 5 2
f 2 5 6
f 2 6 7
f 2 7 8
f 3 9 10
f 3 10 11
f 3 11 4
f 4 11 10
f 4 10 23
f 4 23 37
f 4 37 54
f 4 54 67
f 4 67 75
f 4 75 77
f 4 77 72
f 4 72 60
f 4 60 58
f 4 58 38
f 4 38 24
f 4 24 12
f 5 13 6
f 6 13 14
f 6 14 15
f 6 15 16
f 6 16 17
f 6 17 7
f 7 17 16
f 7 16 33
f 7 33 50
f 7 50 61
f 7 61 41
f 7 41 25
f 7 25 40
f 7 40 39
f 7 39 59
f 7 59 71
f 7 71 73
f 7 73 76
f 7 76 70
f 7 70 69
f 7 69 68
f 7 68 57
f 7 57 56
f 7 56 66
f 7 66 51
f 7 51 34
f 7 34 18
f 7 18 19
f 7 19 20
f 7 20 21
f 7 21 8
f 9 22 10
f 10 22 23
f 12 24 25
f 12 25 26
f 12 26 27
f 13 28 29
f 13 29 14
f 14 29 30
f 14 30 31
f 14 31 15
f 15 31 32
f 15 32 16
f 16 32 33
f 18 34 35
f 18 35 19
f 22 36 37
f 22 37 23
f 24 38 39
f 24 39 40
f 24 40 25
f 25 41 42
f 25 42 26
f 26 42 43
f 26 43 44
f 26 44 45
f 26 45 27
f 28 46 29
f 29 46 30
f 30 46 63
f 30 63 47
f 30 47 31
f 31 47 48
f 31 48 32
f 32 49 33
f 32 48 49
f 33 49 50
f 34 51 35
f 35 51 52
f 36 53 37
f 37 53 55
f 37 55 52
f 37 52 56
f 37 56 57
f 37 57 54
f 38 58 39
f 39 58 60
f 39 60 59
f 41 43 42
f 41 61 62
f 41 62 43
f 43 62 44
f 47 63 64
f 47 64 48
f 48 65 49
f 48 64 65
f 49 65 50
f 50 65 61
f 51 66 52
f 52 66 56
f 54 57 68
f 54 68 69
f 54 69 70
f 54 70 67
f 59 60 71
f 60 72 73
f 60 73 71
f 61 65 62
f 62 65 74
f 62 74 64
f 64 74 65
f 67 70 75
f 70 76 75
f 72 77 76
f 72 76 73
f 75 76 77

