# https://github.com/mikedh/trimesh
v -0.14110043 0.19275567 0.37185936
v -0.14110043 0.19153735 0.37187979
v -0.14110043 0.19830768 0.37288988
v 0.13820622 0.19275567 0.37307800
v -0.14110043 0.18781647 0.37207200
v 0.13820622 0.18781647 0.37328654
v -0.14110043 0.20129610 0.37363415
v 0.13820622 0.20148654 0.37516767
v -0.14110043 0.18781647 0.41081897
v 0.13820622 0.18781647 0.41084351
v -0.14110043 0.20583487 0.37636588
v 0.13323031 0.20488269 0.37735958
v 0.13820622 0.20448960 0.37713877
v -0.14110043 0.18841708 0.41095801
v 0.13820622 0.19275567 0.41196812
v -0.14110043 0.20875982 0.38117500
v 0.00410293 0.20889898 0.38155939
v 0.01230497 0.20889412 0.38156347
v 0.02870904 0.20887945 0.38156758
v 0.03691107 0.20887214 0.38157166
v 0.13820622 0.20707762 0.37909758
v 0.13820622 0.20550040 0.37787077
v -0.14110043 0.18927894 0.41114614
v 0.13820622 0.20095429 0.41355889
v 0.13533549 0.20095429 0.41361614
v 0.12710613 0.20095429 0.41363658
v -0.14110043 0.19518253 0.41240568
v -0.14110043 0.19275567 0.41189860
v -0.14110043 0.21066666 0.38961141
v -0.13530433 0.21122087 0.38961141
v -0.12710229 0.21164325 0.38961141
v -0.11892759 0.21188252 0.38961141
v -0.11072555 0.21210227 0.38961141
v -0.10249619 0.21225119 0.38961141
v -0.09429415 0.21235863 0.38961141
v -0.08609212 0.21246117 0.38961141
v -0.07789008 0.21255883 0.38961141
v -0.06971539 0.21261987 0.38961141
v -0.06151335 0.21265893 0.38961141
v -0.04510928 0.21272730 0.38961141
v -0.03690725 0.21275170 0.38961141
v -0.02870521 0.21275903 0.38961141
v -0.00978585 0.21275414 0.38961141
v -0.00407176 0.20890387 0.38155939
v -0.00407176 0.21275170 0.38961141
v 0.00410293 0.21274439 0.38961141
v 0.01230497 0.21273217 0.38961141
v 0.02870904 0.21270533 0.38961141
v 0.04511311 0.20885261 0.38157166
v 0.06969187 0.20877448 0.38157983
v 0.07789391 0.20873542 0.38157983
v 0.08609595 0.20868169 0.38157574
v 0.09429798 0.20862065 0.38157166
v 0.13820622 0.20794436 0.38087237
v 0.13820622 0.20750489 0.41219301
v 0.13533549 0.20766603 0.41226253
v 0.12710613 0.20784915 0.41228297
v 0.11890407 0.20796389 0.41228297
v -0.13530433 0.20095429 0.41355889
v 0.11070204 0.20807619 0.41227891
v 0.10250001 0.20816165 0.41227481
v 0.07789391 0.20836674 0.41226253
v 0.06969187 0.20841314 0.41225843
v 0.06151717 0.20844487 0.41225437
v 0.03691107 0.20853764 0.41224210
v -0.04510928 0.20857184 0.41222983
v -0.06971539 0.20849371 0.41223799
v -0.14110043 0.20095429 0.41346893
v -0.14110043 0.21040297 0.39781063
v -0.13530433 0.21117205 0.39781063
v -0.12710229 0.21163350 0.39781063
v -0.11892759 0.21187521 0.39781063
v -0.11072555 0.21209494 0.39781063
v -0.10249619 0.21224388 0.39781063
v -0.08609212 0.21245628 0.39781063
v -0.07789008 0.21255638 0.39781063
v -0.06971539 0.21261987 0.39781063
v -0.04510928 0.21272730 0.39781063
v -0.03690725 0.21274683 0.39781063
v -0.02870521 0.21275170 0.39781063
v -0.00981319 0.21275170 0.39781063
v -0.00407176 0.21275170 0.39780655
v 0.00410293 0.21274439 0.39780655
v 0.01230497 0.21273217 0.39780655
v 0.02870904 0.21270288 0.39780655
v 0.03691107 0.21268580 0.38961141
v 0.04511311 0.21264915 0.38961141
v 0.05331514 0.21259789 0.38961141
v 0.06969187 0.21249290 0.38961141
v 0.10250001 0.20855961 0.38157574
v 0.13820622 0.21026136 0.38674474
v 0.07789391 0.21241722 0.38961141
v 0.08609595 0.21230490 0.38961141
v 0.09429798 0.21218526 0.38961141
v 0.10250001 0.21206319 0.38961141
v 0.13820622 0.21027111 0.40600985
v 0.13533549 0.21061781 0.40600985
v 0.12710613 0.21102311 0.40600985
v 0.11890407 0.21126482 0.40600985
v 0.11070204 0.21149433 0.40600985
v 0.10250001 0.21166278 0.40600985
v 0.08609595 0.21192160 0.40600985
v 0.07789391 0.21204610 0.40600985
v -0.07789008 0.20845220 0.41224210
v -0.10249619 0.20825686 0.41225026
v -0.11072555 0.20817143 0.41225437
v -0.11892759 0.20805177 0.41225843
v -0.12710229 0.20793458 0.41225843
v -0.13530433 0.20774171 0.41224621
v -0.14110043 0.20296366 0.41308041
v 0.06969187 0.21213156 0.40600985
v 0.04511311 0.21230003 0.40600985
v 0.03691107 0.21235129 0.40600985
v 0.02870904 0.21237571 0.40600985
v 0.01230497 0.21240989 0.40600985
v 0.00410293 0.21242455 0.40600985
v 0.02870904 0.20855230 0.41223799
v -0.03690725 0.20858648 0.41222572
v -0.03690725 0.21242942 0.40600985
v -0.04510928 0.21240502 0.40600985
v -0.14110043 0.21019054 0.40358077
v -0.13530433 0.21079360 0.40600985
v -0.14110043 0.21008313 0.40600985
v -0.12710229 0.21121842 0.40600985
v -0.11892759 0.21145771 0.40600985
v -0.11072555 0.21168476 0.40600985
v -0.10249619 0.21185323 0.40600985
v -0.07789008 0.21220238 0.40600985
v -0.06971539 0.21227806 0.40600985
v -0.05331132 0.21236352 0.40600985
v -0.02870521 0.21243675 0.40600985
v -0.02050317 0.21243675 0.40600985
v -0.00407176 0.21243431 0.40600985
v 0.03691107 0.21268091 0.39780655
v 0.04511311 0.21264429 0.39780655
v 0.06969187 0.21249046 0.39780655
v 0.11070204 0.21190205 0.38961141
v 0.11890407 0.21167256 0.38961141
v 0.12710613 0.21142107 0.38961141
v 0.13533549 0.21095232 0.38961141
v 0.13820622 0.21067885 0.38961141
v 0.07789391 0.21241478 0.39780655
v 0.08609595 0.21230248 0.39780655
v 0.10250001 0.21205832 0.39780655
v 0.13820622 0.21065199 0.39493988
v 0.13533549 0.21091325 0.39780655
v 0.12710613 0.21140643 0.39780655
v 0.11890407 0.21166278 0.39780655
v 0.11070204 0.21189474 0.39780655
v -0.14110043 0.20831546 0.41029145
v -0.14110043 0.20741210 0.41213576
v 0.01230497 0.20857184 0.41222983
v -0.02870521 0.20858892 0.41222166
v 0.00410293 0.20857914 0.41222572
v -0.00407176 0.20858403 0.41222166
f 1 2 5
f 1 5 9
f 1 9 14
f 1 14 23
f 1 23 28
f 1 28 27
f 1 27 68
f 1 68 110
f 1 110 151
f 1 151 150
f 1 150 123
f 1 123 121
f 1 121 69
f 1 69 29
f 1 29 16
f 1 16 11
f 1 11 7
f 1 7 3
f 1 3 4
f 1 4 2
f 2 4 6
f 2 6 5
f 3 7 8
f 3 8 4
f 4 8 13
f 4 13 22
f 4 22 21
f 4 21 54
f 4 54 91
f 4 91 141
f 4 141 145
f 4 145 96
f 4 96 55
f 4 55 24
f 4 24 15
f 4 15 10
f 4 10 6
f 5 6 10
f 5 10 9
f 7 11 8
f 8 12 13
f 8 11 12
f 9 10 14
f 10 15 14
f 11 16 17
f 11 17 18
f 11 18 19
f 11 19 20
f 11 20 21
f 11 21 22
f 11 22 12
f 12 22 13
f 14 15 23
f 15 24 25
f 15 25 26
f 15 26 27
f 15 27 28
f 15 28 23
f 16 29 30
f 16 30 31
f 16 31 32
f 16 32 33
f 16 33 34
f 16 34 35
f 16 35 36
f 16 36 37
f 16 37 38
f 16 38 39
f 16 39 40
f 16 40 41
f 16 41 42
f 16 42 43
f 16 43 44
f 16 44 17
f 17 44 45
f 17 45 18
f 18 45 46
f 18 46 19
f 19 46 20
f 20 46 47
f 20 47 48
f 20 48 86
f 20 86 49
f 20 49 21
f 21 49 50
f 21 50 51
f 21 51 52
f 21 52 53
f 21 53 54
f 24 55 56
f 24 56 25
f 25 56 57
f 25 57 58
f 25 58 26
f 26 59 27
f 26 58 60
f 26 60 61
f 26 61 62
f 26 62 63
f 26 63 64
f 26 64 65
f 26 65 66
f 26 66 67
f 26 67 59
f 27 59 68
f 29 69 70
f 29 70 30
f 30 70 71
f 30 71 31
f 31 71 72
f 31 72 32
f 32 72 73
f 32 73 33
f 33 73 74
f 33 74 34
f 34 74 35
f 35 75 36
f 35 74 75
f 36 75 76
f 36 76 37
f 37 76 77
f 37 77 38
f 38 77 39
f 39 77 78
f 39 78 40
f 40 78 41
f 41 78 79
f 41 79 42
f 42 79 80
f 42 80 81
f 42 81 82
f 42 82 43
f 43 82 45
f 43 45 44
f 45 82 83
f 45 83 46
f 46 83 84
f 46 84 47
f 47 84 48
f 48 85 86
f 48 84 85
f 49 86 50
f 50 86 87
f 50 87 51
f 51 87 88
f 51 88 52
f 52 88 89
f 52 89 53
f 53 90 54
f 53 89 90
f 54 90 89
f 54 89 92
f 54 92 93
f 54 93 94
f 54 94 95
f 54 95 91
f 55 96 97
f 55 97 56
f 56 97 98
f 56 98 99
f 56 99 100
f 56 100 57
f 57 100 101
f 57 101 102
f 57 102 103
f 57 103 58
f 58 103 60
f 59 67 104
f 59 104 105
f 59 105 106
f 59 106 107
f 59 107 108
f 59 108 109
f 59 109 110
f 59 110 68
f 60 103 111
f 60 111 61
f 61 111 62
f 62 111 112
f 62 112 113
f 62 113 63
f 63 113 64
f 64 113 65
f 65 113 114
f 65 114 115
f 65 115 116
f 65 116 117
f 65 117 66
f 66 118 119
f 66 119 67
f 66 117 118
f 67 119 120
f 67 120 104
f 69 121 70
f 70 122 71
f 70 121 123
f 70 123 122
f 71 124 72
f 71 122 124
f 72 125 126
f 72 126 73
f 72 124 125
f 73 126 127
f 73 127 74
f 74 127 128
f 74 128 75
f 75 128 76
f 76 128 129
f 76 129 77
f 77 129 130
f 77 130 120
f 77 120 78
f 78 120 119
f 78 119 79
f 79 119 131
f 79 131 80
f 80 131 132
f 80 132 81
f 81 132 82
f 82 133 83
f 82 132 133
f 83 116 84
f 83 133 116
f 84 116 115
f 84 115 85
f 85 114 134
f 85 134 86
f 85 115 114
f 86 134 135
f 86 135 87
f 87 135 88
f 88 135 136
f 88 136 89
f 89 136 142
f 89 142 92
f 91 95 137
f 91 137 138
f 91 138 139
f 91 139 140
f 91 140 141
f 92 142 143
f 92 143 93
f 93 143 94
f 94 143 144
f 94 144 95
f 95 144 137
f 96 145 146
f 96 146 97
f 97 146 147
f 97 147 98
f 98 147 148
f 98 148 99
f 99 148 149
f 99 149 100
f 100 149 101
f 101 149 144
f 101 144 102
f 102 144 103
f 103 144 143
f 103 143 142
f 103 142 111
f 104 120 130
f 104 130 129
f 104 129 105
f 105 129 128
f 105 128 106
f 106 127 107
f 106 128 127
f 107 127 108
f 108 127 126
f 108 126 109
f 109 126 125
f 109 125 124
f 109 124 122
f 109 122 150
f 109 150 151
f 109 151 110
f 111 136 112
f 111 142 136
f 112 136 135
f 112 135 113
f 113 135 134
f 113 134 114
f 116 133 117
f 117 133 152
f 117 152 118
f 118 153 132
f 118 132 131
f 118 131 119
f 118 152 154
f 118 154 153
f 122 123 150
f 132 153 133
f 133 155 154
f 133 154 152
f 133 153 155
f 137 144 149
f 137 149 138
f 138 149 148
f 138 148 139
f 139 148 147
f 139 147 140
f 140 147 146
f 140 146 141
f 141 146 145
f 153 154 155

