# https://github.com/mikedh/trimesh
v -0.14110043 0.19032808 0.19406926
v -0.13858513 0.18781647 0.19412468
v -0.14110043 0.18781647 0.19412468
v -0.14110043 0.19275690 0.19408774
v 0.13820622 0.19275535 0.19418011
v 0.13820622 0.18781804 0.19420783
v -0.00981319 0.18781647 0.19420783
v -0.14110043 0.18781647 0.28831509
v -0.14110043 0.19713504 0.19503001
v 0.13820622 0.19886879 0.19551037
v -0.14110043 0.19897501 0.19542724
v 0.13820622 0.18781804 0.28755757
v -0.00981319 0.18781647 0.28840746
v -0.10249619 0.18781647 0.28841670
v -0.14110043 0.18922066 0.28768690
v 0.13820622 0.20100241 0.19903006
v -0.14110043 0.20242690 0.20097002
v 0.13194532 0.18781804 0.28782548
v 0.13820622 0.18788052 0.28752063
v -0.04743319 0.18781647 0.28844442
v 0.12710613 0.18781804 0.28797330
v 0.12508296 0.18781804 0.28802872
v 0.11890407 0.18781804 0.28813957
v 0.11677156 0.18781804 0.28817653
v 0.11070204 0.18781804 0.28823195
v 0.10851484 0.18781804 0.28825043
v 0.10250001 0.18781804 0.28827813
v 0.10028547 0.18781804 0.28828737
v 0.08385405 0.18781804 0.28832433
v 0.06742264 0.18781804 0.28835205
v 0.05922061 0.18781804 0.28836129
v -0.08609212 0.18781647 0.28844442
v -0.14110043 0.19021249 0.28643054
v -0.00978585 0.18781804 0.28841670
v 0.02638513 0.18781804 0.28838901
v 0.07789391 0.18906135 0.28745595
v 0.13820622 0.20215824 0.20097002
v -0.14110043 0.20337969 0.20674376
v 0.13333967 0.18876301 0.28716958
v 0.13820622 0.18794612 0.28747443
v 0.12710613 0.18888328 0.28728044
v 0.11890407 0.18897231 0.28736357
v 0.11070204 0.18901605 0.28740977
v 0.10250001 0.18903947 0.28742825
v -0.06151335 0.19256947 0.28296630
v -0.07789008 0.19258196 0.28296630
v -0.09429415 0.19258977 0.28296630
v -0.10249619 0.19259290 0.28296630
v -0.14110043 0.19258822 0.28296630
v 0.10250001 0.19240234 0.28296630
v 0.06969187 0.19244452 0.28296630
v 0.04511311 0.19246950 0.28296630
v -0.00407176 0.19251636 0.28296630
v 0.13820622 0.20343436 0.20917335
v -0.14110043 0.20376081 0.20917335
v 0.13820622 0.18915975 0.28636588
v 0.13820622 0.19136834 0.28377002
v 0.12710613 0.19220085 0.28296630
v 0.11890407 0.19231331 0.28296630
v 0.11070204 0.19237266 0.28296630
v -0.14110043 0.19375030 0.28121109
v 0.11070204 0.19610884 0.27682305
v 0.10250001 0.19611509 0.27684153
v 0.11890407 0.19609477 0.27680457
v 0.06151717 0.19613383 0.27689695
v 0.02050700 0.19615257 0.27695239
v -0.07789008 0.19619944 0.27708170
v -0.10249619 0.19621193 0.27710942
v 0.13820622 0.20343904 0.22557998
v -0.14110043 0.20376862 0.21494708
v -0.14110043 0.20377330 0.22315041
v 0.13820622 0.19594327 0.27673992
v 0.12710613 0.19607134 0.27676761
v -0.11072555 0.19621349 0.27711866
v -0.14110043 0.19612133 0.27723876
v 0.13820622 0.19759737 0.27264749
v -0.14110043 0.19782542 0.27313710
v 0.13820622 0.19658679 0.27530801
v 0.13820622 0.20334064 0.23091031
v -0.14110043 0.20377330 0.22557077
v -0.11892759 0.19620725 0.27711866
v 0.13820622 0.19810500 0.27048579
v -0.14110043 0.19940142 0.26655967
v 0.13820622 0.20328285 0.23377407
v -0.14110043 0.20361866 0.23377407
v 0.13820622 0.19899374 0.26656891
f 1 2 3
f 1 3 8
f 1 8 15
f 1 15 33
f 1 33 49
f 1 49 61
f 1 61 75
f 1 75 77
f 1 77 83
f 1 83 85
f 1 85 80
f 1 80 71
f 1 71 70
f 1 70 55
f 1 55 38
f 1 38 17
f 1 17 11
f 1 11 9
f 1 9 4
f 1 4 5
f 1 5 6
f 1 6 2
f 2 6 7
f 2 7 13
f 2 13 20
f 2 20 32
f 2 32 14
f 2 14 8
f 2 8 3
f 4 9 5
f 5 10 16
f 5 16 37
f 5 37 54
f 5 54 69
f 5 69 79
f 5 79 84
f 5 84 86
f 5 86 82
f 5 82 76
f 5 76 78
f 5 78 72
f 5 72 57
f 5 57 56
f 5 56 40
f 5 40 19
f 5 19 12
f 5 12 6
f 5 9 11
f 5 11 10
f 6 12 13
f 6 13 7
f 8 14 15
f 10 11 17
f 10 17 16
f 12 18 13
f 12 19 18
f 13 18 21
f 13 21 22
f 13 22 23
f 13 23 24
f 13 24 25
f 13 25 26
f 13 26 27
f 13 27 28
f 13 28 29
f 13 29 30
f 13 30 31
f 13 31 20
f 14 32 15
f 15 32 20
f 15 20 34
f 15 34 35
f 15 35 31
f 15 31 30
f 15 30 36
f 15 36 33
f 16 17 37
f 17 38 37
f 18 39 21
f 18 19 39
f 19 40 39
f 20 31 35
f 20 35 34
f 21 39 41
f 21 41 22
f 22 41 23
f 23 42 24
f 23 41 42
f 24 43 25
f 24 42 43
f 25 43 26
f 26 43 27
f 27 43 44
f 27 44 28
f 28 44 29
f 29 44 36
f 29 36 30
f 33 45 46
f 33 46 47
f 33 47 48
f 33 48 49
f 33 36 50
f 33 50 51
f 33 51 52
f 33 52 53
f 33 53 45
f 36 44 50
f 37 38 55
f 37 55 54
f 39 40 56
f 39 56 57
f 39 57 41
f 41 58 42
f 41 57 58
f 42 58 59
f 42 59 43
f 43 60 44
f 43 59 60
f 44 60 50
f 45 61 46
f 45 53 61
f 46 61 47
f 47 61 48
f 48 61 49
f 50 62 63
f 50 63 51
f 50 60 64
f 50 64 62
f 51 63 65
f 51 65 66
f 51 66 67
f 51 67 68
f 51 68 61
f 51 61 52
f 52 61 53
f 54 55 70
f 54 70 71
f 54 71 69
f 57 72 58
f 58 72 59
f 59 72 73
f 59 73 60
f 60 73 64
f 61 68 74
f 61 74 75
f 62 64 76
f 62 76 63
f 63 76 77
f 63 77 67
f 63 67 65
f 64 73 78
f 64 78 76
f 65 67 66
f 67 77 68
f 68 77 74
f 69 71 80
f 69 80 79
f 72 78 73
f 74 77 81
f 74 81 75
f 75 81 77
f 76 82 83
f 76 83 77
f 79 80 85
f 79 85 84
f 82 86 83
f 83 86 84
f 83 84 85

