# https://github.com/mikedh/trimesh
v -0.21407524 0.00739291 0.38144580
v -0.23046855 0.00739291 0.38144580
v -0.21736805 0.00408213 0.38093646
v -0.21736805 -0.12834932 0.36047178
v -0.20586976 0.00739291 0.38143560
v -0.23375547 0.00739291 0.38143560
v -0.23375547 0.00408213 0.38092627
v -0.22555585 0.00408213 0.38093646
v -0.22183306 -0.12385907 0.36101166
v -0.21736805 -0.13530198 0.35924939
v -0.20916254 -0.13530198 0.35923920
v -0.20916254 -0.12830793 0.36046158
v -0.20096295 0.00408213 0.38091610
v -0.23375547 -0.02180408 0.37685167
v -0.23375547 -0.07794260 0.36800979
v -0.23375547 -0.08615749 0.36670591
v -0.20096295 0.00739291 0.38142543
v -0.23812622 0.00739291 0.38034566
v -0.23925721 -0.01230626 0.37780922
v -0.23827937 -0.01723106 0.37742211
v -0.23375547 -0.09433099 0.36532055
v -0.21736805 -0.14353755 0.35761956
v -0.20096295 -0.13530198 0.35899472
v -0.20096295 -0.12801824 0.36032917
v -0.20916254 -0.14353755 0.35758900
v -0.20096295 -0.14353755 0.35740564
v -0.20096295 -0.12394184 0.36102186
v -0.19645083 -0.01729314 0.37743230
v -0.19675124 -0.12348660 0.36096072
v -0.23928075 -0.06734808 0.36936460
v -0.19542587 -0.01230626 0.37781939
v -0.19401804 -0.00411207 0.37846114
v -0.19239815 0.00739291 0.37918438
v -0.24116573 0.00739291 0.37935755
v -0.24105969 0.00408213 0.37910289
v -0.24044119 -0.00411207 0.37845097
v -0.24604308 -0.05733295 0.36904882
v -0.24095957 -0.06153352 0.36982298
v -0.24196684 -0.09433099 0.36394538
v -0.24196684 -0.08615749 0.36552429
v -0.22304650 -0.15762909 0.35326993
v -0.21736805 -0.15173175 0.35559243
v -0.20916254 -0.15173175 0.35555170
v -0.20096295 -0.15173175 0.35539890
v -0.19627410 -0.15721524 0.35314768
v -0.19542587 -0.15173175 0.35397279
v -0.19469545 -0.14353755 0.35495070
v -0.18867534 0.00739291 0.37714708
v -0.18921727 0.00739291 0.37756472
v -0.19052496 0.00621345 0.37809444
v -0.19220376 0.00474428 0.37875655
v -0.24340412 0.00739291 0.37582283
v -0.24633170 -0.04512443 0.36946646
v -0.24621390 -0.05187015 0.36928310
v -0.24721528 -0.08615749 0.36263130
v -0.24674403 -0.09433099 0.36178583
v -0.24616677 -0.09851086 0.36101166
v -0.22952605 -0.17128608 0.34368442
v -0.22405966 -0.17436925 0.34567077
v -0.21736805 -0.16814084 0.34987780
v -0.21736805 -0.16259527 0.35223090
v -0.21736805 -0.15849816 0.35354495
v -0.20916254 -0.15841539 0.35351440
v -0.20096295 -0.15814639 0.35344309
v -0.20096295 -0.16222280 0.35198640
v -0.20096295 -0.16814084 0.34941941
v -0.19592657 -0.17391401 0.34542630
v -0.19506655 -0.16814084 0.34679130
v -0.19305200 -0.15173175 0.34858413
v -0.19220965 -0.14353755 0.34858413
v -0.18861054 0.00739291 0.37659703
v -0.24485318 0.00739291 0.37319473
v -0.24634937 -0.03693024 0.36956832
v -0.24825201 -0.08615749 0.35678426
v -0.24705624 -0.09459999 0.35731395
v -0.22999730 -0.19731714 0.30760381
v -0.22977346 -0.19698606 0.31217755
v -0.22992074 -0.18912294 0.32881211
v -0.22988539 -0.18109428 0.33684926
v -0.22629807 -0.17679026 0.34249259
v -0.22555585 -0.18279107 0.33848929
v -0.21736805 -0.17948028 0.34389833
v -0.21736805 -0.17536249 0.34624122
v -0.20916254 -0.16814084 0.34979632
v -0.20916254 -0.16251250 0.35220032
v -0.20096295 -0.17499002 0.34602730
v -0.20096295 -0.17908712 0.34355200
v -0.19557903 -0.18241860 0.33824481
v -0.19466600 -0.17652126 0.34074051
v -0.19281637 -0.16814084 0.34038398
v -0.19187978 -0.13530198 0.34858413
v -0.19220965 -0.15992595 0.34038398
v -0.18865767 -0.00810570 0.36888582
v -0.18842204 0.00739291 0.37296042
v -0.24445263 0.00739291 0.36828482
v -0.24502400 -0.00411207 0.36498441
v -0.24559540 -0.01230626 0.36498441
v -0.24614910 -0.02228001 0.36691985
v -0.24614910 -0.02228001 0.36930348
v -0.24625514 -0.02871535 0.36949701
v -0.24794572 -0.07794260 0.35678426
v -0.24655554 -0.06153352 0.35195585
v -0.24709748 -0.08615749 0.34982688
v -0.23068650 -0.19274410 0.27739061
v -0.23043320 -0.19669636 0.27739061
v -0.23030951 -0.19845521 0.27739061
v -0.23030951 -0.19822761 0.28299321
v -0.23028595 -0.19795859 0.29119334
v -0.23022114 -0.19771028 0.29939347
v -0.22555585 -0.20209708 0.27739061
v -0.22555585 -0.20013131 0.29939347
v -0.22555585 -0.19913807 0.30760381
v -0.22486077 -0.19754475 0.31526405
v -0.22166224 -0.19688259 0.32003134
v -0.22555585 -0.19034380 0.33045213
v -0.22555585 -0.18690885 0.33455729
v -0.21736805 -0.18411537 0.33980334
v -0.20916254 -0.17935612 0.34382703
v -0.20916254 -0.17523833 0.34618011
v -0.20916254 -0.18399122 0.33972187
v -0.20096295 -0.18368083 0.33945701
v -0.20096295 -0.18777792 0.33527035
v -0.19576752 -0.18992995 0.32995300
v -0.19460709 -0.18490169 0.33248944
v -0.19263377 -0.17633503 0.33218385
v -0.19053085 -0.19872423 0.28181158
v -0.19053085 -0.19721367 0.28294227
v -0.18819231 0.00739291 0.36499458
v -0.24361618 0.00739291 0.36498441
v -0.24411688 0.00408213 0.36498441
v -0.24602541 -0.04932499 0.35278096
v -0.24603719 -0.02521833 0.36144969
v -0.24594293 -0.01992107 0.36450563
v -0.24759227 -0.06972771 0.35678426
v -0.24631403 -0.05480848 0.35235312
v -0.22976757 -0.17881811 0.27739061
v -0.21736805 -0.20400078 0.27739061
v -0.21736805 -0.20338001 0.28299321
v -0.21736805 -0.20155908 0.29939347
v -0.21736805 -0.20035892 0.30760381
v -0.22016605 -0.19688259 0.32003134
v -0.21741518 -0.19562035 0.32326048
v -0.21736805 -0.19125427 0.33167452
v -0.21741518 -0.19797930 0.31653738
v -0.21736805 -0.18821248 0.33577968
v -0.20916254 -0.18808832 0.33562688
v -0.20096295 -0.19081971 0.33116519
v -0.20096295 -0.19437881 0.32400409
v -0.19631534 -0.19733783 0.31325733
v -0.19509012 -0.19121288 0.32400409
v -0.19296953 -0.18454992 0.32400409
v -0.19053085 -0.20021406 0.27739061
v -0.18808040 0.00739291 0.35679445
v -0.24138368 0.00739291 0.36177564
v -0.22949662 -0.17472102 0.27739061
v -0.24722117 -0.06153352 0.35678426
v -0.20916254 -0.20371109 0.27739061
v -0.20916254 -0.20309032 0.28299321
v -0.20916254 -0.20126938 0.29939347
v -0.20916254 -0.20006923 0.30760381
v -0.20916254 -0.19808275 0.31538630
v -0.21470552 -0.19679982 0.31975632
v -0.20916254 -0.19506166 0.32400409
v -0.20916254 -0.19113011 0.33152172
v -0.20096295 -0.19781376 0.31461213
v -0.20096295 -0.19946915 0.30760381
v -0.20096295 -0.20056585 0.29939347
v -0.19576163 -0.19791721 0.30760381
v -0.19053085 -0.09714516 0.27739061
v -0.20096295 -0.20304894 0.27739061
v -0.18834547 0.00739291 0.35196604
v -0.23993460 0.00739291 0.35988097
v -0.22864250 -0.17261040 0.27739061
v -0.20916254 -0.19669636 0.31948126
v -0.20096295 0.00739291 0.34559947
v -0.19276335 0.00739291 0.34841094
v -0.22346472 0.00739291 0.34964352
v -0.21977136 0.00739291 0.34737194
v -0.21736805 0.00739291 0.34609861
v -0.20916254 0.00739291 0.34559947
f 1 2 8
f 1 8 3
f 1 3 4
f 1 4 5
f 1 5 17
f 1 17 33
f 1 33 49
f 1 49 48
f 1 48 71
f 1 71 94
f 1 94 128
f 1 128 153
f 1 153 171
f 1 171 176
f 1 176 175
f 1 175 180
f 1 180 179
f 1 179 178
f 1 178 177
f 1 177 172
f 1 172 154
f 1 154 129
f 1 129 95
f 1 95 72
f 1 72 52
f 1 52 34
f 1 34 18
f 1 18 6
f 1 6 2
f 2 6 7
f 2 7 4
f 2 4 8
f 3 8 4
f 4 9 10
f 4 10 11
f 4 11 12
f 4 12 13
f 4 13 5
f 4 7 14
f 4 14 15
f 4 15 16
f 4 16 9
f 5 13 17
f 6 18 19
f 6 19 20
f 6 20 7
f 7 20 14
f 9 16 21
f 9 21 22
f 9 22 10
f 10 22 11
f 11 23 24
f 11 24 12
f 11 22 25
f 11 25 26
f 11 26 23
f 12 24 27
f 12 27 13
f 13 28 17
f 13 27 29
f 13 29 28
f 14 20 15
f 15 20 16
f 16 20 30
f 16 30 21
f 17 28 31
f 17 31 32
f 17 32 33
f 18 34 35
f 18 35 36
f 18 36 19
f 19 36 37
f 19 37 20
f 20 37 38
f 20 38 30
f 21 39 22
f 21 30 40
f 21 40 39
f 22 39 41
f 22 41 42
f 22 42 25
f 23 26 29
f 23 29 24
f 24 29 27
f 25 42 43
f 25 43 44
f 25 44 26
f 26 44 45
f 26 45 29
f 28 29 31
f 29 45 46
f 29 46 47
f 29 47 48
f 29 48 49
f 29 49 32
f 29 32 31
f 30 38 37
f 30 37 40
f 32 49 50
f 32 50 51
f 32 51 33
f 33 51 50
f 33 50 49
f 34 52 53
f 34 53 54
f 34 54 37
f 34 37 35
f 35 37 36
f 37 54 55
f 37 55 56
f 37 56 40
f 39 56 57
f 39 57 41
f 39 40 56
f 41 58 59
f 41 59 60
f 41 60 61
f 41 61 62
f 41 62 42
f 41 57 58
f 42 62 43
f 43 62 63
f 43 63 44
f 44 63 64
f 44 64 45
f 45 64 65
f 45 65 66
f 45 66 67
f 45 67 68
f 45 68 46
f 46 69 47
f 46 68 69
f 47 69 70
f 47 70 48
f 48 70 71
f 52 72 53
f 53 73 74
f 53 74 55
f 53 55 54
f 53 72 73
f 55 74 56
f 56 75 57
f 56 74 75
f 57 75 76
f 57 76 77
f 57 77 78
f 57 78 79
f 57 79 58
f 58 80 59
f 58 79 80
f 59 80 81
f 59 81 82
f 59 82 83
f 59 83 60
f 60 84 85
f 60 85 61
f 60 83 84
f 61 85 63
f 61 63 62
f 63 85 64
f 64 85 65
f 65 85 84
f 65 84 66
f 66 84 86
f 66 86 67
f 67 86 87
f 67 87 88
f 67 88 89
f 67 89 68
f 68 89 90
f 68 90 69
f 69 90 70
f 70 91 71
f 70 90 92
f 70 92 91
f 71 93 94
f 71 91 92
f 71 92 93
f 72 95 96
f 72 96 97
f 72 97 98
f 72 98 99
f 72 99 100
f 72 100 73
f 73 100 74
f 74 100 99
f 74 99 98
f 74 98 101
f 74 101 102
f 74 102 103
f 74 103 104
f 74 104 105
f 74 105 106
f 74 106 75
f 75 106 107
f 75 107 108
f 75 108 109
f 75 109 76
f 76 109 110
f 76 110 111
f 76 111 77
f 77 111 112
f 77 112 113
f 77 113 114
f 77 114 115
f 77 115 78
f 78 115 116
f 78 116 79
f 79 116 81
f 79 81 80
f 81 117 82
f 81 116 117
f 82 117 118
f 82 118 119
f 82 119 83
f 83 119 84
f 84 119 86
f 86 119 118
f 86 118 87
f 87 118 120
f 87 120 121
f 87 121 88
f 88 121 122
f 88 122 123
f 88 123 124
f 88 124 89
f 89 125 90
f 89 124 125
f 90 125 92
f 92 125 126
f 92 126 127
f 92 127 93
f 93 128 94
f 93 127 126
f 93 126 128
f 95 129 130
f 95 130 96
f 96 130 131
f 96 131 132
f 96 132 97
f 97 132 133
f 97 133 98
f 98 133 132
f 98 132 101
f 101 134 102
f 101 132 134
f 102 134 135
f 102 135 104
f 102 104 103
f 104 135 136
f 104 136 155
f 104 155 173
f 104 173 169
f 104 169 152
f 104 152 170
f 104 170 157
f 104 157 137
f 104 137 110
f 104 110 106
f 104 106 105
f 106 110 109
f 106 109 108
f 106 108 107
f 110 137 111
f 111 137 138
f 111 138 139
f 111 139 112
f 112 139 140
f 112 140 113
f 113 140 114
f 114 141 142
f 114 142 143
f 114 143 115
f 114 140 144
f 114 144 141
f 115 143 145
f 115 145 116
f 116 145 117
f 117 120 118
f 117 145 120
f 120 145 146
f 120 146 121
f 121 146 122
f 122 146 164
f 122 164 147
f 122 147 123
f 123 147 148
f 123 148 149
f 123 149 150
f 123 150 124
f 124 151 125
f 124 150 151
f 125 151 126
f 126 151 150
f 126 150 149
f 126 149 152
f 126 152 153
f 126 153 128
f 129 154 155
f 129 155 130
f 130 155 131
f 131 135 132
f 131 155 135
f 132 135 156
f 132 156 134
f 134 156 135
f 135 155 136
f 137 157 158
f 137 158 138
f 138 158 159
f 138 159 139
f 139 159 160
f 139 160 140
f 140 160 161
f 140 161 144
f 141 162 142
f 141 144 162
f 142 162 163
f 142 163 143
f 143 163 164
f 143 164 146
f 143 146 145
f 144 161 162
f 147 164 163
f 147 163 148
f 148 163 165
f 148 165 149
f 149 165 166
f 149 166 167
f 149 167 168
f 149 168 152
f 152 169 153
f 152 168 167
f 152 167 170
f 153 169 171
f 154 172 155
f 155 172 173
f 157 170 158
f 158 170 159
f 159 170 167
f 159 167 166
f 159 166 160
f 160 166 165
f 160 165 161
f 161 165 174
f 161 174 162
f 162 174 163
f 163 174 165
f 169 175 176
f 169 176 171
f 169 173 172
f 169 172 177
f 169 177 178
f 169 178 179
f 169 179 180
f 169 180 175

