# https://github.com/mikedh/trimesh
v -0.14111983 0.20095719 0.41347285
v -0.14111983 0.20296731 0.41306784
v -0.14354499 0.20095719 0.41339188
v -0.18455003 0.19275438 0.41201486
v -0.17634378 0.19275438 0.41209582
v -0.15995094 0.19275438 0.41201486
v -0.14111983 0.19518276 0.41233880
v -0.14111983 0.20741829 0.41209582
v -0.14354499 0.20728095 0.41201486
v -0.15174469 0.20095719 0.41298688
v -0.18455003 0.19872233 0.41136678
v -0.19053431 0.19784836 0.41088082
v -0.19306434 0.19284802 0.41104284
v -0.19704949 0.18781647 0.41063774
v -0.19010826 0.18781647 0.41112380
v -0.18203966 0.18781647 0.41112380
v -0.14111983 0.19275438 0.41185284
v -0.16815064 0.18781647 0.41104284
v -0.15787316 0.18781647 0.41096178
v -0.14111983 0.20832348 0.41023274
v -0.15174469 0.20656306 0.41160976
v -0.15995094 0.20578897 0.41088082
v -0.16521421 0.20528333 0.41031380
v -0.18455003 0.20144411 0.40593967
v -0.19306434 0.19841644 0.40545366
v -0.19600732 0.19563848 0.40780271
v -0.19810477 0.19016994 0.41047582
v -0.19810477 0.18781647 0.41047582
v -0.14111983 0.18928349 0.41112380
v -0.14111983 0.18781647 0.41079976
v -0.14111983 0.21008389 0.40593967
v -0.14354499 0.20978425 0.40593967
v -0.15174469 0.20831098 0.40593967
v -0.15995094 0.21138861 0.37313383
v -0.16815064 0.20981546 0.37313383
v -0.17634378 0.20798638 0.37313383
v -0.18493019 0.20593256 0.37297184
v -0.18791249 0.20480888 0.37556389
v -0.18883013 0.20517719 0.37005577
v -0.19695772 0.19694318 0.40237557
v -0.20536062 0.18900257 0.40278060
v -0.19917971 0.18781647 0.40982776
v -0.20578009 0.18781647 0.40318560
v -0.14111983 0.18781647 0.19403832
v -0.15723738 0.21331757 0.34559314
v -0.15995094 0.21201911 0.36495263
v -0.14111983 0.21019626 0.40350961
v -0.17202436 0.24617247 -0.26030214
v -0.16382466 0.22979184 0.05997993
v -0.16349038 0.22160152 0.20732266
v -0.16479473 0.22160152 0.20732266
v -0.16462431 0.21339249 0.33822196
v -0.16815064 0.21062077 0.36495263
v -0.17634378 0.20878543 0.36495263
v -0.18455003 0.20680027 0.36495263
v -0.18917096 0.20539570 0.36495263
v -0.18455003 0.20744327 0.35677142
v -0.18455003 0.20806754 0.34859022
v -0.18877114 0.21331134 0.25503285
v -0.18966256 0.20572656 0.35677142
v -0.19695772 0.21337374 0.19841242
v -0.20553103 0.18919609 0.39775846
v -0.20652732 0.18781647 0.39775846
v -0.20629791 0.18781647 0.40140355
v -0.20513121 0.22975439 -0.12972686
v -0.14111983 0.19275438 0.19403832
v -0.17624546 0.18781647 0.17394981
v -0.18025027 0.18862177 0.14689513
v -0.18829921 0.21316775 -0.32980190
v -0.18455003 0.21811190 -0.39776262
v -0.18455003 0.21867998 -0.40594383
v -0.17752359 0.22062769 -0.40594383
v -0.17271258 0.22162027 -0.39970666
v -0.17218822 0.22142674 -0.39419852
v -0.16401474 0.22141425 -0.32056766
v -0.16666276 0.23376214 -0.39776262
v -0.16624328 0.23376214 -0.38958141
v -0.16270384 0.21321146 0.34364909
v -0.14111983 0.21040852 0.39775846
v -0.17138857 0.24651582 -0.27472051
v -0.17172284 0.24632229 -0.26653930
v -0.17634378 0.25152864 -0.38958141
v -0.17634378 0.25038624 -0.35677558
v -0.17634378 0.25006787 -0.34859437
v -0.17292233 0.24617247 -0.26030214
v -0.16529287 0.22979184 0.05997993
v -0.16815064 0.21620166 0.28297857
v -0.16815064 0.22667677 0.11068721
v -0.16815064 0.22621481 0.11886842
v -0.16815064 0.22574662 0.12713062
v -0.16815064 0.22527843 0.13531183
v -0.16815064 0.22385511 0.15993646
v -0.16815064 0.22338068 0.16811767
v -0.16815064 0.22288751 0.17629887
v -0.17203746 0.22142048 0.18796317
v -0.16674142 0.21386692 0.32396559
v -0.17171629 0.21314279 0.31805244
v -0.16961884 0.21266834 0.33214679
v -0.17634378 0.21058956 0.34032800
v -0.16767216 0.21253101 0.34073303
v -0.16815064 0.21188802 0.34859022
v -0.16815064 0.21127624 0.35677142
v -0.16815064 0.21516538 0.29934098
v -0.16815064 0.21463475 0.30752219
v -0.17634378 0.20942843 0.35677142
v -0.19699051 0.22155784 0.08363253
v -0.17634378 0.21002772 0.34859022
v -0.18455003 0.21036481 0.31578438
v -0.18809602 0.21313030 0.26045998
v -0.18455003 0.21933546 0.17629887
v -0.18810913 0.22133935 0.12915568
v -0.18879736 0.22150164 0.12364753
v -0.20654042 0.18781647 0.39532841
v -0.20666497 0.23929312 -0.29116393
v -0.20688781 0.23952410 -0.29934514
v -0.20709757 0.23976131 -0.30752634
v -0.20728765 0.23999852 -0.31578856
v -0.20746461 0.24022950 -0.32396977
v -0.20762849 0.24047297 -0.33215097
v -0.20777269 0.24070395 -0.34033218
v -0.20785788 0.24090994 -0.34859437
v -0.20515086 0.23793846 -0.24474976
v -0.20534094 0.23809454 -0.25009590
v -0.20562934 0.23833799 -0.25835810
v -0.20590464 0.23857520 -0.26653930
v -0.20617336 0.23881243 -0.27472051
v -0.20642245 0.23904965 -0.28290172
v -0.14111983 0.19897828 0.19533435
v -0.17818559 0.18781647 0.17322080
v -0.18050589 0.18862177 0.14689513
v -0.18890223 0.21316775 -0.32980190
v -0.19274973 0.21869247 -0.39776262
v -0.19338552 0.21977870 -0.40594383
v -0.19107833 0.22027184 -0.41128993
v -0.18455003 0.22022190 -0.41137098
v -0.17882139 0.22099600 -0.41064194
v -0.17342702 0.22198858 -0.40594383
v -0.16955986 0.22608997 -0.40594383
v -0.16962541 0.22483520 -0.39727661
v -0.16767871 0.23376214 -0.40594383
v -0.16942877 0.24196496 -0.40594383
v -0.16845869 0.24196496 -0.39776262
v -0.16799989 0.24196496 -0.38958141
v -0.14111983 0.20376637 0.20910471
v -0.14111983 0.20338557 0.20667463
v -0.14111983 0.20243045 0.20092349
v -0.14111983 0.21067071 0.38957726
v -0.17054959 0.24727742 -0.30752634
v -0.17070689 0.24709015 -0.29934514
v -0.17089043 0.24689662 -0.29116393
v -0.17111328 0.24670935 -0.28290172
v -0.17032018 0.24765822 -0.32396977
v -0.17023498 0.24784549 -0.33215097
v -0.17015632 0.24803276 -0.34033218
v -0.17011699 0.24819508 -0.34859437
v -0.17015632 0.24828873 -0.35677558
v -0.17634378 0.25159107 -0.39776262
v -0.18455003 0.25154113 -0.39776262
v -0.17634378 0.24968083 -0.34033218
v -0.18455003 0.25112288 -0.38958141
v -0.18025683 0.24603514 -0.27933764
v -0.17288956 0.23799463 -0.10404921
v -0.17226032 0.22966075 0.04920666
v -0.17284367 0.22159529 0.18253602
v -0.17325004 0.21349238 0.30752219
v -0.18455003 0.21092042 0.30752219
v -0.17442331 0.21376080 0.29934098
v -0.19342484 0.22244428 0.08622460
v -0.19684631 0.22966075 -0.04921082
v -0.18455003 0.21565855 0.23372931
v -0.18455003 0.21776232 0.20092349
v -0.18455003 0.21828671 0.19274228
v -0.17371542 0.22178881 0.17629887
v -0.17481658 0.22204475 0.16811767
v -0.17891971 0.22111460 0.16811767
v -0.18455003 0.21983487 0.16811767
v -0.18623454 0.22091484 0.14349304
v -0.18455003 0.22421095 0.09432480
v -0.18455003 0.22761318 0.03689435
v -0.18526447 0.22889914 0.01226973
v -0.19274973 0.22711377 0.01226973
v -0.19274973 0.22662683 0.02045093
v -0.20656665 0.18781647 0.38957726
v -0.20566212 0.24643466 -0.39776262
v -0.20576699 0.24654080 -0.40594383
v -0.20799552 0.24196496 -0.38958141
v -0.20803486 0.24196496 -0.39776262
v -0.20512466 0.24610380 -0.38480229
v -0.20535407 0.24623490 -0.38958141
v -0.18131866 0.18781647 0.17670387
v -0.18158739 0.18781647 0.17759490
v -0.20620614 0.18781647 0.38139605
v -0.18877114 0.20497119 -0.15791557
v -0.18928239 0.21301169 -0.32396977
v -0.19274973 0.21814935 -0.38958141
v -0.19729201 0.22094606 -0.39776262
v -0.19701672 0.22126442 -0.40318975
v -0.19654479 0.22175760 -0.40869790
v -0.19338552 0.22492261 -0.41226195
v -0.18455003 0.22555935 -0.41339599
v -0.19850459 0.22722612 -0.41120896
v -0.17619303 0.22506618 -0.41193801
v -0.17070689 0.22746959 -0.41128993
v -0.17030708 0.23376214 -0.41177599
v -0.17113949 0.24196496 -0.41120896
v -0.17181461 0.24695905 -0.41056098
v -0.17130991 0.24781428 -0.40594383
v -0.17081833 0.24840110 -0.39776262
v -0.17056269 0.24853843 -0.38958141
v -0.16739687 0.24196496 -0.36495678
v -0.16720679 0.24196496 -0.35677558
v -0.17024808 0.24834490 -0.36495678
v -0.17042506 0.24746469 -0.31578856
v -0.17634378 0.25093558 -0.40594383
v -0.18455003 0.25150991 -0.40594383
v -0.19274973 0.24987434 -0.40594383
v -0.19274973 0.24971828 -0.39776262
v -0.19274973 0.24929377 -0.38958141
v -0.18455003 0.25023641 -0.37313799
v -0.18099093 0.24619119 -0.28484576
v -0.17634378 0.23316911 -0.02863630
v -0.17634378 0.23136499 0.00408852
v -0.17279779 0.22978561 0.04507556
v -0.17967347 0.21308659 0.29115978
v -0.18627387 0.22912389 0.00408852
v -0.18806326 0.22952965 -0.01057285
v -0.18872526 0.22967947 -0.01599999
v -0.19274973 0.23127134 -0.06144213
v -0.19675454 0.23783858 -0.19720156
v -0.17387273 0.23002905 0.03689435
v -0.17987011 0.22952965 0.02239498
v -0.18380937 0.22878054 0.01996492
v -0.18455003 0.22810009 0.02863214
v -0.18058456 0.22969196 0.01688685
v -0.18116791 0.22982306 0.01226973
v -0.18217074 0.23005404 0.00408852
v -0.20646834 0.18781647 0.38714720
v -0.20805451 0.23376214 -0.34033218
v -0.20807419 0.23376214 -0.34859437
v -0.20801520 0.23376214 -0.35677558
v -0.20769402 0.23419914 -0.38958141
v -0.20095599 0.24780804 -0.39776262
v -0.20095599 0.24803276 -0.40594383
v -0.20757605 0.24196496 -0.40594383
v -0.20552447 0.24639721 -0.41047992
v -0.20742528 0.23456119 -0.39776262
v -0.19980239 0.24677801 -0.37313799
v -0.20150001 0.24683419 -0.38180521
v -0.20095599 0.24738979 -0.38958141
v -0.19754764 0.22064641 -0.38958141
v -0.19009516 0.21257469 -0.30752634
v -0.18972811 0.21279318 -0.31578856
v -0.20081179 0.22555935 -0.39776262
v -0.20131648 0.22555935 -0.38958141
v -0.20446921 0.23045980 -0.39776262
v -0.20686160 0.23529784 -0.40594383
v -0.20603574 0.23646520 -0.41096598
v -0.19274973 0.23376214 -0.41388205
v -0.20112639 0.23374342 -0.41210003
v -0.18455003 0.23376214 -0.41404407
v -0.17634378 0.23376214 -0.41372003
v -0.17634378 0.24196496 -0.41315301
v -0.17634378 0.24822006 -0.41145195
v -0.18455003 0.24867576 -0.41201897
v -0.19274973 0.24794537 -0.41185695
v -0.20095599 0.24707140 -0.41112800
v -0.19887821 0.24655327 -0.36495678
v -0.19794746 0.24632855 -0.35677558
v -0.19727234 0.24616623 -0.35086243
v -0.19663001 0.24601641 -0.34535429
v -0.19274973 0.24795787 -0.36495678
v -0.18455003 0.24979320 -0.36495678
v -0.18455003 0.24844478 -0.34033218
v -0.19619741 0.23771997 -0.19274645
v -0.18317359 0.23027876 -0.00409268
v -0.18378316 0.24681546 -0.30752634
v -0.19191731 0.24679674 -0.34033218
v -0.19601387 0.24587908 -0.34033218
v -0.17634378 0.23090926 0.01226973
v -0.19274973 0.23217653 -0.07788555
v -0.17494111 0.23027253 0.02863214
v -0.17682226 0.23035992 0.01996492
v -0.20472482 0.23009772 -0.38958141
v -0.20614716 0.24196496 -0.41104694
v -0.20095599 0.24196496 -0.41282897
v -0.19274973 0.24196496 -0.41380099
v -0.18455003 0.24196496 -0.41396301
f 1 2 3
f 1 3 4
f 1 4 5
f 1 5 6
f 1 6 7
f 1 7 17
f 1 17 29
f 1 29 30
f 1 30 44
f 1 44 66
f 1 66 128
f 1 128 146
f 1 146 145
f 1 145 144
f 1 144 147
f 1 147 79
f 1 79 47
f 1 47 31
f 1 31 20
f 1 20 8
f 1 8 2
f 2 8 9
f 2 9 3
f 3 9 10
f 3 10 4
f 4 10 11
f 4 11 12
f 4 12 13
f 4 13 14
f 4 14 15
f 4 15 5
f 5 15 16
f 5 16 6
f 6 17 7
f 6 16 18
f 6 18 19
f 6 19 17
f 8 20 9
f 9 21 11
f 9 11 10
f 9 20 21
f 11 21 22
f 11 22 23
f 11 23 12
f 12 23 24
f 12 24 25
f 12 25 26
f 12 26 27
f 12 27 13
f 13 27 14
f 14 27 28
f 14 28 42
f 14 42 43
f 14 43 64
f 14 64 63
f 14 63 113
f 14 113 183
f 14 183 237
f 14 237 192
f 14 192 191
f 14 191 190
f 14 190 129
f 14 129 67
f 14 67 44
f 14 44 30
f 14 30 19
f 14 19 18
f 14 18 16
f 14 16 15
f 17 19 29
f 19 30 29
f 20 31 21
f 21 31 32
f 21 32 22
f 22 32 23
f 23 32 33
f 23 33 34
f 23 34 35
f 23 35 36
f 23 36 24
f 24 36 37
f 24 37 38
f 24 38 25
f 25 38 39
f 25 39 40
f 25 40 26
f 26 40 41
f 26 41 27
f 27 42 28
f 27 41 43
f 27 43 42
f 31 45 46
f 31 46 34
f 31 34 32
f 31 47 48
f 31 48 49
f 31 49 50
f 31 50 51
f 31 51 45
f 32 34 33
f 34 46 52
f 34 52 53
f 34 53 35
f 35 53 36
f 36 53 54
f 36 54 37
f 37 54 55
f 37 55 39
f 37 39 38
f 39 56 40
f 39 55 57
f 39 57 58
f 39 58 59
f 39 59 56
f 40 56 60
f 40 60 61
f 40 61 41
f 41 62 63
f 41 63 64
f 41 64 43
f 41 61 65
f 41 65 62
f 44 67 68
f 44 68 69
f 44 69 70
f 44 70 71
f 44 71 72
f 44 72 73
f 44 73 74
f 44 74 75
f 44 75 76
f 44 76 77
f 44 77 66
f 45 51 46
f 46 51 78
f 46 78 52
f 47 79 80
f 47 80 81
f 47 81 48
f 48 81 82
f 48 82 83
f 48 83 84
f 48 84 85
f 48 85 86
f 48 86 49
f 49 86 51
f 49 51 50
f 51 87 52
f 51 52 78
f 51 86 88
f 51 88 89
f 51 89 90
f 51 90 91
f 51 91 92
f 51 92 93
f 51 93 94
f 51 94 95
f 51 95 87
f 52 96 97
f 52 97 98
f 52 98 99
f 52 99 100
f 52 100 101
f 52 101 102
f 52 102 53
f 52 87 103
f 52 103 104
f 52 104 96
f 53 102 54
f 54 102 105
f 54 105 57
f 54 57 55
f 56 59 106
f 56 106 61
f 56 61 60
f 57 105 58
f 58 105 107
f 58 107 108
f 58 108 59
f 59 108 109
f 59 109 110
f 59 110 111
f 59 111 112
f 59 112 106
f 61 106 65
f 62 65 63
f 63 65 114
f 63 114 115
f 63 115 116
f 63 116 117
f 63 117 118
f 63 118 119
f 63 119 120
f 63 120 121
f 63 121 113
f 65 122 123
f 65 123 124
f 65 124 125
f 65 125 126
f 65 126 127
f 65 127 114
f 65 106 122
f 66 77 128
f 67 129 68
f 68 129 130
f 68 130 131
f 68 131 69
f 69 131 71
f 69 71 70
f 71 131 132
f 71 132 133
f 71 133 134
f 71 134 135
f 71 135 136
f 71 136 72
f 72 136 137
f 72 137 73
f 73 137 138
f 73 138 74
f 74 138 139
f 74 139 75
f 75 139 138
f 75 138 76
f 76 138 140
f 76 140 141
f 76 141 142
f 76 142 143
f 76 143 77
f 77 143 144
f 77 144 145
f 77 145 146
f 77 146 128
f 79 147 148
f 79 148 149
f 79 149 150
f 79 150 151
f 79 151 80
f 80 151 82
f 80 82 81
f 82 152 153
f 82 153 154
f 82 154 155
f 82 155 156
f 82 156 157
f 82 157 158
f 82 158 83
f 82 151 150
f 82 150 149
f 82 149 148
f 82 148 152
f 83 158 84
f 84 158 159
f 84 159 85
f 85 159 158
f 85 158 160
f 85 160 161
f 85 161 162
f 85 162 86
f 86 163 88
f 86 162 163
f 87 95 103
f 88 163 89
f 89 163 90
f 90 163 91
f 91 163 92
f 92 163 93
f 93 163 164
f 93 164 94
f 94 164 95
f 95 164 103
f 96 104 97
f 97 99 98
f 97 104 165
f 97 165 166
f 97 166 99
f 99 166 108
f 99 108 107
f 99 107 100
f 100 107 101
f 101 107 105
f 101 105 102
f 103 167 104
f 103 164 167
f 104 167 165
f 106 112 168
f 106 168 169
f 106 169 122
f 108 166 109
f 109 166 170
f 109 170 171
f 109 171 172
f 109 172 110
f 110 172 164
f 110 164 173
f 110 173 174
f 110 174 175
f 110 175 176
f 110 176 111
f 111 176 177
f 111 177 178
f 111 178 179
f 111 179 180
f 111 180 112
f 112 180 181
f 112 181 182
f 112 182 168
f 113 121 183
f 114 127 184
f 114 184 115
f 115 184 116
f 116 184 117
f 117 184 118
f 118 184 119
f 119 184 120
f 120 184 121
f 121 184 185
f 121 185 186
f 121 186 187
f 121 187 183
f 122 169 188
f 122 188 189
f 122 189 123
f 123 189 124
f 124 189 125
f 125 189 126
f 126 189 184
f 126 184 127
f 129 190 130
f 130 190 191
f 130 191 192
f 130 192 193
f 130 193 131
f 131 193 194
f 131 194 195
f 131 195 132
f 132 195 196
f 132 196 197
f 132 197 133
f 133 198 134
f 133 197 198
f 134 199 200
f 134 200 135
f 134 198 201
f 134 201 199
f 135 200 202
f 135 202 136
f 136 202 203
f 136 203 137
f 137 203 138
f 138 203 140
f 140 203 204
f 140 204 205
f 140 205 206
f 140 206 141
f 141 206 207
f 141 207 142
f 142 207 208
f 142 208 143
f 143 208 209
f 143 209 210
f 143 210 144
f 144 210 211
f 144 211 209
f 144 209 147
f 147 209 212
f 147 212 156
f 147 156 155
f 147 155 154
f 147 154 153
f 147 153 152
f 147 152 213
f 147 213 148
f 148 213 152
f 156 212 209
f 156 209 157
f 157 209 208
f 157 208 214
f 157 214 215
f 157 215 158
f 158 215 216
f 158 216 217
f 158 217 160
f 160 217 218
f 160 218 219
f 160 219 220
f 160 220 161
f 161 220 162
f 162 220 221
f 162 221 222
f 162 222 223
f 162 223 163
f 163 223 174
f 163 174 173
f 163 173 164
f 164 172 167
f 165 167 166
f 166 167 224
f 166 224 170
f 167 170 224
f 167 172 171
f 167 171 170
f 168 182 169
f 169 181 180
f 169 180 225
f 169 225 226
f 169 226 227
f 169 227 228
f 169 228 229
f 169 229 188
f 169 182 181
f 174 223 230
f 174 230 179
f 174 179 178
f 174 178 175
f 175 177 176
f 175 178 177
f 179 230 231
f 179 231 232
f 179 232 233
f 179 233 180
f 180 233 232
f 180 232 234
f 180 234 235
f 180 235 236
f 180 236 225
f 183 187 238
f 183 238 239
f 183 239 240
f 183 240 241
f 183 241 237
f 184 189 242
f 184 242 243
f 184 243 185
f 185 244 187
f 185 187 186
f 185 243 245
f 185 245 244
f 187 239 238
f 187 244 246
f 187 246 241
f 187 241 240
f 187 240 239
f 188 247 248
f 188 248 249
f 188 249 242
f 188 242 189
f 188 229 247
f 192 237 250
f 192 250 251
f 192 251 193
f 193 251 252
f 193 252 194
f 194 252 195
f 195 250 196
f 195 252 250
f 196 253 197
f 196 250 254
f 196 254 253
f 197 253 255
f 197 255 256
f 197 256 198
f 198 256 257
f 198 257 201
f 199 258 200
f 199 201 259
f 199 259 258
f 200 258 260
f 200 260 261
f 200 261 202
f 201 257 259
f 202 261 203
f 203 261 204
f 204 261 262
f 204 262 205
f 205 262 206
f 206 262 263
f 206 263 214
f 206 214 207
f 207 214 208
f 209 211 210
f 214 263 264
f 214 264 215
f 215 264 265
f 215 265 266
f 215 266 245
f 215 245 216
f 216 245 243
f 216 243 217
f 217 243 242
f 217 242 249
f 217 249 218
f 218 249 247
f 218 247 267
f 218 267 268
f 218 268 269
f 218 269 270
f 218 270 271
f 218 271 272
f 218 272 219
f 219 272 220
f 220 272 273
f 220 273 221
f 221 274 275
f 221 275 236
f 221 236 222
f 221 273 276
f 221 276 277
f 221 277 278
f 221 278 270
f 221 270 274
f 222 236 279
f 222 279 230
f 222 230 223
f 225 236 226
f 226 236 227
f 227 236 275
f 227 275 280
f 227 280 228
f 228 280 274
f 228 274 229
f 229 274 270
f 229 270 269
f 229 269 268
f 229 268 267
f 229 267 247
f 230 279 281
f 230 281 282
f 230 282 231
f 231 282 234
f 231 234 232
f 234 279 235
f 234 282 279
f 235 279 236
f 237 241 283
f 237 283 254
f 237 254 250
f 241 246 255
f 241 255 283
f 244 256 246
f 244 245 284
f 244 284 257
f 244 257 256
f 245 266 285
f 245 285 284
f 246 256 255
f 247 249 248
f 250 252 251
f 253 254 283
f 253 283 255
f 257 284 285
f 257 285 259
f 258 285 286
f 258 286 287
f 258 287 260
f 258 259 285
f 260 287 261
f 261 287 262
f 262 287 263
f 263 287 264
f 264 287 286
f 264 286 265
f 265 286 285
f 265 285 266
f 270 278 277
f 270 277 271
f 271 277 272
f 272 277 273
f 273 277 276
f 274 280 275
f 279 282 281

