# https://github.com/mikedh/trimesh
v 0.20900412 0.23376441 -0.35679117
v 0.20890710 0.23376441 -0.36497348
v 0.20841505 0.24196317 -0.39778376
v 0.20899026 0.23376441 -0.34852783
v 0.20671718 0.18781649 0.38958200
v 0.20878235 0.23376441 -0.37315581
v 0.20863681 0.23376441 -0.38133812
v 0.20847049 0.23376441 -0.38960146
v 0.20796460 0.24196317 -0.40596607
v 0.20570539 0.24646348 -0.40596607
v 0.20824872 0.24111161 -0.35679117
v 0.20667560 0.18781649 0.39776433
v 0.20634296 0.18781649 0.38139969
v 0.19808227 0.22010186 -0.38960146
v 0.20217796 0.22512431 -0.38960146
v 0.20537966 0.22922680 -0.38960146
v 0.20523414 0.22942571 -0.39535337
v 0.20743097 0.23304337 -0.39794578
v 0.20731317 0.23447302 -0.40596607
v 0.20632910 0.23590888 -0.41115093
v 0.20633602 0.24196317 -0.41115093
v 0.20549054 0.24633918 -0.41042179
v 0.20095133 0.24784341 -0.40596607
v 0.20557371 0.24635781 -0.39778376
v 0.20816556 0.24090026 -0.34852783
v 0.20560143 0.18926479 0.39776433
v 0.20540738 0.18905345 0.40294917
v 0.20585785 0.18781649 0.40335422
v 0.20802004 0.24066405 -0.34034553
v 0.20785372 0.24042784 -0.33216320
v 0.20766660 0.24019166 -0.32398089
v 0.20746564 0.23994924 -0.31571755
v 0.20562223 0.23032701 -0.14348382
v 0.20541433 0.23007218 -0.13530150
v 0.20519256 0.22981731 -0.12711918
v 0.20506782 0.22968057 -0.12274448
v 0.20596873 0.18781649 0.37807816
v 0.18866427 0.20505318 -0.17240548
v 0.19275303 0.21588127 -0.35679117
v 0.19275303 0.21628529 -0.36497348
v 0.19275303 0.21751606 -0.38960146
v 0.19781893 0.22040644 -0.39778376
v 0.20247595 0.22623696 -0.39794578
v 0.20493614 0.22982976 -0.40078126
v 0.20445796 0.23037052 -0.40596607
v 0.19699425 0.22130153 -0.41025977
v 0.19850501 0.22555942 -0.41115093
v 0.20136714 0.23341011 -0.41220406
v 0.20095133 0.24196317 -0.41285219
v 0.20095133 0.24697320 -0.41106992
v 0.18454779 0.25128703 -0.40596607
v 0.19275303 0.24967712 -0.40596607
v 0.19275303 0.24950307 -0.39778376
v 0.20095133 0.24761344 -0.39778376
v 0.20531036 0.24620244 -0.39122171
v 0.20621128 0.23876198 -0.27472496
v 0.20648848 0.23899819 -0.28290726
v 0.20675877 0.23924061 -0.29117060
v 0.20700825 0.23947682 -0.29935291
v 0.20724387 0.23971303 -0.30753524
v 0.19702197 0.21342598 0.19928236
v 0.19696652 0.19694764 0.40238207
v 0.19603096 0.19571067 0.40780994
v 0.19821394 0.19024069 0.41056440
v 0.19821394 0.18781649 0.41056440
v 0.20592021 0.23852579 -0.26654263
v 0.20530344 0.23804717 -0.25009698
v 0.20511632 0.23790419 -0.24531722
v 0.19692494 0.22150665 0.08278561
v 0.18172723 0.18781649 0.16955058
v 0.18110352 0.18827646 0.15172772
v 0.18077087 0.18848159 0.14346437
v 0.18054218 0.18860591 0.13844157
v 0.18868506 0.21325194 -0.33645690
v 0.18905928 0.21313384 -0.33216320
v 0.18968992 0.21290384 -0.32398089
v 0.19018889 0.21268008 -0.31571755
v 0.19058391 0.21245631 -0.30753524
v 0.19275303 0.21806304 -0.39778376
v 0.19734075 0.22092237 -0.40596607
v 0.19275303 0.22038779 -0.41106992
v 0.19275303 0.22555942 -0.41301421
v 0.19275303 0.21886490 -0.40596607
v 0.19275303 0.23376441 -0.41398638
v 0.19275303 0.24196317 -0.41374335
v 0.19275303 0.24785586 -0.41179901
v 0.17634947 0.25098244 -0.39778376
v 0.18454779 0.25131189 -0.39778376
v 0.18454779 0.24857067 -0.41196103
v 0.17634947 0.24784962 -0.41131295
v 0.17634947 0.25023654 -0.40596607
v 0.18454779 0.25090786 -0.38960146
v 0.19275303 0.24907416 -0.38960146
v 0.20173443 0.24697941 -0.38887232
v 0.20499852 0.24604702 -0.38571283
v 0.18906621 0.21341357 0.24837626
v 0.18909393 0.20532667 0.36495405
v 0.18962062 0.20564990 0.35677172
v 0.18876822 0.20512776 0.36965280
v 0.19307874 0.19837729 0.40546055
v 0.19056311 0.19783029 0.41088844
v 0.19307874 0.19288866 0.41105046
v 0.18454779 0.19275812 0.41202263
v 0.19286391 0.18781649 0.41088844
v 0.19702890 0.22973650 -0.05598973
v 0.19275303 0.22693936 0.01222325
v 0.18912858 0.22158746 0.11697312
v 0.18853953 0.21323952 0.25380415
v 0.19652993 0.22957490 -0.05048085
v 0.17589209 0.18781649 0.16987463
v 0.18022340 0.18860591 0.13844157
v 0.18861576 0.21325194 -0.33645690
v 0.18454779 0.21847950 -0.40596607
v 0.18454779 0.22012051 -0.41147497
v 0.18454779 0.22555942 -0.41341926
v 0.18454779 0.23376441 -0.41406739
v 0.18454779 0.24196317 -0.41398638
v 0.17111032 0.24791802 -0.39778376
v 0.17086084 0.24812314 -0.38960146
v 0.17076381 0.24809207 -0.38133812
v 0.17634947 0.25100109 -0.38960146
v 0.17634947 0.25075247 -0.38133812
v 0.17634947 0.25024277 -0.36497348
v 0.17634947 0.24998170 -0.35679117
v 0.17634947 0.24967712 -0.34852783
v 0.17634947 0.24932902 -0.34034553
v 0.17634947 0.24893742 -0.33216320
v 0.17304382 0.24616513 -0.26848694
v 0.17634947 0.24196317 -0.41301421
v 0.17200430 0.24655674 -0.41034078
v 0.17160236 0.24724669 -0.40596607
v 0.18454779 0.25047275 -0.38133812
v 0.17965513 0.24597244 -0.28047687
v 0.18070157 0.24612162 -0.28598577
v 0.20038306 0.24688618 -0.38133812
v 0.18454779 0.24959009 -0.36497348
v 0.19275303 0.24818530 -0.37315581
v 0.19696652 0.24609053 -0.35217343
v 0.19641212 0.23776744 -0.19857269
v 0.18454779 0.20845328 0.34032607
v 0.18454779 0.20787518 0.34858941
v 0.18454779 0.20725981 0.35677172
v 0.18454779 0.20661958 0.36495405
v 0.18480419 0.20581774 0.37273130
v 0.18770791 0.20476103 0.37516168
v 0.18454779 0.20129876 0.40594664
v 0.18454779 0.19866945 0.41137450
v 0.16488709 0.20522099 0.41032133
v 0.14354238 0.20095689 0.41339985
v 0.13821313 0.20095689 0.41356187
v 0.17634947 0.19275812 0.41210364
v 0.18454779 0.18781649 0.41113147
v 0.18403495 0.22894087 0.01270933
v 0.18454779 0.22838145 0.02048658
v 0.18850488 0.22142586 0.12240098
v 0.19275303 0.22739933 0.00404093
v 0.18779801 0.22946922 -0.01224269
v 0.18581600 0.22901545 0.00404093
v 0.18454779 0.21649664 0.21734827
v 0.17922546 0.21298466 0.29115115
v 0.18454779 0.21175391 0.29115115
v 0.18454779 0.21122556 0.29933348
v 0.18454779 0.21068477 0.30751578
v 0.18454779 0.20957214 0.32396143
v 0.18454779 0.21912597 0.17627466
v 0.18454779 0.21807548 0.19272031
v 0.19337673 0.23045755 -0.05323529
v 0.13821313 0.18781649 0.19417855
v 0.18454779 0.21793253 -0.39778376
v 0.17725039 0.22054318 -0.40596607
v 0.17863640 0.22094102 -0.41074583
v 0.17607920 0.22503107 -0.41196103
v 0.17634947 0.23376441 -0.41366234
v 0.16892734 0.24196317 -0.39778376
v 0.16843530 0.24196317 -0.38960146
v 0.13821313 0.20343704 0.20908496
v 0.13821313 0.21068477 0.38958200
v 0.17066679 0.24805476 -0.37315581
v 0.17048661 0.24798016 -0.35679117
v 0.17045196 0.24789937 -0.34852783
v 0.17047968 0.24777504 -0.34034553
v 0.17054898 0.24761344 -0.33216320
v 0.17065293 0.24743318 -0.32398089
v 0.17077767 0.24724669 -0.31571755
v 0.17092321 0.24706020 -0.30753524
v 0.17109646 0.24686753 -0.29935291
v 0.17130436 0.24668104 -0.29117060
v 0.17154691 0.24649458 -0.28290726
v 0.17183105 0.24630809 -0.27472496
v 0.17207360 0.24616513 -0.26848694
v 0.17249634 0.23791042 -0.10565073
v 0.17050740 0.23376441 -0.41171800
v 0.17135287 0.24196317 -0.41106992
v 0.16813731 0.23376441 -0.40596607
v 0.16989062 0.24196317 -0.40596607
v 0.18233015 0.24649458 -0.29935291
v 0.18454779 0.24869500 -0.34852783
v 0.17634947 0.23251502 -0.02042501
v 0.17634947 0.23161992 -0.00406037
v 0.19275303 0.24729641 -0.35679117
v 0.19552506 0.24576732 -0.34034553
v 0.18270437 0.23017783 -0.00406037
v 0.17634947 0.20982698 0.34858941
v 0.17634947 0.20922405 0.35677172
v 0.17634947 0.20858381 0.36495405
v 0.17634947 0.20778195 0.37313635
v 0.15994592 0.20569962 0.41080743
v 0.15174761 0.20648904 0.41153652
v 0.14354238 0.20721009 0.41202263
v 0.15174761 0.20095689 0.41291374
v 0.14354238 0.20963428 0.40594664
v 0.16815117 0.20962186 0.37313635
v 0.15994592 0.21114475 0.37313635
v 0.13821313 0.20750846 0.41218465
v 0.13821313 0.19275812 0.41194162
v 0.15174761 0.19275812 0.41202263
v 0.16815117 0.19275812 0.41210364
v 0.17050740 0.18781649 0.41113147
v 0.18096492 0.22978001 0.01027894
v 0.18029270 0.22962462 0.01570681
v 0.17968285 0.22948787 0.02048658
v 0.17634947 0.22441570 0.11891743
v 0.17634947 0.22393086 0.12709975
v 0.17702169 0.22230230 0.15197075
v 0.18528238 0.22234581 0.11940350
v 0.18790196 0.22128909 0.12709975
v 0.17634947 0.21627287 0.25015856
v 0.17302996 0.21344463 0.30613856
v 0.17634947 0.21203984 0.31577912
v 0.17634947 0.21093963 0.33214376
v 0.17634947 0.21038642 0.34032607
v 0.18454779 0.21962325 0.16809234
v 0.17438132 0.22194797 0.16809234
v 0.17328637 0.22169935 0.17627466
v 0.17256564 0.22153151 0.18154051
v 0.17634947 0.21837385 0.21734827
v 0.13821313 0.18781649 0.41080743
v 0.13821313 0.19275812 0.19409754
v 0.16668892 0.23376441 -0.38960146
v 0.16713937 0.23376441 -0.39778376
v 0.16401390 0.22141342 -0.31247702
v 0.16982132 0.22480731 -0.39778376
v 0.17209439 0.22137611 -0.39502933
v 0.17253099 0.22156881 -0.40053820
v 0.17315470 0.22191070 -0.40596607
v 0.17088163 0.22741798 -0.41123194
v 0.13821313 0.20216278 0.20090262
v 0.13821313 0.21065991 0.39492886
v 0.13821313 0.21027454 0.40594664
v 0.17196965 0.23791042 -0.10565073
v 0.16385451 0.22978624 0.05167660
v 0.16590582 0.22978624 0.05167660
v 0.16438812 0.22152530 0.20600645
v 0.17137366 0.22959976 0.04811203
v 0.17269731 0.22976136 0.04268415
v 0.16984211 0.22601319 -0.40596607
v 0.18454779 0.24824746 -0.34034553
v 0.17634947 0.23117239 0.00404093
v 0.19452713 0.24554355 -0.33216320
v 0.17345269 0.22993541 0.03685122
v 0.17558023 0.23042024 0.02048658
v 0.16815117 0.21169796 0.34858941
v 0.16752053 0.21241900 0.34016405
v 0.16815117 0.21108882 0.35677172
v 0.16815117 0.21043614 0.36495405
v 0.16436040 0.21333275 0.33732860
v 0.15994592 0.21171040 0.36495405
v 0.15994592 0.18781649 0.41105046
v 0.13821313 0.18954450 0.41121248
v 0.14354238 0.18781649 0.41088844
v 0.17707713 0.23052592 0.01270933
v 0.17544856 0.22219042 0.15991002
v 0.18400723 0.22070481 0.15197075
v 0.16753439 0.21404136 0.31577912
v 0.16512271 0.21350680 0.33214376
v 0.17163008 0.21312140 0.31577912
v 0.17043117 0.21284791 0.32396143
v 0.16815117 0.22316009 0.16809234
v 0.16815117 0.22266902 0.17627466
v 0.16863627 0.22208474 0.18437597
v 0.17169245 0.22135749 0.18696839
v 0.13821313 0.19673630 0.19498867
v 0.13821313 0.19887456 0.19547476
v 0.13821313 0.20100663 0.19895831
v 0.16866399 0.22555942 -0.38960146
v 0.16384065 0.22152530 0.20600645
v 0.16815117 0.22363870 0.15991002
f 1 2 3
f 1 3 4
f 1 4 5
f 1 5 2
f 2 6 3
f 2 5 6
f 3 6 7
f 3 7 8
f 3 8 9
f 3 9 10
f 3 10 11
f 3 11 4
f 4 11 12
f 4 12 5
f 5 12 28
f 5 28 65
f 5 65 104
f 5 104 152
f 5 152 218
f 5 218 268
f 5 268 270
f 5 270 237
f 5 237 168
f 5 168 110
f 5 110 70
f 5 70 37
f 5 37 13
f 5 13 14
f 5 14 15
f 5 15 16
f 5 16 8
f 5 8 7
f 5 7 6
f 8 16 17
f 8 17 18
f 8 18 19
f 8 19 9
f 9 19 20
f 9 20 21
f 9 21 22
f 9 22 10
f 10 22 23
f 10 23 24
f 10 24 11
f 11 24 25
f 11 25 12
f 12 26 27
f 12 27 28
f 12 25 29
f 12 29 30
f 12 30 31
f 12 31 32
f 12 32 33
f 12 33 34
f 12 34 35
f 12 35 36
f 12 36 26
f 13 37 38
f 13 38 14
f 14 38 39
f 14 39 40
f 14 40 41
f 14 41 42
f 14 42 15
f 15 42 17
f 15 17 16
f 17 42 43
f 17 43 44
f 17 44 18
f 18 44 19
f 19 44 45
f 19 45 46
f 19 46 20
f 20 46 47
f 20 47 48
f 20 48 49
f 20 49 21
f 21 49 22
f 22 49 50
f 22 50 51
f 22 51 52
f 22 52 23
f 23 52 53
f 23 53 54
f 23 54 24
f 24 54 55
f 24 55 56
f 24 56 57
f 24 57 58
f 24 58 59
f 24 59 60
f 24 60 32
f 24 32 31
f 24 31 30
f 24 30 29
f 24 29 25
f 26 61 27
f 26 36 61
f 27 61 62
f 27 62 63
f 27 63 64
f 27 64 28
f 28 64 65
f 32 60 34
f 32 34 33
f 34 60 35
f 35 60 59
f 35 59 36
f 36 59 58
f 36 58 57
f 36 57 56
f 36 56 66
f 36 66 67
f 36 67 68
f 36 68 69
f 36 69 61
f 37 70 71
f 37 71 72
f 37 72 73
f 37 73 38
f 38 74 75
f 38 75 76
f 38 76 77
f 38 77 78
f 38 78 39
f 38 73 74
f 39 78 40
f 40 78 77
f 40 77 41
f 41 79 42
f 41 77 76
f 41 76 75
f 41 75 74
f 41 74 79
f 42 79 80
f 42 80 43
f 43 80 44
f 44 80 46
f 44 46 45
f 46 81 82
f 46 82 47
f 46 80 83
f 46 83 81
f 47 82 48
f 48 82 84
f 48 84 49
f 49 84 85
f 49 85 86
f 49 86 50
f 50 86 51
f 51 87 88
f 51 88 52
f 51 86 89
f 51 89 90
f 51 90 91
f 51 91 87
f 52 88 53
f 53 88 92
f 53 92 93
f 53 93 94
f 53 94 54
f 54 94 95
f 54 95 55
f 55 95 68
f 55 68 67
f 55 67 66
f 55 66 56
f 61 69 96
f 61 96 97
f 61 97 98
f 61 98 62
f 62 98 97
f 62 97 99
f 62 99 100
f 62 100 63
f 63 100 101
f 63 101 64
f 64 101 102
f 64 102 103
f 64 103 65
f 65 103 104
f 68 95 105
f 68 105 69
f 69 106 107
f 69 107 108
f 69 108 96
f 69 105 109
f 69 109 106
f 70 110 111
f 70 111 73
f 70 73 72
f 70 72 71
f 73 111 112
f 73 112 74
f 74 112 113
f 74 113 79
f 79 113 83
f 79 83 80
f 81 114 82
f 81 83 114
f 82 115 84
f 82 114 115
f 83 113 114
f 84 116 117
f 84 117 85
f 84 115 116
f 85 117 89
f 85 89 86
f 87 91 118
f 87 118 119
f 87 119 120
f 87 120 121
f 87 121 88
f 88 121 122
f 88 122 123
f 88 123 124
f 88 124 125
f 88 125 126
f 88 126 127
f 88 127 128
f 88 128 92
f 89 117 90
f 90 117 129
f 90 129 130
f 90 130 91
f 91 130 131
f 91 131 118
f 92 132 93
f 92 128 133
f 92 133 134
f 92 134 132
f 93 135 94
f 93 132 136
f 93 136 137
f 93 137 138
f 93 138 135
f 94 135 95
f 95 135 138
f 95 138 139
f 95 139 109
f 95 109 105
f 96 108 99
f 96 99 97
f 99 140 141
f 99 141 142
f 99 142 143
f 99 143 144
f 99 144 145
f 99 145 100
f 99 108 140
f 100 146 101
f 100 145 146
f 101 147 103
f 101 103 102
f 101 146 148
f 101 148 147
f 103 149 150
f 103 150 151
f 103 151 152
f 103 152 104
f 103 147 149
f 106 153 154
f 106 154 155
f 106 155 107
f 106 109 156
f 106 156 157
f 106 157 158
f 106 158 153
f 107 155 108
f 108 159 160
f 108 160 161
f 108 161 162
f 108 162 163
f 108 163 164
f 108 164 140
f 108 155 165
f 108 165 166
f 108 166 159
f 109 139 167
f 109 167 157
f 109 157 156
f 110 168 111
f 111 168 112
f 112 169 113
f 112 168 169
f 113 169 168
f 113 168 170
f 113 170 171
f 113 171 114
f 114 171 172
f 114 172 115
f 115 173 116
f 115 172 173
f 116 173 117
f 117 173 129
f 118 131 174
f 118 174 175
f 118 175 119
f 119 175 176
f 119 176 177
f 119 177 120
f 120 178 121
f 120 177 178
f 121 178 179
f 121 179 180
f 121 180 181
f 121 181 182
f 121 182 183
f 121 183 184
f 121 184 185
f 121 185 186
f 121 186 187
f 121 187 122
f 122 187 188
f 122 188 123
f 123 188 189
f 123 189 124
f 124 189 190
f 124 190 125
f 125 190 126
f 126 190 128
f 126 128 127
f 128 190 250
f 128 250 191
f 128 191 133
f 129 173 192
f 129 192 193
f 129 193 130
f 130 193 194
f 130 194 195
f 130 195 131
f 131 195 174
f 132 134 136
f 133 191 134
f 134 196 197
f 134 197 136
f 134 191 198
f 134 198 199
f 134 199 196
f 136 197 200
f 136 200 137
f 137 200 138
f 138 200 201
f 138 201 139
f 139 199 202
f 139 202 167
f 139 201 199
f 140 164 203
f 140 203 141
f 141 203 204
f 141 204 142
f 142 204 205
f 142 205 143
f 143 205 144
f 144 205 206
f 144 206 146
f 144 146 145
f 146 206 148
f 147 148 207
f 147 207 208
f 147 208 209
f 147 209 210
f 147 210 149
f 148 211 207
f 148 206 212
f 148 212 213
f 148 213 211
f 149 210 209
f 149 209 214
f 149 214 150
f 150 214 249
f 150 249 248
f 150 248 177
f 150 177 176
f 150 176 247
f 150 247 284
f 150 284 283
f 150 283 282
f 150 282 238
f 150 238 168
f 150 168 237
f 150 237 269
f 150 269 215
f 150 215 216
f 150 216 217
f 150 217 151
f 151 217 218
f 151 218 152
f 153 158 157
f 153 157 219
f 153 219 154
f 154 219 220
f 154 220 221
f 154 221 222
f 154 222 223
f 154 223 224
f 154 224 225
f 154 225 226
f 154 226 155
f 155 226 165
f 157 202 219
f 157 167 202
f 159 227 228
f 159 228 160
f 159 166 227
f 160 228 162
f 160 162 161
f 162 228 229
f 162 229 163
f 163 229 230
f 163 230 231
f 163 231 164
f 164 231 203
f 165 232 233
f 165 233 234
f 165 234 235
f 165 235 166
f 165 226 232
f 166 235 236
f 166 236 227
f 168 238 239
f 168 239 240
f 168 240 241
f 168 241 242
f 168 242 243
f 168 243 244
f 168 244 170
f 170 244 245
f 170 245 171
f 171 245 246
f 171 246 172
f 172 246 173
f 173 246 192
f 174 195 240
f 174 240 175
f 175 240 239
f 175 239 247
f 175 247 176
f 177 248 179
f 177 179 178
f 179 248 180
f 180 248 181
f 181 248 182
f 182 248 183
f 183 248 184
f 184 248 185
f 185 248 186
f 186 248 187
f 187 248 188
f 188 248 249
f 188 249 189
f 189 249 190
f 190 249 251
f 190 251 250
f 191 250 251
f 191 251 252
f 191 252 253
f 191 253 254
f 191 254 255
f 191 255 198
f 192 194 193
f 192 246 194
f 194 256 240
f 194 240 195
f 194 246 256
f 196 257 197
f 196 199 257
f 197 257 200
f 198 255 199
f 199 258 202
f 199 201 259
f 199 259 257
f 199 255 260
f 199 260 261
f 199 261 258
f 200 257 201
f 201 257 259
f 202 258 219
f 203 262 204
f 203 231 263
f 203 263 262
f 204 262 264
f 204 264 205
f 205 265 206
f 205 264 265
f 206 265 212
f 207 211 208
f 208 211 249
f 208 249 209
f 209 249 214
f 211 213 249
f 212 265 213
f 213 265 266
f 213 266 267
f 213 267 249
f 215 268 218
f 215 218 216
f 215 269 270
f 215 270 268
f 216 218 217
f 219 258 271
f 219 271 220
f 220 271 261
f 220 261 221
f 221 261 260
f 221 260 222
f 222 260 255
f 222 255 223
f 223 255 233
f 223 233 272
f 223 272 224
f 224 272 273
f 224 273 225
f 225 273 226
f 226 273 232
f 227 236 235
f 227 235 228
f 228 274 275
f 228 275 276
f 228 276 229
f 228 235 274
f 229 276 277
f 229 277 230
f 230 277 263
f 230 263 231
f 232 273 272
f 232 272 233
f 233 255 234
f 234 255 235
f 235 255 278
f 235 278 279
f 235 279 280
f 235 280 281
f 235 281 266
f 235 266 275
f 235 275 274
f 237 270 269
f 238 282 239
f 239 282 283
f 239 283 284
f 239 284 247
f 240 256 285
f 240 285 241
f 241 285 256
f 241 256 242
f 242 256 244
f 242 244 243
f 244 256 245
f 245 256 246
f 249 267 266
f 249 266 253
f 249 253 286
f 249 286 251
f 251 286 253
f 251 253 252
f 253 266 281
f 253 281 280
f 253 280 279
f 253 279 278
f 253 278 287
f 253 287 255
f 253 255 254
f 255 287 278
f 258 261 271
f 262 263 266
f 262 266 264
f 263 277 266
f 264 266 265
f 266 277 275
f 275 277 276

