# https://github.com/mikedh/trimesh
v -0.24494409 0.01230724 0.37320641
v -0.24488459 0.02051368 0.37320641
v -0.24445317 0.00740881 0.36830042
v -0.24485484 0.00740881 0.37320641
v -0.24370188 0.06153000 0.38140541
v -0.24379858 0.06972055 0.38140541
v -0.24469862 0.02872013 0.37320641
v -0.24369445 0.07792699 0.38140541
v -0.24437135 0.03691067 0.37320641
v -0.24362006 0.00740881 0.36500743
v -0.24340436 0.00740881 0.37584202
v -0.24064474 0.06153000 0.38771750
v -0.24084558 0.06972055 0.38835052
v -0.24339693 0.05332356 0.38140541
v -0.24159684 0.09432398 0.38960442
v -0.24347875 0.08613343 0.38140541
v -0.24392504 0.04511711 0.37320641
v -0.24315146 0.09432398 0.38140541
v -0.24065220 0.04511711 0.36692479
v -0.24138114 0.00740881 0.36179356
v -0.24330766 0.05332356 0.37320641
v -0.24039184 0.09432398 0.37485597
v -0.24117287 0.00740881 0.37937241
v -0.24023563 0.05332356 0.38707839
v -0.23883725 0.09432398 0.39432175
v -0.23877029 0.09985856 0.39430957
v -0.23960339 0.10256223 0.38908704
v -0.24098692 0.10251451 0.38140541
v -0.23949180 0.10251451 0.37586637
v -0.24014639 0.05332356 0.36755781
v -0.23993812 0.00740881 0.35989446
v -0.22149110 0.09866576 0.36086834
v -0.23857691 0.06819376 0.36870823
v -0.23938024 0.06153000 0.36819085
v -0.23813060 0.00740881 0.38035849
v -0.23869591 0.03843745 0.38590971
v -0.23953644 0.04511711 0.38643317
v -0.23825705 0.08875759 0.39392611
v -0.20915839 0.15994373 0.40595373
v -0.20915839 0.16813426 0.40667199
v -0.21565948 0.15994373 0.40389638
v -0.21493051 0.16813426 0.40386595
v -0.21464786 0.16985190 0.40361030
v -0.21589750 0.16985190 0.39936165
v -0.23845046 0.10707895 0.37680984
v -0.21671571 0.16813426 0.39780950
v -0.21611320 0.16985190 0.39780950
v -0.21623222 0.16985190 0.39172265
v -0.21625454 0.16985190 0.38960442
v -0.21631404 0.16985190 0.38348713
v -0.21695373 0.16813426 0.38140541
v -0.21481151 0.16985190 0.37519683
v -0.21512392 0.16813426 0.37478902
v -0.22134233 0.13901412 0.36970648
v -0.22172914 0.13354315 0.36870823
v -0.22235395 0.03691067 0.35182328
v -0.22282999 0.02872013 0.35123896
v -0.22346969 0.00740881 0.34965635
v -0.22132747 0.04912491 0.35273632
v -0.22187789 0.04365395 0.35231631
v -0.21356187 0.15652438 0.36897605
v -0.21403793 0.10747655 0.36077704
v -0.23376432 0.00740881 0.38145411
v -0.23376432 0.08801010 0.39404784
v -0.23376432 0.09432398 0.39498520
v -0.23376432 0.02051368 0.38351148
v -0.23376432 0.03713332 0.38611666
v -0.23376432 0.06153000 0.38993312
v -0.20096138 0.16985190 0.40779197
v -0.20743271 0.16985190 0.40714675
v -0.20926252 0.16985190 0.40640415
v -0.21385196 0.16985190 0.40417637
v -0.21632149 0.16985190 0.38140541
v -0.21060141 0.16985190 0.37292033
v -0.21735541 0.00740881 0.34611381
v -0.21977285 0.00740881 0.34738597
v -0.21585286 0.05096977 0.35243805
v -0.21809924 0.04588050 0.35190850
v -0.20924020 0.16985190 0.37220210
v -0.20915839 0.16813426 0.37156905
v -0.20096138 0.16985190 0.37113689
v -0.20915839 0.15700150 0.36889083
v -0.20915839 0.15173729 0.36795956
v -0.20915839 0.14353084 0.36654741
v -0.20915839 0.13532439 0.36514743
v -0.20915839 0.12713385 0.36376571
v -0.20915839 0.11892740 0.36241443
v -0.20915839 0.11200919 0.36132488
v -0.20915839 0.00740881 0.34562076
v -0.22555986 0.00740881 0.38146019
v -0.19924313 0.16985190 0.40779197
v -0.19275692 0.16985190 0.37102124
v -0.20096138 0.16813426 0.37081429
v -0.19275692 0.16156594 0.36954214
v -0.19275692 0.15746272 0.36882388
v -0.20096138 0.14353084 0.36649871
v -0.20096138 0.12713385 0.36374745
v -0.20096138 0.13532439 0.36511700
v -0.20096138 0.11892740 0.36240834
v -0.20096138 0.11200919 0.36132488
v -0.20424910 0.00740881 0.34561470
v -0.21735541 0.00740881 0.38146019
v -0.19275692 0.16985190 0.40774328
v -0.20096138 0.00740881 0.38143585
v -0.18450784 0.16985190 0.37105776
v -0.19275692 0.15173729 0.36787434
v -0.19567274 0.10747655 0.36077704
v -0.20096138 0.00740881 0.34562076
v -0.19103868 0.16985190 0.40772500
v -0.19239988 0.00740881 0.37919590
v -0.19526363 0.03850106 0.38589753
v -0.18283422 0.16985190 0.40729892
v -0.18455247 0.16985190 0.40743283
v -0.17638521 0.16985190 0.37329774
v -0.18868818 0.04090256 0.35274849
v -0.19381316 0.04511711 0.35200589
v -0.19549422 0.05096977 0.35244413
v -0.19195358 0.03765815 0.35152503
v -0.19275692 0.02051368 0.34949810
v -0.19275692 0.01230724 0.34879203
v -0.19275692 0.00740881 0.34842683
v -0.18921629 0.00740881 0.37757071
v -0.17452563 0.16985190 0.40485200
v -0.17286688 0.16985190 0.37522726
v -0.18848734 0.03543160 0.35249283
v -0.18833113 0.02872013 0.35225544
v -0.18824931 0.02051368 0.35205458
v -0.18828650 0.01230724 0.35196328
v -0.18834601 0.00740881 0.35196937
v -0.18868073 0.00740881 0.37715070
v -0.18863610 0.00791774 0.37733939
v -0.17279994 0.16985190 0.40384769
v -0.16937832 0.16985190 0.38140541
v -0.18808566 0.00740881 0.35680234
v -0.18861379 0.00740881 0.37660898
v -0.16930393 0.16985190 0.39780950
v -0.17102218 0.16985190 0.40177205
v -0.16899153 0.16985190 0.38883140
v -0.18819724 0.00740881 0.36500743
v -0.16895434 0.16985190 0.38960442
v -0.18842039 0.00740881 0.37296903
f 1 2 3
f 1 3 4
f 1 4 5
f 1 5 6
f 1 6 2
f 2 7 3
f 2 6 8
f 2 8 7
f 3 7 9
f 3 9 10
f 3 10 20
f 3 20 31
f 3 31 58
f 3 58 76
f 3 76 75
f 3 75 89
f 3 89 101
f 3 101 108
f 3 108 121
f 3 121 129
f 3 129 134
f 3 134 139
f 3 139 141
f 3 141 135
f 3 135 130
f 3 130 122
f 3 122 110
f 3 110 104
f 3 104 102
f 3 102 90
f 3 90 63
f 3 63 35
f 3 35 23
f 3 23 11
f 3 11 4
f 4 11 12
f 4 12 13
f 4 13 14
f 4 14 5
f 5 14 15
f 5 15 6
f 6 15 8
f 7 8 16
f 7 16 18
f 7 18 9
f 8 15 16
f 9 17 10
f 9 18 17
f 10 19 20
f 10 17 21
f 10 21 22
f 10 22 19
f 11 23 12
f 12 23 24
f 12 24 25
f 12 25 13
f 13 25 15
f 13 15 14
f 15 25 26
f 15 26 27
f 15 27 18
f 15 18 16
f 17 18 21
f 18 27 28
f 18 28 29
f 18 29 22
f 18 22 21
f 19 30 20
f 19 22 30
f 20 30 31
f 22 29 32
f 22 32 33
f 22 33 34
f 22 34 30
f 23 35 36
f 23 36 37
f 23 37 24
f 24 37 25
f 25 37 38
f 25 38 39
f 25 39 40
f 25 40 26
f 26 40 41
f 26 41 42
f 26 42 43
f 26 43 27
f 27 43 44
f 27 44 28
f 28 45 29
f 28 44 46
f 28 46 47
f 28 47 48
f 28 48 49
f 28 49 50
f 28 50 51
f 28 51 45
f 29 45 52
f 29 52 53
f 29 53 54
f 29 54 55
f 29 55 32
f 30 34 31
f 31 56 57
f 31 57 58
f 31 34 59
f 31 59 60
f 31 60 56
f 32 55 61
f 32 61 62
f 32 62 59
f 32 59 34
f 32 34 33
f 35 63 36
f 36 63 38
f 36 38 37
f 38 64 65
f 38 65 39
f 38 63 66
f 38 66 67
f 38 67 68
f 38 68 64
f 39 69 70
f 39 70 40
f 39 65 64
f 39 64 69
f 40 70 71
f 40 71 72
f 40 72 42
f 40 42 41
f 42 72 43
f 43 72 71
f 43 71 70
f 43 70 69
f 43 69 91
f 43 91 103
f 43 103 109
f 43 109 113
f 43 113 112
f 43 112 123
f 43 123 132
f 43 132 137
f 43 137 136
f 43 136 140
f 43 140 138
f 43 138 133
f 43 133 124
f 43 124 114
f 43 114 105
f 43 105 92
f 43 92 81
f 43 81 79
f 43 79 74
f 43 74 52
f 43 52 73
f 43 73 50
f 43 50 49
f 43 49 48
f 43 48 47
f 43 47 44
f 44 47 46
f 45 51 73
f 45 73 52
f 50 73 51
f 52 74 61
f 52 61 53
f 53 61 54
f 54 61 55
f 56 75 76
f 56 76 57
f 56 60 75
f 57 76 58
f 59 77 78
f 59 78 75
f 59 75 60
f 59 62 77
f 61 74 79
f 61 79 80
f 61 80 81
f 61 81 82
f 61 82 83
f 61 83 84
f 61 84 85
f 61 85 86
f 61 86 62
f 62 86 87
f 62 87 88
f 62 88 89
f 62 89 77
f 63 90 69
f 63 69 66
f 64 68 69
f 66 69 67
f 67 69 68
f 69 90 102
f 69 102 91
f 75 78 77
f 75 77 89
f 79 81 80
f 81 92 93
f 81 93 82
f 82 93 92
f 82 92 94
f 82 94 83
f 83 94 95
f 83 95 84
f 84 95 85
f 85 95 96
f 85 96 86
f 86 97 87
f 86 96 98
f 86 98 97
f 87 97 99
f 87 99 88
f 88 99 100
f 88 100 101
f 88 101 89
f 91 102 104
f 91 104 103
f 92 105 94
f 94 105 95
f 95 106 97
f 95 97 98
f 95 98 96
f 95 105 106
f 97 106 99
f 99 106 107
f 99 107 100
f 100 107 108
f 100 108 101
f 103 104 109
f 104 110 111
f 104 111 112
f 104 112 113
f 104 113 109
f 105 107 106
f 105 114 115
f 105 115 116
f 105 116 117
f 105 117 107
f 107 117 108
f 108 117 116
f 108 116 118
f 108 118 115
f 108 115 119
f 108 119 120
f 108 120 121
f 110 122 123
f 110 123 112
f 110 112 111
f 114 124 115
f 115 125 121
f 115 121 120
f 115 120 119
f 115 118 116
f 115 124 125
f 121 125 126
f 121 126 127
f 121 127 128
f 121 128 129
f 122 130 131
f 122 131 132
f 122 132 123
f 124 133 129
f 124 129 128
f 124 128 127
f 124 127 126
f 124 126 125
f 129 133 134
f 130 135 136
f 130 136 131
f 131 136 137
f 131 137 132
f 133 138 134
f 134 138 140
f 134 140 139
f 135 141 136
f 136 141 140
f 139 140 141

