# https://github.com/mikedh/trimesh
v -0.18580210 0.18781647 0.34549580
v -0.18489125 0.18658487 0.34549580
v -0.21480083 0.16986955 0.37519096
v -0.21405945 0.17398602 0.37616152
v -0.20543821 0.18781647 0.37703566
v -0.15042745 0.18781647 0.34549580
v -0.18309075 0.18415857 0.34549580
v -0.21632597 0.16986955 0.38140637
v -0.18095133 0.18137912 0.34549580
v -0.18029467 0.18054107 0.34549580
v -0.21060672 0.16986955 0.37292205
v -0.21446190 0.17490488 0.38140637
v -0.21240722 0.17900552 0.38140637
v -0.20859437 0.18455036 0.38140637
v -0.20620076 0.18781647 0.38140637
v -0.15099937 0.18641270 0.34549580
v 0.00007365 0.18781647 0.37539664
v -0.21630480 0.16986955 0.38348889
v -0.21437718 0.17481528 0.39780943
v -0.21441954 0.17491718 0.38960791
v -0.17667247 0.17899499 0.34549580
v -0.20922984 0.16986955 0.37220217
v -0.21255550 0.17901607 0.38960791
v -0.20895449 0.18455036 0.38960791
v -0.20645497 0.18781647 0.38715258
v -0.15138066 0.18554477 0.34549580
v 0.00007365 0.18781647 0.41053590
v 0.00007365 0.18463469 0.37569230
v -0.21622005 0.16986955 0.39172256
v -0.21611413 0.16986955 0.39780943
v -0.21590231 0.16986955 0.39935845
v -0.21397472 0.17392100 0.40300930
v -0.21251312 0.17891592 0.39780943
v -0.17116505 0.17840291 0.34549580
v -0.20094753 0.16986955 0.37113520
v -0.20889094 0.18455036 0.39780943
v -0.20653969 0.18781647 0.39537981
v -0.20656086 0.18781647 0.38960791
v -0.15822259 0.18113667 0.34549580
v -0.18203163 0.18781647 0.41114653
v -0.19274992 0.18546746 0.41074803
v -0.19923175 0.16986955 0.40779779
v 0.00007365 0.18763551 0.41049092
v 0.00007365 0.18254747 0.37685570
v -0.21463136 0.16986955 0.40361348
v -0.21384761 0.16986955 0.40417268
v -0.19916819 0.18781647 0.40988032
v -0.20694215 0.18455036 0.40448763
v -0.20577711 0.18781647 0.40325353
v -0.20628549 0.18781647 0.40147955
v -0.16813595 0.17828694 0.34549580
v -0.19274992 0.16986955 0.37102594
v -0.20651850 0.18781647 0.39780943
v -0.16231078 0.17995602 0.34549580
v 0.00007365 0.18053228 0.37801908
v -0.19010213 0.18781647 0.41115939
v -0.19810907 0.18647945 0.41054235
v -0.20094753 0.17635082 0.40894831
v -0.20094753 0.16986955 0.40779136
v -0.19274992 0.16986955 0.40773996
v 0.00007365 0.18353486 0.40649300
v -0.19101297 0.16986955 0.40772067
v -0.18453114 0.16986955 0.40743141
v -0.18281538 0.16986955 0.40730288
v -0.20925103 0.16986955 0.40640302
v -0.19810907 0.18781647 0.41054235
v -0.18448878 0.16986955 0.37105806
v 0.00007365 0.18029335 0.38211341
v -0.17285964 0.16986955 0.37522954
v -0.17637592 0.16986955 0.37330128
v -0.19704996 0.18781647 0.41065803
v -0.20742933 0.16986955 0.40714861
v 0.00007365 0.18194837 0.40448120
v -0.17451186 0.16986955 0.40485398
v 0.00007365 0.18030213 0.40239224
v 0.00007365 0.18021428 0.38594420
v -0.16936455 0.16986955 0.38140637
v -0.17279608 0.16986955 0.40384487
v 0.00007365 0.18014928 0.39780943
v -0.17101677 0.16986955 0.40176878
v 0.00007365 0.18014049 0.38960791
v -0.16894089 0.16986955 0.38960791
v 0.00007365 0.18014401 0.39377937
v -0.16930099 0.16986955 0.39780943
v -0.16923744 0.16986955 0.39674244
f 1 2 3
f 1 3 4
f 1 4 5
f 1 5 15
f 1 15 25
f 1 25 38
f 1 38 37
f 1 37 53
f 1 53 50
f 1 50 49
f 1 49 47
f 1 47 66
f 1 66 71
f 1 71 56
f 1 56 40
f 1 40 27
f 1 27 17
f 1 17 6
f 1 6 16
f 1 16 26
f 1 26 39
f 1 39 54
f 1 54 51
f 1 51 34
f 1 34 21
f 1 21 10
f 1 10 9
f 1 9 7
f 1 7 2
f 2 7 3
f 3 8 4
f 3 7 9
f 3 9 10
f 3 10 11
f 3 11 22
f 3 22 35
f 3 35 52
f 3 52 67
f 3 67 70
f 3 70 69
f 3 69 77
f 3 77 82
f 3 82 85
f 3 85 84
f 3 84 80
f 3 80 78
f 3 78 74
f 3 74 64
f 3 64 63
f 3 63 62
f 3 62 60
f 3 60 42
f 3 42 59
f 3 59 72
f 3 72 65
f 3 65 46
f 3 46 45
f 3 45 31
f 3 31 30
f 3 30 29
f 3 29 18
f 3 18 8
f 4 8 12
f 4 12 13
f 4 13 5
f 5 13 14
f 5 14 15
f 6 17 16
f 8 18 19
f 8 19 20
f 8 20 12
f 10 21 22
f 10 22 11
f 12 20 23
f 12 23 13
f 13 23 24
f 13 24 14
f 14 24 25
f 14 25 15
f 16 17 26
f 17 27 43
f 17 43 61
f 17 61 73
f 17 73 75
f 17 75 79
f 17 79 83
f 17 83 81
f 17 81 76
f 17 76 68
f 17 68 55
f 17 55 44
f 17 44 28
f 17 28 26
f 18 29 19
f 19 29 30
f 19 30 31
f 19 31 32
f 19 32 33
f 19 33 20
f 20 33 23
f 21 34 22
f 22 34 35
f 23 33 36
f 23 36 24
f 24 36 37
f 24 37 38
f 24 38 25
f 26 28 39
f 27 40 41
f 27 41 42
f 27 42 43
f 28 44 39
f 31 45 32
f 32 45 46
f 32 46 47
f 32 47 48
f 32 48 49
f 32 49 50
f 32 50 33
f 33 50 36
f 34 51 35
f 35 51 52
f 36 50 53
f 36 53 37
f 39 44 55
f 39 55 54
f 40 56 41
f 41 56 57
f 41 57 58
f 41 58 59
f 41 59 42
f 42 60 43
f 43 60 62
f 43 62 63
f 43 63 64
f 43 64 61
f 46 65 66
f 46 66 47
f 47 49 48
f 51 67 52
f 51 54 55
f 51 55 67
f 55 68 69
f 55 69 70
f 55 70 67
f 56 71 57
f 57 66 72
f 57 72 58
f 57 71 66
f 58 72 59
f 61 64 73
f 64 74 75
f 64 75 73
f 65 72 66
f 68 76 77
f 68 77 69
f 74 78 75
f 75 78 80
f 75 80 79
f 76 81 77
f 77 81 82
f 79 80 84
f 79 84 85
f 79 85 82
f 79 82 83
f 81 83 82

