# https://github.com/mikedh/trimesh
v -0.19051938 -0.09712982 0.27739061
v -0.19051938 -0.04511614 0.27047161
v -0.22864748 -0.17264120 0.27739061
v -0.19051938 -0.20020952 0.27739061
v -0.19051938 -0.04151933 0.26898564
v -0.22950036 -0.17470881 0.27739061
v -0.20095708 -0.20305251 0.27739061
v -0.19051938 -0.20143718 0.27476695
v -0.19051938 0.00737137 0.24135604
v -0.19062699 0.00737137 0.24118189
v -0.22948841 -0.17483805 0.26657096
v -0.22976339 -0.18009327 0.15879227
v -0.23013801 -0.18455158 0.15879227
v -0.23076372 -0.19389896 0.15879227
v -0.23123000 -0.20094181 0.15879227
v -0.23052062 -0.19012986 0.27739061
v -0.19189831 0.00737137 0.23657310
v -0.19263960 0.00737137 0.23376371
v -0.19266351 0.00737137 0.22885307
v -0.19267945 0.00737137 0.22555607
v -0.19265952 0.00737137 0.21737169
v -0.20915900 -0.20369864 0.27739061
v -0.19051938 -0.20369864 0.26657096
v -0.19051938 0.00737137 0.19829796
v -0.22947643 -0.17492419 0.25836333
v -0.22628018 -0.17589339 0.15879227
v -0.22945252 -0.17501035 0.25016733
v -0.19260771 0.00737137 0.20916406
v -0.19161535 0.00737137 0.20096805
v -0.23114232 -0.20191101 0.15879227
v -0.23123000 -0.20094181 0.16814919
v -0.23069197 -0.19273591 0.27739061
v -0.21736089 -0.20400017 0.27739061
v -0.20915900 -0.20400017 0.27476695
v -0.20442038 -0.20509860 0.26298376
v -0.19051938 -0.20475400 0.25809632
v -0.19051938 0.00409763 0.19782199
v -0.19250409 -0.18455158 0.15879227
v -0.19364790 -0.17634568 0.15879227
v -0.19597138 -0.17160738 0.15879227
v -0.20029950 -0.17109047 0.15879227
v -0.20095708 -0.17104740 0.15879227
v -0.20915900 -0.17124124 0.15879227
v -0.21735690 -0.17152124 0.15879227
v -0.22227886 -0.17195199 0.15879227
v -0.22272921 -0.17238274 0.15879227
v -0.23122602 -0.20094181 0.17635681
v -0.23058437 -0.20740313 0.15879227
v -0.23120610 -0.20094181 0.18455281
v -0.23117024 -0.20094181 0.19276043
v -0.23111841 -0.20094181 0.20096805
v -0.23104669 -0.20094181 0.20916406
v -0.23094705 -0.20094181 0.21737169
v -0.23043692 -0.19669887 0.27739061
v -0.20915900 -0.20520628 0.26388927
v -0.20915900 -0.20475400 0.26798727
v -0.22556280 -0.20208331 0.27739061
v -0.22280093 -0.20529242 0.26469027
v -0.21736089 -0.20533549 0.26516626
v -0.20915900 -0.20572319 0.25836333
v -0.20915900 -0.20636931 0.25016733
v -0.19051938 -0.20796311 0.20916406
v -0.19051938 -0.00410825 0.19706740
v -0.19051938 -0.17634568 0.19058954
v -0.19051938 -0.18455158 0.19049666
v -0.19051938 -0.19273591 0.19097264
v -0.19051938 -0.20094181 0.19159952
v -0.19051938 -0.20135103 0.19172722
v -0.19051938 -0.20656316 0.19396777
v -0.19299828 -0.19159442 0.15879227
v -0.19051938 -0.01231414 0.19645212
v -0.19051938 -0.02052002 0.19594132
v -0.19051938 -0.02723980 0.19558143
v -0.22551498 -0.21127993 0.15879227
v -0.23040902 -0.20606781 0.20916406
v -0.23048075 -0.20624010 0.20096805
v -0.23052858 -0.20641238 0.19276043
v -0.23056444 -0.20658472 0.18455281
v -0.23058038 -0.20677854 0.17635681
v -0.23082750 -0.20094181 0.22555607
v -0.23031337 -0.19844343 0.27739061
v -0.21736089 -0.20602471 0.25836333
v -0.22937679 -0.20471092 0.25304639
v -0.22429944 -0.20559397 0.25836333
v -0.21736089 -0.21255066 0.15995318
v -0.21736089 -0.20664930 0.25016733
v -0.20915900 -0.21227067 0.15995318
v -0.20925064 -0.21233528 0.15879227
v -0.20210487 -0.21127993 0.15879227
v -0.20095708 -0.21110764 0.15879227
v -0.19051938 -0.20802774 0.20319699
v -0.19051938 -0.20703700 0.19543052
v -0.19540146 -0.20753234 0.15879227
v -0.19365587 -0.20094181 0.15879227
v -0.21847281 -0.21248603 0.15879227
v -0.22556280 -0.20641238 0.24195970
v -0.22620843 -0.20578782 0.25026020
v -0.22974347 -0.20514167 0.24757851
v -0.22987498 -0.20529242 0.24195970
v -0.23005035 -0.20548627 0.23376371
v -0.23019381 -0.20568011 0.22555607
v -0.23030939 -0.20587396 0.21737169
v -0.21736089 -0.21261527 0.15879227
v -0.19618261 -0.20807081 0.15879227
v -0.19051938 -0.20794158 0.20096805
f 1 2 3
f 1 3 6
f 1 6 16
f 1 16 32
f 1 32 54
f 1 54 81
f 1 81 57
f 1 57 33
f 1 33 22
f 1 22 7
f 1 7 4
f 1 4 8
f 1 8 23
f 1 23 36
f 1 36 62
f 1 62 91
f 1 91 105
f 1 105 92
f 1 92 69
f 1 69 68
f 1 68 67
f 1 67 66
f 1 66 65
f 1 65 64
f 1 64 73
f 1 73 72
f 1 72 71
f 1 71 63
f 1 63 37
f 1 37 24
f 1 24 9
f 1 9 5
f 1 5 2
f 2 5 6
f 2 6 3
f 4 7 8
f 5 9 10
f 5 10 6
f 6 11 12
f 6 12 13
f 6 13 14
f 6 14 15
f 6 15 16
f 6 10 17
f 6 17 18
f 6 18 19
f 6 19 20
f 6 20 21
f 6 21 11
f 7 22 23
f 7 23 8
f 9 24 29
f 9 29 28
f 9 28 21
f 9 21 20
f 9 20 19
f 9 19 18
f 9 18 17
f 9 17 10
f 11 21 25
f 11 25 12
f 12 26 46
f 12 46 45
f 12 45 44
f 12 44 43
f 12 43 42
f 12 42 41
f 12 41 40
f 12 40 39
f 12 39 38
f 12 38 70
f 12 70 94
f 12 94 93
f 12 93 104
f 12 104 90
f 12 90 89
f 12 89 88
f 12 88 103
f 12 103 95
f 12 95 74
f 12 74 48
f 12 48 30
f 12 30 15
f 12 15 14
f 12 14 13
f 12 25 27
f 12 27 28
f 12 28 29
f 12 29 24
f 12 24 26
f 15 30 31
f 15 31 32
f 15 32 16
f 21 28 27
f 21 27 25
f 22 33 34
f 22 34 35
f 22 35 36
f 22 36 23
f 24 37 38
f 24 38 39
f 24 39 40
f 24 40 41
f 24 41 42
f 24 42 43
f 24 43 44
f 24 44 45
f 24 45 46
f 24 46 26
f 30 47 31
f 30 48 47
f 31 47 32
f 32 47 49
f 32 49 50
f 32 50 51
f 32 51 52
f 32 52 53
f 32 53 54
f 33 55 56
f 33 56 34
f 33 57 58
f 33 58 59
f 33 59 55
f 34 56 35
f 35 56 55
f 35 55 60
f 35 60 36
f 36 60 61
f 36 61 62
f 37 63 38
f 38 64 65
f 38 65 66
f 38 66 67
f 38 67 68
f 38 68 69
f 38 69 70
f 38 63 71
f 38 71 72
f 38 72 73
f 38 73 64
f 47 48 49
f 48 74 75
f 48 75 76
f 48 76 77
f 48 77 78
f 48 78 79
f 48 79 49
f 49 79 50
f 50 79 78
f 50 78 51
f 51 78 77
f 51 77 76
f 51 76 52
f 52 76 75
f 52 75 53
f 53 80 81
f 53 81 54
f 53 75 80
f 55 59 82
f 55 82 60
f 57 83 58
f 57 81 83
f 58 83 84
f 58 84 85
f 58 85 86
f 58 86 82
f 58 82 59
f 60 82 61
f 61 82 86
f 61 86 85
f 61 85 87
f 61 87 62
f 62 87 88
f 62 88 89
f 62 89 90
f 62 90 91
f 69 92 93
f 69 93 94
f 69 94 70
f 74 95 96
f 74 96 97
f 74 97 98
f 74 98 99
f 74 99 100
f 74 100 101
f 74 101 102
f 74 102 75
f 75 102 80
f 80 102 81
f 81 98 83
f 81 102 101
f 81 101 100
f 81 100 99
f 81 99 98
f 83 98 84
f 84 97 96
f 84 96 95
f 84 95 85
f 84 98 97
f 85 95 103
f 85 103 87
f 87 103 88
f 90 104 105
f 90 105 91
f 92 105 93
f 93 105 104

