# https://github.com/mikedh/trimesh
v -0.17250607 -0.31255642 0.09848484
v -0.17250607 -0.31255642 -0.23484849
v -0.16662049 0.29703982 -0.23097234
v -0.18765758 0.32380722 0.05303030
v -0.36947577 -0.08528369 -0.03787879
v -0.16600572 0.23816457 0.24450119
v -0.30886970 -0.22164733 0.00757575
v -0.33917274 0.11168601 -0.23484849
v -0.17250607 0.32380722 0.05303030
v -0.30886970 0.15714055 0.15909091
v -0.16603053 -0.31575315 0.02042257
v -0.30886970 -0.19134430 -0.23484849
v -0.21796061 -0.31255642 0.00757575
v -0.18765758 0.30865570 -0.23484849
v -0.18765758 0.24804964 0.25000000
v -0.29371819 -0.07013217 0.26515151
v -0.36947577 0.08138298 -0.02272728
v -0.16667066 -0.22902703 0.25973363
v -0.16612183 -0.31624547 -0.15708725
v -0.33917274 -0.17619278 -0.11363637
v -0.36947577 -0.05498066 -0.15909091
v -0.21796061 -0.26710187 0.17424242
v -0.18765758 -0.32770793 0.02272727
v -0.24826364 -0.28225339 -0.18939394
v -0.27856667 0.26320116 -0.11363637
v -0.17250607 0.32380722 -0.18939394
v -0.17250607 0.30865570 0.11363636
v -0.26341516 0.24804964 0.11363636
v -0.33917274 -0.14588975 0.06818181
v -0.26341516 0.15714055 0.26515151
v -0.33917274 0.05107995 0.15909091
v -0.17250607 -0.28225339 0.18939393
v -0.16815364 0.22686739 0.26132438
v -0.33917274 -0.11558672 -0.23484849
v -0.36947577 0.05107995 -0.15909091
v -0.36947577 -0.08528369 -0.11363637
v -0.26341516 -0.26710187 0.05303030
v -0.24826364 -0.17619278 0.26515151
v -0.21796061 -0.29740490 0.08333333
v -0.18765758 -0.32770793 -0.15909091
v -0.23311213 -0.28225339 -0.23484849
v -0.30886970 -0.22164733 -0.15909091
v -0.27856667 0.23289813 -0.23484849
v -0.33917274 0.17229207 -0.12878788
v -0.20280910 0.32380722 -0.12878788
v -0.18765758 0.30865570 0.11363636
v -0.26341516 0.27835267 -0.03787879
v -0.33917274 -0.17619278 -0.02272728
v -0.26341516 0.20259510 0.20454545
v -0.35432425 0.11168601 0.05303030
v -0.30886970 0.11168601 0.20454545
v -0.36947577 -0.02467763 0.03787878
v -0.18765758 -0.31255642 0.09848484
v -0.20280910 0.23289813 0.26515151
v -0.35432425 0.08138298 -0.21969697
v -0.33917274 -0.14588975 -0.20454546
v -0.26341516 -0.22164733 0.17424242
v -0.30886970 -0.14588975 0.17424242
v -0.18765758 -0.25195036 0.25000000
v -0.23311213 -0.29740490 0.03787878
v -0.23311213 -0.26710187 0.14393939
v -0.21796061 -0.31255642 -0.14393940
v -0.18765758 -0.31255642 -0.23484849
v -0.27856667 -0.23679884 -0.23484849
f 9 6 3
f 12 8 2
f 14 3 2
f 14 2 8
f 18 11 6
f 19 2 3
f 19 3 6
f 19 6 11
f 21 5 17
f 23 11 1
f 23 19 11
f 26 9 3
f 26 3 14
f 26 4 9
f 27 9 4
f 27 15 6
f 27 6 9
f 32 1 11
f 32 11 18
f 33 18 6
f 33 6 15
f 34 8 12
f 35 21 17
f 36 20 5
f 36 5 21
f 38 30 16
f 39 13 23
f 40 2 19
f 40 19 23
f 40 23 13
f 41 12 2
f 42 7 20
f 43 14 8
f 44 35 17
f 44 43 8
f 44 25 43
f 45 4 26
f 45 26 14
f 45 43 25
f 45 14 43
f 46 27 4
f 46 15 27
f 46 4 28
f 47 28 4
f 47 25 44
f 47 45 25
f 47 4 45
f 48 20 7
f 48 7 29
f 48 29 5
f 48 5 20
f 49 28 10
f 49 10 30
f 50 44 17
f 50 10 28
f 50 47 44
f 50 28 47
f 51 30 10
f 51 50 31
f 51 10 50
f 51 31 16
f 51 16 30
f 52 17 5
f 52 5 29
f 52 16 31
f 52 50 17
f 52 31 50
f 53 1 32
f 53 22 39
f 53 39 23
f 53 23 1
f 54 33 15
f 54 30 38
f 54 38 18
f 54 18 33
f 54 49 30
f 54 28 49
f 54 46 28
f 54 15 46
f 55 34 21
f 55 8 34
f 55 21 35
f 55 44 8
f 55 35 44
f 56 34 12
f 56 20 36
f 56 36 21
f 56 21 34
f 56 42 20
f 56 12 42
f 57 29 7
f 57 7 37
f 58 38 16
f 58 57 38
f 58 29 57
f 58 52 29
f 58 16 52
f 59 32 18
f 59 18 38
f 59 53 32
f 59 22 53
f 59 57 22
f 59 38 57
f 60 39 37
f 60 13 39
f 60 37 7
f 60 7 42
f 61 39 22
f 61 37 39
f 61 57 37
f 61 22 57
f 62 40 13
f 62 24 41
f 62 13 60
f 62 60 42
f 62 42 24
f 63 41 2
f 63 2 40
f 63 62 41
f 63 40 62
f 64 41 24
f 64 24 42
f 64 42 12
f 64 12 41