# https://github.com/mikedh/trimesh
v 0.00931211 -0.19134430 -0.35606061
v 0.00924388 -0.19003784 -0.44503462
v 0.00931211 -0.11558672 -0.35606061
v -0.15735455 -0.11558672 -0.35606061
v -0.15735455 -0.19134430 -0.43181819
v -0.12705152 -0.11558672 -0.47727273
v 0.00931211 -0.11558672 -0.44696970
v -0.06644546 -0.19134430 -0.46212122
v -0.15735455 -0.19134430 -0.35606061
v -0.06622344 -0.11517222 -0.47625164
v -0.15735455 -0.11558672 -0.46212122
v -0.11190001 -0.14588975 -0.47727273
v -0.06644546 -0.16104127 -0.47727273
v -0.12705152 -0.19134430 -0.44696970
v -0.12705152 -0.13073824 -0.47727273
v -0.08159698 -0.16104127 -0.47727273
v -0.15735455 -0.13073824 -0.46212122
v -0.08159698 -0.19134430 -0.46212122
v -0.11190001 -0.17619278 -0.46212122
f 1 3 4
f 7 1 2
f 7 3 1
f 8 2 1
f 8 1 5
f 9 5 1
f 9 1 4
f 9 4 5
f 10 4 3
f 10 3 7
f 11 5 4
f 11 10 6
f 11 4 10
f 13 10 7
f 13 7 2
f 13 2 8
f 13 12 6
f 13 6 10
f 14 8 5
f 14 5 12
f 15 11 6
f 15 6 12
f 15 12 5
f 16 13 8
f 16 12 13
f 17 15 5
f 17 5 11
f 17 11 15
f 18 12 16
f 18 16 8
f 18 8 14
f 19 18 14
f 19 14 12
f 19 12 18