# https://github.com/mikedh/trimesh
v 0.22803830 0.16614734 0.25991421
v 0.27936884 0.17088221 0.14308721
v 0.17597878 0.29350419 0.17424242
v -0.03614243 0.33895873 0.15909091
v -0.17250607 0.17229207 0.14393939
v 0.11537272 0.32380722 0.14393939
v 0.06991817 0.29350419 0.26515151
v 0.26688787 0.18744358 0.21969696
v 0.27200153 0.16565839 0.16985697
v 0.20628181 0.27835267 0.14393939
v -0.18765758 0.29350419 0.14393939
v -0.17250607 0.17229207 0.26515151
v 0.03961514 0.33895873 0.15909091
v 0.11537272 0.30865570 0.20454545
v 0.17597878 0.24804964 0.26515151
v 0.26688787 0.17229207 0.21969696
v 0.03806276 0.32500939 0.13962746
v 0.28203939 0.20259510 0.15909091
v -0.12705152 0.27835267 0.26515151
v -0.20280910 0.23289813 0.14393939
v 0.03961514 0.32380722 0.20454545
v 0.11537272 0.32380722 0.15909091
v 0.23658484 0.18744358 0.26515151
v 0.22143333 0.26320116 0.17424242
v 0.10022120 0.29350419 0.25000000
v 0.28203939 0.20259510 0.14393939
v -0.10780010 0.31012833 0.14011557
v -0.03476907 0.32531051 0.13968400
v 0.28203939 0.18744358 0.17424242
v -0.11190001 0.32380722 0.15909091
v -0.20280910 0.24804964 0.21969696
v 0.08506969 0.32380722 0.18939393
v -0.06644546 0.29350419 0.26515151
v 0.14567575 0.30865570 0.17424242
v 0.25173636 0.18744358 0.25000000
v 0.19113029 0.27835267 0.18939393
v 0.25173636 0.23289813 0.17424242
v 0.20628181 0.27835267 0.15909091
v 0.11537272 0.27835267 0.26515151
v -0.20280910 0.27835267 0.14393939
v -0.15735455 0.30865570 0.15909091
v -0.15735455 0.30865570 0.14393939
v -0.17250607 0.24804964 0.26515151
v -0.19893494 0.22777800 0.21735447
v -0.05129395 0.32380722 0.20454545
v 0.22143333 0.23289813 0.23484848
v 0.25173636 0.17229207 0.25000000
v 0.23658484 0.21774661 0.23484848
v -0.20280910 0.27835267 0.17424242
v -0.09674849 0.30865570 0.21969696
v -0.08159698 0.32380722 0.18939393
v 0.19113029 0.24804964 0.25000000
v -0.18765758 0.29350419 0.15909091
v -0.17250607 0.26320116 0.25000000
v -0.06644546 0.30865570 0.23484848
v -0.20280910 0.26320116 0.20454545
v -0.15735455 0.26320116 0.26515151
v -0.15735455 0.27835267 0.23484848
f 9 5 2
f 9 1 5
f 10 6 3
f 12 5 1
f 15 7 12
f 16 9 2
f 17 6 10
f 17 13 6
f 19 12 7
f 20 5 12
f 21 13 4
f 22 3 6
f 22 6 13
f 23 15 12
f 23 12 1
f 25 3 14
f 26 17 10
f 26 2 17
f 27 2 5
f 27 5 20
f 28 4 13
f 28 13 17
f 28 17 2
f 28 2 27
f 29 16 2
f 29 26 18
f 29 2 26
f 29 18 8
f 29 8 16
f 32 13 21
f 32 22 13
f 32 14 22
f 32 25 14
f 32 21 7
f 32 7 25
f 33 19 7
f 33 7 21
f 34 22 14
f 34 14 3
f 34 3 22
f 35 16 8
f 36 3 25
f 37 8 18
f 37 18 26
f 37 26 10
f 37 10 24
f 38 24 10
f 38 10 3
f 38 36 24
f 38 3 36
f 39 25 7
f 39 7 15
f 39 15 25
f 40 27 20
f 40 11 27
f 40 20 31
f 42 27 11
f 42 41 30
f 42 11 41
f 42 28 27
f 42 30 4
f 42 4 28
f 43 31 12
f 43 12 19
f 44 31 20
f 44 20 12
f 44 12 31
f 45 33 21
f 45 21 4
f 46 23 35
f 46 24 36
f 46 37 24
f 47 35 23
f 47 23 1
f 47 16 35
f 47 1 9
f 47 9 16
f 48 35 8
f 48 8 37
f 48 46 35
f 48 37 46
f 49 40 31
f 49 11 40
f 50 30 41
f 50 19 33
f 51 45 4
f 51 4 30
f 51 50 45
f 51 30 50
f 52 46 36
f 52 15 23
f 52 23 46
f 52 36 25
f 52 25 15
f 53 41 11
f 53 11 49
f 54 31 43
f 54 53 49
f 55 50 33
f 55 33 45
f 55 45 50
f 56 54 49
f 56 49 31
f 56 31 54
f 57 54 43
f 57 43 19
f 57 19 54
f 58 54 19
f 58 41 53
f 58 53 54
f 58 50 41
f 58 19 50