# https://github.com/mikedh/trimesh
v 0.14567575 0.26320116 0.14393939
v 0.17977724 0.30019320 0.05444099
v 0.06991817 0.33895873 0.14393939
v -0.11190001 0.35411025 0.05303030
v -0.17250607 0.26320116 -0.23484849
v -0.05129395 0.36926176 -0.15909091
v -0.17927210 0.27357526 0.14784225
v 0.14567575 0.32380722 0.12878787
v 0.00931211 0.26320116 -0.15909091
v 0.03961514 0.36926176 0.02272727
v -0.17250607 0.33895873 -0.12878788
v 0.13052423 0.32380722 0.14393939
v -0.12705152 0.32380722 0.14393939
v 0.17681110 0.29499906 0.08370268
v 0.14567575 0.26320116 0.08333333
v 0.00904330 0.35449360 -0.15685364
v -0.06644546 0.36926176 -0.00757576
v -0.00583940 0.35411025 0.11363636
v 0.10022120 0.35411025 0.06818181
v -0.12705152 0.33895873 -0.23484849
v -0.17250607 0.32380722 -0.21969697
v -0.06644546 0.33895873 0.14393939
v -0.17250607 0.32380722 0.08333333
v 0.17597878 0.32380722 0.06818181
v 0.03961514 0.36926176 0.00757575
v -0.14220304 0.35411025 -0.03787879
v -0.03614243 0.36926176 0.02272727
v 0.11537272 0.33895873 0.11363636
v 0.05476666 0.35411025 0.09848484
v -0.12705152 0.35411025 -0.15909091
v -0.06644546 0.35411025 -0.21969697
v -0.15735455 0.32380722 -0.23484849
v -0.08159698 0.35411025 0.08333333
v -0.17250607 0.33895873 -0.00757576
v -0.17250607 0.30865570 0.12878787
v -0.12705152 0.33895873 0.09848484
v 0.17597878 0.32380722 0.05303030
v -0.12705152 0.35411025 0.02272727
v -0.08159698 0.36926176 -0.11363637
v 0.14567575 0.33895873 0.06818181
v 0.08506969 0.35411025 0.08333333
v 0.10022120 0.33895873 0.12878787
v 0.00931211 0.35411025 0.11363636
v -0.11190001 0.35411025 -0.18939394
v -0.14220304 0.35411025 -0.09848485
v -0.15735455 0.33895873 -0.17424243
v -0.06502656 0.33207252 -0.23273585
v -0.05129395 0.35411025 0.09848484
v -0.15735455 0.30865570 0.14393939
v -0.09674849 0.33895873 0.12878787
v -0.15735455 0.32380722 0.11363636
v -0.08159698 0.36926176 -0.03787879
v -0.15735455 0.33895873 0.03787878
v 0.14567575 0.33895873 0.05303030
v -0.08159698 0.35411025 -0.21969697
v -0.06644546 0.26320116 -0.23484849
v 0.10022120 0.35411025 0.05303030
f 7 5 1
f 9 1 5
f 12 7 1
f 12 3 7
f 12 1 8
f 14 8 1
f 15 9 2
f 15 1 9
f 15 14 1
f 15 2 14
f 16 2 9
f 17 10 6
f 21 5 7
f 21 7 11
f 22 13 7
f 22 7 3
f 22 3 18
f 24 14 2
f 24 8 14
f 25 16 6
f 25 6 10
f 25 10 19
f 27 17 4
f 27 18 10
f 27 10 17
f 28 12 8
f 31 6 16
f 32 21 20
f 32 20 5
f 32 5 21
f 33 27 4
f 34 11 7
f 34 7 23
f 34 26 11
f 35 23 7
f 37 24 2
f 37 2 16
f 38 26 34
f 39 17 6
f 40 19 28
f 40 24 37
f 40 28 8
f 40 8 24
f 41 28 19
f 41 29 3
f 41 19 10
f 41 10 29
f 42 3 12
f 42 12 28
f 42 41 3
f 42 28 41
f 43 18 3
f 43 3 29
f 43 29 10
f 43 10 18
f 44 39 6
f 44 30 39
f 45 30 11
f 45 11 26
f 45 39 30
f 45 26 39
f 46 21 11
f 46 11 30
f 46 20 21
f 46 44 20
f 46 30 44
f 47 31 16
f 47 16 9
f 47 20 31
f 48 22 18
f 48 18 27
f 48 27 33
f 49 35 7
f 49 7 13
f 49 13 35
f 50 13 22
f 50 33 4
f 50 4 36
f 50 48 33
f 50 22 48
f 51 35 13
f 51 50 36
f 51 13 50
f 51 36 23
f 51 23 35
f 52 26 38
f 52 39 26
f 52 17 39
f 52 38 4
f 52 4 17
f 53 38 34
f 53 34 23
f 53 4 38
f 53 36 4
f 53 23 36
f 54 19 40
f 54 16 25
f 54 40 37
f 54 37 16
f 55 31 20
f 55 20 44
f 55 44 6
f 55 6 31
f 56 47 9
f 56 9 5
f 56 5 20
f 56 20 47
f 57 54 25
f 57 25 19
f 57 19 54