# https://github.com/mikedh/trimesh
v 0.30322094 0.15269720 -0.23185854
v 0.31234242 0.15714055 -0.25000000
v 0.14567575 0.32380722 -0.23484849
v -0.09674849 0.33895873 -0.25000000
v -0.15325242 0.15325940 -0.42570806
v -0.15735455 0.15714055 -0.23484849
v 0.29719090 0.20259510 -0.23484849
v 0.03824391 0.15067399 -0.46506632
v -0.09298338 0.32632640 -0.23043284
v -0.13649738 0.15117152 -0.43543911
v -0.15735455 0.30865570 -0.28030304
v 0.31234242 0.17229207 -0.23484849
v 0.20628181 0.29350419 -0.23484849
v 0.17597878 0.15714055 -0.43181819
v 0.05476666 0.27835267 -0.38636364
v -0.13685167 0.31120954 -0.23101291
v 0.10022120 0.33895873 -0.23484849
v -0.15735455 0.18744358 -0.43181819
v 0.26688787 0.20259510 -0.31060606
v 0.26688787 0.15714055 -0.34090909
v 0.08506969 0.18744358 -0.46212122
v 0.16082726 0.29350419 -0.31060606
v -0.08159698 0.29350419 -0.35606061
v -0.15428117 0.30254883 -0.23273676
v -0.14220304 0.32380722 -0.25000000
v 0.03961514 0.33895873 -0.28030304
v -0.11190001 0.15714055 -0.46212122
v 0.31234242 0.17229207 -0.25000000
v 0.23658484 0.26320116 -0.26515152
v 0.22143333 0.20259510 -0.37121213
v 0.11537272 0.15714055 -0.46212122
v 0.16082726 0.30865570 -0.28030304
v -0.12705152 0.30865570 -0.31060606
v -0.05129395 0.21774661 -0.44696970
v -0.05129395 0.33895873 -0.28030304
v 0.10022120 0.30865570 -0.32575758
v -0.14220304 0.17229207 -0.44696970
v -0.03494229 0.15079210 -0.46498030
v 0.26688787 0.17229207 -0.34090909
v 0.29719090 0.20259510 -0.25000000
v 0.16082726 0.18744358 -0.43181819
v 0.23658484 0.24804964 -0.29545455
v 0.03961514 0.17229207 -0.47727273
v 0.20628181 0.29350419 -0.25000000
v 0.14567575 0.32380722 -0.25000000
v -0.14220304 0.26320116 -0.37121213
v -0.05129395 0.27835267 -0.38636364
v 0.05476666 0.21774661 -0.44696970
v -0.08159698 0.33895873 -0.26515152
v -0.06644546 0.32380722 -0.31060606
v 0.14567575 0.24804964 -0.38636364
v 0.05476666 0.30865570 -0.34090909
v -0.08159698 0.18744358 -0.46212122
v 0.17597878 0.17229207 -0.43181819
v 0.22143333 0.21774661 -0.35606061
v 0.25173636 0.23289813 -0.29545455
v 0.11537272 0.17229207 -0.46212122
v -0.03614243 0.17229207 -0.47727273
v 0.20628181 0.26320116 -0.31060606
v 0.08506969 0.33895873 -0.26515152
v -0.15735455 0.26320116 -0.35606061
v -0.11190001 0.26320116 -0.38636364
v -0.09674849 0.30865570 -0.32575758
v -0.09674849 0.32380722 -0.29545455
f 10 6 5
f 10 1 6
f 10 8 1
f 12 7 1
f 12 1 2
f 13 1 7
f 13 9 1
f 13 3 9
f 16 6 1
f 16 1 9
f 17 9 3
f 17 4 9
f 18 5 6
f 18 6 11
f 20 2 1
f 20 1 8
f 20 8 14
f 24 11 6
f 24 6 16
f 25 16 9
f 25 9 4
f 25 24 16
f 25 4 11
f 25 11 24
f 26 4 17
f 27 10 5
f 28 12 2
f 28 2 20
f 28 7 12
f 31 14 8
f 33 11 4
f 35 4 26
f 36 32 22
f 37 27 5
f 37 5 18
f 38 8 10
f 38 10 27
f 39 28 20
f 39 20 14
f 40 7 28
f 40 13 7
f 40 39 19
f 40 28 39
f 43 31 8
f 44 3 13
f 44 22 32
f 44 29 42
f 44 40 29
f 44 13 40
f 45 17 3
f 45 44 32
f 45 3 44
f 46 33 23
f 47 15 34
f 48 34 15
f 48 43 34
f 48 21 43
f 49 33 4
f 49 4 35
f 50 49 35
f 50 47 23
f 51 36 22
f 51 15 36
f 51 30 41
f 51 48 15
f 51 41 21
f 51 21 48
f 52 36 15
f 52 26 36
f 52 15 47
f 52 47 50
f 52 50 35
f 52 35 26
f 53 27 37
f 53 37 18
f 54 39 14
f 54 30 39
f 54 41 30
f 54 14 31
f 55 30 51
f 55 39 30
f 55 19 39
f 56 40 19
f 56 55 42
f 56 19 55
f 56 42 29
f 56 29 40
f 57 43 21
f 57 31 43
f 57 54 31
f 57 21 41
f 57 41 54
f 58 43 8
f 58 8 38
f 58 38 27
f 58 27 53
f 58 53 34
f 58 34 43
f 59 44 42
f 59 22 44
f 59 42 55
f 59 55 51
f 59 51 22
f 60 45 32
f 60 32 36
f 60 36 26
f 60 26 17
f 60 17 45
f 61 46 18
f 61 18 11
f 61 11 33
f 61 33 46
f 62 46 23
f 62 23 47
f 62 47 34
f 62 34 53
f 62 53 18
f 62 18 46
f 63 50 23
f 63 23 33
f 63 33 50
f 64 50 33
f 64 33 49
f 64 49 50