# https://github.com/mikedh/trimesh
v 0.31486835 -0.17005915 0.00589537
v 0.35779696 -0.08528369 -0.20454546
v 0.35779696 0.11168601 0.00757575
v 0.20628181 0.17229207 0.00757575
v 0.20628181 -0.17619278 -0.23484849
v 0.31234242 0.17229207 -0.23484849
v 0.20628181 -0.17619278 0.00757575
v 0.37294848 -0.05498066 -0.02272728
v 0.31234242 -0.17619278 -0.23484849
v 0.35779696 0.09653449 -0.18939394
v 0.34264545 0.15714055 0.00757575
v 0.20628181 0.17229207 -0.23484849
v 0.34264545 -0.16104127 0.00757575
v 0.32749393 -0.17619278 -0.18939394
v 0.34264545 -0.11558672 -0.23484849
v 0.37294848 0.02077692 -0.14393940
v 0.31575609 0.16611490 0.00626820
v 0.34264545 0.15714055 -0.15909091
v 0.37294848 -0.02467763 0.00757575
v 0.35779696 -0.13073824 -0.11363637
v 0.32749393 -0.16104127 -0.21969697
v 0.35779696 0.05107995 -0.21969697
v 0.37294848 -0.05498066 -0.11363637
v 0.37294848 0.06623146 -0.08333334
v 0.32749393 0.17229207 -0.20454546
v 0.35779696 0.12683752 -0.11363637
v 0.35779696 -0.11558672 0.00757575
v 0.34264545 -0.16104127 -0.14393940
v 0.34264545 -0.14588975 -0.18939394
v 0.35779696 -0.05498066 -0.21969697
v 0.35779696 0.08138298 -0.20454546
v 0.34264545 0.11168601 -0.23484849
v 0.35779696 -0.11558672 -0.15909091
v 0.37294848 0.05107995 -0.12878788
v 0.37294848 0.05107995 -0.02272728
v 0.34264545 0.12683752 -0.21969697
v 0.35779696 0.12683752 -0.02272728
v 0.35779696 0.11168601 -0.15909091
v 0.35779696 -0.13073824 -0.02272728
v 0.37294848 -0.02467763 -0.14393940
v 0.37294848 0.02077692 0.00757575
v 0.37294848 0.06623146 -0.05303031
f 7 3 4
f 7 4 5
f 9 7 5
f 9 5 6
f 11 4 3
f 12 6 5
f 12 5 4
f 12 4 6
f 13 7 1
f 13 3 7
f 14 1 7
f 14 7 9
f 14 13 1
f 15 9 6
f 17 4 11
f 19 3 13
f 19 8 16
f 21 14 9
f 21 9 15
f 23 16 8
f 23 8 20
f 24 19 16
f 25 17 11
f 25 6 4
f 25 4 17
f 25 11 18
f 26 18 11
f 27 19 13
f 27 8 19
f 28 20 13
f 28 13 14
f 29 15 2
f 29 20 28
f 29 28 14
f 29 21 15
f 29 14 21
f 30 2 15
f 30 15 22
f 30 22 16
f 32 22 15
f 32 15 6
f 32 31 22
f 32 6 25
f 32 10 31
f 33 23 20
f 33 2 23
f 33 29 2
f 33 20 29
f 34 24 16
f 34 26 24
f 34 31 10
f 34 16 22
f 34 22 31
f 35 19 24
f 36 25 18
f 36 18 10
f 36 32 25
f 36 10 32
f 37 26 11
f 37 11 3
f 37 24 26
f 37 3 35
f 38 10 18
f 38 18 26
f 38 34 10
f 38 26 34
f 39 20 8
f 39 8 27
f 39 27 13
f 39 13 20
f 40 23 2
f 40 2 30
f 40 30 16
f 40 16 23
f 41 35 3
f 41 3 19
f 41 19 35
f 42 37 35
f 42 35 24
f 42 24 37