# https://github.com/mikedh/trimesh
v 0.11537272 -0.35801096 0.00757575
v 0.20656005 -0.29780695 -0.09851156
v 0.20378344 -0.29381901 0.00700361
v -0.17934717 -0.30977900 0.00945852
v -0.11190001 -0.34285945 -0.23484849
v -0.17070251 -0.29447531 -0.23368945
v 0.20628181 -0.31255642 0.00757575
v 0.11537272 -0.34285945 -0.23484849
v -0.05129395 -0.37316248 -0.02272728
v 0.11537272 -0.29740490 -0.23484849
v -0.17250607 -0.32770793 -0.20454546
v 0.19113029 -0.32770793 0.00757575
v -0.02099092 -0.37316248 0.00757575
v 0.02446363 -0.37316248 -0.14393940
v -0.17250607 -0.31255642 -0.23484849
v -0.15735455 -0.34285945 0.00757575
v -0.12705152 -0.35801096 -0.12878788
v 0.13052423 -0.35801096 -0.09848485
v 0.19113029 -0.32770793 -0.09848485
v 0.00931211 -0.37316248 0.00757575
v 0.05476666 -0.35801096 -0.21969697
v -0.15735455 -0.32770793 -0.23484849
v -0.11190001 -0.35801096 0.00757575
v -0.15735455 -0.34285945 -0.15909091
v -0.05129395 -0.37316248 -0.12878788
v 0.13052423 -0.35801096 -0.05303031
v 0.11537272 -0.35801096 -0.15909091
v -0.12705152 -0.35801096 -0.02272728
v -0.12705152 -0.34285945 -0.21969697
v -0.05129395 -0.35801096 -0.21969697
v 0.16082726 -0.34285945 -0.00757576
v 0.05476666 -0.37316248 -0.03787879
v -0.09674849 -0.35801096 -0.18939394
v -0.03614243 -0.37316248 -0.14393940
v 0.03961514 -0.37316248 -0.00757576
v 0.05476666 -0.37316248 -0.11363637
v -0.08159698 -0.35801096 -0.20454546
f 6 4 3
f 7 3 4
f 7 2 3
f 10 6 3
f 10 3 2
f 10 2 8
f 10 8 5
f 12 7 4
f 12 4 1
f 14 13 9
f 15 10 5
f 15 6 10
f 15 11 4
f 15 4 6
f 16 4 11
f 19 2 7
f 19 7 12
f 19 12 18
f 19 8 2
f 20 1 4
f 20 4 13
f 20 13 14
f 21 5 8
f 22 15 5
f 22 11 15
f 23 13 4
f 23 4 16
f 23 9 13
f 24 17 16
f 24 16 11
f 24 11 22
f 25 14 9
f 25 9 17
f 26 18 12
f 27 19 18
f 27 8 19
f 27 21 8
f 28 17 9
f 28 9 23
f 28 23 16
f 28 16 17
f 29 24 22
f 29 22 5
f 30 21 14
f 30 5 21
f 31 26 12
f 31 12 1
f 31 1 26
f 32 26 1
f 32 20 14
f 32 18 26
f 33 25 17
f 33 17 24
f 33 24 29
f 33 29 5
f 34 30 14
f 34 14 25
f 34 25 33
f 35 32 1
f 35 1 20
f 35 20 32
f 36 27 18
f 36 18 32
f 36 32 14
f 36 14 21
f 36 21 27
f 37 33 5
f 37 5 30
f 37 34 33
f 37 30 34