# https://github.com/mikedh/trimesh
v 0.05476666 -0.35801096 0.08333333
v 0.18718739 -0.30493159 0.00668041
v 0.19113029 -0.23679884 0.26515151
v -0.17250607 -0.00952611 0.26515151
v -0.17250607 -0.00952611 0.00757575
v -0.17250607 -0.25195036 0.26515151
v 0.19113029 -0.31255642 0.08333333
v -0.15735455 -0.34285945 0.00757575
v 0.19113029 -0.00952611 0.00757575
v 0.05476666 -0.29740490 0.26515151
v -0.20280910 -0.28225339 0.14393939
v 0.14567575 -0.34285945 0.00757575
v -0.16742218 -0.31742002 0.00623808
v 0.19113029 -0.00952611 0.26515151
v 0.14567575 -0.29740490 0.20454545
v -0.06644546 -0.32770793 0.18939393
v -0.20167788 -0.26572574 0.12826092
v 0.11537272 -0.34285945 0.09848484
v 0.17597878 -0.32770793 0.05303030
v -0.11190001 -0.35801096 0.00757575
v 0.09645571 -0.34404855 0.00596897
v 0.17597878 -0.28225339 0.20454545
v 0.11537272 -0.28225339 0.26515151
v 0.05476666 -0.34285945 0.14393939
v -0.05129395 -0.29740490 0.26515151
v -0.17250607 -0.31255642 0.12878787
v 0.10022120 -0.35801096 0.03787878
v 0.16082726 -0.31255642 0.14393939
v -0.05129395 -0.35801096 0.08333333
v 0.16893256 -0.31505641 0.00587640
v 0.19113029 -0.28225339 0.17424242
v 0.10022120 -0.31255642 0.20454545
v 0.17597878 -0.25195036 0.26515151
v 0.03961514 -0.31255642 0.23484848
v 0.08506969 -0.34285945 0.12878787
v -0.11190001 -0.29740490 0.23484848
v -0.17250607 -0.32770793 0.06818181
v -0.17250607 -0.29740490 0.17424242
v 0.14567575 -0.34285945 0.03787878
v 0.14567575 -0.32770793 0.11363636
v -0.05129395 -0.34285945 0.14393939
v 0.08506969 -0.29740490 0.25000000
v 0.13052423 -0.29740490 0.21969696
v -0.03614243 -0.31255642 0.23484848
v 0.05476666 -0.32770793 0.18939393
v -0.11190001 -0.28225339 0.26515151
v -0.08159698 -0.31255642 0.21969696
v -0.18765758 -0.29740490 0.14393939
v -0.11190001 -0.35801096 0.02272727
v -0.08159698 -0.34285945 0.12878787
v 0.08506969 -0.32770793 0.17424242
v -0.15735455 -0.34285945 0.02272727
v -0.09674849 -0.35801096 0.05303030
v -0.08159698 -0.35801096 0.06818181
v -0.12705152 -0.34285945 0.08333333
v -0.15735455 -0.32770793 0.09848484
f 6 3 4
f 9 7 2
f 9 3 7
f 9 5 4
f 10 3 6
f 11 6 4
f 13 8 11
f 14 9 4
f 14 4 3
f 14 3 9
f 17 11 4
f 17 4 5
f 17 13 11
f 17 5 13
f 19 12 2
f 19 2 7
f 20 8 13
f 21 20 13
f 21 12 20
f 23 3 10
f 25 10 6
f 27 18 1
f 27 20 12
f 27 1 20
f 28 22 15
f 29 20 1
f 29 1 24
f 30 2 12
f 30 12 21
f 30 9 2
f 30 5 9
f 30 21 13
f 30 13 5
f 31 7 3
f 31 3 22
f 31 28 7
f 31 22 28
f 33 22 3
f 33 3 23
f 33 15 22
f 34 10 25
f 35 24 1
f 35 1 18
f 37 11 8
f 38 36 6
f 38 16 36
f 39 19 18
f 39 18 27
f 39 27 12
f 39 12 19
f 40 18 19
f 40 19 7
f 40 7 28
f 40 28 15
f 40 15 18
f 41 29 24
f 41 24 16
f 42 23 10
f 42 10 34
f 43 32 15
f 43 42 32
f 43 23 42
f 43 33 23
f 43 15 33
f 44 34 25
f 44 25 16
f 44 16 34
f 45 24 35
f 45 34 16
f 45 16 24
f 46 36 25
f 46 25 6
f 46 6 36
f 47 36 16
f 47 16 25
f 47 25 36
f 48 37 26
f 48 11 37
f 48 26 38
f 48 38 6
f 48 6 11
f 49 8 20
f 49 20 29
f 50 41 16
f 50 29 41
f 51 45 35
f 51 34 45
f 51 42 34
f 51 32 42
f 51 35 18
f 51 18 15
f 51 15 32
f 52 37 8
f 52 8 49
f 53 49 29
f 53 52 49
f 54 53 29
f 54 29 50
f 54 50 53
f 55 37 52
f 55 52 53
f 55 53 50
f 55 50 16
f 55 16 38
f 56 26 37
f 56 37 55
f 56 55 38
f 56 38 26