# https://github.com/mikedh/trimesh
v 0.22143333 -0.22164733 0.25000000
v 0.35779696 -0.11558672 0.00757575
v 0.29719090 0.05107995 0.26515151
v 0.19113029 0.17229207 0.26515151
v 0.19113029 -0.17619278 0.00757575
v 0.34264545 0.15714055 0.00757575
v 0.20628181 -0.22164733 0.26515151
v 0.28203939 -0.11558672 0.26515151
v 0.31486835 -0.17005915 0.00589537
v 0.35779696 0.02077692 0.09848484
v 0.25173636 0.17229207 0.26515151
v 0.19113029 0.17229207 0.00757575
v 0.19587217 -0.22679649 0.22265074
v 0.31234242 -0.17619278 0.11363636
v 0.25173636 -0.17619278 0.26515151
v 0.35779696 0.11168601 0.00757575
v 0.34264545 -0.05498066 0.14393939
v 0.32749393 0.15714055 0.09848484
v 0.18408270 -0.21453662 0.25954729
v 0.32749393 0.17229207 0.06818181
v 0.31575609 0.16611490 0.00626820
v 0.32749393 -0.17619278 0.05303030
v 0.28203939 -0.17619278 0.20454545
v 0.35779696 -0.08528369 0.06818181
v 0.31234242 -0.10043521 0.20454545
v 0.31234242 0.03592843 0.23484848
v 0.29719090 0.12683752 0.21969696
v 0.35779696 0.08138298 0.06818181
v 0.28203939 0.17229207 0.20454545
v 0.35779696 0.11168601 0.02272727
v 0.23658484 -0.20649581 0.25000000
v 0.35779696 -0.02467763 0.09848484
v 0.34264545 -0.14588975 0.05303030
v 0.34264545 -0.10043521 0.11363636
v 0.31234242 -0.16104127 0.14393939
v 0.31234242 -0.02467763 0.23484848
v 0.28203939 0.11168601 0.26515151
v 0.31234242 0.08138298 0.21969696
v 0.29719090 0.15714055 0.18939393
v 0.34264545 0.15714055 0.02272727
v 0.34264545 0.12683752 0.08333333
v 0.35779696 -0.11558672 0.02272727
v 0.32749393 -0.08528369 0.17424242
v 0.34264545 -0.11558672 0.09848484
v 0.29719090 -0.08528369 0.25000000
v 0.34264545 0.05107995 0.14393939
v 0.32749393 -0.05498066 0.18939393
v 0.32749393 -0.14588975 0.11363636
v 0.29719090 -0.03982914 0.26515151
v 0.32749393 0.05107995 0.18939393
v 0.34264545 0.08138298 0.12878787
f 7 3 4
f 8 3 7
f 11 4 3
f 12 4 11
f 12 9 5
f 13 1 7
f 13 5 9
f 15 8 7
f 16 2 9
f 16 10 2
f 19 12 5
f 19 4 12
f 19 5 13
f 19 13 7
f 19 7 4
f 20 12 11
f 21 9 12
f 21 16 9
f 21 6 16
f 21 20 6
f 21 12 20
f 22 13 9
f 22 1 13
f 22 14 1
f 22 9 2
f 23 8 15
f 24 2 10
f 25 8 23
f 28 10 16
f 29 20 11
f 30 16 6
f 30 28 16
f 31 23 15
f 31 1 14
f 31 14 23
f 31 15 7
f 31 7 1
f 32 24 10
f 32 17 24
f 33 22 2
f 33 14 22
f 34 24 17
f 35 25 23
f 35 23 14
f 35 14 33
f 36 26 3
f 37 27 11
f 37 11 3
f 38 3 26
f 38 37 3
f 38 27 37
f 39 18 20
f 39 20 29
f 39 27 38
f 39 29 11
f 39 11 27
f 40 30 6
f 40 6 20
f 41 28 30
f 41 39 38
f 41 18 39
f 41 30 40
f 41 40 20
f 41 20 18
f 42 33 2
f 42 2 24
f 42 24 33
f 43 34 17
f 43 25 35
f 44 33 24
f 44 24 34
f 44 34 43
f 45 8 25
f 45 25 43
f 46 10 28
f 47 43 17
f 47 45 43
f 47 17 32
f 47 26 36
f 47 32 10
f 48 35 33
f 48 33 44
f 48 44 43
f 48 43 35
f 49 36 3
f 49 3 8
f 49 8 45
f 49 47 36
f 49 45 47
f 50 38 26
f 50 10 46
f 50 47 10
f 50 26 47
f 51 41 38
f 51 50 46
f 51 38 50
f 51 46 28
f 51 28 41