# https://github.com/mikedh/trimesh
v 0.21393813 0.25548537 0.12560364
v 0.23658484 0.27835267 -0.21969697
v 0.22143333 0.30865570 0.00757575
v 0.05476666 0.36926176 0.00757575
v -0.06644546 0.26320116 -0.23484849
v 0.13052423 0.35411025 -0.14393940
v 0.16082726 0.30865570 0.14393939
v 0.23658484 0.27835267 0.08333333
v 0.22954990 0.25640002 -0.21722340
v 0.22143333 0.30865570 -0.14393940
v 0.13052423 0.35411025 0.00757575
v -0.06644546 0.35411025 -0.21969697
v 0.00931211 0.26320116 0.08333333
v 0.23658484 0.29350419 0.02272727
v 0.22143333 0.27835267 0.12878787
v 0.21867279 0.26011564 -0.23352919
v 0.22970062 0.25656947 0.08113247
v 0.17597878 0.33895873 -0.02272728
v 0.16082726 0.32380722 -0.23484849
v 0.08506969 0.36926176 -0.03787879
v 0.10022120 0.35411025 0.05303030
v -0.06644546 0.26320116 -0.15909091
v 0.14567575 0.26320116 0.14393939
v 0.00931211 0.30865570 0.08333333
v 0.23658484 0.29350419 -0.17424243
v 0.20628181 0.30865570 0.06818181
v 0.17597878 0.33895873 -0.11363637
v 0.20628181 0.32380722 -0.08333334
v 0.05476666 0.35411025 -0.23484849
v 0.22143333 0.27835267 -0.23484849
v -0.02099092 0.36926176 -0.17424243
v 0.16082726 0.33895873 0.03787878
v 0.06991817 0.36926176 -0.00757576
v 0.20253284 0.25874807 0.14215031
v 0.00885658 0.35622507 0.00598543
v -0.06553186 0.34853204 -0.15838217
v 0.14028691 0.29679604 0.14030597
v 0.19113029 0.32380722 -0.17424243
v 0.19113029 0.30865570 -0.23484849
v 0.17597878 0.30865570 0.12878787
v 0.19113029 0.32380722 0.03787878
v 0.22143333 0.29350419 0.08333333
v 0.20628181 0.32380722 -0.06818182
v 0.10022120 0.35411025 -0.20454546
v -0.05129395 0.35411025 -0.23484849
v 0.11537272 0.35411025 0.03787878
v 0.20628181 0.27835267 0.14393939
v -0.02099092 0.36926176 -0.15909091
v 0.16082726 0.33895873 -0.17424243
v 0.22143333 0.29350419 -0.21969697
v 0.19113029 0.29350419 0.14393939
v 0.16082726 0.32380722 0.09848484
v 0.11537272 0.33895873 -0.23484849
v 0.02446363 0.36926176 -0.17424243
v -0.06502656 0.33207252 -0.23273585
v 0.14567575 0.33895873 -0.20454546
v 0.20628181 0.30865570 -0.20454546
v 0.08506969 0.35411025 -0.21969697
v 0.06991817 0.36926176 -0.12878788
v 0.08506969 0.36926176 -0.08333334
f 9 1 5
f 14 8 2
f 14 10 3
f 16 9 5
f 16 2 9
f 17 1 9
f 17 15 1
f 17 8 15
f 17 9 2
f 17 2 8
f 18 6 11
f 20 11 6
f 22 5 1
f 22 1 13
f 22 12 5
f 24 22 13
f 24 21 4
f 24 7 21
f 24 13 23
f 25 14 2
f 25 10 14
f 26 14 3
f 27 6 18
f 28 3 10
f 28 27 18
f 29 19 5
f 30 2 16
f 30 16 5
f 30 5 19
f 31 4 20
f 32 18 11
f 33 20 4
f 33 4 21
f 34 23 13
f 34 13 1
f 34 1 15
f 35 24 4
f 36 12 22
f 36 22 24
f 36 24 35
f 37 24 23
f 37 23 7
f 37 7 24
f 38 28 10
f 38 27 28
f 39 30 19
f 40 26 32
f 41 26 3
f 41 3 18
f 41 32 26
f 41 18 32
f 42 15 8
f 42 8 14
f 42 14 26
f 43 28 18
f 43 18 3
f 43 3 28
f 45 29 5
f 45 31 29
f 45 12 31
f 46 32 11
f 46 33 21
f 46 11 20
f 46 20 33
f 47 34 15
f 47 7 23
f 47 23 34
f 48 35 4
f 48 4 31
f 48 36 35
f 48 31 12
f 48 12 36
f 49 6 27
f 49 27 38
f 49 38 39
f 50 25 2
f 50 2 30
f 50 30 39
f 51 40 7
f 51 15 42
f 51 42 26
f 51 26 40
f 51 47 15
f 51 7 47
f 52 21 7
f 52 7 40
f 52 46 21
f 52 40 32
f 52 32 46
f 53 19 29
f 54 29 31
f 54 31 20
f 55 45 5
f 55 5 12
f 55 12 45
f 56 44 6
f 56 6 49
f 56 53 44
f 56 19 53
f 56 49 39
f 56 39 19
f 57 50 39
f 57 39 38
f 57 25 50
f 57 38 10
f 57 10 25
f 58 53 29
f 58 44 53
f 58 29 54
f 59 54 20
f 59 6 44
f 59 58 54
f 59 44 58
f 60 59 20
f 60 20 6
f 60 6 59