# https://github.com/mikedh/trimesh
v 0.06991817 -0.00952611 -0.41666667
v 0.06724921 -0.00861789 -0.49460657
v 0.06991817 0.06623146 -0.50757576
v -0.06644546 0.06623146 -0.35606061
v -0.06644546 -0.00952611 -0.35606061
v 0.06991817 0.06623146 -0.41666667
v -0.06404812 -0.00903861 -0.49465020
v 0.00931211 0.06623146 -0.35606061
v -0.06644546 0.06623146 -0.50757576
v 0.00931211 -0.00952611 -0.35606061
f 1 2 3
f 6 1 3
f 6 3 4
f 7 2 1
f 7 1 5
f 7 3 2
f 8 4 5
f 8 6 4
f 8 1 6
f 9 7 5
f 9 5 4
f 9 4 3
f 9 3 7
f 10 8 5
f 10 5 1
f 10 1 8