# https://github.com/mikedh/trimesh
v 0.19113029 -0.00952611 0.26515151
v 0.20628181 -0.00952611 -0.23484849
v 0.20628181 0.17229207 0.00757575
v -0.17250607 0.17229207 0.26515151
v -0.17250607 -0.00952611 -0.23484849
v 0.19113029 0.17229207 0.26515151
v 0.20628181 -0.00952611 0.00757575
v -0.17250607 -0.00952611 0.26515151
v -0.17250607 0.17229207 -0.23484849
v 0.20628181 0.17229207 -0.23484849
f 5 2 1
f 6 1 3
f 6 3 4
f 6 4 1
f 7 1 2
f 7 2 3
f 7 3 1
f 8 5 1
f 8 1 4
f 8 4 5
f 9 2 5
f 9 5 4
f 9 4 3
f 10 9 3
f 10 3 2
f 10 2 9