# https://github.com/mikedh/trimesh
v -0.17250607 -0.31255642 -0.23484849
v -0.15206556 -0.24260869 -0.34792707
v -0.15428117 0.30254883 -0.23273676
v -0.17250607 0.30865570 -0.26515152
v -0.33917274 -0.05498066 -0.28030304
v -0.15735455 0.11168601 -0.46212122
v -0.15096700 -0.30105087 -0.24551596
v -0.26341516 -0.22164733 -0.29545455
v -0.32568475 0.09269794 -0.23039129
v -0.15042184 0.03445117 -0.46470797
v -0.15735455 0.27835267 -0.32575758
v -0.15735455 -0.26710187 -0.34090909
v -0.15366481 -0.30422242 -0.23249477
v -0.29371819 -0.20649581 -0.23484849
v -0.29371819 0.20259510 -0.23484849
v -0.21796061 -0.11558672 -0.43181819
v -0.15096592 -0.02378245 -0.46539729
v -0.15735455 0.30865570 -0.26515152
v -0.15735455 0.17229207 -0.43181819
v -0.17250607 -0.31255642 -0.25000000
v -0.16662049 0.29703982 -0.23097234
v -0.30886970 -0.16104127 -0.28030304
v -0.33917274 -0.10043521 -0.25000000
v -0.32536575 -0.09668000 -0.23036089
v -0.20280910 -0.29740490 -0.23484849
v -0.23311213 0.23289813 -0.32575758
v -0.30886970 0.09653449 -0.32575758
v -0.20280910 -0.20649581 -0.38636364
v -0.15735455 -0.17619278 -0.43181819
v -0.17250607 0.03592843 -0.47727273
v -0.21796061 -0.26710187 -0.29545455
v -0.20280910 0.29350419 -0.23484849
v -0.29371819 -0.20649581 -0.25000000
v -0.29371819 -0.08528369 -0.35606061
v -0.33917274 0.09653449 -0.25000000
v -0.32402122 -0.10043521 -0.29545455
v -0.32402122 -0.14588975 -0.23484849
v -0.17250607 0.27835267 -0.32575758
v -0.29371819 0.18744358 -0.28030304
v -0.20280910 0.14198904 -0.43181819
v -0.17250607 -0.17619278 -0.43181819
v -0.17250607 -0.26710187 -0.34090909
v -0.23311213 -0.20649581 -0.35606061
v -0.21796061 -0.28225339 -0.26515152
v -0.27856667 0.21774661 -0.26515152
v -0.29371819 -0.17619278 -0.29545455
v -0.29371819 0.02077692 -0.37121213
v -0.33917274 0.05107995 -0.28030304
v -0.32402122 0.14198904 -0.23484849
v -0.33917274 -0.08528369 -0.26515152
v -0.29371819 -0.16104127 -0.31060606
v -0.32402122 -0.07013217 -0.31060606
v -0.32402122 -0.14588975 -0.25000000
v -0.18765758 0.27835267 -0.31060606
v -0.30886970 0.14198904 -0.29545455
v -0.17250607 0.11168601 -0.46212122
v -0.18765758 0.20259510 -0.40151516
v -0.21796061 -0.14588975 -0.41666667
v -0.17250607 -0.11558672 -0.46212122
v -0.20280910 -0.23679884 -0.35606061
v -0.20280910 -0.29740490 -0.25000000
v -0.27856667 -0.22164733 -0.26515152
v -0.29371819 0.20259510 -0.25000000
v -0.27856667 0.18744358 -0.31060606
f 10 3 7
f 11 3 10
f 12 2 7
f 13 7 3
f 17 10 7
f 17 7 2
f 18 11 4
f 18 4 3
f 18 3 11
f 19 11 10
f 19 10 6
f 20 12 7
f 20 13 1
f 20 7 13
f 21 13 3
f 21 15 9
f 24 9 23
f 24 21 9
f 24 13 21
f 25 1 13
f 25 24 14
f 25 13 24
f 25 20 1
f 29 17 2
f 29 2 12
f 30 6 10
f 30 10 17
f 32 21 3
f 32 3 4
f 32 15 21
f 33 25 14
f 35 23 9
f 35 5 23
f 37 24 23
f 37 14 24
f 37 33 14
f 38 4 11
f 38 11 19
f 41 29 12
f 42 12 20
f 42 41 12
f 42 28 41
f 43 31 8
f 44 8 31
f 45 32 4
f 46 33 22
f 47 30 16
f 47 16 34
f 47 40 30
f 47 27 40
f 48 35 27
f 48 5 35
f 48 47 5
f 48 27 47
f 49 35 9
f 49 9 15
f 49 39 35
f 50 23 5
f 50 36 22
f 50 22 23
f 51 36 34
f 51 22 36
f 51 46 22
f 51 43 8
f 51 8 46
f 52 34 36
f 52 47 34
f 52 5 47
f 52 50 5
f 52 36 50
f 53 37 23
f 53 23 22
f 53 22 33
f 53 33 37
f 54 38 26
f 54 4 38
f 54 45 4
f 54 26 45
f 55 27 35
f 55 35 39
f 56 40 19
f 56 19 6
f 56 6 30
f 56 30 40
f 57 38 19
f 57 19 40
f 57 26 38
f 58 41 28
f 58 16 41
f 58 28 43
f 58 43 51
f 58 51 34
f 58 34 16
f 59 41 16
f 59 16 30
f 59 30 17
f 59 17 29
f 59 29 41
f 60 42 31
f 60 31 43
f 60 43 28
f 60 28 42
f 61 20 25
f 61 25 33
f 61 44 31
f 61 42 20
f 61 31 42
f 62 8 44
f 62 46 8
f 62 33 46
f 62 61 33
f 62 44 61
f 63 45 39
f 63 15 32
f 63 32 45
f 63 49 15
f 63 39 49
f 64 45 26
f 64 39 45
f 64 55 39
f 64 40 27
f 64 27 55
f 64 57 40
f 64 26 57