# https://github.com/mikedh/trimesh
v -0.28813020 -0.15811162 0.14210208
v -0.26341516 -0.10043521 0.08333333
v -0.26341516 0.14198904 0.14393939
v -0.29371819 0.20259510 0.12878787
v -0.33917274 0.12683752 0.08333333
v -0.27852826 0.20256719 0.08332208
v -0.32402122 0.12683752 0.14393939
v -0.26341516 -0.10043521 0.14393939
v -0.32605722 -0.11134366 0.08005064
v -0.26341516 0.14198904 0.08333333
v -0.26938423 0.19667025 0.12544977
v -0.30886970 0.18744358 0.08333333
v -0.29371819 0.18744358 0.14393939
v -0.33917274 0.12683752 0.09848484
v -0.32402122 -0.13073824 0.14393939
v -0.29371819 -0.14588975 0.08333333
v -0.28465306 0.19596481 0.08096363
v -0.27200331 0.18363286 0.14174143
v -0.32402122 0.14198904 0.12878787
v -0.33917274 -0.11558672 0.11363636
v -0.30886970 0.18744358 0.09848484
v -0.30886970 -0.16104127 0.14393939
v -0.31455174 -0.14126161 0.08064566
v -0.29164243 -0.16000507 0.12813294
v -0.33917274 -0.10043521 0.12878787
v -0.32402122 -0.14588975 0.12878787
v -0.30886970 -0.16104127 0.12878787
v -0.33917274 0.09653449 0.12878787
f 8 1 2
f 8 2 3
f 8 3 7
f 10 3 2
f 11 6 4
f 11 10 6
f 11 3 10
f 12 4 6
f 13 7 3
f 13 4 7
f 14 12 5
f 15 8 7
f 17 6 10
f 17 12 6
f 17 9 5
f 17 5 12
f 17 10 2
f 18 11 4
f 18 4 13
f 18 13 3
f 18 3 11
f 19 14 7
f 19 7 4
f 19 4 14
f 20 14 5
f 20 5 9
f 21 14 4
f 21 4 12
f 21 12 14
f 22 1 8
f 22 8 15
f 23 2 16
f 23 17 2
f 23 9 17
f 23 20 9
f 24 16 2
f 24 2 1
f 24 1 22
f 25 20 15
f 25 15 7
f 25 14 20
f 26 22 15
f 26 15 20
f 26 20 23
f 27 23 16
f 27 16 24
f 27 24 22
f 27 26 23
f 27 22 26
f 28 25 7
f 28 7 14
f 28 14 25