# https://github.com/mikedh/trimesh
v 0.08506969 -0.28225339 0.28030303
v 0.28203939 -0.08528369 0.28030303
v 0.03961514 -0.05498066 0.50757575
v -0.09674849 0.27835267 0.28030303
v 0.15387972 0.23742050 0.25812105
v -0.27856667 -0.10043521 0.28030303
v 0.13052423 -0.16104127 0.41666666
v 0.26924491 -0.08131695 0.25865326
v 0.16082726 0.06623146 0.44696969
v -0.09674849 -0.22164733 0.37121212
v -0.14220304 0.06623146 0.46212121
v -0.26611634 0.09254446 0.25837827
v 0.19113029 -0.22164733 0.29545454
v 0.26688787 0.12683752 0.26515151
v 0.20628181 -0.07013217 0.40151515
v 0.08506969 0.18744358 0.41666666
v -0.15735455 -0.25195036 0.26515151
v 0.02446363 -0.13073824 0.47727272
v -0.17250607 -0.08528369 0.43181818
v -0.09274259 0.26601724 0.25886996
v -0.12168469 -0.25501453 0.25869865
v -0.20280910 0.17229207 0.34090909
v -0.24826364 0.03592843 0.35606060
v 0.10022120 -0.22164733 0.37121212
v 0.25173636 -0.16104127 0.26515151
v 0.27007569 0.07782709 0.25894479
v 0.26688787 0.03592843 0.32575757
v 0.20628181 -0.13073824 0.37121212
v 0.10022120 -0.03982914 0.49242424
v 0.06991817 0.27835267 0.29545454
v -0.08159698 0.17229207 0.43181818
v 0.03961514 0.09653449 0.49242424
v 0.20628181 0.21774661 0.28030303
v -0.05129395 -0.28225339 0.29545454
v -0.27856667 -0.10043521 0.26515151
v -0.09674849 -0.14588975 0.44696969
v -0.06644546 -0.00952611 0.50757575
v -0.17250607 -0.17619278 0.37121212
v -0.18765758 0.23289813 0.26515151
v -0.27856667 0.06623146 0.29545454
v -0.20280910 0.08138298 0.40151515
v -0.23311213 -0.05498066 0.37121212
v 0.13052423 -0.20649581 0.37121212
v 0.14567575 -0.25195036 0.29545454
v 0.06991817 -0.16104127 0.44696969
v 0.26688787 -0.13073824 0.26515151
v 0.16082726 -0.25195036 0.26515151
v 0.22143333 0.20259510 0.26515151
v 0.28203939 0.08138298 0.28030303
v 0.23658484 0.03592843 0.37121212
v 0.23658484 -0.03982914 0.37121212
v 0.14567575 -0.10043521 0.44696969
v 0.22143333 -0.19134430 0.29545454
v 0.26688787 -0.08528369 0.31060606
v 0.14567575 -0.05498066 0.46212121
v 0.10022120 0.27835267 0.26515151
v -0.15735455 0.15714055 0.40151515
v -0.02099092 0.24804964 0.35606060
v 0.13052423 0.14198904 0.43181818
v 0.10022120 0.03592843 0.49242424
v 0.03961514 0.12683752 0.47727272
v -0.05129395 0.09653449 0.49242424
v 0.13052423 0.21774661 0.35606060
v -0.11190001 -0.26710187 0.29545454
f 20 5 12
f 21 12 5
f 21 5 8
f 26 8 5
f 26 2 8
f 34 24 10
f 34 1 24
f 34 21 1
f 34 17 21
f 35 17 6
f 35 21 17
f 35 12 21
f 36 10 18
f 37 11 19
f 37 3 32
f 37 19 36
f 37 36 18
f 37 18 3
f 38 36 19
f 38 10 36
f 38 19 6
f 38 6 17
f 39 20 12
f 39 4 20
f 39 22 4
f 40 6 23
f 40 35 6
f 40 12 35
f 40 39 12
f 40 22 39
f 41 40 23
f 41 22 40
f 41 19 11
f 42 23 6
f 42 6 19
f 42 41 23
f 42 19 41
f 43 13 7
f 43 7 24
f 44 24 1
f 44 43 24
f 44 13 43
f 45 24 7
f 45 18 10
f 45 10 24
f 45 29 3
f 45 3 18
f 46 25 8
f 46 8 2
f 47 25 13
f 47 1 21
f 47 21 8
f 47 8 25
f 47 44 1
f 47 13 44
f 48 26 5
f 48 14 26
f 48 33 14
f 49 26 14
f 49 2 26
f 49 27 2
f 49 14 33
f 50 9 15
f 50 27 49
f 50 49 33
f 51 50 15
f 51 27 50
f 52 28 15
f 52 7 28
f 52 45 7
f 52 29 45
f 53 13 25
f 53 46 2
f 53 25 46
f 53 28 7
f 53 7 13
f 54 15 28
f 54 51 15
f 54 2 27
f 54 27 51
f 54 53 2
f 54 28 53
f 55 15 9
f 55 52 15
f 55 29 52
f 56 20 4
f 56 4 30
f 56 5 20
f 56 30 33
f 56 48 5
f 56 33 48
f 57 41 11
f 57 22 41
f 57 31 4
f 57 4 22
f 58 30 4
f 58 4 31
f 58 31 16
f 58 16 30
f 59 50 33
f 59 9 50
f 60 59 32
f 60 9 59
f 60 55 9
f 60 29 55
f 60 32 3
f 60 3 29
f 61 16 31
f 61 59 16
f 61 32 59
f 62 37 32
f 62 11 37
f 62 57 11
f 62 31 57
f 62 61 31
f 62 32 61
f 63 33 30
f 63 30 16
f 63 59 33
f 63 16 59
f 64 34 10
f 64 17 34
f 64 38 17
f 64 10 38