# https://github.com/mikedh/trimesh
v 0.29719090 0.17229207 0.14393939
v 0.32749393 0.18744358 -0.15909091
v 0.25173636 0.27835267 0.03787878
v 0.18173872 0.27109107 0.14699838
v 0.17597878 0.17229207 -0.23484849
v 0.23658484 0.26320116 0.12878787
v 0.32749393 0.18744358 0.02272727
v 0.30090755 0.16582310 -0.21657675
v 0.17597878 0.17229207 0.14393939
v 0.25173636 0.26320116 -0.23484849
v 0.22143333 0.26320116 0.14393939
v 0.31234242 0.21774661 -0.00757576
v 0.28203939 0.21774661 0.12878787
v 0.32749393 0.17229207 0.02272727
v 0.17597878 0.26320116 -0.23484849
v 0.31431622 0.16612035 -0.15735026
v 0.29378047 0.17032944 -0.23347834
v 0.29719090 0.18744358 0.14393939
v 0.25173636 0.27835267 -0.17424243
v 0.26688787 0.24804964 0.09848484
v 0.29719090 0.23289813 0.02272727
v 0.31234242 0.18744358 0.09848484
v 0.31234242 0.17229207 0.09848484
v 0.29719090 0.20259510 -0.23484849
v 0.31234242 0.21774661 -0.12878788
v 0.25173636 0.26320116 0.09848484
v 0.28203939 0.24804964 0.03787878
v 0.31234242 0.20259510 0.05303030
v 0.31234242 0.18744358 -0.21969697
v 0.28203939 0.24804964 -0.17424243
v 0.26688787 0.24804964 -0.23484849
v 0.29719090 0.23289813 -0.15909091
v 0.31234242 0.20259510 -0.18939394
f 6 3 4
f 9 1 4
f 9 5 8
f 11 6 4
f 12 7 2
f 14 2 7
f 15 9 4
f 15 5 9
f 15 10 5
f 16 9 8
f 16 1 9
f 16 8 2
f 16 2 14
f 17 8 5
f 18 11 4
f 18 4 1
f 18 13 6
f 18 6 11
f 19 10 15
f 19 15 4
f 19 4 3
f 20 6 13
f 21 7 12
f 21 19 3
f 22 14 7
f 22 18 1
f 22 13 18
f 22 21 20
f 22 20 13
f 23 16 14
f 23 1 16
f 23 22 1
f 23 14 22
f 24 17 5
f 24 5 10
f 25 12 2
f 25 21 12
f 26 20 3
f 26 3 6
f 26 6 20
f 27 21 3
f 27 3 20
f 27 20 21
f 28 22 7
f 28 7 21
f 28 21 22
f 29 2 8
f 29 8 17
f 29 17 24
f 30 10 19
f 31 24 10
f 31 10 30
f 32 25 2
f 32 31 30
f 32 30 19
f 32 19 21
f 32 21 25
f 33 32 2
f 33 2 29
f 33 31 32
f 33 29 24
f 33 24 31