# https://github.com/mikedh/trimesh
v -0.30886970 -0.07013217 -0.15909091
v -0.26341516 -0.00952611 -0.23484849
v -0.26341516 0.05107995 -0.15909091
v -0.35118419 0.05064135 -0.15848885
v -0.35432425 -0.05498066 -0.23484849
v -0.35432425 0.05107995 -0.23484849
v -0.34808681 -0.06878432 -0.15796828
v -0.26341516 -0.00952611 -0.15909091
v -0.30886970 -0.07013217 -0.23484849
v -0.26341516 0.05107995 -0.23484849
v -0.36947577 -0.02467763 -0.15909091
v -0.35432425 -0.07013217 -0.21969697
v -0.36947577 -0.02467763 -0.17424243
v -0.36947577 0.02077692 -0.15909091
v -0.33187372 -0.06845400 -0.23214602
v -0.36947577 0.02077692 -0.17424243
f 6 4 3
f 6 2 5
f 7 3 4
f 8 1 2
f 8 2 3
f 8 7 1
f 8 3 7
f 9 5 2
f 9 2 1
f 10 6 3
f 10 3 2
f 10 2 6
f 12 7 11
f 12 9 1
f 12 1 7
f 13 6 5
f 13 12 11
f 13 5 12
f 14 4 6
f 14 13 11
f 14 11 7
f 14 7 4
f 15 12 5
f 15 5 9
f 15 9 12
f 16 14 6
f 16 6 13
f 16 13 14