# https://github.com/mikedh/trimesh
v -0.06644546 -0.11558672 -0.41666667
v -0.06644546 -0.11558672 -0.44696970
v -0.06644546 0.15714055 -0.41666667
v -0.15875555 0.15844357 -0.41886821
v -0.15735455 -0.11558672 -0.46212122
v -0.15735455 -0.11558672 -0.41666667
v -0.06338485 0.03436640 -0.49284073
v -0.06644546 -0.03982914 -0.50757576
v -0.06644546 0.15714055 -0.47727273
v -0.06547009 -0.06910582 -0.48700465
v -0.15735455 0.08138298 -0.47727273
v -0.14220304 -0.11558672 -0.47727273
v -0.08159698 0.03592843 -0.50757576
v -0.15735455 -0.08528369 -0.47727273
v -0.15735455 0.15714055 -0.44696970
v -0.09453436 -0.11302652 -0.46947949
v -0.11190001 0.09653449 -0.49242425
v -0.14220304 0.02077692 -0.49242425
v -0.12705152 -0.07013217 -0.49242425
v -0.15735455 0.12683752 -0.46212122
v -0.12705152 0.15714055 -0.46212122
v -0.11190001 -0.08528369 -0.49242425
v -0.12705152 0.06623146 -0.49242425
v -0.14220304 -0.00952611 -0.49242425
v -0.14220304 0.11168601 -0.47727273
v -0.08159698 0.15714055 -0.47727273
v -0.08159698 -0.03982914 -0.50757576
v -0.11190001 0.14198904 -0.47727273
f 5 2 1
f 6 1 3
f 6 3 4
f 6 5 1
f 6 4 5
f 7 3 1
f 9 4 3
f 9 3 7
f 9 7 8
f 10 8 7
f 10 7 1
f 10 1 2
f 12 2 5
f 13 9 8
f 14 5 4
f 14 4 11
f 14 12 5
f 16 10 2
f 16 2 12
f 16 8 10
f 17 9 13
f 18 14 11
f 19 12 14
f 20 11 4
f 20 4 15
f 21 15 4
f 22 16 12
f 22 8 16
f 22 12 19
f 23 17 13
f 23 13 18
f 23 18 11
f 23 11 17
f 24 19 14
f 24 14 18
f 24 18 13
f 25 17 11
f 25 11 20
f 25 20 15
f 26 21 4
f 26 4 9
f 26 9 17
f 27 22 19
f 27 8 22
f 27 19 24
f 27 24 13
f 27 13 8
f 28 21 26
f 28 25 15
f 28 15 21
f 28 26 17
f 28 17 25