# https://github.com/mikedh/trimesh
v 0.11537272 -0.19134430 -0.35606061
v 0.11620001 -0.19277767 -0.41847302
v 0.11537272 0.15714055 -0.41666667
v -0.15735455 0.15714055 -0.35606061
v -0.15735455 -0.11558672 -0.35606061
v -0.15875555 0.15844357 -0.41886821
v 0.11537272 0.15714055 -0.35606061
v 0.00931211 -0.19134430 -0.35606061
v -0.15735455 -0.11558672 -0.41666667
v 0.00931211 -0.19134430 -0.41666667
f 5 1 4
f 6 3 2
f 6 5 4
f 7 4 1
f 7 6 4
f 7 3 6
f 7 1 2
f 7 2 3
f 8 2 1
f 8 1 5
f 9 6 2
f 9 5 6
f 9 8 5
f 10 9 2
f 10 2 8
f 10 8 9