# https://github.com/mikedh/trimesh
v 0.06991817 -0.19134430 -0.41666667
v 0.12055793 -0.12084209 -0.45775060
v 0.06991817 -0.00952611 -0.41666667
v -0.06644546 -0.00952611 -0.41666667
v -0.09674849 -0.10043521 -0.49242425
v 0.11537272 -0.07013217 -0.44696970
v 0.02446363 -0.17619278 -0.47727273
v -0.06503142 -0.18681087 -0.44060386
v 0.06724921 -0.00861789 -0.49460657
v 0.06991817 -0.19134430 -0.46212122
v -0.06644546 -0.11558672 -0.41666667
v -0.06644546 -0.19134430 -0.46212122
v -0.06404812 -0.00903861 -0.49465020
v 0.11537272 -0.07013217 -0.49242425
v 0.00931211 -0.19134430 -0.41666667
v -0.09674849 -0.11558672 -0.44696970
v -0.06644546 -0.13073824 -0.49242425
v -0.09674849 -0.07013217 -0.44696970
v 0.11537272 -0.08528369 -0.49242425
v -0.02099092 -0.17619278 -0.47727273
v 0.03961514 -0.08528369 -0.50757576
v -0.09385799 -0.06812149 -0.48133295
v 0.06991817 -0.13073824 -0.49242425
v 0.00931211 -0.14588975 -0.49242425
v -0.06644546 -0.05498066 -0.50757576
v 0.06991817 -0.05498066 -0.50757576
v -0.00583940 -0.14588975 -0.49242425
v -0.03614243 -0.08528369 -0.50757576
f 1 3 4
f 6 1 2
f 6 3 1
f 9 4 3
f 10 2 1
f 11 1 4
f 12 7 10
f 12 10 1
f 13 4 9
f 14 9 3
f 14 3 6
f 14 6 2
f 15 11 8
f 15 1 11
f 15 12 1
f 15 8 12
f 16 11 4
f 16 8 11
f 16 12 8
f 16 5 12
f 17 12 5
f 18 4 13
f 18 16 4
f 18 5 16
f 19 14 2
f 19 2 10
f 20 7 12
f 20 12 17
f 22 18 13
f 22 13 5
f 22 5 18
f 23 19 10
f 23 10 7
f 23 21 19
f 24 7 20
f 24 23 7
f 24 21 23
f 25 13 9
f 25 5 13
f 26 9 14
f 26 14 19
f 26 19 21
f 26 25 9
f 26 21 25
f 27 24 20
f 27 20 17
f 27 21 24
f 28 25 21
f 28 17 5
f 28 5 25
f 28 27 17
f 28 21 27