# https://github.com/mikedh/trimesh
v 0.22143333 -0.28225339 -0.23484849
v 0.34264545 -0.07013217 -0.26515152
v 0.34264545 0.09653449 -0.23484849
v 0.19113029 0.15714055 -0.23484849
v 0.20628181 -0.08528369 -0.44696970
v 0.32916529 -0.08230284 -0.23070930
v 0.26688787 -0.17619278 -0.34090909
v 0.18353968 -0.24146080 -0.31880641
v 0.28203939 0.02077692 -0.38636364
v 0.30322094 0.15269720 -0.23185854
v 0.19044599 -0.28125374 -0.23446011
v 0.31234242 -0.17619278 -0.23484849
v 0.34264545 -0.08528369 -0.25000000
v 0.18305417 0.12170434 -0.42167477
v 0.20628181 -0.25195036 -0.32575758
v 0.32749393 0.03592843 -0.31060606
v 0.26688787 -0.10043521 -0.38636364
v 0.26688787 -0.23679884 -0.23484849
v 0.32749393 -0.13073824 -0.26515152
v 0.32749393 -0.14588975 -0.23484849
v 0.18315707 0.15060567 -0.40621320
v 0.18308775 -0.12549800 -0.42080691
v 0.20628181 0.08138298 -0.44696970
v 0.19113029 -0.28225339 -0.28030304
v 0.20628181 -0.16104127 -0.41666667
v 0.34264545 0.06623146 -0.26515152
v 0.31234242 -0.02467763 -0.34090909
v 0.23658484 -0.05498066 -0.43181819
v 0.28203939 -0.20649581 -0.28030304
v 0.31234242 -0.11558672 -0.31060606
v 0.32749393 -0.14588975 -0.25000000
v 0.26688787 0.15714055 -0.35606061
v 0.18429587 -0.08207199 -0.43660892
v 0.20628181 0.15714055 -0.41666667
v 0.19113029 -0.16104127 -0.41666667
v 0.20628181 -0.28225339 -0.28030304
v 0.25173636 -0.16104127 -0.37121213
v 0.22143333 -0.10043521 -0.43181819
v 0.32749393 -0.03982914 -0.31060606
v 0.31234242 0.02077692 -0.34090909
v 0.28203939 -0.02467763 -0.38636364
v 0.22143333 0.03592843 -0.44696970
v 0.31234242 -0.17619278 -0.25000000
v 0.25173636 -0.22164733 -0.31060606
v 0.26688787 -0.23679884 -0.25000000
v 0.28203939 -0.14588975 -0.34090909
v 0.29719090 -0.07013217 -0.35606061
v 0.32749393 -0.08528369 -0.29545455
v 0.31234242 0.15714055 -0.26515152
v 0.31234242 0.11168601 -0.31060606
v 0.18446626 0.07849524 -0.43726108
v 0.20628181 0.12683752 -0.43181819
v 0.20628181 -0.13073824 -0.43181819
v 0.25173636 -0.05498066 -0.41666667
v 0.28203939 0.09653449 -0.37121213
v 0.22143333 -0.02467763 -0.44696970
v 0.22143333 -0.25195036 -0.31060606
v 0.22143333 -0.28225339 -0.25000000
v 0.26688787 -0.13073824 -0.37121213
v 0.31234242 -0.08528369 -0.32575758
v 0.32749393 0.14198904 -0.23484849
v 0.32749393 0.08138298 -0.29545455
v 0.32749393 0.12683752 -0.26515152
v 0.23658484 0.14198904 -0.40151516
f 10 6 3
f 10 4 6
f 11 6 4
f 11 1 6
f 11 4 8
f 13 2 3
f 13 3 6
f 18 12 6
f 18 6 1
f 19 2 13
f 20 13 6
f 20 6 12
f 21 14 8
f 21 8 4
f 22 8 14
f 24 11 8
f 24 1 11
f 26 3 2
f 26 2 16
f 30 29 7
f 31 19 13
f 31 13 20
f 31 20 12
f 31 30 19
f 33 22 14
f 34 14 21
f 34 21 4
f 34 4 32
f 35 24 8
f 35 15 24
f 35 25 15
f 35 8 22
f 35 33 5
f 35 22 33
f 36 24 15
f 36 1 24
f 38 28 17
f 38 5 28
f 39 27 16
f 39 16 2
f 40 27 9
f 40 16 27
f 41 28 9
f 41 9 27
f 42 9 28
f 42 5 23
f 43 12 18
f 43 31 12
f 43 29 30
f 43 30 31
f 44 7 29
f 44 37 7
f 44 15 25
f 44 25 37
f 45 18 1
f 45 44 29
f 45 43 18
f 45 29 43
f 46 30 7
f 46 7 37
f 47 27 39
f 47 41 27
f 48 2 19
f 48 19 30
f 48 39 2
f 49 32 4
f 49 4 10
f 50 32 49
f 51 23 5
f 51 5 33
f 51 33 14
f 52 14 34
f 52 51 14
f 52 23 51
f 53 35 5
f 53 25 35
f 53 5 38
f 53 38 37
f 53 37 25
f 54 17 28
f 54 28 41
f 54 47 17
f 54 41 47
f 55 9 42
f 55 32 50
f 55 40 9
f 55 16 40
f 56 42 28
f 56 28 5
f 56 5 42
f 57 36 15
f 57 15 44
f 57 44 45
f 58 45 1
f 58 1 36
f 58 57 45
f 58 36 57
f 59 46 37
f 59 30 46
f 59 47 30
f 59 17 47
f 59 38 17
f 59 37 38
f 60 47 39
f 60 39 48
f 60 48 30
f 60 30 47
f 61 49 10
f 61 10 3
f 62 26 16
f 62 55 50
f 62 16 55
f 63 50 49
f 63 3 26
f 63 62 50
f 63 26 62
f 63 61 3
f 63 49 61
f 64 52 34
f 64 34 32
f 64 32 55
f 64 23 52
f 64 55 42
f 64 42 23