# https://github.com/mikedh/trimesh
v 0.08506969 -0.34285945 -0.25000000
v 0.19113029 -0.20649581 -0.38636364
v 0.19113029 -0.19134430 -0.23484849
v -0.15735455 -0.19134430 -0.23484849
v -0.14220304 -0.22164733 -0.41666667
v -0.09294296 -0.18370535 -0.43497824
v 0.08170543 -0.32970970 -0.23024013
v 0.19113029 -0.29740490 -0.26515152
v 0.05476666 -0.25195036 -0.41666667
v -0.14220304 -0.32770793 -0.23484849
v 0.18578381 -0.18581259 -0.37964183
v -0.15126164 -0.18389948 -0.40672540
v 0.18451317 -0.28647681 -0.23095274
v 0.11537272 -0.31255642 -0.31060606
v 0.10022120 -0.19134430 -0.44696970
v -0.15366481 -0.30422242 -0.23249477
v -0.09674849 -0.34285945 -0.23484849
v -0.09674849 -0.20649581 -0.44696970
v 0.17597878 -0.31255642 -0.23484849
v 0.13052423 -0.32770793 -0.26515152
v 0.16082726 -0.25195036 -0.37121213
v 0.16082726 -0.19134430 -0.41666667
v -0.15735455 -0.20649581 -0.41666667
v -0.03614243 -0.31255642 -0.34090909
v 0.03961514 -0.22164733 -0.44696970
v 0.06991817 -0.34285945 -0.26515152
v 0.17597878 -0.31255642 -0.25000000
v 0.10022120 -0.26710187 -0.38636364
v 0.19113029 -0.26710187 -0.32575758
v 0.16082726 -0.20649581 -0.41666667
v -0.15735455 -0.31255642 -0.26515152
v -0.05129395 -0.26710187 -0.40151516
v 0.08506969 -0.32770793 -0.29545455
v -0.06644546 -0.34285945 -0.26515152
v 0.14567575 -0.28225339 -0.34090909
v 0.03961514 -0.31255642 -0.34090909
v 0.10022120 -0.20649581 -0.44696970
v -0.15735455 -0.26710187 -0.35606061
v -0.11190001 -0.32770793 -0.28030304
v -0.03614243 -0.22164733 -0.44696970
v -0.11190001 -0.25195036 -0.40151516
v 0.03961514 -0.32770793 -0.31060606
v 0.13052423 -0.26710187 -0.37121213
v 0.17597878 -0.26710187 -0.34090909
v 0.06991817 -0.29740490 -0.35606061
v 0.02446363 -0.28225339 -0.38636364
v 0.08506969 -0.31255642 -0.32575758
v 0.05476666 -0.23679884 -0.43181819
v -0.14220304 -0.32770793 -0.25000000
v -0.09674849 -0.34285945 -0.25000000
v -0.08159698 -0.29740490 -0.35606061
v -0.05129395 -0.23679884 -0.43181819
v -0.11190001 -0.23679884 -0.41666667
v -0.14220304 -0.25195036 -0.38636364
v -0.03614243 -0.32770793 -0.31060606
v -0.03614243 -0.28225339 -0.38636364
v -0.11190001 -0.29740490 -0.34090909
v -0.09674849 -0.28225339 -0.37121213
v -0.08159698 -0.32770793 -0.29545455
v -0.12705152 -0.28225339 -0.35606061
f 8 2 3
f 11 3 2
f 12 11 6
f 12 4 3
f 12 3 11
f 13 3 4
f 13 4 7
f 13 8 3
f 15 6 11
f 16 7 4
f 17 1 7
f 17 16 10
f 17 7 16
f 18 12 6
f 18 6 15
f 19 13 7
f 19 7 1
f 19 8 13
f 20 14 8
f 20 19 1
f 22 15 11
f 22 11 2
f 23 4 12
f 23 18 5
f 23 12 18
f 25 18 15
f 26 20 1
f 26 1 17
f 27 20 8
f 27 8 19
f 27 19 20
f 29 21 2
f 29 2 8
f 29 8 14
f 30 15 22
f 30 22 2
f 30 2 21
f 31 16 4
f 31 4 23
f 31 10 16
f 33 14 20
f 33 20 26
f 34 26 17
f 35 29 14
f 37 25 15
f 37 15 30
f 37 30 21
f 38 31 23
f 38 23 5
f 40 18 25
f 42 26 34
f 42 24 36
f 42 33 26
f 43 21 35
f 43 37 21
f 43 28 37
f 43 35 14
f 44 35 21
f 44 21 29
f 44 29 35
f 45 9 28
f 45 43 14
f 45 28 43
f 46 45 36
f 46 9 45
f 46 36 24
f 47 14 33
f 47 42 36
f 47 33 42
f 47 45 14
f 47 36 45
f 48 25 37
f 48 9 46
f 48 40 25
f 48 37 28
f 48 28 9
f 49 17 10
f 49 10 31
f 49 31 39
f 50 39 34
f 50 34 17
f 50 49 39
f 50 17 49
f 52 18 40
f 52 32 41
f 52 48 46
f 52 40 48
f 53 41 5
f 53 5 18
f 53 52 41
f 53 18 52
f 54 38 5
f 54 5 41
f 55 42 34
f 55 24 42
f 55 51 24
f 56 46 24
f 56 52 46
f 56 32 52
f 56 51 32
f 56 24 51
f 57 51 39
f 57 39 31
f 57 31 38
f 58 41 32
f 58 32 51
f 58 54 41
f 59 55 34
f 59 34 39
f 59 39 51
f 59 51 55
f 60 57 38
f 60 38 54
f 60 54 58
f 60 58 51
f 60 51 57