# https://github.com/mikedh/trimesh
v 0.20628181 -0.31255642 0.03787878
v 0.32749393 -0.19134430 -0.15909091
v 0.29719090 -0.19134430 0.14393939
v 0.19113029 -0.17619278 0.21969696
v 0.20628181 -0.17619278 -0.23484849
v 0.31486835 -0.17005915 0.00589537
v 0.20628181 -0.23679884 0.25000000
v 0.29719090 -0.23679884 0.00757575
v 0.22143333 -0.29740490 -0.20454546
v 0.18449711 -0.30169410 0.03562520
v 0.32749393 -0.19134430 0.00757575
v 0.24288971 -0.16997825 0.23045586
v 0.30013781 -0.17007556 -0.21632495
v 0.23658484 -0.26710187 0.12878787
v 0.22143333 -0.31255642 -0.11363637
v 0.19113029 -0.17619278 0.00757575
v 0.18268727 -0.22582950 0.24387735
v 0.19113029 -0.26710187 0.18939393
v 0.20096009 -0.27454205 -0.23215874
v 0.29719090 -0.17619278 0.14393939
v 0.32749393 -0.17619278 -0.15909091
v 0.31234242 -0.22164733 -0.02272728
v 0.31234242 -0.20649581 0.05303030
v 0.25173636 -0.19134430 0.23484848
v 0.30055839 -0.16987292 0.08043827
v 0.28203939 -0.22164733 -0.25000000
v 0.26688787 -0.20649581 0.18939393
v 0.25173636 -0.28225339 0.02272727
v 0.18718739 -0.30493159 0.00668041
v 0.28203939 -0.25195036 -0.17424243
v 0.18874611 -0.21886464 0.24809570
v 0.18443967 -0.28687783 0.09546952
v 0.20628181 -0.26710187 0.18939393
v 0.31234242 -0.19134430 0.08333333
v 0.31234242 -0.19134430 -0.21969697
v 0.28203939 -0.23679884 0.08333333
v 0.22143333 -0.28225339 -0.23484849
v 0.26502628 -0.20508155 -0.24921957
v 0.25173636 -0.20649581 0.21969696
v 0.22143333 -0.29740490 0.06818181
v 0.22143333 -0.31255642 -0.03787879
v 0.19885702 -0.28603994 -0.20158370
v 0.23658484 -0.29740490 -0.14393940
v 0.31234242 -0.22164733 -0.11363637
v 0.23658484 -0.28225339 -0.21969697
v 0.23617618 -0.17589066 0.23463640
v 0.20628181 -0.29740490 0.09848484
v 0.29297957 -0.17376147 -0.23329856
v 0.28203939 -0.23679884 -0.21969697
v 0.28203939 -0.25195036 0.02272727
v 0.23658484 -0.28225339 0.08333333
v 0.29719090 -0.20649581 0.11363636
v 0.23658484 -0.29740490 0.00757575
v 0.19928308 -0.30171953 -0.11292748
v 0.29719090 -0.23679884 -0.15909091
v 0.26688787 -0.26710187 -0.17424243
v 0.26688787 -0.23679884 0.12878787
v 0.31234242 -0.20649581 -0.18939394
f 13 5 12
f 16 12 5
f 16 4 12
f 17 16 10
f 17 4 16
f 18 7 17
f 19 16 5
f 19 10 16
f 20 11 6
f 21 11 2
f 21 6 11
f 21 13 6
f 22 2 11
f 22 8 15
f 23 22 11
f 23 8 22
f 24 20 12
f 24 3 20
f 25 13 12
f 25 6 13
f 25 20 6
f 25 12 20
f 29 15 1
f 29 1 10
f 31 4 17
f 31 17 7
f 32 18 17
f 32 17 10
f 32 10 1
f 32 1 18
f 33 7 18
f 33 27 7
f 33 14 27
f 34 20 3
f 34 11 20
f 34 23 11
f 34 3 23
f 35 21 2
f 35 13 21
f 36 8 23
f 37 9 19
f 38 19 5
f 38 37 19
f 38 26 37
f 39 24 7
f 39 7 27
f 39 27 3
f 39 3 24
f 40 14 33
f 41 1 15
f 41 15 8
f 42 29 10
f 42 10 19
f 42 19 9
f 43 15 9
f 43 22 15
f 44 2 22
f 44 22 43
f 45 37 26
f 45 9 37
f 46 12 4
f 46 4 31
f 46 24 12
f 46 31 7
f 46 7 24
f 47 33 18
f 47 18 1
f 47 40 33
f 47 1 40
f 48 35 26
f 48 13 35
f 48 26 38
f 48 38 5
f 48 5 13
f 49 45 26
f 49 30 45
f 50 36 28
f 50 28 8
f 50 8 36
f 51 36 14
f 51 28 36
f 51 40 28
f 51 14 40
f 52 36 23
f 52 23 3
f 52 3 27
f 53 40 1
f 53 1 41
f 53 28 40
f 53 41 8
f 53 8 28
f 54 42 9
f 54 9 15
f 54 15 29
f 54 29 42
f 55 2 44
f 55 30 49
f 55 44 43
f 56 45 30
f 56 43 9
f 56 9 45
f 56 55 43
f 56 30 55
f 57 52 27
f 57 27 14
f 57 14 36
f 57 36 52
f 58 55 49
f 58 35 2
f 58 2 55
f 58 49 26
f 58 26 35