# https://github.com/mikedh/trimesh
v -0.05129395 -0.23679884 0.35606060
v -0.05129395 -0.23679884 0.26515151
v -0.05129395 -0.16104127 0.35606060
v -0.12112541 -0.15367461 0.39263278
v -0.13077762 -0.24378482 0.26953781
v -0.08304137 -0.16411752 0.40511067
v -0.12705152 -0.20649581 0.37121212
v -0.12705152 -0.16104127 0.26515151
v -0.11190001 -0.23679884 0.34090909
v -0.12705152 -0.17619278 0.40151515
v -0.05129395 -0.16104127 0.26515151
v -0.12705152 -0.23679884 0.32575757
v -0.08159698 -0.23679884 0.35606060
v -0.08159698 -0.19134430 0.40151515
v -0.09674849 -0.19134430 0.40151515
v -0.09674849 -0.20649581 0.38636363
f 1 2 3
f 5 2 1
f 6 1 3
f 6 3 4
f 8 2 5
f 10 6 4
f 10 4 8
f 10 8 5
f 10 5 7
f 11 3 2
f 11 2 8
f 11 8 4
f 11 4 3
f 12 9 7
f 12 7 5
f 12 5 9
f 13 9 5
f 13 5 1
f 14 1 6
f 14 13 1
f 15 14 6
f 15 6 10
f 15 10 7
f 15 13 14
f 16 15 7
f 16 13 15
f 16 7 9
f 16 9 13