# https://github.com/mikedh/trimesh
v 0.19625197 -0.19560096 -0.36083646
v 0.19113029 -0.17619278 -0.41666667
v 0.19113029 0.15714055 -0.35606061
v 0.11537272 0.15714055 -0.35606061
v 0.06822976 -0.18660798 -0.44026926
v 0.11537272 -0.19134430 -0.35606061
v 0.19113029 0.06623146 -0.46212122
v 0.11537272 -0.19134430 -0.44696970
v 0.06991817 0.15714055 -0.41666667
v 0.19113029 -0.07013217 -0.46212122
v 0.19113029 0.12683752 -0.44696970
v 0.17597878 -0.19134430 -0.41666667
v 0.06991817 -0.19134430 -0.41666667
v 0.08506969 0.03592843 -0.50757576
v 0.19113029 -0.11558672 -0.44696970
v 0.13052423 0.15714055 -0.46212122
v 0.17597878 -0.14588975 -0.44696970
v 0.19113029 -0.19134430 -0.40151516
v 0.06670537 0.03420009 -0.49292632
v 0.13052423 -0.07013217 -0.49242425
v 0.16082726 0.15714055 -0.44696970
v 0.06991817 0.15714055 -0.47727273
v 0.11537272 0.09653449 -0.49242425
v 0.14567575 -0.17619278 -0.44696970
v 0.06991817 -0.03982914 -0.50757576
v 0.13052423 0.06623146 -0.49242425
v 0.16082726 -0.13073824 -0.46212122
v 0.18315707 0.15060567 -0.40621320
v 0.14567575 0.11168601 -0.47727273
v 0.11537272 0.14198904 -0.47727273
v 0.06991817 -0.16104127 -0.47727273
v 0.08506969 -0.03982914 -0.50757576
v 0.16082726 0.08138298 -0.47727273
v 0.08506969 0.15714055 -0.47727273
v 0.13052423 -0.13073824 -0.47727273
v 0.08506969 -0.16104127 -0.47727273
v 0.13052423 -0.16104127 -0.46212122
f 6 1 3
f 6 3 4
f 9 6 4
f 9 4 3
f 10 7 1
f 11 3 1
f 11 1 7
f 12 1 8
f 13 5 8
f 13 9 5
f 13 6 9
f 13 8 1
f 13 1 6
f 15 10 1
f 15 1 2
f 16 9 3
f 17 2 12
f 17 15 2
f 18 12 2
f 18 2 1
f 18 1 12
f 19 5 9
f 20 7 10
f 21 16 3
f 22 9 16
f 22 19 9
f 23 14 22
f 24 17 12
f 24 12 8
f 25 22 14
f 25 19 22
f 26 20 14
f 26 7 20
f 26 14 23
f 27 10 15
f 27 15 17
f 28 21 3
f 28 3 11
f 28 11 21
f 29 26 23
f 30 29 23
f 30 11 29
f 30 21 11
f 30 16 21
f 31 5 19
f 31 19 25
f 31 8 5
f 32 25 14
f 32 14 20
f 32 31 25
f 33 29 11
f 33 11 7
f 33 7 26
f 33 26 29
f 34 30 23
f 34 23 22
f 34 22 16
f 34 16 30
f 35 27 17
f 35 17 24
f 35 20 10
f 35 10 27
f 35 32 20
f 36 8 31
f 36 31 32
f 36 32 35
f 37 36 35
f 37 35 24
f 37 24 8
f 37 8 36