# https://github.com/mikedh/trimesh
v 0.06991817 0.06623146 -0.41666667
v 0.12093758 0.11723891 -0.45870465
v 0.06991817 0.15714055 -0.41666667
v -0.06644546 0.15714055 -0.41666667
v -0.05129395 0.06623146 -0.50757576
v 0.06991817 0.15714055 -0.47727273
v 0.11537272 0.09653449 -0.44696970
v -0.06644546 0.06623146 -0.41666667
v -0.06644546 0.15714055 -0.47727273
v 0.05476666 0.06623146 -0.50757576
v -0.06554809 0.06538818 -0.48783075
v 0.03961514 0.14198904 -0.49242425
v -0.09674849 0.09653449 -0.44696970
v 0.10022120 0.11168601 -0.49242425
v 0.06891298 0.06542506 -0.48760845
v -0.03614243 0.14198904 -0.49242425
v 0.05476666 0.08138298 -0.50757576
v -0.09674849 0.11168601 -0.49242425
v 0.11255875 0.09448799 -0.46991578
v -0.05129395 0.08138298 -0.50757576
v -0.09674849 0.11168601 -0.44696970
v -0.09674849 0.09653449 -0.49242425
v 0.10022120 0.09653449 -0.49242425
f 1 3 4
f 6 3 2
f 6 4 3
f 7 2 3
f 7 3 1
f 8 1 4
f 9 4 6
f 11 1 8
f 11 5 10
f 12 9 6
f 13 8 4
f 14 6 2
f 14 12 6
f 15 11 10
f 15 1 11
f 16 9 12
f 17 10 5
f 17 16 12
f 17 14 10
f 17 12 14
f 18 4 9
f 18 9 16
f 19 2 7
f 19 7 1
f 19 1 15
f 20 17 5
f 20 16 17
f 20 18 16
f 20 5 18
f 21 18 13
f 21 13 4
f 21 4 18
f 22 18 5
f 22 5 11
f 22 13 18
f 22 11 8
f 22 8 13
f 23 14 2
f 23 2 19
f 23 10 14
f 23 19 15
f 23 15 10