# https://github.com/mikedh/trimesh
v 0.16082726 -0.34285945 -0.09848485
v 0.20628181 -0.29740490 -0.23484849
v 0.20628181 -0.20649581 0.00757575
v 0.00931211 -0.20649581 0.00757575
v 0.00931211 -0.29740490 -0.23484849
v 0.20628181 -0.20649581 -0.23484849
v 0.00931211 -0.29740490 0.00757575
v 0.20378344 -0.29381901 0.00700361
v 0.13052423 -0.34285945 -0.20454546
v 0.00931211 -0.20649581 -0.23484849
v 0.19113029 -0.32770793 -0.09848485
v 0.20628181 -0.31255642 -0.18939394
v 0.14567575 -0.32770793 -0.23484849
v 0.11526695 -0.34252607 -0.09846672
v 0.19113029 -0.32770793 -0.14393940
v 0.16082726 -0.32770793 -0.21969697
v 0.16082726 -0.34285945 -0.14393940
v 0.19113029 -0.31255642 -0.21969697
v 0.14567575 -0.34285945 -0.18939394
f 6 3 2
f 6 4 3
f 6 2 5
f 7 3 4
f 7 4 5
f 8 7 1
f 8 3 7
f 10 6 5
f 10 5 4
f 10 4 6
f 11 8 1
f 12 2 3
f 12 3 8
f 12 8 11
f 13 9 5
f 13 5 2
f 14 7 5
f 14 5 9
f 14 9 1
f 14 1 7
f 15 12 11
f 15 11 1
f 17 15 1
f 17 1 9
f 18 2 12
f 18 16 13
f 18 13 2
f 19 17 9
f 19 12 15
f 19 15 17
f 19 18 12
f 19 16 18
f 19 9 13
f 19 13 16