# Blender 4.0.0
# www.blender.org
o Refrigerator033_Body001_Clear
v -0.346007 0.233873 0.236509
v -0.346031 -0.297567 0.236522
v -0.346035 0.233856 0.242504
v -0.346012 -0.297555 0.242517
v 0.331226 0.233861 0.236514
v 0.331222 -0.297572 0.242505
v 0.331239 0.233868 0.242508
v 0.331243 -0.297550 0.236510
v -0.346007 0.233873 0.556283
v -0.346031 -0.297567 0.556296
v -0.346035 0.233856 0.562277
v -0.346012 -0.297555 0.562290
v 0.331226 0.233861 0.556287
v 0.331222 -0.297572 0.562279
v 0.331239 0.233868 0.562282
v 0.331243 -0.297550 0.556284
vn -0.0000 -0.0000 -1.0000
vn -1.0000 -0.0000 -0.0007
vn -1.0000 -0.0000 0.0032
vn -1.0000 -0.0000 -0.0046
vn -0.0000 -0.0000 1.0000
vn -0.0000 -1.0000 -0.0007
vn -0.0000 -1.0000 -0.0037
vn -0.0000 -1.0000 -0.0009
vn -0.0000 -1.0000 0.0020
vn 1.0000 -0.0000 0.0007
vn 1.0000 -0.0000 0.0036
vn 1.0000 -0.0000 -0.0021
vn -0.0000 1.0000 0.0009
vn -0.0000 1.0000 0.0028
vn -0.0000 1.0000 0.0008
vn -0.0000 1.0000 -0.0011
vn -1.0000 -0.0000 -0.0008
vn 1.0000 -0.0000 0.0008
vn -0.0000 1.0000 0.0007
vt 0.267997 0.903491
vt 0.364481 0.903492
vt 0.364486 0.903491
vt 0.267990 0.903495
vt 0.267996 0.905298
vt 0.267989 0.905294
vt 0.364480 0.905295
vt 0.364485 0.905296
vt 0.275934 0.906447
vt 0.372418 0.906448
vt 0.372423 0.906447
vt 0.275927 0.906451
vt 0.275933 0.908255
vt 0.275926 0.908251
vt 0.372417 0.908251
vt 0.372422 0.908252
s 1
f 1/1/1 5/2/1 8/3/1
f 8/3/1 2/4/1 1/1/1
f 2/4/2 4/5/3 3/6/2
f 3/6/2 1/1/4 2/4/2
f 4/5/5 6/7/5 7/8/5
f 7/8/5 3/6/5 4/5/5
f 2/4/6 8/3/7 6/7/8
f 6/7/8 4/5/9 2/4/6
f 7/8/10 6/7/11 8/3/10
f 8/3/10 5/2/12 7/8/10
f 1/1/13 3/6/14 7/8/15
f 7/8/15 5/2/16 1/1/13
f 9/9/1 13/10/1 16/11/1
f 16/11/1 10/12/1 9/9/1
f 10/12/2 12/13/3 11/14/17
f 11/14/17 9/9/4 10/12/2
f 12/13/5 14/15/5 15/16/5
f 15/16/5 11/14/5 12/13/5
f 10/12/6 16/11/7 14/15/8
f 14/15/8 12/13/9 10/12/6
f 15/16/10 14/15/11 16/11/18
f 16/11/18 13/10/12 15/16/10
f 9/9/13 11/14/14 15/16/19
f 15/16/19 13/10/16 9/9/13
