# Blender 4.0.0
# www.blender.org
o fridge_left_door_Clear
v -0.327860 -0.354392 0.411071
v -0.060818 -0.270797 0.411071
v -0.330301 -0.271024 0.441154
v -0.058372 -0.270809 0.440086
v -0.060818 -0.265601 0.416370
v -0.334495 -0.354394 0.416370
v -0.334479 -0.271123 0.416116
v -0.060818 -0.359588 0.416370
v -0.327860 -0.359588 0.416371
v -0.054194 -0.271158 0.416070
v -0.054184 -0.354394 0.416369
v -0.060818 -0.268524 0.411402
v -0.057803 -0.269279 0.411592
v -0.055899 -0.269460 0.412487
v -0.059075 -0.266994 0.412442
v -0.056670 -0.267550 0.413058
v -0.057987 -0.355922 0.411538
v -0.060927 -0.356374 0.411268
v -0.059075 -0.358244 0.412491
v -0.055963 -0.355741 0.412439
v -0.056671 -0.357640 0.413058
v -0.327860 -0.356665 0.411402
v -0.330874 -0.355911 0.411592
v -0.332779 -0.355728 0.412487
v -0.329597 -0.358195 0.412441
v -0.332006 -0.357639 0.413058
v -0.330691 -0.269267 0.411539
v -0.327752 -0.268815 0.411268
v -0.329599 -0.266945 0.412491
v -0.332715 -0.269448 0.412439
v -0.332006 -0.267549 0.413058
v -0.057915 -0.265926 0.416370
v -0.058854 -0.266114 0.413966
v -0.055841 -0.266900 0.416370
v -0.056050 -0.267062 0.414548
v -0.329835 -0.266060 0.414113
v -0.330364 -0.265799 0.416378
v -0.332629 -0.267062 0.414548
v -0.332837 -0.266900 0.416371
v -0.334080 -0.268524 0.416371
v -0.333666 -0.268686 0.414218
v -0.334080 -0.270797 0.414051
v -0.334080 -0.354392 0.414051
v -0.333666 -0.356503 0.414218
v -0.334080 -0.356665 0.416370
v -0.332786 -0.358266 0.415177
v -0.329822 -0.359075 0.413967
v -0.058844 -0.359128 0.414111
v -0.057915 -0.359264 0.416371
v -0.055874 -0.358252 0.415179
v -0.055012 -0.356503 0.414218
v -0.054597 -0.354392 0.414052
v -0.054597 -0.270797 0.414051
v -0.055012 -0.268686 0.414218
v -0.054597 -0.268523 0.416370
v -0.327879 -0.276930 0.474766
v -0.330679 -0.277365 0.475262
v -0.332873 -0.278257 0.474768
v -0.055827 -0.272026 0.440450
v -0.334427 -0.354393 0.475197
v -0.334080 -0.356664 0.474754
v -0.332837 -0.358288 0.474754
v -0.334096 -0.273674 0.440451
v -0.332859 -0.272033 0.440451
v -0.060818 -0.359588 0.474754
v -0.058063 -0.359244 0.475262
v -0.055841 -0.358289 0.474754
v -0.330763 -0.359263 0.416370
v -0.054174 -0.282225 0.474758
v -0.054575 -0.279902 0.474764
v -0.055820 -0.278245 0.474766
v -0.054596 -0.356665 0.416370
v -0.327447 -0.269578 0.413931
v -0.061232 -0.355612 0.413931
v -0.329332 -0.279726 0.474811
v -0.329424 -0.268416 0.416622
v -0.330906 -0.355560 0.474751
v -0.331054 -0.270995 0.416571
v -0.059363 -0.356801 0.474801
v -0.059260 -0.356784 0.416699
v -0.057732 -0.281022 0.474797
v -0.057760 -0.269604 0.416680
v -0.061197 -0.269684 0.413898
v -0.058914 -0.269984 0.414132
v -0.058324 -0.269996 0.414398
v -0.059037 -0.355204 0.414097
v -0.059113 -0.356291 0.414479
v -0.058355 -0.355203 0.414375
v -0.327481 -0.355506 0.413898
v -0.329763 -0.355206 0.414132
v -0.330354 -0.355194 0.414398
v -0.330009 -0.356075 0.414653
v -0.329640 -0.269983 0.414097
v -0.328745 -0.268706 0.414506
v -0.330322 -0.269985 0.414375
v -0.058586 -0.268887 0.414939
v -0.059385 -0.268381 0.416606
v -0.059919 -0.268751 0.414456
v -0.058283 -0.268813 0.416546
v -0.330091 -0.268887 0.414939
v -0.330633 -0.269025 0.416463
v -0.330664 -0.269986 0.414857
v -0.330957 -0.354102 0.415252
v -0.330665 -0.355874 0.415544
v -0.330323 -0.356347 0.415543
v -0.329289 -0.356815 0.416670
v -0.328907 -0.356454 0.414496
v -0.059763 -0.356619 0.414952
v -0.058323 -0.356324 0.415553
v -0.057722 -0.355490 0.416665
v -0.058013 -0.355198 0.414856
v -0.057969 -0.269996 0.414954
v -0.059286 -0.279730 0.474733
v -0.058210 -0.280143 0.475245
v -0.330952 -0.281023 0.474764
v -0.329361 -0.356783 0.474714
v -0.057762 -0.355552 0.474715
v -0.330032 -0.277949 0.475492
v -0.058286 -0.279286 0.475489
v -0.331637 -0.280252 0.475489
v -0.058650 -0.358692 0.475491
v -0.331393 -0.357037 0.475480
v -0.055772 -0.278861 0.475458
v -0.057034 -0.356375 0.475489
v -0.329404 -0.279586 0.475382
v -0.058012 -0.277624 0.475423
v -0.333789 -0.280129 0.475418
v -0.059281 -0.357039 0.475385
v -0.330563 -0.359018 0.475421
v -0.057452 -0.281034 0.475381
v -0.054892 -0.356508 0.475417
v -0.060741 -0.277056 0.475202
v -0.334447 -0.282322 0.475173
v -0.327942 -0.359532 0.475201
v -0.054247 -0.354448 0.475174
v -0.332667 -0.278541 0.475378
v -0.057905 -0.277256 0.474765
v -0.333766 -0.356584 0.475420
v -0.332598 -0.358139 0.475373
v -0.334106 -0.279910 0.474766
v -0.056019 -0.358088 0.475374
v -0.330763 -0.359263 0.474754
v -0.054649 -0.280401 0.475325
v -0.054596 -0.356665 0.474754
v -0.331171 -0.355583 0.475315
v -0.330527 -0.280189 0.475245
v -0.059190 -0.279661 0.475303
v -0.330446 -0.356473 0.475243
v -0.331134 -0.281012 0.475301
v -0.058157 -0.356418 0.475245
v -0.329470 -0.356950 0.475302
v -0.057549 -0.355645 0.475301
v -0.054583 -0.273670 0.440450
v -0.327860 -0.354392 0.764444
v -0.060818 -0.270797 0.764443
v -0.330301 -0.270765 0.794526
v -0.058372 -0.270550 0.793458
v -0.060818 -0.265601 0.769743
v -0.334495 -0.354394 0.769742
v -0.334479 -0.271123 0.769489
v -0.327860 -0.359588 0.769743
v -0.060817 -0.359588 0.769744
v -0.054184 -0.354394 0.769742
v -0.054194 -0.271157 0.769443
v -0.060818 -0.268524 0.764775
v -0.057804 -0.269278 0.764965
v -0.055898 -0.269462 0.765860
v -0.059080 -0.266994 0.765815
v -0.056670 -0.267550 0.766431
v -0.057988 -0.355922 0.764911
v -0.060925 -0.356373 0.764640
v -0.059078 -0.358244 0.765864
v -0.055963 -0.355738 0.765812
v -0.056671 -0.357640 0.766431
v -0.327860 -0.356664 0.764775
v -0.330873 -0.355912 0.764965
v -0.332779 -0.355726 0.765860
v -0.329595 -0.358195 0.765815
v -0.332006 -0.357639 0.766431
v -0.330689 -0.269266 0.764911
v -0.327753 -0.268816 0.764640
v -0.329595 -0.266945 0.765864
v -0.332715 -0.269450 0.765812
v -0.332006 -0.267549 0.766431
v -0.057914 -0.265926 0.769743
v -0.058854 -0.266113 0.767340
v -0.055842 -0.266901 0.769743
v -0.056049 -0.267062 0.767922
v -0.329836 -0.266060 0.767487
v -0.330364 -0.265799 0.769751
v -0.332629 -0.267062 0.767922
v -0.332837 -0.266899 0.769743
v -0.334080 -0.268524 0.769743
v -0.333666 -0.268686 0.767591
v -0.334080 -0.270797 0.767425
v -0.334080 -0.354392 0.767425
v -0.333666 -0.356503 0.767591
v -0.334080 -0.356664 0.769743
v -0.332786 -0.358266 0.768551
v -0.329823 -0.359075 0.767341
v -0.058843 -0.359128 0.767485
v -0.057915 -0.359264 0.769744
v -0.055873 -0.358252 0.768554
v -0.055012 -0.356503 0.767591
v -0.054597 -0.354392 0.767425
v -0.054597 -0.270797 0.767425
v -0.055012 -0.268687 0.767591
v -0.054596 -0.268523 0.769743
v -0.327879 -0.276930 0.828139
v -0.330680 -0.277365 0.828635
v -0.332873 -0.278257 0.828141
v -0.055827 -0.271767 0.793823
v -0.334080 -0.356664 0.828128
v -0.334428 -0.354392 0.828570
v -0.332837 -0.358288 0.828128
v -0.334096 -0.273416 0.793824
v -0.332858 -0.271774 0.793825
v -0.058064 -0.359243 0.828635
v -0.060817 -0.359588 0.828128
v -0.055841 -0.358288 0.828128
v -0.330763 -0.359263 0.769744
v -0.054575 -0.279902 0.828138
v -0.054174 -0.282225 0.828131
v -0.055820 -0.278245 0.828139
v -0.054596 -0.356665 0.769743
v -0.061231 -0.355610 0.767304
v -0.327448 -0.269579 0.767304
v -0.329332 -0.279726 0.828184
v -0.329424 -0.268416 0.769995
v -0.330906 -0.355560 0.828124
v -0.331054 -0.270995 0.769945
v -0.059363 -0.356800 0.828175
v -0.059260 -0.356783 0.770072
v -0.057732 -0.281022 0.828170
v -0.057761 -0.269603 0.770052
v -0.061194 -0.269686 0.767271
v -0.058914 -0.269984 0.767506
v -0.058324 -0.269997 0.767772
v -0.059037 -0.355205 0.767471
v -0.059113 -0.356291 0.767853
v -0.058355 -0.355203 0.767749
v -0.327483 -0.355504 0.767271
v -0.330223 -0.355201 0.767645
v -0.330009 -0.356075 0.768027
v -0.329640 -0.269983 0.767471
v -0.328745 -0.268706 0.767880
v -0.330322 -0.269985 0.767749
v -0.058587 -0.268887 0.768312
v -0.059384 -0.268381 0.769979
v -0.059919 -0.268750 0.767830
v -0.058283 -0.268813 0.769918
v -0.330092 -0.268887 0.768313
v -0.330633 -0.269025 0.769836
v -0.330664 -0.269988 0.768230
v -0.330956 -0.354102 0.768625
v -0.330665 -0.355874 0.768918
v -0.330323 -0.356347 0.768915
v -0.329289 -0.356815 0.770043
v -0.328906 -0.356455 0.767870
v -0.059764 -0.356619 0.768325
v -0.058323 -0.356324 0.768925
v -0.057722 -0.355490 0.770039
v -0.058013 -0.355198 0.768229
v -0.057969 -0.269996 0.768327
v -0.059286 -0.279730 0.828106
v -0.058210 -0.280143 0.828619
v -0.330952 -0.281023 0.828137
v -0.329361 -0.356783 0.828088
v -0.057762 -0.355551 0.828088
v -0.330032 -0.277949 0.828865
v -0.058286 -0.279286 0.828862
v -0.331637 -0.280252 0.828863
v -0.058650 -0.358692 0.828865
v -0.331392 -0.357038 0.828854
v -0.055772 -0.278860 0.828832
v -0.057034 -0.356375 0.828862
v -0.329404 -0.279587 0.828755
v -0.058012 -0.277624 0.828797
v -0.333789 -0.280129 0.828792
v -0.059278 -0.357038 0.828758
v -0.330562 -0.359017 0.828794
v -0.057452 -0.281036 0.828754
v -0.054892 -0.356507 0.828791
v -0.060741 -0.277056 0.828576
v -0.334447 -0.282322 0.828547
v -0.327941 -0.359532 0.828574
v -0.054247 -0.354448 0.828547
v -0.332666 -0.278541 0.828751
v -0.057905 -0.277256 0.828138
v -0.333766 -0.356584 0.828794
v -0.332597 -0.358138 0.828746
v -0.334106 -0.279910 0.828140
v -0.056019 -0.358088 0.828747
v -0.330763 -0.359263 0.828128
v -0.054649 -0.280400 0.828698
v -0.054596 -0.356665 0.828128
v -0.331171 -0.355582 0.828688
v -0.330527 -0.280189 0.828619
v -0.059190 -0.279661 0.828677
v -0.330446 -0.356473 0.828615
v -0.331134 -0.281012 0.828675
v -0.058158 -0.356417 0.828618
v -0.329470 -0.356950 0.828674
v -0.057549 -0.355645 0.828674
v -0.054583 -0.273411 0.793823
vn -0.0012 -0.0019 -1.0000
vn -0.0017 0.0305 -0.9995
vn 0.0051 -0.0026 -1.0000
vn 0.0017 -0.0305 -0.9995
vn -0.0026 0.9802 0.1978
vn 0.0025 0.9841 0.1777
vn 0.0037 0.9827 0.1852
vn -0.0043 0.9826 0.1857
vn 0.0013 0.3386 -0.9409
vn 0.3141 0.0129 -0.9493
vn 0.0021 0.6623 -0.7492
vn 0.4674 0.6104 -0.6395
vn 0.6651 0.0084 -0.7467
vn 0.2103 -0.0118 -0.9776
vn 0.0023 -0.7675 -0.6411
vn 0.5448 -0.0084 -0.8385
vn 0.4732 -0.6359 -0.6096
vn -0.0013 -0.3385 -0.9409
vn -0.3141 -0.0129 -0.9493
vn -0.0021 -0.6624 -0.7491
vn -0.4784 -0.6331 -0.6085
vn -0.6651 -0.0084 -0.7467
vn -0.2102 0.0118 -0.9776
vn -0.0023 0.7675 -0.6410
vn -0.5447 0.0084 -0.8386
vn -0.4611 0.6140 -0.6406
vn 0.2529 0.9539 0.1615
vn 0.0030 0.9255 -0.3787
vn 0.5340 0.8284 0.1692
vn 0.5633 0.7829 -0.2642
vn -0.0027 0.9667 -0.2560
vn -0.5578 0.7895 -0.2560
vn -0.5221 0.8358 0.1696
vn -0.9999 0.0080 -0.0112
vn -0.8978 0.4343 0.0733
vn -0.8720 0.3437 -0.3485
vn -0.8637 0.0035 -0.5039
vn -1.0000 -0.0049 -0.0030
vn -0.9421 -0.0037 -0.3353
vn -0.8664 -0.3600 -0.3461
vn -0.8820 -0.4712 -0.0053
vn -0.5544 -0.8321 -0.0169
vn -0.0005 -1.0000 -0.0075
vn -0.2015 -0.9795 -0.0043
vn -0.0032 -0.9254 -0.3789
vn 0.0030 -0.9588 -0.2840
vn 0.3029 -0.9530 -0.0038
vn 0.0019 -1.0000 -0.0075
vn 0.6734 -0.7391 -0.0174
vn 1.0000 -0.0031 -0.0069
vn 0.9479 -0.3185 -0.0046
vn 0.8656 -0.3572 -0.3509
vn 0.8725 -0.0036 -0.4886
vn 0.9999 0.0090 -0.0059
vn 0.9411 0.0031 -0.3382
vn 0.8727 0.3457 -0.3447
vn 0.8985 0.4329 0.0731
vn 0.5819 0.7990 0.1514
vn -0.9009 0.4264 0.0809
vn -0.5763 0.8032 0.1508
vn 0.0007 0.0040 1.0000
vn -0.0006 0.0134 0.9999
vn -0.0169 -0.0015 0.9999
vn 0.0006 -0.0133 0.9999
vn 0.0003 -0.9819 -0.1895
vn 0.0030 -0.9837 -0.1798
vn -0.0084 -0.9823 -0.1873
vn -0.0022 -0.9828 -0.1847
vn 1.0000 -0.0043 0.0014
vn 0.9999 0.0103 0.0036
vn 1.0000 0.0027 0.0076
vn 1.0000 -0.0039 0.0041
vn -0.0003 1.0000 0.0017
vn -0.0025 1.0000 0.0030
vn 0.0038 1.0000 -0.0046
vn 0.0023 1.0000 0.0063
vn -1.0000 -0.0030 0.0016
vn -0.9999 -0.0120 0.0018
vn -1.0000 0.0036 0.0044
vn -1.0000 0.0004 0.0077
vn -0.2147 -0.0074 0.9766
vn -0.0014 -0.5315 0.8471
vn -0.7030 -0.5175 0.4879
vn -0.7111 -0.0047 0.7031
vn -0.0023 0.7105 0.7037
vn -0.1308 0.0026 0.9914
vn -0.5354 0.0018 0.8446
vn 0.2140 0.0059 0.9768
vn 0.0012 0.8534 0.5213
vn 0.5129 0.5777 0.6350
vn 0.7242 0.0059 0.6895
vn 0.0028 -0.5497 0.8353
vn 0.1319 -0.0055 0.9913
vn 0.6069 -0.5024 0.6159
vn 0.5367 -0.0047 0.8438
vn -0.0007 -0.9855 0.1696
vn -0.2514 -0.9531 0.1686
vn -0.3239 -0.9296 -0.1760
vn 0.3066 -0.9412 0.1420
vn 0.0004 -0.9882 0.1529
vn 0.4612 -0.8727 -0.1602
vn 0.9175 -0.0079 0.3976
vn 0.9580 -0.2829 -0.0465
vn 0.9444 0.3287 0.0100
vn 0.4511 0.8924 0.0089
vn -0.4294 0.9030 0.0126
vn -0.0006 0.9817 0.1906
vn -0.9441 0.0080 0.3296
vn -0.8634 0.5044 0.0126
vn -0.6876 0.5162 0.5106
vn -0.6936 0.5300 0.4879
vn -0.9787 -0.0039 0.2053
vn -0.8223 -0.5603 -0.0995
vn 0.3850 -0.9066 -0.1727
vn -0.2777 -0.9439 -0.1786
vn 0.8648 0.5021 0.0045
vn 0.9054 -0.4174 -0.0773
vn -0.3659 0.9306 0.0034
vn 0.2767 0.9609 0.0058
vn -0.8615 -0.4991 -0.0937
vn -0.8627 0.5056 0.0035
vn -0.9081 0.4188 0.0070
vn -0.0003 0.0479 0.9989
vn 0.0001 -0.1447 0.9895
vn -0.0002 -0.0622 0.9981
vn 0.0001 0.1797 0.9837
vn -0.0677 -0.0005 0.9977
vn 0.0147 0.0109 0.9998
vn 0.0117 -0.0009 0.9999
vn -0.1499 0.0007 0.9887
vn 0.0002 -0.0434 0.9991
vn -0.0001 0.0642 0.9979
vn -0.0002 -0.1639 0.9865
vn 0.0255 0.0002 0.9997
vn -0.1166 -0.0007 0.9932
vn -0.0426 0.0012 0.9991
vn 0.1120 -0.0004 0.9937
vn -0.0536 0.0822 0.9952
vn -0.0402 -0.0528 0.9978
vn 0.0554 -0.0848 0.9949
vn -0.0007 0.7532 0.6578
vn -0.0007 0.5109 0.8596
vn -0.0004 0.5809 0.8140
vn 0.0008 -0.8295 0.5585
vn 1.0000 0.0022 0.0045
vn 0.3928 0.0058 0.9196
vn 0.5859 0.0015 0.8104
vn -0.6695 0.7305 0.1345
vn -0.6093 0.6123 0.5039
vn -0.3062 0.9363 0.1721
vn 0.2951 0.7873 0.5413
vn 0.3033 0.9374 0.1714
vn 0.0016 0.9847 0.1745
vn 0.6755 0.7243 0.1379
vn 0.5840 0.6076 0.5383
vn -1.0000 -0.0050 0.0013
vn -0.9508 -0.3098 0.0039
vn -0.7923 -0.4357 0.4271
vn -0.6727 -0.7399 0.0040
vn -0.4936 -0.7703 0.4038
vn -0.7926 0.3461 0.5019
vn -0.9503 0.3048 0.0631
vn -1.0000 0.0022 0.0013
vn 0.5472 -0.8370 0.0029
vn 0.6341 -0.6519 0.4157
vn 0.2031 -0.9792 0.0019
vn -0.2492 -0.8822 0.3994
vn -0.3090 -0.9510 0.0043
vn -0.0019 -1.0000 0.0010
vn 0.9459 0.3182 0.0629
vn 0.8124 -0.3706 0.4501
vn 0.8834 -0.4687 0.0049
vn 0.9999 -0.0110 0.0012
vn -0.0015 -0.9926 0.1211
vn 0.0007 -0.9836 0.1804
vn 0.9474 -0.0004 0.3202
vn 0.9268 0.0001 0.3754
vn 0.0011 0.9487 0.3161
vn -0.0006 0.9392 0.3433
vn -0.9400 0.0009 0.3412
vn -0.9217 0.0008 0.3879
vn 0.7357 0.5686 0.3681
vn 0.7826 -0.5583 0.2755
vn -0.7406 -0.5780 0.3426
vn -0.7454 0.5609 0.3602
vn -0.0003 -0.4435 0.8963
vn -0.3504 0.0002 0.9366
vn -0.3351 0.0001 0.9422
vn 0.5765 0.0046 0.8171
vn 0.4338 -0.0008 0.9010
vn 0.0002 -0.3916 0.9201
vn 0.0007 -0.3868 0.9222
vn 0.0002 0.8984 0.4392
vn -0.3406 0.0015 0.9402
vn 0.2074 -0.5672 0.7970
vn 0.2155 -0.4586 0.8621
vn -0.3652 -0.2842 0.8865
vn 0.1437 0.1690 0.9751
vn -0.1979 0.5415 0.8171
vn -0.2065 0.4389 0.8745
vn 0.0766 0.2746 0.9585
vn -0.4768 -0.2791 0.8335
vn 0.0005 0.9847 0.1743
vn 0.0004 -1.0000 0.0002
vn 0.9006 0.4269 0.0814
vn 0.0051 -0.0025 -1.0000
vn -0.0018 0.9804 0.1970
vn 0.0018 0.9845 0.1752
vn 0.0038 0.9837 0.1799
vn -0.0046 0.9836 0.1804
vn 0.3142 0.0129 -0.9493
vn 0.0021 0.6625 -0.7491
vn 0.4672 0.6104 -0.6396
vn 0.6650 0.0084 -0.7468
vn 0.2104 -0.0118 -0.9776
vn 0.0023 -0.7676 -0.6409
vn 0.5447 -0.0085 -0.8386
vn 0.4732 -0.6359 -0.6097
vn -0.0013 -0.3386 -0.9409
vn -0.3142 -0.0129 -0.9493
vn -0.0021 -0.6625 -0.7490
vn -0.4784 -0.6331 -0.6086
vn -0.6652 -0.0084 -0.7466
vn -0.2103 0.0119 -0.9776
vn -0.0022 0.7676 -0.6409
vn -0.5447 0.0085 -0.8386
vn -0.4610 0.6140 -0.6407
vn 0.2534 0.9546 0.1564
vn 0.5349 0.8286 0.1649
vn 0.5634 0.7828 -0.2642
vn -0.5229 0.8362 0.1653
vn -0.9999 0.0078 -0.0116
vn -0.8983 0.4337 0.0709
vn -0.8720 0.3437 -0.3486
vn -0.8638 0.0036 -0.5038
vn -0.8663 -0.3600 -0.3462
vn -0.0033 -0.9255 -0.3788
vn 0.3028 -0.9530 -0.0038
vn 0.6734 -0.7391 -0.0173
vn 0.8656 -0.3572 -0.3510
vn 0.8726 -0.0036 -0.4885
vn 0.9999 0.0088 -0.0063
vn 0.8727 0.3457 -0.3448
vn 0.8989 0.4324 0.0707
vn 0.5813 0.7997 0.1502
vn -0.9085 0.4106 0.0782
vn -0.5754 0.8042 0.1487
vn 0.0009 0.0039 1.0000
vn -0.0007 0.0134 0.9999
vn 0.0006 -0.0134 0.9999
vn 0.0003 -0.9819 -0.1894
vn 0.0029 -0.9837 -0.1798
vn -0.0085 -0.9823 -0.1873
vn 0.9999 0.0103 0.0035
vn 1.0000 0.0027 0.0088
vn -0.0004 1.0000 0.0017
vn -0.0025 1.0000 0.0031
vn -0.9999 -0.0119 0.0018
vn -1.0000 0.0037 0.0044
vn -1.0000 0.0004 0.0076
vn -0.2150 -0.0074 0.9766
vn -0.0014 -0.5312 0.8473
vn -0.7026 -0.5177 0.4882
vn -0.7109 -0.0047 0.7032
vn -0.0023 0.7099 0.7043
vn -0.1310 0.0026 0.9914
vn -0.5350 0.0018 0.8448
vn 0.1874 0.0059 0.9823
vn 0.0013 0.8529 0.5221
vn 0.2738 0.4413 0.8546
vn 0.0028 -0.5496 0.8354
vn 0.1455 -0.0047 0.9893
vn 0.6069 -0.5022 0.6160
vn 0.5955 -0.0071 0.8033
vn -0.0008 -0.9855 0.1696
vn -0.2516 -0.9530 0.1688
vn -0.3239 -0.9296 -0.1759
vn 0.4614 -0.8726 -0.1602
vn 0.9095 -0.0074 0.4156
vn 0.9580 -0.2829 -0.0466
vn 0.9444 0.3285 0.0112
vn 0.8073 0.0061 0.5901
vn 0.6272 0.6349 0.4511
vn -0.4295 0.9030 0.0126
vn -0.9441 0.0080 0.3294
vn -0.8633 0.5045 0.0126
vn -0.6877 0.5161 0.5107
vn -0.6938 0.5303 0.4873
vn -0.9787 -0.0040 0.2051
vn -0.8223 -0.5603 -0.0994
vn -0.2776 -0.9440 -0.1786
vn 0.8647 0.5022 0.0045
vn 0.9056 -0.4171 -0.0773
vn -0.3661 0.9306 0.0034
vn 0.2769 0.9609 0.0058
vn -0.8614 -0.4991 -0.0937
vn -0.8627 0.5058 0.0035
vn -0.9080 0.4190 0.0070
vn -0.0002 0.0479 0.9989
vn -0.0003 -0.0622 0.9981
vn 0.0001 0.1795 0.9838
vn -0.0679 -0.0006 0.9977
vn 0.0147 0.0110 0.9998
vn 0.0116 -0.0009 0.9999
vn -0.1500 0.0006 0.9887
vn -0.0001 0.0645 0.9979
vn -0.0002 -0.1645 0.9864
vn -0.1170 -0.0007 0.9931
vn -0.0428 0.0013 0.9991
vn 0.1123 -0.0004 0.9937
vn -0.0535 0.0821 0.9952
vn -0.0404 -0.0530 0.9978
vn 0.0556 -0.0850 0.9948
vn -0.0007 0.7537 0.6572
vn -0.0007 0.5112 0.8594
vn -0.0004 0.5812 0.8138
vn 0.0008 -0.8290 0.5593
vn 0.3930 0.0058 0.9195
vn 0.5862 0.0015 0.8102
vn -0.6698 0.7296 0.1377
vn -0.6093 0.6123 0.5038
vn -0.3062 0.9351 0.1784
vn 0.2953 0.7875 0.5409
vn 0.3034 0.9366 0.1752
vn 0.0020 0.9835 0.1810
vn 0.6754 0.7239 0.1408
vn 0.5842 0.6080 0.5377
vn -0.7919 -0.4355 0.4281
vn -0.4932 -0.7699 0.4049
vn -0.7927 0.3462 0.5017
vn -0.9505 0.3041 0.0640
vn 0.5471 -0.8370 0.0029
vn 0.6338 -0.6517 0.4167
vn 0.2031 -0.9791 0.0019
vn -0.2492 -0.8817 0.4007
vn -0.3090 -0.9511 0.0044
vn 0.9461 0.3175 0.0639
vn 0.8119 -0.3704 0.4512
vn 0.9999 -0.0109 0.0012
vn -0.0016 -0.9926 0.1211
vn 0.0007 -0.9837 0.1800
vn 0.9475 -0.0004 0.3197
vn 0.9269 0.0001 0.3754
vn 0.0012 0.9486 0.3164
vn -0.0005 0.9391 0.3436
vn -0.9399 0.0009 0.3416
vn -0.9216 0.0009 0.3882
vn 0.7357 0.5685 0.3683
vn 0.7827 -0.5582 0.2755
vn -0.7412 -0.5781 0.3413
vn -0.7454 0.5608 0.3605
vn -0.0004 -0.4434 0.8963
vn -0.3500 0.0002 0.9368
vn -0.3354 0.0001 0.9421
vn 0.5799 0.0046 0.8147
vn 0.4349 -0.0008 0.9005
vn 0.0002 -0.3926 0.9197
vn 0.0007 -0.3878 0.9217
vn 0.0002 0.8987 0.4385
vn -0.3420 0.0015 0.9397
vn 0.2074 -0.5671 0.7971
vn 0.2155 -0.4585 0.8622
vn -0.3651 -0.2840 0.8866
vn 0.1443 0.1696 0.9749
vn -0.1985 0.5426 0.8162
vn -0.2071 0.4398 0.8739
vn 0.0769 0.2755 0.9582
vn -0.4768 -0.2788 0.8336
vn 0.0012 0.9834 0.1816
vn 0.9079 0.4116 0.0792
vt 0.291316 0.902440
vt 0.291348 0.902499
vt 0.371666 0.902439
vt 0.371633 0.902499
vt 0.290581 0.911491
vt 0.372402 0.911170
vt 0.371666 0.904034
vt 0.290562 0.904036
vt 0.371666 0.902539
vt 0.372573 0.902596
vt 0.372190 0.902852
vt 0.372914 0.903037
vt 0.373146 0.902866
vt 0.372518 0.902580
vt 0.372190 0.902867
vt 0.373126 0.902851
vt 0.372913 0.903037
vt 0.291316 0.902539
vt 0.290409 0.902596
vt 0.290793 0.902852
vt 0.290068 0.903037
vt 0.289836 0.902866
vt 0.290464 0.902580
vt 0.290793 0.902867
vt 0.289855 0.902851
vt 0.372539 0.904034
vt 0.372256 0.903311
vt 0.373163 0.904034
vt 0.373100 0.903486
vt 0.290721 0.903355
vt 0.289881 0.903486
vt 0.289818 0.904034
vt 0.289324 0.903958
vt 0.289444 0.904034
vt 0.289569 0.903386
vt 0.289444 0.903336
vt 0.289319 0.904034
vt 0.289834 0.903675
vt 0.291316 0.904034
vt 0.290442 0.904034
vt 0.290725 0.903311
vt 0.372259 0.903354
vt 0.372539 0.904034
vt 0.371666 0.904034
vt 0.373153 0.903676
vt 0.373662 0.904034
vt 0.373538 0.904034
vt 0.373413 0.903386
vt 0.373537 0.903337
vt 0.373659 0.903944
vt 0.373538 0.903336
vt 0.373167 0.911280
vt 0.289439 0.911280
vt 0.289812 0.911280
vt 0.291430 0.903290
vt 0.371541 0.903300
vt 0.371552 0.903290
vt 0.291440 0.903300
vt 0.290873 0.921618
vt 0.290845 0.904110
vt 0.372097 0.904105
vt 0.372127 0.921595
vt 0.290385 0.921604
vt 0.290399 0.921600
vt 0.290384 0.903698
vt 0.290355 0.904095
vt 0.372103 0.921615
vt 0.372134 0.904133
vt 0.290886 0.904124
vt 0.290864 0.921589
vt 0.372594 0.921614
vt 0.372586 0.904127
vt 0.372597 0.904123
vt 0.372585 0.921589
vt 0.372239 0.903361
vt 0.371936 0.903458
vt 0.372337 0.903603
vt 0.372416 0.903441
vt 0.372179 0.903465
vt 0.372202 0.903350
vt 0.372407 0.903434
vt 0.290743 0.903361
vt 0.291001 0.903470
vt 0.290669 0.903517
vt 0.290565 0.903441
vt 0.291049 0.903473
vt 0.290780 0.903350
vt 0.290644 0.903603
vt 0.290575 0.903434
vt 0.372429 0.904087
vt 0.290481 0.904062
vt 0.290472 0.903579
vt 0.290472 0.903786
vt 0.290575 0.903785
vt 0.372416 0.903788
vt 0.371983 0.903607
vt 0.372510 0.903579
vt 0.372523 0.903608
vt 0.290513 0.921749
vt 0.372450 0.921749
vt 0.290538 0.921748
vt 0.372466 0.921749
vt 0.290662 0.921823
vt 0.290851 0.921790
vt 0.372427 0.921822
vt 0.372510 0.921803
vt 0.289539 0.921802
vt 0.290253 0.921820
vt 0.290179 0.921822
vt 0.289532 0.921801
vt 0.372318 0.921823
vt 0.372128 0.921791
vt 0.290502 0.921802
vt 0.373184 0.921813
vt 0.372678 0.921790
vt 0.372804 0.921822
vt 0.373449 0.921801
vt 0.289869 0.921789
vt 0.289890 0.921787
vt 0.373110 0.921788
vt 0.291310 0.921605
vt 0.290467 0.921754
vt 0.371689 0.921736
vt 0.371666 0.921601
vt 0.372495 0.921754
vt 0.291291 0.921736
vt 0.373665 0.921602
vt 0.373522 0.921773
vt 0.373643 0.921728
vt 0.289807 0.921605
vt 0.372542 0.921604
vt 0.373170 0.921605
vt 0.289340 0.921734
vt 0.289444 0.921601
vt 0.289818 0.921601
vt 0.289436 0.921605
vt 0.289334 0.921727
vt 0.373163 0.921601
vt 0.290442 0.921601
vt 0.373544 0.921604
vt 0.373538 0.921601
vt 0.372156 0.921766
vt 0.290331 0.921766
vt 0.290320 0.921770
vt 0.290831 0.921766
vt 0.372649 0.921766
vt 0.373542 0.911280
vt 0.291316 0.915506
vt 0.291348 0.915565
vt 0.371666 0.915506
vt 0.371633 0.915565
vt 0.290581 0.924557
vt 0.372402 0.924236
vt 0.371666 0.917100
vt 0.290562 0.917103
vt 0.371666 0.915606
vt 0.372573 0.915663
vt 0.372188 0.915918
vt 0.372914 0.916103
vt 0.373146 0.915932
vt 0.372517 0.915646
vt 0.372189 0.915933
vt 0.373127 0.915917
vt 0.372913 0.916103
vt 0.291316 0.915606
vt 0.290409 0.915663
vt 0.290794 0.915918
vt 0.290068 0.916103
vt 0.289836 0.915932
vt 0.290465 0.915646
vt 0.290794 0.915933
vt 0.289855 0.915917
vt 0.290068 0.916104
vt 0.372539 0.917100
vt 0.372257 0.916377
vt 0.373163 0.917100
vt 0.373100 0.916552
vt 0.290721 0.916421
vt 0.289881 0.916552
vt 0.289818 0.917100
vt 0.289324 0.917024
vt 0.289444 0.917100
vt 0.289569 0.916453
vt 0.289444 0.916403
vt 0.289319 0.917100
vt 0.289444 0.916403
vt 0.289834 0.916742
vt 0.291316 0.917100
vt 0.290442 0.917100
vt 0.290725 0.916377
vt 0.372260 0.916421
vt 0.372539 0.917101
vt 0.371666 0.917100
vt 0.373153 0.916742
vt 0.373662 0.917100
vt 0.373538 0.917100
vt 0.373413 0.916453
vt 0.373537 0.916403
vt 0.373659 0.917010
vt 0.373538 0.916403
vt 0.373412 0.916453
vt 0.373167 0.924346
vt 0.289439 0.924346
vt 0.289812 0.924346
vt 0.291429 0.916356
vt 0.371541 0.916366
vt 0.371552 0.916356
vt 0.291440 0.916366
vt 0.290873 0.934684
vt 0.290845 0.917176
vt 0.372097 0.917171
vt 0.372127 0.934661
vt 0.290385 0.934670
vt 0.290399 0.934667
vt 0.290384 0.916764
vt 0.290355 0.917161
vt 0.372104 0.934682
vt 0.372135 0.917199
vt 0.290886 0.917190
vt 0.290864 0.934656
vt 0.372594 0.934680
vt 0.372586 0.917193
vt 0.372597 0.917189
vt 0.372585 0.934656
vt 0.372239 0.916427
vt 0.371936 0.916525
vt 0.372337 0.916669
vt 0.372416 0.916507
vt 0.372179 0.916531
vt 0.372201 0.916417
vt 0.372407 0.916500
vt 0.290605 0.916469
vt 0.291001 0.916537
vt 0.290669 0.916584
vt 0.291050 0.916540
vt 0.290780 0.916417
vt 0.290644 0.916670
vt 0.290575 0.916500
vt 0.372429 0.917153
vt 0.290481 0.917128
vt 0.290472 0.916645
vt 0.290472 0.916852
vt 0.290575 0.916851
vt 0.372416 0.916854
vt 0.371983 0.916674
vt 0.372510 0.916645
vt 0.372523 0.916674
vt 0.290513 0.934815
vt 0.372450 0.934815
vt 0.290538 0.934814
vt 0.372466 0.934815
vt 0.290662 0.934889
vt 0.290851 0.934856
vt 0.372428 0.934889
vt 0.372510 0.934869
vt 0.289539 0.934868
vt 0.290253 0.934886
vt 0.290179 0.934889
vt 0.289532 0.934867
vt 0.372318 0.934889
vt 0.372129 0.934857
vt 0.290503 0.934868
vt 0.373184 0.934879
vt 0.372679 0.934856
vt 0.372804 0.934889
vt 0.373448 0.934867
vt 0.289869 0.934855
vt 0.289890 0.934854
vt 0.373110 0.934854
vt 0.291310 0.934671
vt 0.290467 0.934820
vt 0.371689 0.934803
vt 0.371666 0.934668
vt 0.372494 0.934820
vt 0.291291 0.934802
vt 0.373665 0.934669
vt 0.373522 0.934839
vt 0.373643 0.934793
vt 0.289807 0.934672
vt 0.372542 0.934671
vt 0.373170 0.934671
vt 0.289340 0.934801
vt 0.289444 0.934668
vt 0.289818 0.934668
vt 0.289436 0.934671
vt 0.289334 0.934794
vt 0.373163 0.934668
vt 0.290442 0.934668
vt 0.373544 0.934671
vt 0.373538 0.934668
vt 0.372156 0.934833
vt 0.290331 0.934832
vt 0.290320 0.934836
vt 0.290831 0.934832
vt 0.372649 0.934832
vt 0.373542 0.924346
s 1
f 1/1/1 28/2/2 2/3/3
f 2/3/3 18/4/4 1/1/1
f 3/5/5 4/6/6 5/7/7
f 5/7/7 37/8/8 3/5/5
f 2/3/3 12/9/9 13/10/10
f 15/11/11 13/10/10 12/9/9
f 13/10/10 15/11/11 16/12/12
f 16/12/12 14/13/13 13/10/10
f 18/4/4 17/14/14 19/15/15
f 17/14/14 20/16/16 21/17/17
f 21/17/17 19/15/15 17/14/14
f 1/1/1 22/18/18 23/19/19
f 25/20/20 23/19/19 22/18/18
f 23/19/19 25/20/20 26/21/21
f 26/21/21 24/22/22 23/19/19
f 28/2/2 27/23/23 29/24/24
f 27/23/23 30/25/25 31/21/26
f 31/21/26 29/24/24 27/23/23
f 5/7/7 32/26/27 33/27/28
f 32/26/27 34/28/29 35/29/30
f 35/29/30 33/27/28 32/26/27
f 33/27/28 35/29/30 16/12/12
f 16/12/12 15/11/11 33/27/28
f 37/8/8 36/30/31 38/31/32
f 38/31/32 39/32/33 37/8/8
f 36/30/31 29/24/24 31/21/26
f 31/21/26 38/31/32 36/30/31
f 7/33/34 40/34/35 41/35/36
f 41/35/36 42/36/37 7/33/34
f 42/36/37 41/35/36 30/25/25
f 40/34/35 39/32/33 38/31/32
f 38/31/32 41/35/36 40/34/35
f 41/35/36 38/31/32 31/21/26
f 31/21/26 30/25/25 41/35/36
f 6/37/38 43/36/39 44/35/40
f 44/35/40 45/34/41 6/37/38
f 45/34/41 44/35/40 46/38/42
f 24/22/22 44/35/40 43/36/39
f 44/35/40 24/22/22 26/21/21
f 26/21/21 46/38/42 44/35/40
f 9/39/43 68/40/44 47/41/45
f 46/38/42 47/41/45 68/40/44
f 47/41/45 46/38/42 26/21/21
f 26/21/21 25/20/20 47/41/45
f 48/42/46 49/43/47 8/44/48
f 49/43/47 48/42/46 50/45/49
f 48/42/46 19/15/15 21/17/17
f 21/17/17 50/45/49 48/42/46
f 11/46/50 72/47/51 51/48/52
f 51/48/52 52/49/53 11/46/50
f 52/49/53 51/48/52 20/16/16
f 50/45/49 51/48/52 72/47/51
f 51/48/52 50/45/49 21/17/17
f 21/17/17 20/16/16 51/48/52
f 10/50/54 53/51/55 54/48/56
f 54/48/56 55/47/57 10/50/54
f 55/47/57 54/48/56 35/29/30
f 35/29/30 34/28/29 55/47/57
f 14/13/13 54/48/56 53/51/55
f 54/48/56 14/13/13 16/12/12
f 16/12/12 35/29/30 54/48/56
f 2/3/3 13/10/10 17/14/14
f 17/14/14 18/4/4 2/3/3
f 13/10/10 14/13/13 20/16/16
f 20/16/16 17/14/14 13/10/10
f 22/18/18 1/1/1 18/4/4
f 18/4/4 19/15/15 25/20/20
f 25/20/20 22/18/18 18/4/4
f 1/1/1 23/19/19 27/23/23
f 27/23/23 28/2/2 1/1/1
f 23/19/19 24/22/22 30/25/25
f 30/25/25 27/23/23 23/19/19
f 12/9/9 2/3/3 28/2/2
f 28/2/2 29/24/24 15/11/11
f 15/11/11 12/9/9 28/2/2
f 5/7/7 33/27/28 36/30/31
f 36/30/31 37/8/8 5/7/7
f 33/27/28 15/11/11 29/24/24
f 29/24/24 36/30/31 33/27/28
f 32/26/27 5/7/7 4/6/6
f 4/6/6 59/52/58 34/28/29
f 34/28/29 32/26/27 4/6/6
f 7/33/34 42/36/37 43/36/39
f 43/36/39 6/37/38 7/33/34
f 42/36/37 30/25/25 24/22/22
f 24/22/22 43/36/39 42/36/37
f 63/53/59 40/34/35 7/33/34
f 40/34/35 63/53/59 64/54/60
f 64/54/60 39/32/33 40/34/35
f 9/39/43 47/41/45 48/42/46
f 48/42/46 8/44/48 9/39/43
f 47/41/45 25/20/20 19/15/15
f 19/15/15 48/42/46 47/41/45
f 11/46/50 52/49/53 53/51/55
f 53/51/55 10/50/54 11/46/50
f 52/49/53 20/16/16 14/13/13
f 14/13/13 53/51/55 52/49/53
f 89/55/61 74/56/62 83/57/63
f 83/57/63 73/58/64 89/55/61
f 75/59/65 76/60/66 97/61/67
f 97/61/67 113/62/68 75/59/65
f 115/63/69 77/64/70 103/65/71
f 103/65/71 78/66/72 115/63/69
f 79/67/73 80/68/74 106/69/75
f 106/69/75 116/70/76 79/67/73
f 81/71/77 82/72/78 110/73/79
f 110/73/79 117/74/80 81/71/77
f 83/57/63 84/75/81 98/76/82
f 96/77/83 98/76/82 84/75/81
f 84/75/81 85/78/84 96/77/83
f 87/79/85 86/80/86 74/56/62
f 87/79/85 88/81/87 86/80/86
f 89/55/61 90/82/88 107/83/89
f 92/84/90 107/83/89 90/82/88
f 90/82/88 91/85/91 92/84/90
f 94/86/92 93/87/93 73/58/64
f 100/88/94 95/89/95 93/87/93
f 93/87/93 94/86/92 100/88/94
f 97/61/67 98/76/96 96/77/97
f 96/77/97 99/90/98 97/61/67
f 100/88/99 94/86/100 76/60/66
f 76/60/66 101/91/101 100/88/99
f 102/92/102 101/91/103 78/66/72
f 101/91/103 102/92/102 100/88/94
f 102/92/102 95/89/95 100/88/94
f 103/65/71 104/93/104 91/85/91
f 92/84/90 91/85/91 104/93/104
f 104/93/104 105/94/105 92/84/90
f 106/69/75 107/83/89 105/94/105
f 92/84/90 105/94/105 107/83/89
f 109/95/106 108/96/107 80/68/74
f 108/96/107 109/95/106 87/79/85
f 110/73/79 111/97/108 109/95/109
f 87/79/110 109/95/109 111/97/108
f 111/97/108 88/81/111 87/79/110
f 96/77/83 112/98/112 82/72/78
f 82/72/78 99/90/113 96/77/83
f 96/77/83 85/78/84 112/98/112
f 83/57/63 74/56/62 86/80/86
f 86/80/86 84/75/81 83/57/63
f 84/75/81 86/80/86 88/81/87
f 88/81/87 85/78/84 84/75/81
f 74/56/62 89/55/61 107/83/89
f 107/83/89 87/79/85 74/56/62
f 89/55/61 73/58/64 93/87/93
f 93/87/93 90/82/88 89/55/61
f 90/82/88 93/87/93 95/89/95
f 95/89/95 91/85/91 90/82/88
f 73/58/64 83/57/63 98/76/82
f 98/76/82 94/86/92 73/58/64
f 97/61/67 76/60/66 94/86/100
f 94/86/100 98/76/96 97/61/67
f 76/60/66 75/59/65 146/99/114
f 146/99/114 101/91/101 76/60/66
f 113/62/68 97/61/67 99/90/98
f 99/90/98 114/100/115 113/62/68
f 103/65/71 102/92/102 78/66/72
f 102/92/102 103/65/71 91/85/91
f 91/85/91 95/89/95 102/92/102
f 77/64/70 104/93/104 103/65/71
f 104/93/104 77/64/70 148/101/116
f 148/101/116 105/94/105 104/93/104
f 78/66/72 101/91/103 115/63/69
f 101/91/103 146/99/117 115/63/69
f 106/69/75 80/68/74 108/96/107
f 108/96/107 107/83/89 106/69/75
f 107/83/89 108/96/107 87/79/85
f 80/68/74 79/67/73 150/102/118
f 150/102/118 109/95/106 80/68/74
f 116/70/76 106/69/75 105/94/105
f 105/94/105 148/101/119 116/70/76
f 110/73/79 82/72/78 112/98/112
f 112/98/112 111/97/108 110/73/79
f 111/97/108 112/98/112 85/78/84
f 85/78/84 88/81/87 111/97/108
f 82/72/78 81/71/77 114/100/120
f 114/100/120 99/90/113 82/72/78
f 117/74/121 110/73/79 109/95/109
f 109/95/109 150/102/122 117/74/121
f 118/103/123 125/104/124 119/105/125
f 119/105/125 126/106/126 118/103/123
f 138/107/127 122/108/128 120/109/129
f 120/109/129 127/110/130 138/107/127
f 121/111/131 128/112/132 122/108/128
f 122/108/128 129/113/133 121/111/131
f 123/114/134 130/115/135 124/116/136
f 124/116/136 131/117/137 123/114/134
f 118/103/123 136/118/138 120/109/129
f 120/109/129 125/104/124 118/103/123
f 119/105/125 123/114/134 126/106/126
f 138/107/127 139/119/139 122/108/128
f 120/109/129 136/118/138 127/110/130
f 121/111/131 141/120/140 124/116/136
f 124/116/136 128/112/132 121/111/131
f 122/108/128 139/119/139 129/113/133
f 119/105/125 130/115/135 123/114/134
f 124/116/136 141/120/140 131/117/137
f 56/121/141 57/122/142 132/123/143
f 65/124/144 66/125/144 134/126/144
f 69/127/145 143/128/146 135/129/147
f 58/130/148 136/118/149 57/122/150
f 126/106/151 137/131/152 132/123/153
f 71/132/154 137/131/152 126/106/151
f 126/106/151 123/114/155 71/132/154
f 60/133/156 61/134/157 138/107/158
f 62/135/159 139/119/160 138/107/158
f 138/107/158 61/134/157 62/135/159
f 127/110/161 140/136/162 133/137/163
f 140/136/162 127/110/161 136/118/149
f 136/118/149 58/130/148 140/136/162
f 67/138/164 141/120/165 66/125/166
f 129/113/167 142/139/168 134/126/169
f 142/139/168 129/113/167 139/119/160
f 139/119/160 62/135/159 142/139/168
f 69/127/145 70/140/170 143/128/146
f 70/140/170 71/132/154 123/114/155
f 123/114/155 143/128/146 70/140/170
f 131/117/171 144/141/172 135/129/173
f 144/141/172 131/117/171 141/120/165
f 141/120/165 67/138/164 144/141/172
f 113/62/68 147/142/174 125/104/175
f 125/104/175 75/59/65 113/62/68
f 115/63/69 149/143/176 145/144/177
f 145/144/177 77/64/70 115/63/69
f 116/70/76 151/145/178 128/112/179
f 128/112/179 79/67/73 116/70/76
f 117/74/80 152/146/180 130/115/181
f 130/115/181 81/71/77 117/74/80
f 146/99/114 75/59/65 125/104/175
f 147/142/174 113/62/68 114/100/115
f 148/101/116 77/64/70 145/144/182
f 146/99/117 149/143/183 115/63/69
f 150/102/118 79/67/73 128/112/179
f 151/145/178 116/70/76 148/101/119
f 81/71/77 130/115/184 114/100/120
f 152/146/185 117/74/121 150/102/122
f 126/106/126 132/123/143 57/122/142
f 57/122/142 118/103/123 126/106/126
f 147/142/186 119/105/125 125/104/124
f 127/110/130 133/137/187 60/133/188
f 60/133/188 138/107/127 127/110/130
f 122/108/128 145/144/189 149/143/190
f 149/143/190 120/109/129 122/108/128
f 129/113/133 134/126/191 66/125/192
f 66/125/192 121/111/131 129/113/133
f 151/145/178 122/108/193 128/112/179
f 131/117/137 135/129/147 143/128/146
f 143/128/146 123/114/134 131/117/137
f 152/146/194 124/116/136 130/115/135
f 136/118/138 118/103/123 57/122/142
f 125/104/195 120/109/129 146/99/196
f 119/105/125 147/142/186 114/100/197
f 148/101/198 145/144/189 122/108/128
f 120/109/129 149/143/190 146/99/196
f 141/120/140 121/111/131 66/125/192
f 128/112/199 124/116/136 150/102/200
f 122/108/128 151/145/201 148/101/198
f 130/115/202 119/105/125 114/100/197
f 124/116/136 152/146/194 150/102/200
f 57/122/150 56/121/203 3/5/5
f 57/122/150 3/5/5 64/54/60
f 64/54/60 58/130/148 57/122/150
f 6/37/38 45/34/41 61/134/157
f 61/134/157 60/133/156 6/37/38
f 45/34/41 46/38/42 62/135/159
f 62/135/159 61/134/157 45/34/41
f 8/44/48 49/43/47 66/125/166
f 66/125/166 65/124/204 8/44/48
f 49/43/47 50/45/49 67/138/164
f 67/138/164 66/125/166 49/43/47
f 10/50/54 153/147/205 70/140/170
f 70/140/170 69/127/145 10/50/54
f 153/147/205 59/52/58 71/132/154
f 71/132/154 70/140/170 153/147/205
f 56/121/203 132/123/153 4/6/6
f 4/6/6 3/5/5 56/121/203
f 6/37/38 60/133/156 133/137/163
f 133/137/163 7/33/34 6/37/38
f 65/124/204 134/126/169 9/39/43
f 9/39/43 8/44/48 65/124/204
f 69/127/145 135/129/173 11/46/50
f 11/46/50 10/50/54 69/127/145
f 132/123/153 137/131/152 4/6/6
f 137/131/152 71/132/154 59/52/58
f 59/52/58 4/6/6 137/131/152
f 7/33/34 133/137/163 140/136/162
f 140/136/162 63/53/59 7/33/34
f 63/53/59 140/136/162 58/130/148
f 58/130/148 64/54/60 63/53/59
f 134/126/169 142/139/168 68/40/44
f 68/40/44 9/39/43 134/126/169
f 142/139/168 62/135/159 46/38/42
f 46/38/42 68/40/44 142/139/168
f 135/129/173 144/141/172 72/47/51
f 72/47/51 11/46/50 135/129/173
f 144/141/172 67/138/164 50/45/49
f 50/45/49 72/47/51 144/141/172
f 3/5/5 37/8/8 39/32/33
f 39/32/33 64/54/60 3/5/5
f 10/50/54 55/47/57 153/147/205
f 55/47/57 34/28/29 59/52/58
f 59/52/58 153/147/205 55/47/57
f 154/148/1 181/149/2 155/150/206
f 155/150/206 171/151/4 154/148/1
f 156/152/207 157/153/208 158/154/209
f 158/154/209 190/155/210 156/152/207
f 155/150/206 165/156/9 166/157/211
f 168/158/212 166/157/211 165/156/9
f 166/157/211 168/158/212 169/159/213
f 169/159/213 167/160/214 166/157/211
f 171/151/4 170/161/215 172/162/216
f 170/161/215 173/163/217 174/164/218
f 174/164/218 172/162/216 170/161/215
f 154/148/1 175/165/219 176/166/220
f 178/167/221 176/166/220 175/165/219
f 176/166/220 178/167/221 179/168/222
f 179/168/222 177/169/223 176/166/220
f 181/149/2 180/170/224 182/171/225
f 180/170/224 183/172/226 184/173/227
f 184/173/227 182/171/225 180/170/224
f 158/154/209 185/174/228 186/175/28
f 185/174/228 187/176/229 188/177/230
f 188/177/230 186/175/28 185/174/228
f 186/175/28 188/177/230 169/159/213
f 169/159/213 168/158/212 186/175/28
f 190/155/210 189/178/31 191/179/32
f 191/179/32 192/180/231 190/155/210
f 189/178/31 182/171/225 184/173/227
f 184/173/227 191/179/32 189/178/31
f 160/181/232 193/182/233 194/183/234
f 194/183/234 195/184/235 160/181/232
f 195/184/235 194/183/234 183/172/226
f 193/182/233 192/180/231 191/179/32
f 191/179/32 194/183/234 193/182/233
f 194/183/234 191/179/32 184/173/227
f 184/173/227 183/172/226 194/183/234
f 159/185/38 196/186/39 197/183/236
f 197/183/236 198/182/41 159/185/38
f 198/182/41 197/183/236 199/187/42
f 177/169/223 197/183/236 196/186/39
f 197/183/236 177/169/223 179/168/222
f 179/168/222 199/187/42 197/183/236
f 161/188/43 221/189/44 200/190/237
f 199/187/42 200/190/237 221/189/44
f 200/190/237 199/187/42 179/168/222
f 179/168/222 178/167/221 200/190/237
f 201/191/46 202/192/238 162/193/48
f 202/192/238 201/191/46 203/194/239
f 201/191/46 172/162/216 174/164/218
f 174/164/218 203/194/239 201/191/46
f 163/195/50 225/196/51 204/197/240
f 204/197/240 205/198/241 163/195/50
f 205/198/241 204/197/240 173/163/217
f 203/194/239 204/197/240 225/196/51
f 204/197/240 203/194/239 174/164/218
f 174/164/218 173/163/217 204/197/240
f 164/199/242 206/200/55 207/201/243
f 207/201/243 208/196/244 164/199/242
f 208/196/244 207/201/243 188/177/230
f 188/177/230 187/176/229 208/196/244
f 167/160/214 207/201/243 206/200/55
f 207/201/243 167/160/214 169/159/213
f 169/159/213 188/177/230 207/201/243
f 155/150/206 166/157/211 170/161/215
f 170/161/215 171/151/4 155/150/206
f 166/157/211 167/160/214 173/163/217
f 173/163/217 170/161/215 166/157/211
f 175/165/219 154/148/1 171/151/4
f 171/151/4 172/162/216 178/167/221
f 178/167/221 175/165/219 171/151/4
f 154/148/1 176/166/220 180/170/224
f 180/170/224 181/149/2 154/148/1
f 176/166/220 177/169/223 183/172/226
f 183/172/226 180/170/224 176/166/220
f 165/156/9 155/150/206 181/149/2
f 181/149/2 182/171/225 168/158/212
f 168/158/212 165/156/9 181/149/2
f 158/154/209 186/175/28 189/178/31
f 189/178/31 190/155/210 158/154/209
f 186/175/28 168/158/212 182/171/225
f 182/171/225 189/178/31 186/175/28
f 185/174/228 158/154/209 157/153/208
f 157/153/208 212/202/245 187/176/229
f 187/176/229 185/174/228 157/153/208
f 160/181/232 195/184/235 196/186/39
f 196/186/39 159/185/38 160/181/232
f 195/184/235 183/172/226 177/169/223
f 177/169/223 196/186/39 195/184/235
f 216/203/246 193/182/233 160/181/232
f 193/182/233 216/203/246 217/204/247
f 217/204/247 192/180/231 193/182/233
f 161/188/43 200/190/237 201/191/46
f 201/191/46 162/193/48 161/188/43
f 200/190/237 178/167/221 172/162/216
f 172/162/216 201/191/46 200/190/237
f 163/195/50 205/198/241 206/200/55
f 206/200/55 164/199/242 163/195/50
f 205/198/241 173/163/217 167/160/214
f 167/160/214 206/200/55 205/198/241
f 242/205/248 226/206/249 236/207/63
f 236/207/63 227/208/250 242/205/248
f 228/209/251 229/210/252 249/211/253
f 249/211/253 265/212/68 228/209/251
f 267/213/69 230/214/254 255/215/255
f 255/215/255 231/216/72 267/213/69
f 232/217/256 233/218/257 258/219/75
f 258/219/75 268/220/76 232/217/256
f 234/221/77 235/222/258 262/223/259
f 262/223/259 269/224/260 234/221/77
f 236/207/63 237/225/261 250/226/262
f 248/227/263 250/226/262 237/225/261
f 237/225/261 238/228/264 248/227/263
f 240/229/265 239/230/266 226/206/249
f 240/229/265 241/231/267 239/230/266
f 242/205/248 243/232/268 259/233/269
f 244/234/270 259/233/269 243/232/268
f 246/235/271 245/236/272 227/208/250
f 252/237/273 247/238/274 245/236/272
f 245/236/272 246/235/271 252/237/273
f 249/211/253 250/226/275 248/227/276
f 248/227/276 251/239/277 249/211/253
f 252/237/99 246/235/100 229/210/252
f 229/210/252 253/240/278 252/237/99
f 254/241/279 253/240/280 231/216/72
f 253/240/280 254/241/279 252/237/273
f 254/241/279 247/238/274 252/237/273
f 255/215/255 256/242/281 243/232/282
f 244/234/283 243/232/282 256/242/281
f 256/242/281 257/243/105 244/234/283
f 258/219/75 259/233/269 257/243/105
f 244/234/283 257/243/105 259/233/269
f 261/244/284 260/245/107 233/218/257
f 260/245/107 261/244/284 240/229/265
f 262/223/259 263/246/285 261/244/286
f 240/229/287 261/244/286 263/246/285
f 263/246/285 241/231/288 240/229/287
f 248/227/263 264/247/289 235/222/258
f 235/222/258 251/239/290 248/227/263
f 248/227/263 238/228/264 264/247/289
f 236/207/63 226/206/249 239/230/266
f 239/230/266 237/225/261 236/207/63
f 237/225/261 239/230/266 241/231/267
f 241/231/267 238/228/264 237/225/261
f 226/206/249 242/205/248 259/233/269
f 259/233/269 240/229/265 226/206/249
f 242/205/248 227/208/250 245/236/272
f 245/236/272 243/232/268 242/205/248
f 243/232/268 245/236/272 247/238/274
f 227/208/250 236/207/63 250/226/262
f 250/226/262 246/235/271 227/208/250
f 249/211/253 229/210/252 246/235/100
f 246/235/100 250/226/275 249/211/253
f 229/210/252 228/209/251 298/248/114
f 298/248/114 253/240/278 229/210/252
f 265/212/68 249/211/253 251/239/277
f 251/239/277 266/249/291 265/212/68
f 255/215/255 254/241/279 231/216/72
f 254/241/279 255/215/255 243/232/282
f 243/232/282 247/238/274 254/241/279
f 230/214/254 256/242/281 255/215/255
f 256/242/281 230/214/254 300/250/292
f 300/250/292 257/243/105 256/242/281
f 231/216/72 253/240/280 267/213/69
f 253/240/280 298/248/293 267/213/69
f 258/219/75 233/218/257 260/245/107
f 260/245/107 259/233/269 258/219/75
f 259/233/269 260/245/107 240/229/265
f 233/218/257 232/217/256 302/251/294
f 302/251/294 261/244/284 233/218/257
f 268/220/76 258/219/75 257/243/105
f 257/243/105 300/250/295 268/220/76
f 262/223/259 235/222/258 264/247/289
f 264/247/289 263/246/285 262/223/259
f 263/246/285 264/247/289 238/228/264
f 238/228/264 241/231/267 263/246/285
f 235/222/258 234/221/77 266/249/296
f 266/249/296 251/239/290 235/222/258
f 269/224/297 262/223/259 261/244/286
f 261/244/286 302/251/298 269/224/297
f 270/252/299 277/253/124 271/254/300
f 271/254/300 278/255/301 270/252/299
f 290/256/302 274/257/303 272/258/304
f 272/258/304 279/259/305 290/256/302
f 273/260/131 280/261/306 274/257/303
f 274/257/303 281/262/307 273/260/131
f 275/263/134 282/264/308 276/265/309
f 276/265/309 283/266/310 275/263/134
f 270/252/299 288/267/311 272/258/304
f 272/258/304 277/253/124 270/252/299
f 271/254/300 275/263/134 278/255/301
f 290/256/302 291/268/312 274/257/303
f 272/258/304 288/267/311 279/259/305
f 273/260/131 293/269/313 276/265/309
f 276/265/309 280/261/306 273/260/131
f 274/257/303 291/268/312 281/262/307
f 271/254/300 282/264/308 275/263/134
f 276/265/309 293/269/313 283/266/310
f 209/270/314 210/271/315 284/272/316
f 219/273/317 218/274/317 286/275/317
f 223/276/145 295/277/318 287/278/319
f 211/279/320 288/267/321 210/271/322
f 278/255/323 289/280/324 284/272/325
f 224/281/326 289/280/324 278/255/323
f 278/255/323 275/263/327 224/281/326
f 214/282/156 213/283/157 290/256/328
f 215/284/159 291/268/329 290/256/328
f 290/256/328 213/283/157 215/284/159
f 279/259/330 292/285/331 285/286/163
f 292/285/331 279/259/330 288/267/321
f 288/267/321 211/279/320 292/285/331
f 220/287/332 293/269/333 218/274/334
f 281/262/335 294/288/336 286/275/169
f 294/288/336 281/262/335 291/268/329
f 291/268/329 215/284/159 294/288/336
f 223/276/145 222/289/337 295/277/318
f 222/289/337 224/281/326 275/263/327
f 275/263/327 295/277/318 222/289/337
f 283/266/338 296/290/172 287/278/339
f 296/290/172 283/266/338 293/269/333
f 293/269/333 220/287/332 296/290/172
f 265/212/68 299/291/340 277/253/341
f 277/253/341 228/209/251 265/212/68
f 267/213/69 301/292/342 297/293/343
f 297/293/343 230/214/254 267/213/69
f 268/220/76 303/294/344 280/261/345
f 280/261/345 232/217/256 268/220/76
f 269/224/260 304/295/346 282/264/347
f 282/264/347 234/221/77 269/224/260
f 298/248/114 228/209/251 277/253/341
f 299/291/340 265/212/68 266/249/291
f 300/250/292 230/214/254 297/293/348
f 298/248/293 301/292/349 267/213/69
f 302/251/294 232/217/256 280/261/345
f 303/294/344 268/220/76 300/250/295
f 234/221/77 282/264/350 266/249/296
f 304/295/351 269/224/297 302/251/298
f 278/255/301 284/272/316 210/271/315
f 210/271/315 270/252/299 278/255/301
f 299/291/352 271/254/300 277/253/124
f 279/259/305 285/286/353 214/282/354
f 214/282/354 290/256/302 279/259/305
f 274/257/303 297/293/355 301/292/356
f 301/292/356 272/258/304 274/257/303
f 281/262/307 286/275/357 218/274/358
f 218/274/358 273/260/131 281/262/307
f 303/294/344 274/257/359 280/261/345
f 283/266/310 287/278/319 295/277/318
f 295/277/318 275/263/134 283/266/310
f 304/295/360 276/265/309 282/264/308
f 288/267/311 270/252/299 210/271/315
f 277/253/361 272/258/304 298/248/362
f 271/254/300 299/291/352 266/249/363
f 300/250/364 297/293/355 274/257/303
f 272/258/304 301/292/356 298/248/362
f 293/269/313 273/260/131 218/274/358
f 280/261/365 276/265/309 302/251/366
f 274/257/303 303/294/367 300/250/364
f 282/264/368 271/254/300 266/249/363
f 276/265/309 304/295/360 302/251/366
f 210/271/322 209/270/369 156/152/207
f 210/271/322 156/152/207 217/204/247
f 217/204/247 211/279/320 210/271/322
f 159/185/38 198/182/41 213/283/157
f 213/283/157 214/282/156 159/185/38
f 198/182/41 199/187/42 215/284/159
f 215/284/159 213/283/157 198/182/41
f 162/193/48 202/192/238 218/274/334
f 218/274/334 219/273/204 162/193/48
f 202/192/238 203/194/239 220/287/332
f 220/287/332 218/274/334 202/192/238
f 164/199/242 305/296/370 222/289/337
f 222/289/337 223/276/145 164/199/242
f 305/296/370 212/202/245 224/281/326
f 224/281/326 222/289/337 305/296/370
f 209/270/369 284/272/325 157/153/208
f 157/153/208 156/152/207 209/270/369
f 159/185/38 214/282/156 285/286/163
f 285/286/163 160/181/232 159/185/38
f 219/273/204 286/275/169 161/188/43
f 161/188/43 162/193/48 219/273/204
f 223/276/145 287/278/339 163/195/50
f 163/195/50 164/199/242 223/276/145
f 284/272/325 289/280/324 157/153/208
f 289/280/324 224/281/326 212/202/245
f 212/202/245 157/153/208 289/280/324
f 160/181/232 285/286/163 292/285/331
f 292/285/331 216/203/246 160/181/232
f 216/203/246 292/285/331 211/279/320
f 211/279/320 217/204/247 216/203/246
f 286/275/169 294/288/336 221/189/44
f 221/189/44 161/188/43 286/275/169
f 294/288/336 215/284/159 199/187/42
f 199/187/42 221/189/44 294/288/336
f 287/278/339 296/290/172 225/196/51
f 225/196/51 163/195/50 287/278/339
f 296/290/172 220/287/332 203/194/239
f 203/194/239 225/196/51 296/290/172
f 156/152/207 190/155/210 192/180/231
f 192/180/231 217/204/247 156/152/207
f 164/199/242 208/196/244 305/296/370
f 208/196/244 187/176/229 212/202/245
f 212/202/245 305/296/370 208/196/244
