# Blender 4.0.0
# www.blender.org
o fridge_right_door_Clear
v 0.131101 -0.357114 0.314883
v 0.130986 -0.267729 0.314687
v 0.327281 -0.265744 0.314883
v 0.327396 -0.355129 0.314687
v 0.329902 -0.262732 0.319993
v 0.130987 -0.262533 0.319986
v 0.130987 -0.277665 0.408665
v 0.327411 -0.277667 0.408666
v 0.334030 -0.355129 0.319986
v 0.334031 -0.267730 0.319986
v 0.334000 -0.283026 0.409058
v 0.334031 -0.355126 0.408653
v 0.128442 -0.360131 0.320073
v 0.327396 -0.360325 0.319986
v 0.327442 -0.360288 0.409086
v 0.130986 -0.360325 0.408654
v 0.124352 -0.267729 0.319986
v 0.124352 -0.355129 0.319986
v 0.124394 -0.355158 0.409057
v 0.124343 -0.282953 0.408656
v 0.127970 -0.266213 0.315208
v 0.130987 -0.265456 0.315017
v 0.126068 -0.266392 0.316103
v 0.129251 -0.263926 0.316058
v 0.126840 -0.264481 0.316674
v 0.128154 -0.356656 0.315154
v 0.129249 -0.358981 0.316107
v 0.126132 -0.356478 0.316055
v 0.126841 -0.358376 0.316674
v 0.330412 -0.356644 0.315208
v 0.327395 -0.357402 0.315017
v 0.332314 -0.356466 0.316103
v 0.329133 -0.358932 0.316058
v 0.331541 -0.358377 0.316674
v 0.330228 -0.266202 0.315154
v 0.329133 -0.263878 0.316107
v 0.332251 -0.266380 0.316055
v 0.331543 -0.264482 0.316674
v 0.129024 -0.263046 0.317583
v 0.128084 -0.262858 0.319986
v 0.126218 -0.263995 0.318164
v 0.126010 -0.263832 0.319986
v 0.329369 -0.262992 0.317729
v 0.332372 -0.263832 0.319986
v 0.332165 -0.263995 0.318164
v 0.333616 -0.267730 0.317668
v 0.333202 -0.265618 0.317833
v 0.333615 -0.265456 0.319986
v 0.333616 -0.357402 0.319986
v 0.333201 -0.357240 0.317833
v 0.333615 -0.355129 0.317668
v 0.332250 -0.358983 0.318606
v 0.329363 -0.359813 0.317585
v 0.330299 -0.360000 0.319986
v 0.129013 -0.359865 0.317728
v 0.126068 -0.358937 0.318623
v 0.124767 -0.355129 0.317668
v 0.125181 -0.357240 0.317833
v 0.124767 -0.357402 0.319986
v 0.124767 -0.265456 0.319986
v 0.125181 -0.265618 0.317833
v 0.124768 -0.267729 0.317668
v 0.330335 -0.278001 0.408669
v 0.332406 -0.278992 0.408668
v 0.128074 -0.277993 0.408666
v 0.333616 -0.357402 0.408654
v 0.332372 -0.359026 0.408654
v 0.333640 -0.280642 0.408666
v 0.128084 -0.360000 0.408654
v 0.126010 -0.359026 0.408653
v 0.330299 -0.360000 0.408654
v 0.124745 -0.280635 0.408665
v 0.125990 -0.278981 0.408666
v 0.124767 -0.357402 0.408654
v 0.131359 -0.266618 0.317515
v 0.327019 -0.356239 0.317514
v 0.129455 -0.280467 0.408630
v 0.129555 -0.265312 0.320225
v 0.330488 -0.281760 0.408664
v 0.330589 -0.267927 0.320188
v 0.330492 -0.354838 0.318866
v 0.328897 -0.357520 0.408614
v 0.328825 -0.357553 0.320290
v 0.127932 -0.356290 0.408614
v 0.127891 -0.356225 0.320280
v 0.129086 -0.266908 0.317748
v 0.128492 -0.266925 0.318015
v 0.130088 -0.265682 0.318073
v 0.131400 -0.356346 0.317547
v 0.129205 -0.355940 0.317715
v 0.128524 -0.355940 0.317992
v 0.129283 -0.357028 0.318095
v 0.329760 -0.355938 0.317888
v 0.329545 -0.356812 0.318270
v 0.326987 -0.266511 0.317547
v 0.329172 -0.266907 0.317714
v 0.329859 -0.266917 0.317992
v 0.128756 -0.265819 0.318556
v 0.128451 -0.265744 0.320161
v 0.329627 -0.265819 0.318556
v 0.328961 -0.265347 0.320242
v 0.328280 -0.265637 0.318124
v 0.330200 -0.266920 0.318472
v 0.330167 -0.265957 0.320074
v 0.330200 -0.356612 0.319161
v 0.329857 -0.357084 0.319153
v 0.328439 -0.357192 0.318111
v 0.129429 -0.357520 0.320316
v 0.129935 -0.357356 0.318566
v 0.128492 -0.357061 0.319166
v 0.128183 -0.355935 0.318472
v 0.127929 -0.266536 0.320299
v 0.128139 -0.266929 0.318568
v 0.328870 -0.280463 0.408713
v 0.330063 -0.280921 0.409149
v 0.330441 -0.356295 0.408650
v 0.329981 -0.357211 0.409141
v 0.129531 -0.357537 0.408701
v 0.128328 -0.357154 0.409143
v 0.127901 -0.281761 0.408697
v 0.128985 -0.278636 0.409392
v 0.330925 -0.357776 0.409381
v 0.329568 -0.278686 0.409392
v 0.331173 -0.280990 0.409390
v 0.332202 -0.279279 0.409278
v 0.128455 -0.280023 0.409389
v 0.332886 -0.356826 0.409392
v 0.332132 -0.358875 0.409273
v 0.128819 -0.359429 0.409392
v 0.127203 -0.357112 0.409390
v 0.126188 -0.358824 0.409273
v 0.329868 -0.278136 0.409220
v 0.333554 -0.357039 0.409219
v 0.128528 -0.359951 0.409218
v 0.124817 -0.281139 0.409225
v 0.128640 -0.278077 0.409202
v 0.125940 -0.279599 0.409359
v 0.333325 -0.280868 0.409319
v 0.330096 -0.359754 0.409321
v 0.125062 -0.357244 0.409317
v 0.129359 -0.280397 0.409203
v 0.330669 -0.281748 0.409202
v 0.329009 -0.357688 0.409200
v 0.127719 -0.356384 0.409200
v 0.328941 -0.280323 0.409282
v 0.128377 -0.280878 0.409149
v 0.330706 -0.356318 0.409214
v 0.129449 -0.357776 0.409285
v 0.127620 -0.281771 0.409281
v 0.131101 -0.357114 0.618378
v 0.130986 -0.267729 0.618181
v 0.327281 -0.265744 0.618378
v 0.327396 -0.355129 0.618181
v 0.329902 -0.262732 0.623487
v 0.130987 -0.262533 0.623480
v 0.130987 -0.277665 0.712159
v 0.327411 -0.277667 0.712161
v 0.334030 -0.355129 0.623480
v 0.334031 -0.267730 0.623480
v 0.334000 -0.283026 0.712552
v 0.334031 -0.355126 0.712148
v 0.128442 -0.360131 0.623568
v 0.327397 -0.360325 0.623480
v 0.327442 -0.360288 0.712580
v 0.130986 -0.360325 0.712148
v 0.124352 -0.267729 0.623480
v 0.124352 -0.355129 0.623480
v 0.124394 -0.355158 0.712551
v 0.124343 -0.282953 0.712150
v 0.127970 -0.266213 0.618702
v 0.130987 -0.265456 0.618511
v 0.126068 -0.266392 0.619597
v 0.129251 -0.263926 0.619552
v 0.126840 -0.264481 0.620168
v 0.128155 -0.356656 0.618648
v 0.129249 -0.358981 0.619601
v 0.126132 -0.356478 0.619549
v 0.126841 -0.358376 0.620168
v 0.330412 -0.356645 0.618702
v 0.327395 -0.357402 0.618511
v 0.332314 -0.356466 0.619597
v 0.329133 -0.358932 0.619552
v 0.331541 -0.358377 0.620168
v 0.330228 -0.266202 0.618648
v 0.329133 -0.263878 0.619601
v 0.332251 -0.266380 0.619549
v 0.331543 -0.264482 0.620168
v 0.129024 -0.263046 0.621077
v 0.128084 -0.262858 0.623480
v 0.126218 -0.263995 0.621658
v 0.126010 -0.263832 0.623480
v 0.329369 -0.262992 0.621223
v 0.332372 -0.263832 0.623480
v 0.332165 -0.263995 0.621658
v 0.333616 -0.267730 0.621162
v 0.333202 -0.265618 0.621327
v 0.333615 -0.265456 0.623480
v 0.333616 -0.357402 0.623480
v 0.333201 -0.357240 0.621327
v 0.333615 -0.355129 0.621162
v 0.332250 -0.358983 0.622100
v 0.329363 -0.359813 0.621079
v 0.330299 -0.360000 0.623480
v 0.129013 -0.359865 0.621222
v 0.126068 -0.358937 0.622117
v 0.124767 -0.355129 0.621163
v 0.125181 -0.357240 0.621327
v 0.124767 -0.357402 0.623480
v 0.124767 -0.265456 0.623480
v 0.125181 -0.265618 0.621327
v 0.124768 -0.267729 0.621162
v 0.330335 -0.278001 0.712163
v 0.332406 -0.278992 0.712162
v 0.128074 -0.277993 0.712160
v 0.333616 -0.357402 0.712148
v 0.332372 -0.359026 0.712148
v 0.333640 -0.280642 0.712160
v 0.128084 -0.360000 0.712148
v 0.126010 -0.359026 0.712148
v 0.330299 -0.360000 0.712148
v 0.124745 -0.280635 0.712160
v 0.125990 -0.278981 0.712160
v 0.124767 -0.357402 0.712148
v 0.131359 -0.266618 0.621009
v 0.327019 -0.356239 0.621009
v 0.129455 -0.280467 0.712125
v 0.129555 -0.265312 0.623719
v 0.330488 -0.281760 0.712158
v 0.330589 -0.267927 0.623682
v 0.330492 -0.354838 0.622360
v 0.328897 -0.357520 0.712109
v 0.328825 -0.357553 0.623784
v 0.127932 -0.356290 0.712108
v 0.127891 -0.356225 0.623774
v 0.129086 -0.266909 0.621243
v 0.128493 -0.266924 0.621509
v 0.130088 -0.265682 0.621567
v 0.131400 -0.356346 0.621041
v 0.129205 -0.355940 0.621209
v 0.128524 -0.355940 0.621486
v 0.129283 -0.357028 0.621590
v 0.329760 -0.355938 0.621382
v 0.329545 -0.356812 0.621764
v 0.326987 -0.266511 0.621042
v 0.329172 -0.266907 0.621208
v 0.329859 -0.266917 0.621486
v 0.128756 -0.265819 0.622050
v 0.128451 -0.265744 0.623655
v 0.329627 -0.265819 0.622050
v 0.328961 -0.265347 0.623736
v 0.328280 -0.265637 0.621618
v 0.330200 -0.266920 0.621966
v 0.330167 -0.265957 0.623568
v 0.330200 -0.356612 0.622655
v 0.329857 -0.357084 0.622647
v 0.328439 -0.357192 0.621605
v 0.129429 -0.357520 0.623810
v 0.129936 -0.357356 0.622060
v 0.128492 -0.357061 0.622660
v 0.128183 -0.355935 0.621966
v 0.127929 -0.266536 0.623793
v 0.128139 -0.266929 0.622062
v 0.328870 -0.280463 0.712207
v 0.330063 -0.280921 0.712643
v 0.330441 -0.356295 0.712145
v 0.329981 -0.357211 0.712635
v 0.129531 -0.357537 0.712195
v 0.128328 -0.357154 0.712637
v 0.127901 -0.281761 0.712192
v 0.128985 -0.278636 0.712887
v 0.330925 -0.357776 0.712875
v 0.329568 -0.278686 0.712886
v 0.331173 -0.280990 0.712884
v 0.332202 -0.279279 0.712772
v 0.128455 -0.280023 0.712884
v 0.332886 -0.356826 0.712886
v 0.332132 -0.358875 0.712767
v 0.128819 -0.359429 0.712886
v 0.127204 -0.357112 0.712884
v 0.126188 -0.358824 0.712768
v 0.329868 -0.278136 0.712715
v 0.333554 -0.357039 0.712713
v 0.128528 -0.359951 0.712712
v 0.124817 -0.281139 0.712719
v 0.128640 -0.278077 0.712696
v 0.125940 -0.279599 0.712853
v 0.333325 -0.280868 0.712813
v 0.330096 -0.359754 0.712815
v 0.125062 -0.357244 0.712812
v 0.129359 -0.280397 0.712697
v 0.330669 -0.281748 0.712696
v 0.329009 -0.357688 0.712695
v 0.127719 -0.356384 0.712694
v 0.328941 -0.280323 0.712776
v 0.128377 -0.280877 0.712643
v 0.330706 -0.356318 0.712708
v 0.129448 -0.357776 0.712779
v 0.127620 -0.281771 0.712775
vn -0.0012 0.0020 -1.0000
vn 0.0016 0.0293 -0.9996
vn 0.0092 0.0065 -0.9999
vn -0.0016 -0.0293 -0.9996
vn -0.0001 0.9872 0.1592
vn -0.0022 0.9852 0.1716
vn 0.0312 0.9853 0.1679
vn 0.0057 0.9872 0.1593
vn 1.0000 -0.0050 -0.0024
vn 0.9999 0.0082 -0.0070
vn 1.0000 0.0024 0.0006
vn 1.0000 -0.0052 0.0052
vn 0.0002 -1.0000 -0.0050
vn 0.0023 -1.0000 0.0004
vn -0.0007 -1.0000 -0.0003
vn -0.0092 -0.9999 -0.0050
vn -1.0000 -0.0029 -0.0049
vn -0.9999 -0.0110 0.0006
vn -1.0000 0.0022 0.0030
vn -1.0000 0.0089 -0.0032
vn -0.3144 0.0124 -0.9492
vn -0.0016 0.3384 -0.9410
vn -0.0025 0.6628 -0.7488
vn -0.6656 0.0081 -0.7463
vn -0.4669 0.6105 -0.6397
vn -0.0027 -0.7676 -0.6409
vn -0.2099 -0.0114 -0.9777
vn -0.4700 -0.6306 -0.6176
vn -0.5452 -0.0081 -0.8383
vn 0.3144 -0.0124 -0.9492
vn 0.0016 -0.3385 -0.9410
vn 0.0025 -0.6630 -0.7486
vn 0.6656 -0.0080 -0.7463
vn 0.4753 -0.6265 -0.6177
vn 0.0027 0.7676 -0.6410
vn 0.2099 0.0113 -0.9777
vn 0.4608 0.6141 -0.6407
vn 0.5452 0.0081 -0.8383
vn -0.0036 0.9255 -0.3786
vn -0.2013 0.9668 0.1573
vn -0.5633 0.7829 -0.2642
vn -0.5487 0.8247 0.1371
vn 0.5361 0.8328 0.1382
vn 0.5578 0.7895 -0.2561
vn 0.0033 0.9666 -0.2562
vn 0.8726 0.0035 -0.4885
vn 0.8695 0.3468 -0.3517
vn 0.8846 0.4607 0.0727
vn 0.8762 -0.4819 -0.0038
vn 0.8671 -0.3581 -0.3462
vn 0.9456 -0.0033 -0.3254
vn 0.5537 -0.8326 -0.0114
vn 0.0037 -0.9255 -0.3786
vn 0.2069 -0.9783 -0.0029
vn -0.6592 -0.7519 -0.0112
vn -0.0036 -0.9672 -0.2538
vn -0.8726 -0.0035 -0.4884
vn -0.8671 -0.3528 -0.3517
vn -0.9452 -0.3264 -0.0031
vn -0.8841 0.4616 0.0729
vn -0.8707 0.3481 -0.3474
vn -0.9456 0.0033 -0.3253
vn -0.3038 0.9390 0.1613
vn -0.6757 0.7260 0.1281
vn 0.9501 0.3070 0.0559
vn 0.6776 0.7244 0.1268
vn 0.3149 -0.9491 0.0027
vn 0.6655 -0.7464 0.0023
vn -0.8795 -0.4759 0.0031
vn -0.5549 -0.8319 0.0019
vn 0.0009 -0.0039 1.0000
vn 0.0008 0.0127 0.9999
vn -0.0329 -0.0003 0.9995
vn -0.0008 -0.0127 0.9999
vn 0.0010 -0.9869 -0.1612
vn -0.0035 -0.9869 -0.1615
vn 0.0213 -0.9891 -0.1456
vn 0.0027 -0.9864 -0.1646
vn -1.0000 -0.0042 0.0006
vn -1.0000 -0.0037 0.0026
vn -1.0000 0.0027 0.0060
vn -0.9999 0.0103 0.0024
vn -0.0008 1.0000 0.0028
vn 0.0030 1.0000 0.0020
vn -0.0203 0.9995 0.0225
vn -0.0028 1.0000 0.0042
vn 1.0000 0.0036 0.0029
vn 0.9999 -0.0114 0.0008
vn 1.0000 -0.0030 0.0009
vn 1.0000 0.0008 0.0051
vn 0.0016 -0.5308 0.8475
vn 0.2150 -0.0071 0.9766
vn 0.7033 -0.5180 0.4868
vn 0.7095 -0.0045 0.7047
vn 0.1310 0.0025 0.9914
vn 0.0027 0.7086 0.7056
vn 0.5342 0.0017 0.8453
vn -0.0015 0.8526 0.5226
vn -0.1870 0.0056 0.9823
vn -0.2741 0.4407 0.8548
vn -0.1452 -0.0044 0.9894
vn -0.0033 -0.5493 0.8356
vn -0.6070 -0.5028 0.6154
vn -0.5936 -0.0068 0.8048
vn 0.2514 -0.9530 0.1689
vn 0.0009 -0.9855 0.1698
vn 0.3270 -0.9320 -0.1563
vn -0.0004 -0.9882 0.1529
vn -0.3063 -0.9413 0.1421
vn -0.4621 -0.8751 -0.1437
vn -0.9581 -0.2832 -0.0429
vn -0.9095 -0.0071 0.4156
vn -0.8072 0.0059 0.5903
vn -0.9447 0.3279 0.0075
vn -0.6277 0.6338 0.4520
vn -0.4516 0.8922 0.0059
vn 0.0008 0.9817 0.1904
vn 0.4332 0.9013 0.0085
vn 0.8630 0.5051 0.0084
vn 0.9441 0.0077 0.3295
vn 0.6871 0.5161 0.5114
vn 0.6935 0.5307 0.4873
vn 0.8243 -0.5590 -0.0895
vn 0.9787 -0.0038 0.2051
vn -0.3875 -0.9091 -0.1531
vn 0.2837 -0.9457 -0.1585
vn -0.8652 0.5015 0.0030
vn -0.9055 -0.4188 -0.0691
vn 0.3664 0.9304 0.0023
vn -0.2760 0.9612 0.0039
vn 0.8627 -0.4988 -0.0831
vn 0.8625 0.5060 0.0023
vn 0.9081 0.4187 0.0047
vn 0.0004 -0.0875 0.9962
vn -0.0001 -0.1453 0.9894
vn 0.0006 0.0166 0.9999
vn -0.0003 0.1423 0.9898
vn -0.0277 -0.0005 0.9996
vn -0.0219 0.0110 0.9997
vn 0.0490 -0.0009 0.9988
vn 0.1413 0.0009 0.9900
vn 0.0001 0.0648 0.9979
vn -0.0006 -0.0305 0.9995
vn 0.0003 -0.1523 0.9883
vn 0.0430 0.0013 0.9991
vn 0.1175 -0.0007 0.9931
vn -0.0261 0.0014 0.9997
vn -0.1158 -0.0004 0.9933
vn 0.0516 0.0737 0.9959
vn 0.0695 -0.0731 0.9949
vn -0.0536 -0.0766 0.9956
vn -0.0033 0.6650 0.7469
vn 0.0030 0.5058 0.8626
vn 0.5828 -0.0017 0.8126
vn 0.4892 -0.0139 0.8721
vn -0.0011 -0.8352 0.5500
vn -0.0078 -0.8377 0.5461
vn -0.5871 0.0015 0.8095
vn -0.3960 0.0057 0.9182
vn 0.3049 0.9386 0.1615
vn 0.5858 0.6330 0.5062
vn -0.5619 0.6195 0.5482
vn 0.9478 -0.3188 0.0015
vn 0.5085 -0.7585 0.4077
vn 0.7906 0.3498 0.5025
vn -0.2527 -0.9675 0.0022
vn -0.6135 -0.6710 0.4163
vn 0.2494 -0.8814 0.4012
vn -0.9478 0.3139 0.0560
vn -0.8123 -0.3711 0.4499
vn -0.0009 -0.9835 0.1810
vn 0.0018 -0.9926 0.1212
vn -0.9266 0.0001 0.3761
vn -0.9473 -0.0004 0.3202
vn 0.0007 0.9388 0.3446
vn -0.0014 0.9482 0.3177
vn 0.9213 0.0004 0.3888
vn 0.9398 0.0009 0.3417
vn -0.7361 0.5675 0.3690
vn -0.7829 -0.5569 0.2774
vn 0.7405 -0.5760 0.3463
vn 0.7445 0.5618 0.3607
vn 0.0004 -0.4457 0.8952
vn -0.4368 -0.0008 0.8996
vn -0.5852 0.0047 0.8109
vn -0.0006 -0.3609 0.9326
vn -0.0001 -0.4026 0.9154
vn -0.0002 0.8975 0.4411
vn 0.3434 0.0015 0.9392
vn -0.2151 -0.4592 0.8619
vn -0.2077 -0.5668 0.7972
vn 0.3644 -0.2834 0.8871
vn -0.1456 0.1704 0.9746
vn 0.2082 0.4419 0.8726
vn 0.1993 0.5451 0.8144
vn -0.0775 0.2770 0.9577
vn 0.4750 -0.2788 0.8347
vn -0.0001 0.9873 0.1592
vn 1.0000 -0.0049 -0.0024
vn 1.0000 0.0025 0.0006
vn 1.0000 -0.0052 0.0053
vn -0.9999 -0.0109 0.0006
vn -0.0026 0.6628 -0.7488
vn -0.6656 0.0080 -0.7463
vn -0.4669 0.6106 -0.6397
vn -0.2099 -0.0113 -0.9777
vn 0.0016 -0.3384 -0.9410
vn 0.5451 0.0081 -0.8383
vn -0.5487 0.8247 0.1372
vn 0.5577 0.7895 -0.2560
vn 0.8726 0.0034 -0.4884
vn 0.8846 0.4606 0.0727
vn 0.9456 -0.0032 -0.3253
vn 0.0038 -0.9255 -0.3786
vn -0.9452 -0.3264 -0.0030
vn -0.6756 0.7260 0.1281
vn 0.0009 0.0127 0.9999
vn -0.0330 -0.0003 0.9995
vn -0.0007 -0.0128 0.9999
vn 0.0010 -0.9869 -0.1611
vn -0.0036 -0.9869 -0.1615
vn 0.0027 -0.9863 -0.1646
vn -1.0000 -0.0042 0.0007
vn -1.0000 0.0026 0.0060
vn -0.0204 0.9995 0.0225
vn 1.0000 0.0036 0.0030
vn 1.0000 -0.0029 0.0009
vn 1.0000 0.0008 0.0050
vn 0.0017 -0.5307 0.8476
vn 0.2149 -0.0071 0.9766
vn 0.7033 -0.5181 0.4868
vn 0.7094 -0.0045 0.7048
vn 0.0028 0.7086 0.7056
vn -0.2741 0.4409 0.8547
vn -0.1453 -0.0045 0.9894
vn -0.0033 -0.5494 0.8356
vn -0.5937 -0.0069 0.8046
vn 0.2515 -0.9530 0.1689
vn -0.9095 -0.0072 0.4156
vn -0.4516 0.8922 0.0060
vn 0.8630 0.5050 0.0084
vn 0.9441 0.0077 0.3296
vn 0.6873 0.5162 0.5111
vn 0.6935 0.5307 0.4872
vn 0.8244 -0.5590 -0.0894
vn -0.8652 0.5014 0.0030
vn -0.9054 -0.4189 -0.0691
vn 0.3664 0.9305 0.0023
vn -0.2759 0.9612 0.0038
vn 0.8626 0.5059 0.0023
vn 0.9081 0.4187 0.0046
vn -0.0001 -0.1454 0.9894
vn -0.0278 -0.0005 0.9996
vn 0.0490 -0.0010 0.9988
vn 0.1413 0.0010 0.9900
vn -0.0005 -0.0305 0.9995
vn 0.0430 0.0012 0.9991
vn 0.1176 -0.0007 0.9931
vn -0.0033 0.6650 0.7468
vn 0.0030 0.5059 0.8626
vn 0.5828 -0.0018 0.8126
vn 0.4892 -0.0140 0.8721
vn -0.0011 -0.8352 0.5499
vn -0.0078 -0.8377 0.5460
vn -0.5872 0.0015 0.8094
vn -0.3961 0.0057 0.9182
vn 0.5859 0.6329 0.5062
vn 0.5085 -0.7585 0.4076
vn 0.7907 0.3499 0.5024
vn -0.6136 -0.6710 0.4163
vn 0.2495 -0.8813 0.4012
vn -0.8124 -0.3711 0.4499
vn -0.0009 -0.9835 0.1808
vn 0.0018 -0.9926 0.1211
vn -0.9266 0.0001 0.3760
vn -0.9474 -0.0004 0.3201
vn 0.0007 0.9387 0.3446
vn -0.0014 0.9482 0.3178
vn -0.7361 0.5674 0.3690
vn -0.7829 -0.5570 0.2773
vn 0.7405 -0.5760 0.3462
vn 0.0004 -0.4458 0.8951
vn -0.4367 -0.0008 0.8996
vn -0.5850 0.0047 0.8111
vn -0.0006 -0.3608 0.9326
vn -0.0001 -0.4025 0.9154
vn -0.0002 0.8974 0.4413
vn 0.3435 0.0015 0.9391
vn -0.2077 -0.5668 0.7973
vn 0.3646 -0.2835 0.8870
vn -0.1455 0.1704 0.9746
vn 0.2082 0.4420 0.8725
vn 0.1993 0.5451 0.8143
vn -0.0774 0.2769 0.9578
vn 0.4753 -0.2789 0.8345
vt 0.302385 0.905187
vt 0.361448 0.905246
vt 0.361483 0.905187
vt 0.302420 0.905246
vt 0.302385 0.906781
vt 0.302386 0.933464
vt 0.361488 0.933464
vt 0.362237 0.906783
vt 0.363479 0.906781
vt 0.363479 0.906781
vt 0.363470 0.933582
vt 0.363479 0.933460
vt 0.361483 0.906781
vt 0.361497 0.933590
vt 0.302385 0.933460
vt 0.301620 0.906807
vt 0.300389 0.906781
vt 0.300402 0.933582
vt 0.300386 0.933461
vt 0.301478 0.905343
vt 0.302385 0.905286
vt 0.301863 0.905599
vt 0.300906 0.905613
vt 0.301138 0.905785
vt 0.301863 0.905614
vt 0.301533 0.905327
vt 0.301138 0.905785
vt 0.300925 0.905598
vt 0.362391 0.905343
vt 0.361483 0.905286
vt 0.362006 0.905599
vt 0.362963 0.905613
vt 0.362730 0.905785
vt 0.362006 0.905614
vt 0.362335 0.905327
vt 0.362731 0.905785
vt 0.362944 0.905598
vt 0.301795 0.906058
vt 0.301512 0.906781
vt 0.300951 0.906233
vt 0.300888 0.906781
vt 0.362980 0.906781
vt 0.362918 0.906233
vt 0.362077 0.906102
vt 0.363354 0.906084
vt 0.363230 0.906133
vt 0.363354 0.906781
vt 0.363230 0.906133
vt 0.363354 0.906084
vt 0.362944 0.906366
vt 0.362075 0.906059
vt 0.362356 0.906781
vt 0.300905 0.906371
vt 0.301792 0.906102
vt 0.300514 0.906084
vt 0.300639 0.906133
vt 0.300514 0.906781
vt 0.300639 0.906133
vt 0.300514 0.906084
vt 0.301509 0.933464
vt 0.300882 0.933464
vt 0.363362 0.933464
vt 0.362990 0.933465
vt 0.362356 0.933460
vt 0.362980 0.933460
vt 0.300514 0.933460
vt 0.300888 0.933460
vt 0.302498 0.906037
vt 0.302510 0.906047
vt 0.361369 0.906037
vt 0.361360 0.906047
vt 0.301955 0.906853
vt 0.361954 0.906858
vt 0.361926 0.933478
vt 0.301925 0.933453
vt 0.362413 0.933463
vt 0.362444 0.906842
vt 0.362414 0.906444
vt 0.362399 0.933459
vt 0.361913 0.906873
vt 0.301917 0.906880
vt 0.301947 0.933474
vt 0.361935 0.933448
vt 0.301454 0.906870
vt 0.301466 0.906875
vt 0.301457 0.933473
vt 0.301466 0.933448
vt 0.302115 0.906206
vt 0.301814 0.906108
vt 0.301714 0.906351
vt 0.301635 0.906188
vt 0.301849 0.906098
vt 0.301873 0.906212
vt 0.301644 0.906181
vt 0.361797 0.906217
vt 0.362194 0.906150
vt 0.362130 0.906265
vt 0.362017 0.906098
vt 0.361749 0.906221
vt 0.362154 0.906351
vt 0.362224 0.906181
vt 0.301623 0.906834
vt 0.362317 0.906808
vt 0.362327 0.906326
vt 0.362327 0.906533
vt 0.362224 0.906530
vt 0.302069 0.906354
vt 0.301635 0.906534
vt 0.301542 0.906325
vt 0.301529 0.906354
vt 0.362285 0.933609
vt 0.301600 0.933609
vt 0.362261 0.933607
vt 0.301586 0.933607
vt 0.301624 0.933682
vt 0.361948 0.933649
vt 0.362136 0.933682
vt 0.301783 0.933682
vt 0.362620 0.933682
vt 0.362545 0.933679
vt 0.363135 0.933682
vt 0.363267 0.933660
vt 0.301923 0.933650
vt 0.301733 0.933682
vt 0.362295 0.933661
vt 0.301247 0.933682
vt 0.301373 0.933649
vt 0.300867 0.933672
vt 0.300603 0.933660
vt 0.362929 0.933648
vt 0.362908 0.933647
vt 0.300942 0.933647
vt 0.301679 0.933625
vt 0.362227 0.933631
vt 0.363336 0.933630
vt 0.301646 0.933630
vt 0.300529 0.933632
vt 0.362367 0.933465
vt 0.363354 0.933460
vt 0.301512 0.933460
vt 0.300508 0.933464
vt 0.301896 0.933625
vt 0.362479 0.933629
vt 0.362468 0.933625
vt 0.361968 0.933625
vt 0.301402 0.933625
vt 0.302385 0.903245
vt 0.361448 0.903304
vt 0.361483 0.903245
vt 0.302420 0.903304
vt 0.302386 0.904839
vt 0.302386 0.931522
vt 0.361488 0.931522
vt 0.362237 0.904842
vt 0.363479 0.904839
vt 0.363479 0.904839
vt 0.363470 0.931640
vt 0.363479 0.931518
vt 0.361483 0.904839
vt 0.361497 0.931649
vt 0.302385 0.931519
vt 0.301620 0.904866
vt 0.300389 0.904839
vt 0.300402 0.931640
vt 0.300386 0.931519
vt 0.301478 0.903402
vt 0.302385 0.903344
vt 0.301863 0.903657
vt 0.300906 0.903671
vt 0.301138 0.903843
vt 0.301863 0.903672
vt 0.301533 0.903385
vt 0.301138 0.903843
vt 0.300925 0.903656
vt 0.362390 0.903402
vt 0.361483 0.903344
vt 0.362006 0.903657
vt 0.362963 0.903671
vt 0.362730 0.903843
vt 0.362006 0.903672
vt 0.362335 0.903385
vt 0.362731 0.903843
vt 0.362944 0.903656
vt 0.301795 0.904116
vt 0.301512 0.904839
vt 0.300951 0.904291
vt 0.300888 0.904839
vt 0.362980 0.904839
vt 0.362918 0.904291
vt 0.362077 0.904160
vt 0.363354 0.904142
vt 0.363230 0.904191
vt 0.363354 0.904839
vt 0.363230 0.904192
vt 0.363354 0.904142
vt 0.362944 0.904424
vt 0.362075 0.904117
vt 0.362356 0.904839
vt 0.300906 0.904429
vt 0.301792 0.904160
vt 0.300514 0.904142
vt 0.300639 0.904191
vt 0.300514 0.904839
vt 0.300514 0.904142
vt 0.301509 0.931522
vt 0.300882 0.931522
vt 0.363362 0.931522
vt 0.362990 0.931523
vt 0.362356 0.931519
vt 0.362980 0.931519
vt 0.300514 0.931519
vt 0.300888 0.931518
vt 0.302498 0.904096
vt 0.302510 0.904106
vt 0.361369 0.904096
vt 0.361360 0.904106
vt 0.301955 0.904911
vt 0.361954 0.904916
vt 0.361926 0.931536
vt 0.301925 0.931512
vt 0.362413 0.931522
vt 0.362444 0.904900
vt 0.362414 0.904502
vt 0.362399 0.931518
vt 0.361913 0.904931
vt 0.301917 0.904939
vt 0.301947 0.931533
vt 0.361935 0.931507
vt 0.301454 0.904928
vt 0.301466 0.904933
vt 0.301457 0.931532
vt 0.301466 0.931506
vt 0.302115 0.904264
vt 0.301814 0.904166
vt 0.301714 0.904409
vt 0.301635 0.904246
vt 0.301849 0.904156
vt 0.301873 0.904271
vt 0.301645 0.904239
vt 0.361797 0.904275
vt 0.362194 0.904208
vt 0.362130 0.904323
vt 0.362017 0.904156
vt 0.361749 0.904279
vt 0.362154 0.904409
vt 0.362224 0.904239
vt 0.301623 0.904892
vt 0.362317 0.904866
vt 0.362327 0.904384
vt 0.362327 0.904591
vt 0.362224 0.904589
vt 0.302069 0.904412
vt 0.301635 0.904593
vt 0.301542 0.904384
vt 0.301529 0.904413
vt 0.362285 0.931668
vt 0.301600 0.931667
vt 0.362261 0.931665
vt 0.301586 0.931666
vt 0.301624 0.931740
vt 0.361948 0.931708
vt 0.362136 0.931741
vt 0.301783 0.931741
vt 0.362620 0.931740
vt 0.362545 0.931737
vt 0.363135 0.931741
vt 0.363267 0.931719
vt 0.301923 0.931708
vt 0.301733 0.931741
vt 0.362295 0.931719
vt 0.301247 0.931740
vt 0.301373 0.931707
vt 0.300867 0.931731
vt 0.300603 0.931718
vt 0.362929 0.931706
vt 0.362908 0.931705
vt 0.300942 0.931705
vt 0.301679 0.931683
vt 0.362227 0.931689
vt 0.363336 0.931688
vt 0.301646 0.931688
vt 0.300529 0.931690
vt 0.362367 0.931523
vt 0.363354 0.931519
vt 0.301512 0.931519
vt 0.300508 0.931522
vt 0.301896 0.931684
vt 0.362479 0.931687
vt 0.362468 0.931683
vt 0.361968 0.931683
vt 0.301402 0.931683
s 1
f 2/1/1 3/2/2 4/3/3
f 4/3/3 1/4/4 2/1/1
f 6/5/5 7/6/6 8/7/7
f 8/7/7 5/8/8 6/5/5
f 9/9/9 10/10/10 11/11/11
f 11/11/11 12/12/12 9/9/9
f 14/13/13 15/14/14 16/15/15
f 16/15/15 13/16/16 14/13/13
f 18/17/17 19/18/18 20/19/19
f 20/19/19 17/17/20 18/17/17
f 21/20/21 22/21/22 2/1/1
f 22/21/22 21/20/21 24/22/23
f 21/20/21 23/23/24 25/24/25
f 25/24/25 24/22/23 21/20/21
f 27/25/26 26/26/27 1/4/4
f 26/26/27 27/25/26 29/27/28
f 29/27/28 28/28/29 26/26/27
f 30/29/30 31/30/31 4/3/3
f 31/30/31 30/29/30 33/31/32
f 30/29/30 32/32/33 34/33/34
f 34/33/34 33/31/32 30/29/30
f 36/34/35 35/35/36 3/2/2
f 35/35/36 36/34/35 38/36/37
f 38/36/37 37/37/38 35/35/36
f 39/38/39 40/39/40 6/5/5
f 40/39/40 39/38/39 41/40/41
f 41/40/41 42/41/42 40/39/40
f 39/38/39 24/22/23 25/24/25
f 25/24/25 41/40/41 39/38/39
f 5/8/8 44/42/43 45/43/44
f 45/43/44 43/44/45 5/8/8
f 43/44/45 45/43/44 38/36/37
f 38/36/37 36/34/35 43/44/45
f 10/10/10 46/45/46 47/46/47
f 47/46/47 48/47/48 10/10/10
f 37/37/38 47/46/47 46/45/46
f 48/47/48 47/46/47 45/43/44
f 45/43/44 44/42/43 48/47/48
f 47/46/47 37/37/38 38/36/37
f 38/36/37 45/43/44 47/46/47
f 9/9/9 49/47/49 50/48/50
f 50/48/50 51/49/51 9/9/9
f 52/50/52 50/48/50 49/47/49
f 51/49/51 50/48/50 32/32/33
f 50/48/50 52/50/52 34/33/34
f 34/33/34 32/32/33 50/48/50
f 53/51/53 54/52/54 14/13/13
f 54/52/54 53/51/53 52/50/52
f 53/51/53 33/31/32 34/33/34
f 34/33/34 52/50/52 53/51/53
f 56/53/55 55/54/56 13/16/16
f 55/54/56 56/53/55 29/27/28
f 29/27/28 27/25/26 55/54/56
f 18/17/17 57/55/57 58/56/58
f 58/56/58 59/57/59 18/17/17
f 28/28/29 58/56/58 57/55/57
f 59/57/59 58/56/58 56/53/55
f 58/56/58 28/28/29 29/27/28
f 29/27/28 56/53/55 58/56/58
f 17/17/20 60/57/60 61/58/61
f 61/58/61 62/59/62 17/17/20
f 60/57/60 42/41/42 41/40/41
f 41/40/41 61/58/61 60/57/60
f 62/59/62 61/58/61 23/23/24
f 61/58/61 41/40/41 25/24/25
f 25/24/25 23/23/24 61/58/61
f 26/26/27 21/20/21 2/1/1
f 2/1/1 1/4/4 26/26/27
f 28/28/29 23/23/24 21/20/21
f 21/20/21 26/26/27 28/28/29
f 1/4/4 4/3/3 31/30/31
f 33/31/32 27/25/26 1/4/4
f 1/4/4 31/30/31 33/31/32
f 35/35/36 30/29/30 4/3/3
f 4/3/3 3/2/2 35/35/36
f 37/37/38 32/32/33 30/29/30
f 30/29/30 35/35/36 37/37/38
f 3/2/2 2/1/1 22/21/22
f 24/22/23 36/34/35 3/2/2
f 3/2/2 22/21/22 24/22/23
f 43/44/45 39/38/39 6/5/5
f 6/5/5 5/8/8 43/44/45
f 36/34/35 24/22/23 39/38/39
f 39/38/39 43/44/45 36/34/35
f 40/39/40 65/60/63 7/6/6
f 7/6/6 6/5/5 40/39/40
f 42/41/42 73/61/64 65/60/63
f 65/60/63 40/39/40 42/41/42
f 51/49/51 46/45/46 10/10/10
f 10/10/10 9/9/9 51/49/51
f 32/32/33 37/37/38 46/45/46
f 46/45/46 51/49/51 32/32/33
f 10/10/10 48/47/48 68/62/65
f 68/62/65 11/11/11 10/10/10
f 48/47/48 44/42/43 64/63/66
f 64/63/66 68/62/65 48/47/48
f 55/54/56 53/51/53 14/13/13
f 14/13/13 13/16/16 55/54/56
f 27/25/26 33/31/32 53/51/53
f 53/51/53 55/54/56 27/25/26
f 54/52/54 71/64/67 15/14/14
f 15/14/14 14/13/13 54/52/54
f 52/50/52 67/65/68 71/64/67
f 71/64/67 54/52/54 52/50/52
f 62/59/62 57/55/57 18/17/17
f 18/17/17 17/17/20 62/59/62
f 23/23/24 28/28/29 57/55/57
f 57/55/57 62/59/62 23/23/24
f 59/57/59 74/66/69 19/18/18
f 19/18/18 18/17/17 59/57/59
f 56/53/55 70/67/70 74/66/69
f 74/66/69 59/57/59 56/53/55
f 75/68/71 89/69/72 76/70/73
f 76/70/73 95/71/74 75/68/71
f 78/72/75 101/73/76 114/74/77
f 114/74/77 77/75/78 78/72/75
f 79/76/79 80/77/80 81/78/81
f 81/78/81 116/79/82 79/76/79
f 83/80/83 108/81/84 118/82/85
f 118/82/85 82/83/86 83/80/83
f 85/84/87 112/85/88 120/86/89
f 120/86/89 84/87/90 85/84/87
f 88/88/91 86/89/92 75/68/71
f 98/90/93 87/91/94 86/89/92
f 86/89/92 88/88/91 98/90/93
f 89/69/72 90/92/95 92/93/96
f 90/92/95 91/94/97 92/93/96
f 107/95/98 93/96/99 76/70/73
f 93/96/99 107/95/98 94/97/100
f 95/71/74 96/98/101 102/99/102
f 100/100/103 102/99/102 96/98/101
f 96/98/101 97/101/104 100/100/103
f 98/90/105 88/88/106 78/72/75
f 78/72/75 99/102/107 98/90/105
f 101/73/76 102/99/108 100/100/109
f 100/100/109 104/103/110 101/73/76
f 80/77/80 104/103/111 103/104/112
f 100/100/103 103/104/112 104/103/111
f 100/100/103 97/101/104 103/104/112
f 93/96/113 105/105/114 81/78/81
f 94/97/115 106/106/116 105/105/114
f 105/105/114 93/96/113 94/97/115
f 106/106/116 107/95/98 83/80/83
f 107/95/98 106/106/116 94/97/115
f 108/81/84 109/107/117 110/108/118
f 92/93/96 110/108/118 109/107/117
f 110/108/119 111/109/120 85/84/87
f 92/93/121 91/94/122 111/109/120
f 111/109/120 110/108/119 92/93/121
f 98/90/93 99/102/123 112/85/88
f 112/85/88 113/110/124 98/90/93
f 113/110/124 87/91/94 98/90/93
f 90/92/95 89/69/72 75/68/71
f 75/68/71 86/89/92 90/92/95
f 91/94/97 90/92/95 86/89/92
f 86/89/92 87/91/94 91/94/97
f 107/95/98 76/70/73 89/69/72
f 89/69/72 92/93/96 107/95/98
f 96/98/101 95/71/74 76/70/73
f 76/70/73 93/96/99 96/98/101
f 97/101/104 96/98/101 93/96/99
f 88/88/91 75/68/71 95/71/74
f 95/71/74 102/99/102 88/88/91
f 102/99/108 101/73/76 78/72/75
f 78/72/75 88/88/106 102/99/108
f 115/111/125 114/74/77 101/73/76
f 101/73/76 104/103/110 115/111/125
f 99/102/107 78/72/75 77/75/78
f 77/75/78 146/112/126 99/102/107
f 80/77/80 103/104/112 81/78/81
f 93/96/113 81/78/81 103/104/112
f 103/104/112 97/101/104 93/96/113
f 81/78/81 105/105/114 116/79/82
f 117/113/127 116/79/82 105/105/114
f 105/105/114 106/106/116 117/113/127
f 79/76/79 104/103/111 80/77/80
f 79/76/79 115/111/128 104/103/111
f 109/107/117 108/81/84 83/80/83
f 83/80/83 107/95/98 109/107/117
f 92/93/96 109/107/117 107/95/98
f 119/114/129 118/82/85 108/81/84
f 108/81/84 110/108/118 119/114/129
f 106/106/116 83/80/83 82/83/86
f 82/83/86 117/113/130 106/106/116
f 113/110/124 112/85/88 85/84/87
f 85/84/87 111/109/120 113/110/124
f 87/91/94 113/110/124 111/109/120
f 111/109/120 91/94/97 87/91/94
f 146/112/131 120/86/89 112/85/88
f 112/85/88 99/102/123 146/112/131
f 110/108/119 85/84/87 84/87/132
f 84/87/132 119/114/133 110/108/119
f 126/115/134 145/116/135 123/117/136
f 123/117/136 121/118/137 126/115/134
f 124/119/138 122/120/139 127/121/140
f 127/121/140 138/122/141 124/119/138
f 122/120/139 148/123/142 129/124/143
f 129/124/143 139/125/144 122/120/139
f 130/126/145 149/127/146 137/128/147
f 137/128/147 140/129/148 130/126/145
f 123/117/136 145/116/135 124/119/138
f 124/119/138 125/130/149 123/117/136
f 121/118/137 137/128/147 126/115/134
f 122/120/139 128/131/150 127/121/140
f 138/122/141 125/130/149 124/119/138
f 129/124/143 148/123/142 130/126/145
f 130/126/145 131/132/151 129/124/143
f 139/125/144 128/131/150 122/120/139
f 137/128/147 149/127/146 126/115/134
f 140/129/148 131/132/151 130/126/145
f 136/133/152 132/134/153 8/7/7
f 8/7/7 7/6/6 136/133/152
f 11/11/154 133/135/155 12/12/12
f 15/14/156 134/136/157 16/15/15
f 19/18/158 135/137/159 20/19/19
f 132/134/153 63/138/160 8/7/7
f 132/134/153 125/130/161 64/63/66
f 64/63/66 63/138/160 132/134/153
f 7/6/6 65/60/63 136/133/152
f 73/61/64 137/128/162 136/133/152
f 136/133/152 65/60/63 73/61/64
f 133/135/155 66/139/163 12/12/12
f 133/135/155 128/131/164 67/65/68
f 67/65/68 66/139/163 133/135/155
f 11/11/11 68/62/65 138/122/165
f 125/130/161 138/122/165 68/62/65
f 68/62/65 64/63/66 125/130/161
f 134/136/157 69/140/166 16/15/15
f 134/136/157 131/132/167 70/67/70
f 70/67/70 69/140/166 134/136/157
f 15/14/14 71/64/67 139/125/168
f 128/131/164 139/125/168 71/64/67
f 71/64/67 67/65/68 128/131/164
f 135/137/159 72/141/169 20/19/19
f 72/141/169 135/137/159 137/128/162
f 137/128/162 73/61/64 72/141/169
f 19/18/18 74/66/69 140/129/170
f 131/132/167 140/129/170 74/66/69
f 74/66/69 70/67/70 131/132/167
f 145/116/171 141/142/172 77/75/78
f 77/75/78 114/74/77 145/116/171
f 147/143/173 142/144/174 79/76/79
f 79/76/79 116/79/82 147/143/173
f 148/123/175 143/145/176 82/83/86
f 82/83/86 118/82/85 148/123/175
f 149/127/177 144/146/178 84/87/90
f 84/87/90 120/86/89 149/127/177
f 145/116/171 114/74/77 115/111/125
f 146/112/126 77/75/78 141/142/172
f 147/143/179 116/79/82 117/113/127
f 79/76/79 142/144/180 115/111/128
f 148/123/175 118/82/85 119/114/129
f 117/113/130 82/83/86 143/145/176
f 146/112/131 149/127/181 120/86/89
f 119/114/133 84/87/132 144/146/182
f 132/134/153 136/133/152 121/118/137
f 121/118/137 123/117/136 132/134/153
f 145/116/135 126/115/134 141/142/183
f 133/135/155 11/11/154 138/122/141
f 138/122/141 127/121/140 133/135/155
f 142/144/184 147/143/185 122/120/139
f 122/120/139 124/119/138 142/144/184
f 134/136/186 15/14/187 139/125/144
f 139/125/144 129/124/143 134/136/186
f 148/123/175 122/120/188 143/145/176
f 135/137/159 19/18/158 140/129/148
f 140/129/148 137/128/147 135/137/159
f 149/127/146 130/126/145 144/146/189
f 132/134/153 123/117/136 125/130/149
f 115/111/190 124/119/138 145/116/191
f 137/128/147 121/118/137 136/133/152
f 146/112/192 141/142/183 126/115/134
f 133/135/155 127/121/140 128/131/150
f 122/120/139 147/143/185 117/113/193
f 115/111/190 142/144/184 124/119/138
f 134/136/186 129/124/143 131/132/151
f 119/114/194 130/126/145 148/123/195
f 117/113/193 143/145/196 122/120/139
f 146/112/192 126/115/134 149/127/197
f 119/114/194 144/146/189 130/126/145
f 5/8/8 8/7/7 63/138/160
f 63/138/160 64/63/66 44/42/43
f 44/42/43 5/8/8 63/138/160
f 66/139/163 49/47/49 9/9/9
f 9/9/9 12/12/12 66/139/163
f 67/65/68 52/50/52 49/47/49
f 49/47/49 66/139/163 67/65/68
f 13/16/16 16/15/15 69/140/166
f 70/67/70 56/53/55 13/16/16
f 13/16/16 69/140/166 70/67/70
f 72/141/169 60/57/60 17/17/20
f 17/17/20 20/19/19 72/141/169
f 73/61/64 42/41/42 60/57/60
f 60/57/60 72/141/169 73/61/64
f 151/147/1 152/148/2 153/149/3
f 153/149/3 150/150/4 151/147/1
f 155/151/198 156/152/6 157/153/7
f 157/153/7 154/154/8 155/151/198
f 158/155/199 159/156/10 160/157/200
f 160/157/200 161/158/201 158/155/199
f 163/159/13 164/160/14 165/161/15
f 165/161/15 162/162/16 163/159/13
f 167/163/17 168/164/202 169/165/19
f 169/165/19 166/163/20 167/163/17
f 170/166/21 171/167/22 151/147/1
f 171/167/22 170/166/21 173/168/203
f 170/166/21 172/169/204 174/170/205
f 174/170/205 173/168/203 170/166/21
f 176/171/26 175/172/206 150/150/4
f 175/172/206 176/171/26 178/173/28
f 178/173/28 177/174/29 175/172/206
f 179/175/30 180/176/207 153/149/3
f 180/176/207 179/175/30 182/177/32
f 179/175/30 181/178/33 183/179/34
f 183/179/34 182/177/32 179/175/30
f 185/180/35 184/181/36 152/148/2
f 184/181/36 185/180/35 187/182/37
f 187/182/37 186/183/208 184/181/36
f 188/184/39 189/185/40 155/151/198
f 189/185/40 188/184/39 190/186/41
f 190/186/41 191/187/209 189/185/40
f 188/184/39 173/168/203 174/170/205
f 174/170/205 190/186/41 188/184/39
f 154/154/8 193/188/43 194/189/210
f 194/189/210 192/190/45 154/154/8
f 192/190/45 194/189/210 187/182/37
f 187/182/37 185/180/35 192/190/45
f 159/156/10 195/191/211 196/192/47
f 196/192/47 197/193/212 159/156/10
f 186/183/208 196/192/47 195/191/211
f 197/193/212 196/192/47 194/189/210
f 194/189/210 193/188/43 197/193/212
f 196/192/47 186/183/208 187/182/37
f 187/182/37 194/189/210 196/192/47
f 158/155/199 198/193/49 199/194/50
f 199/194/50 200/195/213 158/155/199
f 201/196/52 199/194/50 198/193/49
f 200/195/213 199/194/50 181/178/33
f 199/194/50 201/196/52 183/179/34
f 183/179/34 181/178/33 199/194/50
f 202/197/214 203/198/54 163/159/13
f 203/198/54 202/197/214 201/196/52
f 202/197/214 182/177/32 183/179/34
f 183/179/34 201/196/52 202/197/214
f 205/199/55 204/200/56 162/162/16
f 204/200/56 205/199/55 178/173/28
f 178/173/28 176/171/26 204/200/56
f 167/163/17 206/201/57 207/202/58
f 207/202/58 208/203/215 167/163/17
f 177/174/29 207/202/58 206/201/57
f 208/203/215 207/202/58 205/199/55
f 207/202/58 177/174/29 178/173/28
f 178/173/28 205/199/55 207/202/58
f 166/163/20 209/203/60 210/202/61
f 210/202/61 211/204/62 166/163/20
f 209/203/60 191/187/209 190/186/41
f 190/186/41 210/202/61 209/203/60
f 211/204/62 210/202/61 172/169/204
f 210/202/61 190/186/41 174/170/205
f 174/170/205 172/169/204 210/202/61
f 175/172/206 170/166/21 151/147/1
f 151/147/1 150/150/4 175/172/206
f 177/174/29 172/169/204 170/166/21
f 170/166/21 175/172/206 177/174/29
f 150/150/4 153/149/3 180/176/207
f 182/177/32 176/171/26 150/150/4
f 150/150/4 180/176/207 182/177/32
f 184/181/36 179/175/30 153/149/3
f 153/149/3 152/148/2 184/181/36
f 186/183/208 181/178/33 179/175/30
f 179/175/30 184/181/36 186/183/208
f 152/148/2 151/147/1 171/167/22
f 173/168/203 185/180/35 152/148/2
f 152/148/2 171/167/22 173/168/203
f 192/190/45 188/184/39 155/151/198
f 155/151/198 154/154/8 192/190/45
f 185/180/35 173/168/203 188/184/39
f 188/184/39 192/190/45 185/180/35
f 189/185/40 214/205/63 156/152/6
f 156/152/6 155/151/198 189/185/40
f 191/187/209 222/206/216 214/205/63
f 214/205/63 189/185/40 191/187/209
f 200/195/213 195/191/211 159/156/10
f 159/156/10 158/155/199 200/195/213
f 181/178/33 186/183/208 195/191/211
f 195/191/211 200/195/213 181/178/33
f 159/156/10 197/193/212 217/207/65
f 217/207/65 160/157/200 159/156/10
f 197/193/212 193/188/43 213/208/66
f 213/208/66 217/207/65 197/193/212
f 204/200/56 202/197/214 163/159/13
f 163/159/13 162/162/16 204/200/56
f 176/171/26 182/177/32 202/197/214
f 202/197/214 204/200/56 176/171/26
f 203/198/54 220/209/67 164/160/14
f 164/160/14 163/159/13 203/198/54
f 201/196/52 216/210/68 220/209/67
f 220/209/67 203/198/54 201/196/52
f 211/204/62 206/201/57 167/163/17
f 167/163/17 166/163/20 211/204/62
f 172/169/204 177/174/29 206/201/57
f 206/201/57 211/204/62 172/169/204
f 208/203/215 223/211/69 168/164/202
f 168/164/202 167/163/17 208/203/215
f 205/199/55 219/212/70 223/211/69
f 223/211/69 208/203/215 205/199/55
f 224/213/71 238/214/217 225/215/218
f 225/215/218 244/216/219 224/213/71
f 227/217/220 250/218/221 263/219/77
f 263/219/77 226/220/222 227/217/220
f 228/221/223 229/222/80 230/223/224
f 230/223/224 265/224/82 228/221/223
f 232/225/83 257/226/84 267/227/225
f 267/227/225 231/228/86 232/225/83
f 234/229/226 261/230/88 269/231/227
f 269/231/227 233/232/228 234/229/226
f 237/233/229 235/234/230 224/213/71
f 247/235/231 236/236/232 235/234/230
f 235/234/230 237/233/229 247/235/231
f 238/214/217 239/237/95 241/238/233
f 239/237/95 240/239/97 241/238/233
f 256/240/98 242/241/99 225/215/218
f 242/241/99 256/240/98 243/242/234
f 244/216/219 245/243/235 251/244/236
f 249/245/103 251/244/236 245/243/235
f 245/243/235 246/246/237 249/245/103
f 247/235/238 237/233/106 227/217/220
f 227/217/220 248/247/107 247/235/238
f 250/218/221 251/244/108 249/245/109
f 249/245/109 253/248/110 250/218/221
f 229/222/80 253/248/111 252/249/239
f 249/245/103 252/249/239 253/248/111
f 249/245/103 246/246/237 252/249/239
f 242/241/113 254/250/114 230/223/224
f 243/242/115 255/251/240 254/250/114
f 254/250/114 242/241/113 243/242/115
f 255/251/240 256/240/98 232/225/83
f 256/240/98 255/251/240 243/242/115
f 257/226/84 258/252/117 259/253/118
f 241/238/233 259/253/118 258/252/117
f 259/253/241 260/254/242 234/229/226
f 241/238/243 240/239/244 260/254/242
f 260/254/242 259/253/241 241/238/243
f 247/235/231 248/247/245 261/230/88
f 261/230/88 262/255/124 247/235/231
f 262/255/124 236/236/232 247/235/231
f 239/237/95 238/214/217 224/213/71
f 224/213/71 235/234/230 239/237/95
f 240/239/97 239/237/95 235/234/230
f 235/234/230 236/236/232 240/239/97
f 256/240/98 225/215/218 238/214/217
f 238/214/217 241/238/233 256/240/98
f 245/243/235 244/216/219 225/215/218
f 225/215/218 242/241/99 245/243/235
f 246/246/237 245/243/235 242/241/99
f 237/233/229 224/213/71 244/216/219
f 244/216/219 251/244/236 237/233/229
f 251/244/108 250/218/221 227/217/220
f 227/217/220 237/233/106 251/244/108
f 264/256/125 263/219/77 250/218/221
f 250/218/221 253/248/110 264/256/125
f 248/247/107 227/217/220 226/220/222
f 226/220/222 295/257/126 248/247/107
f 229/222/80 252/249/239 230/223/224
f 242/241/113 230/223/224 252/249/239
f 252/249/239 246/246/237 242/241/113
f 230/223/224 254/250/114 265/224/82
f 266/258/246 265/224/82 254/250/114
f 254/250/114 255/251/240 266/258/246
f 228/221/223 253/248/111 229/222/80
f 228/221/223 264/256/247 253/248/111
f 258/252/117 257/226/84 232/225/83
f 232/225/83 256/240/98 258/252/117
f 241/238/233 258/252/117 256/240/98
f 268/259/248 267/227/225 257/226/84
f 257/226/84 259/253/118 268/259/248
f 255/251/240 232/225/83 231/228/86
f 231/228/86 266/258/249 255/251/240
f 262/255/124 261/230/88 234/229/226
f 234/229/226 260/254/242 262/255/124
f 236/236/232 262/255/124 260/254/242
f 260/254/242 240/239/97 236/236/232
f 295/257/131 269/231/227 261/230/88
f 261/230/88 248/247/245 295/257/131
f 259/253/241 234/229/226 233/232/250
f 233/232/250 268/259/251 259/253/241
f 275/260/134 294/261/252 272/262/136
f 272/262/136 270/263/137 275/260/134
f 273/264/253 271/265/139 276/266/254
f 276/266/254 287/267/255 273/264/253
f 271/265/139 297/268/142 278/269/256
f 278/269/256 288/270/144 271/265/139
f 279/271/257 298/272/258 286/273/147
f 286/273/147 289/274/148 279/271/257
f 272/262/136 294/261/252 273/264/253
f 273/264/253 274/275/149 272/262/136
f 270/263/137 286/273/147 275/260/134
f 271/265/139 277/276/150 276/266/254
f 287/267/255 274/275/149 273/264/253
f 278/269/256 297/268/142 279/271/257
f 279/271/257 280/277/151 278/269/256
f 288/270/144 277/276/150 271/265/139
f 286/273/147 298/272/258 275/260/134
f 289/274/148 280/277/151 279/271/257
f 285/278/259 281/279/260 157/153/7
f 157/153/7 156/152/6 285/278/259
f 160/157/261 282/280/262 161/158/201
f 164/160/263 283/281/264 165/161/15
f 168/164/265 284/282/266 169/165/19
f 281/279/260 212/283/160 157/153/7
f 281/279/260 274/275/267 213/208/66
f 213/208/66 212/283/160 281/279/260
f 156/152/6 214/205/63 285/278/259
f 222/206/216 286/273/162 285/278/259
f 285/278/259 214/205/63 222/206/216
f 282/280/262 215/284/163 161/158/201
f 282/280/262 277/276/268 216/210/68
f 216/210/68 215/284/163 282/280/262
f 160/157/200 217/207/65 287/267/269
f 274/275/267 287/267/269 217/207/65
f 217/207/65 213/208/66 274/275/267
f 283/281/264 218/285/166 165/161/15
f 283/281/264 280/277/270 219/212/70
f 219/212/70 218/285/166 283/281/264
f 164/160/14 220/209/67 288/270/271
f 277/276/268 288/270/271 220/209/67
f 220/209/67 216/210/68 277/276/268
f 284/282/266 221/286/169 169/165/19
f 221/286/169 284/282/266 286/273/162
f 286/273/162 222/206/216 221/286/169
f 168/164/202 223/211/69 289/274/272
f 280/277/270 289/274/272 223/211/69
f 223/211/69 219/212/70 280/277/270
f 294/261/273 290/287/274 226/220/222
f 226/220/222 263/219/77 294/261/273
f 296/288/275 291/289/276 228/221/223
f 228/221/223 265/224/82 296/288/275
f 297/268/277 292/290/278 231/228/86
f 231/228/86 267/227/225 297/268/277
f 298/272/177 293/291/178 233/232/228
f 233/232/228 269/231/227 298/272/177
f 294/261/273 263/219/77 264/256/125
f 295/257/126 226/220/222 290/287/274
f 296/288/279 265/224/82 266/258/246
f 228/221/223 291/289/280 264/256/247
f 297/268/277 267/227/225 268/259/248
f 266/258/249 231/228/86 292/290/278
f 295/257/131 298/272/281 269/231/227
f 268/259/251 233/232/250 293/291/182
f 281/279/260 285/278/259 270/263/137
f 270/263/137 272/262/136 281/279/260
f 294/261/252 275/260/134 290/287/282
f 282/280/262 160/157/261 287/267/255
f 287/267/255 276/266/254 282/280/262
f 291/289/283 296/288/284 271/265/139
f 271/265/139 273/264/253 291/289/283
f 283/281/285 164/160/286 288/270/144
f 288/270/144 278/269/256 283/281/285
f 297/268/277 271/265/287 292/290/278
f 284/282/266 168/164/265 289/274/148
f 289/274/148 286/273/147 284/282/266
f 298/272/258 279/271/257 293/291/288
f 281/279/260 272/262/136 274/275/149
f 264/256/190 273/264/253 294/261/289
f 286/273/147 270/263/137 285/278/259
f 295/257/290 290/287/282 275/260/134
f 282/280/262 276/266/254 277/276/150
f 271/265/139 296/288/284 266/258/291
f 264/256/190 291/289/283 273/264/253
f 283/281/285 278/269/256 280/277/151
f 268/259/292 279/271/257 297/268/293
f 266/258/291 292/290/294 271/265/139
f 295/257/290 275/260/134 298/272/295
f 268/259/292 293/291/288 279/271/257
f 154/154/8 157/153/7 212/283/160
f 212/283/160 213/208/66 193/188/43
f 193/188/43 154/154/8 212/283/160
f 215/284/163 198/193/49 158/155/199
f 158/155/199 161/158/201 215/284/163
f 216/210/68 201/196/52 198/193/49
f 198/193/49 215/284/163 216/210/68
f 162/162/16 165/161/15 218/285/166
f 219/212/70 205/199/55 162/162/16
f 162/162/16 218/285/166 219/212/70
f 221/286/169 209/203/60 166/163/20
f 166/163/20 169/165/19 221/286/169
f 222/206/216 191/187/209 209/203/60
f 209/203/60 221/286/169 222/206/216
