# Blender 4.0.0
# www.blender.org
o button_lock
v -0.17877200 -0.27445400 0.47592800
v -0.17450700 -0.26660600 0.47284100
v -0.17564700 -0.26206400 0.47278700
v -0.17871900 -0.25879400 0.47274800
v -0.18298600 -0.25758100 0.47273400
v -0.18725200 -0.25879400 0.47274800
v -0.19032400 -0.26206400 0.47278700
v -0.19146400 -0.26660600 0.47284100
v -0.19032400 -0.27114800 0.47289500
v -0.18725200 -0.27441900 0.47293300
v -0.18298600 -0.27564200 0.47294700
v -0.17871900 -0.27441900 0.47293300
v -0.17564700 -0.27114800 0.47289500
v -0.18298600 -0.25809400 0.47619300
v -0.17910600 -0.27382300 0.47659800
v -0.17737500 -0.26727100 0.47720100
v -0.18544300 -0.26133300 0.47712600
v -0.18764600 -0.26333600 0.47715000
v -0.18830300 -0.26884100 0.47722100
v -0.18396400 -0.27270200 0.47726500
v -0.18052500 -0.27217800 0.47725500
v -0.18298600 -0.26678000 0.47788400
v -0.18514900 -0.27523100 0.47622300
v -0.18082200 -0.27523100 0.47622300
v -0.18885500 -0.27296800 0.47619600
v -0.19098100 -0.26902300 0.47614900
v -0.19098100 -0.26441600 0.47609500
v -0.18885500 -0.26047100 0.47604800
v -0.18514900 -0.25820800 0.47602100
v -0.18082200 -0.25820800 0.47602100
v -0.17711600 -0.26047100 0.47604800
v -0.17499000 -0.26441600 0.47609500
v -0.17499000 -0.26902300 0.47614900
v -0.17711600 -0.27296800 0.47619600
v -0.18153000 -0.27409600 0.47687000
v -0.18984100 -0.26827400 0.47682200
v -0.18964500 -0.26434500 0.47676700
v -0.18765600 -0.26113100 0.47672900
v -0.18444200 -0.25939000 0.47669600
v -0.17831600 -0.27235500 0.47686300
v -0.18515900 -0.27534100 0.47594300
v -0.18520000 -0.27531700 0.47294400
v -0.18081200 -0.27534100 0.47594300
v -0.18077200 -0.27531700 0.47294400
v -0.18892400 -0.27305200 0.47591100
v -0.18899200 -0.27300000 0.47291700
v -0.19108500 -0.26905900 0.47586400
v -0.19116800 -0.26896300 0.47286900
v -0.19109300 -0.26439000 0.47580800
v -0.19116800 -0.26424900 0.47281300
v -0.18894400 -0.26038900 0.47576100
v -0.18899200 -0.26021200 0.47276500
v -0.18519200 -0.25808700 0.47573300
v -0.18520000 -0.25789500 0.47273700
v -0.18077900 -0.25808700 0.47573300
v -0.18077200 -0.25789500 0.47273700
v -0.17702700 -0.26038800 0.47576100
v -0.17697900 -0.26021200 0.47276500
v -0.17487900 -0.26439000 0.47580800
v -0.17480300 -0.26424900 0.47281300
v -0.17488600 -0.26905900 0.47586400
v -0.17480300 -0.26896300 0.47286900
v -0.17704700 -0.27305200 0.47591100
v -0.17697900 -0.27300000 0.47291700
v -0.18715500 -0.27435400 0.47621200
v -0.18298600 -0.27553900 0.47622600
v -0.18500100 -0.27464300 0.47660600
v -0.17881600 -0.27435400 0.47621200
v -0.18097100 -0.27464300 0.47660600
v -0.19015700 -0.27115800 0.47617500
v -0.18844400 -0.27253900 0.47658100
v -0.19127000 -0.26671900 0.47612200
v -0.19039500 -0.26888800 0.47654600
v -0.19015700 -0.26228100 0.47606900
v -0.19041800 -0.26459600 0.47648700
v -0.18715500 -0.25908500 0.47603100
v -0.18844400 -0.26092900 0.47644400
v -0.18298600 -0.25790000 0.47601700
v -0.18500000 -0.25882100 0.47641800
v -0.17881600 -0.25908500 0.47603100
v -0.18097100 -0.25882100 0.47641800
v -0.17581500 -0.26228100 0.47606900
v -0.17752800 -0.26092900 0.47644400
v -0.17470100 -0.26671900 0.47612200
v -0.17555300 -0.26459600 0.47648700
v -0.17581500 -0.27115800 0.47617500
v -0.17557600 -0.26888800 0.47654600
v -0.17752700 -0.27253900 0.47658100
v -0.17983500 -0.27345200 0.47687000
v -0.18176700 -0.27270500 0.47725100
v -0.18999600 -0.26629300 0.47679200
v -0.18884500 -0.26256600 0.47674100
v -0.18684900 -0.26228800 0.47713400
v -0.18613700 -0.26003300 0.47671100
v -0.18396400 -0.26081100 0.47712400
v -0.18298600 -0.25898300 0.47660400
v -0.17766800 -0.26884100 0.47722100
v -0.17712700 -0.27092000 0.47684000
v -0.18382800 -0.27058800 0.47758300
v -0.18551500 -0.26946300 0.47758700
v -0.18657300 -0.26587200 0.47752700
v -0.18551600 -0.26407600 0.47752300
v -0.18045500 -0.26407600 0.47752300
v -0.18045700 -0.26946300 0.47758700
v -0.18621200 -0.27496500 0.47593400
v -0.18724700 -0.27447800 0.47480500
v -0.18625600 -0.27493700 0.47293900
v -0.18410300 -0.27555100 0.47294700
v -0.18298600 -0.27567900 0.47556900
v -0.18190600 -0.27557200 0.47593900
v -0.18186900 -0.27555100 0.47294700
v -0.17971500 -0.27493700 0.47293900
v -0.17872400 -0.27447800 0.47480500
v -0.18964100 -0.27218500 0.47590100
v -0.19031700 -0.27121100 0.47476900
v -0.18971400 -0.27212300 0.47290600
v -0.18816800 -0.27376900 0.47292600
v -0.19130500 -0.26790200 0.47585000
v -0.19145700 -0.26667300 0.47471500
v -0.19138800 -0.26779500 0.47285500
v -0.19081100 -0.27008800 0.47288200
v -0.19074100 -0.26327600 0.47579500
v -0.19031900 -0.26213500 0.47466100
v -0.19081100 -0.26312500 0.47279900
v -0.19138800 -0.26541700 0.47282700
v -0.18812900 -0.25962500 0.47575100
v -0.18725000 -0.25886600 0.47462300
v -0.18816800 -0.25944300 0.47275600
v -0.18971400 -0.26109000 0.47277500
v -0.18410600 -0.25785300 0.47573000
v -0.18298600 -0.25765000 0.47454800
v -0.18410300 -0.25766100 0.47273500
v -0.18625600 -0.25827500 0.47274200
v -0.17973300 -0.25846500 0.47573700
v -0.17872100 -0.25886600 0.47462700
v -0.17971500 -0.25827500 0.47274200
v -0.18186900 -0.25766100 0.47273500
v -0.17631400 -0.26125800 0.47577100
v -0.17565200 -0.26213500 0.47466200
v -0.17625700 -0.26109000 0.47277500
v -0.17780400 -0.25944300 0.47275600
v -0.17466300 -0.26554700 0.47582200
v -0.17451500 -0.26667300 0.47471500
v -0.17458300 -0.26541700 0.47282700
v -0.17516000 -0.26312500 0.47279900
v -0.17524100 -0.27017200 0.47587700
v -0.17565400 -0.27121100 0.47476900
v -0.17516000 -0.27008800 0.47288200
v -0.17458300 -0.26779500 0.47285500
v -0.17786500 -0.27381200 0.47592100
v -0.17780400 -0.27376900 0.47292600
v -0.17625700 -0.27212300 0.47290600
v -0.18707500 -0.27421200 0.47636900
v -0.18719900 -0.27445400 0.47592800
v -0.18298600 -0.27563000 0.47599900
v -0.18298600 -0.27535700 0.47639800
v -0.18596300 -0.27429400 0.47660300
v -0.17889600 -0.27421200 0.47636900
v -0.18196700 -0.27485300 0.47661000
v -0.19001900 -0.27107900 0.47633200
v -0.19024600 -0.27122000 0.47588900
v -0.18909900 -0.27173600 0.47657300
v -0.19111100 -0.26672500 0.47628000
v -0.19138200 -0.26672400 0.47583600
v -0.19059900 -0.26783200 0.47653400
v -0.19001900 -0.26237100 0.47622800
v -0.19026000 -0.26222400 0.47578300
v -0.19009000 -0.26357800 0.47647800
v -0.18707500 -0.25923800 0.47619100
v -0.18722300 -0.25898000 0.47574300
v -0.18769300 -0.26023400 0.47643800
v -0.18298600 -0.25776700 0.47570900
v -0.18400500 -0.25861300 0.47641800
v -0.17889600 -0.25923800 0.47619100
v -0.17874800 -0.25898000 0.47574300
v -0.18000800 -0.25917300 0.47642400
v -0.17595200 -0.26237100 0.47622800
v -0.17571100 -0.26222400 0.47578300
v -0.17687200 -0.26172900 0.47645400
v -0.17486000 -0.26672500 0.47628000
v -0.17459000 -0.26672400 0.47583600
v -0.17535600 -0.26566100 0.47650100
v -0.17595200 -0.27107900 0.47633200
v -0.17572500 -0.27122000 0.47588900
v -0.17587900 -0.26989000 0.47655100
v -0.17827700 -0.27323200 0.47659200
v -0.18298600 -0.27449700 0.47678800
v -0.18544600 -0.27217800 0.47725500
v -0.18583200 -0.27288900 0.47706300
v -0.18686500 -0.27382200 0.47659800
v -0.18705400 -0.27102000 0.47724100
v -0.18831500 -0.27059300 0.47703600
v -0.18965000 -0.27084900 0.47656400
v -0.18859700 -0.26727100 0.47720100
v -0.19067900 -0.26674100 0.47651600
v -0.18849700 -0.26522300 0.47717200
v -0.18964900 -0.26261800 0.47646700
v -0.18686500 -0.25964800 0.47643200
v -0.18176700 -0.26080700 0.47711000
v -0.18052800 -0.26133300 0.47712600
v -0.18013800 -0.26061100 0.47691800
v -0.17910600 -0.25964800 0.47643200
v -0.17912200 -0.26228800 0.47713400
v -0.17832500 -0.26333600 0.47715000
v -0.17765500 -0.26290900 0.47694500
v -0.17632200 -0.26261800 0.47646700
v -0.17747400 -0.26522300 0.47717200
v -0.17661400 -0.26624600 0.47699500
v -0.17529200 -0.26674100 0.47651600
v -0.17632100 -0.27084900 0.47656400
v -0.17891800 -0.27102000 0.47724100
v -0.18243400 -0.26895600 0.47774200
v -0.18386300 -0.26909000 0.47771900
v -0.18634400 -0.27033800 0.47742600
v -0.18503800 -0.26618500 0.47770900
v -0.18752000 -0.26546300 0.47737700
v -0.18242900 -0.26459300 0.47769000
v -0.18188500 -0.26182900 0.47731900
v -0.17969700 -0.26304200 0.47732800
v -0.17845200 -0.26546300 0.47737700
v -0.18093300 -0.26618500 0.47770900
v -0.18080900 -0.26770800 0.47770200
v -0.17962800 -0.27033800 0.47742600
v -0.18519500 -0.27537500 0.47482900
v -0.18077600 -0.27537500 0.47482900
v -0.18898500 -0.27306100 0.47479000
v -0.19116100 -0.26902800 0.47474400
v -0.19116200 -0.26431800 0.47468700
v -0.18898800 -0.26028400 0.47464400
v -0.18520000 -0.25796800 0.47460900
v -0.18077200 -0.25796800 0.47460900
v -0.17698300 -0.26028400 0.47464400
v -0.17480900 -0.26431800 0.47468600
v -0.17481100 -0.26902800 0.47474400
v -0.17698600 -0.27306100 0.47479000
v -0.18618200 -0.27486000 0.47621800
v -0.18407700 -0.27546000 0.47622600
v -0.18510800 -0.27507300 0.47637900
v -0.18189400 -0.27546000 0.47622600
v -0.17979000 -0.27486000 0.47621800
v -0.18086400 -0.27507300 0.47637900
v -0.18956100 -0.27211000 0.47618600
v -0.18805000 -0.27371900 0.47620500
v -0.18874200 -0.27285300 0.47635300
v -0.19119600 -0.26788200 0.47613600
v -0.19063300 -0.27012200 0.47616200
v -0.19082800 -0.26898400 0.47630700
v -0.19063300 -0.26331700 0.47608200
v -0.19119600 -0.26555700 0.47610800
v -0.19082800 -0.26446600 0.47625300
v -0.18805000 -0.25972000 0.47603900
v -0.18956100 -0.26132900 0.47605800
v -0.18874200 -0.26059700 0.47620700
v -0.18407700 -0.25797900 0.47601800
v -0.18618200 -0.25857900 0.47602500
v -0.18510800 -0.25837700 0.47618100
v -0.17979000 -0.25857900 0.47602500
v -0.18189400 -0.25797900 0.47601800
v -0.18086400 -0.25837700 0.47618100
v -0.17641100 -0.26132900 0.47605800
v -0.17792200 -0.25972000 0.47603900
v -0.17722900 -0.26059700 0.47620700
v -0.17477500 -0.26555800 0.47610800
v -0.17533900 -0.26331700 0.47608200
v -0.17514400 -0.26446600 0.47625300
v -0.17533900 -0.27012200 0.47616200
v -0.17477500 -0.26788200 0.47613600
v -0.17514400 -0.26898400 0.47630700
v -0.17792200 -0.27371900 0.47620500
v -0.17641100 -0.27211000 0.47618600
v -0.17722900 -0.27285300 0.47635300
v -0.18448800 -0.27385800 0.47694700
v -0.18613600 -0.27345200 0.47687000
v -0.18765500 -0.27235500 0.47686300
v -0.18727600 -0.27185200 0.47705700
v -0.18884400 -0.27092000 0.47684000
v -0.18148300 -0.25963500 0.47677900
v -0.17983500 -0.26003300 0.47671100
v -0.17831500 -0.26113100 0.47672900
v -0.17869400 -0.26165000 0.47693600
v -0.17712600 -0.26256600 0.47674100
v -0.17632700 -0.26434500 0.47676700
v -0.17689200 -0.26459700 0.47697100
v -0.17597500 -0.26629300 0.47679200
v -0.17613000 -0.26827400 0.47682200
v -0.17666600 -0.26810900 0.47700300
v -0.17676800 -0.26946600 0.47693500
v -0.18198200 -0.27072000 0.47756000
v -0.18736200 -0.26802200 0.47743100
v -0.18382800 -0.26295000 0.47749300
v -0.18198500 -0.26281800 0.47746700
v -0.17939800 -0.26587200 0.47752700
v -0.17860900 -0.26802200 0.47743100
v -0.18409900 -0.27560900 0.47482800
v -0.18625100 -0.27499600 0.47481900
v -0.17972000 -0.27499600 0.47481900
v -0.18187200 -0.27560900 0.47482900
v -0.18816100 -0.27382900 0.47480000
v -0.18970700 -0.27218400 0.47477700
v -0.19080400 -0.27015200 0.47475700
v -0.19138100 -0.26786100 0.47473000
v -0.19138100 -0.26548500 0.47470200
v -0.19080600 -0.26319400 0.47467300
v -0.18971000 -0.26116100 0.47465400
v -0.18816500 -0.25951500 0.47463200
v -0.18625500 -0.25834800 0.47461600
v -0.18410400 -0.25773400 0.47460900
v -0.18186700 -0.25773400 0.47460900
v -0.17971600 -0.25834800 0.47461600
v -0.17780600 -0.25951500 0.47463300
v -0.17626100 -0.26116100 0.47465400
v -0.17516600 -0.26319400 0.47467300
v -0.17459000 -0.26548500 0.47470200
v -0.17459100 -0.26786100 0.47473000
v -0.17516700 -0.27015200 0.47475700
v -0.17626400 -0.27218400 0.47477700
v -0.17781000 -0.27382900 0.47480000
v -0.18612100 -0.27470900 0.47637500
v -0.18406500 -0.27557200 0.47593900
v -0.18405600 -0.27529800 0.47638200
v -0.18191500 -0.27529800 0.47638200
v -0.17975900 -0.27496500 0.47593400
v -0.17985100 -0.27470900 0.47637500
v -0.18943400 -0.27201200 0.47634300
v -0.18810600 -0.27381200 0.47592100
v -0.18795200 -0.27359000 0.47636100
v -0.19103800 -0.26786500 0.47629400
v -0.19073000 -0.27017200 0.47587700
v -0.19048600 -0.27006200 0.47632000
v -0.19048600 -0.26338800 0.47624000
v -0.19130900 -0.26554700 0.47582200
v -0.19103800 -0.26558500 0.47626600
v -0.18795200 -0.25986000 0.47619900
v -0.18965800 -0.26125800 0.47577100
v -0.18943400 -0.26143800 0.47621700
v -0.18405600 -0.25815200 0.47617800
v -0.18623800 -0.25846500 0.47573700
v -0.18612000 -0.25874100 0.47618500
v -0.17985100 -0.25874100 0.47618500
v -0.18186600 -0.25785300 0.47573000
v -0.18191500 -0.25815200 0.47617800
v -0.17653700 -0.26143800 0.47621700
v -0.17784200 -0.25962500 0.47575100
v -0.17801900 -0.25986000 0.47619900
v -0.17493300 -0.26558500 0.47626600
v -0.17523000 -0.26327600 0.47579500
v -0.17548600 -0.26338800 0.47624000
v -0.17548600 -0.27006200 0.47632000
v -0.17466600 -0.26790200 0.47585000
v -0.17493300 -0.26786500 0.47629400
v -0.17801900 -0.27359000 0.47636100
v -0.17633100 -0.27218500 0.47590100
v -0.17653700 -0.27201200 0.47634300
v -0.18400400 -0.27485300 0.47661000
v -0.18350500 -0.27355300 0.47707600
v -0.18000800 -0.27429400 0.47660300
v -0.18013900 -0.27288900 0.47706300
v -0.18166600 -0.27347700 0.47706500
v -0.18769400 -0.27323200 0.47659200
v -0.19009200 -0.26989000 0.47655100
v -0.18920300 -0.26946600 0.47693500
v -0.18930600 -0.26810900 0.47700300
v -0.19061600 -0.26566100 0.47650100
v -0.18935700 -0.26624600 0.47699500
v -0.18907900 -0.26459700 0.47697100
v -0.18910000 -0.26172900 0.47645400
v -0.18831600 -0.26290900 0.47694500
v -0.18727700 -0.26165000 0.47693600
v -0.18596300 -0.25917300 0.47642400
v -0.18583400 -0.26061100 0.47691800
v -0.18430500 -0.26002200 0.47690600
v -0.18196700 -0.25861300 0.47641800
v -0.18246500 -0.25994600 0.47691400
v -0.17827800 -0.26023400 0.47643800
v -0.17588100 -0.26357800 0.47647800
v -0.17537300 -0.26783200 0.47653400
v -0.17687200 -0.27173600 0.47657300
v -0.17765600 -0.27059200 0.47703600
v -0.17869600 -0.27185200 0.47705700
v -0.18424900 -0.27174300 0.47741900
v -0.18188700 -0.27169600 0.47743600
v -0.18516200 -0.26770800 0.47770200
v -0.18627400 -0.26304200 0.47732800
v -0.18424900 -0.26178200 0.47730100
v -0.18386400 -0.26445800 0.47766400
vn -0.2662 -0.9427 0.2012
vn -0.1389 -0.9903 0.0015
vn -0.1365 -0.9703 0.1998
vn -0.0000 -0.9997 -0.0249
vn -0.0000 -0.9987 0.0506
vn -0.5095 -0.8368 0.2002
vn -0.4008 -0.9162 0.0057
vn -0.3916 -0.8983 0.1992
vn -0.2739 -0.9617 0.0045
vn -0.4014 -0.9155 -0.0275
vn -0.5212 -0.8534 0.0074
vn -0.5220 -0.8525 -0.0255
vn -0.2745 -0.9612 -0.0290
vn -0.1451 -0.9890 -0.0300
vn 0.5095 -0.8368 0.2002
vn 0.4008 -0.9162 0.0057
vn 0.5212 -0.8534 0.0073
vn 0.3916 -0.8983 0.1991
vn 0.2739 -0.9617 0.0045
vn 0.1365 -0.9703 0.1998
vn 0.1389 -0.9903 0.0015
vn 0.2662 -0.9427 0.2012
vn 0.1451 -0.9890 -0.0300
vn 0.4014 -0.9155 -0.0275
vn 0.2745 -0.9612 -0.0290
vn -0.6179 -0.7601 0.2011
vn -0.7130 -0.6715 0.2019
vn -0.6316 -0.7752 0.0099
vn -0.8611 -0.4653 0.2050
vn -0.8114 -0.5843 0.0157
vn -0.7941 -0.5727 0.2035
vn -0.7285 -0.6849 0.0126
vn -0.8122 -0.5831 -0.0162
vn -0.8798 -0.4750 0.0193
vn -0.8807 -0.4736 -0.0125
vn -0.7294 -0.6838 -0.0197
vn -0.6325 -0.7742 -0.0228
vn -0.9123 -0.3530 0.2075
vn -0.9480 -0.2388 0.2102
vn -0.9325 -0.3605 0.0231
vn -0.9762 0.0003 0.2168
vn -0.9918 -0.1243 0.0309
vn -0.9695 -0.1215 0.2131
vn -0.9694 -0.2441 0.0269
vn -0.9924 -0.1227 -0.0004
vn -0.9994 0.0002 0.0352
vn -1.0000 0.0019 0.0039
vn -0.9701 -0.2426 -0.0045
vn -0.9333 -0.3591 -0.0085
vn -0.9677 0.1218 0.2207
vn -0.9448 0.2384 0.2248
vn -0.9914 0.1246 0.0395
vn -0.8554 0.4621 0.2339
vn -0.9315 0.3605 0.0478
vn -0.9077 0.3515 0.2292
vn -0.9687 0.2443 0.0436
vn -0.9319 0.3623 0.0164
vn -0.8786 0.4746 0.0520
vn -0.8789 0.4765 0.0203
vn -0.9692 0.2460 0.0123
vn -0.9920 0.1264 0.0082
vn -0.7879 0.5676 0.2388
vn -0.7067 0.6642 0.2435
vn -0.8100 0.5837 0.0561
vn -0.5051 0.8258 0.2507
vn -0.6303 0.7738 0.0631
vn -0.6123 0.7510 0.2472
vn -0.7271 0.6839 0.0599
vn -0.6304 0.7757 0.0308
vn -0.5200 0.8516 0.0660
vn -0.5200 0.8535 0.0335
vn -0.7273 0.6858 0.0277
vn -0.8102 0.5856 0.0242
vn -0.3887 0.8857 0.2540
vn -0.2663 0.9292 0.2563
vn -0.3999 0.9140 0.0684
vn -0.0000 0.9682 0.2501
vn -0.1403 0.9875 0.0711
vn -0.1378 0.9563 0.2581
vn -0.2735 0.9593 0.0700
vn -0.1403 0.9894 0.0381
vn -0.0000 0.9977 0.0681
vn -0.0000 0.9993 0.0382
vn -0.2734 0.9612 0.0372
vn -0.3999 0.9159 0.0356
vn 0.1404 0.9875 0.0712
vn 0.1378 0.9563 0.2581
vn 0.2735 0.9593 0.0700
vn 0.3887 0.8857 0.2540
vn 0.5200 0.8516 0.0662
vn 0.3999 0.9140 0.0684
vn 0.2663 0.9292 0.2563
vn 0.5200 0.8535 0.0335
vn 0.3999 0.9159 0.0356
vn 0.1403 0.9894 0.0381
vn 0.2734 0.9612 0.0372
vn 0.5051 0.8258 0.2508
vn 0.6303 0.7738 0.0631
vn 0.6123 0.7509 0.2473
vn 0.7271 0.6839 0.0599
vn 0.7879 0.5676 0.2389
vn 0.8786 0.4746 0.0520
vn 0.8100 0.5837 0.0561
vn 0.7067 0.6643 0.2435
vn 0.8789 0.4765 0.0203
vn 0.8103 0.5856 0.0242
vn 0.6304 0.7757 0.0308
vn 0.7273 0.6858 0.0277
vn 0.8554 0.4621 0.2339
vn 0.9315 0.3606 0.0478
vn 0.9077 0.3515 0.2292
vn 0.9687 0.2443 0.0436
vn 0.9677 0.1218 0.2208
vn 0.9994 0.0002 0.0351
vn 0.9914 0.1246 0.0395
vn 0.9448 0.2384 0.2248
vn 1.0000 0.0019 0.0039
vn 0.9920 0.1264 0.0082
vn 0.9319 0.3624 0.0163
vn 0.9692 0.2460 0.0123
vn 0.9762 0.0003 0.2168
vn 0.9918 -0.1243 0.0309
vn 0.9694 -0.1215 0.2131
vn 0.9694 -0.2441 0.0269
vn 0.9123 -0.3530 0.2075
vn 0.8798 -0.4750 0.0193
vn 0.9325 -0.3606 0.0231
vn 0.9480 -0.2388 0.2102
vn 0.8807 -0.4736 -0.0125
vn 0.9332 -0.3591 -0.0085
vn 0.9924 -0.1227 -0.0004
vn 0.9701 -0.2426 -0.0045
vn 0.8611 -0.4653 0.2051
vn 0.8114 -0.5843 0.0157
vn 0.7941 -0.5727 0.2034
vn 0.7285 -0.6849 0.0126
vn 0.6179 -0.7601 0.2011
vn 0.6316 -0.7752 0.0099
vn 0.7130 -0.6715 0.2018
vn 0.5220 -0.8525 -0.0255
vn 0.6325 -0.7742 -0.0229
vn 0.8122 -0.5831 -0.0162
vn 0.7294 -0.6838 -0.0197
vn -0.3105 -0.4988 0.8092
vn -0.1654 -0.3742 0.9125
vn -0.2231 -0.3457 0.9114
vn -0.4397 -0.7126 0.5468
vn -0.2382 -0.5347 0.8108
vn -0.1170 -0.3906 0.9131
vn -0.3383 -0.7651 0.5478
vn -0.1626 -0.5609 0.8118
vn -0.2317 -0.8019 0.5507
vn -0.0000 -0.8294 0.5586
vn -0.0000 -0.9685 0.2489
vn -0.1189 -0.8269 0.5496
vn -0.0585 -0.4021 0.9137
vn -0.0841 -0.5773 0.8122
vn -0.0000 -0.5657 0.8246
vn 0.0841 -0.5774 0.8121
vn 0.0577 -0.4053 0.9123
vn 0.1189 -0.8269 0.5496
vn 0.1626 -0.5609 0.8118
vn 0.1189 -0.3918 0.9123
vn 0.2317 -0.8019 0.5507
vn 0.4397 -0.7126 0.5468
vn 0.3383 -0.7651 0.5478
vn 0.3106 -0.4988 0.8092
vn 0.1654 -0.3742 0.9125
vn 0.2382 -0.5347 0.8108
vn -0.5299 -0.2766 0.8017
vn -0.3441 -0.2408 0.9075
vn -0.3790 -0.1884 0.9060
vn -0.7425 -0.3942 0.5416
vn -0.4876 -0.3417 0.8034
vn -0.3133 -0.2780 0.9081
vn -0.6848 -0.4864 0.5427
vn -0.4366 -0.4009 0.8054
vn -0.6149 -0.5711 0.5438
vn -0.5329 -0.6471 0.5453
vn -0.3774 -0.4536 0.8073
vn -0.2637 -0.3182 0.9106
vn -0.4303 0.0064 0.9027
vn -0.5979 -0.0656 0.7989
vn -0.4253 -0.0402 0.9042
vn -0.6015 0.0092 0.7988
vn -0.8342 -0.0980 0.5427
vn -0.5842 -0.1377 0.7999
vn -0.4153 -0.0985 0.9043
vn -0.8165 -0.1990 0.5419
vn -0.8388 0.0067 0.5443
vn -0.7863 -0.2974 0.5415
vn -0.5625 -0.2081 0.8002
vn -0.3980 -0.1433 0.9061
vn -0.3727 0.2063 0.9047
vn -0.5535 0.2231 0.8024
vn -0.3937 0.1664 0.9040
vn -0.5190 0.2891 0.8044
vn -0.7746 0.3064 0.5533
vn -0.5788 0.1549 0.8007
vn -0.4164 0.1112 0.9023
vn -0.8083 0.2104 0.5499
vn -0.7278 0.3998 0.5572
vn -0.8299 0.1108 0.5468
vn -0.4245 0.0670 0.9029
vn -0.5949 0.0839 0.7994
vn -0.2166 0.3564 0.9089
vn -0.3649 0.4567 0.8113
vn -0.2567 0.3307 0.9082
vn -0.2991 0.4987 0.8135
vn -0.5156 0.6401 0.5697
vn -0.4237 0.4073 0.8090
vn -0.3059 0.2924 0.9060
vn -0.5971 0.5685 0.5660
vn -0.4238 0.7013 0.5732
vn -0.6681 0.4881 0.5616
vn -0.3371 0.2569 0.9057
vn -0.4753 0.3513 0.8067
vn -0.0000 0.5606 0.8281
vn -0.0806 0.5716 0.8165
vn -0.0558 0.4126 0.9092
vn -0.1127 0.8068 0.5799
vn -0.1559 0.5560 0.8164
vn -0.1149 0.4002 0.9092
vn -0.2213 0.7850 0.5786
vn -0.0000 0.8155 0.5787
vn -0.3247 0.7500 0.5762
vn -0.1602 0.3835 0.9095
vn -0.2289 0.5321 0.8152
vn 0.2991 0.4987 0.8135
vn 0.1603 0.3836 0.9095
vn 0.2166 0.3565 0.9089
vn 0.4237 0.7013 0.5732
vn 0.2289 0.5321 0.8152
vn 0.1131 0.3991 0.9099
vn 0.3247 0.7500 0.5762
vn 0.1559 0.5560 0.8164
vn 0.2213 0.7850 0.5786
vn 0.1127 0.8068 0.5799
vn 0.0565 0.4096 0.9105
vn 0.0806 0.5716 0.8165
vn 0.5189 0.2891 0.8044
vn 0.3371 0.2569 0.9057
vn 0.3727 0.2064 0.9047
vn 0.7277 0.3998 0.5573
vn 0.4753 0.3513 0.8067
vn 0.3059 0.2924 0.9060
vn 0.6680 0.4881 0.5617
vn 0.4237 0.4073 0.8090
vn 0.5971 0.5685 0.5660
vn 0.5156 0.6401 0.5697
vn 0.3649 0.4567 0.8113
vn 0.2567 0.3307 0.9082
vn 0.6015 0.0092 0.7988
vn 0.4245 0.0670 0.9029
vn 0.4303 0.0064 0.9027
vn 0.8388 0.0067 0.5444
vn 0.5949 0.0839 0.7994
vn 0.4164 0.1112 0.9023
vn 0.8298 0.1108 0.5469
vn 0.5788 0.1549 0.8006
vn 0.8083 0.2104 0.5498
vn 0.7746 0.3064 0.5533
vn 0.5535 0.2231 0.8024
vn 0.3937 0.1664 0.9040
vn 0.3790 -0.1884 0.9060
vn 0.5625 -0.2081 0.8002
vn 0.3980 -0.1433 0.9061
vn 0.5299 -0.2766 0.8017
vn 0.7863 -0.2974 0.5415
vn 0.5842 -0.1377 0.7999
vn 0.4153 -0.0984 0.9043
vn 0.7424 -0.3941 0.5417
vn 0.8165 -0.1990 0.5419
vn 0.8342 -0.0980 0.5427
vn 0.5979 -0.0656 0.7989
vn 0.4253 -0.0402 0.9042
vn 0.2231 -0.3457 0.9114
vn 0.3775 -0.4537 0.8073
vn 0.2637 -0.3182 0.9106
vn 0.5329 -0.6471 0.5453
vn 0.4366 -0.4009 0.8054
vn 0.3133 -0.2780 0.9081
vn 0.6149 -0.5712 0.5438
vn 0.6848 -0.4864 0.5427
vn 0.3441 -0.2408 0.9075
vn 0.4876 -0.3417 0.8034
vn -0.0768 -0.2944 0.9526
vn -0.1582 -0.2854 0.9453
vn 0.0011 -0.3502 0.9367
vn -0.0369 -0.2012 0.9789
vn -0.1267 -0.2282 0.9653
vn 0.0753 -0.3173 0.9453
vn 0.1567 -0.2852 0.9456
vn 0.0448 -0.2031 0.9781
vn 0.1277 -0.2297 0.9649
vn 0.1007 -0.1743 0.9795
vn 0.0575 -0.2587 0.9642
vn -0.0141 -0.2601 0.9655
vn -0.2318 -0.2372 0.9434
vn -0.2917 -0.1730 0.9407
vn -0.1002 -0.1765 0.9792
vn -0.1881 -0.1930 0.9630
vn -0.1647 -0.1385 0.9766
vn -0.2307 -0.1351 0.9636
vn -0.3437 0.0299 0.9386
vn -0.2966 -0.1045 0.9493
vn -0.3428 -0.0531 0.9379
vn -0.2091 -0.0660 0.9757
vn -0.2207 -0.0016 0.9753
vn -0.2768 0.0296 0.9605
vn -0.2793 -0.0350 0.9596
vn -0.2868 0.1889 0.9392
vn -0.3276 0.1149 0.9378
vn -0.2210 0.0649 0.9731
vn -0.2679 0.0983 0.9584
vn -0.1836 0.1225 0.9753
vn -0.2347 0.1563 0.9594
vn -0.1527 0.2999 0.9417
vn -0.2268 0.2539 0.9402
vn -0.1516 0.1708 0.9736
vn -0.1865 0.2104 0.9597
vn -0.0980 0.1976 0.9754
vn -0.1242 0.2470 0.9610
vn -0.0010 0.3609 0.9326
vn -0.0732 0.3302 0.9411
vn -0.0335 0.2198 0.9750
vn -0.0586 0.2747 0.9598
vn 0.0151 0.2746 0.9614
vn 0.0746 0.3097 0.9479
vn 0.1542 0.3001 0.9414
vn 0.0469 0.2236 0.9736
vn 0.1253 0.2461 0.9611
vn 0.2268 0.2539 0.9402
vn 0.2868 0.1889 0.9392
vn 0.0985 0.1954 0.9758
vn 0.1865 0.2104 0.9597
vn 0.1516 0.1708 0.9736
vn 0.2347 0.1563 0.9594
vn 0.3276 0.1149 0.9378
vn 0.3437 0.0299 0.9386
vn 0.1836 0.1225 0.9753
vn 0.2679 0.0983 0.9584
vn 0.2210 0.0649 0.9731
vn 0.2768 0.0296 0.9605
vn 0.2917 -0.1730 0.9407
vn 0.2966 -0.1045 0.9493
vn 0.3428 -0.0531 0.9379
vn 0.2091 -0.0660 0.9757
vn 0.2793 -0.0350 0.9596
vn 0.2207 -0.0016 0.9753
vn 0.2318 -0.2371 0.9434
vn 0.1647 -0.1385 0.9766
vn 0.2307 -0.1351 0.9636
vn 0.1881 -0.1929 0.9630
vn -0.0469 -0.1466 0.9881
vn -0.1220 -0.1029 0.9872
vn -0.0309 -0.1124 0.9932
vn -0.0914 -0.0740 0.9931
vn 0.0389 -0.1477 0.9883
vn -0.0389 -0.0726 0.9966
vn 0.0279 -0.0735 0.9969
vn 0.0002 0.0118 0.9999
vn 0.0378 -0.1113 0.9931
vn 0.1223 -0.1030 0.9871
vn -0.0942 -0.0240 0.9953
vn -0.1549 -0.0270 0.9876
vn -0.1639 0.0538 0.9850
vn -0.1265 0.0365 0.9913
vn -0.0906 0.0370 0.9952
vn -0.0920 0.0969 0.9910
vn -0.1163 0.1291 0.9848
vn -0.0392 0.0949 0.9947
vn -0.0458 0.1678 0.9848
vn 0.0381 0.1688 0.9849
vn -0.0304 0.1343 0.9905
vn 0.0284 0.0958 0.9950
vn 0.1166 0.1293 0.9847
vn 0.0370 0.1333 0.9904
vn 0.0911 0.0961 0.9912
vn 0.1639 0.0538 0.9850
vn 0.0901 0.0376 0.9952
vn 0.1549 -0.0270 0.9876
vn 0.0904 -0.0730 0.9932
vn 0.0937 -0.0246 0.9953
vn 0.1265 0.0365 0.9913
vt 0.812801 0.661975
vt 0.809774 0.659197
vt 0.812982 0.659197
vt 0.804615 0.656766
vt 0.812138 0.656693
vt 0.812515 0.668052
vt 0.809410 0.664974
vt 0.812628 0.664950
vt 0.809583 0.661985
vt 0.804022 0.665099
vt 0.809271 0.668106
vt 0.803906 0.668233
vt 0.804182 0.662108
vt 0.804381 0.659317
vt 0.836431 0.664983
vt 0.839533 0.662072
vt 0.839675 0.665069
vt 0.836315 0.662016
vt 0.839356 0.659270
vt 0.835953 0.656688
vt 0.836791 0.654464
vt 0.839160 0.656719
vt 0.836138 0.659229
vt 0.844551 0.656937
vt 0.844918 0.662295
vt 0.844755 0.659491
vt 0.812443 0.671239
vt 0.812418 0.674468
vt 0.809207 0.671322
vt 0.812505 0.680873
vt 0.809196 0.677836
vt 0.812439 0.677693
vt 0.809179 0.674581
vt 0.803833 0.677972
vt 0.809273 0.681042
vt 0.803901 0.681181
vt 0.803811 0.674715
vt 0.803835 0.671454
vt 0.812618 0.683959
vt 0.812774 0.686898
vt 0.809388 0.684155
vt 0.813201 0.692109
vt 0.809744 0.689875
vt 0.812969 0.689634
vt 0.809547 0.687118
vt 0.804370 0.690021
vt 0.809977 0.692368
vt 0.804606 0.692515
vt 0.804173 0.687262
vt 0.804015 0.684296
vt 0.876303 0.656936
vt 0.873437 0.654470
vt 0.876678 0.654464
vt 0.875987 0.659671
vt 0.873062 0.656968
vt 0.875551 0.665699
vt 0.872484 0.662698
vt 0.875734 0.662611
vt 0.872739 0.659730
vt 0.867115 0.662932
vt 0.872303 0.665815
vt 0.866930 0.666051
vt 0.867369 0.659961
vt 0.868065 0.654695
vt 0.867687 0.657196
vt 0.875440 0.668878
vt 0.875404 0.672103
vt 0.872204 0.669022
vt 0.875545 0.678523
vt 0.872198 0.675537
vt 0.875437 0.675333
vt 0.872169 0.672278
vt 0.866820 0.675782
vt 0.872303 0.678753
vt 0.866931 0.679001
vt 0.866783 0.672521
vt 0.866820 0.669263
vt 0.875727 0.681623
vt 0.875976 0.684585
vt 0.872485 0.681883
vt 0.876612 0.689893
vt 0.873056 0.687650
vt 0.876290 0.687348
vt 0.872730 0.684868
vt 0.867687 0.687905
vt 0.873262 0.690189
vt 0.868064 0.690430
vt 0.867369 0.685120
vt 0.867115 0.682132
vt 0.846102 0.689893
vt 0.849658 0.687650
vt 0.849452 0.690189
vt 0.846424 0.687348
vt 0.849984 0.684868
vt 0.846987 0.681624
vt 0.850401 0.678752
vt 0.850229 0.681883
vt 0.846738 0.684585
vt 0.855784 0.679001
vt 0.855599 0.682132
vt 0.855027 0.687905
vt 0.855346 0.685120
vt 0.847169 0.678523
vt 0.850515 0.675537
vt 0.847277 0.675333
vt 0.850546 0.672278
vt 0.847274 0.668878
vt 0.850411 0.665815
vt 0.850510 0.669023
vt 0.847310 0.672103
vt 0.855784 0.666051
vt 0.855895 0.669263
vt 0.855895 0.675782
vt 0.855931 0.672521
vt 0.847163 0.665699
vt 0.850231 0.662698
vt 0.846980 0.662611
vt 0.849976 0.659730
vt 0.835442 0.692376
vt 0.838941 0.690201
vt 0.838660 0.692698
vt 0.846728 0.659671
vt 0.849653 0.656968
vt 0.844308 0.690447
vt 0.855027 0.657196
vt 0.855599 0.662932
vt 0.855345 0.659961
vt 0.835716 0.689898
vt 0.839181 0.687423
vt 0.835956 0.687141
vt 0.839383 0.684425
vt 0.836318 0.681037
vt 0.839667 0.678015
vt 0.839547 0.681269
vt 0.836157 0.684166
vt 0.845036 0.678252
vt 0.844918 0.681509
vt 0.844551 0.687668
vt 0.844755 0.684668
vt 0.836435 0.677812
vt 0.839748 0.674723
vt 0.836505 0.674548
vt 0.839766 0.671437
vt 0.836502 0.668089
vt 0.839738 0.668204
vt 0.836528 0.671293
vt 0.845036 0.665293
vt 0.845107 0.668433
vt 0.845108 0.674957
vt 0.845131 0.671670
vt 0.872058 0.510164
vt 0.883196 0.509177
vt 0.874138 0.514057
vt 0.813365 0.668155
vt 0.813979 0.665258
vt 0.813867 0.668262
vt 0.881648 0.505018
vt 0.892885 0.505517
vt 0.813479 0.665092
vt 0.814132 0.662391
vt 0.813635 0.662170
vt 0.814061 0.656968
vt 0.813387 0.656789
vt 0.813830 0.659442
vt 0.902931 0.503271
vt 0.891841 0.501207
vt 0.902443 0.498806
vt 0.913255 0.498072
vt 0.902273 0.497183
vt 0.913300 0.496251
vt 0.891464 0.499631
vt 0.924094 0.498539
vt 0.923531 0.503017
vt 0.924347 0.496910
vt 0.934751 0.500677
vt 0.933631 0.505013
vt 0.935213 0.499092
vt 0.813473 0.654609
vt 0.834868 0.654746
vt 0.835105 0.656945
vt 0.835304 0.659442
vt 0.835580 0.665111
vt 0.835464 0.662181
vt 0.954749 0.509144
vt 0.943407 0.508433
vt 0.945035 0.504235
vt 0.955602 0.507723
vt 0.945698 0.502718
vt 0.842687 0.542240
vt 0.851809 0.535450
vt 0.846355 0.544491
vt 0.813361 0.680804
vt 0.813798 0.677593
vt 0.813863 0.680668
vt 0.848480 0.532719
vt 0.858336 0.527242
vt 0.813294 0.677669
vt 0.813777 0.674472
vt 0.813273 0.674487
vt 0.813296 0.671301
vt 0.863266 0.516569
vt 0.865826 0.520137
vt 0.855373 0.524125
vt 0.813800 0.671347
vt 0.836461 0.586185
vt 0.832781 0.574887
vt 0.837136 0.575136
vt 0.832190 0.586429
vt 0.831246 0.574755
vt 0.834771 0.563536
vt 0.839059 0.564424
vt 0.833276 0.563182
vt 0.814049 0.691881
vt 0.813819 0.689443
vt 0.813626 0.686747
vt 0.813472 0.683849
vt 0.838095 0.552583
vt 0.842003 0.554247
vt 0.814123 0.686497
vt 0.847393 0.627774
vt 0.838928 0.620119
vt 0.842812 0.618122
vt 0.876955 0.665895
vt 0.876604 0.662743
vt 0.877132 0.662906
vt 0.835335 0.609253
vt 0.839369 0.607858
vt 0.876852 0.659839
vt 0.877376 0.660058
vt 0.876424 0.665791
vt 0.877163 0.657137
vt 0.837240 0.597107
vt 0.833065 0.597954
vt 0.830644 0.586523
vt 0.831537 0.598271
vt 0.833851 0.609792
vt 0.875910 0.657484
vt 0.864980 0.655500
vt 0.867460 0.651654
vt 0.876955 0.678303
vt 0.876315 0.675298
vt 0.876849 0.675219
vt 0.856903 0.648142
vt 0.859789 0.644718
vt 0.876279 0.672112
vt 0.876814 0.672095
vt 0.876423 0.678443
vt 0.876316 0.668928
vt 0.843774 0.630345
vt 0.853056 0.636702
vt 0.849800 0.639722
vt 0.876849 0.668973
vt 0.915410 0.672743
vt 0.904583 0.672294
vt 0.904957 0.667594
vt 0.904456 0.674067
vt 0.893925 0.670152
vt 0.894864 0.665612
vt 0.893590 0.671887
vt 0.877532 0.689611
vt 0.877163 0.687143
vt 0.876852 0.684422
vt 0.876604 0.681503
vt 0.873927 0.661687
vt 0.885089 0.662177
vt 0.883641 0.666594
vt 0.877132 0.681304
vt 0.877375 0.684167
vt 0.956619 0.660666
vt 0.945289 0.661435
vt 0.954348 0.656517
vt 0.846291 0.678443
vt 0.845582 0.681305
vt 0.845759 0.678303
vt 0.947029 0.665812
vt 0.935603 0.665109
vt 0.947730 0.667461
vt 0.936836 0.669623
vt 0.846110 0.681503
vt 0.845862 0.684422
vt 0.845182 0.689612
vt 0.845551 0.687143
vt 0.925560 0.667339
vt 0.926234 0.672027
vt 0.926529 0.673794
vt 0.915502 0.674726
vt 0.937338 0.671347
vt 0.985990 0.628589
vt 0.976685 0.635176
vt 0.982124 0.626113
vt 0.846290 0.665791
vt 0.845865 0.668973
vt 0.845759 0.665896
vt 0.980197 0.638112
vt 0.970151 0.643356
vt 0.846399 0.668928
vt 0.845900 0.672095
vt 0.846435 0.672112
vt 0.846399 0.675298
vt 0.965411 0.654260
vt 0.962652 0.650479
vt 0.973303 0.646705
vt 0.845865 0.675219
vt 0.996487 0.584400
vt 0.991516 0.595201
vt 0.992025 0.584266
vt 0.998158 0.584455
vt 0.995896 0.595944
vt 0.989655 0.606004
vt 0.997556 0.596222
vt 0.993905 0.607295
vt 0.846036 0.654464
vt 0.845551 0.657137
vt 0.845182 0.654693
vt 0.846411 0.656936
vt 0.845862 0.659839
vt 0.846110 0.662743
vt 0.990581 0.618247
vt 0.986465 0.616348
vt 0.995527 0.607796
vt 0.992137 0.618963
vt 0.981108 0.542826
vt 0.989748 0.550711
vt 0.985698 0.552473
vt 0.835076 0.677685
vt 0.835464 0.680954
vt 0.834963 0.680807
vt 0.993342 0.561578
vt 0.988887 0.562575
vt 0.991288 0.550107
vt 0.835579 0.677771
vt 0.835304 0.684041
vt 0.834868 0.689689
vt 0.835105 0.686972
vt 0.995611 0.572877
vt 0.991072 0.573235
vt 0.997266 0.572705
vt 0.994952 0.561186
vt 0.952582 0.513087
vt 0.963696 0.515329
vt 0.961040 0.518961
vt 0.835076 0.665269
vt 0.835649 0.668178
vt 0.835144 0.668277
vt 0.971774 0.522688
vt 0.968706 0.525880
vt 0.835672 0.671340
vt 0.835167 0.671378
vt 0.835649 0.674552
vt 0.984903 0.540484
vt 0.975433 0.533923
vt 0.978877 0.531109
vt 0.835144 0.674528
vt 0.898032 0.513360
vt 0.881445 0.517684
vt 0.913204 0.506723
vt 0.903342 0.524949
vt 0.884509 0.523313
vt 0.927937 0.510594
vt 0.945149 0.516897
vt 0.925558 0.524646
vt 0.942068 0.522603
vt 0.938175 0.529828
vt 0.926558 0.516851
vt 0.907950 0.516306
vt 0.866226 0.528969
vt 0.854381 0.543640
vt 0.888422 0.530442
vt 0.870043 0.533988
vt 0.872314 0.542353
vt 0.859692 0.546864
vt 0.843312 0.590606
vt 0.850891 0.558382
vt 0.844628 0.570540
vt 0.859951 0.564560
vt 0.857179 0.580485
vt 0.849694 0.590972
vt 0.849991 0.572115
vt 0.855414 0.628169
vt 0.847108 0.610271
vt 0.858442 0.601195
vt 0.852718 0.607628
vt 0.867281 0.620178
vt 0.860642 0.624608
vt 0.883114 0.653461
vt 0.867616 0.642537
vt 0.875474 0.630687
vt 0.871301 0.637222
vt 0.889806 0.640177
vt 0.886027 0.647551
vt 0.915141 0.663706
vt 0.900330 0.659759
vt 0.904827 0.645276
vt 0.901556 0.653320
vt 0.920164 0.653859
vt 0.930189 0.656903
vt 0.946830 0.652675
vt 0.927044 0.645043
vt 0.943615 0.646840
vt 0.962051 0.641370
vt 0.973897 0.626707
vt 0.939499 0.639564
vt 0.958077 0.636150
vt 0.953595 0.629722
vt 0.968426 0.623276
vt 0.981756 0.608610
vt 0.985063 0.588853
vt 0.961523 0.619015
vt 0.975924 0.606107
vt 0.969890 0.599820
vt 0.978533 0.589381
vt 0.972844 0.542177
vt 0.976608 0.556831
vt 0.983248 0.568828
vt 0.967473 0.563232
vt 0.977782 0.570537
vt 0.970639 0.579086
vt 0.960638 0.527805
vt 0.954571 0.541337
vt 0.967458 0.545534
vt 0.956788 0.532918
vt 0.900511 0.534676
vt 0.879501 0.549146
vt 0.904838 0.546286
vt 0.887925 0.557879
vt 0.924395 0.534851
vt 0.904618 0.561425
vt 0.919073 0.562606
vt 0.913698 0.584666
vt 0.923499 0.544721
vt 0.947402 0.548308
vt 0.891650 0.575579
vt 0.869483 0.572703
vt 0.868215 0.598618
vt 0.877675 0.594343
vt 0.893089 0.590965
vt 0.888584 0.612386
vt 0.881120 0.622967
vt 0.905184 0.608294
vt 0.901753 0.635463
vt 0.925639 0.634686
vt 0.905794 0.623572
vt 0.919664 0.606750
vt 0.947614 0.622146
vt 0.924457 0.624683
vt 0.939746 0.611754
vt 0.959897 0.597486
vt 0.934589 0.590452
vt 0.957972 0.571611
vt 0.939061 0.557248
vt 0.935666 0.575037
vt 0.950221 0.593448
vt 0.810281 0.654464
vt 0.844312 0.654665
vt 0.854650 0.690430
vt 0.844031 0.692947
vt 0.835543 0.654553
vt 0.813972 0.683654
vt 0.877532 0.654693
vt 0.845582 0.662906
s 1
f 41/1/1 294/2/2 319/3/3
f 294/2/2 11/4/4 109/5/5
f 154/6/6 295/7/7 105/8/8
f 105/8/8 224/9/9 41/1/1
f 107/10/10 106/11/11 10/12/12
f 42/13/13 295/7/7 107/10/10
f 11/4/4 294/2/2 108/14/14
f 108/14/14 224/9/9 42/13/13
f 1/15/15 296/16/16 113/17/17
f 322/18/18 225/19/19 296/16/16
f 110/20/20 109/21/5 297/22/21
f 43/23/22 297/22/21 225/19/19
f 111/24/23 225/19/19 297/22/21
f 112/25/24 113/17/17 296/16/16
f 44/26/25 296/16/16 225/19/19
f 325/27/26 106/11/11 154/6/6
f 45/28/27 298/29/28 325/27/26
f 161/30/29 299/31/30 114/32/31
f 114/32/31 226/33/32 45/28/27
f 116/34/33 115/35/34 9/36/35
f 46/37/36 299/31/30 116/34/33
f 10/12/12 298/29/28 117/38/37
f 117/38/37 226/33/32 46/37/36
f 328/39/38 115/35/34 161/30/29
f 47/40/39 300/41/40 328/39/38
f 164/42/41 301/43/42 118/44/43
f 118/44/43 227/45/44 47/40/39
f 120/46/45 119/47/46 8/48/47
f 48/49/48 301/43/42 120/46/45
f 9/36/35 300/41/40 121/50/49
f 121/50/49 227/45/44 48/49/48
f 331/51/50 119/52/46 164/53/41
f 49/54/51 302/55/52 331/51/50
f 167/56/53 303/57/54 122/58/55
f 122/58/55 228/59/56 49/54/51
f 124/60/57 123/61/58 7/62/59
f 50/63/60 303/57/54 124/60/57
f 8/64/47 302/55/52 125/65/61
f 125/65/61 228/59/56 50/63/60
f 334/66/62 123/61/58 167/56/53
f 51/67/63 304/68/64 334/66/62
f 170/69/65 305/70/66 126/71/67
f 126/71/67 229/72/68 51/67/63
f 128/73/69 127/74/70 6/75/71
f 52/76/72 305/70/66 128/73/69
f 7/62/59 304/68/64 129/77/73
f 129/77/73 229/72/68 52/76/72
f 337/78/74 127/74/70 170/69/65
f 53/79/75 306/80/76 337/78/74
f 172/81/77 307/82/78 130/83/79
f 130/83/79 230/84/80 53/79/75
f 132/85/81 131/86/82 5/87/83
f 54/88/84 307/82/78 132/85/81
f 6/75/71 306/80/76 133/89/85
f 133/89/85 230/84/80 54/88/84
f 172/90/77 308/91/86 131/92/82
f 340/93/87 231/94/88 308/91/86
f 134/95/89 135/96/90 309/97/91
f 55/98/92 309/97/91 231/94/88
f 4/99/93 309/97/91 135/96/90
f 136/100/94 231/94/88 309/97/91
f 137/101/95 131/92/82 308/91/86
f 56/102/96 308/91/86 231/94/88
f 175/103/97 310/104/98 135/96/90
f 343/105/99 232/106/100 310/104/98
f 138/107/101 139/108/102 311/109/103
f 57/110/104 311/109/103 232/106/100
f 3/111/105 311/109/103 139/108/102
f 140/112/106 232/106/100 311/109/103
f 141/113/107 135/96/90 310/104/98
f 58/114/108 310/104/98 232/106/100
f 178/115/109 312/116/110 139/108/102
f 346/117/111 233/118/112 312/116/110
f 142/119/113 143/120/114 313/121/115
f 59/122/116 313/123/115 233/118/112
f 2/124/117 313/121/115 143/120/114
f 144/125/118 233/118/112 313/123/115
f 145/126/119 139/108/102 312/116/110
f 60/127/120 312/116/110 233/118/112
f 181/128/121 314/129/122 143/120/114
f 349/130/123 234/131/124 314/129/122
f 146/132/125 147/133/126 315/134/127
f 61/135/128 315/134/127 234/131/124
f 13/136/129 315/134/127 147/133/126
f 148/137/130 234/131/124 315/134/127
f 149/138/131 143/120/114 314/129/122
f 62/139/132 314/129/122 234/131/124
f 184/140/133 316/141/134 147/133/126
f 352/142/135 235/143/136 316/141/134
f 150/144/137 113/17/17 317/145/138
f 63/146/139 317/145/138 235/143/136
f 12/147/140 317/145/138 113/17/17
f 151/148/141 235/143/136 317/145/138
f 152/149/142 147/133/126 316/141/134
f 64/150/143 316/141/134 235/143/136
f 153/151/144 157/152/145 190/153/146
f 65/154/147 318/155/148 153/156/144
f 318/157/148 67/158/149 157/152/145
f 236/159/150 238/160/151 318/155/148
f 65/154/147 105/8/8 236/159/150
f 236/159/150 41/1/1 23/161/152
f 66/162/153 319/3/3 155/163/154
f 237/164/155 41/1/1 319/3/3
f 354/165/156 238/166/151 320/167/157
f 156/168/158 237/169/155 66/170/153
f 320/167/157 23/171/152 237/169/155
f 156/168/158 321/172/159 159/173/160
f 156/168/158 239/174/161 321/172/159
f 159/173/160 241/175/162 69/176/163
f 321/172/159 24/177/164 241/175/162
f 109/5/5 110/178/20 155/163/154
f 66/179/153 110/20/20 239/180/161
f 239/180/161 43/23/22 24/181/164
f 68/182/165 322/18/18 1/15/15
f 240/183/166 43/23/22 322/18/18
f 158/184/167 356/185/168 323/186/169
f 323/186/169 69/176/163 241/175/162
f 68/187/165 323/186/169 240/188/166
f 240/188/166 241/175/162 24/177/164
f 160/189/170 162/190/171 193/191/172
f 70/192/173 324/193/174 160/194/170
f 324/195/174 71/196/175 162/190/171
f 242/197/176 244/198/177 324/193/174
f 70/192/173 114/32/31 242/197/176
f 242/197/176 45/28/27 25/199/178
f 154/6/6 243/200/179 325/27/26
f 325/27/26 25/199/178 45/28/27
f 190/153/146 326/201/180 153/151/144
f 359/202/181 244/203/177 326/201/180
f 153/156/144 243/200/179 65/154/147
f 326/204/180 25/199/178 243/200/179
f 195/205/182 327/206/183 165/207/184
f 163/208/185 245/209/186 327/206/183
f 165/207/184 247/210/187 73/211/188
f 327/206/183 26/212/189 247/210/187
f 72/213/190 118/44/43 245/214/186
f 245/214/186 47/40/39 26/215/189
f 161/30/29 246/216/191 328/39/38
f 328/39/38 26/215/189 47/40/39
f 193/191/172 329/217/192 160/189/170
f 360/218/193 247/210/187 329/217/192
f 160/194/170 246/216/191 70/192/173
f 246/216/191 247/219/187 26/215/189
f 197/220/194 330/221/195 168/222/196
f 166/223/197 248/224/198 330/225/195
f 168/222/196 250/226/199 75/227/200
f 330/225/195 27/228/201 250/229/199
f 74/230/202 122/58/55 248/224/198
f 248/224/198 49/54/51 27/228/201
f 164/53/41 249/231/203 331/51/50
f 331/51/50 27/228/201 49/54/51
f 163/208/185 363/232/204 332/233/205
f 332/233/205 75/227/200 250/226/199
f 72/234/190 332/233/205 249/235/203
f 249/235/203 250/226/199 27/236/201
f 198/237/206 333/238/207 171/239/208
f 169/240/209 251/241/210 333/242/207
f 171/239/208 253/243/211 77/244/212
f 333/242/207 28/245/213 253/246/211
f 76/247/214 126/71/67 251/241/210
f 251/241/210 51/67/63 28/245/213
f 167/56/53 252/248/215 334/66/62
f 334/66/62 28/245/213 51/67/63
f 166/249/197 366/250/216 335/251/217
f 335/251/217 77/244/212 253/243/211
f 74/230/202 335/252/217 252/248/215
f 252/248/215 253/246/211 28/245/213
f 14/253/218 336/254/219 173/255/220
f 14/253/218 254/256/221 336/254/219
f 173/255/220 256/257/222 79/258/223
f 336/254/219 29/259/224 256/257/222
f 78/260/225 130/83/79 254/261/221
f 254/261/221 53/79/75 29/262/224
f 170/69/65 255/263/226 337/78/74
f 337/78/74 29/262/224 53/79/75
f 169/264/209 369/265/227 338/266/228
f 338/266/228 79/258/223 256/257/222
f 76/247/214 338/267/228 255/263/226
f 255/263/226 256/268/222 29/262/224
f 174/269/229 176/270/230 202/271/231
f 80/272/232 339/273/233 174/274/229
f 339/275/233 81/276/234 176/270/230
f 257/277/235 259/278/236 339/275/233
f 175/103/97 257/279/235 80/272/232
f 134/95/89 30/280/237 257/279/235
f 78/281/225 340/93/87 172/90/77
f 258/282/238 55/98/92 340/93/87
f 372/283/239 259/278/236 341/284/240
f 14/253/218 258/285/238 78/286/225
f 341/284/240 30/287/237 258/285/238
f 177/288/241 179/289/242 206/290/243
f 82/291/244 342/292/245 177/293/241
f 342/294/245 83/295/246 179/289/242
f 260/296/247 262/297/248 342/292/245
f 178/115/109 260/296/247 82/291/244
f 138/107/101 31/298/249 260/296/247
f 80/272/232 343/105/99 175/103/97
f 261/299/250 57/110/104 343/105/99
f 202/271/231 344/300/251 174/269/229
f 374/301/252 262/302/248 344/300/251
f 174/274/229 261/299/250 80/272/232
f 344/303/251 31/298/249 261/299/250
f 180/304/253 182/305/254 209/306/255
f 84/307/256 345/308/257 180/304/253
f 345/308/257 85/309/258 182/305/254
f 263/310/259 265/311/260 345/308/257
f 181/312/121 263/313/259 84/314/256
f 142/315/113 32/316/261 263/313/259
f 82/291/244 346/117/111 178/115/109
f 264/317/262 59/122/116 346/117/111
f 206/290/243 347/318/263 177/288/241
f 375/319/264 265/311/260 347/318/263
f 177/293/241 264/317/262 82/291/244
f 347/318/263 32/320/261 264/321/262
f 210/322/265 348/323/266 185/324/267
f 183/325/268 266/326/269 348/327/266
f 185/324/267 268/328/270 87/329/271
f 266/330/269 268/328/270 348/323/266
f 184/140/133 266/326/269 86/331/272
f 146/132/125 33/332/273 266/326/269
f 84/333/256 349/130/123 181/128/121
f 267/334/274 61/135/128 349/130/123
f 209/306/255 350/335/275 180/304/253
f 376/336/276 268/328/270 350/335/275
f 180/304/253 267/337/274 84/307/256
f 350/335/275 33/338/273 267/337/274
f 15/339/277 351/340/278 186/341/279
f 158/342/167 269/343/280 351/344/278
f 186/341/279 271/345/281 88/346/282
f 351/344/278 34/347/283 271/348/281
f 1/15/15 269/343/280 68/182/165
f 150/144/137 34/347/283 269/343/280
f 86/331/272 352/142/135 184/140/133
f 270/349/284 63/146/139 352/142/135
f 183/350/268 377/351/285 353/352/286
f 353/352/286 88/346/282 271/345/281
f 86/331/272 353/353/286 270/349/284
f 270/349/284 271/348/281 34/347/283
f 157/152/145 272/354/287 273/355/288
f 354/165/156 187/356/289 272/354/287
f 20/357/290 189/358/291 272/354/287
f 159/173/160 187/356/289 156/168/158
f 69/176/163 35/359/292 159/173/160
f 15/339/277 89/360/293 356/185/168
f 356/185/168 35/359/292 69/176/163
f 90/361/294 357/362/295 21/363/296
f 358/364/297 89/360/293 357/362/295
f 90/361/294 355/365/298 358/364/297
f 358/364/297 187/356/289 35/359/292
f 162/190/171 274/366/299 276/367/300
f 359/202/181 273/355/288 274/366/299
f 188/368/301 275/369/302 189/358/291
f 189/358/291 274/366/299 273/355/288
f 191/370/303 192/371/304 275/369/302
f 275/369/302 276/367/300 274/366/299
f 165/207/184 91/372/305 195/205/182
f 360/218/193 276/367/300 361/373/306
f 73/211/188 361/373/306 36/374/307
f 19/375/308 361/373/306 192/371/304
f 192/371/304 361/373/306 276/367/300
f 194/376/309 364/377/310 362/378/311
f 362/378/311 91/372/305 36/374/307
f 168/222/196 92/379/312 197/220/194
f 75/227/200 37/380/313 168/222/196
f 195/205/182 91/372/305 363/232/204
f 363/232/204 37/380/313 75/227/200
f 196/381/314 364/377/310 194/376/309
f 365/382/315 91/372/305 364/377/310
f 18/383/316 365/382/315 196/381/314
f 367/384/317 37/380/313 365/382/315
f 171/239/208 94/385/318 198/237/206
f 77/244/212 38/386/319 171/239/208
f 197/220/194 92/379/312 366/250/216
f 366/250/216 38/386/319 77/244/212
f 93/387/320 367/384/317 18/383/316
f 368/388/321 92/379/312 367/384/317
f 17/389/322 368/388/321 93/387/320
f 370/390/323 38/386/319 368/388/321
f 173/255/220 96/391/324 14/253/218
f 79/258/223 39/392/325 173/255/220
f 198/237/206 94/385/318 369/265/227
f 369/265/227 39/392/325 79/258/223
f 95/393/326 370/390/323 17/389/322
f 371/394/327 94/385/318 370/390/323
f 95/393/326 373/395/328 371/394/327
f 371/394/327 96/391/324 39/392/325
f 176/270/230 277/396/329 278/397/330
f 372/283/239 96/391/324 277/396/329
f 199/398/331 373/395/328 95/393/326
f 199/398/331 201/399/332 277/396/329
f 179/289/242 279/400/333 281/401/334
f 374/301/252 278/397/330 279/400/333
f 200/402/335 280/403/336 201/399/332
f 201/399/332 279/400/333 278/397/330
f 203/404/337 205/405/338 280/403/336
f 280/403/336 281/401/334 279/400/333
f 182/305/254 282/406/339 284/407/340
f 375/319/264 281/401/334 282/406/339
f 204/408/341 283/409/342 205/405/338
f 205/405/338 282/406/339 281/401/334
f 207/410/343 208/411/344 283/409/342
f 283/409/342 284/407/340 282/406/339
f 185/324/267 98/412/345 210/322/265
f 87/329/271 287/413/346 185/324/267
f 376/336/276 284/407/340 285/414/347
f 376/336/276 285/414/347 87/329/271
f 97/415/348 286/416/349 16/417/350
f 286/416/349 284/407/340 208/411/344
f 97/415/348 287/413/346 286/416/349
f 287/413/346 285/414/347 286/416/349
f 186/341/279 89/360/293 15/339/277
f 88/346/282 40/418/351 186/341/279
f 210/322/265 98/412/345 377/351/285
f 377/351/285 40/418/351 88/346/282
f 211/419/352 378/420/353 97/415/348
f 379/421/354 98/412/345 378/420/353
f 21/363/296 379/421/354 211/419/352
f 357/362/295 40/418/351 379/421/354
f 188/368/301 380/422/355 214/423/356
f 214/423/356 99/424/357 100/425/358
f 381/426/359 99/424/357 380/422/355
f 213/427/360 212/428/361 22/429/362
f 213/427/360 99/424/357 212/428/361
f 381/426/359 288/430/363 99/424/357
f 223/431/364 288/430/363 381/426/359
f 21/363/296 381/426/359 90/361/294
f 188/368/301 214/423/356 191/370/303
f 382/432/365 213/427/360 22/429/362
f 194/376/309 289/433/366 216/434/367
f 216/434/367 289/433/366 101/435/368
f 215/436/369 382/432/365 22/429/362
f 101/435/368 382/432/365 215/436/369
f 216/434/367 101/435/368 102/437/370
f 194/376/309 216/434/367 196/381/314
f 216/434/367 102/437/370 383/438/371
f 18/383/316 383/438/371 93/387/320
f 385/439/372 215/436/369 22/429/362
f 95/393/326 384/440/373 218/441/374
f 383/438/371 290/442/375 384/440/373
f 17/389/322 384/440/373 95/393/326
f 217/443/376 385/439/372 22/429/362
f 290/442/375 385/439/372 217/443/376
f 200/402/335 218/441/374 219/444/377
f 219/444/377 291/445/378 103/446/379
f 95/393/326 218/441/374 199/398/331
f 204/408/341 219/444/377 220/447/380
f 200/402/335 219/444/377 203/404/337
f 221/448/381 217/443/376 22/429/362
f 204/408/341 220/447/380 207/410/343
f 97/415/348 293/449/382 223/431/364
f 223/431/364 293/449/382 104/450/383
f 16/417/350 293/449/382 97/415/348
f 222/451/384 221/448/381 22/429/362
f 222/451/384 292/452/385 221/448/381
f 97/415/348 223/431/364 211/419/352
f 212/428/361 222/451/384 22/429/362
f 319/3/3 294/2/2 109/5/5
f 41/1/1 224/9/9 294/2/2
f 154/6/6 106/11/11 295/7/7
f 105/8/8 295/7/7 224/9/9
f 107/10/10 295/7/7 106/11/11
f 42/13/13 224/9/9 295/7/7
f 108/14/14 294/2/2 224/9/9
f 1/15/15 322/18/18 296/16/16
f 322/18/18 43/23/22 225/19/19
f 297/453/21 109/5/5 11/4/4
f 43/23/22 110/20/20 297/22/21
f 11/454/4 111/24/23 297/22/21
f 111/24/23 44/26/25 225/19/19
f 112/25/24 12/147/140 113/17/17
f 44/26/25 112/25/24 296/16/16
f 325/27/26 298/29/28 106/11/11
f 45/28/27 226/33/32 298/29/28
f 161/30/29 115/35/34 299/31/30
f 114/32/31 299/31/30 226/33/32
f 116/34/33 299/31/30 115/35/34
f 46/37/36 226/33/32 299/31/30
f 10/12/12 106/11/11 298/29/28
f 117/38/37 298/29/28 226/33/32
f 328/39/38 300/41/40 115/35/34
f 47/40/39 227/45/44 300/41/40
f 164/42/41 119/47/46 301/43/42
f 118/44/43 301/43/42 227/45/44
f 120/46/45 301/43/42 119/47/46
f 48/49/48 227/45/44 301/43/42
f 9/36/35 115/35/34 300/41/40
f 121/50/49 300/41/40 227/45/44
f 331/51/50 302/55/52 119/52/46
f 49/54/51 228/59/56 302/55/52
f 167/56/53 123/61/58 303/57/54
f 122/58/55 303/57/54 228/59/56
f 124/60/57 303/57/54 123/61/58
f 50/63/60 228/59/56 303/57/54
f 8/64/47 119/52/46 302/55/52
f 125/65/61 302/55/52 228/59/56
f 334/66/62 304/68/64 123/61/58
f 51/67/63 229/72/68 304/68/64
f 170/69/65 127/74/70 305/70/66
f 126/71/67 305/70/66 229/72/68
f 128/73/69 305/70/66 127/74/70
f 52/76/72 229/72/68 305/70/66
f 7/62/59 123/61/58 304/68/64
f 129/77/73 304/68/64 229/72/68
f 337/78/74 306/80/76 127/74/70
f 53/79/75 230/84/80 306/80/76
f 172/81/77 131/86/82 307/82/78
f 130/83/79 307/82/78 230/84/80
f 132/85/81 307/82/78 131/86/82
f 54/88/84 230/84/80 307/82/78
f 6/75/71 127/74/70 306/80/76
f 133/89/85 306/80/76 230/84/80
f 172/90/77 340/93/87 308/91/86
f 340/93/87 55/98/92 231/94/88
f 134/95/89 175/103/97 135/96/90
f 55/98/92 134/95/89 309/97/91
f 4/99/93 136/100/94 309/97/91
f 136/100/94 56/102/96 231/94/88
f 137/101/95 5/455/83 131/92/82
f 56/102/96 137/101/95 308/91/86
f 175/103/97 343/105/99 310/104/98
f 343/105/99 57/110/104 232/106/100
f 138/107/101 178/115/109 139/108/102
f 57/110/104 138/107/101 311/109/103
f 3/111/105 140/112/106 311/109/103
f 140/112/106 58/114/108 232/106/100
f 141/113/107 4/99/93 135/96/90
f 58/114/108 141/113/107 310/104/98
f 178/115/109 346/117/111 312/116/110
f 346/117/111 59/122/116 233/118/112
f 142/119/113 181/128/121 143/120/114
f 59/122/116 142/315/113 313/123/115
f 2/124/117 144/456/118 313/121/115
f 144/125/118 60/127/120 233/118/112
f 145/126/119 3/111/105 139/108/102
f 60/127/120 145/126/119 312/116/110
f 181/128/121 349/130/123 314/129/122
f 349/130/123 61/135/128 234/131/124
f 146/132/125 184/140/133 147/133/126
f 61/135/128 146/132/125 315/134/127
f 13/136/129 148/137/130 315/134/127
f 148/137/130 62/139/132 234/131/124
f 149/138/131 2/124/117 143/120/114
f 62/139/132 149/138/131 314/129/122
f 184/140/133 352/142/135 316/141/134
f 352/142/135 63/146/139 235/143/136
f 150/144/137 1/15/15 113/17/17
f 63/146/139 150/144/137 317/145/138
f 12/147/140 151/148/141 317/145/138
f 151/148/141 64/150/143 235/143/136
f 152/149/142 13/136/129 147/133/126
f 64/150/143 152/149/142 316/141/134
f 153/151/144 318/157/148 157/152/145
f 65/154/147 236/159/150 318/155/148
f 318/157/148 238/166/151 67/158/149
f 236/159/150 23/161/152 238/160/151
f 65/154/147 154/6/6 105/8/8
f 236/159/150 105/8/8 41/1/1
f 109/5/5 155/163/154 319/3/3
f 66/162/153 237/164/155 319/3/3
f 237/164/155 23/161/152 41/1/1
f 156/168/158 354/165/156 320/167/157
f 354/165/156 67/158/149 238/166/151
f 156/168/158 320/167/157 237/169/155
f 320/167/157 238/166/151 23/171/152
f 156/168/158 66/170/153 239/174/161
f 159/173/160 321/172/159 241/175/162
f 321/172/159 239/174/161 24/177/164
f 66/179/153 155/457/154 110/20/20
f 239/180/161 110/20/20 43/23/22
f 68/182/165 240/183/166 322/18/18
f 240/183/166 24/181/164 43/23/22
f 158/184/167 15/339/277 356/185/168
f 323/186/169 356/185/168 69/176/163
f 68/187/165 158/184/167 323/186/169
f 240/188/166 323/186/169 241/175/162
f 160/189/170 324/195/174 162/190/171
f 70/192/173 242/197/176 324/193/174
f 324/195/174 244/203/177 71/196/175
f 242/197/176 25/199/178 244/198/177
f 70/192/173 161/30/29 114/32/31
f 242/197/176 114/32/31 45/28/27
f 154/6/6 65/154/147 243/200/179
f 325/27/26 243/200/179 25/199/178
f 190/153/146 359/202/181 326/201/180
f 359/202/181 71/196/175 244/203/177
f 153/156/144 326/204/180 243/200/179
f 326/204/180 244/198/177 25/199/178
f 195/205/182 163/208/185 327/206/183
f 163/208/185 72/234/190 245/209/186
f 165/207/184 327/206/183 247/210/187
f 327/206/183 245/209/186 26/212/189
f 72/213/190 164/42/41 118/44/43
f 245/214/186 118/44/43 47/40/39
f 161/30/29 70/192/173 246/216/191
f 328/39/38 246/216/191 26/215/189
f 193/191/172 360/218/193 329/217/192
f 360/218/193 73/211/188 247/210/187
f 160/194/170 329/458/192 246/216/191
f 246/216/191 329/458/192 247/219/187
f 197/220/194 166/249/197 330/221/195
f 166/223/197 74/230/202 248/224/198
f 168/222/196 330/221/195 250/226/199
f 330/225/195 248/224/198 27/228/201
f 74/230/202 167/56/53 122/58/55
f 248/224/198 122/58/55 49/54/51
f 164/53/41 72/459/190 249/231/203
f 331/51/50 249/231/203 27/228/201
f 163/208/185 195/205/182 363/232/204
f 332/233/205 363/232/204 75/227/200
f 72/234/190 163/208/185 332/233/205
f 249/235/203 332/233/205 250/226/199
f 198/237/206 169/264/209 333/238/207
f 169/240/209 76/247/214 251/241/210
f 171/239/208 333/238/207 253/243/211
f 333/242/207 251/241/210 28/245/213
f 76/247/214 170/69/65 126/71/67
f 251/241/210 126/71/67 51/67/63
f 167/56/53 74/230/202 252/248/215
f 334/66/62 252/248/215 28/245/213
f 166/249/197 197/220/194 366/250/216
f 335/251/217 366/250/216 77/244/212
f 74/230/202 166/223/197 335/252/217
f 252/248/215 335/252/217 253/246/211
f 14/253/218 78/286/225 254/256/221
f 173/255/220 336/254/219 256/257/222
f 336/254/219 254/256/221 29/259/224
f 78/260/225 172/81/77 130/83/79
f 254/261/221 130/83/79 53/79/75
f 170/69/65 76/247/214 255/263/226
f 337/78/74 255/263/226 29/262/224
f 169/264/209 198/237/206 369/265/227
f 338/266/228 369/265/227 79/258/223
f 76/247/214 169/240/209 338/267/228
f 255/263/226 338/267/228 256/268/222
f 174/269/229 339/275/233 176/270/230
f 80/272/232 257/279/235 339/273/233
f 339/275/233 259/278/236 81/276/234
f 257/277/235 30/287/237 259/278/236
f 175/103/97 134/95/89 257/279/235
f 134/95/89 55/98/92 30/280/237
f 78/281/225 258/282/238 340/93/87
f 258/282/238 30/280/237 55/98/92
f 14/253/218 372/283/239 341/284/240
f 372/283/239 81/276/234 259/278/236
f 14/253/218 341/284/240 258/285/238
f 341/284/240 259/278/236 30/287/237
f 177/288/241 342/294/245 179/289/242
f 82/291/244 260/296/247 342/292/245
f 342/294/245 262/302/248 83/295/246
f 260/296/247 31/298/249 262/297/248
f 178/115/109 138/107/101 260/296/247
f 138/107/101 57/110/104 31/298/249
f 80/272/232 261/299/250 343/105/99
f 261/299/250 31/298/249 57/110/104
f 202/271/231 374/301/252 344/300/251
f 374/301/252 83/295/246 262/302/248
f 174/274/229 344/303/251 261/299/250
f 344/303/251 262/297/248 31/298/249
f 180/304/253 345/308/257 182/305/254
f 84/307/256 263/310/259 345/308/257
f 345/308/257 265/311/260 85/309/258
f 263/310/259 32/320/261 265/311/260
f 181/312/121 142/315/113 263/313/259
f 142/315/113 59/122/116 32/316/261
f 82/291/244 264/317/262 346/117/111
f 264/317/262 32/316/261 59/122/116
f 206/290/243 375/319/264 347/318/263
f 375/319/264 85/309/258 265/311/260
f 177/293/241 347/460/263 264/317/262
f 347/318/263 265/311/260 32/320/261
f 210/322/265 183/350/268 348/323/266
f 183/325/268 86/331/272 266/326/269
f 185/324/267 348/323/266 268/328/270
f 266/330/269 33/338/273 268/328/270
f 184/140/133 146/132/125 266/326/269
f 146/132/125 61/135/128 33/332/273
f 84/333/256 267/334/274 349/130/123
f 267/334/274 33/332/273 61/135/128
f 209/306/255 376/336/276 350/335/275
f 376/336/276 87/329/271 268/328/270
f 180/304/253 350/335/275 267/337/274
f 350/335/275 268/328/270 33/338/273
f 15/339/277 158/184/167 351/340/278
f 158/342/167 68/182/165 269/343/280
f 186/341/279 351/340/278 271/345/281
f 351/344/278 269/343/280 34/347/283
f 1/15/15 150/144/137 269/343/280
f 150/144/137 63/146/139 34/347/283
f 86/331/272 270/349/284 352/142/135
f 270/349/284 34/347/283 63/146/139
f 183/350/268 210/322/265 377/351/285
f 353/352/286 377/351/285 88/346/282
f 86/331/272 183/325/268 353/353/286
f 270/349/284 353/353/286 271/348/281
f 190/153/146 157/152/145 273/355/288
f 157/152/145 67/158/149 272/354/287
f 354/165/156 156/168/158 187/356/289
f 67/158/149 354/165/156 272/354/287
f 20/357/290 272/354/287 355/365/298
f 355/365/298 272/354/287 187/356/289
f 20/357/290 188/368/301 189/358/291
f 272/354/287 189/358/291 273/355/288
f 159/173/160 35/359/292 187/356/289
f 356/185/168 89/360/293 35/359/292
f 90/361/294 358/364/297 357/362/295
f 358/364/297 35/359/292 89/360/293
f 90/361/294 20/357/290 355/365/298
f 358/364/297 355/365/298 187/356/289
f 193/191/172 162/190/171 276/367/300
f 162/190/171 71/196/175 274/366/299
f 359/202/181 190/153/146 273/355/288
f 71/196/175 359/202/181 274/366/299
f 188/368/301 191/370/303 275/369/302
f 189/358/291 275/369/302 274/366/299
f 191/370/303 19/375/308 192/371/304
f 275/369/302 192/371/304 276/367/300
f 165/207/184 36/374/307 91/372/305
f 165/207/184 73/211/188 36/374/307
f 360/218/193 193/191/172 276/367/300
f 73/211/188 360/218/193 361/373/306
f 19/375/308 362/378/311 361/373/306
f 361/373/306 362/378/311 36/374/307
f 362/378/311 364/377/310 91/372/305
f 19/375/308 194/376/309 362/378/311
f 168/222/196 37/380/313 92/379/312
f 363/232/204 91/372/305 37/380/313
f 196/381/314 365/382/315 364/377/310
f 365/382/315 37/380/313 91/372/305
f 18/383/316 367/384/317 365/382/315
f 367/384/317 92/379/312 37/380/313
f 171/239/208 38/386/319 94/385/318
f 366/250/216 92/379/312 38/386/319
f 93/387/320 368/388/321 367/384/317
f 368/388/321 38/386/319 92/379/312
f 17/389/322 370/390/323 368/388/321
f 370/390/323 94/385/318 38/386/319
f 173/255/220 39/392/325 96/391/324
f 369/265/227 94/385/318 39/392/325
f 95/393/326 371/394/327 370/390/323
f 371/394/327 39/392/325 94/385/318
f 371/394/327 373/395/328 96/391/324
f 202/271/231 176/270/230 278/397/330
f 176/270/230 81/276/234 277/396/329
f 372/283/239 14/253/218 96/391/324
f 81/276/234 372/283/239 277/396/329
f 199/398/331 277/396/329 373/395/328
f 373/395/328 277/396/329 96/391/324
f 199/398/331 200/402/335 201/399/332
f 277/396/329 201/399/332 278/397/330
f 206/290/243 179/289/242 281/401/334
f 179/289/242 83/295/246 279/400/333
f 374/301/252 202/271/231 278/397/330
f 83/295/246 374/301/252 279/400/333
f 200/402/335 203/404/337 280/403/336
f 201/399/332 280/403/336 279/400/333
f 203/404/337 204/408/341 205/405/338
f 280/403/336 205/405/338 281/401/334
f 209/306/255 182/305/254 284/407/340
f 182/305/254 85/309/258 282/406/339
f 375/319/264 206/290/243 281/401/334
f 85/309/258 375/319/264 282/406/339
f 204/408/341 207/410/343 283/409/342
f 205/405/338 283/409/342 282/406/339
f 207/410/343 16/417/350 208/411/344
f 283/409/342 208/411/344 284/407/340
f 185/324/267 287/413/346 98/412/345
f 87/329/271 285/414/347 287/413/346
f 376/336/276 209/306/255 284/407/340
f 16/417/350 286/416/349 208/411/344
f 286/416/349 285/414/347 284/407/340
f 97/415/348 378/420/353 287/413/346
f 378/420/353 98/412/345 287/413/346
f 186/341/279 40/418/351 89/360/293
f 377/351/285 98/412/345 40/418/351
f 211/419/352 379/421/354 378/420/353
f 379/421/354 40/418/351 98/412/345
f 21/363/296 357/362/295 379/421/354
f 357/362/295 89/360/293 40/418/351
f 188/368/301 20/357/290 380/422/355
f 214/423/356 380/422/355 99/424/357
f 20/357/290 381/426/359 380/422/355
f 100/425/358 99/424/357 213/427/360
f 20/357/290 90/361/294 381/426/359
f 21/363/296 223/431/364 381/426/359
f 223/431/364 104/450/383 288/430/363
f 99/424/357 288/430/363 212/428/361
f 212/428/361 288/430/363 104/450/383
f 19/375/308 191/370/303 214/423/356
f 382/432/365 100/425/358 213/427/360
f 194/376/309 19/375/308 289/433/366
f 19/375/308 214/423/356 289/433/366
f 214/423/356 100/425/358 289/433/366
f 101/435/368 289/433/366 382/432/365
f 382/432/365 289/433/366 100/425/358
f 18/383/316 196/381/314 216/434/367
f 102/437/370 101/435/368 215/436/369
f 17/389/322 93/387/320 383/438/371
f 18/383/316 216/434/367 383/438/371
f 385/439/372 102/437/370 215/436/369
f 218/441/374 384/440/373 290/442/375
f 17/389/322 383/438/371 384/440/373
f 383/438/371 102/437/370 290/442/375
f 385/439/372 290/442/375 102/437/370
f 200/402/335 199/398/331 218/441/374
f 219/444/377 218/441/374 291/445/378
f 218/441/374 290/442/375 291/445/378
f 103/446/379 291/445/378 217/443/376
f 217/443/376 291/445/378 290/442/375
f 204/408/341 203/404/337 219/444/377
f 220/447/380 219/444/377 103/446/379
f 221/448/381 103/446/379 217/443/376
f 16/417/350 207/410/343 220/447/380
f 220/447/380 103/446/379 292/452/385
f 221/448/381 292/452/385 103/446/379
f 16/417/350 220/447/380 293/449/382
f 220/447/380 292/452/385 293/449/382
f 104/450/383 293/449/382 222/451/384
f 222/451/384 293/449/382 292/452/385
f 21/363/296 211/419/352 223/431/364
f 212/428/361 104/450/383 222/451/384
