# Blender 4.0.0
# www.blender.org
o button_power
v 0.18145600 -0.27567900 0.47556900
v 0.18566900 -0.27445400 0.47592800
v 0.18572200 -0.27441900 0.47293300
v 0.17718900 -0.27441900 0.47293300
v 0.18871600 -0.27122000 0.47588900
v 0.18879400 -0.27114800 0.47289500
v 0.18985200 -0.26672400 0.47583600
v 0.18993400 -0.26660600 0.47284100
v 0.18873000 -0.26222400 0.47578300
v 0.18879400 -0.26206400 0.47278700
v 0.18569300 -0.25898000 0.47574300
v 0.18572200 -0.25879400 0.47274800
v 0.18145600 -0.25776700 0.47570900
v 0.18145600 -0.25758100 0.47273400
v 0.17721800 -0.25898000 0.47574300
v 0.17718900 -0.25879400 0.47274800
v 0.17418100 -0.26222500 0.47578300
v 0.17411700 -0.26206400 0.47278700
v 0.17306000 -0.26672400 0.47583600
v 0.17297700 -0.26660600 0.47284100
v 0.17419500 -0.27122100 0.47588900
v 0.17411700 -0.27114800 0.47289500
v 0.18533500 -0.27382300 0.47659800
v 0.18145600 -0.27535700 0.47639800
v 0.18812000 -0.27084900 0.47656400
v 0.18914900 -0.26674100 0.47651600
v 0.18811900 -0.26261800 0.47646700
v 0.18533500 -0.25964800 0.47643200
v 0.17757700 -0.25964800 0.47643200
v 0.17479300 -0.26261800 0.47646700
v 0.17376200 -0.26674100 0.47651600
v 0.17479100 -0.27084900 0.47656400
v 0.18391600 -0.27217800 0.47725500
v 0.18706700 -0.26727100 0.47720100
v 0.18243400 -0.26081100 0.47712400
v 0.17899800 -0.26133300 0.47712600
v 0.17679500 -0.26333600 0.47715000
v 0.17613800 -0.26884000 0.47722100
v 0.18145600 -0.26678100 0.47788400
v 0.18361900 -0.27523100 0.47622300
v 0.17929200 -0.27523100 0.47622300
v 0.18732500 -0.27296800 0.47619600
v 0.18945100 -0.26902300 0.47614900
v 0.18945100 -0.26441600 0.47609500
v 0.18732500 -0.26047100 0.47604800
v 0.18361900 -0.25820800 0.47602100
v 0.17929200 -0.25820800 0.47602100
v 0.17558600 -0.26047100 0.47604800
v 0.17346000 -0.26441600 0.47609500
v 0.17346000 -0.26902300 0.47614900
v 0.17558600 -0.27296800 0.47619600
v 0.18481400 -0.27033800 0.47742600
v 0.18474400 -0.26304200 0.47732800
v 0.17816700 -0.26304200 0.47732800
v 0.17809700 -0.27033800 0.47742600
v 0.18145600 -0.27564200 0.47294700
v 0.18367000 -0.27531700 0.47294400
v 0.18362900 -0.27534100 0.47594300
v 0.17924200 -0.27531700 0.47294400
v 0.17928200 -0.27534100 0.47594300
v 0.18746200 -0.27300000 0.47291700
v 0.18739400 -0.27305200 0.47591100
v 0.18963800 -0.26896300 0.47286900
v 0.18955500 -0.26905900 0.47586400
v 0.18963800 -0.26424900 0.47281300
v 0.18956300 -0.26439000 0.47580800
v 0.18746200 -0.26021200 0.47276500
v 0.18741400 -0.26038900 0.47576100
v 0.18367000 -0.25789500 0.47273700
v 0.18366200 -0.25808700 0.47573300
v 0.17924200 -0.25789500 0.47273700
v 0.17924900 -0.25808700 0.47573300
v 0.17544900 -0.26021200 0.47276500
v 0.17549700 -0.26038900 0.47576100
v 0.17327300 -0.26424900 0.47281300
v 0.17334900 -0.26439000 0.47580800
v 0.17327300 -0.26896300 0.47286900
v 0.17335600 -0.26905900 0.47586400
v 0.17544900 -0.27300000 0.47291700
v 0.17551700 -0.27305200 0.47591100
v 0.18145600 -0.27553900 0.47622600
v 0.18562500 -0.27435400 0.47621200
v 0.17728600 -0.27435400 0.47621200
v 0.18862700 -0.27115800 0.47617500
v 0.18974000 -0.26672000 0.47612200
v 0.18862700 -0.26228100 0.47606900
v 0.18562500 -0.25908500 0.47603100
v 0.18145600 -0.25790000 0.47601700
v 0.17728600 -0.25908500 0.47603100
v 0.17428500 -0.26228100 0.47606900
v 0.17317100 -0.26672000 0.47612200
v 0.17428500 -0.27115800 0.47617500
v 0.18460600 -0.27345200 0.47687000
v 0.18243400 -0.27270200 0.47726500
v 0.18145600 -0.27449700 0.47678800
v 0.17830500 -0.27345200 0.47687000
v 0.18731400 -0.27092000 0.47684000
v 0.18846600 -0.26629300 0.47679200
v 0.18677300 -0.26884100 0.47722100
v 0.18731500 -0.26256600 0.47674100
v 0.18460700 -0.26003300 0.47671100
v 0.17830500 -0.26003300 0.47671100
v 0.18023700 -0.26080700 0.47711000
v 0.17559600 -0.26256600 0.47674100
v 0.17759200 -0.26228800 0.47713300
v 0.17444500 -0.26629300 0.47679200
v 0.17559700 -0.27092000 0.47684000
v 0.18398500 -0.26946300 0.47758700
v 0.18504400 -0.26587200 0.47752700
v 0.18398600 -0.26407600 0.47752300
v 0.18061300 -0.26295000 0.47749300
v 0.17892600 -0.26407600 0.47752300
v 0.17892700 -0.26946300 0.47758700
v 0.18257300 -0.27555100 0.47294700
v 0.18472600 -0.27493700 0.47293900
v 0.18571700 -0.27447800 0.47480500
v 0.18253500 -0.27557200 0.47593900
v 0.17719400 -0.27447800 0.47480500
v 0.17818500 -0.27493700 0.47293900
v 0.18033900 -0.27555100 0.47294700
v 0.17822900 -0.27496500 0.47593400
v 0.18663800 -0.27376900 0.47292600
v 0.18818400 -0.27212300 0.47290600
v 0.18878700 -0.27121100 0.47476800
v 0.18657600 -0.27381200 0.47592000
v 0.18928100 -0.27008800 0.47288200
v 0.18985800 -0.26779500 0.47285500
v 0.18992700 -0.26667300 0.47471500
v 0.18920000 -0.27017200 0.47587700
v 0.18985800 -0.26541700 0.47282700
v 0.18928100 -0.26312500 0.47279900
v 0.18878900 -0.26213500 0.47466100
v 0.18977900 -0.26554700 0.47582200
v 0.18818400 -0.26109000 0.47277500
v 0.18663800 -0.25944300 0.47275600
v 0.18572000 -0.25886600 0.47462300
v 0.18812800 -0.26125800 0.47577100
v 0.18472600 -0.25827500 0.47274200
v 0.18257300 -0.25766100 0.47273500
v 0.18145600 -0.25765000 0.47454700
v 0.18470800 -0.25846500 0.47573700
v 0.18033900 -0.25766100 0.47273500
v 0.17818500 -0.25827500 0.47274200
v 0.17719100 -0.25886700 0.47462700
v 0.18033600 -0.25785300 0.47573000
v 0.17627400 -0.25944300 0.47275600
v 0.17472700 -0.26109000 0.47277500
v 0.17412200 -0.26213500 0.47466200
v 0.17631200 -0.25962500 0.47575100
v 0.17363000 -0.26312500 0.47279900
v 0.17305300 -0.26541700 0.47282700
v 0.17298500 -0.26667300 0.47471600
v 0.17370000 -0.26327600 0.47579500
v 0.17305300 -0.26779500 0.47285500
v 0.17363000 -0.27008800 0.47288200
v 0.17412400 -0.27121100 0.47476900
v 0.17313600 -0.26790200 0.47585000
v 0.17472700 -0.27212300 0.47290600
v 0.17627400 -0.27376900 0.47292600
v 0.17480100 -0.27218500 0.47590100
v 0.18247400 -0.27485300 0.47661000
v 0.18145600 -0.27563000 0.47599900
v 0.18554500 -0.27421200 0.47636900
v 0.17847800 -0.27429400 0.47660300
v 0.17736600 -0.27421200 0.47636900
v 0.17724200 -0.27445400 0.47592800
v 0.18616400 -0.27323200 0.47659200
v 0.18848900 -0.27107900 0.47633200
v 0.18856200 -0.26989000 0.47655100
v 0.18958100 -0.26672500 0.47628000
v 0.18908500 -0.26566100 0.47650100
v 0.18848900 -0.26237200 0.47622800
v 0.18757000 -0.26172900 0.47645400
v 0.18554500 -0.25923800 0.47619100
v 0.18443300 -0.25917300 0.47642400
v 0.18145600 -0.25809400 0.47619300
v 0.18043700 -0.25861300 0.47641800
v 0.17736600 -0.25923800 0.47619100
v 0.17674800 -0.26023400 0.47643800
v 0.17442200 -0.26237200 0.47622800
v 0.17435100 -0.26357800 0.47647800
v 0.17333000 -0.26672500 0.47628000
v 0.17384300 -0.26783200 0.47653400
v 0.17442200 -0.27107900 0.47633200
v 0.17534200 -0.27173600 0.47657300
v 0.18023700 -0.27270500 0.47725100
v 0.17899500 -0.27217800 0.47725500
v 0.17860900 -0.27288900 0.47706300
v 0.17757600 -0.27382300 0.47659800
v 0.18552400 -0.27102000 0.47724100
v 0.18782700 -0.26624600 0.47699500
v 0.18678600 -0.26290900 0.47694500
v 0.18696700 -0.26522300 0.47717200
v 0.18430400 -0.26061100 0.47691800
v 0.18531900 -0.26228800 0.47713300
v 0.18611600 -0.26333700 0.47715000
v 0.18145600 -0.25898300 0.47660400
v 0.18093500 -0.25994600 0.47691400
v 0.18391300 -0.26133300 0.47712600
v 0.17594400 -0.26522300 0.47717200
v 0.17612600 -0.27059200 0.47703600
v 0.17584500 -0.26727100 0.47720100
v 0.17738800 -0.27102000 0.47724100
v 0.18090400 -0.26895600 0.47774200
v 0.18363200 -0.26770800 0.47770200
v 0.18350800 -0.26618500 0.47770900
v 0.18599000 -0.26546300 0.47737700
v 0.18233400 -0.26445900 0.47766400
v 0.18255600 -0.26183000 0.47731900
v 0.18089900 -0.26459300 0.47769000
v 0.17940300 -0.26618500 0.47770900
v 0.17692100 -0.26546400 0.47737700
v 0.18366500 -0.27537500 0.47482900
v 0.17924600 -0.27537500 0.47482900
v 0.18745500 -0.27306100 0.47479000
v 0.18963100 -0.26902800 0.47474500
v 0.18963200 -0.26431900 0.47468800
v 0.18745800 -0.26028400 0.47464400
v 0.18367000 -0.25796800 0.47460900
v 0.17924100 -0.25796800 0.47460900
v 0.17545300 -0.26028500 0.47464500
v 0.17327900 -0.26431900 0.47468700
v 0.17328000 -0.26902800 0.47474400
v 0.17545600 -0.27306100 0.47478900
v 0.18357800 -0.27507300 0.47637900
v 0.18254700 -0.27546000 0.47622500
v 0.18465200 -0.27486000 0.47621800
v 0.17933400 -0.27507300 0.47637900
v 0.17826000 -0.27486000 0.47621800
v 0.18036400 -0.27546000 0.47622500
v 0.18721200 -0.27285300 0.47635300
v 0.18652000 -0.27371900 0.47620500
v 0.18803100 -0.27211000 0.47618600
v 0.18929800 -0.26898400 0.47630700
v 0.18910300 -0.27012200 0.47616200
v 0.18966600 -0.26788200 0.47613600
v 0.18929800 -0.26446600 0.47625300
v 0.18966600 -0.26555800 0.47610800
v 0.18910300 -0.26331700 0.47608100
v 0.18721200 -0.26059700 0.47620700
v 0.18803100 -0.26132900 0.47605800
v 0.18652000 -0.25972000 0.47603900
v 0.18357800 -0.25837700 0.47618100
v 0.18465200 -0.25857900 0.47602500
v 0.18254700 -0.25797900 0.47601800
v 0.17933400 -0.25837700 0.47618100
v 0.18036400 -0.25797900 0.47601800
v 0.17826000 -0.25857900 0.47602500
v 0.17569900 -0.26059700 0.47620700
v 0.17639200 -0.25972000 0.47603900
v 0.17488100 -0.26132900 0.47605800
v 0.17361400 -0.26446600 0.47625300
v 0.17380900 -0.26331700 0.47608100
v 0.17324500 -0.26555800 0.47610800
v 0.17361400 -0.26898400 0.47630700
v 0.17324500 -0.26788200 0.47613600
v 0.17380900 -0.27012200 0.47616200
v 0.17569900 -0.27285300 0.47635300
v 0.17488100 -0.27211000 0.47618600
v 0.17639200 -0.27371900 0.47620500
v 0.18291100 -0.27409600 0.47687000
v 0.18347100 -0.27464400 0.47660600
v 0.17995400 -0.27385800 0.47694700
v 0.17944100 -0.27464400 0.47660600
v 0.18612500 -0.27235500 0.47686300
v 0.18691400 -0.27253900 0.47658100
v 0.18831100 -0.26827400 0.47682200
v 0.18777600 -0.26810900 0.47700300
v 0.18767300 -0.26946600 0.47693500
v 0.18886600 -0.26888800 0.47654600
v 0.18811500 -0.26434500 0.47676700
v 0.18754900 -0.26459700 0.47697100
v 0.18888800 -0.26459600 0.47648700
v 0.18612600 -0.26113200 0.47672900
v 0.18574700 -0.26165000 0.47693600
v 0.18691400 -0.26092900 0.47644400
v 0.18291200 -0.25939000 0.47669600
v 0.18277500 -0.26002200 0.47690600
v 0.18347000 -0.25882100 0.47641800
v 0.17995300 -0.25963500 0.47677900
v 0.17944100 -0.25882200 0.47641800
v 0.17678500 -0.26113200 0.47672900
v 0.17599800 -0.26092900 0.47644400
v 0.17479700 -0.26434500 0.47676700
v 0.17402300 -0.26459600 0.47648700
v 0.17460000 -0.26827400 0.47682200
v 0.17404600 -0.26888800 0.47654600
v 0.17678700 -0.27235500 0.47686300
v 0.17716600 -0.27185200 0.47705700
v 0.17599700 -0.27253900 0.47658100
v 0.18245900 -0.27072000 0.47756000
v 0.18061300 -0.27058800 0.47758300
v 0.18583200 -0.26802200 0.47743100
v 0.18245600 -0.26281800 0.47746700
v 0.17786800 -0.26587200 0.47752700
v 0.17707900 -0.26802300 0.47743100
v 0.18256900 -0.27560900 0.47482900
v 0.18472100 -0.27499600 0.47481900
v 0.17819000 -0.27499600 0.47481900
v 0.18034200 -0.27560900 0.47482800
v 0.18663100 -0.27383000 0.47480000
v 0.18817700 -0.27218500 0.47477700
v 0.18927400 -0.27015200 0.47475800
v 0.18985100 -0.26786200 0.47473000
v 0.18985100 -0.26548500 0.47470200
v 0.18927600 -0.26319500 0.47467400
v 0.18818000 -0.26116100 0.47465400
v 0.18663500 -0.25951600 0.47463200
v 0.18472500 -0.25834800 0.47461600
v 0.18257400 -0.25773400 0.47460900
v 0.18033700 -0.25773400 0.47460800
v 0.17818600 -0.25834800 0.47461600
v 0.17627600 -0.25951500 0.47463300
v 0.17473100 -0.26116100 0.47465400
v 0.17363600 -0.26319500 0.47467200
v 0.17306000 -0.26548500 0.47470300
v 0.17306100 -0.26786200 0.47473100
v 0.17363700 -0.27015200 0.47475600
v 0.17473400 -0.27218500 0.47477800
v 0.17628000 -0.27383000 0.47480000
v 0.18459000 -0.27470900 0.47637500
v 0.18252600 -0.27529800 0.47638200
v 0.18468200 -0.27496500 0.47593400
v 0.18038500 -0.27529800 0.47638200
v 0.17832100 -0.27470900 0.47637500
v 0.18037600 -0.27557200 0.47593900
v 0.18790400 -0.27201300 0.47634300
v 0.18642200 -0.27359000 0.47636100
v 0.18811100 -0.27218500 0.47590100
v 0.18950900 -0.26786500 0.47629300
v 0.18895600 -0.27006200 0.47631900
v 0.18977500 -0.26790200 0.47585000
v 0.18895600 -0.26338800 0.47624000
v 0.18950900 -0.26558500 0.47626600
v 0.18921100 -0.26327600 0.47579500
v 0.18642200 -0.25986000 0.47619900
v 0.18790400 -0.26143800 0.47621700
v 0.18659900 -0.25962500 0.47575100
v 0.18252600 -0.25815200 0.47617800
v 0.18459000 -0.25874100 0.47618500
v 0.18257600 -0.25785300 0.47573000
v 0.17832100 -0.25874100 0.47618500
v 0.18038500 -0.25815200 0.47617800
v 0.17820300 -0.25846500 0.47573700
v 0.17500700 -0.26143800 0.47621700
v 0.17648900 -0.25986000 0.47619900
v 0.17478400 -0.26125800 0.47577100
v 0.17340300 -0.26558500 0.47626600
v 0.17395600 -0.26338800 0.47624000
v 0.17313300 -0.26554700 0.47582200
v 0.17395600 -0.27006200 0.47631900
v 0.17340300 -0.26786500 0.47629300
v 0.17371100 -0.27017200 0.47587700
v 0.17648900 -0.27359000 0.47636100
v 0.17500700 -0.27201300 0.47634300
v 0.17633500 -0.27381200 0.47592100
v 0.18443300 -0.27429400 0.47660300
v 0.18430200 -0.27289000 0.47706300
v 0.18277500 -0.27347700 0.47706500
v 0.18043700 -0.27485300 0.47661000
v 0.18093600 -0.27355300 0.47707600
v 0.18757000 -0.27173600 0.47657300
v 0.18678500 -0.27059300 0.47703600
v 0.18574600 -0.27185200 0.47705700
v 0.18906900 -0.26783200 0.47653400
v 0.18856000 -0.26357800 0.47647800
v 0.18616300 -0.26023400 0.47643800
v 0.18247500 -0.25861300 0.47641800
v 0.17847800 -0.25917300 0.47642400
v 0.17860800 -0.26061100 0.47691800
v 0.17534200 -0.26172900 0.47645400
v 0.17612500 -0.26290900 0.47694500
v 0.17716400 -0.26165000 0.47693600
v 0.17382600 -0.26566100 0.47650100
v 0.17508400 -0.26624600 0.47699500
v 0.17536200 -0.26459700 0.47697100
v 0.17434900 -0.26989000 0.47655100
v 0.17523800 -0.26946600 0.47693500
v 0.17513600 -0.26810900 0.47700300
v 0.17674700 -0.27323200 0.47659200
v 0.18255500 -0.27169600 0.47743600
v 0.18233300 -0.26909100 0.47771900
v 0.18019200 -0.27174300 0.47741900
v 0.18019200 -0.26178200 0.47730100
v 0.17927900 -0.26770800 0.47770200
vn -0.0000 -0.9997 -0.0249
vn 0.1389 -0.9903 0.0015
vn -0.0000 -0.9987 0.0506
vn 0.2662 -0.9427 0.2012
vn 0.1365 -0.9703 0.1998
vn 0.1451 -0.9890 -0.0300
vn 0.2739 -0.9617 0.0046
vn 0.5212 -0.8534 0.0074
vn 0.4014 -0.9155 -0.0275
vn 0.5220 -0.8525 -0.0255
vn 0.4008 -0.9162 0.0057
vn 0.2745 -0.9612 -0.0290
vn 0.5095 -0.8368 0.2003
vn 0.3916 -0.8983 0.1992
vn -0.5095 -0.8368 0.2002
vn -0.4008 -0.9162 0.0057
vn -0.3916 -0.8983 0.1991
vn -0.2739 -0.9617 0.0045
vn -0.2662 -0.9427 0.2012
vn -0.5212 -0.8534 0.0073
vn -0.4014 -0.9155 -0.0275
vn -0.2745 -0.9612 -0.0290
vn -0.1389 -0.9903 0.0015
vn -0.1451 -0.9890 -0.0300
vn -0.1365 -0.9703 0.1998
vn 0.6179 -0.7601 0.2011
vn 0.6316 -0.7752 0.0099
vn 0.7130 -0.6714 0.2019
vn 0.6325 -0.7742 -0.0228
vn 0.7285 -0.6849 0.0126
vn 0.8798 -0.4750 0.0193
vn 0.8122 -0.5831 -0.0162
vn 0.8807 -0.4736 -0.0125
vn 0.8113 -0.5844 0.0157
vn 0.7294 -0.6838 -0.0197
vn 0.8611 -0.4653 0.2050
vn 0.7941 -0.5727 0.2035
vn 0.9123 -0.3531 0.2075
vn 0.9324 -0.3606 0.0231
vn 0.9480 -0.2388 0.2102
vn 0.9332 -0.3591 -0.0085
vn 0.9694 -0.2441 0.0269
vn 0.9994 0.0002 0.0351
vn 0.9924 -0.1227 -0.0004
vn 1.0000 0.0019 0.0039
vn 0.9918 -0.1243 0.0309
vn 0.9701 -0.2426 -0.0045
vn 0.9762 0.0003 0.2167
vn 0.9695 -0.1214 0.2131
vn 0.9677 0.1218 0.2208
vn 0.9914 0.1246 0.0395
vn 0.9448 0.2384 0.2249
vn 0.9919 0.1264 0.0082
vn 0.9687 0.2443 0.0437
vn 0.8786 0.4747 0.0519
vn 0.9319 0.3624 0.0164
vn 0.8789 0.4765 0.0203
vn 0.9315 0.3606 0.0478
vn 0.9692 0.2460 0.0123
vn 0.8554 0.4621 0.2339
vn 0.9077 0.3515 0.2292
vn 0.7879 0.5676 0.2388
vn 0.8100 0.5837 0.0561
vn 0.7067 0.6642 0.2435
vn 0.8102 0.5856 0.0242
vn 0.7271 0.6839 0.0599
vn 0.5200 0.8516 0.0660
vn 0.6304 0.7757 0.0308
vn 0.5200 0.8535 0.0335
vn 0.6303 0.7738 0.0631
vn 0.7273 0.6858 0.0277
vn 0.5051 0.8258 0.2507
vn 0.6123 0.7509 0.2472
vn 0.3887 0.8857 0.2540
vn 0.3999 0.9140 0.0684
vn 0.2663 0.9292 0.2563
vn 0.3999 0.9159 0.0356
vn 0.2735 0.9593 0.0700
vn -0.0000 0.9977 0.0681
vn 0.1403 0.9894 0.0381
vn -0.0000 0.9993 0.0382
vn 0.1403 0.9875 0.0712
vn 0.2734 0.9612 0.0372
vn -0.0000 0.9682 0.2501
vn 0.1378 0.9563 0.2581
vn -0.1403 0.9875 0.0711
vn -0.1378 0.9563 0.2581
vn -0.2735 0.9593 0.0700
vn -0.2663 0.9292 0.2563
vn -0.1403 0.9894 0.0381
vn -0.2734 0.9612 0.0372
vn -0.5200 0.8535 0.0335
vn -0.3999 0.9140 0.0683
vn -0.3999 0.9159 0.0356
vn -0.5200 0.8516 0.0662
vn -0.3887 0.8857 0.2540
vn -0.5051 0.8258 0.2508
vn -0.6303 0.7738 0.0631
vn -0.6123 0.7509 0.2473
vn -0.7271 0.6839 0.0599
vn -0.7067 0.6643 0.2435
vn -0.6304 0.7757 0.0308
vn -0.7273 0.6858 0.0277
vn -0.8789 0.4765 0.0203
vn -0.8100 0.5837 0.0561
vn -0.8102 0.5856 0.0242
vn -0.8786 0.4746 0.0520
vn -0.7879 0.5676 0.2388
vn -0.8554 0.4621 0.2339
vn -0.9315 0.3606 0.0478
vn -0.9077 0.3515 0.2292
vn -0.9687 0.2443 0.0436
vn -0.9448 0.2384 0.2248
vn -0.9319 0.3624 0.0163
vn -0.9692 0.2460 0.0123
vn -1.0000 0.0019 0.0039
vn -0.9914 0.1246 0.0395
vn -0.9920 0.1264 0.0082
vn -0.9994 0.0002 0.0352
vn -0.9677 0.1218 0.2207
vn -0.9762 0.0003 0.2169
vn -0.9918 -0.1243 0.0310
vn -0.9694 -0.1214 0.2131
vn -0.9694 -0.2441 0.0269
vn -0.9480 -0.2388 0.2102
vn -0.9924 -0.1227 -0.0004
vn -0.9701 -0.2426 -0.0045
vn -0.8807 -0.4736 -0.0125
vn -0.9325 -0.3606 0.0230
vn -0.9332 -0.3591 -0.0086
vn -0.8798 -0.4750 0.0193
vn -0.9123 -0.3530 0.2075
vn -0.8611 -0.4653 0.2051
vn -0.8113 -0.5844 0.0157
vn -0.7941 -0.5727 0.2034
vn -0.7285 -0.6849 0.0126
vn -0.7131 -0.6714 0.2018
vn -0.8122 -0.5831 -0.0162
vn -0.7294 -0.6838 -0.0197
vn -0.5220 -0.8525 -0.0255
vn -0.6316 -0.7752 0.0098
vn -0.6325 -0.7742 -0.0229
vn -0.6179 -0.7601 0.2011
vn 0.1654 -0.3742 0.9125
vn 0.3105 -0.4988 0.8092
vn 0.2231 -0.3457 0.9114
vn 0.1189 -0.3918 0.9123
vn 0.2382 -0.5347 0.8107
vn 0.4396 -0.7125 0.5468
vn 0.1626 -0.5609 0.8118
vn 0.3383 -0.7651 0.5479
vn -0.0000 -0.5657 0.8246
vn 0.0841 -0.5773 0.8122
vn 0.0577 -0.4053 0.9123
vn 0.1189 -0.8269 0.5496
vn 0.2317 -0.8019 0.5508
vn -0.0000 -0.9685 0.2489
vn -0.0000 -0.8294 0.5586
vn -0.0585 -0.4021 0.9137
vn -0.1626 -0.5609 0.8118
vn -0.0841 -0.5774 0.8121
vn -0.1189 -0.8269 0.5496
vn -0.2317 -0.8019 0.5507
vn -0.1654 -0.3742 0.9125
vn -0.3106 -0.4988 0.8092
vn -0.2382 -0.5347 0.8108
vn -0.4397 -0.7126 0.5467
vn -0.3383 -0.7651 0.5478
vn -0.1170 -0.3906 0.9131
vn 0.3441 -0.2408 0.9075
vn 0.5299 -0.2766 0.8017
vn 0.3790 -0.1884 0.9060
vn 0.3133 -0.2780 0.9081
vn 0.4876 -0.3417 0.8034
vn 0.7425 -0.3941 0.5417
vn 0.4366 -0.4009 0.8054
vn 0.6847 -0.4864 0.5427
vn 0.3774 -0.4537 0.8073
vn 0.2637 -0.3182 0.9106
vn 0.5329 -0.6471 0.5453
vn 0.6149 -0.5711 0.5438
vn 0.4303 0.0064 0.9027
vn 0.5979 -0.0656 0.7989
vn 0.6015 0.0092 0.7988
vn 0.4253 -0.0402 0.9042
vn 0.5841 -0.1377 0.7999
vn 0.8342 -0.0980 0.5427
vn 0.8389 0.0067 0.5443
vn 0.8165 -0.1990 0.5419
vn 0.5625 -0.2081 0.8002
vn 0.3980 -0.1433 0.9061
vn 0.7863 -0.2974 0.5416
vn 0.4153 -0.0985 0.9043
vn 0.3727 0.2063 0.9047
vn 0.5535 0.2231 0.8024
vn 0.5190 0.2891 0.8044
vn 0.3937 0.1664 0.9040
vn 0.5788 0.1549 0.8006
vn 0.7746 0.3064 0.5533
vn 0.7278 0.3998 0.5572
vn 0.8083 0.2104 0.5499
vn 0.4245 0.0670 0.9029
vn 0.5949 0.0839 0.7994
vn 0.8299 0.1108 0.5468
vn 0.4165 0.1112 0.9023
vn 0.2166 0.3565 0.9089
vn 0.3649 0.4567 0.8113
vn 0.2991 0.4987 0.8135
vn 0.2567 0.3307 0.9082
vn 0.4237 0.4073 0.8091
vn 0.5156 0.6400 0.5697
vn 0.4237 0.7013 0.5732
vn 0.5971 0.5685 0.5660
vn 0.3371 0.2569 0.9057
vn 0.4753 0.3513 0.8067
vn 0.6681 0.4881 0.5616
vn 0.3059 0.2924 0.9060
vn 0.0558 0.4126 0.9092
vn 0.1559 0.5560 0.8164
vn 0.0806 0.5716 0.8165
vn -0.0000 0.5606 0.8281
vn 0.1127 0.8068 0.5799
vn -0.0000 0.8155 0.5787
vn 0.2213 0.7850 0.5786
vn 0.1602 0.3835 0.9095
vn 0.2289 0.5321 0.8151
vn 0.3247 0.7500 0.5762
vn 0.1149 0.4002 0.9092
vn -0.1603 0.3835 0.9095
vn -0.2991 0.4987 0.8136
vn -0.2166 0.3564 0.9089
vn -0.1131 0.3991 0.9099
vn -0.2289 0.5321 0.8152
vn -0.4238 0.7013 0.5732
vn -0.1559 0.5560 0.8164
vn -0.3247 0.7500 0.5762
vn -0.0806 0.5716 0.8165
vn -0.0565 0.4096 0.9105
vn -0.1127 0.8068 0.5799
vn -0.2213 0.7850 0.5786
vn -0.3371 0.2569 0.9057
vn -0.5189 0.2891 0.8044
vn -0.3727 0.2063 0.9047
vn -0.3059 0.2924 0.9060
vn -0.4752 0.3513 0.8067
vn -0.7278 0.3998 0.5572
vn -0.4237 0.4073 0.8090
vn -0.6681 0.4881 0.5616
vn -0.3649 0.4567 0.8113
vn -0.2567 0.3307 0.9082
vn -0.5156 0.6400 0.5697
vn -0.5971 0.5685 0.5659
vn -0.4245 0.0670 0.9029
vn -0.6015 0.0092 0.7988
vn -0.4303 0.0064 0.9027
vn -0.4164 0.1112 0.9023
vn -0.5949 0.0839 0.7994
vn -0.8388 0.0067 0.5444
vn -0.5787 0.1549 0.8007
vn -0.8298 0.1108 0.5469
vn -0.5535 0.2231 0.8024
vn -0.3937 0.1664 0.9040
vn -0.7746 0.3064 0.5533
vn -0.8083 0.2104 0.5498
vn -0.3790 -0.1884 0.9060
vn -0.5625 -0.2081 0.8002
vn -0.5299 -0.2766 0.8017
vn -0.3980 -0.1433 0.9061
vn -0.5841 -0.1377 0.7999
vn -0.7863 -0.2974 0.5416
vn -0.7425 -0.3941 0.5417
vn -0.5979 -0.0656 0.7989
vn -0.4253 -0.0402 0.9042
vn -0.8342 -0.0980 0.5427
vn -0.4153 -0.0984 0.9044
vn -0.8165 -0.1990 0.5419
vn -0.2231 -0.3457 0.9114
vn -0.3775 -0.4537 0.8073
vn -0.2637 -0.3182 0.9106
vn -0.4366 -0.4009 0.8054
vn -0.5329 -0.6471 0.5453
vn -0.6149 -0.5712 0.5438
vn -0.3441 -0.2408 0.9075
vn -0.4876 -0.3417 0.8034
vn -0.6848 -0.4864 0.5427
vn -0.3133 -0.2780 0.9081
vn 0.1567 -0.2852 0.9456
vn 0.0753 -0.3173 0.9453
vn 0.1267 -0.2294 0.9650
vn 0.0342 -0.2015 0.9789
vn 0.0600 -0.2582 0.9642
vn 0.0011 -0.3502 0.9367
vn -0.0155 -0.2582 0.9660
vn -0.0766 -0.2956 0.9522
vn -0.0465 -0.2036 0.9780
vn -0.1279 -0.2284 0.9651
vn -0.1014 -0.1750 0.9793
vn -0.1582 -0.2854 0.9453
vn 0.2917 -0.1730 0.9407
vn 0.2318 -0.2372 0.9434
vn 0.2307 -0.1351 0.9636
vn 0.1647 -0.1385 0.9766
vn 0.1881 -0.1930 0.9630
vn 0.0995 -0.1758 0.9794
vn 0.3437 0.0299 0.9386
vn 0.3428 -0.0531 0.9379
vn 0.2768 0.0296 0.9605
vn 0.2207 -0.0016 0.9753
vn 0.2793 -0.0350 0.9596
vn 0.2966 -0.1045 0.9493
vn 0.2868 0.1889 0.9392
vn 0.3276 0.1149 0.9378
vn 0.1836 0.1225 0.9753
vn 0.2679 0.0982 0.9584
vn 0.2347 0.1563 0.9594
vn 0.2210 0.0649 0.9731
vn 0.1527 0.2999 0.9417
vn 0.2268 0.2539 0.9402
vn 0.0973 0.1969 0.9756
vn 0.1865 0.2104 0.9597
vn 0.1242 0.2470 0.9610
vn 0.1516 0.1708 0.9736
vn 0.0010 0.3609 0.9326
vn 0.0732 0.3302 0.9411
vn -0.0151 0.2746 0.9614
vn 0.0336 0.2205 0.9748
vn 0.0586 0.2747 0.9598
vn -0.1542 0.3001 0.9414
vn -0.0746 0.3097 0.9479
vn -0.1253 0.2461 0.9611
vn -0.0455 0.2225 0.9739
vn -0.2868 0.1889 0.9392
vn -0.2268 0.2539 0.9402
vn -0.2347 0.1563 0.9594
vn -0.1516 0.1708 0.9736
vn -0.1865 0.2104 0.9597
vn -0.0993 0.1961 0.9755
vn -0.3437 0.0299 0.9386
vn -0.3276 0.1149 0.9378
vn -0.2768 0.0296 0.9605
vn -0.2210 0.0649 0.9731
vn -0.2679 0.0983 0.9584
vn -0.1836 0.1225 0.9753
vn -0.2917 -0.1730 0.9407
vn -0.2966 -0.1045 0.9493
vn -0.2091 -0.0660 0.9757
vn -0.2307 -0.1351 0.9636
vn -0.2793 -0.0350 0.9596
vn -0.2207 -0.0016 0.9753
vn -0.3428 -0.0531 0.9379
vn -0.2318 -0.2371 0.9434
vn -0.1881 -0.1929 0.9630
vn -0.1647 -0.1385 0.9766
vn 0.1223 -0.1030 0.9871
vn 0.0370 -0.1111 0.9931
vn 0.0395 -0.1466 0.9884
vn 0.0376 -0.0746 0.9965
vn -0.0307 -0.1115 0.9933
vn 0.0915 -0.0733 0.9931
vn -0.0450 -0.1479 0.9880
vn -0.0270 -0.0736 0.9969
vn -0.0904 -0.0737 0.9932
vn -0.1220 -0.1029 0.9872
vn 0.2091 -0.0660 0.9757
vn 0.0942 -0.0240 0.9953
vn 0.1549 -0.0270 0.9876
vn 0.1265 0.0365 0.9913
vn 0.1639 0.0538 0.9850
vn 0.0922 0.0964 0.9911
vn 0.0906 0.0370 0.9952
vn 0.1166 0.1293 0.9847
vn 0.0379 0.0968 0.9946
vn 0.0362 0.1331 0.9904
vn -0.0302 0.1335 0.9906
vn 0.0386 0.1678 0.9851
vn -0.1163 0.1291 0.9848
vn -0.0440 0.1691 0.9846
vn -0.0911 0.0966 0.9911
vn -0.0275 0.0960 0.9950
vn -0.1639 0.0538 0.9850
vn -0.0901 0.0376 0.9952
vn -0.1265 0.0365 0.9913
vn -0.0937 -0.0246 0.9953
vn -0.1549 -0.0270 0.9876
vn -0.0002 0.0118 0.9999
vt 0.823699 0.656766
vt 0.818539 0.659197
vt 0.816176 0.656693
vt 0.815513 0.661975
vt 0.815332 0.659197
vt 0.823933 0.659317
vt 0.818730 0.661985
vt 0.819043 0.668107
vt 0.824292 0.665099
vt 0.824408 0.668233
vt 0.818904 0.664974
vt 0.824133 0.662108
vt 0.815800 0.668052
vt 0.815686 0.664950
vt 0.833255 0.664982
vt 0.830153 0.662072
vt 0.833370 0.662016
vt 0.830329 0.659270
vt 0.833547 0.659229
vt 0.830010 0.665069
vt 0.824767 0.662295
vt 0.824930 0.659491
vt 0.825373 0.654665
vt 0.830525 0.656719
vt 0.825134 0.656937
vt 0.832894 0.654464
vt 0.833732 0.656688
vt 0.815871 0.671239
vt 0.819106 0.671322
vt 0.815897 0.674468
vt 0.824479 0.671454
vt 0.819134 0.674580
vt 0.819044 0.681042
vt 0.824481 0.677972
vt 0.824413 0.681181
vt 0.819118 0.677836
vt 0.824503 0.674715
vt 0.815809 0.680873
vt 0.815875 0.677693
vt 0.815696 0.683959
vt 0.818924 0.684155
vt 0.815540 0.686898
vt 0.824299 0.684296
vt 0.818766 0.687118
vt 0.818339 0.692368
vt 0.823944 0.690021
vt 0.823708 0.692515
vt 0.818571 0.689875
vt 0.824141 0.687262
vt 0.815113 0.692109
vt 0.815345 0.689634
vt 0.860079 0.654470
vt 0.857212 0.656936
vt 0.856837 0.654464
vt 0.860452 0.656968
vt 0.857528 0.659671
vt 0.865450 0.654695
vt 0.865828 0.657196
vt 0.860772 0.659730
vt 0.861213 0.665815
vt 0.866399 0.662932
vt 0.866584 0.666051
vt 0.861028 0.662698
vt 0.866146 0.659961
vt 0.857964 0.665699
vt 0.857780 0.662611
vt 0.858074 0.668878
vt 0.861310 0.669023
vt 0.858110 0.672103
vt 0.866695 0.669263
vt 0.861346 0.672278
vt 0.861212 0.678753
vt 0.866695 0.675782
vt 0.866584 0.679001
vt 0.861317 0.675537
vt 0.866732 0.672521
vt 0.857970 0.678523
vt 0.858077 0.675333
vt 0.857787 0.681623
vt 0.861030 0.681883
vt 0.857538 0.684585
vt 0.866399 0.682132
vt 0.860784 0.684868
vt 0.860253 0.690190
vt 0.865828 0.687905
vt 0.865450 0.690430
vt 0.860458 0.687650
vt 0.866146 0.685120
vt 0.856902 0.689893
vt 0.857224 0.687348
vt 0.802840 0.689893
vt 0.799283 0.687651
vt 0.802519 0.687348
vt 0.798958 0.684868
vt 0.802205 0.684585
vt 0.799489 0.690190
vt 0.793915 0.687905
vt 0.793597 0.685120
vt 0.793159 0.679001
vt 0.798713 0.681883
vt 0.793343 0.682132
vt 0.798542 0.678753
vt 0.801955 0.681624
vt 0.801773 0.678523
vt 0.798428 0.675538
vt 0.801665 0.675333
vt 0.798399 0.672278
vt 0.801632 0.672103
vt 0.793048 0.675783
vt 0.793011 0.672522
vt 0.793159 0.666051
vt 0.798433 0.669023
vt 0.793048 0.669263
vt 0.798533 0.665815
vt 0.801669 0.668879
vt 0.801779 0.665699
vt 0.798710 0.662699
vt 0.801963 0.662611
vt 0.798968 0.659730
vt 0.802215 0.659671
vt 0.793343 0.662932
vt 0.793597 0.659961
vt 0.825377 0.690447
vt 0.831027 0.692698
vt 0.825654 0.692947
vt 0.793915 0.657197
vt 0.830748 0.690201
vt 0.834243 0.692376
vt 0.799291 0.656968
vt 0.833970 0.689898
vt 0.830507 0.687422
vt 0.833729 0.687141
vt 0.830301 0.684425
vt 0.833528 0.684167
vt 0.825134 0.687668
vt 0.824930 0.684668
vt 0.824649 0.678252
vt 0.830135 0.681269
vt 0.824767 0.681509
vt 0.830019 0.678015
vt 0.833367 0.681037
vt 0.833250 0.677812
vt 0.829939 0.674723
vt 0.833181 0.674548
vt 0.829918 0.671437
vt 0.833157 0.671294
vt 0.824578 0.674957
vt 0.824554 0.671669
vt 0.824649 0.665293
vt 0.829947 0.668204
vt 0.824578 0.668433
vt 0.833183 0.668089
vt 0.589577 0.517817
vt 0.599946 0.518832
vt 0.597974 0.522440
vt 0.580580 0.514325
vt 0.591055 0.513956
vt 0.814335 0.665258
vt 0.814949 0.668155
vt 0.814447 0.668262
vt 0.814183 0.662391
vt 0.814835 0.665092
vt 0.561667 0.507219
vt 0.571734 0.507994
vt 0.571240 0.512150
vt 0.571906 0.506483
vt 0.581590 0.510320
vt 0.581955 0.508856
vt 0.814927 0.656789
vt 0.814253 0.656968
vt 0.814484 0.659442
vt 0.814679 0.662170
vt 0.552051 0.511740
vt 0.541618 0.509464
vt 0.551565 0.507562
vt 0.551344 0.506043
vt 0.561641 0.505522
vt 0.541202 0.507984
vt 0.533488 0.516619
vt 0.522916 0.517184
vt 0.532007 0.512693
vt 0.522134 0.515853
vt 0.531403 0.511274
vt 0.542625 0.513514
vt 0.834105 0.665111
vt 0.834221 0.662181
vt 0.834817 0.654746
vt 0.834580 0.656945
vt 0.834381 0.659442
vt 0.618597 0.542560
vt 0.627038 0.548962
vt 0.623603 0.551026
vt 0.612585 0.534856
vt 0.621722 0.540043
vt 0.814517 0.677593
vt 0.814954 0.680804
vt 0.814451 0.680668
vt 0.814538 0.674472
vt 0.815020 0.677669
vt 0.608082 0.524873
vt 0.605666 0.528175
vt 0.815018 0.671301
vt 0.814515 0.671347
vt 0.615372 0.531978
vt 0.815042 0.674487
vt 0.632468 0.589957
vt 0.635993 0.579460
vt 0.636446 0.590218
vt 0.631930 0.579655
vt 0.634234 0.568868
vt 0.637423 0.579350
vt 0.637886 0.590319
vt 0.635631 0.568551
vt 0.631229 0.558637
vt 0.627573 0.560154
vt 0.814842 0.683849
vt 0.814342 0.683654
vt 0.630232 0.569658
vt 0.814191 0.686497
vt 0.814688 0.686747
vt 0.814265 0.691881
vt 0.814495 0.689443
vt 0.621931 0.628608
vt 0.629883 0.621548
vt 0.625283 0.631033
vt 0.626282 0.619653
vt 0.633323 0.611454
vt 0.856559 0.665896
vt 0.856910 0.662743
vt 0.857091 0.665791
vt 0.856382 0.662906
vt 0.856662 0.659839
vt 0.631648 0.600121
vt 0.635533 0.600948
vt 0.636955 0.601256
vt 0.629577 0.610124
vt 0.634702 0.611970
vt 0.856352 0.657137
vt 0.855982 0.654693
vt 0.595114 0.656047
vt 0.605314 0.654289
vt 0.596926 0.659978
vt 0.603035 0.650685
vt 0.612901 0.647502
vt 0.856559 0.678303
vt 0.857199 0.675298
vt 0.857091 0.678443
vt 0.856665 0.675219
vt 0.857235 0.672112
vt 0.616581 0.636876
vt 0.619590 0.639718
vt 0.856665 0.668973
vt 0.857199 0.668928
vt 0.610240 0.644288
vt 0.856701 0.672095
vt 0.567967 0.665219
vt 0.578224 0.667696
vt 0.568276 0.669601
vt 0.558186 0.669929
vt 0.568381 0.671254
vt 0.558084 0.671775
vt 0.578523 0.669315
vt 0.586523 0.660341
vt 0.587835 0.664468
vt 0.856382 0.681305
vt 0.856910 0.681503
vt 0.577387 0.663458
vt 0.856139 0.684168
vt 0.856663 0.684422
vt 0.855982 0.689612
vt 0.856352 0.687143
vt 0.530444 0.659139
vt 0.519896 0.658329
vt 0.522046 0.654483
vt 0.539438 0.662646
vt 0.528787 0.663204
vt 0.803360 0.681305
vt 0.802652 0.678443
vt 0.803183 0.678304
vt 0.538252 0.666840
vt 0.528120 0.664735
vt 0.548108 0.669169
vt 0.548774 0.664808
vt 0.547819 0.670814
vt 0.537770 0.668442
vt 0.803760 0.689612
vt 0.803391 0.687144
vt 0.802832 0.681503
vt 0.803080 0.684422
vt 0.501417 0.634412
vt 0.492804 0.628198
vt 0.496426 0.625923
vt 0.507434 0.642089
vt 0.498121 0.637119
vt 0.803077 0.668973
vt 0.802652 0.665791
vt 0.803184 0.665896
vt 0.803042 0.672095
vt 0.802544 0.668929
vt 0.511760 0.652288
vt 0.514360 0.648787
vt 0.802543 0.675298
vt 0.803077 0.675219
vt 0.504470 0.645182
vt 0.802507 0.672112
vt 0.487936 0.597047
vt 0.483397 0.586943
vt 0.487553 0.586855
vt 0.489580 0.607125
vt 0.483850 0.597702
vt 0.481840 0.586980
vt 0.485609 0.608293
vt 0.482302 0.597947
vt 0.488613 0.618525
vt 0.492463 0.616790
vt 0.802832 0.662743
vt 0.803361 0.662906
vt 0.484095 0.608747
vt 0.802907 0.654464
vt 0.803391 0.657138
vt 0.802531 0.656937
vt 0.803080 0.659840
vt 0.498075 0.548341
vt 0.489959 0.555614
vt 0.494560 0.546127
vt 0.493717 0.557289
vt 0.486520 0.565707
vt 0.834609 0.677685
vt 0.834221 0.680954
vt 0.834106 0.677771
vt 0.488531 0.555038
vt 0.484310 0.576214
vt 0.488535 0.576586
vt 0.482770 0.576041
vt 0.490661 0.566675
vt 0.485024 0.565329
vt 0.834817 0.689689
vt 0.834580 0.686972
vt 0.834381 0.684041
vt 0.524901 0.520876
vt 0.514528 0.522871
vt 0.516971 0.526278
vt 0.506941 0.529658
vt 0.834609 0.665269
vt 0.834036 0.668178
vt 0.834541 0.668277
vt 0.834013 0.671340
vt 0.503437 0.540095
vt 0.500253 0.537444
vt 0.834541 0.674528
vt 0.834036 0.674552
vt 0.509771 0.532657
vt 0.834518 0.671378
vt 0.591133 0.525757
vt 0.575301 0.519348
vt 0.588230 0.530976
vt 0.570671 0.532342
vt 0.573967 0.525134
vt 0.561639 0.515279
vt 0.556664 0.524041
vt 0.547425 0.520984
vt 0.549976 0.531872
vt 0.534614 0.529829
vt 0.538179 0.536594
vt 0.531794 0.524487
vt 0.616128 0.550167
vt 0.605217 0.536400
vt 0.611152 0.553125
vt 0.599432 0.548818
vt 0.601618 0.541043
vt 0.584526 0.537585
vt 0.626046 0.594014
vt 0.624988 0.575310
vt 0.620095 0.594303
vt 0.613209 0.584472
vt 0.619978 0.576732
vt 0.619256 0.563932
vt 0.614453 0.628908
vt 0.622344 0.612304
vt 0.603465 0.621361
vt 0.617138 0.609793
vt 0.609612 0.625548
vt 0.611858 0.603752
vt 0.588435 0.652237
vt 0.602965 0.642190
vt 0.582309 0.639806
vt 0.599575 0.637209
vt 0.585768 0.646707
vt 0.595742 0.631084
vt 0.558511 0.661511
vt 0.572342 0.657959
vt 0.553913 0.652295
vt 0.568273 0.644428
vt 0.571254 0.651950
vt 0.529082 0.650968
vt 0.544548 0.655046
vt 0.532126 0.645559
vt 0.547577 0.644024
vt 0.504083 0.626546
vt 0.514997 0.640307
vt 0.509207 0.623396
vt 0.522971 0.629527
vt 0.518741 0.635478
vt 0.536020 0.638814
vt 0.493999 0.591189
vt 0.496914 0.609620
vt 0.500078 0.591734
vt 0.508041 0.601531
vt 0.502367 0.607337
vt 0.515675 0.619486
vt 0.505777 0.547806
vt 0.502147 0.561423
vt 0.510596 0.567482
vt 0.510767 0.550980
vt 0.500937 0.574186
vt 0.507518 0.582209
vt 0.495860 0.572547
vt 0.517271 0.534518
vt 0.520813 0.539315
vt 0.522804 0.547183
vt 0.592677 0.555085
vt 0.570627 0.550996
vt 0.571672 0.541832
vt 0.569172 0.566312
vt 0.553220 0.551867
vt 0.584755 0.563150
vt 0.549425 0.540918
vt 0.555695 0.567291
vt 0.537120 0.562131
vt 0.529421 0.553731
vt 0.610761 0.569611
vt 0.581133 0.579609
vt 0.601811 0.577116
vt 0.593997 0.597208
vt 0.602773 0.601268
vt 0.583680 0.613925
vt 0.579664 0.593930
vt 0.590546 0.623845
vt 0.568250 0.609972
vt 0.569008 0.625482
vt 0.551681 0.623861
vt 0.569694 0.634830
vt 0.528605 0.622518
vt 0.547415 0.634803
vt 0.536022 0.612904
vt 0.554772 0.608412
vt 0.517368 0.599441
vt 0.541004 0.593103
vt 0.526417 0.595762
vt 0.540131 0.578731
vt 0.519378 0.575349
vt 0.818033 0.654464
vt 0.794293 0.690431
vt 0.814841 0.654609
vt 0.834142 0.654553
vt 0.856139 0.660058
vt 0.487159 0.619178
vt 0.803760 0.654693
vt 0.834723 0.680807
vt 0.560515 0.587888
s 1
f 56/1/1 297/2/2 1/3/3
f 297/2/2 58/4/4 117/5/5
f 114/6/6 213/7/7 297/2/2
f 116/8/8 115/9/9 3/10/10
f 298/11/11 57/12/12 115/9/9
f 2/13/13 298/11/11 116/8/8
f 323/14/14 213/7/7 298/11/11
f 166/15/15 299/16/16 121/17/17
f 121/17/17 214/18/18 60/19/19
f 118/20/20 119/21/21 299/16/16
f 299/16/16 59/22/22 214/18/18
f 56/23/1 300/24/23 120/25/24
f 120/25/24 214/18/18 59/22/22
f 1/26/3 326/27/25 300/24/23
f 300/24/23 60/19/19 214/18/18
f 116/8/8 125/28/26 2/13/13
f 301/29/27 62/30/28 125/28/26
f 3/10/10 301/29/27 116/8/8
f 122/31/29 215/32/30 301/29/27
f 124/33/31 123/34/32 6/35/33
f 302/36/34 61/37/35 123/34/32
f 5/38/36 302/36/34 124/33/31
f 329/39/37 215/32/30 302/36/34
f 124/33/31 129/40/38 5/38/36
f 303/41/39 64/42/40 129/40/38
f 6/35/33 303/41/39 124/33/31
f 126/43/41 216/44/42 303/41/39
f 128/45/43 127/46/44 8/47/45
f 304/48/46 63/49/47 127/46/44
f 7/50/48 304/48/46 128/45/43
f 332/51/49 216/44/42 304/48/46
f 128/52/43 133/53/50 7/54/48
f 305/55/51 66/56/52 133/53/50
f 8/57/45 305/55/51 128/52/43
f 130/58/53 217/59/54 305/55/51
f 132/60/55 131/61/56 10/62/57
f 306/63/58 65/64/59 131/61/56
f 9/65/60 306/63/58 132/60/55
f 335/66/61 217/59/54 306/63/58
f 132/60/55 137/67/62 9/65/60
f 307/68/63 68/69/64 137/67/62
f 10/62/57 307/68/63 132/60/55
f 134/70/65 218/71/66 307/68/63
f 136/72/67 135/73/68 12/74/69
f 308/75/70 67/76/71 135/73/68
f 11/77/72 308/75/70 136/72/67
f 338/78/73 218/71/66 308/75/70
f 136/72/67 141/79/74 11/77/72
f 309/80/75 70/81/76 141/79/74
f 12/74/69 309/80/75 136/72/67
f 138/82/77 219/83/78 309/80/75
f 140/84/79 139/85/80 14/86/81
f 310/87/82 69/88/83 139/85/80
f 13/89/84 310/87/82 140/84/79
f 341/90/85 219/83/78 310/87/82
f 13/91/84 311/92/86 145/93/87
f 145/93/87 220/94/88 72/95/89
f 140/96/79 142/97/90 311/92/86
f 311/92/86 71/98/91 220/94/88
f 16/99/92 312/100/93 143/101/94
f 143/101/94 220/94/88 71/98/91
f 144/102/95 344/103/96 312/100/93
f 312/100/93 72/95/89 220/94/88
f 15/104/97 313/105/98 149/106/99
f 149/106/99 221/107/100 74/108/101
f 144/102/95 146/109/102 313/105/98
f 313/105/98 73/110/103 221/107/100
f 18/111/104 314/112/105 147/113/106
f 147/113/106 221/107/100 73/110/103
f 148/114/107 347/115/108 314/112/105
f 314/112/105 74/108/101 221/107/100
f 17/116/109 315/117/110 153/118/111
f 153/118/111 222/119/112 76/120/113
f 148/114/107 150/121/114 315/117/110
f 315/117/110 75/122/115 222/119/112
f 20/123/116 316/124/117 151/125/118
f 151/126/118 222/119/112 75/122/115
f 152/127/119 350/128/120 316/124/117
f 316/129/117 76/120/113 222/119/112
f 19/130/121 317/131/122 157/132/123
f 157/132/123 223/133/124 78/134/125
f 152/127/119 154/135/126 317/131/122
f 317/131/122 77/136/127 223/133/124
f 22/137/128 318/138/129 155/139/130
f 155/139/130 223/133/124 77/136/127
f 156/140/131 353/141/132 318/138/129
f 318/138/129 78/134/125 223/133/124
f 21/142/133 319/143/134 160/144/135
f 160/144/135 224/145/136 80/146/137
f 156/140/131 158/147/138 319/143/134
f 319/143/134 79/148/139 224/145/136
f 4/149/140 320/150/141 159/151/142
f 159/151/142 224/145/136 79/148/139
f 118/20/20 356/152/143 320/150/141
f 320/150/141 80/146/137 224/145/136
f 357/153/144 163/154/145 23/155/146
f 262/156/147 321/157/148 357/153/144
f 321/158/148 82/159/149 163/160/145
f 225/161/150 227/162/151 321/158/148
f 24/163/152 322/164/153 161/165/154
f 24/163/152 226/166/155 322/164/153
f 161/165/154 225/167/150 262/156/147
f 322/164/153 40/168/156 225/167/150
f 1/3/3 117/5/5 162/169/157
f 117/5/5 81/170/158 162/169/157
f 58/4/4 226/171/155 117/5/5
f 323/14/14 82/159/149 227/162/151
f 58/4/4 227/162/151 40/172/156
f 360/173/159 228/174/160 324/175/161
f 24/163/152 230/176/162 81/177/158
f 324/175/161 41/178/163 230/176/162
f 164/179/164 165/180/165 325/181/166
f 325/181/166 83/182/167 229/183/168
f 264/184/169 325/181/166 228/174/160
f 228/174/160 229/183/168 41/178/163
f 121/17/17 83/185/167 166/15/15
f 60/19/19 229/186/168 121/17/17
f 326/27/25 81/187/158 230/188/162
f 60/19/19 230/188/162 41/189/163
f 362/190/170 168/191/171 25/192/172
f 266/193/173 327/194/174 362/190/170
f 327/195/174 84/196/175 168/197/171
f 231/198/176 233/199/177 327/195/174
f 23/155/146 328/200/178 167/201/179
f 163/160/145 232/202/180 328/203/178
f 167/201/179 231/204/176 266/193/173
f 328/203/178 42/205/181 231/198/176
f 2/13/13 232/202/180 82/159/149
f 125/28/26 42/205/181 232/202/180
f 329/39/37 84/196/175 233/199/177
f 62/30/28 233/199/177 42/205/181
f 26/206/182 330/207/183 170/208/184
f 365/209/185 234/210/186 330/207/183
f 170/208/184 236/211/187 85/212/188
f 330/207/183 43/213/189 236/211/187
f 25/192/172 331/214/190 169/215/191
f 168/197/171 235/216/192 331/217/190
f 169/215/191 234/210/186 270/218/193
f 234/219/186 235/216/192 43/220/189
f 5/38/36 235/216/192 84/196/175
f 129/40/38 43/220/189 235/216/192
f 332/51/49 85/221/188 236/222/187
f 64/42/40 236/222/187 43/220/189
f 27/223/194 333/224/195 172/225/196
f 366/226/197 237/227/198 333/224/195
f 172/228/196 239/229/199 86/230/200
f 333/231/195 44/232/201 239/229/199
f 171/233/202 170/208/184 334/234/203
f 334/234/203 85/212/188 238/235/204
f 273/236/205 334/234/203 237/227/198
f 237/227/198 238/235/204 44/237/201
f 7/54/48 238/238/204 85/239/188
f 133/53/50 44/232/201 238/238/204
f 335/66/61 86/230/200 239/229/199
f 66/56/52 239/229/199 44/232/201
f 28/240/206 336/241/207 174/242/208
f 367/243/209 240/244/210 336/241/207
f 174/245/208 242/246/211 87/247/212
f 336/248/207 45/249/213 242/246/211
f 173/250/214 172/225/196 337/251/215
f 337/252/215 86/230/200 241/253/216
f 276/254/217 337/251/215 240/244/210
f 240/255/210 241/253/216 45/249/213
f 9/65/60 241/253/216 86/230/200
f 137/67/62 45/249/213 241/253/216
f 338/78/73 87/247/212 242/246/211
f 68/69/64 242/246/211 45/249/213
f 368/256/218 243/257/219 339/258/220
f 176/259/221 245/260/222 88/261/223
f 339/258/220 46/262/224 245/260/222
f 175/263/225 174/242/208 340/264/226
f 340/265/226 87/247/212 244/266/227
f 279/267/228 340/264/226 243/257/219
f 243/268/219 244/266/227 46/269/224
f 11/77/72 244/266/227 87/247/212
f 141/79/74 46/269/224 244/266/227
f 341/90/85 88/270/223 245/271/222
f 70/81/76 245/271/222 46/269/224
f 369/272/229 178/273/230 29/274/231
f 281/275/232 342/276/233 369/272/229
f 342/277/233 89/278/234 178/279/230
f 246/280/235 248/281/236 342/276/233
f 176/259/221 343/282/237 177/283/238
f 176/259/221 247/284/239 343/282/237
f 177/283/238 246/280/235 281/275/232
f 343/282/237 47/285/240 246/280/235
f 145/93/87 88/286/223 13/91/84
f 72/95/89 247/287/239 145/93/87
f 15/104/97 248/288/236 344/103/96
f 344/103/96 47/289/240 72/95/89
f 371/290/241 180/291/242 30/292/243
f 283/293/244 345/294/245 371/290/241
f 345/295/245 90/296/246 180/297/242
f 249/298/247 251/299/248 345/295/245
f 29/274/231 346/300/249 179/301/250
f 178/279/230 250/302/251 346/303/249
f 179/301/250 249/304/247 283/293/244
f 346/303/249 48/305/252 249/298/247
f 149/106/99 89/278/234 15/104/97
f 74/108/101 250/302/251 149/106/99
f 17/116/109 251/299/248 347/115/108
f 347/115/108 48/305/252 74/108/101
f 374/306/253 182/307/254 31/308/255
f 285/309/256 348/310/257 374/306/253
f 348/310/257 91/311/258 182/307/254
f 252/312/259 254/313/260 348/310/257
f 30/292/243 349/314/261 181/315/262
f 180/297/242 253/316/263 349/317/261
f 181/315/262 252/312/259 285/309/256
f 349/314/261 49/318/264 252/312/259
f 153/118/111 90/296/246 17/116/109
f 76/120/113 253/316/263 153/118/111
f 19/319/121 254/320/260 350/321/120
f 350/321/120 49/322/264 76/120/113
f 32/323/265 351/324/266 184/325/267
f 377/326/268 255/327/269 351/324/266
f 184/328/267 257/329/270 92/330/271
f 255/327/269 257/331/270 351/324/266
f 31/308/255 352/332/272 183/333/273
f 182/307/254 256/334/274 352/332/272
f 183/333/273 255/327/269 287/335/275
f 352/332/272 50/336/276 255/327/269
f 157/132/123 91/337/258 19/130/121
f 78/134/125 256/338/274 157/132/123
f 21/142/133 257/329/270 353/141/132
f 353/141/132 50/339/276 78/134/125
f 189/340/277 354/341/278 165/180/165
f 380/342/279 258/343/280 354/341/278
f 165/344/165 260/345/281 83/185/167
f 354/346/278 51/347/282 260/345/281
f 185/348/283 184/325/267 355/349/284
f 355/350/284 92/330/271 259/351/285
f 290/352/286 355/349/284 258/343/280
f 258/353/280 259/351/285 51/347/282
f 160/144/135 92/330/271 21/142/133
f 80/146/137 259/351/285 160/144/135
f 166/15/15 260/345/281 356/152/143
f 356/152/143 51/347/282 80/146/137
f 23/155/146 93/354/287 357/153/144
f 357/153/144 261/355/288 262/156/147
f 358/356/289 94/357/290 359/358/291
f 93/354/287 359/358/291 261/355/288
f 95/359/292 359/358/291 361/360/293
f 95/359/292 161/165/154 261/355/288
f 95/359/292 360/173/159 24/163/152
f 263/361/294 264/184/169 360/173/159
f 361/360/293 186/362/295 263/361/294
f 95/359/292 361/360/293 263/361/294
f 188/363/296 186/362/295 187/364/297
f 96/365/298 263/361/294 188/363/296
f 164/179/164 263/361/294 96/365/298
f 25/192/172 97/366/299 362/190/170
f 362/190/170 265/367/300 266/193/173
f 363/368/301 190/369/302 364/370/303
f 97/366/299 364/370/303 265/367/300
f 33/371/304 364/370/303 190/369/302
f 358/356/289 265/367/300 364/370/303
f 93/354/287 167/201/179 265/367/300
f 98/372/305 365/209/185 26/206/182
f 365/209/185 267/373/306 270/218/193
f 191/374/307 34/375/308 268/376/309
f 98/372/305 268/376/309 267/373/306
f 269/377/310 267/373/306 268/376/309
f 97/366/299 169/215/191 269/377/310
f 269/377/310 270/218/193 267/373/306
f 100/378/311 366/226/197 27/223/194
f 271/379/312 273/236/205 366/226/197
f 196/380/313 272/381/314 192/382/315
f 192/382/315 271/379/312 100/378/311
f 191/374/307 193/383/316 34/375/308
f 98/372/305 272/381/314 191/374/307
f 171/233/202 271/379/312 98/372/305
f 101/384/317 367/243/209 28/240/206
f 274/385/318 276/254/217 367/243/209
f 199/386/319 275/387/320 194/388/321
f 194/388/321 274/385/318 101/384/317
f 192/382/315 195/389/322 196/380/313
f 100/378/311 275/387/320 192/382/315
f 173/250/214 274/385/318 100/378/311
f 197/390/323 368/256/218 176/259/221
f 277/391/324 279/267/228 368/256/218
f 198/392/325 35/393/326 278/394/327
f 197/390/323 278/394/327 277/391/324
f 194/388/321 35/393/326 199/386/319
f 101/384/317 278/394/327 194/388/321
f 175/263/225 277/391/324 101/384/317
f 29/274/231 102/395/328 369/272/229
f 369/272/229 280/396/329 281/275/232
f 370/397/330 103/398/331 280/396/329
f 198/392/325 103/398/331 35/393/326
f 197/390/323 177/283/238 280/396/329
f 30/292/243 104/399/332 371/290/241
f 371/290/241 282/400/333 283/293/244
f 372/401/334 105/402/335 373/403/336
f 104/399/332 373/403/336 282/400/333
f 36/404/337 373/403/336 105/402/335
f 370/397/330 282/400/333 373/403/336
f 102/395/328 179/301/250 282/400/333
f 31/308/255 106/405/338 374/306/253
f 374/306/253 284/406/339 285/309/256
f 375/407/340 200/408/341 376/409/342
f 106/405/338 376/409/342 284/406/339
f 37/410/343 376/409/342 200/408/341
f 372/401/334 284/406/339 376/409/342
f 104/399/332 181/315/262 284/406/339
f 107/411/344 377/326/268 32/323/265
f 378/412/345 287/335/275 377/326/268
f 38/413/346 378/412/345 201/414/347
f 378/412/345 38/413/346 379/415/348
f 201/414/347 378/412/345 107/411/344
f 106/405/338 379/415/348 375/407/340
f 379/415/348 38/413/346 202/416/349
f 106/405/338 183/333/273 286/417/350
f 96/365/298 380/342/279 189/340/277
f 288/418/351 290/352/286 380/342/279
f 187/364/297 289/419/352 188/363/296
f 188/363/296 288/418/351 96/365/298
f 201/414/347 203/420/353 38/413/346
f 107/411/344 289/419/352 201/414/347
f 185/348/283 288/418/351 107/411/344
f 52/421/354 291/422/355 381/423/356
f 33/371/304 381/423/356 94/357/290
f 382/424/357 292/425/358 291/422/355
f 108/426/359 382/424/357 291/422/355
f 381/423/356 291/422/355 292/425/358
f 94/357/290 383/427/360 186/362/295
f 381/423/356 292/425/358 383/427/360
f 204/428/361 113/429/362 292/425/358
f 187/364/297 383/427/360 55/430/363
f 55/430/363 292/425/358 113/429/362
f 99/431/364 52/421/354 190/369/302
f 205/432/365 382/424/357 108/426/359
f 34/375/308 293/433/366 99/431/364
f 205/432/365 108/426/359 293/433/366
f 109/434/367 205/432/365 293/433/366
f 99/431/364 293/433/366 52/421/354
f 52/421/354 293/433/366 108/426/359
f 196/380/313 207/435/368 193/383/316
f 110/436/369 206/437/370 109/434/367
f 199/386/319 53/438/371 195/389/322
f 208/439/372 206/437/370 110/436/369
f 196/380/313 53/438/371 207/435/368
f 208/439/372 110/436/369 294/440/373
f 111/441/374 208/439/372 294/440/373
f 199/386/319 209/442/375 53/438/371
f 53/438/371 294/440/373 110/436/369
f 54/443/376 111/441/374 384/444/377
f 36/404/337 384/444/377 103/398/331
f 112/445/378 210/446/379 111/441/374
f 35/393/326 384/444/377 209/442/375
f 212/447/380 112/445/378 54/443/376
f 37/410/343 54/443/376 105/402/335
f 211/448/381 210/446/379 112/445/378
f 202/416/349 212/447/380 200/408/341
f 211/448/381 112/445/378 295/449/382
f 212/447/380 295/449/382 112/445/378
f 385/450/383 295/449/382 296/451/384
f 113/429/362 385/450/383 296/451/384
f 202/416/349 296/451/384 212/447/380
f 212/447/380 296/451/384 295/449/382
f 187/364/297 55/430/363 203/420/353
f 204/428/361 385/450/383 113/429/362
f 1/3/3 297/2/2 117/5/5
f 297/2/2 213/7/7 58/4/4
f 56/1/1 114/6/6 297/2/2
f 114/6/6 57/12/12 213/7/7
f 116/8/8 298/11/11 115/9/9
f 298/11/11 213/7/7 57/12/12
f 2/13/13 323/14/14 298/11/11
f 323/14/14 58/4/4 213/7/7
f 166/15/15 118/20/20 299/16/16
f 121/17/17 299/16/16 214/18/18
f 118/20/20 4/149/140 119/21/21
f 299/16/16 119/21/21 59/22/22
f 120/25/24 300/24/23 214/18/18
f 300/24/23 326/27/25 60/19/19
f 56/1/1 1/3/3 300/452/23
f 116/8/8 301/29/27 125/28/26
f 301/29/27 215/32/30 62/30/28
f 3/10/10 122/31/29 301/29/27
f 122/31/29 61/37/35 215/32/30
f 124/33/31 302/36/34 123/34/32
f 302/36/34 215/32/30 61/37/35
f 5/38/36 329/39/37 302/36/34
f 329/39/37 62/30/28 215/32/30
f 124/33/31 303/41/39 129/40/38
f 303/41/39 216/44/42 64/42/40
f 6/35/33 126/43/41 303/41/39
f 126/43/41 63/49/47 216/44/42
f 128/45/43 304/48/46 127/46/44
f 304/48/46 216/44/42 63/49/47
f 7/50/48 332/51/49 304/48/46
f 332/51/49 64/42/40 216/44/42
f 128/52/43 305/55/51 133/53/50
f 305/55/51 217/59/54 66/56/52
f 8/57/45 130/58/53 305/55/51
f 130/58/53 65/64/59 217/59/54
f 132/60/55 306/63/58 131/61/56
f 306/63/58 217/59/54 65/64/59
f 9/65/60 335/66/61 306/63/58
f 335/66/61 66/56/52 217/59/54
f 132/60/55 307/68/63 137/67/62
f 307/68/63 218/71/66 68/69/64
f 10/62/57 134/70/65 307/68/63
f 134/70/65 67/76/71 218/71/66
f 136/72/67 308/75/70 135/73/68
f 308/75/70 218/71/66 67/76/71
f 11/77/72 338/78/73 308/75/70
f 338/78/73 68/69/64 218/71/66
f 136/72/67 309/80/75 141/79/74
f 309/80/75 219/83/78 70/81/76
f 12/74/69 138/82/77 309/80/75
f 138/82/77 69/88/83 219/83/78
f 140/84/79 310/87/82 139/85/80
f 310/87/82 219/83/78 69/88/83
f 13/89/84 341/90/85 310/87/82
f 341/90/85 70/81/76 219/83/78
f 13/91/84 140/96/79 311/92/86
f 145/93/87 311/92/86 220/94/88
f 140/96/79 14/453/81 142/97/90
f 311/92/86 142/97/90 71/98/91
f 16/99/92 144/102/95 312/100/93
f 143/101/94 312/100/93 220/94/88
f 144/102/95 15/104/97 344/103/96
f 312/100/93 344/103/96 72/95/89
f 15/104/97 144/102/95 313/105/98
f 149/106/99 313/105/98 221/107/100
f 144/102/95 16/99/92 146/109/102
f 313/105/98 146/109/102 73/110/103
f 18/111/104 148/114/107 314/112/105
f 147/113/106 314/112/105 221/107/100
f 148/114/107 17/116/109 347/115/108
f 314/112/105 347/115/108 74/108/101
f 17/116/109 148/114/107 315/117/110
f 153/118/111 315/117/110 222/119/112
f 148/114/107 18/111/104 150/121/114
f 315/117/110 150/121/114 75/122/115
f 20/123/116 152/127/119 316/124/117
f 151/126/118 316/129/117 222/119/112
f 152/127/119 19/130/121 350/128/120
f 316/129/117 350/321/120 76/120/113
f 19/130/121 152/127/119 317/131/122
f 157/132/123 317/131/122 223/133/124
f 152/127/119 20/123/116 154/135/126
f 317/131/122 154/135/126 77/136/127
f 22/137/128 156/140/131 318/138/129
f 155/139/130 318/138/129 223/133/124
f 156/140/131 21/142/133 353/141/132
f 318/138/129 353/141/132 78/134/125
f 21/142/133 156/140/131 319/143/134
f 160/144/135 319/143/134 224/145/136
f 156/140/131 22/137/128 158/147/138
f 319/143/134 158/147/138 79/148/139
f 4/149/140 118/20/20 320/150/141
f 159/151/142 320/150/141 224/145/136
f 118/20/20 166/15/15 356/152/143
f 320/150/141 356/152/143 80/146/137
f 357/153/144 321/157/148 163/154/145
f 262/156/147 225/167/150 321/157/148
f 321/158/148 227/162/151 82/159/149
f 225/161/150 40/172/156 227/162/151
f 24/163/152 81/177/158 226/166/155
f 161/165/154 322/164/153 225/167/150
f 322/164/153 226/166/155 40/168/156
f 117/5/5 226/171/155 81/170/158
f 58/4/4 40/172/156 226/171/155
f 323/14/14 2/13/13 82/159/149
f 58/4/4 323/14/14 227/162/151
f 24/163/152 360/173/159 324/175/161
f 360/173/159 264/184/169 228/174/160
f 24/163/152 324/175/161 230/176/162
f 324/175/161 228/174/160 41/178/163
f 164/179/164 189/340/277 165/180/165
f 325/181/166 165/180/165 83/182/167
f 264/184/169 164/179/164 325/181/166
f 228/174/160 325/181/166 229/183/168
f 121/17/17 229/186/168 83/185/167
f 60/19/19 41/189/163 229/186/168
f 1/3/3 162/169/157 326/454/25
f 326/27/25 162/455/157 81/187/158
f 60/19/19 326/27/25 230/188/162
f 362/190/170 327/194/174 168/191/171
f 266/193/173 231/204/176 327/194/174
f 327/195/174 233/199/177 84/196/175
f 231/198/176 42/205/181 233/199/177
f 23/155/146 163/154/145 328/200/178
f 163/160/145 82/159/149 232/202/180
f 167/201/179 328/200/178 231/204/176
f 328/203/178 232/202/180 42/205/181
f 2/13/13 125/28/26 232/202/180
f 125/28/26 62/30/28 42/205/181
f 329/39/37 5/38/36 84/196/175
f 62/30/28 329/39/37 233/199/177
f 26/206/182 365/209/185 330/207/183
f 365/209/185 270/218/193 234/210/186
f 170/208/184 330/207/183 236/211/187
f 330/207/183 234/210/186 43/213/189
f 25/192/172 168/191/171 331/214/190
f 168/197/171 84/196/175 235/216/192
f 169/215/191 331/214/190 234/210/186
f 234/219/186 331/217/190 235/216/192
f 5/38/36 129/40/38 235/216/192
f 129/40/38 64/42/40 43/220/189
f 332/51/49 7/50/48 85/221/188
f 64/42/40 332/51/49 236/222/187
f 27/223/194 366/226/197 333/224/195
f 366/226/197 273/236/205 237/227/198
f 172/228/196 333/231/195 239/229/199
f 333/231/195 237/456/198 44/232/201
f 171/233/202 26/206/182 170/208/184
f 334/234/203 170/208/184 85/212/188
f 273/236/205 171/233/202 334/234/203
f 237/227/198 334/234/203 238/235/204
f 7/54/48 133/53/50 238/238/204
f 133/53/50 66/56/52 44/232/201
f 335/66/61 9/65/60 86/230/200
f 66/56/52 335/66/61 239/229/199
f 28/240/206 367/243/209 336/241/207
f 367/243/209 276/254/217 240/244/210
f 174/245/208 336/248/207 242/246/211
f 336/248/207 240/255/210 45/249/213
f 173/250/214 27/223/194 172/225/196
f 337/252/215 172/228/196 86/230/200
f 276/254/217 173/250/214 337/251/215
f 240/255/210 337/252/215 241/253/216
f 9/65/60 137/67/62 241/253/216
f 137/67/62 68/69/64 45/249/213
f 338/78/73 11/77/72 87/247/212
f 68/69/64 338/78/73 242/246/211
f 176/259/221 368/256/218 339/258/220
f 368/256/218 279/267/228 243/257/219
f 176/259/221 339/258/220 245/260/222
f 339/258/220 243/257/219 46/262/224
f 175/263/225 28/240/206 174/242/208
f 340/265/226 174/245/208 87/247/212
f 279/267/228 175/263/225 340/264/226
f 243/268/219 340/265/226 244/266/227
f 11/77/72 141/79/74 244/266/227
f 141/79/74 70/81/76 46/269/224
f 341/90/85 13/89/84 88/270/223
f 70/81/76 341/90/85 245/271/222
f 369/272/229 342/276/233 178/273/230
f 281/275/232 246/280/235 342/276/233
f 342/277/233 248/288/236 89/278/234
f 246/280/235 47/285/240 248/281/236
f 176/259/221 88/261/223 247/284/239
f 177/283/238 343/282/237 246/280/235
f 343/282/237 247/284/239 47/285/240
f 145/93/87 247/287/239 88/286/223
f 72/95/89 47/289/240 247/287/239
f 15/104/97 89/278/234 248/288/236
f 344/103/96 248/288/236 47/289/240
f 371/290/241 345/294/245 180/291/242
f 283/293/244 249/304/247 345/294/245
f 345/295/245 251/299/248 90/296/246
f 249/298/247 48/305/252 251/299/248
f 29/274/231 178/273/230 346/300/249
f 178/279/230 89/278/234 250/302/251
f 179/301/250 346/300/249 249/304/247
f 346/303/249 250/302/251 48/305/252
f 149/106/99 250/302/251 89/278/234
f 74/108/101 48/305/252 250/302/251
f 17/116/109 90/296/246 251/299/248
f 347/115/108 251/299/248 48/305/252
f 374/306/253 348/310/257 182/307/254
f 285/309/256 252/312/259 348/310/257
f 348/310/257 254/313/260 91/311/258
f 252/312/259 49/318/264 254/313/260
f 30/292/243 180/291/242 349/314/261
f 180/297/242 90/296/246 253/316/263
f 181/315/262 349/314/261 252/312/259
f 349/314/261 253/457/263 49/318/264
f 153/118/111 253/316/263 90/296/246
f 76/120/113 49/322/264 253/316/263
f 19/319/121 91/458/258 254/320/260
f 350/321/120 254/320/260 49/322/264
f 32/323/265 377/326/268 351/324/266
f 377/326/268 287/335/275 255/327/269
f 184/328/267 351/459/266 257/329/270
f 255/327/269 50/336/276 257/331/270
f 31/308/255 182/307/254 352/332/272
f 182/307/254 91/311/258 256/334/274
f 183/333/273 352/332/272 255/327/269
f 352/332/272 256/334/274 50/336/276
f 157/132/123 256/338/274 91/337/258
f 78/134/125 50/339/276 256/338/274
f 21/142/133 92/330/271 257/329/270
f 353/141/132 257/329/270 50/339/276
f 189/340/277 380/342/279 354/341/278
f 380/342/279 290/352/286 258/343/280
f 165/344/165 354/346/278 260/345/281
f 354/346/278 258/353/280 51/347/282
f 185/348/283 32/323/265 184/325/267
f 355/350/284 184/328/267 92/330/271
f 290/352/286 185/348/283 355/349/284
f 258/353/280 355/350/284 259/351/285
f 160/144/135 259/351/285 92/330/271
f 80/146/137 51/347/282 259/351/285
f 166/15/15 83/185/167 260/345/281
f 356/152/143 260/345/281 51/347/282
f 357/153/144 93/354/287 261/355/288
f 358/356/289 33/371/304 94/357/290
f 93/354/287 358/356/289 359/358/291
f 361/360/293 359/358/291 94/357/290
f 95/359/292 261/355/288 359/358/291
f 95/359/292 24/163/152 161/165/154
f 261/355/288 161/165/154 262/156/147
f 95/359/292 263/361/294 360/173/159
f 361/360/293 94/357/290 186/362/295
f 188/363/296 263/361/294 186/362/295
f 189/340/277 164/179/164 96/365/298
f 164/179/164 264/184/169 263/361/294
f 362/190/170 97/366/299 265/367/300
f 363/368/301 99/431/364 190/369/302
f 97/366/299 363/368/301 364/370/303
f 33/371/304 358/356/289 364/370/303
f 358/356/289 93/354/287 265/367/300
f 93/354/287 23/155/146 167/201/179
f 265/367/300 167/201/179 266/193/173
f 98/372/305 267/373/306 365/209/185
f 268/376/309 34/375/308 99/431/364
f 98/372/305 191/374/307 268/376/309
f 99/431/364 363/368/301 269/377/310
f 363/368/301 97/366/299 269/377/310
f 269/377/310 268/376/309 99/431/364
f 97/366/299 25/192/172 169/215/191
f 269/377/310 169/215/191 270/218/193
f 100/378/311 271/379/312 366/226/197
f 196/380/313 193/383/316 272/381/314
f 192/382/315 272/381/314 271/379/312
f 191/374/307 272/381/314 193/383/316
f 98/372/305 271/379/312 272/381/314
f 26/206/182 171/233/202 98/372/305
f 171/233/202 273/236/205 271/379/312
f 101/384/317 274/385/318 367/243/209
f 199/386/319 195/389/322 275/387/320
f 194/388/321 275/387/320 274/385/318
f 192/382/315 275/387/320 195/389/322
f 100/378/311 274/385/318 275/387/320
f 27/223/194 173/250/214 100/378/311
f 173/250/214 276/254/217 274/385/318
f 197/390/323 277/391/324 368/256/218
f 197/390/323 198/392/325 278/394/327
f 194/388/321 278/394/327 35/393/326
f 101/384/317 277/391/324 278/394/327
f 28/240/206 175/263/225 101/384/317
f 175/263/225 279/267/228 277/391/324
f 369/272/229 102/395/328 280/396/329
f 370/397/330 36/404/337 103/398/331
f 102/395/328 370/397/330 280/396/329
f 197/390/323 280/396/329 198/392/325
f 198/392/325 280/396/329 103/398/331
f 197/390/323 176/259/221 177/283/238
f 280/396/329 177/283/238 281/275/232
f 371/290/241 104/399/332 282/400/333
f 372/401/334 37/410/343 105/402/335
f 104/399/332 372/401/334 373/403/336
f 36/404/337 370/397/330 373/403/336
f 370/397/330 102/395/328 282/400/333
f 102/395/328 29/274/231 179/301/250
f 282/400/333 179/301/250 283/293/244
f 374/306/253 106/405/338 284/406/339
f 375/407/340 202/416/349 200/408/341
f 106/405/338 375/407/340 376/409/342
f 37/410/343 372/401/334 376/409/342
f 372/401/334 104/399/332 284/406/339
f 104/399/332 30/292/243 181/315/262
f 284/406/339 181/315/262 285/309/256
f 107/411/344 378/412/345 377/326/268
f 378/412/345 286/417/350 287/335/275
f 378/412/345 379/415/348 286/417/350
f 375/407/340 379/415/348 202/416/349
f 106/405/338 286/417/350 379/415/348
f 106/405/338 31/308/255 183/333/273
f 183/333/273 287/335/275 286/417/350
f 96/365/298 288/418/351 380/342/279
f 187/364/297 203/420/353 289/419/352
f 188/363/296 289/419/352 288/418/351
f 201/414/347 289/419/352 203/420/353
f 107/411/344 288/418/351 289/419/352
f 32/323/265 185/348/283 107/411/344
f 185/348/283 290/352/286 288/418/351
f 33/371/304 52/421/354 381/423/356
f 52/421/354 108/426/359 291/422/355
f 382/424/357 39/460/385 204/428/361
f 382/424/357 204/428/361 292/425/358
f 94/357/290 381/423/356 383/427/360
f 187/364/297 186/362/295 383/427/360
f 55/430/363 383/427/360 292/425/358
f 205/432/365 39/460/385 382/424/357
f 33/371/304 190/369/302 52/421/354
f 34/375/308 207/435/368 293/433/366
f 207/435/368 109/434/367 293/433/366
f 206/437/370 39/460/385 205/432/365
f 109/434/367 206/437/370 205/432/365
f 207/435/368 110/436/369 109/434/367
f 34/375/308 193/383/316 207/435/368
f 208/439/372 39/460/385 206/437/370
f 196/380/313 195/389/322 53/438/371
f 207/435/368 53/438/371 110/436/369
f 209/442/375 111/441/374 294/440/373
f 210/446/379 39/460/385 208/439/372
f 111/441/374 210/446/379 208/439/372
f 199/386/319 35/393/326 209/442/375
f 53/438/371 209/442/375 294/440/373
f 36/404/337 54/443/376 384/444/377
f 54/443/376 112/445/378 111/441/374
f 35/393/326 103/398/331 384/444/377
f 209/442/375 384/444/377 111/441/374
f 37/410/343 212/447/380 54/443/376
f 211/448/381 39/460/385 210/446/379
f 36/404/337 105/402/335 54/443/376
f 37/410/343 200/408/341 212/447/380
f 38/413/346 55/430/363 296/451/384
f 55/430/363 113/429/362 296/451/384
f 385/450/383 39/460/385 211/448/381
f 385/450/383 211/448/381 295/449/382
f 202/416/349 38/413/346 296/451/384
f 204/428/361 39/460/385 385/450/383
f 38/413/346 203/420/353 55/430/363
