# Blender 4.0.0
# www.blender.org
o sideL_button_cancel
v -0.03573350 -0.10489050 0.01508200
v -0.03740450 -0.10489050 0.01382200
v -0.03871250 -0.10489050 0.01217000
v -0.03953350 -0.10489050 0.01023100
v -0.03983750 -0.10489050 0.00816000
v -0.03177350 -0.10489050 0.01609500
v -0.03382050 -0.10489050 0.01585000
v -0.02776250 -0.10489050 0.01497000
v -0.02970050 -0.10489050 0.01579100
v -0.02485050 -0.10489050 0.01199100
v -0.02611150 -0.10489050 0.01366200
v -0.02383750 -0.10489050 0.00802900
v -0.02408250 -0.10489050 0.01007700
v -0.02496250 -0.10489050 0.00401800
v -0.02414050 -0.10489050 0.00595800
v -0.02794150 -0.10489050 0.00110600
v -0.02626950 -0.10489050 0.00236700
v -0.03190350 -0.10489050 0.00009500
v -0.02985450 -0.10489050 0.00034000
v -0.03591450 -0.10489050 0.00121900
v -0.03397450 -0.10489050 0.00039800
v -0.03882450 -0.10489050 0.00419900
v -0.03756450 -0.10489050 0.00252700
v -0.03959250 -0.10489050 0.00611400
v -0.03183850 -0.11080350 0.00809500
v -0.03740450 -0.11061450 0.01382200
v -0.03573350 -0.11061450 0.01508400
v -0.03871250 -0.11061450 0.01217000
v -0.03863650 -0.11075550 0.01212600
v -0.03734050 -0.11075550 0.01375800
v -0.03568950 -0.11075550 0.01500500
v -0.03953350 -0.11061450 0.01023100
v -0.03983750 -0.11061450 0.00816000
v -0.03974750 -0.11075550 0.00816000
v -0.03944650 -0.11075550 0.01020600
v -0.03382050 -0.11061450 0.01585000
v -0.03177350 -0.11061450 0.01609500
v -0.03379650 -0.11075550 0.01576200
v -0.03177450 -0.11075550 0.01600500
v -0.02970050 -0.11061450 0.01579100
v -0.02776250 -0.11061450 0.01497000
v -0.02972650 -0.11075550 0.01570500
v -0.02780750 -0.11075550 0.01489200
v -0.02611150 -0.11061450 0.01366200
v -0.02485050 -0.11061450 0.01199100
v -0.02617350 -0.11075550 0.01359800
v -0.02492750 -0.11075550 0.01194700
v -0.02408250 -0.11061450 0.01007700
v -0.02383750 -0.11061450 0.00802900
v -0.02417050 -0.11075550 0.01005300
v -0.02392750 -0.11075550 0.00803200
v -0.02414050 -0.11061450 0.00595800
v -0.02496250 -0.11061450 0.00401800
v -0.02422850 -0.11075550 0.00598200
v -0.02504050 -0.11075550 0.00406300
v -0.02626950 -0.11061450 0.00236700
v -0.02794150 -0.11061450 0.00110600
v -0.02633150 -0.11075550 0.00243100
v -0.02798550 -0.11075550 0.00118500
v -0.02985450 -0.11061450 0.00034000
v -0.03190350 -0.11061450 0.00009500
v -0.02987650 -0.11075550 0.00042800
v -0.03190050 -0.11075550 0.00018500
v -0.03397450 -0.11061450 0.00039800
v -0.03591450 -0.11061450 0.00121900
v -0.03395050 -0.11075550 0.00048600
v -0.03586850 -0.11075550 0.00129700
v -0.03756450 -0.11061450 0.00252700
v -0.03882450 -0.11061450 0.00419900
v -0.03750050 -0.11075550 0.00259100
v -0.03874750 -0.11075550 0.00424300
v -0.03959250 -0.11061450 0.00611400
v -0.03950450 -0.11075550 0.00613600
v -0.03715250 -0.11080350 0.01356400
v -0.03840250 -0.11080350 0.01198700
v -0.03555650 -0.11080350 0.01476800
v -0.03918650 -0.11080350 0.01013400
v -0.03947550 -0.11080350 0.00815500
v -0.03373050 -0.11080350 0.01550100
v -0.03177650 -0.11080350 0.01573300
v -0.02979850 -0.11080350 0.01544400
v -0.02794650 -0.11080350 0.01466000
v -0.02636750 -0.11080350 0.01341200
v -0.02516350 -0.11080350 0.01181400
v -0.02443150 -0.11080350 0.00998800
v -0.02419650 -0.11080350 0.00803400
v -0.02448850 -0.11080350 0.00605600
v -0.02527450 -0.11080350 0.00420200
v -0.02652250 -0.11080350 0.00262500
v -0.02811750 -0.11080350 0.00142100
v -0.02994450 -0.11080350 0.00069000
v -0.03189750 -0.11080350 0.00045400
v -0.03387850 -0.11080350 0.00074500
v -0.03572950 -0.11080350 0.00152900
v -0.03730850 -0.11080350 0.00278000
v -0.03851150 -0.11080350 0.00437500
v -0.03924350 -0.11080350 0.00620300
vn -0.6994 -0.0000 0.7148
vn -0.8602 -0.0000 0.5100
vn -0.6933 -0.1268 0.7094
vn -0.8525 -0.1229 0.5080
vn -0.4917 0.0002 0.8708
vn -0.4875 -0.1248 0.8642
vn -0.9629 -0.0000 0.2698
vn -0.9999 -0.0000 0.0138
vn -0.9552 -0.1270 0.2674
vn -0.9919 -0.1256 0.0164
vn -0.2478 -0.0000 0.9688
vn -0.2456 -0.1265 0.9611
vn 0.0139 -0.0000 0.9999
vn 0.0127 -0.1262 0.9919
vn 0.2697 -0.0000 0.9629
vn 0.2679 -0.1257 0.9552
vn 0.5102 -0.0000 0.8600
vn 0.5062 -0.1248 0.8534
vn 0.7154 -0.0000 0.6987
vn 0.7094 -0.1250 0.6937
vn 0.8705 -0.0000 0.4922
vn 0.8639 -0.1245 0.4880
vn 0.9688 -0.0000 0.2478
vn 0.9609 -0.1272 0.2459
vn 0.9999 -0.0000 -0.0139
vn 0.9920 -0.1257 -0.0135
vn 0.9630 -0.0000 -0.2696
vn 0.9553 -0.1264 -0.2673
vn 0.8601 -0.0000 -0.5100
vn 0.8534 -0.1258 -0.5058
vn 0.6987 -0.0000 -0.7154
vn 0.6932 -0.1253 -0.7098
vn 0.4914 -0.0000 -0.8710
vn 0.4874 -0.1258 -0.8641
vn 0.2474 -0.0000 -0.9689
vn 0.2454 -0.1263 -0.9612
vn -0.0132 -0.0000 -0.9999
vn -0.0135 -0.1257 -0.9920
vn -0.2696 -0.0000 -0.9630
vn -0.2673 -0.1265 -0.9553
vn -0.5101 -0.0000 -0.8601
vn -0.5060 -0.1248 -0.8535
vn -0.7156 -0.0000 -0.6985
vn -0.7098 -0.1261 -0.6931
vn -0.8706 -0.0000 -0.4919
vn -0.8641 -0.1252 -0.4875
vn -0.9688 -0.0000 -0.2477
vn -0.9611 -0.1262 -0.2457
vn -0.0000 -1.0000 -0.0000
vn 0.0254 -0.9987 -0.0445
vn 0.0352 -0.9987 -0.0366
vn 0.0440 -0.9987 -0.0261
vn 0.0493 -0.9987 -0.0134
vn 0.0513 -0.9987 0.0001
vn -0.0004 -0.9987 -0.0513
vn 0.0129 -0.9987 -0.0501
vn -0.0259 -0.9987 -0.0442
vn -0.0133 -0.9987 -0.0489
vn -0.0444 -0.9987 -0.0253
vn -0.0371 -0.9987 -0.0357
vn -0.0517 -0.9987 0.0005
vn -0.0500 -0.9987 -0.0128
vn -0.0441 -0.9987 0.0259
vn -0.0491 -0.9987 0.0134
vn -0.0253 -0.9987 0.0445
vn -0.0351 -0.9987 0.0364
vn 0.0005 -0.9987 0.0518
vn -0.0127 -0.9987 0.0496
vn 0.0261 -0.9987 0.0445
vn 0.0134 -0.9987 0.0493
vn 0.0447 -0.9987 0.0254
vn 0.0368 -0.9987 0.0355
vn 0.0496 -0.9987 0.0127
vn -0.5030 -0.8110 0.2987
vn -0.4061 -0.8138 0.4158
vn -0.2866 -0.8132 0.5065
vn -0.5583 -0.8148 0.1563
vn -0.5822 -0.8130 0.0086
vn -0.1434 -0.8140 0.5628
vn 0.0084 -0.8128 0.5824
vn 0.1567 -0.8135 0.5601
vn 0.2973 -0.8128 0.5010
vn 0.4176 -0.8121 0.4075
vn 0.5093 -0.8110 0.2880
vn 0.5640 -0.8132 0.1438
vn 0.5828 -0.8126 -0.0080
vn 0.5587 -0.8144 -0.1569
vn 0.5001 -0.8136 -0.2965
vn 0.4066 -0.8135 -0.4158
vn 0.2863 -0.8136 -0.5061
vn 0.1439 -0.8138 -0.5630
vn -0.0080 -0.8129 -0.5824
vn -0.1570 -0.8140 -0.5593
vn -0.2973 -0.8128 -0.5010
vn -0.4163 -0.8133 -0.4065
vn -0.5092 -0.8111 -0.2878
vn -0.5637 -0.8133 -0.1442
vt 0.867485 0.860564
vt 0.846354 0.849822
vt 0.879822 0.824199
vt 0.867769 0.817927
vt 0.890530 0.865398
vt 0.893004 0.827127
vt 0.828784 0.833938
vt 0.816040 0.814147
vt 0.857797 0.808723
vt 0.850560 0.797326
vt 0.913689 0.864174
vt 0.906288 0.826543
vt 0.935768 0.857092
vt 0.918983 0.822564
vt 0.955588 0.844344
vt 0.930396 0.815319
vt 0.971482 0.826771
vt 0.939601 0.805344
vt 0.982229 0.805649
vt 0.945873 0.793299
vt 0.987075 0.782581
vt 0.948815 0.780115
vt 0.985853 0.759406
vt 0.948233 0.766818
vt 0.978751 0.737298
vt 0.944238 0.754111
vt 0.965998 0.717493
vt 0.936999 0.742708
vt 0.948396 0.701593
vt 0.927014 0.733493
vt 0.927264 0.690864
vt 0.914959 0.727234
vt 0.904194 0.686039
vt 0.901773 0.724304
vt 0.881037 0.687278
vt 0.888486 0.724901
vt 0.858944 0.694386
vt 0.875784 0.728893
vt 0.839153 0.707135
vt 0.864384 0.736132
vt 0.823262 0.724727
vt 0.855173 0.746112
vt 0.812534 0.745849
vt 0.848908 0.758157
vt 0.807704 0.768898
vt 0.845973 0.771334
vt 0.808941 0.792077
vt 0.846572 0.784638
vt 0.134516 0.895201
vt 0.110769 0.937291
vt 0.100717 0.929620
vt 0.092862 0.919601
vt 0.087963 0.907851
vt 0.086199 0.895328
vt 0.134649 0.943520
vt 0.122297 0.941986
vt 0.158911 0.936857
vt 0.147173 0.941756
vt 0.176613 0.918949
vt 0.168941 0.929015
vt 0.182854 0.895071
vt 0.181308 0.907422
vt 0.176168 0.870796
vt 0.181078 0.882546
vt 0.158272 0.853107
vt 0.168325 0.860777
vt 0.134393 0.846865
vt 0.146743 0.848423
vt 0.110118 0.853539
vt 0.121857 0.848640
vt 0.092428 0.871448
vt 0.100087 0.861394
vt 0.087732 0.882987
vt 0.868789 0.816486
vt 0.880446 0.822512
vt 0.893163 0.825366
vt 0.859161 0.807568
vt 0.852168 0.796574
vt 0.905993 0.824790
vt 0.918230 0.820944
vt 0.929240 0.813962
vt 0.938154 0.804323
vt 0.944203 0.792669
vt 0.947047 0.779947
vt 0.946470 0.767118
vt 0.942636 0.754874
vt 0.935630 0.743854
vt 0.925990 0.734951
vt 0.914351 0.728912
vt 0.901618 0.726076
vt 0.888798 0.726650
vt 0.876546 0.730496
vt 0.865531 0.737500
vt 0.856620 0.747132
vt 0.850583 0.758780
vt 0.847753 0.771498
vt 0.848321 0.784324
vt 0.881061 0.820819
vt 0.893320 0.823574
vt 0.869826 0.815006
vt 0.860539 0.806418
vt 0.853794 0.795810
vt 0.905681 0.823036
vt 0.917478 0.819315
vt 0.928089 0.812573
vt 0.936678 0.803296
vt 0.942512 0.792066
vt 0.945256 0.779790
vt 0.944718 0.767431
vt 0.941016 0.755622
vt 0.934256 0.745015
vt 0.924954 0.736430
vt 0.913727 0.730610
vt 0.901462 0.727867
vt 0.889105 0.728417
vt 0.877296 0.732115
vt 0.866680 0.738877
vt 0.858096 0.748158
vt 0.852268 0.759398
vt 0.849542 0.771654
vt 0.850078 0.784022
s 1
f 2/1/1 3/2/2 26/3/3
f 26/3/3 3/2/2 28/4/4
f 1/5/5 2/1/1 27/6/6
f 27/6/6 2/1/1 26/3/3
f 4/7/7 5/8/8 32/9/9
f 32/9/9 5/8/8 33/10/10
f 3/2/2 4/7/7 28/4/4
f 28/4/4 4/7/7 32/9/9
f 7/11/11 1/5/5 36/12/12
f 36/12/12 1/5/5 27/6/6
f 6/13/13 7/11/11 37/14/14
f 37/14/14 7/11/11 36/12/12
f 9/15/15 6/13/13 40/16/16
f 40/16/16 6/13/13 37/14/14
f 8/17/17 9/15/15 41/18/18
f 41/18/18 9/15/15 40/16/16
f 11/19/19 8/17/17 44/20/20
f 44/20/20 8/17/17 41/18/18
f 10/21/21 11/19/19 45/22/22
f 45/22/22 11/19/19 44/20/20
f 13/23/23 10/21/21 48/24/24
f 48/24/24 10/21/21 45/22/22
f 12/25/25 13/23/23 49/26/26
f 49/26/26 13/23/23 48/24/24
f 15/27/27 12/25/25 52/28/28
f 52/28/28 12/25/25 49/26/26
f 14/29/29 15/27/27 53/30/30
f 53/30/30 15/27/27 52/28/28
f 17/31/31 14/29/29 56/32/32
f 56/32/32 14/29/29 53/30/30
f 16/33/33 17/31/31 57/34/34
f 57/34/34 17/31/31 56/32/32
f 19/35/35 16/33/33 60/36/36
f 60/36/36 16/33/33 57/34/34
f 18/37/37 19/35/35 61/38/38
f 61/38/38 19/35/35 60/36/36
f 21/39/39 18/37/37 64/40/40
f 64/40/40 18/37/37 61/38/38
f 20/41/41 21/39/39 65/42/42
f 65/42/42 21/39/39 64/40/40
f 23/43/43 20/41/41 68/44/44
f 68/44/44 20/41/41 65/42/42
f 22/45/45 23/43/43 69/46/46
f 69/46/46 23/43/43 68/44/44
f 24/47/47 22/45/45 72/48/48
f 72/48/48 22/45/45 69/46/46
f 5/8/8 24/47/47 33/10/10
f 33/10/10 24/47/47 72/48/48
f 25/49/49 76/50/50 74/51/51
f 25/49/49 74/51/51 75/52/52
f 25/49/49 75/52/52 77/53/53
f 25/49/49 77/53/53 78/54/54
f 25/49/49 80/55/55 79/56/56
f 25/49/49 79/56/56 76/50/50
f 25/49/49 82/57/57 81/58/58
f 25/49/49 81/58/58 80/55/55
f 25/49/49 84/59/59 83/60/60
f 25/49/49 83/60/60 82/57/57
f 25/49/49 86/61/61 85/62/62
f 25/49/49 85/62/62 84/59/59
f 25/49/49 88/63/63 87/64/64
f 25/49/49 87/64/64 86/61/61
f 25/49/49 90/65/65 89/66/66
f 25/49/49 89/66/66 88/63/63
f 25/49/49 92/67/67 91/68/68
f 25/49/49 91/68/68 90/65/65
f 25/49/49 94/69/69 93/70/70
f 25/49/49 93/70/70 92/67/67
f 25/49/49 96/71/71 95/72/72
f 25/49/49 95/72/72 94/69/69
f 25/49/49 78/54/54 97/73/73
f 25/49/49 97/73/73 96/71/71
f 28/4/4 29/74/74 26/3/3
f 26/3/3 29/74/74 30/75/75
f 27/6/6 26/3/3 31/76/76
f 31/76/76 26/3/3 30/75/75
f 32/9/9 33/10/10 35/77/77
f 35/77/77 33/10/10 34/78/78
f 28/4/4 32/9/9 29/74/74
f 29/74/74 32/9/9 35/77/77
f 27/6/6 31/76/76 36/12/12
f 36/12/12 31/76/76 38/79/79
f 36/12/12 38/79/79 37/14/14
f 37/14/14 38/79/79 39/80/80
f 40/16/16 37/14/14 42/81/81
f 42/81/81 37/14/14 39/80/80
f 41/18/18 40/16/16 43/82/82
f 43/82/82 40/16/16 42/81/81
f 41/18/18 43/82/82 44/20/20
f 44/20/20 43/82/82 46/83/83
f 44/20/20 46/83/83 45/22/22
f 45/22/22 46/83/83 47/84/84
f 45/22/22 47/84/84 48/24/24
f 48/24/24 47/84/84 50/85/85
f 49/26/26 48/24/24 51/86/86
f 51/86/86 48/24/24 50/85/85
f 52/28/28 49/26/26 54/87/87
f 54/87/87 49/26/26 51/86/86
f 53/30/30 52/28/28 55/88/88
f 55/88/88 52/28/28 54/87/87
f 56/32/32 53/30/30 58/89/89
f 58/89/89 53/30/30 55/88/88
f 57/34/34 56/32/32 59/90/90
f 59/90/90 56/32/32 58/89/89
f 60/36/36 57/34/34 62/91/91
f 62/91/91 57/34/34 59/90/90
f 61/38/38 60/36/36 63/92/92
f 63/92/92 60/36/36 62/91/91
f 64/40/40 61/38/38 66/93/93
f 66/93/93 61/38/38 63/92/92
f 65/42/42 64/40/40 67/94/94
f 67/94/94 64/40/40 66/93/93
f 65/42/42 67/94/94 68/44/44
f 68/44/44 67/94/94 70/95/95
f 68/44/44 70/95/95 69/46/46
f 69/46/46 70/95/95 71/96/96
f 72/48/48 69/46/46 73/97/97
f 73/97/97 69/46/46 71/96/96
f 33/10/10 72/48/48 34/78/78
f 34/78/78 72/48/48 73/97/97
f 74/98/51 76/99/50 30/75/75
f 30/75/75 76/99/50 31/76/76
f 74/98/51 30/75/75 75/100/52
f 75/100/52 30/75/75 29/74/74
f 77/101/53 75/100/52 35/77/77
f 35/77/77 75/100/52 29/74/74
f 77/101/53 35/77/77 78/102/54
f 78/102/54 35/77/77 34/78/78
f 79/103/56 80/104/55 38/79/79
f 38/79/79 80/104/55 39/80/80
f 76/99/50 79/103/56 31/76/76
f 31/76/76 79/103/56 38/79/79
f 81/105/58 82/106/57 42/81/81
f 42/81/81 82/106/57 43/82/82
f 81/105/58 42/81/81 80/104/55
f 80/104/55 42/81/81 39/80/80
f 83/107/60 84/108/59 46/83/83
f 46/83/83 84/108/59 47/84/84
f 82/106/57 83/107/60 43/82/82
f 43/82/82 83/107/60 46/83/83
f 85/109/62 86/110/61 50/85/85
f 50/85/85 86/110/61 51/86/86
f 84/108/59 85/109/62 47/84/84
f 47/84/84 85/109/62 50/85/85
f 87/111/64 88/112/63 54/87/87
f 54/87/87 88/112/63 55/88/88
f 87/111/64 54/87/87 86/110/61
f 86/110/61 54/87/87 51/86/86
f 89/113/66 90/114/65 58/89/89
f 58/89/89 90/114/65 59/90/90
f 89/113/66 58/89/89 88/112/63
f 88/112/63 58/89/89 55/88/88
f 91/115/68 92/116/67 62/91/91
f 62/91/91 92/116/67 63/92/92
f 90/114/65 91/115/68 59/90/90
f 59/90/90 91/115/68 62/91/91
f 93/117/70 94/118/69 66/93/93
f 66/93/93 94/118/69 67/94/94
f 93/117/70 66/93/93 92/116/67
f 92/116/67 66/93/93 63/92/92
f 95/119/72 96/120/71 70/95/95
f 70/95/95 96/120/71 71/96/96
f 95/119/72 70/95/95 94/118/69
f 94/118/69 70/95/95 67/94/94
f 97/121/73 78/102/54 73/97/97
f 73/97/97 78/102/54 34/78/78
f 97/121/73 73/97/97 96/120/71
f 96/120/71 73/97/97 71/96/96
