# Blender 4.0.0
# www.blender.org
o sideL_knob_doneness
v -0.08292150 -0.10060450 -0.04156500
v -0.07996650 -0.10060450 -0.04032500
v -0.07740450 -0.10060450 -0.03836700
v -0.07545650 -0.10060450 -0.03579700
v -0.07422850 -0.10060450 -0.03283800
v -0.08917750 -0.10060450 -0.04157800
v -0.08604750 -0.10060450 -0.04198400
v -0.09470450 -0.10060450 -0.03840100
v -0.09213550 -0.10060450 -0.04034900
v -0.09790450 -0.10060450 -0.03288600
v -0.09666350 -0.10060450 -0.03583900
v -0.09791650 -0.10060450 -0.02662900
v -0.09832250 -0.10060450 -0.02975800
v -0.09474050 -0.10060450 -0.02110000
v -0.09668750 -0.10060450 -0.02367000
v -0.08922350 -0.10060450 -0.01790200
v -0.09217750 -0.10060450 -0.01914300
v -0.08296750 -0.10060450 -0.01788900
v -0.08609650 -0.10060450 -0.01748400
v -0.07743950 -0.10060450 -0.02106700
v -0.08000950 -0.10060450 -0.01911800
v -0.07424050 -0.10060450 -0.02658100
v -0.07548150 -0.10060450 -0.02362800
v -0.07382250 -0.10060450 -0.02971000
v -0.08607250 -0.11300450 -0.02973400
v -0.07996650 -0.11245350 -0.04032500
v -0.08292150 -0.11245350 -0.04156500
v -0.07740450 -0.11245350 -0.03836700
v -0.07750250 -0.11286650 -0.03826900
v -0.08003550 -0.11286650 -0.04020600
v -0.08295650 -0.11286650 -0.04143300
v -0.07545650 -0.11245350 -0.03579700
v -0.07422850 -0.11245350 -0.03283800
v -0.07436150 -0.11286650 -0.03280300
v -0.07557650 -0.11286650 -0.03572900
v -0.08604750 -0.11245350 -0.04198400
v -0.08917750 -0.11245350 -0.04157800
v -0.08604850 -0.11286650 -0.04184700
v -0.08914250 -0.11286650 -0.04144500
v -0.09213550 -0.11245350 -0.04034900
v -0.09470450 -0.11245350 -0.03840100
v -0.09206850 -0.11286650 -0.04022900
v -0.09460750 -0.11286650 -0.03830300
v -0.09666350 -0.11245350 -0.03583900
v -0.09790450 -0.11245350 -0.03288600
v -0.09654350 -0.11286650 -0.03577100
v -0.09777150 -0.11286650 -0.03285000
v -0.09832250 -0.11245350 -0.02975800
v -0.09791650 -0.11245350 -0.02662900
v -0.09818450 -0.11286650 -0.02975800
v -0.09778350 -0.11286650 -0.02666400
v -0.09668750 -0.11245350 -0.02367000
v -0.09474050 -0.11245350 -0.02110000
v -0.09656850 -0.11286650 -0.02373800
v -0.09464150 -0.11286650 -0.02119900
v -0.09217750 -0.11245350 -0.01914300
v -0.08922350 -0.11245350 -0.01790200
v -0.09210950 -0.11286650 -0.01926200
v -0.08918850 -0.11286650 -0.01803500
v -0.08609650 -0.11245350 -0.01748400
v -0.08296750 -0.11245350 -0.01788900
v -0.08609650 -0.11286650 -0.01762100
v -0.08300250 -0.11286650 -0.01802200
v -0.08000950 -0.11245350 -0.01911800
v -0.07743950 -0.11245350 -0.02106700
v -0.08007650 -0.11286650 -0.01923800
v -0.07753650 -0.11286650 -0.02116400
v -0.07548150 -0.11245350 -0.02362800
v -0.07424050 -0.11245350 -0.02658100
v -0.07560150 -0.11286650 -0.02369600
v -0.07437350 -0.11286650 -0.02661700
v -0.07382250 -0.11245350 -0.02971000
v -0.07395950 -0.11286650 -0.02971000
v -0.08024250 -0.11300450 -0.03984800
v -0.07779650 -0.11300450 -0.03797700
v -0.08306350 -0.11300450 -0.04103400
v -0.07593450 -0.11300450 -0.03552300
v -0.07476050 -0.11300450 -0.03269800
v -0.08604950 -0.11300450 -0.04143300
v -0.08903550 -0.11300450 -0.04104600
v -0.09186150 -0.11300450 -0.03987100
v -0.09431550 -0.11300450 -0.03801000
v -0.09618650 -0.11300450 -0.03556400
v -0.09737250 -0.11300450 -0.03274200
v -0.09777150 -0.11300450 -0.02975700
v -0.09738450 -0.11300450 -0.02677000
v -0.09620950 -0.11300450 -0.02394400
v -0.09434850 -0.11300450 -0.02149000
v -0.09190150 -0.11300450 -0.01962000
v -0.08908050 -0.11300450 -0.01843400
v -0.08609650 -0.11300450 -0.01803500
v -0.08310950 -0.11300450 -0.01842100
v -0.08028250 -0.11300450 -0.01959700
v -0.07782850 -0.11300450 -0.02145800
v -0.07595750 -0.11300450 -0.02390400
v -0.07477250 -0.11300450 -0.02672500
v -0.07437350 -0.11300450 -0.02971100
v -0.08996550 -0.12377050 -0.03514200
v -0.09143750 -0.12377050 -0.03368600
v -0.09252150 -0.12377050 -0.03625400
v -0.09317750 -0.11255050 -0.03779100
v -0.08720450 -0.11255050 -0.03573100
v -0.08888050 -0.11255050 -0.03712300
v -0.09060350 -0.11255050 -0.03800300
v -0.09211250 -0.11255050 -0.03823700
v -0.09405050 -0.11255050 -0.03692600
v -0.09450950 -0.11255050 -0.03586700
v -0.09429150 -0.11255050 -0.03435500
v -0.09343050 -0.11255050 -0.03262200
v -0.09205750 -0.11255050 -0.03093200
v -0.07792850 -0.11255050 -0.02237400
v -0.07747050 -0.11255050 -0.02343400
v -0.07768850 -0.11255050 -0.02494500
v -0.07854950 -0.11255050 -0.02667800
v -0.07992250 -0.11255050 -0.02836900
v -0.07880250 -0.11255050 -0.02151000
v -0.08477450 -0.11255050 -0.02356900
v -0.08309950 -0.11255050 -0.02217800
v -0.08137550 -0.11255050 -0.02129800
v -0.07986650 -0.11255050 -0.02106300
v -0.09299550 -0.12340150 -0.03755500
v -0.09317750 -0.12283250 -0.03779100
v -0.09405050 -0.12283250 -0.03692600
v -0.09381750 -0.12340150 -0.03674300
v -0.07792850 -0.12283250 -0.02237400
v -0.07816250 -0.12340150 -0.02255800
v -0.07898350 -0.12340150 -0.02174600
v -0.07880250 -0.12283250 -0.02151000
v -0.08720450 -0.12283250 -0.03573100
v -0.08735950 -0.12340150 -0.03555300
v -0.08010250 -0.12340150 -0.02821600
v -0.07992250 -0.12283250 -0.02836900
v -0.09187650 -0.12340150 -0.03108400
v -0.09205750 -0.12283250 -0.03093200
v -0.08477450 -0.12283250 -0.02356900
v -0.08461950 -0.12340150 -0.02374800
v -0.08888050 -0.12283250 -0.03712300
v -0.08899050 -0.12340150 -0.03690700
v -0.09060350 -0.12283250 -0.03800300
v -0.09063350 -0.12340150 -0.03774600
v -0.09211250 -0.12283250 -0.03823700
v -0.09202450 -0.12340150 -0.03796200
v -0.09450950 -0.12283250 -0.03586700
v -0.09423550 -0.12340150 -0.03577600
v -0.09429150 -0.12283250 -0.03435500
v -0.09403450 -0.12340150 -0.03438300
v -0.09343050 -0.12283250 -0.03262200
v -0.09321350 -0.12340150 -0.03273000
v -0.07747050 -0.12283250 -0.02343400
v -0.07774450 -0.12340150 -0.02352400
v -0.07768850 -0.12283250 -0.02494500
v -0.07794550 -0.12340150 -0.02491800
v -0.07854950 -0.12283250 -0.02667800
v -0.07876650 -0.12340150 -0.02657000
v -0.08309950 -0.12283250 -0.02217800
v -0.08298850 -0.12340150 -0.02239300
v -0.08137550 -0.12283250 -0.02129800
v -0.08134550 -0.12340150 -0.02155500
v -0.07986650 -0.12283250 -0.02106300
v -0.07995450 -0.12340150 -0.02133800
v -0.08991250 -0.12340150 -0.03747500
v -0.08984650 -0.12283250 -0.03771800
v -0.08984650 -0.11255050 -0.03771800
v -0.08821350 -0.12340150 -0.03632100
v -0.08808150 -0.12283250 -0.03652000
v -0.08808150 -0.11255050 -0.03652000
v -0.09143450 -0.12340150 -0.03797800
v -0.09147250 -0.12283250 -0.03825500
v -0.09147250 -0.11255050 -0.03825500
v -0.09283650 -0.11255050 -0.03181700
v -0.09283650 -0.12283250 -0.03181700
v -0.09263550 -0.12340150 -0.03194700
v -0.09401450 -0.11255050 -0.03359600
v -0.09401450 -0.12283250 -0.03359600
v -0.09377050 -0.12340150 -0.03365800
v -0.09453350 -0.11255050 -0.03522700
v -0.09453350 -0.12283250 -0.03522700
v -0.09425750 -0.12340150 -0.03518600
v -0.08376650 -0.12340150 -0.02298000
v -0.08389750 -0.12283250 -0.02278000
v -0.08389750 -0.11255050 -0.02278000
v -0.08206750 -0.12340150 -0.02182600
v -0.08213250 -0.12283250 -0.02158200
v -0.08213250 -0.11255050 -0.02158200
v -0.08054450 -0.12340150 -0.02132200
v -0.08050650 -0.12283250 -0.02104600
v -0.08050650 -0.11255050 -0.02104600
v -0.07914250 -0.11255050 -0.02748300
v -0.07914250 -0.12283250 -0.02748300
v -0.07934350 -0.12340150 -0.02735400
v -0.07820850 -0.12340150 -0.02564200
v -0.07796450 -0.12283250 -0.02570500
v -0.07796450 -0.11255050 -0.02570500
v -0.07744550 -0.11255050 -0.02407300
v -0.07744550 -0.12283250 -0.02407300
v -0.07772150 -0.12340150 -0.02411400
v -0.09346350 -0.12340150 -0.03720700
v -0.09367450 -0.12283250 -0.03742000
v -0.09367450 -0.11255050 -0.03742000
v -0.09434250 -0.11255050 -0.03645700
v -0.09434250 -0.12283250 -0.03645700
v -0.09408250 -0.12340150 -0.03631400
v -0.09270450 -0.11255050 -0.03807700
v -0.09270450 -0.12283250 -0.03807700
v -0.09256450 -0.12340150 -0.03781600
v -0.07789650 -0.12340150 -0.02298600
v -0.07763750 -0.12283250 -0.02284400
v -0.07763750 -0.11255050 -0.02284400
v -0.07830450 -0.11255050 -0.02188100
v -0.07830450 -0.12283250 -0.02188100
v -0.07851550 -0.12340150 -0.02209400
v -0.07927550 -0.11255050 -0.02122400
v -0.07927550 -0.12283250 -0.02122400
v -0.07941450 -0.12340150 -0.02148500
v -0.09170850 -0.12363750 -0.03700000
v -0.09181350 -0.12363750 -0.03729900
v -0.09206150 -0.12363750 -0.03690400
v -0.09222750 -0.12363750 -0.03718600
v -0.09235650 -0.12363750 -0.03672500
v -0.09255850 -0.12363750 -0.03698600
v -0.09271950 -0.12363750 -0.03645500
v -0.09295450 -0.12363750 -0.03669100
v -0.09299450 -0.12363750 -0.03609400
v -0.09325350 -0.12363750 -0.03629900
v -0.09317450 -0.12363750 -0.03580100
v -0.09345650 -0.12363750 -0.03597100
v -0.07898450 -0.12363750 -0.02320600
v -0.07872650 -0.12363750 -0.02300100
v -0.07880450 -0.12363750 -0.02350000
v -0.07852250 -0.12363750 -0.02333000
v -0.07962250 -0.12363750 -0.02257500
v -0.07942050 -0.12363750 -0.02231500
v -0.07925950 -0.12363750 -0.02284600
v -0.07902550 -0.12363750 -0.02260900
v -0.08027050 -0.12363750 -0.02230100
v -0.08016550 -0.12363750 -0.02200200
v -0.07991750 -0.12363750 -0.02239700
v -0.07975150 -0.12363750 -0.02211400
v -0.08791350 -0.12363750 -0.03492700
v -0.08773350 -0.12363750 -0.03512200
v -0.08868850 -0.12363750 -0.03562400
v -0.08853050 -0.12363750 -0.03583900
v -0.08073250 -0.12363750 -0.02766800
v -0.08053750 -0.12363750 -0.02784700
v -0.07952650 -0.12363750 -0.02618200
v -0.07928950 -0.12363750 -0.02630900
v -0.08004450 -0.12363750 -0.02688500
v -0.07982950 -0.12363750 -0.02704200
v -0.09245350 -0.12363750 -0.03311900
v -0.09268950 -0.12363750 -0.03299100
v -0.09193550 -0.12363750 -0.03241600
v -0.09215050 -0.12363750 -0.03225900
v -0.09124650 -0.12363750 -0.03163300
v -0.09144150 -0.12363750 -0.03145400
v -0.08424550 -0.12363750 -0.02417900
v -0.08406650 -0.12363750 -0.02437400
v -0.08329050 -0.12363750 -0.02367600
v -0.08344850 -0.12363750 -0.02346200
v -0.08938550 -0.12363750 -0.03615000
v -0.08925750 -0.12363750 -0.03638700
v -0.09015050 -0.12363750 -0.03662000
v -0.09006950 -0.12363750 -0.03688700
v -0.09073950 -0.12363750 -0.03684300
v -0.09070550 -0.12363750 -0.03712600
v -0.09131650 -0.12363750 -0.03700800
v -0.09134350 -0.12363750 -0.03731100
v -0.09327450 -0.12363750 -0.03544900
v -0.09357350 -0.12363750 -0.03555800
v -0.09329050 -0.12363750 -0.03505800
v -0.09359150 -0.12363750 -0.03508800
v -0.09313050 -0.12363750 -0.03448200
v -0.09341350 -0.12363750 -0.03444800
v -0.09291550 -0.12363750 -0.03389000
v -0.09318150 -0.12363750 -0.03380900
v -0.07870450 -0.12363750 -0.02385200
v -0.07840550 -0.12363750 -0.02374300
v -0.07868850 -0.12363750 -0.02424300
v -0.07838750 -0.12363750 -0.02421300
v -0.07884850 -0.12363750 -0.02481900
v -0.07856550 -0.12363750 -0.02485300
v -0.07906350 -0.12363750 -0.02541100
v -0.07879750 -0.12363750 -0.02549100
v -0.08259350 -0.12363750 -0.02315100
v -0.08272250 -0.12363750 -0.02291400
v -0.08182850 -0.12363750 -0.02268000
v -0.08190950 -0.12363750 -0.02241300
v -0.08123950 -0.12363750 -0.02245800
v -0.08127350 -0.12363750 -0.02217400
v -0.08066250 -0.12363750 -0.02229200
v -0.08063550 -0.12363750 -0.02198900
vn 0.5013 -0.0000 -0.8653
vn 0.7085 -0.0000 -0.7057
vn 0.5013 -0.0089 -0.8652
vn 0.7085 -0.0090 -0.7057
vn 0.2629 -0.0000 -0.9648
vn 0.2622 -0.0089 -0.9650
vn 0.8673 -0.0000 -0.4978
vn 0.9659 -0.0000 -0.2588
vn 0.8672 -0.0089 -0.4978
vn 0.9658 -0.0089 -0.2593
vn 0.0020 -0.0000 -1.0000
vn 0.0020 -0.0089 -1.0000
vn -0.2584 -0.0000 -0.9660
vn -0.2583 -0.0089 -0.9660
vn -0.4979 -0.0000 -0.8672
vn -0.4978 -0.0089 -0.8672
vn -0.7057 -0.0000 -0.7085
vn -0.7057 -0.0089 -0.7085
vn -0.8652 -0.0000 -0.5014
vn -0.8652 -0.0089 -0.5013
vn -0.9650 -0.0000 -0.2621
vn -0.9650 -0.0089 -0.2621
vn -1.0000 -0.0000 -0.0020
vn -1.0000 -0.0089 -0.0020
vn -0.9659 -0.0000 0.2590
vn -0.9660 -0.0089 0.2583
vn -0.8673 -0.0000 0.4978
vn -0.8672 -0.0090 0.4979
vn -0.7085 -0.0000 0.7057
vn -0.7086 -0.0089 0.7056
vn -0.5013 -0.0000 0.8653
vn -0.5012 -0.0089 0.8653
vn -0.2629 -0.0000 0.9648
vn -0.2622 -0.0089 0.9650
vn -0.0020 -0.0000 1.0000
vn -0.0020 -0.0089 1.0000
vn 0.2592 -0.0000 0.9658
vn 0.2582 -0.0089 0.9660
vn 0.4979 -0.0000 0.8672
vn 0.4979 -0.0089 0.8672
vn 0.7057 -0.0000 0.7085
vn 0.7057 -0.0089 0.7085
vn 0.8652 -0.0000 0.5014
vn 0.8652 -0.0089 0.5013
vn 0.9649 -0.0000 0.2627
vn 0.9650 -0.0089 0.2622
vn 1.0000 -0.0000 0.0020
vn 1.0000 -0.0089 0.0019
vn -0.0000 -1.0000 -0.0000
vn 0.0069 -0.9997 -0.0252
vn 0.0134 -0.9997 -0.0223
vn 0.0185 -0.9997 -0.0185
vn 0.0224 -0.9997 -0.0133
vn 0.0250 -0.9997 -0.0076
vn -0.0068 -0.9997 -0.0252
vn 0.0001 -0.9997 -0.0261
vn -0.0185 -0.9997 -0.0186
vn -0.0132 -0.9997 -0.0224
vn -0.0252 -0.9997 -0.0069
vn -0.0223 -0.9997 -0.0134
vn -0.0252 -0.9997 0.0068
vn -0.0261 -0.9997 -0.0000
vn -0.0186 -0.9997 0.0185
vn -0.0224 -0.9997 0.0132
vn -0.0069 -0.9997 0.0252
vn -0.0133 -0.9997 0.0223
vn 0.0068 -0.9997 0.0252
vn -0.0001 -0.9997 0.0260
vn 0.0185 -0.9997 0.0186
vn 0.0133 -0.9997 0.0224
vn 0.0252 -0.9997 0.0069
vn 0.0223 -0.9997 0.0133
vn 0.0260 -0.9997 0.0001
vn 0.3660 -0.6840 -0.6311
vn 0.5172 -0.6835 -0.5151
vn 0.1922 -0.6832 -0.7045
vn 0.6325 -0.6840 -0.3635
vn 0.7052 -0.6833 -0.1894
vn 0.0015 -0.6833 -0.7301
vn -0.1895 -0.6832 -0.7052
vn -0.3636 -0.6841 -0.6323
vn -0.5151 -0.6835 -0.5172
vn -0.6308 -0.6842 -0.3661
vn -0.7045 -0.6832 -0.1923
vn -0.7302 -0.6832 -0.0014
vn -0.7052 -0.6833 0.1894
vn -0.6324 -0.6841 0.3635
vn -0.5172 -0.6835 0.5151
vn -0.3660 -0.6841 0.6309
vn -0.1922 -0.6834 0.7043
vn -0.0014 -0.6835 0.7300
vn 0.1894 -0.6834 0.7051
vn 0.3636 -0.6842 0.6322
vn 0.5151 -0.6835 0.5172
vn 0.6308 -0.6841 0.3661
vn 0.7043 -0.6834 0.1923
vn 0.7299 -0.6835 0.0014
vn -0.3728 -0.7471 -0.5503
vn -0.4688 -0.7454 -0.4739
vn -0.5642 -0.0589 -0.8235
vn -0.7006 -0.0588 -0.7111
vn 0.5460 -0.7471 0.3791
vn 0.8173 -0.0591 0.5732
vn 0.4689 -0.7454 0.4738
vn 0.7020 -0.0588 0.7097
vn 0.5073 -0.7005 -0.5019
vn 0.7086 -0.0219 -0.7053
vn 0.5084 -0.6991 -0.5028
vn 0.7121 -0.0222 -0.7017
vn -0.7121 -0.0222 0.7017
vn -0.5082 -0.6993 0.5027
vn -0.7104 -0.0223 0.7035
vn -0.5073 -0.7005 0.5019
vn -0.5601 -0.0000 -0.8284
vn -0.7032 -0.0000 -0.7110
vn 0.8223 -0.0000 0.5691
vn 0.7032 -0.0000 0.7110
vn -0.7108 -0.0000 0.7034
vn -0.7111 -0.0000 0.7031
vn 0.7111 -0.0000 -0.7031
vn 0.7108 -0.0000 -0.7034
vn 0.6420 -0.0229 -0.7663
vn 0.6393 -0.0000 -0.7689
vn 0.5604 -0.0241 -0.8279
vn 0.4555 -0.0277 -0.8898
vn 0.5607 -0.0000 -0.8280
vn 0.4556 -0.0000 -0.8902
vn 0.3119 -0.0313 -0.9496
vn 0.1474 -0.0390 -0.9883
vn 0.3127 -0.0000 -0.9498
vn 0.1491 -0.0000 -0.9888
vn -0.3927 -0.0543 -0.9181
vn -0.3898 -0.0000 -0.9209
vn -0.9151 -0.0544 -0.3996
vn -0.9860 -0.0481 -0.1599
vn -0.9166 -0.0000 -0.3998
vn -0.9877 -0.0000 -0.1564
vn -0.9901 -0.0389 0.1346
vn -0.9537 -0.0312 0.2991
vn -0.9904 -0.0000 0.1383
vn -0.9532 -0.0000 0.3024
vn -0.8957 -0.0276 0.4437
vn -0.8362 -0.0241 0.5479
vn -0.8951 -0.0000 0.4459
vn -0.8341 -0.0000 0.5516
vn -0.7761 -0.0228 0.6302
vn -0.7759 -0.0000 0.6309
vn 0.9143 -0.0543 0.4014
vn 0.9166 -0.0000 0.3998
vn 0.9901 -0.0389 -0.1347
vn 0.9537 -0.0312 -0.2991
vn 0.9904 -0.0000 -0.1383
vn 0.9532 -0.0000 -0.3024
vn 0.8966 -0.0273 -0.4421
vn 0.8951 -0.0000 -0.4458
vn 0.7761 -0.0228 -0.6302
vn 0.7759 -0.0000 -0.6309
vn -0.6420 -0.0229 0.7663
vn -0.6393 -0.0000 0.7689
vn -0.5604 -0.0241 0.8279
vn -0.4555 -0.0277 0.8898
vn -0.5607 -0.0000 0.8280
vn -0.4556 -0.0000 0.8902
vn -0.3119 -0.0313 0.9496
vn -0.1474 -0.0390 0.9883
vn -0.3128 -0.0000 0.9498
vn -0.1491 -0.0000 0.9888
vn 0.3927 -0.0543 0.9181
vn 0.5594 -0.0587 0.8268
vn 0.3898 -0.0000 0.9209
vn 0.5601 -0.0000 0.8285
vn -0.6193 -0.7369 -0.2712
vn -0.6721 -0.7326 -0.1076
vn 0.6190 -0.7369 0.2717
vn 0.4571 -0.7002 -0.5483
vn -0.4571 -0.7002 0.5483
vn 0.4010 -0.7006 -0.5901
vn 0.3244 -0.7045 -0.6313
vn 0.2211 -0.7100 -0.6686
vn 0.1073 -0.7167 -0.6891
vn -0.2648 -0.7369 -0.6220
vn -0.6902 -0.7167 0.0998
vn -0.6713 -0.7101 0.2125
vn -0.6348 -0.7045 0.3175
vn -0.5947 -0.7007 0.3942
vn -0.5538 -0.7000 0.4509
vn 0.6902 -0.7167 -0.0998
vn 0.6713 -0.7101 -0.2125
vn 0.6366 -0.7029 -0.3173
vn 0.5538 -0.7000 -0.4509
vn -0.4010 -0.7006 0.5901
vn -0.3244 -0.7045 0.6313
vn -0.2211 -0.7100 0.6686
vn -0.1073 -0.7167 0.6891
vn 0.3731 -0.7471 0.5501
vn 0.2648 -0.7369 0.6220
vn -0.1475 -0.0483 -0.9879
vn -0.1005 -0.7327 -0.6731
vn -0.1456 -0.0000 -0.9893
vn 0.1475 -0.0483 0.9879
vn 0.1005 -0.7327 0.6731
vn 0.1456 -0.0000 0.9893
vn 0.8344 -0.0241 -0.5507
vn 0.8341 -0.0000 -0.5516
vn 0.5945 -0.7007 -0.3944
vn 0.9862 -0.0483 0.1583
vn 0.9876 -0.0000 0.1568
vn 0.6723 -0.7325 0.1069
vn -0.8202 -0.0590 -0.5691
vn -0.5460 -0.7471 -0.3791
vn -0.8222 -0.0000 -0.5691
vn -0.1959 -0.9614 0.1933
vn -0.1969 -0.9611 0.1936
vn -0.0403 -0.9652 -0.2584
vn 0.0285 -0.9627 -0.2689
vn -0.1074 -0.9681 -0.2262
vn -0.1412 -0.9699 -0.1984
vn -0.1812 -0.9683 -0.1717
vn -0.1968 -0.9699 -0.1433
vn -0.2294 -0.9681 -0.1008
vn 0.1935 -0.9700 0.1471
vn 0.1757 -0.9683 0.1777
vn 0.2294 -0.9681 0.1008
vn 0.1317 -0.9699 0.2050
vn 0.1074 -0.9682 0.2261
vn 0.0403 -0.9652 0.2584
vn -0.0285 -0.9627 0.2689
vn 0.1958 -0.9611 -0.1949
vn 0.1964 -0.9614 -0.1929
vn 0.1829 -0.9608 -0.2081
vn 0.2165 -0.9611 -0.1715
vn 0.2275 -0.9609 -0.1579
vn 0.2526 -0.9608 -0.1140
vn -0.2275 -0.9609 0.1579
vn -0.2526 -0.9608 0.1140
vn -0.2168 -0.9611 0.1711
vn -0.1829 -0.9608 0.2081
vn 0.1605 -0.9612 -0.2243
vn 0.1316 -0.9608 -0.2440
vn 0.0698 -0.9638 -0.2574
vn -0.2574 -0.9652 -0.0453
vn -0.2693 -0.9624 0.0351
vn -0.2584 -0.9637 0.0670
vn 0.2574 -0.9652 0.0453
vn 0.2693 -0.9624 -0.0351
vn 0.2584 -0.9637 -0.0670
vn -0.1605 -0.9612 0.2243
vn -0.1316 -0.9608 0.2439
vn -0.0698 -0.9638 0.2575
vt 0.897670 0.732253
vt 0.919175 0.734627
vt 0.899276 0.772678
vt 0.910157 0.774087
vt 0.876422 0.735546
vt 0.888464 0.774118
vt 0.939308 0.742554
vt 0.956559 0.755381
vt 0.920284 0.778305
vt 0.928938 0.784951
vt 0.857039 0.744041
vt 0.878546 0.778264
vt 0.840452 0.757195
vt 0.870022 0.784819
vt 0.827627 0.774438
vt 0.863371 0.793464
vt 0.819696 0.794569
vt 0.859153 0.803596
vt 0.817320 0.816082
vt 0.857743 0.814480
vt 0.820610 0.837323
vt 0.859183 0.825289
vt 0.829107 0.856711
vt 0.863331 0.835209
vt 0.842257 0.873297
vt 0.869885 0.843731
vt 0.859506 0.886126
vt 0.878534 0.850384
vt 0.879640 0.894056
vt 0.888665 0.854602
vt 0.901148 0.896433
vt 0.899548 0.856011
vt 0.922396 0.893141
vt 0.910360 0.854571
vt 0.941785 0.884643
vt 0.920280 0.850423
vt 0.958370 0.871490
vt 0.928802 0.843868
vt 0.971196 0.854246
vt 0.935454 0.835222
vt 0.979128 0.834106
vt 0.939673 0.825088
vt 0.981503 0.812598
vt 0.941082 0.814206
vt 0.978212 0.791355
vt 0.939644 0.803396
vt 0.969710 0.771962
vt 0.935496 0.793473
vt 0.899413 0.814344
vt 0.889212 0.776906
vt 0.899278 0.775580
vt 0.909413 0.776883
vt 0.918844 0.780818
vt 0.926913 0.786990
vt 0.872055 0.786842
vt 0.879986 0.780755
vt 0.861949 0.804338
vt 0.865887 0.794912
vt 0.861973 0.824545
vt 0.860646 0.814475
vt 0.871910 0.841699
vt 0.865819 0.833768
vt 0.889408 0.851808
vt 0.879982 0.847866
vt 0.909612 0.851780
vt 0.899545 0.853106
vt 0.926769 0.841846
vt 0.918836 0.847934
vt 0.936876 0.824344
vt 0.932938 0.833772
vt 0.936853 0.804140
vt 0.938181 0.814208
vt 0.933003 0.794917
vt 0.899278 0.774127
vt 0.909787 0.775483
vt 0.888836 0.775511
vt 0.919566 0.779560
vt 0.927929 0.785972
vt 0.879267 0.779505
vt 0.871033 0.785826
vt 0.864631 0.794194
vt 0.860549 0.803965
vt 0.859193 0.814475
vt 0.860576 0.824916
vt 0.864573 0.834489
vt 0.870892 0.842720
vt 0.879260 0.849124
vt 0.889035 0.853205
vt 0.899544 0.854562
vt 0.909987 0.853178
vt 0.919559 0.849181
vt 0.927791 0.842862
vt 0.934193 0.834493
vt 0.938277 0.824718
vt 0.939633 0.814211
vt 0.938250 0.803769
vt 0.934254 0.794193
vt 0.598034 0.661726
vt 0.589606 0.661726
vt 0.593820 0.651184
vt 0.894230 0.894930
vt 0.891919 0.894829
vt 0.894493 0.892435
vt 0.892034 0.892328
vt 0.876335 0.851651
vt 0.876372 0.854152
vt 0.873962 0.851671
vt 0.873847 0.854172
vt 0.913093 0.789528
vt 0.915534 0.789455
vt 0.913093 0.831555
vt 0.915534 0.831629
vt 0.908560 0.787673
vt 0.911000 0.787746
vt 0.908560 0.829847
vt 0.911000 0.829773
vt 0.894493 0.851266
vt 0.892034 0.851159
vt 0.876372 0.895320
vt 0.873847 0.895341
vt 0.867212 0.829847
vt 0.867212 0.787673
vt 0.956882 0.831629
vt 0.956882 0.789455
vt 0.915489 0.784658
vt 0.956837 0.784658
vt 0.915396 0.780627
vt 0.915223 0.776134
vt 0.956744 0.780627
vt 0.956571 0.776134
vt 0.915005 0.773143
vt 0.914721 0.769924
vt 0.956353 0.773143
vt 0.956069 0.769924
vt 0.896622 0.892568
vt 0.896622 0.851400
vt 0.887281 0.892407
vt 0.885002 0.892594
vt 0.887281 0.851238
vt 0.885002 0.851425
vt 0.909372 0.768143
vt 0.909088 0.771361
vt 0.868024 0.768143
vt 0.867740 0.771361
vt 0.908870 0.774352
vt 0.908697 0.778845
vt 0.867522 0.774352
vt 0.867349 0.778845
vt 0.908604 0.782876
vt 0.867256 0.782876
vt 0.878600 0.854093
vt 0.878600 0.895262
vt 0.914721 0.851159
vt 0.915005 0.847940
vt 0.956069 0.851159
vt 0.956353 0.847940
vt 0.915223 0.844949
vt 0.956571 0.844949
vt 0.915489 0.836425
vt 0.956837 0.836425
vt 0.908604 0.834643
vt 0.867256 0.834643
vt 0.908697 0.838675
vt 0.908870 0.843167
vt 0.867349 0.838675
vt 0.867522 0.843167
vt 0.909088 0.846158
vt 0.909372 0.849377
vt 0.867740 0.846158
vt 0.868024 0.849377
vt 0.869259 0.853932
vt 0.871388 0.854065
vt 0.869259 0.895101
vt 0.871388 0.895234
vt 0.887514 0.894902
vt 0.885436 0.895072
vt 0.878367 0.851598
vt 0.913050 0.784859
vt 0.911044 0.834442
vt 0.912959 0.780935
vt 0.912794 0.776652
vt 0.912586 0.773800
vt 0.912324 0.770832
vt 0.896172 0.895052
vt 0.911769 0.769050
vt 0.911507 0.772019
vt 0.911299 0.774870
vt 0.911134 0.779153
vt 0.911044 0.783077
vt 0.912324 0.850251
vt 0.912586 0.847283
vt 0.912794 0.844432
vt 0.913050 0.836224
vt 0.911134 0.838367
vt 0.911299 0.842650
vt 0.911507 0.845501
vt 0.911769 0.848469
vt 0.871651 0.851570
vt 0.869709 0.851449
vt 0.914420 0.768143
vt 0.912047 0.769189
vt 0.955768 0.768143
vt 0.882941 0.892886
vt 0.882941 0.851717
vt 0.883534 0.895341
vt 0.909674 0.851159
vt 0.912047 0.850112
vt 0.868326 0.851159
vt 0.915396 0.840456
vt 0.956744 0.840456
vt 0.912959 0.840148
vt 0.880879 0.853907
vt 0.882941 0.853615
vt 0.880879 0.895076
vt 0.882941 0.894784
vt 0.880446 0.851428
vt 0.882347 0.851159
vt 0.889509 0.892349
vt 0.889546 0.894849
vt 0.889509 0.851180
vt 0.898670 0.892830
vt 0.898670 0.851661
vt 0.898040 0.895290
vt 0.867212 0.853670
vt 0.867212 0.894839
vt 0.867842 0.851210
vt 0.843652 0.790591
vt 0.843652 0.832263
vt 0.841334 0.790413
vt 0.841334 0.832440
vt 0.844731 0.790631
vt 0.844730 0.832214
vt 0.848619 0.774858
vt 0.849785 0.773772
vt 0.847434 0.776985
vt 0.851083 0.773041
vt 0.852447 0.772706
vt 0.846360 0.779316
vt 0.854273 0.772450
vt 0.856099 0.772706
vt 0.845492 0.782872
vt 0.857465 0.773034
vt 0.858763 0.773768
vt 0.859921 0.774865
vt 0.861118 0.776996
vt 0.862187 0.779328
vt 0.863055 0.782882
vt 0.844979 0.786391
vt 0.863568 0.786400
vt 0.863815 0.790640
vt 0.863815 0.832223
vt 0.863567 0.836463
vt 0.844978 0.836454
vt 0.863053 0.839981
vt 0.845490 0.839972
vt 0.862186 0.843538
vt 0.846358 0.843526
vt 0.861112 0.845869
vt 0.847428 0.845858
vt 0.859926 0.847996
vt 0.858761 0.849081
vt 0.857463 0.849813
vt 0.856099 0.850147
vt 0.854273 0.850404
vt 0.852447 0.850147
vt 0.851081 0.849819
vt 0.849783 0.849085
vt 0.848625 0.847989
vt 0.859314 0.772601
vt 0.860711 0.773909
vt 0.860603 0.770074
vt 0.862357 0.771718
vt 0.857793 0.771741
vt 0.858621 0.768953
vt 0.856261 0.771372
vt 0.856625 0.768473
vt 0.854273 0.771093
vt 0.854273 0.768143
vt 0.852284 0.771372
vt 0.851921 0.768473
vt 0.850753 0.771741
vt 0.849925 0.768953
vt 0.856261 0.851482
vt 0.854273 0.851761
vt 0.856625 0.854381
vt 0.854273 0.854711
vt 0.857793 0.851113
vt 0.858621 0.853901
vt 0.852284 0.851482
vt 0.850753 0.851113
vt 0.851921 0.854381
vt 0.849925 0.853901
vt 0.849231 0.850252
vt 0.847835 0.848944
vt 0.847943 0.852779
vt 0.846188 0.851136
vt 0.864894 0.790591
vt 0.864894 0.832263
vt 0.867212 0.832440
vt 0.867212 0.790413
vt 0.864639 0.786229
vt 0.866939 0.785744
vt 0.864639 0.836624
vt 0.866939 0.837109
vt 0.864105 0.840290
vt 0.863186 0.844067
vt 0.866367 0.841034
vt 0.865325 0.845317
vt 0.844440 0.782564
vt 0.845360 0.778787
vt 0.842178 0.781820
vt 0.843221 0.777537
vt 0.843906 0.786229
vt 0.841606 0.785744
vt 0.843906 0.836624
vt 0.841606 0.837109
vt 0.864105 0.782564
vt 0.866367 0.781820
vt 0.863186 0.778787
vt 0.865325 0.777537
vt 0.862028 0.776273
vt 0.864012 0.774686
vt 0.849231 0.772601
vt 0.847943 0.770074
vt 0.847835 0.773909
vt 0.846188 0.771718
vt 0.846517 0.776273
vt 0.844533 0.774686
vt 0.859314 0.850252
vt 0.860603 0.852779
vt 0.860711 0.848944
vt 0.862357 0.851136
vt 0.862028 0.846581
vt 0.864012 0.848168
vt 0.844440 0.840290
vt 0.842178 0.841034
vt 0.845360 0.844067
vt 0.843221 0.845317
vt 0.846517 0.846581
vt 0.844533 0.848168
s 1
f 2/1/1 3/2/2 26/3/3
f 26/3/3 3/2/2 28/4/4
f 1/5/5 2/1/1 27/6/6
f 27/6/6 2/1/1 26/3/3
f 4/7/7 5/8/8 32/9/9
f 32/9/9 5/8/8 33/10/10
f 3/2/2 4/7/7 28/4/4
f 28/4/4 4/7/7 32/9/9
f 7/11/11 1/5/5 36/12/12
f 36/12/12 1/5/5 27/6/6
f 6/13/13 7/11/11 37/14/14
f 37/14/14 7/11/11 36/12/12
f 9/15/15 6/13/13 40/16/16
f 40/16/16 6/13/13 37/14/14
f 8/17/17 9/15/15 41/18/18
f 41/18/18 9/15/15 40/16/16
f 11/19/19 8/17/17 44/20/20
f 44/20/20 8/17/17 41/18/18
f 10/21/21 11/19/19 45/22/22
f 45/22/22 11/19/19 44/20/20
f 13/23/23 10/21/21 48/24/24
f 48/24/24 10/21/21 45/22/22
f 12/25/25 13/23/23 49/26/26
f 49/26/26 13/23/23 48/24/24
f 15/27/27 12/25/25 52/28/28
f 52/28/28 12/25/25 49/26/26
f 14/29/29 15/27/27 53/30/30
f 53/30/30 15/27/27 52/28/28
f 17/31/31 14/29/29 56/32/32
f 56/32/32 14/29/29 53/30/30
f 16/33/33 17/31/31 57/34/34
f 57/34/34 17/31/31 56/32/32
f 19/35/35 16/33/33 60/36/36
f 60/36/36 16/33/33 57/34/34
f 18/37/37 19/35/35 61/38/38
f 61/38/38 19/35/35 60/36/36
f 21/39/39 18/37/37 64/40/40
f 64/40/40 18/37/37 61/38/38
f 20/41/41 21/39/39 65/42/42
f 65/42/42 21/39/39 64/40/40
f 23/43/43 20/41/41 68/44/44
f 68/44/44 20/41/41 65/42/42
f 22/45/45 23/43/43 69/46/46
f 69/46/46 23/43/43 68/44/44
f 24/47/47 22/45/45 72/48/48
f 72/48/48 22/45/45 69/46/46
f 5/8/8 24/47/47 33/10/10
f 33/10/10 24/47/47 72/48/48
f 25/49/49 76/50/50 74/51/51
f 25/49/49 74/51/51 75/52/52
f 25/49/49 75/52/52 77/53/53
f 25/49/49 77/53/53 78/54/54
f 25/49/49 80/55/55 79/56/56
f 25/49/49 79/56/56 76/50/50
f 25/49/49 82/57/57 81/58/58
f 25/49/49 81/58/58 80/55/55
f 25/49/49 84/59/59 83/60/60
f 25/49/49 83/60/60 82/57/57
f 25/49/49 86/61/61 85/62/62
f 25/49/49 85/62/62 84/59/59
f 25/49/49 88/63/63 87/64/64
f 25/49/49 87/64/64 86/61/61
f 25/49/49 90/65/65 89/66/66
f 25/49/49 89/66/66 88/63/63
f 25/49/49 92/67/67 91/68/68
f 25/49/49 91/68/68 90/65/65
f 25/49/49 94/69/69 93/70/70
f 25/49/49 93/70/70 92/67/67
f 25/49/49 96/71/71 95/72/72
f 25/49/49 95/72/72 94/69/69
f 25/49/49 78/54/54 97/73/73
f 25/49/49 97/73/73 96/71/71
f 26/3/3 28/4/4 30/74/74
f 30/74/74 28/4/4 29/75/75
f 27/6/6 26/3/3 31/76/76
f 31/76/76 26/3/3 30/74/74
f 32/9/9 33/10/10 35/77/77
f 35/77/77 33/10/10 34/78/78
f 28/4/4 32/9/9 29/75/75
f 29/75/75 32/9/9 35/77/77
f 36/12/12 27/6/6 38/79/79
f 38/79/79 27/6/6 31/76/76
f 37/14/14 36/12/12 39/80/80
f 39/80/80 36/12/12 38/79/79
f 37/14/14 39/80/80 40/16/16
f 40/16/16 39/80/80 42/81/81
f 41/18/18 40/16/16 43/82/82
f 43/82/82 40/16/16 42/81/81
f 44/20/20 41/18/18 46/83/83
f 46/83/83 41/18/18 43/82/82
f 45/22/22 44/20/20 47/84/84
f 47/84/84 44/20/20 46/83/83
f 48/24/24 45/22/22 50/85/85
f 50/85/85 45/22/22 47/84/84
f 49/26/26 48/24/24 51/86/86
f 51/86/86 48/24/24 50/85/85
f 49/26/26 51/86/86 52/28/28
f 52/28/28 51/86/86 54/87/87
f 53/30/30 52/28/28 55/88/88
f 55/88/88 52/28/28 54/87/87
f 56/32/32 53/30/30 58/89/89
f 58/89/89 53/30/30 55/88/88
f 57/34/34 56/32/32 59/90/90
f 59/90/90 56/32/32 58/89/89
f 60/36/36 57/34/34 62/91/91
f 62/91/91 57/34/34 59/90/90
f 61/38/38 60/36/36 63/92/92
f 63/92/92 60/36/36 62/91/91
f 61/38/38 63/92/92 64/40/40
f 64/40/40 63/92/92 66/93/93
f 65/42/42 64/40/40 67/94/94
f 67/94/94 64/40/40 66/93/93
f 68/44/44 65/42/42 70/95/95
f 70/95/95 65/42/42 67/94/94
f 69/46/46 68/44/44 71/96/96
f 71/96/96 68/44/44 70/95/95
f 72/48/48 69/46/46 73/97/97
f 73/97/97 69/46/46 71/96/96
f 33/10/10 72/48/48 34/78/78
f 34/78/78 72/48/48 73/97/97
f 74/51/51 76/50/50 30/74/74
f 30/74/74 76/50/50 31/76/76
f 74/51/51 30/74/74 75/52/52
f 75/52/52 30/74/74 29/75/75
f 77/53/53 75/52/52 35/77/77
f 35/77/77 75/52/52 29/75/75
f 77/53/53 35/77/77 78/54/54
f 78/54/54 35/77/77 34/78/78
f 79/56/56 80/55/55 38/79/79
f 38/79/79 80/55/55 39/80/80
f 76/50/50 79/56/56 31/76/76
f 31/76/76 79/56/56 38/79/79
f 81/58/58 82/57/57 42/81/81
f 42/81/81 82/57/57 43/82/82
f 80/55/55 81/58/58 39/80/80
f 39/80/80 81/58/58 42/81/81
f 83/60/60 84/59/59 46/83/83
f 46/83/83 84/59/59 47/84/84
f 83/60/60 46/83/83 82/57/57
f 82/57/57 46/83/83 43/82/82
f 85/62/62 86/61/61 50/85/85
f 50/85/85 86/61/61 51/86/86
f 84/59/59 85/62/62 47/84/84
f 47/84/84 85/62/62 50/85/85
f 87/64/64 88/63/63 54/87/87
f 54/87/87 88/63/63 55/88/88
f 87/64/64 54/87/87 86/61/61
f 86/61/61 54/87/87 51/86/86
f 89/66/66 90/65/65 58/89/89
f 58/89/89 90/65/65 59/90/90
f 89/66/66 58/89/89 88/63/63
f 88/63/63 58/89/89 55/88/88
f 91/68/68 92/67/67 62/91/91
f 62/91/91 92/67/67 63/92/92
f 90/65/65 91/68/68 59/90/90
f 59/90/90 91/68/68 62/91/91
f 93/70/70 94/69/69 66/93/93
f 66/93/93 94/69/69 67/94/94
f 93/70/70 66/93/93 92/67/67
f 92/67/67 66/93/93 63/92/92
f 95/72/72 96/71/71 70/95/95
f 70/95/95 96/71/71 71/96/96
f 95/72/72 70/95/95 94/69/69
f 94/69/69 70/95/95 67/94/94
f 97/73/73 78/54/54 73/97/97
f 73/97/97 78/54/54 34/78/78
f 96/71/71 97/73/73 71/96/96
f 71/96/96 97/73/73 73/97/97
f 98/98/49 99/99/49 100/100/49
f 121/101/98 197/102/99 122/103/100
f 122/103/100 197/102/99 198/104/101
f 126/105/102 125/106/103 211/107/104
f 211/107/104 125/106/103 210/108/105
f 130/109/106 129/110/107 131/111/108
f 131/111/108 129/110/107 132/112/109
f 134/113/110 133/114/111 135/115/112
f 135/115/112 133/114/111 136/116/113
f 101/117/114 122/103/100 199/118/115
f 199/118/115 122/103/100 198/104/101
f 125/106/103 111/119/116 210/108/105
f 210/108/105 111/119/116 209/120/117
f 135/115/112 117/121/118 134/113/110
f 134/113/110 117/121/118 110/122/119
f 115/123/120 132/112/109 102/124/121
f 102/124/121 132/112/109 129/110/107
f 129/110/107 165/125/122 102/124/121
f 102/124/121 165/125/122 166/126/123
f 137/127/124 162/128/125 103/129/126
f 103/129/126 162/128/125 163/130/127
f 139/131/128 168/132/129 104/133/130
f 104/133/130 168/132/129 169/134/131
f 204/135/132 122/103/100 203/136/133
f 203/136/133 122/103/100 101/117/114
f 201/137/134 143/138/135 200/139/136
f 200/139/136 143/138/135 107/140/137
f 177/141/138 145/142/139 176/143/140
f 176/143/140 145/142/139 108/144/141
f 174/145/142 147/146/143 173/147/144
f 173/147/144 147/146/143 109/148/145
f 171/149/146 134/113/110 170/150/147
f 170/150/147 134/113/110 110/122/119
f 125/106/103 207/151/148 111/119/116
f 111/119/116 207/151/148 208/152/149
f 195/153/150 151/154/151 194/155/152
f 194/155/152 151/154/151 113/156/153
f 151/154/151 192/157/154 113/156/153
f 113/156/153 192/157/154 193/158/155
f 189/159/156 132/112/109 188/160/157
f 188/160/157 132/112/109 115/123/120
f 135/115/112 180/161/158 117/121/118
f 117/121/118 180/161/158 181/162/159
f 155/163/160 183/164/161 118/165/162
f 118/165/162 183/164/161 184/166/163
f 157/167/164 186/168/165 119/169/166
f 119/169/166 186/168/165 187/170/167
f 213/171/168 128/172/169 212/173/170
f 212/173/170 128/172/169 116/174/171
f 202/175/172 144/176/173 201/137/134
f 201/137/134 144/176/173 143/138/135
f 126/105/102 206/177/174 125/106/103
f 125/106/103 206/177/174 207/151/148
f 130/109/106 164/178/175 129/110/107
f 129/110/107 164/178/175 165/125/122
f 136/116/113 179/179/176 135/115/112
f 135/115/112 179/179/176 180/161/158
f 138/180/177 161/181/178 137/127/124
f 137/127/124 161/181/178 162/128/125
f 140/182/179 167/183/180 139/131/128
f 139/131/128 167/183/180 168/132/129
f 121/101/98 122/103/100 205/184/181
f 205/184/181 122/103/100 204/135/132
f 177/141/138 178/185/182 145/142/139
f 145/142/139 178/185/182 146/186/183
f 174/145/142 175/187/184 147/146/143
f 147/146/143 175/187/184 148/188/185
f 133/114/111 134/113/110 172/189/186
f 172/189/186 134/113/110 171/149/146
f 195/153/150 196/190/187 151/154/151
f 151/154/151 196/190/187 152/191/188
f 152/191/188 191/192/189 151/154/151
f 151/154/151 191/192/189 192/157/154
f 131/111/108 132/112/109 190/193/190
f 190/193/190 132/112/109 189/159/156
f 156/194/191 182/195/192 155/163/160
f 155/163/160 182/195/192 183/164/161
f 158/196/193 185/197/194 157/167/164
f 157/167/164 185/197/194 186/168/165
f 127/198/195 128/172/169 214/199/196
f 214/199/196 128/172/169 213/171/168
f 162/128/125 161/181/178 139/131/128
f 139/131/128 161/181/178 140/182/179
f 163/130/127 162/128/125 104/133/130
f 104/133/130 162/128/125 139/131/128
f 164/178/175 138/180/177 165/125/122
f 165/125/122 138/180/177 137/127/124
f 166/126/123 165/125/122 103/129/126
f 103/129/126 165/125/122 137/127/124
f 168/132/129 167/183/180 141/200/197
f 141/200/197 167/183/180 142/201/198
f 169/134/131 168/132/129 105/202/199
f 105/202/199 168/132/129 141/200/197
f 147/146/143 171/149/146 109/148/145
f 109/148/145 171/149/146 170/150/147
f 172/189/186 171/149/146 148/188/185
f 148/188/185 171/149/146 147/146/143
f 145/142/139 174/145/142 108/144/141
f 108/144/141 174/145/142 173/147/144
f 146/186/183 175/187/184 145/142/139
f 145/142/139 175/187/184 174/145/142
f 143/138/135 177/203/138 107/140/137
f 107/140/137 177/203/138 176/204/140
f 144/176/173 178/205/182 143/138/135
f 143/138/135 178/205/182 177/203/138
f 179/179/176 156/194/191 180/161/158
f 180/161/158 156/194/191 155/163/160
f 181/162/159 180/161/158 118/165/162
f 118/165/162 180/161/158 155/163/160
f 183/164/161 182/195/192 157/167/164
f 157/167/164 182/195/192 158/196/193
f 184/166/163 183/164/161 119/169/166
f 119/169/166 183/164/161 157/167/164
f 186/168/165 185/197/194 159/206/200
f 159/206/200 185/197/194 160/207/201
f 187/170/167 186/168/165 120/208/202
f 120/208/202 186/168/165 159/206/200
f 153/209/203 189/159/156 114/210/204
f 114/210/204 189/159/156 188/160/157
f 190/193/190 189/159/156 154/211/205
f 154/211/205 189/159/156 153/209/203
f 192/157/154 191/192/189 153/209/203
f 153/209/203 191/192/189 154/211/205
f 193/158/155 192/157/154 114/210/204
f 114/210/204 192/157/154 153/209/203
f 149/212/206 195/213/150 112/214/207
f 112/214/207 195/213/150 194/215/152
f 150/216/208 196/217/187 149/212/206
f 149/212/206 196/217/187 195/213/150
f 198/104/101 197/102/99 123/218/209
f 123/218/209 197/102/99 124/219/210
f 199/118/115 198/104/101 106/220/211
f 106/220/211 198/104/101 123/218/209
f 123/218/209 201/137/134 106/220/211
f 106/220/211 201/137/134 200/139/136
f 124/219/210 202/175/172 123/218/209
f 123/218/209 202/175/172 201/137/134
f 141/221/197 204/135/132 105/222/199
f 105/222/199 204/135/132 203/136/133
f 205/184/181 204/135/132 142/223/198
f 142/223/198 204/135/132 141/221/197
f 206/177/174 150/216/208 207/151/148
f 207/151/148 150/216/208 149/212/206
f 208/152/149 207/151/148 112/214/207
f 112/214/207 207/151/148 149/212/206
f 210/108/105 209/120/117 128/172/169
f 128/172/169 209/120/117 116/174/171
f 210/108/105 128/172/169 211/107/104
f 211/107/104 128/172/169 127/198/195
f 159/224/200 213/171/168 120/225/202
f 120/225/202 213/171/168 212/173/170
f 214/199/196 213/171/168 160/226/201
f 160/226/201 213/171/168 159/224/200
f 254/227/212 255/228/213 133/229/111
f 133/229/111 255/228/213 136/230/113
f 254/227/212 253/231/49 255/228/213
f 255/228/213 253/231/49 256/232/49
f 269/233/49 267/234/49 271/235/49
f 267/234/49 225/236/49 271/235/49
f 225/236/49 223/237/49 271/235/49
f 271/235/49 223/237/49 273/238/49
f 223/237/49 221/239/49 273/238/49
f 221/239/49 219/240/49 273/238/49
f 273/238/49 219/240/49 249/241/49
f 219/240/49 217/242/49 249/241/49
f 217/242/49 215/243/49 249/241/49
f 215/243/49 265/244/49 249/241/49
f 265/244/49 263/245/49 249/241/49
f 263/245/49 261/246/49 249/241/49
f 261/246/49 259/247/49 249/241/49
f 249/241/49 259/247/49 251/248/49
f 259/247/49 241/249/49 251/248/49
f 251/248/49 241/249/49 253/231/49
f 241/249/49 239/250/49 253/231/49
f 253/231/49 239/250/49 256/232/49
f 239/250/49 243/251/49 256/232/49
f 243/251/49 247/252/49 256/232/49
f 256/232/49 247/252/49 257/253/49
f 247/252/49 245/254/49 257/253/49
f 257/253/49 245/254/49 283/255/49
f 245/254/49 281/256/49 283/255/49
f 283/255/49 281/256/49 285/257/49
f 281/256/49 279/258/49 285/257/49
f 285/257/49 279/258/49 287/259/49
f 279/258/49 277/260/49 287/259/49
f 277/260/49 275/261/49 287/259/49
f 275/261/49 229/262/49 287/259/49
f 229/262/49 227/263/49 287/259/49
f 227/263/49 233/264/49 287/259/49
f 233/264/49 231/265/49 287/259/49
f 231/265/49 237/266/49 287/259/49
f 237/266/49 235/267/49 287/259/49
f 235/267/49 289/268/49 287/259/49
f 215/243/49 216/269/214 265/244/49
f 265/244/49 216/269/214 266/270/215
f 216/269/214 142/271/198 266/270/215
f 266/270/215 142/271/198 167/272/180
f 218/273/216 205/274/181 216/269/214
f 216/269/214 205/274/181 142/271/198
f 215/243/49 217/242/49 216/269/214
f 216/269/214 217/242/49 218/273/216
f 220/275/217 121/276/98 218/273/216
f 218/273/216 121/276/98 205/274/181
f 218/273/216 217/242/49 220/275/217
f 220/275/217 217/242/49 219/240/49
f 220/275/217 222/277/218 121/276/98
f 121/276/98 222/277/218 197/278/99
f 219/240/49 221/239/49 220/275/217
f 220/275/217 221/239/49 222/277/218
f 224/279/219 124/280/210 222/277/218
f 222/277/218 124/280/210 197/278/99
f 222/277/218 221/239/49 224/279/219
f 224/279/219 221/239/49 223/237/49
f 224/279/219 226/281/220 124/280/210
f 124/280/210 226/281/220 202/282/172
f 223/237/49 225/236/49 224/279/219
f 224/279/219 225/236/49 226/281/220
f 227/263/49 228/283/221 233/264/49
f 233/264/49 228/283/221 234/284/222
f 228/283/221 126/285/102 234/284/222
f 234/284/222 126/285/102 211/286/104
f 228/283/221 230/287/223 126/285/102
f 126/285/102 230/287/223 206/288/174
f 227/263/49 229/262/49 228/283/221
f 228/283/221 229/262/49 230/287/223
f 231/265/49 232/289/224 237/266/49
f 237/266/49 232/289/224 238/290/225
f 232/289/224 127/291/195 238/290/225
f 238/290/225 127/291/195 214/292/196
f 232/289/224 234/284/222 127/291/195
f 127/291/195 234/284/222 211/286/104
f 231/265/49 233/264/49 232/289/224
f 232/289/224 233/264/49 234/284/222
f 235/267/49 236/293/226 289/268/49
f 289/268/49 236/293/226 290/294/227
f 236/293/226 160/295/201 290/294/227
f 290/294/227 160/295/201 185/296/194
f 238/290/225 214/292/196 236/293/226
f 236/293/226 214/292/196 160/295/201
f 235/267/49 237/266/49 236/293/226
f 236/293/226 237/266/49 238/290/225
f 239/250/49 240/297/228 243/251/49
f 243/251/49 240/297/228 244/298/229
f 244/298/229 240/297/228 131/299/108
f 131/299/108 240/297/228 130/300/106
f 240/297/228 242/301/230 130/300/106
f 130/300/106 242/301/230 164/302/175
f 239/250/49 241/249/49 240/297/228
f 240/297/228 241/249/49 242/301/230
f 243/251/49 244/298/229 247/252/49
f 247/252/49 244/298/229 248/303/231
f 244/298/229 131/299/108 248/303/231
f 248/303/231 131/299/108 190/304/190
f 245/254/49 246/305/232 281/256/49
f 281/256/49 246/305/232 282/306/233
f 246/305/232 154/307/205 282/306/233
f 282/306/233 154/307/205 191/308/189
f 248/303/231 190/304/190 246/305/232
f 246/305/232 190/304/190 154/307/205
f 245/254/49 247/252/49 246/305/232
f 246/305/232 247/252/49 248/303/231
f 249/241/49 250/309/234 273/238/49
f 273/238/49 250/309/234 274/310/235
f 250/309/234 148/311/185 274/310/235
f 274/310/235 148/311/185 175/312/184
f 252/313/236 172/314/186 250/309/234
f 250/309/234 172/314/186 148/311/185
f 249/241/49 251/248/49 250/309/234
f 250/309/234 251/248/49 252/313/236
f 254/227/212 133/229/111 252/313/236
f 252/313/236 133/229/111 172/314/186
f 252/313/236 251/248/49 254/227/212
f 254/227/212 251/248/49 253/231/49
f 255/228/213 258/315/237 136/230/113
f 136/230/113 258/315/237 179/316/176
f 256/232/49 257/253/49 255/228/213
f 255/228/213 257/253/49 258/315/237
f 242/301/230 260/317/238 164/302/175
f 164/302/175 260/317/238 138/318/177
f 241/249/49 259/247/49 242/301/230
f 242/301/230 259/247/49 260/317/238
f 260/317/238 262/319/239 138/318/177
f 138/318/177 262/319/239 161/320/178
f 259/247/49 261/246/49 260/317/238
f 260/317/238 261/246/49 262/319/239
f 264/321/240 140/322/179 262/319/239
f 262/319/239 140/322/179 161/320/178
f 262/319/239 261/246/49 264/321/240
f 264/321/240 261/246/49 263/245/49
f 264/321/240 266/270/215 140/322/179
f 140/322/179 266/270/215 167/272/180
f 263/245/49 265/244/49 264/321/240
f 264/321/240 265/244/49 266/270/215
f 226/281/220 268/323/241 202/282/172
f 202/282/172 268/323/241 144/324/173
f 226/281/220 225/236/49 268/323/241
f 268/323/241 225/236/49 267/234/49
f 268/323/241 270/325/242 144/324/173
f 144/324/173 270/325/242 178/326/182
f 267/234/49 269/233/49 268/323/241
f 268/323/241 269/233/49 270/325/242
f 272/327/243 146/328/183 270/325/242
f 270/325/242 146/328/183 178/326/182
f 270/325/242 269/233/49 272/327/243
f 272/327/243 269/233/49 271/235/49
f 272/327/243 274/310/235 146/328/183
f 146/328/183 274/310/235 175/312/184
f 271/235/49 273/238/49 272/327/243
f 272/327/243 273/238/49 274/310/235
f 230/287/223 276/329/244 206/288/174
f 206/288/174 276/329/244 150/330/208
f 230/287/223 229/262/49 276/329/244
f 276/329/244 229/262/49 275/261/49
f 276/329/244 278/331/245 150/330/208
f 150/330/208 278/331/245 196/332/187
f 275/261/49 277/260/49 276/329/244
f 276/329/244 277/260/49 278/331/245
f 280/333/246 152/334/188 278/331/245
f 278/331/245 152/334/188 196/332/187
f 278/331/245 277/260/49 280/333/246
f 280/333/246 277/260/49 279/258/49
f 280/333/246 282/306/233 152/334/188
f 152/334/188 282/306/233 191/308/189
f 279/258/49 281/256/49 280/333/246
f 280/333/246 281/256/49 282/306/233
f 258/315/237 284/335/247 179/316/176
f 179/316/176 284/335/247 156/336/191
f 257/253/49 283/255/49 258/315/237
f 258/315/237 283/255/49 284/335/247
f 284/335/247 286/337/248 156/336/191
f 156/336/191 286/337/248 182/338/192
f 283/255/49 285/257/49 284/335/247
f 284/335/247 285/257/49 286/337/248
f 288/339/249 158/340/193 286/337/248
f 286/337/248 158/340/193 182/338/192
f 286/337/248 285/257/49 288/339/249
f 288/339/249 285/257/49 287/259/49
f 288/339/249 290/294/227 158/340/193
f 158/340/193 290/294/227 185/296/194
f 287/259/49 289/268/49 288/339/249
f 288/339/249 289/268/49 290/294/227
