# Blender 4.0.0
# www.blender.org
o sideR_knob_doneness
v 0.07695750 -0.11291150 -0.03768700
v 0.08117250 -0.11291150 -0.03650300
v 0.07859750 -0.11291150 -0.03362800
v 0.08775550 -0.10032850 -0.04222200
v 0.09077550 -0.10032850 -0.04115200
v 0.09344450 -0.10032850 -0.03934200
v 0.09553550 -0.10032850 -0.03688800
v 0.09692950 -0.10032850 -0.03400300
v 0.08150850 -0.10032850 -0.04187900
v 0.08460950 -0.10032850 -0.04246200
v 0.07617050 -0.10032850 -0.03839300
v 0.07862450 -0.10032850 -0.04048400
v 0.07328950 -0.10032850 -0.03270400
v 0.07436050 -0.10032850 -0.03572400
v 0.07363250 -0.10032850 -0.02645700
v 0.07305050 -0.10032850 -0.02955800
v 0.07711850 -0.10032850 -0.02111800
v 0.07502850 -0.10032850 -0.02357300
v 0.08280750 -0.10032850 -0.01823800
v 0.07978850 -0.10032850 -0.01931000
v 0.08905450 -0.10032850 -0.01858200
v 0.08595350 -0.10032850 -0.01799900
v 0.09439350 -0.10032850 -0.02206800
v 0.09193850 -0.10032850 -0.01997700
v 0.09727350 -0.10032850 -0.02775600
v 0.09620250 -0.10032850 -0.02473700
v 0.09751350 -0.10032850 -0.03090300
v 0.08528150 -0.11272950 -0.03023100
v 0.09077550 -0.11217850 -0.04115200
v 0.08775550 -0.11217850 -0.04222200
v 0.09344450 -0.11217850 -0.03934200
v 0.09335250 -0.11259150 -0.03923900
v 0.09071350 -0.11259150 -0.04102800
v 0.08772750 -0.11259150 -0.04208700
v 0.09553550 -0.11217850 -0.03688800
v 0.09692950 -0.11217850 -0.03400300
v 0.09679950 -0.11259150 -0.03396000
v 0.09541950 -0.11259150 -0.03681300
v 0.08460950 -0.11217850 -0.04246200
v 0.08150850 -0.11217850 -0.04187900
v 0.08461750 -0.11259150 -0.04232500
v 0.08155050 -0.11259150 -0.04174800
v 0.07862450 -0.11217850 -0.04048400
v 0.07617050 -0.11217850 -0.03839300
v 0.07869850 -0.11259150 -0.04036800
v 0.07627250 -0.11259150 -0.03830100
v 0.07436050 -0.11217850 -0.03572400
v 0.07328950 -0.11217850 -0.03270400
v 0.07448350 -0.11259150 -0.03566200
v 0.07342450 -0.11259150 -0.03267700
v 0.07305050 -0.11217850 -0.02955800
v 0.07363250 -0.11217850 -0.02645700
v 0.07318750 -0.11259150 -0.02956600
v 0.07376350 -0.11259150 -0.02650000
v 0.07502850 -0.11217850 -0.02357300
v 0.07711850 -0.11217850 -0.02111800
v 0.07514350 -0.11259150 -0.02364800
v 0.07721150 -0.11259150 -0.02122200
v 0.07978850 -0.11217850 -0.01931000
v 0.08280750 -0.11217850 -0.01823800
v 0.07984950 -0.11259150 -0.01943200
v 0.08283550 -0.11259150 -0.01837300
v 0.08595350 -0.11217850 -0.01799900
v 0.08905450 -0.11217850 -0.01858200
v 0.08594650 -0.11259150 -0.01813600
v 0.08901250 -0.11259150 -0.01871200
v 0.09193850 -0.11217850 -0.01997700
v 0.09439350 -0.11217850 -0.02206800
v 0.09186450 -0.11259150 -0.02009300
v 0.09429050 -0.11259150 -0.02216000
v 0.09620250 -0.11217850 -0.02473700
v 0.09727350 -0.11217850 -0.02775600
v 0.09607950 -0.11259150 -0.02479800
v 0.09713850 -0.11259150 -0.02778400
v 0.09751350 -0.11217850 -0.03090300
v 0.09737650 -0.11259150 -0.03089500
v 0.09052750 -0.11272950 -0.04066000
v 0.09307550 -0.11272950 -0.03893100
v 0.08764350 -0.11272950 -0.04168300
v 0.09507350 -0.11272950 -0.03658700
v 0.09640650 -0.11272950 -0.03383300
v 0.08463950 -0.11272950 -0.04191200
v 0.08167950 -0.11272950 -0.04135600
v 0.07892550 -0.11272950 -0.04002200
v 0.07658150 -0.11272950 -0.03802500
v 0.07485250 -0.11272950 -0.03547600
v 0.07382850 -0.11272950 -0.03259100
v 0.07359950 -0.11272950 -0.02958900
v 0.07415650 -0.11272950 -0.02662900
v 0.07549050 -0.11272950 -0.02387400
v 0.07748750 -0.11272950 -0.02152900
v 0.08003650 -0.11272950 -0.01980100
v 0.08292050 -0.11272950 -0.01877800
v 0.08592350 -0.11272950 -0.01854900
v 0.08888350 -0.11272950 -0.01910500
v 0.09163850 -0.11272950 -0.02043900
v 0.09398250 -0.11272950 -0.02243700
v 0.09571150 -0.11272950 -0.02498500
v 0.09673450 -0.11272950 -0.02786900
v 0.09696250 -0.11272950 -0.03087200
v 0.08130550 -0.12377150 -0.03514200
v 0.07983450 -0.12377150 -0.03368600
v 0.07874950 -0.12377150 -0.03625400
v 0.07809450 -0.11255050 -0.03779100
v 0.08406650 -0.11255050 -0.03573100
v 0.08239150 -0.11255050 -0.03712300
v 0.08066750 -0.11255050 -0.03800300
v 0.07915850 -0.11255050 -0.03823700
v 0.07722050 -0.11255050 -0.03692600
v 0.07676250 -0.11255050 -0.03586700
v 0.07698050 -0.11255050 -0.03435500
v 0.07784150 -0.11255050 -0.03262200
v 0.07921450 -0.11255050 -0.03093200
v 0.09334250 -0.11255050 -0.02237400
v 0.09380150 -0.11255050 -0.02343400
v 0.09358350 -0.11255050 -0.02494500
v 0.09272250 -0.11255050 -0.02667800
v 0.09134950 -0.11255050 -0.02836900
v 0.09246950 -0.11255050 -0.02151000
v 0.08649650 -0.11255050 -0.02356900
v 0.08817250 -0.11255050 -0.02217800
v 0.08989550 -0.11255050 -0.02129800
v 0.09140450 -0.11255050 -0.02106300
v 0.07827550 -0.12340250 -0.03755500
v 0.07809450 -0.12283350 -0.03779100
v 0.07722050 -0.12283350 -0.03692600
v 0.07745350 -0.12340250 -0.03674300
v 0.09334250 -0.12283350 -0.02237400
v 0.09310950 -0.12340250 -0.02255800
v 0.09228750 -0.12340250 -0.02174600
v 0.09246950 -0.12283350 -0.02151000
v 0.08406650 -0.12283350 -0.03573100
v 0.08391150 -0.12340250 -0.03555300
v 0.09116850 -0.12340250 -0.02821600
v 0.09134950 -0.12283350 -0.02836900
v 0.07939450 -0.12340250 -0.03108400
v 0.07921450 -0.12283350 -0.03093200
v 0.08649650 -0.12283350 -0.02356900
v 0.08665150 -0.12340250 -0.02374800
v 0.08239150 -0.12283350 -0.03712300
v 0.08228050 -0.12340250 -0.03690700
v 0.08066750 -0.12283350 -0.03800300
v 0.08063750 -0.12340250 -0.03774600
v 0.07915850 -0.12283350 -0.03823700
v 0.07924650 -0.12340250 -0.03796200
v 0.07676250 -0.12283350 -0.03586700
v 0.07703650 -0.12340250 -0.03577600
v 0.07698050 -0.12283350 -0.03435500
v 0.07723750 -0.12340250 -0.03438300
v 0.07784150 -0.12283350 -0.03262200
v 0.07805750 -0.12340250 -0.03273000
v 0.09380150 -0.12283350 -0.02343400
v 0.09352750 -0.12340250 -0.02352400
v 0.09358350 -0.12283350 -0.02494500
v 0.09332650 -0.12340250 -0.02491800
v 0.09272250 -0.12283350 -0.02667800
v 0.09250550 -0.12340250 -0.02657000
v 0.08817250 -0.12283350 -0.02217800
v 0.08828250 -0.12340250 -0.02239300
v 0.08989550 -0.12283350 -0.02129800
v 0.08992550 -0.12340250 -0.02155500
v 0.09140450 -0.12283350 -0.02106300
v 0.09131650 -0.12340250 -0.02133800
v 0.08135950 -0.12340250 -0.03747500
v 0.08142450 -0.12283350 -0.03771800
v 0.08142450 -0.11255050 -0.03771800
v 0.08305850 -0.12340250 -0.03632100
v 0.08318950 -0.12283350 -0.03652000
v 0.08318950 -0.11255050 -0.03652000
v 0.07983650 -0.12340250 -0.03797800
v 0.07979850 -0.12283350 -0.03825500
v 0.07979850 -0.11255050 -0.03825500
v 0.07843450 -0.11255050 -0.03181700
v 0.07843450 -0.12283350 -0.03181700
v 0.07863550 -0.12340250 -0.03194700
v 0.07725650 -0.11255050 -0.03359600
v 0.07725650 -0.12283350 -0.03359600
v 0.07750050 -0.12340250 -0.03365800
v 0.07673750 -0.11255050 -0.03522700
v 0.07673750 -0.12283350 -0.03522700
v 0.07701350 -0.12340250 -0.03518600
v 0.08750550 -0.12340250 -0.02298000
v 0.08737350 -0.12283350 -0.02278000
v 0.08737350 -0.11255050 -0.02278000
v 0.08920450 -0.12340250 -0.02182600
v 0.08913850 -0.12283350 -0.02158200
v 0.08913850 -0.11255050 -0.02158200
v 0.09072650 -0.12340250 -0.02132200
v 0.09076450 -0.12283350 -0.02104600
v 0.09076450 -0.11255050 -0.02104600
v 0.09212850 -0.11255050 -0.02748300
v 0.09212850 -0.12283350 -0.02748300
v 0.09192750 -0.12340250 -0.02735400
v 0.09306250 -0.12340250 -0.02564200
v 0.09330650 -0.12283350 -0.02570500
v 0.09330650 -0.11255050 -0.02570500
v 0.09382550 -0.11255050 -0.02407300
v 0.09382550 -0.12283350 -0.02407300
v 0.09354950 -0.12340250 -0.02411400
v 0.07780750 -0.12340250 -0.03720700
v 0.07759650 -0.12283350 -0.03742000
v 0.07759650 -0.11255050 -0.03742000
v 0.07692950 -0.11255050 -0.03645700
v 0.07692950 -0.12283350 -0.03645700
v 0.07718850 -0.12340250 -0.03631400
v 0.07856750 -0.11255050 -0.03807700
v 0.07856750 -0.12283350 -0.03807700
v 0.07870650 -0.12340250 -0.03781600
v 0.09337450 -0.12340250 -0.02298600
v 0.09363450 -0.12283350 -0.02284400
v 0.09363450 -0.11255050 -0.02284400
v 0.09296650 -0.11255050 -0.02188100
v 0.09296650 -0.12283350 -0.02188100
v 0.09275550 -0.12340250 -0.02209400
v 0.09199650 -0.11255050 -0.02122400
v 0.09199650 -0.12283350 -0.02122400
v 0.09185650 -0.12340250 -0.02148500
v 0.07956250 -0.12363750 -0.03700000
v 0.07945750 -0.12363750 -0.03729900
v 0.07920950 -0.12363750 -0.03690400
v 0.07904350 -0.12363750 -0.03718600
v 0.07891450 -0.12363750 -0.03672500
v 0.07871250 -0.12363750 -0.03698600
v 0.07855150 -0.12363750 -0.03645500
v 0.07831750 -0.12363750 -0.03669100
v 0.07827650 -0.12363750 -0.03609400
v 0.07801850 -0.12363750 -0.03629900
v 0.07809650 -0.12363750 -0.03580100
v 0.07781450 -0.12363750 -0.03597100
v 0.09228650 -0.12363750 -0.02320600
v 0.09254550 -0.12363750 -0.02300100
v 0.09246650 -0.12363750 -0.02350000
v 0.09274850 -0.12363750 -0.02333000
v 0.09164850 -0.12363750 -0.02257500
v 0.09185050 -0.12363750 -0.02231500
v 0.09201150 -0.12363750 -0.02284600
v 0.09224650 -0.12363750 -0.02260900
v 0.09100050 -0.12363750 -0.02230100
v 0.09110550 -0.12363750 -0.02200200
v 0.09135350 -0.12363750 -0.02239700
v 0.09151950 -0.12363750 -0.02211400
v 0.08335850 -0.12363750 -0.03492700
v 0.08353750 -0.12363750 -0.03512200
v 0.08258250 -0.12363750 -0.03562400
v 0.08274050 -0.12363750 -0.03583900
v 0.09053850 -0.12363750 -0.02766800
v 0.09073350 -0.12363750 -0.02784700
v 0.09174550 -0.12363750 -0.02618200
v 0.09198150 -0.12363750 -0.02630900
v 0.09122750 -0.12363750 -0.02688500
v 0.09144250 -0.12363750 -0.02704200
v 0.07881850 -0.12363750 -0.03311900
v 0.07858150 -0.12363750 -0.03299100
v 0.07933650 -0.12363750 -0.03241600
v 0.07912150 -0.12363750 -0.03225900
v 0.08002450 -0.12363750 -0.03163300
v 0.07982950 -0.12363750 -0.03145400
v 0.08702550 -0.12363750 -0.02417900
v 0.08720550 -0.12363750 -0.02437400
v 0.08798050 -0.12363750 -0.02367600
v 0.08782250 -0.12363750 -0.02346200
v 0.08188550 -0.12363750 -0.03615000
v 0.08201450 -0.12363750 -0.03638700
v 0.08112050 -0.12363750 -0.03662000
v 0.08120150 -0.12363750 -0.03688700
v 0.08053150 -0.12363750 -0.03684300
v 0.08056550 -0.12363750 -0.03712600
v 0.07995450 -0.12363750 -0.03700800
v 0.07992750 -0.12363750 -0.03731100
v 0.07799650 -0.12363750 -0.03544900
v 0.07769750 -0.12363750 -0.03555800
v 0.07798050 -0.12363750 -0.03505800
v 0.07767950 -0.12363750 -0.03508800
v 0.07814050 -0.12363750 -0.03448200
v 0.07785750 -0.12363750 -0.03444800
v 0.07835550 -0.12363750 -0.03389000
v 0.07808950 -0.12363750 -0.03380900
v 0.09256650 -0.12363750 -0.02385200
v 0.09286550 -0.12363750 -0.02374300
v 0.09258250 -0.12363750 -0.02424300
v 0.09288350 -0.12363750 -0.02421300
v 0.09242250 -0.12363750 -0.02481900
v 0.09270550 -0.12363750 -0.02485300
v 0.09220750 -0.12363750 -0.02541100
v 0.09247350 -0.12363750 -0.02549100
v 0.08867750 -0.12363750 -0.02315100
v 0.08854950 -0.12363750 -0.02291400
v 0.08944250 -0.12363750 -0.02268000
v 0.08936150 -0.12363750 -0.02241300
v 0.09003150 -0.12363750 -0.02245800
v 0.08999750 -0.12363750 -0.02217400
v 0.09060850 -0.12363750 -0.02229200
v 0.09063550 -0.12363750 -0.02198900
vn -0.0000 -1.0000 -0.0000
vn 0.4513 -0.0000 -0.8924
vn 0.6672 -0.0000 -0.7448
vn 0.4513 -0.0089 -0.8923
vn 0.6672 -0.0090 -0.7448
vn 0.2078 -0.0000 -0.9782
vn 0.2069 -0.0089 -0.9783
vn 0.8376 -0.0000 -0.5463
vn 0.9495 -0.0000 -0.3136
vn 0.8375 -0.0089 -0.5463
vn 0.9494 -0.0090 -0.3138
vn -0.0548 -0.0000 -0.9985
vn -0.0549 -0.0089 -0.9985
vn -0.3129 -0.0000 -0.9498
vn -0.3128 -0.0089 -0.9498
vn -0.5464 -0.0000 -0.8375
vn -0.5463 -0.0089 -0.8375
vn -0.7448 -0.0000 -0.6673
vn -0.7448 -0.0089 -0.6672
vn -0.8923 -0.0000 -0.4514
vn -0.8923 -0.0089 -0.4513
vn -0.9784 -0.0000 -0.2068
vn -0.9783 -0.0089 -0.2068
vn -0.9985 -0.0000 0.0549
vn -0.9985 -0.0089 0.0549
vn -0.9498 -0.0000 0.3129
vn -0.9498 -0.0089 0.3128
vn -0.8376 -0.0000 0.5463
vn -0.8375 -0.0090 0.5464
vn -0.6672 -0.0000 0.7448
vn -0.6673 -0.0089 0.7447
vn -0.4513 -0.0000 0.8924
vn -0.4512 -0.0089 0.8924
vn -0.2077 -0.0000 0.9782
vn -0.2069 -0.0089 0.9783
vn 0.0549 -0.0000 0.9985
vn 0.0549 -0.0089 0.9985
vn 0.3135 -0.0000 0.9496
vn 0.3128 -0.0089 0.9498
vn 0.5464 -0.0000 0.8375
vn 0.5464 -0.0089 0.8375
vn 0.7449 -0.0000 0.6672
vn 0.7448 -0.0089 0.6672
vn 0.8923 -0.0000 0.4514
vn 0.8923 -0.0089 0.4513
vn 0.9782 -0.0000 0.2075
vn 0.9783 -0.0089 0.2069
vn 0.9985 -0.0000 -0.0549
vn 0.9985 -0.0089 -0.0549
vn 0.0054 -0.9997 -0.0255
vn 0.0121 -0.9997 -0.0230
vn 0.0175 -0.9997 -0.0195
vn 0.0216 -0.9997 -0.0145
vn 0.0245 -0.9997 -0.0090
vn -0.0082 -0.9997 -0.0248
vn -0.0014 -0.9997 -0.0260
vn -0.0195 -0.9997 -0.0175
vn -0.0145 -0.9997 -0.0216
vn -0.0255 -0.9997 -0.0054
vn -0.0230 -0.9997 -0.0121
vn -0.0248 -0.9997 0.0082
vn -0.0260 -0.9997 0.0014
vn -0.0175 -0.9997 0.0195
vn -0.0216 -0.9997 0.0145
vn -0.0054 -0.9997 0.0255
vn -0.0120 -0.9997 0.0230
vn 0.0082 -0.9997 0.0248
vn 0.0014 -0.9997 0.0260
vn 0.0195 -0.9997 0.0175
vn 0.0145 -0.9997 0.0216
vn 0.0255 -0.9997 0.0054
vn 0.0230 -0.9997 0.0120
vn 0.0260 -0.9997 -0.0014
vn 0.3295 -0.6840 -0.6508
vn 0.4870 -0.6835 -0.5437
vn 0.1519 -0.6832 -0.7143
vn 0.6108 -0.6840 -0.3989
vn 0.6932 -0.6833 -0.2292
vn -0.0400 -0.6833 -0.7290
vn -0.2293 -0.6832 -0.6933
vn -0.3990 -0.6841 -0.6106
vn -0.5437 -0.6835 -0.4871
vn -0.6506 -0.6842 -0.3296
vn -0.7142 -0.6832 -0.1519
vn -0.7291 -0.6832 0.0401
vn -0.6932 -0.6833 0.2292
vn -0.6107 -0.6841 0.3989
vn -0.4870 -0.6835 0.5437
vn -0.3296 -0.6841 0.6507
vn -0.1518 -0.6834 0.7141
vn 0.0401 -0.6835 0.7289
vn 0.2292 -0.6834 0.6931
vn 0.3989 -0.6842 0.6105
vn 0.5437 -0.6835 0.4870
vn 0.6506 -0.6841 0.3297
vn 0.7141 -0.6834 0.1519
vn 0.7288 -0.6836 -0.0401
vn -0.3728 -0.7471 -0.5503
vn -0.4688 -0.7454 -0.4739
vn -0.5642 -0.0589 -0.8235
vn -0.7006 -0.0588 -0.7111
vn 0.5460 -0.7471 0.3791
vn 0.8173 -0.0591 0.5732
vn 0.4689 -0.7454 0.4739
vn 0.7020 -0.0588 0.7097
vn 0.5073 -0.7005 -0.5019
vn 0.7086 -0.0219 -0.7053
vn 0.5084 -0.6991 -0.5028
vn 0.7121 -0.0222 -0.7017
vn -0.7121 -0.0222 0.7017
vn -0.5082 -0.6993 0.5027
vn -0.7104 -0.0223 0.7035
vn -0.5073 -0.7005 0.5019
vn -0.5601 -0.0000 -0.8284
vn -0.7032 -0.0000 -0.7110
vn 0.8223 -0.0000 0.5691
vn 0.7032 -0.0000 0.7110
vn -0.7108 -0.0000 0.7034
vn -0.7111 -0.0000 0.7031
vn 0.7111 -0.0000 -0.7031
vn 0.7108 -0.0000 -0.7034
vn 0.6420 -0.0229 -0.7663
vn 0.6393 -0.0000 -0.7689
vn 0.5604 -0.0241 -0.8279
vn 0.4555 -0.0277 -0.8898
vn 0.5607 -0.0000 -0.8280
vn 0.4556 -0.0000 -0.8902
vn 0.3119 -0.0313 -0.9496
vn 0.1474 -0.0390 -0.9883
vn 0.3127 -0.0000 -0.9498
vn 0.1491 -0.0000 -0.9888
vn -0.3927 -0.0543 -0.9181
vn -0.3898 -0.0000 -0.9209
vn -0.9151 -0.0544 -0.3996
vn -0.9860 -0.0481 -0.1599
vn -0.9166 -0.0000 -0.3998
vn -0.9877 -0.0000 -0.1564
vn -0.9901 -0.0389 0.1346
vn -0.9537 -0.0312 0.2991
vn -0.9904 -0.0000 0.1383
vn -0.9532 -0.0000 0.3024
vn -0.8957 -0.0276 0.4437
vn -0.8362 -0.0241 0.5479
vn -0.8951 -0.0000 0.4459
vn -0.8341 -0.0000 0.5516
vn -0.7761 -0.0228 0.6302
vn -0.7759 -0.0000 0.6309
vn 0.9143 -0.0543 0.4014
vn 0.9166 -0.0000 0.3998
vn 0.9901 -0.0389 -0.1347
vn 0.9537 -0.0312 -0.2991
vn 0.9904 -0.0000 -0.1383
vn 0.9532 -0.0000 -0.3024
vn 0.8966 -0.0273 -0.4421
vn 0.8951 -0.0000 -0.4458
vn 0.7761 -0.0228 -0.6302
vn 0.7759 -0.0000 -0.6309
vn -0.6420 -0.0229 0.7663
vn -0.6393 -0.0000 0.7689
vn -0.5604 -0.0241 0.8279
vn -0.4555 -0.0277 0.8898
vn -0.5607 -0.0000 0.8280
vn -0.4556 -0.0000 0.8902
vn -0.3119 -0.0313 0.9496
vn -0.1474 -0.0390 0.9883
vn -0.3128 -0.0000 0.9498
vn -0.1491 -0.0000 0.9888
vn 0.3927 -0.0543 0.9181
vn 0.5594 -0.0587 0.8268
vn 0.3898 -0.0000 0.9209
vn 0.5601 -0.0000 0.8285
vn -0.6192 -0.7369 -0.2712
vn -0.6721 -0.7326 -0.1075
vn 0.6190 -0.7369 0.2717
vn 0.4571 -0.7002 -0.5483
vn -0.4571 -0.7002 0.5483
vn 0.4010 -0.7006 -0.5901
vn 0.3244 -0.7045 -0.6313
vn 0.2211 -0.7100 -0.6686
vn 0.1073 -0.7167 -0.6891
vn -0.2648 -0.7369 -0.6220
vn -0.6902 -0.7167 0.0998
vn -0.6713 -0.7101 0.2125
vn -0.6348 -0.7045 0.3175
vn -0.5947 -0.7007 0.3942
vn -0.5538 -0.7000 0.4509
vn 0.6902 -0.7167 -0.0998
vn 0.6713 -0.7101 -0.2125
vn 0.6366 -0.7029 -0.3173
vn 0.5538 -0.7000 -0.4509
vn -0.4010 -0.7006 0.5901
vn -0.3244 -0.7045 0.6313
vn -0.2211 -0.7100 0.6686
vn -0.1073 -0.7167 0.6891
vn 0.3731 -0.7471 0.5501
vn 0.2648 -0.7369 0.6220
vn -0.1475 -0.0483 -0.9879
vn -0.1005 -0.7327 -0.6731
vn -0.1456 -0.0000 -0.9893
vn 0.1475 -0.0483 0.9879
vn 0.1005 -0.7327 0.6731
vn 0.1456 -0.0000 0.9893
vn 0.8344 -0.0241 -0.5507
vn 0.8341 -0.0000 -0.5516
vn 0.5945 -0.7007 -0.3944
vn 0.9862 -0.0483 0.1583
vn 0.9876 -0.0000 0.1568
vn 0.6723 -0.7325 0.1069
vn -0.8202 -0.0590 -0.5691
vn -0.5460 -0.7471 -0.3791
vn -0.8222 -0.0000 -0.5691
vn -0.1959 -0.9614 0.1933
vn -0.1969 -0.9611 0.1936
vn -0.0403 -0.9652 -0.2584
vn 0.0285 -0.9627 -0.2689
vn -0.1074 -0.9681 -0.2262
vn -0.1412 -0.9699 -0.1984
vn -0.1812 -0.9683 -0.1717
vn -0.1968 -0.9699 -0.1433
vn -0.2294 -0.9681 -0.1008
vn 0.1935 -0.9700 0.1471
vn 0.1757 -0.9683 0.1777
vn 0.2294 -0.9681 0.1008
vn 0.1317 -0.9699 0.2050
vn 0.1074 -0.9682 0.2261
vn 0.0403 -0.9652 0.2584
vn -0.0285 -0.9627 0.2689
vn 0.1958 -0.9611 -0.1949
vn 0.1964 -0.9614 -0.1929
vn 0.1829 -0.9609 -0.2081
vn 0.2165 -0.9611 -0.1715
vn 0.2275 -0.9609 -0.1579
vn 0.2526 -0.9608 -0.1140
vn -0.2275 -0.9609 0.1579
vn -0.2526 -0.9608 0.1140
vn -0.2168 -0.9611 0.1711
vn -0.1829 -0.9608 0.2081
vn 0.1605 -0.9612 -0.2243
vn 0.1316 -0.9608 -0.2440
vn 0.0698 -0.9638 -0.2574
vn -0.2574 -0.9652 -0.0453
vn -0.2693 -0.9624 0.0351
vn -0.2584 -0.9637 0.0670
vn 0.2574 -0.9652 0.0453
vn 0.2693 -0.9624 -0.0351
vn 0.2584 -0.9637 -0.0670
vn -0.1605 -0.9612 0.2243
vn -0.1316 -0.9608 0.2440
vn -0.0698 -0.9638 0.2575
vt 0.375000 0.125000
vt 0.625000 0.000000
vt 0.625000 0.250000
vt 0.897670 0.732253
vt 0.919175 0.734627
vt 0.899276 0.772678
vt 0.910157 0.774087
vt 0.876422 0.735546
vt 0.888464 0.774118
vt 0.939308 0.742554
vt 0.956559 0.755381
vt 0.920284 0.778305
vt 0.928938 0.784951
vt 0.857039 0.744041
vt 0.878546 0.778264
vt 0.840452 0.757195
vt 0.870022 0.784819
vt 0.827627 0.774438
vt 0.863371 0.793464
vt 0.819696 0.794569
vt 0.859153 0.803596
vt 0.817320 0.816082
vt 0.857743 0.814480
vt 0.820610 0.837323
vt 0.859183 0.825289
vt 0.829107 0.856711
vt 0.863331 0.835209
vt 0.842257 0.873297
vt 0.869885 0.843731
vt 0.859506 0.886126
vt 0.878534 0.850384
vt 0.879640 0.894056
vt 0.888665 0.854602
vt 0.901148 0.896433
vt 0.899548 0.856011
vt 0.922396 0.893141
vt 0.910360 0.854571
vt 0.941785 0.884643
vt 0.920280 0.850423
vt 0.958370 0.871490
vt 0.928802 0.843868
vt 0.971196 0.854246
vt 0.935454 0.835222
vt 0.979128 0.834106
vt 0.939673 0.825088
vt 0.981503 0.812598
vt 0.941082 0.814206
vt 0.978212 0.791355
vt 0.939644 0.803396
vt 0.969710 0.771962
vt 0.935496 0.793473
vt 0.899413 0.814344
vt 0.889212 0.776906
vt 0.899278 0.775580
vt 0.909413 0.776883
vt 0.918844 0.780818
vt 0.926913 0.786990
vt 0.872055 0.786842
vt 0.879986 0.780755
vt 0.861949 0.804338
vt 0.865887 0.794912
vt 0.861973 0.824545
vt 0.860646 0.814475
vt 0.871910 0.841699
vt 0.865819 0.833768
vt 0.889408 0.851808
vt 0.879982 0.847866
vt 0.909612 0.851780
vt 0.899545 0.853106
vt 0.926769 0.841846
vt 0.918836 0.847934
vt 0.936876 0.824344
vt 0.932938 0.833772
vt 0.936853 0.804140
vt 0.938181 0.814208
vt 0.933003 0.794917
vt 0.899278 0.774127
vt 0.909787 0.775483
vt 0.888836 0.775511
vt 0.919566 0.779560
vt 0.927929 0.785972
vt 0.879267 0.779505
vt 0.871033 0.785826
vt 0.864631 0.794194
vt 0.860549 0.803965
vt 0.859193 0.814475
vt 0.860576 0.824916
vt 0.864573 0.834489
vt 0.870892 0.842720
vt 0.879260 0.849124
vt 0.889035 0.853205
vt 0.899544 0.854562
vt 0.909987 0.853178
vt 0.919559 0.849181
vt 0.927791 0.842862
vt 0.934193 0.834493
vt 0.938277 0.824718
vt 0.939633 0.814211
vt 0.938250 0.803769
vt 0.934254 0.794193
vt 0.598034 0.661726
vt 0.589606 0.661726
vt 0.593820 0.651184
vt 0.894230 0.894930
vt 0.891919 0.894829
vt 0.894493 0.892435
vt 0.892034 0.892328
vt 0.876335 0.851651
vt 0.876372 0.854152
vt 0.873962 0.851671
vt 0.873847 0.854172
vt 0.913093 0.789528
vt 0.915534 0.789455
vt 0.913093 0.831555
vt 0.915534 0.831629
vt 0.908560 0.787673
vt 0.911000 0.787746
vt 0.908560 0.829847
vt 0.911000 0.829773
vt 0.894493 0.851266
vt 0.892034 0.851159
vt 0.876372 0.895320
vt 0.873847 0.895341
vt 0.867212 0.829847
vt 0.867212 0.787673
vt 0.956882 0.831629
vt 0.956882 0.789455
vt 0.915489 0.784658
vt 0.956837 0.784658
vt 0.915396 0.780627
vt 0.915223 0.776134
vt 0.956744 0.780627
vt 0.956571 0.776134
vt 0.915005 0.773143
vt 0.914721 0.769924
vt 0.956353 0.773143
vt 0.956069 0.769924
vt 0.896622 0.892568
vt 0.896622 0.851400
vt 0.887281 0.892407
vt 0.885002 0.892594
vt 0.887281 0.851238
vt 0.885002 0.851425
vt 0.909372 0.768143
vt 0.909088 0.771361
vt 0.868024 0.768143
vt 0.867740 0.771361
vt 0.908870 0.774352
vt 0.908697 0.778845
vt 0.867522 0.774352
vt 0.867349 0.778845
vt 0.908604 0.782876
vt 0.867256 0.782876
vt 0.878600 0.854093
vt 0.878600 0.895262
vt 0.914721 0.851159
vt 0.915005 0.847940
vt 0.956069 0.851159
vt 0.956353 0.847940
vt 0.915223 0.844949
vt 0.956571 0.844949
vt 0.915489 0.836425
vt 0.956837 0.836425
vt 0.908604 0.834643
vt 0.867256 0.834643
vt 0.908697 0.838675
vt 0.908870 0.843167
vt 0.867349 0.838675
vt 0.867522 0.843167
vt 0.909088 0.846158
vt 0.909372 0.849377
vt 0.867740 0.846158
vt 0.868024 0.849377
vt 0.869259 0.853932
vt 0.871388 0.854065
vt 0.869259 0.895101
vt 0.871388 0.895234
vt 0.887514 0.894902
vt 0.885436 0.895072
vt 0.878367 0.851598
vt 0.913050 0.784859
vt 0.911044 0.834442
vt 0.912959 0.780935
vt 0.912794 0.776652
vt 0.912586 0.773800
vt 0.912324 0.770832
vt 0.896172 0.895052
vt 0.911769 0.769050
vt 0.911507 0.772019
vt 0.911299 0.774870
vt 0.911134 0.779153
vt 0.911044 0.783077
vt 0.912324 0.850251
vt 0.912586 0.847283
vt 0.912794 0.844432
vt 0.913050 0.836224
vt 0.911134 0.838367
vt 0.911299 0.842650
vt 0.911507 0.845501
vt 0.911769 0.848469
vt 0.871651 0.851570
vt 0.869709 0.851449
vt 0.914420 0.768143
vt 0.912047 0.769189
vt 0.955768 0.768143
vt 0.882941 0.892886
vt 0.882941 0.851717
vt 0.883534 0.895341
vt 0.909674 0.851159
vt 0.912047 0.850112
vt 0.868326 0.851159
vt 0.915396 0.840456
vt 0.956744 0.840456
vt 0.912959 0.840148
vt 0.880879 0.853907
vt 0.882941 0.853615
vt 0.880879 0.895076
vt 0.882941 0.894784
vt 0.880446 0.851428
vt 0.882347 0.851159
vt 0.889509 0.892349
vt 0.889546 0.894849
vt 0.889509 0.851180
vt 0.898670 0.892830
vt 0.898670 0.851661
vt 0.898040 0.895290
vt 0.867212 0.853670
vt 0.867212 0.894839
vt 0.867842 0.851210
vt 0.843652 0.790591
vt 0.843652 0.832263
vt 0.841334 0.790413
vt 0.841334 0.832440
vt 0.844731 0.790631
vt 0.844730 0.832214
vt 0.848619 0.774858
vt 0.849785 0.773772
vt 0.847434 0.776985
vt 0.851083 0.773041
vt 0.852447 0.772706
vt 0.846360 0.779316
vt 0.854273 0.772450
vt 0.856099 0.772706
vt 0.845492 0.782872
vt 0.857465 0.773034
vt 0.858763 0.773768
vt 0.859921 0.774865
vt 0.861118 0.776996
vt 0.862187 0.779328
vt 0.863055 0.782882
vt 0.844979 0.786391
vt 0.863568 0.786400
vt 0.863815 0.790640
vt 0.863815 0.832223
vt 0.863567 0.836463
vt 0.844978 0.836454
vt 0.863053 0.839981
vt 0.845490 0.839972
vt 0.862186 0.843538
vt 0.846358 0.843526
vt 0.861112 0.845869
vt 0.847428 0.845858
vt 0.859926 0.847996
vt 0.858761 0.849081
vt 0.857463 0.849813
vt 0.856099 0.850147
vt 0.854273 0.850404
vt 0.852447 0.850147
vt 0.851081 0.849819
vt 0.849783 0.849085
vt 0.848625 0.847989
vt 0.859314 0.772601
vt 0.860711 0.773909
vt 0.860603 0.770074
vt 0.862357 0.771718
vt 0.857793 0.771741
vt 0.858621 0.768953
vt 0.856261 0.771372
vt 0.856625 0.768473
vt 0.854273 0.771093
vt 0.854273 0.768143
vt 0.852284 0.771372
vt 0.851921 0.768473
vt 0.850753 0.771741
vt 0.849925 0.768953
vt 0.856261 0.851482
vt 0.854273 0.851761
vt 0.856625 0.854381
vt 0.854273 0.854711
vt 0.857793 0.851113
vt 0.858621 0.853901
vt 0.852284 0.851482
vt 0.850753 0.851113
vt 0.851921 0.854381
vt 0.849925 0.853901
vt 0.849231 0.850252
vt 0.847835 0.848944
vt 0.847943 0.852779
vt 0.846188 0.851136
vt 0.864894 0.790591
vt 0.864894 0.832263
vt 0.867212 0.832440
vt 0.867212 0.790413
vt 0.864639 0.786229
vt 0.866939 0.785744
vt 0.864639 0.836624
vt 0.866939 0.837109
vt 0.864105 0.840290
vt 0.863186 0.844067
vt 0.866367 0.841034
vt 0.865325 0.845317
vt 0.844440 0.782564
vt 0.845360 0.778787
vt 0.842178 0.781820
vt 0.843221 0.777537
vt 0.843906 0.786229
vt 0.841606 0.785744
vt 0.843906 0.836624
vt 0.841606 0.837109
vt 0.864105 0.782564
vt 0.866367 0.781820
vt 0.863186 0.778787
vt 0.865325 0.777537
vt 0.862028 0.776273
vt 0.864012 0.774686
vt 0.849231 0.772601
vt 0.847943 0.770074
vt 0.847835 0.773909
vt 0.846188 0.771718
vt 0.846517 0.776273
vt 0.844533 0.774686
vt 0.859314 0.850252
vt 0.860603 0.852779
vt 0.860711 0.848944
vt 0.862357 0.851136
vt 0.862028 0.846581
vt 0.864012 0.848168
vt 0.844440 0.840290
vt 0.842178 0.841034
vt 0.845360 0.844067
vt 0.843221 0.845317
vt 0.846517 0.846581
vt 0.844533 0.848168
s 1
f 1/1/1 2/2/1 3/3/1
f 5/4/2 6/5/3 29/6/4
f 29/6/4 6/5/3 31/7/5
f 4/8/6 5/4/2 30/9/7
f 30/9/7 5/4/2 29/6/4
f 7/10/8 8/11/9 35/12/10
f 35/12/10 8/11/9 36/13/11
f 6/5/3 7/10/8 31/7/5
f 31/7/5 7/10/8 35/12/10
f 10/14/12 4/8/6 39/15/13
f 39/15/13 4/8/6 30/9/7
f 9/16/14 10/14/12 40/17/15
f 40/17/15 10/14/12 39/15/13
f 12/18/16 9/16/14 43/19/17
f 43/19/17 9/16/14 40/17/15
f 11/20/18 12/18/16 44/21/19
f 44/21/19 12/18/16 43/19/17
f 14/22/20 11/20/18 47/23/21
f 47/23/21 11/20/18 44/21/19
f 13/24/22 14/22/20 48/25/23
f 48/25/23 14/22/20 47/23/21
f 16/26/24 13/24/22 51/27/25
f 51/27/25 13/24/22 48/25/23
f 15/28/26 16/26/24 52/29/27
f 52/29/27 16/26/24 51/27/25
f 18/30/28 15/28/26 55/31/29
f 55/31/29 15/28/26 52/29/27
f 17/32/30 18/30/28 56/33/31
f 56/33/31 18/30/28 55/31/29
f 20/34/32 17/32/30 59/35/33
f 59/35/33 17/32/30 56/33/31
f 19/36/34 20/34/32 60/37/35
f 60/37/35 20/34/32 59/35/33
f 22/38/36 19/36/34 63/39/37
f 63/39/37 19/36/34 60/37/35
f 21/40/38 22/38/36 64/41/39
f 64/41/39 22/38/36 63/39/37
f 24/42/40 21/40/38 67/43/41
f 67/43/41 21/40/38 64/41/39
f 23/44/42 24/42/40 68/45/43
f 68/45/43 24/42/40 67/43/41
f 26/46/44 23/44/42 71/47/45
f 71/47/45 23/44/42 68/45/43
f 25/48/46 26/46/44 72/49/47
f 72/49/47 26/46/44 71/47/45
f 27/50/48 25/48/46 75/51/49
f 75/51/49 25/48/46 72/49/47
f 8/11/9 27/50/48 36/13/11
f 36/13/11 27/50/48 75/51/49
f 28/52/1 79/53/50 77/54/51
f 28/52/1 77/54/51 78/55/52
f 28/52/1 78/55/52 80/56/53
f 28/52/1 80/56/53 81/57/54
f 28/52/1 83/58/55 82/59/56
f 28/52/1 82/59/56 79/53/50
f 28/52/1 85/60/57 84/61/58
f 28/52/1 84/61/58 83/58/55
f 28/52/1 87/62/59 86/63/60
f 28/52/1 86/63/60 85/60/57
f 28/52/1 89/64/61 88/65/62
f 28/52/1 88/65/62 87/62/59
f 28/52/1 91/66/63 90/67/64
f 28/52/1 90/67/64 89/64/61
f 28/52/1 93/68/65 92/69/66
f 28/52/1 92/69/66 91/66/63
f 28/52/1 95/70/67 94/71/68
f 28/52/1 94/71/68 93/68/65
f 28/52/1 97/72/69 96/73/70
f 28/52/1 96/73/70 95/70/67
f 28/52/1 99/74/71 98/75/72
f 28/52/1 98/75/72 97/72/69
f 28/52/1 81/57/54 100/76/73
f 28/52/1 100/76/73 99/74/71
f 29/6/4 31/7/5 33/77/74
f 33/77/74 31/7/5 32/78/75
f 30/9/7 29/6/4 34/79/76
f 34/79/76 29/6/4 33/77/74
f 35/12/10 36/13/11 38/80/77
f 38/80/77 36/13/11 37/81/78
f 31/7/5 35/12/10 32/78/75
f 32/78/75 35/12/10 38/80/77
f 39/15/13 30/9/7 41/82/79
f 41/82/79 30/9/7 34/79/76
f 40/17/15 39/15/13 42/83/80
f 42/83/80 39/15/13 41/82/79
f 40/17/15 42/83/80 43/19/17
f 43/19/17 42/83/80 45/84/81
f 44/21/19 43/19/17 46/85/82
f 46/85/82 43/19/17 45/84/81
f 47/23/21 44/21/19 49/86/83
f 49/86/83 44/21/19 46/85/82
f 48/25/23 47/23/21 50/87/84
f 50/87/84 47/23/21 49/86/83
f 51/27/25 48/25/23 53/88/85
f 53/88/85 48/25/23 50/87/84
f 52/29/27 51/27/25 54/89/86
f 54/89/86 51/27/25 53/88/85
f 52/29/27 54/89/86 55/31/29
f 55/31/29 54/89/86 57/90/87
f 56/33/31 55/31/29 58/91/88
f 58/91/88 55/31/29 57/90/87
f 59/35/33 56/33/31 61/92/89
f 61/92/89 56/33/31 58/91/88
f 60/37/35 59/35/33 62/93/90
f 62/93/90 59/35/33 61/92/89
f 63/39/37 60/37/35 65/94/91
f 65/94/91 60/37/35 62/93/90
f 64/41/39 63/39/37 66/95/92
f 66/95/92 63/39/37 65/94/91
f 64/41/39 66/95/92 67/43/41
f 67/43/41 66/95/92 69/96/93
f 68/45/43 67/43/41 70/97/94
f 70/97/94 67/43/41 69/96/93
f 71/47/45 68/45/43 73/98/95
f 73/98/95 68/45/43 70/97/94
f 72/49/47 71/47/45 74/99/96
f 74/99/96 71/47/45 73/98/95
f 75/51/49 72/49/47 76/100/97
f 76/100/97 72/49/47 74/99/96
f 36/13/11 75/51/49 37/81/78
f 37/81/78 75/51/49 76/100/97
f 77/54/51 79/53/50 33/77/74
f 33/77/74 79/53/50 34/79/76
f 77/54/51 33/77/74 78/55/52
f 78/55/52 33/77/74 32/78/75
f 80/56/53 78/55/52 38/80/77
f 38/80/77 78/55/52 32/78/75
f 80/56/53 38/80/77 81/57/54
f 81/57/54 38/80/77 37/81/78
f 82/59/56 83/58/55 41/82/79
f 41/82/79 83/58/55 42/83/80
f 79/53/50 82/59/56 34/79/76
f 34/79/76 82/59/56 41/82/79
f 84/61/58 85/60/57 45/84/81
f 45/84/81 85/60/57 46/85/82
f 83/58/55 84/61/58 42/83/80
f 42/83/80 84/61/58 45/84/81
f 86/63/60 87/62/59 49/86/83
f 49/86/83 87/62/59 50/87/84
f 86/63/60 49/86/83 85/60/57
f 85/60/57 49/86/83 46/85/82
f 88/65/62 89/64/61 53/88/85
f 53/88/85 89/64/61 54/89/86
f 87/62/59 88/65/62 50/87/84
f 50/87/84 88/65/62 53/88/85
f 90/67/64 91/66/63 57/90/87
f 57/90/87 91/66/63 58/91/88
f 90/67/64 57/90/87 89/64/61
f 89/64/61 57/90/87 54/89/86
f 92/69/66 93/68/65 61/92/89
f 61/92/89 93/68/65 62/93/90
f 92/69/66 61/92/89 91/66/63
f 91/66/63 61/92/89 58/91/88
f 94/71/68 95/70/67 65/94/91
f 65/94/91 95/70/67 66/95/92
f 93/68/65 94/71/68 62/93/90
f 62/93/90 94/71/68 65/94/91
f 96/73/70 97/72/69 69/96/93
f 69/96/93 97/72/69 70/97/94
f 96/73/70 69/96/93 95/70/67
f 95/70/67 69/96/93 66/95/92
f 98/75/72 99/74/71 73/98/95
f 73/98/95 99/74/71 74/99/96
f 98/75/72 73/98/95 97/72/69
f 97/72/69 73/98/95 70/97/94
f 100/76/73 81/57/54 76/100/97
f 76/100/97 81/57/54 37/81/78
f 99/74/71 100/76/73 74/99/96
f 74/99/96 100/76/73 76/100/97
f 101/101/1 102/102/1 103/103/1
f 124/104/98 200/105/99 125/106/100
f 125/106/100 200/105/99 201/107/101
f 129/108/102 128/109/103 214/110/104
f 214/110/104 128/109/103 213/111/105
f 133/112/106 132/113/107 134/114/108
f 134/114/108 132/113/107 135/115/109
f 137/116/110 136/117/111 138/118/112
f 138/118/112 136/117/111 139/119/113
f 104/120/114 125/106/100 202/121/115
f 202/121/115 125/106/100 201/107/101
f 128/109/103 114/122/116 213/111/105
f 213/111/105 114/122/116 212/123/117
f 138/118/112 120/124/118 137/116/110
f 137/116/110 120/124/118 113/125/119
f 118/126/120 135/115/109 105/127/121
f 105/127/121 135/115/109 132/113/107
f 132/113/107 168/128/122 105/127/121
f 105/127/121 168/128/122 169/129/123
f 140/130/124 165/131/125 106/132/126
f 106/132/126 165/131/125 166/133/127
f 142/134/128 171/135/129 107/136/130
f 107/136/130 171/135/129 172/137/131
f 207/138/132 125/106/100 206/139/133
f 206/139/133 125/106/100 104/120/114
f 204/140/134 146/141/135 203/142/136
f 203/142/136 146/141/135 110/143/137
f 180/144/138 148/145/139 179/146/140
f 179/146/140 148/145/139 111/147/141
f 177/148/142 150/149/143 176/150/144
f 176/150/144 150/149/143 112/151/145
f 174/152/146 137/116/110 173/153/147
f 173/153/147 137/116/110 113/125/119
f 128/109/103 210/154/148 114/122/116
f 114/122/116 210/154/148 211/155/149
f 198/156/150 154/157/151 197/158/152
f 197/158/152 154/157/151 116/159/153
f 154/157/151 195/160/154 116/159/153
f 116/159/153 195/160/154 196/161/155
f 192/162/156 135/115/109 191/163/157
f 191/163/157 135/115/109 118/126/120
f 138/118/112 183/164/158 120/124/118
f 120/124/118 183/164/158 184/165/159
f 158/166/160 186/167/161 121/168/162
f 121/168/162 186/167/161 187/169/163
f 160/170/164 189/171/165 122/172/166
f 122/172/166 189/171/165 190/173/167
f 216/174/168 131/175/169 215/176/170
f 215/176/170 131/175/169 119/177/171
f 205/178/172 147/179/173 204/140/134
f 204/140/134 147/179/173 146/141/135
f 129/108/102 209/180/174 128/109/103
f 128/109/103 209/180/174 210/154/148
f 133/112/106 167/181/175 132/113/107
f 132/113/107 167/181/175 168/128/122
f 139/119/113 182/182/176 138/118/112
f 138/118/112 182/182/176 183/164/158
f 141/183/177 164/184/178 140/130/124
f 140/130/124 164/184/178 165/131/125
f 143/185/179 170/186/180 142/134/128
f 142/134/128 170/186/180 171/135/129
f 124/104/98 125/106/100 208/187/181
f 208/187/181 125/106/100 207/138/132
f 180/144/138 181/188/182 148/145/139
f 148/145/139 181/188/182 149/189/183
f 177/148/142 178/190/184 150/149/143
f 150/149/143 178/190/184 151/191/185
f 136/117/111 137/116/110 175/192/186
f 175/192/186 137/116/110 174/152/146
f 198/156/150 199/193/187 154/157/151
f 154/157/151 199/193/187 155/194/188
f 155/194/188 194/195/189 154/157/151
f 154/157/151 194/195/189 195/160/154
f 134/114/108 135/115/109 193/196/190
f 193/196/190 135/115/109 192/162/156
f 159/197/191 185/198/192 158/166/160
f 158/166/160 185/198/192 186/167/161
f 161/199/193 188/200/194 160/170/164
f 160/170/164 188/200/194 189/171/165
f 130/201/195 131/175/169 217/202/196
f 217/202/196 131/175/169 216/174/168
f 165/131/125 164/184/178 142/134/128
f 142/134/128 164/184/178 143/185/179
f 166/133/127 165/131/125 107/136/130
f 107/136/130 165/131/125 142/134/128
f 167/181/175 141/183/177 168/128/122
f 168/128/122 141/183/177 140/130/124
f 169/129/123 168/128/122 106/132/126
f 106/132/126 168/128/122 140/130/124
f 171/135/129 170/186/180 144/203/197
f 144/203/197 170/186/180 145/204/198
f 172/137/131 171/135/129 108/205/199
f 108/205/199 171/135/129 144/203/197
f 150/149/143 174/152/146 112/151/145
f 112/151/145 174/152/146 173/153/147
f 175/192/186 174/152/146 151/191/185
f 151/191/185 174/152/146 150/149/143
f 148/145/139 177/148/142 111/147/141
f 111/147/141 177/148/142 176/150/144
f 149/189/183 178/190/184 148/145/139
f 148/145/139 178/190/184 177/148/142
f 146/141/135 180/206/138 110/143/137
f 110/143/137 180/206/138 179/207/140
f 147/179/173 181/208/182 146/141/135
f 146/141/135 181/208/182 180/206/138
f 182/182/176 159/197/191 183/164/158
f 183/164/158 159/197/191 158/166/160
f 184/165/159 183/164/158 121/168/162
f 121/168/162 183/164/158 158/166/160
f 186/167/161 185/198/192 160/170/164
f 160/170/164 185/198/192 161/199/193
f 187/169/163 186/167/161 122/172/166
f 122/172/166 186/167/161 160/170/164
f 189/171/165 188/200/194 162/209/200
f 162/209/200 188/200/194 163/210/201
f 190/173/167 189/171/165 123/211/202
f 123/211/202 189/171/165 162/209/200
f 156/212/203 192/162/156 117/213/204
f 117/213/204 192/162/156 191/163/157
f 193/196/190 192/162/156 157/214/205
f 157/214/205 192/162/156 156/212/203
f 195/160/154 194/195/189 156/212/203
f 156/212/203 194/195/189 157/214/205
f 196/161/155 195/160/154 117/213/204
f 117/213/204 195/160/154 156/212/203
f 152/215/206 198/216/150 115/217/207
f 115/217/207 198/216/150 197/218/152
f 153/219/208 199/220/187 152/215/206
f 152/215/206 199/220/187 198/216/150
f 201/107/101 200/105/99 126/221/209
f 126/221/209 200/105/99 127/222/210
f 202/121/115 201/107/101 109/223/211
f 109/223/211 201/107/101 126/221/209
f 126/221/209 204/140/134 109/223/211
f 109/223/211 204/140/134 203/142/136
f 127/222/210 205/178/172 126/221/209
f 126/221/209 205/178/172 204/140/134
f 144/224/197 207/138/132 108/225/199
f 108/225/199 207/138/132 206/139/133
f 208/187/181 207/138/132 145/226/198
f 145/226/198 207/138/132 144/224/197
f 209/180/174 153/219/208 210/154/148
f 210/154/148 153/219/208 152/215/206
f 211/155/149 210/154/148 115/217/207
f 115/217/207 210/154/148 152/215/206
f 213/111/105 212/123/117 131/175/169
f 131/175/169 212/123/117 119/177/171
f 213/111/105 131/175/169 214/110/104
f 214/110/104 131/175/169 130/201/195
f 162/227/200 216/174/168 123/228/202
f 123/228/202 216/174/168 215/176/170
f 217/202/196 216/174/168 163/229/201
f 163/229/201 216/174/168 162/227/200
f 257/230/212 258/231/213 136/232/111
f 136/232/111 258/231/213 139/233/113
f 257/230/212 256/234/1 258/231/213
f 258/231/213 256/234/1 259/235/1
f 272/236/1 270/237/1 274/238/1
f 270/237/1 228/239/1 274/238/1
f 228/239/1 226/240/1 274/238/1
f 274/238/1 226/240/1 276/241/1
f 226/240/1 224/242/1 276/241/1
f 224/242/1 222/243/1 276/241/1
f 276/241/1 222/243/1 252/244/1
f 222/243/1 220/245/1 252/244/1
f 220/245/1 218/246/1 252/244/1
f 218/246/1 268/247/1 252/244/1
f 268/247/1 266/248/1 252/244/1
f 266/248/1 264/249/1 252/244/1
f 264/249/1 262/250/1 252/244/1
f 252/244/1 262/250/1 254/251/1
f 262/250/1 244/252/1 254/251/1
f 254/251/1 244/252/1 256/234/1
f 244/252/1 242/253/1 256/234/1
f 256/234/1 242/253/1 259/235/1
f 242/253/1 246/254/1 259/235/1
f 246/254/1 250/255/1 259/235/1
f 259/235/1 250/255/1 260/256/1
f 250/255/1 248/257/1 260/256/1
f 260/256/1 248/257/1 286/258/1
f 248/257/1 284/259/1 286/258/1
f 286/258/1 284/259/1 288/260/1
f 284/259/1 282/261/1 288/260/1
f 288/260/1 282/261/1 290/262/1
f 282/261/1 280/263/1 290/262/1
f 280/263/1 278/264/1 290/262/1
f 278/264/1 232/265/1 290/262/1
f 232/265/1 230/266/1 290/262/1
f 230/266/1 236/267/1 290/262/1
f 236/267/1 234/268/1 290/262/1
f 234/268/1 240/269/1 290/262/1
f 240/269/1 238/270/1 290/262/1
f 238/270/1 292/271/1 290/262/1
f 218/246/1 219/272/214 268/247/1
f 268/247/1 219/272/214 269/273/215
f 219/272/214 145/274/198 269/273/215
f 269/273/215 145/274/198 170/275/180
f 221/276/216 208/277/181 219/272/214
f 219/272/214 208/277/181 145/274/198
f 218/246/1 220/245/1 219/272/214
f 219/272/214 220/245/1 221/276/216
f 223/278/217 124/279/98 221/276/216
f 221/276/216 124/279/98 208/277/181
f 221/276/216 220/245/1 223/278/217
f 223/278/217 220/245/1 222/243/1
f 223/278/217 225/280/218 124/279/98
f 124/279/98 225/280/218 200/281/99
f 222/243/1 224/242/1 223/278/217
f 223/278/217 224/242/1 225/280/218
f 227/282/219 127/283/210 225/280/218
f 225/280/218 127/283/210 200/281/99
f 225/280/218 224/242/1 227/282/219
f 227/282/219 224/242/1 226/240/1
f 227/282/219 229/284/220 127/283/210
f 127/283/210 229/284/220 205/285/172
f 226/240/1 228/239/1 227/282/219
f 227/282/219 228/239/1 229/284/220
f 230/266/1 231/286/221 236/267/1
f 236/267/1 231/286/221 237/287/222
f 231/286/221 129/288/102 237/287/222
f 237/287/222 129/288/102 214/289/104
f 231/286/221 233/290/223 129/288/102
f 129/288/102 233/290/223 209/291/174
f 230/266/1 232/265/1 231/286/221
f 231/286/221 232/265/1 233/290/223
f 234/268/1 235/292/224 240/269/1
f 240/269/1 235/292/224 241/293/225
f 235/292/224 130/294/195 241/293/225
f 241/293/225 130/294/195 217/295/196
f 235/292/224 237/287/222 130/294/195
f 130/294/195 237/287/222 214/289/104
f 234/268/1 236/267/1 235/292/224
f 235/292/224 236/267/1 237/287/222
f 238/270/1 239/296/226 292/271/1
f 292/271/1 239/296/226 293/297/227
f 239/296/226 163/298/201 293/297/227
f 293/297/227 163/298/201 188/299/194
f 241/293/225 217/295/196 239/296/226
f 239/296/226 217/295/196 163/298/201
f 238/270/1 240/269/1 239/296/226
f 239/296/226 240/269/1 241/293/225
f 242/253/1 243/300/228 246/254/1
f 246/254/1 243/300/228 247/301/229
f 247/301/229 243/300/228 134/302/108
f 134/302/108 243/300/228 133/303/106
f 243/300/228 245/304/230 133/303/106
f 133/303/106 245/304/230 167/305/175
f 242/253/1 244/252/1 243/300/228
f 243/300/228 244/252/1 245/304/230
f 246/254/1 247/301/229 250/255/1
f 250/255/1 247/301/229 251/306/231
f 247/301/229 134/302/108 251/306/231
f 251/306/231 134/302/108 193/307/190
f 248/257/1 249/308/232 284/259/1
f 284/259/1 249/308/232 285/309/233
f 249/308/232 157/310/205 285/309/233
f 285/309/233 157/310/205 194/311/189
f 251/306/231 193/307/190 249/308/232
f 249/308/232 193/307/190 157/310/205
f 248/257/1 250/255/1 249/308/232
f 249/308/232 250/255/1 251/306/231
f 252/244/1 253/312/234 276/241/1
f 276/241/1 253/312/234 277/313/235
f 253/312/234 151/314/185 277/313/235
f 277/313/235 151/314/185 178/315/184
f 255/316/236 175/317/186 253/312/234
f 253/312/234 175/317/186 151/314/185
f 252/244/1 254/251/1 253/312/234
f 253/312/234 254/251/1 255/316/236
f 257/230/212 136/232/111 255/316/236
f 255/316/236 136/232/111 175/317/186
f 255/316/236 254/251/1 257/230/212
f 257/230/212 254/251/1 256/234/1
f 258/231/213 261/318/237 139/233/113
f 139/233/113 261/318/237 182/319/176
f 259/235/1 260/256/1 258/231/213
f 258/231/213 260/256/1 261/318/237
f 245/304/230 263/320/238 167/305/175
f 167/305/175 263/320/238 141/321/177
f 244/252/1 262/250/1 245/304/230
f 245/304/230 262/250/1 263/320/238
f 263/320/238 265/322/239 141/321/177
f 141/321/177 265/322/239 164/323/178
f 262/250/1 264/249/1 263/320/238
f 263/320/238 264/249/1 265/322/239
f 267/324/240 143/325/179 265/322/239
f 265/322/239 143/325/179 164/323/178
f 265/322/239 264/249/1 267/324/240
f 267/324/240 264/249/1 266/248/1
f 267/324/240 269/273/215 143/325/179
f 143/325/179 269/273/215 170/275/180
f 266/248/1 268/247/1 267/324/240
f 267/324/240 268/247/1 269/273/215
f 229/284/220 271/326/241 205/285/172
f 205/285/172 271/326/241 147/327/173
f 229/284/220 228/239/1 271/326/241
f 271/326/241 228/239/1 270/237/1
f 271/326/241 273/328/242 147/327/173
f 147/327/173 273/328/242 181/329/182
f 270/237/1 272/236/1 271/326/241
f 271/326/241 272/236/1 273/328/242
f 275/330/243 149/331/183 273/328/242
f 273/328/242 149/331/183 181/329/182
f 273/328/242 272/236/1 275/330/243
f 275/330/243 272/236/1 274/238/1
f 275/330/243 277/313/235 149/331/183
f 149/331/183 277/313/235 178/315/184
f 274/238/1 276/241/1 275/330/243
f 275/330/243 276/241/1 277/313/235
f 233/290/223 279/332/244 209/291/174
f 209/291/174 279/332/244 153/333/208
f 233/290/223 232/265/1 279/332/244
f 279/332/244 232/265/1 278/264/1
f 279/332/244 281/334/245 153/333/208
f 153/333/208 281/334/245 199/335/187
f 278/264/1 280/263/1 279/332/244
f 279/332/244 280/263/1 281/334/245
f 283/336/246 155/337/188 281/334/245
f 281/334/245 155/337/188 199/335/187
f 281/334/245 280/263/1 283/336/246
f 283/336/246 280/263/1 282/261/1
f 283/336/246 285/309/233 155/337/188
f 155/337/188 285/309/233 194/311/189
f 282/261/1 284/259/1 283/336/246
f 283/336/246 284/259/1 285/309/233
f 261/318/237 287/338/247 182/319/176
f 182/319/176 287/338/247 159/339/191
f 260/256/1 286/258/1 261/318/237
f 261/318/237 286/258/1 287/338/247
f 287/338/247 289/340/248 159/339/191
f 159/339/191 289/340/248 185/341/192
f 286/258/1 288/260/1 287/338/247
f 287/338/247 288/260/1 289/340/248
f 291/342/249 161/343/193 289/340/248
f 289/340/248 161/343/193 185/341/192
f 289/340/248 288/260/1 291/342/249
f 291/342/249 288/260/1 290/262/1
f 291/342/249 293/297/227 161/343/193
f 161/343/193 293/297/227 188/299/194
f 290/262/1 292/271/1 291/342/249
f 291/342/249 292/271/1 293/297/227
