# https://github.com/mikedh/trimesh
v -0.05533136 -0.05117563 0.00538631
v -0.05531185 -0.05129436 0.00538631
v -0.05480470 -0.05148045 0.00844865
v -0.05485346 -0.05117563 0.00842905
v 0.04430477 -0.05117563 0.00538631
v -0.05432680 -0.05372545 0.00538631
v -0.05420001 -0.05420388 0.00538691
v -0.05414149 -0.05414551 0.00690709
v -0.05424878 -0.05372545 0.00715065
v -0.05467791 -0.05117563 0.00894587
v -0.05350755 -0.05350693 0.01049338
v 0.04430477 -0.05117563 0.01144980
v 0.04430477 -0.05622288 0.00538631
v -0.05147894 -0.05522760 0.00538631
v -0.05128388 -0.05531839 0.00538631
v -0.05146919 -0.05480803 0.00844806
v -0.05316620 -0.05372545 0.01015061
v -0.05199585 -0.05117563 0.01114446
v -0.04990871 -0.05416746 0.01099535
v -0.05017205 -0.05372545 0.01102565
v -0.05147894 -0.05148045 0.01118129
v 0.04430477 -0.05202473 0.01135772
v 0.04036458 -0.05117563 0.01145515
v 0.04112531 -0.05372545 0.01117772
v 0.04305640 -0.05624383 0.00538631
v 0.04430477 -0.05601334 0.00663026
v -0.04573445 -0.05627227 0.00538631
v -0.04573445 -0.05599439 0.00697303
v -0.04573445 -0.05580082 0.00807499
v -0.05145943 -0.05117563 0.01119555
v -0.04644642 -0.05431114 0.01109159
v -0.04929428 -0.05372545 0.01106367
v -0.04648543 -0.05117563 0.01142366
v 0.04430477 -0.05372545 0.01117297
v -0.04574421 -0.05117563 0.01145515
v 0.04034507 -0.05372594 0.01117832
v 0.04034507 -0.05434008 0.01111060
v 0.04035483 -0.05627227 0.00538631
v 0.04430477 -0.05575991 0.00807499
v 0.04035483 -0.05599439 0.00697303
v 0.04035483 -0.05580082 0.00807499
v -0.04573445 -0.05467982 0.01040486
v -0.04573445 -0.05434008 0.01111000
v -0.04574421 -0.05372545 0.01117832
v -0.04580272 -0.05117563 0.01145277
v 0.04430477 -0.05467982 0.01038288
v 0.04429502 -0.05433209 0.01110525
v -0.04573445 -0.05372594 0.01117832
v 0.03125533 -0.05434008 0.01111060
v 0.04035483 -0.05467982 0.01040486
v 0.04430477 -0.05472372 0.01029140
f 1 2 3
f 1 3 4
f 1 4 10
f 1 10 18
f 1 18 30
f 1 30 33
f 1 33 45
f 1 45 35
f 1 35 23
f 1 23 12
f 1 12 5
f 1 5 13
f 1 13 25
f 1 25 38
f 1 38 27
f 1 27 15
f 1 15 14
f 1 14 6
f 1 6 2
f 2 6 7
f 2 7 8
f 2 8 9
f 2 9 3
f 3 10 4
f 3 9 11
f 3 11 10
f 5 12 22
f 5 22 34
f 5 34 46
f 5 46 51
f 5 51 39
f 5 39 26
f 5 26 13
f 6 14 7
f 7 14 15
f 7 15 8
f 8 15 16
f 8 16 17
f 8 17 11
f 8 11 9
f 10 11 18
f 11 17 19
f 11 19 20
f 11 20 21
f 11 21 18
f 12 23 24
f 12 24 22
f 13 26 25
f 15 27 16
f 16 19 17
f 16 27 28
f 16 28 29
f 16 29 19
f 18 21 30
f 19 29 31
f 19 31 32
f 19 32 21
f 19 21 20
f 21 32 33
f 21 33 30
f 22 24 34
f 23 35 48
f 23 48 36
f 23 36 24
f 24 36 37
f 24 37 34
f 25 26 38
f 26 39 40
f 26 40 38
f 27 38 40
f 27 40 28
f 28 40 41
f 28 41 29
f 29 41 50
f 29 50 42
f 29 42 31
f 31 42 43
f 31 43 44
f 31 44 32
f 32 44 35
f 32 35 45
f 32 45 33
f 34 37 47
f 34 47 46
f 35 44 48
f 36 48 49
f 36 49 37
f 37 49 42
f 37 42 50
f 37 50 47
f 39 51 41
f 39 41 40
f 41 51 46
f 41 46 50
f 42 49 43
f 43 49 48
f 43 48 44
f 46 47 50

