# https://github.com/mikedh/trimesh
v -0.03002186 0.04574328 0.01146018
v -0.03498477 0.04574328 0.01146018
v -0.03002186 -0.01883493 0.01146018
v -0.03002186 0.05160947 0.01117749
v -0.03498477 0.05008383 0.01111019
v -0.03509905 0.05005518 0.01110794
v -0.03790724 0.04587937 0.01131435
v -0.03790724 0.04281377 0.01146018
v -0.03509905 -0.01883493 0.01146018
v -0.03002186 -0.01883493 -0.01146018
v -0.03002186 0.05170259 0.01116852
v -0.03900017 0.04893065 0.01099352
v -0.03790827 0.04923148 0.01102717
v -0.03901160 0.04715432 0.01115954
v -0.03002186 0.05237587 0.01108102
v -0.03008524 0.05396598 0.01086339
v -0.04062296 0.04597965 0.01117749
v -0.04063335 0.04597249 0.01117749
v -0.03901160 0.04409588 0.01134576
v -0.03901160 0.04169640 0.01146018
v -0.03790724 -0.01883493 -0.00618778
v -0.03790724 -0.01882777 0.01146018
v -0.04063335 -0.01882777 0.01145794
v -0.03002186 0.04574328 -0.01146018
v -0.03509905 -0.01883493 -0.01146018
v -0.03219320 0.05372245 0.01069064
v -0.03901160 0.04893065 0.01099128
v -0.03002186 0.05237587 -0.01061660
v -0.03008524 0.05433843 0.00978423
v -0.03007173 0.05365082 0.01090378
v -0.03093819 0.05433843 0.00942975
v -0.04063335 0.04007049 0.01145794
v -0.04063335 0.04847941 0.01067269
v -0.04063543 0.04971854 -0.00830796
v -0.03901160 -0.01882061 0.01146018
v -0.03790724 -0.01883493 -0.01145794
v -0.04063543 -0.01882777 -0.00822719
v -0.03002186 0.05160231 -0.01117749
v -0.03498477 0.04574328 -0.01146018
v -0.04036739 -0.01882777 -0.01146018
v -0.03227943 0.05433843 0.00750925
v -0.03311887 0.05417369 0.00710540
v -0.04063231 0.04971854 0.00831693
v -0.03002186 0.05170259 -0.01116852
v -0.03219320 0.05372245 -0.01069288
v -0.03093819 0.05433843 -0.00942975
v -0.03008524 0.05433843 -0.00891597
v -0.04063543 0.04762705 -0.00822719
v -0.04063335 0.04903093 0.00959577
v -0.04063231 0.05067117 0.00303780
v -0.04063231 0.05069266 0.00268107
v -0.04063543 0.04971854 -0.00832366
v -0.04063543 -0.01882777 -0.01145794
v -0.03008108 0.05160231 -0.01117525
v -0.04036531 0.04034983 -0.01146018
v -0.04063543 0.04598681 -0.01117974
v -0.03509905 0.05005518 -0.01110794
v -0.03498477 0.05008383 -0.01111019
v -0.04063543 -0.01855559 -0.01146018
v -0.03274590 0.05433843 0.00663425
v -0.03348977 0.05433843 0.00313876
v -0.03622004 0.05316376 0.00268556
v -0.03766413 0.05237587 0.00268780
v -0.03311887 0.05417369 -0.00710540
v -0.03227943 0.05433843 -0.00750925
v -0.03790724 0.04925297 -0.01102717
v -0.03900121 0.04893065 -0.01099576
v -0.04063543 0.04971138 -0.00833937
v -0.04036427 0.05087172 0.00268107
v -0.04063231 0.05069266 -0.00268556
v -0.04063023 0.04974003 -0.00822719
v -0.04061777 0.04974719 -0.00822719
v -0.04063543 0.04035699 -0.01144448
v -0.04063543 0.03497070 -0.01146018
v -0.04063543 0.04600114 -0.01117525
v -0.03357288 0.05433843 0.00268780
v -0.03622004 0.05316376 -0.00269005
v -0.03766413 0.05237587 -0.00268556
v -0.03766309 0.05237587 -0.00269005
v -0.03348977 0.05433843 -0.00313876
v -0.04036427 0.05087172 -0.00268556
v -0.03357288 0.05433843 -0.00269005
f 1 2 8
f 1 8 20
f 1 20 35
f 1 35 22
f 1 22 9
f 1 9 3
f 1 3 10
f 1 10 24
f 1 24 38
f 1 38 44
f 1 44 28
f 1 28 15
f 1 15 11
f 1 11 4
f 1 4 2
f 2 4 5
f 2 5 6
f 2 6 7
f 2 7 8
f 3 9 21
f 3 21 36
f 3 36 25
f 3 25 10
f 4 11 5
f 5 11 6
f 6 12 13
f 6 13 14
f 6 14 7
f 6 11 15
f 6 15 16
f 6 16 12
f 7 17 18
f 7 18 19
f 7 19 20
f 7 20 8
f 7 14 17
f 9 22 23
f 9 23 21
f 10 25 40
f 10 40 59
f 10 59 74
f 10 74 55
f 10 55 39
f 10 39 24
f 12 16 26
f 12 26 27
f 12 27 18
f 12 18 17
f 12 17 14
f 12 14 13
f 15 28 47
f 15 47 29
f 15 29 30
f 15 30 16
f 16 30 29
f 16 29 31
f 16 31 26
f 18 32 20
f 18 20 19
f 18 27 33
f 18 33 34
f 18 34 32
f 20 32 23
f 20 23 35
f 21 23 37
f 21 37 53
f 21 53 36
f 22 35 23
f 23 32 48
f 23 48 37
f 24 39 38
f 25 36 40
f 26 31 41
f 26 41 42
f 26 42 43
f 26 43 33
f 26 33 27
f 28 44 45
f 28 45 46
f 28 46 47
f 29 47 46
f 29 46 65
f 29 65 80
f 29 80 82
f 29 82 76
f 29 76 61
f 29 61 60
f 29 60 41
f 29 41 31
f 32 34 48
f 33 43 49
f 33 49 34
f 34 50 51
f 34 51 70
f 34 70 52
f 34 52 68
f 34 68 75
f 34 75 56
f 34 56 73
f 34 73 74
f 34 74 59
f 34 59 53
f 34 53 37
f 34 37 48
f 34 49 50
f 36 53 40
f 38 54 44
f 38 39 54
f 39 55 56
f 39 56 57
f 39 57 58
f 39 58 54
f 40 53 59
f 41 60 42
f 42 60 61
f 42 61 62
f 42 62 63
f 42 63 50
f 42 50 43
f 43 50 49
f 44 54 58
f 44 58 57
f 44 57 45
f 45 64 65
f 45 65 46
f 45 57 66
f 45 66 67
f 45 67 68
f 45 68 52
f 45 52 64
f 50 63 69
f 50 69 51
f 51 69 81
f 51 81 70
f 52 70 71
f 52 71 72
f 52 72 64
f 55 73 56
f 55 74 73
f 56 75 67
f 56 67 66
f 56 66 57
f 61 76 62
f 62 76 82
f 62 82 77
f 62 77 78
f 62 78 63
f 63 78 81
f 63 81 69
f 64 79 77
f 64 77 80
f 64 80 65
f 64 72 81
f 64 81 79
f 67 75 68
f 70 81 71
f 71 81 72
f 77 82 80
f 77 79 78
f 78 79 81

