# https://github.com/mikedh/trimesh
v -0.04573298 -0.02962013 -0.01146018
v -0.04573298 -0.02671710 -0.01146018
v -0.01836936 -0.03065430 -0.01146018
v -0.04573298 -0.03489190 -0.01145794
v -0.05115621 -0.03489190 -0.01112813
v -0.04573298 -0.02276208 -0.01145794
v -0.04571146 -0.02448491 -0.01146018
v -0.00806092 -0.03065430 -0.01146018
v 0.04573018 -0.03489190 -0.01145794
v -0.05134989 -0.03489190 -0.01100025
v -0.05309307 -0.02276208 -0.00991436
v -0.05143597 -0.02276208 -0.01082301
v -0.05054286 -0.02276208 -0.01109897
v -0.04726095 -0.02276208 -0.01135025
v 0.04573018 -0.02276208 -0.01145794
v 0.04574094 -0.02448491 -0.01146018
v 0.04571942 -0.02671710 -0.01146018
v 0.04574094 -0.02571142 -0.01146018
v 0.04804366 -0.03338517 -0.01131659
v 0.05137937 -0.03489190 -0.01111019
v -0.05164042 -0.03489190 -0.01071756
v -0.05172650 -0.03454638 -0.01071756
v -0.05301775 -0.03329850 -0.00969000
v -0.05308231 -0.03338398 -0.00960699
v -0.05422291 -0.03489190 -0.00811726
v -0.05434127 -0.03489190 -0.00791982
v -0.05411531 -0.02276208 -0.00731854
v -0.05293167 -0.03338398 -0.00976180
v 0.04839875 -0.02276208 -0.01120217
v 0.04929186 -0.02276208 -0.01110794
v 0.05316559 -0.03489190 -0.01071756
v -0.05378173 -0.03489190 -0.00857046
v -0.05490082 -0.03489190 -0.00268332
v -0.05426595 -0.02276208 -0.00579291
v 0.05019573 -0.02276208 -0.00988519
v 0.05333776 -0.03304085 -0.01031372
v 0.05340232 -0.03338398 -0.01036756
v 0.05363905 -0.03489190 -0.01059865
v -0.05492234 -0.03489190 -0.00075160
v -0.05448116 -0.02276208 -0.00269005
v -0.05437355 -0.02276208 -0.00425158
v 0.05063690 -0.02276208 -0.00928616
v 0.05325168 -0.03234744 -0.01006692
v 0.05380046 -0.02691182 -0.00538009
v 0.05103504 -0.02276208 -0.00873873
v 0.05157306 -0.02276208 -0.00771566
v 0.05385426 -0.02767171 -0.00567176
v 0.05411251 -0.03128003 -0.00701342
v 0.05426315 -0.03338398 -0.00778521
v 0.05436000 -0.03489190 -0.00834161
v -0.05492234 -0.03489190 0.00268780
v -0.05448116 -0.02276208 0.00269005
v 0.05259529 -0.02276208 -0.00269005
v 0.05374665 -0.02671710 -0.00518939
v 0.05381122 -0.02691063 -0.00268556
v 0.05500562 -0.03489190 -0.00268556
v 0.05495182 -0.03489190 -0.00317690
v 0.05432771 -0.03338398 -0.00721309
v -0.05435203 -0.03489190 0.00792655
v -0.05411531 -0.02276208 0.00732079
v -0.05416911 -0.02276208 0.00667464
v 0.05259529 -0.02276208 -0.00118461
v 0.05381122 -0.02691063 0.00268556
v 0.05500562 -0.03489190 -0.00075384
v -0.05344816 -0.03489190 0.01023519
v -0.05380326 -0.02276208 0.00825187
v 0.05258453 -0.02276208 0.00269005
v 0.05380046 -0.02691182 0.00538682
v 0.05499486 -0.03489190 0.00268556
v -0.05309307 -0.02276208 0.00991212
v -0.05115621 -0.03489190 0.01112589
v -0.05053210 -0.02276208 0.01109672
v 0.05157306 -0.02276208 0.00771566
v 0.05334852 -0.03304085 0.01031596
v 0.05348840 -0.03234744 0.00952846
v 0.05385426 -0.03338398 0.00904385
v 0.05411251 -0.03128003 0.00701790
v 0.05460748 -0.03489190 0.00620797
v -0.05103784 -0.03489190 0.01113486
v -0.04572222 -0.02276208 0.01145794
v 0.04929186 -0.02276208 0.01110794
v 0.05298267 -0.03338398 0.01046628
v 0.05354220 -0.03338398 0.00995474
v 0.05395110 -0.03411895 0.00917174
v 0.05418783 -0.03234744 0.00741277
v 0.05434923 -0.03489190 0.00834834
v -0.04573298 -0.03489190 0.01145794
v -0.04573298 -0.03234744 0.01146018
v -0.04573298 -0.02671710 0.01146018
v -0.04572222 -0.02370126 0.01146018
v 0.04573018 -0.02276208 0.01145794
v 0.05137937 -0.03489190 0.01110794
v 0.05347764 -0.03489190 0.00917174
v 0.04574094 -0.03489190 0.01145794
v 0.04571942 -0.03234744 0.01146018
v -0.01690594 -0.02370126 0.01146018
v 0.04571942 -0.02448491 0.01146018
v -0.01348415 -0.02370601 0.01146018
v 0.04573018 -0.02671710 0.01146018
v 0.04573018 -0.02962013 0.01146018
f 1 2 7
f 1 7 16
f 1 16 18
f 1 18 17
f 1 17 8
f 1 8 3
f 1 3 4
f 1 4 5
f 1 5 2
f 2 6 7
f 2 5 6
f 3 8 9
f 3 9 4
f 4 9 20
f 4 20 31
f 4 31 38
f 4 38 50
f 4 50 57
f 4 57 56
f 4 56 64
f 4 64 69
f 4 69 78
f 4 78 86
f 4 86 93
f 4 93 92
f 4 92 94
f 4 94 87
f 4 87 79
f 4 79 71
f 4 71 65
f 4 65 59
f 4 59 51
f 4 51 39
f 4 39 33
f 4 33 26
f 4 26 25
f 4 25 32
f 4 32 21
f 4 21 10
f 4 10 5
f 5 10 11
f 5 11 12
f 5 12 13
f 5 13 14
f 5 14 6
f 6 14 13
f 6 13 12
f 6 12 11
f 6 11 27
f 6 27 34
f 6 34 41
f 6 41 40
f 6 40 52
f 6 52 61
f 6 61 60
f 6 60 66
f 6 66 70
f 6 70 72
f 6 72 80
f 6 80 91
f 6 91 81
f 6 81 73
f 6 73 67
f 6 67 62
f 6 62 53
f 6 53 46
f 6 46 45
f 6 45 42
f 6 42 35
f 6 35 30
f 6 30 29
f 6 29 15
f 6 15 16
f 6 16 7
f 8 17 9
f 9 17 18
f 9 18 19
f 9 19 20
f 10 21 22
f 10 22 11
f 11 23 24
f 11 24 25
f 11 25 26
f 11 26 27
f 11 22 28
f 11 28 23
f 15 29 20
f 15 20 16
f 16 20 18
f 18 20 19
f 20 29 30
f 20 30 31
f 21 32 22
f 22 32 28
f 23 28 24
f 24 28 25
f 25 28 32
f 26 33 27
f 27 33 34
f 30 35 36
f 30 36 37
f 30 37 38
f 30 38 31
f 33 39 40
f 33 40 41
f 33 41 34
f 35 42 36
f 36 43 44
f 36 44 37
f 36 42 45
f 36 45 46
f 36 46 43
f 37 44 38
f 38 44 47
f 38 47 48
f 38 48 49
f 38 49 50
f 39 51 52
f 39 52 40
f 43 46 44
f 44 53 54
f 44 54 55
f 44 55 56
f 44 56 57
f 44 57 47
f 44 46 53
f 47 57 48
f 48 57 58
f 48 58 49
f 49 58 57
f 49 57 50
f 51 59 60
f 51 60 61
f 51 61 52
f 53 62 63
f 53 63 55
f 53 55 54
f 55 63 64
f 55 64 56
f 59 65 66
f 59 66 60
f 62 67 63
f 63 68 69
f 63 69 64
f 63 67 68
f 65 70 66
f 65 71 72
f 65 72 70
f 67 73 68
f 68 74 75
f 68 75 76
f 68 76 77
f 68 77 69
f 68 73 74
f 69 77 78
f 71 79 72
f 72 79 80
f 73 81 74
f 74 82 83
f 74 83 75
f 74 81 82
f 75 83 76
f 76 84 85
f 76 85 77
f 76 83 84
f 77 85 78
f 78 85 86
f 79 87 88
f 79 88 89
f 79 89 90
f 79 90 80
f 80 90 96
f 80 96 91
f 81 91 92
f 81 92 82
f 82 92 83
f 83 92 84
f 84 93 86
f 84 86 85
f 84 92 93
f 87 94 95
f 87 95 88
f 88 95 100
f 88 100 99
f 88 99 97
f 88 97 98
f 88 98 96
f 88 96 90
f 88 90 89
f 91 97 92
f 91 96 98
f 91 98 97
f 92 97 99
f 92 99 100
f 92 100 95
f 92 95 94

