# https://github.com/mikedh/trimesh
v 0.02057031 0.05574446 -0.00327533
v 0.02541941 0.05586144 -0.00327693
v 0.02480257 0.05584682 -0.00327693
v 0.02391692 0.05581026 -0.00341313
v 0.01883821 0.05509371 -0.00807275
v 0.01883821 0.05570059 -0.00327533
v 0.02057031 0.04599064 -0.00327533
v 0.02541941 0.05522533 -0.00807115
v 0.02421853 0.05520339 -0.00807115
v 0.02541941 -0.01883493 -0.00327693
v 0.01883821 0.05411394 -0.01100504
v 0.01724611 0.05406276 -0.01096738
v 0.01724611 0.05489630 -0.00811361
v 0.01724611 0.05549586 -0.00327533
v 0.01724611 0.04599064 -0.00327533
v 0.02057031 -0.01883493 -0.00327613
v 0.02541941 0.05415782 -0.01103869
v 0.02057031 0.05412857 -0.01101465
v 0.02541941 -0.01883493 -0.01145770
v 0.01883821 0.05112346 -0.01135355
v 0.01724611 0.05235913 -0.01116607
v 0.01724611 -0.01883493 -0.00327613
v 0.02541941 0.05111615 -0.01138640
v 0.02421853 0.05111615 -0.01138159
v 0.02057031 0.05112346 -0.01136316
v 0.02057031 -0.01883493 -0.01146010
v 0.02541941 0.04573473 -0.01145770
v 0.01724611 0.05118195 -0.01128865
v 0.01724611 0.04574204 -0.01146010
v 0.01724611 -0.01883493 -0.01146010
v 0.02057031 0.04574204 -0.01146010
f 1 2 3
f 1 3 4
f 1 4 5
f 1 5 6
f 1 6 14
f 1 14 15
f 1 15 7
f 1 7 10
f 1 10 2
f 2 8 9
f 2 9 5
f 2 5 4
f 2 4 3
f 2 10 19
f 2 19 27
f 2 27 23
f 2 23 17
f 2 17 8
f 5 9 11
f 5 11 12
f 5 12 13
f 5 13 6
f 6 13 14
f 7 15 22
f 7 22 16
f 7 16 10
f 8 17 18
f 8 18 11
f 8 11 9
f 10 16 22
f 10 22 30
f 10 30 26
f 10 26 19
f 11 18 20
f 11 20 21
f 11 21 12
f 12 21 28
f 12 28 29
f 12 29 30
f 12 30 22
f 12 22 15
f 12 15 14
f 12 14 13
f 17 23 24
f 17 24 25
f 17 25 20
f 17 20 18
f 19 26 31
f 19 31 27
f 20 28 21
f 20 25 29
f 20 29 28
f 23 27 31
f 23 31 29
f 23 29 24
f 24 29 25
f 26 30 29
f 26 29 31

