# https://github.com/mikedh/trimesh
v -0.01282942 -0.05033846 -0.00307206
v -0.01282942 -0.04523077 -0.00307206
v -0.01282259 -0.05117476 -0.00307206
v -0.01368302 -0.05117388 -0.00307078
v -0.01282259 -0.04225747 -0.00307206
v -0.01368302 -0.04225747 -0.00307078
v -0.00892333 -0.05117563 0.00037338
v -0.01353961 -0.05117476 -0.00307078
v 0.05466659 -0.05117476 -0.00307206
v -0.01366253 -0.05117563 0.00890519
v -0.01368985 -0.05117388 -0.00226438
v 0.05583432 -0.04225747 -0.00307206
v -0.01368985 -0.04225747 -0.00226438
v -0.01030276 -0.05117563 0.00172676
v 0.05474171 -0.05117563 0.00037338
v 0.05489878 -0.05077756 -0.00307206
v 0.05474171 -0.05117476 -0.00268994
v -0.01366936 -0.05117563 0.00998381
v -0.01368985 -0.05117476 0.00629683
v 0.05588212 -0.04225747 -0.00268994
v 0.05607333 -0.04575106 -0.00268994
v 0.05599139 -0.04522990 -0.00307206
v -0.01368985 -0.04225747 0.00890519
v 0.05492609 -0.05082645 -0.00268994
v 0.05492609 -0.05082732 0.00172676
v 0.05474171 -0.05117563 0.00269547
v 0.05601187 -0.04575106 -0.00307206
v -0.01368302 -0.05117388 0.00998381
v -0.01368985 -0.05117476 0.00890519
v 0.05245406 -0.05117563 0.00998381
v 0.05588212 -0.04225747 -0.00226438
v 0.05607333 -0.04575019 -0.00226438
v 0.05607333 -0.04575280 0.00172676
v -0.01368302 -0.04225834 0.00998381
v 0.05485098 -0.04225747 0.00890519
v 0.05492609 -0.05082732 0.00269547
v 0.05449588 -0.05117563 0.00459072
v 0.05339644 -0.05117563 0.00934865
v 0.05365593 -0.05035679 0.00998381
v 0.05607333 -0.04575280 0.00269547
v 0.05607333 -0.04575019 -0.00107202
v 0.05587529 -0.04225747 0.00269547
v 0.05447539 -0.04225834 0.00998381
v 0.05514461 -0.04225747 0.00807195
v 0.05468025 -0.05035854 0.00629555
v 0.05425687 -0.05117476 0.00629555
v 0.05389494 -0.05117476 0.00807195
v 0.05356716 -0.05117563 0.00890519
v 0.05440710 -0.04982865 0.00890519
v 0.05421589 -0.04944630 0.00998381
v 0.05521973 -0.04225834 0.00764382
v 0.05538362 -0.04575280 0.00764382
v 0.05465977 -0.04977715 0.00764382
v 0.05539045 -0.04225747 0.00629555
v 0.05459831 -0.04575280 0.00998381
v 0.05500121 -0.04575280 0.00890519
v 0.05530850 -0.04575280 0.00807195
v 0.05453685 -0.05012808 0.00807195
v 0.05423638 -0.05117388 0.00641057
v 0.05496023 -0.04671655 0.00890519
v 0.05442076 -0.04829050 0.00998381
v 0.05447539 -0.04796663 0.00998381
f 1 2 5
f 1 5 12
f 1 12 22
f 1 22 27
f 1 27 16
f 1 16 9
f 1 9 3
f 1 3 4
f 1 4 6
f 1 6 2
f 2 6 5
f 3 7 8
f 3 8 4
f 3 9 15
f 3 15 7
f 4 8 10
f 4 10 11
f 4 11 13
f 4 13 6
f 5 6 13
f 5 13 23
f 5 23 35
f 5 35 44
f 5 44 54
f 5 54 42
f 5 42 31
f 5 31 20
f 5 20 12
f 7 14 8
f 7 15 26
f 7 26 37
f 7 37 48
f 7 48 38
f 7 38 30
f 7 30 18
f 7 18 10
f 7 10 14
f 8 14 10
f 9 16 17
f 9 17 15
f 10 18 11
f 11 18 19
f 11 19 29
f 11 29 23
f 11 23 13
f 12 20 21
f 12 21 22
f 15 17 24
f 15 24 25
f 15 25 36
f 15 36 26
f 16 24 17
f 16 27 21
f 16 21 24
f 18 28 29
f 18 29 19
f 18 30 39
f 18 39 50
f 18 50 61
f 18 61 62
f 18 62 55
f 18 55 43
f 18 43 34
f 18 34 28
f 20 31 41
f 20 41 32
f 20 32 21
f 21 27 22
f 21 32 41
f 21 41 40
f 21 40 33
f 21 33 24
f 23 29 28
f 23 28 34
f 23 34 43
f 23 43 35
f 24 33 25
f 25 33 40
f 25 40 36
f 26 36 37
f 30 38 39
f 31 40 41
f 31 42 40
f 35 43 44
f 36 45 37
f 36 40 45
f 37 45 46
f 37 46 47
f 37 47 48
f 38 48 47
f 38 47 49
f 38 49 39
f 39 49 50
f 40 42 51
f 40 51 52
f 40 52 53
f 40 53 45
f 42 54 51
f 43 55 56
f 43 56 57
f 43 57 44
f 44 57 52
f 44 52 51
f 44 51 54
f 45 53 58
f 45 58 46
f 46 59 47
f 46 58 59
f 47 59 58
f 47 58 49
f 49 58 60
f 49 60 50
f 50 60 61
f 52 57 58
f 52 58 53
f 55 62 60
f 55 60 56
f 56 60 57
f 57 60 58
f 60 62 61

