# https://github.com/mikedh/trimesh
v -0.04063692 0.02509069 0.01146018
v -0.04575105 0.02509069 0.01146018
v -0.04063543 0.02027503 0.01146018
v -0.04063692 0.02509069 -0.01146018
v -0.05025668 0.02509069 0.01135698
v -0.05112917 0.01883464 0.01137717
v -0.04575255 0.02027503 0.01146018
v -0.04063543 0.02027503 -0.01146018
v -0.04063543 -0.01883494 0.01146018
v -0.04575105 0.02509069 -0.01146018
v -0.05111873 0.02509069 0.01129865
v -0.05112917 0.02421785 0.01133679
v -0.04575255 0.01229911 0.01146018
v -0.05413590 0.02027503 0.01101820
v -0.05414634 0.01883464 0.01102717
v -0.05112768 -0.00268960 0.01133454
v -0.04574956 -0.01883494 0.01146018
v -0.04063543 -0.01855976 -0.01146018
v -0.04063543 -0.01883494 -0.01145794
v -0.05112917 0.02421785 -0.01133679
v -0.05111873 0.02509069 -0.01129865
v -0.04575255 0.02027503 -0.01146018
v -0.05112917 0.01883464 -0.01137717
v -0.05405536 0.02509069 0.01095762
v -0.05409713 0.02421785 0.01098903
v -0.05488460 0.02027503 0.00885315
v -0.05517245 0.01883464 0.00807238
v -0.05408669 -0.00268960 0.01098679
v -0.05112768 -0.00806851 0.01128518
v -0.05138570 -0.01883494 0.01106980
v -0.05112768 -0.01345172 0.01120442
v -0.04575255 -0.01883494 -0.01145794
v -0.04574956 -0.01345172 -0.01146018
v -0.05409713 0.02421785 -0.01098903
v -0.05190173 0.02509069 -0.01121115
v -0.05413590 0.02027503 -0.01101820
v -0.04575255 0.01229911 -0.01146018
v -0.05414634 0.01883464 -0.01102717
v -0.05112768 -0.00268960 -0.01133454
v -0.05474292 0.02509069 0.00883969
v -0.05504121 0.02421785 0.00807238
v -0.05513964 0.02027503 0.00807238
v -0.05587193 0.01883464 0.00269005
v -0.05500541 -0.00268960 0.00807238
v -0.05402404 -0.00806851 0.01093743
v -0.05156914 -0.01883494 0.01101371
v -0.05141403 -0.01869735 0.01106980
v -0.05386893 -0.01681408 0.01080955
v -0.04585993 -0.01883494 -0.01145121
v -0.05112768 -0.01345172 -0.01120442
v -0.05112768 -0.00806851 -0.01128518
v -0.05517245 0.01883464 -0.00807238
v -0.05513964 0.02027503 -0.00807238
v -0.05504121 0.02421785 -0.00807238
v -0.05405536 0.02509069 -0.01095762
v -0.05408669 -0.00268960 -0.01098679
v -0.05489654 0.02509069 0.00807238
v -0.05571086 0.02421785 0.00269005
v -0.05587193 0.01883464 -0.00269005
v -0.05565866 -0.00268960 0.00269005
v -0.05484582 -0.00806851 0.00807238
v -0.05418811 -0.01883494 0.00852334
v -0.05425074 -0.01869735 0.00837078
v -0.05424776 -0.01883494 0.00833713
v -0.05460123 -0.01345172 0.00807238
v -0.05127980 -0.01883494 -0.01107878
v -0.05386893 -0.01681408 -0.01080955
v -0.05402404 -0.00806851 -0.01093743
v -0.05138570 -0.01883494 -0.01106980
v -0.05141403 -0.01869735 -0.01106980
v -0.05500541 -0.00268960 -0.00807238
v -0.05571086 0.02421785 -0.00269005
v -0.05489654 0.02509069 -0.00807238
v -0.05542898 0.02509069 0.00377369
v -0.05553039 0.02509069 0.00269005
v -0.05565866 -0.00268960 -0.00269005
v -0.05546626 -0.00806851 0.00269005
v -0.05483091 -0.01883494 0.00269005
v -0.05517841 -0.01345172 0.00269005
v -0.05425074 -0.01869735 -0.00837078
v -0.05460123 -0.01345172 -0.00807238
v -0.05484582 -0.00806851 -0.00807238
v -0.05360495 -0.01883494 -0.01055827
v -0.05424776 -0.01883494 -0.00833713
v -0.05553039 0.02509069 -0.00269005
v -0.05546626 -0.00806851 -0.00269005
v -0.05483091 -0.01883494 -0.00269005
v -0.05517841 -0.01345172 -0.00269005
f 1 2 7
f 1 7 13
f 1 13 17
f 1 17 9
f 1 9 3
f 1 3 8
f 1 8 4
f 1 4 10
f 1 10 21
f 1 21 35
f 1 35 55
f 1 55 73
f 1 73 85
f 1 85 75
f 1 75 74
f 1 74 57
f 1 57 40
f 1 40 24
f 1 24 11
f 1 11 5
f 1 5 2
f 2 5 6
f 2 6 7
f 3 9 19
f 3 19 18
f 3 18 8
f 4 8 18
f 4 18 33
f 4 33 37
f 4 37 22
f 4 22 10
f 5 11 12
f 5 12 6
f 6 13 7
f 6 12 14
f 6 14 15
f 6 15 16
f 6 16 17
f 6 17 13
f 9 17 30
f 9 30 46
f 9 46 62
f 9 62 64
f 9 64 78
f 9 78 87
f 9 87 84
f 9 84 83
f 9 83 69
f 9 69 66
f 9 66 49
f 9 49 32
f 9 32 19
f 10 20 21
f 10 22 23
f 10 23 20
f 11 24 12
f 12 24 25
f 12 25 14
f 14 25 26
f 14 26 27
f 14 27 15
f 15 27 28
f 15 28 16
f 16 28 29
f 16 29 17
f 17 29 31
f 17 31 30
f 18 19 32
f 18 32 33
f 20 34 35
f 20 35 21
f 20 23 36
f 20 36 34
f 22 37 23
f 23 38 36
f 23 37 33
f 23 33 32
f 23 32 39
f 23 39 38
f 24 40 25
f 25 41 42
f 25 42 27
f 25 27 26
f 25 40 41
f 27 42 43
f 27 43 44
f 27 44 28
f 28 44 45
f 28 45 29
f 29 45 31
f 30 31 47
f 30 47 48
f 30 48 46
f 31 48 47
f 31 45 48
f 32 49 50
f 32 50 51
f 32 51 39
f 34 36 52
f 34 52 53
f 34 53 54
f 34 54 55
f 34 55 35
f 36 38 52
f 38 39 56
f 38 56 52
f 39 51 56
f 40 57 41
f 41 58 43
f 41 43 42
f 41 57 58
f 43 58 72
f 43 72 59
f 43 59 76
f 43 76 60
f 43 60 44
f 44 60 61
f 44 61 48
f 44 48 45
f 46 48 62
f 48 63 64
f 48 64 62
f 48 61 65
f 48 65 63
f 49 66 50
f 50 67 68
f 50 68 51
f 50 66 69
f 50 69 70
f 50 70 67
f 51 68 56
f 52 59 53
f 52 56 71
f 52 71 59
f 53 59 54
f 54 59 72
f 54 72 73
f 54 73 55
f 56 68 71
f 57 74 58
f 58 74 75
f 58 75 85
f 58 85 72
f 59 71 76
f 60 76 86
f 60 86 77
f 60 77 61
f 61 77 65
f 63 65 64
f 64 65 79
f 64 79 78
f 65 77 79
f 67 80 81
f 67 81 82
f 67 82 71
f 67 71 68
f 67 70 69
f 67 69 83
f 67 83 84
f 67 84 80
f 71 82 76
f 72 85 73
f 76 82 86
f 77 86 88
f 77 88 79
f 78 79 88
f 78 88 87
f 80 84 81
f 81 84 88
f 81 88 86
f 81 86 82
f 84 87 88

