# https://github.com/mikedh/trimesh
v -0.01368309 -0.04858328 -0.01146011
v -0.01368309 -0.05112985 -0.01145847
v -0.01368985 -0.04858292 -0.01145929
v -0.01368985 -0.04749380 -0.01145929
v 0.04035670 -0.04858328 -0.01146011
v -0.01368309 -0.05117346 -0.01145436
v 0.04035670 -0.05112985 -0.01145847
v -0.01368309 -0.05117418 -0.00307370
v -0.01368985 -0.04858292 -0.00454738
v -0.01368985 -0.04749380 -0.00986575
v 0.04035670 -0.04749380 -0.01145929
v 0.04573837 -0.04749380 -0.01145683
v 0.04043107 -0.05117563 -0.01145354
v -0.01344646 -0.05117563 -0.01145354
v -0.01353435 -0.05117563 -0.00307370
v 0.04573837 -0.05112985 -0.01145190
v -0.01368309 -0.04858328 -0.00307370
v -0.01368985 -0.04780482 -0.00454738
v 0.05381763 -0.04749380 -0.00986575
v 0.05107947 -0.04749380 -0.01132383
v 0.04573837 -0.05117563 -0.01144698
v 0.05467627 -0.05117563 -0.00307370
v 0.04579246 -0.05117563 -0.01144533
v 0.05106595 -0.04858328 -0.01127046
v 0.05101187 -0.05098858 -0.01115388
v 0.05537940 -0.04858328 -0.00307370
v 0.05535236 -0.04780482 -0.00454738
v 0.05433146 -0.04749380 -0.00987067
v 0.05264800 -0.04749380 -0.01117441
v 0.05360129 -0.04858292 -0.01102909
v 0.05390552 -0.05117563 -0.00807271
v 0.05455457 -0.05012939 -0.00807271
v 0.05489938 -0.05077883 -0.00307370
v 0.05090369 -0.05117563 -0.01114403
v 0.05406102 -0.04910045 -0.01095931
v 0.05496698 -0.04777599 -0.00807271
v 0.05425033 -0.04749380 -0.01032468
v 0.05412187 -0.04749380 -0.01100857
v 0.05408131 -0.04858328 -0.01097491
f 1 2 3
f 1 3 4
f 1 4 11
f 1 11 5
f 1 5 7
f 1 7 2
f 2 6 3
f 2 7 6
f 3 6 8
f 3 8 9
f 3 9 18
f 3 18 10
f 3 10 4
f 4 10 19
f 4 19 28
f 4 28 37
f 4 37 38
f 4 38 29
f 4 29 20
f 4 20 12
f 4 12 11
f 5 11 12
f 5 12 7
f 6 7 13
f 6 13 14
f 6 14 15
f 6 15 8
f 7 12 16
f 7 16 13
f 8 15 22
f 8 22 33
f 8 33 26
f 8 26 17
f 8 17 18
f 8 18 9
f 10 18 27
f 10 27 19
f 12 20 16
f 13 16 21
f 13 21 23
f 13 23 34
f 13 34 31
f 13 31 22
f 13 22 15
f 13 15 14
f 16 23 21
f 16 20 24
f 16 24 25
f 16 25 23
f 17 26 27
f 17 27 18
f 19 27 28
f 20 29 30
f 20 30 24
f 22 31 32
f 22 32 33
f 23 25 34
f 24 30 35
f 24 35 25
f 25 35 34
f 26 33 32
f 26 32 36
f 26 36 27
f 27 36 28
f 28 36 37
f 29 35 30
f 29 38 35
f 31 34 35
f 31 35 32
f 32 35 36
f 35 39 36
f 35 38 39
f 36 39 38
f 36 38 37

