# https://github.com/mikedh/trimesh
v 0.02542024 -0.01545467 -0.00942707
v 0.02542024 -0.01545467 -0.00870527
v 0.02542024 -0.01544771 -0.01146018
v 0.02775553 -0.01545467 -0.01145960
v 0.02622844 -0.01545467 -0.00547969
v 0.02542024 -0.01544771 -0.00547969
v 0.02775553 -0.01544771 -0.01146018
v 0.02542024 0.04572460 -0.01146018
v 0.03012595 -0.01545467 -0.01145960
v 0.02677456 -0.01545467 -0.00547969
v 0.02542024 0.05556531 -0.00547969
v 0.04037338 -0.01345871 -0.01145960
v 0.04036899 -0.01544076 -0.01145960
v 0.03674966 -0.01544771 -0.01145960
v 0.02775553 0.04574547 -0.01146018
v 0.02542024 0.05111439 -0.01138759
v 0.02677456 0.05112134 -0.01139345
v 0.02775553 0.05112134 -0.01139754
v 0.02960326 0.05111439 -0.01140398
v 0.02677456 0.04574547 -0.01146018
v 0.03012595 -0.01545467 -0.00839501
v 0.04037631 -0.01544771 -0.00939312
v 0.04037631 -0.01544771 -0.00634726
v 0.02677456 0.05559312 -0.00547969
v 0.02622844 0.05551663 -0.00598139
v 0.02653591 0.05537753 -0.00708487
v 0.02542024 0.05520367 -0.00807303
v 0.04037338 -0.01544076 -0.01145316
v 0.04037338 0.04571069 -0.01145960
v 0.03122990 0.04948702 -0.01142096
v 0.04036167 0.04572460 -0.01145960
v 0.02542024 0.05416048 -0.01103928
v 0.02677456 0.05417439 -0.01104572
v 0.02960326 0.05418830 -0.01105625
v 0.03012595 0.05111439 -0.01140281
v 0.04037631 0.05385448 -0.00939312
v 0.04037631 0.05458471 -0.00634726
v 0.04036752 0.05459862 -0.00634726
v 0.03851686 0.05491158 -0.00634726
v 0.03517866 0.05541926 -0.00634726
v 0.03498246 0.05544708 -0.00634726
v 0.03304542 0.05548881 -0.00634726
v 0.02960472 0.05553749 -0.00634726
v 0.02775553 0.05526626 -0.00807421
v 0.02677456 0.05524540 -0.00807421
v 0.04037338 0.04572460 -0.01145901
v 0.03122990 0.05110743 -0.01139989
v 0.03498246 0.05110048 -0.01138935
v 0.04035727 0.05117698 -0.01114582
v 0.04037338 0.05116307 -0.01114582
v 0.02896343 0.05516890 -0.00839442
v 0.02960472 0.05529408 -0.00807362
v 0.02960326 0.05517585 -0.00839501
v 0.03122844 0.05495331 -0.00896987
v 0.03163546 0.05479335 -0.00939312
v 0.03122844 0.05417439 -0.01105157
v 0.03179066 0.05416744 -0.01105040
v 0.03420940 0.05396576 -0.01106445
v 0.03420940 0.05110743 -0.01139110
v 0.04037338 0.05117002 -0.01114524
v 0.04037338 0.05351371 -0.01028937
v 0.04037631 0.05424394 -0.00839442
v 0.04037631 0.05441781 -0.00793839
v 0.03517866 0.05519672 -0.00808591
v 0.03498246 0.05521062 -0.00807362
v 0.03498246 0.05413266 -0.01104103
v 0.03556372 0.05411875 -0.01102406
v 0.03855932 0.05400749 -0.01093625
v 0.03517866 0.05510631 -0.00839442
v 0.03122844 0.05516194 -0.00839501
v 0.03203664 0.05485594 -0.00921047
v 0.03420940 0.05414657 -0.01104337
v 0.03662814 0.05466817 -0.00939312
v 0.03538363 0.05509240 -0.00839442
v 0.03498393 0.05474467 -0.00939312
v 0.03674966 0.05407703 -0.01098893
f 1 2 6
f 1 6 11
f 1 11 27
f 1 27 32
f 1 32 16
f 1 16 8
f 1 8 3
f 1 3 4
f 1 4 9
f 1 9 21
f 1 21 10
f 1 10 5
f 1 5 2
f 2 5 6
f 3 7 9
f 3 9 4
f 3 8 20
f 3 20 15
f 3 15 7
f 5 10 24
f 5 24 11
f 5 11 6
f 7 12 13
f 7 13 14
f 7 14 9
f 7 15 29
f 7 29 12
f 8 16 17
f 8 17 18
f 8 18 19
f 8 19 20
f 9 14 22
f 9 22 23
f 9 23 21
f 10 21 23
f 10 23 37
f 10 37 24
f 11 24 25
f 11 25 26
f 11 26 27
f 12 28 13
f 12 29 36
f 12 36 22
f 12 22 28
f 13 28 22
f 13 22 14
f 15 20 19
f 15 19 30
f 15 30 31
f 15 31 29
f 16 32 33
f 16 33 17
f 17 33 34
f 17 34 18
f 18 34 19
f 19 35 31
f 19 31 30
f 19 34 35
f 22 36 62
f 22 62 63
f 22 63 37
f 22 37 23
f 24 37 38
f 24 38 39
f 24 39 40
f 24 40 41
f 24 41 42
f 24 42 43
f 24 43 25
f 25 43 26
f 26 44 45
f 26 45 27
f 26 43 44
f 27 45 32
f 29 31 46
f 29 46 36
f 31 35 47
f 31 47 48
f 31 48 49
f 31 49 50
f 31 50 46
f 32 45 44
f 32 44 51
f 32 51 52
f 32 52 33
f 33 52 53
f 33 53 34
f 34 53 54
f 34 54 55
f 34 55 56
f 34 56 57
f 34 57 58
f 34 58 48
f 34 48 59
f 34 59 35
f 35 59 48
f 35 48 47
f 36 46 50
f 36 50 60
f 36 60 61
f 36 61 62
f 37 63 38
f 38 63 39
f 39 63 64
f 39 64 40
f 40 64 41
f 41 64 65
f 41 65 42
f 42 65 52
f 42 52 43
f 43 52 44
f 44 52 51
f 48 58 66
f 48 66 67
f 48 67 68
f 48 68 49
f 49 68 60
f 49 60 50
f 52 65 69
f 52 69 70
f 52 70 54
f 52 54 53
f 54 71 55
f 54 70 71
f 55 71 72
f 55 72 56
f 56 72 57
f 57 72 58
f 58 72 66
f 60 68 61
f 61 68 62
f 62 68 63
f 63 73 64
f 63 68 73
f 64 73 74
f 64 74 69
f 64 69 65
f 66 72 75
f 66 75 67
f 67 76 68
f 67 75 69
f 67 69 76
f 68 76 69
f 68 69 73
f 69 74 73
f 69 75 71
f 69 71 70
f 71 75 72

