# https://github.com/mikedh/trimesh
v -0.04573476 -0.02219046 -0.01146018
v -0.04571373 -0.02276208 -0.01145794
v -0.04721760 -0.02276208 -0.01135473
v -0.04783808 -0.02219046 -0.01131435
v -0.05137166 -0.01883493 -0.01106980
v -0.04573476 -0.01883801 -0.01146018
v 0.03488549 -0.02276208 -0.01146018
v -0.05053033 -0.02276208 -0.01109897
v -0.05066704 -0.02219046 -0.01109448
v -0.04573476 -0.01883493 -0.01145794
v -0.05360117 -0.01883493 -0.01055827
v -0.04036077 -0.01883493 -0.01146018
v 0.04573863 -0.02276208 -0.01146018
v -0.05143476 -0.02276208 -0.01082301
v -0.05339084 -0.02040910 -0.01036307
v -0.05409546 -0.02276208 -0.00731854
v -0.05413752 -0.02219046 -0.00746886
v -0.05424269 -0.01883493 -0.00833488
v 0.04573863 -0.01883493 -0.01146018
v 0.04840984 -0.02276208 -0.01120442
v -0.05309638 -0.02276208 -0.00991436
v -0.05317000 -0.02219046 -0.01002429
v -0.05425320 -0.02276208 -0.00579291
v -0.05434785 -0.02219046 -0.00534195
v -0.05483162 -0.01883493 -0.00269229
v 0.04904084 -0.01883493 -0.01111019
v 0.04930375 -0.02276208 -0.01111019
v -0.05446354 -0.02276208 -0.00269229
v -0.05452663 -0.02219046 -0.00269229
v -0.05483162 -0.01883570 0.00269005
v -0.05423217 -0.01883493 0.00822943
v 0.05068143 -0.01883493 -0.00807238
v 0.05159637 -0.02276208 -0.00771790
v 0.05109158 -0.02276208 -0.00864450
v 0.05103899 -0.02276208 -0.00874097
v -0.05446354 -0.02276208 -0.00125192
v -0.05452663 -0.02219046 -0.00125192
v -0.05429527 -0.01883609 0.00772014
v -0.05422165 -0.01883493 0.00833264
v -0.05454767 -0.02195405 0.00269005
v -0.05409546 -0.02276131 0.00732079
v -0.05415855 -0.02121021 0.00772014
v 0.05178567 -0.01883493 -0.00269229
v 0.05260597 -0.02276208 -0.00268780
v -0.05053033 -0.02276131 0.01109672
v -0.05308586 -0.02276131 0.00990987
v -0.05380099 -0.02276131 0.00824738
v -0.05445302 -0.02276131 0.00268780
v 0.03489601 -0.02276208 0.01146018
v -0.05388512 -0.01939502 0.00917398
v -0.05415855 -0.01883493 0.00852110
v -0.05362221 -0.02113295 0.00937814
v 0.05178567 -0.01883493 0.00268556
v 0.05260597 -0.02276208 0.00268780
v -0.04571373 -0.02276131 0.01145570
v -0.05137166 -0.01883609 0.01106756
v -0.05338033 -0.02040795 0.01035859
v -0.05319103 -0.02195405 0.01006468
v -0.04571373 -0.02195405 0.01145794
v 0.04573863 -0.02276208 0.01146018
v 0.03489601 -0.01883801 0.01146018
v -0.05216040 -0.01883493 0.01043263
v 0.05193291 -0.02276208 0.00607560
v 0.05068143 -0.01883493 0.00807014
v -0.05177129 -0.01883493 0.01077814
v -0.05155044 -0.01883609 0.01101147
v -0.04571373 -0.01883609 0.01145794
v 0.04930375 -0.02276208 0.01111019
v 0.04573863 -0.01883493 0.01146018
v 0.03498014 -0.01883493 0.01146018
v 0.05159637 -0.02276208 0.00771566
v 0.04904084 -0.01883493 0.01111019
v 0.05068143 -0.01883801 0.00807238
f 1 2 3
f 1 3 4
f 1 4 5
f 1 5 6
f 1 6 12
f 1 12 19
f 1 19 13
f 1 13 7
f 1 7 2
f 2 7 13
f 2 13 20
f 2 20 27
f 2 27 35
f 2 35 34
f 2 34 33
f 2 33 44
f 2 44 54
f 2 54 63
f 2 63 71
f 2 71 68
f 2 68 60
f 2 60 49
f 2 49 36
f 2 36 28
f 2 28 23
f 2 23 16
f 2 16 21
f 2 21 14
f 2 14 8
f 2 8 3
f 3 8 4
f 4 8 9
f 4 9 5
f 5 10 6
f 5 9 11
f 5 11 18
f 5 18 25
f 5 25 31
f 5 31 39
f 5 39 51
f 5 51 62
f 5 62 65
f 5 65 70
f 5 70 69
f 5 69 72
f 5 72 64
f 5 64 53
f 5 53 43
f 5 43 32
f 5 32 26
f 5 26 19
f 5 19 12
f 5 12 10
f 6 10 12
f 8 14 11
f 8 11 9
f 11 15 16
f 11 16 17
f 11 17 18
f 11 14 15
f 13 19 20
f 14 21 22
f 14 22 15
f 15 22 16
f 16 23 17
f 16 22 21
f 17 23 24
f 17 24 25
f 17 25 18
f 19 26 27
f 19 27 20
f 23 28 24
f 24 28 29
f 24 29 25
f 25 29 30
f 25 30 31
f 26 32 33
f 26 33 34
f 26 34 35
f 26 35 27
f 28 36 37
f 28 37 29
f 29 37 30
f 30 38 39
f 30 39 31
f 30 37 40
f 30 40 41
f 30 41 42
f 30 42 38
f 32 43 33
f 33 43 44
f 36 45 46
f 36 46 47
f 36 47 41
f 36 41 48
f 36 48 40
f 36 40 37
f 36 49 45
f 38 42 39
f 39 42 50
f 39 50 51
f 40 48 41
f 41 47 42
f 42 47 52
f 42 52 50
f 43 53 54
f 43 54 44
f 45 55 56
f 45 56 57
f 45 57 58
f 45 58 46
f 45 49 55
f 46 58 47
f 47 58 57
f 47 57 52
f 49 59 55
f 49 60 69
f 49 69 70
f 49 70 61
f 49 61 67
f 49 67 59
f 50 52 57
f 50 57 62
f 50 62 51
f 53 63 54
f 53 64 63
f 55 59 56
f 56 65 66
f 56 66 57
f 56 59 67
f 56 67 65
f 57 66 62
f 60 68 69
f 61 70 67
f 62 66 65
f 63 64 71
f 64 72 73
f 64 73 71
f 65 67 70
f 68 72 69
f 68 71 72
f 71 73 72

