# https://github.com/mikedh/trimesh
v 0.04430477 -0.05117563 -0.00843022
v 0.04430477 -0.05501623 -0.00843022
v 0.04430477 -0.05117563 -0.01145002
v -0.05480506 -0.05117563 -0.00843022
v 0.04430477 -0.05501623 -0.00964282
v -0.05013639 -0.05501623 -0.00843022
v 0.04430477 -0.05433164 -0.01110711
v 0.04035435 -0.05433991 -0.01111185
v 0.04035435 -0.05117563 -0.01145505
v -0.05465947 -0.05117563 -0.00894635
v -0.05485359 -0.05117976 -0.00843022
v 0.04035435 -0.05501623 -0.00970648
v -0.05117495 -0.05485984 -0.00843022
v -0.05010727 -0.05501623 -0.00844473
v 0.04035435 -0.05462864 -0.01051222
v 0.02547478 -0.05440796 -0.01097090
v -0.04573949 -0.05433991 -0.01111185
v 0.02547478 -0.05192149 -0.01137421
v -0.04573949 -0.05117563 -0.01145505
v -0.05405769 -0.05117563 -0.01051222
v -0.05479536 -0.05148014 -0.00844976
v -0.05480506 -0.05146059 -0.00843022
v -0.04573949 -0.05501623 -0.00970648
v -0.05147584 -0.05481097 -0.00843022
v -0.05147584 -0.05480721 -0.00844976
v -0.05021404 -0.05428879 -0.01051192
v -0.04774867 -0.05501623 -0.00947818
v -0.04573949 -0.05462864 -0.01051222
v 0.02546507 -0.05440796 -0.01097090
v 0.02546507 -0.05192149 -0.01137421
v -0.04912694 -0.05444292 -0.01051222
v -0.04990344 -0.05416698 -0.01099578
v -0.04647716 -0.05117563 -0.01142366
v -0.05393151 -0.05117563 -0.01081988
v -0.05350443 -0.05350608 -0.01049386
v -0.05478565 -0.05151435 -0.00843022
v -0.05150496 -0.05479894 -0.00843022
v -0.05337825 -0.05353014 -0.01051192
v -0.04922401 -0.05443691 -0.01051192
v -0.05199027 -0.05117563 -0.01114472
v -0.05146614 -0.05148051 -0.01118114
v -0.05144672 -0.05117563 -0.01119565
f 1 2 5
f 1 5 7
f 1 7 3
f 1 3 9
f 1 9 19
f 1 19 33
f 1 33 42
f 1 42 40
f 1 40 34
f 1 34 20
f 1 20 10
f 1 10 4
f 1 4 11
f 1 11 22
f 1 22 36
f 1 36 37
f 1 37 24
f 1 24 13
f 1 13 6
f 1 6 2
f 2 6 14
f 2 14 27
f 2 27 23
f 2 23 12
f 2 12 5
f 3 7 8
f 3 8 9
f 4 10 11
f 5 12 7
f 6 13 14
f 7 12 15
f 7 15 8
f 8 15 16
f 8 16 29
f 8 29 17
f 8 17 30
f 8 30 18
f 8 18 9
f 9 18 30
f 9 30 19
f 10 20 21
f 10 21 11
f 11 21 22
f 12 23 28
f 12 28 15
f 13 24 25
f 13 25 26
f 13 26 14
f 14 26 27
f 15 28 29
f 15 29 16
f 17 19 30
f 17 29 28
f 17 28 31
f 17 31 32
f 17 32 19
f 19 32 33
f 20 34 35
f 20 35 21
f 21 35 36
f 21 36 22
f 23 27 28
f 24 37 25
f 25 37 35
f 25 35 38
f 25 38 26
f 26 32 39
f 26 39 27
f 26 38 32
f 27 31 28
f 27 39 32
f 27 32 31
f 32 38 34
f 32 34 40
f 32 40 41
f 32 41 33
f 33 41 42
f 34 38 35
f 35 37 36
f 40 42 41

