# https://github.com/mikedh/trimesh
v -0.01368985 -0.04145001 -0.00307206
v -0.01368985 -0.03829249 -0.00307206
v 0.01523802 -0.04225724 -0.00307206
v -0.01368985 -0.04225724 -0.00307073
v -0.01368985 -0.03829249 0.00374159
v 0.05544552 -0.03829249 -0.00307206
v 0.05584058 -0.04225724 -0.00307206
v -0.01368985 -0.04225724 0.00371825
v -0.01368985 -0.04145001 0.00374159
v 0.05535016 -0.03829249 0.00374159
v 0.05548639 -0.03829249 -0.00269056
v 0.05578609 -0.04036529 -0.00269056
v 0.05569073 -0.03999738 -0.00307206
v 0.05579971 -0.04145001 -0.00307206
v 0.05587463 -0.04225724 -0.00283462
v 0.01523802 -0.04225724 0.00371958
v 0.05569754 -0.04145001 0.00374159
v 0.05564986 -0.04036529 0.00374159
v 0.05548639 -0.03829249 0.00268980
v 0.05560218 -0.03907915 -0.00064900
v 0.05573841 -0.04036529 -0.00307206
v 0.05578609 -0.04036529 0.00268980
v 0.05586101 -0.04166579 -0.00218567
v 0.05589507 -0.04225724 -0.00268989
v 0.05573841 -0.04225724 0.00371958
v 0.05569754 -0.04141547 0.00374159
v 0.05570435 -0.04145001 0.00371958
v 0.05589507 -0.04225724 0.00269046
v 0.05560218 -0.03907915 -0.00064833
f 1 2 6
f 1 6 13
f 1 13 21
f 1 21 14
f 1 14 7
f 1 7 3
f 1 3 4
f 1 4 8
f 1 8 9
f 1 9 5
f 1 5 2
f 2 5 10
f 2 10 19
f 2 19 11
f 2 11 6
f 3 7 15
f 3 15 24
f 3 24 28
f 3 28 25
f 3 25 16
f 3 16 8
f 3 8 4
f 5 9 17
f 5 17 26
f 5 26 18
f 5 18 10
f 6 11 12
f 6 12 13
f 7 14 15
f 8 16 9
f 9 16 25
f 9 25 17
f 10 18 22
f 10 22 19
f 11 19 29
f 11 29 20
f 11 20 12
f 12 21 13
f 12 20 29
f 12 29 22
f 12 22 23
f 12 23 24
f 12 24 21
f 14 24 15
f 14 21 24
f 17 25 26
f 18 26 27
f 18 27 28
f 18 28 22
f 19 22 29
f 22 28 23
f 23 28 24
f 25 28 27
f 25 27 26

