# https://github.com/mikedh/trimesh
v 0.05126308 -0.02671416 0.00898297
v 0.05126308 -0.02671416 0.00898175
v 0.05066496 -0.02671416 0.00980791
v 0.05190772 -0.02782754 0.00898175
v -0.01598570 -0.02671416 0.00898175
v 0.05080452 -0.02782754 0.00980791
v 0.05124979 -0.02782754 0.00947457
v -0.01598570 -0.02671416 0.00980791
v -0.01598570 -0.02782754 0.00898175
v -0.01598570 -0.02782754 0.00980791
f 1 2 5
f 1 5 8
f 1 8 3
f 1 3 4
f 1 4 2
f 2 4 9
f 2 9 5
f 3 6 7
f 3 7 4
f 3 8 10
f 3 10 6
f 4 7 6
f 4 6 10
f 4 10 9
f 5 9 10
f 5 10 8

