# https://github.com/mikedh/trimesh
v 0.02542134 -0.01883493 -0.01146018
v 0.02542134 -0.01883493 -0.00327533
v 0.02542134 -0.01545466 -0.01146018
v 0.04037777 -0.01883493 -0.01146018
v 0.02542134 -0.01545466 -0.00327533
v 0.04037191 -0.01883493 -0.00327533
v 0.04037191 -0.01545466 -0.01146018
v 0.04037777 -0.01545466 -0.01145297
v 0.04037777 -0.01883493 -0.01144176
v 0.04037777 -0.01545466 -0.00327533
v 0.04037777 -0.01551257 -0.00327533
f 1 2 5
f 1 5 3
f 1 3 7
f 1 7 4
f 1 4 9
f 1 9 6
f 1 6 2
f 2 6 11
f 2 11 10
f 2 10 5
f 3 5 10
f 3 10 8
f 3 8 7
f 4 7 8
f 4 8 10
f 4 10 11
f 4 11 9
f 6 9 11

