# https://github.com/mikedh/trimesh
v 0.01336576 -0.01883493 0.01145991
v 0.01337369 -0.01883493 0.01007187
v 0.04037777 -0.01883493 0.01145991
v 0.01336576 0.04574582 0.01145991
v 0.01336576 -0.01388487 0.01007187
v 0.04037777 -0.01883493 0.01007187
v 0.04037777 0.04035750 0.01145991
v 0.01336841 0.04675882 0.01140080
v 0.01336841 0.05128501 0.01113583
v 0.01336576 0.04675882 0.01140053
v 0.04036455 0.04574582 0.01145991
v 0.02523508 0.04675882 0.01144972
v 0.02959782 0.05112695 0.01140474
v 0.02422239 0.05112695 0.01138368
v 0.01883902 0.05112695 0.01135365
v 0.01336576 0.04675882 0.01007187
v 0.04037777 0.05229082 0.01007187
v 0.04037777 0.04574582 0.01145950
v 0.01336841 0.05130656 0.01113434
v 0.01336841 0.05362713 0.01051607
v 0.01336841 0.05377800 0.01007187
v 0.02959782 0.04675882 0.01144972
v 0.03498119 0.05112695 0.01138966
v 0.02959782 0.05418751 0.01105688
v 0.02422239 0.05415877 0.01103582
v 0.01883902 0.05411566 0.01100579
v 0.01512937 0.05400790 0.01091733
v 0.03907952 0.05414441 0.01007187
v 0.03855864 0.05402946 0.01093731
v 0.04037777 0.05122034 0.01113189
v 0.04037777 0.05119879 0.01114575
v 0.04035662 0.05120598 0.01114629
v 0.01458469 0.05414441 0.01007187
v 0.03498119 0.05416596 0.01104180
v 0.02959782 0.05456110 0.01007187
v 0.02597278 0.05453236 0.01007187
v 0.02055504 0.05446052 0.01007187
v 0.01883902 0.05442459 0.01007187
v 0.01623460 0.05433120 0.01007187
v 0.03498119 0.05451800 0.01007187
f 1 2 6
f 1 6 3
f 1 3 7
f 1 7 11
f 1 11 4
f 1 4 10
f 1 10 16
f 1 16 5
f 1 5 2
f 2 5 16
f 2 16 21
f 2 21 33
f 2 33 39
f 2 39 38
f 2 38 37
f 2 37 36
f 2 36 35
f 2 35 40
f 2 40 28
f 2 28 17
f 2 17 6
f 3 6 17
f 3 17 30
f 3 30 31
f 3 31 18
f 3 18 7
f 4 8 9
f 4 9 10
f 4 11 22
f 4 22 12
f 4 12 13
f 4 13 14
f 4 14 15
f 4 15 8
f 7 18 11
f 8 15 9
f 9 15 19
f 9 19 10
f 10 19 20
f 10 20 21
f 10 21 16
f 11 18 23
f 11 23 13
f 11 13 22
f 12 22 13
f 13 23 24
f 13 24 14
f 14 24 25
f 14 25 15
f 15 25 26
f 15 26 27
f 15 27 19
f 17 28 29
f 17 29 30
f 18 31 32
f 18 32 23
f 19 27 20
f 20 27 33
f 20 33 21
f 23 32 29
f 23 29 34
f 23 34 24
f 24 34 35
f 24 35 25
f 25 35 36
f 25 36 26
f 26 36 37
f 26 37 38
f 26 38 39
f 26 39 27
f 27 39 33
f 28 40 29
f 29 40 34
f 29 32 31
f 29 31 30
f 34 40 35

